M48
; DRILL file {KiCad 6.0.1} date Thu Feb 10 21:42:22 2022
; FORMAT={-:-/ absolute / inch / decimal}
; #@! TF.CreationDate,2022-02-10T21:42:22-06:00
; #@! TF.GenerationSoftware,Kicad,Pcbnew,6.0.1
; #@! TF.FileFunction,Plated,1,2,PTH
FMAT,2
INCH
; #@! TA.AperFunction,Plated,PTH,ViaDrill
T1C0.0157
; #@! TA.AperFunction,Plated,PTH,ComponentDrill
T2C0.0197
; #@! TA.AperFunction,Plated,PTH,ComponentDrill
T3C0.0394
; #@! TA.AperFunction,Plated,PTH,ComponentDrill
T4C0.0402
; #@! TA.AperFunction,Plated,PTH,ComponentDrill
T5C0.1260
%
G90
G05
T1
X1.648Y-4.172
X1.648Y-4.276
X1.648Y-4.374
X1.648Y-4.474
X1.648Y-4.574
X1.648Y-4.672
X1.648Y-4.774
X1.65Y-4.874
X1.65Y-4.974
X1.65Y-5.074
X1.652Y-5.174
X1.652Y-5.274
X1.8902Y-3.9972
X1.9809Y-5.3707
X2.0866Y-4.1102
X2.112Y-4.174
X2.112Y-4.374
X2.112Y-4.674
X2.112Y-4.774
X2.112Y-4.874
X2.112Y-4.974
X2.112Y-5.072
X2.114Y-4.272
X2.114Y-4.576
X2.114Y-5.172
X2.116Y-4.476
X2.1307Y-5.4343
X2.189Y-4.3189
X2.196Y-4.154
X2.2646Y-4.9791
X2.2853Y-4.3347
X2.2854Y-4.0209
X2.4114Y-5.9394
X2.4185Y-4.415
X2.4431Y-4.3246
X2.4488Y-5.2913
X2.5042Y-4.2636
X2.5666Y-4.8732
X2.5984Y-5.2047
X2.6124Y-4.2458
X2.6326Y-4.8792
X2.6669Y-3.6949
X2.6969Y-5.689
X2.6995Y-4.7192
X2.7638Y-6.3622
X2.7882Y-4.4307
X2.7894Y-4.6217
X2.7906Y-5.2268
X2.7937Y-5.7024
X2.7941Y-4.1386
X2.8626Y-4.8592
X2.8902Y-3.6402
X2.8906Y-3.5311
X2.8949Y-4.5406
X2.9291Y-5.3465
X2.9563Y-5.7846
X2.9567Y-5.9291
X2.9689Y-3.6953
X2.9764Y-4.311
X3.0039Y-6.0827
X3.0276Y-5.8425
X3.0394Y-5.4843
X3.1063Y-5.4843
X3.1496Y-5.5433
X3.1614Y-3.65
X3.1811Y-6.2689
X3.2426Y-5.1692
X3.2913Y-5.0
X3.315Y-3.7945
X3.3236Y-6.2709
X3.3307Y-4.811
X3.3543Y-3.9606
X3.3819Y-4.0039
X3.3941Y-3.65
X3.4098Y-5.6386
X3.4288Y-4.6429
X3.4291Y-4.5118
X3.4331Y-3.9921
X3.4583Y-6.215
X3.4636Y-5.8002
X3.4646Y-5.4094
X3.4764Y-3.9882
X3.4913Y-5.25
X3.502Y-5.0886
X3.5118Y-4.189
X3.5118Y-4.311
X3.535Y-5.5949
X3.5354Y-5.3937
X3.5709Y-4.6969
X3.5915Y-4.5787
X3.6079Y-5.4
X3.6102Y-4.2323
X3.626Y-4.1496
X3.6417Y-4.1929
X3.6417Y-4.3504
X3.6575Y-4.4803
X3.6732Y-5.3465
X3.7087Y-4.6378
X3.7146Y-5.6693
X3.7358Y-6.0988
X3.7398Y-4.4028
X3.7402Y-4.5197
X3.7795Y-4.6102
X3.7898Y-4.2555
X3.8071Y-5.1457
X3.8307Y-4.1575
X3.8398Y-4.437
X3.8443Y-4.6294
X3.8543Y-5.3504
X3.8894Y-4.5
X3.9012Y-5.0268
X3.9055Y-4.8465
X3.9055Y-5.2835
X3.9957Y-3.6697
X4.0033Y-4.2014
X4.0158Y-4.2736
X4.0158Y-4.3736
X4.0158Y-4.4736
X4.0158Y-4.5736
X4.0158Y-4.6736
X4.0158Y-4.7736
X4.0158Y-4.8736
X4.0158Y-4.9736
X4.0158Y-5.0736
X4.0158Y-5.1736
X4.0158Y-5.2736
X4.028Y-4.015
X4.1969Y-3.9331
X4.2466Y-4.9244
X4.2466Y-5.0244
X4.2466Y-5.1244
X4.2566Y-5.2344
X4.2795Y-3.9331
X4.4584Y-4.1736
X4.4584Y-4.2736
X4.4584Y-4.3736
X4.4584Y-4.4736
X4.4584Y-4.5736
X4.4584Y-4.9736
X4.4584Y-5.0736
X4.4584Y-5.1736
X4.4584Y-5.2736
X4.5366Y-4.6737
X4.5957Y-5.0476
T2
X2.2419Y-3.6532
X2.2423Y-6.3497
X2.2696Y-3.5864
X2.2696Y-3.72
X2.27Y-6.2829
X2.27Y-6.4165
X2.3364Y-3.5587
X2.3364Y-3.7477
X2.3368Y-6.2552
X2.3368Y-6.4442
X2.4032Y-3.5864
X2.4032Y-3.72
X2.4036Y-6.2829
X2.4036Y-6.4165
X2.4309Y-3.6532
X2.4313Y-6.3497
X3.6942Y-3.6509
X3.6946Y-6.3497
X3.7219Y-3.5841
X3.7219Y-3.7177
X3.7223Y-6.2829
X3.7223Y-6.4165
X3.7887Y-3.5564
X3.7887Y-3.7454
X3.7891Y-6.2552
X3.7891Y-6.4442
X3.8556Y-3.5841
X3.8556Y-3.7177
X3.8559Y-6.2829
X3.8559Y-6.4165
X3.8832Y-3.6509
X3.8836Y-6.3497
T3
X3.6315Y-4.8053
X3.6315Y-4.9053
X3.6315Y-5.0053
X3.7315Y-4.8053
X3.7315Y-4.9053
X3.7315Y-5.0053
T4
X2.2272Y-5.4594
X2.3272Y-5.4594
X2.39Y-3.8453
X2.39Y-3.9453
X2.4256Y-6.0587
X2.4256Y-6.1587
X2.4272Y-5.4594
X2.49Y-3.8453
X2.49Y-3.9453
X2.5256Y-6.0587
X2.5256Y-6.1587
X2.5272Y-5.4594
X2.59Y-3.8453
X2.59Y-3.9453
X2.6256Y-6.0587
X2.6256Y-6.1587
X2.6272Y-5.4594
X2.6272Y-5.5594
X2.69Y-3.8453
X2.69Y-3.9453
X2.7256Y-6.0587
X2.7256Y-6.1587
X2.79Y-3.8453
X2.79Y-3.9453
X2.8256Y-6.0587
X2.8256Y-6.1587
X2.89Y-3.8453
X2.89Y-3.9453
X2.9256Y-6.0587
X2.9256Y-6.1587
X3.2413Y-5.7587
X3.2413Y-5.8587
X3.2413Y-5.9587
X3.2413Y-6.0587
X3.2413Y-6.1587
X3.2583Y-3.8906
X3.3413Y-5.7587
X3.3583Y-3.8906
X3.4583Y-3.8906
X3.5583Y-3.8906
X3.6583Y-3.8906
T5
X2.3364Y-3.6532
X2.3368Y-6.3497
X3.7887Y-3.6509
X3.7891Y-6.3497
T0
M30
