%TF.GenerationSoftware,KiCad,Pcbnew,6.0.1*%
%TF.CreationDate,2022-02-10T21:42:24-06:00*%
%TF.ProjectId,POWER,504f5745-522e-46b6-9963-61645f706362,rev?*%
%TF.SameCoordinates,Original*%
%TF.FileFunction,Legend,Bot*%
%TF.FilePolarity,Positive*%
%FSLAX46Y46*%
G04 Gerber Fmt 4.6, Leading zero omitted, Abs format (unit mm)*
G04 Created by KiCad (PCBNEW 6.0.1) date 2022-02-10 21:42:24*
%MOMM*%
%LPD*%
G01*
G04 APERTURE LIST*
%ADD10C,0.200000*%
%ADD11C,0.150000*%
%ADD12C,0.120000*%
G04 APERTURE END LIST*
D10*
X104728571Y-146102380D02*
X104728571Y-145102380D01*
X103776190Y-146102380D02*
X104252380Y-146102380D01*
X104252380Y-145102380D01*
X102966666Y-146102380D02*
X103442857Y-146102380D01*
X103442857Y-145102380D01*
X102633333Y-146102380D02*
X102633333Y-145102380D01*
X102157142Y-146102380D02*
X102157142Y-145102380D01*
X101585714Y-146102380D01*
X101585714Y-145102380D01*
X100919047Y-145102380D02*
X100728571Y-145102380D01*
X100633333Y-145150000D01*
X100538095Y-145245238D01*
X100490476Y-145435714D01*
X100490476Y-145769047D01*
X100538095Y-145959523D01*
X100633333Y-146054761D01*
X100728571Y-146102380D01*
X100919047Y-146102380D01*
X101014285Y-146054761D01*
X101109523Y-145959523D01*
X101157142Y-145769047D01*
X101157142Y-145435714D01*
X101109523Y-145245238D01*
X101014285Y-145150000D01*
X100919047Y-145102380D01*
X100061904Y-146102380D02*
X100061904Y-145102380D01*
X99633333Y-146054761D02*
X99490476Y-146102380D01*
X99252380Y-146102380D01*
X99157142Y-146054761D01*
X99109523Y-146007142D01*
X99061904Y-145911904D01*
X99061904Y-145816666D01*
X99109523Y-145721428D01*
X99157142Y-145673809D01*
X99252380Y-145626190D01*
X99442857Y-145578571D01*
X99538095Y-145530952D01*
X99585714Y-145483333D01*
X99633333Y-145388095D01*
X99633333Y-145292857D01*
X99585714Y-145197619D01*
X99538095Y-145150000D01*
X99442857Y-145102380D01*
X99204761Y-145102380D01*
X99061904Y-145150000D01*
X97919047Y-146054761D02*
X97776190Y-146102380D01*
X97538095Y-146102380D01*
X97442857Y-146054761D01*
X97395238Y-146007142D01*
X97347619Y-145911904D01*
X97347619Y-145816666D01*
X97395238Y-145721428D01*
X97442857Y-145673809D01*
X97538095Y-145626190D01*
X97728571Y-145578571D01*
X97823809Y-145530952D01*
X97871428Y-145483333D01*
X97919047Y-145388095D01*
X97919047Y-145292857D01*
X97871428Y-145197619D01*
X97823809Y-145150000D01*
X97728571Y-145102380D01*
X97490476Y-145102380D01*
X97347619Y-145150000D01*
X96919047Y-146102380D02*
X96919047Y-145102380D01*
X96538095Y-145102380D01*
X96442857Y-145150000D01*
X96395238Y-145197619D01*
X96347619Y-145292857D01*
X96347619Y-145435714D01*
X96395238Y-145530952D01*
X96442857Y-145578571D01*
X96538095Y-145626190D01*
X96919047Y-145626190D01*
X95966666Y-145816666D02*
X95490476Y-145816666D01*
X96061904Y-146102380D02*
X95728571Y-145102380D01*
X95395238Y-146102380D01*
X94490476Y-146007142D02*
X94538095Y-146054761D01*
X94680952Y-146102380D01*
X94776190Y-146102380D01*
X94919047Y-146054761D01*
X95014285Y-145959523D01*
X95061904Y-145864285D01*
X95109523Y-145673809D01*
X95109523Y-145530952D01*
X95061904Y-145340476D01*
X95014285Y-145245238D01*
X94919047Y-145150000D01*
X94776190Y-145102380D01*
X94680952Y-145102380D01*
X94538095Y-145150000D01*
X94490476Y-145197619D01*
X94061904Y-145578571D02*
X93728571Y-145578571D01*
X93585714Y-146102380D02*
X94061904Y-146102380D01*
X94061904Y-145102380D01*
X93585714Y-145102380D01*
X92442857Y-146054761D02*
X92300000Y-146102380D01*
X92061904Y-146102380D01*
X91966666Y-146054761D01*
X91919047Y-146007142D01*
X91871428Y-145911904D01*
X91871428Y-145816666D01*
X91919047Y-145721428D01*
X91966666Y-145673809D01*
X92061904Y-145626190D01*
X92252380Y-145578571D01*
X92347619Y-145530952D01*
X92395238Y-145483333D01*
X92442857Y-145388095D01*
X92442857Y-145292857D01*
X92395238Y-145197619D01*
X92347619Y-145150000D01*
X92252380Y-145102380D01*
X92014285Y-145102380D01*
X91871428Y-145150000D01*
X91252380Y-145102380D02*
X91061904Y-145102380D01*
X90966666Y-145150000D01*
X90871428Y-145245238D01*
X90823809Y-145435714D01*
X90823809Y-145769047D01*
X90871428Y-145959523D01*
X90966666Y-146054761D01*
X91061904Y-146102380D01*
X91252380Y-146102380D01*
X91347619Y-146054761D01*
X91442857Y-145959523D01*
X91490476Y-145769047D01*
X91490476Y-145435714D01*
X91442857Y-145245238D01*
X91347619Y-145150000D01*
X91252380Y-145102380D01*
X89823809Y-146007142D02*
X89871428Y-146054761D01*
X90014285Y-146102380D01*
X90109523Y-146102380D01*
X90252380Y-146054761D01*
X90347619Y-145959523D01*
X90395238Y-145864285D01*
X90442857Y-145673809D01*
X90442857Y-145530952D01*
X90395238Y-145340476D01*
X90347619Y-145245238D01*
X90252380Y-145150000D01*
X90109523Y-145102380D01*
X90014285Y-145102380D01*
X89871428Y-145150000D01*
X89823809Y-145197619D01*
X89395238Y-146102380D02*
X89395238Y-145102380D01*
X88919047Y-145578571D02*
X88585714Y-145578571D01*
X88442857Y-146102380D02*
X88919047Y-146102380D01*
X88919047Y-145102380D01*
X88442857Y-145102380D01*
X88157142Y-145102380D02*
X87585714Y-145102380D01*
X87871428Y-146102380D02*
X87871428Y-145102380D01*
X87061904Y-145626190D02*
X87061904Y-146102380D01*
X87395238Y-145102380D02*
X87061904Y-145626190D01*
X86728571Y-145102380D01*
D11*
X99585714Y-103156428D02*
X99478571Y-103192142D01*
X99442857Y-103227857D01*
X99407142Y-103299285D01*
X99407142Y-103406428D01*
X99442857Y-103477857D01*
X99478571Y-103513571D01*
X99549999Y-103549285D01*
X99835714Y-103549285D01*
X99835714Y-102799285D01*
X99585714Y-102799285D01*
X99514285Y-102835000D01*
X99478571Y-102870714D01*
X99442857Y-102942142D01*
X99442857Y-103013571D01*
X99478571Y-103085000D01*
X99514285Y-103120714D01*
X99585714Y-103156428D01*
X99835714Y-103156428D01*
X98764285Y-103049285D02*
X98764285Y-103549285D01*
X99085714Y-103049285D02*
X99085714Y-103442142D01*
X99049999Y-103513571D01*
X98978571Y-103549285D01*
X98871428Y-103549285D01*
X98799999Y-103513571D01*
X98764285Y-103477857D01*
X98514285Y-103049285D02*
X98228571Y-103049285D01*
X98407142Y-103549285D02*
X98407142Y-102906428D01*
X98371428Y-102835000D01*
X98299999Y-102799285D01*
X98228571Y-102799285D01*
X98085714Y-103049285D02*
X97799999Y-103049285D01*
X97978571Y-103549285D02*
X97978571Y-102906428D01*
X97942857Y-102835000D01*
X97871428Y-102799285D01*
X97799999Y-102799285D01*
X97264285Y-103513571D02*
X97335714Y-103549285D01*
X97478571Y-103549285D01*
X97550000Y-103513571D01*
X97585714Y-103442142D01*
X97585714Y-103156428D01*
X97550000Y-103085000D01*
X97478571Y-103049285D01*
X97335714Y-103049285D01*
X97264285Y-103085000D01*
X97228571Y-103156428D01*
X97228571Y-103227857D01*
X97585714Y-103299285D01*
X97014285Y-103049285D02*
X96728571Y-103049285D01*
X96907142Y-102799285D02*
X96907142Y-103442142D01*
X96871428Y-103513571D01*
X96800000Y-103549285D01*
X96728571Y-103549285D01*
X96585714Y-103049285D02*
X96300000Y-103049285D01*
X96478571Y-102799285D02*
X96478571Y-103442142D01*
X96442857Y-103513571D01*
X96371428Y-103549285D01*
X96300000Y-103549285D01*
X96014285Y-103513571D02*
X96014285Y-103549285D01*
X96050000Y-103620714D01*
X96085714Y-103656428D01*
X95157142Y-103335000D02*
X94800000Y-103335000D01*
X95228571Y-103549285D02*
X94978571Y-102799285D01*
X94728571Y-103549285D01*
X94478571Y-103549285D02*
X94478571Y-103049285D01*
X94478571Y-103192142D02*
X94442857Y-103120714D01*
X94407142Y-103085000D01*
X94335714Y-103049285D01*
X94264285Y-103049285D01*
X94014285Y-103049285D02*
X94014285Y-103549285D01*
X94014285Y-103120714D02*
X93978571Y-103085000D01*
X93907142Y-103049285D01*
X93800000Y-103049285D01*
X93728571Y-103085000D01*
X93692857Y-103156428D01*
X93692857Y-103549285D01*
X93014285Y-103549285D02*
X93014285Y-103156428D01*
X93050000Y-103085000D01*
X93121428Y-103049285D01*
X93264285Y-103049285D01*
X93335714Y-103085000D01*
X93014285Y-103513571D02*
X93085714Y-103549285D01*
X93264285Y-103549285D01*
X93335714Y-103513571D01*
X93371428Y-103442142D01*
X93371428Y-103370714D01*
X93335714Y-103299285D01*
X93264285Y-103263571D01*
X93085714Y-103263571D01*
X93014285Y-103227857D01*
X92621428Y-103513571D02*
X92621428Y-103549285D01*
X92657142Y-103620714D01*
X92692857Y-103656428D01*
X91728571Y-103549285D02*
X91728571Y-102799285D01*
X91550000Y-102799285D01*
X91442857Y-102835000D01*
X91371428Y-102906428D01*
X91335714Y-102977857D01*
X91300000Y-103120714D01*
X91300000Y-103227857D01*
X91335714Y-103370714D01*
X91371428Y-103442142D01*
X91442857Y-103513571D01*
X91550000Y-103549285D01*
X91728571Y-103549285D01*
X90657142Y-103549285D02*
X90657142Y-103156428D01*
X90692857Y-103085000D01*
X90764285Y-103049285D01*
X90907142Y-103049285D01*
X90978571Y-103085000D01*
X90657142Y-103513571D02*
X90728571Y-103549285D01*
X90907142Y-103549285D01*
X90978571Y-103513571D01*
X91014285Y-103442142D01*
X91014285Y-103370714D01*
X90978571Y-103299285D01*
X90907142Y-103263571D01*
X90728571Y-103263571D01*
X90657142Y-103227857D01*
X90300000Y-103049285D02*
X90300000Y-103549285D01*
X90300000Y-103120714D02*
X90264285Y-103085000D01*
X90192857Y-103049285D01*
X90085714Y-103049285D01*
X90014285Y-103085000D01*
X89978571Y-103156428D01*
X89978571Y-103549285D01*
X89621428Y-103549285D02*
X89621428Y-103049285D01*
X89621428Y-102799285D02*
X89657142Y-102835000D01*
X89621428Y-102870714D01*
X89585714Y-102835000D01*
X89621428Y-102799285D01*
X89621428Y-102870714D01*
X88978571Y-103513571D02*
X89050000Y-103549285D01*
X89192857Y-103549285D01*
X89264285Y-103513571D01*
X89300000Y-103442142D01*
X89300000Y-103156428D01*
X89264285Y-103085000D01*
X89192857Y-103049285D01*
X89050000Y-103049285D01*
X88978571Y-103085000D01*
X88942857Y-103156428D01*
X88942857Y-103227857D01*
X89300000Y-103299285D01*
X88514285Y-103549285D02*
X88585714Y-103513571D01*
X88621428Y-103442142D01*
X88621428Y-102799285D01*
X88192857Y-103513571D02*
X88192857Y-103549285D01*
X88228571Y-103620714D01*
X88264285Y-103656428D01*
X86871428Y-103549285D02*
X87121428Y-103192142D01*
X87300000Y-103549285D02*
X87300000Y-102799285D01*
X87014285Y-102799285D01*
X86942857Y-102835000D01*
X86907142Y-102870714D01*
X86871428Y-102942142D01*
X86871428Y-103049285D01*
X86907142Y-103120714D01*
X86942857Y-103156428D01*
X87014285Y-103192142D01*
X87300000Y-103192142D01*
X86442857Y-103549285D02*
X86514285Y-103513571D01*
X86550000Y-103477857D01*
X86585714Y-103406428D01*
X86585714Y-103192142D01*
X86550000Y-103120714D01*
X86514285Y-103085000D01*
X86442857Y-103049285D01*
X86335714Y-103049285D01*
X86264285Y-103085000D01*
X86228571Y-103120714D01*
X86192857Y-103192142D01*
X86192857Y-103406428D01*
X86228571Y-103477857D01*
X86264285Y-103513571D01*
X86335714Y-103549285D01*
X86442857Y-103549285D01*
X85871428Y-103549285D02*
X85871428Y-102799285D01*
X85550000Y-103549285D02*
X85550000Y-103156428D01*
X85585714Y-103085000D01*
X85657142Y-103049285D01*
X85764285Y-103049285D01*
X85835714Y-103085000D01*
X85871428Y-103120714D01*
X85192857Y-103549285D02*
X85192857Y-103049285D01*
X85192857Y-102799285D02*
X85228571Y-102835000D01*
X85192857Y-102870714D01*
X85157142Y-102835000D01*
X85192857Y-102799285D01*
X85192857Y-102870714D01*
X84835714Y-103049285D02*
X84835714Y-103549285D01*
X84835714Y-103120714D02*
X84800000Y-103085000D01*
X84728571Y-103049285D01*
X84621428Y-103049285D01*
X84550000Y-103085000D01*
X84514285Y-103156428D01*
X84514285Y-103549285D01*
X84157142Y-103549285D02*
X84157142Y-103049285D01*
X84157142Y-102799285D02*
X84192857Y-102835000D01*
X84157142Y-102870714D01*
X84121428Y-102835000D01*
X84157142Y-102799285D01*
X84157142Y-102870714D01*
X83764285Y-103513571D02*
X83764285Y-103549285D01*
X83800000Y-103620714D01*
X83835714Y-103656428D01*
X82871428Y-103156428D02*
X82621428Y-103156428D01*
X82514285Y-103549285D02*
X82871428Y-103549285D01*
X82871428Y-102799285D01*
X82514285Y-102799285D01*
X82192857Y-103549285D02*
X82192857Y-103049285D01*
X82192857Y-102799285D02*
X82228571Y-102835000D01*
X82192857Y-102870714D01*
X82157142Y-102835000D01*
X82192857Y-102799285D01*
X82192857Y-102870714D01*
X81871428Y-103513571D02*
X81800000Y-103549285D01*
X81657142Y-103549285D01*
X81585714Y-103513571D01*
X81550000Y-103442142D01*
X81550000Y-103406428D01*
X81585714Y-103335000D01*
X81657142Y-103299285D01*
X81764285Y-103299285D01*
X81835714Y-103263571D01*
X81871428Y-103192142D01*
X81871428Y-103156428D01*
X81835714Y-103085000D01*
X81764285Y-103049285D01*
X81657142Y-103049285D01*
X81585714Y-103085000D01*
X81228571Y-103549285D02*
X81228571Y-102799285D01*
X80907142Y-103549285D02*
X80907142Y-103156428D01*
X80942857Y-103085000D01*
X81014285Y-103049285D01*
X81121428Y-103049285D01*
X81192857Y-103085000D01*
X81228571Y-103120714D01*
X80228571Y-103549285D02*
X80228571Y-103156428D01*
X80264285Y-103085000D01*
X80335714Y-103049285D01*
X80478571Y-103049285D01*
X80550000Y-103085000D01*
X80228571Y-103513571D02*
X80300000Y-103549285D01*
X80478571Y-103549285D01*
X80550000Y-103513571D01*
X80585714Y-103442142D01*
X80585714Y-103370714D01*
X80550000Y-103299285D01*
X80478571Y-103263571D01*
X80300000Y-103263571D01*
X80228571Y-103227857D01*
X79835714Y-103513571D02*
X79835714Y-103549285D01*
X79871428Y-103620714D01*
X79907142Y-103656428D01*
X78728571Y-102799285D02*
X78728571Y-103335000D01*
X78764285Y-103442142D01*
X78835714Y-103513571D01*
X78942857Y-103549285D01*
X79014285Y-103549285D01*
X78050000Y-103549285D02*
X78050000Y-103156428D01*
X78085714Y-103085000D01*
X78157142Y-103049285D01*
X78300000Y-103049285D01*
X78371428Y-103085000D01*
X78050000Y-103513571D02*
X78121428Y-103549285D01*
X78300000Y-103549285D01*
X78371428Y-103513571D01*
X78407142Y-103442142D01*
X78407142Y-103370714D01*
X78371428Y-103299285D01*
X78300000Y-103263571D01*
X78121428Y-103263571D01*
X78050000Y-103227857D01*
X77728571Y-103513571D02*
X77657142Y-103549285D01*
X77514285Y-103549285D01*
X77442857Y-103513571D01*
X77407142Y-103442142D01*
X77407142Y-103406428D01*
X77442857Y-103335000D01*
X77514285Y-103299285D01*
X77621428Y-103299285D01*
X77692857Y-103263571D01*
X77728571Y-103192142D01*
X77728571Y-103156428D01*
X77692857Y-103085000D01*
X77621428Y-103049285D01*
X77514285Y-103049285D01*
X77442857Y-103085000D01*
X76978571Y-103549285D02*
X77050000Y-103513571D01*
X77085714Y-103477857D01*
X77121428Y-103406428D01*
X77121428Y-103192142D01*
X77085714Y-103120714D01*
X77050000Y-103085000D01*
X76978571Y-103049285D01*
X76871428Y-103049285D01*
X76800000Y-103085000D01*
X76764285Y-103120714D01*
X76728571Y-103192142D01*
X76728571Y-103406428D01*
X76764285Y-103477857D01*
X76800000Y-103513571D01*
X76871428Y-103549285D01*
X76978571Y-103549285D01*
X76407142Y-103049285D02*
X76407142Y-103549285D01*
X76407142Y-103120714D02*
X76371428Y-103085000D01*
X76299999Y-103049285D01*
X76192857Y-103049285D01*
X76121428Y-103085000D01*
X76085714Y-103156428D01*
X76085714Y-103549285D01*
X75692857Y-103513571D02*
X75692857Y-103549285D01*
X75728571Y-103620714D01*
X75764285Y-103656428D01*
X74835714Y-103513571D02*
X74728571Y-103549285D01*
X74549999Y-103549285D01*
X74478571Y-103513571D01*
X74442857Y-103477857D01*
X74407142Y-103406428D01*
X74407142Y-103335000D01*
X74442857Y-103263571D01*
X74478571Y-103227857D01*
X74549999Y-103192142D01*
X74692857Y-103156428D01*
X74764285Y-103120714D01*
X74799999Y-103085000D01*
X74835714Y-103013571D01*
X74835714Y-102942142D01*
X74799999Y-102870714D01*
X74764285Y-102835000D01*
X74692857Y-102799285D01*
X74514285Y-102799285D01*
X74407142Y-102835000D01*
X73764285Y-103549285D02*
X73764285Y-103156428D01*
X73800000Y-103085000D01*
X73871428Y-103049285D01*
X74014285Y-103049285D01*
X74085714Y-103085000D01*
X73764285Y-103513571D02*
X73835714Y-103549285D01*
X74014285Y-103549285D01*
X74085714Y-103513571D01*
X74121428Y-103442142D01*
X74121428Y-103370714D01*
X74085714Y-103299285D01*
X74014285Y-103263571D01*
X73835714Y-103263571D01*
X73764285Y-103227857D01*
X73407142Y-103549285D02*
X73407142Y-103049285D01*
X73407142Y-103120714D02*
X73371428Y-103085000D01*
X73299999Y-103049285D01*
X73192857Y-103049285D01*
X73121428Y-103085000D01*
X73085714Y-103156428D01*
X73085714Y-103549285D01*
X73085714Y-103156428D02*
X73049999Y-103085000D01*
X72978571Y-103049285D01*
X72871428Y-103049285D01*
X72799999Y-103085000D01*
X72764285Y-103156428D01*
X72764285Y-103549285D01*
X72371428Y-103513571D02*
X72371428Y-103549285D01*
X72407142Y-103620714D01*
X72442857Y-103656428D01*
X71049999Y-103549285D02*
X71299999Y-103192142D01*
X71478571Y-103549285D02*
X71478571Y-102799285D01*
X71192857Y-102799285D01*
X71121428Y-102835000D01*
X71085714Y-102870714D01*
X71049999Y-102942142D01*
X71049999Y-103049285D01*
X71085714Y-103120714D01*
X71121428Y-103156428D01*
X71192857Y-103192142D01*
X71478571Y-103192142D01*
X70728571Y-103549285D02*
X70728571Y-103049285D01*
X70728571Y-102799285D02*
X70764285Y-102835000D01*
X70728571Y-102870714D01*
X70692857Y-102835000D01*
X70728571Y-102799285D01*
X70728571Y-102870714D01*
X70407142Y-103513571D02*
X70335714Y-103549285D01*
X70192857Y-103549285D01*
X70121428Y-103513571D01*
X70085714Y-103442142D01*
X70085714Y-103406428D01*
X70121428Y-103335000D01*
X70192857Y-103299285D01*
X70299999Y-103299285D01*
X70371428Y-103263571D01*
X70407142Y-103192142D01*
X70407142Y-103156428D01*
X70371428Y-103085000D01*
X70299999Y-103049285D01*
X70192857Y-103049285D01*
X70121428Y-103085000D01*
X69764285Y-103549285D02*
X69764285Y-102799285D01*
X69442857Y-103549285D02*
X69442857Y-103156428D01*
X69478571Y-103085000D01*
X69549999Y-103049285D01*
X69657142Y-103049285D01*
X69728571Y-103085000D01*
X69764285Y-103120714D01*
X69085714Y-103549285D02*
X69085714Y-103049285D01*
X69085714Y-102799285D02*
X69121428Y-102835000D01*
X69085714Y-102870714D01*
X69049999Y-102835000D01*
X69085714Y-102799285D01*
X69085714Y-102870714D01*
X68692857Y-103513571D02*
X68692857Y-103549285D01*
X68728571Y-103620714D01*
X68764285Y-103656428D01*
X67550000Y-103156428D02*
X67442857Y-103192142D01*
X67407142Y-103227857D01*
X67371428Y-103299285D01*
X67371428Y-103406428D01*
X67407142Y-103477857D01*
X67442857Y-103513571D01*
X67514285Y-103549285D01*
X67800000Y-103549285D01*
X67800000Y-102799285D01*
X67550000Y-102799285D01*
X67478571Y-102835000D01*
X67442857Y-102870714D01*
X67407142Y-102942142D01*
X67407142Y-103013571D01*
X67442857Y-103085000D01*
X67478571Y-103120714D01*
X67550000Y-103156428D01*
X67800000Y-103156428D01*
X67049999Y-103549285D02*
X67049999Y-103049285D01*
X67049999Y-103192142D02*
X67014285Y-103120714D01*
X66978571Y-103085000D01*
X66907142Y-103049285D01*
X66835714Y-103049285D01*
X66585714Y-103549285D02*
X66585714Y-103049285D01*
X66585714Y-102799285D02*
X66621428Y-102835000D01*
X66585714Y-102870714D01*
X66549999Y-102835000D01*
X66585714Y-102799285D01*
X66585714Y-102870714D01*
X65907142Y-103549285D02*
X65907142Y-103156428D01*
X65942857Y-103085000D01*
X66014285Y-103049285D01*
X66157142Y-103049285D01*
X66228571Y-103085000D01*
X65907142Y-103513571D02*
X65978571Y-103549285D01*
X66157142Y-103549285D01*
X66228571Y-103513571D01*
X66264285Y-103442142D01*
X66264285Y-103370714D01*
X66228571Y-103299285D01*
X66157142Y-103263571D01*
X65978571Y-103263571D01*
X65907142Y-103227857D01*
X65549999Y-103049285D02*
X65549999Y-103549285D01*
X65549999Y-103120714D02*
X65514285Y-103085000D01*
X65442857Y-103049285D01*
X65335714Y-103049285D01*
X65264285Y-103085000D01*
X65228571Y-103156428D01*
X65228571Y-103549285D01*
X64835714Y-103513571D02*
X64835714Y-103549285D01*
X64871428Y-103620714D01*
X64907142Y-103656428D01*
X63978571Y-103335000D02*
X63621428Y-103335000D01*
X64049999Y-103549285D02*
X63799999Y-102799285D01*
X63549999Y-103549285D01*
X63192857Y-103549285D02*
X63264285Y-103513571D01*
X63299999Y-103442142D01*
X63299999Y-102799285D01*
X62621428Y-103513571D02*
X62692857Y-103549285D01*
X62835714Y-103549285D01*
X62907142Y-103513571D01*
X62942857Y-103442142D01*
X62942857Y-103156428D01*
X62907142Y-103085000D01*
X62835714Y-103049285D01*
X62692857Y-103049285D01*
X62621428Y-103085000D01*
X62585714Y-103156428D01*
X62585714Y-103227857D01*
X62942857Y-103299285D01*
X62335714Y-103549285D02*
X61942857Y-103049285D01*
X62335714Y-103049285D02*
X61942857Y-103549285D01*
X61621428Y-103513571D02*
X61621428Y-103549285D01*
X61657142Y-103620714D01*
X61692857Y-103656428D01*
X60335714Y-102835000D02*
X60407142Y-102799285D01*
X60514285Y-102799285D01*
X60621428Y-102835000D01*
X60692857Y-102906428D01*
X60728571Y-102977857D01*
X60764285Y-103120714D01*
X60764285Y-103227857D01*
X60728571Y-103370714D01*
X60692857Y-103442142D01*
X60621428Y-103513571D01*
X60514285Y-103549285D01*
X60442857Y-103549285D01*
X60335714Y-103513571D01*
X60299999Y-103477857D01*
X60299999Y-103227857D01*
X60442857Y-103227857D01*
X59657142Y-103549285D02*
X59657142Y-103156428D01*
X59692857Y-103085000D01*
X59764285Y-103049285D01*
X59907142Y-103049285D01*
X59978571Y-103085000D01*
X59657142Y-103513571D02*
X59728571Y-103549285D01*
X59907142Y-103549285D01*
X59978571Y-103513571D01*
X60014285Y-103442142D01*
X60014285Y-103370714D01*
X59978571Y-103299285D01*
X59907142Y-103263571D01*
X59728571Y-103263571D01*
X59657142Y-103227857D01*
X58978571Y-103049285D02*
X58978571Y-103549285D01*
X59299999Y-103049285D02*
X59299999Y-103442142D01*
X59264285Y-103513571D01*
X59192857Y-103549285D01*
X59085714Y-103549285D01*
X59014285Y-103513571D01*
X58978571Y-103477857D01*
X58728571Y-103049285D02*
X58442857Y-103049285D01*
X58621428Y-102799285D02*
X58621428Y-103442142D01*
X58585714Y-103513571D01*
X58514285Y-103549285D01*
X58442857Y-103549285D01*
X57871428Y-103549285D02*
X57871428Y-103156428D01*
X57907142Y-103085000D01*
X57978571Y-103049285D01*
X58121428Y-103049285D01*
X58192857Y-103085000D01*
X57871428Y-103513571D02*
X57942857Y-103549285D01*
X58121428Y-103549285D01*
X58192857Y-103513571D01*
X58228571Y-103442142D01*
X58228571Y-103370714D01*
X58192857Y-103299285D01*
X58121428Y-103263571D01*
X57942857Y-103263571D01*
X57871428Y-103227857D01*
X57514285Y-103549285D02*
X57514285Y-103049285D01*
X57514285Y-103120714D02*
X57478571Y-103085000D01*
X57407142Y-103049285D01*
X57299999Y-103049285D01*
X57228571Y-103085000D01*
X57192857Y-103156428D01*
X57192857Y-103549285D01*
X57192857Y-103156428D02*
X57157142Y-103085000D01*
X57085714Y-103049285D01*
X56978571Y-103049285D01*
X56907142Y-103085000D01*
X56871428Y-103156428D01*
X56871428Y-103549285D01*
X56478571Y-103513571D02*
X56478571Y-103549285D01*
X56514285Y-103620714D01*
X56549999Y-103656428D01*
X55621428Y-103335000D02*
X55264285Y-103335000D01*
X55692857Y-103549285D02*
X55442857Y-102799285D01*
X55192857Y-103549285D01*
X54942857Y-103549285D02*
X54942857Y-103049285D01*
X54942857Y-103192142D02*
X54907142Y-103120714D01*
X54871428Y-103085000D01*
X54799999Y-103049285D01*
X54728571Y-103049285D01*
X54549999Y-103049285D02*
X54371428Y-103549285D01*
X54192857Y-103049285D02*
X54371428Y-103549285D01*
X54442857Y-103727857D01*
X54478571Y-103763571D01*
X54549999Y-103799285D01*
D10*
X100207142Y-146847380D02*
X99635714Y-146847380D01*
X99921428Y-147847380D02*
X99921428Y-146847380D01*
X99350000Y-147561666D02*
X98873809Y-147561666D01*
X99445238Y-147847380D02*
X99111904Y-146847380D01*
X98778571Y-147847380D01*
X97873809Y-147847380D02*
X98207142Y-147371190D01*
X98445238Y-147847380D02*
X98445238Y-146847380D01*
X98064285Y-146847380D01*
X97969047Y-146895000D01*
X97921428Y-146942619D01*
X97873809Y-147037857D01*
X97873809Y-147180714D01*
X97921428Y-147275952D01*
X97969047Y-147323571D01*
X98064285Y-147371190D01*
X98445238Y-147371190D01*
X97492857Y-147799761D02*
X97350000Y-147847380D01*
X97111904Y-147847380D01*
X97016666Y-147799761D01*
X96969047Y-147752142D01*
X96921428Y-147656904D01*
X96921428Y-147561666D01*
X96969047Y-147466428D01*
X97016666Y-147418809D01*
X97111904Y-147371190D01*
X97302380Y-147323571D01*
X97397619Y-147275952D01*
X97445238Y-147228333D01*
X97492857Y-147133095D01*
X97492857Y-147037857D01*
X97445238Y-146942619D01*
X97397619Y-146895000D01*
X97302380Y-146847380D01*
X97064285Y-146847380D01*
X96921428Y-146895000D01*
X96492857Y-147466428D02*
X95730952Y-147466428D01*
X95254761Y-147847380D02*
X95254761Y-146847380D01*
X94921428Y-147561666D01*
X94588095Y-146847380D01*
X94588095Y-147847380D01*
X94111904Y-147847380D02*
X94111904Y-146847380D01*
X93540476Y-147847380D02*
X93969047Y-147275952D01*
X93540476Y-146847380D02*
X94111904Y-147418809D01*
X93207142Y-146847380D02*
X92588095Y-146847380D01*
X92921428Y-147228333D01*
X92778571Y-147228333D01*
X92683333Y-147275952D01*
X92635714Y-147323571D01*
X92588095Y-147418809D01*
X92588095Y-147656904D01*
X92635714Y-147752142D01*
X92683333Y-147799761D01*
X92778571Y-147847380D01*
X93064285Y-147847380D01*
X93159523Y-147799761D01*
X93207142Y-147752142D01*
X108254761Y-149457380D02*
X108254761Y-148457380D01*
X107873809Y-148457380D01*
X107778571Y-148505000D01*
X107730952Y-148552619D01*
X107683333Y-148647857D01*
X107683333Y-148790714D01*
X107730952Y-148885952D01*
X107778571Y-148933571D01*
X107873809Y-148981190D01*
X108254761Y-148981190D01*
X107111904Y-149457380D02*
X107207142Y-149409761D01*
X107254761Y-149362142D01*
X107302380Y-149266904D01*
X107302380Y-148981190D01*
X107254761Y-148885952D01*
X107207142Y-148838333D01*
X107111904Y-148790714D01*
X106969047Y-148790714D01*
X106873809Y-148838333D01*
X106826190Y-148885952D01*
X106778571Y-148981190D01*
X106778571Y-149266904D01*
X106826190Y-149362142D01*
X106873809Y-149409761D01*
X106969047Y-149457380D01*
X107111904Y-149457380D01*
X106445238Y-148790714D02*
X106254761Y-149457380D01*
X106064285Y-148981190D01*
X105873809Y-149457380D01*
X105683333Y-148790714D01*
X104921428Y-149409761D02*
X105016666Y-149457380D01*
X105207142Y-149457380D01*
X105302380Y-149409761D01*
X105350000Y-149314523D01*
X105350000Y-148933571D01*
X105302380Y-148838333D01*
X105207142Y-148790714D01*
X105016666Y-148790714D01*
X104921428Y-148838333D01*
X104873809Y-148933571D01*
X104873809Y-149028809D01*
X105350000Y-149124047D01*
X104445238Y-149457380D02*
X104445238Y-148790714D01*
X104445238Y-148981190D02*
X104397619Y-148885952D01*
X104350000Y-148838333D01*
X104254761Y-148790714D01*
X104159523Y-148790714D01*
X103064285Y-149457380D02*
X103064285Y-148457380D01*
X102730952Y-149171666D01*
X102397619Y-148457380D01*
X102397619Y-149457380D01*
X101492857Y-149457380D02*
X101492857Y-148933571D01*
X101540476Y-148838333D01*
X101635714Y-148790714D01*
X101826190Y-148790714D01*
X101921428Y-148838333D01*
X101492857Y-149409761D02*
X101588095Y-149457380D01*
X101826190Y-149457380D01*
X101921428Y-149409761D01*
X101969047Y-149314523D01*
X101969047Y-149219285D01*
X101921428Y-149124047D01*
X101826190Y-149076428D01*
X101588095Y-149076428D01*
X101492857Y-149028809D01*
X101016666Y-148790714D02*
X101016666Y-149457380D01*
X101016666Y-148885952D02*
X100969047Y-148838333D01*
X100873809Y-148790714D01*
X100730952Y-148790714D01*
X100635714Y-148838333D01*
X100588095Y-148933571D01*
X100588095Y-149457380D01*
X99683333Y-149457380D02*
X99683333Y-148933571D01*
X99730952Y-148838333D01*
X99826190Y-148790714D01*
X100016666Y-148790714D01*
X100111904Y-148838333D01*
X99683333Y-149409761D02*
X99778571Y-149457380D01*
X100016666Y-149457380D01*
X100111904Y-149409761D01*
X100159523Y-149314523D01*
X100159523Y-149219285D01*
X100111904Y-149124047D01*
X100016666Y-149076428D01*
X99778571Y-149076428D01*
X99683333Y-149028809D01*
X98778571Y-148790714D02*
X98778571Y-149600238D01*
X98826190Y-149695476D01*
X98873809Y-149743095D01*
X98969047Y-149790714D01*
X99111904Y-149790714D01*
X99207142Y-149743095D01*
X98778571Y-149409761D02*
X98873809Y-149457380D01*
X99064285Y-149457380D01*
X99159523Y-149409761D01*
X99207142Y-149362142D01*
X99254761Y-149266904D01*
X99254761Y-148981190D01*
X99207142Y-148885952D01*
X99159523Y-148838333D01*
X99064285Y-148790714D01*
X98873809Y-148790714D01*
X98778571Y-148838333D01*
X97921428Y-149409761D02*
X98016666Y-149457380D01*
X98207142Y-149457380D01*
X98302380Y-149409761D01*
X98350000Y-149314523D01*
X98350000Y-148933571D01*
X98302380Y-148838333D01*
X98207142Y-148790714D01*
X98016666Y-148790714D01*
X97921428Y-148838333D01*
X97873809Y-148933571D01*
X97873809Y-149028809D01*
X98350000Y-149124047D01*
X97445238Y-149457380D02*
X97445238Y-148790714D01*
X97445238Y-148885952D02*
X97397619Y-148838333D01*
X97302380Y-148790714D01*
X97159523Y-148790714D01*
X97064285Y-148838333D01*
X97016666Y-148933571D01*
X97016666Y-149457380D01*
X97016666Y-148933571D02*
X96969047Y-148838333D01*
X96873809Y-148790714D01*
X96730952Y-148790714D01*
X96635714Y-148838333D01*
X96588095Y-148933571D01*
X96588095Y-149457380D01*
X95730952Y-149409761D02*
X95826190Y-149457380D01*
X96016666Y-149457380D01*
X96111904Y-149409761D01*
X96159523Y-149314523D01*
X96159523Y-148933571D01*
X96111904Y-148838333D01*
X96016666Y-148790714D01*
X95826190Y-148790714D01*
X95730952Y-148838333D01*
X95683333Y-148933571D01*
X95683333Y-149028809D01*
X96159523Y-149124047D01*
X95254761Y-148790714D02*
X95254761Y-149457380D01*
X95254761Y-148885952D02*
X95207142Y-148838333D01*
X95111904Y-148790714D01*
X94969047Y-148790714D01*
X94873809Y-148838333D01*
X94826190Y-148933571D01*
X94826190Y-149457380D01*
X94492857Y-148790714D02*
X94111904Y-148790714D01*
X94350000Y-148457380D02*
X94350000Y-149314523D01*
X94302380Y-149409761D01*
X94207142Y-149457380D01*
X94111904Y-149457380D01*
X92683333Y-148933571D02*
X92540476Y-148981190D01*
X92492857Y-149028809D01*
X92445238Y-149124047D01*
X92445238Y-149266904D01*
X92492857Y-149362142D01*
X92540476Y-149409761D01*
X92635714Y-149457380D01*
X93016666Y-149457380D01*
X93016666Y-148457380D01*
X92683333Y-148457380D01*
X92588095Y-148505000D01*
X92540476Y-148552619D01*
X92492857Y-148647857D01*
X92492857Y-148743095D01*
X92540476Y-148838333D01*
X92588095Y-148885952D01*
X92683333Y-148933571D01*
X93016666Y-148933571D01*
X91873809Y-149457380D02*
X91969047Y-149409761D01*
X92016666Y-149362142D01*
X92064285Y-149266904D01*
X92064285Y-148981190D01*
X92016666Y-148885952D01*
X91969047Y-148838333D01*
X91873809Y-148790714D01*
X91730952Y-148790714D01*
X91635714Y-148838333D01*
X91588095Y-148885952D01*
X91540476Y-148981190D01*
X91540476Y-149266904D01*
X91588095Y-149362142D01*
X91635714Y-149409761D01*
X91730952Y-149457380D01*
X91873809Y-149457380D01*
X90683333Y-149457380D02*
X90683333Y-148933571D01*
X90730952Y-148838333D01*
X90826190Y-148790714D01*
X91016666Y-148790714D01*
X91111904Y-148838333D01*
X90683333Y-149409761D02*
X90778571Y-149457380D01*
X91016666Y-149457380D01*
X91111904Y-149409761D01*
X91159523Y-149314523D01*
X91159523Y-149219285D01*
X91111904Y-149124047D01*
X91016666Y-149076428D01*
X90778571Y-149076428D01*
X90683333Y-149028809D01*
X90207142Y-149457380D02*
X90207142Y-148790714D01*
X90207142Y-148981190D02*
X90159523Y-148885952D01*
X90111904Y-148838333D01*
X90016666Y-148790714D01*
X89921428Y-148790714D01*
X89159523Y-149457380D02*
X89159523Y-148457380D01*
X89159523Y-149409761D02*
X89254761Y-149457380D01*
X89445238Y-149457380D01*
X89540476Y-149409761D01*
X89588095Y-149362142D01*
X89635714Y-149266904D01*
X89635714Y-148981190D01*
X89588095Y-148885952D01*
X89540476Y-148838333D01*
X89445238Y-148790714D01*
X89254761Y-148790714D01*
X89159523Y-148838333D01*
X87350000Y-149457380D02*
X87683333Y-148981190D01*
X87921428Y-149457380D02*
X87921428Y-148457380D01*
X87540476Y-148457380D01*
X87445238Y-148505000D01*
X87397619Y-148552619D01*
X87350000Y-148647857D01*
X87350000Y-148790714D01*
X87397619Y-148885952D01*
X87445238Y-148933571D01*
X87540476Y-148981190D01*
X87921428Y-148981190D01*
X86540476Y-149409761D02*
X86635714Y-149457380D01*
X86826190Y-149457380D01*
X86921428Y-149409761D01*
X86969047Y-149314523D01*
X86969047Y-148933571D01*
X86921428Y-148838333D01*
X86826190Y-148790714D01*
X86635714Y-148790714D01*
X86540476Y-148838333D01*
X86492857Y-148933571D01*
X86492857Y-149028809D01*
X86969047Y-149124047D01*
X86159523Y-148790714D02*
X85921428Y-149457380D01*
X85683333Y-148790714D01*
X85302380Y-149362142D02*
X85254761Y-149409761D01*
X85302380Y-149457380D01*
X85350000Y-149409761D01*
X85302380Y-149362142D01*
X85302380Y-149457380D01*
X84873809Y-149171666D02*
X84397619Y-149171666D01*
X84969047Y-149457380D02*
X84635714Y-148457380D01*
X84302380Y-149457380D01*
D11*
%TO.C,J2*%
X108124333Y-135732380D02*
X108124333Y-136446666D01*
X108171952Y-136589523D01*
X108267190Y-136684761D01*
X108410047Y-136732380D01*
X108505285Y-136732380D01*
X107695761Y-135827619D02*
X107648142Y-135780000D01*
X107552904Y-135732380D01*
X107314809Y-135732380D01*
X107219571Y-135780000D01*
X107171952Y-135827619D01*
X107124333Y-135922857D01*
X107124333Y-136018095D01*
X107171952Y-136160952D01*
X107743380Y-136732380D01*
X107124333Y-136732380D01*
%TO.C,J4*%
X48124333Y-103132380D02*
X48124333Y-103846666D01*
X48171952Y-103989523D01*
X48267190Y-104084761D01*
X48410047Y-104132380D01*
X48505285Y-104132380D01*
X47219571Y-103465714D02*
X47219571Y-104132380D01*
X47457666Y-103084761D02*
X47695761Y-103799047D01*
X47076714Y-103799047D01*
%TO.C,R18*%
X97602380Y-108557142D02*
X97126190Y-108223809D01*
X97602380Y-107985714D02*
X96602380Y-107985714D01*
X96602380Y-108366666D01*
X96650000Y-108461904D01*
X96697619Y-108509523D01*
X96792857Y-108557142D01*
X96935714Y-108557142D01*
X97030952Y-108509523D01*
X97078571Y-108461904D01*
X97126190Y-108366666D01*
X97126190Y-107985714D01*
X97602380Y-109509523D02*
X97602380Y-108938095D01*
X97602380Y-109223809D02*
X96602380Y-109223809D01*
X96745238Y-109128571D01*
X96840476Y-109033333D01*
X96888095Y-108938095D01*
X97030952Y-110080952D02*
X96983333Y-109985714D01*
X96935714Y-109938095D01*
X96840476Y-109890476D01*
X96792857Y-109890476D01*
X96697619Y-109938095D01*
X96650000Y-109985714D01*
X96602380Y-110080952D01*
X96602380Y-110271428D01*
X96650000Y-110366666D01*
X96697619Y-110414285D01*
X96792857Y-110461904D01*
X96840476Y-110461904D01*
X96935714Y-110414285D01*
X96983333Y-110366666D01*
X97030952Y-110271428D01*
X97030952Y-110080952D01*
X97078571Y-109985714D01*
X97126190Y-109938095D01*
X97221428Y-109890476D01*
X97411904Y-109890476D01*
X97507142Y-109938095D01*
X97554761Y-109985714D01*
X97602380Y-110080952D01*
X97602380Y-110271428D01*
X97554761Y-110366666D01*
X97507142Y-110414285D01*
X97411904Y-110461904D01*
X97221428Y-110461904D01*
X97126190Y-110414285D01*
X97078571Y-110366666D01*
X97030952Y-110271428D01*
%TO.C,JP5*%
X81233333Y-109752380D02*
X81233333Y-110466666D01*
X81280952Y-110609523D01*
X81376190Y-110704761D01*
X81519047Y-110752380D01*
X81614285Y-110752380D01*
X80757142Y-110752380D02*
X80757142Y-109752380D01*
X80376190Y-109752380D01*
X80280952Y-109800000D01*
X80233333Y-109847619D01*
X80185714Y-109942857D01*
X80185714Y-110085714D01*
X80233333Y-110180952D01*
X80280952Y-110228571D01*
X80376190Y-110276190D01*
X80757142Y-110276190D01*
X79280952Y-109752380D02*
X79757142Y-109752380D01*
X79804761Y-110228571D01*
X79757142Y-110180952D01*
X79661904Y-110133333D01*
X79423809Y-110133333D01*
X79328571Y-110180952D01*
X79280952Y-110228571D01*
X79233333Y-110323809D01*
X79233333Y-110561904D01*
X79280952Y-110657142D01*
X79328571Y-110704761D01*
X79423809Y-110752380D01*
X79661904Y-110752380D01*
X79757142Y-110704761D01*
X79804761Y-110657142D01*
%TO.C,U3*%
X68721904Y-144952380D02*
X68721904Y-145761904D01*
X68674285Y-145857142D01*
X68626666Y-145904761D01*
X68531428Y-145952380D01*
X68340952Y-145952380D01*
X68245714Y-145904761D01*
X68198095Y-145857142D01*
X68150476Y-145761904D01*
X68150476Y-144952380D01*
X67769523Y-144952380D02*
X67150476Y-144952380D01*
X67483809Y-145333333D01*
X67340952Y-145333333D01*
X67245714Y-145380952D01*
X67198095Y-145428571D01*
X67150476Y-145523809D01*
X67150476Y-145761904D01*
X67198095Y-145857142D01*
X67245714Y-145904761D01*
X67340952Y-145952380D01*
X67626666Y-145952380D01*
X67721904Y-145904761D01*
X67769523Y-145857142D01*
X75631428Y-151539285D02*
X75381428Y-152289285D01*
X75131428Y-151539285D01*
X74738571Y-151539285D02*
X74595714Y-151539285D01*
X74524285Y-151575000D01*
X74452857Y-151646428D01*
X74417142Y-151789285D01*
X74417142Y-152039285D01*
X74452857Y-152182142D01*
X74524285Y-152253571D01*
X74595714Y-152289285D01*
X74738571Y-152289285D01*
X74810000Y-152253571D01*
X74881428Y-152182142D01*
X74917142Y-152039285D01*
X74917142Y-151789285D01*
X74881428Y-151646428D01*
X74810000Y-151575000D01*
X74738571Y-151539285D01*
X74095714Y-151539285D02*
X74095714Y-152146428D01*
X74060000Y-152217857D01*
X74024285Y-152253571D01*
X73952857Y-152289285D01*
X73810000Y-152289285D01*
X73738571Y-152253571D01*
X73702857Y-152217857D01*
X73667142Y-152146428D01*
X73667142Y-151539285D01*
X73417142Y-151539285D02*
X72988571Y-151539285D01*
X73202857Y-152289285D02*
X73202857Y-151539285D01*
X71071428Y-151575000D02*
X71142857Y-151539285D01*
X71250000Y-151539285D01*
X71357142Y-151575000D01*
X71428571Y-151646428D01*
X71464285Y-151717857D01*
X71500000Y-151860714D01*
X71500000Y-151967857D01*
X71464285Y-152110714D01*
X71428571Y-152182142D01*
X71357142Y-152253571D01*
X71250000Y-152289285D01*
X71178571Y-152289285D01*
X71071428Y-152253571D01*
X71035714Y-152217857D01*
X71035714Y-151967857D01*
X71178571Y-151967857D01*
X70714285Y-152289285D02*
X70714285Y-151539285D01*
X70285714Y-152289285D01*
X70285714Y-151539285D01*
X69928571Y-152289285D02*
X69928571Y-151539285D01*
X69750000Y-151539285D01*
X69642857Y-151575000D01*
X69571428Y-151646428D01*
X69535714Y-151717857D01*
X69500000Y-151860714D01*
X69500000Y-151967857D01*
X69535714Y-152110714D01*
X69571428Y-152182142D01*
X69642857Y-152253571D01*
X69750000Y-152289285D01*
X69928571Y-152289285D01*
X65150000Y-151539285D02*
X64900000Y-152289285D01*
X64650000Y-151539285D01*
X63971428Y-152289285D02*
X64221428Y-151932142D01*
X64400000Y-152289285D02*
X64400000Y-151539285D01*
X64114285Y-151539285D01*
X64042857Y-151575000D01*
X64007142Y-151610714D01*
X63971428Y-151682142D01*
X63971428Y-151789285D01*
X64007142Y-151860714D01*
X64042857Y-151896428D01*
X64114285Y-151932142D01*
X64400000Y-151932142D01*
X63650000Y-152289285D02*
X63650000Y-151539285D01*
X63364285Y-151539285D01*
X63292857Y-151575000D01*
X63257142Y-151610714D01*
X63221428Y-151682142D01*
X63221428Y-151789285D01*
X63257142Y-151860714D01*
X63292857Y-151896428D01*
X63364285Y-151932142D01*
X63650000Y-151932142D01*
X67511428Y-151539285D02*
X67261428Y-152289285D01*
X67011428Y-151539285D01*
X66761428Y-152289285D02*
X66761428Y-151539285D01*
X66404285Y-152289285D02*
X66404285Y-151539285D01*
X65975714Y-152289285D01*
X65975714Y-151539285D01*
X60231428Y-154229285D02*
X60231428Y-153479285D01*
X59945714Y-153479285D01*
X59874285Y-153515000D01*
X59838571Y-153550714D01*
X59802857Y-153622142D01*
X59802857Y-153729285D01*
X59838571Y-153800714D01*
X59874285Y-153836428D01*
X59945714Y-153872142D01*
X60231428Y-153872142D01*
X59088571Y-153515000D02*
X59160000Y-153479285D01*
X59267142Y-153479285D01*
X59374285Y-153515000D01*
X59445714Y-153586428D01*
X59481428Y-153657857D01*
X59517142Y-153800714D01*
X59517142Y-153907857D01*
X59481428Y-154050714D01*
X59445714Y-154122142D01*
X59374285Y-154193571D01*
X59267142Y-154229285D01*
X59195714Y-154229285D01*
X59088571Y-154193571D01*
X59052857Y-154157857D01*
X59052857Y-153907857D01*
X59195714Y-153907857D01*
X60213571Y-156376428D02*
X59963571Y-156376428D01*
X59856428Y-156769285D02*
X60213571Y-156769285D01*
X60213571Y-156019285D01*
X59856428Y-156019285D01*
X59535000Y-156769285D02*
X59535000Y-156019285D01*
X59106428Y-156769285D01*
X59106428Y-156019285D01*
%TO.C,JP2*%
X63222380Y-163256666D02*
X63936666Y-163256666D01*
X64079523Y-163209047D01*
X64174761Y-163113809D01*
X64222380Y-162970952D01*
X64222380Y-162875714D01*
X64222380Y-163732857D02*
X63222380Y-163732857D01*
X63222380Y-164113809D01*
X63270000Y-164209047D01*
X63317619Y-164256666D01*
X63412857Y-164304285D01*
X63555714Y-164304285D01*
X63650952Y-164256666D01*
X63698571Y-164209047D01*
X63746190Y-164113809D01*
X63746190Y-163732857D01*
X63317619Y-164685238D02*
X63270000Y-164732857D01*
X63222380Y-164828095D01*
X63222380Y-165066190D01*
X63270000Y-165161428D01*
X63317619Y-165209047D01*
X63412857Y-165256666D01*
X63508095Y-165256666D01*
X63650952Y-165209047D01*
X64222380Y-164637619D01*
X64222380Y-165256666D01*
%TO.C,R14*%
X68642857Y-162402380D02*
X68976190Y-161926190D01*
X69214285Y-162402380D02*
X69214285Y-161402380D01*
X68833333Y-161402380D01*
X68738095Y-161450000D01*
X68690476Y-161497619D01*
X68642857Y-161592857D01*
X68642857Y-161735714D01*
X68690476Y-161830952D01*
X68738095Y-161878571D01*
X68833333Y-161926190D01*
X69214285Y-161926190D01*
X67690476Y-162402380D02*
X68261904Y-162402380D01*
X67976190Y-162402380D02*
X67976190Y-161402380D01*
X68071428Y-161545238D01*
X68166666Y-161640476D01*
X68261904Y-161688095D01*
X66833333Y-161735714D02*
X66833333Y-162402380D01*
X67071428Y-161354761D02*
X67309523Y-162069047D01*
X66690476Y-162069047D01*
D12*
%TO.C,J2*%
X105191000Y-130650000D02*
X105191000Y-129630000D01*
X110391000Y-117950000D02*
X110391000Y-116930000D01*
X105191000Y-115410000D02*
X105191000Y-114390000D01*
X110391000Y-125570000D02*
X110391000Y-124550000D01*
X103751000Y-134710000D02*
X105191000Y-134710000D01*
X110391000Y-110330000D02*
X110391000Y-109310000D01*
X110391000Y-133190000D02*
X110391000Y-132170000D01*
X105191000Y-125570000D02*
X105191000Y-124550000D01*
X105191000Y-107790000D02*
X105191000Y-106770000D01*
X105191000Y-117950000D02*
X105191000Y-116930000D01*
X110391000Y-128110000D02*
X110391000Y-127090000D01*
X110391000Y-112870000D02*
X110391000Y-111850000D01*
X110391000Y-130650000D02*
X110391000Y-129630000D01*
X110391000Y-135280000D02*
X110391000Y-134710000D01*
X105191000Y-104680000D02*
X110391000Y-104680000D01*
X105191000Y-110330000D02*
X105191000Y-109310000D01*
X105191000Y-123030000D02*
X105191000Y-122010000D01*
X105191000Y-105250000D02*
X105191000Y-104680000D01*
X105191000Y-135280000D02*
X110391000Y-135280000D01*
X105191000Y-135280000D02*
X105191000Y-134710000D01*
X110391000Y-123030000D02*
X110391000Y-122010000D01*
X110391000Y-107790000D02*
X110391000Y-106770000D01*
X105191000Y-112870000D02*
X105191000Y-111850000D01*
X105191000Y-133190000D02*
X105191000Y-132170000D01*
X110391000Y-120490000D02*
X110391000Y-119470000D01*
X105191000Y-120490000D02*
X105191000Y-119470000D01*
X105191000Y-128110000D02*
X105191000Y-127090000D01*
X110391000Y-105250000D02*
X110391000Y-104680000D01*
X110391000Y-115410000D02*
X110391000Y-114390000D01*
%TO.C,J4*%
X50391000Y-109310000D02*
X50391000Y-110330000D01*
X51831000Y-105250000D02*
X50391000Y-105250000D01*
X45191000Y-106770000D02*
X45191000Y-107790000D01*
X45191000Y-124550000D02*
X45191000Y-125570000D01*
X50391000Y-135280000D02*
X45191000Y-135280000D01*
X45191000Y-116930000D02*
X45191000Y-117950000D01*
X50391000Y-114390000D02*
X50391000Y-115410000D01*
X50391000Y-134710000D02*
X50391000Y-135280000D01*
X50391000Y-124550000D02*
X50391000Y-125570000D01*
X50391000Y-129630000D02*
X50391000Y-130650000D01*
X45191000Y-111850000D02*
X45191000Y-112870000D01*
X45191000Y-119470000D02*
X45191000Y-120490000D01*
X50391000Y-106770000D02*
X50391000Y-107790000D01*
X45191000Y-104680000D02*
X45191000Y-105250000D01*
X45191000Y-122010000D02*
X45191000Y-123030000D01*
X45191000Y-134710000D02*
X45191000Y-135280000D01*
X50391000Y-119470000D02*
X50391000Y-120490000D01*
X45191000Y-127090000D02*
X45191000Y-128110000D01*
X50391000Y-116930000D02*
X50391000Y-117950000D01*
X45191000Y-129630000D02*
X45191000Y-130650000D01*
X50391000Y-111850000D02*
X50391000Y-112870000D01*
X50391000Y-104680000D02*
X50391000Y-105250000D01*
X45191000Y-114390000D02*
X45191000Y-115410000D01*
X50391000Y-122010000D02*
X50391000Y-123030000D01*
X45191000Y-109310000D02*
X45191000Y-110330000D01*
X50391000Y-104680000D02*
X45191000Y-104680000D01*
X50391000Y-127090000D02*
X50391000Y-128110000D01*
X45191000Y-132170000D02*
X45191000Y-133190000D01*
X50391000Y-132170000D02*
X50391000Y-133190000D01*
%TO.C,R18*%
X99535000Y-108972936D02*
X99535000Y-109427064D01*
X98065000Y-108972936D02*
X98065000Y-109427064D01*
%TO.C,JP5*%
X79000000Y-108200000D02*
X79000000Y-108800000D01*
X81100000Y-107500000D02*
X79700000Y-107500000D01*
X81800000Y-108800000D02*
X81800000Y-108200000D01*
X79700000Y-109500000D02*
X81100000Y-109500000D01*
X81800000Y-108200000D02*
G75*
G03*
X81100000Y-107500000I-699999J1D01*
G01*
X79700000Y-107500000D02*
G75*
G03*
X79000000Y-108200000I-1J-699999D01*
G01*
X81100000Y-109500000D02*
G75*
G03*
X81800000Y-108800000I1J699999D01*
G01*
X79000000Y-108800000D02*
G75*
G03*
X79700000Y-109500000I699999J-1D01*
G01*
%TO.C,U3*%
X80660000Y-157700000D02*
X80660000Y-132300000D01*
X55260000Y-132300000D02*
X55260000Y-157700000D01*
X88280000Y-124680000D02*
X88280000Y-124680000D01*
X80660000Y-132300000D02*
X55260000Y-132300000D01*
X55260000Y-157700000D02*
X80660000Y-157700000D01*
%TO.C,JP2*%
X63900000Y-160300000D02*
X63900000Y-161700000D01*
X65900000Y-161700000D02*
X65900000Y-160300000D01*
X64600000Y-162400000D02*
X65200000Y-162400000D01*
X65200000Y-159600000D02*
X64600000Y-159600000D01*
X65900000Y-160300000D02*
G75*
G03*
X65200000Y-159600000I-699999J1D01*
G01*
X64600000Y-159600000D02*
G75*
G03*
X63900000Y-160300000I-1J-699999D01*
G01*
X63900000Y-161700000D02*
G75*
G03*
X64600000Y-162400000I699999J-1D01*
G01*
X65200000Y-162400000D02*
G75*
G03*
X65900000Y-161700000I1J699999D01*
G01*
%TO.C,G\u002A\u002A\u002A*%
G36*
X102806025Y-142840942D02*
G01*
X102982362Y-142867396D01*
X103108879Y-142879220D01*
X103190122Y-142876422D01*
X103230642Y-142859011D01*
X103234985Y-142826994D01*
X103207700Y-142780379D01*
X103153334Y-142719175D01*
X103130038Y-142694061D01*
X103075912Y-142624799D01*
X103054286Y-142578642D01*
X103040936Y-142545857D01*
X102990697Y-142495762D01*
X102977724Y-142483770D01*
X102928248Y-142414509D01*
X102864298Y-142303819D01*
X102793492Y-142166866D01*
X102723448Y-142018815D01*
X102661783Y-141874830D01*
X102616117Y-141750077D01*
X102593820Y-141651895D01*
X102576346Y-141480648D01*
X102573862Y-141290881D01*
X102586436Y-141109559D01*
X102614135Y-140963648D01*
X102640810Y-140897382D01*
X102731156Y-140758289D01*
X102860266Y-140616709D01*
X103013078Y-140488119D01*
X103174527Y-140387991D01*
X103241258Y-140354957D01*
X103321883Y-140316615D01*
X103363487Y-140299014D01*
X103373469Y-140296242D01*
X103430417Y-140278522D01*
X103484638Y-140261137D01*
X103546432Y-140243763D01*
X103612759Y-140229037D01*
X103689294Y-140216691D01*
X103781707Y-140206462D01*
X103895671Y-140198084D01*
X104036858Y-140191291D01*
X104210941Y-140185818D01*
X104423593Y-140181401D01*
X104680484Y-140177773D01*
X104987288Y-140174671D01*
X105349678Y-140171828D01*
X105773324Y-140168979D01*
X105794080Y-140168844D01*
X106155089Y-140166005D01*
X106495155Y-140162439D01*
X106808528Y-140158262D01*
X107089460Y-140153595D01*
X107332204Y-140148555D01*
X107531011Y-140143262D01*
X107680133Y-140137833D01*
X107773821Y-140132387D01*
X107806328Y-140127044D01*
X107822787Y-140106765D01*
X107881624Y-140087517D01*
X107916751Y-140078077D01*
X107951873Y-140037994D01*
X107967339Y-139950794D01*
X107968940Y-139926412D01*
X107962304Y-139849241D01*
X107926574Y-139780531D01*
X107850211Y-139695090D01*
X107819897Y-139666313D01*
X107702843Y-139580529D01*
X107588805Y-139528486D01*
X107564223Y-139523986D01*
X107473764Y-139516226D01*
X107325178Y-139509556D01*
X107117208Y-139503957D01*
X106848599Y-139499411D01*
X106518093Y-139495898D01*
X106124434Y-139493400D01*
X105666365Y-139491897D01*
X105142629Y-139491370D01*
X104983607Y-139491369D01*
X104552887Y-139491404D01*
X104182361Y-139491258D01*
X103866985Y-139490616D01*
X103601715Y-139489167D01*
X103381509Y-139486595D01*
X103201323Y-139482590D01*
X103056114Y-139476837D01*
X102940839Y-139469024D01*
X102850455Y-139458838D01*
X102779919Y-139445965D01*
X102724187Y-139430093D01*
X102678217Y-139410908D01*
X102636965Y-139388098D01*
X102595387Y-139361349D01*
X102548442Y-139330348D01*
X102482561Y-139285731D01*
X102375036Y-139207061D01*
X102267886Y-139123315D01*
X102174623Y-139045504D01*
X102108756Y-138984636D01*
X102083798Y-138951722D01*
X102079812Y-138939684D01*
X102038456Y-138922277D01*
X102030714Y-138920850D01*
X101973555Y-138891857D01*
X101884454Y-138833188D01*
X101779101Y-138754963D01*
X101721056Y-138709602D01*
X101471422Y-138515110D01*
X101269886Y-138359236D01*
X101112985Y-138239350D01*
X100997255Y-138152826D01*
X100919231Y-138097035D01*
X100875449Y-138069348D01*
X100838554Y-138042133D01*
X100812125Y-137994052D01*
X100815555Y-137989820D01*
X100841280Y-137982726D01*
X100895153Y-137976514D01*
X100980698Y-137971133D01*
X101101441Y-137966534D01*
X101260908Y-137962665D01*
X101462625Y-137959476D01*
X101710117Y-137956917D01*
X102006910Y-137954936D01*
X102356530Y-137953484D01*
X102762502Y-137952509D01*
X103228352Y-137951961D01*
X103757606Y-137951790D01*
X103911493Y-137951794D01*
X104407545Y-137951900D01*
X104842763Y-137952220D01*
X105221890Y-137952850D01*
X105549664Y-137953882D01*
X105830826Y-137955413D01*
X106070117Y-137957537D01*
X106272276Y-137960348D01*
X106442044Y-137963941D01*
X106584161Y-137968411D01*
X106703367Y-137973852D01*
X106804404Y-137980359D01*
X106892010Y-137988026D01*
X106970926Y-137996949D01*
X107045892Y-138007221D01*
X107121650Y-138018938D01*
X107133086Y-138020781D01*
X107296604Y-138049068D01*
X107438500Y-138076978D01*
X107543912Y-138101384D01*
X107597974Y-138119160D01*
X107629364Y-138133359D01*
X107718551Y-138166768D01*
X107844070Y-138209830D01*
X107989391Y-138256735D01*
X108246948Y-138348386D01*
X108665084Y-138548942D01*
X109069311Y-138811046D01*
X109120984Y-138848563D01*
X109224523Y-138920641D01*
X109302321Y-138970552D01*
X109340544Y-138989208D01*
X109352153Y-138993565D01*
X109389814Y-139023934D01*
X109453308Y-139087174D01*
X109546961Y-139187861D01*
X109675098Y-139330573D01*
X109842044Y-139519885D01*
X109966873Y-139679667D01*
X110112271Y-139924597D01*
X110219393Y-140182163D01*
X110284225Y-140439435D01*
X110302753Y-140683482D01*
X110270962Y-140901376D01*
X110244253Y-140981657D01*
X110202693Y-141076713D01*
X110165954Y-141130693D01*
X110138473Y-141158829D01*
X110115419Y-141205551D01*
X110115241Y-141209046D01*
X110080960Y-141265158D01*
X109995507Y-141334142D01*
X109870743Y-141409501D01*
X109718529Y-141484738D01*
X109550723Y-141553357D01*
X109379187Y-141608859D01*
X109327398Y-141622470D01*
X109272169Y-141634706D01*
X109210213Y-141645169D01*
X109136057Y-141654064D01*
X109044229Y-141661596D01*
X108929254Y-141667969D01*
X108785661Y-141673390D01*
X108607976Y-141678062D01*
X108390727Y-141682191D01*
X108128441Y-141685983D01*
X107815646Y-141689641D01*
X107446867Y-141693372D01*
X107016633Y-141697380D01*
X106605764Y-141701315D01*
X106222311Y-141705506D01*
X105897087Y-141709769D01*
X105625574Y-141714242D01*
X105403253Y-141719060D01*
X105225607Y-141724360D01*
X105088118Y-141730279D01*
X104986268Y-141736953D01*
X104915539Y-141744519D01*
X104871412Y-141753113D01*
X104849370Y-141762872D01*
X104846431Y-141765268D01*
X104775457Y-141813121D01*
X104685310Y-141863267D01*
X104653094Y-141880803D01*
X104589940Y-141940512D01*
X104566115Y-142030795D01*
X104565339Y-142039302D01*
X104569170Y-142185016D01*
X104616207Y-142304293D01*
X104716099Y-142422319D01*
X104779365Y-142480227D01*
X104899350Y-142568412D01*
X105042224Y-142643279D01*
X105229516Y-142717196D01*
X105239055Y-142720562D01*
X105276520Y-142732478D01*
X105318789Y-142742858D01*
X105370640Y-142751852D01*
X105436852Y-142759608D01*
X105522205Y-142766276D01*
X105631475Y-142772006D01*
X105769444Y-142776948D01*
X105940889Y-142781250D01*
X106150590Y-142785064D01*
X106403325Y-142788537D01*
X106703874Y-142791820D01*
X107057015Y-142795061D01*
X107467526Y-142798412D01*
X107940188Y-142802021D01*
X108203409Y-142804129D01*
X108638484Y-142808258D01*
X109038292Y-142812882D01*
X109398874Y-142817925D01*
X109716274Y-142823309D01*
X109986532Y-142828957D01*
X110205692Y-142834790D01*
X110369795Y-142840730D01*
X110474884Y-142846701D01*
X110517000Y-142852624D01*
X110519377Y-142854163D01*
X110568949Y-142889499D01*
X110658457Y-142955757D01*
X110775971Y-143044037D01*
X110909563Y-143145444D01*
X110928305Y-143159700D01*
X111057972Y-143256106D01*
X111168453Y-143334552D01*
X111248558Y-143387297D01*
X111287096Y-143406599D01*
X111306227Y-143412813D01*
X111341895Y-143457760D01*
X111357830Y-143479369D01*
X111423005Y-143529073D01*
X111516295Y-143579425D01*
X111583255Y-143607479D01*
X111656908Y-143628157D01*
X111742557Y-143637268D01*
X111858414Y-143636549D01*
X112022687Y-143627736D01*
X112110257Y-143621688D01*
X112344467Y-143600070D01*
X112550192Y-143573148D01*
X112717823Y-143542571D01*
X112837753Y-143509990D01*
X112900374Y-143477053D01*
X112926046Y-143438889D01*
X112901387Y-143416360D01*
X112885980Y-143408196D01*
X112859556Y-143365443D01*
X112847411Y-143331163D01*
X112806319Y-143255087D01*
X112746225Y-143159075D01*
X112705343Y-143093801D01*
X112629037Y-142961893D01*
X112543789Y-142805898D01*
X112461556Y-142647311D01*
X112408053Y-142543394D01*
X112318240Y-142377430D01*
X112231237Y-142225362D01*
X112160091Y-142110425D01*
X112096771Y-142010256D01*
X112006747Y-141855619D01*
X111932491Y-141715167D01*
X111828778Y-141506424D01*
X111741863Y-141339959D01*
X111676209Y-141225468D01*
X111629148Y-141158051D01*
X111599808Y-141118499D01*
X111534279Y-141012978D01*
X111456120Y-140872649D01*
X111374387Y-140714045D01*
X111298135Y-140553700D01*
X111253515Y-140462637D01*
X111210113Y-140389373D01*
X111182708Y-140361276D01*
X111174089Y-140357596D01*
X111136930Y-140313586D01*
X111092278Y-140235782D01*
X111090168Y-140231547D01*
X112952762Y-140231547D01*
X112990687Y-140306662D01*
X113002976Y-140327176D01*
X113043851Y-140406949D01*
X113060346Y-140459488D01*
X113061749Y-140468783D01*
X113089324Y-140528469D01*
X113141051Y-140606131D01*
X113149978Y-140618321D01*
X113208588Y-140708641D01*
X113280740Y-140831383D01*
X113352866Y-140963648D01*
X113360489Y-140978186D01*
X113439269Y-141123770D01*
X113520985Y-141268117D01*
X113589108Y-141381961D01*
X113665166Y-141506889D01*
X113755427Y-141663594D01*
X113838138Y-141815242D01*
X113903953Y-141944624D01*
X113943526Y-142034530D01*
X113951600Y-142053673D01*
X113994231Y-142135635D01*
X114059267Y-142248070D01*
X114136191Y-142372524D01*
X114169999Y-142426327D01*
X114235869Y-142536824D01*
X114281496Y-142621500D01*
X114298555Y-142665344D01*
X114300349Y-142677749D01*
X114332020Y-142703832D01*
X114345049Y-142707286D01*
X114365485Y-142747358D01*
X114376746Y-142801239D01*
X114407316Y-142880957D01*
X114441699Y-142943198D01*
X114465880Y-142966734D01*
X114494167Y-142960666D01*
X114561932Y-142947408D01*
X114634311Y-142915956D01*
X114734358Y-142835899D01*
X114833443Y-142726236D01*
X114916266Y-142604319D01*
X114967524Y-142487497D01*
X114997407Y-142265389D01*
X114963710Y-142030263D01*
X114865049Y-141785256D01*
X114701133Y-141529647D01*
X114471671Y-141262716D01*
X114436283Y-141226005D01*
X114337236Y-141125260D01*
X114248462Y-141040185D01*
X114158988Y-140961948D01*
X114057843Y-140881718D01*
X113934053Y-140790665D01*
X113776647Y-140679957D01*
X113574651Y-140540763D01*
X113419882Y-140436035D01*
X113232500Y-140315233D01*
X113094015Y-140235152D01*
X113002509Y-140195023D01*
X112956063Y-140194078D01*
X112952762Y-140231547D01*
X111090168Y-140231547D01*
X111084093Y-140219355D01*
X110988368Y-140037320D01*
X110866951Y-139820364D01*
X110730287Y-139587202D01*
X110675770Y-139491864D01*
X110633557Y-139408894D01*
X110617395Y-139364101D01*
X110616851Y-139356687D01*
X110592296Y-139318281D01*
X110587609Y-139315548D01*
X110548518Y-139268628D01*
X110503194Y-139189935D01*
X110465693Y-139106455D01*
X110450070Y-139045176D01*
X110449564Y-139038804D01*
X110423911Y-138975937D01*
X110371423Y-138899746D01*
X110343822Y-138864139D01*
X110273541Y-138760997D01*
X110206620Y-138649522D01*
X110180223Y-138602440D01*
X110106848Y-138475569D01*
X110040299Y-138365069D01*
X110027655Y-138344158D01*
X109960373Y-138218470D01*
X109903972Y-138093479D01*
X109847810Y-137950714D01*
X111666764Y-137968522D01*
X111836480Y-138291100D01*
X111892490Y-138395828D01*
X111962066Y-138521106D01*
X112018232Y-138616796D01*
X112052408Y-138667922D01*
X112085131Y-138711761D01*
X112161072Y-138835847D01*
X112260511Y-139019411D01*
X112382522Y-139260786D01*
X112393226Y-139282342D01*
X112473202Y-139429172D01*
X112543743Y-139525071D01*
X112615065Y-139581346D01*
X112697382Y-139609304D01*
X112730929Y-139617612D01*
X112847424Y-139657933D01*
X113009552Y-139723859D01*
X113208098Y-139810905D01*
X113433842Y-139914590D01*
X113677567Y-140030431D01*
X113930055Y-140153945D01*
X114182089Y-140280650D01*
X114424450Y-140406062D01*
X114647921Y-140525700D01*
X114843284Y-140635080D01*
X115001321Y-140729721D01*
X115023341Y-140743102D01*
X115098983Y-140787824D01*
X115208355Y-140851742D01*
X115335972Y-140925784D01*
X115572138Y-141072013D01*
X115830553Y-141251042D01*
X116088166Y-141446843D01*
X116335395Y-141651140D01*
X116562657Y-141855658D01*
X116760371Y-142052121D01*
X116918953Y-142232254D01*
X116942361Y-142265389D01*
X117028822Y-142387780D01*
X117031007Y-142391544D01*
X117086415Y-142506235D01*
X117142683Y-142652408D01*
X117192396Y-142807088D01*
X117228142Y-142947299D01*
X117242508Y-143050065D01*
X117238271Y-143090893D01*
X117218987Y-143185231D01*
X117189234Y-143298450D01*
X117182165Y-143321447D01*
X117090920Y-143512595D01*
X116942952Y-143693553D01*
X116734858Y-143867792D01*
X116463237Y-144038781D01*
X116369558Y-144082915D01*
X116213051Y-144141329D01*
X115997971Y-144210776D01*
X115720821Y-144292449D01*
X115627657Y-144319959D01*
X115513930Y-144356017D01*
X115436368Y-144383555D01*
X115342313Y-144411982D01*
X115184633Y-144445153D01*
X114977396Y-144479591D01*
X114729565Y-144513952D01*
X114450100Y-144546888D01*
X114147962Y-144577054D01*
X113990807Y-144591935D01*
X113851076Y-144606205D01*
X113747837Y-144617889D01*
X113696183Y-144625371D01*
X113690738Y-144626084D01*
X113630439Y-144628756D01*
X113512719Y-144631385D01*
X113345078Y-144633888D01*
X113135011Y-144636178D01*
X112890017Y-144638171D01*
X112617593Y-144639782D01*
X112325237Y-144640925D01*
X112026633Y-144641438D01*
X111675421Y-144640567D01*
X111367085Y-144637454D01*
X111087865Y-144631602D01*
X110824001Y-144622511D01*
X110561734Y-144609682D01*
X110287302Y-144592616D01*
X109986947Y-144570813D01*
X109646908Y-144543775D01*
X109349450Y-144519312D01*
X109067096Y-144495714D01*
X108836331Y-144475874D01*
X108649102Y-144459043D01*
X108497353Y-144444472D01*
X108373030Y-144431412D01*
X108268079Y-144419114D01*
X108174444Y-144406828D01*
X108159462Y-144404886D01*
X108038242Y-144393532D01*
X107867372Y-144382327D01*
X107661562Y-144372024D01*
X107435521Y-144363376D01*
X107203956Y-144357136D01*
X107160579Y-144356179D01*
X106930659Y-144349462D01*
X106710326Y-144340504D01*
X106513916Y-144330050D01*
X106355763Y-144318844D01*
X106250202Y-144307629D01*
X106198614Y-144299940D01*
X105897294Y-144250403D01*
X105658728Y-144201986D01*
X105479317Y-144153875D01*
X105355465Y-144105258D01*
X105317681Y-144090688D01*
X105229970Y-144075901D01*
X105190635Y-144069564D01*
X105162586Y-144042436D01*
X105158242Y-144028331D01*
X105116232Y-144008970D01*
X105085188Y-144004995D01*
X104995968Y-143984781D01*
X104874367Y-143952097D01*
X104739482Y-143912180D01*
X104610412Y-143870266D01*
X104520943Y-143841189D01*
X104299180Y-143777973D01*
X104044089Y-143714299D01*
X103777888Y-143655542D01*
X103522797Y-143607080D01*
X103483599Y-143600138D01*
X103340167Y-143572909D01*
X103157891Y-143536512D01*
X102956132Y-143494856D01*
X102754252Y-143451853D01*
X102645781Y-143428504D01*
X102445995Y-143387050D01*
X102298934Y-143359790D01*
X102196055Y-143345748D01*
X102128813Y-143343944D01*
X102088665Y-143353398D01*
X102067066Y-143373134D01*
X102063993Y-143390458D01*
X102098886Y-143406599D01*
X102121504Y-143413920D01*
X102192013Y-143455658D01*
X102291065Y-143526098D01*
X102404787Y-143615756D01*
X102454501Y-143656162D01*
X102591836Y-143762746D01*
X102724312Y-143859462D01*
X102829023Y-143929379D01*
X102902769Y-143977539D01*
X102997198Y-144048341D01*
X103057537Y-144105070D01*
X103101297Y-144153223D01*
X103133222Y-144176296D01*
X103136895Y-144177222D01*
X103177978Y-144205183D01*
X103241506Y-144259959D01*
X103331780Y-144343621D01*
X100323402Y-144343842D01*
X99974536Y-144343789D01*
X99452670Y-144343305D01*
X98991284Y-144342231D01*
X98586368Y-144340454D01*
X98233913Y-144337861D01*
X97929909Y-144334339D01*
X97670348Y-144329775D01*
X97451220Y-144324056D01*
X97268515Y-144317070D01*
X97118224Y-144308704D01*
X96996338Y-144298844D01*
X96898847Y-144287379D01*
X96821742Y-144274194D01*
X96761013Y-144259179D01*
X96712652Y-144242218D01*
X96701352Y-144237920D01*
X96616040Y-144214027D01*
X96511862Y-144193252D01*
X96499888Y-144191246D01*
X96382720Y-144165253D01*
X96241284Y-144125947D01*
X96093421Y-144079240D01*
X95956967Y-144031046D01*
X95849763Y-143987277D01*
X95789646Y-143953848D01*
X95754801Y-143930362D01*
X95719119Y-143926043D01*
X95701030Y-143926751D01*
X95659173Y-143892651D01*
X95629088Y-143865301D01*
X95569787Y-143841645D01*
X95531838Y-143833043D01*
X95442816Y-143797375D01*
X95327542Y-143742380D01*
X95203873Y-143677166D01*
X95089665Y-143610837D01*
X95002774Y-143552499D01*
X94984834Y-143539237D01*
X94910389Y-143492441D01*
X94860547Y-143473529D01*
X94848016Y-143471802D01*
X94821875Y-143441672D01*
X94806829Y-143417920D01*
X94749102Y-143365302D01*
X94662916Y-143301393D01*
X94595222Y-143253419D01*
X94524631Y-143198211D01*
X94492801Y-143165925D01*
X94484253Y-143155017D01*
X94434238Y-143138878D01*
X94412186Y-143133080D01*
X94386829Y-143088681D01*
X94383189Y-143065606D01*
X94354517Y-143038483D01*
X94326772Y-143025816D01*
X94266504Y-142979583D01*
X94198211Y-142917186D01*
X94142282Y-142857574D01*
X94119108Y-142819697D01*
X94113147Y-142803164D01*
X94077277Y-142756303D01*
X94071837Y-142750687D01*
X93954097Y-142623962D01*
X93860142Y-142508096D01*
X93777739Y-142384867D01*
X93694655Y-142236054D01*
X93633994Y-142114340D01*
X95424371Y-142114340D01*
X95426648Y-142150427D01*
X95475054Y-142289532D01*
X95580606Y-142424090D01*
X95735615Y-142547636D01*
X95932390Y-142653699D01*
X96163242Y-142735814D01*
X96210581Y-142748436D01*
X96268178Y-142761623D01*
X96331304Y-142772556D01*
X96406097Y-142781445D01*
X96498699Y-142788502D01*
X96615249Y-142793935D01*
X96761887Y-142797956D01*
X96944755Y-142800774D01*
X97169992Y-142802600D01*
X97443738Y-142803644D01*
X97772134Y-142804117D01*
X98161319Y-142804227D01*
X98194751Y-142804223D01*
X98557261Y-142803569D01*
X98886500Y-142801864D01*
X99177658Y-142799190D01*
X99425929Y-142795632D01*
X99626503Y-142791272D01*
X99774574Y-142786194D01*
X99865332Y-142780480D01*
X99893969Y-142774216D01*
X99870669Y-142756798D01*
X99789279Y-142719072D01*
X99660372Y-142669565D01*
X99493961Y-142611859D01*
X99300057Y-142549533D01*
X99088673Y-142486170D01*
X98991240Y-142457956D01*
X98728911Y-142381313D01*
X98509400Y-142315615D01*
X98316372Y-142255572D01*
X98133489Y-142195897D01*
X97944416Y-142131301D01*
X97732814Y-142056496D01*
X97482349Y-141966193D01*
X97429035Y-141947215D01*
X97279821Y-141898375D01*
X97118464Y-141852740D01*
X96927021Y-141805468D01*
X96687553Y-141751718D01*
X96653437Y-141744059D01*
X96555214Y-141718587D01*
X98469569Y-141718587D01*
X98470439Y-141721927D01*
X98503034Y-141733345D01*
X98512207Y-141731983D01*
X98536499Y-141697905D01*
X98533872Y-141685800D01*
X98503034Y-141683147D01*
X98493019Y-141690016D01*
X98469569Y-141718587D01*
X96555214Y-141718587D01*
X96538741Y-141714315D01*
X96458444Y-141687156D01*
X96428199Y-141667656D01*
X96417618Y-141658085D01*
X96363851Y-141658014D01*
X96285500Y-141673104D01*
X96206314Y-141698193D01*
X96150041Y-141728120D01*
X96126020Y-141741184D01*
X96063063Y-141735187D01*
X96051452Y-141729620D01*
X95971231Y-141719157D01*
X95864653Y-141728140D01*
X95760945Y-141752444D01*
X95689332Y-141787943D01*
X95653297Y-141813648D01*
X95599732Y-141833740D01*
X95599212Y-141833743D01*
X95543784Y-141863062D01*
X95486774Y-141934632D01*
X95442273Y-142025907D01*
X95424371Y-142114340D01*
X93633994Y-142114340D01*
X93598656Y-142043437D01*
X93592148Y-142029825D01*
X93490898Y-141766530D01*
X93434493Y-141506223D01*
X93422569Y-141258563D01*
X93454759Y-141033205D01*
X93530697Y-140839810D01*
X93650017Y-140688032D01*
X93683669Y-140656119D01*
X93737564Y-140587783D01*
X93746226Y-140527952D01*
X93705391Y-140468379D01*
X93610795Y-140400817D01*
X93458173Y-140317017D01*
X93338673Y-140255190D01*
X93198263Y-140182216D01*
X93099000Y-140129747D01*
X93029814Y-140091613D01*
X92979632Y-140061645D01*
X92937383Y-140033672D01*
X92891995Y-140001526D01*
X92872947Y-139988135D01*
X92803751Y-139944026D01*
X92764466Y-139926230D01*
X92758144Y-139924398D01*
X92706785Y-139897428D01*
X92618928Y-139844958D01*
X92509234Y-139775637D01*
X92471986Y-139751664D01*
X92369410Y-139687042D01*
X92294557Y-139641974D01*
X92261544Y-139625044D01*
X92257115Y-139623500D01*
X92210954Y-139596907D01*
X92127720Y-139544136D01*
X92021568Y-139474092D01*
X91978621Y-139444803D01*
X91801957Y-139316424D01*
X91611578Y-139167885D01*
X91421263Y-139010790D01*
X91244796Y-138856745D01*
X91095957Y-138717354D01*
X90988527Y-138604221D01*
X90931583Y-138535747D01*
X90861025Y-138439749D01*
X90839754Y-138388606D01*
X90867537Y-138382295D01*
X90944144Y-138420789D01*
X91069343Y-138504062D01*
X91242902Y-138632091D01*
X91403408Y-138752865D01*
X91547364Y-138856911D01*
X91683428Y-138948965D01*
X91828333Y-139039905D01*
X91998812Y-139140613D01*
X92211598Y-139261968D01*
X92293263Y-139309467D01*
X92425239Y-139389278D01*
X92553008Y-139469309D01*
X92651857Y-139530793D01*
X92728148Y-139574793D01*
X92765039Y-139591579D01*
X92772302Y-139593911D01*
X92828642Y-139618836D01*
X92932327Y-139667599D01*
X93074382Y-139735899D01*
X93245831Y-139819435D01*
X93437700Y-139913906D01*
X93524735Y-139956904D01*
X93722628Y-140053624D01*
X93874600Y-140125218D01*
X93990677Y-140175483D01*
X94080885Y-140208218D01*
X94155249Y-140227218D01*
X94223796Y-140236283D01*
X94296551Y-140239208D01*
X94383696Y-140237511D01*
X94544218Y-140224086D01*
X94684216Y-140201335D01*
X94707921Y-140196919D01*
X94791005Y-140187808D01*
X94916643Y-140180121D01*
X95088315Y-140173787D01*
X95309504Y-140168737D01*
X95583690Y-140164902D01*
X95914356Y-140162213D01*
X96304983Y-140160599D01*
X96759051Y-140159992D01*
X96959290Y-140159873D01*
X97359908Y-140159102D01*
X97699788Y-140157558D01*
X97983203Y-140155150D01*
X98214428Y-140151785D01*
X98397736Y-140147371D01*
X98537402Y-140141817D01*
X98637701Y-140135031D01*
X98702905Y-140126919D01*
X98737290Y-140117391D01*
X98796915Y-140066205D01*
X98832227Y-139968657D01*
X98821290Y-139849585D01*
X98763054Y-139724987D01*
X98744499Y-139697276D01*
X98717128Y-139658580D01*
X98687661Y-139625156D01*
X98651466Y-139596613D01*
X98603912Y-139572563D01*
X98540369Y-139552614D01*
X98456205Y-139536378D01*
X98346790Y-139523465D01*
X98207493Y-139513485D01*
X98033682Y-139506047D01*
X97820727Y-139500763D01*
X97563997Y-139497243D01*
X97258861Y-139495097D01*
X96900687Y-139493935D01*
X96484846Y-139493367D01*
X96006706Y-139493004D01*
X95848909Y-139492880D01*
X95413717Y-139492468D01*
X95039203Y-139491895D01*
X94720666Y-139491028D01*
X94453407Y-139489736D01*
X94232723Y-139487885D01*
X94053916Y-139485344D01*
X93912284Y-139481979D01*
X93803127Y-139477659D01*
X93721745Y-139472251D01*
X93663436Y-139465622D01*
X93623502Y-139457641D01*
X93597240Y-139448174D01*
X93579951Y-139437089D01*
X93566934Y-139424254D01*
X93516999Y-139380087D01*
X93466539Y-139357324D01*
X93425103Y-139340577D01*
X93366144Y-139290393D01*
X93318896Y-139245794D01*
X93278673Y-139223463D01*
X93273374Y-139222543D01*
X93223392Y-139196086D01*
X93144857Y-139142656D01*
X93054555Y-139075165D01*
X92969270Y-139006526D01*
X92905790Y-138949653D01*
X92880900Y-138917460D01*
X92877982Y-138906973D01*
X92839068Y-138888771D01*
X92824059Y-138884066D01*
X92761405Y-138847073D01*
X92668167Y-138781293D01*
X92558381Y-138696347D01*
X92526022Y-138670346D01*
X92393448Y-138564844D01*
X92265148Y-138464093D01*
X92164946Y-138386836D01*
X92053939Y-138302493D01*
X91908867Y-138190748D01*
X91807750Y-138109665D01*
X91744402Y-138053580D01*
X91712635Y-138016832D01*
X91706263Y-137993755D01*
X91719101Y-137978688D01*
X91745557Y-137975034D01*
X91834459Y-137970822D01*
X91979893Y-137967061D01*
X92176057Y-137963747D01*
X92417149Y-137960878D01*
X92697363Y-137958450D01*
X93010898Y-137956460D01*
X93351951Y-137954906D01*
X93714718Y-137953785D01*
X94093396Y-137953093D01*
X94482182Y-137952828D01*
X94875273Y-137952986D01*
X95266866Y-137953565D01*
X95651158Y-137954562D01*
X96022346Y-137955973D01*
X96374626Y-137957796D01*
X96702196Y-137960027D01*
X96999252Y-137962664D01*
X97259991Y-137965704D01*
X97478610Y-137969143D01*
X97649307Y-137972979D01*
X97766278Y-137977209D01*
X97823719Y-137981830D01*
X97923151Y-138000219D01*
X98071011Y-138027195D01*
X98218581Y-138053809D01*
X98345043Y-138080434D01*
X98453688Y-138110454D01*
X98519767Y-138137130D01*
X98558347Y-138155574D01*
X98655193Y-138188691D01*
X98770755Y-138218516D01*
X98804912Y-138227488D01*
X98909181Y-138263258D01*
X99043138Y-138316242D01*
X99193660Y-138380440D01*
X99347625Y-138449851D01*
X99491909Y-138518475D01*
X99613391Y-138580312D01*
X99698947Y-138629362D01*
X99735455Y-138659624D01*
X99741194Y-138667910D01*
X99789004Y-138709940D01*
X99866742Y-138767106D01*
X99953720Y-138825347D01*
X100029252Y-138870603D01*
X100072652Y-138888812D01*
X100077311Y-138889771D01*
X100125010Y-138921061D01*
X100205371Y-138988809D01*
X100307656Y-139082516D01*
X100421129Y-139191680D01*
X100535051Y-139305800D01*
X100638687Y-139414377D01*
X100721298Y-139506908D01*
X100772147Y-139572894D01*
X100834276Y-139674952D01*
X100941074Y-139871691D01*
X101035043Y-140070654D01*
X101107535Y-140252914D01*
X101149901Y-140399545D01*
X101160032Y-140457051D01*
X101170932Y-140715798D01*
X101123749Y-140952084D01*
X101021459Y-141159411D01*
X100867038Y-141331283D01*
X100663463Y-141461202D01*
X100567695Y-141503972D01*
X100417324Y-141560226D01*
X100259239Y-141603649D01*
X100081610Y-141636239D01*
X99872605Y-141659989D01*
X99620393Y-141676896D01*
X99313143Y-141688955D01*
X99176875Y-141693274D01*
X99053386Y-141697905D01*
X98969229Y-141701061D01*
X98816932Y-141709095D01*
X98712442Y-141718125D01*
X98648215Y-141728899D01*
X98616708Y-141742165D01*
X98610376Y-141758671D01*
X98624677Y-141783275D01*
X98680423Y-141820496D01*
X98783339Y-141862392D01*
X98939656Y-141911377D01*
X99155603Y-141969863D01*
X99182957Y-141976946D01*
X99321945Y-142013350D01*
X99443421Y-142045781D01*
X99523719Y-142067935D01*
X99575499Y-142081773D01*
X99684542Y-142109777D01*
X99837178Y-142148433D01*
X100022183Y-142194947D01*
X100228331Y-142246520D01*
X100444398Y-142300358D01*
X100659158Y-142353663D01*
X100861387Y-142403639D01*
X101039859Y-142447490D01*
X101183351Y-142482419D01*
X101280636Y-142505630D01*
X101415225Y-142537528D01*
X101633734Y-142592143D01*
X101799345Y-142637707D01*
X101802950Y-142638760D01*
X101888960Y-142660636D01*
X102013436Y-142688786D01*
X102150729Y-142717395D01*
X102285697Y-142744112D01*
X102442121Y-142774216D01*
X102575319Y-142799850D01*
X102806025Y-142840942D01*
G37*
G36*
X116976072Y-137878716D02*
G01*
X117011174Y-137961716D01*
X117049771Y-138108474D01*
X117096785Y-138319906D01*
X117101032Y-138339499D01*
X117156012Y-138590016D01*
X117200046Y-138782498D01*
X117235172Y-138924051D01*
X117263433Y-139021779D01*
X117286867Y-139082787D01*
X117307515Y-139114182D01*
X117327417Y-139123068D01*
X117355961Y-139129557D01*
X117440420Y-139156360D01*
X117567557Y-139200299D01*
X117726066Y-139257443D01*
X117904640Y-139323858D01*
X118040681Y-139374704D01*
X118204202Y-139434425D01*
X118338695Y-139481936D01*
X118433008Y-139513317D01*
X118475984Y-139524649D01*
X118477731Y-139524685D01*
X118510246Y-139549964D01*
X118509629Y-139600709D01*
X118475903Y-139645354D01*
X118471370Y-139647905D01*
X118407645Y-139671211D01*
X118316944Y-139693804D01*
X118176009Y-139723199D01*
X117949850Y-139774031D01*
X117738158Y-139825823D01*
X117551171Y-139875787D01*
X117399129Y-139921136D01*
X117292269Y-139959081D01*
X117240830Y-139986834D01*
X117235738Y-139993333D01*
X117202467Y-140057518D01*
X117156112Y-140168894D01*
X117102109Y-140313758D01*
X117045892Y-140478404D01*
X117038626Y-140500558D01*
X116979369Y-140675124D01*
X116920973Y-140837767D01*
X116869818Y-140971171D01*
X116832286Y-141058020D01*
X116825850Y-141070887D01*
X116793556Y-141128160D01*
X116764507Y-141159739D01*
X116736454Y-141160676D01*
X116707148Y-141126021D01*
X116674341Y-141050825D01*
X116635782Y-140930139D01*
X116589223Y-140759015D01*
X116532415Y-140532503D01*
X116463109Y-140245656D01*
X116437856Y-140147623D01*
X116399139Y-140020794D01*
X116363581Y-139929197D01*
X116336532Y-139887956D01*
X116330324Y-139884932D01*
X116267175Y-139859016D01*
X116163643Y-139819969D01*
X116038739Y-139775004D01*
X116015857Y-139766922D01*
X115889038Y-139721357D01*
X115783741Y-139682317D01*
X115720821Y-139657511D01*
X115697987Y-139648173D01*
X115609398Y-139615586D01*
X115503298Y-139579701D01*
X115420937Y-139551901D01*
X115286707Y-139499753D01*
X115199644Y-139455391D01*
X115168647Y-139422980D01*
X115176570Y-139397580D01*
X115229022Y-139356546D01*
X115335877Y-139315843D01*
X115503298Y-139272706D01*
X115649499Y-139238616D01*
X115803736Y-139201034D01*
X115926762Y-139169442D01*
X115990077Y-139153704D01*
X116100854Y-139131703D01*
X116179444Y-139123068D01*
X116306504Y-139101224D01*
X116416042Y-139023590D01*
X116491099Y-138888812D01*
X116507137Y-138844938D01*
X116546094Y-138746259D01*
X116576172Y-138680110D01*
X116592313Y-138643478D01*
X116607646Y-138574060D01*
X116621118Y-138513479D01*
X116654748Y-138431379D01*
X116694770Y-138347201D01*
X116736248Y-138252976D01*
X116772148Y-138166034D01*
X116842503Y-138003135D01*
X116896659Y-137900340D01*
X116939541Y-137858562D01*
X116976072Y-137878716D01*
G37*
%TO.C,R14*%
X67772936Y-161035000D02*
X68227064Y-161035000D01*
X67772936Y-159565000D02*
X68227064Y-159565000D01*
%TO.C,G\u002A\u002A\u002A*%
G36*
X100879917Y-150431491D02*
G01*
X100983364Y-150496151D01*
X101028195Y-150541023D01*
X101061452Y-150602337D01*
X101069709Y-150685249D01*
X101065995Y-150746692D01*
X101041623Y-150811586D01*
X100983364Y-150874347D01*
X100932605Y-150912820D01*
X100828208Y-150951765D01*
X100725559Y-150938712D01*
X100629563Y-150873670D01*
X100580403Y-150809257D01*
X100548024Y-150703141D01*
X100564411Y-150595115D01*
X100629563Y-150496828D01*
X100675891Y-150458169D01*
X100775790Y-150418834D01*
X100879917Y-150431491D01*
G37*
G36*
X93394793Y-150438715D02*
G01*
X93477423Y-150496556D01*
X93530994Y-150580809D01*
X93550931Y-150679637D01*
X93532660Y-150781203D01*
X93471605Y-150873670D01*
X93425840Y-150910531D01*
X93328075Y-150946603D01*
X93227735Y-150939861D01*
X93136290Y-150894623D01*
X93065207Y-150815205D01*
X93025955Y-150705924D01*
X93022753Y-150683532D01*
X93023202Y-150625007D01*
X93047436Y-150575239D01*
X93104091Y-150512895D01*
X93152531Y-150468640D01*
X93220086Y-150429639D01*
X93295881Y-150419002D01*
X93394793Y-150438715D01*
G37*
G36*
X98828533Y-152542375D02*
G01*
X98909845Y-152600520D01*
X98962477Y-152684974D01*
X98981905Y-152783821D01*
X98963605Y-152885143D01*
X98903051Y-152977024D01*
X98838151Y-153028068D01*
X98739132Y-153058263D01*
X98637414Y-153035856D01*
X98535538Y-152960957D01*
X98514674Y-152939717D01*
X98468625Y-152883372D01*
X98452412Y-152833220D01*
X98457401Y-152767928D01*
X98474234Y-152707848D01*
X98535703Y-152612798D01*
X98625543Y-152546967D01*
X98730411Y-152522356D01*
X98828533Y-152542375D01*
G37*
G36*
X97790394Y-151480776D02*
G01*
X97873808Y-151533434D01*
X97932458Y-151615551D01*
X97954615Y-151723614D01*
X97950901Y-151785056D01*
X97926529Y-151849951D01*
X97868269Y-151912711D01*
X97826855Y-151945058D01*
X97722004Y-151988131D01*
X97616703Y-151978427D01*
X97514470Y-151915914D01*
X97491685Y-151893053D01*
X97437465Y-151795647D01*
X97430634Y-151686743D01*
X97472787Y-151579229D01*
X97508879Y-151534711D01*
X97596200Y-151477899D01*
X97693948Y-151461092D01*
X97790394Y-151480776D01*
G37*
G36*
X89784587Y-150462551D02*
G01*
X89877265Y-150523452D01*
X89910031Y-150563367D01*
X89950023Y-150664238D01*
X89946839Y-150770475D01*
X89902501Y-150867558D01*
X89819037Y-150940966D01*
X89761379Y-150963542D01*
X89679525Y-150977178D01*
X89656042Y-150974918D01*
X89577691Y-150940823D01*
X89502097Y-150877748D01*
X89445114Y-150801160D01*
X89422596Y-150726526D01*
X89444210Y-150615267D01*
X89502394Y-150527626D01*
X89585972Y-150469631D01*
X89683763Y-150446275D01*
X89784587Y-150462551D01*
G37*
G36*
X91382071Y-150462551D02*
G01*
X91474749Y-150523452D01*
X91511088Y-150567946D01*
X91550614Y-150669672D01*
X91544938Y-150775193D01*
X91496099Y-150871909D01*
X91406139Y-150947218D01*
X91353739Y-150966310D01*
X91277009Y-150977311D01*
X91253497Y-150975009D01*
X91175144Y-150940816D01*
X91099561Y-150877694D01*
X91042592Y-150801109D01*
X91020081Y-150726526D01*
X91041694Y-150615267D01*
X91099879Y-150527626D01*
X91183456Y-150469631D01*
X91281247Y-150446275D01*
X91382071Y-150462551D01*
G37*
G36*
X101922150Y-151496775D02*
G01*
X102018146Y-151561817D01*
X102067306Y-151626230D01*
X102099685Y-151732346D01*
X102083298Y-151840372D01*
X102018146Y-151938660D01*
X101971818Y-151977318D01*
X101871919Y-152016654D01*
X101767792Y-152003997D01*
X101664345Y-151939336D01*
X101619514Y-151894465D01*
X101586257Y-151833150D01*
X101578000Y-151750238D01*
X101581713Y-151688796D01*
X101606086Y-151623901D01*
X101664345Y-151561141D01*
X101715104Y-151522668D01*
X101819500Y-151483722D01*
X101922150Y-151496775D01*
G37*
G36*
X98818159Y-150438942D02*
G01*
X98900834Y-150489849D01*
X98958935Y-150570286D01*
X98980877Y-150677277D01*
X98967361Y-150771413D01*
X98917612Y-150866032D01*
X98838249Y-150925096D01*
X98735591Y-150950183D01*
X98634771Y-150931154D01*
X98538907Y-150860972D01*
X98522605Y-150843949D01*
X98461615Y-150750524D01*
X98452028Y-150655666D01*
X98492720Y-150551846D01*
X98538556Y-150493172D01*
X98625434Y-150437627D01*
X98722497Y-150420542D01*
X98818159Y-150438942D01*
G37*
G36*
X95936906Y-150434760D02*
G01*
X96031163Y-150496151D01*
X96075994Y-150541023D01*
X96109251Y-150602337D01*
X96117508Y-150685249D01*
X96113794Y-150746692D01*
X96089422Y-150811586D01*
X96031163Y-150874347D01*
X95949842Y-150930153D01*
X95852471Y-150951496D01*
X95768035Y-150935738D01*
X95673779Y-150874347D01*
X95628948Y-150829475D01*
X95595691Y-150768161D01*
X95587434Y-150685249D01*
X95591147Y-150623806D01*
X95615520Y-150558911D01*
X95673779Y-150496151D01*
X95755099Y-150440345D01*
X95852471Y-150419002D01*
X95936906Y-150434760D01*
G37*
G36*
X88754823Y-150465222D02*
G01*
X88837166Y-150515799D01*
X88894936Y-150596296D01*
X88916726Y-150703901D01*
X88903210Y-150798038D01*
X88853461Y-150892656D01*
X88774098Y-150951720D01*
X88728245Y-150966056D01*
X88620899Y-150968770D01*
X88525360Y-150933223D01*
X88449862Y-150868137D01*
X88402639Y-150782237D01*
X88391926Y-150684248D01*
X88425957Y-150582892D01*
X88474396Y-150521138D01*
X88562033Y-150465080D01*
X88659310Y-150447379D01*
X88754823Y-150465222D01*
G37*
G36*
X91320311Y-152557241D02*
G01*
X91376585Y-152570103D01*
X91472025Y-152624573D01*
X91533562Y-152706727D01*
X91557196Y-152805000D01*
X91538925Y-152907829D01*
X91474749Y-153003649D01*
X91474430Y-153003968D01*
X91381543Y-153064955D01*
X91280819Y-153081166D01*
X91183285Y-153057589D01*
X91099967Y-152999211D01*
X91041890Y-152911019D01*
X91020081Y-152798000D01*
X91020467Y-152790130D01*
X91048147Y-152718027D01*
X91114011Y-152636099D01*
X91142233Y-152608535D01*
X91196382Y-152566172D01*
X91248132Y-152551983D01*
X91320311Y-152557241D01*
G37*
G36*
X100237351Y-150438715D02*
G01*
X100319981Y-150496556D01*
X100373552Y-150580809D01*
X100393489Y-150679637D01*
X100375217Y-150781203D01*
X100314162Y-150873670D01*
X100268398Y-150910531D01*
X100170632Y-150946603D01*
X100070293Y-150939861D01*
X99978847Y-150894623D01*
X99907764Y-150815205D01*
X99868512Y-150705924D01*
X99865310Y-150683532D01*
X99865760Y-150625007D01*
X99889994Y-150575239D01*
X99946649Y-150512895D01*
X99995089Y-150468640D01*
X100062644Y-150429639D01*
X100138439Y-150419002D01*
X100237351Y-150438715D01*
G37*
G36*
X98818159Y-151503932D02*
G01*
X98900834Y-151554839D01*
X98958935Y-151635276D01*
X98980877Y-151742266D01*
X98967361Y-151836402D01*
X98917612Y-151931021D01*
X98838249Y-151990085D01*
X98735591Y-152015173D01*
X98634771Y-151996143D01*
X98538907Y-151925962D01*
X98522605Y-151908939D01*
X98461615Y-151815514D01*
X98452028Y-151720655D01*
X98492720Y-151616835D01*
X98538556Y-151558162D01*
X98625434Y-151502616D01*
X98722497Y-151485532D01*
X98818159Y-151503932D01*
G37*
G36*
X96982758Y-152542966D02*
G01*
X97067951Y-152597765D01*
X97130850Y-152692247D01*
X97153956Y-152792334D01*
X97131845Y-152897488D01*
X97058694Y-152988581D01*
X97006972Y-153024951D01*
X96903804Y-153056528D01*
X96800353Y-153035151D01*
X96698431Y-152960957D01*
X96677567Y-152939717D01*
X96631518Y-152883372D01*
X96615306Y-152833220D01*
X96620294Y-152767928D01*
X96644155Y-152687229D01*
X96705970Y-152599981D01*
X96790512Y-152545743D01*
X96886527Y-152526182D01*
X96982758Y-152542966D01*
G37*
G36*
X96981508Y-151503714D02*
G01*
X97064002Y-151556664D01*
X97121915Y-151639885D01*
X97143771Y-151750238D01*
X97142557Y-151786225D01*
X97121928Y-151866723D01*
X97065944Y-151938660D01*
X97003858Y-151987871D01*
X96904433Y-152019595D01*
X96802572Y-151998917D01*
X96701800Y-151925962D01*
X96685498Y-151908939D01*
X96624508Y-151815514D01*
X96614921Y-151720655D01*
X96655613Y-151616835D01*
X96701320Y-151557847D01*
X96788689Y-151501168D01*
X96885911Y-151484169D01*
X96981508Y-151503714D01*
G37*
G36*
X101918926Y-152537387D02*
G01*
X102021729Y-152599505D01*
X102066560Y-152644377D01*
X102099817Y-152705691D01*
X102108074Y-152788603D01*
X102104360Y-152850046D01*
X102079988Y-152914941D01*
X102021729Y-152977701D01*
X101989633Y-153003448D01*
X101884487Y-153050730D01*
X101777961Y-153045828D01*
X101675178Y-152988581D01*
X101608577Y-152910041D01*
X101579866Y-152806472D01*
X101603023Y-152692247D01*
X101634654Y-152633730D01*
X101714662Y-152556875D01*
X101812995Y-152523969D01*
X101918926Y-152537387D01*
G37*
G36*
X100856855Y-151460318D02*
G01*
X100932684Y-151496214D01*
X101006367Y-151560386D01*
X101062138Y-151636991D01*
X101084232Y-151710187D01*
X101083695Y-151724053D01*
X101058771Y-151816982D01*
X101006357Y-151903180D01*
X100939920Y-151959388D01*
X100832217Y-151987742D01*
X100726901Y-151973579D01*
X100637318Y-151922681D01*
X100575065Y-151841684D01*
X100551737Y-151737224D01*
X100551799Y-151730562D01*
X100560414Y-151650375D01*
X100579151Y-151589015D01*
X100587908Y-151575165D01*
X100652161Y-151517688D01*
X100741407Y-151474438D01*
X100832637Y-151457366D01*
X100856855Y-151460318D01*
G37*
G36*
X93383246Y-152536912D02*
G01*
X93472786Y-152596176D01*
X93539288Y-152698896D01*
X93556825Y-152746549D01*
X93562088Y-152807042D01*
X93539288Y-152878310D01*
X93537502Y-152882475D01*
X93493091Y-152956437D01*
X93439820Y-153011434D01*
X93429048Y-153018576D01*
X93327120Y-153053577D01*
X93219748Y-153039572D01*
X93117804Y-152977701D01*
X93072973Y-152932829D01*
X93039716Y-152871515D01*
X93031459Y-152788603D01*
X93035172Y-152727160D01*
X93059545Y-152662266D01*
X93117804Y-152599505D01*
X93174800Y-152558125D01*
X93280605Y-152523447D01*
X93383246Y-152536912D01*
G37*
G36*
X92343156Y-150435445D02*
G01*
X92428571Y-150481859D01*
X92491588Y-150554968D01*
X92522084Y-150648262D01*
X92509938Y-150755229D01*
X92469364Y-150833516D01*
X92412362Y-150897830D01*
X92374807Y-150922460D01*
X92273076Y-150951011D01*
X92171281Y-150934565D01*
X92082076Y-150876853D01*
X92018117Y-150781605D01*
X91995010Y-150681518D01*
X92017122Y-150576364D01*
X92090273Y-150485271D01*
X92145625Y-150448753D01*
X92245467Y-150422239D01*
X92343156Y-150435445D01*
G37*
%TD*%
M02*
