%TF.GenerationSoftware,KiCad,Pcbnew,6.0.1*%
%TF.CreationDate,2022-02-10T21:42:24-06:00*%
%TF.ProjectId,POWER,504f5745-522e-46b6-9963-61645f706362,rev?*%
%TF.SameCoordinates,Original*%
%TF.FileFunction,Paste,Top*%
%TF.FilePolarity,Positive*%
%FSLAX46Y46*%
G04 Gerber Fmt 4.6, Leading zero omitted, Abs format (unit mm)*
G04 Created by KiCad (PCBNEW 6.0.1) date 2022-02-10 21:42:24*
%MOMM*%
%LPD*%
G01*
G04 APERTURE LIST*
G04 Aperture macros list*
%AMRoundRect*
0 Rectangle with rounded corners*
0 $1 Rounding radius*
0 $2 $3 $4 $5 $6 $7 $8 $9 X,Y pos of 4 corners*
0 Add a 4 corners polygon primitive as box body*
4,1,4,$2,$3,$4,$5,$6,$7,$8,$9,$2,$3,0*
0 Add four circle primitives for the rounded corners*
1,1,$1+$1,$2,$3*
1,1,$1+$1,$4,$5*
1,1,$1+$1,$6,$7*
1,1,$1+$1,$8,$9*
0 Add four rect primitives between the rounded corners*
20,1,$1+$1,$2,$3,$4,$5,0*
20,1,$1+$1,$4,$5,$6,$7,0*
20,1,$1+$1,$6,$7,$8,$9,0*
20,1,$1+$1,$8,$9,$2,$3,0*%
G04 Aperture macros list end*
%ADD10RoundRect,0.243750X-0.456250X0.243750X-0.456250X-0.243750X0.456250X-0.243750X0.456250X0.243750X0*%
%ADD11RoundRect,0.243750X0.456250X-0.243750X0.456250X0.243750X-0.456250X0.243750X-0.456250X-0.243750X0*%
%ADD12R,3.150000X1.000000*%
%ADD13RoundRect,0.250000X0.503814X0.132583X0.132583X0.503814X-0.503814X-0.132583X-0.132583X-0.503814X0*%
%ADD14RoundRect,0.250000X-0.475000X0.250000X-0.475000X-0.250000X0.475000X-0.250000X0.475000X0.250000X0*%
%ADD15RoundRect,0.250000X0.450000X-0.262500X0.450000X0.262500X-0.450000X0.262500X-0.450000X-0.262500X0*%
%ADD16RoundRect,0.250000X0.262500X0.450000X-0.262500X0.450000X-0.262500X-0.450000X0.262500X-0.450000X0*%
%ADD17R,1.600000X0.550000*%
%ADD18R,0.550000X1.600000*%
%ADD19RoundRect,0.250000X-0.262500X-0.450000X0.262500X-0.450000X0.262500X0.450000X-0.262500X0.450000X0*%
%ADD20RoundRect,0.250000X-0.450000X0.262500X-0.450000X-0.262500X0.450000X-0.262500X0.450000X0.262500X0*%
%ADD21RoundRect,0.250000X0.475000X-0.250000X0.475000X0.250000X-0.475000X0.250000X-0.475000X-0.250000X0*%
%ADD22RoundRect,0.150000X0.150000X-0.512500X0.150000X0.512500X-0.150000X0.512500X-0.150000X-0.512500X0*%
%ADD23R,2.400000X2.000000*%
G04 APERTURE END LIST*
D10*
%TO.C,D5*%
X86140000Y-162040000D03*
X86140000Y-163915000D03*
%TD*%
D11*
%TO.C,D3*%
X80800000Y-163907500D03*
X80800000Y-162032500D03*
%TD*%
D12*
%TO.C,J1*%
X110316000Y-133950000D03*
X105266000Y-133950000D03*
X110316000Y-131410000D03*
X105266000Y-131410000D03*
X110316000Y-128870000D03*
X105266000Y-128870000D03*
X110316000Y-126330000D03*
X105266000Y-126330000D03*
X110316000Y-123790000D03*
X105266000Y-123790000D03*
X110316000Y-121250000D03*
X105266000Y-121250000D03*
X110316000Y-118710000D03*
X105266000Y-118710000D03*
X110316000Y-116170000D03*
X105266000Y-116170000D03*
X110316000Y-113630000D03*
X105266000Y-113630000D03*
X110316000Y-111090000D03*
X105266000Y-111090000D03*
X110316000Y-108550000D03*
X105266000Y-108550000D03*
X110316000Y-106010000D03*
X105266000Y-106010000D03*
%TD*%
D11*
%TO.C,D2*%
X75230000Y-163907500D03*
X75230000Y-162032500D03*
%TD*%
D13*
%TO.C,R3*%
X65836235Y-110425235D03*
X64545765Y-109134765D03*
%TD*%
D14*
%TO.C,C1*%
X79600000Y-115550000D03*
X79600000Y-117450000D03*
%TD*%
D15*
%TO.C,R20*%
X89370000Y-163962500D03*
X89370000Y-162137500D03*
%TD*%
D13*
%TO.C,R10*%
X65481470Y-106970470D03*
X64191000Y-105680000D03*
%TD*%
D16*
%TO.C,R6*%
X102262500Y-97010000D03*
X100437500Y-97010000D03*
%TD*%
D17*
%TO.C,U2*%
X85850000Y-104900000D03*
X85850000Y-105700000D03*
X85850000Y-106500000D03*
X85850000Y-107300000D03*
X85850000Y-108100000D03*
X85850000Y-108900000D03*
X85850000Y-109700000D03*
X85850000Y-110500000D03*
D18*
X87300000Y-111950000D03*
X88100000Y-111950000D03*
X88900000Y-111950000D03*
X89700000Y-111950000D03*
X90500000Y-111950000D03*
X91300000Y-111950000D03*
X92100000Y-111950000D03*
X92900000Y-111950000D03*
D17*
X94350000Y-110500000D03*
X94350000Y-109700000D03*
X94350000Y-108900000D03*
X94350000Y-108100000D03*
X94350000Y-107300000D03*
X94350000Y-106500000D03*
X94350000Y-105700000D03*
X94350000Y-104900000D03*
D18*
X92900000Y-103450000D03*
X92100000Y-103450000D03*
X91300000Y-103450000D03*
X90500000Y-103450000D03*
X89700000Y-103450000D03*
X88900000Y-103450000D03*
X88100000Y-103450000D03*
X87300000Y-103450000D03*
%TD*%
D15*
%TO.C,R16*%
X72930000Y-163912500D03*
X72930000Y-162087500D03*
%TD*%
D10*
%TO.C,D4*%
X91490000Y-162150000D03*
X91490000Y-164025000D03*
%TD*%
D11*
%TO.C,D1*%
X68000000Y-129137500D03*
X68000000Y-127262500D03*
%TD*%
D13*
%TO.C,R2*%
X61136235Y-108925235D03*
X59845765Y-107634765D03*
%TD*%
D19*
%TO.C,R23*%
X90780000Y-96380000D03*
X92605000Y-96380000D03*
%TD*%
D20*
%TO.C,R13*%
X61800000Y-127487500D03*
X61800000Y-129312500D03*
%TD*%
D21*
%TO.C,C2*%
X82700000Y-105950000D03*
X82700000Y-104050000D03*
%TD*%
D19*
%TO.C,R8*%
X82687500Y-89700000D03*
X84512500Y-89700000D03*
%TD*%
D22*
%TO.C,U1*%
X64250000Y-129537500D03*
X65200000Y-129537500D03*
X66150000Y-129537500D03*
X66150000Y-127262500D03*
X64250000Y-127262500D03*
%TD*%
D19*
%TO.C,R22*%
X69587500Y-135800000D03*
X71412500Y-135800000D03*
%TD*%
%TO.C,R7*%
X79187500Y-89700000D03*
X81012500Y-89700000D03*
%TD*%
D13*
%TO.C,R9*%
X68581470Y-110070470D03*
X67291000Y-108780000D03*
%TD*%
%TO.C,R4*%
X62691000Y-107380000D03*
X61400530Y-106089530D03*
%TD*%
D16*
%TO.C,R5*%
X105762500Y-97010000D03*
X103937500Y-97010000D03*
%TD*%
D20*
%TO.C,R21*%
X84010000Y-162040000D03*
X84010000Y-163865000D03*
%TD*%
D23*
%TO.C,Y1*%
X82700000Y-112150000D03*
X82700000Y-108450000D03*
%TD*%
D12*
%TO.C,J3*%
X45266000Y-106010000D03*
X50316000Y-106010000D03*
X45266000Y-108550000D03*
X50316000Y-108550000D03*
X45266000Y-111090000D03*
X50316000Y-111090000D03*
X45266000Y-113630000D03*
X50316000Y-113630000D03*
X45266000Y-116170000D03*
X50316000Y-116170000D03*
X45266000Y-118710000D03*
X50316000Y-118710000D03*
X45266000Y-121250000D03*
X50316000Y-121250000D03*
X45266000Y-123790000D03*
X50316000Y-123790000D03*
X45266000Y-126330000D03*
X50316000Y-126330000D03*
X45266000Y-128870000D03*
X50316000Y-128870000D03*
X45266000Y-131410000D03*
X50316000Y-131410000D03*
X45266000Y-133950000D03*
X50316000Y-133950000D03*
%TD*%
D20*
%TO.C,R15*%
X53160000Y-100905000D03*
X53160000Y-102730000D03*
%TD*%
D15*
%TO.C,R17*%
X78550000Y-163882500D03*
X78550000Y-162057500D03*
%TD*%
D16*
%TO.C,R19*%
X78912500Y-143200000D03*
X77087500Y-143200000D03*
%TD*%
D13*
%TO.C,R1*%
X64236235Y-112025235D03*
X62945765Y-110734765D03*
%TD*%
M02*
