%TF.GenerationSoftware,KiCad,Pcbnew,6.0.1*%
%TF.CreationDate,2022-02-10T21:42:24-06:00*%
%TF.ProjectId,POWER,504f5745-522e-46b6-9963-61645f706362,rev?*%
%TF.SameCoordinates,Original*%
%TF.FileFunction,Soldermask,Top*%
%TF.FilePolarity,Negative*%
%FSLAX46Y46*%
G04 Gerber Fmt 4.6, Leading zero omitted, Abs format (unit mm)*
G04 Created by KiCad (PCBNEW 6.0.1) date 2022-02-10 21:42:24*
%MOMM*%
%LPD*%
G01*
G04 APERTURE LIST*
G04 Aperture macros list*
%AMRoundRect*
0 Rectangle with rounded corners*
0 $1 Rounding radius*
0 $2 $3 $4 $5 $6 $7 $8 $9 X,Y pos of 4 corners*
0 Add a 4 corners polygon primitive as box body*
4,1,4,$2,$3,$4,$5,$6,$7,$8,$9,$2,$3,0*
0 Add four circle primitives for the rounded corners*
1,1,$1+$1,$2,$3*
1,1,$1+$1,$4,$5*
1,1,$1+$1,$6,$7*
1,1,$1+$1,$8,$9*
0 Add four rect primitives between the rounded corners*
20,1,$1+$1,$2,$3,$4,$5,0*
20,1,$1+$1,$4,$5,$6,$7,0*
20,1,$1+$1,$6,$7,$8,$9,0*
20,1,$1+$1,$8,$9,$2,$3,0*%
%AMFreePoly0*
4,1,22,0.500000,-0.750000,0.000000,-0.750000,0.000000,-0.745033,-0.079941,-0.743568,-0.215256,-0.701293,-0.333266,-0.622738,-0.424486,-0.514219,-0.481581,-0.384460,-0.499164,-0.250000,-0.500000,-0.250000,-0.500000,0.250000,-0.499164,0.250000,-0.499963,0.256109,-0.478152,0.396186,-0.417904,0.524511,-0.324060,0.630769,-0.204165,0.706417,-0.067858,0.745374,0.000000,0.744959,0.000000,0.750000,
0.500000,0.750000,0.500000,-0.750000,0.500000,-0.750000,$1*%
%AMFreePoly1*
4,1,20,0.000000,0.744959,0.073905,0.744508,0.209726,0.703889,0.328688,0.626782,0.421226,0.519385,0.479903,0.390333,0.500000,0.250000,0.500000,-0.250000,0.499851,-0.262216,0.476331,-0.402017,0.414519,-0.529596,0.319384,-0.634700,0.198574,-0.708877,0.061801,-0.746166,0.000000,-0.745033,0.000000,-0.750000,-0.500000,-0.750000,-0.500000,0.750000,0.000000,0.750000,0.000000,0.744959,
0.000000,0.744959,$1*%
G04 Aperture macros list end*
%ADD10RoundRect,0.243750X-0.456250X0.243750X-0.456250X-0.243750X0.456250X-0.243750X0.456250X0.243750X0*%
%ADD11C,2.800000*%
%ADD12C,1.750000*%
%ADD13C,0.800000*%
%ADD14C,6.400000*%
%ADD15RoundRect,0.243750X0.456250X-0.243750X0.456250X0.243750X-0.456250X0.243750X-0.456250X-0.243750X0*%
%ADD16R,3.150000X1.000000*%
%ADD17RoundRect,0.250000X0.503814X0.132583X0.132583X0.503814X-0.503814X-0.132583X-0.132583X-0.503814X0*%
%ADD18RoundRect,0.250000X-0.475000X0.250000X-0.475000X-0.250000X0.475000X-0.250000X0.475000X0.250000X0*%
%ADD19FreePoly0,0.000000*%
%ADD20FreePoly1,0.000000*%
%ADD21RoundRect,0.250000X0.450000X-0.262500X0.450000X0.262500X-0.450000X0.262500X-0.450000X-0.262500X0*%
%ADD22RoundRect,0.250000X0.262500X0.450000X-0.262500X0.450000X-0.262500X-0.450000X0.262500X-0.450000X0*%
%ADD23R,1.600000X0.550000*%
%ADD24R,0.550000X1.600000*%
%ADD25RoundRect,0.250000X-0.262500X-0.450000X0.262500X-0.450000X0.262500X0.450000X-0.262500X0.450000X0*%
%ADD26FreePoly0,90.000000*%
%ADD27FreePoly1,90.000000*%
%ADD28RoundRect,0.250000X-0.450000X0.262500X-0.450000X-0.262500X0.450000X-0.262500X0.450000X0.262500X0*%
%ADD29RoundRect,0.250000X0.475000X-0.250000X0.475000X0.250000X-0.475000X0.250000X-0.475000X-0.250000X0*%
%ADD30RoundRect,0.150000X0.150000X-0.512500X0.150000X0.512500X-0.150000X0.512500X-0.150000X-0.512500X0*%
%ADD31R,1.700000X1.700000*%
%ADD32O,1.700000X1.700000*%
%ADD33R,2.400000X2.000000*%
%ADD34FreePoly0,180.000000*%
%ADD35FreePoly1,180.000000*%
G04 APERTURE END LIST*
D10*
%TO.C,D5*%
X86140000Y-162040000D03*
X86140000Y-163915000D03*
%TD*%
D11*
%TO.C,U7*%
X83000000Y-115650000D03*
X96500000Y-99650000D03*
D12*
X92920000Y-98820000D03*
X90380000Y-98820000D03*
X87840000Y-98820000D03*
X85300000Y-98820000D03*
X82760000Y-98820000D03*
%TD*%
D13*
%TO.C,REF\u002A\u002A*%
X94536858Y-94429042D03*
X96233914Y-95131986D03*
X97930970Y-91034930D03*
X94536858Y-91034930D03*
X93833914Y-92731986D03*
X97930970Y-94429042D03*
D14*
X96233914Y-92731986D03*
D13*
X98633914Y-92731986D03*
X96233914Y-90331986D03*
%TD*%
D11*
%TO.C,U5*%
X83160000Y-142050000D03*
X99160000Y-155550000D03*
D12*
X82330000Y-146270000D03*
X82330000Y-148810000D03*
X82330000Y-151350000D03*
X82330000Y-153890000D03*
X82330000Y-156430000D03*
X84870000Y-146270000D03*
%TD*%
D15*
%TO.C,D3*%
X80800000Y-163907500D03*
X80800000Y-162032500D03*
%TD*%
D16*
%TO.C,J1*%
X110316000Y-133950000D03*
X105266000Y-133950000D03*
X110316000Y-131410000D03*
X105266000Y-131410000D03*
X110316000Y-128870000D03*
X105266000Y-128870000D03*
X110316000Y-126330000D03*
X105266000Y-126330000D03*
X110316000Y-123790000D03*
X105266000Y-123790000D03*
X110316000Y-121250000D03*
X105266000Y-121250000D03*
X110316000Y-118710000D03*
X105266000Y-118710000D03*
X110316000Y-116170000D03*
X105266000Y-116170000D03*
X110316000Y-113630000D03*
X105266000Y-113630000D03*
X110316000Y-111090000D03*
X105266000Y-111090000D03*
X110316000Y-108550000D03*
X105266000Y-108550000D03*
X110316000Y-106010000D03*
X105266000Y-106010000D03*
%TD*%
D15*
%TO.C,D2*%
X75230000Y-163907500D03*
X75230000Y-162032500D03*
%TD*%
D17*
%TO.C,R3*%
X65836235Y-110425235D03*
X64545765Y-109134765D03*
%TD*%
D18*
%TO.C,C1*%
X79600000Y-115550000D03*
X79600000Y-117450000D03*
%TD*%
D19*
%TO.C,JP3*%
X64650000Y-93800000D03*
D20*
X65950000Y-93800000D03*
%TD*%
D13*
%TO.C,REF\u002A\u002A*%
X59343914Y-95191986D03*
D14*
X59343914Y-92791986D03*
D13*
X61040970Y-91094930D03*
X59343914Y-90391986D03*
X56943914Y-92791986D03*
X57646858Y-91094930D03*
X61040970Y-94489042D03*
X57646858Y-94489042D03*
X61743914Y-92791986D03*
%TD*%
D21*
%TO.C,R20*%
X89370000Y-163962500D03*
X89370000Y-162137500D03*
%TD*%
D13*
%TO.C,REF\u002A\u002A*%
X61050970Y-162979042D03*
X59353914Y-163681986D03*
X61753914Y-161281986D03*
X57656858Y-159584930D03*
X61050970Y-159584930D03*
X56953914Y-161281986D03*
X59353914Y-158881986D03*
D14*
X59353914Y-161281986D03*
D13*
X57656858Y-162979042D03*
%TD*%
D17*
%TO.C,R10*%
X65481470Y-106970470D03*
X64191000Y-105680000D03*
%TD*%
D22*
%TO.C,R6*%
X102262500Y-97010000D03*
X100437500Y-97010000D03*
%TD*%
D23*
%TO.C,U2*%
X85850000Y-104900000D03*
X85850000Y-105700000D03*
X85850000Y-106500000D03*
X85850000Y-107300000D03*
X85850000Y-108100000D03*
X85850000Y-108900000D03*
X85850000Y-109700000D03*
X85850000Y-110500000D03*
D24*
X87300000Y-111950000D03*
X88100000Y-111950000D03*
X88900000Y-111950000D03*
X89700000Y-111950000D03*
X90500000Y-111950000D03*
X91300000Y-111950000D03*
X92100000Y-111950000D03*
X92900000Y-111950000D03*
D23*
X94350000Y-110500000D03*
X94350000Y-109700000D03*
X94350000Y-108900000D03*
X94350000Y-108100000D03*
X94350000Y-107300000D03*
X94350000Y-106500000D03*
X94350000Y-105700000D03*
X94350000Y-104900000D03*
D24*
X92900000Y-103450000D03*
X92100000Y-103450000D03*
X91300000Y-103450000D03*
X90500000Y-103450000D03*
X89700000Y-103450000D03*
X88900000Y-103450000D03*
X88100000Y-103450000D03*
X87300000Y-103450000D03*
%TD*%
D21*
%TO.C,R16*%
X72930000Y-163912500D03*
X72930000Y-162087500D03*
%TD*%
D10*
%TO.C,D4*%
X91490000Y-162150000D03*
X91490000Y-164025000D03*
%TD*%
D15*
%TO.C,D1*%
X68000000Y-129137500D03*
X68000000Y-127262500D03*
%TD*%
D17*
%TO.C,R2*%
X61136235Y-108925235D03*
X59845765Y-107634765D03*
%TD*%
D25*
%TO.C,R23*%
X90780000Y-96380000D03*
X92605000Y-96380000D03*
%TD*%
D11*
%TO.C,U6*%
X57450000Y-155500000D03*
X70950000Y-139500000D03*
D12*
X66730000Y-138670000D03*
X64190000Y-138670000D03*
X61650000Y-138670000D03*
X59110000Y-138670000D03*
X56570000Y-138670000D03*
X66730000Y-141210000D03*
%TD*%
D26*
%TO.C,JP6*%
X89410000Y-94030000D03*
D27*
X89410000Y-92730000D03*
%TD*%
D28*
%TO.C,R13*%
X61800000Y-127487500D03*
X61800000Y-129312500D03*
%TD*%
D29*
%TO.C,C2*%
X82700000Y-105950000D03*
X82700000Y-104050000D03*
%TD*%
D25*
%TO.C,R8*%
X82687500Y-89700000D03*
X84512500Y-89700000D03*
%TD*%
D30*
%TO.C,U1*%
X64250000Y-129537500D03*
X65200000Y-129537500D03*
X66150000Y-129537500D03*
X66150000Y-127262500D03*
X64250000Y-127262500D03*
%TD*%
D25*
%TO.C,R22*%
X69587500Y-135800000D03*
X71412500Y-135800000D03*
%TD*%
D14*
%TO.C,REF\u002A\u002A*%
X96243914Y-161281986D03*
D13*
X96243914Y-158881986D03*
X94546858Y-162979042D03*
X96243914Y-163681986D03*
X98643914Y-161281986D03*
X94546858Y-159584930D03*
X93843914Y-161281986D03*
X97940970Y-162979042D03*
X97940970Y-159584930D03*
%TD*%
D25*
%TO.C,R7*%
X79187500Y-89700000D03*
X81012500Y-89700000D03*
%TD*%
D17*
%TO.C,R9*%
X68581470Y-110070470D03*
X67291000Y-108780000D03*
%TD*%
D26*
%TO.C,JP1*%
X61800000Y-132650000D03*
D27*
X61800000Y-131350000D03*
%TD*%
D17*
%TO.C,R4*%
X62691000Y-107380000D03*
X61400530Y-106089530D03*
%TD*%
D11*
%TO.C,U4*%
X77556000Y-98600000D03*
X56556000Y-98600000D03*
X56556000Y-119600000D03*
D12*
X60706000Y-100210000D03*
X63246000Y-100210000D03*
X65786000Y-100210000D03*
X68326000Y-100210000D03*
X70866000Y-100210000D03*
X73406000Y-100210000D03*
X60706000Y-97670000D03*
X63246000Y-97670000D03*
X65786000Y-97670000D03*
X68326000Y-97670000D03*
X70866000Y-97670000D03*
X73406000Y-97670000D03*
%TD*%
D22*
%TO.C,R5*%
X105762500Y-97010000D03*
X103937500Y-97010000D03*
%TD*%
D28*
%TO.C,R21*%
X84010000Y-162040000D03*
X84010000Y-163865000D03*
%TD*%
D31*
%TO.C,J5*%
X94781000Y-122055000D03*
D32*
X92241000Y-122055000D03*
X94781000Y-124595000D03*
X92241000Y-124595000D03*
X94781000Y-127135000D03*
X92241000Y-127135000D03*
%TD*%
D33*
%TO.C,Y1*%
X82700000Y-112150000D03*
X82700000Y-108450000D03*
%TD*%
D34*
%TO.C,JP4*%
X78950000Y-146800000D03*
D35*
X77650000Y-146800000D03*
%TD*%
D16*
%TO.C,J3*%
X45266000Y-106010000D03*
X50316000Y-106010000D03*
X45266000Y-108550000D03*
X50316000Y-108550000D03*
X45266000Y-111090000D03*
X50316000Y-111090000D03*
X45266000Y-113630000D03*
X50316000Y-113630000D03*
X45266000Y-116170000D03*
X50316000Y-116170000D03*
X45266000Y-118710000D03*
X50316000Y-118710000D03*
X45266000Y-121250000D03*
X50316000Y-121250000D03*
X45266000Y-123790000D03*
X50316000Y-123790000D03*
X45266000Y-126330000D03*
X50316000Y-126330000D03*
X45266000Y-128870000D03*
X50316000Y-128870000D03*
X45266000Y-131410000D03*
X50316000Y-131410000D03*
X45266000Y-133950000D03*
X50316000Y-133950000D03*
%TD*%
D26*
%TO.C,S1*%
X94920000Y-132570000D03*
D27*
X94920000Y-131270000D03*
%TD*%
D28*
%TO.C,R15*%
X53160000Y-100905000D03*
X53160000Y-102730000D03*
%TD*%
D21*
%TO.C,R17*%
X78550000Y-163882500D03*
X78550000Y-162057500D03*
%TD*%
D22*
%TO.C,R19*%
X78912500Y-143200000D03*
X77087500Y-143200000D03*
%TD*%
D17*
%TO.C,R1*%
X64236235Y-112025235D03*
X62945765Y-110734765D03*
%TD*%
D11*
%TO.C,U3*%
X57460000Y-155500000D03*
X57460000Y-134500000D03*
X78460000Y-155500000D03*
D12*
X61610000Y-153890000D03*
X64150000Y-153890000D03*
X66690000Y-153890000D03*
X69230000Y-153890000D03*
X71770000Y-153890000D03*
X74310000Y-153890000D03*
X61610000Y-156430000D03*
X64150000Y-156430000D03*
X66690000Y-156430000D03*
X69230000Y-156430000D03*
X71770000Y-156430000D03*
X74310000Y-156430000D03*
%TD*%
M02*
