<?xml version="1.0" encoding="UTF-8"?>
<!DOCTYPE svg PUBLIC "-//W3C//DTD SVG 1.1//EN" "http://www.w3.org/Graphics/SVG/1.1/DTD/svg11.dtd">

<svg xmlns="http://www.w3.org/2000/svg" xmlns:xlink="http://www.w3.org/1999/xlink" xmlns:xs="http://www.w3.org/2001/XMLSchema" xmlns:wb="http://www.ti.com/webench" version="1.1" width="100%" height="100%" viewBox="0 0 2160.0 580.0" preserveAspectRatio="xMidYMid meet">
  <defs>
    <g id="WB_CONTINUATION">
      <circle xmlns="" opacity="0.01" fill="#ffffff" stroke="#000000" stroke-width="0" cx="0" cy="0" r="14" />
      <line fill="none" stroke="#CC0000" stroke-width="2" x1="0" y1="10" x2="0" y2="-10" />
      <line fill="none" stroke="#CC0000" stroke-width="2" x1="-10" y1="-10" x2="10" y2="-10" />
    </g>
    <g id="WB_BLOCK_IO">
      <circle xmlns="" opacity="0.01" fill="#ffffff" stroke="#000000" stroke-width="0" cx="0" cy="0" r="14" />
      <line stroke="#CC0000" fill="none" stroke-width="2" x1="-5" y1="0" x2="5" y2="0" />
    </g>
    <g id="WB_GND_SIGNAL">
      <circle xmlns="" opacity="0.01" fill="#ffffff" stroke="#000000" stroke-width="0" cx="0" cy="0" r="14" />
      <polygon fill="black" stroke="black" stroke-width="2" points="12.5,0 0,10 -12.5,0 12.5,0" />
      <line fill="none" stroke="black" stroke-width="2" x1="0" y1="-10" x2="0" y2="0" />
    </g>
    <g id="WB_RESISTOR">
      <circle xmlns="" opacity="0.01" fill="#ffffff" stroke="#000000" stroke-width="0" cx="0" cy="0" r="14" />
      <polyline fill="none" stroke="#115566" stroke-width="2" stroke-linecap="round" stroke-linejoin="round" points="30,0 20,0 15,-6 7.5,6 0,-6 -7.5,6 -15,-6 -20,0 -30,0" />
    </g>
    <g id="WB_STARTUP_VOLTAGE_SOURCE">
      <circle xmlns="" opacity="0.01" fill="#ffffff" stroke="#000000" stroke-width="0" cx="0" cy="0" r="14" />
      <circle fill-opacity="0.01" fill="#CC0000" stroke="#CC0000" stroke-width="2" cx="0" cy="0" r="14" />
      <polyline fill="none" stroke="#CC0000" stroke-width="2" points="-6,-11 -6,7 5,9 5,12 " />
      <line fill="none" stroke="#CC0000" stroke-width="2" x1="16" y1="-12" x2="16" y2="-18" />
      <line fill="none" stroke="#CC0000" stroke-width="2" x1="-17" y1="-12" x2="-17" y2="-18" />
      <line fill="none" stroke="#CC0000" stroke-width="2" x1="-14" y1="-15" x2="-20" y2="-15" />
      <line fill="none" stroke="#CC0000" stroke-width="2" x1="-15" y1="0" x2="-30" y2="0" />
      <line fill="none" stroke="#CC0000" stroke-width="2" x1="30" y1="0" x2="15" y2="0" />
    </g>
    <g id="WB_SOURCE_RESISTOR">
      <circle xmlns="" opacity="0.01" fill="#ffffff" stroke="#000000" stroke-width="0" cx="0" cy="0" r="14" />
      <polyline fill="none" stroke="#CC0000" stroke-width="2" stroke-linecap="round" stroke-linejoin="round" points="30,0 20,0 15,-6 7.5,6 0,-6 -7.5,6 -15,-6 -20,0 -30,0" />
    </g>
    <g id="WB_PRIM_STARTUP_VOLTAGE_SOURCE">
      <circle xmlns="" opacity="0.01" fill="#ffffff" stroke="#000000" stroke-width="0" cx="0" cy="0" r="14" />
      <circle fill-opacity="0.01" fill="#CC0000" stroke="#CC0000" stroke-width="2" cx="0" cy="0" r="14" />
      <polyline fill="none" stroke="#CC0000" stroke-width="2" points="-6,-11 -6,7 5,9 5,12 " />
      <line fill="none" stroke="#CC0000" stroke-width="2" x1="16" y1="-12" x2="16" y2="-18" />
      <line fill="none" stroke="#CC0000" stroke-width="2" x1="-17" y1="-12" x2="-17" y2="-18" />
      <line fill="none" stroke="#CC0000" stroke-width="2" x1="-14" y1="-15" x2="-20" y2="-15" />
      <line fill="none" stroke="#CC0000" stroke-width="2" x1="-15" y1="0" x2="-30" y2="0" />
      <line fill="none" stroke="#CC0000" stroke-width="2" x1="30" y1="0" x2="15" y2="0" />
    </g>
    <g id="WB_CURRENT_PROBE">
      <circle xmlns="" opacity="0.01" fill="#ffffff" stroke="#000000" stroke-width="0" cx="0" cy="0" r="14" />
      <line stroke="#CC0000" stroke-width="2" stroke-linecap="square" stroke-linejoin="round" x1="-16" y1="0" x2="-10" y2="0" />
      <polyline stroke="#CC0000" stroke-width="2" stroke-linecap="square" stroke-linejoin="round" points="6,0 3,-3.5 3,3.5 6,0 -6,0 " />
      <line stroke="#CC0000" stroke-width="2" stroke-linecap="square" stroke-linejoin="round" x1="10" y1="0" x2="16" y2="0" />
      <rect stroke-width="1" x="-9.5" y="-7" fill="none" stroke="#CC0000" width="19" height="14" />
    </g>
    <g id="WB_PWL_CURRENT_LOAD">
      <circle xmlns="" opacity="0.01" fill="#ffffff" stroke="#000000" stroke-width="0" cx="0" cy="0" r="14" />
      <circle fill-opacity="0.01" fill="#CC0000" stroke="#CC0000" stroke-width="2" cx="0" cy="0" r="14" />
      <line y1="0" x2="-20" stroke="#CC0000" x1="-30" fill="none" stroke-width="2" y2="0" />
      <line y1="0" x2="20" stroke="#CC0000" x1="30" fill="none" stroke-width="2" y2="0" />
      <polyline stroke="#CC0000" points="-7,6 4,8  " stroke-linejoin="round" fill="none" stroke-width="2" stroke-linecap="round" />
      <polyline stroke="#CC0000" points="-7,-6 4,-8  " stroke-linejoin="round" fill="none" stroke-width="2" stroke-linecap="round" />
      <polyline stroke="#CC0000" points="-20,0 -15,0  " stroke-linejoin="round" fill="none" stroke-width="2" stroke-linecap="round" />
      <polyline stroke="#CC0000" points="20,0 15,0  " stroke-linejoin="round" fill="none" stroke-width="2" stroke-linecap="round" />
      <polyline stroke="#CC0000" points="-7,-6 -7,6  " stroke-linejoin="round" fill="none" stroke-width="2" stroke-linecap="round" />
      <polyline stroke="#CC0000" points="4,-8 4,-11  " stroke-linejoin="round" fill="none" stroke-width="2" stroke-linecap="round" />
      <polyline stroke="#CC0000" points="4,8 4,11  " stroke-linejoin="round" fill="none" stroke-width="2" stroke-linecap="round" />
      <line x1="23" y1="-13" x2="23" y2="-7" stroke="#CC0000" fill="none" stroke-width="2" stroke-linecap="round" />
      <line x1="-23" y1="-13" x2="-23" y2="-7" stroke="#CC0000" fill="none" stroke-width="2" stroke-linecap="round" />
      <line x1="-26" y1="-10" x2="-20" y2="-10" stroke="#CC0000" fill="none" stroke-width="2" stroke-linecap="round" />
    </g>
    <g id="WB_CAPACITOR">
      <circle xmlns="" opacity="0.01" fill="#ffffff" stroke="#000000" stroke-width="0" cx="0" cy="0" r="14" />
      <line y1="0" x2="20" stroke="#115566" x1="30" fill="none" stroke-width="2" y2="0" />
      <line y1="0" x2="-20" stroke="#115566" x1="-30" fill="none" stroke-width="2" y2="0" />
      <polyline stroke="#115566" points="3,12 3,-12  " stroke-linejoin="round" fill="none" stroke-width="2" stroke-linecap="round" />
      <polyline stroke="#115566" points="-20,0 -3,0  " stroke-linejoin="round" fill="none" stroke-width="2" stroke-linecap="round" />
      <polyline stroke="#115566" points="3,0 20,0  " stroke-linejoin="round" fill="none" stroke-width="2" stroke-linecap="round" />
      <polyline stroke="#115566" points="-3,12 -3,-12  " stroke-linejoin="round" fill="none" stroke-width="2" stroke-linecap="round" />
    </g>
    <g id="WB_LOAD_RESISTOR">
      <circle xmlns="" opacity="0.01" fill="#ffffff" stroke="#000000" stroke-width="0" cx="0" cy="0" r="14" />
      <polyline fill="none" stroke="#CC0000" stroke-width="2" stroke-linecap="round" stroke-linejoin="round" points="30,0 20,0 15,-6 7.5,6 0,-6 -7.5,6 -15,-6 -20,0 -30,0" />
    </g>
    <g id="WB_PWL_VOLTAGE_SOURCE">
      <circle xmlns="" opacity="0.01" fill="#ffffff" stroke="#000000" stroke-width="0" cx="0" cy="0" r="14" />
      <circle fill-opacity="0.01" fill="#CC0000" stroke="#CC0000" stroke-width="2" cx="0" cy="0" r="14" />
      <line y1="0" x2="-20" stroke="#CC0000" x1="-30" fill="none" stroke-width="2" y2="0" />
      <line y1="0" x2="20" stroke="#CC0000" x1="30" fill="none" stroke-width="2" y2="0" />
      <polyline stroke="#CC0000" points="-7,6 4,8  " stroke-linejoin="round" fill="none" stroke-width="2" stroke-linecap="round" />
      <polyline stroke="#CC0000" points="-7,-6 4,-8  " stroke-linejoin="round" fill="none" stroke-width="2" stroke-linecap="round" />
      <polyline stroke="#CC0000" points="-20,0 -15,0  " stroke-linejoin="round" fill="none" stroke-width="2" stroke-linecap="round" />
      <polyline stroke="#CC0000" points="20,0 15,0  " stroke-linejoin="round" fill="none" stroke-width="2" stroke-linecap="round" />
      <polyline stroke="#CC0000" points="-7,-6 -7,6  " stroke-linejoin="round" fill="none" stroke-width="2" stroke-linecap="round" />
      <polyline stroke="#CC0000" points="4,-8 4,-11  " stroke-linejoin="round" fill="none" stroke-width="2" stroke-linecap="round" />
      <polyline stroke="#CC0000" points="4,8 4,11  " stroke-linejoin="round" fill="none" stroke-width="2" stroke-linecap="round" />
      <line x1="23" y1="-13" x2="23" y2="-7" stroke="#CC0000" fill="none" stroke-width="2" stroke-linecap="round" />
      <line x1="-23" y1="-13" x2="-23" y2="-7" stroke="#CC0000" fill="none" stroke-width="2" stroke-linecap="round" />
      <line x1="-26" y1="-10" x2="-20" y2="-10" stroke="#CC0000" fill="none" stroke-width="2" stroke-linecap="round" />
    </g>
    <g id="WB_PRIM_PWL_VOLTAGE_SOURCE">
      <circle xmlns="" opacity="0.01" fill="#ffffff" stroke="#000000" stroke-width="0" cx="0" cy="0" r="14" />
      <circle fill-opacity="0.01" fill="#CC0000" stroke="#CC0000" stroke-width="2" cx="0" cy="0" r="14" />
      <line x1="-30" y1="0" x2="-15" y2="0" stroke="#CC0000" fill="none" stroke-width="2" />
      <line x1="30" y1="0" x2="15" y2="0" stroke="#CC0000" fill="none" stroke-width="2" />
      <polyline stroke="#CC0000" points="0,13 0,8 -7,6 -7,0 7,-4 0,-8 0,-13" stroke-linejoin="round" fill="none" stroke-width="2" stroke-linecap="round" />
      <line x1="23" y1="-13" x2="23" y2="-7" stroke="#CC0000" fill="none" stroke-width="2" stroke-linecap="round" />
      <line x1="-23" y1="-13" x2="-23" y2="-7" stroke="#CC0000" fill="none" stroke-width="2" stroke-linecap="round" />
      <line x1="-26" y1="-10" x2="-20" y2="-10" stroke="#CC0000" fill="none" stroke-width="2" stroke-linecap="round" />
    </g>
    <g id="WB_PRIMITIVE_CAPACITOR">
      <circle xmlns="" opacity="0.01" fill="#ffffff" stroke="#000000" stroke-width="0" cx="0" cy="0" r="14" />
      <line y1="0" x2="20" stroke="#CC0000" x1="30" fill="none" stroke-width="2" y2="0" />
      <line y1="0" x2="-20" stroke="#CC0000" x1="-30" fill="none" stroke-width="2" y2="0" />
      <polyline stroke="#CC0000" points="3,12 3,-12  " stroke-linejoin="round" fill="none" stroke-width="2" stroke-linecap="round" />
      <polyline stroke="#CC0000" points="-20,0 -3,0  " stroke-linejoin="round" fill="none" stroke-width="2" stroke-linecap="round" />
      <polyline stroke="#CC0000" points="3,0 20,0  " stroke-linejoin="round" fill="none" stroke-width="2" stroke-linecap="round" />
      <polyline stroke="#CC0000" points="-3,12 -3,-12  " stroke-linejoin="round" fill="none" stroke-width="2" stroke-linecap="round" />
    </g>
    <g id="WB_GND">
      <circle xmlns="" opacity="0.01" fill="#ffffff" stroke="#000000" stroke-width="0" cx="0" cy="0" r="14" />
      <line fill="none" stroke="black" stroke-width="2" x1="0" y1="-10" x2="0" y2="0" />
      <line fill="none" stroke="black" stroke-width="2" x1="-13" y1="0" x2="13" y2="0" />
      <line fill="none" stroke="black" stroke-width="2" x1="-9" y1="4" x2="9" y2="4" />
      <line fill="none" stroke="black" stroke-width="2" x1="-3" y1="8" x2="3" y2="8" />
    </g>
    <g id="WB_PRIMITIVE_INDUCTOR">
      <circle xmlns="" opacity="0.01" fill="#ffffff" stroke="#000000" stroke-width="0" cx="0" cy="0" r="14" />
      <path fill="none" stroke="#CC0000" stroke-width="2" stroke-linecap="round" stroke-linejoin="round" d="M-10,0c0-0.6-0.2-1.8-0.6-3.3c-0.5-2.4-2-3.7-4.4-4c-2.4,0.3-3.8,1.6-4.3,4c-0.6,2.3-0.8,3.6-0.7,3M-20,0H-30" />
      <path fill="none" stroke="#CC0000" stroke-width="2" stroke-linecap="round" stroke-linejoin="round" d="M0,0c0-0.6-0.2-1.8-0.6-3.3c-0.5-2.4-2-3.7-4.4-4c-2.4,0.3-3.8,1.6-4.3,4c-0.6,2.3-0.8,3.6-0.7,4" />
      <path fill="none" stroke="#CC0000" stroke-width="2" stroke-linecap="round" stroke-linejoin="round" d="M10,0c0-0.6-0.2-1.8-0.6-3.3c-0.5-2.4-2-3.7-4.4-4c-2.4,0.3-3.8,1.6-4.3,4c-0.6,2.3-0.8,3.6-0.7,4" />
      <path fill="none" stroke="#CC0000" stroke-width="2" stroke-linecap="round" stroke-linejoin="round" d="M30,0H20c0-0.6-0.2-1.8-0.6-3.3c-0.5-2.4-2-3.7-4.4-4c-2.4,0.3-3.8,1.6-4.3,4c-0.6,2.3-0.8,3.6-0.7,4" />
      <path fill="none" stroke="#CC0000" stroke-width="2" stroke-linecap="round" stroke-linejoin="round" d=" M10,0 c0.1,0.4,0.1,0.6,0,0.7" />
      <path fill="none" stroke="#CC0000" stroke-width="2" stroke-linecap="round" stroke-linejoin="round" d=" M0,0  c0.1,0.4,0.1,0.6,0,0.7" />
      <path fill="none" stroke="#CC0000" stroke-width="2" stroke-linecap="round" stroke-linejoin="round" d=" M-10,0c0.1,0.4,0.1,0.6,0,0.7" />
    </g>
    <g id="WB_PRIM_AC_VOLTAGE_SOURCE">
      <circle xmlns="" opacity="0.01" fill="#ffffff" stroke="#000000" stroke-width="0" cx="0" cy="0" r="14" />
      <circle fill-opacity="0.01" fill="#CC0000" stroke="#CC0000" stroke-width="2" cx="0" cy="0" r="14" />
      <line y1="0" x2="-20" stroke="#CC0000" x1="-30" fill="none" stroke-width="2" y2="0" />
      <line y1="0" x2="20" stroke="#CC0000" x1="30" fill="none" stroke-width="2" y2="0" />
      <polyline stroke="#CC0000" points="-20,0 -15,0  " stroke-linejoin="round" fill="none" stroke-width="2" stroke-linecap="round" />
      <polyline stroke="#CC0000" points="20,0 15,0  " stroke-linejoin="round" fill="none" stroke-width="2" stroke-linecap="round" />
      <path stroke="#CC0000" d="M0,10A5,5 0 0,1 0,0 " fill="none" stroke-width="2" stroke-linecap="round" />
      <path stroke="#CC0000" d="M0-10A5,5 0 1,1 0,0 " fill="none" stroke-width="2" stroke-linecap="round" />
      <line x1="23" y1="-13" x2="23" y2="-7" stroke="#CC0000" fill="none" stroke-width="2" stroke-linecap="round" />
      <line x1="-23" y1="-13" x2="-23" y2="-7" stroke="#CC0000" fill="none" stroke-width="2" stroke-linecap="round" />
      <line x1="-26" y1="-10" x2="-20" y2="-10" stroke="#CC0000" fill="none" stroke-width="2" stroke-linecap="round" />
    </g>
    <g id="WB_ZERO_VOLT_SOURCE">
      <circle xmlns="" opacity="0.01" fill="#ffffff" stroke="#000000" stroke-width="0" cx="0" cy="0" r="14" />
      <line stroke="#CC0000" fill="none" stroke-width="2" x1="-5" y1="0" x2="5" y2="0" />
    </g>
    <g id="WB_INDUCTOR">
      <circle xmlns="" opacity="0.01" fill="#ffffff" stroke="#000000" stroke-width="0" cx="0" cy="0" r="14" />
      <path fill="none" stroke="#115566" stroke-width="2" stroke-linecap="round" stroke-linejoin="round" d="M-10,0c0-0.6-0.2-1.8-0.6-3.3c-0.5-2.4-2-3.7-4.4-4c-2.4,0.3-3.8,1.6-4.3,4c-0.6,2.3-0.8,3.6-0.7,3M-20,0H-30" />
      <path fill="none" stroke="#115566" stroke-width="2" stroke-linecap="round" stroke-linejoin="round" d="M0,0c0-0.6-0.2-1.8-0.6-3.3c-0.5-2.4-2-3.7-4.4-4c-2.4,0.3-3.8,1.6-4.3,4c-0.6,2.3-0.8,3.6-0.7,4" />
      <path fill="none" stroke="#115566" stroke-width="2" stroke-linecap="round" stroke-linejoin="round" d="M10,0c0-0.6-0.2-1.8-0.6-3.3c-0.5-2.4-2-3.7-4.4-4c-2.4,0.3-3.8,1.6-4.3,4c-0.6,2.3-0.8,3.6-0.7,4" />
      <path fill="none" stroke="#115566" stroke-width="2" stroke-linecap="round" stroke-linejoin="round" d="M30,0H20c0-0.6-0.2-1.8-0.6-3.3c-0.5-2.4-2-3.7-4.4-4c-2.4,0.3-3.8,1.6-4.3,4c-0.6,2.3-0.8,3.6-0.7,4" />
      <path fill="none" stroke="#115566" stroke-width="2" stroke-linecap="round" stroke-linejoin="round" d=" M10,0 c0.1,0.4,0.1,0.6,0,0.7" />
      <path fill="none" stroke="#115566" stroke-width="2" stroke-linecap="round" stroke-linejoin="round" d=" M0,0  c0.1,0.4,0.1,0.6,0,0.7" />
      <path fill="none" stroke="#115566" stroke-width="2" stroke-linecap="round" stroke-linejoin="round" d=" M-10,0c0.1,0.4,0.1,0.6,0,0.7" />
    </g>
    <g id="WB_VOLTAGE_PROBE">
      <circle xmlns="" opacity="0.01" fill="#ffffff" stroke="#000000" stroke-width="0" cx="0" cy="0" r="14" />
      <rect stroke-width="1" width="20" stroke="#CC0000" x="-10" height="19.5" y="-30" fill="#CC0000" fill-opacity="0.01" />
      <polyline stroke="#CC0000" points="7,-27 4,-22 3,-26 0,-18 -1,-22 -5,-14  " stroke-linejoin="round" fill="none" stroke-width="2" stroke-linecap="round" />
      <line y1="0" x2="0" stroke="#CC0000" x1="0" fill="none" stroke-width="2" y2="-10" />
    </g>
    <g id="WB_LM62460RPH">
      <circle xmlns="" opacity="0.01" fill="#ffffff" stroke="#000000" stroke-width="0" cx="0" cy="0" r="14" />
      <line fill="none" stroke="#000000" stroke-width="2" stroke-linecap="round" stroke-linejoin="round" x1="-60" y1="100" x2="60" y2="100" />
      <line fill="none" stroke="#000000" stroke-width="2" stroke-linecap="round" stroke-linejoin="round" x1="60" y1="100" x2="60" y2="-100" />
      <line fill="none" stroke="#000000" stroke-width="2" stroke-linecap="round" stroke-linejoin="round" x1="60" y1="-100" x2="-60" y2="-100" />
      <line fill="none" stroke="#000000" stroke-width="2" stroke-linecap="round" stroke-linejoin="round" x1="-60" y1="-100" x2="-60" y2="100" />
      <text id="partNumber_label" x="0" y="-87" style="font-family:arial;font-weight:bold;font-size:12px;text-anchor:middle;">LM62460RPH</text>
      <line fill="none" stroke="#000000" stroke-width="2" stroke-linecap="round" stroke-linejoin="round" x1="-80" y1="90" x2="-60" y2="90" />
      <text id="1" x="-56" y="94" transform="rotate(0,-56,94)" style="font-family:arial;font-weight:normal;font-size:9px;text-anchor:start;">PGND</text>
      <line fill="none" stroke="#000000" stroke-width="2" stroke-linecap="round" stroke-linejoin="round" x1="-80" y1="-80" x2="-60" y2="-80" />
      <text id="2" x="-56" y="-76" transform="rotate(0,-56,-76)" style="font-family:arial;font-weight:normal;font-size:9px;text-anchor:start;">VIN</text>
      <line fill="none" stroke="#000000" stroke-width="2" stroke-linecap="round" stroke-linejoin="round" x1="80" y1="-30" x2="60" y2="-30" />
      <text id="3" x="56" y="-26" transform="rotate(0,56,-26)" style="font-family:arial;font-weight:normal;font-size:9px;text-anchor:end;">RBOOT</text>
      <line fill="none" stroke="#000000" stroke-width="2" stroke-linecap="round" stroke-linejoin="round" x1="80" y1="-50" x2="60" y2="-50" />
      <text id="4" x="56" y="-46" transform="rotate(0,56,-46)" style="font-family:arial;font-weight:normal;font-size:9px;text-anchor:end;">CBOOT</text>
      <line fill="none" stroke="#000000" stroke-width="2" stroke-linecap="round" stroke-linejoin="round" x1="80" y1="10" x2="60" y2="10" />
      <text id="5" x="56" y="14" transform="rotate(0,56,14)" style="font-family:arial;font-weight:normal;font-size:9px;text-anchor:end;">BIAS</text>
      <line fill="none" stroke="#000000" stroke-width="2" stroke-linecap="round" stroke-linejoin="round" x1="80" y1="50" x2="60" y2="50" />
      <text id="6" x="56" y="54" transform="rotate(0,56,54)" style="font-family:arial;font-weight:normal;font-size:9px;text-anchor:end;">VCC</text>
      <line fill="none" stroke="#000000" stroke-width="2" stroke-linecap="round" stroke-linejoin="round" x1="80" y1="-10" x2="60" y2="-10" />
      <text id="7" x="56" y="-6" transform="rotate(0,56,-6)" style="font-family:arial;font-weight:normal;font-size:9px;text-anchor:end;">FB</text>
      <line fill="none" stroke="#000000" stroke-width="2" stroke-linecap="round" stroke-linejoin="round" x1="80" y1="80" x2="60" y2="80" />
      <text id="8" x="56" y="84" transform="rotate(0,56,84)" style="font-family:arial;font-weight:normal;font-size:9px;text-anchor:end;">AGND</text>
      <line fill="none" stroke="#000000" stroke-width="2" stroke-linecap="round" stroke-linejoin="round" x1="-80" y1="50" x2="-60" y2="50" />
      <text id="9" x="-56" y="54" transform="rotate(0,-56,54)" style="font-family:arial;font-weight:normal;font-size:9px;text-anchor:start;">RT</text>
      <line fill="none" stroke="#000000" stroke-width="2" stroke-linecap="round" stroke-linejoin="round" x1="80" y1="30" x2="60" y2="30" />
      <text id="10" x="56" y="34" transform="rotate(0,56,34)" style="font-family:arial;font-weight:normal;font-size:9px;text-anchor:end;">RESET</text>
      <line fill="none" stroke="#000000" stroke-width="2" stroke-linecap="round" stroke-linejoin="round" x1="-80" y1="10" x2="-60" y2="10" />
      <text id="11" x="-56" y="14" transform="rotate(0,-56,14)" style="font-family:arial;font-weight:normal;font-size:9px;text-anchor:start;">SpSp</text>
      <line fill="none" stroke="#000000" stroke-width="2" stroke-linecap="round" stroke-linejoin="round" x1="-80" y1="30" x2="-60" y2="30" />
      <text id="12" x="-56" y="34" transform="rotate(0,-56,34)" style="font-family:arial;font-weight:normal;font-size:9px;text-anchor:start;">SYNC_MODE</text>
      <line fill="none" stroke="#000000" stroke-width="2" stroke-linecap="round" stroke-linejoin="round" x1="-80" y1="-40" x2="-60" y2="-40" />
      <text id="13" x="-56" y="-36" transform="rotate(0,-56,-36)" style="font-family:arial;font-weight:normal;font-size:9px;text-anchor:start;">EN</text>
      <line fill="none" stroke="#000000" stroke-width="2" stroke-linecap="round" stroke-linejoin="round" x1="-80" y1="-70" x2="-60" y2="-70" />
      <text id="14" x="-56" y="-66" transform="rotate(0,-56,-66)" style="font-family:arial;font-weight:normal;font-size:9px;text-anchor:start;">VIN</text>
      <line fill="none" stroke="#000000" stroke-width="2" stroke-linecap="round" stroke-linejoin="round" x1="80" y1="90" x2="60" y2="90" />
      <text id="15" x="56" y="94" transform="rotate(0,56,94)" style="font-family:arial;font-weight:normal;font-size:9px;text-anchor:end;">PGND</text>
      <line fill="none" stroke="#000000" stroke-width="2" stroke-linecap="round" stroke-linejoin="round" x1="80" y1="-80" x2="60" y2="-80" />
      <text id="16" x="56" y="-76" transform="rotate(0,56,-76)" style="font-family:arial;font-weight:normal;font-size:9px;text-anchor:end;">SW</text>
    </g>
    <g id="WB_CURRENT_LOAD">
      <circle xmlns="" opacity="0.01" fill="#ffffff" stroke="#000000" stroke-width="0" cx="0" cy="0" r="14" />
      <path fill="none" stroke="#CC0000" stroke-width="2" stroke-linecap="round" stroke-linejoin="round" d="M-15,0c 0.1, 4.2, 1.6, 7.7, 4.4, 10.6c 2.8, 2.8, 6.4, 4.3, 10.6, 4.4c 4.3-0.1, 7.8-1.6, 10.6 -4.4c 2.9-2.9, 4.3-6.4, 4.4-10.6" />
      <path fill="none" stroke="#CC0000" stroke-width="2" stroke-linecap="round" stroke-linejoin="round" d="M15,0c -0.1,-4.2,-1.6,-7.7,-4.4,-10.6c-2.8,-2.8,-6.4,-4.3,-10.6,-4.4c-4.3,0.1 -7.8,1.6 -10.6,4.4c-2.9,2.9 -4.3,6.4 -4.4,10.6" />
      <line fill="none" stroke="#CC0000" stroke-width="2" x1="30" y1="0" x2="15" y2="0" />
      <line fill="none" stroke="#CC0000" stroke-width="2" x1="-15" y1="0" x2="-30" y2="0" />
      <line fill="none" stroke="#CC0000" stroke-width="2" stroke-linecap="round" stroke-linejoin="round" x1="3" y1="7" x2="12" y2="0" />
      <line fill="none" stroke="#CC0000" stroke-width="2" stroke-linecap="round" stroke-linejoin="round" x1="3" y1="-7" x2="12" y2="0" />
      <line fill="none" stroke="#CC0000" stroke-width="2" stroke-linecap="round" stroke-linejoin="round" x1="12" y1="0" x2="-12" y2="0" />
    </g>
    <g id="WB_PRIMITIVE_BATTERY">
      <circle xmlns="" opacity="0.01" fill="#ffffff" stroke="#000000" stroke-width="0" cx="0" cy="0" r="14" />
      <line fill="none" stroke="#CC0000" stroke-width="2" x1="-8" y1="0" x2="-30" y2="0" />
      <line fill="none" stroke="#CC0000" stroke-width="2" x1="-7" y1="12" x2="-7" y2="-12" />
      <line fill="none" stroke="#CC0000" stroke-width="2" x1="4" y1="12" x2="4" y2="-12" />
      <line fill="none" stroke="#CC0000" stroke-width="2" x1="30" y1="0" x2="11" y2="0" />
      <line fill="none" stroke="#CC0000" stroke-width="2" x1="-2" y1="5" x2="-2" y2="-5" />
      <line fill="none" stroke="#CC0000" stroke-width="2" x1="-1" y1="5" x2="-1" y2="-5" />
      <line fill="none" stroke="#CC0000" stroke-width="2" x1="-14" y1="-9" x2="-14" y2="-15" />
      <line fill="none" stroke="#CC0000" stroke-width="2" x1="-11" y1="-12" x2="-17" y2="-12" />
      <line fill="none" stroke="#CC0000" stroke-width="2" x1="13" y1="-10" x2="13" y2="-15" />
      <line fill="none" stroke="#CC0000" stroke-width="2" x1="10" y1="5" x2="10" y2="-5" />
      <line fill="none" stroke="#CC0000" stroke-width="2" x1="9" y1="5" x2="9" y2="-5" />
    </g>
    <g id="WB_BATTERY">
      <circle xmlns="" opacity="0.01" fill="#ffffff" stroke="#000000" stroke-width="0" cx="0" cy="0" r="14" />
      <line fill="none" stroke="#CC0000" stroke-width="2" x1="-8" y1="0" x2="-30" y2="0" />
      <line fill="none" stroke="#CC0000" stroke-width="2" x1="-7" y1="12" x2="-7" y2="-12" />
      <line fill="none" stroke="#CC0000" stroke-width="2" x1="4" y1="12" x2="4" y2="-12" />
      <line fill="none" stroke="#CC0000" stroke-width="2" x1="30" y1="0" x2="11" y2="0" />
      <line fill="none" stroke="#CC0000" stroke-width="2" x1="-2" y1="5" x2="-2" y2="-5" />
      <line fill="none" stroke="#CC0000" stroke-width="2" x1="-1" y1="5" x2="-1" y2="-5" />
      <line fill="none" stroke="#CC0000" stroke-width="2" x1="-14" y1="-9" x2="-14" y2="-15" />
      <line fill="none" stroke="#CC0000" stroke-width="2" x1="-11" y1="-12" x2="-17" y2="-12" />
      <line fill="none" stroke="#CC0000" stroke-width="2" x1="13" y1="-10" x2="13" y2="-15" />
      <line fill="none" stroke="#CC0000" stroke-width="2" x1="10" y1="5" x2="10" y2="-5" />
      <line fill="none" stroke="#CC0000" stroke-width="2" x1="9" y1="5" x2="9" y2="-5" />
    </g>
  </defs>
  <use id="Rreset" class="comp" xlink:href="#WB_RESISTOR" x="1390.0" y="310.0" partNo="CRCW0402100KFKED" thermalId="0402" resistance="100kOhm" manufacturer="Vishay-Dale" />
  <text for="Rreset" x="1370.0" y="295.0" style="font-family:arial;font-size:13px;stroke-width:0.5;stroke:#115566;fill:#115566;">Rreset</text>
  <text for="Rreset" x="1370.0" y="330.0" style="font-family:arial;font-size:10px;stroke-width:0.1;stroke:#CC0000;fill:#CC0000;">100kOhm</text>
  <use id="Cout" class="comp" xlink:href="#WB_CAPACITOR" x="1915.0" y="280.0" transform="rotate(-90, 1915.0, 280.0)" cap="22uF" partNo="GRM32ER61E226KE15L" thermalId="1210" esr="2mOhm" manufacturer="MuRata" />
  <text for="Cout" x="1930.0" y="280.0" style="font-family:arial;font-size:13px;stroke-width:0.5;stroke:#115566;fill:#115566;">Cout</text>
  <text for="Cout" x="1930.0" y="290.0" style="font-family:arial;font-size:10px;stroke-width:0.1;stroke:#CC0000;fill:#CC0000;">22uF</text>
  <text for="Cout" x="1930.0" y="300.0" style="font-family:arial;font-size:10px;stroke-width:0.1;stroke:#CC0000;fill:#CC0000;">2mOhm</text>
  <use id="Rfbt" class="comp" xlink:href="#WB_RESISTOR" x="1715.0" y="170.0" transform="rotate(-90, 1715.0, 170.0)" partNo="CRCW0402100KFKED" thermalId="0402" resistance="100kOhm" manufacturer="Vishay-Dale" />
  <text for="Rfbt" x="1730.0" y="170.0" style="font-family:arial;font-size:13px;stroke-width:0.5;stroke:#115566;fill:#115566;">Rfbt</text>
  <text for="Rfbt" x="1730.0" y="180.0" style="font-family:arial;font-size:10px;stroke-width:0.1;stroke:#CC0000;fill:#CC0000;">100kOhm</text>
  <use id="GND1" class="other" xlink:href="#WB_GND_SIGNAL" x="1715.0" y="480.0" />
  <use id="Rfbb" class="comp" xlink:href="#WB_RESISTOR" x="1715.0" y="325.0" transform="rotate(-90, 1715.0, 325.0)" partNo="RC0603FR-079K09L" thermalId="0603" resistance="9.09kOhm" manufacturer="Yageo" />
  <text for="Rfbb" x="1730.0" y="325.0" style="font-family:arial;font-size:13px;stroke-width:0.5;stroke:#115566;fill:#115566;">Rfbb</text>
  <text for="Rfbb" x="1730.0" y="335.0" style="font-family:arial;font-size:10px;stroke-width:0.1;stroke:#CC0000;fill:#CC0000;">9.09kOhm</text>
  <use id="Cvcc" class="comp" xlink:href="#WB_CAPACITOR" x="1320.0" y="420.0" transform="rotate(-90, 1320.0, 420.0)" cap="1uF" partNo="GRM188R60J105KA01D" thermalId="0603" esr="6.065mOhm" manufacturer="MuRata" />
  <text for="Cvcc" x="1335.0" y="420.0" style="font-family:arial;font-size:13px;stroke-width:0.5;stroke:#115566;fill:#115566;">Cvcc</text>
  <text for="Cvcc" x="1335.0" y="430.0" style="font-family:arial;font-size:10px;stroke-width:0.1;stroke:#CC0000;fill:#CC0000;">1uF</text>
  <text for="Cvcc" x="1335.0" y="440.0" style="font-family:arial;font-size:10px;stroke-width:0.1;stroke:#CC0000;fill:#CC0000;">6.065mOhm</text>
  <use id="Cinx1" class="comp" xlink:href="#WB_CAPACITOR" x="565.0" y="280.0" transform="rotate(-90, 565.0, 280.0)" cap="1uF" partNo="C1608X5R1H105K080AB" thermalId="0603" esr="5.522mOhm" manufacturer="TDK" />
  <text for="Cinx1" x="580.0" y="280.0" style="font-family:arial;font-size:13px;stroke-width:0.5;stroke:#115566;fill:#115566;">Cinx1</text>
  <text for="Cinx1" x="580.0" y="290.0" style="font-family:arial;font-size:10px;stroke-width:0.1;stroke:#CC0000;fill:#CC0000;">1uF</text>
  <text for="Cinx1" x="580.0" y="300.0" style="font-family:arial;font-size:10px;stroke-width:0.1;stroke:#CC0000;fill:#CC0000;">5.522mOhm</text>
  <use id="Rff" class="comp" xlink:href="#WB_RESISTOR" x="1785.0" y="230.0" partNo="CRCW04024K99FKED" thermalId="0402" resistance="4.99kOhm" manufacturer="Vishay-Dale" />
  <text for="Rff" x="1765.0" y="215.0" style="font-family:arial;font-size:13px;stroke-width:0.5;stroke:#115566;fill:#115566;">Rff</text>
  <text for="Rff" x="1765.0" y="250.0" style="font-family:arial;font-size:10px;stroke-width:0.1;stroke:#CC0000;fill:#CC0000;">4.99kOhm</text>
  <use id="Cff" class="comp" xlink:href="#WB_CAPACITOR" x="1825.0" y="170.0" transform="rotate(-90, 1825.0, 170.0)" cap="5.1pF" partNo="GRM1555C1E5R1CA01D" thermalId="0402" esr="1mOhm" manufacturer="MuRata" />
  <text for="Cff" x="1840.0" y="170.0" style="font-family:arial;font-size:13px;stroke-width:0.5;stroke:#115566;fill:#115566;">Cff</text>
  <text for="Cff" x="1840.0" y="180.0" style="font-family:arial;font-size:10px;stroke-width:0.1;stroke:#CC0000;fill:#CC0000;">5.1pF</text>
  <text for="Cff" x="1840.0" y="190.0" style="font-family:arial;font-size:10px;stroke-width:0.1;stroke:#CC0000;fill:#CC0000;">1mOhm</text>
  <use id="L1" class="comp" xlink:href="#WB_INDUCTOR" x="1490.0" y="110.0" partNo="VLP8040T-2R2N" thermalId="VLP8040" l="2.2uH" dcr="15mOhm" manufacturer="TDK" />
  <text for="L1" x="1470.0" y="95.0" style="font-family:arial;font-size:13px;stroke-width:0.5;stroke:#115566;fill:#115566;">L1</text>
  <text for="L1" x="1470.0" y="130.0" style="font-family:arial;font-size:10px;stroke-width:0.1;stroke:#CC0000;fill:#CC0000;">2.2uH</text>
  <text for="L1" x="1470.0" y="140.0" style="font-family:arial;font-size:10px;stroke-width:0.1;stroke:#CC0000;fill:#CC0000;">15mOhm</text>
  <use id="GND10" class="other" xlink:href="#WB_GND" x="1210.0" y="380.0" />
  <use id="Cinx" class="comp" xlink:href="#WB_CAPACITOR" x="315.0" y="275.0" transform="rotate(-90, 315.0, 275.0)" cap="1uF" partNo="C1608X5R1H105K080AB" thermalId="0603" esr="5.522mOhm" manufacturer="TDK" />
  <text for="Cinx" x="330.0" y="275.0" style="font-family:arial;font-size:13px;stroke-width:0.5;stroke:#115566;fill:#115566;">Cinx</text>
  <text for="Cinx" x="330.0" y="285.0" style="font-family:arial;font-size:10px;stroke-width:0.1;stroke:#CC0000;fill:#CC0000;">1uF</text>
  <text for="Cinx" x="330.0" y="295.0" style="font-family:arial;font-size:10px;stroke-width:0.1;stroke:#CC0000;fill:#CC0000;">5.522mOhm</text>
  <use id="GND9" class="other" xlink:href="#WB_GND_SIGNAL" x="1245.0" y="380.0" />
  <use id="GND11" class="other" xlink:href="#WB_GND_SIGNAL" x="1320.0" y="470.0" />
  <use id="Cin1" class="comp" xlink:href="#WB_CAPACITOR" x="440.0" y="280.0" transform="rotate(-90, 440.0, 280.0)" cap="10uF" partNo="GRM32ER71H106KA12L" thermalId="1210_270" esr="1mOhm" manufacturer="MuRata" />
  <text for="Cin1" x="455.0" y="280.0" style="font-family:arial;font-size:13px;stroke-width:0.5;stroke:#115566;fill:#115566;">Cin1</text>
  <text for="Cin1" x="455.0" y="290.0" style="font-family:arial;font-size:10px;stroke-width:0.1;stroke:#CC0000;fill:#CC0000;">10uF</text>
  <text for="Cin1" x="455.0" y="300.0" style="font-family:arial;font-size:10px;stroke-width:0.1;stroke:#CC0000;fill:#CC0000;">1mOhm</text>
  <use id="GND14" class="other" xlink:href="#WB_GND" x="495.0" y="480.0" />
  <use id="GND2" class="other" xlink:href="#WB_GND_SIGNAL" x="895.0" y="470.0" />
  <use id="GND2" class="other" xlink:href="#WB_GND_SIGNAL" x="795.0" y="470.0" />
  <use id="GND2" class="other" xlink:href="#WB_GND_SIGNAL" x="950.0" y="375.0" />
  <use id="GND8" class="other" xlink:href="#WB_GND" x="1950.0" y="480.0" />
  <use id="Cin" class="comp" xlink:href="#WB_CAPACITOR" x="210.0" y="280.0" transform="rotate(-90, 210.0, 280.0)" cap="10uF" partNo="GRM32ER71H106KA12L" thermalId="1210_270" esr="1mOhm" manufacturer="MuRata" />
  <text for="Cin" x="225.0" y="280.0" style="font-family:arial;font-size:13px;stroke-width:0.5;stroke:#115566;fill:#115566;">Cin</text>
  <text for="Cin" x="225.0" y="290.0" style="font-family:arial;font-size:10px;stroke-width:0.1;stroke:#CC0000;fill:#CC0000;">10uF</text>
  <text for="Cin" x="225.0" y="300.0" style="font-family:arial;font-size:10px;stroke-width:0.1;stroke:#CC0000;fill:#CC0000;">1mOhm</text>
  <use id="Cboot" class="comp" xlink:href="#WB_CAPACITOR" x="1305.0" y="150.0" transform="rotate(-90, 1305.0, 150.0)" cap="100nF" partNo="GRM155R71A104KA01D" thermalId="0402" esr="1mOhm" manufacturer="MuRata" />
  <text for="Cboot" x="1320.0" y="150.0" style="font-family:arial;font-size:13px;stroke-width:0.5;stroke:#115566;fill:#115566;">Cboot</text>
  <text for="Cboot" x="1320.0" y="160.0" style="font-family:arial;font-size:10px;stroke-width:0.1;stroke:#CC0000;fill:#CC0000;">100nF</text>
  <text for="Cboot" x="1320.0" y="170.0" style="font-family:arial;font-size:10px;stroke-width:0.1;stroke:#CC0000;fill:#CC0000;">1mOhm</text>
  <use id="GND2" class="other" xlink:href="#WB_GND_SIGNAL" x="1485.0" y="465.0" />
  <use id="Cbias" class="comp" xlink:href="#WB_CAPACITOR" x="1485.0" y="385.0" transform="rotate(-90, 1485.0, 385.0)" cap="100nF" partNo="GRM155R71C104KA88D" thermalId="0402" esr="1mOhm" manufacturer="MuRata" />
  <text for="Cbias" x="1500.0" y="385.0" style="font-family:arial;font-size:13px;stroke-width:0.5;stroke:#115566;fill:#115566;">Cbias</text>
  <text for="Cbias" x="1500.0" y="395.0" style="font-family:arial;font-size:10px;stroke-width:0.1;stroke:#CC0000;fill:#CC0000;">100nF</text>
  <text for="Cbias" x="1500.0" y="405.0" style="font-family:arial;font-size:10px;stroke-width:0.1;stroke:#CC0000;fill:#CC0000;">1mOhm</text>
  <use id="GND13" class="other" xlink:href="#WB_GND" x="1040.0" y="370.0" />
  <use id="U1" class="comp" xlink:href="#WB_LM62460RPH" x="1120.0" y="260.0" />
  <text for="U1" x="1100.0" y="260.0" style="font-family:arial;font-size:13px;stroke-width:0.5;stroke:#115566;fill:#115566;">U1</text>
  <use id="Iout" class="other" xlink:href="#WB_CURRENT_LOAD" x="2045.0" y="250.0" transform="rotate(-270, 2045.0, 250.0)" />
  <text for="Iout" x="2060.0" y="250.0" style="font-family:arial;font-size:13px;stroke-width:0.5;stroke:#CC0000;fill:#CC0000;">Iout</text>
  <use id="Vin" class="other" xlink:href="#WB_BATTERY" x="100.0" y="190.0" transform="rotate(-270, 100.0, 190.0)" />
  <text for="Vin" x="115.0" y="190.0" style="font-family:arial;font-size:13px;stroke-width:0.5;stroke:#CC0000;fill:#CC0000;">Vin</text>
  <line x1="1020.0" y1="220.0" x2="1040.0" y2="220.0" stroke="#000000" stroke-width="2" fill="none" />
  <line x1="1715.0" y1="295.0" x2="1715.0" y2="200.0" stroke="#000000" stroke-width="2" fill="none" />
  <line x1="1715.0" y1="470.0" x2="1715.0" y2="355.0" stroke="#000000" stroke-width="2" fill="none" />
  <line x1="1715.0" y1="140.0" x2="1715.0" y2="110.0" stroke="#000000" stroke-width="2" fill="none" />
  <line x1="1815.0" y1="230.0" x2="1825.0" y2="230.0" stroke="#000000" stroke-width="2" fill="none" />
  <line x1="1825.0" y1="200.0" x2="1825.0" y2="230.0" stroke="#000000" stroke-width="2" fill="none" />
  <line x1="1825.0" y1="140.0" x2="1825.0" y2="110.0" stroke="#000000" stroke-width="2" fill="none" />
  <line x1="1715.0" y1="230.0" x2="1755.0" y2="230.0" stroke="#000000" stroke-width="2" fill="none" />
  <line x1="1665.0" y1="310.0" x2="1665.0" y2="110.0" stroke="#000000" stroke-width="2" fill="none" />
  <line x1="895.0" y1="460.0" x2="895.0" y2="290.0" stroke="#000000" stroke-width="2" fill="none" />
  <line x1="895.0" y1="290.0" x2="1040.0" y2="290.0" stroke="#000000" stroke-width="2" fill="none" />
  <line x1="795.0" y1="460.0" x2="795.0" y2="270.0" stroke="#000000" stroke-width="2" fill="none" />
  <line x1="795.0" y1="270.0" x2="1040.0" y2="270.0" stroke="#000000" stroke-width="2" fill="none" />
  <line x1="950.0" y1="310.0" x2="1040.0" y2="310.0" stroke="#000000" stroke-width="2" fill="none" />
  <line x1="950.0" y1="365.0" x2="950.0" y2="310.0" stroke="#000000" stroke-width="2" fill="none" />
  <line x1="1485.0" y1="355.0" x2="1485.0" y2="270.0" stroke="#000000" stroke-width="2" fill="none" />
  <line x1="1635.0" y1="270.0" x2="1635.0" y2="110.0" stroke="#000000" stroke-width="2" fill="none" />
  <line x1="1200.0" y1="270.0" x2="1635.0" y2="270.0" stroke="#000000" stroke-width="2" fill="none" />
  <line x1="1485.0" y1="455.0" x2="1485.0" y2="415.0" stroke="#000000" stroke-width="2" fill="none" />
  <line x1="1200.0" y1="310.0" x2="1320.0" y2="310.0" stroke="#000000" stroke-width="2" fill="none" />
  <line x1="1020.0" y1="180.0" x2="1040.0" y2="180.0" stroke="#000000" stroke-width="2" fill="none" />
  <line x1="1305.0" y1="120.0" x2="1305.0" y2="110.0" stroke="#000000" stroke-width="2" fill="none" />
  <line x1="565.0" y1="460.0" x2="100.0" y2="460.0" stroke="#000000" stroke-width="2" fill="none" />
  <line x1="1200.0" y1="230.0" x2="1305.0" y2="230.0" stroke="#000000" stroke-width="2" fill="none" />
  <line x1="1335.0" y1="310.0" x2="1335.0" y2="290.0" stroke="#000000" stroke-width="2" fill="none" />
  <line x1="1200.0" y1="250.0" x2="1715.0" y2="250.0" stroke="#000000" stroke-width="2" fill="none" />
  <line x1="1305.0" y1="230.0" x2="1305.0" y2="180.0" stroke="#000000" stroke-width="2" fill="none" />
  <line x1="315.0" y1="305.0" x2="315.0" y2="460.0" stroke="#000000" stroke-width="2" fill="none" />
  <line x1="1950.0" y1="470.0" x2="1950.0" y2="460.0" stroke="#000000" stroke-width="2" fill="none" />
  <line x1="1200.0" y1="350.0" x2="1210.0" y2="350.0" stroke="#000000" stroke-width="2" fill="none" />
  <line x1="1360.0" y1="310.0" x2="1335.0" y2="310.0" stroke="#000000" stroke-width="2" fill="none" />
  <line x1="1220.0" y1="110.0" x2="1460.0" y2="110.0" stroke="#000000" stroke-width="2" fill="none" />
  <line x1="1220.0" y1="180.0" x2="1220.0" y2="110.0" stroke="#000000" stroke-width="2" fill="none" />
  <line x1="1040.0" y1="190.0" x2="1020.0" y2="190.0" stroke="#000000" stroke-width="2" fill="none" />
  <line x1="1320.0" y1="460.0" x2="1320.0" y2="450.0" stroke="#000000" stroke-width="2" fill="none" />
  <line x1="1200.0" y1="340.0" x2="1245.0" y2="340.0" stroke="#000000" stroke-width="2" fill="none" />
  <line x1="1040.0" y1="360.0" x2="1040.0" y2="350.0" stroke="#000000" stroke-width="2" fill="none" />
  <line x1="1245.0" y1="370.0" x2="1245.0" y2="340.0" stroke="#000000" stroke-width="2" fill="none" />
  <line x1="1200.0" y1="290.0" x2="1335.0" y2="290.0" stroke="#000000" stroke-width="2" fill="none" />
  <line x1="1320.0" y1="310.0" x2="1320.0" y2="390.0" stroke="#000000" stroke-width="2" fill="none" />
  <line x1="495.0" y1="470.0" x2="495.0" y2="460.0" stroke="#000000" stroke-width="2" fill="none" />
  <line x1="1210.0" y1="340.0" x2="1210.0" y2="370.0" stroke="#000000" stroke-width="2" fill="none" />
  <line x1="1915.0" y1="310.0" x2="1915.0" y2="460.0" stroke="#000000" stroke-width="2" fill="none" />
  <line x1="440.0" y1="310.0" x2="440.0" y2="460.0" stroke="#000000" stroke-width="2" fill="none" />
  <line x1="1420.0" y1="310.0" x2="1665.0" y2="310.0" stroke="#000000" stroke-width="2" fill="none" />
  <line x1="1200.0" y1="210.0" x2="1305.0" y2="210.0" stroke="#000000" stroke-width="2" fill="none" />
  <line x1="2045.0" y1="460.0" x2="1915.0" y2="460.0" stroke="#000000" stroke-width="2" fill="none" />
  <line x1="315.0" y1="110.0" x2="315.0" y2="245.0" stroke="#000000" stroke-width="2" fill="none" />
  <line x1="565.0" y1="310.0" x2="565.0" y2="460.0" stroke="#000000" stroke-width="2" fill="none" />
  <line x1="1200.0" y1="180.0" x2="1220.0" y2="180.0" stroke="#000000" stroke-width="2" fill="none" />
  <line x1="1020.0" y1="220.0" x2="1020.0" y2="110.0" stroke="#000000" stroke-width="2" fill="none" />
  <line x1="210.0" y1="310.0" x2="210.0" y2="460.0" stroke="#000000" stroke-width="2" fill="none" />
  <line x1="565.0" y1="250.0" x2="565.0" y2="110.0" stroke="#000000" stroke-width="2" fill="none" />
  <line x1="440.0" y1="250.0" x2="440.0" y2="110.0" stroke="#000000" stroke-width="2" fill="none" />
  <line x1="210.0" y1="250.0" x2="210.0" y2="110.0" stroke="#000000" stroke-width="2" fill="none" />
  <line x1="100.0" y1="110.0" x2="1020.0" y2="110.0" stroke="#000000" stroke-width="2" fill="none" />
  <line x1="1915.0" y1="250.0" x2="1915.0" y2="110.0" stroke="#000000" stroke-width="2" fill="none" />
  <line x1="1520.0" y1="110.0" x2="2045.0" y2="110.0" stroke="#000000" stroke-width="2" fill="none" />
  <line x1="2045.0" y1="220.0" x2="2045.0" y2="110.0" stroke="#000000" stroke-width="2" fill="none" />
  <line x1="2045.0" y1="460.0" x2="2045.0" y2="280.0" stroke="#000000" stroke-width="2" fill="none" />
  <line x1="100.0" y1="160.0" x2="100.0" y2="110.0" stroke="#000000" stroke-width="2" fill="none" />
  <line x1="100.0" y1="460.0" x2="100.0" y2="220.0" stroke="#000000" stroke-width="2" fill="none" />
  <circle cx="1715.0" cy="230.0" r="5" stroke="#000000" stroke-width="0" fill="#000000" />
  <circle cx="1715.0" cy="250.0" r="5" stroke="#000000" stroke-width="0" fill="#000000" />
  <circle cx="1485.0" cy="270.0" r="5" stroke="#000000" stroke-width="0" fill="#000000" />
  <circle cx="315.0" cy="460.0" r="5" stroke="#000000" stroke-width="0" fill="#000000" />
  <circle cx="495.0" cy="460.0" r="5" stroke="#000000" stroke-width="0" fill="#000000" />
  <circle cx="440.0" cy="460.0" r="5" stroke="#000000" stroke-width="0" fill="#000000" />
  <circle cx="210.0" cy="460.0" r="5" stroke="#000000" stroke-width="0" fill="#000000" />
  <circle cx="1305.0" cy="210.0" r="5" stroke="#000000" stroke-width="0" fill="#000000" />
  <circle cx="1305.0" cy="110.0" r="5" stroke="#000000" stroke-width="0" fill="#000000" />
  <circle cx="1210.0" cy="340.0" r="5" stroke="#000000" stroke-width="0" fill="#000000" />
  <circle cx="1210.0" cy="350.0" r="5" stroke="#000000" stroke-width="0" fill="#000000" />
  <circle cx="1950.0" cy="460.0" r="5" stroke="#000000" stroke-width="0" fill="#000000" />
  <circle cx="1020.0" cy="180.0" r="5" stroke="#000000" stroke-width="0" fill="#000000" />
  <circle cx="1020.0" cy="190.0" r="5" stroke="#000000" stroke-width="0" fill="#000000" />
  <circle cx="315.0" cy="110.0" r="5" stroke="#000000" stroke-width="0" fill="#000000" />
  <circle cx="565.0" cy="110.0" r="5" stroke="#000000" stroke-width="0" fill="#000000" />
  <circle cx="440.0" cy="110.0" r="5" stroke="#000000" stroke-width="0" fill="#000000" />
  <circle cx="210.0" cy="110.0" r="5" stroke="#000000" stroke-width="0" fill="#000000" />
  <circle cx="1715.0" cy="110.0" r="5" stroke="#000000" stroke-width="0" fill="#000000" />
  <circle cx="1825.0" cy="110.0" r="5" stroke="#000000" stroke-width="0" fill="#000000" />
  <circle cx="1665.0" cy="110.0" r="5" stroke="#000000" stroke-width="0" fill="#000000" />
  <circle cx="1635.0" cy="110.0" r="5" stroke="#000000" stroke-width="0" fill="#000000" />
  <circle cx="1915.0" cy="110.0" r="5" stroke="#000000" stroke-width="0" fill="#000000" />
</svg>

