M48
; DRILL file {KiCad 6.0.1} date Thu Feb 10 22:23:23 2022
; FORMAT={-:-/ absolute / inch / decimal}
; #@! TF.CreationDate,2022-02-10T22:23:23-06:00
; #@! TF.GenerationSoftware,Kicad,Pcbnew,6.0.1
; #@! TF.FileFunction,Plated,1,2,PTH
FMAT,2
INCH
; #@! TA.AperFunction,Plated,PTH,ViaDrill
T1C0.0157
; #@! TA.AperFunction,Plated,PTH,ComponentDrill
T2C0.0197
; #@! TA.AperFunction,Plated,PTH,ComponentDrill
T3C0.0402
; #@! TA.AperFunction,Plated,PTH,ComponentDrill
T4C0.1260
%
G90
G05
T1
X-1.4134Y0.5248
X-1.413Y0.8256
X-1.413Y0.7256
X-1.413Y0.626
X-1.4031Y0.2256
X-1.4031Y0.1256
X-1.4031Y0.0256
X-1.4031Y-0.0744
X-1.4031Y-0.1744
X-1.4031Y-0.2744
X-1.1815Y0.6744
X-1.1815Y0.5752
X-1.1811Y0.7776
X-1.1443Y0.9632
X-0.9531Y0.8256
X-0.9531Y0.7256
X-0.9531Y0.6256
X-0.9531Y0.5256
X-0.9531Y0.4256
X-0.9531Y0.3256
X-0.9531Y0.2256
X-0.9531Y0.1256
X-0.9531Y0.0256
X-0.9531Y-0.0744
X-0.9531Y-0.1744
X-0.9252Y-0.2756
X-0.7244Y-0.0276
X-0.6811Y-0.8268
X-0.6063Y-0.3917
X-0.6059Y-0.226
X-0.4567Y-0.2283
X-0.4055Y-1.1772
X-0.3815Y0.7776
X-0.2992Y0.4646
X-0.2992Y0.0394
X-0.2402Y0.748
X-0.2008Y-0.3858
X-0.1732Y0.2913
X-0.1535Y-0.6575
X-0.122Y-0.2283
X-0.122Y-0.3701
X-0.0512Y-0.8425
X0.2008Y-0.374
X0.2441Y0.0791
X0.2835Y-0.3287
X0.3146Y-0.1272
X0.361Y-0.0264
X0.4291Y0.5002
X0.4311Y-0.4429
X0.4858Y-0.7689
X0.4921Y-0.2185
X0.5433Y-0.5295
X0.548Y0.4256
X0.6783Y-0.7744
X0.7437Y-0.1669
X0.824Y-0.6114
X0.9075Y-0.6913
X0.9531Y0.7256
X0.9531Y0.6256
X0.9531Y0.5256
X0.9531Y0.4256
X0.9531Y0.3256
X0.9531Y0.2256
X0.9531Y0.1256
X0.9531Y0.0256
X0.9531Y-0.0744
X0.9531Y-0.1744
X0.9531Y-0.2744
X0.9535Y0.8256
X1.1839Y0.0748
X1.1839Y-0.0252
X1.1839Y-0.1252
X1.1854Y-0.2185
X1.3958Y0.8256
X1.3958Y0.7256
X1.3958Y0.6256
X1.3958Y0.5256
X1.3958Y0.4256
X1.3958Y0.3256
X1.3958Y0.0256
X1.3961Y-0.1744
X1.3965Y-0.2744
X1.3976Y-0.0744
X1.5984Y-0.5591
T2
X-0.8209Y1.3461
X-0.8205Y-1.3504
X-0.7932Y1.4129
X-0.7932Y1.2792
X-0.7928Y-1.2836
X-0.7928Y-1.4172
X-0.7264Y1.4406
X-0.7264Y1.2516
X-0.726Y-1.2559
X-0.726Y-1.4449
X-0.6596Y1.4129
X-0.6596Y1.2792
X-0.6592Y-1.2836
X-0.6592Y-1.4172
X-0.6319Y1.3461
X-0.6315Y-1.3504
X0.6315Y1.3484
X0.6319Y-1.3504
X0.6592Y1.4152
X0.6592Y1.2816
X0.6596Y-1.2836
X0.6596Y-1.4172
X0.726Y1.4429
X0.726Y1.2539
X0.7264Y-1.2559
X0.7264Y-1.4449
X0.7928Y1.4152
X0.7928Y1.2816
X0.7932Y-1.2836
X0.7932Y-1.4172
X0.8205Y1.3484
X0.8209Y-1.3504
T3
X-1.2465Y-0.5134
X-1.1283Y-0.5134
X-1.0102Y-0.5134
X-0.3386Y0.9559
X-0.2205Y0.9559
X0.1217Y0.9559
X0.2398Y0.9559
X1.0059Y-0.5163
X1.124Y-0.5163
X1.2421Y-0.5163
T4
X-0.7264Y1.3461
X-0.726Y-1.3504
X0.726Y1.3484
X0.7264Y-1.3504
T0
M30
