M48
; DRILL file {KiCad 6.0.1} date Thu Feb 10 21:41:45 2022
; FORMAT={-:-/ absolute / inch / decimal}
; #@! TF.CreationDate,2022-02-10T21:41:45-06:00
; #@! TF.GenerationSoftware,Kicad,Pcbnew,6.0.1
; #@! TF.FileFunction,Plated,1,2,PTH
FMAT,2
INCH
; #@! TA.AperFunction,Plated,PTH,ViaDrill
T1C0.0197
; #@! TA.AperFunction,Plated,PTH,ComponentDrill
T2C0.0295
; #@! TA.AperFunction,Plated,PTH,ComponentDrill
T3C0.0300
; #@! TA.AperFunction,Plated,PTH,ComponentDrill
T4C0.1260
%
G90
G05
T1
X0.0955Y-3.3297
X0.1949Y-2.4823
X0.2736Y-2.4843
X0.3711Y-3.3297
X0.4075Y-0.6969
X0.5866Y-2.3012
X0.5886Y-3.4429
X0.6673Y-2.4587
X0.7106Y-3.4488
X1.0551Y-2.4409
X1.1299Y-2.4449
X2.1102Y-3.1181
T2
X0.4882Y-0.1673
X0.5669Y-0.1673
X0.8031Y-0.1673
X0.8819Y-0.1673
X1.1181Y-0.1673
X1.1969Y-0.1673
T3
X0.1639Y-1.5716
X0.1639Y-1.7016
X0.1639Y-1.8316
X0.1639Y-1.9616
X1.1235Y-1.5716
X1.1235Y-1.7016
X1.1235Y-1.8316
X1.1235Y-1.9616
X1.2362Y-2.4071
X1.2362Y-2.5321
X1.5025Y-3.2274
X1.6275Y-3.2274
X1.7525Y-3.2274
X1.8775Y-3.2274
X2.0025Y-3.2274
X2.1275Y-3.2274
T4
X0.1378Y-0.1378
X0.1378Y-3.5039
X0.3187Y-0.5016
X0.3187Y-2.3016
X0.9687Y-0.5016
X0.9687Y-2.3016
X1.44Y-0.5246
X1.44Y-2.7746
X2.19Y-0.5246
X2.19Y-2.7746
X2.1969Y-0.1378
X2.1969Y-3.5039
T0
M30
