%TF.GenerationSoftware,KiCad,Pcbnew,9.0.6*%
%TF.CreationDate,2025-12-01T19:54:22-06:00*%
%TF.ProjectId,DAQ,4441512e-6b69-4636-9164-5f7063625858,rev?*%
%TF.SameCoordinates,Original*%
%TF.FileFunction,Paste,Top*%
%TF.FilePolarity,Positive*%
%FSLAX46Y46*%
G04 Gerber Fmt 4.6, Leading zero omitted, Abs format (unit mm)*
G04 Created by KiCad (PCBNEW 9.0.6) date 2025-12-01 19:54:22*
%MOMM*%
%LPD*%
G01*
G04 APERTURE LIST*
G04 Aperture macros list*
%AMRoundRect*
0 Rectangle with rounded corners*
0 $1 Rounding radius*
0 $2 $3 $4 $5 $6 $7 $8 $9 X,Y pos of 4 corners*
0 Add a 4 corners polygon primitive as box body*
4,1,4,$2,$3,$4,$5,$6,$7,$8,$9,$2,$3,0*
0 Add four circle primitives for the rounded corners*
1,1,$1+$1,$2,$3*
1,1,$1+$1,$4,$5*
1,1,$1+$1,$6,$7*
1,1,$1+$1,$8,$9*
0 Add four rect primitives between the rounded corners*
20,1,$1+$1,$2,$3,$4,$5,0*
20,1,$1+$1,$4,$5,$6,$7,0*
20,1,$1+$1,$6,$7,$8,$9,0*
20,1,$1+$1,$8,$9,$2,$3,0*%
G04 Aperture macros list end*
%ADD10C,0.000000*%
%ADD11R,0.450800X1.111200*%
%ADD12R,2.387600X1.955800*%
%ADD13R,5.511800X0.990600*%
%ADD14R,3.098800X1.701800*%
%ADD15RoundRect,0.200000X-0.275000X0.200000X-0.275000X-0.200000X0.275000X-0.200000X0.275000X0.200000X0*%
%ADD16RoundRect,0.225000X-0.250000X0.225000X-0.250000X-0.225000X0.250000X-0.225000X0.250000X0.225000X0*%
%ADD17RoundRect,0.225000X-0.225000X-0.250000X0.225000X-0.250000X0.225000X0.250000X-0.225000X0.250000X0*%
%ADD18RoundRect,0.225000X0.250000X-0.225000X0.250000X0.225000X-0.250000X0.225000X-0.250000X-0.225000X0*%
%ADD19R,0.711200X0.254000*%
%ADD20R,0.711200X1.295400*%
%ADD21R,2.768600X1.498600*%
%ADD22RoundRect,0.225000X0.225000X0.250000X-0.225000X0.250000X-0.225000X-0.250000X0.225000X-0.250000X0*%
%ADD23R,1.111200X0.450800*%
%ADD24R,1.879600X0.558800*%
%ADD25RoundRect,0.250000X-0.650000X0.325000X-0.650000X-0.325000X0.650000X-0.325000X0.650000X0.325000X0*%
%ADD26R,2.120000X1.500000*%
%ADD27R,7.289800X2.590800*%
%ADD28R,0.838200X1.600200*%
%ADD29RoundRect,0.270000X1.300000X0.630000X-1.300000X0.630000X-1.300000X-0.630000X1.300000X-0.630000X0*%
%ADD30R,0.558800X1.460500*%
%ADD31RoundRect,0.200000X0.200000X0.275000X-0.200000X0.275000X-0.200000X-0.275000X0.200000X-0.275000X0*%
%ADD32R,0.599999X1.000000*%
%ADD33R,0.355600X0.850900*%
%ADD34RoundRect,0.250000X0.325000X0.650000X-0.325000X0.650000X-0.325000X-0.650000X0.325000X-0.650000X0*%
%ADD35R,0.990600X5.511800*%
%ADD36R,1.701800X3.098800*%
%ADD37R,1.700000X3.098800*%
%ADD38RoundRect,0.200000X-0.200000X-0.275000X0.200000X-0.275000X0.200000X0.275000X-0.200000X0.275000X0*%
%ADD39RoundRect,0.250000X0.250000X0.475000X-0.250000X0.475000X-0.250000X-0.475000X0.250000X-0.475000X0*%
%ADD40RoundRect,0.250000X-0.475000X0.250000X-0.475000X-0.250000X0.475000X-0.250000X0.475000X0.250000X0*%
%ADD41R,0.558800X1.981200*%
%ADD42RoundRect,0.250000X-0.325000X-0.650000X0.325000X-0.650000X0.325000X0.650000X-0.325000X0.650000X0*%
%ADD43R,1.320800X0.558800*%
%ADD44R,1.587500X0.558800*%
%ADD45R,1.879600X1.676400*%
%ADD46R,0.330200X1.371600*%
%ADD47RoundRect,0.200000X0.275000X-0.200000X0.275000X0.200000X-0.275000X0.200000X-0.275000X-0.200000X0*%
%ADD48R,0.406400X0.558800*%
%ADD49R,0.558800X0.406400*%
%ADD50R,0.549999X0.249999*%
%ADD51R,3.000000X3.500000*%
G04 APERTURE END LIST*
D10*
%TO.C,U12*%
G36*
X90474800Y-107378500D02*
G01*
X87325200Y-107378500D01*
X87325200Y-105778300D01*
X90474800Y-105778300D01*
X90474800Y-107378500D01*
G37*
%TO.C,U1*%
G36*
X58418988Y-184268049D02*
G01*
X58169306Y-184268049D01*
X58169306Y-183987989D01*
X58418988Y-183987989D01*
X58418988Y-184268049D01*
G37*
G36*
X58493969Y-182787991D02*
G01*
X58143982Y-182787991D01*
X58143982Y-181868029D01*
X58493969Y-181868029D01*
X58493969Y-182787991D01*
G37*
G36*
X59168974Y-183787862D02*
G01*
X58169001Y-183787862D01*
X58169001Y-183267975D01*
X59168974Y-183267975D01*
X59168974Y-183787862D01*
G37*
G36*
X59168999Y-184267948D02*
G01*
X58919165Y-184267948D01*
X58919165Y-183988167D01*
X59168999Y-183988167D01*
X59168999Y-184267948D01*
G37*
G36*
X59194018Y-182787966D02*
G01*
X58843930Y-182787966D01*
X58843930Y-181868029D01*
X59194018Y-181868029D01*
X59194018Y-182787966D01*
G37*
%TD*%
D11*
%TO.C,CR6*%
X79000000Y-166850000D03*
X79000000Y-169150000D03*
%TD*%
D12*
%TO.C,C1*%
X89000000Y-129819400D03*
X89000000Y-124180600D03*
%TD*%
D13*
%TO.C,J8*%
X96500000Y-163499999D03*
X96500000Y-165500001D03*
D14*
X98750001Y-161100002D03*
X98750001Y-167899998D03*
%TD*%
D15*
%TO.C,R10*%
X92202000Y-156084000D03*
X92202000Y-157734000D03*
%TD*%
D16*
%TO.C,C14*%
X66040000Y-162179000D03*
X66040000Y-163729000D03*
%TD*%
D17*
%TO.C,C23*%
X44691000Y-135382000D03*
X46241000Y-135382000D03*
%TD*%
D18*
%TO.C,C18*%
X61874000Y-174030501D03*
X61874000Y-172480501D03*
%TD*%
D19*
%TO.C,U13*%
X46500000Y-165499998D03*
X46500000Y-165999999D03*
X46500000Y-166499999D03*
X46500000Y-167000000D03*
X48405000Y-167000000D03*
X48405000Y-166499999D03*
X48405000Y-165999999D03*
X48405000Y-165499998D03*
D20*
X47452500Y-166249999D03*
%TD*%
D21*
%TO.C,L3*%
X63913000Y-189500000D03*
X59087000Y-189500000D03*
%TD*%
D22*
%TO.C,C3*%
X56269000Y-184939501D03*
X54719000Y-184939501D03*
%TD*%
D17*
%TO.C,C34*%
X40725000Y-166000000D03*
X42275000Y-166000000D03*
%TD*%
D23*
%TO.C,CR5*%
X60150000Y-169500000D03*
X57850000Y-169500000D03*
%TD*%
D24*
%TO.C,U6*%
X83730253Y-135303253D03*
X83730253Y-136573253D03*
X83730253Y-137843253D03*
X83730253Y-139113253D03*
X83730253Y-140383253D03*
X83730253Y-141653253D03*
X83730253Y-142923253D03*
X83730253Y-144193253D03*
X83730253Y-145463253D03*
X83730253Y-146733253D03*
X83730253Y-148003253D03*
X83730253Y-149273253D03*
X83730253Y-150543253D03*
X83730253Y-151813253D03*
X93204453Y-151813253D03*
X93204453Y-150543253D03*
X93204453Y-149273253D03*
X93204453Y-148003253D03*
X93204453Y-146733253D03*
X93204453Y-145463253D03*
X93204453Y-144193253D03*
X93204453Y-142923253D03*
X93204453Y-141653253D03*
X93204453Y-140383253D03*
X93204453Y-139113253D03*
X93204453Y-137843253D03*
X93204453Y-136573253D03*
X93204453Y-135303253D03*
%TD*%
D12*
%TO.C,C9*%
X63627000Y-119100600D03*
X63627000Y-124739400D03*
%TD*%
D25*
%TO.C,C37*%
X45000000Y-157550000D03*
X45000000Y-160500000D03*
%TD*%
D26*
%TO.C,D3*%
X80770000Y-130500000D03*
X85000000Y-130500000D03*
%TD*%
D18*
%TO.C,C29*%
X70358000Y-148349000D03*
X70358000Y-146799000D03*
%TD*%
D16*
%TO.C,C27*%
X89789000Y-166103000D03*
X89789000Y-167653000D03*
%TD*%
D17*
%TO.C,C7*%
X50225000Y-184000000D03*
X51775000Y-184000000D03*
%TD*%
D15*
%TO.C,R13*%
X92202000Y-171832000D03*
X92202000Y-173482000D03*
%TD*%
D27*
%TO.C,L2*%
X80772000Y-122047000D03*
X80772000Y-126746000D03*
%TD*%
D15*
%TO.C,R8*%
X66543000Y-180223000D03*
X66543000Y-181873000D03*
%TD*%
D18*
%TO.C,C26*%
X85090000Y-166891000D03*
X85090000Y-165341000D03*
%TD*%
D24*
%TO.C,U3*%
X58674000Y-152654000D03*
X58674000Y-151384000D03*
X58674000Y-150114000D03*
X58674000Y-148844000D03*
X58674000Y-147574000D03*
X58674000Y-146304000D03*
X58674000Y-145034000D03*
X58674000Y-143764000D03*
X58674000Y-142494000D03*
X58674000Y-141224000D03*
X58674000Y-139954000D03*
X58674000Y-138684000D03*
X58674000Y-137414000D03*
X58674000Y-136144000D03*
X49199800Y-136144000D03*
X49199800Y-137414000D03*
X49199800Y-138684000D03*
X49199800Y-139954000D03*
X49199800Y-141224000D03*
X49199800Y-142494000D03*
X49199800Y-143764000D03*
X49199800Y-145034000D03*
X49199800Y-146304000D03*
X49199800Y-147574000D03*
X49199800Y-148844000D03*
X49199800Y-150114000D03*
X49199800Y-151384000D03*
X49199800Y-152654000D03*
%TD*%
D28*
%TO.C,U12*%
X91200000Y-100177600D03*
X88900000Y-100177600D03*
X86600000Y-100177600D03*
D29*
X88900000Y-106878000D03*
%TD*%
D30*
%TO.C,U11*%
X85979000Y-175190150D03*
X87249000Y-175190150D03*
X88519000Y-175190150D03*
X89789000Y-175190150D03*
X89789000Y-169741850D03*
X88519000Y-169741850D03*
X87249000Y-169741850D03*
X85979000Y-169741850D03*
%TD*%
D31*
%TO.C,R19*%
X79000000Y-107500000D03*
X77350000Y-107500000D03*
%TD*%
%TO.C,R6*%
X74485000Y-136144000D03*
X72835000Y-136144000D03*
%TD*%
D18*
%TO.C,C4*%
X60701000Y-180045000D03*
X60701000Y-178495000D03*
%TD*%
D32*
%TO.C,U5*%
X85409999Y-117961001D03*
X86360000Y-117961001D03*
X87309998Y-117961001D03*
X87309998Y-115211001D03*
X86360000Y-115211001D03*
X85409999Y-115211001D03*
%TD*%
D33*
%TO.C,U7*%
X104281999Y-148990050D03*
X103632000Y-148990050D03*
X102982001Y-148990050D03*
X102982001Y-151237950D03*
X103632000Y-151237950D03*
X104281999Y-151237950D03*
%TD*%
D18*
%TO.C,C24*%
X101346000Y-154699000D03*
X101346000Y-153149000D03*
%TD*%
D34*
%TO.C,C11*%
X78975000Y-114000000D03*
X76025000Y-114000000D03*
%TD*%
D16*
%TO.C,C15*%
X44500000Y-164725000D03*
X44500000Y-166275000D03*
%TD*%
D17*
%TO.C,C32*%
X44450000Y-152908000D03*
X46000000Y-152908000D03*
%TD*%
D23*
%TO.C,CR3*%
X76150000Y-172500000D03*
X73850000Y-172500000D03*
%TD*%
D22*
%TO.C,C36*%
X28106000Y-100076000D03*
X26556000Y-100076000D03*
%TD*%
D17*
%TO.C,C16*%
X54960000Y-180367501D03*
X56510000Y-180367501D03*
%TD*%
D33*
%TO.C,U8*%
X41924999Y-136036050D03*
X41275000Y-136036050D03*
X40625001Y-136036050D03*
X40625001Y-138283950D03*
X41275000Y-138283950D03*
X41924999Y-138283950D03*
%TD*%
D35*
%TO.C,J4*%
X80000000Y-100500000D03*
X78000002Y-100500000D03*
X76000001Y-100500000D03*
X74000000Y-100500000D03*
X72000001Y-100500000D03*
X70000000Y-100500000D03*
X68000002Y-100500000D03*
X66000001Y-100500000D03*
X63999999Y-100500000D03*
X62000001Y-100500000D03*
X60000000Y-100500000D03*
X58000001Y-100500000D03*
X56000000Y-100500000D03*
X54000002Y-100500000D03*
X52000001Y-100500000D03*
X50000000Y-100500000D03*
D36*
X82400003Y-102750001D03*
X47599997Y-102750001D03*
%TD*%
D22*
%TO.C,C30*%
X97041000Y-135636000D03*
X95491000Y-135636000D03*
%TD*%
D16*
%TO.C,C20*%
X72263000Y-167132000D03*
X72263000Y-168682000D03*
%TD*%
D35*
%TO.C,J6*%
X67000000Y-109000000D03*
X64999999Y-109000000D03*
X62999998Y-109000000D03*
D37*
X60600000Y-111251964D03*
X69399998Y-111251964D03*
%TD*%
D12*
%TO.C,C2*%
X91186000Y-119024400D03*
X91186000Y-113385600D03*
%TD*%
D38*
%TO.C,R14*%
X69850000Y-135500000D03*
X71500000Y-135500000D03*
%TD*%
D39*
%TO.C,C10*%
X74000000Y-113500000D03*
X72100000Y-113500000D03*
%TD*%
D40*
%TO.C,C6*%
X67310000Y-116050000D03*
X67310000Y-117950000D03*
%TD*%
D41*
%TO.C,U10*%
X73279000Y-116154200D03*
X72009000Y-116154200D03*
X70739000Y-116154200D03*
X69469000Y-116154200D03*
X69469000Y-121081800D03*
X70739000Y-121081800D03*
X72009000Y-121081800D03*
X73279000Y-121081800D03*
%TD*%
D15*
%TO.C,R15*%
X51000000Y-178175000D03*
X51000000Y-179825000D03*
%TD*%
D18*
%TO.C,C28*%
X77343000Y-145428000D03*
X77343000Y-143878000D03*
%TD*%
D31*
%TO.C,R3*%
X78500000Y-171000000D03*
X76850000Y-171000000D03*
%TD*%
D12*
%TO.C,C12*%
X96000000Y-104319400D03*
X96000000Y-98680600D03*
%TD*%
D42*
%TO.C,C38*%
X48050000Y-162000000D03*
X51000000Y-162000000D03*
%TD*%
D30*
%TO.C,U2*%
X75438000Y-138569700D03*
X74168000Y-138569700D03*
X72898000Y-138569700D03*
X71628000Y-138569700D03*
X71628000Y-144018000D03*
X72898000Y-144018000D03*
X74168000Y-144018000D03*
X75438000Y-144018000D03*
%TD*%
D22*
%TO.C,C8*%
X58301000Y-177573501D03*
X56751000Y-177573501D03*
%TD*%
D31*
%TO.C,R2*%
X54986000Y-182145501D03*
X53336000Y-182145501D03*
%TD*%
D43*
%TO.C,U9*%
X70104000Y-165984002D03*
X70104000Y-164084000D03*
D44*
X68205350Y-165034001D03*
%TD*%
D38*
%TO.C,R17*%
X45675000Y-169500000D03*
X47325000Y-169500000D03*
%TD*%
D11*
%TO.C,CR1*%
X80264000Y-162680000D03*
X80264000Y-164980000D03*
%TD*%
D45*
%TO.C,U14*%
X50789200Y-165000000D03*
X55210800Y-165000000D03*
%TD*%
D17*
%TO.C,C31*%
X89141000Y-133096000D03*
X90691000Y-133096000D03*
%TD*%
D46*
%TO.C,U4*%
X72151999Y-161709100D03*
X72652001Y-161709100D03*
X73152000Y-161709100D03*
X73651999Y-161709100D03*
X74152001Y-161709100D03*
X74152001Y-157314900D03*
X73651999Y-157314900D03*
X73152000Y-157314900D03*
X72652001Y-157314900D03*
X72151999Y-157314900D03*
%TD*%
D38*
%TO.C,R1*%
X60765000Y-184685501D03*
X62415000Y-184685501D03*
%TD*%
D47*
%TO.C,R18*%
X50000000Y-169325000D03*
X50000000Y-167675000D03*
%TD*%
D48*
%TO.C,U15*%
X28148001Y-95796100D03*
X28747999Y-95796100D03*
D49*
X29375100Y-95468999D03*
X29375100Y-94869000D03*
X29375100Y-94269001D03*
D48*
X28747999Y-93941900D03*
X28148001Y-93941900D03*
D49*
X27520900Y-94269001D03*
X27520900Y-94869000D03*
X27520900Y-95468999D03*
%TD*%
D15*
%TO.C,R7*%
X66543000Y-175905000D03*
X66543000Y-177555000D03*
%TD*%
D38*
%TO.C,R12*%
X75850000Y-135500000D03*
X77500000Y-135500000D03*
%TD*%
D16*
%TO.C,C13*%
X91186000Y-94996000D03*
X91186000Y-96546000D03*
%TD*%
D22*
%TO.C,C5*%
X63000000Y-175955000D03*
X61450000Y-175955000D03*
%TD*%
D18*
%TO.C,C25*%
X87249000Y-113170000D03*
X87249000Y-111620000D03*
%TD*%
D17*
%TO.C,C39*%
X52725000Y-169000000D03*
X54275000Y-169000000D03*
%TD*%
D23*
%TO.C,CR4*%
X55350000Y-172500000D03*
X57650000Y-172500000D03*
%TD*%
D31*
%TO.C,R4*%
X82000000Y-171000000D03*
X80350000Y-171000000D03*
%TD*%
D22*
%TO.C,C17*%
X64397000Y-182653501D03*
X62847000Y-182653501D03*
%TD*%
D12*
%TO.C,C21*%
X58166000Y-119100600D03*
X58166000Y-124739400D03*
%TD*%
D18*
%TO.C,C19*%
X64384000Y-174030501D03*
X64384000Y-172480501D03*
%TD*%
D38*
%TO.C,R11*%
X52350000Y-175000000D03*
X54000000Y-175000000D03*
%TD*%
D22*
%TO.C,C33*%
X55652000Y-155067000D03*
X54102000Y-155067000D03*
%TD*%
D38*
%TO.C,R20*%
X74175000Y-110000000D03*
X75825000Y-110000000D03*
%TD*%
D47*
%TO.C,R5*%
X63495000Y-180145000D03*
X63495000Y-178495000D03*
%TD*%
D11*
%TO.C,CR2*%
X75692000Y-152774000D03*
X75692000Y-155074000D03*
%TD*%
D50*
%TO.C,U1*%
X59843999Y-183818002D03*
X59843999Y-183318001D03*
X59843999Y-182818001D03*
X59843999Y-182318000D03*
X57494001Y-182318000D03*
X57494001Y-182818001D03*
X57494001Y-183318001D03*
X57494001Y-183818002D03*
%TD*%
D11*
%TO.C,CR8*%
X73500000Y-150850000D03*
X73500000Y-153150000D03*
%TD*%
D18*
%TO.C,C22*%
X70231000Y-162179000D03*
X70231000Y-160629000D03*
%TD*%
D47*
%TO.C,R9*%
X52070000Y-132461000D03*
X52070000Y-130811000D03*
%TD*%
D23*
%TO.C,CR7*%
X82650000Y-160000000D03*
X80350000Y-160000000D03*
%TD*%
D22*
%TO.C,C35*%
X28093000Y-98044000D03*
X26543000Y-98044000D03*
%TD*%
D51*
%TO.C,L4*%
X43000000Y-173500000D03*
X48000000Y-173500000D03*
%TD*%
M02*
