M48
; DRILL file {KiCad 9.0.6} date 2025-11-16T07:04:48-0600
; FORMAT={-:-/ absolute / inch / decimal}
; #@! TF.CreationDate,2025-11-16T07:04:48-06:00
; #@! TF.GenerationSoftware,Kicad,Pcbnew,9.0.6
; #@! TF.FileFunction,Plated,1,2,PTH
FMAT,2
INCH
; #@! TA.AperFunction,Plated,PTH,ComponentDrill
T1C0.0080
; #@! TA.AperFunction,Plated,PTH,ViaDrill
T2C0.0118
; #@! TA.AperFunction,Plated,PTH,ViaDrill
T3C0.0157
; #@! TA.AperFunction,Plated,PTH,ComponentDrill
T4C0.0362
; #@! TA.AperFunction,Plated,PTH,ComponentDrill
T5C0.0394
; #@! TA.AperFunction,Plated,PTH,ComponentDrill
T6C0.0630
; #@! TA.AperFunction,Plated,PTH,ComponentDrill
T7C0.0630
; #@! TA.AperFunction,Plated,PTH,ComponentDrill
T8C0.0690
; #@! TA.AperFunction,Plated,PTH,ComponentDrill
T9C0.0787
; #@! TA.AperFunction,Plated,PTH,ComponentDrill
T10C0.0890
%
G90
G05
T1
X2.3098Y-7.2468
T2
X1.595Y-5.235
X1.6497Y-5.285
X1.72Y-5.31
X1.73Y-3.3135
X1.82Y-5.39
X1.88Y-3.82
X1.9Y-4.56
X1.9Y-4.9
X1.9Y-4.99
X1.9062Y-5.3
X1.91Y-4.42
X1.9162Y-5.25
X1.94Y-5.06
X2.0025Y-5.14
X2.02Y-5.04
X2.04Y-5.29
X2.1Y-5.05
X2.1Y-6.41
X2.11Y-4.44
X2.19Y-4.59
X2.195Y-4.275
X2.2Y-5.21
X2.21Y-4.44
X2.25Y-5.23
X2.2511Y-5.0507
X2.45Y-6.59
X2.64Y-5.16
X2.655Y-3.695
X2.705Y-3.635
X2.8185Y-5.8115
X2.8311Y-5.7489
X2.86Y-6.85
X2.949Y-5.0265
X3.05Y-5.79
X3.12Y-6.18
X3.12Y-6.345
X3.345Y-4.295
X3.4475Y-6.1069
X3.45Y-4.26
X3.48Y-4.5
X3.728Y-6.0669
X3.77Y-6.15
X3.82Y-6.025
X3.91Y-4.32
X3.94Y-4.72
X3.94Y-6.135
T3
X1.065Y-3.565
X1.185Y-3.855
X1.36Y-3.9
X1.405Y-6.96
X1.41Y-4.96
X1.41Y-5.76
X1.41Y-6.165
X1.41Y-6.56
X1.415Y-4.16
X1.415Y-4.56
X1.415Y-5.36
X1.465Y-3.77
X1.54Y-3.69
X1.54Y-3.79
X1.585Y-3.825
X1.61Y-3.87
X1.61Y-4.08
X1.62Y-3.78
X1.64Y-3.64
X1.68Y-4.12
X1.7Y-4.29
X1.7202Y-3.7802
X1.7323Y-3.5236
X1.745Y-5.47
X1.752Y-6.378
X1.76Y-3.7839
X1.82Y-3.71
X1.8225Y-3.8125
X1.8354Y-5.1004
X1.84Y-4.3
X1.8752Y-4.2899
X1.88Y-3.58
X1.8898Y-4.252
X1.89Y-5.15
X1.9094Y-3.5236
X1.9094Y-3.622
X1.9094Y-6.6142
X1.9291Y-4.3307
X1.93Y-5.18
X1.9668Y-5.151
X1.9685Y-3.7205
X1.9685Y-6.6535
X1.97Y-4.99
X1.97Y-5.26
X2.0079Y-3.7205
X2.0276Y-4.252
X2.04Y-5.08
X2.0472Y-3.622
X2.0472Y-3.7402
X2.05Y-4.97
X2.05Y-7.11
X2.0669Y-6.0039
X2.0669Y-6.3386
X2.1063Y-6.2402
X2.12Y-4.89
X2.1654Y-3.622
X2.1654Y-3.7795
X2.1654Y-6.5945
X2.18Y-4.9715
X2.18Y-5.06
X2.18Y-5.45
X2.185Y-3.5433
X2.2047Y-4.1142
X2.2047Y-6.0039
X2.2086Y-7.2172
X2.21Y-5.35
X2.22Y-5.03
X2.2248Y-7.1511
X2.2343Y-6.9911
X2.2441Y-3.7008
X2.2441Y-6.1024
X2.2441Y-6.5551
X2.2714Y-4.3186
X2.2885Y-4.4685
X2.3Y-5.21
X2.3031Y-4.1339
X2.305Y-5.0849
X2.31Y-4.41
X2.32Y-4.58
X2.32Y-5.32
X2.3228Y-6.2205
X2.3298Y-7.1279
X2.3698Y-6.9761
X2.3819Y-4.5276
X2.39Y-5.45
X2.4Y-5.25
X2.4037Y-3.5851
X2.4115Y-5.15
X2.455Y-6.36
X2.4606Y-3.7402
X2.4615Y-5.51
X2.4615Y-5.56
X2.4615Y-5.61
X2.4615Y-5.66
X2.4615Y-5.71
X2.4615Y-5.76
X2.4615Y-5.81
X2.4615Y-5.86
X2.5Y-5.35
X2.5015Y-6.02
X2.503Y-5.64
X2.51Y-3.62
X2.52Y-4.54
X2.52Y-4.62
X2.525Y-6.425
X2.53Y-6.08
X2.5315Y-5.68
X2.54Y-5.24
X2.56Y-5.72
X2.565Y-6.255
X2.57Y-3.55
X2.5702Y-5.4198
X2.58Y-6.4974
X2.59Y-5.17
X2.59Y-6.03
X2.6Y-6.14
X2.6035Y-4.5835
X2.6198Y-7.2179
X2.62Y-5.35
X2.6278Y-6.1122
X2.65Y-3.6136
X2.65Y-6.325
X2.6562Y-5.6117
X2.67Y-4.9
X2.675Y-4.833
X2.6775Y-5.98
X2.6969Y-6.7126
X2.7129Y-5.44
X2.76Y-3.71
X2.78Y-4.65
X2.78Y-6.15
X2.81Y-3.54
X2.8271Y-6.0638
X2.83Y-4.69
X2.83Y-4.9
X2.8309Y-5.6009
X2.84Y-3.634
X2.84Y-5.28
X2.85Y-6.11
X2.86Y-5.07
X2.89Y-4.95
X2.8937Y-3.622
X2.9Y-6.48
X2.92Y-5.79
X2.92Y-6.57
X2.94Y-4.54
X2.9724Y-3.5827
X2.975Y-6.53
X2.9873Y-6.1723
X2.9874Y-4.7123
X2.99Y-4.55
X2.99Y-4.96
X3.0012Y-4.5888
X3.002Y-3.6122
X3.01Y-5.17
X3.03Y-5.46
X3.03Y-5.83
X3.0315Y-3.5433
X3.04Y-5.58
X3.0477Y-5.903
X3.0512Y-6.6929
X3.06Y-5.29
X3.07Y-6.0784
X3.07Y-6.18
X3.09Y-5.47
X3.11Y-5.19
X3.1225Y-6.0375
X3.1299Y-3.563
X3.17Y-5.36
X3.1747Y-6.0053
X3.1764Y-5.41
X3.1765Y-5.4769
X3.1765Y-5.5269
X3.1765Y-5.5769
X3.1765Y-5.6269
X3.1765Y-5.6769
X3.1765Y-5.7269
X3.1765Y-5.7769
X3.1765Y-5.8269
X3.18Y-5.89
X3.21Y-4.64
X3.24Y-4.41
X3.26Y-4.24
X3.27Y-4.69
X3.2874Y-6.6142
X3.3071Y-6.4567
X3.31Y-3.75
X3.31Y-6.14
X3.32Y-6.04
X3.3545Y-5.8545
X3.36Y-3.87
X3.36Y-6.14
X3.3661Y-5.3543
X3.3661Y-6.3386
X3.39Y-5.9
X3.41Y-6.14
X3.4252Y-3.563
X3.44Y-4.14
X3.4449Y-5.24
X3.46Y-5.88
X3.4843Y-6.378
X3.49Y-6.22
X3.5Y-3.74
X3.5433Y-3.5827
X3.56Y-4.14
X3.56Y-4.26
X3.56Y-4.365
X3.6Y-4.79
X3.6024Y-6.6142
X3.622Y-3.622
X3.65Y-3.86
X3.68Y-4.79
X3.7205Y-4.7244
X3.76Y-5.94
X3.8583Y-4.7835
X4.02Y-4.04
X4.02Y-4.18
X4.05Y-4.34
X4.105Y-3.98
X4.225Y-4.3669
X4.23Y-6.7669
X4.235Y-4.7669
X4.235Y-5.16
X4.235Y-6.3669
X4.235Y-7.1669
X4.24Y-5.9669
X4.245Y-5.57
T4
X4.4133Y-3.5585
X4.4133Y-3.657
X4.4133Y-3.7357
X4.4133Y-3.8341
T5
X1.82Y-3.36
X1.82Y-3.46
X1.92Y-3.36
X1.92Y-3.46
X2.02Y-3.36
X2.02Y-3.46
X2.12Y-3.36
X2.12Y-3.46
X2.22Y-3.36
X2.22Y-3.46
X2.32Y-3.36
X2.32Y-3.46
X2.42Y-3.36
X2.42Y-3.46
X2.52Y-3.36
X2.52Y-3.46
X2.62Y-3.36
X2.62Y-3.46
X2.72Y-3.36
X2.72Y-3.46
X2.82Y-3.36
X2.82Y-3.46
X2.92Y-3.36
X2.92Y-3.46
X3.02Y-3.36
X3.02Y-3.46
X3.12Y-3.36
X3.12Y-3.46
X3.22Y-3.36
X3.22Y-3.46
X3.32Y-3.36
X3.32Y-3.46
X3.42Y-3.36
X3.42Y-3.46
X3.52Y-3.36
X3.52Y-3.46
X3.62Y-3.36
X3.62Y-3.46
X3.72Y-3.36
X3.72Y-3.46
T6
X1.0732Y-7.4803
X1.2732Y-7.4803
X1.4732Y-7.4803
X1.6732Y-7.4803
X3.37Y-7.37
X3.57Y-7.37
X3.77Y-7.37
X3.97Y-7.37
T7
X1.19Y-4.1291
X1.19Y-4.3291
X1.19Y-4.5291
X1.19Y-4.7291
X1.19Y-4.9291
X1.19Y-5.1291
X1.19Y-5.3291
X1.19Y-5.5291
X1.19Y-5.7291
X1.19Y-5.9291
X1.19Y-6.1291
X1.19Y-6.3291
X1.19Y-6.5291
X1.19Y-6.7291
X1.19Y-6.9291
X1.19Y-7.1291
X4.4465Y-4.1669
X4.4465Y-4.3669
X4.4465Y-4.5669
X4.4465Y-4.7669
X4.4465Y-4.9669
X4.4465Y-5.1669
X4.4465Y-5.3669
X4.4465Y-5.5669
X4.4465Y-5.7669
X4.4465Y-5.9669
X4.4465Y-6.1669
X4.4465Y-6.3669
X4.4465Y-6.5669
X4.4465Y-6.7669
X4.4465Y-6.9669
X4.4465Y-7.1669
T8
X2.9724Y-7.1654
X3.1283Y-7.1654
T9
X1.6929Y-7.1063
X2.7348Y-7.2311
X3.7795Y-6.9685
X3.81Y-4.52
X3.845Y-4.965
X4.18Y-3.605
X4.185Y-3.415
X4.4094Y-7.4606
T10
X4.52Y-3.4377
X4.52Y-3.955
M30
