M48
; DRILL file {KiCad 6.0.5} date Mon May 23 21:48:13 2022
; FORMAT={-:-/ absolute / inch / decimal}
; #@! TF.CreationDate,2022-05-23T21:48:13-04:00
; #@! TF.GenerationSoftware,Kicad,Pcbnew,6.0.5
; #@! TF.FileFunction,Plated,1,2,PTH
FMAT,2
INCH
; #@! TA.AperFunction,Plated,PTH,ViaDrill
T1C0.0079
; #@! TA.AperFunction,Plated,PTH,ComponentDrill
T2C0.0197
; #@! TA.AperFunction,Plated,PTH,ComponentDrill
T3C0.0217
; #@! TA.AperFunction,Plated,PTH,ComponentDrill
T4C0.0295
; #@! TA.AperFunction,Plated,PTH,ViaDrill
T5C0.0315
; #@! TA.AperFunction,Plated,PTH,ComponentDrill
T6C0.0315
; #@! TA.AperFunction,Plated,PTH,ComponentDrill
T7C0.0354
; #@! TA.AperFunction,Plated,PTH,ComponentDrill
T8C0.0394
; #@! TA.AperFunction,Plated,PTH,ComponentDrill
T9C0.0984
%
G90
G05
T1
X0.1752Y-0.7638
X0.187Y-1.0197
X0.2165Y-1.248
X0.248Y-1.25
X0.252Y-0.9862
X0.2776Y-1.25
X0.2835Y-1.0531
X0.315Y-1.0531
X0.3524Y-0.9744
X0.378Y-1.4685
X0.4134Y-0.3287
X0.4213Y-1.4449
X0.4449Y-0.3917
X0.4508Y-1.4685
X0.4665Y-0.3406
X0.4724Y-0.8189
X0.5118Y-0.3346
X0.5246Y-1.8337
X0.5512Y-0.752
X0.5886Y-0.8209
X0.6575Y-0.5827
X0.6594Y-0.624
X0.6732Y-1.3917
X0.6831Y-0.5827
X0.6969Y-1.2205
X0.7677Y-1.1516
X0.7677Y-1.2205
X0.7736Y-1.1831
X0.815Y-0.4272
X0.815Y-0.4665
X0.8189Y-0.5098
X0.8346Y-0.8346
X0.8386Y-1.2106
X0.8642Y-0.9626
X0.9114Y-1.4882
X0.9134Y-1.3819
X0.9134Y-1.4272
X0.937Y-0.7717
X0.9409Y-1.5217
X0.9429Y-1.8701
X0.9724Y-1.3228
X0.9724Y-1.622
X0.9724Y-1.7224
X0.9724Y-1.8228
X1.0059Y-1.4232
X1.0059Y-1.7224
X1.0374Y-1.25
X1.0374Y-1.9213
X1.061Y-0.2894
X1.1063Y-0.7677
T4
X0.2205Y-0.6555
X0.2205Y-0.9291
X0.2992Y-0.6555
X0.2992Y-0.9291
X0.9764Y-0.6181
X0.9764Y-0.8898
X1.0551Y-0.6181
X1.0551Y-0.8898
T5
X0.0591Y-1.7717
X0.122Y-0.8248
X0.2087Y-0.4528
X0.2402Y-0.252
X0.2598Y-2.2677
X0.5866Y-0.8878
X0.6004Y-0.3366
X0.622Y-0.25
T6
X0.8346Y-1.3219
X0.8346Y-1.4219
X0.8346Y-1.5219
X0.8346Y-1.6219
X0.8346Y-1.7219
X0.8346Y-1.8219
X0.8346Y-1.9219
X1.1346Y-1.3219
X1.1346Y-1.4219
X1.1346Y-1.5219
X1.1346Y-1.6219
X1.1346Y-1.7219
X1.1346Y-1.8219
X1.1346Y-1.9219
T7
X0.8323Y-2.0531
X1.1323Y-2.0531
T8
X0.4528Y-2.2835
X0.5512Y-2.2835
X0.6299Y-2.2835
X0.7283Y-2.2835
X1.0Y-2.2146
X1.1Y-2.2146
T9
X0.3319Y-2.3902
X0.8492Y-2.3902
T2
G00X0.4528Y-0.0679
M15
G01X0.4528Y-0.0423
M16
G05
G00X0.7283Y-0.0679
M15
G01X0.7283Y-0.0423
M16
G05
T3
G00X0.498Y-0.1614
M15
G01X0.4862Y-0.1614
M16
G05
G00X0.6949Y-0.1614
M15
G01X0.6831Y-0.1614
M16
G05
T0
M30
