%TF.GenerationSoftware,KiCad,Pcbnew,6.0.5*%
%TF.CreationDate,2022-05-23T21:48:16-04:00*%
%TF.ProjectId,BMS,424d532e-6b69-4636-9164-5f7063625858,rev?*%
%TF.SameCoordinates,Original*%
%TF.FileFunction,Soldermask,Bot*%
%TF.FilePolarity,Negative*%
%FSLAX46Y46*%
G04 Gerber Fmt 4.6, Leading zero omitted, Abs format (unit mm)*
G04 Created by KiCad (PCBNEW 6.0.5) date 2022-05-23 21:48:16*
%MOMM*%
%LPD*%
G01*
G04 APERTURE LIST*
G04 Aperture macros list*
%AMRoundRect*
0 Rectangle with rounded corners*
0 $1 Rounding radius*
0 $2 $3 $4 $5 $6 $7 $8 $9 X,Y pos of 4 corners*
0 Add a 4 corners polygon primitive as box body*
4,1,4,$2,$3,$4,$5,$6,$7,$8,$9,$2,$3,0*
0 Add four circle primitives for the rounded corners*
1,1,$1+$1,$2,$3*
1,1,$1+$1,$4,$5*
1,1,$1+$1,$6,$7*
1,1,$1+$1,$8,$9*
0 Add four rect primitives between the rounded corners*
20,1,$1+$1,$2,$3,$4,$5,0*
20,1,$1+$1,$4,$5,$6,$7,0*
20,1,$1+$1,$6,$7,$8,$9,0*
20,1,$1+$1,$8,$9,$2,$3,0*%
G04 Aperture macros list end*
%ADD10R,1.700000X1.700000*%
%ADD11O,1.700000X1.700000*%
%ADD12C,1.800000*%
%ADD13O,1.800000X1.800000*%
%ADD14RoundRect,0.250000X-0.350000X-0.625000X0.350000X-0.625000X0.350000X0.625000X-0.350000X0.625000X0*%
%ADD15O,1.200000X1.750000*%
%ADD16C,1.500000*%
%ADD17C,3.500000*%
%ADD18R,1.600000X1.600000*%
%ADD19O,1.600000X1.600000*%
%ADD20O,0.890000X1.550000*%
%ADD21O,1.250000X0.950000*%
%ADD22R,0.800000X1.200000*%
%ADD23R,2.500000X1.800000*%
%ADD24R,1.200000X0.800000*%
%ADD25RoundRect,0.250000X0.262500X0.450000X-0.262500X0.450000X-0.262500X-0.450000X0.262500X-0.450000X0*%
%ADD26RoundRect,0.250000X-0.450000X0.262500X-0.450000X-0.262500X0.450000X-0.262500X0.450000X0.262500X0*%
%ADD27RoundRect,0.250000X-0.262500X-0.450000X0.262500X-0.450000X0.262500X0.450000X-0.262500X0.450000X0*%
%ADD28RoundRect,0.250000X0.450000X-0.262500X0.450000X0.262500X-0.450000X0.262500X-0.450000X-0.262500X0*%
G04 APERTURE END LIST*
D10*
%TO.C,J3*%
X25400000Y-56250000D03*
D11*
X27940000Y-56250000D03*
%TD*%
D12*
%TO.C,D1*%
X21140000Y-52150000D03*
D13*
X28760000Y-52150000D03*
%TD*%
D14*
%TO.C,BT1*%
X5600000Y-16650000D03*
D15*
X7600000Y-16650000D03*
%TD*%
D16*
%TO.C,J2*%
X11500000Y-58000000D03*
X14000000Y-58000000D03*
X16000000Y-58000000D03*
X18500000Y-58000000D03*
D17*
X21570000Y-60710000D03*
X8430000Y-60710000D03*
%TD*%
D14*
%TO.C,BT3*%
X5600000Y-23600000D03*
D15*
X7600000Y-23600000D03*
%TD*%
D14*
%TO.C,BT2*%
X24800000Y-15700000D03*
D15*
X26800000Y-15700000D03*
%TD*%
D18*
%TO.C,U12*%
X21200000Y-33575000D03*
D19*
X21200000Y-36115000D03*
X21200000Y-38655000D03*
X21200000Y-41195000D03*
X21200000Y-43735000D03*
X21200000Y-46275000D03*
X21200000Y-48815000D03*
X28820000Y-48815000D03*
X28820000Y-46275000D03*
X28820000Y-43735000D03*
X28820000Y-41195000D03*
X28820000Y-38655000D03*
X28820000Y-36115000D03*
X28820000Y-33575000D03*
%TD*%
D20*
%TO.C,J1*%
X11500000Y-1400000D03*
D21*
X12500000Y-4100000D03*
D20*
X18500000Y-1400000D03*
D21*
X17500000Y-4100000D03*
%TD*%
D14*
%TO.C,BT4*%
X24800000Y-22600000D03*
D15*
X26800000Y-22600000D03*
%TD*%
D22*
%TO.C,U5*%
X7970000Y-35400000D03*
X5430000Y-35400000D03*
X5430000Y-29400000D03*
X7970000Y-29400000D03*
%TD*%
D23*
%TO.C,D4*%
X4170000Y-48900000D03*
X8170000Y-48900000D03*
%TD*%
%TO.C,D3*%
X4170000Y-44000000D03*
X8170000Y-44000000D03*
%TD*%
D24*
%TO.C,U2*%
X13600000Y-10330000D03*
X13600000Y-12870000D03*
X7600000Y-12870000D03*
X7600000Y-10330000D03*
%TD*%
D25*
%TO.C,R6*%
X12912500Y-33300000D03*
X11087500Y-33300000D03*
%TD*%
D24*
%TO.C,U3*%
X16870000Y-41430000D03*
X16870000Y-43970000D03*
X10870000Y-43970000D03*
X10870000Y-41430000D03*
%TD*%
D26*
%TO.C,R5*%
X18900000Y-48987500D03*
X18900000Y-50812500D03*
%TD*%
D25*
%TO.C,R3*%
X13025000Y-25200000D03*
X11200000Y-25200000D03*
%TD*%
D22*
%TO.C,U4*%
X17570000Y-25200000D03*
X15030000Y-25200000D03*
X15030000Y-19200000D03*
X17570000Y-19200000D03*
%TD*%
%TO.C,U7*%
X17570000Y-33300000D03*
X15030000Y-33300000D03*
X15030000Y-27300000D03*
X17570000Y-27300000D03*
%TD*%
D27*
%TO.C,R4*%
X5387500Y-37700000D03*
X7212500Y-37700000D03*
%TD*%
D25*
%TO.C,R1*%
X13612500Y-15200000D03*
X11787500Y-15200000D03*
%TD*%
D28*
%TO.C,R2*%
X18800000Y-44012500D03*
X18800000Y-42187500D03*
%TD*%
D24*
%TO.C,U6*%
X16870000Y-46430000D03*
X16870000Y-48970000D03*
X10870000Y-48970000D03*
X10870000Y-46430000D03*
%TD*%
M02*
