%TF.GenerationSoftware,KiCad,Pcbnew,6.0.5*%
%TF.CreationDate,2022-05-23T21:48:15-04:00*%
%TF.ProjectId,BMS,424d532e-6b69-4636-9164-5f7063625858,rev?*%
%TF.SameCoordinates,Original*%
%TF.FileFunction,Copper,L2,Bot*%
%TF.FilePolarity,Positive*%
%FSLAX46Y46*%
G04 Gerber Fmt 4.6, Leading zero omitted, Abs format (unit mm)*
G04 Created by KiCad (PCBNEW 6.0.5) date 2022-05-23 21:48:15*
%MOMM*%
%LPD*%
G01*
G04 APERTURE LIST*
G04 Aperture macros list*
%AMRoundRect*
0 Rectangle with rounded corners*
0 $1 Rounding radius*
0 $2 $3 $4 $5 $6 $7 $8 $9 X,Y pos of 4 corners*
0 Add a 4 corners polygon primitive as box body*
4,1,4,$2,$3,$4,$5,$6,$7,$8,$9,$2,$3,0*
0 Add four circle primitives for the rounded corners*
1,1,$1+$1,$2,$3*
1,1,$1+$1,$4,$5*
1,1,$1+$1,$6,$7*
1,1,$1+$1,$8,$9*
0 Add four rect primitives between the rounded corners*
20,1,$1+$1,$2,$3,$4,$5,0*
20,1,$1+$1,$4,$5,$6,$7,0*
20,1,$1+$1,$6,$7,$8,$9,0*
20,1,$1+$1,$8,$9,$2,$3,0*%
G04 Aperture macros list end*
%TA.AperFunction,ComponentPad*%
%ADD10R,1.700000X1.700000*%
%TD*%
%TA.AperFunction,ComponentPad*%
%ADD11O,1.700000X1.700000*%
%TD*%
%TA.AperFunction,ComponentPad*%
%ADD12C,1.800000*%
%TD*%
%TA.AperFunction,ComponentPad*%
%ADD13O,1.800000X1.800000*%
%TD*%
%TA.AperFunction,ComponentPad*%
%ADD14RoundRect,0.250000X-0.350000X-0.625000X0.350000X-0.625000X0.350000X0.625000X-0.350000X0.625000X0*%
%TD*%
%TA.AperFunction,ComponentPad*%
%ADD15O,1.200000X1.750000*%
%TD*%
%TA.AperFunction,ComponentPad*%
%ADD16C,1.500000*%
%TD*%
%TA.AperFunction,ComponentPad*%
%ADD17C,3.500000*%
%TD*%
%TA.AperFunction,ComponentPad*%
%ADD18R,1.600000X1.600000*%
%TD*%
%TA.AperFunction,ComponentPad*%
%ADD19O,1.600000X1.600000*%
%TD*%
%TA.AperFunction,ComponentPad*%
%ADD20O,0.890000X1.550000*%
%TD*%
%TA.AperFunction,ComponentPad*%
%ADD21O,1.250000X0.950000*%
%TD*%
%TA.AperFunction,SMDPad,CuDef*%
%ADD22R,0.800000X1.200000*%
%TD*%
%TA.AperFunction,SMDPad,CuDef*%
%ADD23R,2.500000X1.800000*%
%TD*%
%TA.AperFunction,SMDPad,CuDef*%
%ADD24R,1.200000X0.800000*%
%TD*%
%TA.AperFunction,SMDPad,CuDef*%
%ADD25RoundRect,0.250000X0.262500X0.450000X-0.262500X0.450000X-0.262500X-0.450000X0.262500X-0.450000X0*%
%TD*%
%TA.AperFunction,SMDPad,CuDef*%
%ADD26RoundRect,0.250000X-0.450000X0.262500X-0.450000X-0.262500X0.450000X-0.262500X0.450000X0.262500X0*%
%TD*%
%TA.AperFunction,SMDPad,CuDef*%
%ADD27RoundRect,0.250000X-0.262500X-0.450000X0.262500X-0.450000X0.262500X0.450000X-0.262500X0.450000X0*%
%TD*%
%TA.AperFunction,SMDPad,CuDef*%
%ADD28RoundRect,0.250000X0.450000X-0.262500X0.450000X0.262500X-0.450000X0.262500X-0.450000X-0.262500X0*%
%TD*%
%TA.AperFunction,ViaPad*%
%ADD29C,0.400000*%
%TD*%
%TA.AperFunction,ViaPad*%
%ADD30C,1.400000*%
%TD*%
%TA.AperFunction,Conductor*%
%ADD31C,0.500000*%
%TD*%
%TA.AperFunction,Conductor*%
%ADD32C,0.200000*%
%TD*%
G04 APERTURE END LIST*
D10*
%TO.P,J3,1,Pin_1*%
%TO.N,5V*%
X25400000Y-56250000D03*
D11*
%TO.P,J3,2,Pin_2*%
%TO.N,GND*%
X27940000Y-56250000D03*
%TD*%
D12*
%TO.P,D1,1,K*%
%TO.N,Net-(D1-Pad1)*%
X21140000Y-52150000D03*
D13*
%TO.P,D1,2,A*%
%TO.N,GND*%
X28760000Y-52150000D03*
%TD*%
D14*
%TO.P,BT1,1,+*%
%TO.N,BT1*%
X5600000Y-16650000D03*
D15*
%TO.P,BT1,2,-*%
%TO.N,Net-(BT1-Pad2)*%
X7600000Y-16650000D03*
%TD*%
D16*
%TO.P,J2,1,VBUS*%
%TO.N,5V*%
X11500000Y-58000000D03*
%TO.P,J2,2,D-*%
%TO.N,unconnected-(J2-Pad2)*%
X14000000Y-58000000D03*
%TO.P,J2,3,D+*%
%TO.N,unconnected-(J2-Pad3)*%
X16000000Y-58000000D03*
%TO.P,J2,4,GND*%
%TO.N,GND*%
X18500000Y-58000000D03*
D17*
%TO.P,J2,5,Shield*%
X21570000Y-60710000D03*
X8430000Y-60710000D03*
%TD*%
D14*
%TO.P,BT3,1,+*%
%TO.N,BT3*%
X5600000Y-23600000D03*
D15*
%TO.P,BT3,2,-*%
%TO.N,Net-(BT3-Pad2)*%
X7600000Y-23600000D03*
%TD*%
D14*
%TO.P,BT2,1,+*%
%TO.N,BT2*%
X24800000Y-15700000D03*
D15*
%TO.P,BT2,2,-*%
%TO.N,GND*%
X26800000Y-15700000D03*
%TD*%
D18*
%TO.P,U12,1,A*%
%TO.N,VBUS*%
X21200000Y-33575000D03*
D19*
%TO.P,U12,2,G=~{A}*%
%TO.N,Net-(U12-Pad2)*%
X21200000Y-36115000D03*
%TO.P,U12,3,B*%
X21200000Y-38655000D03*
%TO.P,U12,4,H=~{B}*%
%TO.N,GND_CONN*%
X21200000Y-41195000D03*
%TO.P,U12,5,C*%
%TO.N,VBUS*%
X21200000Y-43735000D03*
%TO.P,U12,6,I=~{C}*%
%TO.N,VRAW_CONN*%
X21200000Y-46275000D03*
%TO.P,U12,7,VSS*%
%TO.N,GND*%
X21200000Y-48815000D03*
%TO.P,U12,8,J=~{D}*%
%TO.N,CROSS_CONN*%
X28820000Y-48815000D03*
%TO.P,U12,9,D*%
%TO.N,VBUS*%
X28820000Y-46275000D03*
%TO.P,U12,10,K=~{E}*%
%TO.N,Net-(U12-Pad10)*%
X28820000Y-43735000D03*
%TO.P,U12,11,E*%
%TO.N,VBUS*%
X28820000Y-41195000D03*
%TO.P,U12,12,L=~{F}*%
%TO.N,REG_EN*%
X28820000Y-38655000D03*
%TO.P,U12,13,F*%
%TO.N,Net-(U12-Pad10)*%
X28820000Y-36115000D03*
%TO.P,U12,14,VDD*%
%TO.N,Net-(U12-Pad14)*%
X28820000Y-33575000D03*
%TD*%
D20*
%TO.P,J1,6,Shield*%
%TO.N,GND*%
X11500000Y-1400000D03*
D21*
X12500000Y-4100000D03*
D20*
X18500000Y-1400000D03*
D21*
X17500000Y-4100000D03*
%TD*%
D14*
%TO.P,BT4,1,+*%
%TO.N,BT4*%
X24800000Y-22600000D03*
D15*
%TO.P,BT4,2,-*%
%TO.N,GND*%
X26800000Y-22600000D03*
%TD*%
D22*
%TO.P,U5,1*%
%TO.N,GND_CONN*%
X7970000Y-35400000D03*
%TO.P,U5,2*%
%TO.N,Net-(R4-Pad1)*%
X5430000Y-35400000D03*
%TO.P,U5,3*%
%TO.N,Net-(BT3-Pad2)*%
X5430000Y-29400000D03*
%TO.P,U5,4*%
%TO.N,GND*%
X7970000Y-29400000D03*
%TD*%
D23*
%TO.P,D4,1,K*%
%TO.N,VRAW*%
X4170000Y-48900000D03*
%TO.P,D4,2,A*%
%TO.N,Net-(D4-Pad2)*%
X8170000Y-48900000D03*
%TD*%
%TO.P,D3,1,K*%
%TO.N,VRAW*%
X4170000Y-44000000D03*
%TO.P,D3,2,A*%
%TO.N,Net-(D3-Pad2)*%
X8170000Y-44000000D03*
%TD*%
D24*
%TO.P,U2,1*%
%TO.N,GND_CONN*%
X13600000Y-10330000D03*
%TO.P,U2,2*%
%TO.N,Net-(R1-Pad1)*%
X13600000Y-12870000D03*
%TO.P,U2,3*%
%TO.N,Net-(BT1-Pad2)*%
X7600000Y-12870000D03*
%TO.P,U2,4*%
%TO.N,GND*%
X7600000Y-10330000D03*
%TD*%
D25*
%TO.P,R6,1*%
%TO.N,Net-(R6-Pad1)*%
X12912500Y-33300000D03*
%TO.P,R6,2*%
%TO.N,GND*%
X11087500Y-33300000D03*
%TD*%
D24*
%TO.P,U3,1*%
%TO.N,VRAW_CONN*%
X16870000Y-41430000D03*
%TO.P,U3,2*%
%TO.N,Net-(R2-Pad1)*%
X16870000Y-43970000D03*
%TO.P,U3,3*%
%TO.N,Net-(D3-Pad2)*%
X10870000Y-43970000D03*
%TO.P,U3,4*%
%TO.N,BT1*%
X10870000Y-41430000D03*
%TD*%
D26*
%TO.P,R5,1*%
%TO.N,Net-(R5-Pad1)*%
X18900000Y-48987500D03*
%TO.P,R5,2*%
%TO.N,GND*%
X18900000Y-50812500D03*
%TD*%
D25*
%TO.P,R3,1*%
%TO.N,Net-(R3-Pad1)*%
X13025000Y-25200000D03*
%TO.P,R3,2*%
%TO.N,GND*%
X11200000Y-25200000D03*
%TD*%
D22*
%TO.P,U4,1*%
%TO.N,CROSS_CONN*%
X17570000Y-25200000D03*
%TO.P,U4,2*%
%TO.N,Net-(R3-Pad1)*%
X15030000Y-25200000D03*
%TO.P,U4,3*%
%TO.N,Net-(BT1-Pad2)*%
X15030000Y-19200000D03*
%TO.P,U4,4*%
%TO.N,BT2*%
X17570000Y-19200000D03*
%TD*%
%TO.P,U7,1*%
%TO.N,CROSS_CONN*%
X17570000Y-33300000D03*
%TO.P,U7,2*%
%TO.N,Net-(R6-Pad1)*%
X15030000Y-33300000D03*
%TO.P,U7,3*%
%TO.N,Net-(BT3-Pad2)*%
X15030000Y-27300000D03*
%TO.P,U7,4*%
%TO.N,BT4*%
X17570000Y-27300000D03*
%TD*%
D27*
%TO.P,R4,1*%
%TO.N,Net-(R4-Pad1)*%
X5387500Y-37700000D03*
%TO.P,R4,2*%
%TO.N,GND*%
X7212500Y-37700000D03*
%TD*%
D25*
%TO.P,R1,1*%
%TO.N,Net-(R1-Pad1)*%
X13612500Y-15200000D03*
%TO.P,R1,2*%
%TO.N,GND*%
X11787500Y-15200000D03*
%TD*%
D28*
%TO.P,R2,1*%
%TO.N,Net-(R2-Pad1)*%
X18800000Y-44012500D03*
%TO.P,R2,2*%
%TO.N,GND*%
X18800000Y-42187500D03*
%TD*%
D24*
%TO.P,U6,1*%
%TO.N,VRAW_CONN*%
X16870000Y-46430000D03*
%TO.P,U6,2*%
%TO.N,Net-(R5-Pad1)*%
X16870000Y-48970000D03*
%TO.P,U6,3*%
%TO.N,Net-(D4-Pad2)*%
X10870000Y-48970000D03*
%TO.P,U6,4*%
%TO.N,BT3*%
X10870000Y-46430000D03*
%TD*%
D29*
%TO.N,GND*%
X10500000Y-8350000D03*
X10700000Y-36700000D03*
X19650000Y-30050000D03*
X23200000Y-35100000D03*
X11450000Y-37300000D03*
X17350000Y-14800000D03*
X20800000Y-12950000D03*
X6400000Y-25050000D03*
X13000000Y-8500000D03*
X28100000Y-19500000D03*
X8000000Y-26750000D03*
X6300000Y-31750000D03*
X23200000Y-36250000D03*
X11300000Y-9950000D03*
X21300000Y-30750000D03*
X23800000Y-19600000D03*
X11850000Y-8650000D03*
X16750000Y-15850000D03*
X7200000Y-26750000D03*
X5500000Y-31700000D03*
X4750000Y-25900000D03*
X17100000Y-35350000D03*
X9600000Y-37300000D03*
X4450000Y-19400000D03*
X20700000Y-10850000D03*
X20700000Y-11850000D03*
X12000000Y-20800000D03*
X19500000Y-29250000D03*
X7050000Y-31750000D03*
X14000000Y-19100000D03*
X8950000Y-24750000D03*
X23150000Y-37800000D03*
X16700000Y-14800000D03*
X14950000Y-20850000D03*
D30*
%TO.N,VRAW*%
X1500000Y-45000000D03*
%TO.N,Net-(D1-Pad1)*%
X6600000Y-57600000D03*
%TO.N,VBUS*%
X6100000Y-6400000D03*
D29*
X24700000Y-33600000D03*
X19500000Y-31000000D03*
X24700000Y-41200000D03*
X26950000Y-7350000D03*
D30*
X15800000Y-6350500D03*
D29*
X24700000Y-43750000D03*
X17700000Y-31000000D03*
D30*
X14900000Y-22550000D03*
X3100000Y-20950000D03*
X15250000Y-8550000D03*
X5300000Y-11500000D03*
D29*
X24700000Y-46300000D03*
%TO.N,Net-(D12-Pad1)*%
X21950000Y-24450000D03*
X21200000Y-21200000D03*
%TO.N,REG_EN*%
X13325000Y-46575000D03*
X23950000Y-47500000D03*
X23900000Y-38650000D03*
%TO.N,CROSS_CONN*%
X26350000Y-48800000D03*
X26350000Y-31750000D03*
%TO.N,Net-(U12-Pad10)*%
X25550000Y-43750000D03*
X25550000Y-36150000D03*
%TD*%
D31*
%TO.N,BT1*%
X3550000Y-16650000D02*
X1800000Y-18400000D01*
X4230000Y-41430000D02*
X10870000Y-41430000D01*
X5600000Y-16650000D02*
X3550000Y-16650000D01*
X1800000Y-18400000D02*
X1800000Y-39000000D01*
X1800000Y-39000000D02*
X4230000Y-41430000D01*
%TO.N,Net-(BT1-Pad2)*%
X7600000Y-16650000D02*
X7600000Y-12870000D01*
X13550000Y-16650000D02*
X7600000Y-16650000D01*
X15030000Y-19200000D02*
X15030000Y-18130000D01*
X15030000Y-18130000D02*
X13550000Y-16650000D01*
%TO.N,BT2*%
X17570000Y-19200000D02*
X17570000Y-17130000D01*
X19000000Y-15700000D02*
X24800000Y-15700000D01*
X17570000Y-17130000D02*
X19000000Y-15700000D01*
%TO.N,BT3*%
X3400000Y-39400000D02*
X11900000Y-39400000D01*
X12300000Y-45000000D02*
X10870000Y-46430000D01*
X3100000Y-39100000D02*
X3400000Y-39400000D01*
X5600000Y-23600000D02*
X3100000Y-26100000D01*
X3100000Y-26100000D02*
X3100000Y-39100000D01*
X12300000Y-39800000D02*
X12300000Y-45000000D01*
X11900000Y-39400000D02*
X12300000Y-39800000D01*
%TO.N,Net-(BT3-Pad2)*%
X15030000Y-27300000D02*
X9800000Y-27300000D01*
X7600000Y-25100000D02*
X5430000Y-27270000D01*
X5430000Y-27270000D02*
X5430000Y-29400000D01*
X9800000Y-27300000D02*
X7600000Y-25100000D01*
X7600000Y-25100000D02*
X7600000Y-23600000D01*
%TO.N,BT4*%
X24800000Y-24500000D02*
X24800000Y-22600000D01*
X17570000Y-27300000D02*
X22000000Y-27300000D01*
X22000000Y-27300000D02*
X24800000Y-24500000D01*
%TO.N,VRAW*%
X2500000Y-44000000D02*
X1500000Y-45000000D01*
X4170000Y-48900000D02*
X2400000Y-48900000D01*
X4170000Y-44000000D02*
X2500000Y-44000000D01*
X4170000Y-44000000D02*
X4170000Y-48900000D01*
X1500000Y-48000000D02*
X1500000Y-45000000D01*
X2400000Y-48900000D02*
X1500000Y-48000000D01*
%TO.N,5V*%
X13250000Y-56250000D02*
X11500000Y-58000000D01*
X25400000Y-56250000D02*
X13250000Y-56250000D01*
%TO.N,Net-(D1-Pad1)*%
X6600000Y-57600000D02*
X9500000Y-54700000D01*
X19950000Y-52150000D02*
X21140000Y-52150000D01*
X17400000Y-54700000D02*
X19950000Y-52150000D01*
X9500000Y-54700000D02*
X17400000Y-54700000D01*
%TO.N,VBUS*%
X10250000Y-22550000D02*
X14900000Y-22550000D01*
D32*
X28820000Y-46275000D02*
X24725000Y-46275000D01*
D31*
X8650000Y-20950000D02*
X10250000Y-22550000D01*
D32*
X24685000Y-43735000D02*
X24700000Y-43750000D01*
X16799500Y-7350000D02*
X15800000Y-6350500D01*
X26950000Y-7350000D02*
X16799500Y-7350000D01*
X21200000Y-43735000D02*
X24685000Y-43735000D01*
D31*
X3100000Y-20950000D02*
X8650000Y-20950000D01*
D32*
X24700000Y-41200000D02*
X24705000Y-41195000D01*
D31*
X6100000Y-10700000D02*
X5300000Y-11500000D01*
D32*
X19500000Y-31000000D02*
X17700000Y-31000000D01*
X24705000Y-41195000D02*
X28820000Y-41195000D01*
D31*
X15250000Y-8550000D02*
X15250000Y-6900500D01*
X15250000Y-6900500D02*
X15800000Y-6350500D01*
D32*
X24675000Y-33575000D02*
X21200000Y-33575000D01*
X24725000Y-46275000D02*
X24700000Y-46300000D01*
D31*
X6100000Y-6400000D02*
X6100000Y-10700000D01*
D32*
X24700000Y-33600000D02*
X24675000Y-33575000D01*
D31*
%TO.N,Net-(D3-Pad2)*%
X10870000Y-43970000D02*
X8200000Y-43970000D01*
%TO.N,Net-(D4-Pad2)*%
X8170000Y-48900000D02*
X10800000Y-48900000D01*
D32*
%TO.N,Net-(D12-Pad1)*%
X21200000Y-23700000D02*
X21950000Y-24450000D01*
X21200000Y-21200000D02*
X21200000Y-23700000D01*
%TO.N,Net-(R1-Pad1)*%
X13612500Y-15200000D02*
X13600000Y-15187500D01*
X13600000Y-15187500D02*
X13600000Y-12870000D01*
%TO.N,Net-(R2-Pad1)*%
X16912500Y-44012500D02*
X16870000Y-43970000D01*
X18800000Y-44012500D02*
X16912500Y-44012500D01*
%TO.N,Net-(R3-Pad1)*%
X13025000Y-25200000D02*
X15030000Y-25200000D01*
%TO.N,Net-(R4-Pad1)*%
X5387500Y-37700000D02*
X5430000Y-37657500D01*
X5430000Y-37657500D02*
X5430000Y-35400000D01*
%TO.N,Net-(R5-Pad1)*%
X18900000Y-48987500D02*
X18882500Y-48970000D01*
X18882500Y-48970000D02*
X16870000Y-48970000D01*
%TO.N,Net-(R6-Pad1)*%
X12912500Y-33300000D02*
X15030000Y-33300000D01*
%TO.N,REG_EN*%
X28820000Y-38655000D02*
X23905000Y-38655000D01*
X23905000Y-38655000D02*
X23900000Y-38650000D01*
X23950000Y-47500000D02*
X14250000Y-47500000D01*
X14250000Y-47500000D02*
X13325000Y-46575000D01*
%TO.N,GND_CONN*%
X16000000Y-11000000D02*
X16000000Y-34300000D01*
X16000000Y-34300000D02*
X14900000Y-35400000D01*
X15330000Y-10330000D02*
X16000000Y-11000000D01*
X15405000Y-35400000D02*
X14900000Y-35400000D01*
X21200000Y-41195000D02*
X15405000Y-35400000D01*
X13600000Y-10330000D02*
X15330000Y-10330000D01*
X14900000Y-35400000D02*
X7970000Y-35400000D01*
%TO.N,VRAW_CONN*%
X16870000Y-46430000D02*
X21045000Y-46430000D01*
X16870000Y-46430000D02*
X16130000Y-46430000D01*
X21045000Y-46430000D02*
X21200000Y-46275000D01*
X15800000Y-41900000D02*
X16270000Y-41430000D01*
X16130000Y-46430000D02*
X15800000Y-46100000D01*
X16270000Y-41430000D02*
X16870000Y-41430000D01*
X15800000Y-46100000D02*
X15800000Y-41900000D01*
%TO.N,CROSS_CONN*%
X16600000Y-25900000D02*
X17300000Y-25200000D01*
X16600000Y-32900000D02*
X16600000Y-31700000D01*
X16600000Y-30600000D02*
X16600000Y-25900000D01*
X26365000Y-48815000D02*
X26350000Y-48800000D01*
X28820000Y-48815000D02*
X26365000Y-48815000D01*
X26350000Y-31750000D02*
X16650000Y-31750000D01*
X16650000Y-31750000D02*
X16600000Y-31700000D01*
X17300000Y-25200000D02*
X17570000Y-25200000D01*
X17570000Y-33300000D02*
X17000000Y-33300000D01*
X17000000Y-33300000D02*
X16600000Y-32900000D01*
X16600000Y-31700000D02*
X16600000Y-30600000D01*
%TO.N,Net-(U12-Pad10)*%
X26815000Y-36115000D02*
X25585000Y-36115000D01*
X25585000Y-36115000D02*
X25550000Y-36150000D01*
X25565000Y-43735000D02*
X28820000Y-43735000D01*
X28820000Y-36115000D02*
X26815000Y-36115000D01*
X25550000Y-43750000D02*
X25565000Y-43735000D01*
%TD*%
%TA.AperFunction,Conductor*%
%TO.N,GND*%
G36*
X11027319Y-149245D02*
G01*
X11046064Y-194500D01*
X11027319Y-239755D01*
X11015789Y-248893D01*
X10918287Y-309347D01*
X10913181Y-313278D01*
X10777213Y-441857D01*
X10773007Y-446729D01*
X10665675Y-600015D01*
X10662526Y-605650D01*
X10588212Y-777377D01*
X10586261Y-783529D01*
X10547834Y-967473D01*
X10547205Y-972321D01*
X10547044Y-975377D01*
X10547000Y-977068D01*
X10547000Y-1133271D01*
X10550728Y-1142272D01*
X10559729Y-1146000D01*
X12440271Y-1146000D01*
X12449272Y-1142272D01*
X12453000Y-1133271D01*
X12453000Y-1023236D01*
X12452836Y-1019993D01*
X12438678Y-880614D01*
X12437379Y-874286D01*
X12381425Y-695734D01*
X12378882Y-689801D01*
X12288159Y-526134D01*
X12284485Y-520848D01*
X12162704Y-378763D01*
X12158039Y-374321D01*
X12010179Y-259629D01*
X12004707Y-256209D01*
X11996000Y-251925D01*
X11963670Y-215126D01*
X11966830Y-166245D01*
X12003629Y-133915D01*
X12024255Y-130500D01*
X17982064Y-130500D01*
X18027319Y-149245D01*
X18046064Y-194500D01*
X18027319Y-239755D01*
X18015789Y-248893D01*
X17918287Y-309347D01*
X17913181Y-313278D01*
X17777213Y-441857D01*
X17773007Y-446729D01*
X17665675Y-600015D01*
X17662526Y-605650D01*
X17588212Y-777377D01*
X17586261Y-783529D01*
X17547834Y-967473D01*
X17547205Y-972321D01*
X17547044Y-975377D01*
X17547000Y-977068D01*
X17547000Y-1133271D01*
X17550728Y-1142272D01*
X17559729Y-1146000D01*
X19440271Y-1146000D01*
X19449272Y-1142272D01*
X19453000Y-1133271D01*
X19453000Y-1023236D01*
X19452836Y-1019993D01*
X19438678Y-880614D01*
X19437379Y-874286D01*
X19381425Y-695734D01*
X19378882Y-689801D01*
X19288159Y-526134D01*
X19284485Y-520848D01*
X19162704Y-378763D01*
X19158039Y-374321D01*
X19010179Y-259629D01*
X19004707Y-256209D01*
X18996000Y-251925D01*
X18963670Y-215126D01*
X18966830Y-166245D01*
X19003629Y-133915D01*
X19024255Y-130500D01*
X29805500Y-130500D01*
X29850755Y-149245D01*
X29869500Y-194500D01*
X29869500Y-33160921D01*
X29850755Y-33206176D01*
X29805500Y-33224921D01*
X29760245Y-33206176D01*
X29748991Y-33190967D01*
X29658840Y-33021417D01*
X29658838Y-33021414D01*
X29657370Y-33018653D01*
X29533361Y-32866602D01*
X29382180Y-32741535D01*
X29209585Y-32648213D01*
X29206601Y-32647289D01*
X29206598Y-32647288D01*
X29025140Y-32591118D01*
X29025141Y-32591118D01*
X29022152Y-32590193D01*
X28827019Y-32569683D01*
X28823909Y-32569966D01*
X28823908Y-32569966D01*
X28785393Y-32573471D01*
X28631618Y-32587466D01*
X28623464Y-32589866D01*
X28446399Y-32641979D01*
X28446396Y-32641980D01*
X28443393Y-32642864D01*
X28430313Y-32649702D01*
X28272283Y-32732318D01*
X28272280Y-32732320D01*
X28269512Y-32733767D01*
X28116600Y-32856711D01*
X27990480Y-33007016D01*
X27982563Y-33021417D01*
X27905870Y-33160921D01*
X27895956Y-33178954D01*
X27895010Y-33181936D01*
X27884001Y-33216642D01*
X27836628Y-33365978D01*
X27835086Y-33379728D01*
X27818212Y-33530165D01*
X27814757Y-33560963D01*
X27831175Y-33756483D01*
X27832036Y-33759485D01*
X27881028Y-33930338D01*
X27885258Y-33945091D01*
X27906606Y-33986629D01*
X27957349Y-34085364D01*
X27974944Y-34119601D01*
X28002382Y-34154219D01*
X28059800Y-34226663D01*
X28096818Y-34273369D01*
X28099189Y-34275387D01*
X28099193Y-34275391D01*
X28202809Y-34363574D01*
X28246238Y-34400535D01*
X28248963Y-34402058D01*
X28248966Y-34402060D01*
X28414777Y-34494728D01*
X28417513Y-34496257D01*
X28420491Y-34497225D01*
X28420492Y-34497225D01*
X28601147Y-34555924D01*
X28601150Y-34555925D01*
X28604118Y-34556889D01*
X28798946Y-34580121D01*
X28802066Y-34579881D01*
X28802069Y-34579881D01*
X28991449Y-34565309D01*
X28991453Y-34565308D01*
X28994576Y-34565068D01*
X28997592Y-34564226D01*
X28997597Y-34564225D01*
X29180540Y-34513145D01*
X29180539Y-34513145D01*
X29183556Y-34512303D01*
X29280459Y-34463354D01*
X29355891Y-34425251D01*
X29355896Y-34425248D01*
X29358689Y-34423837D01*
X29386563Y-34402060D01*
X29510835Y-34304968D01*
X29513303Y-34303040D01*
X29530024Y-34283669D01*
X29639464Y-34156880D01*
X29641509Y-34154511D01*
X29738425Y-33983909D01*
X29742372Y-33972046D01*
X29744772Y-33964830D01*
X29776843Y-33927805D01*
X29825701Y-33924303D01*
X29862726Y-33956374D01*
X29869500Y-33985031D01*
X29869500Y-35700921D01*
X29850755Y-35746176D01*
X29805500Y-35764921D01*
X29760245Y-35746176D01*
X29748991Y-35730967D01*
X29658840Y-35561417D01*
X29658838Y-35561414D01*
X29657370Y-35558653D01*
X29533361Y-35406602D01*
X29382180Y-35281535D01*
X29209585Y-35188213D01*
X29206601Y-35187289D01*
X29206598Y-35187288D01*
X29025140Y-35131118D01*
X29025141Y-35131118D01*
X29022152Y-35130193D01*
X28827019Y-35109683D01*
X28823909Y-35109966D01*
X28823908Y-35109966D01*
X28785393Y-35113471D01*
X28631618Y-35127466D01*
X28623464Y-35129866D01*
X28446399Y-35181979D01*
X28446396Y-35181980D01*
X28443393Y-35182864D01*
X28430313Y-35189702D01*
X28272283Y-35272318D01*
X28272280Y-35272320D01*
X28269512Y-35273767D01*
X28116600Y-35396711D01*
X27990480Y-35547016D01*
X27982563Y-35561417D01*
X27905870Y-35700921D01*
X27895956Y-35718954D01*
X27895010Y-35721936D01*
X27879810Y-35769852D01*
X27848259Y-35807320D01*
X27818806Y-35814500D01*
X25789085Y-35814500D01*
X25760030Y-35807524D01*
X25679794Y-35766642D01*
X25679795Y-35766642D01*
X25675304Y-35764354D01*
X25550000Y-35744508D01*
X25424696Y-35764354D01*
X25311658Y-35821950D01*
X25221950Y-35911658D01*
X25164354Y-36024696D01*
X25144508Y-36150000D01*
X25164354Y-36275304D01*
X25221950Y-36388342D01*
X25311658Y-36478050D01*
X25424696Y-36535646D01*
X25550000Y-36555492D01*
X25675304Y-36535646D01*
X25788342Y-36478050D01*
X25832147Y-36434245D01*
X25877402Y-36415500D01*
X27817075Y-36415500D01*
X27862330Y-36434245D01*
X27878596Y-36461858D01*
X27885258Y-36485091D01*
X27974944Y-36659601D01*
X27976890Y-36662056D01*
X28087824Y-36802021D01*
X28096818Y-36813369D01*
X28099189Y-36815387D01*
X28099193Y-36815391D01*
X28225754Y-36923102D01*
X28246238Y-36940535D01*
X28248963Y-36942058D01*
X28248966Y-36942060D01*
X28284482Y-36961909D01*
X28417513Y-37036257D01*
X28420491Y-37037225D01*
X28420492Y-37037225D01*
X28601147Y-37095924D01*
X28601150Y-37095925D01*
X28604118Y-37096889D01*
X28798946Y-37120121D01*
X28802066Y-37119881D01*
X28802069Y-37119881D01*
X28991449Y-37105309D01*
X28991453Y-37105308D01*
X28994576Y-37105068D01*
X28997592Y-37104226D01*
X28997597Y-37104225D01*
X29180540Y-37053145D01*
X29180539Y-37053145D01*
X29183556Y-37052303D01*
X29221831Y-37032969D01*
X29355891Y-36965251D01*
X29355896Y-36965248D01*
X29358689Y-36963837D01*
X29386563Y-36942060D01*
X29435996Y-36903438D01*
X29513303Y-36843040D01*
X29541026Y-36810923D01*
X29639464Y-36696880D01*
X29641509Y-36694511D01*
X29719214Y-36557727D01*
X29736880Y-36526629D01*
X29736881Y-36526628D01*
X29738425Y-36523909D01*
X29744772Y-36504830D01*
X29776843Y-36467805D01*
X29825701Y-36464303D01*
X29862726Y-36496374D01*
X29869500Y-36525031D01*
X29869500Y-38240921D01*
X29850755Y-38286176D01*
X29805500Y-38304921D01*
X29760245Y-38286176D01*
X29748991Y-38270967D01*
X29658840Y-38101417D01*
X29658838Y-38101414D01*
X29657370Y-38098653D01*
X29533361Y-37946602D01*
X29382180Y-37821535D01*
X29209585Y-37728213D01*
X29206601Y-37727289D01*
X29206598Y-37727288D01*
X29025140Y-37671118D01*
X29025141Y-37671118D01*
X29022152Y-37670193D01*
X28827019Y-37649683D01*
X28823909Y-37649966D01*
X28823908Y-37649966D01*
X28785393Y-37653471D01*
X28631618Y-37667466D01*
X28623464Y-37669866D01*
X28446399Y-37721979D01*
X28446396Y-37721980D01*
X28443393Y-37722864D01*
X28430313Y-37729702D01*
X28272283Y-37812318D01*
X28272280Y-37812320D01*
X28269512Y-37813767D01*
X28116600Y-37936711D01*
X27990480Y-38087016D01*
X27982563Y-38101417D01*
X27903465Y-38245296D01*
X27895956Y-38258954D01*
X27895010Y-38261936D01*
X27879810Y-38309852D01*
X27848259Y-38347320D01*
X27818806Y-38354500D01*
X24197402Y-38354500D01*
X24152147Y-38335755D01*
X24138342Y-38321950D01*
X24025304Y-38264354D01*
X23900000Y-38244508D01*
X23774696Y-38264354D01*
X23661658Y-38321950D01*
X23571950Y-38411658D01*
X23514354Y-38524696D01*
X23494508Y-38650000D01*
X23514354Y-38775304D01*
X23571950Y-38888342D01*
X23661658Y-38978050D01*
X23774696Y-39035646D01*
X23900000Y-39055492D01*
X24025304Y-39035646D01*
X24138342Y-38978050D01*
X24142147Y-38974245D01*
X24142359Y-38974157D01*
X24145981Y-38971526D01*
X24146613Y-38972395D01*
X24187402Y-38955500D01*
X27817075Y-38955500D01*
X27862330Y-38974245D01*
X27878596Y-39001858D01*
X27885258Y-39025091D01*
X27974944Y-39199601D01*
X27976890Y-39202056D01*
X28063889Y-39311822D01*
X28096818Y-39353369D01*
X28099189Y-39355387D01*
X28099193Y-39355391D01*
X28239852Y-39475100D01*
X28246238Y-39480535D01*
X28248963Y-39482058D01*
X28248966Y-39482060D01*
X28414777Y-39574728D01*
X28417513Y-39576257D01*
X28420491Y-39577225D01*
X28420492Y-39577225D01*
X28601147Y-39635924D01*
X28601150Y-39635925D01*
X28604118Y-39636889D01*
X28798946Y-39660121D01*
X28802066Y-39659881D01*
X28802069Y-39659881D01*
X28991449Y-39645309D01*
X28991453Y-39645308D01*
X28994576Y-39645068D01*
X28997592Y-39644226D01*
X28997597Y-39644225D01*
X29180540Y-39593145D01*
X29180539Y-39593145D01*
X29183556Y-39592303D01*
X29270800Y-39548233D01*
X29355891Y-39505251D01*
X29355896Y-39505248D01*
X29358689Y-39503837D01*
X29386563Y-39482060D01*
X29510835Y-39384968D01*
X29513303Y-39383040D01*
X29527981Y-39366036D01*
X29639464Y-39236880D01*
X29641509Y-39234511D01*
X29734029Y-39071648D01*
X29736880Y-39066629D01*
X29736881Y-39066628D01*
X29738425Y-39063909D01*
X29740429Y-39057887D01*
X29744772Y-39044830D01*
X29776843Y-39007805D01*
X29825701Y-39004303D01*
X29862726Y-39036374D01*
X29869500Y-39065031D01*
X29869500Y-40780921D01*
X29850755Y-40826176D01*
X29805500Y-40844921D01*
X29760245Y-40826176D01*
X29748991Y-40810967D01*
X29658840Y-40641417D01*
X29658838Y-40641414D01*
X29657370Y-40638653D01*
X29533361Y-40486602D01*
X29382180Y-40361535D01*
X29209585Y-40268213D01*
X29206601Y-40267289D01*
X29206598Y-40267288D01*
X29025140Y-40211118D01*
X29025141Y-40211118D01*
X29022152Y-40210193D01*
X28827019Y-40189683D01*
X28823909Y-40189966D01*
X28823908Y-40189966D01*
X28785393Y-40193471D01*
X28631618Y-40207466D01*
X28623464Y-40209866D01*
X28446399Y-40261979D01*
X28446396Y-40261980D01*
X28443393Y-40262864D01*
X28399320Y-40285905D01*
X28272283Y-40352318D01*
X28272280Y-40352320D01*
X28269512Y-40353767D01*
X28116600Y-40476711D01*
X27990480Y-40627016D01*
X27982563Y-40641417D01*
X27905870Y-40780921D01*
X27895956Y-40798954D01*
X27895010Y-40801936D01*
X27879810Y-40849852D01*
X27848259Y-40887320D01*
X27818806Y-40894500D01*
X24987402Y-40894500D01*
X24946613Y-40877605D01*
X24945981Y-40878474D01*
X24942359Y-40875843D01*
X24942147Y-40875755D01*
X24938342Y-40871950D01*
X24825304Y-40814354D01*
X24700000Y-40794508D01*
X24574696Y-40814354D01*
X24461658Y-40871950D01*
X24371950Y-40961658D01*
X24314354Y-41074696D01*
X24294508Y-41200000D01*
X24314354Y-41325304D01*
X24371950Y-41438342D01*
X24461658Y-41528050D01*
X24574696Y-41585646D01*
X24700000Y-41605492D01*
X24825304Y-41585646D01*
X24938342Y-41528050D01*
X24952147Y-41514245D01*
X24997402Y-41495500D01*
X27817075Y-41495500D01*
X27862330Y-41514245D01*
X27878596Y-41541858D01*
X27885258Y-41565091D01*
X27906021Y-41605492D01*
X27971334Y-41732576D01*
X27974944Y-41739601D01*
X27976890Y-41742056D01*
X28086540Y-41880401D01*
X28096818Y-41893369D01*
X28099189Y-41895387D01*
X28099193Y-41895391D01*
X28192208Y-41974552D01*
X28246238Y-42020535D01*
X28248963Y-42022058D01*
X28248966Y-42022060D01*
X28414777Y-42114728D01*
X28417513Y-42116257D01*
X28420491Y-42117225D01*
X28420492Y-42117225D01*
X28601147Y-42175924D01*
X28601150Y-42175925D01*
X28604118Y-42176889D01*
X28798946Y-42200121D01*
X28802066Y-42199881D01*
X28802069Y-42199881D01*
X28991449Y-42185309D01*
X28991453Y-42185308D01*
X28994576Y-42185068D01*
X28997592Y-42184226D01*
X28997597Y-42184225D01*
X29180540Y-42133145D01*
X29180539Y-42133145D01*
X29183556Y-42132303D01*
X29218349Y-42114728D01*
X29355891Y-42045251D01*
X29355896Y-42045248D01*
X29358689Y-42043837D01*
X29383477Y-42024471D01*
X29510835Y-41924968D01*
X29513303Y-41923040D01*
X29515384Y-41920630D01*
X29639464Y-41776880D01*
X29641509Y-41774511D01*
X29738425Y-41603909D01*
X29744501Y-41585646D01*
X29744772Y-41584830D01*
X29776843Y-41547805D01*
X29825701Y-41544303D01*
X29862726Y-41576374D01*
X29869500Y-41605031D01*
X29869500Y-43320921D01*
X29850755Y-43366176D01*
X29805500Y-43384921D01*
X29760245Y-43366176D01*
X29748991Y-43350967D01*
X29658840Y-43181417D01*
X29658838Y-43181414D01*
X29657370Y-43178653D01*
X29533361Y-43026602D01*
X29521183Y-43016527D01*
X29443117Y-42951946D01*
X29382180Y-42901535D01*
X29209585Y-42808213D01*
X29206601Y-42807289D01*
X29206598Y-42807288D01*
X29025140Y-42751118D01*
X29025141Y-42751118D01*
X29022152Y-42750193D01*
X28827019Y-42729683D01*
X28823909Y-42729966D01*
X28823908Y-42729966D01*
X28785393Y-42733471D01*
X28631618Y-42747466D01*
X28623464Y-42749866D01*
X28446399Y-42801979D01*
X28446396Y-42801980D01*
X28443393Y-42802864D01*
X28430313Y-42809702D01*
X28272283Y-42892318D01*
X28272280Y-42892320D01*
X28269512Y-42893767D01*
X28116600Y-43016711D01*
X27990480Y-43167016D01*
X27982563Y-43181417D01*
X27905647Y-43321327D01*
X27895956Y-43338954D01*
X27895010Y-43341936D01*
X27879810Y-43389852D01*
X27848259Y-43427320D01*
X27818806Y-43434500D01*
X25825070Y-43434500D01*
X25789258Y-43422866D01*
X25788342Y-43421950D01*
X25675304Y-43364354D01*
X25550000Y-43344508D01*
X25424696Y-43364354D01*
X25311658Y-43421950D01*
X25221950Y-43511658D01*
X25199519Y-43555681D01*
X25182024Y-43590017D01*
X25144777Y-43621830D01*
X25095945Y-43617986D01*
X25067976Y-43590017D01*
X25050481Y-43555681D01*
X25028050Y-43511658D01*
X24938342Y-43421950D01*
X24825304Y-43364354D01*
X24700000Y-43344508D01*
X24574696Y-43364354D01*
X24461658Y-43421950D01*
X24460742Y-43422866D01*
X24424930Y-43434500D01*
X22201954Y-43434500D01*
X22156699Y-43415755D01*
X22140687Y-43389000D01*
X22129484Y-43351894D01*
X22128019Y-43349138D01*
X22128017Y-43349134D01*
X22038840Y-43181417D01*
X22038838Y-43181414D01*
X22037370Y-43178653D01*
X21913361Y-43026602D01*
X21901183Y-43016527D01*
X21823117Y-42951946D01*
X21762180Y-42901535D01*
X21589585Y-42808213D01*
X21586601Y-42807289D01*
X21586598Y-42807288D01*
X21405140Y-42751118D01*
X21405141Y-42751118D01*
X21402152Y-42750193D01*
X21207019Y-42729683D01*
X21203909Y-42729966D01*
X21203908Y-42729966D01*
X21165393Y-42733471D01*
X21011618Y-42747466D01*
X21003464Y-42749866D01*
X20826399Y-42801979D01*
X20826396Y-42801980D01*
X20823393Y-42802864D01*
X20810313Y-42809702D01*
X20652283Y-42892318D01*
X20652280Y-42892320D01*
X20649512Y-42893767D01*
X20496600Y-43016711D01*
X20370480Y-43167016D01*
X20362563Y-43181417D01*
X20285647Y-43321327D01*
X20275956Y-43338954D01*
X20275010Y-43341936D01*
X20221171Y-43511658D01*
X20216628Y-43525978D01*
X20194757Y-43720963D01*
X20211175Y-43916483D01*
X20212036Y-43919485D01*
X20263855Y-44100197D01*
X20265258Y-44105091D01*
X20354944Y-44279601D01*
X20401529Y-44338377D01*
X20421875Y-44364047D01*
X20476818Y-44433369D01*
X20479189Y-44435387D01*
X20479193Y-44435391D01*
X20615638Y-44551514D01*
X20626238Y-44560535D01*
X20628963Y-44562058D01*
X20628966Y-44562060D01*
X20748409Y-44628814D01*
X20797513Y-44656257D01*
X20800491Y-44657225D01*
X20800492Y-44657225D01*
X20981147Y-44715924D01*
X20981150Y-44715925D01*
X20984118Y-44716889D01*
X21178946Y-44740121D01*
X21182066Y-44739881D01*
X21182069Y-44739881D01*
X21371449Y-44725309D01*
X21371453Y-44725308D01*
X21374576Y-44725068D01*
X21377592Y-44724226D01*
X21377597Y-44724225D01*
X21560540Y-44673145D01*
X21560539Y-44673145D01*
X21563556Y-44672303D01*
X21598349Y-44654728D01*
X21735891Y-44585251D01*
X21735896Y-44585248D01*
X21738689Y-44583837D01*
X21766563Y-44562060D01*
X21890835Y-44464968D01*
X21893303Y-44463040D01*
X21911425Y-44442046D01*
X22019464Y-44316880D01*
X22021509Y-44314511D01*
X22118425Y-44143909D01*
X22131532Y-44104510D01*
X22139918Y-44079299D01*
X22171989Y-44042274D01*
X22200646Y-44035500D01*
X24392598Y-44035500D01*
X24437853Y-44054245D01*
X24461658Y-44078050D01*
X24574696Y-44135646D01*
X24700000Y-44155492D01*
X24825304Y-44135646D01*
X24938342Y-44078050D01*
X25028050Y-43988342D01*
X25067976Y-43909983D01*
X25105223Y-43878170D01*
X25154055Y-43882014D01*
X25182024Y-43909983D01*
X25221950Y-43988342D01*
X25311658Y-44078050D01*
X25424696Y-44135646D01*
X25550000Y-44155492D01*
X25675304Y-44135646D01*
X25788342Y-44078050D01*
X25812147Y-44054245D01*
X25857402Y-44035500D01*
X27817075Y-44035500D01*
X27862330Y-44054245D01*
X27878596Y-44081858D01*
X27885258Y-44105091D01*
X27974944Y-44279601D01*
X28021529Y-44338377D01*
X28041875Y-44364047D01*
X28096818Y-44433369D01*
X28099189Y-44435387D01*
X28099193Y-44435391D01*
X28235638Y-44551514D01*
X28246238Y-44560535D01*
X28248963Y-44562058D01*
X28248966Y-44562060D01*
X28368409Y-44628814D01*
X28417513Y-44656257D01*
X28420491Y-44657225D01*
X28420492Y-44657225D01*
X28601147Y-44715924D01*
X28601150Y-44715925D01*
X28604118Y-44716889D01*
X28798946Y-44740121D01*
X28802066Y-44739881D01*
X28802069Y-44739881D01*
X28991449Y-44725309D01*
X28991453Y-44725308D01*
X28994576Y-44725068D01*
X28997592Y-44724226D01*
X28997597Y-44724225D01*
X29180540Y-44673145D01*
X29180539Y-44673145D01*
X29183556Y-44672303D01*
X29218349Y-44654728D01*
X29355891Y-44585251D01*
X29355896Y-44585248D01*
X29358689Y-44583837D01*
X29386563Y-44562060D01*
X29510835Y-44464968D01*
X29513303Y-44463040D01*
X29531425Y-44442046D01*
X29639464Y-44316880D01*
X29641509Y-44314511D01*
X29738425Y-44143909D01*
X29744772Y-44124830D01*
X29776843Y-44087805D01*
X29825701Y-44084303D01*
X29862726Y-44116374D01*
X29869500Y-44145031D01*
X29869500Y-45860921D01*
X29850755Y-45906176D01*
X29805500Y-45924921D01*
X29760245Y-45906176D01*
X29748991Y-45890967D01*
X29744195Y-45881946D01*
X29716635Y-45830114D01*
X29658840Y-45721417D01*
X29658838Y-45721414D01*
X29657370Y-45718653D01*
X29533361Y-45566602D01*
X29382180Y-45441535D01*
X29209585Y-45348213D01*
X29206601Y-45347289D01*
X29206598Y-45347288D01*
X29025140Y-45291118D01*
X29025141Y-45291118D01*
X29022152Y-45290193D01*
X28827019Y-45269683D01*
X28823909Y-45269966D01*
X28823908Y-45269966D01*
X28785393Y-45273471D01*
X28631618Y-45287466D01*
X28623464Y-45289866D01*
X28446399Y-45341979D01*
X28446396Y-45341980D01*
X28443393Y-45342864D01*
X28430313Y-45349702D01*
X28272283Y-45432318D01*
X28272280Y-45432320D01*
X28269512Y-45433767D01*
X28116600Y-45556711D01*
X27990480Y-45707016D01*
X27982563Y-45721417D01*
X27905870Y-45860921D01*
X27895956Y-45878954D01*
X27895010Y-45881936D01*
X27879810Y-45929852D01*
X27848259Y-45967320D01*
X27818806Y-45974500D01*
X24958711Y-45974500D01*
X24929656Y-45967524D01*
X24846043Y-45924921D01*
X24825304Y-45914354D01*
X24700000Y-45894508D01*
X24574696Y-45914354D01*
X24461658Y-45971950D01*
X24371950Y-46061658D01*
X24314354Y-46174696D01*
X24294508Y-46300000D01*
X24314354Y-46425304D01*
X24371950Y-46538342D01*
X24461658Y-46628050D01*
X24574696Y-46685646D01*
X24700000Y-46705492D01*
X24825304Y-46685646D01*
X24938342Y-46628050D01*
X24972147Y-46594245D01*
X25017402Y-46575500D01*
X27817075Y-46575500D01*
X27862330Y-46594245D01*
X27878596Y-46621858D01*
X27885258Y-46645091D01*
X27974944Y-46819601D01*
X27976890Y-46822056D01*
X28093602Y-46969311D01*
X28096818Y-46973369D01*
X28099189Y-46975387D01*
X28099193Y-46975391D01*
X28234147Y-47090245D01*
X28246238Y-47100535D01*
X28248963Y-47102058D01*
X28248966Y-47102060D01*
X28389775Y-47180755D01*
X28417513Y-47196257D01*
X28420491Y-47197225D01*
X28420492Y-47197225D01*
X28601147Y-47255924D01*
X28601150Y-47255925D01*
X28604118Y-47256889D01*
X28798946Y-47280121D01*
X28802066Y-47279881D01*
X28802069Y-47279881D01*
X28991449Y-47265309D01*
X28991453Y-47265308D01*
X28994576Y-47265068D01*
X28997592Y-47264226D01*
X28997597Y-47264225D01*
X29180540Y-47213145D01*
X29180539Y-47213145D01*
X29183556Y-47212303D01*
X29218349Y-47194728D01*
X29355891Y-47125251D01*
X29355896Y-47125248D01*
X29358689Y-47123837D01*
X29371836Y-47113566D01*
X29435996Y-47063438D01*
X29513303Y-47003040D01*
X29541026Y-46970923D01*
X29639464Y-46856880D01*
X29641509Y-46854511D01*
X29705690Y-46741532D01*
X29736880Y-46686629D01*
X29736881Y-46686628D01*
X29738425Y-46683909D01*
X29744423Y-46665880D01*
X29744772Y-46664830D01*
X29776843Y-46627805D01*
X29825701Y-46624303D01*
X29862726Y-46656374D01*
X29869500Y-46685031D01*
X29869500Y-48400921D01*
X29850755Y-48446176D01*
X29805500Y-48464921D01*
X29760245Y-48446176D01*
X29748991Y-48430967D01*
X29744195Y-48421946D01*
X29716635Y-48370114D01*
X29658840Y-48261417D01*
X29658838Y-48261414D01*
X29657370Y-48258653D01*
X29533361Y-48106602D01*
X29382180Y-47981535D01*
X29209585Y-47888213D01*
X29206601Y-47887289D01*
X29206598Y-47887288D01*
X29025140Y-47831118D01*
X29025141Y-47831118D01*
X29022152Y-47830193D01*
X28827019Y-47809683D01*
X28823909Y-47809966D01*
X28823908Y-47809966D01*
X28786209Y-47813397D01*
X28631618Y-47827466D01*
X28561562Y-47848085D01*
X28446399Y-47881979D01*
X28446396Y-47881980D01*
X28443393Y-47882864D01*
X28430313Y-47889702D01*
X28272283Y-47972318D01*
X28272280Y-47972320D01*
X28269512Y-47973767D01*
X28116600Y-48096711D01*
X27990480Y-48247016D01*
X27954343Y-48312748D01*
X27905870Y-48400921D01*
X27895956Y-48418954D01*
X27895010Y-48421936D01*
X27879810Y-48469852D01*
X27848259Y-48507320D01*
X27818806Y-48514500D01*
X26657402Y-48514500D01*
X26612147Y-48495755D01*
X26588342Y-48471950D01*
X26475304Y-48414354D01*
X26350000Y-48394508D01*
X26224696Y-48414354D01*
X26111658Y-48471950D01*
X26021950Y-48561658D01*
X25964354Y-48674696D01*
X25944508Y-48800000D01*
X25964354Y-48925304D01*
X26021950Y-49038342D01*
X26111658Y-49128050D01*
X26224696Y-49185646D01*
X26350000Y-49205492D01*
X26475304Y-49185646D01*
X26588342Y-49128050D01*
X26589258Y-49127134D01*
X26625070Y-49115500D01*
X27817075Y-49115500D01*
X27862330Y-49134245D01*
X27878596Y-49161858D01*
X27885258Y-49185091D01*
X27910820Y-49234830D01*
X27971372Y-49352650D01*
X27974944Y-49359601D01*
X27976890Y-49362056D01*
X28093602Y-49509311D01*
X28096818Y-49513369D01*
X28099189Y-49515387D01*
X28099193Y-49515391D01*
X28169226Y-49574993D01*
X28246238Y-49640535D01*
X28248963Y-49642058D01*
X28248966Y-49642060D01*
X28282777Y-49660956D01*
X28417513Y-49736257D01*
X28420491Y-49737225D01*
X28420492Y-49737225D01*
X28601147Y-49795924D01*
X28601150Y-49795925D01*
X28604118Y-49796889D01*
X28798946Y-49820121D01*
X28802066Y-49819881D01*
X28802069Y-49819881D01*
X28991449Y-49805309D01*
X28991453Y-49805308D01*
X28994576Y-49805068D01*
X28997592Y-49804226D01*
X28997597Y-49804225D01*
X29180540Y-49753145D01*
X29180539Y-49753145D01*
X29183556Y-49752303D01*
X29222876Y-49732441D01*
X29355891Y-49665251D01*
X29355896Y-49665248D01*
X29358689Y-49663837D01*
X29386563Y-49642060D01*
X29476044Y-49572150D01*
X29513303Y-49543040D01*
X29541026Y-49510923D01*
X29624255Y-49414500D01*
X29641509Y-49394511D01*
X29702626Y-49286926D01*
X29736880Y-49226629D01*
X29736881Y-49226628D01*
X29738425Y-49223909D01*
X29744772Y-49204830D01*
X29776843Y-49167805D01*
X29825701Y-49164303D01*
X29862726Y-49196374D01*
X29869500Y-49225031D01*
X29869500Y-51111697D01*
X29850755Y-51156952D01*
X29805500Y-51175697D01*
X29758163Y-51154770D01*
X29725308Y-51118663D01*
X29721484Y-51115096D01*
X29543899Y-50974848D01*
X29539555Y-50971962D01*
X29341446Y-50862600D01*
X29336677Y-50860457D01*
X29123378Y-50784924D01*
X29118312Y-50783586D01*
X29026533Y-50767237D01*
X29017018Y-50769329D01*
X29014000Y-50774048D01*
X29014000Y-53524314D01*
X29017728Y-53533315D01*
X29023722Y-53535798D01*
X29051138Y-53532286D01*
X29056255Y-53531198D01*
X29272997Y-53466173D01*
X29277861Y-53464267D01*
X29481069Y-53364716D01*
X29485567Y-53362035D01*
X29669785Y-53230633D01*
X29673773Y-53227263D01*
X29760324Y-53141014D01*
X29805612Y-53122348D01*
X29850834Y-53141172D01*
X29869500Y-53186348D01*
X29869500Y-64805500D01*
X29850755Y-64850755D01*
X29805500Y-64869500D01*
X194500Y-64869500D01*
X149245Y-64850755D01*
X130500Y-64805500D01*
X130500Y-62000000D01*
X1364458Y-62000000D01*
X1384594Y-62255855D01*
X1385178Y-62258289D01*
X1385179Y-62258293D01*
X1421490Y-62409536D01*
X1444507Y-62505410D01*
X1542721Y-62742521D01*
X1544033Y-62744662D01*
X1544034Y-62744664D01*
X1583358Y-62808834D01*
X1676819Y-62961347D01*
X1843497Y-63156503D01*
X2038653Y-63323181D01*
X2257479Y-63457279D01*
X2494590Y-63555493D01*
X2497028Y-63556078D01*
X2497027Y-63556078D01*
X2741707Y-63614821D01*
X2741711Y-63614822D01*
X2744145Y-63615406D01*
X2746644Y-63615603D01*
X2746646Y-63615603D01*
X2997497Y-63635345D01*
X3000000Y-63635542D01*
X3002503Y-63635345D01*
X3253354Y-63615603D01*
X3253356Y-63615603D01*
X3255855Y-63615406D01*
X3258289Y-63614822D01*
X3258293Y-63614821D01*
X3502973Y-63556078D01*
X3502972Y-63556078D01*
X3505410Y-63555493D01*
X3742521Y-63457279D01*
X3961347Y-63323181D01*
X4156503Y-63156503D01*
X4323181Y-62961347D01*
X4416642Y-62808834D01*
X4455966Y-62744664D01*
X4455967Y-62744662D01*
X4457279Y-62742521D01*
X4555493Y-62505410D01*
X4562370Y-62476765D01*
X7027049Y-62476765D01*
X7031696Y-62487020D01*
X7050889Y-62503852D01*
X7054215Y-62506404D01*
X7296832Y-62668515D01*
X7300458Y-62670608D01*
X7562168Y-62799669D01*
X7566028Y-62801268D01*
X7842359Y-62895070D01*
X7846382Y-62896148D01*
X8132584Y-62953077D01*
X8136727Y-62953623D01*
X8427910Y-62972708D01*
X8432090Y-62972708D01*
X8723273Y-62953623D01*
X8727416Y-62953077D01*
X9013618Y-62896148D01*
X9017641Y-62895070D01*
X9293972Y-62801268D01*
X9297832Y-62799669D01*
X9559542Y-62670608D01*
X9563168Y-62668515D01*
X9805785Y-62506404D01*
X9809111Y-62503852D01*
X9829124Y-62486301D01*
X9832888Y-62478670D01*
X9832171Y-62476765D01*
X20167049Y-62476765D01*
X20171696Y-62487020D01*
X20190889Y-62503852D01*
X20194215Y-62506404D01*
X20436832Y-62668515D01*
X20440458Y-62670608D01*
X20702168Y-62799669D01*
X20706028Y-62801268D01*
X20982359Y-62895070D01*
X20986382Y-62896148D01*
X21272584Y-62953077D01*
X21276727Y-62953623D01*
X21567910Y-62972708D01*
X21572090Y-62972708D01*
X21863273Y-62953623D01*
X21867416Y-62953077D01*
X22153618Y-62896148D01*
X22157641Y-62895070D01*
X22433972Y-62801268D01*
X22437832Y-62799669D01*
X22699542Y-62670608D01*
X22703168Y-62668515D01*
X22945785Y-62506404D01*
X22949111Y-62503852D01*
X22969124Y-62486301D01*
X22972888Y-62478670D01*
X22968922Y-62468133D01*
X21579000Y-61078210D01*
X21570000Y-61074482D01*
X21561000Y-61078210D01*
X20170304Y-62468907D01*
X20167049Y-62476765D01*
X9832171Y-62476765D01*
X9828922Y-62468133D01*
X8439000Y-61078210D01*
X8430000Y-61074482D01*
X8421000Y-61078210D01*
X7030304Y-62468907D01*
X7027049Y-62476765D01*
X4562370Y-62476765D01*
X4578510Y-62409536D01*
X4614821Y-62258293D01*
X4614822Y-62258289D01*
X4615406Y-62255855D01*
X4635542Y-62000000D01*
X4615406Y-61744145D01*
X4555493Y-61494590D01*
X4457279Y-61257479D01*
X4323181Y-61038653D01*
X4156503Y-60843497D01*
X4002644Y-60712090D01*
X6167292Y-60712090D01*
X6186377Y-61003273D01*
X6186923Y-61007416D01*
X6243852Y-61293618D01*
X6244930Y-61297641D01*
X6338733Y-61573977D01*
X6340327Y-61577825D01*
X6469392Y-61839543D01*
X6471486Y-61843169D01*
X6633596Y-62085785D01*
X6636148Y-62089111D01*
X6653699Y-62109124D01*
X6661330Y-62112888D01*
X6671867Y-62108922D01*
X8061790Y-60719000D01*
X8065518Y-60710000D01*
X8794482Y-60710000D01*
X8798210Y-60719000D01*
X10188907Y-62109696D01*
X10196765Y-62112951D01*
X10207020Y-62108304D01*
X10223852Y-62089111D01*
X10226404Y-62085785D01*
X10388514Y-61843169D01*
X10390608Y-61839543D01*
X10519673Y-61577825D01*
X10521267Y-61573977D01*
X10615070Y-61297641D01*
X10616148Y-61293618D01*
X10673077Y-61007416D01*
X10673623Y-61003273D01*
X10692708Y-60712090D01*
X19307292Y-60712090D01*
X19326377Y-61003273D01*
X19326923Y-61007416D01*
X19383852Y-61293618D01*
X19384930Y-61297641D01*
X19478733Y-61573977D01*
X19480327Y-61577825D01*
X19609392Y-61839543D01*
X19611486Y-61843169D01*
X19773596Y-62085785D01*
X19776148Y-62089111D01*
X19793699Y-62109124D01*
X19801330Y-62112888D01*
X19811867Y-62108922D01*
X21201790Y-60719000D01*
X21205518Y-60710000D01*
X21934482Y-60710000D01*
X21938210Y-60719000D01*
X23328907Y-62109696D01*
X23336765Y-62112951D01*
X23347020Y-62108304D01*
X23363852Y-62089111D01*
X23366404Y-62085785D01*
X23423723Y-62000000D01*
X25364458Y-62000000D01*
X25384594Y-62255855D01*
X25385178Y-62258289D01*
X25385179Y-62258293D01*
X25421490Y-62409536D01*
X25444507Y-62505410D01*
X25542721Y-62742521D01*
X25544033Y-62744662D01*
X25544034Y-62744664D01*
X25583358Y-62808834D01*
X25676819Y-62961347D01*
X25843497Y-63156503D01*
X26038653Y-63323181D01*
X26257479Y-63457279D01*
X26494590Y-63555493D01*
X26497028Y-63556078D01*
X26497027Y-63556078D01*
X26741707Y-63614821D01*
X26741711Y-63614822D01*
X26744145Y-63615406D01*
X26746644Y-63615603D01*
X26746646Y-63615603D01*
X26997497Y-63635345D01*
X27000000Y-63635542D01*
X27002503Y-63635345D01*
X27253354Y-63615603D01*
X27253356Y-63615603D01*
X27255855Y-63615406D01*
X27258289Y-63614822D01*
X27258293Y-63614821D01*
X27502973Y-63556078D01*
X27502972Y-63556078D01*
X27505410Y-63555493D01*
X27742521Y-63457279D01*
X27961347Y-63323181D01*
X28156503Y-63156503D01*
X28323181Y-62961347D01*
X28416642Y-62808834D01*
X28455966Y-62744664D01*
X28455967Y-62744662D01*
X28457279Y-62742521D01*
X28555493Y-62505410D01*
X28578510Y-62409536D01*
X28614821Y-62258293D01*
X28614822Y-62258289D01*
X28615406Y-62255855D01*
X28635542Y-62000000D01*
X28615406Y-61744145D01*
X28555493Y-61494590D01*
X28457279Y-61257479D01*
X28323181Y-61038653D01*
X28156503Y-60843497D01*
X27961347Y-60676819D01*
X27742521Y-60542721D01*
X27505410Y-60444507D01*
X27456569Y-60432781D01*
X27258293Y-60385179D01*
X27258289Y-60385178D01*
X27255855Y-60384594D01*
X27253356Y-60384397D01*
X27253354Y-60384397D01*
X27002503Y-60364655D01*
X27000000Y-60364458D01*
X26997497Y-60364655D01*
X26746646Y-60384397D01*
X26746644Y-60384397D01*
X26744145Y-60384594D01*
X26741711Y-60385178D01*
X26741707Y-60385179D01*
X26543431Y-60432781D01*
X26494590Y-60444507D01*
X26257479Y-60542721D01*
X26038653Y-60676819D01*
X25843497Y-60843497D01*
X25676819Y-61038653D01*
X25542721Y-61257479D01*
X25444507Y-61494590D01*
X25384594Y-61744145D01*
X25384397Y-61746644D01*
X25384397Y-61746646D01*
X25367091Y-61966540D01*
X25364458Y-62000000D01*
X23423723Y-62000000D01*
X23528514Y-61843169D01*
X23530608Y-61839543D01*
X23659673Y-61577825D01*
X23661267Y-61573977D01*
X23755070Y-61297641D01*
X23756148Y-61293618D01*
X23813077Y-61007416D01*
X23813623Y-61003273D01*
X23832708Y-60712090D01*
X23832708Y-60707910D01*
X23813623Y-60416727D01*
X23813077Y-60412584D01*
X23756148Y-60126382D01*
X23755070Y-60122359D01*
X23661267Y-59846023D01*
X23659673Y-59842175D01*
X23530608Y-59580457D01*
X23528514Y-59576831D01*
X23366404Y-59334215D01*
X23363852Y-59330889D01*
X23346301Y-59310876D01*
X23338670Y-59307112D01*
X23328133Y-59311078D01*
X21938210Y-60701000D01*
X21934482Y-60710000D01*
X21205518Y-60710000D01*
X21201790Y-60701000D01*
X19811093Y-59310304D01*
X19803235Y-59307049D01*
X19792980Y-59311696D01*
X19776148Y-59330889D01*
X19773596Y-59334215D01*
X19611486Y-59576831D01*
X19609392Y-59580457D01*
X19480327Y-59842175D01*
X19478733Y-59846023D01*
X19384930Y-60122359D01*
X19383852Y-60126382D01*
X19326923Y-60412584D01*
X19326377Y-60416727D01*
X19307292Y-60707910D01*
X19307292Y-60712090D01*
X10692708Y-60712090D01*
X10692708Y-60707910D01*
X10673623Y-60416727D01*
X10673077Y-60412584D01*
X10616148Y-60126382D01*
X10615070Y-60122359D01*
X10521267Y-59846023D01*
X10519673Y-59842175D01*
X10390608Y-59580457D01*
X10388514Y-59576831D01*
X10226404Y-59334215D01*
X10223852Y-59330889D01*
X10206301Y-59310876D01*
X10198670Y-59307112D01*
X10188133Y-59311078D01*
X8798210Y-60701000D01*
X8794482Y-60710000D01*
X8065518Y-60710000D01*
X8061790Y-60701000D01*
X6671093Y-59310304D01*
X6663235Y-59307049D01*
X6652980Y-59311696D01*
X6636148Y-59330889D01*
X6633596Y-59334215D01*
X6471486Y-59576831D01*
X6469392Y-59580457D01*
X6340327Y-59842175D01*
X6338733Y-59846023D01*
X6244930Y-60122359D01*
X6243852Y-60126382D01*
X6186923Y-60412584D01*
X6186377Y-60416727D01*
X6167292Y-60707910D01*
X6167292Y-60712090D01*
X4002644Y-60712090D01*
X3961347Y-60676819D01*
X3742521Y-60542721D01*
X3505410Y-60444507D01*
X3456569Y-60432781D01*
X3258293Y-60385179D01*
X3258289Y-60385178D01*
X3255855Y-60384594D01*
X3253356Y-60384397D01*
X3253354Y-60384397D01*
X3002503Y-60364655D01*
X3000000Y-60364458D01*
X2997497Y-60364655D01*
X2746646Y-60384397D01*
X2746644Y-60384397D01*
X2744145Y-60384594D01*
X2741711Y-60385178D01*
X2741707Y-60385179D01*
X2543431Y-60432781D01*
X2494590Y-60444507D01*
X2257479Y-60542721D01*
X2038653Y-60676819D01*
X1843497Y-60843497D01*
X1676819Y-61038653D01*
X1542721Y-61257479D01*
X1444507Y-61494590D01*
X1384594Y-61744145D01*
X1384397Y-61746644D01*
X1384397Y-61746646D01*
X1367091Y-61966540D01*
X1364458Y-62000000D01*
X130500Y-62000000D01*
X130500Y-58941330D01*
X7027112Y-58941330D01*
X7031078Y-58951867D01*
X8421000Y-60341790D01*
X8430000Y-60345518D01*
X8439000Y-60341790D01*
X9729590Y-59051199D01*
X17813284Y-59051199D01*
X17815438Y-59056399D01*
X17866312Y-59092021D01*
X17871125Y-59094800D01*
X18065564Y-59185469D01*
X18070797Y-59187373D01*
X18278011Y-59242895D01*
X18283507Y-59243864D01*
X18497211Y-59262561D01*
X18502789Y-59262561D01*
X18716493Y-59243864D01*
X18721989Y-59242895D01*
X18929203Y-59187373D01*
X18934436Y-59185469D01*
X19128875Y-59094800D01*
X19133688Y-59092021D01*
X19181560Y-59058501D01*
X19186795Y-59050283D01*
X19185577Y-59044788D01*
X19082119Y-58941330D01*
X20167112Y-58941330D01*
X20171078Y-58951867D01*
X21561000Y-60341790D01*
X21570000Y-60345518D01*
X21579000Y-60341790D01*
X22969696Y-58951093D01*
X22972951Y-58943235D01*
X22968304Y-58932980D01*
X22949111Y-58916148D01*
X22945785Y-58913596D01*
X22703168Y-58751485D01*
X22699542Y-58749392D01*
X22437832Y-58620331D01*
X22433972Y-58618732D01*
X22157641Y-58524930D01*
X22153618Y-58523852D01*
X21867416Y-58466923D01*
X21863273Y-58466377D01*
X21572090Y-58447292D01*
X21567910Y-58447292D01*
X21276727Y-58466377D01*
X21272584Y-58466923D01*
X20986382Y-58523852D01*
X20982359Y-58524930D01*
X20706023Y-58618733D01*
X20702175Y-58620327D01*
X20440457Y-58749392D01*
X20436831Y-58751486D01*
X20194215Y-58913596D01*
X20190889Y-58916148D01*
X20170876Y-58933699D01*
X20167112Y-58941330D01*
X19082119Y-58941330D01*
X18509000Y-58368210D01*
X18500000Y-58364482D01*
X18491000Y-58368210D01*
X17817012Y-59042199D01*
X17813284Y-59051199D01*
X9729590Y-59051199D01*
X9829696Y-58951093D01*
X9832951Y-58943235D01*
X9828304Y-58932980D01*
X9809111Y-58916148D01*
X9805785Y-58913596D01*
X9563168Y-58751485D01*
X9559542Y-58749392D01*
X9297832Y-58620331D01*
X9293972Y-58618732D01*
X9017641Y-58524930D01*
X9013618Y-58523852D01*
X8727416Y-58466923D01*
X8723273Y-58466377D01*
X8432090Y-58447292D01*
X8427910Y-58447292D01*
X8136727Y-58466377D01*
X8132584Y-58466923D01*
X7846382Y-58523852D01*
X7842359Y-58524930D01*
X7566023Y-58618733D01*
X7562175Y-58620327D01*
X7300457Y-58749392D01*
X7296831Y-58751486D01*
X7054215Y-58913596D01*
X7050889Y-58916148D01*
X7030876Y-58933699D01*
X7027112Y-58941330D01*
X130500Y-58941330D01*
X130500Y-57600000D01*
X5694540Y-57600000D01*
X5694891Y-57603340D01*
X5713827Y-57783507D01*
X5714326Y-57788256D01*
X5715360Y-57791438D01*
X5715361Y-57791443D01*
X5741488Y-57871853D01*
X5772821Y-57968284D01*
X5867467Y-58132216D01*
X5869709Y-58134706D01*
X5869712Y-58134710D01*
X5936146Y-58208492D01*
X5994129Y-58272888D01*
X6147270Y-58384151D01*
X6163089Y-58391194D01*
X6317137Y-58459782D01*
X6317140Y-58459783D01*
X6320197Y-58461144D01*
X6505354Y-58500500D01*
X6694646Y-58500500D01*
X6879803Y-58461144D01*
X6882860Y-58459783D01*
X6882863Y-58459782D01*
X7036911Y-58391194D01*
X7052730Y-58384151D01*
X7205871Y-58272888D01*
X7263854Y-58208492D01*
X7330288Y-58134710D01*
X7330291Y-58134706D01*
X7332533Y-58132216D01*
X7416567Y-57986665D01*
X10544994Y-57986665D01*
X10560592Y-58172414D01*
X10611971Y-58351595D01*
X10629404Y-58385515D01*
X10688140Y-58499802D01*
X10697176Y-58517385D01*
X10812959Y-58663468D01*
X10815330Y-58665486D01*
X10815334Y-58665490D01*
X10848345Y-58693584D01*
X10954912Y-58784279D01*
X10957637Y-58785802D01*
X10957640Y-58785804D01*
X11114891Y-58873688D01*
X11117627Y-58875217D01*
X11120605Y-58876185D01*
X11120606Y-58876185D01*
X11291936Y-58931854D01*
X11291939Y-58931855D01*
X11294907Y-58932819D01*
X11479998Y-58954890D01*
X11483118Y-58954650D01*
X11483121Y-58954650D01*
X11662724Y-58940830D01*
X11662728Y-58940829D01*
X11665851Y-58940589D01*
X11668867Y-58939747D01*
X11668872Y-58939746D01*
X11762530Y-58913596D01*
X11845387Y-58890462D01*
X11848174Y-58889054D01*
X11848177Y-58889053D01*
X12008979Y-58807826D01*
X12008980Y-58807825D01*
X12011768Y-58806417D01*
X12158655Y-58691656D01*
X12163903Y-58685577D01*
X12278409Y-58552919D01*
X12280454Y-58550550D01*
X12372526Y-58388474D01*
X12431364Y-58211601D01*
X12454727Y-58026668D01*
X12455099Y-58000000D01*
X12453791Y-57986665D01*
X13044994Y-57986665D01*
X13060592Y-58172414D01*
X13111971Y-58351595D01*
X13129404Y-58385515D01*
X13188140Y-58499802D01*
X13197176Y-58517385D01*
X13312959Y-58663468D01*
X13315330Y-58665486D01*
X13315334Y-58665490D01*
X13348345Y-58693584D01*
X13454912Y-58784279D01*
X13457637Y-58785802D01*
X13457640Y-58785804D01*
X13614891Y-58873688D01*
X13617627Y-58875217D01*
X13620605Y-58876185D01*
X13620606Y-58876185D01*
X13791936Y-58931854D01*
X13791939Y-58931855D01*
X13794907Y-58932819D01*
X13979998Y-58954890D01*
X13983118Y-58954650D01*
X13983121Y-58954650D01*
X14162724Y-58940830D01*
X14162728Y-58940829D01*
X14165851Y-58940589D01*
X14168867Y-58939747D01*
X14168872Y-58939746D01*
X14262530Y-58913596D01*
X14345387Y-58890462D01*
X14348174Y-58889054D01*
X14348177Y-58889053D01*
X14508979Y-58807826D01*
X14508980Y-58807825D01*
X14511768Y-58806417D01*
X14658655Y-58691656D01*
X14663903Y-58685577D01*
X14778409Y-58552919D01*
X14780454Y-58550550D01*
X14872526Y-58388474D01*
X14931364Y-58211601D01*
X14935294Y-58180495D01*
X14959564Y-58137947D01*
X15006811Y-58125022D01*
X15049359Y-58149292D01*
X15059802Y-58172641D01*
X15060592Y-58172414D01*
X15111971Y-58351595D01*
X15129404Y-58385515D01*
X15188140Y-58499802D01*
X15197176Y-58517385D01*
X15312959Y-58663468D01*
X15315330Y-58665486D01*
X15315334Y-58665490D01*
X15348345Y-58693584D01*
X15454912Y-58784279D01*
X15457637Y-58785802D01*
X15457640Y-58785804D01*
X15614891Y-58873688D01*
X15617627Y-58875217D01*
X15620605Y-58876185D01*
X15620606Y-58876185D01*
X15791936Y-58931854D01*
X15791939Y-58931855D01*
X15794907Y-58932819D01*
X15979998Y-58954890D01*
X15983118Y-58954650D01*
X15983121Y-58954650D01*
X16162724Y-58940830D01*
X16162728Y-58940829D01*
X16165851Y-58940589D01*
X16168867Y-58939747D01*
X16168872Y-58939746D01*
X16262530Y-58913596D01*
X16345387Y-58890462D01*
X16348174Y-58889054D01*
X16348177Y-58889053D01*
X16508979Y-58807826D01*
X16508980Y-58807825D01*
X16511768Y-58806417D01*
X16658655Y-58691656D01*
X16663903Y-58685577D01*
X16778409Y-58552919D01*
X16780454Y-58550550D01*
X16872526Y-58388474D01*
X16931364Y-58211601D01*
X16954727Y-58026668D01*
X16955060Y-58002789D01*
X17237439Y-58002789D01*
X17256136Y-58216493D01*
X17257105Y-58221989D01*
X17312627Y-58429203D01*
X17314531Y-58434436D01*
X17405199Y-58628872D01*
X17407983Y-58633692D01*
X17441500Y-58681560D01*
X17449716Y-58686795D01*
X17455212Y-58685577D01*
X18131790Y-58009000D01*
X18135518Y-58000000D01*
X18864482Y-58000000D01*
X18868210Y-58009000D01*
X19542199Y-58682988D01*
X19551199Y-58686716D01*
X19556399Y-58684562D01*
X19592017Y-58633692D01*
X19594801Y-58628872D01*
X19685469Y-58434436D01*
X19687373Y-58429203D01*
X19742895Y-58221989D01*
X19743864Y-58216493D01*
X19762561Y-58002789D01*
X19762561Y-57997211D01*
X19743864Y-57783507D01*
X19742895Y-57778011D01*
X19687373Y-57570797D01*
X19685469Y-57565564D01*
X19594801Y-57371128D01*
X19592017Y-57366308D01*
X19558500Y-57318440D01*
X19550284Y-57313205D01*
X19544788Y-57314423D01*
X18868210Y-57991000D01*
X18864482Y-58000000D01*
X18135518Y-58000000D01*
X18131790Y-57991000D01*
X17457801Y-57317012D01*
X17448801Y-57313284D01*
X17443601Y-57315438D01*
X17407983Y-57366308D01*
X17405199Y-57371128D01*
X17314531Y-57565564D01*
X17312627Y-57570797D01*
X17257105Y-57778011D01*
X17256136Y-57783507D01*
X17237439Y-57997211D01*
X17237439Y-58002789D01*
X16955060Y-58002789D01*
X16955099Y-58000000D01*
X16936909Y-57814487D01*
X16936005Y-57811492D01*
X16936005Y-57811491D01*
X16883937Y-57639035D01*
X16883033Y-57636040D01*
X16881568Y-57633284D01*
X16881566Y-57633280D01*
X16821046Y-57519460D01*
X16795522Y-57471456D01*
X16700291Y-57354692D01*
X16679689Y-57329431D01*
X16679687Y-57329429D01*
X16677710Y-57327005D01*
X16534085Y-57208187D01*
X16370116Y-57119529D01*
X16367132Y-57118605D01*
X16367129Y-57118604D01*
X16195037Y-57065334D01*
X16195038Y-57065334D01*
X16192049Y-57064409D01*
X16006668Y-57044924D01*
X16003558Y-57045207D01*
X16003557Y-57045207D01*
X15961621Y-57049024D01*
X15821032Y-57061818D01*
X15818035Y-57062700D01*
X15818030Y-57062701D01*
X15645220Y-57113563D01*
X15645218Y-57113564D01*
X15642214Y-57114448D01*
X15477023Y-57200807D01*
X15331752Y-57317608D01*
X15211935Y-57460401D01*
X15204337Y-57474222D01*
X15135190Y-57600000D01*
X15122135Y-57623746D01*
X15121189Y-57626728D01*
X15071456Y-57783507D01*
X15065772Y-57801424D01*
X15064643Y-57811491D01*
X15064206Y-57815386D01*
X15040534Y-57858269D01*
X14993471Y-57871853D01*
X14950588Y-57848181D01*
X14939272Y-57820390D01*
X14937824Y-57820677D01*
X14937214Y-57817595D01*
X14936909Y-57814487D01*
X14936005Y-57811492D01*
X14936005Y-57811491D01*
X14883937Y-57639035D01*
X14883033Y-57636040D01*
X14881568Y-57633284D01*
X14881566Y-57633280D01*
X14821046Y-57519460D01*
X14795522Y-57471456D01*
X14700291Y-57354692D01*
X14679689Y-57329431D01*
X14679687Y-57329429D01*
X14677710Y-57327005D01*
X14534085Y-57208187D01*
X14370116Y-57119529D01*
X14367132Y-57118605D01*
X14367129Y-57118604D01*
X14195037Y-57065334D01*
X14195038Y-57065334D01*
X14192049Y-57064409D01*
X14006668Y-57044924D01*
X14003558Y-57045207D01*
X14003557Y-57045207D01*
X13961621Y-57049024D01*
X13821032Y-57061818D01*
X13818035Y-57062700D01*
X13818030Y-57062701D01*
X13645220Y-57113563D01*
X13645218Y-57113564D01*
X13642214Y-57114448D01*
X13477023Y-57200807D01*
X13331752Y-57317608D01*
X13211935Y-57460401D01*
X13204337Y-57474222D01*
X13135190Y-57600000D01*
X13122135Y-57623746D01*
X13121189Y-57626728D01*
X13071456Y-57783507D01*
X13065772Y-57801424D01*
X13044994Y-57986665D01*
X12453791Y-57986665D01*
X12436909Y-57814487D01*
X12436005Y-57811491D01*
X12421475Y-57763368D01*
X12426339Y-57714627D01*
X12437488Y-57699615D01*
X13417858Y-56719245D01*
X13463113Y-56700500D01*
X18021419Y-56700500D01*
X18066674Y-56719245D01*
X18085419Y-56764500D01*
X18066674Y-56809755D01*
X18048467Y-56822504D01*
X17871128Y-56905199D01*
X17866308Y-56907983D01*
X17818440Y-56941500D01*
X17813205Y-56949716D01*
X17814423Y-56955212D01*
X18491000Y-57631790D01*
X18500000Y-57635518D01*
X18509000Y-57631790D01*
X19182988Y-56957801D01*
X19186716Y-56948801D01*
X19184562Y-56943601D01*
X19133688Y-56907979D01*
X19128875Y-56905200D01*
X18951534Y-56822504D01*
X18918442Y-56786389D01*
X18920578Y-56737452D01*
X18956693Y-56704360D01*
X18978582Y-56700500D01*
X24285500Y-56700500D01*
X24330755Y-56719245D01*
X24349500Y-56764500D01*
X24349500Y-57119748D01*
X24361133Y-57178231D01*
X24405448Y-57244552D01*
X24471769Y-57288867D01*
X24504087Y-57295295D01*
X24527164Y-57299886D01*
X24527166Y-57299886D01*
X24530252Y-57300500D01*
X26269748Y-57300500D01*
X26272834Y-57299886D01*
X26272836Y-57299886D01*
X26295913Y-57295295D01*
X26328231Y-57288867D01*
X26394552Y-57244552D01*
X26438867Y-57178231D01*
X26450500Y-57119748D01*
X26450500Y-56512244D01*
X26606968Y-56512244D01*
X26639123Y-56654923D01*
X26640690Y-56659924D01*
X26722724Y-56861952D01*
X26725088Y-56866633D01*
X26839022Y-57052555D01*
X26842109Y-57056773D01*
X26984886Y-57221599D01*
X26988616Y-57225252D01*
X27156395Y-57364545D01*
X27160681Y-57367546D01*
X27348948Y-57477560D01*
X27353672Y-57479824D01*
X27557378Y-57557611D01*
X27562407Y-57559072D01*
X27673526Y-57581679D01*
X27683089Y-57579820D01*
X27686000Y-57575504D01*
X27686000Y-57573903D01*
X28194000Y-57573903D01*
X28197728Y-57582904D01*
X28203722Y-57585387D01*
X28220707Y-57583211D01*
X28225824Y-57582123D01*
X28434691Y-57519460D01*
X28439555Y-57517554D01*
X28635376Y-57421622D01*
X28639876Y-57418940D01*
X28817405Y-57292310D01*
X28821391Y-57288942D01*
X28975854Y-57135016D01*
X28979246Y-57131030D01*
X29106488Y-56953954D01*
X29109186Y-56949463D01*
X29205801Y-56753979D01*
X29207727Y-56749114D01*
X29271117Y-56540474D01*
X29272222Y-56535364D01*
X29274689Y-56516621D01*
X29272167Y-56507209D01*
X29266609Y-56504000D01*
X28206729Y-56504000D01*
X28197728Y-56507728D01*
X28194000Y-56516729D01*
X28194000Y-57573903D01*
X27686000Y-57573903D01*
X27686000Y-56516729D01*
X27682272Y-56507728D01*
X27673271Y-56504000D01*
X26617839Y-56504000D01*
X26608838Y-56507728D01*
X26606968Y-56512244D01*
X26450500Y-56512244D01*
X26450500Y-55986716D01*
X26603686Y-55986716D01*
X26605444Y-55992690D01*
X26611512Y-55996000D01*
X27673271Y-55996000D01*
X27682272Y-55992272D01*
X27686000Y-55983271D01*
X28194000Y-55983271D01*
X28197728Y-55992272D01*
X28206729Y-55996000D01*
X29263730Y-55996000D01*
X29272731Y-55992272D01*
X29274469Y-55988076D01*
X29230593Y-55813404D01*
X29228910Y-55808459D01*
X29141960Y-55608488D01*
X29139484Y-55603870D01*
X29021042Y-55420786D01*
X29017850Y-55416641D01*
X28871098Y-55255363D01*
X28867267Y-55251790D01*
X28696134Y-55116638D01*
X28691790Y-55113752D01*
X28500879Y-55008363D01*
X28496110Y-55006220D01*
X28290561Y-54933431D01*
X28285496Y-54932093D01*
X28206533Y-54918027D01*
X28197018Y-54920119D01*
X28194000Y-54924838D01*
X28194000Y-55983271D01*
X27686000Y-55983271D01*
X27686000Y-54927716D01*
X27682272Y-54918715D01*
X27676705Y-54916409D01*
X27626802Y-54924046D01*
X27621711Y-54925259D01*
X27414446Y-54993003D01*
X27409623Y-54995030D01*
X27216203Y-55095719D01*
X27211774Y-55098508D01*
X27037400Y-55229432D01*
X27033480Y-55232913D01*
X26882835Y-55390553D01*
X26879538Y-55394625D01*
X26756658Y-55574760D01*
X26754074Y-55579308D01*
X26662267Y-55777092D01*
X26660455Y-55782016D01*
X26603686Y-55986716D01*
X26450500Y-55986716D01*
X26450500Y-55380252D01*
X26438867Y-55321769D01*
X26394552Y-55255448D01*
X26328231Y-55211133D01*
X26295913Y-55204705D01*
X26272836Y-55200114D01*
X26272834Y-55200114D01*
X26269748Y-55199500D01*
X24530252Y-55199500D01*
X24527166Y-55200114D01*
X24527164Y-55200114D01*
X24504087Y-55204705D01*
X24471769Y-55211133D01*
X24405448Y-55255448D01*
X24361133Y-55321769D01*
X24349500Y-55380252D01*
X24349500Y-55735500D01*
X24330755Y-55780755D01*
X24285500Y-55799500D01*
X13280558Y-55799500D01*
X13273036Y-55799056D01*
X13240439Y-55795198D01*
X13235690Y-55794636D01*
X13177004Y-55805354D01*
X13175052Y-55805678D01*
X13141209Y-55810767D01*
X13120766Y-55813840D01*
X13120765Y-55813840D01*
X13116038Y-55814551D01*
X13111727Y-55816621D01*
X13110102Y-55817121D01*
X13109765Y-55817203D01*
X13109061Y-55817432D01*
X13108732Y-55817567D01*
X13107133Y-55818114D01*
X13102427Y-55818974D01*
X13049486Y-55846474D01*
X13047695Y-55847369D01*
X12993921Y-55873191D01*
X12990404Y-55876443D01*
X12989019Y-55877384D01*
X12988364Y-55877774D01*
X12985448Y-55879740D01*
X12982212Y-55881420D01*
X12977172Y-55885725D01*
X12939064Y-55923833D01*
X12937252Y-55925575D01*
X12897956Y-55961899D01*
X12897954Y-55961901D01*
X12894444Y-55965146D01*
X12892042Y-55969281D01*
X12889050Y-55973016D01*
X12888720Y-55972752D01*
X12883964Y-55978933D01*
X11800627Y-57062270D01*
X11755372Y-57081015D01*
X11736451Y-57078154D01*
X11692049Y-57064409D01*
X11506668Y-57044924D01*
X11503558Y-57045207D01*
X11503557Y-57045207D01*
X11461621Y-57049024D01*
X11321032Y-57061818D01*
X11318035Y-57062700D01*
X11318030Y-57062701D01*
X11145220Y-57113563D01*
X11145218Y-57113564D01*
X11142214Y-57114448D01*
X10977023Y-57200807D01*
X10831752Y-57317608D01*
X10711935Y-57460401D01*
X10704337Y-57474222D01*
X10635190Y-57600000D01*
X10622135Y-57623746D01*
X10621189Y-57626728D01*
X10571456Y-57783507D01*
X10565772Y-57801424D01*
X10544994Y-57986665D01*
X7416567Y-57986665D01*
X7427179Y-57968284D01*
X7458512Y-57871853D01*
X7484639Y-57791443D01*
X7484640Y-57791438D01*
X7485674Y-57788256D01*
X7486174Y-57783507D01*
X7505109Y-57603340D01*
X7505460Y-57600000D01*
X7503924Y-57585387D01*
X7486025Y-57415080D01*
X7486024Y-57415076D01*
X7485674Y-57411744D01*
X7483002Y-57403522D01*
X7486843Y-57354692D01*
X7498614Y-57338489D01*
X9667858Y-55169245D01*
X9713113Y-55150500D01*
X17369442Y-55150500D01*
X17376964Y-55150944D01*
X17409561Y-55154802D01*
X17414310Y-55155364D01*
X17472993Y-55144646D01*
X17474934Y-55144324D01*
X17495769Y-55141191D01*
X17529229Y-55136161D01*
X17529232Y-55136160D01*
X17533962Y-55135449D01*
X17538278Y-55133376D01*
X17539897Y-55132878D01*
X17540237Y-55132795D01*
X17540940Y-55132566D01*
X17541276Y-55132429D01*
X17542867Y-55131884D01*
X17547573Y-55131025D01*
X17600496Y-55103534D01*
X17602286Y-55102640D01*
X17651762Y-55078882D01*
X17656079Y-55076809D01*
X17659598Y-55073556D01*
X17660993Y-55072608D01*
X17661640Y-55072222D01*
X17664553Y-55070259D01*
X17667788Y-55068579D01*
X17672828Y-55064275D01*
X17710936Y-55026167D01*
X17712748Y-55024425D01*
X17752044Y-54988101D01*
X17752046Y-54988099D01*
X17755556Y-54984854D01*
X17757958Y-54980719D01*
X17760950Y-54976984D01*
X17761280Y-54977248D01*
X17766036Y-54971067D01*
X20071111Y-52665992D01*
X20116366Y-52647247D01*
X20161621Y-52665992D01*
X20174486Y-52684451D01*
X20182856Y-52702607D01*
X20299588Y-52867780D01*
X20444466Y-53008913D01*
X20612637Y-53121282D01*
X20798470Y-53201122D01*
X20801328Y-53201769D01*
X20801329Y-53201769D01*
X20928889Y-53230633D01*
X20995740Y-53245760D01*
X20998664Y-53245875D01*
X20998665Y-53245875D01*
X21096791Y-53249730D01*
X21197842Y-53253700D01*
X21200738Y-53253280D01*
X21200740Y-53253280D01*
X21268272Y-53243488D01*
X21398007Y-53224678D01*
X21589531Y-53159664D01*
X21622834Y-53141014D01*
X21664359Y-53117759D01*
X21766001Y-53060837D01*
X21921505Y-52931505D01*
X22050837Y-52776001D01*
X22149664Y-52599531D01*
X22213240Y-52412244D01*
X27375711Y-52412244D01*
X27411248Y-52569936D01*
X27412809Y-52574919D01*
X27497948Y-52784588D01*
X27500300Y-52789245D01*
X27618535Y-52982187D01*
X27621622Y-52986406D01*
X27769782Y-53157446D01*
X27773512Y-53161098D01*
X27947617Y-53305643D01*
X27951903Y-53308644D01*
X28147269Y-53422806D01*
X28151993Y-53425070D01*
X28363375Y-53505789D01*
X28368413Y-53507253D01*
X28493526Y-53532707D01*
X28503090Y-53530848D01*
X28506000Y-53526534D01*
X28506000Y-52416729D01*
X28502272Y-52407728D01*
X28493271Y-52404000D01*
X27386582Y-52404000D01*
X27377581Y-52407728D01*
X27375711Y-52412244D01*
X22213240Y-52412244D01*
X22214678Y-52408007D01*
X22243700Y-52207842D01*
X22245215Y-52150000D01*
X22226708Y-51948591D01*
X22222580Y-51933952D01*
X22208528Y-51884127D01*
X27372635Y-51884127D01*
X27375155Y-51892688D01*
X27381229Y-51896000D01*
X28493271Y-51896000D01*
X28502272Y-51892272D01*
X28506000Y-51883271D01*
X28506000Y-50777131D01*
X28502272Y-50768130D01*
X28496705Y-50765824D01*
X28435175Y-50775240D01*
X28430084Y-50776453D01*
X28215004Y-50846752D01*
X28210181Y-50848779D01*
X28009468Y-50953264D01*
X28005039Y-50956053D01*
X27824090Y-51091913D01*
X27820170Y-51095393D01*
X27663844Y-51258979D01*
X27660547Y-51263051D01*
X27533034Y-51449978D01*
X27530450Y-51454526D01*
X27435181Y-51659768D01*
X27433369Y-51664692D01*
X27372902Y-51882729D01*
X27372635Y-51884127D01*
X22208528Y-51884127D01*
X22172603Y-51756748D01*
X22172603Y-51756747D01*
X22171807Y-51753926D01*
X22089617Y-51587261D01*
X22083650Y-51575160D01*
X22083647Y-51575155D01*
X22082351Y-51572527D01*
X22061667Y-51544828D01*
X21963093Y-51412821D01*
X21963092Y-51412820D01*
X21961335Y-51410467D01*
X21812812Y-51273174D01*
X21641757Y-51165246D01*
X21639040Y-51164162D01*
X21639036Y-51164160D01*
X21456621Y-51091384D01*
X21456617Y-51091383D01*
X21453898Y-51090298D01*
X21255526Y-51050839D01*
X21157832Y-51049560D01*
X21056219Y-51048230D01*
X21056215Y-51048230D01*
X21053286Y-51048192D01*
X20853949Y-51082444D01*
X20664193Y-51152449D01*
X20490371Y-51255862D01*
X20488168Y-51257794D01*
X20340513Y-51387283D01*
X20340509Y-51387287D01*
X20338305Y-51389220D01*
X20319700Y-51412821D01*
X20215635Y-51544828D01*
X20213089Y-51548057D01*
X20154315Y-51659768D01*
X20151404Y-51665300D01*
X20113743Y-51696621D01*
X20094765Y-51699500D01*
X19980558Y-51699500D01*
X19973051Y-51699058D01*
X19947480Y-51696031D01*
X19904745Y-51672099D01*
X19891447Y-51624955D01*
X19909709Y-51587261D01*
X19946286Y-51550620D01*
X19950859Y-51544828D01*
X20039705Y-51400693D01*
X20042829Y-51393995D01*
X20096206Y-51233070D01*
X20097660Y-51226288D01*
X20107833Y-51126989D01*
X20108000Y-51123726D01*
X20108000Y-51079229D01*
X20104272Y-51070228D01*
X20095271Y-51066500D01*
X19166729Y-51066500D01*
X19157728Y-51070228D01*
X19154000Y-51079229D01*
X19154000Y-51820270D01*
X19157728Y-51829271D01*
X19166729Y-51832999D01*
X19398714Y-51832999D01*
X19402004Y-51832829D01*
X19477084Y-51825039D01*
X19524032Y-51839014D01*
X19547347Y-51882092D01*
X19533372Y-51929040D01*
X19528944Y-51933952D01*
X17232142Y-54230755D01*
X17186887Y-54249500D01*
X9530557Y-54249500D01*
X9523035Y-54249056D01*
X9490438Y-54245198D01*
X9485689Y-54244636D01*
X9480987Y-54245495D01*
X9480981Y-54245495D01*
X9427025Y-54255350D01*
X9425053Y-54255679D01*
X9402705Y-54259039D01*
X9370772Y-54263839D01*
X9370770Y-54263840D01*
X9366038Y-54264551D01*
X9361722Y-54266624D01*
X9360103Y-54267122D01*
X9359763Y-54267205D01*
X9359060Y-54267434D01*
X9358724Y-54267571D01*
X9357133Y-54268116D01*
X9352427Y-54268975D01*
X9299506Y-54296465D01*
X9297715Y-54297359D01*
X9243921Y-54323191D01*
X9240410Y-54326437D01*
X9239001Y-54327394D01*
X9238374Y-54327769D01*
X9235453Y-54329737D01*
X9232211Y-54331421D01*
X9227172Y-54335725D01*
X9189064Y-54373833D01*
X9187252Y-54375575D01*
X9147956Y-54411899D01*
X9147954Y-54411901D01*
X9144444Y-54415146D01*
X9142042Y-54419281D01*
X9139050Y-54423016D01*
X9138720Y-54422752D01*
X9133964Y-54428933D01*
X6858387Y-56704510D01*
X6813132Y-56723255D01*
X6799832Y-56721858D01*
X6694646Y-56699500D01*
X6505354Y-56699500D01*
X6320197Y-56738856D01*
X6317140Y-56740217D01*
X6317137Y-56740218D01*
X6262600Y-56764500D01*
X6147270Y-56815849D01*
X5994129Y-56927112D01*
X5950433Y-56975641D01*
X5869712Y-57065290D01*
X5869709Y-57065294D01*
X5867467Y-57067784D01*
X5772821Y-57231716D01*
X5771787Y-57234899D01*
X5771785Y-57234903D01*
X5715361Y-57408557D01*
X5715360Y-57408562D01*
X5714326Y-57411744D01*
X5713976Y-57415076D01*
X5713975Y-57415080D01*
X5696076Y-57585387D01*
X5694540Y-57600000D01*
X130500Y-57600000D01*
X130500Y-51123714D01*
X17692001Y-51123714D01*
X17692171Y-51127004D01*
X17702607Y-51227581D01*
X17704076Y-51234385D01*
X17757727Y-51395199D01*
X17760865Y-51401898D01*
X17849958Y-51545870D01*
X17854550Y-51551663D01*
X17974380Y-51671286D01*
X17980172Y-51675859D01*
X18124307Y-51764705D01*
X18131005Y-51767829D01*
X18291930Y-51821206D01*
X18298712Y-51822660D01*
X18398011Y-51832833D01*
X18401274Y-51833000D01*
X18633271Y-51833000D01*
X18642272Y-51829272D01*
X18646000Y-51820271D01*
X18646000Y-51079229D01*
X18642272Y-51070228D01*
X18633271Y-51066500D01*
X17704730Y-51066500D01*
X17695729Y-51070228D01*
X17692001Y-51079229D01*
X17692001Y-51123714D01*
X130500Y-51123714D01*
X130500Y-45000000D01*
X594540Y-45000000D01*
X594891Y-45003340D01*
X605103Y-45100500D01*
X614326Y-45188256D01*
X615360Y-45191438D01*
X615361Y-45191443D01*
X666299Y-45348213D01*
X672821Y-45368284D01*
X767467Y-45532216D01*
X769709Y-45534706D01*
X769712Y-45534710D01*
X796633Y-45564608D01*
X894129Y-45672888D01*
X960924Y-45721417D01*
X1023118Y-45766604D01*
X1048712Y-45808369D01*
X1049500Y-45818381D01*
X1049500Y-47969442D01*
X1049056Y-47976964D01*
X1044636Y-48014310D01*
X1055349Y-48072966D01*
X1055679Y-48074950D01*
X1060802Y-48109024D01*
X1064551Y-48133962D01*
X1066624Y-48138278D01*
X1067122Y-48139897D01*
X1067205Y-48140237D01*
X1067434Y-48140940D01*
X1067571Y-48141276D01*
X1068116Y-48142867D01*
X1068975Y-48147573D01*
X1096462Y-48200488D01*
X1097356Y-48202279D01*
X1123191Y-48256079D01*
X1126444Y-48259598D01*
X1127392Y-48260993D01*
X1127778Y-48261640D01*
X1129741Y-48264553D01*
X1131421Y-48267788D01*
X1135725Y-48272828D01*
X1173833Y-48310936D01*
X1175575Y-48312748D01*
X1211899Y-48352044D01*
X1211901Y-48352046D01*
X1215146Y-48355556D01*
X1219281Y-48357958D01*
X1223016Y-48360950D01*
X1222752Y-48361280D01*
X1228933Y-48366036D01*
X2059840Y-49196943D01*
X2064845Y-49202576D01*
X2088128Y-49232110D01*
X2092061Y-49234829D01*
X2092063Y-49234830D01*
X2137185Y-49266015D01*
X2138821Y-49267184D01*
X2182965Y-49299790D01*
X2182967Y-49299791D01*
X2186816Y-49302634D01*
X2191336Y-49304221D01*
X2192825Y-49305009D01*
X2193135Y-49305198D01*
X2193784Y-49305528D01*
X2194122Y-49305670D01*
X2195634Y-49306411D01*
X2199569Y-49309131D01*
X2204130Y-49310573D01*
X2204131Y-49310574D01*
X2256439Y-49327117D01*
X2258345Y-49327753D01*
X2314631Y-49347519D01*
X2319414Y-49347707D01*
X2321067Y-49348022D01*
X2321806Y-49348209D01*
X2325258Y-49348882D01*
X2328730Y-49349980D01*
X2332362Y-49350266D01*
X2332363Y-49350266D01*
X2332581Y-49350283D01*
X2335337Y-49350500D01*
X2389228Y-49350500D01*
X2391741Y-49350549D01*
X2449994Y-49352838D01*
X2454617Y-49351612D01*
X2459373Y-49351087D01*
X2459419Y-49351508D01*
X2467152Y-49350500D01*
X2655500Y-49350500D01*
X2700755Y-49369245D01*
X2719500Y-49414500D01*
X2719500Y-49819748D01*
X2731133Y-49878231D01*
X2775448Y-49944552D01*
X2841769Y-49988867D01*
X2874087Y-49995295D01*
X2897164Y-49999886D01*
X2897166Y-49999886D01*
X2900252Y-50000500D01*
X5439748Y-50000500D01*
X5442834Y-49999886D01*
X5442836Y-49999886D01*
X5465913Y-49995295D01*
X5498231Y-49988867D01*
X5564552Y-49944552D01*
X5608867Y-49878231D01*
X5620500Y-49819748D01*
X6719500Y-49819748D01*
X6731133Y-49878231D01*
X6775448Y-49944552D01*
X6841769Y-49988867D01*
X6874087Y-49995295D01*
X6897164Y-49999886D01*
X6897166Y-49999886D01*
X6900252Y-50000500D01*
X9439748Y-50000500D01*
X9442834Y-49999886D01*
X9442836Y-49999886D01*
X9465913Y-49995295D01*
X9498231Y-49988867D01*
X9564552Y-49944552D01*
X9608867Y-49878231D01*
X9620500Y-49819748D01*
X9620500Y-49414500D01*
X9639245Y-49369245D01*
X9684500Y-49350500D01*
X10009170Y-49350500D01*
X10054425Y-49369245D01*
X10071940Y-49402014D01*
X10081133Y-49448231D01*
X10125448Y-49514552D01*
X10191769Y-49558867D01*
X10224087Y-49565295D01*
X10247164Y-49569886D01*
X10247166Y-49569886D01*
X10250252Y-49570500D01*
X11489748Y-49570500D01*
X11492834Y-49569886D01*
X11492836Y-49569886D01*
X11515913Y-49565295D01*
X11548231Y-49558867D01*
X11614552Y-49514552D01*
X11658867Y-49448231D01*
X11668060Y-49402014D01*
X11669886Y-49392836D01*
X11669886Y-49392834D01*
X11670500Y-49389748D01*
X11670500Y-48550252D01*
X11658867Y-48491769D01*
X11614552Y-48425448D01*
X11609310Y-48421945D01*
X11596770Y-48413566D01*
X11548231Y-48381133D01*
X11515913Y-48374705D01*
X11492836Y-48370114D01*
X11492834Y-48370114D01*
X11489748Y-48369500D01*
X10250252Y-48369500D01*
X10247166Y-48370114D01*
X10247164Y-48370114D01*
X10224087Y-48374705D01*
X10191769Y-48381133D01*
X10171752Y-48394508D01*
X10130690Y-48421945D01*
X10130689Y-48421946D01*
X10125448Y-48425448D01*
X10121944Y-48430692D01*
X10121883Y-48430753D01*
X10076626Y-48449500D01*
X9684500Y-48449500D01*
X9639245Y-48430755D01*
X9620500Y-48385500D01*
X9620500Y-47980252D01*
X9608867Y-47921769D01*
X9564552Y-47855448D01*
X9498231Y-47811133D01*
X9465101Y-47804543D01*
X9442836Y-47800114D01*
X9442834Y-47800114D01*
X9439748Y-47799500D01*
X6900252Y-47799500D01*
X6897166Y-47800114D01*
X6897164Y-47800114D01*
X6874899Y-47804543D01*
X6841769Y-47811133D01*
X6775448Y-47855448D01*
X6731133Y-47921769D01*
X6719500Y-47980252D01*
X6719500Y-49819748D01*
X5620500Y-49819748D01*
X5620500Y-47980252D01*
X5608867Y-47921769D01*
X5564552Y-47855448D01*
X5498231Y-47811133D01*
X5465101Y-47804543D01*
X5442836Y-47800114D01*
X5442834Y-47800114D01*
X5439748Y-47799500D01*
X4684500Y-47799500D01*
X4639245Y-47780755D01*
X4620500Y-47735500D01*
X4620500Y-45164500D01*
X4639245Y-45119245D01*
X4684500Y-45100500D01*
X5439748Y-45100500D01*
X5442834Y-45099886D01*
X5442836Y-45099886D01*
X5465913Y-45095295D01*
X5498231Y-45088867D01*
X5564552Y-45044552D01*
X5608867Y-44978231D01*
X5620500Y-44919748D01*
X6719500Y-44919748D01*
X6731133Y-44978231D01*
X6775448Y-45044552D01*
X6841769Y-45088867D01*
X6874087Y-45095295D01*
X6897164Y-45099886D01*
X6897166Y-45099886D01*
X6900252Y-45100500D01*
X9439748Y-45100500D01*
X9442834Y-45099886D01*
X9442836Y-45099886D01*
X9465913Y-45095295D01*
X9498231Y-45088867D01*
X9564552Y-45044552D01*
X9608867Y-44978231D01*
X9620500Y-44919748D01*
X9620500Y-44484500D01*
X9639245Y-44439245D01*
X9684500Y-44420500D01*
X10028395Y-44420500D01*
X10073650Y-44439245D01*
X10081608Y-44448941D01*
X10125448Y-44514552D01*
X10191769Y-44558867D01*
X10224087Y-44565295D01*
X10247164Y-44569886D01*
X10247166Y-44569886D01*
X10250252Y-44570500D01*
X11489748Y-44570500D01*
X11492834Y-44569886D01*
X11492836Y-44569886D01*
X11515913Y-44565295D01*
X11548231Y-44558867D01*
X11614552Y-44514552D01*
X11658867Y-44448231D01*
X11670500Y-44389748D01*
X11670500Y-43550252D01*
X11667828Y-43536816D01*
X11662823Y-43511658D01*
X11658867Y-43491769D01*
X11614552Y-43425448D01*
X11548231Y-43381133D01*
X11515913Y-43374705D01*
X11492836Y-43370114D01*
X11492834Y-43370114D01*
X11489748Y-43369500D01*
X10250252Y-43369500D01*
X10247166Y-43370114D01*
X10247164Y-43370114D01*
X10224087Y-43374705D01*
X10191769Y-43381133D01*
X10125448Y-43425448D01*
X10121946Y-43430689D01*
X10081609Y-43491057D01*
X10040880Y-43518270D01*
X10028395Y-43519500D01*
X9684500Y-43519500D01*
X9639245Y-43500755D01*
X9620500Y-43455500D01*
X9620500Y-43080252D01*
X9608867Y-43021769D01*
X9564552Y-42955448D01*
X9498231Y-42911133D01*
X9465913Y-42904705D01*
X9442836Y-42900114D01*
X9442834Y-42900114D01*
X9439748Y-42899500D01*
X6900252Y-42899500D01*
X6897166Y-42900114D01*
X6897164Y-42900114D01*
X6874087Y-42904705D01*
X6841769Y-42911133D01*
X6775448Y-42955448D01*
X6731133Y-43021769D01*
X6719500Y-43080252D01*
X6719500Y-44919748D01*
X5620500Y-44919748D01*
X5620500Y-43080252D01*
X5608867Y-43021769D01*
X5564552Y-42955448D01*
X5498231Y-42911133D01*
X5465913Y-42904705D01*
X5442836Y-42900114D01*
X5442834Y-42900114D01*
X5439748Y-42899500D01*
X2900252Y-42899500D01*
X2897166Y-42900114D01*
X2897164Y-42900114D01*
X2874087Y-42904705D01*
X2841769Y-42911133D01*
X2775448Y-42955448D01*
X2731133Y-43021769D01*
X2719500Y-43080252D01*
X2719500Y-43485500D01*
X2700755Y-43530755D01*
X2655500Y-43549500D01*
X2530558Y-43549500D01*
X2523036Y-43549056D01*
X2490439Y-43545198D01*
X2485690Y-43544636D01*
X2427004Y-43555354D01*
X2425052Y-43555678D01*
X2391209Y-43560767D01*
X2370766Y-43563840D01*
X2370765Y-43563840D01*
X2366038Y-43564551D01*
X2361727Y-43566621D01*
X2360102Y-43567121D01*
X2359765Y-43567203D01*
X2359061Y-43567432D01*
X2358732Y-43567567D01*
X2357133Y-43568114D01*
X2352427Y-43568974D01*
X2299486Y-43596474D01*
X2297695Y-43597369D01*
X2243921Y-43623191D01*
X2240404Y-43626443D01*
X2239019Y-43627384D01*
X2238359Y-43627777D01*
X2235442Y-43629742D01*
X2232212Y-43631420D01*
X2227172Y-43635724D01*
X2189052Y-43673844D01*
X2187240Y-43675586D01*
X2147957Y-43711898D01*
X2147955Y-43711900D01*
X2144444Y-43715146D01*
X2142041Y-43719283D01*
X2139050Y-43723017D01*
X2138720Y-43722752D01*
X2133966Y-43728930D01*
X1758386Y-44104510D01*
X1713131Y-44123255D01*
X1699832Y-44121858D01*
X1594646Y-44099500D01*
X1405354Y-44099500D01*
X1220197Y-44138856D01*
X1217140Y-44140217D01*
X1217137Y-44140218D01*
X1184602Y-44154704D01*
X1047270Y-44215849D01*
X894129Y-44327112D01*
X860871Y-44364049D01*
X769712Y-44465290D01*
X769709Y-44465294D01*
X767467Y-44467784D01*
X672821Y-44631716D01*
X671787Y-44634899D01*
X671785Y-44634903D01*
X615361Y-44808557D01*
X615360Y-44808562D01*
X614326Y-44811744D01*
X613976Y-44815076D01*
X613975Y-44815080D01*
X602650Y-44922836D01*
X594540Y-45000000D01*
X130500Y-45000000D01*
X130500Y-39014310D01*
X1344636Y-39014310D01*
X1354422Y-39067890D01*
X1355349Y-39072966D01*
X1355679Y-39074950D01*
X1362736Y-39121887D01*
X1364551Y-39133962D01*
X1366624Y-39138278D01*
X1367122Y-39139897D01*
X1367205Y-39140237D01*
X1367434Y-39140940D01*
X1367571Y-39141276D01*
X1368116Y-39142867D01*
X1368975Y-39147573D01*
X1371180Y-39151817D01*
X1396462Y-39200488D01*
X1397356Y-39202279D01*
X1423191Y-39256079D01*
X1426444Y-39259598D01*
X1427392Y-39260993D01*
X1427778Y-39261640D01*
X1429741Y-39264553D01*
X1431421Y-39267788D01*
X1435725Y-39272828D01*
X1473833Y-39310936D01*
X1475575Y-39312748D01*
X1511899Y-39352044D01*
X1511901Y-39352046D01*
X1515146Y-39355556D01*
X1519281Y-39357958D01*
X1523016Y-39360950D01*
X1522752Y-39361280D01*
X1528933Y-39366036D01*
X3889840Y-41726943D01*
X3894845Y-41732576D01*
X3918128Y-41762110D01*
X3938436Y-41776146D01*
X3967185Y-41796016D01*
X3968820Y-41797184D01*
X3990910Y-41813499D01*
X4016817Y-41832634D01*
X4021329Y-41834218D01*
X4022835Y-41835016D01*
X4023139Y-41835200D01*
X4023779Y-41835527D01*
X4024117Y-41835668D01*
X4025633Y-41836411D01*
X4029569Y-41839131D01*
X4034130Y-41840573D01*
X4034131Y-41840574D01*
X4086433Y-41857115D01*
X4088340Y-41857751D01*
X4118943Y-41868498D01*
X4144631Y-41877519D01*
X4149412Y-41877707D01*
X4151066Y-41878022D01*
X4151798Y-41878207D01*
X4155255Y-41878881D01*
X4158730Y-41879980D01*
X4162362Y-41880266D01*
X4162363Y-41880266D01*
X4162581Y-41880283D01*
X4165337Y-41880500D01*
X4219228Y-41880500D01*
X4221741Y-41880549D01*
X4279994Y-41882838D01*
X4284620Y-41881612D01*
X4289370Y-41881087D01*
X4289417Y-41881508D01*
X4297150Y-41880500D01*
X10028395Y-41880500D01*
X10073650Y-41899245D01*
X10081608Y-41908941D01*
X10125448Y-41974552D01*
X10191769Y-42018867D01*
X10219942Y-42024471D01*
X10247164Y-42029886D01*
X10247166Y-42029886D01*
X10250252Y-42030500D01*
X11489748Y-42030500D01*
X11492834Y-42029886D01*
X11492836Y-42029886D01*
X11520058Y-42024471D01*
X11548231Y-42018867D01*
X11614552Y-41974552D01*
X11658867Y-41908231D01*
X11670500Y-41849748D01*
X11670500Y-41010252D01*
X11658867Y-40951769D01*
X11614552Y-40885448D01*
X11548231Y-40841133D01*
X11515913Y-40834705D01*
X11492836Y-40830114D01*
X11492834Y-40830114D01*
X11489748Y-40829500D01*
X10250252Y-40829500D01*
X10247166Y-40830114D01*
X10247164Y-40830114D01*
X10224087Y-40834705D01*
X10191769Y-40841133D01*
X10125448Y-40885448D01*
X10121946Y-40890689D01*
X10081609Y-40951057D01*
X10040880Y-40978270D01*
X10028395Y-40979500D01*
X4443113Y-40979500D01*
X4397858Y-40960755D01*
X3399021Y-39961918D01*
X3380276Y-39916663D01*
X3399021Y-39871408D01*
X3440668Y-39855108D01*
X3440455Y-39853176D01*
X3445216Y-39852650D01*
X3449994Y-39852838D01*
X3454619Y-39851612D01*
X3459370Y-39851087D01*
X3459417Y-39851508D01*
X3467150Y-39850500D01*
X11686887Y-39850500D01*
X11732142Y-39869245D01*
X11830755Y-39967858D01*
X11849500Y-40013113D01*
X11849500Y-44786887D01*
X11830755Y-44832142D01*
X10852142Y-45810755D01*
X10806887Y-45829500D01*
X10250252Y-45829500D01*
X10247166Y-45830114D01*
X10247164Y-45830114D01*
X10224087Y-45834705D01*
X10191769Y-45841133D01*
X10125448Y-45885448D01*
X10081133Y-45951769D01*
X10069500Y-46010252D01*
X10069500Y-46849748D01*
X10070114Y-46852834D01*
X10070114Y-46852836D01*
X10074705Y-46875913D01*
X10081133Y-46908231D01*
X10125448Y-46974552D01*
X10191769Y-47018867D01*
X10224087Y-47025295D01*
X10247164Y-47029886D01*
X10247166Y-47029886D01*
X10250252Y-47030500D01*
X11489748Y-47030500D01*
X11492834Y-47029886D01*
X11492836Y-47029886D01*
X11515913Y-47025295D01*
X11548231Y-47018867D01*
X11614552Y-46974552D01*
X11658867Y-46908231D01*
X11665295Y-46875913D01*
X11669886Y-46852836D01*
X11669886Y-46852834D01*
X11670500Y-46849748D01*
X11670500Y-46575000D01*
X12919508Y-46575000D01*
X12939354Y-46700304D01*
X12996950Y-46813342D01*
X13086658Y-46903050D01*
X13199696Y-46960646D01*
X13254406Y-46969311D01*
X13281316Y-46973573D01*
X13316559Y-46991530D01*
X13998630Y-47673601D01*
X14002568Y-47678163D01*
X14004575Y-47682269D01*
X14008906Y-47686286D01*
X14008907Y-47686288D01*
X14041320Y-47716355D01*
X14043050Y-47718021D01*
X14057277Y-47732248D01*
X14059709Y-47733917D01*
X14061971Y-47735796D01*
X14061905Y-47735876D01*
X14065232Y-47738537D01*
X14086646Y-47758401D01*
X14100953Y-47764109D01*
X14113439Y-47770776D01*
X14121275Y-47776152D01*
X14121277Y-47776153D01*
X14126146Y-47779493D01*
X14131890Y-47780856D01*
X14131892Y-47780857D01*
X14145879Y-47784176D01*
X14154569Y-47786238D01*
X14163497Y-47789062D01*
X14190622Y-47799883D01*
X14195230Y-47800335D01*
X14195361Y-47800348D01*
X14195368Y-47800348D01*
X14196915Y-47800500D01*
X14207179Y-47800500D01*
X14221956Y-47802229D01*
X14235066Y-47805340D01*
X14240923Y-47804543D01*
X14240924Y-47804543D01*
X14266331Y-47801085D01*
X14274961Y-47800500D01*
X20210199Y-47800500D01*
X20255454Y-47819245D01*
X20274199Y-47864500D01*
X20255454Y-47909755D01*
X20196165Y-47969044D01*
X20192583Y-47973313D01*
X20064512Y-48156217D01*
X20061733Y-48161030D01*
X19967367Y-48363398D01*
X19965463Y-48368631D01*
X19907676Y-48584294D01*
X19906796Y-48589286D01*
X19880476Y-48630598D01*
X19832654Y-48641200D01*
X19791342Y-48614880D01*
X19783383Y-48599377D01*
X19754219Y-48516329D01*
X19754218Y-48516327D01*
X19752634Y-48511816D01*
X19749314Y-48507320D01*
X19674993Y-48406699D01*
X19672150Y-48402850D01*
X19648660Y-48385500D01*
X19567031Y-48325207D01*
X19567029Y-48325206D01*
X19563184Y-48322366D01*
X19530636Y-48310936D01*
X19439049Y-48278773D01*
X19439047Y-48278772D01*
X19435369Y-48277481D01*
X19403834Y-48274500D01*
X18396166Y-48274500D01*
X18364631Y-48277481D01*
X18360953Y-48278772D01*
X18360951Y-48278773D01*
X18269364Y-48310936D01*
X18236816Y-48322366D01*
X18232971Y-48325206D01*
X18232969Y-48325207D01*
X18151340Y-48385500D01*
X18127850Y-48402850D01*
X18125007Y-48406699D01*
X18050687Y-48507320D01*
X18047366Y-48511816D01*
X18045782Y-48516327D01*
X18007020Y-48626706D01*
X17974339Y-48663193D01*
X17946635Y-48669500D01*
X17734500Y-48669500D01*
X17689245Y-48650755D01*
X17670500Y-48605500D01*
X17670500Y-48550252D01*
X17658867Y-48491769D01*
X17614552Y-48425448D01*
X17609310Y-48421945D01*
X17596770Y-48413566D01*
X17548231Y-48381133D01*
X17515913Y-48374705D01*
X17492836Y-48370114D01*
X17492834Y-48370114D01*
X17489748Y-48369500D01*
X16250252Y-48369500D01*
X16247166Y-48370114D01*
X16247164Y-48370114D01*
X16224087Y-48374705D01*
X16191769Y-48381133D01*
X16143230Y-48413566D01*
X16130691Y-48421945D01*
X16125448Y-48425448D01*
X16081133Y-48491769D01*
X16069500Y-48550252D01*
X16069500Y-49389748D01*
X16070114Y-49392834D01*
X16070114Y-49392836D01*
X16071940Y-49402014D01*
X16081133Y-49448231D01*
X16125448Y-49514552D01*
X16191769Y-49558867D01*
X16224087Y-49565295D01*
X16247164Y-49569886D01*
X16247166Y-49569886D01*
X16250252Y-49570500D01*
X17489748Y-49570500D01*
X17492834Y-49569886D01*
X17492836Y-49569886D01*
X17515913Y-49565295D01*
X17548231Y-49558867D01*
X17614552Y-49514552D01*
X17658867Y-49448231D01*
X17668060Y-49402014D01*
X17669886Y-49392836D01*
X17669886Y-49392834D01*
X17670500Y-49389748D01*
X17670500Y-49334500D01*
X17689245Y-49289245D01*
X17734500Y-49270500D01*
X17938114Y-49270500D01*
X17983369Y-49289245D01*
X18001830Y-49328482D01*
X18002481Y-49335369D01*
X18003772Y-49339047D01*
X18003773Y-49339049D01*
X18039943Y-49442046D01*
X18047366Y-49463184D01*
X18050206Y-49467029D01*
X18050207Y-49467031D01*
X18118039Y-49558867D01*
X18127850Y-49572150D01*
X18131699Y-49574993D01*
X18232969Y-49649793D01*
X18232971Y-49649794D01*
X18236816Y-49652634D01*
X18241328Y-49654219D01*
X18241329Y-49654219D01*
X18310965Y-49678673D01*
X18347453Y-49711354D01*
X18350145Y-49760263D01*
X18317464Y-49796751D01*
X18300759Y-49801474D01*
X18300844Y-49801867D01*
X18290615Y-49804076D01*
X18129801Y-49857727D01*
X18123102Y-49860865D01*
X17979130Y-49949958D01*
X17973337Y-49954550D01*
X17853714Y-50074380D01*
X17849141Y-50080172D01*
X17760295Y-50224307D01*
X17757171Y-50231005D01*
X17703794Y-50391930D01*
X17702340Y-50398712D01*
X17692167Y-50498011D01*
X17692000Y-50501274D01*
X17692000Y-50545771D01*
X17695728Y-50554772D01*
X17704729Y-50558500D01*
X20095270Y-50558500D01*
X20104271Y-50554772D01*
X20107999Y-50545771D01*
X20107999Y-50501286D01*
X20107829Y-50497996D01*
X20097393Y-50397419D01*
X20095924Y-50390615D01*
X20042273Y-50229801D01*
X20039135Y-50223102D01*
X19950042Y-50079130D01*
X19945450Y-50073337D01*
X19825620Y-49953714D01*
X19819828Y-49949141D01*
X19675693Y-49860295D01*
X19668995Y-49857171D01*
X19508070Y-49803794D01*
X19497867Y-49801607D01*
X19498311Y-49799538D01*
X19460914Y-49779368D01*
X19446871Y-49732441D01*
X19470124Y-49689328D01*
X19489334Y-49678568D01*
X19558671Y-49654219D01*
X19558672Y-49654219D01*
X19563184Y-49652634D01*
X19567029Y-49649794D01*
X19567031Y-49649793D01*
X19668301Y-49574993D01*
X19672150Y-49572150D01*
X19681961Y-49558867D01*
X19749793Y-49467031D01*
X19749794Y-49467029D01*
X19752634Y-49463184D01*
X19760057Y-49442046D01*
X19796227Y-49339049D01*
X19796228Y-49339047D01*
X19797519Y-49335369D01*
X19800500Y-49303834D01*
X19800500Y-49131845D01*
X19819245Y-49086590D01*
X19864500Y-49067845D01*
X19909755Y-49086590D01*
X19926319Y-49115281D01*
X19965463Y-49261369D01*
X19967367Y-49266602D01*
X20061733Y-49468970D01*
X20064512Y-49473783D01*
X20192583Y-49656687D01*
X20196165Y-49660956D01*
X20354044Y-49818835D01*
X20358313Y-49822417D01*
X20541217Y-49950488D01*
X20546030Y-49953267D01*
X20748398Y-50047633D01*
X20753631Y-50049537D01*
X20933702Y-50097787D01*
X20943364Y-50096515D01*
X20946000Y-50093079D01*
X20946000Y-50088353D01*
X21454000Y-50088353D01*
X21457728Y-50097354D01*
X21461729Y-50099011D01*
X21646369Y-50049537D01*
X21651602Y-50047633D01*
X21853970Y-49953267D01*
X21858783Y-49950488D01*
X22041687Y-49822417D01*
X22045956Y-49818835D01*
X22203835Y-49660956D01*
X22207417Y-49656687D01*
X22335488Y-49473783D01*
X22338267Y-49468970D01*
X22432633Y-49266602D01*
X22434537Y-49261369D01*
X22482787Y-49081298D01*
X22481515Y-49071636D01*
X22478079Y-49069000D01*
X21466729Y-49069000D01*
X21457728Y-49072728D01*
X21454000Y-49081729D01*
X21454000Y-50088353D01*
X20946000Y-50088353D01*
X20946000Y-48625000D01*
X20964745Y-48579745D01*
X21010000Y-48561000D01*
X22473353Y-48561000D01*
X22482354Y-48557272D01*
X22484011Y-48553271D01*
X22434537Y-48368631D01*
X22432633Y-48363398D01*
X22338267Y-48161030D01*
X22335488Y-48156217D01*
X22207417Y-47973313D01*
X22203835Y-47969044D01*
X22144546Y-47909755D01*
X22125801Y-47864500D01*
X22144546Y-47819245D01*
X22189801Y-47800500D01*
X23657598Y-47800500D01*
X23702853Y-47819245D01*
X23711658Y-47828050D01*
X23824696Y-47885646D01*
X23950000Y-47905492D01*
X24075304Y-47885646D01*
X24188342Y-47828050D01*
X24278050Y-47738342D01*
X24335646Y-47625304D01*
X24355492Y-47500000D01*
X24335646Y-47374696D01*
X24278050Y-47261658D01*
X24188342Y-47171950D01*
X24075304Y-47114354D01*
X23950000Y-47094508D01*
X23824696Y-47114354D01*
X23711658Y-47171950D01*
X23702853Y-47180755D01*
X23657598Y-47199500D01*
X21827715Y-47199500D01*
X21782460Y-47180755D01*
X21763715Y-47135500D01*
X21782460Y-47090245D01*
X21788313Y-47085067D01*
X21890835Y-47004968D01*
X21893303Y-47003040D01*
X21921026Y-46970923D01*
X22019464Y-46856880D01*
X22021509Y-46854511D01*
X22085690Y-46741532D01*
X22116880Y-46686629D01*
X22116881Y-46686628D01*
X22118425Y-46683909D01*
X22124423Y-46665880D01*
X22179370Y-46500702D01*
X22180358Y-46497732D01*
X22186427Y-46449696D01*
X22204724Y-46304853D01*
X22204724Y-46304851D01*
X22204949Y-46303071D01*
X22205341Y-46275000D01*
X22186194Y-46079728D01*
X22185291Y-46076737D01*
X22185290Y-46076732D01*
X22130388Y-45894889D01*
X22129484Y-45891894D01*
X22128019Y-45889138D01*
X22128017Y-45889134D01*
X22038840Y-45721417D01*
X22038838Y-45721414D01*
X22037370Y-45718653D01*
X21913361Y-45566602D01*
X21762180Y-45441535D01*
X21589585Y-45348213D01*
X21586601Y-45347289D01*
X21586598Y-45347288D01*
X21405140Y-45291118D01*
X21405141Y-45291118D01*
X21402152Y-45290193D01*
X21207019Y-45269683D01*
X21203909Y-45269966D01*
X21203908Y-45269966D01*
X21165393Y-45273471D01*
X21011618Y-45287466D01*
X21003464Y-45289866D01*
X20826399Y-45341979D01*
X20826396Y-45341980D01*
X20823393Y-45342864D01*
X20810313Y-45349702D01*
X20652283Y-45432318D01*
X20652280Y-45432320D01*
X20649512Y-45433767D01*
X20496600Y-45556711D01*
X20370480Y-45707016D01*
X20362563Y-45721417D01*
X20285870Y-45860921D01*
X20275956Y-45878954D01*
X20275010Y-45881936D01*
X20221781Y-46049735D01*
X20216628Y-46065978D01*
X20216280Y-46069082D01*
X20215881Y-46072638D01*
X20192205Y-46115520D01*
X20152280Y-46129500D01*
X17734500Y-46129500D01*
X17689245Y-46110755D01*
X17670500Y-46065500D01*
X17670500Y-46010252D01*
X17658867Y-45951769D01*
X17614552Y-45885448D01*
X17548231Y-45841133D01*
X17515913Y-45834705D01*
X17492836Y-45830114D01*
X17492834Y-45830114D01*
X17489748Y-45829500D01*
X16250252Y-45829500D01*
X16247166Y-45830114D01*
X16247164Y-45830114D01*
X16209594Y-45837587D01*
X16191769Y-45841133D01*
X16188055Y-45843615D01*
X16140007Y-45843614D01*
X16105371Y-45808977D01*
X16100500Y-45784486D01*
X16100500Y-44615514D01*
X16119245Y-44570259D01*
X16164500Y-44551514D01*
X16187658Y-44556120D01*
X16191769Y-44558867D01*
X16197953Y-44560097D01*
X16247164Y-44569886D01*
X16247166Y-44569886D01*
X16250252Y-44570500D01*
X17489748Y-44570500D01*
X17492834Y-44569886D01*
X17492836Y-44569886D01*
X17515913Y-44565295D01*
X17548231Y-44558867D01*
X17614552Y-44514552D01*
X17658867Y-44448231D01*
X17670500Y-44389748D01*
X17670500Y-44377000D01*
X17689245Y-44331745D01*
X17734500Y-44313000D01*
X17841092Y-44313000D01*
X17886347Y-44331745D01*
X17902087Y-44360507D01*
X17902481Y-44360369D01*
X17923597Y-44420500D01*
X17941222Y-44470687D01*
X17947366Y-44488184D01*
X17950206Y-44492029D01*
X17950207Y-44492031D01*
X18001932Y-44562060D01*
X18027850Y-44597150D01*
X18031699Y-44599993D01*
X18132969Y-44674793D01*
X18132971Y-44674794D01*
X18136816Y-44677634D01*
X18141328Y-44679219D01*
X18141329Y-44679219D01*
X18260951Y-44721227D01*
X18260953Y-44721228D01*
X18264631Y-44722519D01*
X18296166Y-44725500D01*
X19303834Y-44725500D01*
X19335369Y-44722519D01*
X19339047Y-44721228D01*
X19339049Y-44721227D01*
X19458671Y-44679219D01*
X19458672Y-44679219D01*
X19463184Y-44677634D01*
X19467029Y-44674794D01*
X19467031Y-44674793D01*
X19568301Y-44599993D01*
X19572150Y-44597150D01*
X19598068Y-44562060D01*
X19649793Y-44492031D01*
X19649794Y-44492029D01*
X19652634Y-44488184D01*
X19656486Y-44477215D01*
X19696227Y-44364049D01*
X19696228Y-44364047D01*
X19697519Y-44360369D01*
X19700500Y-44328834D01*
X19700500Y-43696166D01*
X19697519Y-43664631D01*
X19686687Y-43633784D01*
X19654219Y-43541329D01*
X19654219Y-43541328D01*
X19652634Y-43536816D01*
X19648158Y-43530755D01*
X19574993Y-43431699D01*
X19572150Y-43427850D01*
X19564157Y-43421946D01*
X19467031Y-43350207D01*
X19467029Y-43350206D01*
X19463184Y-43347366D01*
X19457290Y-43345296D01*
X19389035Y-43321327D01*
X19352547Y-43288646D01*
X19349855Y-43239737D01*
X19382536Y-43203249D01*
X19399241Y-43198526D01*
X19399156Y-43198133D01*
X19409385Y-43195924D01*
X19570199Y-43142273D01*
X19576898Y-43139135D01*
X19720870Y-43050042D01*
X19726663Y-43045450D01*
X19846286Y-42925620D01*
X19850859Y-42919828D01*
X19939705Y-42775693D01*
X19942829Y-42768995D01*
X19996206Y-42608070D01*
X19997660Y-42601288D01*
X20007833Y-42501989D01*
X20008000Y-42498726D01*
X20008000Y-42454229D01*
X20004272Y-42445228D01*
X19995271Y-42441500D01*
X17604730Y-42441500D01*
X17595729Y-42445228D01*
X17592001Y-42454229D01*
X17592001Y-42498714D01*
X17592171Y-42502004D01*
X17602607Y-42602581D01*
X17604076Y-42609385D01*
X17657727Y-42770199D01*
X17660865Y-42776898D01*
X17749958Y-42920870D01*
X17754550Y-42926663D01*
X17874380Y-43046286D01*
X17880172Y-43050859D01*
X18024307Y-43139705D01*
X18031005Y-43142829D01*
X18191930Y-43196206D01*
X18202133Y-43198393D01*
X18201689Y-43200462D01*
X18239086Y-43220632D01*
X18253129Y-43267559D01*
X18229876Y-43310672D01*
X18210666Y-43321432D01*
X18142711Y-43345296D01*
X18136816Y-43347366D01*
X18132971Y-43350206D01*
X18132969Y-43350207D01*
X18035843Y-43421946D01*
X18027850Y-43427850D01*
X18025007Y-43431699D01*
X17951843Y-43530755D01*
X17947366Y-43536816D01*
X17945781Y-43541328D01*
X17945781Y-43541329D01*
X17936567Y-43567567D01*
X17902481Y-43664631D01*
X17901754Y-43664376D01*
X17875592Y-43701905D01*
X17841092Y-43712000D01*
X17734500Y-43712000D01*
X17689245Y-43693255D01*
X17670500Y-43648000D01*
X17670500Y-43550252D01*
X17667828Y-43536816D01*
X17662823Y-43511658D01*
X17658867Y-43491769D01*
X17614552Y-43425448D01*
X17548231Y-43381133D01*
X17515913Y-43374705D01*
X17492836Y-43370114D01*
X17492834Y-43370114D01*
X17489748Y-43369500D01*
X16250252Y-43369500D01*
X16247166Y-43370114D01*
X16247164Y-43370114D01*
X16209594Y-43377587D01*
X16191769Y-43381133D01*
X16188055Y-43383615D01*
X16140007Y-43383614D01*
X16105371Y-43348977D01*
X16100500Y-43324486D01*
X16100500Y-42075514D01*
X16119245Y-42030259D01*
X16164500Y-42011514D01*
X16187658Y-42016120D01*
X16191769Y-42018867D01*
X16197953Y-42020097D01*
X16247164Y-42029886D01*
X16247166Y-42029886D01*
X16250252Y-42030500D01*
X17489748Y-42030500D01*
X17492834Y-42029886D01*
X17492836Y-42029886D01*
X17520058Y-42024471D01*
X17548231Y-42018867D01*
X17614552Y-41974552D01*
X17622977Y-41961943D01*
X17663704Y-41934730D01*
X17676190Y-41933500D01*
X18533271Y-41933500D01*
X18542272Y-41929772D01*
X18546000Y-41920771D01*
X19054000Y-41920771D01*
X19057728Y-41929772D01*
X19066729Y-41933500D01*
X19995270Y-41933500D01*
X20004271Y-41929772D01*
X20007999Y-41920771D01*
X20007999Y-41876286D01*
X20007829Y-41872996D01*
X19997393Y-41772419D01*
X19995924Y-41765615D01*
X19942273Y-41604801D01*
X19939135Y-41598102D01*
X19850042Y-41454130D01*
X19845450Y-41448337D01*
X19725620Y-41328714D01*
X19719828Y-41324141D01*
X19575693Y-41235295D01*
X19568995Y-41232171D01*
X19408070Y-41178794D01*
X19401288Y-41177340D01*
X19301989Y-41167167D01*
X19298726Y-41167000D01*
X19066729Y-41167000D01*
X19057728Y-41170728D01*
X19054000Y-41179729D01*
X19054000Y-41920771D01*
X18546000Y-41920771D01*
X18546000Y-41179730D01*
X18542272Y-41170729D01*
X18533271Y-41167001D01*
X18301286Y-41167001D01*
X18297996Y-41167171D01*
X18197419Y-41177607D01*
X18190615Y-41179076D01*
X18029801Y-41232727D01*
X18023102Y-41235865D01*
X17879130Y-41324958D01*
X17873337Y-41329550D01*
X17779794Y-41423255D01*
X17734556Y-41442039D01*
X17689284Y-41423333D01*
X17670500Y-41378039D01*
X17670500Y-41010252D01*
X17658867Y-40951769D01*
X17614552Y-40885448D01*
X17548231Y-40841133D01*
X17515913Y-40834705D01*
X17492836Y-40830114D01*
X17492834Y-40830114D01*
X17489748Y-40829500D01*
X16250252Y-40829500D01*
X16247166Y-40830114D01*
X16247164Y-40830114D01*
X16224087Y-40834705D01*
X16191769Y-40841133D01*
X16125448Y-40885448D01*
X16081133Y-40951769D01*
X16069500Y-41010252D01*
X16069500Y-41175587D01*
X16056445Y-41214325D01*
X16049795Y-41223071D01*
X16045553Y-41228649D01*
X16039863Y-41235166D01*
X15626399Y-41648630D01*
X15621837Y-41652568D01*
X15617731Y-41654575D01*
X15613714Y-41658906D01*
X15613712Y-41658907D01*
X15583645Y-41691320D01*
X15581979Y-41693050D01*
X15567752Y-41707277D01*
X15566083Y-41709709D01*
X15564204Y-41711971D01*
X15564124Y-41711905D01*
X15561463Y-41715232D01*
X15541599Y-41736646D01*
X15539410Y-41742132D01*
X15539409Y-41742134D01*
X15535889Y-41750956D01*
X15529222Y-41763442D01*
X15523850Y-41771273D01*
X15523848Y-41771276D01*
X15520508Y-41776146D01*
X15515793Y-41796016D01*
X15513765Y-41804561D01*
X15510938Y-41813499D01*
X15500117Y-41840622D01*
X15499500Y-41846915D01*
X15499500Y-41857179D01*
X15497770Y-41871957D01*
X15496025Y-41879311D01*
X15496025Y-41879315D01*
X15494660Y-41885066D01*
X15495457Y-41890923D01*
X15495457Y-41890924D01*
X15498915Y-41916331D01*
X15499500Y-41924961D01*
X15499500Y-46045010D01*
X15499059Y-46051020D01*
X15497575Y-46055342D01*
X15498607Y-46082838D01*
X15499455Y-46105427D01*
X15499500Y-46107828D01*
X15499500Y-46127948D01*
X15500039Y-46130842D01*
X15500310Y-46133781D01*
X15500207Y-46133790D01*
X15500678Y-46138024D01*
X15501774Y-46167208D01*
X15504105Y-46172634D01*
X15504106Y-46172638D01*
X15507855Y-46181364D01*
X15511970Y-46194907D01*
X15514791Y-46210053D01*
X15530120Y-46234921D01*
X15534430Y-46243217D01*
X15545964Y-46270063D01*
X15549978Y-46274949D01*
X15557237Y-46282208D01*
X15566463Y-46293879D01*
X15573532Y-46305348D01*
X15578232Y-46308922D01*
X15578233Y-46308923D01*
X15598650Y-46324448D01*
X15605166Y-46330137D01*
X15878630Y-46603601D01*
X15882568Y-46608163D01*
X15884575Y-46612269D01*
X15888906Y-46616286D01*
X15888907Y-46616288D01*
X15921320Y-46646355D01*
X15923050Y-46648021D01*
X15937276Y-46662247D01*
X15939710Y-46663917D01*
X15941976Y-46665799D01*
X15941909Y-46665880D01*
X15945235Y-46668539D01*
X15966646Y-46688401D01*
X15972136Y-46690591D01*
X15972137Y-46690592D01*
X15980956Y-46694111D01*
X15993442Y-46700778D01*
X16001273Y-46706150D01*
X16001276Y-46706152D01*
X16006146Y-46709492D01*
X16011892Y-46710856D01*
X16011893Y-46710856D01*
X16017048Y-46712079D01*
X16020276Y-46712845D01*
X16059980Y-46741532D01*
X16069500Y-46775116D01*
X16069500Y-46849748D01*
X16070114Y-46852834D01*
X16070114Y-46852836D01*
X16074705Y-46875913D01*
X16081133Y-46908231D01*
X16125448Y-46974552D01*
X16191769Y-47018867D01*
X16224087Y-47025295D01*
X16247164Y-47029886D01*
X16247166Y-47029886D01*
X16250252Y-47030500D01*
X17489748Y-47030500D01*
X17492834Y-47029886D01*
X17492836Y-47029886D01*
X17515913Y-47025295D01*
X17548231Y-47018867D01*
X17614552Y-46974552D01*
X17658867Y-46908231D01*
X17665295Y-46875913D01*
X17669886Y-46852836D01*
X17669886Y-46852834D01*
X17670500Y-46849748D01*
X17670500Y-46794500D01*
X17689245Y-46749245D01*
X17734500Y-46730500D01*
X20270086Y-46730500D01*
X20315341Y-46749245D01*
X20327008Y-46765243D01*
X20354944Y-46819601D01*
X20356890Y-46822056D01*
X20473602Y-46969311D01*
X20476818Y-46973369D01*
X20608064Y-47085067D01*
X20610054Y-47086761D01*
X20632368Y-47130367D01*
X20617313Y-47176980D01*
X20573707Y-47199294D01*
X20568574Y-47199500D01*
X14400982Y-47199500D01*
X14355727Y-47180755D01*
X13741530Y-46566559D01*
X13723573Y-46531316D01*
X13711434Y-46454672D01*
X13710646Y-46449696D01*
X13653050Y-46336658D01*
X13563342Y-46246950D01*
X13450304Y-46189354D01*
X13325000Y-46169508D01*
X13199696Y-46189354D01*
X13086658Y-46246950D01*
X12996950Y-46336658D01*
X12939354Y-46449696D01*
X12919508Y-46575000D01*
X11670500Y-46575000D01*
X11670500Y-46293113D01*
X11689245Y-46247858D01*
X12596943Y-45340160D01*
X12602576Y-45335155D01*
X12603388Y-45334515D01*
X12632110Y-45311872D01*
X12649174Y-45287183D01*
X12666015Y-45262815D01*
X12667184Y-45261179D01*
X12699790Y-45217035D01*
X12699791Y-45217033D01*
X12702634Y-45213184D01*
X12704221Y-45208664D01*
X12705009Y-45207175D01*
X12705198Y-45206865D01*
X12705528Y-45206216D01*
X12705670Y-45205878D01*
X12706411Y-45204366D01*
X12709131Y-45200431D01*
X12727117Y-45143561D01*
X12727753Y-45141655D01*
X12745933Y-45089885D01*
X12747519Y-45085369D01*
X12747707Y-45080586D01*
X12748022Y-45078933D01*
X12748209Y-45078194D01*
X12748882Y-45074742D01*
X12749980Y-45071270D01*
X12750500Y-45064663D01*
X12750500Y-45010772D01*
X12750549Y-45008259D01*
X12750742Y-45003340D01*
X12752838Y-44950006D01*
X12751612Y-44945383D01*
X12751087Y-44940627D01*
X12751508Y-44940581D01*
X12750500Y-44932848D01*
X12750500Y-39830557D01*
X12750944Y-39823035D01*
X12754802Y-39790438D01*
X12755364Y-39785689D01*
X12754505Y-39780987D01*
X12754505Y-39780981D01*
X12744650Y-39727025D01*
X12744319Y-39725040D01*
X12736161Y-39670772D01*
X12736160Y-39670770D01*
X12735449Y-39666038D01*
X12733376Y-39661722D01*
X12732878Y-39660103D01*
X12732795Y-39659763D01*
X12732566Y-39659060D01*
X12732429Y-39658724D01*
X12731884Y-39657133D01*
X12731025Y-39652427D01*
X12703531Y-39599498D01*
X12702637Y-39597708D01*
X12700042Y-39592303D01*
X12676809Y-39543921D01*
X12673563Y-39540410D01*
X12672606Y-39539001D01*
X12672231Y-39538374D01*
X12670263Y-39535453D01*
X12668579Y-39532211D01*
X12664275Y-39527172D01*
X12626167Y-39489064D01*
X12624425Y-39487252D01*
X12588101Y-39447956D01*
X12588099Y-39447954D01*
X12584854Y-39444444D01*
X12580719Y-39442042D01*
X12576984Y-39439050D01*
X12577248Y-39438720D01*
X12571067Y-39433964D01*
X12240160Y-39103057D01*
X12235155Y-39097424D01*
X12234515Y-39096612D01*
X12211872Y-39067890D01*
X12207939Y-39065171D01*
X12207937Y-39065170D01*
X12167908Y-39037505D01*
X12162813Y-39033984D01*
X12161179Y-39032816D01*
X12117035Y-39000210D01*
X12117033Y-39000209D01*
X12113184Y-38997366D01*
X12108664Y-38995779D01*
X12107175Y-38994991D01*
X12106865Y-38994802D01*
X12106216Y-38994472D01*
X12105878Y-38994330D01*
X12104366Y-38993589D01*
X12100431Y-38990869D01*
X12095870Y-38989427D01*
X12095869Y-38989426D01*
X12043561Y-38972883D01*
X12041655Y-38972247D01*
X11989885Y-38954067D01*
X11989886Y-38954067D01*
X11985369Y-38952481D01*
X11980586Y-38952293D01*
X11978933Y-38951978D01*
X11978194Y-38951791D01*
X11974742Y-38951118D01*
X11971270Y-38950020D01*
X11967638Y-38949734D01*
X11967637Y-38949734D01*
X11967419Y-38949717D01*
X11964663Y-38949500D01*
X11910772Y-38949500D01*
X11908259Y-38949451D01*
X11908209Y-38949449D01*
X11850006Y-38947162D01*
X11845380Y-38948388D01*
X11840630Y-38948913D01*
X11840583Y-38948492D01*
X11832850Y-38949500D01*
X7848596Y-38949500D01*
X7803341Y-38930755D01*
X7784596Y-38885500D01*
X7803341Y-38840245D01*
X7814918Y-38831078D01*
X7945870Y-38750042D01*
X7951663Y-38745450D01*
X8071286Y-38625620D01*
X8075859Y-38619828D01*
X8164705Y-38475693D01*
X8167829Y-38468995D01*
X8221206Y-38308070D01*
X8222660Y-38301288D01*
X8232833Y-38201989D01*
X8233000Y-38198726D01*
X8233000Y-37966729D01*
X8229272Y-37957728D01*
X8220271Y-37954000D01*
X7022500Y-37954000D01*
X6977245Y-37935255D01*
X6958500Y-37890000D01*
X6958500Y-37433271D01*
X7466500Y-37433271D01*
X7470228Y-37442272D01*
X7479229Y-37446000D01*
X8220270Y-37446000D01*
X8229271Y-37442272D01*
X8232999Y-37433271D01*
X8232999Y-37201286D01*
X8232829Y-37197996D01*
X8222393Y-37097419D01*
X8220924Y-37090615D01*
X8167273Y-36929801D01*
X8164135Y-36923102D01*
X8075042Y-36779130D01*
X8070450Y-36773337D01*
X7950620Y-36653714D01*
X7944828Y-36649141D01*
X7800693Y-36560295D01*
X7793995Y-36557171D01*
X7633070Y-36503794D01*
X7626288Y-36502340D01*
X7526989Y-36492167D01*
X7523726Y-36492000D01*
X7479229Y-36492000D01*
X7470228Y-36495728D01*
X7466500Y-36504729D01*
X7466500Y-37433271D01*
X6958500Y-37433271D01*
X6958500Y-36504730D01*
X6954772Y-36495729D01*
X6945771Y-36492001D01*
X6901286Y-36492001D01*
X6897996Y-36492171D01*
X6797419Y-36502607D01*
X6790615Y-36504076D01*
X6629801Y-36557727D01*
X6623102Y-36560865D01*
X6479130Y-36649958D01*
X6473337Y-36654550D01*
X6353714Y-36774380D01*
X6349141Y-36780172D01*
X6260295Y-36924307D01*
X6257171Y-36931005D01*
X6203794Y-37091930D01*
X6201607Y-37102133D01*
X6199538Y-37101689D01*
X6179368Y-37139086D01*
X6132441Y-37153129D01*
X6089328Y-37129876D01*
X6078568Y-37110666D01*
X6054219Y-37041329D01*
X6054219Y-37041328D01*
X6052634Y-37036816D01*
X5972150Y-36927850D01*
X5965722Y-36923102D01*
X5867031Y-36850207D01*
X5867029Y-36850206D01*
X5863184Y-36847366D01*
X5858675Y-36845783D01*
X5858672Y-36845781D01*
X5813875Y-36830050D01*
X5773294Y-36815799D01*
X5736807Y-36783119D01*
X5730500Y-36755415D01*
X5730500Y-36264500D01*
X5749245Y-36219245D01*
X5794500Y-36200500D01*
X5849748Y-36200500D01*
X5852834Y-36199886D01*
X5852836Y-36199886D01*
X5875913Y-36195295D01*
X5908231Y-36188867D01*
X5974552Y-36144552D01*
X6018867Y-36078231D01*
X6030500Y-36019748D01*
X6030500Y-34780252D01*
X6018867Y-34721769D01*
X5974552Y-34655448D01*
X5908231Y-34611133D01*
X5875913Y-34604705D01*
X5852836Y-34600114D01*
X5852834Y-34600114D01*
X5849748Y-34599500D01*
X5010252Y-34599500D01*
X5007166Y-34600114D01*
X5007164Y-34600114D01*
X4984087Y-34604705D01*
X4951769Y-34611133D01*
X4885448Y-34655448D01*
X4841133Y-34721769D01*
X4829500Y-34780252D01*
X4829500Y-36019748D01*
X4841133Y-36078231D01*
X4885448Y-36144552D01*
X4951769Y-36188867D01*
X4984087Y-36195295D01*
X5007164Y-36199886D01*
X5007166Y-36199886D01*
X5010252Y-36200500D01*
X5065500Y-36200500D01*
X5110755Y-36219245D01*
X5129500Y-36264500D01*
X5129500Y-36735767D01*
X5110755Y-36781022D01*
X5071078Y-36798574D01*
X5071166Y-36799500D01*
X5039631Y-36802481D01*
X5035953Y-36803772D01*
X5035951Y-36803773D01*
X4916329Y-36845781D01*
X4911816Y-36847366D01*
X4907971Y-36850206D01*
X4907969Y-36850207D01*
X4809278Y-36923102D01*
X4802850Y-36927850D01*
X4722366Y-37036816D01*
X4720781Y-37041328D01*
X4720781Y-37041329D01*
X4686452Y-37139086D01*
X4677481Y-37164631D01*
X4674500Y-37196166D01*
X4674500Y-38203834D01*
X4677481Y-38235369D01*
X4678772Y-38239047D01*
X4678773Y-38239049D01*
X4712734Y-38335755D01*
X4722366Y-38363184D01*
X4725206Y-38367029D01*
X4725207Y-38367031D01*
X4761487Y-38416149D01*
X4802850Y-38472150D01*
X4806699Y-38474993D01*
X4907969Y-38549793D01*
X4907971Y-38549794D01*
X4911816Y-38552634D01*
X4916328Y-38554219D01*
X4916329Y-38554219D01*
X5035951Y-38596227D01*
X5035953Y-38596228D01*
X5039631Y-38597519D01*
X5071166Y-38600500D01*
X5703834Y-38600500D01*
X5735369Y-38597519D01*
X5739047Y-38596228D01*
X5739049Y-38596227D01*
X5858671Y-38554219D01*
X5858672Y-38554219D01*
X5863184Y-38552634D01*
X5867029Y-38549794D01*
X5867031Y-38549793D01*
X5968301Y-38474993D01*
X5972150Y-38472150D01*
X6013513Y-38416149D01*
X6049793Y-38367031D01*
X6049794Y-38367029D01*
X6052634Y-38363184D01*
X6078673Y-38289035D01*
X6111354Y-38252547D01*
X6160263Y-38249855D01*
X6196751Y-38282536D01*
X6201474Y-38299241D01*
X6201867Y-38299156D01*
X6204076Y-38309385D01*
X6257727Y-38470199D01*
X6260865Y-38476898D01*
X6349958Y-38620870D01*
X6354550Y-38626663D01*
X6474380Y-38746286D01*
X6480172Y-38750859D01*
X6610215Y-38831019D01*
X6638903Y-38870722D01*
X6631113Y-38919083D01*
X6591410Y-38947771D01*
X6576632Y-38949500D01*
X3614500Y-38949500D01*
X3569245Y-38930755D01*
X3550500Y-38885500D01*
X3550500Y-33798714D01*
X10067001Y-33798714D01*
X10067171Y-33802004D01*
X10077607Y-33902581D01*
X10079076Y-33909385D01*
X10132727Y-34070199D01*
X10135865Y-34076898D01*
X10224958Y-34220870D01*
X10229550Y-34226663D01*
X10349380Y-34346286D01*
X10355172Y-34350859D01*
X10499307Y-34439705D01*
X10506005Y-34442829D01*
X10666930Y-34496206D01*
X10673712Y-34497660D01*
X10773011Y-34507833D01*
X10776274Y-34508000D01*
X10820771Y-34508000D01*
X10829772Y-34504272D01*
X10833500Y-34495271D01*
X10833500Y-33566729D01*
X10829772Y-33557728D01*
X10820771Y-33554000D01*
X10079730Y-33554000D01*
X10070729Y-33557728D01*
X10067001Y-33566729D01*
X10067001Y-33798714D01*
X3550500Y-33798714D01*
X3550500Y-33033271D01*
X10067000Y-33033271D01*
X10070728Y-33042272D01*
X10079729Y-33046000D01*
X10820771Y-33046000D01*
X10829772Y-33042272D01*
X10833500Y-33033271D01*
X10833500Y-32104730D01*
X10829772Y-32095729D01*
X10820771Y-32092001D01*
X10776286Y-32092001D01*
X10772996Y-32092171D01*
X10672419Y-32102607D01*
X10665615Y-32104076D01*
X10504801Y-32157727D01*
X10498102Y-32160865D01*
X10354130Y-32249958D01*
X10348337Y-32254550D01*
X10228714Y-32374380D01*
X10224141Y-32380172D01*
X10135295Y-32524307D01*
X10132171Y-32531005D01*
X10078794Y-32691930D01*
X10077340Y-32698712D01*
X10067167Y-32798011D01*
X10067000Y-32801274D01*
X10067000Y-33033271D01*
X3550500Y-33033271D01*
X3550500Y-26313113D01*
X3569245Y-26267858D01*
X5143293Y-24693810D01*
X5188548Y-24675065D01*
X5194578Y-24675350D01*
X5196166Y-24675500D01*
X6003834Y-24675500D01*
X6035369Y-24672519D01*
X6039047Y-24671228D01*
X6039049Y-24671227D01*
X6158671Y-24629219D01*
X6158672Y-24629219D01*
X6163184Y-24627634D01*
X6167029Y-24624794D01*
X6167031Y-24624793D01*
X6268301Y-24549993D01*
X6272150Y-24547150D01*
X6274993Y-24543301D01*
X6349793Y-24442031D01*
X6349794Y-24442029D01*
X6352634Y-24438184D01*
X6354507Y-24432850D01*
X6396227Y-24314049D01*
X6396228Y-24314047D01*
X6397519Y-24310369D01*
X6400500Y-24278834D01*
X6400500Y-22921166D01*
X6397519Y-22889631D01*
X6389477Y-22866729D01*
X6354219Y-22766329D01*
X6354219Y-22766328D01*
X6352634Y-22761816D01*
X6306777Y-22699730D01*
X6274993Y-22656699D01*
X6272150Y-22652850D01*
X6197861Y-22597979D01*
X6167031Y-22575207D01*
X6167029Y-22575206D01*
X6163184Y-22572366D01*
X6158671Y-22570781D01*
X6039049Y-22528773D01*
X6039047Y-22528772D01*
X6035369Y-22527481D01*
X6003834Y-22524500D01*
X5196166Y-22524500D01*
X5164631Y-22527481D01*
X5160953Y-22528772D01*
X5160951Y-22528773D01*
X5041329Y-22570781D01*
X5036816Y-22572366D01*
X5032971Y-22575206D01*
X5032969Y-22575207D01*
X5002139Y-22597979D01*
X4927850Y-22652850D01*
X4925007Y-22656699D01*
X4893224Y-22699730D01*
X4847366Y-22761816D01*
X4845781Y-22766328D01*
X4845781Y-22766329D01*
X4810524Y-22866729D01*
X4802481Y-22889631D01*
X4799500Y-22921166D01*
X4799500Y-23736887D01*
X4780755Y-23782142D01*
X2803057Y-25759840D01*
X2797424Y-25764845D01*
X2767890Y-25788128D01*
X2765171Y-25792061D01*
X2765170Y-25792063D01*
X2733985Y-25837185D01*
X2732816Y-25838821D01*
X2711980Y-25867031D01*
X2697366Y-25886816D01*
X2695779Y-25891336D01*
X2694991Y-25892825D01*
X2694802Y-25893135D01*
X2694472Y-25893784D01*
X2694330Y-25894122D01*
X2693589Y-25895634D01*
X2690869Y-25899569D01*
X2689427Y-25904130D01*
X2689426Y-25904131D01*
X2672883Y-25956439D01*
X2672247Y-25958345D01*
X2652481Y-26014631D01*
X2652293Y-26019414D01*
X2651978Y-26021067D01*
X2651791Y-26021806D01*
X2651118Y-26025258D01*
X2650020Y-26028730D01*
X2649500Y-26035337D01*
X2649500Y-26089228D01*
X2649451Y-26091741D01*
X2647162Y-26149994D01*
X2648388Y-26154620D01*
X2648913Y-26159370D01*
X2648492Y-26159417D01*
X2649500Y-26167150D01*
X2649500Y-39057887D01*
X2630755Y-39103142D01*
X2585500Y-39121887D01*
X2540245Y-39103142D01*
X2269245Y-38832142D01*
X2250500Y-38786887D01*
X2250500Y-21517600D01*
X2269245Y-21472345D01*
X2314500Y-21453600D01*
X2359755Y-21472345D01*
X2365968Y-21479619D01*
X2367467Y-21482216D01*
X2494129Y-21622888D01*
X2647270Y-21734151D01*
X2650334Y-21735515D01*
X2817137Y-21809782D01*
X2817140Y-21809783D01*
X2820197Y-21811144D01*
X3005354Y-21850500D01*
X3194646Y-21850500D01*
X3379803Y-21811144D01*
X3382860Y-21809783D01*
X3382863Y-21809782D01*
X3549666Y-21735515D01*
X3552730Y-21734151D01*
X3705871Y-21622888D01*
X3751361Y-21572366D01*
X3830288Y-21484710D01*
X3830291Y-21484706D01*
X3832533Y-21482216D01*
X3834210Y-21479312D01*
X3834214Y-21479306D01*
X3861238Y-21432500D01*
X3900099Y-21402681D01*
X3916663Y-21400500D01*
X8436887Y-21400500D01*
X8482142Y-21419245D01*
X9909840Y-22846943D01*
X9914845Y-22852576D01*
X9938128Y-22882110D01*
X9942062Y-22884829D01*
X9942063Y-22884830D01*
X9987183Y-22916014D01*
X9988816Y-22917181D01*
X10036817Y-22952635D01*
X10041329Y-22954220D01*
X10042839Y-22955019D01*
X10043139Y-22955202D01*
X10043772Y-22955524D01*
X10044126Y-22955672D01*
X10045632Y-22956410D01*
X10049569Y-22959131D01*
X10054130Y-22960573D01*
X10054131Y-22960574D01*
X10106404Y-22977106D01*
X10108310Y-22977742D01*
X10160117Y-22995935D01*
X10160118Y-22995935D01*
X10164631Y-22997520D01*
X10169409Y-22997708D01*
X10171096Y-22998030D01*
X10171783Y-22998204D01*
X10175247Y-22998879D01*
X10178730Y-22999980D01*
X10185337Y-23000500D01*
X10239218Y-23000500D01*
X10241730Y-23000549D01*
X10299994Y-23002838D01*
X10304620Y-23001612D01*
X10309370Y-23001087D01*
X10309417Y-23001508D01*
X10317150Y-23000500D01*
X14083337Y-23000500D01*
X14128592Y-23019245D01*
X14138762Y-23032500D01*
X14165786Y-23079306D01*
X14165790Y-23079312D01*
X14167467Y-23082216D01*
X14169709Y-23084706D01*
X14169712Y-23084710D01*
X14212480Y-23132208D01*
X14294129Y-23222888D01*
X14447270Y-23334151D01*
X14450334Y-23335515D01*
X14617137Y-23409782D01*
X14617140Y-23409783D01*
X14620197Y-23411144D01*
X14805354Y-23450500D01*
X14994646Y-23450500D01*
X15179803Y-23411144D01*
X15182860Y-23409783D01*
X15182863Y-23409782D01*
X15349666Y-23335515D01*
X15352730Y-23334151D01*
X15505871Y-23222888D01*
X15587940Y-23131742D01*
X15632151Y-23110655D01*
X15678325Y-23127006D01*
X15699500Y-23174567D01*
X15699500Y-24431466D01*
X15680755Y-24476721D01*
X15635500Y-24495466D01*
X15590245Y-24476721D01*
X15582286Y-24467022D01*
X15578056Y-24460691D01*
X15578054Y-24460689D01*
X15574552Y-24455448D01*
X15508231Y-24411133D01*
X15475913Y-24404705D01*
X15452836Y-24400114D01*
X15452834Y-24400114D01*
X15449748Y-24399500D01*
X14610252Y-24399500D01*
X14607166Y-24400114D01*
X14607164Y-24400114D01*
X14584087Y-24404705D01*
X14551769Y-24411133D01*
X14485448Y-24455448D01*
X14441133Y-24521769D01*
X14438905Y-24532969D01*
X14430838Y-24573527D01*
X14429500Y-24580252D01*
X14429500Y-24835500D01*
X14410755Y-24880755D01*
X14365500Y-24899500D01*
X13802000Y-24899500D01*
X13756745Y-24880755D01*
X13738000Y-24835500D01*
X13738000Y-24696166D01*
X13735019Y-24664631D01*
X13726953Y-24641660D01*
X13691719Y-24541329D01*
X13691719Y-24541328D01*
X13690134Y-24536816D01*
X13683824Y-24528272D01*
X13612493Y-24431699D01*
X13609650Y-24427850D01*
X13572099Y-24400114D01*
X13504531Y-24350207D01*
X13504529Y-24350206D01*
X13500684Y-24347366D01*
X13496171Y-24345781D01*
X13376549Y-24303773D01*
X13376547Y-24303772D01*
X13372869Y-24302481D01*
X13341334Y-24299500D01*
X12708666Y-24299500D01*
X12677131Y-24302481D01*
X12673453Y-24303772D01*
X12673451Y-24303773D01*
X12553829Y-24345781D01*
X12549316Y-24347366D01*
X12545471Y-24350206D01*
X12545469Y-24350207D01*
X12477901Y-24400114D01*
X12440350Y-24427850D01*
X12437507Y-24431699D01*
X12366177Y-24528272D01*
X12359866Y-24536816D01*
X12358281Y-24541328D01*
X12358281Y-24541329D01*
X12333827Y-24610965D01*
X12301146Y-24647453D01*
X12252237Y-24650145D01*
X12215749Y-24617464D01*
X12211026Y-24600759D01*
X12210633Y-24600844D01*
X12208424Y-24590615D01*
X12154773Y-24429801D01*
X12151635Y-24423102D01*
X12062542Y-24279130D01*
X12057950Y-24273337D01*
X11938120Y-24153714D01*
X11932328Y-24149141D01*
X11788193Y-24060295D01*
X11781495Y-24057171D01*
X11620570Y-24003794D01*
X11613788Y-24002340D01*
X11514489Y-23992167D01*
X11511226Y-23992000D01*
X11466729Y-23992000D01*
X11457728Y-23995728D01*
X11454000Y-24004729D01*
X11454000Y-26395270D01*
X11457728Y-26404271D01*
X11466729Y-26407999D01*
X11511214Y-26407999D01*
X11514504Y-26407829D01*
X11615081Y-26397393D01*
X11621885Y-26395924D01*
X11782699Y-26342273D01*
X11789398Y-26339135D01*
X11933370Y-26250042D01*
X11939163Y-26245450D01*
X12058786Y-26125620D01*
X12063359Y-26119828D01*
X12152205Y-25975693D01*
X12155329Y-25968995D01*
X12208706Y-25808070D01*
X12210893Y-25797867D01*
X12212962Y-25798311D01*
X12233132Y-25760914D01*
X12280059Y-25746871D01*
X12323172Y-25770124D01*
X12333932Y-25789334D01*
X12344613Y-25819748D01*
X12359866Y-25863184D01*
X12362706Y-25867029D01*
X12362707Y-25867031D01*
X12429451Y-25957394D01*
X12440350Y-25972150D01*
X12444199Y-25974993D01*
X12545469Y-26049793D01*
X12545471Y-26049794D01*
X12549316Y-26052634D01*
X12553828Y-26054219D01*
X12553829Y-26054219D01*
X12673451Y-26096227D01*
X12673453Y-26096228D01*
X12677131Y-26097519D01*
X12708666Y-26100500D01*
X13341334Y-26100500D01*
X13372869Y-26097519D01*
X13376547Y-26096228D01*
X13376549Y-26096227D01*
X13496171Y-26054219D01*
X13496172Y-26054219D01*
X13500684Y-26052634D01*
X13504529Y-26049794D01*
X13504531Y-26049793D01*
X13605801Y-25974993D01*
X13609650Y-25972150D01*
X13620549Y-25957394D01*
X13687293Y-25867031D01*
X13687294Y-25867029D01*
X13690134Y-25863184D01*
X13704303Y-25822836D01*
X13733727Y-25739049D01*
X13733728Y-25739047D01*
X13735019Y-25735369D01*
X13738000Y-25703834D01*
X13738000Y-25564500D01*
X13756745Y-25519245D01*
X13802000Y-25500500D01*
X14365500Y-25500500D01*
X14410755Y-25519245D01*
X14429500Y-25564500D01*
X14429500Y-25819748D01*
X14441133Y-25878231D01*
X14485448Y-25944552D01*
X14551769Y-25988867D01*
X14584087Y-25995295D01*
X14607164Y-25999886D01*
X14607166Y-25999886D01*
X14610252Y-26000500D01*
X15449748Y-26000500D01*
X15452834Y-25999886D01*
X15452836Y-25999886D01*
X15475913Y-25995295D01*
X15508231Y-25988867D01*
X15574552Y-25944552D01*
X15578054Y-25939311D01*
X15578056Y-25939309D01*
X15582286Y-25932978D01*
X15623014Y-25905764D01*
X15671056Y-25915320D01*
X15698270Y-25956048D01*
X15699500Y-25968534D01*
X15699500Y-26531466D01*
X15680755Y-26576721D01*
X15635500Y-26595466D01*
X15590245Y-26576721D01*
X15582286Y-26567022D01*
X15578056Y-26560691D01*
X15578054Y-26560689D01*
X15574552Y-26555448D01*
X15508231Y-26511133D01*
X15475913Y-26504705D01*
X15452836Y-26500114D01*
X15452834Y-26500114D01*
X15449748Y-26499500D01*
X14610252Y-26499500D01*
X14607166Y-26500114D01*
X14607164Y-26500114D01*
X14584087Y-26504705D01*
X14551769Y-26511133D01*
X14485448Y-26555448D01*
X14441133Y-26621769D01*
X14429500Y-26680252D01*
X14429500Y-26785500D01*
X14410755Y-26830755D01*
X14365500Y-26849500D01*
X10013113Y-26849500D01*
X9967858Y-26830755D01*
X8835817Y-25698714D01*
X10179501Y-25698714D01*
X10179671Y-25702004D01*
X10190107Y-25802581D01*
X10191576Y-25809385D01*
X10245227Y-25970199D01*
X10248365Y-25976898D01*
X10337458Y-26120870D01*
X10342050Y-26126663D01*
X10461880Y-26246286D01*
X10467672Y-26250859D01*
X10611807Y-26339705D01*
X10618505Y-26342829D01*
X10779430Y-26396206D01*
X10786212Y-26397660D01*
X10885511Y-26407833D01*
X10888774Y-26408000D01*
X10933271Y-26408000D01*
X10942272Y-26404272D01*
X10946000Y-26395271D01*
X10946000Y-25466729D01*
X10942272Y-25457728D01*
X10933271Y-25454000D01*
X10192230Y-25454000D01*
X10183229Y-25457728D01*
X10179501Y-25466729D01*
X10179501Y-25698714D01*
X8835817Y-25698714D01*
X8070374Y-24933271D01*
X10179500Y-24933271D01*
X10183228Y-24942272D01*
X10192229Y-24946000D01*
X10933271Y-24946000D01*
X10942272Y-24942272D01*
X10946000Y-24933271D01*
X10946000Y-24004730D01*
X10942272Y-23995729D01*
X10933271Y-23992001D01*
X10888786Y-23992001D01*
X10885496Y-23992171D01*
X10784919Y-24002607D01*
X10778115Y-24004076D01*
X10617301Y-24057727D01*
X10610602Y-24060865D01*
X10466630Y-24149958D01*
X10460837Y-24154550D01*
X10341214Y-24274380D01*
X10336641Y-24280172D01*
X10247795Y-24424307D01*
X10244671Y-24431005D01*
X10191294Y-24591930D01*
X10189840Y-24598712D01*
X10179667Y-24698011D01*
X10179500Y-24701274D01*
X10179500Y-24933271D01*
X8070374Y-24933271D01*
X8069245Y-24932142D01*
X8050500Y-24886887D01*
X8050500Y-24573527D01*
X8069245Y-24528272D01*
X8080965Y-24519017D01*
X8092906Y-24511671D01*
X8092914Y-24511665D01*
X8095955Y-24509794D01*
X8146098Y-24460691D01*
X8221710Y-24386646D01*
X8224268Y-24384141D01*
X8321554Y-24233183D01*
X8362040Y-24121950D01*
X8381752Y-24067792D01*
X8381753Y-24067787D01*
X8382978Y-24064422D01*
X8400500Y-23925717D01*
X8400500Y-23279845D01*
X8400218Y-23277326D01*
X8394111Y-23222888D01*
X8385546Y-23146528D01*
X8380560Y-23132208D01*
X8345837Y-23032500D01*
X8326485Y-22976927D01*
X8322272Y-22970184D01*
X8264888Y-22878352D01*
X8231316Y-22824625D01*
X8222611Y-22815859D01*
X8107290Y-22699730D01*
X8107287Y-22699727D01*
X8104770Y-22697193D01*
X7953136Y-22600963D01*
X7783951Y-22540719D01*
X7647933Y-22524500D01*
X7609172Y-22519878D01*
X7609171Y-22519878D01*
X7605624Y-22519455D01*
X7427017Y-22538227D01*
X7423632Y-22539379D01*
X7423629Y-22539380D01*
X7260393Y-22594950D01*
X7260391Y-22594951D01*
X7257007Y-22596103D01*
X7253960Y-22597978D01*
X7253957Y-22597979D01*
X7197766Y-22632548D01*
X7104045Y-22690206D01*
X6975732Y-22815859D01*
X6878446Y-22966817D01*
X6859364Y-23019245D01*
X6818248Y-23132208D01*
X6818247Y-23132213D01*
X6817022Y-23135578D01*
X6799500Y-23274283D01*
X6799500Y-23920155D01*
X6799699Y-23921927D01*
X6799699Y-23921931D01*
X6801814Y-23940788D01*
X6814454Y-24053472D01*
X6815631Y-24056852D01*
X6815632Y-24056856D01*
X6837504Y-24119662D01*
X6873515Y-24223073D01*
X6875409Y-24226105D01*
X6875411Y-24226108D01*
X6879832Y-24233183D01*
X6968684Y-24375375D01*
X6971205Y-24377913D01*
X6971206Y-24377915D01*
X7092710Y-24500270D01*
X7092713Y-24500273D01*
X7095230Y-24502807D01*
X7098249Y-24504723D01*
X7119793Y-24518395D01*
X7147959Y-24558471D01*
X7149500Y-24572432D01*
X7149500Y-24886887D01*
X7130755Y-24932142D01*
X5133057Y-26929840D01*
X5127424Y-26934845D01*
X5097890Y-26958128D01*
X5095171Y-26962061D01*
X5095170Y-26962063D01*
X5063985Y-27007185D01*
X5062818Y-27008818D01*
X5027366Y-27056816D01*
X5025779Y-27061336D01*
X5024991Y-27062825D01*
X5024802Y-27063135D01*
X5024472Y-27063784D01*
X5024330Y-27064122D01*
X5023589Y-27065634D01*
X5020869Y-27069569D01*
X5019427Y-27074130D01*
X5019426Y-27074131D01*
X5002883Y-27126439D01*
X5002247Y-27128345D01*
X4982481Y-27184631D01*
X4982293Y-27189414D01*
X4981978Y-27191067D01*
X4981791Y-27191806D01*
X4981118Y-27195258D01*
X4980020Y-27198730D01*
X4979500Y-27205337D01*
X4979500Y-27259228D01*
X4979451Y-27261741D01*
X4977162Y-27319994D01*
X4978388Y-27324620D01*
X4978913Y-27329370D01*
X4978492Y-27329417D01*
X4979500Y-27337150D01*
X4979500Y-28558395D01*
X4960755Y-28603650D01*
X4951059Y-28611608D01*
X4885448Y-28655448D01*
X4841133Y-28721769D01*
X4829500Y-28780252D01*
X4829500Y-30019748D01*
X4841133Y-30078231D01*
X4885448Y-30144552D01*
X4951769Y-30188867D01*
X4984087Y-30195295D01*
X5007164Y-30199886D01*
X5007166Y-30199886D01*
X5010252Y-30200500D01*
X5849748Y-30200500D01*
X5852834Y-30199886D01*
X5852836Y-30199886D01*
X5875913Y-30195295D01*
X5908231Y-30188867D01*
X5974552Y-30144552D01*
X6018867Y-30078231D01*
X6025205Y-30046367D01*
X7062001Y-30046367D01*
X7062187Y-30049797D01*
X7068315Y-30106217D01*
X7070158Y-30113967D01*
X7118227Y-30242191D01*
X7122564Y-30250113D01*
X7204359Y-30359252D01*
X7210748Y-30365641D01*
X7319887Y-30447436D01*
X7327809Y-30451773D01*
X7456032Y-30499842D01*
X7463784Y-30501686D01*
X7520185Y-30507812D01*
X7523650Y-30508000D01*
X7703271Y-30508000D01*
X7712272Y-30504272D01*
X7716000Y-30495271D01*
X7716000Y-30495270D01*
X8224000Y-30495270D01*
X8227728Y-30504271D01*
X8236729Y-30507999D01*
X8416367Y-30507999D01*
X8419797Y-30507813D01*
X8476217Y-30501685D01*
X8483967Y-30499842D01*
X8612191Y-30451773D01*
X8620113Y-30447436D01*
X8729252Y-30365641D01*
X8735641Y-30359252D01*
X8817436Y-30250113D01*
X8821773Y-30242191D01*
X8869842Y-30113968D01*
X8871686Y-30106216D01*
X8877812Y-30049815D01*
X8878000Y-30046350D01*
X8878000Y-29666729D01*
X8874272Y-29657728D01*
X8865271Y-29654000D01*
X8236729Y-29654000D01*
X8227728Y-29657728D01*
X8224000Y-29666729D01*
X8224000Y-30495270D01*
X7716000Y-30495270D01*
X7716000Y-29666729D01*
X7712272Y-29657728D01*
X7703271Y-29654000D01*
X7074730Y-29654000D01*
X7065729Y-29657728D01*
X7062001Y-29666729D01*
X7062001Y-30046367D01*
X6025205Y-30046367D01*
X6030500Y-30019748D01*
X6030500Y-29133271D01*
X7062000Y-29133271D01*
X7065728Y-29142272D01*
X7074729Y-29146000D01*
X7703271Y-29146000D01*
X7712272Y-29142272D01*
X7716000Y-29133271D01*
X8224000Y-29133271D01*
X8227728Y-29142272D01*
X8236729Y-29146000D01*
X8865270Y-29146000D01*
X8874271Y-29142272D01*
X8877999Y-29133271D01*
X8877999Y-28753633D01*
X8877813Y-28750203D01*
X8871685Y-28693783D01*
X8869842Y-28686033D01*
X8821773Y-28557809D01*
X8817436Y-28549887D01*
X8735641Y-28440748D01*
X8729252Y-28434359D01*
X8620113Y-28352564D01*
X8612191Y-28348227D01*
X8483968Y-28300158D01*
X8476216Y-28298314D01*
X8419815Y-28292188D01*
X8416350Y-28292000D01*
X8236729Y-28292000D01*
X8227728Y-28295728D01*
X8224000Y-28304729D01*
X8224000Y-29133271D01*
X7716000Y-29133271D01*
X7716000Y-28304730D01*
X7712272Y-28295729D01*
X7703271Y-28292001D01*
X7523633Y-28292001D01*
X7520203Y-28292187D01*
X7463783Y-28298315D01*
X7456033Y-28300158D01*
X7327809Y-28348227D01*
X7319887Y-28352564D01*
X7210748Y-28434359D01*
X7204359Y-28440748D01*
X7122564Y-28549887D01*
X7118227Y-28557809D01*
X7070158Y-28686032D01*
X7068314Y-28693784D01*
X7062188Y-28750185D01*
X7062000Y-28753650D01*
X7062000Y-29133271D01*
X6030500Y-29133271D01*
X6030500Y-28780252D01*
X6018867Y-28721769D01*
X5974552Y-28655448D01*
X5908943Y-28611609D01*
X5881730Y-28570880D01*
X5880500Y-28558395D01*
X5880500Y-27483113D01*
X5899245Y-27437858D01*
X7554745Y-25782358D01*
X7600000Y-25763613D01*
X7645255Y-25782358D01*
X9459840Y-27596943D01*
X9464845Y-27602576D01*
X9488128Y-27632110D01*
X9526820Y-27658852D01*
X9537185Y-27666016D01*
X9538820Y-27667184D01*
X9551852Y-27676809D01*
X9586817Y-27702634D01*
X9591329Y-27704218D01*
X9592835Y-27705016D01*
X9593139Y-27705200D01*
X9593779Y-27705527D01*
X9594117Y-27705668D01*
X9595633Y-27706411D01*
X9599569Y-27709131D01*
X9604130Y-27710573D01*
X9604131Y-27710574D01*
X9656417Y-27727110D01*
X9658324Y-27727746D01*
X9710120Y-27745936D01*
X9710121Y-27745936D01*
X9714631Y-27747520D01*
X9719408Y-27747708D01*
X9721096Y-27748030D01*
X9721783Y-27748204D01*
X9725247Y-27748879D01*
X9728730Y-27749980D01*
X9735337Y-27750500D01*
X9789218Y-27750500D01*
X9791730Y-27750549D01*
X9849994Y-27752838D01*
X9854620Y-27751612D01*
X9859370Y-27751087D01*
X9859417Y-27751508D01*
X9867150Y-27750500D01*
X14365500Y-27750500D01*
X14410755Y-27769245D01*
X14429500Y-27814500D01*
X14429500Y-27919748D01*
X14441133Y-27978231D01*
X14485448Y-28044552D01*
X14551769Y-28088867D01*
X14584087Y-28095295D01*
X14607164Y-28099886D01*
X14607166Y-28099886D01*
X14610252Y-28100500D01*
X15449748Y-28100500D01*
X15452834Y-28099886D01*
X15452836Y-28099886D01*
X15475913Y-28095295D01*
X15508231Y-28088867D01*
X15574552Y-28044552D01*
X15578054Y-28039311D01*
X15578056Y-28039309D01*
X15582286Y-28032978D01*
X15623014Y-28005764D01*
X15671056Y-28015320D01*
X15698270Y-28056048D01*
X15699500Y-28068534D01*
X15699500Y-32531466D01*
X15680755Y-32576721D01*
X15635500Y-32595466D01*
X15590245Y-32576721D01*
X15582286Y-32567022D01*
X15578056Y-32560691D01*
X15578054Y-32560689D01*
X15574552Y-32555448D01*
X15508231Y-32511133D01*
X15475913Y-32504705D01*
X15452836Y-32500114D01*
X15452834Y-32500114D01*
X15449748Y-32499500D01*
X14610252Y-32499500D01*
X14607166Y-32500114D01*
X14607164Y-32500114D01*
X14584087Y-32504705D01*
X14551769Y-32511133D01*
X14485448Y-32555448D01*
X14441133Y-32621769D01*
X14429500Y-32680252D01*
X14429500Y-32935500D01*
X14410755Y-32980755D01*
X14365500Y-32999500D01*
X13689500Y-32999500D01*
X13644245Y-32980755D01*
X13625500Y-32935500D01*
X13625500Y-32796166D01*
X13622519Y-32764631D01*
X13620331Y-32758399D01*
X13579219Y-32641329D01*
X13579219Y-32641328D01*
X13577634Y-32636816D01*
X13572931Y-32630448D01*
X13499993Y-32531699D01*
X13497150Y-32527850D01*
X13459599Y-32500114D01*
X13392031Y-32450207D01*
X13392029Y-32450206D01*
X13388184Y-32447366D01*
X13383671Y-32445781D01*
X13264049Y-32403773D01*
X13264047Y-32403772D01*
X13260369Y-32402481D01*
X13228834Y-32399500D01*
X12596166Y-32399500D01*
X12564631Y-32402481D01*
X12560953Y-32403772D01*
X12560951Y-32403773D01*
X12441329Y-32445781D01*
X12436816Y-32447366D01*
X12432971Y-32450206D01*
X12432969Y-32450207D01*
X12365401Y-32500114D01*
X12327850Y-32527850D01*
X12325007Y-32531699D01*
X12252070Y-32630448D01*
X12247366Y-32636816D01*
X12245781Y-32641328D01*
X12245781Y-32641329D01*
X12221327Y-32710965D01*
X12188646Y-32747453D01*
X12139737Y-32750145D01*
X12103249Y-32717464D01*
X12098526Y-32700759D01*
X12098133Y-32700844D01*
X12095924Y-32690615D01*
X12042273Y-32529801D01*
X12039135Y-32523102D01*
X11950042Y-32379130D01*
X11945450Y-32373337D01*
X11825620Y-32253714D01*
X11819828Y-32249141D01*
X11675693Y-32160295D01*
X11668995Y-32157171D01*
X11508070Y-32103794D01*
X11501288Y-32102340D01*
X11401989Y-32092167D01*
X11398726Y-32092000D01*
X11354229Y-32092000D01*
X11345228Y-32095728D01*
X11341500Y-32104729D01*
X11341500Y-34495270D01*
X11345228Y-34504271D01*
X11354229Y-34507999D01*
X11398714Y-34507999D01*
X11402004Y-34507829D01*
X11502581Y-34497393D01*
X11509385Y-34495924D01*
X11670199Y-34442273D01*
X11676898Y-34439135D01*
X11820870Y-34350042D01*
X11826663Y-34345450D01*
X11946286Y-34225620D01*
X11950859Y-34219828D01*
X12039705Y-34075693D01*
X12042829Y-34068995D01*
X12096206Y-33908070D01*
X12098393Y-33897867D01*
X12100462Y-33898311D01*
X12120632Y-33860914D01*
X12167559Y-33846871D01*
X12210672Y-33870124D01*
X12221432Y-33889334D01*
X12244975Y-33956374D01*
X12247366Y-33963184D01*
X12250206Y-33967029D01*
X12250207Y-33967031D01*
X12307466Y-34044552D01*
X12327850Y-34072150D01*
X12331699Y-34074993D01*
X12432969Y-34149793D01*
X12432971Y-34149794D01*
X12436816Y-34152634D01*
X12441328Y-34154219D01*
X12441329Y-34154219D01*
X12560951Y-34196227D01*
X12560953Y-34196228D01*
X12564631Y-34197519D01*
X12596166Y-34200500D01*
X13228834Y-34200500D01*
X13260369Y-34197519D01*
X13264047Y-34196228D01*
X13264049Y-34196227D01*
X13383671Y-34154219D01*
X13383672Y-34154219D01*
X13388184Y-34152634D01*
X13392029Y-34149794D01*
X13392031Y-34149793D01*
X13493301Y-34074993D01*
X13497150Y-34072150D01*
X13517534Y-34044552D01*
X13574793Y-33967031D01*
X13574794Y-33967029D01*
X13577634Y-33963184D01*
X13579219Y-33958671D01*
X13621227Y-33839049D01*
X13621228Y-33839047D01*
X13622519Y-33835369D01*
X13625500Y-33803834D01*
X13625500Y-33664500D01*
X13644245Y-33619245D01*
X13689500Y-33600500D01*
X14365500Y-33600500D01*
X14410755Y-33619245D01*
X14429500Y-33664500D01*
X14429500Y-33919748D01*
X14430114Y-33922834D01*
X14430114Y-33922836D01*
X14434541Y-33945091D01*
X14441133Y-33978231D01*
X14485448Y-34044552D01*
X14551769Y-34088867D01*
X14584087Y-34095295D01*
X14607164Y-34099886D01*
X14607166Y-34099886D01*
X14610252Y-34100500D01*
X15449748Y-34100500D01*
X15452834Y-34099886D01*
X15452836Y-34099886D01*
X15475913Y-34095295D01*
X15508231Y-34088867D01*
X15574552Y-34044552D01*
X15578054Y-34039311D01*
X15578056Y-34039309D01*
X15582286Y-34032978D01*
X15623014Y-34005764D01*
X15671056Y-34015320D01*
X15698270Y-34056048D01*
X15699500Y-34068534D01*
X15699500Y-34149019D01*
X15680755Y-34194274D01*
X14794274Y-35080755D01*
X14749019Y-35099500D01*
X8634500Y-35099500D01*
X8589245Y-35080755D01*
X8570500Y-35035500D01*
X8570500Y-34780252D01*
X8558867Y-34721769D01*
X8514552Y-34655448D01*
X8448231Y-34611133D01*
X8415913Y-34604705D01*
X8392836Y-34600114D01*
X8392834Y-34600114D01*
X8389748Y-34599500D01*
X7550252Y-34599500D01*
X7547166Y-34600114D01*
X7547164Y-34600114D01*
X7524087Y-34604705D01*
X7491769Y-34611133D01*
X7425448Y-34655448D01*
X7381133Y-34721769D01*
X7369500Y-34780252D01*
X7369500Y-36019748D01*
X7381133Y-36078231D01*
X7425448Y-36144552D01*
X7491769Y-36188867D01*
X7524087Y-36195295D01*
X7547164Y-36199886D01*
X7547166Y-36199886D01*
X7550252Y-36200500D01*
X8389748Y-36200500D01*
X8392834Y-36199886D01*
X8392836Y-36199886D01*
X8415913Y-36195295D01*
X8448231Y-36188867D01*
X8514552Y-36144552D01*
X8558867Y-36078231D01*
X8570500Y-36019748D01*
X8570500Y-35764500D01*
X8589245Y-35719245D01*
X8634500Y-35700500D01*
X14845010Y-35700500D01*
X14851020Y-35700941D01*
X14855342Y-35702425D01*
X14905427Y-35700545D01*
X14907828Y-35700500D01*
X15254019Y-35700500D01*
X15299274Y-35719245D01*
X20278526Y-40698497D01*
X20297271Y-40743752D01*
X20289355Y-40774582D01*
X20275956Y-40798954D01*
X20275010Y-40801936D01*
X20225473Y-40958096D01*
X20216628Y-40985978D01*
X20194757Y-41180963D01*
X20211175Y-41376483D01*
X20212036Y-41379485D01*
X20254637Y-41528050D01*
X20265258Y-41565091D01*
X20286021Y-41605492D01*
X20351334Y-41732576D01*
X20354944Y-41739601D01*
X20356890Y-41742056D01*
X20466540Y-41880401D01*
X20476818Y-41893369D01*
X20479189Y-41895387D01*
X20479193Y-41895391D01*
X20572208Y-41974552D01*
X20626238Y-42020535D01*
X20628963Y-42022058D01*
X20628966Y-42022060D01*
X20794777Y-42114728D01*
X20797513Y-42116257D01*
X20800491Y-42117225D01*
X20800492Y-42117225D01*
X20981147Y-42175924D01*
X20981150Y-42175925D01*
X20984118Y-42176889D01*
X21178946Y-42200121D01*
X21182066Y-42199881D01*
X21182069Y-42199881D01*
X21371449Y-42185309D01*
X21371453Y-42185308D01*
X21374576Y-42185068D01*
X21377592Y-42184226D01*
X21377597Y-42184225D01*
X21560540Y-42133145D01*
X21560539Y-42133145D01*
X21563556Y-42132303D01*
X21598349Y-42114728D01*
X21735891Y-42045251D01*
X21735896Y-42045248D01*
X21738689Y-42043837D01*
X21763477Y-42024471D01*
X21890835Y-41924968D01*
X21893303Y-41923040D01*
X21895384Y-41920630D01*
X22019464Y-41776880D01*
X22021509Y-41774511D01*
X22118425Y-41603909D01*
X22124501Y-41585646D01*
X22179370Y-41420702D01*
X22180358Y-41417732D01*
X22185373Y-41378039D01*
X22204724Y-41224853D01*
X22204724Y-41224851D01*
X22204949Y-41223071D01*
X22205341Y-41195000D01*
X22191474Y-41053578D01*
X22186499Y-41002838D01*
X22186499Y-41002837D01*
X22186194Y-40999728D01*
X22185291Y-40996737D01*
X22185290Y-40996732D01*
X22134985Y-40830114D01*
X22129484Y-40811894D01*
X22128019Y-40809138D01*
X22128017Y-40809134D01*
X22038840Y-40641417D01*
X22038838Y-40641414D01*
X22037370Y-40638653D01*
X21913361Y-40486602D01*
X21762180Y-40361535D01*
X21589585Y-40268213D01*
X21586601Y-40267289D01*
X21586598Y-40267288D01*
X21405140Y-40211118D01*
X21405141Y-40211118D01*
X21402152Y-40210193D01*
X21207019Y-40189683D01*
X21203909Y-40189966D01*
X21203908Y-40189966D01*
X21165393Y-40193471D01*
X21011618Y-40207466D01*
X21003464Y-40209866D01*
X20826399Y-40261979D01*
X20826396Y-40261980D01*
X20823393Y-40262864D01*
X20801245Y-40274443D01*
X20779320Y-40285905D01*
X20730531Y-40290259D01*
X20704414Y-40274443D01*
X19070934Y-38640963D01*
X20194757Y-38640963D01*
X20211175Y-38836483D01*
X20227067Y-38891904D01*
X20262167Y-39014310D01*
X20265258Y-39025091D01*
X20354944Y-39199601D01*
X20356890Y-39202056D01*
X20443889Y-39311822D01*
X20476818Y-39353369D01*
X20479189Y-39355387D01*
X20479193Y-39355391D01*
X20619852Y-39475100D01*
X20626238Y-39480535D01*
X20628963Y-39482058D01*
X20628966Y-39482060D01*
X20794777Y-39574728D01*
X20797513Y-39576257D01*
X20800491Y-39577225D01*
X20800492Y-39577225D01*
X20981147Y-39635924D01*
X20981150Y-39635925D01*
X20984118Y-39636889D01*
X21178946Y-39660121D01*
X21182066Y-39659881D01*
X21182069Y-39659881D01*
X21371449Y-39645309D01*
X21371453Y-39645308D01*
X21374576Y-39645068D01*
X21377592Y-39644226D01*
X21377597Y-39644225D01*
X21560540Y-39593145D01*
X21560539Y-39593145D01*
X21563556Y-39592303D01*
X21650800Y-39548233D01*
X21735891Y-39505251D01*
X21735896Y-39505248D01*
X21738689Y-39503837D01*
X21766563Y-39482060D01*
X21890835Y-39384968D01*
X21893303Y-39383040D01*
X21907981Y-39366036D01*
X22019464Y-39236880D01*
X22021509Y-39234511D01*
X22114029Y-39071648D01*
X22116880Y-39066629D01*
X22116881Y-39066628D01*
X22118425Y-39063909D01*
X22120429Y-39057887D01*
X22179370Y-38880702D01*
X22180358Y-38877732D01*
X22186118Y-38832142D01*
X22204724Y-38684853D01*
X22204724Y-38684851D01*
X22204949Y-38683071D01*
X22205341Y-38655000D01*
X22186194Y-38459728D01*
X22185291Y-38456737D01*
X22185290Y-38456732D01*
X22139455Y-38304921D01*
X22129484Y-38271894D01*
X22128019Y-38269138D01*
X22128017Y-38269134D01*
X22038840Y-38101417D01*
X22038838Y-38101414D01*
X22037370Y-38098653D01*
X21913361Y-37946602D01*
X21762180Y-37821535D01*
X21589585Y-37728213D01*
X21586601Y-37727289D01*
X21586598Y-37727288D01*
X21405140Y-37671118D01*
X21405141Y-37671118D01*
X21402152Y-37670193D01*
X21207019Y-37649683D01*
X21203909Y-37649966D01*
X21203908Y-37649966D01*
X21165393Y-37653471D01*
X21011618Y-37667466D01*
X21003464Y-37669866D01*
X20826399Y-37721979D01*
X20826396Y-37721980D01*
X20823393Y-37722864D01*
X20810313Y-37729702D01*
X20652283Y-37812318D01*
X20652280Y-37812320D01*
X20649512Y-37813767D01*
X20496600Y-37936711D01*
X20370480Y-38087016D01*
X20362563Y-38101417D01*
X20283465Y-38245296D01*
X20275956Y-38258954D01*
X20275010Y-38261936D01*
X20241672Y-38367031D01*
X20216628Y-38445978D01*
X20194757Y-38640963D01*
X19070934Y-38640963D01*
X16530934Y-36100963D01*
X20194757Y-36100963D01*
X20211175Y-36296483D01*
X20212036Y-36299485D01*
X20262218Y-36474488D01*
X20265258Y-36485091D01*
X20354944Y-36659601D01*
X20356890Y-36662056D01*
X20467824Y-36802021D01*
X20476818Y-36813369D01*
X20479189Y-36815387D01*
X20479193Y-36815391D01*
X20605754Y-36923102D01*
X20626238Y-36940535D01*
X20628963Y-36942058D01*
X20628966Y-36942060D01*
X20664482Y-36961909D01*
X20797513Y-37036257D01*
X20800491Y-37037225D01*
X20800492Y-37037225D01*
X20981147Y-37095924D01*
X20981150Y-37095925D01*
X20984118Y-37096889D01*
X21178946Y-37120121D01*
X21182066Y-37119881D01*
X21182069Y-37119881D01*
X21371449Y-37105309D01*
X21371453Y-37105308D01*
X21374576Y-37105068D01*
X21377592Y-37104226D01*
X21377597Y-37104225D01*
X21560540Y-37053145D01*
X21560539Y-37053145D01*
X21563556Y-37052303D01*
X21601831Y-37032969D01*
X21735891Y-36965251D01*
X21735896Y-36965248D01*
X21738689Y-36963837D01*
X21766563Y-36942060D01*
X21815996Y-36903438D01*
X21893303Y-36843040D01*
X21921026Y-36810923D01*
X22019464Y-36696880D01*
X22021509Y-36694511D01*
X22099214Y-36557727D01*
X22116880Y-36526629D01*
X22116881Y-36526628D01*
X22118425Y-36523909D01*
X22124806Y-36504729D01*
X22179370Y-36340702D01*
X22180358Y-36337732D01*
X22188245Y-36275304D01*
X22204724Y-36144853D01*
X22204724Y-36144851D01*
X22204949Y-36143071D01*
X22205341Y-36115000D01*
X22186194Y-35919728D01*
X22185291Y-35916737D01*
X22185290Y-35916732D01*
X22130388Y-35734889D01*
X22129484Y-35731894D01*
X22128019Y-35729138D01*
X22128017Y-35729134D01*
X22038840Y-35561417D01*
X22038838Y-35561414D01*
X22037370Y-35558653D01*
X21913361Y-35406602D01*
X21762180Y-35281535D01*
X21589585Y-35188213D01*
X21586601Y-35187289D01*
X21586598Y-35187288D01*
X21405140Y-35131118D01*
X21405141Y-35131118D01*
X21402152Y-35130193D01*
X21207019Y-35109683D01*
X21203909Y-35109966D01*
X21203908Y-35109966D01*
X21165393Y-35113471D01*
X21011618Y-35127466D01*
X21003464Y-35129866D01*
X20826399Y-35181979D01*
X20826396Y-35181980D01*
X20823393Y-35182864D01*
X20810313Y-35189702D01*
X20652283Y-35272318D01*
X20652280Y-35272320D01*
X20649512Y-35273767D01*
X20496600Y-35396711D01*
X20370480Y-35547016D01*
X20362563Y-35561417D01*
X20285870Y-35700921D01*
X20275956Y-35718954D01*
X20275010Y-35721936D01*
X20242154Y-35825512D01*
X20216628Y-35905978D01*
X20215422Y-35916732D01*
X20198001Y-36072046D01*
X20194757Y-36100963D01*
X16530934Y-36100963D01*
X15656370Y-35226399D01*
X15652432Y-35221837D01*
X15650425Y-35217731D01*
X15639534Y-35207628D01*
X15624860Y-35194015D01*
X15604431Y-35149495D01*
X15623131Y-35101840D01*
X16173601Y-34551370D01*
X16178163Y-34547432D01*
X16182269Y-34545425D01*
X16211132Y-34514311D01*
X16216355Y-34508680D01*
X16218021Y-34506950D01*
X16232248Y-34492723D01*
X16233917Y-34490291D01*
X16235796Y-34488029D01*
X16235876Y-34488095D01*
X16238537Y-34484768D01*
X16254384Y-34467684D01*
X16258401Y-34463354D01*
X16262440Y-34453231D01*
X16264111Y-34449044D01*
X16270778Y-34436558D01*
X16276150Y-34428727D01*
X16276152Y-34428724D01*
X16279492Y-34423854D01*
X16286235Y-34395439D01*
X16286454Y-34394748D01*
X20199500Y-34394748D01*
X20200114Y-34397834D01*
X20200114Y-34397836D01*
X20200651Y-34400535D01*
X20211133Y-34453231D01*
X20255448Y-34519552D01*
X20321769Y-34563867D01*
X20354087Y-34570295D01*
X20377164Y-34574886D01*
X20377166Y-34574886D01*
X20380252Y-34575500D01*
X22019748Y-34575500D01*
X22022834Y-34574886D01*
X22022836Y-34574886D01*
X22045913Y-34570295D01*
X22078231Y-34563867D01*
X22144552Y-34519552D01*
X22188867Y-34453231D01*
X22199349Y-34400535D01*
X22199886Y-34397836D01*
X22199886Y-34397834D01*
X22200500Y-34394748D01*
X22200500Y-33939500D01*
X22219245Y-33894245D01*
X22264500Y-33875500D01*
X24382598Y-33875500D01*
X24427853Y-33894245D01*
X24461658Y-33928050D01*
X24574696Y-33985646D01*
X24700000Y-34005492D01*
X24825304Y-33985646D01*
X24938342Y-33928050D01*
X25028050Y-33838342D01*
X25085646Y-33725304D01*
X25105492Y-33600000D01*
X25085646Y-33474696D01*
X25028050Y-33361658D01*
X24938342Y-33271950D01*
X24825304Y-33214354D01*
X24700000Y-33194508D01*
X24574696Y-33214354D01*
X24570205Y-33216642D01*
X24570206Y-33216642D01*
X24470344Y-33267524D01*
X24441289Y-33274500D01*
X22264500Y-33274500D01*
X22219245Y-33255755D01*
X22200500Y-33210500D01*
X22200500Y-32755252D01*
X22188867Y-32696769D01*
X22144552Y-32630448D01*
X22078231Y-32586133D01*
X22045913Y-32579705D01*
X22022836Y-32575114D01*
X22022834Y-32575114D01*
X22019748Y-32574500D01*
X20380252Y-32574500D01*
X20377166Y-32575114D01*
X20377164Y-32575114D01*
X20354087Y-32579705D01*
X20321769Y-32586133D01*
X20255448Y-32630448D01*
X20211133Y-32696769D01*
X20199500Y-32755252D01*
X20199500Y-34394748D01*
X16286454Y-34394748D01*
X16289062Y-34386501D01*
X16298209Y-34363574D01*
X16299883Y-34359378D01*
X16300500Y-34353085D01*
X16300500Y-34342821D01*
X16302230Y-34328043D01*
X16303975Y-34320689D01*
X16303975Y-34320685D01*
X16305340Y-34314934D01*
X16301085Y-34283668D01*
X16300500Y-34275039D01*
X16300500Y-33179981D01*
X16319245Y-33134726D01*
X16364500Y-33115981D01*
X16409755Y-33134726D01*
X16748633Y-33473605D01*
X16752569Y-33478165D01*
X16754575Y-33482269D01*
X16758906Y-33486286D01*
X16758907Y-33486288D01*
X16791307Y-33516343D01*
X16793037Y-33518009D01*
X16807276Y-33532248D01*
X16809706Y-33533914D01*
X16811976Y-33535801D01*
X16811909Y-33535881D01*
X16815239Y-33538543D01*
X16836646Y-33558401D01*
X16842136Y-33560591D01*
X16842139Y-33560593D01*
X16850957Y-33564111D01*
X16863442Y-33570777D01*
X16876146Y-33579492D01*
X16904561Y-33586235D01*
X16913497Y-33589062D01*
X16929214Y-33595332D01*
X16964302Y-33629511D01*
X16969500Y-33654776D01*
X16969500Y-33919748D01*
X16970114Y-33922834D01*
X16970114Y-33922836D01*
X16974541Y-33945091D01*
X16981133Y-33978231D01*
X17025448Y-34044552D01*
X17091769Y-34088867D01*
X17124087Y-34095295D01*
X17147164Y-34099886D01*
X17147166Y-34099886D01*
X17150252Y-34100500D01*
X17989748Y-34100500D01*
X17992834Y-34099886D01*
X17992836Y-34099886D01*
X18015913Y-34095295D01*
X18048231Y-34088867D01*
X18114552Y-34044552D01*
X18158867Y-33978231D01*
X18165459Y-33945091D01*
X18169886Y-33922836D01*
X18169886Y-33922834D01*
X18170500Y-33919748D01*
X18170500Y-32680252D01*
X18158867Y-32621769D01*
X18114552Y-32555448D01*
X18048231Y-32511133D01*
X18015913Y-32504705D01*
X17992836Y-32500114D01*
X17992834Y-32500114D01*
X17989748Y-32499500D01*
X17150252Y-32499500D01*
X17147166Y-32500114D01*
X17147164Y-32500114D01*
X17124087Y-32504705D01*
X17091769Y-32511133D01*
X17025448Y-32555448D01*
X17021946Y-32560689D01*
X17021944Y-32560691D01*
X17017714Y-32567022D01*
X16976986Y-32594236D01*
X16928944Y-32584680D01*
X16901730Y-32543952D01*
X16900500Y-32531466D01*
X16900500Y-32114500D01*
X16919245Y-32069245D01*
X16964500Y-32050500D01*
X26057598Y-32050500D01*
X26102853Y-32069245D01*
X26111658Y-32078050D01*
X26224696Y-32135646D01*
X26350000Y-32155492D01*
X26475304Y-32135646D01*
X26588342Y-32078050D01*
X26678050Y-31988342D01*
X26735646Y-31875304D01*
X26755492Y-31750000D01*
X26735646Y-31624696D01*
X26678050Y-31511658D01*
X26588342Y-31421950D01*
X26475304Y-31364354D01*
X26350000Y-31344508D01*
X26224696Y-31364354D01*
X26111658Y-31421950D01*
X26102853Y-31430755D01*
X26057598Y-31449500D01*
X19766561Y-31449500D01*
X19721306Y-31430755D01*
X19702561Y-31385500D01*
X19721306Y-31340245D01*
X19730158Y-31333814D01*
X19729781Y-31333295D01*
X19733851Y-31330338D01*
X19738342Y-31328050D01*
X19828050Y-31238342D01*
X19885646Y-31125304D01*
X19905492Y-31000000D01*
X19885646Y-30874696D01*
X19828050Y-30761658D01*
X19738342Y-30671950D01*
X19625304Y-30614354D01*
X19500000Y-30594508D01*
X19374696Y-30614354D01*
X19261658Y-30671950D01*
X19252853Y-30680755D01*
X19207598Y-30699500D01*
X17992402Y-30699500D01*
X17947147Y-30680755D01*
X17938342Y-30671950D01*
X17825304Y-30614354D01*
X17700000Y-30594508D01*
X17574696Y-30614354D01*
X17461658Y-30671950D01*
X17371950Y-30761658D01*
X17314354Y-30874696D01*
X17294508Y-31000000D01*
X17314354Y-31125304D01*
X17371950Y-31238342D01*
X17461658Y-31328050D01*
X17466149Y-31330338D01*
X17470219Y-31333295D01*
X17468560Y-31335578D01*
X17494307Y-31365725D01*
X17490462Y-31414557D01*
X17453214Y-31446368D01*
X17433439Y-31449500D01*
X16964500Y-31449500D01*
X16919245Y-31430755D01*
X16900500Y-31385500D01*
X16900500Y-28068534D01*
X16919245Y-28023279D01*
X16964500Y-28004534D01*
X17009755Y-28023279D01*
X17017714Y-28032978D01*
X17021944Y-28039309D01*
X17021946Y-28039311D01*
X17025448Y-28044552D01*
X17091769Y-28088867D01*
X17124087Y-28095295D01*
X17147164Y-28099886D01*
X17147166Y-28099886D01*
X17150252Y-28100500D01*
X17989748Y-28100500D01*
X17992834Y-28099886D01*
X17992836Y-28099886D01*
X18015913Y-28095295D01*
X18048231Y-28088867D01*
X18114552Y-28044552D01*
X18158867Y-27978231D01*
X18170500Y-27919748D01*
X18170500Y-27814500D01*
X18189245Y-27769245D01*
X18234500Y-27750500D01*
X21969442Y-27750500D01*
X21976964Y-27750944D01*
X22009561Y-27754802D01*
X22014310Y-27755364D01*
X22072993Y-27744646D01*
X22074934Y-27744324D01*
X22095769Y-27741191D01*
X22129229Y-27736161D01*
X22129232Y-27736160D01*
X22133962Y-27735449D01*
X22138278Y-27733376D01*
X22139897Y-27732878D01*
X22140237Y-27732795D01*
X22140940Y-27732566D01*
X22141276Y-27732429D01*
X22142867Y-27731884D01*
X22147573Y-27731025D01*
X22200496Y-27703534D01*
X22202286Y-27702640D01*
X22202299Y-27702634D01*
X22256079Y-27676809D01*
X22259598Y-27673556D01*
X22260993Y-27672608D01*
X22261640Y-27672222D01*
X22264553Y-27670259D01*
X22267788Y-27668579D01*
X22272828Y-27664275D01*
X22310936Y-27626167D01*
X22312748Y-27624425D01*
X22352044Y-27588101D01*
X22352046Y-27588099D01*
X22355556Y-27584854D01*
X22357958Y-27580719D01*
X22360950Y-27576984D01*
X22361280Y-27577248D01*
X22366036Y-27571067D01*
X25096943Y-24840160D01*
X25102576Y-24835155D01*
X25104855Y-24833358D01*
X25132110Y-24811872D01*
X25166016Y-24762815D01*
X25167184Y-24761180D01*
X25199793Y-24717030D01*
X25199794Y-24717028D01*
X25202634Y-24713183D01*
X25204218Y-24708671D01*
X25205016Y-24707165D01*
X25205200Y-24706861D01*
X25205527Y-24706221D01*
X25205668Y-24705883D01*
X25206411Y-24704367D01*
X25209131Y-24700431D01*
X25217843Y-24672886D01*
X25227115Y-24643567D01*
X25227751Y-24641660D01*
X25238530Y-24610965D01*
X25247519Y-24585369D01*
X25247707Y-24580588D01*
X25248022Y-24578934D01*
X25248207Y-24578202D01*
X25248881Y-24574745D01*
X25249980Y-24571270D01*
X25250500Y-24564663D01*
X25250500Y-24510772D01*
X25250549Y-24508259D01*
X25252418Y-24460689D01*
X25252838Y-24450006D01*
X25251612Y-24445380D01*
X25251087Y-24440630D01*
X25251508Y-24440583D01*
X25250500Y-24432850D01*
X25250500Y-23712562D01*
X25269245Y-23667307D01*
X25293295Y-23652177D01*
X25358671Y-23629219D01*
X25358672Y-23629218D01*
X25363184Y-23627634D01*
X25367029Y-23624794D01*
X25367031Y-23624793D01*
X25468301Y-23549993D01*
X25472150Y-23547150D01*
X25522701Y-23478710D01*
X25549793Y-23442031D01*
X25549794Y-23442029D01*
X25552634Y-23438184D01*
X25571522Y-23384398D01*
X25596227Y-23314049D01*
X25596228Y-23314047D01*
X25597519Y-23310369D01*
X25600500Y-23278834D01*
X25600500Y-23167813D01*
X25619245Y-23122558D01*
X25664500Y-23103813D01*
X25709755Y-23122558D01*
X25725912Y-23149797D01*
X25765700Y-23285423D01*
X25767953Y-23291056D01*
X25861968Y-23473597D01*
X25865251Y-23478710D01*
X25992087Y-23640180D01*
X25996265Y-23644567D01*
X26151355Y-23779148D01*
X26156289Y-23782667D01*
X26334027Y-23885491D01*
X26339542Y-23888016D01*
X26533510Y-23955373D01*
X26534594Y-23955637D01*
X26542844Y-23953542D01*
X26546000Y-23948237D01*
X26546000Y-23940788D01*
X27054000Y-23940788D01*
X27057728Y-23949789D01*
X27062047Y-23951578D01*
X27159409Y-23928114D01*
X27165144Y-23926139D01*
X27352063Y-23841152D01*
X27357323Y-23838128D01*
X27524796Y-23719330D01*
X27529392Y-23715363D01*
X27671377Y-23567043D01*
X27675142Y-23562276D01*
X27786522Y-23389780D01*
X27789312Y-23384398D01*
X27866068Y-23193941D01*
X27867789Y-23188132D01*
X27907287Y-22985873D01*
X27907840Y-22981320D01*
X27907963Y-22978818D01*
X27908000Y-22977278D01*
X27908000Y-22866729D01*
X27904272Y-22857728D01*
X27895271Y-22854000D01*
X27066729Y-22854000D01*
X27057728Y-22857728D01*
X27054000Y-22866729D01*
X27054000Y-23940788D01*
X26546000Y-23940788D01*
X26546000Y-22333271D01*
X27054000Y-22333271D01*
X27057728Y-22342272D01*
X27066729Y-22346000D01*
X27895271Y-22346000D01*
X27904272Y-22342272D01*
X27908000Y-22333271D01*
X27908000Y-22273700D01*
X27907856Y-22270661D01*
X27893248Y-22117558D01*
X27892102Y-22111608D01*
X27834300Y-21914577D01*
X27832047Y-21908944D01*
X27738032Y-21726403D01*
X27734749Y-21721290D01*
X27607913Y-21559820D01*
X27603735Y-21555433D01*
X27448645Y-21420852D01*
X27443711Y-21417333D01*
X27265973Y-21314509D01*
X27260458Y-21311984D01*
X27066490Y-21244627D01*
X27065406Y-21244363D01*
X27057156Y-21246458D01*
X27054000Y-21251763D01*
X27054000Y-22333271D01*
X26546000Y-22333271D01*
X26546000Y-21259212D01*
X26542272Y-21250211D01*
X26537953Y-21248422D01*
X26440591Y-21271886D01*
X26434856Y-21273861D01*
X26247937Y-21358848D01*
X26242677Y-21361872D01*
X26075204Y-21480670D01*
X26070608Y-21484637D01*
X25928623Y-21632957D01*
X25924858Y-21637724D01*
X25813478Y-21810220D01*
X25810688Y-21815602D01*
X25733932Y-22006059D01*
X25732211Y-22011870D01*
X25727313Y-22036951D01*
X25700242Y-22077775D01*
X25652234Y-22087498D01*
X25611410Y-22060427D01*
X25600500Y-22024685D01*
X25600500Y-21921166D01*
X25597519Y-21889631D01*
X25592430Y-21875138D01*
X25554219Y-21766329D01*
X25554219Y-21766328D01*
X25552634Y-21761816D01*
X25532201Y-21734151D01*
X25474993Y-21656699D01*
X25472150Y-21652850D01*
X25468301Y-21650007D01*
X25367031Y-21575207D01*
X25367029Y-21575206D01*
X25363184Y-21572366D01*
X25327458Y-21559820D01*
X25239049Y-21528773D01*
X25239047Y-21528772D01*
X25235369Y-21527481D01*
X25203834Y-21524500D01*
X24396166Y-21524500D01*
X24364631Y-21527481D01*
X24360953Y-21528772D01*
X24360951Y-21528773D01*
X24272542Y-21559820D01*
X24236816Y-21572366D01*
X24232971Y-21575206D01*
X24232969Y-21575207D01*
X24131699Y-21650007D01*
X24127850Y-21652850D01*
X24125007Y-21656699D01*
X24067800Y-21734151D01*
X24047366Y-21761816D01*
X24045781Y-21766328D01*
X24045781Y-21766329D01*
X24007571Y-21875138D01*
X24002481Y-21889631D01*
X23999500Y-21921166D01*
X23999500Y-23278834D01*
X24002481Y-23310369D01*
X24003772Y-23314047D01*
X24003773Y-23314049D01*
X24028478Y-23384398D01*
X24047366Y-23438184D01*
X24050206Y-23442029D01*
X24050207Y-23442031D01*
X24077299Y-23478710D01*
X24127850Y-23547150D01*
X24131699Y-23549993D01*
X24232969Y-23624793D01*
X24232971Y-23624794D01*
X24236816Y-23627634D01*
X24241328Y-23629218D01*
X24241329Y-23629219D01*
X24306705Y-23652177D01*
X24343193Y-23684858D01*
X24349500Y-23712562D01*
X24349500Y-24286887D01*
X24330755Y-24332142D01*
X21832142Y-26830755D01*
X21786887Y-26849500D01*
X18234500Y-26849500D01*
X18189245Y-26830755D01*
X18170500Y-26785500D01*
X18170500Y-26680252D01*
X18158867Y-26621769D01*
X18114552Y-26555448D01*
X18048231Y-26511133D01*
X18015913Y-26504705D01*
X17992836Y-26500114D01*
X17992834Y-26500114D01*
X17989748Y-26499500D01*
X17150252Y-26499500D01*
X17147166Y-26500114D01*
X17147164Y-26500114D01*
X17124087Y-26504705D01*
X17091769Y-26511133D01*
X17025448Y-26555448D01*
X17021946Y-26560689D01*
X17021944Y-26560691D01*
X17017714Y-26567022D01*
X16976986Y-26594236D01*
X16928944Y-26584680D01*
X16901730Y-26543952D01*
X16900500Y-26531466D01*
X16900500Y-26050981D01*
X16919245Y-26005726D01*
X16961315Y-25963656D01*
X17006570Y-25944911D01*
X17042127Y-25955697D01*
X17044667Y-25957394D01*
X17091769Y-25988867D01*
X17124087Y-25995295D01*
X17147164Y-25999886D01*
X17147166Y-25999886D01*
X17150252Y-26000500D01*
X17989748Y-26000500D01*
X17992834Y-25999886D01*
X17992836Y-25999886D01*
X18015913Y-25995295D01*
X18048231Y-25988867D01*
X18114552Y-25944552D01*
X18158867Y-25878231D01*
X18170500Y-25819748D01*
X18170500Y-24580252D01*
X18169163Y-24573527D01*
X18161095Y-24532969D01*
X18158867Y-24521769D01*
X18114552Y-24455448D01*
X18048231Y-24411133D01*
X18015913Y-24404705D01*
X17992836Y-24400114D01*
X17992834Y-24400114D01*
X17989748Y-24399500D01*
X17150252Y-24399500D01*
X17147166Y-24400114D01*
X17147164Y-24400114D01*
X17124087Y-24404705D01*
X17091769Y-24411133D01*
X17025448Y-24455448D01*
X16981133Y-24521769D01*
X16978905Y-24532969D01*
X16970838Y-24573527D01*
X16969500Y-24580252D01*
X16969500Y-25079019D01*
X16950755Y-25124274D01*
X16426399Y-25648630D01*
X16421837Y-25652568D01*
X16417731Y-25654575D01*
X16413712Y-25658908D01*
X16411420Y-25661378D01*
X16366900Y-25681807D01*
X16320974Y-25664772D01*
X16300500Y-25617852D01*
X16300500Y-21200000D01*
X20794508Y-21200000D01*
X20814354Y-21325304D01*
X20871950Y-21438342D01*
X20880755Y-21447147D01*
X20899500Y-21492402D01*
X20899500Y-23645010D01*
X20899059Y-23651020D01*
X20897575Y-23655342D01*
X20898024Y-23667307D01*
X20899455Y-23705427D01*
X20899500Y-23707828D01*
X20899500Y-23727948D01*
X20900039Y-23730842D01*
X20900310Y-23733781D01*
X20900207Y-23733790D01*
X20900678Y-23738024D01*
X20901774Y-23767208D01*
X20904105Y-23772634D01*
X20904106Y-23772638D01*
X20907855Y-23781364D01*
X20911970Y-23794907D01*
X20914791Y-23810053D01*
X20930120Y-23834921D01*
X20934430Y-23843217D01*
X20945964Y-23870063D01*
X20949978Y-23874949D01*
X20957237Y-23882208D01*
X20966463Y-23893879D01*
X20973532Y-23905348D01*
X20978232Y-23908922D01*
X20978233Y-23908923D01*
X20998650Y-23924448D01*
X21005166Y-23930137D01*
X21533470Y-24458441D01*
X21551427Y-24493684D01*
X21564354Y-24575304D01*
X21621950Y-24688342D01*
X21711658Y-24778050D01*
X21824696Y-24835646D01*
X21950000Y-24855492D01*
X22075304Y-24835646D01*
X22188342Y-24778050D01*
X22278050Y-24688342D01*
X22335646Y-24575304D01*
X22355492Y-24450000D01*
X22335646Y-24324696D01*
X22278050Y-24211658D01*
X22188342Y-24121950D01*
X22075304Y-24064354D01*
X21993684Y-24051427D01*
X21958441Y-24033470D01*
X21519245Y-23594274D01*
X21500500Y-23549019D01*
X21500500Y-21492402D01*
X21519245Y-21447147D01*
X21528050Y-21438342D01*
X21585646Y-21325304D01*
X21605492Y-21200000D01*
X21585646Y-21074696D01*
X21528050Y-20961658D01*
X21438342Y-20871950D01*
X21325304Y-20814354D01*
X21200000Y-20794508D01*
X21074696Y-20814354D01*
X20961658Y-20871950D01*
X20871950Y-20961658D01*
X20814354Y-21074696D01*
X20794508Y-21200000D01*
X16300500Y-21200000D01*
X16300500Y-19819748D01*
X16969500Y-19819748D01*
X16981133Y-19878231D01*
X17025448Y-19944552D01*
X17091769Y-19988867D01*
X17124087Y-19995295D01*
X17147164Y-19999886D01*
X17147166Y-19999886D01*
X17150252Y-20000500D01*
X17989748Y-20000500D01*
X17992834Y-19999886D01*
X17992836Y-19999886D01*
X18015913Y-19995295D01*
X18048231Y-19988867D01*
X18114552Y-19944552D01*
X18158867Y-19878231D01*
X18170500Y-19819748D01*
X18170500Y-18580252D01*
X18158867Y-18521769D01*
X18114552Y-18455448D01*
X18048943Y-18411609D01*
X18021730Y-18370880D01*
X18020500Y-18358395D01*
X18020500Y-17343113D01*
X18039245Y-17297858D01*
X19167858Y-16169245D01*
X19213113Y-16150500D01*
X23935500Y-16150500D01*
X23980755Y-16169245D01*
X23999500Y-16214500D01*
X23999500Y-16378834D01*
X24002481Y-16410369D01*
X24047366Y-16538184D01*
X24050206Y-16542029D01*
X24050207Y-16542031D01*
X24077299Y-16578710D01*
X24127850Y-16647150D01*
X24131699Y-16649993D01*
X24232969Y-16724793D01*
X24232971Y-16724794D01*
X24236816Y-16727634D01*
X24241328Y-16729219D01*
X24241329Y-16729219D01*
X24360951Y-16771227D01*
X24360953Y-16771228D01*
X24364631Y-16772519D01*
X24396166Y-16775500D01*
X25203834Y-16775500D01*
X25235369Y-16772519D01*
X25239047Y-16771228D01*
X25239049Y-16771227D01*
X25358671Y-16729219D01*
X25358672Y-16729219D01*
X25363184Y-16727634D01*
X25367029Y-16724794D01*
X25367031Y-16724793D01*
X25468301Y-16649993D01*
X25472150Y-16647150D01*
X25522701Y-16578710D01*
X25549793Y-16542031D01*
X25549794Y-16542029D01*
X25552634Y-16538184D01*
X25597519Y-16410369D01*
X25600500Y-16378834D01*
X25600500Y-16267813D01*
X25619245Y-16222558D01*
X25664500Y-16203813D01*
X25709755Y-16222558D01*
X25725912Y-16249797D01*
X25765700Y-16385423D01*
X25767953Y-16391056D01*
X25861968Y-16573597D01*
X25865251Y-16578710D01*
X25992087Y-16740180D01*
X25996265Y-16744567D01*
X26151355Y-16879148D01*
X26156289Y-16882667D01*
X26334027Y-16985491D01*
X26339542Y-16988016D01*
X26533510Y-17055373D01*
X26534594Y-17055637D01*
X26542844Y-17053542D01*
X26546000Y-17048237D01*
X26546000Y-17040788D01*
X27054000Y-17040788D01*
X27057728Y-17049789D01*
X27062047Y-17051578D01*
X27159409Y-17028114D01*
X27165144Y-17026139D01*
X27352063Y-16941152D01*
X27357323Y-16938128D01*
X27524796Y-16819330D01*
X27529392Y-16815363D01*
X27671377Y-16667043D01*
X27675142Y-16662276D01*
X27786522Y-16489780D01*
X27789312Y-16484398D01*
X27866068Y-16293941D01*
X27867789Y-16288132D01*
X27907287Y-16085873D01*
X27907840Y-16081320D01*
X27907963Y-16078818D01*
X27908000Y-16077278D01*
X27908000Y-15966729D01*
X27904272Y-15957728D01*
X27895271Y-15954000D01*
X27066729Y-15954000D01*
X27057728Y-15957728D01*
X27054000Y-15966729D01*
X27054000Y-17040788D01*
X26546000Y-17040788D01*
X26546000Y-15433271D01*
X27054000Y-15433271D01*
X27057728Y-15442272D01*
X27066729Y-15446000D01*
X27895271Y-15446000D01*
X27904272Y-15442272D01*
X27908000Y-15433271D01*
X27908000Y-15373700D01*
X27907856Y-15370661D01*
X27893248Y-15217558D01*
X27892102Y-15211608D01*
X27834300Y-15014577D01*
X27832047Y-15008944D01*
X27738032Y-14826403D01*
X27734749Y-14821290D01*
X27607913Y-14659820D01*
X27603735Y-14655433D01*
X27448645Y-14520852D01*
X27443711Y-14517333D01*
X27265973Y-14414509D01*
X27260458Y-14411984D01*
X27066490Y-14344627D01*
X27065406Y-14344363D01*
X27057156Y-14346458D01*
X27054000Y-14351763D01*
X27054000Y-15433271D01*
X26546000Y-15433271D01*
X26546000Y-14359212D01*
X26542272Y-14350211D01*
X26537953Y-14348422D01*
X26440591Y-14371886D01*
X26434856Y-14373861D01*
X26247937Y-14458848D01*
X26242677Y-14461872D01*
X26075204Y-14580670D01*
X26070608Y-14584637D01*
X25928623Y-14732957D01*
X25924858Y-14737724D01*
X25813478Y-14910220D01*
X25810688Y-14915602D01*
X25733932Y-15106059D01*
X25732211Y-15111870D01*
X25727313Y-15136951D01*
X25700242Y-15177775D01*
X25652234Y-15187498D01*
X25611410Y-15160427D01*
X25600500Y-15124685D01*
X25600500Y-15021166D01*
X25597519Y-14989631D01*
X25552634Y-14861816D01*
X25526478Y-14826403D01*
X25474993Y-14756699D01*
X25472150Y-14752850D01*
X25445217Y-14732957D01*
X25367031Y-14675207D01*
X25367029Y-14675206D01*
X25363184Y-14672366D01*
X25327458Y-14659820D01*
X25239049Y-14628773D01*
X25239047Y-14628772D01*
X25235369Y-14627481D01*
X25203834Y-14624500D01*
X24396166Y-14624500D01*
X24364631Y-14627481D01*
X24360953Y-14628772D01*
X24360951Y-14628773D01*
X24272542Y-14659820D01*
X24236816Y-14672366D01*
X24232971Y-14675206D01*
X24232969Y-14675207D01*
X24154783Y-14732957D01*
X24127850Y-14752850D01*
X24125007Y-14756699D01*
X24073523Y-14826403D01*
X24047366Y-14861816D01*
X24002481Y-14989631D01*
X23999500Y-15021166D01*
X23999500Y-15185500D01*
X23980755Y-15230755D01*
X23935500Y-15249500D01*
X19030557Y-15249500D01*
X19023035Y-15249056D01*
X18990438Y-15245198D01*
X18985689Y-15244636D01*
X18980987Y-15245495D01*
X18980981Y-15245495D01*
X18927025Y-15255350D01*
X18925053Y-15255679D01*
X18902705Y-15259039D01*
X18870772Y-15263839D01*
X18870770Y-15263840D01*
X18866038Y-15264551D01*
X18861722Y-15266624D01*
X18860103Y-15267122D01*
X18859763Y-15267205D01*
X18859060Y-15267434D01*
X18858724Y-15267571D01*
X18857133Y-15268116D01*
X18852427Y-15268975D01*
X18799506Y-15296465D01*
X18797715Y-15297359D01*
X18743921Y-15323191D01*
X18740410Y-15326437D01*
X18739001Y-15327394D01*
X18738374Y-15327769D01*
X18735453Y-15329737D01*
X18732211Y-15331421D01*
X18727172Y-15335725D01*
X18689064Y-15373833D01*
X18687252Y-15375575D01*
X18647956Y-15411899D01*
X18647954Y-15411901D01*
X18644444Y-15415146D01*
X18642042Y-15419281D01*
X18639050Y-15423016D01*
X18638720Y-15422752D01*
X18633964Y-15428933D01*
X17273057Y-16789840D01*
X17267424Y-16794845D01*
X17237890Y-16818128D01*
X17235171Y-16822061D01*
X17235170Y-16822063D01*
X17203985Y-16867185D01*
X17202818Y-16868818D01*
X17167366Y-16916816D01*
X17165779Y-16921336D01*
X17164991Y-16922825D01*
X17164802Y-16923135D01*
X17164472Y-16923784D01*
X17164330Y-16924122D01*
X17163589Y-16925634D01*
X17160869Y-16929569D01*
X17159427Y-16934130D01*
X17159426Y-16934131D01*
X17142883Y-16986439D01*
X17142247Y-16988345D01*
X17122481Y-17044631D01*
X17122293Y-17049414D01*
X17121978Y-17051067D01*
X17121791Y-17051806D01*
X17121118Y-17055258D01*
X17120020Y-17058730D01*
X17119500Y-17065337D01*
X17119500Y-17119228D01*
X17119451Y-17121741D01*
X17117162Y-17179994D01*
X17118388Y-17184620D01*
X17118913Y-17189370D01*
X17118492Y-17189417D01*
X17119500Y-17197150D01*
X17119500Y-18358395D01*
X17100755Y-18403650D01*
X17091059Y-18411608D01*
X17025448Y-18455448D01*
X16981133Y-18521769D01*
X16969500Y-18580252D01*
X16969500Y-19819748D01*
X16300500Y-19819748D01*
X16300500Y-11054990D01*
X16300941Y-11048980D01*
X16302425Y-11044658D01*
X16300545Y-10994573D01*
X16300500Y-10992172D01*
X16300500Y-10972052D01*
X16299961Y-10969158D01*
X16299690Y-10966219D01*
X16299793Y-10966210D01*
X16299322Y-10961976D01*
X16298448Y-10938695D01*
X16298448Y-10938693D01*
X16298226Y-10932792D01*
X16295895Y-10927366D01*
X16295894Y-10927362D01*
X16292145Y-10918636D01*
X16288030Y-10905093D01*
X16287719Y-10903423D01*
X16285209Y-10889947D01*
X16269880Y-10865079D01*
X16265570Y-10856783D01*
X16254036Y-10829937D01*
X16250022Y-10825051D01*
X16242763Y-10817792D01*
X16233537Y-10806120D01*
X16229567Y-10799680D01*
X16226468Y-10794652D01*
X16201350Y-10775552D01*
X16194834Y-10769863D01*
X15581370Y-10156399D01*
X15577432Y-10151837D01*
X15575425Y-10147731D01*
X15571094Y-10143714D01*
X15571093Y-10143712D01*
X15538680Y-10113645D01*
X15536950Y-10111979D01*
X15522723Y-10097752D01*
X15520291Y-10096083D01*
X15518029Y-10094204D01*
X15518095Y-10094124D01*
X15514768Y-10091463D01*
X15497684Y-10075616D01*
X15493354Y-10071599D01*
X15487868Y-10069410D01*
X15487866Y-10069409D01*
X15479044Y-10065889D01*
X15466558Y-10059222D01*
X15458727Y-10053850D01*
X15458724Y-10053848D01*
X15453854Y-10050508D01*
X15425439Y-10043765D01*
X15416501Y-10040938D01*
X15393574Y-10031791D01*
X15389378Y-10030117D01*
X15384883Y-10029676D01*
X15384882Y-10029676D01*
X15384639Y-10029652D01*
X15384632Y-10029652D01*
X15383085Y-10029500D01*
X15372821Y-10029500D01*
X15358043Y-10027770D01*
X15350689Y-10026025D01*
X15350685Y-10026025D01*
X15344934Y-10024660D01*
X15339077Y-10025457D01*
X15339076Y-10025457D01*
X15313669Y-10028915D01*
X15305039Y-10029500D01*
X14464500Y-10029500D01*
X14419245Y-10010755D01*
X14400500Y-9965500D01*
X14400500Y-9910252D01*
X14388867Y-9851769D01*
X14344552Y-9785448D01*
X14278231Y-9741133D01*
X14245913Y-9734705D01*
X14222836Y-9730114D01*
X14222834Y-9730114D01*
X14219748Y-9729500D01*
X12980252Y-9729500D01*
X12977166Y-9730114D01*
X12977164Y-9730114D01*
X12954087Y-9734705D01*
X12921769Y-9741133D01*
X12855448Y-9785448D01*
X12811133Y-9851769D01*
X12799500Y-9910252D01*
X12799500Y-10749748D01*
X12811133Y-10808231D01*
X12855448Y-10874552D01*
X12921769Y-10918867D01*
X12954087Y-10925295D01*
X12977164Y-10929886D01*
X12977166Y-10929886D01*
X12980252Y-10930500D01*
X14219748Y-10930500D01*
X14222834Y-10929886D01*
X14222836Y-10929886D01*
X14245913Y-10925295D01*
X14278231Y-10918867D01*
X14344552Y-10874552D01*
X14388867Y-10808231D01*
X14400500Y-10749748D01*
X14400500Y-10694500D01*
X14419245Y-10649245D01*
X14464500Y-10630500D01*
X15179019Y-10630500D01*
X15224274Y-10649245D01*
X15680755Y-11105726D01*
X15699500Y-11150981D01*
X15699500Y-18431466D01*
X15680755Y-18476721D01*
X15635500Y-18495466D01*
X15590245Y-18476721D01*
X15582286Y-18467022D01*
X15578056Y-18460691D01*
X15578054Y-18460689D01*
X15574552Y-18455448D01*
X15508943Y-18411609D01*
X15481730Y-18370880D01*
X15480500Y-18358395D01*
X15480500Y-18160558D01*
X15480944Y-18153036D01*
X15484802Y-18120439D01*
X15485364Y-18115690D01*
X15474646Y-18057007D01*
X15474321Y-18055050D01*
X15466161Y-18000771D01*
X15466160Y-18000768D01*
X15465449Y-17996038D01*
X15463376Y-17991722D01*
X15462878Y-17990103D01*
X15462795Y-17989763D01*
X15462566Y-17989060D01*
X15462429Y-17988724D01*
X15461884Y-17987133D01*
X15461025Y-17982427D01*
X15433534Y-17929504D01*
X15432640Y-17927714D01*
X15408882Y-17878238D01*
X15406809Y-17873921D01*
X15403556Y-17870402D01*
X15402608Y-17869007D01*
X15402222Y-17868360D01*
X15400259Y-17865447D01*
X15398579Y-17862212D01*
X15394275Y-17857172D01*
X15356167Y-17819064D01*
X15354425Y-17817252D01*
X15318101Y-17777956D01*
X15318099Y-17777954D01*
X15314854Y-17774444D01*
X15310719Y-17772042D01*
X15306984Y-17769050D01*
X15307248Y-17768720D01*
X15301067Y-17763964D01*
X13890160Y-16353057D01*
X13885155Y-16347424D01*
X13867930Y-16325575D01*
X13861872Y-16317890D01*
X13857939Y-16315171D01*
X13857937Y-16315170D01*
X13817908Y-16287505D01*
X13812813Y-16283984D01*
X13811179Y-16282816D01*
X13767035Y-16250210D01*
X13767033Y-16250209D01*
X13763184Y-16247366D01*
X13758664Y-16245779D01*
X13757175Y-16244991D01*
X13756865Y-16244802D01*
X13756216Y-16244472D01*
X13755878Y-16244330D01*
X13754366Y-16243589D01*
X13750431Y-16240869D01*
X13745870Y-16239427D01*
X13745869Y-16239426D01*
X13701902Y-16225521D01*
X13664406Y-16194002D01*
X13660180Y-16145201D01*
X13691699Y-16107705D01*
X13721201Y-16100500D01*
X13928834Y-16100500D01*
X13960369Y-16097519D01*
X13964047Y-16096228D01*
X13964049Y-16096227D01*
X14083671Y-16054219D01*
X14083672Y-16054219D01*
X14088184Y-16052634D01*
X14092029Y-16049794D01*
X14092031Y-16049793D01*
X14193301Y-15974993D01*
X14197150Y-15972150D01*
X14266942Y-15877660D01*
X14274793Y-15867031D01*
X14274794Y-15867029D01*
X14277634Y-15863184D01*
X14296527Y-15809385D01*
X14321227Y-15739049D01*
X14321228Y-15739047D01*
X14322519Y-15735369D01*
X14325500Y-15703834D01*
X14325500Y-14696166D01*
X14322519Y-14664631D01*
X14305956Y-14617464D01*
X14279219Y-14541329D01*
X14279219Y-14541328D01*
X14277634Y-14536816D01*
X14197150Y-14427850D01*
X14175669Y-14411984D01*
X14092031Y-14350207D01*
X14092029Y-14350206D01*
X14088184Y-14347366D01*
X14083671Y-14345781D01*
X13964049Y-14303773D01*
X13964047Y-14303772D01*
X13960369Y-14302481D01*
X13956487Y-14302114D01*
X13952676Y-14301278D01*
X13953078Y-14299445D01*
X13915184Y-14279377D01*
X13900500Y-14238586D01*
X13900500Y-13534500D01*
X13919245Y-13489245D01*
X13964500Y-13470500D01*
X14219748Y-13470500D01*
X14222834Y-13469886D01*
X14222836Y-13469886D01*
X14245913Y-13465295D01*
X14278231Y-13458867D01*
X14344552Y-13414552D01*
X14388867Y-13348231D01*
X14400500Y-13289748D01*
X14400500Y-12450252D01*
X14388867Y-12391769D01*
X14344552Y-12325448D01*
X14278231Y-12281133D01*
X14245913Y-12274705D01*
X14222836Y-12270114D01*
X14222834Y-12270114D01*
X14219748Y-12269500D01*
X12980252Y-12269500D01*
X12977166Y-12270114D01*
X12977164Y-12270114D01*
X12954087Y-12274705D01*
X12921769Y-12281133D01*
X12855448Y-12325448D01*
X12811133Y-12391769D01*
X12799500Y-12450252D01*
X12799500Y-13289748D01*
X12811133Y-13348231D01*
X12855448Y-13414552D01*
X12921769Y-13458867D01*
X12954087Y-13465295D01*
X12977164Y-13469886D01*
X12977166Y-13469886D01*
X12980252Y-13470500D01*
X13235500Y-13470500D01*
X13280755Y-13489245D01*
X13299500Y-13534500D01*
X13299500Y-14244879D01*
X13280755Y-14290134D01*
X13256706Y-14305264D01*
X13136816Y-14347366D01*
X13132971Y-14350206D01*
X13132969Y-14350207D01*
X13049331Y-14411984D01*
X13027850Y-14427850D01*
X12947366Y-14536816D01*
X12945781Y-14541328D01*
X12945781Y-14541329D01*
X12921327Y-14610965D01*
X12888646Y-14647453D01*
X12839737Y-14650145D01*
X12803249Y-14617464D01*
X12798526Y-14600759D01*
X12798133Y-14600844D01*
X12795924Y-14590615D01*
X12742273Y-14429801D01*
X12739135Y-14423102D01*
X12650042Y-14279130D01*
X12645450Y-14273337D01*
X12525620Y-14153714D01*
X12519828Y-14149141D01*
X12375693Y-14060295D01*
X12368995Y-14057171D01*
X12208070Y-14003794D01*
X12201288Y-14002340D01*
X12101989Y-13992167D01*
X12098726Y-13992000D01*
X12054229Y-13992000D01*
X12045228Y-13995728D01*
X12041500Y-14004729D01*
X12041500Y-15390000D01*
X12022755Y-15435255D01*
X11977500Y-15454000D01*
X10779730Y-15454000D01*
X10770729Y-15457728D01*
X10767001Y-15466729D01*
X10767001Y-15698714D01*
X10767171Y-15702004D01*
X10777607Y-15802581D01*
X10779076Y-15809385D01*
X10832727Y-15970199D01*
X10835865Y-15976898D01*
X10913171Y-16101822D01*
X10921045Y-16150169D01*
X10892427Y-16189922D01*
X10858749Y-16199500D01*
X8432063Y-16199500D01*
X8386808Y-16180755D01*
X8371623Y-16156547D01*
X8354646Y-16107796D01*
X8326485Y-16026927D01*
X8322272Y-16020184D01*
X8233212Y-15877660D01*
X8231316Y-15874625D01*
X8222611Y-15865859D01*
X8107290Y-15749730D01*
X8107287Y-15749727D01*
X8104770Y-15747193D01*
X8080207Y-15731605D01*
X8052041Y-15691529D01*
X8050500Y-15677568D01*
X8050500Y-14933271D01*
X10767000Y-14933271D01*
X10770728Y-14942272D01*
X10779729Y-14946000D01*
X11520771Y-14946000D01*
X11529772Y-14942272D01*
X11533500Y-14933271D01*
X11533500Y-14004730D01*
X11529772Y-13995729D01*
X11520771Y-13992001D01*
X11476286Y-13992001D01*
X11472996Y-13992171D01*
X11372419Y-14002607D01*
X11365615Y-14004076D01*
X11204801Y-14057727D01*
X11198102Y-14060865D01*
X11054130Y-14149958D01*
X11048337Y-14154550D01*
X10928714Y-14274380D01*
X10924141Y-14280172D01*
X10835295Y-14424307D01*
X10832171Y-14431005D01*
X10778794Y-14591930D01*
X10777340Y-14598712D01*
X10767167Y-14698011D01*
X10767000Y-14701274D01*
X10767000Y-14933271D01*
X8050500Y-14933271D01*
X8050500Y-13534500D01*
X8069245Y-13489245D01*
X8114500Y-13470500D01*
X8219748Y-13470500D01*
X8222834Y-13469886D01*
X8222836Y-13469886D01*
X8245913Y-13465295D01*
X8278231Y-13458867D01*
X8344552Y-13414552D01*
X8388867Y-13348231D01*
X8400500Y-13289748D01*
X8400500Y-12450252D01*
X8388867Y-12391769D01*
X8344552Y-12325448D01*
X8278231Y-12281133D01*
X8245913Y-12274705D01*
X8222836Y-12270114D01*
X8222834Y-12270114D01*
X8219748Y-12269500D01*
X6980252Y-12269500D01*
X6977166Y-12270114D01*
X6977164Y-12270114D01*
X6954087Y-12274705D01*
X6921769Y-12281133D01*
X6855448Y-12325448D01*
X6811133Y-12391769D01*
X6799500Y-12450252D01*
X6799500Y-13289748D01*
X6811133Y-13348231D01*
X6855448Y-13414552D01*
X6921769Y-13458867D01*
X6954087Y-13465295D01*
X6977164Y-13469886D01*
X6977166Y-13469886D01*
X6980252Y-13470500D01*
X7085500Y-13470500D01*
X7130755Y-13489245D01*
X7149500Y-13534500D01*
X7149500Y-15676473D01*
X7130755Y-15721728D01*
X7119035Y-15730983D01*
X7107094Y-15738329D01*
X7107086Y-15738335D01*
X7104045Y-15740206D01*
X7101490Y-15742708D01*
X6983072Y-15858671D01*
X6975732Y-15865859D01*
X6878446Y-16016817D01*
X6854969Y-16081320D01*
X6818248Y-16182208D01*
X6818247Y-16182213D01*
X6817022Y-16185578D01*
X6799500Y-16324283D01*
X6799500Y-16970155D01*
X6799699Y-16971927D01*
X6799699Y-16971931D01*
X6801434Y-16987394D01*
X6814454Y-17103472D01*
X6815631Y-17106852D01*
X6815632Y-17106856D01*
X6835706Y-17164500D01*
X6873515Y-17273073D01*
X6875409Y-17276105D01*
X6875411Y-17276108D01*
X6907416Y-17327326D01*
X6968684Y-17425375D01*
X6971205Y-17427913D01*
X6971206Y-17427915D01*
X7092710Y-17550270D01*
X7092713Y-17550273D01*
X7095230Y-17552807D01*
X7246864Y-17649037D01*
X7416049Y-17709281D01*
X7530145Y-17722886D01*
X7590828Y-17730122D01*
X7590829Y-17730122D01*
X7594376Y-17730545D01*
X7772983Y-17711773D01*
X7776368Y-17710621D01*
X7776371Y-17710620D01*
X7939607Y-17655050D01*
X7939609Y-17655049D01*
X7942993Y-17653897D01*
X7946040Y-17652022D01*
X7946043Y-17652021D01*
X8002234Y-17617452D01*
X8095955Y-17559794D01*
X8224268Y-17434141D01*
X8321554Y-17283183D01*
X8372718Y-17142611D01*
X8405810Y-17106496D01*
X8432858Y-17100500D01*
X13336887Y-17100500D01*
X13382142Y-17119245D01*
X14560755Y-18297858D01*
X14579500Y-18343113D01*
X14579500Y-18358395D01*
X14560755Y-18403650D01*
X14551059Y-18411608D01*
X14485448Y-18455448D01*
X14441133Y-18521769D01*
X14429500Y-18580252D01*
X14429500Y-19819748D01*
X14441133Y-19878231D01*
X14485448Y-19944552D01*
X14551769Y-19988867D01*
X14584087Y-19995295D01*
X14607164Y-19999886D01*
X14607166Y-19999886D01*
X14610252Y-20000500D01*
X15449748Y-20000500D01*
X15452834Y-19999886D01*
X15452836Y-19999886D01*
X15475913Y-19995295D01*
X15508231Y-19988867D01*
X15574552Y-19944552D01*
X15578054Y-19939311D01*
X15578056Y-19939309D01*
X15582286Y-19932978D01*
X15623014Y-19905764D01*
X15671056Y-19915320D01*
X15698270Y-19956048D01*
X15699500Y-19968534D01*
X15699500Y-21925433D01*
X15680755Y-21970688D01*
X15635500Y-21989433D01*
X15587939Y-21968258D01*
X15505871Y-21877112D01*
X15352730Y-21765849D01*
X15252650Y-21721290D01*
X15182863Y-21690218D01*
X15182860Y-21690217D01*
X15179803Y-21688856D01*
X14994646Y-21649500D01*
X14805354Y-21649500D01*
X14620197Y-21688856D01*
X14617140Y-21690217D01*
X14617137Y-21690218D01*
X14547350Y-21721290D01*
X14447270Y-21765849D01*
X14294129Y-21877112D01*
X14253105Y-21922674D01*
X14169712Y-22015290D01*
X14169709Y-22015294D01*
X14167467Y-22017784D01*
X14165790Y-22020688D01*
X14165786Y-22020694D01*
X14138762Y-22067500D01*
X14099901Y-22097319D01*
X14083337Y-22099500D01*
X10463113Y-22099500D01*
X10417858Y-22080755D01*
X8990160Y-20653057D01*
X8985155Y-20647424D01*
X8984515Y-20646612D01*
X8961872Y-20617890D01*
X8957939Y-20615171D01*
X8957937Y-20615170D01*
X8912815Y-20583985D01*
X8911179Y-20582816D01*
X8867035Y-20550210D01*
X8867033Y-20550209D01*
X8863184Y-20547366D01*
X8858664Y-20545779D01*
X8857175Y-20544991D01*
X8856865Y-20544802D01*
X8856216Y-20544472D01*
X8855878Y-20544330D01*
X8854366Y-20543589D01*
X8850431Y-20540869D01*
X8845870Y-20539427D01*
X8845869Y-20539426D01*
X8793561Y-20522883D01*
X8791655Y-20522247D01*
X8739885Y-20504067D01*
X8739886Y-20504067D01*
X8735369Y-20502481D01*
X8730586Y-20502293D01*
X8728933Y-20501978D01*
X8728194Y-20501791D01*
X8724742Y-20501118D01*
X8721270Y-20500020D01*
X8717638Y-20499734D01*
X8717637Y-20499734D01*
X8717419Y-20499717D01*
X8714663Y-20499500D01*
X8660772Y-20499500D01*
X8658259Y-20499451D01*
X8658209Y-20499449D01*
X8600006Y-20497162D01*
X8595380Y-20498388D01*
X8590630Y-20498913D01*
X8590583Y-20498492D01*
X8582850Y-20499500D01*
X3916663Y-20499500D01*
X3871408Y-20480755D01*
X3861238Y-20467500D01*
X3834214Y-20420694D01*
X3834210Y-20420688D01*
X3832533Y-20417784D01*
X3830291Y-20415294D01*
X3830288Y-20415290D01*
X3708119Y-20279609D01*
X3705871Y-20277112D01*
X3552730Y-20165849D01*
X3496034Y-20140606D01*
X3382863Y-20090218D01*
X3382860Y-20090217D01*
X3379803Y-20088856D01*
X3194646Y-20049500D01*
X3005354Y-20049500D01*
X2820197Y-20088856D01*
X2817140Y-20090217D01*
X2817137Y-20090218D01*
X2703966Y-20140606D01*
X2647270Y-20165849D01*
X2494129Y-20277112D01*
X2367467Y-20417784D01*
X2366121Y-20420115D01*
X2324509Y-20445613D01*
X2276879Y-20434175D01*
X2251287Y-20392409D01*
X2250500Y-20382400D01*
X2250500Y-18613113D01*
X2269245Y-18567858D01*
X3717858Y-17119245D01*
X3763113Y-17100500D01*
X4735500Y-17100500D01*
X4780755Y-17119245D01*
X4799500Y-17164500D01*
X4799500Y-17328834D01*
X4802481Y-17360369D01*
X4803772Y-17364047D01*
X4803773Y-17364049D01*
X4829267Y-17436646D01*
X4847366Y-17488184D01*
X4850206Y-17492029D01*
X4850207Y-17492031D01*
X4925007Y-17593301D01*
X4927850Y-17597150D01*
X4931699Y-17599993D01*
X5032969Y-17674793D01*
X5032971Y-17674794D01*
X5036816Y-17677634D01*
X5041328Y-17679219D01*
X5041329Y-17679219D01*
X5160951Y-17721227D01*
X5160953Y-17721228D01*
X5164631Y-17722519D01*
X5196166Y-17725500D01*
X6003834Y-17725500D01*
X6035369Y-17722519D01*
X6039047Y-17721228D01*
X6039049Y-17721227D01*
X6158671Y-17679219D01*
X6158672Y-17679219D01*
X6163184Y-17677634D01*
X6167029Y-17674794D01*
X6167031Y-17674793D01*
X6268301Y-17599993D01*
X6272150Y-17597150D01*
X6274993Y-17593301D01*
X6349793Y-17492031D01*
X6349794Y-17492029D01*
X6352634Y-17488184D01*
X6370733Y-17436646D01*
X6396227Y-17364049D01*
X6396228Y-17364047D01*
X6397519Y-17360369D01*
X6400500Y-17328834D01*
X6400500Y-15971166D01*
X6397519Y-15939631D01*
X6371613Y-15865859D01*
X6354219Y-15816329D01*
X6354219Y-15816328D01*
X6352634Y-15811816D01*
X6336029Y-15789334D01*
X6274993Y-15706699D01*
X6272150Y-15702850D01*
X6236439Y-15676473D01*
X6167031Y-15625207D01*
X6167029Y-15625206D01*
X6163184Y-15622366D01*
X6158671Y-15620781D01*
X6039049Y-15578773D01*
X6039047Y-15578772D01*
X6035369Y-15577481D01*
X6003834Y-15574500D01*
X5196166Y-15574500D01*
X5164631Y-15577481D01*
X5160953Y-15578772D01*
X5160951Y-15578773D01*
X5041329Y-15620781D01*
X5036816Y-15622366D01*
X5032971Y-15625206D01*
X5032969Y-15625207D01*
X4963561Y-15676473D01*
X4927850Y-15702850D01*
X4925007Y-15706699D01*
X4863972Y-15789334D01*
X4847366Y-15811816D01*
X4845781Y-15816328D01*
X4845781Y-15816329D01*
X4828388Y-15865859D01*
X4802481Y-15939631D01*
X4799500Y-15971166D01*
X4799500Y-16135500D01*
X4780755Y-16180755D01*
X4735500Y-16199500D01*
X3580558Y-16199500D01*
X3573036Y-16199056D01*
X3540439Y-16195198D01*
X3535690Y-16194636D01*
X3477004Y-16205354D01*
X3475052Y-16205678D01*
X3441209Y-16210767D01*
X3420766Y-16213840D01*
X3420765Y-16213840D01*
X3416038Y-16214551D01*
X3411727Y-16216621D01*
X3410102Y-16217121D01*
X3409765Y-16217203D01*
X3409061Y-16217432D01*
X3408732Y-16217567D01*
X3407133Y-16218114D01*
X3402427Y-16218974D01*
X3352341Y-16244991D01*
X3349486Y-16246474D01*
X3347700Y-16247366D01*
X3293921Y-16273191D01*
X3290404Y-16276443D01*
X3289019Y-16277384D01*
X3288364Y-16277774D01*
X3285448Y-16279740D01*
X3282212Y-16281420D01*
X3277172Y-16285725D01*
X3239064Y-16323833D01*
X3237252Y-16325575D01*
X3197956Y-16361899D01*
X3197954Y-16361901D01*
X3194444Y-16365146D01*
X3192042Y-16369281D01*
X3189050Y-16373016D01*
X3188720Y-16372752D01*
X3183964Y-16378933D01*
X1503057Y-18059840D01*
X1497424Y-18064845D01*
X1467890Y-18088128D01*
X1465171Y-18092061D01*
X1465170Y-18092063D01*
X1433985Y-18137185D01*
X1432816Y-18138821D01*
X1416761Y-18160558D01*
X1397366Y-18186816D01*
X1395779Y-18191336D01*
X1394991Y-18192825D01*
X1394802Y-18193135D01*
X1394472Y-18193784D01*
X1394330Y-18194122D01*
X1393589Y-18195634D01*
X1390869Y-18199569D01*
X1389427Y-18204130D01*
X1389426Y-18204131D01*
X1372883Y-18256439D01*
X1372247Y-18258345D01*
X1352481Y-18314631D01*
X1352293Y-18319414D01*
X1351978Y-18321067D01*
X1351791Y-18321806D01*
X1351118Y-18325258D01*
X1350020Y-18328730D01*
X1349500Y-18335337D01*
X1349500Y-18389228D01*
X1349451Y-18391741D01*
X1347162Y-18449994D01*
X1348388Y-18454620D01*
X1348913Y-18459370D01*
X1348492Y-18459417D01*
X1349500Y-18467150D01*
X1349500Y-38969442D01*
X1349056Y-38976964D01*
X1348928Y-38978050D01*
X1344636Y-39014310D01*
X130500Y-39014310D01*
X130500Y-11500000D01*
X4394540Y-11500000D01*
X4414326Y-11688256D01*
X4415360Y-11691438D01*
X4415361Y-11691443D01*
X4471785Y-11865097D01*
X4472821Y-11868284D01*
X4567467Y-12032216D01*
X4569709Y-12034706D01*
X4569712Y-12034710D01*
X4650433Y-12124359D01*
X4694129Y-12172888D01*
X4847270Y-12284151D01*
X4850334Y-12285515D01*
X5017137Y-12359782D01*
X5017140Y-12359783D01*
X5020197Y-12361144D01*
X5205354Y-12400500D01*
X5394646Y-12400500D01*
X5579803Y-12361144D01*
X5582860Y-12359783D01*
X5582863Y-12359782D01*
X5749666Y-12285515D01*
X5752730Y-12284151D01*
X5905871Y-12172888D01*
X5949567Y-12124359D01*
X6030288Y-12034710D01*
X6030291Y-12034706D01*
X6032533Y-12032216D01*
X6127179Y-11868284D01*
X6128215Y-11865097D01*
X6184639Y-11691443D01*
X6184640Y-11691438D01*
X6185674Y-11688256D01*
X6205460Y-11500000D01*
X6185674Y-11311744D01*
X6183002Y-11303522D01*
X6186843Y-11254692D01*
X6198614Y-11238489D01*
X6396943Y-11040160D01*
X6402576Y-11035155D01*
X6403388Y-11034515D01*
X6432110Y-11011872D01*
X6434828Y-11007939D01*
X6434832Y-11007935D01*
X6450774Y-10984869D01*
X6491925Y-10958299D01*
X6539811Y-10968610D01*
X6554635Y-10982876D01*
X6634359Y-11089252D01*
X6640748Y-11095641D01*
X6749887Y-11177436D01*
X6757809Y-11181773D01*
X6886032Y-11229842D01*
X6893784Y-11231686D01*
X6950185Y-11237812D01*
X6953650Y-11238000D01*
X7333271Y-11238000D01*
X7342272Y-11234272D01*
X7346000Y-11225271D01*
X7346000Y-11225270D01*
X7854000Y-11225270D01*
X7857728Y-11234271D01*
X7866729Y-11237999D01*
X8246367Y-11237999D01*
X8249797Y-11237813D01*
X8306217Y-11231685D01*
X8313967Y-11229842D01*
X8442191Y-11181773D01*
X8450113Y-11177436D01*
X8559252Y-11095641D01*
X8565641Y-11089252D01*
X8647436Y-10980113D01*
X8651773Y-10972191D01*
X8699842Y-10843968D01*
X8701686Y-10836216D01*
X8707812Y-10779815D01*
X8708000Y-10776350D01*
X8708000Y-10596729D01*
X8704272Y-10587728D01*
X8695271Y-10584000D01*
X7866729Y-10584000D01*
X7857728Y-10587728D01*
X7854000Y-10596729D01*
X7854000Y-11225270D01*
X7346000Y-11225270D01*
X7346000Y-10063271D01*
X7854000Y-10063271D01*
X7857728Y-10072272D01*
X7866729Y-10076000D01*
X8695270Y-10076000D01*
X8704271Y-10072272D01*
X8707999Y-10063271D01*
X8707999Y-9883633D01*
X8707813Y-9880203D01*
X8701685Y-9823783D01*
X8699842Y-9816033D01*
X8651773Y-9687809D01*
X8647436Y-9679887D01*
X8565641Y-9570748D01*
X8559252Y-9564359D01*
X8450113Y-9482564D01*
X8442191Y-9478227D01*
X8313968Y-9430158D01*
X8306216Y-9428314D01*
X8249815Y-9422188D01*
X8246350Y-9422000D01*
X7866729Y-9422000D01*
X7857728Y-9425728D01*
X7854000Y-9434729D01*
X7854000Y-10063271D01*
X7346000Y-10063271D01*
X7346000Y-9434730D01*
X7342272Y-9425729D01*
X7333271Y-9422001D01*
X6953633Y-9422001D01*
X6950203Y-9422187D01*
X6893783Y-9428315D01*
X6886033Y-9430158D01*
X6757809Y-9478227D01*
X6749887Y-9482564D01*
X6652882Y-9555265D01*
X6605427Y-9567406D01*
X6563287Y-9542434D01*
X6550500Y-9504052D01*
X6550500Y-8550000D01*
X14344540Y-8550000D01*
X14364326Y-8738256D01*
X14365360Y-8741438D01*
X14365361Y-8741443D01*
X14421785Y-8915097D01*
X14422821Y-8918284D01*
X14517467Y-9082216D01*
X14519709Y-9084706D01*
X14519712Y-9084710D01*
X14600433Y-9174359D01*
X14644129Y-9222888D01*
X14797270Y-9334151D01*
X14800334Y-9335515D01*
X14967137Y-9409782D01*
X14967140Y-9409783D01*
X14970197Y-9411144D01*
X15155354Y-9450500D01*
X15344646Y-9450500D01*
X15529803Y-9411144D01*
X15532860Y-9409783D01*
X15532863Y-9409782D01*
X15699666Y-9335515D01*
X15702730Y-9334151D01*
X15855871Y-9222888D01*
X15899567Y-9174359D01*
X15980288Y-9084710D01*
X15980291Y-9084706D01*
X15982533Y-9082216D01*
X16077179Y-8918284D01*
X16078215Y-8915097D01*
X16134639Y-8741443D01*
X16134640Y-8741438D01*
X16135674Y-8738256D01*
X16155460Y-8550000D01*
X16135674Y-8361744D01*
X16134640Y-8358562D01*
X16134639Y-8358557D01*
X16078215Y-8184903D01*
X16078213Y-8184899D01*
X16077179Y-8181716D01*
X15982533Y-8017784D01*
X15980291Y-8015294D01*
X15980288Y-8015290D01*
X15858119Y-7879609D01*
X15855871Y-7877112D01*
X15770249Y-7814904D01*
X15726882Y-7783396D01*
X15701288Y-7741631D01*
X15700500Y-7731619D01*
X15700500Y-7315000D01*
X15719245Y-7269745D01*
X15764500Y-7251000D01*
X15894646Y-7251000D01*
X16079803Y-7211644D01*
X16082860Y-7210283D01*
X16082863Y-7210282D01*
X16147817Y-7181362D01*
X16196783Y-7180080D01*
X16219103Y-7194574D01*
X16548130Y-7523601D01*
X16552068Y-7528163D01*
X16554075Y-7532269D01*
X16558406Y-7536286D01*
X16558407Y-7536288D01*
X16590820Y-7566355D01*
X16592550Y-7568021D01*
X16606776Y-7582247D01*
X16609210Y-7583917D01*
X16611476Y-7585799D01*
X16611409Y-7585880D01*
X16614735Y-7588539D01*
X16636146Y-7608401D01*
X16641636Y-7610591D01*
X16641637Y-7610592D01*
X16650456Y-7614111D01*
X16662942Y-7620778D01*
X16670773Y-7626150D01*
X16670776Y-7626152D01*
X16675646Y-7629492D01*
X16704061Y-7636235D01*
X16713000Y-7639062D01*
X16740122Y-7649883D01*
X16744617Y-7650324D01*
X16744618Y-7650324D01*
X16744861Y-7650348D01*
X16744868Y-7650348D01*
X16746415Y-7650500D01*
X16756679Y-7650500D01*
X16771457Y-7652230D01*
X16778811Y-7653975D01*
X16778815Y-7653975D01*
X16784566Y-7655340D01*
X16790423Y-7654543D01*
X16790424Y-7654543D01*
X16815831Y-7651085D01*
X16824461Y-7650500D01*
X26657598Y-7650500D01*
X26702853Y-7669245D01*
X26711658Y-7678050D01*
X26824696Y-7735646D01*
X26950000Y-7755492D01*
X27075304Y-7735646D01*
X27188342Y-7678050D01*
X27278050Y-7588342D01*
X27335646Y-7475304D01*
X27355492Y-7350000D01*
X27335646Y-7224696D01*
X27278050Y-7111658D01*
X27188342Y-7021950D01*
X27075304Y-6964354D01*
X26950000Y-6944508D01*
X26824696Y-6964354D01*
X26711658Y-7021950D01*
X26702853Y-7030755D01*
X26657598Y-7049500D01*
X16950481Y-7049500D01*
X16905226Y-7030755D01*
X16646592Y-6772121D01*
X16627847Y-6726866D01*
X16630979Y-6707089D01*
X16684639Y-6541943D01*
X16684640Y-6541938D01*
X16685674Y-6538756D01*
X16699907Y-6403340D01*
X16705109Y-6353840D01*
X16705460Y-6350500D01*
X16685674Y-6162244D01*
X16684640Y-6159062D01*
X16684639Y-6159057D01*
X16628215Y-5985403D01*
X16628213Y-5985399D01*
X16627179Y-5982216D01*
X16532533Y-5818284D01*
X16530291Y-5815794D01*
X16530288Y-5815790D01*
X16408119Y-5680109D01*
X16405871Y-5677612D01*
X16252730Y-5566349D01*
X16194040Y-5540218D01*
X16082863Y-5490718D01*
X16082860Y-5490717D01*
X16079803Y-5489356D01*
X15894646Y-5450000D01*
X15705354Y-5450000D01*
X15520197Y-5489356D01*
X15517140Y-5490717D01*
X15517137Y-5490718D01*
X15405960Y-5540218D01*
X15347270Y-5566349D01*
X15194129Y-5677612D01*
X15191881Y-5680109D01*
X15069712Y-5815790D01*
X15069709Y-5815794D01*
X15067467Y-5818284D01*
X14972821Y-5982216D01*
X14971787Y-5985399D01*
X14971785Y-5985403D01*
X14915361Y-6159057D01*
X14915360Y-6159062D01*
X14914326Y-6162244D01*
X14894540Y-6350500D01*
X14894891Y-6353840D01*
X14900094Y-6403340D01*
X14914326Y-6538756D01*
X14915361Y-6541941D01*
X14915362Y-6541946D01*
X14916703Y-6546073D01*
X14912859Y-6594905D01*
X14908484Y-6602236D01*
X14883985Y-6637684D01*
X14882818Y-6639318D01*
X14847366Y-6687316D01*
X14845779Y-6691836D01*
X14844991Y-6693325D01*
X14844802Y-6693635D01*
X14844472Y-6694284D01*
X14844330Y-6694622D01*
X14843589Y-6696134D01*
X14840869Y-6700069D01*
X14839427Y-6704630D01*
X14839426Y-6704631D01*
X14822883Y-6756939D01*
X14822247Y-6758845D01*
X14818932Y-6768284D01*
X14802481Y-6815131D01*
X14802293Y-6819914D01*
X14801978Y-6821567D01*
X14801791Y-6822306D01*
X14801118Y-6825758D01*
X14800020Y-6829230D01*
X14799500Y-6835837D01*
X14799500Y-6889728D01*
X14799451Y-6892241D01*
X14797162Y-6950494D01*
X14798388Y-6955120D01*
X14798913Y-6959870D01*
X14798492Y-6959917D01*
X14799500Y-6967650D01*
X14799500Y-7731619D01*
X14780755Y-7776874D01*
X14773118Y-7783396D01*
X14729751Y-7814904D01*
X14644129Y-7877112D01*
X14641881Y-7879609D01*
X14519712Y-8015290D01*
X14519709Y-8015294D01*
X14517467Y-8017784D01*
X14422821Y-8181716D01*
X14421787Y-8184899D01*
X14421785Y-8184903D01*
X14365361Y-8358557D01*
X14365360Y-8358562D01*
X14364326Y-8361744D01*
X14344540Y-8550000D01*
X6550500Y-8550000D01*
X6550500Y-7218381D01*
X6569245Y-7173126D01*
X6576882Y-7166604D01*
X6657411Y-7108096D01*
X6705871Y-7072888D01*
X6803596Y-6964354D01*
X6830288Y-6934710D01*
X6830291Y-6934706D01*
X6832533Y-6932216D01*
X6927179Y-6768284D01*
X6930555Y-6757894D01*
X6984639Y-6591443D01*
X6984640Y-6591438D01*
X6985674Y-6588256D01*
X6990108Y-6546073D01*
X7005109Y-6403340D01*
X7005460Y-6400000D01*
X7000609Y-6353840D01*
X6986025Y-6215080D01*
X6986024Y-6215076D01*
X6985674Y-6211744D01*
X6984640Y-6208562D01*
X6984639Y-6208557D01*
X6928215Y-6034903D01*
X6928213Y-6034899D01*
X6927179Y-6031716D01*
X6832533Y-5867784D01*
X6830291Y-5865294D01*
X6830288Y-5865290D01*
X6708119Y-5729609D01*
X6705871Y-5727112D01*
X6552730Y-5615849D01*
X6438489Y-5564985D01*
X6382863Y-5540218D01*
X6382860Y-5540217D01*
X6379803Y-5538856D01*
X6194646Y-5499500D01*
X6005354Y-5499500D01*
X5820197Y-5538856D01*
X5817140Y-5540217D01*
X5817137Y-5540218D01*
X5761511Y-5564985D01*
X5647270Y-5615849D01*
X5494129Y-5727112D01*
X5491881Y-5729609D01*
X5369712Y-5865290D01*
X5369709Y-5865294D01*
X5367467Y-5867784D01*
X5272821Y-6031716D01*
X5271787Y-6034899D01*
X5271785Y-6034903D01*
X5215361Y-6208557D01*
X5215360Y-6208562D01*
X5214326Y-6211744D01*
X5213976Y-6215076D01*
X5213975Y-6215080D01*
X5199391Y-6353840D01*
X5194540Y-6400000D01*
X5194891Y-6403340D01*
X5209893Y-6546073D01*
X5214326Y-6588256D01*
X5215360Y-6591438D01*
X5215361Y-6591443D01*
X5269445Y-6757894D01*
X5272821Y-6768284D01*
X5367467Y-6932216D01*
X5369709Y-6934706D01*
X5369712Y-6934710D01*
X5396404Y-6964354D01*
X5494129Y-7072888D01*
X5542589Y-7108096D01*
X5623118Y-7166604D01*
X5648712Y-7208369D01*
X5649500Y-7218381D01*
X5649500Y-10486887D01*
X5630755Y-10532142D01*
X5558387Y-10604510D01*
X5513132Y-10623255D01*
X5499832Y-10621858D01*
X5394646Y-10599500D01*
X5205354Y-10599500D01*
X5020197Y-10638856D01*
X5017140Y-10640217D01*
X5017137Y-10640218D01*
X4903966Y-10690606D01*
X4847270Y-10715849D01*
X4694129Y-10827112D01*
X4678952Y-10843968D01*
X4569712Y-10965290D01*
X4569709Y-10965294D01*
X4567467Y-10967784D01*
X4472821Y-11131716D01*
X4471787Y-11134899D01*
X4471785Y-11134903D01*
X4415361Y-11308557D01*
X4415360Y-11308562D01*
X4414326Y-11311744D01*
X4394540Y-11500000D01*
X130500Y-11500000D01*
X130500Y-3000000D01*
X1364458Y-3000000D01*
X1364655Y-3002503D01*
X1374830Y-3131784D01*
X1384594Y-3255855D01*
X1385178Y-3258289D01*
X1385179Y-3258293D01*
X1392973Y-3290755D01*
X1444507Y-3505410D01*
X1542721Y-3742521D01*
X1544033Y-3744662D01*
X1544034Y-3744664D01*
X1631626Y-3887600D01*
X1676819Y-3961347D01*
X1843497Y-4156503D01*
X2038653Y-4323181D01*
X2040801Y-4324497D01*
X2040802Y-4324498D01*
X2241228Y-4447320D01*
X2257479Y-4457279D01*
X2494590Y-4555493D01*
X2497028Y-4556078D01*
X2497027Y-4556078D01*
X2741707Y-4614821D01*
X2741711Y-4614822D01*
X2744145Y-4615406D01*
X2746644Y-4615603D01*
X2746646Y-4615603D01*
X2997497Y-4635345D01*
X3000000Y-4635542D01*
X3002503Y-4635345D01*
X3253354Y-4615603D01*
X3253356Y-4615603D01*
X3255855Y-4615406D01*
X3258289Y-4614822D01*
X3258293Y-4614821D01*
X3502973Y-4556078D01*
X3502972Y-4556078D01*
X3505410Y-4555493D01*
X3742521Y-4457279D01*
X3758773Y-4447320D01*
X3900055Y-4360741D01*
X11398498Y-4360741D01*
X11460809Y-4530098D01*
X11463639Y-4535899D01*
X11565456Y-4700112D01*
X11569387Y-4705218D01*
X11702153Y-4845613D01*
X11707025Y-4849819D01*
X11865304Y-4960646D01*
X11870941Y-4963797D01*
X12048259Y-5040529D01*
X12054410Y-5042481D01*
X12233540Y-5079903D01*
X12243113Y-5078094D01*
X12246000Y-5073862D01*
X12246000Y-5064776D01*
X12754000Y-5064776D01*
X12757728Y-5073777D01*
X12764222Y-5076467D01*
X12845449Y-5068216D01*
X12851777Y-5066917D01*
X13036145Y-5009140D01*
X13042078Y-5006597D01*
X13211074Y-4912921D01*
X13216362Y-4909245D01*
X13363069Y-4783503D01*
X13367520Y-4778829D01*
X13485943Y-4626158D01*
X13489361Y-4620689D01*
X13574668Y-4447320D01*
X13576916Y-4441275D01*
X13596441Y-4366321D01*
X13595666Y-4360741D01*
X16398498Y-4360741D01*
X16460809Y-4530098D01*
X16463639Y-4535899D01*
X16565456Y-4700112D01*
X16569387Y-4705218D01*
X16702153Y-4845613D01*
X16707025Y-4849819D01*
X16865304Y-4960646D01*
X16870941Y-4963797D01*
X17048259Y-5040529D01*
X17054410Y-5042481D01*
X17233540Y-5079903D01*
X17243113Y-5078094D01*
X17246000Y-5073862D01*
X17246000Y-5064776D01*
X17754000Y-5064776D01*
X17757728Y-5073777D01*
X17764222Y-5076467D01*
X17845449Y-5068216D01*
X17851777Y-5066917D01*
X18036145Y-5009140D01*
X18042078Y-5006597D01*
X18211074Y-4912921D01*
X18216362Y-4909245D01*
X18363069Y-4783503D01*
X18367520Y-4778829D01*
X18485943Y-4626158D01*
X18489361Y-4620689D01*
X18574668Y-4447320D01*
X18576916Y-4441275D01*
X18596441Y-4366321D01*
X18595101Y-4356667D01*
X18591574Y-4354000D01*
X17766729Y-4354000D01*
X17757728Y-4357728D01*
X17754000Y-4366729D01*
X17754000Y-5064776D01*
X17246000Y-5064776D01*
X17246000Y-4366729D01*
X17242272Y-4357728D01*
X17233271Y-4354000D01*
X16408747Y-4354000D01*
X16399746Y-4357728D01*
X16398498Y-4360741D01*
X13595666Y-4360741D01*
X13595101Y-4356667D01*
X13591574Y-4354000D01*
X12766729Y-4354000D01*
X12757728Y-4357728D01*
X12754000Y-4366729D01*
X12754000Y-5064776D01*
X12246000Y-5064776D01*
X12246000Y-4366729D01*
X12242272Y-4357728D01*
X12233271Y-4354000D01*
X11408747Y-4354000D01*
X11399746Y-4357728D01*
X11398498Y-4360741D01*
X3900055Y-4360741D01*
X3959198Y-4324498D01*
X3959199Y-4324497D01*
X3961347Y-4323181D01*
X4156503Y-4156503D01*
X4323181Y-3961347D01*
X4368374Y-3887600D01*
X4401417Y-3833679D01*
X11403559Y-3833679D01*
X11404899Y-3843333D01*
X11408426Y-3846000D01*
X12233271Y-3846000D01*
X12242272Y-3842272D01*
X12246000Y-3833271D01*
X12754000Y-3833271D01*
X12757728Y-3842272D01*
X12766729Y-3846000D01*
X13591253Y-3846000D01*
X13600254Y-3842272D01*
X13601502Y-3839259D01*
X13599449Y-3833679D01*
X16403559Y-3833679D01*
X16404899Y-3843333D01*
X16408426Y-3846000D01*
X17233271Y-3846000D01*
X17242272Y-3842272D01*
X17246000Y-3833271D01*
X17754000Y-3833271D01*
X17757728Y-3842272D01*
X17766729Y-3846000D01*
X18591253Y-3846000D01*
X18600254Y-3842272D01*
X18601502Y-3839259D01*
X18539191Y-3669902D01*
X18536361Y-3664101D01*
X18434544Y-3499888D01*
X18430613Y-3494782D01*
X18297847Y-3354387D01*
X18292975Y-3350181D01*
X18134696Y-3239354D01*
X18129059Y-3236203D01*
X17951741Y-3159471D01*
X17945590Y-3157519D01*
X17766460Y-3120097D01*
X17756887Y-3121906D01*
X17754000Y-3126138D01*
X17754000Y-3833271D01*
X17246000Y-3833271D01*
X17246000Y-3135224D01*
X17242272Y-3126223D01*
X17235778Y-3123533D01*
X17154551Y-3131784D01*
X17148223Y-3133083D01*
X16963855Y-3190860D01*
X16957922Y-3193403D01*
X16788926Y-3287079D01*
X16783638Y-3290755D01*
X16636931Y-3416497D01*
X16632480Y-3421171D01*
X16514057Y-3573842D01*
X16510639Y-3579311D01*
X16425332Y-3752680D01*
X16423084Y-3758725D01*
X16403559Y-3833679D01*
X13599449Y-3833679D01*
X13539191Y-3669902D01*
X13536361Y-3664101D01*
X13434544Y-3499888D01*
X13430613Y-3494782D01*
X13297847Y-3354387D01*
X13292975Y-3350181D01*
X13134696Y-3239354D01*
X13129059Y-3236203D01*
X12951741Y-3159471D01*
X12945590Y-3157519D01*
X12766460Y-3120097D01*
X12756887Y-3121906D01*
X12754000Y-3126138D01*
X12754000Y-3833271D01*
X12246000Y-3833271D01*
X12246000Y-3135224D01*
X12242272Y-3126223D01*
X12235778Y-3123533D01*
X12154551Y-3131784D01*
X12148223Y-3133083D01*
X11963855Y-3190860D01*
X11957922Y-3193403D01*
X11788926Y-3287079D01*
X11783638Y-3290755D01*
X11636931Y-3416497D01*
X11632480Y-3421171D01*
X11514057Y-3573842D01*
X11510639Y-3579311D01*
X11425332Y-3752680D01*
X11423084Y-3758725D01*
X11403559Y-3833679D01*
X4401417Y-3833679D01*
X4455966Y-3744664D01*
X4455967Y-3744662D01*
X4457279Y-3742521D01*
X4555493Y-3505410D01*
X4607027Y-3290755D01*
X4614821Y-3258293D01*
X4614822Y-3258289D01*
X4615406Y-3255855D01*
X4625171Y-3131784D01*
X4635345Y-3002503D01*
X4635542Y-3000000D01*
X25364458Y-3000000D01*
X25364655Y-3002503D01*
X25374830Y-3131784D01*
X25384594Y-3255855D01*
X25385178Y-3258289D01*
X25385179Y-3258293D01*
X25392973Y-3290755D01*
X25444507Y-3505410D01*
X25542721Y-3742521D01*
X25544033Y-3744662D01*
X25544034Y-3744664D01*
X25631626Y-3887600D01*
X25676819Y-3961347D01*
X25843497Y-4156503D01*
X26038653Y-4323181D01*
X26040801Y-4324497D01*
X26040802Y-4324498D01*
X26241228Y-4447320D01*
X26257479Y-4457279D01*
X26494590Y-4555493D01*
X26497028Y-4556078D01*
X26497027Y-4556078D01*
X26741707Y-4614821D01*
X26741711Y-4614822D01*
X26744145Y-4615406D01*
X26746644Y-4615603D01*
X26746646Y-4615603D01*
X26997497Y-4635345D01*
X27000000Y-4635542D01*
X27002503Y-4635345D01*
X27253354Y-4615603D01*
X27253356Y-4615603D01*
X27255855Y-4615406D01*
X27258289Y-4614822D01*
X27258293Y-4614821D01*
X27502973Y-4556078D01*
X27502972Y-4556078D01*
X27505410Y-4555493D01*
X27742521Y-4457279D01*
X27758773Y-4447320D01*
X27959198Y-4324498D01*
X27959199Y-4324497D01*
X27961347Y-4323181D01*
X28156503Y-4156503D01*
X28323181Y-3961347D01*
X28368374Y-3887600D01*
X28455966Y-3744664D01*
X28455967Y-3744662D01*
X28457279Y-3742521D01*
X28555493Y-3505410D01*
X28607027Y-3290755D01*
X28614821Y-3258293D01*
X28614822Y-3258289D01*
X28615406Y-3255855D01*
X28625171Y-3131784D01*
X28635345Y-3002503D01*
X28635542Y-3000000D01*
X28615406Y-2744145D01*
X28592693Y-2649536D01*
X28556078Y-2497027D01*
X28555493Y-2494590D01*
X28457279Y-2257479D01*
X28422047Y-2199985D01*
X28324498Y-2040802D01*
X28324497Y-2040801D01*
X28323181Y-2038653D01*
X28156503Y-1843497D01*
X27961347Y-1676819D01*
X27742521Y-1542721D01*
X27505410Y-1444507D01*
X27456569Y-1432781D01*
X27258293Y-1385179D01*
X27258289Y-1385178D01*
X27255855Y-1384594D01*
X27253356Y-1384397D01*
X27253354Y-1384397D01*
X27002503Y-1364655D01*
X27000000Y-1364458D01*
X26997497Y-1364655D01*
X26746646Y-1384397D01*
X26746644Y-1384397D01*
X26744145Y-1384594D01*
X26741711Y-1385178D01*
X26741707Y-1385179D01*
X26543431Y-1432781D01*
X26494590Y-1444507D01*
X26257479Y-1542721D01*
X26038653Y-1676819D01*
X25843497Y-1843497D01*
X25676819Y-2038653D01*
X25675503Y-2040801D01*
X25675502Y-2040802D01*
X25577954Y-2199985D01*
X25542721Y-2257479D01*
X25444507Y-2494590D01*
X25443922Y-2497027D01*
X25407308Y-2649536D01*
X25384594Y-2744145D01*
X25367091Y-2966540D01*
X25364458Y-3000000D01*
X4635542Y-3000000D01*
X4615406Y-2744145D01*
X4592693Y-2649536D01*
X4556078Y-2497027D01*
X4555493Y-2494590D01*
X4457279Y-2257479D01*
X4422047Y-2199985D01*
X4324498Y-2040802D01*
X4324497Y-2040801D01*
X4323181Y-2038653D01*
X4156503Y-1843497D01*
X4078368Y-1776764D01*
X10547000Y-1776764D01*
X10547164Y-1780007D01*
X10561322Y-1919386D01*
X10562621Y-1925714D01*
X10618575Y-2104266D01*
X10621118Y-2110199D01*
X10711841Y-2273866D01*
X10715515Y-2279152D01*
X10837296Y-2421237D01*
X10841961Y-2425679D01*
X10989821Y-2540371D01*
X10995290Y-2543789D01*
X11163191Y-2626405D01*
X11169236Y-2628653D01*
X11233679Y-2645440D01*
X11243333Y-2644100D01*
X11246000Y-2640573D01*
X11246000Y-2639287D01*
X11754000Y-2639287D01*
X11757728Y-2648288D01*
X11760741Y-2649536D01*
X11916872Y-2592090D01*
X11922682Y-2589257D01*
X12081713Y-2490653D01*
X12086819Y-2486722D01*
X12222787Y-2358143D01*
X12226993Y-2353271D01*
X12334325Y-2199985D01*
X12337474Y-2194350D01*
X12411788Y-2022623D01*
X12413739Y-2016471D01*
X12452166Y-1832527D01*
X12452795Y-1827679D01*
X12452956Y-1824623D01*
X12453000Y-1822933D01*
X12453000Y-1776764D01*
X17547000Y-1776764D01*
X17547164Y-1780007D01*
X17561322Y-1919386D01*
X17562621Y-1925714D01*
X17618575Y-2104266D01*
X17621118Y-2110199D01*
X17711841Y-2273866D01*
X17715515Y-2279152D01*
X17837296Y-2421237D01*
X17841961Y-2425679D01*
X17989821Y-2540371D01*
X17995290Y-2543789D01*
X18163191Y-2626405D01*
X18169236Y-2628653D01*
X18233679Y-2645440D01*
X18243333Y-2644100D01*
X18246000Y-2640573D01*
X18246000Y-2639287D01*
X18754000Y-2639287D01*
X18757728Y-2648288D01*
X18760741Y-2649536D01*
X18916872Y-2592090D01*
X18922682Y-2589257D01*
X19081713Y-2490653D01*
X19086819Y-2486722D01*
X19222787Y-2358143D01*
X19226993Y-2353271D01*
X19334325Y-2199985D01*
X19337474Y-2194350D01*
X19411788Y-2022623D01*
X19413739Y-2016471D01*
X19452166Y-1832527D01*
X19452795Y-1827679D01*
X19452956Y-1824623D01*
X19453000Y-1822933D01*
X19453000Y-1666729D01*
X19449272Y-1657728D01*
X19440271Y-1654000D01*
X18766729Y-1654000D01*
X18757728Y-1657728D01*
X18754000Y-1666729D01*
X18754000Y-2639287D01*
X18246000Y-2639287D01*
X18246000Y-1666729D01*
X18242272Y-1657728D01*
X18233271Y-1654000D01*
X17559729Y-1654000D01*
X17550728Y-1657728D01*
X17547000Y-1666729D01*
X17547000Y-1776764D01*
X12453000Y-1776764D01*
X12453000Y-1666729D01*
X12449272Y-1657728D01*
X12440271Y-1654000D01*
X11766729Y-1654000D01*
X11757728Y-1657728D01*
X11754000Y-1666729D01*
X11754000Y-2639287D01*
X11246000Y-2639287D01*
X11246000Y-1666729D01*
X11242272Y-1657728D01*
X11233271Y-1654000D01*
X10559729Y-1654000D01*
X10550728Y-1657728D01*
X10547000Y-1666729D01*
X10547000Y-1776764D01*
X4078368Y-1776764D01*
X3961347Y-1676819D01*
X3742521Y-1542721D01*
X3505410Y-1444507D01*
X3456569Y-1432781D01*
X3258293Y-1385179D01*
X3258289Y-1385178D01*
X3255855Y-1384594D01*
X3253356Y-1384397D01*
X3253354Y-1384397D01*
X3002503Y-1364655D01*
X3000000Y-1364458D01*
X2997497Y-1364655D01*
X2746646Y-1384397D01*
X2746644Y-1384397D01*
X2744145Y-1384594D01*
X2741711Y-1385178D01*
X2741707Y-1385179D01*
X2543431Y-1432781D01*
X2494590Y-1444507D01*
X2257479Y-1542721D01*
X2038653Y-1676819D01*
X1843497Y-1843497D01*
X1676819Y-2038653D01*
X1675503Y-2040801D01*
X1675502Y-2040802D01*
X1577954Y-2199985D01*
X1542721Y-2257479D01*
X1444507Y-2494590D01*
X1443922Y-2497027D01*
X1407308Y-2649536D01*
X1384594Y-2744145D01*
X1367091Y-2966540D01*
X1364458Y-3000000D01*
X130500Y-3000000D01*
X130500Y-194500D01*
X149245Y-149245D01*
X194500Y-130500D01*
X10982064Y-130500D01*
X11027319Y-149245D01*
G37*
%TD.AperFunction*%
%TD*%
M02*
