%TF.GenerationSoftware,KiCad,Pcbnew,6.0.5*%
%TF.CreationDate,2022-05-23T21:48:15-04:00*%
%TF.ProjectId,BMS,424d532e-6b69-4636-9164-5f7063625858,rev?*%
%TF.SameCoordinates,Original*%
%TF.FileFunction,Legend,Bot*%
%TF.FilePolarity,Positive*%
%FSLAX46Y46*%
G04 Gerber Fmt 4.6, Leading zero omitted, Abs format (unit mm)*
G04 Created by KiCad (PCBNEW 6.0.5) date 2022-05-23 21:48:15*
%MOMM*%
%LPD*%
G01*
G04 APERTURE LIST*
%ADD10C,0.150000*%
%ADD11C,0.120000*%
G04 APERTURE END LIST*
D10*
%TO.C,U5*%
X3002380Y-31538095D02*
X3811904Y-31538095D01*
X3907142Y-31585714D01*
X3954761Y-31633333D01*
X4002380Y-31728571D01*
X4002380Y-31919047D01*
X3954761Y-32014285D01*
X3907142Y-32061904D01*
X3811904Y-32109523D01*
X3002380Y-32109523D01*
X3002380Y-33061904D02*
X3002380Y-32585714D01*
X3478571Y-32538095D01*
X3430952Y-32585714D01*
X3383333Y-32680952D01*
X3383333Y-32919047D01*
X3430952Y-33014285D01*
X3478571Y-33061904D01*
X3573809Y-33109523D01*
X3811904Y-33109523D01*
X3907142Y-33061904D01*
X3954761Y-33014285D01*
X4002380Y-32919047D01*
X4002380Y-32680952D01*
X3954761Y-32585714D01*
X3907142Y-32538095D01*
%TO.C,D4*%
X6908095Y-51852380D02*
X6908095Y-50852380D01*
X6670000Y-50852380D01*
X6527142Y-50900000D01*
X6431904Y-50995238D01*
X6384285Y-51090476D01*
X6336666Y-51280952D01*
X6336666Y-51423809D01*
X6384285Y-51614285D01*
X6431904Y-51709523D01*
X6527142Y-51804761D01*
X6670000Y-51852380D01*
X6908095Y-51852380D01*
X5479523Y-51185714D02*
X5479523Y-51852380D01*
X5717619Y-50804761D02*
X5955714Y-51519047D01*
X5336666Y-51519047D01*
%TO.C,D3*%
X6908095Y-46952380D02*
X6908095Y-45952380D01*
X6670000Y-45952380D01*
X6527142Y-46000000D01*
X6431904Y-46095238D01*
X6384285Y-46190476D01*
X6336666Y-46380952D01*
X6336666Y-46523809D01*
X6384285Y-46714285D01*
X6431904Y-46809523D01*
X6527142Y-46904761D01*
X6670000Y-46952380D01*
X6908095Y-46952380D01*
X6003333Y-45952380D02*
X5384285Y-45952380D01*
X5717619Y-46333333D01*
X5574761Y-46333333D01*
X5479523Y-46380952D01*
X5431904Y-46428571D01*
X5384285Y-46523809D01*
X5384285Y-46761904D01*
X5431904Y-46857142D01*
X5479523Y-46904761D01*
X5574761Y-46952380D01*
X5860476Y-46952380D01*
X5955714Y-46904761D01*
X6003333Y-46857142D01*
%TO.C,U2*%
X11361904Y-7552380D02*
X11361904Y-8361904D01*
X11314285Y-8457142D01*
X11266666Y-8504761D01*
X11171428Y-8552380D01*
X10980952Y-8552380D01*
X10885714Y-8504761D01*
X10838095Y-8457142D01*
X10790476Y-8361904D01*
X10790476Y-7552380D01*
X10361904Y-7647619D02*
X10314285Y-7600000D01*
X10219047Y-7552380D01*
X9980952Y-7552380D01*
X9885714Y-7600000D01*
X9838095Y-7647619D01*
X9790476Y-7742857D01*
X9790476Y-7838095D01*
X9838095Y-7980952D01*
X10409523Y-8552380D01*
X9790476Y-8552380D01*
%TO.C,R6*%
X12166666Y-32102380D02*
X12500000Y-31626190D01*
X12738095Y-32102380D02*
X12738095Y-31102380D01*
X12357142Y-31102380D01*
X12261904Y-31150000D01*
X12214285Y-31197619D01*
X12166666Y-31292857D01*
X12166666Y-31435714D01*
X12214285Y-31530952D01*
X12261904Y-31578571D01*
X12357142Y-31626190D01*
X12738095Y-31626190D01*
X11309523Y-31102380D02*
X11500000Y-31102380D01*
X11595238Y-31150000D01*
X11642857Y-31197619D01*
X11738095Y-31340476D01*
X11785714Y-31530952D01*
X11785714Y-31911904D01*
X11738095Y-32007142D01*
X11690476Y-32054761D01*
X11595238Y-32102380D01*
X11404761Y-32102380D01*
X11309523Y-32054761D01*
X11261904Y-32007142D01*
X11214285Y-31911904D01*
X11214285Y-31673809D01*
X11261904Y-31578571D01*
X11309523Y-31530952D01*
X11404761Y-31483333D01*
X11595238Y-31483333D01*
X11690476Y-31530952D01*
X11738095Y-31578571D01*
X11785714Y-31673809D01*
%TO.C,U3*%
X14631904Y-38652380D02*
X14631904Y-39461904D01*
X14584285Y-39557142D01*
X14536666Y-39604761D01*
X14441428Y-39652380D01*
X14250952Y-39652380D01*
X14155714Y-39604761D01*
X14108095Y-39557142D01*
X14060476Y-39461904D01*
X14060476Y-38652380D01*
X13679523Y-38652380D02*
X13060476Y-38652380D01*
X13393809Y-39033333D01*
X13250952Y-39033333D01*
X13155714Y-39080952D01*
X13108095Y-39128571D01*
X13060476Y-39223809D01*
X13060476Y-39461904D01*
X13108095Y-39557142D01*
X13155714Y-39604761D01*
X13250952Y-39652380D01*
X13536666Y-39652380D01*
X13631904Y-39604761D01*
X13679523Y-39557142D01*
%TO.C,R5*%
X19352380Y-52383333D02*
X18876190Y-52050000D01*
X19352380Y-51811904D02*
X18352380Y-51811904D01*
X18352380Y-52192857D01*
X18400000Y-52288095D01*
X18447619Y-52335714D01*
X18542857Y-52383333D01*
X18685714Y-52383333D01*
X18780952Y-52335714D01*
X18828571Y-52288095D01*
X18876190Y-52192857D01*
X18876190Y-51811904D01*
X18352380Y-53288095D02*
X18352380Y-52811904D01*
X18828571Y-52764285D01*
X18780952Y-52811904D01*
X18733333Y-52907142D01*
X18733333Y-53145238D01*
X18780952Y-53240476D01*
X18828571Y-53288095D01*
X18923809Y-53335714D01*
X19161904Y-53335714D01*
X19257142Y-53288095D01*
X19304761Y-53240476D01*
X19352380Y-53145238D01*
X19352380Y-52907142D01*
X19304761Y-52811904D01*
X19257142Y-52764285D01*
%TO.C,R3*%
X12279166Y-24002380D02*
X12612500Y-23526190D01*
X12850595Y-24002380D02*
X12850595Y-23002380D01*
X12469642Y-23002380D01*
X12374404Y-23050000D01*
X12326785Y-23097619D01*
X12279166Y-23192857D01*
X12279166Y-23335714D01*
X12326785Y-23430952D01*
X12374404Y-23478571D01*
X12469642Y-23526190D01*
X12850595Y-23526190D01*
X11945833Y-23002380D02*
X11326785Y-23002380D01*
X11660119Y-23383333D01*
X11517261Y-23383333D01*
X11422023Y-23430952D01*
X11374404Y-23478571D01*
X11326785Y-23573809D01*
X11326785Y-23811904D01*
X11374404Y-23907142D01*
X11422023Y-23954761D01*
X11517261Y-24002380D01*
X11802976Y-24002380D01*
X11898214Y-23954761D01*
X11945833Y-23907142D01*
%TO.C,U4*%
X19252380Y-21438095D02*
X20061904Y-21438095D01*
X20157142Y-21485714D01*
X20204761Y-21533333D01*
X20252380Y-21628571D01*
X20252380Y-21819047D01*
X20204761Y-21914285D01*
X20157142Y-21961904D01*
X20061904Y-22009523D01*
X19252380Y-22009523D01*
X19585714Y-22914285D02*
X20252380Y-22914285D01*
X19204761Y-22676190D02*
X19919047Y-22438095D01*
X19919047Y-23057142D01*
%TO.C,U7*%
X19252380Y-29538095D02*
X20061904Y-29538095D01*
X20157142Y-29585714D01*
X20204761Y-29633333D01*
X20252380Y-29728571D01*
X20252380Y-29919047D01*
X20204761Y-30014285D01*
X20157142Y-30061904D01*
X20061904Y-30109523D01*
X19252380Y-30109523D01*
X19252380Y-30490476D02*
X19252380Y-31157142D01*
X20252380Y-30728571D01*
%TO.C,R4*%
X6466666Y-39802380D02*
X6800000Y-39326190D01*
X7038095Y-39802380D02*
X7038095Y-38802380D01*
X6657142Y-38802380D01*
X6561904Y-38850000D01*
X6514285Y-38897619D01*
X6466666Y-38992857D01*
X6466666Y-39135714D01*
X6514285Y-39230952D01*
X6561904Y-39278571D01*
X6657142Y-39326190D01*
X7038095Y-39326190D01*
X5609523Y-39135714D02*
X5609523Y-39802380D01*
X5847619Y-38754761D02*
X6085714Y-39469047D01*
X5466666Y-39469047D01*
%TO.C,R1*%
X13266666Y-17202380D02*
X13600000Y-16726190D01*
X13838095Y-17202380D02*
X13838095Y-16202380D01*
X13457142Y-16202380D01*
X13361904Y-16250000D01*
X13314285Y-16297619D01*
X13266666Y-16392857D01*
X13266666Y-16535714D01*
X13314285Y-16630952D01*
X13361904Y-16678571D01*
X13457142Y-16726190D01*
X13838095Y-16726190D01*
X12314285Y-17202380D02*
X12885714Y-17202380D01*
X12600000Y-17202380D02*
X12600000Y-16202380D01*
X12695238Y-16345238D01*
X12790476Y-16440476D01*
X12885714Y-16488095D01*
%TO.C,R2*%
X19316666Y-45902380D02*
X19650000Y-45426190D01*
X19888095Y-45902380D02*
X19888095Y-44902380D01*
X19507142Y-44902380D01*
X19411904Y-44950000D01*
X19364285Y-44997619D01*
X19316666Y-45092857D01*
X19316666Y-45235714D01*
X19364285Y-45330952D01*
X19411904Y-45378571D01*
X19507142Y-45426190D01*
X19888095Y-45426190D01*
X18935714Y-44997619D02*
X18888095Y-44950000D01*
X18792857Y-44902380D01*
X18554761Y-44902380D01*
X18459523Y-44950000D01*
X18411904Y-44997619D01*
X18364285Y-45092857D01*
X18364285Y-45188095D01*
X18411904Y-45330952D01*
X18983333Y-45902380D01*
X18364285Y-45902380D01*
%TO.C,U6*%
X14631904Y-50452380D02*
X14631904Y-51261904D01*
X14584285Y-51357142D01*
X14536666Y-51404761D01*
X14441428Y-51452380D01*
X14250952Y-51452380D01*
X14155714Y-51404761D01*
X14108095Y-51357142D01*
X14060476Y-51261904D01*
X14060476Y-50452380D01*
X13155714Y-50452380D02*
X13346190Y-50452380D01*
X13441428Y-50500000D01*
X13489047Y-50547619D01*
X13584285Y-50690476D01*
X13631904Y-50880952D01*
X13631904Y-51261904D01*
X13584285Y-51357142D01*
X13536666Y-51404761D01*
X13441428Y-51452380D01*
X13250952Y-51452380D01*
X13155714Y-51404761D01*
X13108095Y-51357142D01*
X13060476Y-51261904D01*
X13060476Y-51023809D01*
X13108095Y-50928571D01*
X13155714Y-50880952D01*
X13250952Y-50833333D01*
X13441428Y-50833333D01*
X13536666Y-50880952D01*
X13584285Y-50928571D01*
X13631904Y-51023809D01*
D11*
%TO.C,U5*%
X9000000Y-34750000D02*
X9000000Y-30050000D01*
X8650000Y-34750000D02*
X8650000Y-36000000D01*
X6080000Y-34750000D02*
X7320000Y-34750000D01*
X4400000Y-30050000D02*
X4750000Y-30050000D01*
X6080000Y-30050000D02*
X7320000Y-30050000D01*
X4400000Y-34750000D02*
X4400000Y-30050000D01*
X9000000Y-30050000D02*
X8650000Y-30050000D01*
X4750000Y-34750000D02*
X4400000Y-34750000D01*
X8650000Y-34750000D02*
X9000000Y-34750000D01*
%TO.C,D4*%
X2770000Y-50550000D02*
X8170000Y-50550000D01*
X2770000Y-47250000D02*
X8170000Y-47250000D01*
X2770000Y-50550000D02*
X2770000Y-47250000D01*
%TO.C,D3*%
X2770000Y-45650000D02*
X8170000Y-45650000D01*
X2770000Y-42350000D02*
X8170000Y-42350000D01*
X2770000Y-45650000D02*
X2770000Y-42350000D01*
%TO.C,U2*%
X12950000Y-9650000D02*
X12950000Y-9300000D01*
X12950000Y-9300000D02*
X8250000Y-9300000D01*
X8250000Y-13900000D02*
X8250000Y-13550000D01*
X8250000Y-9300000D02*
X8250000Y-9650000D01*
X12950000Y-13900000D02*
X8250000Y-13900000D01*
X12950000Y-13550000D02*
X12950000Y-13900000D01*
X8250000Y-12220000D02*
X8250000Y-10980000D01*
X12950000Y-12220000D02*
X12950000Y-10980000D01*
X12950000Y-9650000D02*
X14200000Y-9650000D01*
%TO.C,R6*%
X12227064Y-34035000D02*
X11772936Y-34035000D01*
X12227064Y-32565000D02*
X11772936Y-32565000D01*
%TO.C,U3*%
X11520000Y-43320000D02*
X11520000Y-42080000D01*
X16220000Y-40400000D02*
X11520000Y-40400000D01*
X16220000Y-43320000D02*
X16220000Y-42080000D01*
X16220000Y-40750000D02*
X17470000Y-40750000D01*
X16220000Y-40750000D02*
X16220000Y-40400000D01*
X11520000Y-45000000D02*
X11520000Y-44650000D01*
X16220000Y-44650000D02*
X16220000Y-45000000D01*
X11520000Y-40400000D02*
X11520000Y-40750000D01*
X16220000Y-45000000D02*
X11520000Y-45000000D01*
%TO.C,R5*%
X19635000Y-49672936D02*
X19635000Y-50127064D01*
X18165000Y-49672936D02*
X18165000Y-50127064D01*
%TO.C,R3*%
X12339564Y-24465000D02*
X11885436Y-24465000D01*
X12339564Y-25935000D02*
X11885436Y-25935000D01*
%TO.C,U4*%
X14000000Y-19850000D02*
X14350000Y-19850000D01*
X18600000Y-19850000D02*
X18250000Y-19850000D01*
X18250000Y-24550000D02*
X18600000Y-24550000D01*
X14000000Y-24550000D02*
X14000000Y-19850000D01*
X14350000Y-24550000D02*
X14000000Y-24550000D01*
X18250000Y-24550000D02*
X18250000Y-25800000D01*
X18600000Y-24550000D02*
X18600000Y-19850000D01*
X15680000Y-19850000D02*
X16920000Y-19850000D01*
X15680000Y-24550000D02*
X16920000Y-24550000D01*
%TO.C,U7*%
X14000000Y-32650000D02*
X14000000Y-27950000D01*
X18250000Y-32650000D02*
X18600000Y-32650000D01*
X18600000Y-27950000D02*
X18250000Y-27950000D01*
X14000000Y-27950000D02*
X14350000Y-27950000D01*
X18250000Y-32650000D02*
X18250000Y-33900000D01*
X14350000Y-32650000D02*
X14000000Y-32650000D01*
X18600000Y-32650000D02*
X18600000Y-27950000D01*
X15680000Y-27950000D02*
X16920000Y-27950000D01*
X15680000Y-32650000D02*
X16920000Y-32650000D01*
%TO.C,R4*%
X6072936Y-36965000D02*
X6527064Y-36965000D01*
X6072936Y-38435000D02*
X6527064Y-38435000D01*
%TO.C,R1*%
X12927064Y-15935000D02*
X12472936Y-15935000D01*
X12927064Y-14465000D02*
X12472936Y-14465000D01*
%TO.C,R2*%
X19535000Y-43327064D02*
X19535000Y-42872936D01*
X18065000Y-43327064D02*
X18065000Y-42872936D01*
%TO.C,U6*%
X16220000Y-45750000D02*
X17470000Y-45750000D01*
X11520000Y-45400000D02*
X11520000Y-45750000D01*
X11520000Y-50000000D02*
X11520000Y-49650000D01*
X16220000Y-45750000D02*
X16220000Y-45400000D01*
X11520000Y-48320000D02*
X11520000Y-47080000D01*
X16220000Y-48320000D02*
X16220000Y-47080000D01*
X16220000Y-45400000D02*
X11520000Y-45400000D01*
X16220000Y-49650000D02*
X16220000Y-50000000D01*
X16220000Y-50000000D02*
X11520000Y-50000000D01*
%TD*%
M02*
