%TF.GenerationSoftware,KiCad,Pcbnew,(6.0.7-1)-1*%
%TF.CreationDate,2023-01-25T16:43:34-06:00*%
%TF.ProjectId,BLACKBOX,424c4143-4b42-44f5-982e-6b696361645f,rev?*%
%TF.SameCoordinates,Original*%
%TF.FileFunction,Soldermask,Bot*%
%TF.FilePolarity,Negative*%
%FSLAX46Y46*%
G04 Gerber Fmt 4.6, Leading zero omitted, Abs format (unit mm)*
G04 Created by KiCad (PCBNEW (6.0.7-1)-1) date 2023-01-25 16:43:34*
%MOMM*%
%LPD*%
G01*
G04 APERTURE LIST*
G04 Aperture macros list*
%AMRoundRect*
0 Rectangle with rounded corners*
0 $1 Rounding radius*
0 $2 $3 $4 $5 $6 $7 $8 $9 X,Y pos of 4 corners*
0 Add a 4 corners polygon primitive as box body*
4,1,4,$2,$3,$4,$5,$6,$7,$8,$9,$2,$3,0*
0 Add four circle primitives for the rounded corners*
1,1,$1+$1,$2,$3*
1,1,$1+$1,$4,$5*
1,1,$1+$1,$6,$7*
1,1,$1+$1,$8,$9*
0 Add four rect primitives between the rounded corners*
20,1,$1+$1,$2,$3,$4,$5,0*
20,1,$1+$1,$4,$5,$6,$7,0*
20,1,$1+$1,$6,$7,$8,$9,0*
20,1,$1+$1,$8,$9,$2,$3,0*%
%AMFreePoly0*
4,1,22,0.500000,-0.750000,0.000000,-0.750000,0.000000,-0.745033,-0.079941,-0.743568,-0.215256,-0.701293,-0.333266,-0.622738,-0.424486,-0.514219,-0.481581,-0.384460,-0.499164,-0.250000,-0.500000,-0.250000,-0.500000,0.250000,-0.499164,0.250000,-0.499963,0.256109,-0.478152,0.396186,-0.417904,0.524511,-0.324060,0.630769,-0.204165,0.706417,-0.067858,0.745374,0.000000,0.744959,0.000000,0.750000,
0.500000,0.750000,0.500000,-0.750000,0.500000,-0.750000,$1*%
%AMFreePoly1*
4,1,20,0.000000,0.744959,0.073905,0.744508,0.209726,0.703889,0.328688,0.626782,0.421226,0.519385,0.479903,0.390333,0.500000,0.250000,0.500000,-0.250000,0.499851,-0.262216,0.476331,-0.402017,0.414519,-0.529596,0.319384,-0.634700,0.198574,-0.708877,0.061801,-0.746166,0.000000,-0.745033,0.000000,-0.750000,-0.500000,-0.750000,-0.500000,0.750000,0.000000,0.750000,0.000000,0.744959,
0.000000,0.744959,$1*%
G04 Aperture macros list end*
%ADD10C,2.700000*%
%ADD11RoundRect,0.250000X0.350000X0.625000X-0.350000X0.625000X-0.350000X-0.625000X0.350000X-0.625000X0*%
%ADD12O,1.200000X1.750000*%
%ADD13R,1.600000X1.600000*%
%ADD14O,1.600000X1.600000*%
%ADD15R,1.700000X1.700000*%
%ADD16O,1.700000X1.700000*%
%ADD17C,1.879600*%
%ADD18R,1.200000X0.700000*%
%ADD19R,0.800000X1.000000*%
%ADD20R,2.800000X1.000000*%
%ADD21R,1.900000X1.300000*%
%ADD22R,1.200000X1.000000*%
%ADD23FreePoly0,90.000000*%
%ADD24FreePoly1,90.000000*%
%ADD25R,2.180000X1.600000*%
G04 APERTURE END LIST*
D10*
%TO.C,*%
X132000000Y-58000000D03*
%TD*%
D11*
%TO.C,J102*%
X125476000Y-54356000D03*
D12*
X123476000Y-54356000D03*
%TD*%
D10*
%TO.C,REF\u002A\u002A*%
X88000000Y-82000000D03*
%TD*%
D13*
%TO.C,A1*%
X94996000Y-52324000D03*
D14*
X94996000Y-54864000D03*
X94996000Y-57404000D03*
X94996000Y-59944000D03*
X94996000Y-62484000D03*
X94996000Y-65024000D03*
X94996000Y-67564000D03*
X94996000Y-70104000D03*
X94996000Y-72644000D03*
X94996000Y-75184000D03*
X94996000Y-77724000D03*
X94996000Y-80264000D03*
X94996000Y-82804000D03*
X94996000Y-85344000D03*
X94996000Y-87884000D03*
X110236000Y-87884000D03*
X110236000Y-85344000D03*
X110236000Y-82804000D03*
X110236000Y-80264000D03*
X110236000Y-77724000D03*
X110236000Y-75184000D03*
X110236000Y-72644000D03*
X110236000Y-70104000D03*
X110236000Y-67564000D03*
X110236000Y-65024000D03*
X110236000Y-62484000D03*
X110236000Y-59944000D03*
X110236000Y-57404000D03*
X110236000Y-54864000D03*
X110236000Y-52324000D03*
%TD*%
D10*
%TO.C,*%
X132000000Y-82000000D03*
%TD*%
%TO.C,*%
X88000000Y-58025000D03*
%TD*%
D11*
%TO.C,J3*%
X117856000Y-54356000D03*
D12*
X115856000Y-54356000D03*
%TD*%
D15*
%TO.C,J101*%
X101615000Y-44196000D03*
D16*
X104155000Y-44196000D03*
X106695000Y-44196000D03*
X109235000Y-44196000D03*
X111775000Y-44196000D03*
X114315000Y-44196000D03*
X116855000Y-44196000D03*
X119395000Y-44196000D03*
%TD*%
D17*
%TO.C,U1*%
X106309700Y-87376000D03*
X124089700Y-87376000D03*
X124089700Y-84836000D03*
X106309700Y-84836000D03*
X124089700Y-82296000D03*
X106309700Y-82296000D03*
X106309700Y-79756000D03*
X124089700Y-79756000D03*
X106309700Y-77216000D03*
X124089700Y-77216000D03*
X106309700Y-74676000D03*
X124089700Y-74676000D03*
%TD*%
D18*
%TO.C,J1*%
X113000000Y-65991000D03*
X113000000Y-64891000D03*
X113000000Y-63791000D03*
X113000000Y-62691000D03*
X113000000Y-61591000D03*
X113000000Y-60491000D03*
X113000000Y-59391000D03*
X113000000Y-58291000D03*
X113000000Y-57341000D03*
D19*
X123500000Y-56391000D03*
D20*
X127650000Y-56391000D03*
D21*
X128100000Y-69891000D03*
D22*
X113000000Y-67541000D03*
X117300000Y-56391000D03*
%TD*%
D23*
%TO.C,JP2*%
X101854000Y-85486000D03*
D24*
X101854000Y-84186000D03*
%TD*%
D25*
%TO.C,SW1*%
X125494000Y-50038000D03*
X116314000Y-50038000D03*
%TD*%
M02*
