%TF.GenerationSoftware,KiCad,Pcbnew,(6.0.7-1)-1*%
%TF.CreationDate,2023-01-25T16:43:34-06:00*%
%TF.ProjectId,BLACKBOX,424c4143-4b42-44f5-982e-6b696361645f,rev?*%
%TF.SameCoordinates,Original*%
%TF.FileFunction,Legend,Top*%
%TF.FilePolarity,Positive*%
%FSLAX46Y46*%
G04 Gerber Fmt 4.6, Leading zero omitted, Abs format (unit mm)*
G04 Created by KiCad (PCBNEW (6.0.7-1)-1) date 2023-01-25 16:43:34*
%MOMM*%
%LPD*%
G01*
G04 APERTURE LIST*
%ADD10C,0.150000*%
%ADD11C,0.120000*%
G04 APERTURE END LIST*
D10*
%TO.C,R1*%
X125055333Y-64078380D02*
X124722000Y-63602190D01*
X124483904Y-64078380D02*
X124483904Y-63078380D01*
X124864857Y-63078380D01*
X124960095Y-63126000D01*
X125007714Y-63173619D01*
X125055333Y-63268857D01*
X125055333Y-63411714D01*
X125007714Y-63506952D01*
X124960095Y-63554571D01*
X124864857Y-63602190D01*
X124483904Y-63602190D01*
X126007714Y-64078380D02*
X125436285Y-64078380D01*
X125722000Y-64078380D02*
X125722000Y-63078380D01*
X125626761Y-63221238D01*
X125531523Y-63316476D01*
X125436285Y-63364095D01*
%TO.C,R5*%
X119975333Y-68524380D02*
X119642000Y-68048190D01*
X119403904Y-68524380D02*
X119403904Y-67524380D01*
X119784857Y-67524380D01*
X119880095Y-67572000D01*
X119927714Y-67619619D01*
X119975333Y-67714857D01*
X119975333Y-67857714D01*
X119927714Y-67952952D01*
X119880095Y-68000571D01*
X119784857Y-68048190D01*
X119403904Y-68048190D01*
X120880095Y-67524380D02*
X120403904Y-67524380D01*
X120356285Y-68000571D01*
X120403904Y-67952952D01*
X120499142Y-67905333D01*
X120737238Y-67905333D01*
X120832476Y-67952952D01*
X120880095Y-68000571D01*
X120927714Y-68095809D01*
X120927714Y-68333904D01*
X120880095Y-68429142D01*
X120832476Y-68476761D01*
X120737238Y-68524380D01*
X120499142Y-68524380D01*
X120403904Y-68476761D01*
X120356285Y-68429142D01*
%TO.C,D2*%
X115236404Y-72334380D02*
X115236404Y-71334380D01*
X115474500Y-71334380D01*
X115617357Y-71382000D01*
X115712595Y-71477238D01*
X115760214Y-71572476D01*
X115807833Y-71762952D01*
X115807833Y-71905809D01*
X115760214Y-72096285D01*
X115712595Y-72191523D01*
X115617357Y-72286761D01*
X115474500Y-72334380D01*
X115236404Y-72334380D01*
X116188785Y-71429619D02*
X116236404Y-71382000D01*
X116331642Y-71334380D01*
X116569738Y-71334380D01*
X116664976Y-71382000D01*
X116712595Y-71429619D01*
X116760214Y-71524857D01*
X116760214Y-71620095D01*
X116712595Y-71762952D01*
X116141166Y-72334380D01*
X116760214Y-72334380D01*
%TO.C,D1*%
X115236404Y-75890380D02*
X115236404Y-74890380D01*
X115474500Y-74890380D01*
X115617357Y-74938000D01*
X115712595Y-75033238D01*
X115760214Y-75128476D01*
X115807833Y-75318952D01*
X115807833Y-75461809D01*
X115760214Y-75652285D01*
X115712595Y-75747523D01*
X115617357Y-75842761D01*
X115474500Y-75890380D01*
X115236404Y-75890380D01*
X116760214Y-75890380D02*
X116188785Y-75890380D01*
X116474500Y-75890380D02*
X116474500Y-74890380D01*
X116379261Y-75033238D01*
X116284023Y-75128476D01*
X116188785Y-75176095D01*
%TO.C,*%
%TO.C,R6*%
X119871833Y-64968380D02*
X119538500Y-64492190D01*
X119300404Y-64968380D02*
X119300404Y-63968380D01*
X119681357Y-63968380D01*
X119776595Y-64016000D01*
X119824214Y-64063619D01*
X119871833Y-64158857D01*
X119871833Y-64301714D01*
X119824214Y-64396952D01*
X119776595Y-64444571D01*
X119681357Y-64492190D01*
X119300404Y-64492190D01*
X120728976Y-63968380D02*
X120538500Y-63968380D01*
X120443261Y-64016000D01*
X120395642Y-64063619D01*
X120300404Y-64206476D01*
X120252785Y-64396952D01*
X120252785Y-64777904D01*
X120300404Y-64873142D01*
X120348023Y-64920761D01*
X120443261Y-64968380D01*
X120633738Y-64968380D01*
X120728976Y-64920761D01*
X120776595Y-64873142D01*
X120824214Y-64777904D01*
X120824214Y-64539809D01*
X120776595Y-64444571D01*
X120728976Y-64396952D01*
X120633738Y-64349333D01*
X120443261Y-64349333D01*
X120348023Y-64396952D01*
X120300404Y-64444571D01*
X120252785Y-64539809D01*
%TO.C,JP3*%
X113212666Y-86574380D02*
X113212666Y-87288666D01*
X113165047Y-87431523D01*
X113069809Y-87526761D01*
X112926952Y-87574380D01*
X112831714Y-87574380D01*
X113688857Y-87574380D02*
X113688857Y-86574380D01*
X114069809Y-86574380D01*
X114165047Y-86622000D01*
X114212666Y-86669619D01*
X114260285Y-86764857D01*
X114260285Y-86907714D01*
X114212666Y-87002952D01*
X114165047Y-87050571D01*
X114069809Y-87098190D01*
X113688857Y-87098190D01*
X114593619Y-86574380D02*
X115212666Y-86574380D01*
X114879333Y-86955333D01*
X115022190Y-86955333D01*
X115117428Y-87002952D01*
X115165047Y-87050571D01*
X115212666Y-87145809D01*
X115212666Y-87383904D01*
X115165047Y-87479142D01*
X115117428Y-87526761D01*
X115022190Y-87574380D01*
X114736476Y-87574380D01*
X114641238Y-87526761D01*
X114593619Y-87479142D01*
%TO.C,J102*%
X122682285Y-49702380D02*
X122682285Y-50416666D01*
X122634666Y-50559523D01*
X122539428Y-50654761D01*
X122396571Y-50702380D01*
X122301333Y-50702380D01*
X123682285Y-50702380D02*
X123110857Y-50702380D01*
X123396571Y-50702380D02*
X123396571Y-49702380D01*
X123301333Y-49845238D01*
X123206095Y-49940476D01*
X123110857Y-49988095D01*
X124301333Y-49702380D02*
X124396571Y-49702380D01*
X124491809Y-49750000D01*
X124539428Y-49797619D01*
X124587047Y-49892857D01*
X124634666Y-50083333D01*
X124634666Y-50321428D01*
X124587047Y-50511904D01*
X124539428Y-50607142D01*
X124491809Y-50654761D01*
X124396571Y-50702380D01*
X124301333Y-50702380D01*
X124206095Y-50654761D01*
X124158476Y-50607142D01*
X124110857Y-50511904D01*
X124063238Y-50321428D01*
X124063238Y-50083333D01*
X124110857Y-49892857D01*
X124158476Y-49797619D01*
X124206095Y-49750000D01*
X124301333Y-49702380D01*
X125015619Y-49797619D02*
X125063238Y-49750000D01*
X125158476Y-49702380D01*
X125396571Y-49702380D01*
X125491809Y-49750000D01*
X125539428Y-49797619D01*
X125587047Y-49892857D01*
X125587047Y-49988095D01*
X125539428Y-50130952D01*
X124968000Y-50702380D01*
X125587047Y-50702380D01*
%TO.C,REF\u002A\u002A*%
X86666666Y-78752380D02*
X86333333Y-78276190D01*
X86095238Y-78752380D02*
X86095238Y-77752380D01*
X86476190Y-77752380D01*
X86571428Y-77800000D01*
X86619047Y-77847619D01*
X86666666Y-77942857D01*
X86666666Y-78085714D01*
X86619047Y-78180952D01*
X86571428Y-78228571D01*
X86476190Y-78276190D01*
X86095238Y-78276190D01*
X87095238Y-78228571D02*
X87428571Y-78228571D01*
X87571428Y-78752380D02*
X87095238Y-78752380D01*
X87095238Y-77752380D01*
X87571428Y-77752380D01*
X88333333Y-78228571D02*
X88000000Y-78228571D01*
X88000000Y-78752380D02*
X88000000Y-77752380D01*
X88476190Y-77752380D01*
X89000000Y-77752380D02*
X89000000Y-77990476D01*
X88761904Y-77895238D02*
X89000000Y-77990476D01*
X89238095Y-77895238D01*
X88857142Y-78180952D02*
X89000000Y-77990476D01*
X89142857Y-78180952D01*
X89761904Y-77752380D02*
X89761904Y-77990476D01*
X89523809Y-77895238D02*
X89761904Y-77990476D01*
X90000000Y-77895238D01*
X89619047Y-78180952D02*
X89761904Y-77990476D01*
X89904761Y-78180952D01*
%TO.C,R2*%
X125309333Y-65604380D02*
X124976000Y-65128190D01*
X124737904Y-65604380D02*
X124737904Y-64604380D01*
X125118857Y-64604380D01*
X125214095Y-64652000D01*
X125261714Y-64699619D01*
X125309333Y-64794857D01*
X125309333Y-64937714D01*
X125261714Y-65032952D01*
X125214095Y-65080571D01*
X125118857Y-65128190D01*
X124737904Y-65128190D01*
X125690285Y-64699619D02*
X125737904Y-64652000D01*
X125833142Y-64604380D01*
X126071238Y-64604380D01*
X126166476Y-64652000D01*
X126214095Y-64699619D01*
X126261714Y-64794857D01*
X126261714Y-64890095D01*
X126214095Y-65032952D01*
X125642666Y-65604380D01*
X126261714Y-65604380D01*
%TO.C,D4*%
X115339904Y-65152380D02*
X115339904Y-64152380D01*
X115578000Y-64152380D01*
X115720857Y-64200000D01*
X115816095Y-64295238D01*
X115863714Y-64390476D01*
X115911333Y-64580952D01*
X115911333Y-64723809D01*
X115863714Y-64914285D01*
X115816095Y-65009523D01*
X115720857Y-65104761D01*
X115578000Y-65152380D01*
X115339904Y-65152380D01*
X116768476Y-64485714D02*
X116768476Y-65152380D01*
X116530380Y-64104761D02*
X116292285Y-64819047D01*
X116911333Y-64819047D01*
%TO.C,R3*%
X119871833Y-75890380D02*
X119538500Y-75414190D01*
X119300404Y-75890380D02*
X119300404Y-74890380D01*
X119681357Y-74890380D01*
X119776595Y-74938000D01*
X119824214Y-74985619D01*
X119871833Y-75080857D01*
X119871833Y-75223714D01*
X119824214Y-75318952D01*
X119776595Y-75366571D01*
X119681357Y-75414190D01*
X119300404Y-75414190D01*
X120205166Y-74890380D02*
X120824214Y-74890380D01*
X120490880Y-75271333D01*
X120633738Y-75271333D01*
X120728976Y-75318952D01*
X120776595Y-75366571D01*
X120824214Y-75461809D01*
X120824214Y-75699904D01*
X120776595Y-75795142D01*
X120728976Y-75842761D01*
X120633738Y-75890380D01*
X120348023Y-75890380D01*
X120252785Y-75842761D01*
X120205166Y-75795142D01*
%TO.C,D3*%
X115236404Y-68524380D02*
X115236404Y-67524380D01*
X115474500Y-67524380D01*
X115617357Y-67572000D01*
X115712595Y-67667238D01*
X115760214Y-67762476D01*
X115807833Y-67952952D01*
X115807833Y-68095809D01*
X115760214Y-68286285D01*
X115712595Y-68381523D01*
X115617357Y-68476761D01*
X115474500Y-68524380D01*
X115236404Y-68524380D01*
X116141166Y-67524380D02*
X116760214Y-67524380D01*
X116426880Y-67905333D01*
X116569738Y-67905333D01*
X116664976Y-67952952D01*
X116712595Y-68000571D01*
X116760214Y-68095809D01*
X116760214Y-68333904D01*
X116712595Y-68429142D01*
X116664976Y-68476761D01*
X116569738Y-68524380D01*
X116284023Y-68524380D01*
X116188785Y-68476761D01*
X116141166Y-68429142D01*
%TO.C,U3*%
X118618095Y-82002380D02*
X118618095Y-82811904D01*
X118665714Y-82907142D01*
X118713333Y-82954761D01*
X118808571Y-83002380D01*
X118999047Y-83002380D01*
X119094285Y-82954761D01*
X119141904Y-82907142D01*
X119189523Y-82811904D01*
X119189523Y-82002380D01*
X119570476Y-82002380D02*
X120189523Y-82002380D01*
X119856190Y-82383333D01*
X119999047Y-82383333D01*
X120094285Y-82430952D01*
X120141904Y-82478571D01*
X120189523Y-82573809D01*
X120189523Y-82811904D01*
X120141904Y-82907142D01*
X120094285Y-82954761D01*
X119999047Y-83002380D01*
X119713333Y-83002380D01*
X119618095Y-82954761D01*
X119570476Y-82907142D01*
%TO.C,C4*%
X114149142Y-81700666D02*
X114196761Y-81748285D01*
X114244380Y-81891142D01*
X114244380Y-81986380D01*
X114196761Y-82129238D01*
X114101523Y-82224476D01*
X114006285Y-82272095D01*
X113815809Y-82319714D01*
X113672952Y-82319714D01*
X113482476Y-82272095D01*
X113387238Y-82224476D01*
X113292000Y-82129238D01*
X113244380Y-81986380D01*
X113244380Y-81891142D01*
X113292000Y-81748285D01*
X113339619Y-81700666D01*
X113577714Y-80843523D02*
X114244380Y-80843523D01*
X113196761Y-81081619D02*
X113911047Y-81319714D01*
X113911047Y-80700666D01*
%TO.C,C2*%
X104989333Y-59539142D02*
X104941714Y-59586761D01*
X104798857Y-59634380D01*
X104703619Y-59634380D01*
X104560761Y-59586761D01*
X104465523Y-59491523D01*
X104417904Y-59396285D01*
X104370285Y-59205809D01*
X104370285Y-59062952D01*
X104417904Y-58872476D01*
X104465523Y-58777238D01*
X104560761Y-58682000D01*
X104703619Y-58634380D01*
X104798857Y-58634380D01*
X104941714Y-58682000D01*
X104989333Y-58729619D01*
X105370285Y-58729619D02*
X105417904Y-58682000D01*
X105513142Y-58634380D01*
X105751238Y-58634380D01*
X105846476Y-58682000D01*
X105894095Y-58729619D01*
X105941714Y-58824857D01*
X105941714Y-58920095D01*
X105894095Y-59062952D01*
X105322666Y-59634380D01*
X105941714Y-59634380D01*
%TO.C,R4*%
X119871833Y-72334380D02*
X119538500Y-71858190D01*
X119300404Y-72334380D02*
X119300404Y-71334380D01*
X119681357Y-71334380D01*
X119776595Y-71382000D01*
X119824214Y-71429619D01*
X119871833Y-71524857D01*
X119871833Y-71667714D01*
X119824214Y-71762952D01*
X119776595Y-71810571D01*
X119681357Y-71858190D01*
X119300404Y-71858190D01*
X120728976Y-71667714D02*
X120728976Y-72334380D01*
X120490880Y-71286761D02*
X120252785Y-72001047D01*
X120871833Y-72001047D01*
%TO.C,A1*%
X95805714Y-47410666D02*
X96281904Y-47410666D01*
X95710476Y-47696380D02*
X96043809Y-46696380D01*
X96377142Y-47696380D01*
X97234285Y-47696380D02*
X96662857Y-47696380D01*
X96948571Y-47696380D02*
X96948571Y-46696380D01*
X96853333Y-46839238D01*
X96758095Y-46934476D01*
X96662857Y-46982095D01*
%TO.C,*%
%TO.C,C1*%
X125375333Y-58113142D02*
X125327714Y-58160761D01*
X125184857Y-58208380D01*
X125089619Y-58208380D01*
X124946761Y-58160761D01*
X124851523Y-58065523D01*
X124803904Y-57970285D01*
X124756285Y-57779809D01*
X124756285Y-57636952D01*
X124803904Y-57446476D01*
X124851523Y-57351238D01*
X124946761Y-57256000D01*
X125089619Y-57208380D01*
X125184857Y-57208380D01*
X125327714Y-57256000D01*
X125375333Y-57303619D01*
X126327714Y-58208380D02*
X125756285Y-58208380D01*
X126042000Y-58208380D02*
X126042000Y-57208380D01*
X125946761Y-57351238D01*
X125851523Y-57446476D01*
X125756285Y-57494095D01*
%TO.C,J3*%
X116522666Y-56708380D02*
X116522666Y-57422666D01*
X116475047Y-57565523D01*
X116379809Y-57660761D01*
X116236952Y-57708380D01*
X116141714Y-57708380D01*
X116903619Y-56708380D02*
X117522666Y-56708380D01*
X117189333Y-57089333D01*
X117332190Y-57089333D01*
X117427428Y-57136952D01*
X117475047Y-57184571D01*
X117522666Y-57279809D01*
X117522666Y-57517904D01*
X117475047Y-57613142D01*
X117427428Y-57660761D01*
X117332190Y-57708380D01*
X117046476Y-57708380D01*
X116951238Y-57660761D01*
X116903619Y-57613142D01*
%TO.C,JP1*%
X99750666Y-65492380D02*
X99750666Y-66206666D01*
X99703047Y-66349523D01*
X99607809Y-66444761D01*
X99464952Y-66492380D01*
X99369714Y-66492380D01*
X100226857Y-66492380D02*
X100226857Y-65492380D01*
X100607809Y-65492380D01*
X100703047Y-65540000D01*
X100750666Y-65587619D01*
X100798285Y-65682857D01*
X100798285Y-65825714D01*
X100750666Y-65920952D01*
X100703047Y-65968571D01*
X100607809Y-66016190D01*
X100226857Y-66016190D01*
X101750666Y-66492380D02*
X101179238Y-66492380D01*
X101464952Y-66492380D02*
X101464952Y-65492380D01*
X101369714Y-65635238D01*
X101274476Y-65730476D01*
X101179238Y-65778095D01*
%TO.C,U2*%
X100330095Y-58562380D02*
X100330095Y-59371904D01*
X100377714Y-59467142D01*
X100425333Y-59514761D01*
X100520571Y-59562380D01*
X100711047Y-59562380D01*
X100806285Y-59514761D01*
X100853904Y-59467142D01*
X100901523Y-59371904D01*
X100901523Y-58562380D01*
X101330095Y-58657619D02*
X101377714Y-58610000D01*
X101472952Y-58562380D01*
X101711047Y-58562380D01*
X101806285Y-58610000D01*
X101853904Y-58657619D01*
X101901523Y-58752857D01*
X101901523Y-58848095D01*
X101853904Y-58990952D01*
X101282476Y-59562380D01*
X101901523Y-59562380D01*
%TO.C,C3*%
X104735333Y-67159142D02*
X104687714Y-67206761D01*
X104544857Y-67254380D01*
X104449619Y-67254380D01*
X104306761Y-67206761D01*
X104211523Y-67111523D01*
X104163904Y-67016285D01*
X104116285Y-66825809D01*
X104116285Y-66682952D01*
X104163904Y-66492476D01*
X104211523Y-66397238D01*
X104306761Y-66302000D01*
X104449619Y-66254380D01*
X104544857Y-66254380D01*
X104687714Y-66302000D01*
X104735333Y-66349619D01*
X105068666Y-66254380D02*
X105687714Y-66254380D01*
X105354380Y-66635333D01*
X105497238Y-66635333D01*
X105592476Y-66682952D01*
X105640095Y-66730571D01*
X105687714Y-66825809D01*
X105687714Y-67063904D01*
X105640095Y-67159142D01*
X105592476Y-67206761D01*
X105497238Y-67254380D01*
X105211523Y-67254380D01*
X105116285Y-67206761D01*
X105068666Y-67159142D01*
%TO.C,J101*%
X98737380Y-45481714D02*
X99451666Y-45481714D01*
X99594523Y-45529333D01*
X99689761Y-45624571D01*
X99737380Y-45767428D01*
X99737380Y-45862666D01*
X99737380Y-44481714D02*
X99737380Y-45053142D01*
X99737380Y-44767428D02*
X98737380Y-44767428D01*
X98880238Y-44862666D01*
X98975476Y-44957904D01*
X99023095Y-45053142D01*
X98737380Y-43862666D02*
X98737380Y-43767428D01*
X98785000Y-43672190D01*
X98832619Y-43624571D01*
X98927857Y-43576952D01*
X99118333Y-43529333D01*
X99356428Y-43529333D01*
X99546904Y-43576952D01*
X99642142Y-43624571D01*
X99689761Y-43672190D01*
X99737380Y-43767428D01*
X99737380Y-43862666D01*
X99689761Y-43957904D01*
X99642142Y-44005523D01*
X99546904Y-44053142D01*
X99356428Y-44100761D01*
X99118333Y-44100761D01*
X98927857Y-44053142D01*
X98832619Y-44005523D01*
X98785000Y-43957904D01*
X98737380Y-43862666D01*
X99737380Y-42576952D02*
X99737380Y-43148380D01*
X99737380Y-42862666D02*
X98737380Y-42862666D01*
X98880238Y-42957904D01*
X98975476Y-43053142D01*
X99023095Y-43148380D01*
D11*
%TO.C,R1*%
X125449064Y-61241000D02*
X124994936Y-61241000D01*
X125449064Y-62711000D02*
X124994936Y-62711000D01*
%TO.C,R5*%
X119914936Y-67029000D02*
X120369064Y-67029000D01*
X119914936Y-65559000D02*
X120369064Y-65559000D01*
%TO.C,D2*%
X117659500Y-71064000D02*
X117659500Y-69144000D01*
X114974500Y-71064000D02*
X117659500Y-71064000D01*
X117659500Y-69144000D02*
X114974500Y-69144000D01*
%TO.C,D1*%
X114974500Y-74620000D02*
X117659500Y-74620000D01*
X117659500Y-72700000D02*
X114974500Y-72700000D01*
X117659500Y-74620000D02*
X117659500Y-72700000D01*
%TO.C,R6*%
X119811436Y-62003000D02*
X120265564Y-62003000D01*
X119811436Y-63473000D02*
X120265564Y-63473000D01*
%TO.C,JP3*%
X115446000Y-84536000D02*
X115446000Y-85136000D01*
X112646000Y-85136000D02*
X112646000Y-84536000D01*
X114746000Y-85836000D02*
X113346000Y-85836000D01*
X113346000Y-83836000D02*
X114746000Y-83836000D01*
X114746000Y-85836000D02*
G75*
G03*
X115446000Y-85136000I0J700000D01*
G01*
X115446000Y-84536000D02*
G75*
G03*
X114746000Y-83836000I-700000J0D01*
G01*
X113346000Y-83836000D02*
G75*
G03*
X112646000Y-84536000I-1J-699999D01*
G01*
X112646000Y-85136000D02*
G75*
G03*
X113346000Y-85836000I699999J-1D01*
G01*
%TO.C,J102*%
X126076000Y-56366000D02*
X126076000Y-56166000D01*
X122026000Y-52056000D02*
X122026000Y-55556000D01*
X124976000Y-56166000D02*
X124976000Y-55556000D01*
X125776000Y-56166000D02*
X125776000Y-56366000D01*
X121416000Y-51446000D02*
X121416000Y-56166000D01*
X125776000Y-56366000D02*
X126076000Y-56366000D01*
X127536000Y-53556000D02*
X126926000Y-53556000D01*
X123976000Y-55556000D02*
X123976000Y-56166000D01*
X126926000Y-52056000D02*
X122026000Y-52056000D01*
X124476000Y-52056000D02*
X124476000Y-52556000D01*
X124576000Y-52056000D02*
X124576000Y-52556000D01*
X124976000Y-55556000D02*
X126926000Y-55556000D01*
X126926000Y-55556000D02*
X126926000Y-52056000D01*
X127536000Y-51446000D02*
X121416000Y-51446000D01*
X125776000Y-56266000D02*
X126076000Y-56266000D01*
X122026000Y-55556000D02*
X123976000Y-55556000D01*
X127836000Y-56466000D02*
X127836000Y-55216000D01*
X121416000Y-53556000D02*
X122026000Y-53556000D01*
X127536000Y-56166000D02*
X127536000Y-51446000D01*
X124576000Y-52556000D02*
X124376000Y-52556000D01*
X121416000Y-56166000D02*
X127536000Y-56166000D01*
X126586000Y-56466000D02*
X127836000Y-56466000D01*
X121416000Y-54856000D02*
X122026000Y-54856000D01*
X124376000Y-52556000D02*
X124376000Y-52056000D01*
X127536000Y-54856000D02*
X126926000Y-54856000D01*
%TO.C,R2*%
X125248936Y-67537000D02*
X125703064Y-67537000D01*
X125248936Y-66067000D02*
X125703064Y-66067000D01*
%TO.C,D4*%
X115078000Y-63952000D02*
X117763000Y-63952000D01*
X117763000Y-63952000D02*
X117763000Y-62032000D01*
X117763000Y-62032000D02*
X115078000Y-62032000D01*
%TO.C,R3*%
X119811436Y-74395000D02*
X120265564Y-74395000D01*
X119811436Y-72925000D02*
X120265564Y-72925000D01*
%TO.C,D3*%
X117659500Y-67254000D02*
X117659500Y-65334000D01*
X114974500Y-67254000D02*
X117659500Y-67254000D01*
X117659500Y-65334000D02*
X114974500Y-65334000D01*
%TO.C,U3*%
X118230000Y-88706000D02*
X117730000Y-88706000D01*
X117730000Y-88706000D02*
X117730000Y-88206000D01*
X117830000Y-83506000D02*
X118780000Y-83506000D01*
X121030000Y-88206000D02*
X121030000Y-88706000D01*
X121030000Y-88706000D02*
X120530000Y-88706000D01*
X120530000Y-83506000D02*
X121030000Y-83506000D01*
X121030000Y-83506000D02*
X121030000Y-84006000D01*
%TO.C,C4*%
X114835000Y-81795252D02*
X114835000Y-81272748D01*
X116305000Y-81795252D02*
X116305000Y-81272748D01*
%TO.C,C2*%
X105891000Y-62237252D02*
X105891000Y-61714748D01*
X104421000Y-62237252D02*
X104421000Y-61714748D01*
%TO.C,R4*%
X119811436Y-69369000D02*
X120265564Y-69369000D01*
X119811436Y-70839000D02*
X120265564Y-70839000D01*
%TO.C,A1*%
X108966000Y-51054000D02*
X111636000Y-51054000D01*
X93596000Y-91824000D02*
X111636000Y-91824000D01*
X96266000Y-53594000D02*
X96266000Y-51054000D01*
X108966000Y-89154000D02*
X111636000Y-89154000D01*
X96266000Y-53594000D02*
X93596000Y-53594000D01*
X96266000Y-51054000D02*
X93596000Y-51054000D01*
X93596000Y-53594000D02*
X93596000Y-91824000D01*
X93596000Y-48384000D02*
X93596000Y-51054000D01*
X108966000Y-51054000D02*
X108966000Y-89154000D01*
X96266000Y-53594000D02*
X96266000Y-89154000D01*
X96266000Y-89154000D02*
X93596000Y-89154000D01*
X111636000Y-48384000D02*
X93596000Y-48384000D01*
X111636000Y-91824000D02*
X111636000Y-48384000D01*
%TO.C,C1*%
X125280748Y-58701000D02*
X125803252Y-58701000D01*
X125280748Y-60171000D02*
X125803252Y-60171000D01*
%TO.C,J3*%
X117356000Y-55556000D02*
X119306000Y-55556000D01*
X119306000Y-55556000D02*
X119306000Y-52056000D01*
X116756000Y-52556000D02*
X116756000Y-52056000D01*
X114406000Y-52056000D02*
X114406000Y-55556000D01*
X113796000Y-56166000D02*
X119916000Y-56166000D01*
X116856000Y-52056000D02*
X116856000Y-52556000D01*
X118456000Y-56366000D02*
X118456000Y-56166000D01*
X118966000Y-56466000D02*
X120216000Y-56466000D01*
X118156000Y-56166000D02*
X118156000Y-56366000D01*
X119306000Y-52056000D02*
X114406000Y-52056000D01*
X117356000Y-56166000D02*
X117356000Y-55556000D01*
X119916000Y-54856000D02*
X119306000Y-54856000D01*
X119916000Y-56166000D02*
X119916000Y-51446000D01*
X118156000Y-56366000D02*
X118456000Y-56366000D01*
X116356000Y-55556000D02*
X116356000Y-56166000D01*
X119916000Y-53556000D02*
X119306000Y-53556000D01*
X113796000Y-53556000D02*
X114406000Y-53556000D01*
X113796000Y-51446000D02*
X113796000Y-56166000D01*
X119916000Y-51446000D02*
X113796000Y-51446000D01*
X120216000Y-56466000D02*
X120216000Y-55216000D01*
X113796000Y-54856000D02*
X114406000Y-54856000D01*
X116956000Y-52556000D02*
X116756000Y-52556000D01*
X116956000Y-52056000D02*
X116956000Y-52556000D01*
X118156000Y-56266000D02*
X118456000Y-56266000D01*
X114406000Y-55556000D02*
X116356000Y-55556000D01*
%TO.C,JP1*%
X99884000Y-63008000D02*
X101284000Y-63008000D01*
X99184000Y-64308000D02*
X99184000Y-63708000D01*
X101284000Y-65008000D02*
X99884000Y-65008000D01*
X101984000Y-63708000D02*
X101984000Y-64308000D01*
X101284000Y-65008000D02*
G75*
G03*
X101984000Y-64308000I0J700000D01*
G01*
X101984000Y-63708000D02*
G75*
G03*
X101284000Y-63008000I-700000J0D01*
G01*
X99184000Y-64308000D02*
G75*
G03*
X99884000Y-65008000I699999J-1D01*
G01*
X99884000Y-63008000D02*
G75*
G03*
X99184000Y-63708000I-1J-699999D01*
G01*
%TO.C,U2*%
X102192000Y-60360000D02*
X102192000Y-60360000D01*
X102192000Y-61560000D02*
X102192000Y-62060000D01*
X102192000Y-59860000D02*
X102192000Y-60360000D01*
X101692000Y-62060000D02*
X101692000Y-62060000D01*
X99992000Y-62060000D02*
X99992000Y-61560000D01*
X99992000Y-61560000D02*
X99992000Y-61560000D01*
X101692000Y-59860000D02*
X102192000Y-59860000D01*
X100492000Y-62060000D02*
X99992000Y-62060000D01*
X102192000Y-62060000D02*
X101692000Y-62060000D01*
X100492000Y-59860000D02*
X99992000Y-59860000D01*
X99992000Y-59860000D02*
X99992000Y-59860000D01*
%TO.C,C3*%
X104640748Y-64289000D02*
X105163252Y-64289000D01*
X104640748Y-65759000D02*
X105163252Y-65759000D01*
%TO.C,J101*%
X100285000Y-45526000D02*
X100285000Y-44196000D01*
X102885000Y-45526000D02*
X102885000Y-42866000D01*
X101615000Y-45526000D02*
X100285000Y-45526000D01*
X102885000Y-45526000D02*
X120725000Y-45526000D01*
X102885000Y-42866000D02*
X120725000Y-42866000D01*
X120725000Y-45526000D02*
X120725000Y-42866000D01*
%TO.C,U1*%
G36*
X124225844Y-85458300D02*
G01*
X124202732Y-85458300D01*
X124202732Y-84579460D01*
X124225844Y-84579460D01*
X124225844Y-85458300D01*
G37*
G36*
X124341413Y-85133182D02*
G01*
X124318300Y-85133182D01*
X124318300Y-84924900D01*
X124341413Y-84924900D01*
X124341413Y-85133182D01*
G37*
G36*
X124295188Y-85458300D02*
G01*
X124272072Y-85458300D01*
X124272072Y-84579460D01*
X124295188Y-84579460D01*
X124295188Y-85458300D01*
G37*
G36*
X124272072Y-85458300D02*
G01*
X124248960Y-85458300D01*
X124248960Y-84579460D01*
X124272072Y-84579460D01*
X124272072Y-85458300D01*
G37*
G36*
X124110529Y-85458300D02*
G01*
X124087413Y-85458300D01*
X124087413Y-84579460D01*
X124110529Y-84579460D01*
X124110529Y-85458300D01*
G37*
G36*
X124225844Y-85458300D02*
G01*
X124202732Y-85458300D01*
X124202732Y-84579460D01*
X124225844Y-84579460D01*
X124225844Y-85458300D01*
G37*
G36*
X124364529Y-85133182D02*
G01*
X124341413Y-85133182D01*
X124341413Y-84924900D01*
X124364529Y-84924900D01*
X124364529Y-85133182D01*
G37*
G36*
X124179869Y-85458300D02*
G01*
X124156757Y-85458300D01*
X124156757Y-84579460D01*
X124179869Y-84579460D01*
X124179869Y-85458300D01*
G37*
G36*
X124133641Y-85458300D02*
G01*
X124110529Y-85458300D01*
X124110529Y-84579460D01*
X124133641Y-84579460D01*
X124133641Y-85458300D01*
G37*
G36*
X124156757Y-85458300D02*
G01*
X124133641Y-85458300D01*
X124133641Y-84579460D01*
X124156757Y-84579460D01*
X124156757Y-85458300D01*
G37*
G36*
X124202732Y-85458300D02*
G01*
X124179869Y-85458300D01*
X124179869Y-84579460D01*
X124202732Y-84579460D01*
X124202732Y-85458300D01*
G37*
G36*
X124248960Y-85458300D02*
G01*
X124225844Y-85458300D01*
X124225844Y-84579460D01*
X124248960Y-84579460D01*
X124248960Y-85458300D01*
G37*
G36*
X124318300Y-85133182D02*
G01*
X124295188Y-85133182D01*
X124295188Y-84924900D01*
X124318300Y-84924900D01*
X124318300Y-85133182D01*
G37*
G36*
X124110529Y-85458300D02*
G01*
X124087413Y-85458300D01*
X124087413Y-84579460D01*
X124110529Y-84579460D01*
X124110529Y-85458300D01*
G37*
G36*
X124179869Y-85458300D02*
G01*
X124156757Y-85458300D01*
X124156757Y-84579460D01*
X124179869Y-84579460D01*
X124179869Y-85458300D01*
G37*
G36*
X124341413Y-85133182D02*
G01*
X124318300Y-85133182D01*
X124318300Y-84924900D01*
X124341413Y-84924900D01*
X124341413Y-85133182D01*
G37*
G36*
X124295188Y-85458300D02*
G01*
X124272072Y-85458300D01*
X124272072Y-84579460D01*
X124295188Y-84579460D01*
X124295188Y-85458300D01*
G37*
G36*
X124318300Y-85133182D02*
G01*
X124295188Y-85133182D01*
X124295188Y-84924900D01*
X124318300Y-84924900D01*
X124318300Y-85133182D01*
G37*
G36*
X124202732Y-85458300D02*
G01*
X124179869Y-85458300D01*
X124179869Y-84579460D01*
X124202732Y-84579460D01*
X124202732Y-85458300D01*
G37*
G36*
X124248960Y-85458300D02*
G01*
X124225844Y-85458300D01*
X124225844Y-84579460D01*
X124248960Y-84579460D01*
X124248960Y-85458300D01*
G37*
G36*
X124364529Y-85133182D02*
G01*
X124341413Y-85133182D01*
X124341413Y-84924900D01*
X124364529Y-84924900D01*
X124364529Y-85133182D01*
G37*
G36*
X124272072Y-85458300D02*
G01*
X124248960Y-85458300D01*
X124248960Y-84579460D01*
X124272072Y-84579460D01*
X124272072Y-85458300D01*
G37*
G36*
X124156757Y-85458300D02*
G01*
X124133641Y-85458300D01*
X124133641Y-84579460D01*
X124156757Y-84579460D01*
X124156757Y-85458300D01*
G37*
G36*
X124133641Y-85458300D02*
G01*
X124110529Y-85458300D01*
X124110529Y-84579460D01*
X124133641Y-84579460D01*
X124133641Y-85458300D01*
G37*
%TD*%
M02*
