%TF.GenerationSoftware,KiCad,Pcbnew,(6.0.7-1)-1*%
%TF.CreationDate,2023-01-25T16:43:34-06:00*%
%TF.ProjectId,BLACKBOX,424c4143-4b42-44f5-982e-6b696361645f,rev?*%
%TF.SameCoordinates,Original*%
%TF.FileFunction,Soldermask,Top*%
%TF.FilePolarity,Negative*%
%FSLAX46Y46*%
G04 Gerber Fmt 4.6, Leading zero omitted, Abs format (unit mm)*
G04 Created by KiCad (PCBNEW (6.0.7-1)-1) date 2023-01-25 16:43:34*
%MOMM*%
%LPD*%
G01*
G04 APERTURE LIST*
G04 Aperture macros list*
%AMRoundRect*
0 Rectangle with rounded corners*
0 $1 Rounding radius*
0 $2 $3 $4 $5 $6 $7 $8 $9 X,Y pos of 4 corners*
0 Add a 4 corners polygon primitive as box body*
4,1,4,$2,$3,$4,$5,$6,$7,$8,$9,$2,$3,0*
0 Add four circle primitives for the rounded corners*
1,1,$1+$1,$2,$3*
1,1,$1+$1,$4,$5*
1,1,$1+$1,$6,$7*
1,1,$1+$1,$8,$9*
0 Add four rect primitives between the rounded corners*
20,1,$1+$1,$2,$3,$4,$5,0*
20,1,$1+$1,$4,$5,$6,$7,0*
20,1,$1+$1,$6,$7,$8,$9,0*
20,1,$1+$1,$8,$9,$2,$3,0*%
%AMFreePoly0*
4,1,22,0.500000,-0.750000,0.000000,-0.750000,0.000000,-0.745033,-0.079941,-0.743568,-0.215256,-0.701293,-0.333266,-0.622738,-0.424486,-0.514219,-0.481581,-0.384460,-0.499164,-0.250000,-0.500000,-0.250000,-0.500000,0.250000,-0.499164,0.250000,-0.499963,0.256109,-0.478152,0.396186,-0.417904,0.524511,-0.324060,0.630769,-0.204165,0.706417,-0.067858,0.745374,0.000000,0.744959,0.000000,0.750000,
0.500000,0.750000,0.500000,-0.750000,0.500000,-0.750000,$1*%
%AMFreePoly1*
4,1,20,0.000000,0.744959,0.073905,0.744508,0.209726,0.703889,0.328688,0.626782,0.421226,0.519385,0.479903,0.390333,0.500000,0.250000,0.500000,-0.250000,0.499851,-0.262216,0.476331,-0.402017,0.414519,-0.529596,0.319384,-0.634700,0.198574,-0.708877,0.061801,-0.746166,0.000000,-0.745033,0.000000,-0.750000,-0.500000,-0.750000,-0.500000,0.750000,0.000000,0.750000,0.000000,0.744959,
0.000000,0.744959,$1*%
G04 Aperture macros list end*
%ADD10RoundRect,0.250000X0.262500X0.450000X-0.262500X0.450000X-0.262500X-0.450000X0.262500X-0.450000X0*%
%ADD11RoundRect,0.250000X-0.262500X-0.450000X0.262500X-0.450000X0.262500X0.450000X-0.262500X0.450000X0*%
%ADD12RoundRect,0.243750X0.243750X0.456250X-0.243750X0.456250X-0.243750X-0.456250X0.243750X-0.456250X0*%
%ADD13C,2.700000*%
%ADD14FreePoly0,0.000000*%
%ADD15FreePoly1,0.000000*%
%ADD16RoundRect,0.250000X0.350000X0.625000X-0.350000X0.625000X-0.350000X-0.625000X0.350000X-0.625000X0*%
%ADD17O,1.200000X1.750000*%
%ADD18R,0.950000X0.550000*%
%ADD19RoundRect,0.250000X0.475000X-0.250000X0.475000X0.250000X-0.475000X0.250000X-0.475000X-0.250000X0*%
%ADD20R,1.600000X1.600000*%
%ADD21O,1.600000X1.600000*%
%ADD22RoundRect,0.250000X-0.250000X-0.475000X0.250000X-0.475000X0.250000X0.475000X-0.250000X0.475000X0*%
%ADD23R,0.375000X0.350000*%
%ADD24R,0.350000X0.375000*%
%ADD25R,1.700000X1.700000*%
%ADD26O,1.700000X1.700000*%
%ADD27C,1.879600*%
G04 APERTURE END LIST*
D10*
%TO.C,R1*%
X126134500Y-61976000D03*
X124309500Y-61976000D03*
%TD*%
D11*
%TO.C,R5*%
X119229500Y-66294000D03*
X121054500Y-66294000D03*
%TD*%
D12*
%TO.C,D2*%
X116912000Y-70104000D03*
X115037000Y-70104000D03*
%TD*%
%TO.C,D1*%
X116912000Y-73660000D03*
X115037000Y-73660000D03*
%TD*%
D13*
%TO.C,*%
X132000000Y-58000000D03*
%TD*%
D11*
%TO.C,R6*%
X119126000Y-62738000D03*
X120951000Y-62738000D03*
%TD*%
D14*
%TO.C,JP3*%
X113396000Y-84836000D03*
D15*
X114696000Y-84836000D03*
%TD*%
D16*
%TO.C,J102*%
X125476000Y-54356000D03*
D17*
X123476000Y-54356000D03*
%TD*%
D13*
%TO.C,REF\u002A\u002A*%
X88000000Y-82000000D03*
%TD*%
D11*
%TO.C,R2*%
X124563500Y-66802000D03*
X126388500Y-66802000D03*
%TD*%
D12*
%TO.C,D4*%
X117015500Y-62992000D03*
X115140500Y-62992000D03*
%TD*%
D11*
%TO.C,R3*%
X119126000Y-73660000D03*
X120951000Y-73660000D03*
%TD*%
D12*
%TO.C,D3*%
X116912000Y-66294000D03*
X115037000Y-66294000D03*
%TD*%
D18*
%TO.C,U3*%
X118305000Y-84231000D03*
X118305000Y-85481000D03*
X118305000Y-86731000D03*
X118305000Y-87981000D03*
X120455000Y-87981000D03*
X120455000Y-86731000D03*
X120455000Y-85481000D03*
X120455000Y-84231000D03*
%TD*%
D19*
%TO.C,C4*%
X115570000Y-82484000D03*
X115570000Y-80584000D03*
%TD*%
%TO.C,C2*%
X105156000Y-62926000D03*
X105156000Y-61026000D03*
%TD*%
D11*
%TO.C,R4*%
X119126000Y-70104000D03*
X120951000Y-70104000D03*
%TD*%
D20*
%TO.C,A1*%
X94996000Y-52324000D03*
D21*
X94996000Y-54864000D03*
X94996000Y-57404000D03*
X94996000Y-59944000D03*
X94996000Y-62484000D03*
X94996000Y-65024000D03*
X94996000Y-67564000D03*
X94996000Y-70104000D03*
X94996000Y-72644000D03*
X94996000Y-75184000D03*
X94996000Y-77724000D03*
X94996000Y-80264000D03*
X94996000Y-82804000D03*
X94996000Y-85344000D03*
X94996000Y-87884000D03*
X110236000Y-87884000D03*
X110236000Y-85344000D03*
X110236000Y-82804000D03*
X110236000Y-80264000D03*
X110236000Y-77724000D03*
X110236000Y-75184000D03*
X110236000Y-72644000D03*
X110236000Y-70104000D03*
X110236000Y-67564000D03*
X110236000Y-65024000D03*
X110236000Y-62484000D03*
X110236000Y-59944000D03*
X110236000Y-57404000D03*
X110236000Y-54864000D03*
X110236000Y-52324000D03*
%TD*%
D13*
%TO.C,*%
X132000000Y-82000000D03*
%TD*%
%TO.C,*%
X88000000Y-58025000D03*
%TD*%
D22*
%TO.C,C1*%
X124592000Y-59436000D03*
X126492000Y-59436000D03*
%TD*%
D16*
%TO.C,J3*%
X117856000Y-54356000D03*
D17*
X115856000Y-54356000D03*
%TD*%
D14*
%TO.C,JP1*%
X99934000Y-64008000D03*
D15*
X101234000Y-64008000D03*
%TD*%
D23*
%TO.C,U2*%
X100329500Y-60210000D03*
X100329500Y-60710000D03*
X100329500Y-61210000D03*
X100329500Y-61710000D03*
D24*
X100842000Y-61722500D03*
X101342000Y-61722500D03*
D23*
X101854500Y-61710000D03*
X101854500Y-61210000D03*
X101854500Y-60710000D03*
X101854500Y-60210000D03*
D24*
X101342000Y-60197500D03*
X100842000Y-60197500D03*
%TD*%
D22*
%TO.C,C3*%
X103952000Y-65024000D03*
X105852000Y-65024000D03*
%TD*%
D25*
%TO.C,J101*%
X101615000Y-44196000D03*
D26*
X104155000Y-44196000D03*
X106695000Y-44196000D03*
X109235000Y-44196000D03*
X111775000Y-44196000D03*
X114315000Y-44196000D03*
X116855000Y-44196000D03*
X119395000Y-44196000D03*
%TD*%
D27*
%TO.C,U1*%
X106309700Y-87376000D03*
X124089700Y-87376000D03*
X124089700Y-84836000D03*
X106309700Y-84836000D03*
X124089700Y-82296000D03*
X106309700Y-82296000D03*
X106309700Y-79756000D03*
X124089700Y-79756000D03*
X106309700Y-77216000D03*
X124089700Y-77216000D03*
X106309700Y-74676000D03*
X124089700Y-74676000D03*
%TD*%
M02*
