%TF.GenerationSoftware,KiCad,Pcbnew,5.1.9-73d0e3b20d~88~ubuntu20.04.1*%
%TF.CreationDate,2021-04-18T22:57:39-05:00*%
%TF.ProjectId,FCB,4643422e-6b69-4636-9164-5f7063625858,rev?*%
%TF.SameCoordinates,Original*%
%TF.FileFunction,Soldermask,Bot*%
%TF.FilePolarity,Negative*%
%FSLAX46Y46*%
G04 Gerber Fmt 4.6, Leading zero omitted, Abs format (unit mm)*
G04 Created by KiCad (PCBNEW 5.1.9-73d0e3b20d~88~ubuntu20.04.1) date 2021-04-18 22:57:39*
%MOMM*%
%LPD*%
G01*
G04 APERTURE LIST*
%ADD10C,0.150000*%
%ADD11C,0.100000*%
%ADD12C,3.180000*%
%ADD13R,1.400000X2.790000*%
%ADD14C,1.000000*%
%ADD15O,1.700000X1.700000*%
%ADD16R,1.700000X1.700000*%
%ADD17R,1.800000X1.000000*%
%ADD18R,2.000000X1.000000*%
%ADD19R,0.800000X0.900000*%
%ADD20R,4.600000X1.100000*%
%ADD21R,9.400000X10.800000*%
%ADD22R,1.500000X2.700000*%
%ADD23R,2.200000X2.200000*%
%ADD24C,1.100000*%
%ADD25C,2.200000*%
%ADD26C,2.540000*%
%ADD27R,1.400000X1.000000*%
%ADD28R,1.400000X1.200000*%
%ADD29C,2.500000*%
%ADD30C,1.500000*%
%ADD31R,1.500000X1.000000*%
%ADD32R,1.000000X1.500000*%
%ADD33R,3.125000X0.711000*%
%ADD34C,0.800000*%
%ADD35C,6.400000*%
G04 APERTURE END LIST*
D10*
X171600000Y-65000000D02*
G75*
G03*
X170000000Y-66600000I0J-1600000D01*
G01*
G36*
X238650000Y-65100000D02*
G01*
X239250000Y-65400000D01*
X239550000Y-65800000D01*
X239750000Y-66200000D01*
X239850000Y-66600000D01*
X239850000Y-68100000D01*
X238350000Y-68100000D01*
X238250000Y-67500000D01*
X238050000Y-67100000D01*
X237750000Y-66800000D01*
X237350000Y-66600000D01*
X236850000Y-66500000D01*
X236850000Y-65000000D01*
X238250000Y-65000000D01*
X238650000Y-65100000D01*
G37*
X238650000Y-65100000D02*
X239250000Y-65400000D01*
X239550000Y-65800000D01*
X239750000Y-66200000D01*
X239850000Y-66600000D01*
X239850000Y-68100000D01*
X238350000Y-68100000D01*
X238250000Y-67500000D01*
X238050000Y-67100000D01*
X237750000Y-66800000D01*
X237350000Y-66600000D01*
X236850000Y-66500000D01*
X236850000Y-65000000D01*
X238250000Y-65000000D01*
X238650000Y-65100000D01*
G36*
X239850000Y-225800000D02*
G01*
X238350000Y-225800000D01*
X238322400Y-66600000D01*
X239822400Y-66600000D01*
X239850000Y-225800000D01*
G37*
X239850000Y-225800000D02*
X238350000Y-225800000D01*
X238322400Y-66600000D01*
X239822400Y-66600000D01*
X239850000Y-225800000D01*
X170000000Y-225800000D02*
G75*
G03*
X171600000Y-227400000I1600000J0D01*
G01*
X239850000Y-66600000D02*
G75*
G03*
X238250000Y-65000000I-1600000J0D01*
G01*
X238350000Y-68100000D02*
G75*
G03*
X236750000Y-66500000I-1600000J0D01*
G01*
X171500000Y-224300000D02*
G75*
G03*
X173100000Y-225900000I1600000J0D01*
G01*
G36*
X238300000Y-66500000D02*
G01*
X173100000Y-66500000D01*
X173100000Y-65000000D01*
X238300000Y-65000000D01*
X238300000Y-66500000D01*
G37*
X238300000Y-66500000D02*
X173100000Y-66500000D01*
X173100000Y-65000000D01*
X238300000Y-65000000D01*
X238300000Y-66500000D01*
X173100000Y-66500000D02*
G75*
G03*
X171500000Y-68100000I0J-1600000D01*
G01*
G36*
X173100000Y-66500000D02*
G01*
X172500000Y-66600000D01*
X172100000Y-66800000D01*
X171800000Y-67100000D01*
X171600000Y-67500000D01*
X171500000Y-68000000D01*
X170000000Y-68000000D01*
X170000000Y-66600000D01*
X170100000Y-66200000D01*
X170400000Y-65600000D01*
X170800000Y-65300000D01*
X171200000Y-65100000D01*
X171600000Y-65000000D01*
X173100000Y-65000000D01*
X173100000Y-66500000D01*
G37*
X173100000Y-66500000D02*
X172500000Y-66600000D01*
X172100000Y-66800000D01*
X171800000Y-67100000D01*
X171600000Y-67500000D01*
X171500000Y-68000000D01*
X170000000Y-68000000D01*
X170000000Y-66600000D01*
X170100000Y-66200000D01*
X170400000Y-65600000D01*
X170800000Y-65300000D01*
X171200000Y-65100000D01*
X171600000Y-65000000D01*
X173100000Y-65000000D01*
X173100000Y-66500000D01*
G36*
X238300000Y-227400000D02*
G01*
X171600000Y-227400000D01*
X171600000Y-225900000D01*
X238300000Y-225900000D01*
X238300000Y-227400000D01*
G37*
X238300000Y-227400000D02*
X171600000Y-227400000D01*
X171600000Y-225900000D01*
X238300000Y-225900000D01*
X238300000Y-227400000D01*
X239850000Y-225800000D02*
G75*
G02*
X238250000Y-227400000I-1600000J0D01*
G01*
D11*
G36*
X239850000Y-225800000D02*
G01*
X239750000Y-226200000D01*
X239550000Y-226600000D01*
X239250000Y-227000000D01*
X238650000Y-227300000D01*
X238250000Y-227400000D01*
X236850000Y-227400000D01*
X236850000Y-225900000D01*
X237350000Y-225800000D01*
X237750000Y-225600000D01*
X238050000Y-225300000D01*
X238250000Y-224900000D01*
X238350000Y-224300000D01*
X239850000Y-224300000D01*
X239850000Y-225800000D01*
G37*
X239850000Y-225800000D02*
X239750000Y-226200000D01*
X239550000Y-226600000D01*
X239250000Y-227000000D01*
X238650000Y-227300000D01*
X238250000Y-227400000D01*
X236850000Y-227400000D01*
X236850000Y-225900000D01*
X237350000Y-225800000D01*
X237750000Y-225600000D01*
X238050000Y-225300000D01*
X238250000Y-224900000D01*
X238350000Y-224300000D01*
X239850000Y-224300000D01*
X239850000Y-225800000D01*
D10*
G36*
X171600000Y-224900000D02*
G01*
X171800000Y-225300000D01*
X172100000Y-225600000D01*
X172500000Y-225800000D01*
X173000000Y-225900000D01*
X173000000Y-227400000D01*
X171600000Y-227400000D01*
X171200000Y-227300000D01*
X170600000Y-227000000D01*
X170300000Y-226600000D01*
X170100000Y-226200000D01*
X170000000Y-225800000D01*
X170000000Y-224300000D01*
X171500000Y-224300000D01*
X171600000Y-224900000D01*
G37*
X171600000Y-224900000D02*
X171800000Y-225300000D01*
X172100000Y-225600000D01*
X172500000Y-225800000D01*
X173000000Y-225900000D01*
X173000000Y-227400000D01*
X171600000Y-227400000D01*
X171200000Y-227300000D01*
X170600000Y-227000000D01*
X170300000Y-226600000D01*
X170100000Y-226200000D01*
X170000000Y-225800000D01*
X170000000Y-224300000D01*
X171500000Y-224300000D01*
X171600000Y-224900000D01*
G36*
X171500000Y-225800000D02*
G01*
X170000000Y-225800000D01*
X170000000Y-66600000D01*
X171500000Y-66600000D01*
X171500000Y-225800000D01*
G37*
X171500000Y-225800000D02*
X170000000Y-225800000D01*
X170000000Y-66600000D01*
X171500000Y-66600000D01*
X171500000Y-225800000D01*
X238350000Y-224300000D02*
G75*
G02*
X236750000Y-225900000I-1600000J0D01*
G01*
D12*
%TO.C,BT601*%
X219630000Y-155740000D03*
D13*
X222995000Y-155740000D03*
X216265000Y-155740000D03*
%TD*%
%TO.C,C313*%
G36*
G01*
X225706587Y-174666967D02*
X225353033Y-174313413D01*
G75*
G02*
X225353033Y-173995215I159099J159099D01*
G01*
X225671231Y-173677017D01*
G75*
G02*
X225989429Y-173677017I159099J-159099D01*
G01*
X226342983Y-174030571D01*
G75*
G02*
X226342983Y-174348769I-159099J-159099D01*
G01*
X226024785Y-174666967D01*
G75*
G02*
X225706587Y-174666967I-159099J159099D01*
G01*
G37*
G36*
G01*
X224610571Y-175762983D02*
X224257017Y-175409429D01*
G75*
G02*
X224257017Y-175091231I159099J159099D01*
G01*
X224575215Y-174773033D01*
G75*
G02*
X224893413Y-174773033I159099J-159099D01*
G01*
X225246967Y-175126587D01*
G75*
G02*
X225246967Y-175444785I-159099J-159099D01*
G01*
X224928769Y-175762983D01*
G75*
G02*
X224610571Y-175762983I-159099J159099D01*
G01*
G37*
%TD*%
D14*
%TO.C,TP509*%
X189710000Y-175840000D03*
%TD*%
%TO.C,TP504*%
X187780000Y-181586000D03*
%TD*%
%TO.C,TP501*%
X178640000Y-182080000D03*
%TD*%
%TO.C,R508*%
G36*
G01*
X191825000Y-133575000D02*
X191825000Y-134125000D01*
G75*
G02*
X191625000Y-134325000I-200000J0D01*
G01*
X191225000Y-134325000D01*
G75*
G02*
X191025000Y-134125000I0J200000D01*
G01*
X191025000Y-133575000D01*
G75*
G02*
X191225000Y-133375000I200000J0D01*
G01*
X191625000Y-133375000D01*
G75*
G02*
X191825000Y-133575000I0J-200000D01*
G01*
G37*
G36*
G01*
X193475000Y-133575000D02*
X193475000Y-134125000D01*
G75*
G02*
X193275000Y-134325000I-200000J0D01*
G01*
X192875000Y-134325000D01*
G75*
G02*
X192675000Y-134125000I0J200000D01*
G01*
X192675000Y-133575000D01*
G75*
G02*
X192875000Y-133375000I200000J0D01*
G01*
X193275000Y-133375000D01*
G75*
G02*
X193475000Y-133575000I0J-200000D01*
G01*
G37*
%TD*%
%TO.C,R504*%
G36*
G01*
X191815000Y-136105000D02*
X191815000Y-136655000D01*
G75*
G02*
X191615000Y-136855000I-200000J0D01*
G01*
X191215000Y-136855000D01*
G75*
G02*
X191015000Y-136655000I0J200000D01*
G01*
X191015000Y-136105000D01*
G75*
G02*
X191215000Y-135905000I200000J0D01*
G01*
X191615000Y-135905000D01*
G75*
G02*
X191815000Y-136105000I0J-200000D01*
G01*
G37*
G36*
G01*
X193465000Y-136105000D02*
X193465000Y-136655000D01*
G75*
G02*
X193265000Y-136855000I-200000J0D01*
G01*
X192865000Y-136855000D01*
G75*
G02*
X192665000Y-136655000I0J200000D01*
G01*
X192665000Y-136105000D01*
G75*
G02*
X192865000Y-135905000I200000J0D01*
G01*
X193265000Y-135905000D01*
G75*
G02*
X193465000Y-136105000I0J-200000D01*
G01*
G37*
%TD*%
%TO.C,R503*%
G36*
G01*
X219125000Y-105325000D02*
X219125000Y-104775000D01*
G75*
G02*
X219325000Y-104575000I200000J0D01*
G01*
X219725000Y-104575000D01*
G75*
G02*
X219925000Y-104775000I0J-200000D01*
G01*
X219925000Y-105325000D01*
G75*
G02*
X219725000Y-105525000I-200000J0D01*
G01*
X219325000Y-105525000D01*
G75*
G02*
X219125000Y-105325000I0J200000D01*
G01*
G37*
G36*
G01*
X217475000Y-105325000D02*
X217475000Y-104775000D01*
G75*
G02*
X217675000Y-104575000I200000J0D01*
G01*
X218075000Y-104575000D01*
G75*
G02*
X218275000Y-104775000I0J-200000D01*
G01*
X218275000Y-105325000D01*
G75*
G02*
X218075000Y-105525000I-200000J0D01*
G01*
X217675000Y-105525000D01*
G75*
G02*
X217475000Y-105325000I0J200000D01*
G01*
G37*
%TD*%
%TO.C,R501*%
G36*
G01*
X218275000Y-103315000D02*
X218275000Y-103865000D01*
G75*
G02*
X218075000Y-104065000I-200000J0D01*
G01*
X217675000Y-104065000D01*
G75*
G02*
X217475000Y-103865000I0J200000D01*
G01*
X217475000Y-103315000D01*
G75*
G02*
X217675000Y-103115000I200000J0D01*
G01*
X218075000Y-103115000D01*
G75*
G02*
X218275000Y-103315000I0J-200000D01*
G01*
G37*
G36*
G01*
X219925000Y-103315000D02*
X219925000Y-103865000D01*
G75*
G02*
X219725000Y-104065000I-200000J0D01*
G01*
X219325000Y-104065000D01*
G75*
G02*
X219125000Y-103865000I0J200000D01*
G01*
X219125000Y-103315000D01*
G75*
G02*
X219325000Y-103115000I200000J0D01*
G01*
X219725000Y-103115000D01*
G75*
G02*
X219925000Y-103315000I0J-200000D01*
G01*
G37*
%TD*%
D15*
%TO.C,J6*%
X188720000Y-116720000D03*
D16*
X188720000Y-114180000D03*
%TD*%
D15*
%TO.C,J4*%
X189030000Y-136380000D03*
D16*
X189030000Y-133840000D03*
%TD*%
%TO.C,R107*%
G36*
G01*
X206425000Y-219925000D02*
X206425000Y-220475000D01*
G75*
G02*
X206225000Y-220675000I-200000J0D01*
G01*
X205825000Y-220675000D01*
G75*
G02*
X205625000Y-220475000I0J200000D01*
G01*
X205625000Y-219925000D01*
G75*
G02*
X205825000Y-219725000I200000J0D01*
G01*
X206225000Y-219725000D01*
G75*
G02*
X206425000Y-219925000I0J-200000D01*
G01*
G37*
G36*
G01*
X208075000Y-219925000D02*
X208075000Y-220475000D01*
G75*
G02*
X207875000Y-220675000I-200000J0D01*
G01*
X207475000Y-220675000D01*
G75*
G02*
X207275000Y-220475000I0J200000D01*
G01*
X207275000Y-219925000D01*
G75*
G02*
X207475000Y-219725000I200000J0D01*
G01*
X207875000Y-219725000D01*
G75*
G02*
X208075000Y-219925000I0J-200000D01*
G01*
G37*
%TD*%
%TO.C,R106*%
G36*
G01*
X198135000Y-219935000D02*
X198135000Y-220485000D01*
G75*
G02*
X197935000Y-220685000I-200000J0D01*
G01*
X197535000Y-220685000D01*
G75*
G02*
X197335000Y-220485000I0J200000D01*
G01*
X197335000Y-219935000D01*
G75*
G02*
X197535000Y-219735000I200000J0D01*
G01*
X197935000Y-219735000D01*
G75*
G02*
X198135000Y-219935000I0J-200000D01*
G01*
G37*
G36*
G01*
X199785000Y-219935000D02*
X199785000Y-220485000D01*
G75*
G02*
X199585000Y-220685000I-200000J0D01*
G01*
X199185000Y-220685000D01*
G75*
G02*
X198985000Y-220485000I0J200000D01*
G01*
X198985000Y-219935000D01*
G75*
G02*
X199185000Y-219735000I200000J0D01*
G01*
X199585000Y-219735000D01*
G75*
G02*
X199785000Y-219935000I0J-200000D01*
G01*
G37*
%TD*%
%TO.C,R105*%
G36*
G01*
X189825000Y-219925000D02*
X189825000Y-220475000D01*
G75*
G02*
X189625000Y-220675000I-200000J0D01*
G01*
X189225000Y-220675000D01*
G75*
G02*
X189025000Y-220475000I0J200000D01*
G01*
X189025000Y-219925000D01*
G75*
G02*
X189225000Y-219725000I200000J0D01*
G01*
X189625000Y-219725000D01*
G75*
G02*
X189825000Y-219925000I0J-200000D01*
G01*
G37*
G36*
G01*
X191475000Y-219925000D02*
X191475000Y-220475000D01*
G75*
G02*
X191275000Y-220675000I-200000J0D01*
G01*
X190875000Y-220675000D01*
G75*
G02*
X190675000Y-220475000I0J200000D01*
G01*
X190675000Y-219925000D01*
G75*
G02*
X190875000Y-219725000I200000J0D01*
G01*
X191275000Y-219725000D01*
G75*
G02*
X191475000Y-219925000I0J-200000D01*
G01*
G37*
%TD*%
D11*
%TO.C,JP601*%
G36*
X222275000Y-135700000D02*
G01*
X222275000Y-135200000D01*
X222275602Y-135200000D01*
X222275602Y-135175466D01*
X222280412Y-135126635D01*
X222289984Y-135078510D01*
X222304228Y-135031555D01*
X222323005Y-134986222D01*
X222346136Y-134942949D01*
X222373396Y-134902150D01*
X222404524Y-134864221D01*
X222439221Y-134829524D01*
X222477150Y-134798396D01*
X222517949Y-134771136D01*
X222561222Y-134748005D01*
X222606555Y-134729228D01*
X222653510Y-134714984D01*
X222701635Y-134705412D01*
X222750466Y-134700602D01*
X222775000Y-134700602D01*
X222775000Y-134700000D01*
X223275000Y-134700000D01*
X223275000Y-134700602D01*
X223299534Y-134700602D01*
X223348365Y-134705412D01*
X223396490Y-134714984D01*
X223443445Y-134729228D01*
X223488778Y-134748005D01*
X223532051Y-134771136D01*
X223572850Y-134798396D01*
X223610779Y-134829524D01*
X223645476Y-134864221D01*
X223676604Y-134902150D01*
X223703864Y-134942949D01*
X223726995Y-134986222D01*
X223745772Y-135031555D01*
X223760016Y-135078510D01*
X223769588Y-135126635D01*
X223774398Y-135175466D01*
X223774398Y-135200000D01*
X223775000Y-135200000D01*
X223775000Y-135700000D01*
X222275000Y-135700000D01*
G37*
G36*
X223774398Y-136500000D02*
G01*
X223774398Y-136524534D01*
X223769588Y-136573365D01*
X223760016Y-136621490D01*
X223745772Y-136668445D01*
X223726995Y-136713778D01*
X223703864Y-136757051D01*
X223676604Y-136797850D01*
X223645476Y-136835779D01*
X223610779Y-136870476D01*
X223572850Y-136901604D01*
X223532051Y-136928864D01*
X223488778Y-136951995D01*
X223443445Y-136970772D01*
X223396490Y-136985016D01*
X223348365Y-136994588D01*
X223299534Y-136999398D01*
X223275000Y-136999398D01*
X223275000Y-137000000D01*
X222775000Y-137000000D01*
X222775000Y-136999398D01*
X222750466Y-136999398D01*
X222701635Y-136994588D01*
X222653510Y-136985016D01*
X222606555Y-136970772D01*
X222561222Y-136951995D01*
X222517949Y-136928864D01*
X222477150Y-136901604D01*
X222439221Y-136870476D01*
X222404524Y-136835779D01*
X222373396Y-136797850D01*
X222346136Y-136757051D01*
X222323005Y-136713778D01*
X222304228Y-136668445D01*
X222289984Y-136621490D01*
X222280412Y-136573365D01*
X222275602Y-136524534D01*
X222275602Y-136500000D01*
X222275000Y-136500000D01*
X222275000Y-136000000D01*
X223775000Y-136000000D01*
X223775000Y-136500000D01*
X223774398Y-136500000D01*
G37*
%TD*%
D17*
%TO.C,Y601*%
X220600000Y-145000000D03*
X220600000Y-142500000D03*
%TD*%
D18*
%TO.C,U106*%
X183550000Y-89900000D03*
X183550000Y-91900000D03*
X183550000Y-93900000D03*
X183550000Y-95900000D03*
X183550000Y-97900000D03*
X183550000Y-99900000D03*
X183550000Y-101900000D03*
X183550000Y-103900000D03*
X199550000Y-103900000D03*
X199550000Y-101900000D03*
X199550000Y-99900000D03*
X199550000Y-97900000D03*
X199550000Y-95900000D03*
X199550000Y-93900000D03*
X199550000Y-91900000D03*
X199550000Y-89900000D03*
%TD*%
%TO.C,R101*%
G36*
G01*
X226485000Y-97495000D02*
X226485000Y-98045000D01*
G75*
G02*
X226285000Y-98245000I-200000J0D01*
G01*
X225885000Y-98245000D01*
G75*
G02*
X225685000Y-98045000I0J200000D01*
G01*
X225685000Y-97495000D01*
G75*
G02*
X225885000Y-97295000I200000J0D01*
G01*
X226285000Y-97295000D01*
G75*
G02*
X226485000Y-97495000I0J-200000D01*
G01*
G37*
G36*
G01*
X228135000Y-97495000D02*
X228135000Y-98045000D01*
G75*
G02*
X227935000Y-98245000I-200000J0D01*
G01*
X227535000Y-98245000D01*
G75*
G02*
X227335000Y-98045000I0J200000D01*
G01*
X227335000Y-97495000D01*
G75*
G02*
X227535000Y-97295000I200000J0D01*
G01*
X227935000Y-97295000D01*
G75*
G02*
X228135000Y-97495000I0J-200000D01*
G01*
G37*
%TD*%
D11*
%TO.C,JP106*%
G36*
X231350000Y-91870000D02*
G01*
X231850000Y-91870000D01*
X231850000Y-91870602D01*
X231874534Y-91870602D01*
X231923365Y-91875412D01*
X231971490Y-91884984D01*
X232018445Y-91899228D01*
X232063778Y-91918005D01*
X232107051Y-91941136D01*
X232147850Y-91968396D01*
X232185779Y-91999524D01*
X232220476Y-92034221D01*
X232251604Y-92072150D01*
X232278864Y-92112949D01*
X232301995Y-92156222D01*
X232320772Y-92201555D01*
X232335016Y-92248510D01*
X232344588Y-92296635D01*
X232349398Y-92345466D01*
X232349398Y-92370000D01*
X232350000Y-92370000D01*
X232350000Y-92870000D01*
X232349398Y-92870000D01*
X232349398Y-92894534D01*
X232344588Y-92943365D01*
X232335016Y-92991490D01*
X232320772Y-93038445D01*
X232301995Y-93083778D01*
X232278864Y-93127051D01*
X232251604Y-93167850D01*
X232220476Y-93205779D01*
X232185779Y-93240476D01*
X232147850Y-93271604D01*
X232107051Y-93298864D01*
X232063778Y-93321995D01*
X232018445Y-93340772D01*
X231971490Y-93355016D01*
X231923365Y-93364588D01*
X231874534Y-93369398D01*
X231850000Y-93369398D01*
X231850000Y-93370000D01*
X231350000Y-93370000D01*
X231350000Y-91870000D01*
G37*
G36*
X230550000Y-93369398D02*
G01*
X230525466Y-93369398D01*
X230476635Y-93364588D01*
X230428510Y-93355016D01*
X230381555Y-93340772D01*
X230336222Y-93321995D01*
X230292949Y-93298864D01*
X230252150Y-93271604D01*
X230214221Y-93240476D01*
X230179524Y-93205779D01*
X230148396Y-93167850D01*
X230121136Y-93127051D01*
X230098005Y-93083778D01*
X230079228Y-93038445D01*
X230064984Y-92991490D01*
X230055412Y-92943365D01*
X230050602Y-92894534D01*
X230050602Y-92870000D01*
X230050000Y-92870000D01*
X230050000Y-92370000D01*
X230050602Y-92370000D01*
X230050602Y-92345466D01*
X230055412Y-92296635D01*
X230064984Y-92248510D01*
X230079228Y-92201555D01*
X230098005Y-92156222D01*
X230121136Y-92112949D01*
X230148396Y-92072150D01*
X230179524Y-92034221D01*
X230214221Y-91999524D01*
X230252150Y-91968396D01*
X230292949Y-91941136D01*
X230336222Y-91918005D01*
X230381555Y-91899228D01*
X230428510Y-91884984D01*
X230476635Y-91875412D01*
X230525466Y-91870602D01*
X230550000Y-91870602D01*
X230550000Y-91870000D01*
X231050000Y-91870000D01*
X231050000Y-93370000D01*
X230550000Y-93370000D01*
X230550000Y-93369398D01*
G37*
%TD*%
D19*
%TO.C,IC101*%
X227700000Y-93150000D03*
X228650000Y-91150000D03*
X226750000Y-91150000D03*
%TD*%
%TO.C,C113*%
G36*
G01*
X226590000Y-94460000D02*
X226590000Y-94960000D01*
G75*
G02*
X226365000Y-95185000I-225000J0D01*
G01*
X225915000Y-95185000D01*
G75*
G02*
X225690000Y-94960000I0J225000D01*
G01*
X225690000Y-94460000D01*
G75*
G02*
X225915000Y-94235000I225000J0D01*
G01*
X226365000Y-94235000D01*
G75*
G02*
X226590000Y-94460000I0J-225000D01*
G01*
G37*
G36*
G01*
X228140000Y-94460000D02*
X228140000Y-94960000D01*
G75*
G02*
X227915000Y-95185000I-225000J0D01*
G01*
X227465000Y-95185000D01*
G75*
G02*
X227240000Y-94960000I0J225000D01*
G01*
X227240000Y-94460000D01*
G75*
G02*
X227465000Y-94235000I225000J0D01*
G01*
X227915000Y-94235000D01*
G75*
G02*
X228140000Y-94460000I0J-225000D01*
G01*
G37*
%TD*%
%TO.C,C112*%
G36*
G01*
X226585000Y-95990000D02*
X226585000Y-96490000D01*
G75*
G02*
X226360000Y-96715000I-225000J0D01*
G01*
X225910000Y-96715000D01*
G75*
G02*
X225685000Y-96490000I0J225000D01*
G01*
X225685000Y-95990000D01*
G75*
G02*
X225910000Y-95765000I225000J0D01*
G01*
X226360000Y-95765000D01*
G75*
G02*
X226585000Y-95990000I0J-225000D01*
G01*
G37*
G36*
G01*
X228135000Y-95990000D02*
X228135000Y-96490000D01*
G75*
G02*
X227910000Y-96715000I-225000J0D01*
G01*
X227460000Y-96715000D01*
G75*
G02*
X227235000Y-96490000I0J225000D01*
G01*
X227235000Y-95990000D01*
G75*
G02*
X227460000Y-95765000I225000J0D01*
G01*
X227910000Y-95765000D01*
G75*
G02*
X228135000Y-95990000I0J-225000D01*
G01*
G37*
%TD*%
D15*
%TO.C,J506*%
X173560000Y-187040000D03*
D16*
X176100000Y-187040000D03*
%TD*%
%TO.C,R998*%
G36*
G01*
X173624999Y-223850000D02*
X174525001Y-223850000D01*
G75*
G02*
X174775000Y-224099999I0J-249999D01*
G01*
X174775000Y-224625001D01*
G75*
G02*
X174525001Y-224875000I-249999J0D01*
G01*
X173624999Y-224875000D01*
G75*
G02*
X173375000Y-224625001I0J249999D01*
G01*
X173375000Y-224099999D01*
G75*
G02*
X173624999Y-223850000I249999J0D01*
G01*
G37*
G36*
G01*
X173624999Y-222025000D02*
X174525001Y-222025000D01*
G75*
G02*
X174775000Y-222274999I0J-249999D01*
G01*
X174775000Y-222800001D01*
G75*
G02*
X174525001Y-223050000I-249999J0D01*
G01*
X173624999Y-223050000D01*
G75*
G02*
X173375000Y-222800001I0J249999D01*
G01*
X173375000Y-222274999D01*
G75*
G02*
X173624999Y-222025000I249999J0D01*
G01*
G37*
%TD*%
%TO.C,C513*%
G36*
G01*
X188345000Y-180770000D02*
X188345000Y-180270000D01*
G75*
G02*
X188570000Y-180045000I225000J0D01*
G01*
X189020000Y-180045000D01*
G75*
G02*
X189245000Y-180270000I0J-225000D01*
G01*
X189245000Y-180770000D01*
G75*
G02*
X189020000Y-180995000I-225000J0D01*
G01*
X188570000Y-180995000D01*
G75*
G02*
X188345000Y-180770000I0J225000D01*
G01*
G37*
G36*
G01*
X189895000Y-180770000D02*
X189895000Y-180270000D01*
G75*
G02*
X190120000Y-180045000I225000J0D01*
G01*
X190570000Y-180045000D01*
G75*
G02*
X190795000Y-180270000I0J-225000D01*
G01*
X190795000Y-180770000D01*
G75*
G02*
X190570000Y-180995000I-225000J0D01*
G01*
X190120000Y-180995000D01*
G75*
G02*
X189895000Y-180770000I0J225000D01*
G01*
G37*
%TD*%
%TO.C,C528*%
G36*
G01*
X191340000Y-175070000D02*
X191340000Y-174730000D01*
G75*
G02*
X191480000Y-174590000I140000J0D01*
G01*
X191760000Y-174590000D01*
G75*
G02*
X191900000Y-174730000I0J-140000D01*
G01*
X191900000Y-175070000D01*
G75*
G02*
X191760000Y-175210000I-140000J0D01*
G01*
X191480000Y-175210000D01*
G75*
G02*
X191340000Y-175070000I0J140000D01*
G01*
G37*
G36*
G01*
X192300000Y-175070000D02*
X192300000Y-174730000D01*
G75*
G02*
X192440000Y-174590000I140000J0D01*
G01*
X192720000Y-174590000D01*
G75*
G02*
X192860000Y-174730000I0J-140000D01*
G01*
X192860000Y-175070000D01*
G75*
G02*
X192720000Y-175210000I-140000J0D01*
G01*
X192440000Y-175210000D01*
G75*
G02*
X192300000Y-175070000I0J140000D01*
G01*
G37*
%TD*%
%TO.C,L503*%
G36*
G01*
X185883709Y-172781316D02*
X185521316Y-173143709D01*
G75*
G02*
X185211956Y-173143709I-154680J154680D01*
G01*
X184902597Y-172834350D01*
G75*
G02*
X184902597Y-172524990I154680J154680D01*
G01*
X185264990Y-172162597D01*
G75*
G02*
X185574350Y-172162597I154680J-154680D01*
G01*
X185883709Y-172471956D01*
G75*
G02*
X185883709Y-172781316I-154680J-154680D01*
G01*
G37*
G36*
G01*
X186997403Y-173895010D02*
X186635010Y-174257403D01*
G75*
G02*
X186325650Y-174257403I-154680J154680D01*
G01*
X186016291Y-173948044D01*
G75*
G02*
X186016291Y-173638684I154680J154680D01*
G01*
X186378684Y-173276291D01*
G75*
G02*
X186688044Y-173276291I154680J-154680D01*
G01*
X186997403Y-173585650D01*
G75*
G02*
X186997403Y-173895010I-154680J-154680D01*
G01*
G37*
%TD*%
%TO.C,R7*%
G36*
G01*
X176075000Y-129875000D02*
X176075000Y-130425000D01*
G75*
G02*
X175875000Y-130625000I-200000J0D01*
G01*
X175475000Y-130625000D01*
G75*
G02*
X175275000Y-130425000I0J200000D01*
G01*
X175275000Y-129875000D01*
G75*
G02*
X175475000Y-129675000I200000J0D01*
G01*
X175875000Y-129675000D01*
G75*
G02*
X176075000Y-129875000I0J-200000D01*
G01*
G37*
G36*
G01*
X177725000Y-129875000D02*
X177725000Y-130425000D01*
G75*
G02*
X177525000Y-130625000I-200000J0D01*
G01*
X177125000Y-130625000D01*
G75*
G02*
X176925000Y-130425000I0J200000D01*
G01*
X176925000Y-129875000D01*
G75*
G02*
X177125000Y-129675000I200000J0D01*
G01*
X177525000Y-129675000D01*
G75*
G02*
X177725000Y-129875000I0J-200000D01*
G01*
G37*
%TD*%
%TO.C,R6*%
G36*
G01*
X176075000Y-128375000D02*
X176075000Y-128925000D01*
G75*
G02*
X175875000Y-129125000I-200000J0D01*
G01*
X175475000Y-129125000D01*
G75*
G02*
X175275000Y-128925000I0J200000D01*
G01*
X175275000Y-128375000D01*
G75*
G02*
X175475000Y-128175000I200000J0D01*
G01*
X175875000Y-128175000D01*
G75*
G02*
X176075000Y-128375000I0J-200000D01*
G01*
G37*
G36*
G01*
X177725000Y-128375000D02*
X177725000Y-128925000D01*
G75*
G02*
X177525000Y-129125000I-200000J0D01*
G01*
X177125000Y-129125000D01*
G75*
G02*
X176925000Y-128925000I0J200000D01*
G01*
X176925000Y-128375000D01*
G75*
G02*
X177125000Y-128175000I200000J0D01*
G01*
X177525000Y-128175000D01*
G75*
G02*
X177725000Y-128375000I0J-200000D01*
G01*
G37*
%TD*%
%TO.C,R5*%
G36*
G01*
X176075000Y-126875000D02*
X176075000Y-127425000D01*
G75*
G02*
X175875000Y-127625000I-200000J0D01*
G01*
X175475000Y-127625000D01*
G75*
G02*
X175275000Y-127425000I0J200000D01*
G01*
X175275000Y-126875000D01*
G75*
G02*
X175475000Y-126675000I200000J0D01*
G01*
X175875000Y-126675000D01*
G75*
G02*
X176075000Y-126875000I0J-200000D01*
G01*
G37*
G36*
G01*
X177725000Y-126875000D02*
X177725000Y-127425000D01*
G75*
G02*
X177525000Y-127625000I-200000J0D01*
G01*
X177125000Y-127625000D01*
G75*
G02*
X176925000Y-127425000I0J200000D01*
G01*
X176925000Y-126875000D01*
G75*
G02*
X177125000Y-126675000I200000J0D01*
G01*
X177525000Y-126675000D01*
G75*
G02*
X177725000Y-126875000I0J-200000D01*
G01*
G37*
%TD*%
%TO.C,R4*%
G36*
G01*
X176075000Y-125375000D02*
X176075000Y-125925000D01*
G75*
G02*
X175875000Y-126125000I-200000J0D01*
G01*
X175475000Y-126125000D01*
G75*
G02*
X175275000Y-125925000I0J200000D01*
G01*
X175275000Y-125375000D01*
G75*
G02*
X175475000Y-125175000I200000J0D01*
G01*
X175875000Y-125175000D01*
G75*
G02*
X176075000Y-125375000I0J-200000D01*
G01*
G37*
G36*
G01*
X177725000Y-125375000D02*
X177725000Y-125925000D01*
G75*
G02*
X177525000Y-126125000I-200000J0D01*
G01*
X177125000Y-126125000D01*
G75*
G02*
X176925000Y-125925000I0J200000D01*
G01*
X176925000Y-125375000D01*
G75*
G02*
X177125000Y-125175000I200000J0D01*
G01*
X177525000Y-125175000D01*
G75*
G02*
X177725000Y-125375000I0J-200000D01*
G01*
G37*
%TD*%
%TO.C,R3*%
G36*
G01*
X176075000Y-123875000D02*
X176075000Y-124425000D01*
G75*
G02*
X175875000Y-124625000I-200000J0D01*
G01*
X175475000Y-124625000D01*
G75*
G02*
X175275000Y-124425000I0J200000D01*
G01*
X175275000Y-123875000D01*
G75*
G02*
X175475000Y-123675000I200000J0D01*
G01*
X175875000Y-123675000D01*
G75*
G02*
X176075000Y-123875000I0J-200000D01*
G01*
G37*
G36*
G01*
X177725000Y-123875000D02*
X177725000Y-124425000D01*
G75*
G02*
X177525000Y-124625000I-200000J0D01*
G01*
X177125000Y-124625000D01*
G75*
G02*
X176925000Y-124425000I0J200000D01*
G01*
X176925000Y-123875000D01*
G75*
G02*
X177125000Y-123675000I200000J0D01*
G01*
X177525000Y-123675000D01*
G75*
G02*
X177725000Y-123875000I0J-200000D01*
G01*
G37*
%TD*%
%TO.C,R2*%
G36*
G01*
X176075000Y-122375000D02*
X176075000Y-122925000D01*
G75*
G02*
X175875000Y-123125000I-200000J0D01*
G01*
X175475000Y-123125000D01*
G75*
G02*
X175275000Y-122925000I0J200000D01*
G01*
X175275000Y-122375000D01*
G75*
G02*
X175475000Y-122175000I200000J0D01*
G01*
X175875000Y-122175000D01*
G75*
G02*
X176075000Y-122375000I0J-200000D01*
G01*
G37*
G36*
G01*
X177725000Y-122375000D02*
X177725000Y-122925000D01*
G75*
G02*
X177525000Y-123125000I-200000J0D01*
G01*
X177125000Y-123125000D01*
G75*
G02*
X176925000Y-122925000I0J200000D01*
G01*
X176925000Y-122375000D01*
G75*
G02*
X177125000Y-122175000I200000J0D01*
G01*
X177525000Y-122175000D01*
G75*
G02*
X177725000Y-122375000I0J-200000D01*
G01*
G37*
%TD*%
%TO.C,C2*%
G36*
G01*
X172650000Y-128675000D02*
X173150000Y-128675000D01*
G75*
G02*
X173375000Y-128900000I0J-225000D01*
G01*
X173375000Y-129350000D01*
G75*
G02*
X173150000Y-129575000I-225000J0D01*
G01*
X172650000Y-129575000D01*
G75*
G02*
X172425000Y-129350000I0J225000D01*
G01*
X172425000Y-128900000D01*
G75*
G02*
X172650000Y-128675000I225000J0D01*
G01*
G37*
G36*
G01*
X172650000Y-127125000D02*
X173150000Y-127125000D01*
G75*
G02*
X173375000Y-127350000I0J-225000D01*
G01*
X173375000Y-127800000D01*
G75*
G02*
X173150000Y-128025000I-225000J0D01*
G01*
X172650000Y-128025000D01*
G75*
G02*
X172425000Y-127800000I0J225000D01*
G01*
X172425000Y-127350000D01*
G75*
G02*
X172650000Y-127125000I225000J0D01*
G01*
G37*
%TD*%
%TO.C,C1*%
G36*
G01*
X173150000Y-125025000D02*
X172650000Y-125025000D01*
G75*
G02*
X172425000Y-124800000I0J225000D01*
G01*
X172425000Y-124350000D01*
G75*
G02*
X172650000Y-124125000I225000J0D01*
G01*
X173150000Y-124125000D01*
G75*
G02*
X173375000Y-124350000I0J-225000D01*
G01*
X173375000Y-124800000D01*
G75*
G02*
X173150000Y-125025000I-225000J0D01*
G01*
G37*
G36*
G01*
X173150000Y-126575000D02*
X172650000Y-126575000D01*
G75*
G02*
X172425000Y-126350000I0J225000D01*
G01*
X172425000Y-125900000D01*
G75*
G02*
X172650000Y-125675000I225000J0D01*
G01*
X173150000Y-125675000D01*
G75*
G02*
X173375000Y-125900000I0J-225000D01*
G01*
X173375000Y-126350000D01*
G75*
G02*
X173150000Y-126575000I-225000J0D01*
G01*
G37*
%TD*%
%TO.C,R104*%
G36*
G01*
X224275000Y-206925000D02*
X223725000Y-206925000D01*
G75*
G02*
X223525000Y-206725000I0J200000D01*
G01*
X223525000Y-206325000D01*
G75*
G02*
X223725000Y-206125000I200000J0D01*
G01*
X224275000Y-206125000D01*
G75*
G02*
X224475000Y-206325000I0J-200000D01*
G01*
X224475000Y-206725000D01*
G75*
G02*
X224275000Y-206925000I-200000J0D01*
G01*
G37*
G36*
G01*
X224275000Y-208575000D02*
X223725000Y-208575000D01*
G75*
G02*
X223525000Y-208375000I0J200000D01*
G01*
X223525000Y-207975000D01*
G75*
G02*
X223725000Y-207775000I200000J0D01*
G01*
X224275000Y-207775000D01*
G75*
G02*
X224475000Y-207975000I0J-200000D01*
G01*
X224475000Y-208375000D01*
G75*
G02*
X224275000Y-208575000I-200000J0D01*
G01*
G37*
%TD*%
%TO.C,R103*%
G36*
G01*
X225875000Y-206925000D02*
X225325000Y-206925000D01*
G75*
G02*
X225125000Y-206725000I0J200000D01*
G01*
X225125000Y-206325000D01*
G75*
G02*
X225325000Y-206125000I200000J0D01*
G01*
X225875000Y-206125000D01*
G75*
G02*
X226075000Y-206325000I0J-200000D01*
G01*
X226075000Y-206725000D01*
G75*
G02*
X225875000Y-206925000I-200000J0D01*
G01*
G37*
G36*
G01*
X225875000Y-208575000D02*
X225325000Y-208575000D01*
G75*
G02*
X225125000Y-208375000I0J200000D01*
G01*
X225125000Y-207975000D01*
G75*
G02*
X225325000Y-207775000I200000J0D01*
G01*
X225875000Y-207775000D01*
G75*
G02*
X226075000Y-207975000I0J-200000D01*
G01*
X226075000Y-208375000D01*
G75*
G02*
X225875000Y-208575000I-200000J0D01*
G01*
G37*
%TD*%
D20*
%TO.C,Q101*%
X220275000Y-208160000D03*
X220275000Y-210700000D03*
X220275000Y-213240000D03*
D21*
X211125000Y-210700000D03*
%TD*%
D22*
%TO.C,D102*%
X218500000Y-219200000D03*
X213700000Y-219200000D03*
%TD*%
%TO.C,DISP1*%
G36*
G01*
X209924200Y-100335000D02*
X209924200Y-99985000D01*
G75*
G02*
X209975000Y-99934200I50800J0D01*
G01*
X211675000Y-99934200D01*
G75*
G02*
X211725800Y-99985000I0J-50800D01*
G01*
X211725800Y-100335000D01*
G75*
G02*
X211675000Y-100385800I-50800J0D01*
G01*
X209975000Y-100385800D01*
G75*
G02*
X209924200Y-100335000I0J50800D01*
G01*
G37*
G36*
G01*
X209924200Y-101035000D02*
X209924200Y-100685000D01*
G75*
G02*
X209975000Y-100634200I50800J0D01*
G01*
X211675000Y-100634200D01*
G75*
G02*
X211725800Y-100685000I0J-50800D01*
G01*
X211725800Y-101035000D01*
G75*
G02*
X211675000Y-101085800I-50800J0D01*
G01*
X209975000Y-101085800D01*
G75*
G02*
X209924200Y-101035000I0J50800D01*
G01*
G37*
G36*
G01*
X209924200Y-92635000D02*
X209924200Y-92285000D01*
G75*
G02*
X209975000Y-92234200I50800J0D01*
G01*
X211675000Y-92234200D01*
G75*
G02*
X211725800Y-92285000I0J-50800D01*
G01*
X211725800Y-92635000D01*
G75*
G02*
X211675000Y-92685800I-50800J0D01*
G01*
X209975000Y-92685800D01*
G75*
G02*
X209924200Y-92635000I0J50800D01*
G01*
G37*
G36*
G01*
X209924200Y-93335000D02*
X209924200Y-92985000D01*
G75*
G02*
X209975000Y-92934200I50800J0D01*
G01*
X211675000Y-92934200D01*
G75*
G02*
X211725800Y-92985000I0J-50800D01*
G01*
X211725800Y-93335000D01*
G75*
G02*
X211675000Y-93385800I-50800J0D01*
G01*
X209975000Y-93385800D01*
G75*
G02*
X209924200Y-93335000I0J50800D01*
G01*
G37*
G36*
G01*
X209924200Y-94035000D02*
X209924200Y-93685000D01*
G75*
G02*
X209975000Y-93634200I50800J0D01*
G01*
X211675000Y-93634200D01*
G75*
G02*
X211725800Y-93685000I0J-50800D01*
G01*
X211725800Y-94035000D01*
G75*
G02*
X211675000Y-94085800I-50800J0D01*
G01*
X209975000Y-94085800D01*
G75*
G02*
X209924200Y-94035000I0J50800D01*
G01*
G37*
G36*
G01*
X209924200Y-94735000D02*
X209924200Y-94385000D01*
G75*
G02*
X209975000Y-94334200I50800J0D01*
G01*
X211675000Y-94334200D01*
G75*
G02*
X211725800Y-94385000I0J-50800D01*
G01*
X211725800Y-94735000D01*
G75*
G02*
X211675000Y-94785800I-50800J0D01*
G01*
X209975000Y-94785800D01*
G75*
G02*
X209924200Y-94735000I0J50800D01*
G01*
G37*
G36*
G01*
X209924200Y-95435000D02*
X209924200Y-95085000D01*
G75*
G02*
X209975000Y-95034200I50800J0D01*
G01*
X211675000Y-95034200D01*
G75*
G02*
X211725800Y-95085000I0J-50800D01*
G01*
X211725800Y-95435000D01*
G75*
G02*
X211675000Y-95485800I-50800J0D01*
G01*
X209975000Y-95485800D01*
G75*
G02*
X209924200Y-95435000I0J50800D01*
G01*
G37*
G36*
G01*
X209924200Y-96135000D02*
X209924200Y-95785000D01*
G75*
G02*
X209975000Y-95734200I50800J0D01*
G01*
X211675000Y-95734200D01*
G75*
G02*
X211725800Y-95785000I0J-50800D01*
G01*
X211725800Y-96135000D01*
G75*
G02*
X211675000Y-96185800I-50800J0D01*
G01*
X209975000Y-96185800D01*
G75*
G02*
X209924200Y-96135000I0J50800D01*
G01*
G37*
G36*
G01*
X209924200Y-96835000D02*
X209924200Y-96485000D01*
G75*
G02*
X209975000Y-96434200I50800J0D01*
G01*
X211675000Y-96434200D01*
G75*
G02*
X211725800Y-96485000I0J-50800D01*
G01*
X211725800Y-96835000D01*
G75*
G02*
X211675000Y-96885800I-50800J0D01*
G01*
X209975000Y-96885800D01*
G75*
G02*
X209924200Y-96835000I0J50800D01*
G01*
G37*
G36*
G01*
X209924200Y-97535000D02*
X209924200Y-97185000D01*
G75*
G02*
X209975000Y-97134200I50800J0D01*
G01*
X211675000Y-97134200D01*
G75*
G02*
X211725800Y-97185000I0J-50800D01*
G01*
X211725800Y-97535000D01*
G75*
G02*
X211675000Y-97585800I-50800J0D01*
G01*
X209975000Y-97585800D01*
G75*
G02*
X209924200Y-97535000I0J50800D01*
G01*
G37*
G36*
G01*
X209924200Y-98235000D02*
X209924200Y-97885000D01*
G75*
G02*
X209975000Y-97834200I50800J0D01*
G01*
X211675000Y-97834200D01*
G75*
G02*
X211725800Y-97885000I0J-50800D01*
G01*
X211725800Y-98235000D01*
G75*
G02*
X211675000Y-98285800I-50800J0D01*
G01*
X209975000Y-98285800D01*
G75*
G02*
X209924200Y-98235000I0J50800D01*
G01*
G37*
G36*
G01*
X209924200Y-98935000D02*
X209924200Y-98585000D01*
G75*
G02*
X209975000Y-98534200I50800J0D01*
G01*
X211675000Y-98534200D01*
G75*
G02*
X211725800Y-98585000I0J-50800D01*
G01*
X211725800Y-98935000D01*
G75*
G02*
X211675000Y-98985800I-50800J0D01*
G01*
X209975000Y-98985800D01*
G75*
G02*
X209924200Y-98935000I0J50800D01*
G01*
G37*
G36*
G01*
X209924200Y-99635000D02*
X209924200Y-99285000D01*
G75*
G02*
X209975000Y-99234200I50800J0D01*
G01*
X211675000Y-99234200D01*
G75*
G02*
X211725800Y-99285000I0J-50800D01*
G01*
X211725800Y-99635000D01*
G75*
G02*
X211675000Y-99685800I-50800J0D01*
G01*
X209975000Y-99685800D01*
G75*
G02*
X209924200Y-99635000I0J50800D01*
G01*
G37*
D14*
X214525000Y-101840000D03*
X214525000Y-91440000D03*
%TD*%
D23*
%TO.C,J111*%
X220670000Y-222570000D03*
D24*
X220670000Y-225110000D03*
D25*
X223210000Y-222570000D03*
D24*
X223210000Y-225110000D03*
%TD*%
D23*
%TO.C,J110*%
X214500000Y-222570000D03*
D24*
X214500000Y-225110000D03*
D25*
X217040000Y-222570000D03*
D24*
X217040000Y-225110000D03*
%TD*%
D23*
%TO.C,J109*%
X203500000Y-222570000D03*
D24*
X203500000Y-225110000D03*
D25*
X206040000Y-222570000D03*
D24*
X206040000Y-225110000D03*
D25*
X208580000Y-222570000D03*
D24*
X208580000Y-225110000D03*
%TD*%
D23*
%TO.C,J108*%
X195200000Y-222570000D03*
D24*
X195200000Y-225110000D03*
D25*
X197740000Y-222570000D03*
D24*
X197740000Y-225110000D03*
D25*
X200280000Y-222570000D03*
D24*
X200280000Y-225110000D03*
%TD*%
D23*
%TO.C,J107*%
X186870000Y-222570000D03*
D24*
X186870000Y-225110000D03*
D25*
X189410000Y-222570000D03*
D24*
X189410000Y-225110000D03*
D25*
X191950000Y-222570000D03*
D24*
X191950000Y-225110000D03*
%TD*%
%TO.C,C531*%
G36*
G01*
X189480000Y-178150000D02*
X189820000Y-178150000D01*
G75*
G02*
X189960000Y-178290000I0J-140000D01*
G01*
X189960000Y-178570000D01*
G75*
G02*
X189820000Y-178710000I-140000J0D01*
G01*
X189480000Y-178710000D01*
G75*
G02*
X189340000Y-178570000I0J140000D01*
G01*
X189340000Y-178290000D01*
G75*
G02*
X189480000Y-178150000I140000J0D01*
G01*
G37*
G36*
G01*
X189480000Y-177190000D02*
X189820000Y-177190000D01*
G75*
G02*
X189960000Y-177330000I0J-140000D01*
G01*
X189960000Y-177610000D01*
G75*
G02*
X189820000Y-177750000I-140000J0D01*
G01*
X189480000Y-177750000D01*
G75*
G02*
X189340000Y-177610000I0J140000D01*
G01*
X189340000Y-177330000D01*
G75*
G02*
X189480000Y-177190000I140000J0D01*
G01*
G37*
%TD*%
%TO.C,C526*%
G36*
G01*
X185830000Y-178660000D02*
X185830000Y-179000000D01*
G75*
G02*
X185690000Y-179140000I-140000J0D01*
G01*
X185410000Y-179140000D01*
G75*
G02*
X185270000Y-179000000I0J140000D01*
G01*
X185270000Y-178660000D01*
G75*
G02*
X185410000Y-178520000I140000J0D01*
G01*
X185690000Y-178520000D01*
G75*
G02*
X185830000Y-178660000I0J-140000D01*
G01*
G37*
G36*
G01*
X186790000Y-178660000D02*
X186790000Y-179000000D01*
G75*
G02*
X186650000Y-179140000I-140000J0D01*
G01*
X186370000Y-179140000D01*
G75*
G02*
X186230000Y-179000000I0J140000D01*
G01*
X186230000Y-178660000D01*
G75*
G02*
X186370000Y-178520000I140000J0D01*
G01*
X186650000Y-178520000D01*
G75*
G02*
X186790000Y-178660000I0J-140000D01*
G01*
G37*
%TD*%
%TO.C,C520*%
G36*
G01*
X198275000Y-163220000D02*
X198275000Y-163720000D01*
G75*
G02*
X198050000Y-163945000I-225000J0D01*
G01*
X197600000Y-163945000D01*
G75*
G02*
X197375000Y-163720000I0J225000D01*
G01*
X197375000Y-163220000D01*
G75*
G02*
X197600000Y-162995000I225000J0D01*
G01*
X198050000Y-162995000D01*
G75*
G02*
X198275000Y-163220000I0J-225000D01*
G01*
G37*
G36*
G01*
X196725000Y-163220000D02*
X196725000Y-163720000D01*
G75*
G02*
X196500000Y-163945000I-225000J0D01*
G01*
X196050000Y-163945000D01*
G75*
G02*
X195825000Y-163720000I0J225000D01*
G01*
X195825000Y-163220000D01*
G75*
G02*
X196050000Y-162995000I225000J0D01*
G01*
X196500000Y-162995000D01*
G75*
G02*
X196725000Y-163220000I0J-225000D01*
G01*
G37*
%TD*%
%TO.C,C517*%
G36*
G01*
X187460000Y-175710000D02*
X187460000Y-176050000D01*
G75*
G02*
X187320000Y-176190000I-140000J0D01*
G01*
X187040000Y-176190000D01*
G75*
G02*
X186900000Y-176050000I0J140000D01*
G01*
X186900000Y-175710000D01*
G75*
G02*
X187040000Y-175570000I140000J0D01*
G01*
X187320000Y-175570000D01*
G75*
G02*
X187460000Y-175710000I0J-140000D01*
G01*
G37*
G36*
G01*
X188420000Y-175710000D02*
X188420000Y-176050000D01*
G75*
G02*
X188280000Y-176190000I-140000J0D01*
G01*
X188000000Y-176190000D01*
G75*
G02*
X187860000Y-176050000I0J140000D01*
G01*
X187860000Y-175710000D01*
G75*
G02*
X188000000Y-175570000I140000J0D01*
G01*
X188280000Y-175570000D01*
G75*
G02*
X188420000Y-175710000I0J-140000D01*
G01*
G37*
%TD*%
%TO.C,C525*%
G36*
G01*
X187860000Y-177900000D02*
X187860000Y-177560000D01*
G75*
G02*
X188000000Y-177420000I140000J0D01*
G01*
X188280000Y-177420000D01*
G75*
G02*
X188420000Y-177560000I0J-140000D01*
G01*
X188420000Y-177900000D01*
G75*
G02*
X188280000Y-178040000I-140000J0D01*
G01*
X188000000Y-178040000D01*
G75*
G02*
X187860000Y-177900000I0J140000D01*
G01*
G37*
G36*
G01*
X186900000Y-177900000D02*
X186900000Y-177560000D01*
G75*
G02*
X187040000Y-177420000I140000J0D01*
G01*
X187320000Y-177420000D01*
G75*
G02*
X187460000Y-177560000I0J-140000D01*
G01*
X187460000Y-177900000D01*
G75*
G02*
X187320000Y-178040000I-140000J0D01*
G01*
X187040000Y-178040000D01*
G75*
G02*
X186900000Y-177900000I0J140000D01*
G01*
G37*
%TD*%
%TO.C,C516*%
G36*
G01*
X187860000Y-176980000D02*
X187860000Y-176640000D01*
G75*
G02*
X188000000Y-176500000I140000J0D01*
G01*
X188280000Y-176500000D01*
G75*
G02*
X188420000Y-176640000I0J-140000D01*
G01*
X188420000Y-176980000D01*
G75*
G02*
X188280000Y-177120000I-140000J0D01*
G01*
X188000000Y-177120000D01*
G75*
G02*
X187860000Y-176980000I0J140000D01*
G01*
G37*
G36*
G01*
X186900000Y-176980000D02*
X186900000Y-176640000D01*
G75*
G02*
X187040000Y-176500000I140000J0D01*
G01*
X187320000Y-176500000D01*
G75*
G02*
X187460000Y-176640000I0J-140000D01*
G01*
X187460000Y-176980000D01*
G75*
G02*
X187320000Y-177120000I-140000J0D01*
G01*
X187040000Y-177120000D01*
G75*
G02*
X186900000Y-176980000I0J140000D01*
G01*
G37*
%TD*%
%TO.C,C514*%
G36*
G01*
X185830000Y-179640000D02*
X185830000Y-179980000D01*
G75*
G02*
X185690000Y-180120000I-140000J0D01*
G01*
X185410000Y-180120000D01*
G75*
G02*
X185270000Y-179980000I0J140000D01*
G01*
X185270000Y-179640000D01*
G75*
G02*
X185410000Y-179500000I140000J0D01*
G01*
X185690000Y-179500000D01*
G75*
G02*
X185830000Y-179640000I0J-140000D01*
G01*
G37*
G36*
G01*
X186790000Y-179640000D02*
X186790000Y-179980000D01*
G75*
G02*
X186650000Y-180120000I-140000J0D01*
G01*
X186370000Y-180120000D01*
G75*
G02*
X186230000Y-179980000I0J140000D01*
G01*
X186230000Y-179640000D01*
G75*
G02*
X186370000Y-179500000I140000J0D01*
G01*
X186650000Y-179500000D01*
G75*
G02*
X186790000Y-179640000I0J-140000D01*
G01*
G37*
%TD*%
%TO.C,C530*%
G36*
G01*
X189148371Y-174551213D02*
X189388787Y-174791629D01*
G75*
G02*
X189388787Y-174989619I-98995J-98995D01*
G01*
X189190797Y-175187609D01*
G75*
G02*
X188992807Y-175187609I-98995J98995D01*
G01*
X188752391Y-174947193D01*
G75*
G02*
X188752391Y-174749203I98995J98995D01*
G01*
X188950381Y-174551213D01*
G75*
G02*
X189148371Y-174551213I98995J-98995D01*
G01*
G37*
G36*
G01*
X189827193Y-173872391D02*
X190067609Y-174112807D01*
G75*
G02*
X190067609Y-174310797I-98995J-98995D01*
G01*
X189869619Y-174508787D01*
G75*
G02*
X189671629Y-174508787I-98995J98995D01*
G01*
X189431213Y-174268371D01*
G75*
G02*
X189431213Y-174070381I98995J98995D01*
G01*
X189629203Y-173872391D01*
G75*
G02*
X189827193Y-173872391I98995J-98995D01*
G01*
G37*
%TD*%
%TO.C,C523*%
G36*
G01*
X190820000Y-176370000D02*
X190820000Y-176030000D01*
G75*
G02*
X190960000Y-175890000I140000J0D01*
G01*
X191240000Y-175890000D01*
G75*
G02*
X191380000Y-176030000I0J-140000D01*
G01*
X191380000Y-176370000D01*
G75*
G02*
X191240000Y-176510000I-140000J0D01*
G01*
X190960000Y-176510000D01*
G75*
G02*
X190820000Y-176370000I0J140000D01*
G01*
G37*
G36*
G01*
X191780000Y-176370000D02*
X191780000Y-176030000D01*
G75*
G02*
X191920000Y-175890000I140000J0D01*
G01*
X192200000Y-175890000D01*
G75*
G02*
X192340000Y-176030000I0J-140000D01*
G01*
X192340000Y-176370000D01*
G75*
G02*
X192200000Y-176510000I-140000J0D01*
G01*
X191920000Y-176510000D01*
G75*
G02*
X191780000Y-176370000I0J140000D01*
G01*
G37*
%TD*%
%TO.C,C522*%
G36*
G01*
X188498371Y-173901213D02*
X188738787Y-174141629D01*
G75*
G02*
X188738787Y-174339619I-98995J-98995D01*
G01*
X188540797Y-174537609D01*
G75*
G02*
X188342807Y-174537609I-98995J98995D01*
G01*
X188102391Y-174297193D01*
G75*
G02*
X188102391Y-174099203I98995J98995D01*
G01*
X188300381Y-173901213D01*
G75*
G02*
X188498371Y-173901213I98995J-98995D01*
G01*
G37*
G36*
G01*
X189177193Y-173222391D02*
X189417609Y-173462807D01*
G75*
G02*
X189417609Y-173660797I-98995J-98995D01*
G01*
X189219619Y-173858787D01*
G75*
G02*
X189021629Y-173858787I-98995J98995D01*
G01*
X188781213Y-173618371D01*
G75*
G02*
X188781213Y-173420381I98995J98995D01*
G01*
X188979203Y-173222391D01*
G75*
G02*
X189177193Y-173222391I98995J-98995D01*
G01*
G37*
%TD*%
%TO.C,C512*%
G36*
G01*
X190311629Y-172568787D02*
X190071213Y-172328371D01*
G75*
G02*
X190071213Y-172130381I98995J98995D01*
G01*
X190269203Y-171932391D01*
G75*
G02*
X190467193Y-171932391I98995J-98995D01*
G01*
X190707609Y-172172807D01*
G75*
G02*
X190707609Y-172370797I-98995J-98995D01*
G01*
X190509619Y-172568787D01*
G75*
G02*
X190311629Y-172568787I-98995J98995D01*
G01*
G37*
G36*
G01*
X189632807Y-173247609D02*
X189392391Y-173007193D01*
G75*
G02*
X189392391Y-172809203I98995J98995D01*
G01*
X189590381Y-172611213D01*
G75*
G02*
X189788371Y-172611213I98995J-98995D01*
G01*
X190028787Y-172851629D01*
G75*
G02*
X190028787Y-173049619I-98995J-98995D01*
G01*
X189830797Y-173247609D01*
G75*
G02*
X189632807Y-173247609I-98995J98995D01*
G01*
G37*
%TD*%
%TO.C,C511*%
G36*
G01*
X190290000Y-170970000D02*
X189950000Y-170970000D01*
G75*
G02*
X189810000Y-170830000I0J140000D01*
G01*
X189810000Y-170550000D01*
G75*
G02*
X189950000Y-170410000I140000J0D01*
G01*
X190290000Y-170410000D01*
G75*
G02*
X190430000Y-170550000I0J-140000D01*
G01*
X190430000Y-170830000D01*
G75*
G02*
X190290000Y-170970000I-140000J0D01*
G01*
G37*
G36*
G01*
X190290000Y-170010000D02*
X189950000Y-170010000D01*
G75*
G02*
X189810000Y-169870000I0J140000D01*
G01*
X189810000Y-169590000D01*
G75*
G02*
X189950000Y-169450000I140000J0D01*
G01*
X190290000Y-169450000D01*
G75*
G02*
X190430000Y-169590000I0J-140000D01*
G01*
X190430000Y-169870000D01*
G75*
G02*
X190290000Y-170010000I-140000J0D01*
G01*
G37*
%TD*%
%TO.C,C506*%
G36*
G01*
X189120000Y-170000000D02*
X188780000Y-170000000D01*
G75*
G02*
X188640000Y-169860000I0J140000D01*
G01*
X188640000Y-169580000D01*
G75*
G02*
X188780000Y-169440000I140000J0D01*
G01*
X189120000Y-169440000D01*
G75*
G02*
X189260000Y-169580000I0J-140000D01*
G01*
X189260000Y-169860000D01*
G75*
G02*
X189120000Y-170000000I-140000J0D01*
G01*
G37*
G36*
G01*
X189120000Y-169040000D02*
X188780000Y-169040000D01*
G75*
G02*
X188640000Y-168900000I0J140000D01*
G01*
X188640000Y-168620000D01*
G75*
G02*
X188780000Y-168480000I140000J0D01*
G01*
X189120000Y-168480000D01*
G75*
G02*
X189260000Y-168620000I0J-140000D01*
G01*
X189260000Y-168900000D01*
G75*
G02*
X189120000Y-169040000I-140000J0D01*
G01*
G37*
%TD*%
%TO.C,C505*%
G36*
G01*
X190961629Y-173218787D02*
X190721213Y-172978371D01*
G75*
G02*
X190721213Y-172780381I98995J98995D01*
G01*
X190919203Y-172582391D01*
G75*
G02*
X191117193Y-172582391I98995J-98995D01*
G01*
X191357609Y-172822807D01*
G75*
G02*
X191357609Y-173020797I-98995J-98995D01*
G01*
X191159619Y-173218787D01*
G75*
G02*
X190961629Y-173218787I-98995J98995D01*
G01*
G37*
G36*
G01*
X190282807Y-173897609D02*
X190042391Y-173657193D01*
G75*
G02*
X190042391Y-173459203I98995J98995D01*
G01*
X190240381Y-173261213D01*
G75*
G02*
X190438371Y-173261213I98995J-98995D01*
G01*
X190678787Y-173501629D01*
G75*
G02*
X190678787Y-173699619I-98995J-98995D01*
G01*
X190480797Y-173897609D01*
G75*
G02*
X190282807Y-173897609I-98995J98995D01*
G01*
G37*
%TD*%
D14*
%TO.C,TP309*%
X219090000Y-176990000D03*
%TD*%
%TO.C,TP308*%
X233690500Y-182983000D03*
%TD*%
%TO.C,TP307*%
X231849000Y-181078000D03*
%TD*%
%TO.C,TP306*%
X223848000Y-179871500D03*
%TD*%
%TO.C,TP305*%
X224483000Y-178411000D03*
%TD*%
%TO.C,TP304*%
X224390000Y-173570000D03*
%TD*%
%TO.C,TP302*%
X230134500Y-172188000D03*
%TD*%
%TO.C,L501*%
G36*
G01*
X187622843Y-170190761D02*
X186420761Y-171392843D01*
G75*
G02*
X186067207Y-171392843I-176777J176777D01*
G01*
X185536877Y-170862513D01*
G75*
G02*
X185536877Y-170508959I176777J176777D01*
G01*
X186738959Y-169306877D01*
G75*
G02*
X187092513Y-169306877I176777J-176777D01*
G01*
X187622843Y-169837207D01*
G75*
G02*
X187622843Y-170190761I-176777J-176777D01*
G01*
G37*
G36*
G01*
X189143123Y-171711041D02*
X187941041Y-172913123D01*
G75*
G02*
X187587487Y-172913123I-176777J176777D01*
G01*
X187057157Y-172382793D01*
G75*
G02*
X187057157Y-172029239I176777J176777D01*
G01*
X188259239Y-170827157D01*
G75*
G02*
X188612793Y-170827157I176777J-176777D01*
G01*
X189143123Y-171357487D01*
G75*
G02*
X189143123Y-171711041I-176777J-176777D01*
G01*
G37*
%TD*%
%TO.C,C331*%
G36*
G01*
X222934286Y-174385372D02*
X222693870Y-174625788D01*
G75*
G02*
X222495880Y-174625788I-98995J98995D01*
G01*
X222297890Y-174427798D01*
G75*
G02*
X222297890Y-174229808I98995J98995D01*
G01*
X222538306Y-173989392D01*
G75*
G02*
X222736296Y-173989392I98995J-98995D01*
G01*
X222934286Y-174187382D01*
G75*
G02*
X222934286Y-174385372I-98995J-98995D01*
G01*
G37*
G36*
G01*
X223613108Y-175064194D02*
X223372692Y-175304610D01*
G75*
G02*
X223174702Y-175304610I-98995J98995D01*
G01*
X222976712Y-175106620D01*
G75*
G02*
X222976712Y-174908630I98995J98995D01*
G01*
X223217128Y-174668214D01*
G75*
G02*
X223415118Y-174668214I98995J-98995D01*
G01*
X223613108Y-174866204D01*
G75*
G02*
X223613108Y-175064194I-98995J-98995D01*
G01*
G37*
%TD*%
%TO.C,C317*%
G36*
G01*
X222283748Y-175035910D02*
X222043332Y-175276326D01*
G75*
G02*
X221845342Y-175276326I-98995J98995D01*
G01*
X221647352Y-175078336D01*
G75*
G02*
X221647352Y-174880346I98995J98995D01*
G01*
X221887768Y-174639930D01*
G75*
G02*
X222085758Y-174639930I98995J-98995D01*
G01*
X222283748Y-174837920D01*
G75*
G02*
X222283748Y-175035910I-98995J-98995D01*
G01*
G37*
G36*
G01*
X222962570Y-175714732D02*
X222722154Y-175955148D01*
G75*
G02*
X222524164Y-175955148I-98995J98995D01*
G01*
X222326174Y-175757158D01*
G75*
G02*
X222326174Y-175559168I98995J98995D01*
G01*
X222566590Y-175318752D01*
G75*
G02*
X222764580Y-175318752I98995J-98995D01*
G01*
X222962570Y-175516742D01*
G75*
G02*
X222962570Y-175714732I-98995J-98995D01*
G01*
G37*
%TD*%
%TO.C,C328*%
G36*
G01*
X219940000Y-172560000D02*
X219600000Y-172560000D01*
G75*
G02*
X219460000Y-172420000I0J140000D01*
G01*
X219460000Y-172140000D01*
G75*
G02*
X219600000Y-172000000I140000J0D01*
G01*
X219940000Y-172000000D01*
G75*
G02*
X220080000Y-172140000I0J-140000D01*
G01*
X220080000Y-172420000D01*
G75*
G02*
X219940000Y-172560000I-140000J0D01*
G01*
G37*
G36*
G01*
X219940000Y-173520000D02*
X219600000Y-173520000D01*
G75*
G02*
X219460000Y-173380000I0J140000D01*
G01*
X219460000Y-173100000D01*
G75*
G02*
X219600000Y-172960000I140000J0D01*
G01*
X219940000Y-172960000D01*
G75*
G02*
X220080000Y-173100000I0J-140000D01*
G01*
X220080000Y-173380000D01*
G75*
G02*
X219940000Y-173520000I-140000J0D01*
G01*
G37*
%TD*%
%TO.C,C323*%
G36*
G01*
X221170000Y-173100000D02*
X220830000Y-173100000D01*
G75*
G02*
X220690000Y-172960000I0J140000D01*
G01*
X220690000Y-172680000D01*
G75*
G02*
X220830000Y-172540000I140000J0D01*
G01*
X221170000Y-172540000D01*
G75*
G02*
X221310000Y-172680000I0J-140000D01*
G01*
X221310000Y-172960000D01*
G75*
G02*
X221170000Y-173100000I-140000J0D01*
G01*
G37*
G36*
G01*
X221170000Y-174060000D02*
X220830000Y-174060000D01*
G75*
G02*
X220690000Y-173920000I0J140000D01*
G01*
X220690000Y-173640000D01*
G75*
G02*
X220830000Y-173500000I140000J0D01*
G01*
X221170000Y-173500000D01*
G75*
G02*
X221310000Y-173640000I0J-140000D01*
G01*
X221310000Y-173920000D01*
G75*
G02*
X221170000Y-174060000I-140000J0D01*
G01*
G37*
%TD*%
%TO.C,C311*%
G36*
G01*
X216850000Y-175270000D02*
X216850000Y-175610000D01*
G75*
G02*
X216710000Y-175750000I-140000J0D01*
G01*
X216430000Y-175750000D01*
G75*
G02*
X216290000Y-175610000I0J140000D01*
G01*
X216290000Y-175270000D01*
G75*
G02*
X216430000Y-175130000I140000J0D01*
G01*
X216710000Y-175130000D01*
G75*
G02*
X216850000Y-175270000I0J-140000D01*
G01*
G37*
G36*
G01*
X217810000Y-175270000D02*
X217810000Y-175610000D01*
G75*
G02*
X217670000Y-175750000I-140000J0D01*
G01*
X217390000Y-175750000D01*
G75*
G02*
X217250000Y-175610000I0J140000D01*
G01*
X217250000Y-175270000D01*
G75*
G02*
X217390000Y-175130000I140000J0D01*
G01*
X217670000Y-175130000D01*
G75*
G02*
X217810000Y-175270000I0J-140000D01*
G01*
G37*
%TD*%
%TO.C,C306*%
G36*
G01*
X221221629Y-177018787D02*
X220981213Y-176778371D01*
G75*
G02*
X220981213Y-176580381I98995J98995D01*
G01*
X221179203Y-176382391D01*
G75*
G02*
X221377193Y-176382391I98995J-98995D01*
G01*
X221617609Y-176622807D01*
G75*
G02*
X221617609Y-176820797I-98995J-98995D01*
G01*
X221419619Y-177018787D01*
G75*
G02*
X221221629Y-177018787I-98995J98995D01*
G01*
G37*
G36*
G01*
X220542807Y-177697609D02*
X220302391Y-177457193D01*
G75*
G02*
X220302391Y-177259203I98995J98995D01*
G01*
X220500381Y-177061213D01*
G75*
G02*
X220698371Y-177061213I98995J-98995D01*
G01*
X220938787Y-177301629D01*
G75*
G02*
X220938787Y-177499619I-98995J-98995D01*
G01*
X220740797Y-177697609D01*
G75*
G02*
X220542807Y-177697609I-98995J98995D01*
G01*
G37*
%TD*%
%TO.C,C325*%
G36*
G01*
X222803826Y-178040832D02*
X222563410Y-178281248D01*
G75*
G02*
X222365420Y-178281248I-98995J98995D01*
G01*
X222167430Y-178083258D01*
G75*
G02*
X222167430Y-177885268I98995J98995D01*
G01*
X222407846Y-177644852D01*
G75*
G02*
X222605836Y-177644852I98995J-98995D01*
G01*
X222803826Y-177842842D01*
G75*
G02*
X222803826Y-178040832I-98995J-98995D01*
G01*
G37*
G36*
G01*
X223482648Y-178719654D02*
X223242232Y-178960070D01*
G75*
G02*
X223044242Y-178960070I-98995J98995D01*
G01*
X222846252Y-178762080D01*
G75*
G02*
X222846252Y-178564090I98995J98995D01*
G01*
X223086668Y-178323674D01*
G75*
G02*
X223284658Y-178323674I98995J-98995D01*
G01*
X223482648Y-178521664D01*
G75*
G02*
X223482648Y-178719654I-98995J-98995D01*
G01*
G37*
%TD*%
%TO.C,C316*%
G36*
G01*
X222153288Y-178691370D02*
X221912872Y-178931786D01*
G75*
G02*
X221714882Y-178931786I-98995J98995D01*
G01*
X221516892Y-178733796D01*
G75*
G02*
X221516892Y-178535806I98995J98995D01*
G01*
X221757308Y-178295390D01*
G75*
G02*
X221955298Y-178295390I98995J-98995D01*
G01*
X222153288Y-178493380D01*
G75*
G02*
X222153288Y-178691370I-98995J-98995D01*
G01*
G37*
G36*
G01*
X222832110Y-179370192D02*
X222591694Y-179610608D01*
G75*
G02*
X222393704Y-179610608I-98995J98995D01*
G01*
X222195714Y-179412618D01*
G75*
G02*
X222195714Y-179214628I98995J98995D01*
G01*
X222436130Y-178974212D01*
G75*
G02*
X222634120Y-178974212I98995J-98995D01*
G01*
X222832110Y-179172202D01*
G75*
G02*
X222832110Y-179370192I-98995J-98995D01*
G01*
G37*
%TD*%
%TO.C,C326*%
G36*
G01*
X226979168Y-178033826D02*
X226738752Y-177793410D01*
G75*
G02*
X226738752Y-177595420I98995J98995D01*
G01*
X226936742Y-177397430D01*
G75*
G02*
X227134732Y-177397430I98995J-98995D01*
G01*
X227375148Y-177637846D01*
G75*
G02*
X227375148Y-177835836I-98995J-98995D01*
G01*
X227177158Y-178033826D01*
G75*
G02*
X226979168Y-178033826I-98995J98995D01*
G01*
G37*
G36*
G01*
X226300346Y-178712648D02*
X226059930Y-178472232D01*
G75*
G02*
X226059930Y-178274242I98995J98995D01*
G01*
X226257920Y-178076252D01*
G75*
G02*
X226455910Y-178076252I98995J-98995D01*
G01*
X226696326Y-178316668D01*
G75*
G02*
X226696326Y-178514658I-98995J-98995D01*
G01*
X226498336Y-178712648D01*
G75*
G02*
X226300346Y-178712648I-98995J98995D01*
G01*
G37*
%TD*%
%TO.C,C314*%
G36*
G01*
X226328630Y-177383288D02*
X226088214Y-177142872D01*
G75*
G02*
X226088214Y-176944882I98995J98995D01*
G01*
X226286204Y-176746892D01*
G75*
G02*
X226484194Y-176746892I98995J-98995D01*
G01*
X226724610Y-176987308D01*
G75*
G02*
X226724610Y-177185298I-98995J-98995D01*
G01*
X226526620Y-177383288D01*
G75*
G02*
X226328630Y-177383288I-98995J98995D01*
G01*
G37*
G36*
G01*
X225649808Y-178062110D02*
X225409392Y-177821694D01*
G75*
G02*
X225409392Y-177623704I98995J98995D01*
G01*
X225607382Y-177425714D01*
G75*
G02*
X225805372Y-177425714I98995J-98995D01*
G01*
X226045788Y-177666130D01*
G75*
G02*
X226045788Y-177864120I-98995J-98995D01*
G01*
X225847798Y-178062110D01*
G75*
G02*
X225649808Y-178062110I-98995J98995D01*
G01*
G37*
%TD*%
%TO.C,C330*%
G36*
G01*
X219018787Y-173818371D02*
X218778371Y-174058787D01*
G75*
G02*
X218580381Y-174058787I-98995J98995D01*
G01*
X218382391Y-173860797D01*
G75*
G02*
X218382391Y-173662807I98995J98995D01*
G01*
X218622807Y-173422391D01*
G75*
G02*
X218820797Y-173422391I98995J-98995D01*
G01*
X219018787Y-173620381D01*
G75*
G02*
X219018787Y-173818371I-98995J-98995D01*
G01*
G37*
G36*
G01*
X219697609Y-174497193D02*
X219457193Y-174737609D01*
G75*
G02*
X219259203Y-174737609I-98995J98995D01*
G01*
X219061213Y-174539619D01*
G75*
G02*
X219061213Y-174341629I98995J98995D01*
G01*
X219301629Y-174101213D01*
G75*
G02*
X219499619Y-174101213I98995J-98995D01*
G01*
X219697609Y-174299203D01*
G75*
G02*
X219697609Y-174497193I-98995J-98995D01*
G01*
G37*
%TD*%
%TO.C,C322*%
G36*
G01*
X219701213Y-176271629D02*
X219941629Y-176031213D01*
G75*
G02*
X220139619Y-176031213I98995J-98995D01*
G01*
X220337609Y-176229203D01*
G75*
G02*
X220337609Y-176427193I-98995J-98995D01*
G01*
X220097193Y-176667609D01*
G75*
G02*
X219899203Y-176667609I-98995J98995D01*
G01*
X219701213Y-176469619D01*
G75*
G02*
X219701213Y-176271629I98995J98995D01*
G01*
G37*
G36*
G01*
X219022391Y-175592807D02*
X219262807Y-175352391D01*
G75*
G02*
X219460797Y-175352391I98995J-98995D01*
G01*
X219658787Y-175550381D01*
G75*
G02*
X219658787Y-175748371I-98995J-98995D01*
G01*
X219418371Y-175988787D01*
G75*
G02*
X219220381Y-175988787I-98995J98995D01*
G01*
X219022391Y-175790797D01*
G75*
G02*
X219022391Y-175592807I98995J98995D01*
G01*
G37*
%TD*%
%TO.C,C312*%
G36*
G01*
X218368787Y-174468371D02*
X218128371Y-174708787D01*
G75*
G02*
X217930381Y-174708787I-98995J98995D01*
G01*
X217732391Y-174510797D01*
G75*
G02*
X217732391Y-174312807I98995J98995D01*
G01*
X217972807Y-174072391D01*
G75*
G02*
X218170797Y-174072391I98995J-98995D01*
G01*
X218368787Y-174270381D01*
G75*
G02*
X218368787Y-174468371I-98995J-98995D01*
G01*
G37*
G36*
G01*
X219047609Y-175147193D02*
X218807193Y-175387609D01*
G75*
G02*
X218609203Y-175387609I-98995J98995D01*
G01*
X218411213Y-175189619D01*
G75*
G02*
X218411213Y-174991629I98995J98995D01*
G01*
X218651629Y-174751213D01*
G75*
G02*
X218849619Y-174751213I98995J-98995D01*
G01*
X219047609Y-174949203D01*
G75*
G02*
X219047609Y-175147193I-98995J-98995D01*
G01*
G37*
%TD*%
%TO.C,C305*%
G36*
G01*
X220351213Y-175621629D02*
X220591629Y-175381213D01*
G75*
G02*
X220789619Y-175381213I98995J-98995D01*
G01*
X220987609Y-175579203D01*
G75*
G02*
X220987609Y-175777193I-98995J-98995D01*
G01*
X220747193Y-176017609D01*
G75*
G02*
X220549203Y-176017609I-98995J98995D01*
G01*
X220351213Y-175819619D01*
G75*
G02*
X220351213Y-175621629I98995J98995D01*
G01*
G37*
G36*
G01*
X219672391Y-174942807D02*
X219912807Y-174702391D01*
G75*
G02*
X220110797Y-174702391I98995J-98995D01*
G01*
X220308787Y-174900381D01*
G75*
G02*
X220308787Y-175098371I-98995J-98995D01*
G01*
X220068371Y-175338787D01*
G75*
G02*
X219870381Y-175338787I-98995J98995D01*
G01*
X219672391Y-175140797D01*
G75*
G02*
X219672391Y-174942807I98995J98995D01*
G01*
G37*
%TD*%
%TO.C,C111*%
G36*
G01*
X181520000Y-94775000D02*
X181020000Y-94775000D01*
G75*
G02*
X180795000Y-94550000I0J225000D01*
G01*
X180795000Y-94100000D01*
G75*
G02*
X181020000Y-93875000I225000J0D01*
G01*
X181520000Y-93875000D01*
G75*
G02*
X181745000Y-94100000I0J-225000D01*
G01*
X181745000Y-94550000D01*
G75*
G02*
X181520000Y-94775000I-225000J0D01*
G01*
G37*
G36*
G01*
X181520000Y-96325000D02*
X181020000Y-96325000D01*
G75*
G02*
X180795000Y-96100000I0J225000D01*
G01*
X180795000Y-95650000D01*
G75*
G02*
X181020000Y-95425000I225000J0D01*
G01*
X181520000Y-95425000D01*
G75*
G02*
X181745000Y-95650000I0J-225000D01*
G01*
X181745000Y-96100000D01*
G75*
G02*
X181520000Y-96325000I-225000J0D01*
G01*
G37*
%TD*%
D26*
%TO.C,X101*%
X176200000Y-103700000D03*
X173660000Y-106240000D03*
X178740000Y-106240000D03*
X178740000Y-101160000D03*
X173660000Y-101160000D03*
%TD*%
D11*
%TO.C,JP105*%
G36*
X178910000Y-95180000D02*
G01*
X179410000Y-95180000D01*
X179410000Y-95180602D01*
X179434534Y-95180602D01*
X179483365Y-95185412D01*
X179531490Y-95194984D01*
X179578445Y-95209228D01*
X179623778Y-95228005D01*
X179667051Y-95251136D01*
X179707850Y-95278396D01*
X179745779Y-95309524D01*
X179780476Y-95344221D01*
X179811604Y-95382150D01*
X179838864Y-95422949D01*
X179861995Y-95466222D01*
X179880772Y-95511555D01*
X179895016Y-95558510D01*
X179904588Y-95606635D01*
X179909398Y-95655466D01*
X179909398Y-95680000D01*
X179910000Y-95680000D01*
X179910000Y-96180000D01*
X179909398Y-96180000D01*
X179909398Y-96204534D01*
X179904588Y-96253365D01*
X179895016Y-96301490D01*
X179880772Y-96348445D01*
X179861995Y-96393778D01*
X179838864Y-96437051D01*
X179811604Y-96477850D01*
X179780476Y-96515779D01*
X179745779Y-96550476D01*
X179707850Y-96581604D01*
X179667051Y-96608864D01*
X179623778Y-96631995D01*
X179578445Y-96650772D01*
X179531490Y-96665016D01*
X179483365Y-96674588D01*
X179434534Y-96679398D01*
X179410000Y-96679398D01*
X179410000Y-96680000D01*
X178910000Y-96680000D01*
X178910000Y-95180000D01*
G37*
G36*
X178110000Y-96679398D02*
G01*
X178085466Y-96679398D01*
X178036635Y-96674588D01*
X177988510Y-96665016D01*
X177941555Y-96650772D01*
X177896222Y-96631995D01*
X177852949Y-96608864D01*
X177812150Y-96581604D01*
X177774221Y-96550476D01*
X177739524Y-96515779D01*
X177708396Y-96477850D01*
X177681136Y-96437051D01*
X177658005Y-96393778D01*
X177639228Y-96348445D01*
X177624984Y-96301490D01*
X177615412Y-96253365D01*
X177610602Y-96204534D01*
X177610602Y-96180000D01*
X177610000Y-96180000D01*
X177610000Y-95680000D01*
X177610602Y-95680000D01*
X177610602Y-95655466D01*
X177615412Y-95606635D01*
X177624984Y-95558510D01*
X177639228Y-95511555D01*
X177658005Y-95466222D01*
X177681136Y-95422949D01*
X177708396Y-95382150D01*
X177739524Y-95344221D01*
X177774221Y-95309524D01*
X177812150Y-95278396D01*
X177852949Y-95251136D01*
X177896222Y-95228005D01*
X177941555Y-95209228D01*
X177988510Y-95194984D01*
X178036635Y-95185412D01*
X178085466Y-95180602D01*
X178110000Y-95180602D01*
X178110000Y-95180000D01*
X178610000Y-95180000D01*
X178610000Y-96680000D01*
X178110000Y-96680000D01*
X178110000Y-96679398D01*
G37*
%TD*%
%TO.C,R207*%
G36*
G01*
X223050000Y-127200000D02*
X223050000Y-126650000D01*
G75*
G02*
X223250000Y-126450000I200000J0D01*
G01*
X223650000Y-126450000D01*
G75*
G02*
X223850000Y-126650000I0J-200000D01*
G01*
X223850000Y-127200000D01*
G75*
G02*
X223650000Y-127400000I-200000J0D01*
G01*
X223250000Y-127400000D01*
G75*
G02*
X223050000Y-127200000I0J200000D01*
G01*
G37*
G36*
G01*
X224700000Y-127200000D02*
X224700000Y-126650000D01*
G75*
G02*
X224900000Y-126450000I200000J0D01*
G01*
X225300000Y-126450000D01*
G75*
G02*
X225500000Y-126650000I0J-200000D01*
G01*
X225500000Y-127200000D01*
G75*
G02*
X225300000Y-127400000I-200000J0D01*
G01*
X224900000Y-127400000D01*
G75*
G02*
X224700000Y-127200000I0J200000D01*
G01*
G37*
G36*
G01*
X226350000Y-127194920D02*
X226350000Y-126644920D01*
G75*
G02*
X226550000Y-126444920I200000J0D01*
G01*
X226950000Y-126444920D01*
G75*
G02*
X227150000Y-126644920I0J-200000D01*
G01*
X227150000Y-127194920D01*
G75*
G02*
X226950000Y-127394920I-200000J0D01*
G01*
X226550000Y-127394920D01*
G75*
G02*
X226350000Y-127194920I0J200000D01*
G01*
G37*
%TD*%
%TO.C,R220*%
G36*
G01*
X226350000Y-108994920D02*
X226350000Y-108444920D01*
G75*
G02*
X226550000Y-108244920I200000J0D01*
G01*
X226950000Y-108244920D01*
G75*
G02*
X227150000Y-108444920I0J-200000D01*
G01*
X227150000Y-108994920D01*
G75*
G02*
X226950000Y-109194920I-200000J0D01*
G01*
X226550000Y-109194920D01*
G75*
G02*
X226350000Y-108994920I0J200000D01*
G01*
G37*
G36*
G01*
X224700000Y-109000000D02*
X224700000Y-108450000D01*
G75*
G02*
X224900000Y-108250000I200000J0D01*
G01*
X225300000Y-108250000D01*
G75*
G02*
X225500000Y-108450000I0J-200000D01*
G01*
X225500000Y-109000000D01*
G75*
G02*
X225300000Y-109200000I-200000J0D01*
G01*
X224900000Y-109200000D01*
G75*
G02*
X224700000Y-109000000I0J200000D01*
G01*
G37*
G36*
G01*
X223050000Y-109000000D02*
X223050000Y-108450000D01*
G75*
G02*
X223250000Y-108250000I200000J0D01*
G01*
X223650000Y-108250000D01*
G75*
G02*
X223850000Y-108450000I0J-200000D01*
G01*
X223850000Y-109000000D01*
G75*
G02*
X223650000Y-109200000I-200000J0D01*
G01*
X223250000Y-109200000D01*
G75*
G02*
X223050000Y-109000000I0J200000D01*
G01*
G37*
%TD*%
%TO.C,R219*%
G36*
G01*
X223050000Y-110400000D02*
X223050000Y-109850000D01*
G75*
G02*
X223250000Y-109650000I200000J0D01*
G01*
X223650000Y-109650000D01*
G75*
G02*
X223850000Y-109850000I0J-200000D01*
G01*
X223850000Y-110400000D01*
G75*
G02*
X223650000Y-110600000I-200000J0D01*
G01*
X223250000Y-110600000D01*
G75*
G02*
X223050000Y-110400000I0J200000D01*
G01*
G37*
G36*
G01*
X224700000Y-110400000D02*
X224700000Y-109850000D01*
G75*
G02*
X224900000Y-109650000I200000J0D01*
G01*
X225300000Y-109650000D01*
G75*
G02*
X225500000Y-109850000I0J-200000D01*
G01*
X225500000Y-110400000D01*
G75*
G02*
X225300000Y-110600000I-200000J0D01*
G01*
X224900000Y-110600000D01*
G75*
G02*
X224700000Y-110400000I0J200000D01*
G01*
G37*
G36*
G01*
X226350000Y-110394920D02*
X226350000Y-109844920D01*
G75*
G02*
X226550000Y-109644920I200000J0D01*
G01*
X226950000Y-109644920D01*
G75*
G02*
X227150000Y-109844920I0J-200000D01*
G01*
X227150000Y-110394920D01*
G75*
G02*
X226950000Y-110594920I-200000J0D01*
G01*
X226550000Y-110594920D01*
G75*
G02*
X226350000Y-110394920I0J200000D01*
G01*
G37*
%TD*%
%TO.C,R218*%
G36*
G01*
X226350000Y-111794920D02*
X226350000Y-111244920D01*
G75*
G02*
X226550000Y-111044920I200000J0D01*
G01*
X226950000Y-111044920D01*
G75*
G02*
X227150000Y-111244920I0J-200000D01*
G01*
X227150000Y-111794920D01*
G75*
G02*
X226950000Y-111994920I-200000J0D01*
G01*
X226550000Y-111994920D01*
G75*
G02*
X226350000Y-111794920I0J200000D01*
G01*
G37*
G36*
G01*
X224700000Y-111800000D02*
X224700000Y-111250000D01*
G75*
G02*
X224900000Y-111050000I200000J0D01*
G01*
X225300000Y-111050000D01*
G75*
G02*
X225500000Y-111250000I0J-200000D01*
G01*
X225500000Y-111800000D01*
G75*
G02*
X225300000Y-112000000I-200000J0D01*
G01*
X224900000Y-112000000D01*
G75*
G02*
X224700000Y-111800000I0J200000D01*
G01*
G37*
G36*
G01*
X223050000Y-111800000D02*
X223050000Y-111250000D01*
G75*
G02*
X223250000Y-111050000I200000J0D01*
G01*
X223650000Y-111050000D01*
G75*
G02*
X223850000Y-111250000I0J-200000D01*
G01*
X223850000Y-111800000D01*
G75*
G02*
X223650000Y-112000000I-200000J0D01*
G01*
X223250000Y-112000000D01*
G75*
G02*
X223050000Y-111800000I0J200000D01*
G01*
G37*
%TD*%
%TO.C,R217*%
G36*
G01*
X226350000Y-113194920D02*
X226350000Y-112644920D01*
G75*
G02*
X226550000Y-112444920I200000J0D01*
G01*
X226950000Y-112444920D01*
G75*
G02*
X227150000Y-112644920I0J-200000D01*
G01*
X227150000Y-113194920D01*
G75*
G02*
X226950000Y-113394920I-200000J0D01*
G01*
X226550000Y-113394920D01*
G75*
G02*
X226350000Y-113194920I0J200000D01*
G01*
G37*
G36*
G01*
X224700000Y-113200000D02*
X224700000Y-112650000D01*
G75*
G02*
X224900000Y-112450000I200000J0D01*
G01*
X225300000Y-112450000D01*
G75*
G02*
X225500000Y-112650000I0J-200000D01*
G01*
X225500000Y-113200000D01*
G75*
G02*
X225300000Y-113400000I-200000J0D01*
G01*
X224900000Y-113400000D01*
G75*
G02*
X224700000Y-113200000I0J200000D01*
G01*
G37*
G36*
G01*
X223050000Y-113200000D02*
X223050000Y-112650000D01*
G75*
G02*
X223250000Y-112450000I200000J0D01*
G01*
X223650000Y-112450000D01*
G75*
G02*
X223850000Y-112650000I0J-200000D01*
G01*
X223850000Y-113200000D01*
G75*
G02*
X223650000Y-113400000I-200000J0D01*
G01*
X223250000Y-113400000D01*
G75*
G02*
X223050000Y-113200000I0J200000D01*
G01*
G37*
%TD*%
%TO.C,R216*%
G36*
G01*
X226350000Y-114594920D02*
X226350000Y-114044920D01*
G75*
G02*
X226550000Y-113844920I200000J0D01*
G01*
X226950000Y-113844920D01*
G75*
G02*
X227150000Y-114044920I0J-200000D01*
G01*
X227150000Y-114594920D01*
G75*
G02*
X226950000Y-114794920I-200000J0D01*
G01*
X226550000Y-114794920D01*
G75*
G02*
X226350000Y-114594920I0J200000D01*
G01*
G37*
G36*
G01*
X224700000Y-114600000D02*
X224700000Y-114050000D01*
G75*
G02*
X224900000Y-113850000I200000J0D01*
G01*
X225300000Y-113850000D01*
G75*
G02*
X225500000Y-114050000I0J-200000D01*
G01*
X225500000Y-114600000D01*
G75*
G02*
X225300000Y-114800000I-200000J0D01*
G01*
X224900000Y-114800000D01*
G75*
G02*
X224700000Y-114600000I0J200000D01*
G01*
G37*
G36*
G01*
X223050000Y-114600000D02*
X223050000Y-114050000D01*
G75*
G02*
X223250000Y-113850000I200000J0D01*
G01*
X223650000Y-113850000D01*
G75*
G02*
X223850000Y-114050000I0J-200000D01*
G01*
X223850000Y-114600000D01*
G75*
G02*
X223650000Y-114800000I-200000J0D01*
G01*
X223250000Y-114800000D01*
G75*
G02*
X223050000Y-114600000I0J200000D01*
G01*
G37*
%TD*%
%TO.C,R215*%
G36*
G01*
X226350000Y-115994920D02*
X226350000Y-115444920D01*
G75*
G02*
X226550000Y-115244920I200000J0D01*
G01*
X226950000Y-115244920D01*
G75*
G02*
X227150000Y-115444920I0J-200000D01*
G01*
X227150000Y-115994920D01*
G75*
G02*
X226950000Y-116194920I-200000J0D01*
G01*
X226550000Y-116194920D01*
G75*
G02*
X226350000Y-115994920I0J200000D01*
G01*
G37*
G36*
G01*
X224700000Y-116000000D02*
X224700000Y-115450000D01*
G75*
G02*
X224900000Y-115250000I200000J0D01*
G01*
X225300000Y-115250000D01*
G75*
G02*
X225500000Y-115450000I0J-200000D01*
G01*
X225500000Y-116000000D01*
G75*
G02*
X225300000Y-116200000I-200000J0D01*
G01*
X224900000Y-116200000D01*
G75*
G02*
X224700000Y-116000000I0J200000D01*
G01*
G37*
G36*
G01*
X223050000Y-116000000D02*
X223050000Y-115450000D01*
G75*
G02*
X223250000Y-115250000I200000J0D01*
G01*
X223650000Y-115250000D01*
G75*
G02*
X223850000Y-115450000I0J-200000D01*
G01*
X223850000Y-116000000D01*
G75*
G02*
X223650000Y-116200000I-200000J0D01*
G01*
X223250000Y-116200000D01*
G75*
G02*
X223050000Y-116000000I0J200000D01*
G01*
G37*
%TD*%
%TO.C,R214*%
G36*
G01*
X226350000Y-117394920D02*
X226350000Y-116844920D01*
G75*
G02*
X226550000Y-116644920I200000J0D01*
G01*
X226950000Y-116644920D01*
G75*
G02*
X227150000Y-116844920I0J-200000D01*
G01*
X227150000Y-117394920D01*
G75*
G02*
X226950000Y-117594920I-200000J0D01*
G01*
X226550000Y-117594920D01*
G75*
G02*
X226350000Y-117394920I0J200000D01*
G01*
G37*
G36*
G01*
X224700000Y-117400000D02*
X224700000Y-116850000D01*
G75*
G02*
X224900000Y-116650000I200000J0D01*
G01*
X225300000Y-116650000D01*
G75*
G02*
X225500000Y-116850000I0J-200000D01*
G01*
X225500000Y-117400000D01*
G75*
G02*
X225300000Y-117600000I-200000J0D01*
G01*
X224900000Y-117600000D01*
G75*
G02*
X224700000Y-117400000I0J200000D01*
G01*
G37*
G36*
G01*
X223050000Y-117400000D02*
X223050000Y-116850000D01*
G75*
G02*
X223250000Y-116650000I200000J0D01*
G01*
X223650000Y-116650000D01*
G75*
G02*
X223850000Y-116850000I0J-200000D01*
G01*
X223850000Y-117400000D01*
G75*
G02*
X223650000Y-117600000I-200000J0D01*
G01*
X223250000Y-117600000D01*
G75*
G02*
X223050000Y-117400000I0J200000D01*
G01*
G37*
%TD*%
%TO.C,R213*%
G36*
G01*
X226350000Y-118794920D02*
X226350000Y-118244920D01*
G75*
G02*
X226550000Y-118044920I200000J0D01*
G01*
X226950000Y-118044920D01*
G75*
G02*
X227150000Y-118244920I0J-200000D01*
G01*
X227150000Y-118794920D01*
G75*
G02*
X226950000Y-118994920I-200000J0D01*
G01*
X226550000Y-118994920D01*
G75*
G02*
X226350000Y-118794920I0J200000D01*
G01*
G37*
G36*
G01*
X224700000Y-118800000D02*
X224700000Y-118250000D01*
G75*
G02*
X224900000Y-118050000I200000J0D01*
G01*
X225300000Y-118050000D01*
G75*
G02*
X225500000Y-118250000I0J-200000D01*
G01*
X225500000Y-118800000D01*
G75*
G02*
X225300000Y-119000000I-200000J0D01*
G01*
X224900000Y-119000000D01*
G75*
G02*
X224700000Y-118800000I0J200000D01*
G01*
G37*
G36*
G01*
X223050000Y-118800000D02*
X223050000Y-118250000D01*
G75*
G02*
X223250000Y-118050000I200000J0D01*
G01*
X223650000Y-118050000D01*
G75*
G02*
X223850000Y-118250000I0J-200000D01*
G01*
X223850000Y-118800000D01*
G75*
G02*
X223650000Y-119000000I-200000J0D01*
G01*
X223250000Y-119000000D01*
G75*
G02*
X223050000Y-118800000I0J200000D01*
G01*
G37*
%TD*%
%TO.C,R212*%
G36*
G01*
X226350000Y-120194920D02*
X226350000Y-119644920D01*
G75*
G02*
X226550000Y-119444920I200000J0D01*
G01*
X226950000Y-119444920D01*
G75*
G02*
X227150000Y-119644920I0J-200000D01*
G01*
X227150000Y-120194920D01*
G75*
G02*
X226950000Y-120394920I-200000J0D01*
G01*
X226550000Y-120394920D01*
G75*
G02*
X226350000Y-120194920I0J200000D01*
G01*
G37*
G36*
G01*
X224700000Y-120200000D02*
X224700000Y-119650000D01*
G75*
G02*
X224900000Y-119450000I200000J0D01*
G01*
X225300000Y-119450000D01*
G75*
G02*
X225500000Y-119650000I0J-200000D01*
G01*
X225500000Y-120200000D01*
G75*
G02*
X225300000Y-120400000I-200000J0D01*
G01*
X224900000Y-120400000D01*
G75*
G02*
X224700000Y-120200000I0J200000D01*
G01*
G37*
G36*
G01*
X223050000Y-120200000D02*
X223050000Y-119650000D01*
G75*
G02*
X223250000Y-119450000I200000J0D01*
G01*
X223650000Y-119450000D01*
G75*
G02*
X223850000Y-119650000I0J-200000D01*
G01*
X223850000Y-120200000D01*
G75*
G02*
X223650000Y-120400000I-200000J0D01*
G01*
X223250000Y-120400000D01*
G75*
G02*
X223050000Y-120200000I0J200000D01*
G01*
G37*
%TD*%
%TO.C,R211*%
G36*
G01*
X226350000Y-121594920D02*
X226350000Y-121044920D01*
G75*
G02*
X226550000Y-120844920I200000J0D01*
G01*
X226950000Y-120844920D01*
G75*
G02*
X227150000Y-121044920I0J-200000D01*
G01*
X227150000Y-121594920D01*
G75*
G02*
X226950000Y-121794920I-200000J0D01*
G01*
X226550000Y-121794920D01*
G75*
G02*
X226350000Y-121594920I0J200000D01*
G01*
G37*
G36*
G01*
X224700000Y-121600000D02*
X224700000Y-121050000D01*
G75*
G02*
X224900000Y-120850000I200000J0D01*
G01*
X225300000Y-120850000D01*
G75*
G02*
X225500000Y-121050000I0J-200000D01*
G01*
X225500000Y-121600000D01*
G75*
G02*
X225300000Y-121800000I-200000J0D01*
G01*
X224900000Y-121800000D01*
G75*
G02*
X224700000Y-121600000I0J200000D01*
G01*
G37*
G36*
G01*
X223050000Y-121600000D02*
X223050000Y-121050000D01*
G75*
G02*
X223250000Y-120850000I200000J0D01*
G01*
X223650000Y-120850000D01*
G75*
G02*
X223850000Y-121050000I0J-200000D01*
G01*
X223850000Y-121600000D01*
G75*
G02*
X223650000Y-121800000I-200000J0D01*
G01*
X223250000Y-121800000D01*
G75*
G02*
X223050000Y-121600000I0J200000D01*
G01*
G37*
%TD*%
%TO.C,R210*%
G36*
G01*
X226350000Y-122994920D02*
X226350000Y-122444920D01*
G75*
G02*
X226550000Y-122244920I200000J0D01*
G01*
X226950000Y-122244920D01*
G75*
G02*
X227150000Y-122444920I0J-200000D01*
G01*
X227150000Y-122994920D01*
G75*
G02*
X226950000Y-123194920I-200000J0D01*
G01*
X226550000Y-123194920D01*
G75*
G02*
X226350000Y-122994920I0J200000D01*
G01*
G37*
G36*
G01*
X224700000Y-123000000D02*
X224700000Y-122450000D01*
G75*
G02*
X224900000Y-122250000I200000J0D01*
G01*
X225300000Y-122250000D01*
G75*
G02*
X225500000Y-122450000I0J-200000D01*
G01*
X225500000Y-123000000D01*
G75*
G02*
X225300000Y-123200000I-200000J0D01*
G01*
X224900000Y-123200000D01*
G75*
G02*
X224700000Y-123000000I0J200000D01*
G01*
G37*
G36*
G01*
X223050000Y-123000000D02*
X223050000Y-122450000D01*
G75*
G02*
X223250000Y-122250000I200000J0D01*
G01*
X223650000Y-122250000D01*
G75*
G02*
X223850000Y-122450000I0J-200000D01*
G01*
X223850000Y-123000000D01*
G75*
G02*
X223650000Y-123200000I-200000J0D01*
G01*
X223250000Y-123200000D01*
G75*
G02*
X223050000Y-123000000I0J200000D01*
G01*
G37*
%TD*%
%TO.C,R209*%
G36*
G01*
X223050000Y-124400000D02*
X223050000Y-123850000D01*
G75*
G02*
X223250000Y-123650000I200000J0D01*
G01*
X223650000Y-123650000D01*
G75*
G02*
X223850000Y-123850000I0J-200000D01*
G01*
X223850000Y-124400000D01*
G75*
G02*
X223650000Y-124600000I-200000J0D01*
G01*
X223250000Y-124600000D01*
G75*
G02*
X223050000Y-124400000I0J200000D01*
G01*
G37*
G36*
G01*
X224700000Y-124400000D02*
X224700000Y-123850000D01*
G75*
G02*
X224900000Y-123650000I200000J0D01*
G01*
X225300000Y-123650000D01*
G75*
G02*
X225500000Y-123850000I0J-200000D01*
G01*
X225500000Y-124400000D01*
G75*
G02*
X225300000Y-124600000I-200000J0D01*
G01*
X224900000Y-124600000D01*
G75*
G02*
X224700000Y-124400000I0J200000D01*
G01*
G37*
G36*
G01*
X226350000Y-124394920D02*
X226350000Y-123844920D01*
G75*
G02*
X226550000Y-123644920I200000J0D01*
G01*
X226950000Y-123644920D01*
G75*
G02*
X227150000Y-123844920I0J-200000D01*
G01*
X227150000Y-124394920D01*
G75*
G02*
X226950000Y-124594920I-200000J0D01*
G01*
X226550000Y-124594920D01*
G75*
G02*
X226350000Y-124394920I0J200000D01*
G01*
G37*
%TD*%
%TO.C,R208*%
G36*
G01*
X226350000Y-125794920D02*
X226350000Y-125244920D01*
G75*
G02*
X226550000Y-125044920I200000J0D01*
G01*
X226950000Y-125044920D01*
G75*
G02*
X227150000Y-125244920I0J-200000D01*
G01*
X227150000Y-125794920D01*
G75*
G02*
X226950000Y-125994920I-200000J0D01*
G01*
X226550000Y-125994920D01*
G75*
G02*
X226350000Y-125794920I0J200000D01*
G01*
G37*
G36*
G01*
X224700000Y-125800000D02*
X224700000Y-125250000D01*
G75*
G02*
X224900000Y-125050000I200000J0D01*
G01*
X225300000Y-125050000D01*
G75*
G02*
X225500000Y-125250000I0J-200000D01*
G01*
X225500000Y-125800000D01*
G75*
G02*
X225300000Y-126000000I-200000J0D01*
G01*
X224900000Y-126000000D01*
G75*
G02*
X224700000Y-125800000I0J200000D01*
G01*
G37*
G36*
G01*
X223050000Y-125800000D02*
X223050000Y-125250000D01*
G75*
G02*
X223250000Y-125050000I200000J0D01*
G01*
X223650000Y-125050000D01*
G75*
G02*
X223850000Y-125250000I0J-200000D01*
G01*
X223850000Y-125800000D01*
G75*
G02*
X223650000Y-126000000I-200000J0D01*
G01*
X223250000Y-126000000D01*
G75*
G02*
X223050000Y-125800000I0J200000D01*
G01*
G37*
%TD*%
%TO.C,R206*%
G36*
G01*
X223050000Y-128600000D02*
X223050000Y-128050000D01*
G75*
G02*
X223250000Y-127850000I200000J0D01*
G01*
X223650000Y-127850000D01*
G75*
G02*
X223850000Y-128050000I0J-200000D01*
G01*
X223850000Y-128600000D01*
G75*
G02*
X223650000Y-128800000I-200000J0D01*
G01*
X223250000Y-128800000D01*
G75*
G02*
X223050000Y-128600000I0J200000D01*
G01*
G37*
G36*
G01*
X224700000Y-128600000D02*
X224700000Y-128050000D01*
G75*
G02*
X224900000Y-127850000I200000J0D01*
G01*
X225300000Y-127850000D01*
G75*
G02*
X225500000Y-128050000I0J-200000D01*
G01*
X225500000Y-128600000D01*
G75*
G02*
X225300000Y-128800000I-200000J0D01*
G01*
X224900000Y-128800000D01*
G75*
G02*
X224700000Y-128600000I0J200000D01*
G01*
G37*
G36*
G01*
X226350000Y-128594920D02*
X226350000Y-128044920D01*
G75*
G02*
X226550000Y-127844920I200000J0D01*
G01*
X226950000Y-127844920D01*
G75*
G02*
X227150000Y-128044920I0J-200000D01*
G01*
X227150000Y-128594920D01*
G75*
G02*
X226950000Y-128794920I-200000J0D01*
G01*
X226550000Y-128794920D01*
G75*
G02*
X226350000Y-128594920I0J200000D01*
G01*
G37*
%TD*%
%TO.C,R205*%
G36*
G01*
X223050000Y-130000000D02*
X223050000Y-129450000D01*
G75*
G02*
X223250000Y-129250000I200000J0D01*
G01*
X223650000Y-129250000D01*
G75*
G02*
X223850000Y-129450000I0J-200000D01*
G01*
X223850000Y-130000000D01*
G75*
G02*
X223650000Y-130200000I-200000J0D01*
G01*
X223250000Y-130200000D01*
G75*
G02*
X223050000Y-130000000I0J200000D01*
G01*
G37*
G36*
G01*
X224700000Y-130000000D02*
X224700000Y-129450000D01*
G75*
G02*
X224900000Y-129250000I200000J0D01*
G01*
X225300000Y-129250000D01*
G75*
G02*
X225500000Y-129450000I0J-200000D01*
G01*
X225500000Y-130000000D01*
G75*
G02*
X225300000Y-130200000I-200000J0D01*
G01*
X224900000Y-130200000D01*
G75*
G02*
X224700000Y-130000000I0J200000D01*
G01*
G37*
G36*
G01*
X226350000Y-129994920D02*
X226350000Y-129444920D01*
G75*
G02*
X226550000Y-129244920I200000J0D01*
G01*
X226950000Y-129244920D01*
G75*
G02*
X227150000Y-129444920I0J-200000D01*
G01*
X227150000Y-129994920D01*
G75*
G02*
X226950000Y-130194920I-200000J0D01*
G01*
X226550000Y-130194920D01*
G75*
G02*
X226350000Y-129994920I0J200000D01*
G01*
G37*
%TD*%
%TO.C,U506*%
G36*
G01*
X185690000Y-163595000D02*
X185690000Y-163295000D01*
G75*
G02*
X185840000Y-163145000I150000J0D01*
G01*
X187140000Y-163145000D01*
G75*
G02*
X187290000Y-163295000I0J-150000D01*
G01*
X187290000Y-163595000D01*
G75*
G02*
X187140000Y-163745000I-150000J0D01*
G01*
X185840000Y-163745000D01*
G75*
G02*
X185690000Y-163595000I0J150000D01*
G01*
G37*
G36*
G01*
X185690000Y-162325000D02*
X185690000Y-162025000D01*
G75*
G02*
X185840000Y-161875000I150000J0D01*
G01*
X187140000Y-161875000D01*
G75*
G02*
X187290000Y-162025000I0J-150000D01*
G01*
X187290000Y-162325000D01*
G75*
G02*
X187140000Y-162475000I-150000J0D01*
G01*
X185840000Y-162475000D01*
G75*
G02*
X185690000Y-162325000I0J150000D01*
G01*
G37*
G36*
G01*
X185690000Y-161055000D02*
X185690000Y-160755000D01*
G75*
G02*
X185840000Y-160605000I150000J0D01*
G01*
X187140000Y-160605000D01*
G75*
G02*
X187290000Y-160755000I0J-150000D01*
G01*
X187290000Y-161055000D01*
G75*
G02*
X187140000Y-161205000I-150000J0D01*
G01*
X185840000Y-161205000D01*
G75*
G02*
X185690000Y-161055000I0J150000D01*
G01*
G37*
G36*
G01*
X185690000Y-159785000D02*
X185690000Y-159485000D01*
G75*
G02*
X185840000Y-159335000I150000J0D01*
G01*
X187140000Y-159335000D01*
G75*
G02*
X187290000Y-159485000I0J-150000D01*
G01*
X187290000Y-159785000D01*
G75*
G02*
X187140000Y-159935000I-150000J0D01*
G01*
X185840000Y-159935000D01*
G75*
G02*
X185690000Y-159785000I0J150000D01*
G01*
G37*
G36*
G01*
X192890000Y-159785000D02*
X192890000Y-159485000D01*
G75*
G02*
X193040000Y-159335000I150000J0D01*
G01*
X194340000Y-159335000D01*
G75*
G02*
X194490000Y-159485000I0J-150000D01*
G01*
X194490000Y-159785000D01*
G75*
G02*
X194340000Y-159935000I-150000J0D01*
G01*
X193040000Y-159935000D01*
G75*
G02*
X192890000Y-159785000I0J150000D01*
G01*
G37*
G36*
G01*
X192890000Y-161055000D02*
X192890000Y-160755000D01*
G75*
G02*
X193040000Y-160605000I150000J0D01*
G01*
X194340000Y-160605000D01*
G75*
G02*
X194490000Y-160755000I0J-150000D01*
G01*
X194490000Y-161055000D01*
G75*
G02*
X194340000Y-161205000I-150000J0D01*
G01*
X193040000Y-161205000D01*
G75*
G02*
X192890000Y-161055000I0J150000D01*
G01*
G37*
G36*
G01*
X192890000Y-162325000D02*
X192890000Y-162025000D01*
G75*
G02*
X193040000Y-161875000I150000J0D01*
G01*
X194340000Y-161875000D01*
G75*
G02*
X194490000Y-162025000I0J-150000D01*
G01*
X194490000Y-162325000D01*
G75*
G02*
X194340000Y-162475000I-150000J0D01*
G01*
X193040000Y-162475000D01*
G75*
G02*
X192890000Y-162325000I0J150000D01*
G01*
G37*
G36*
G01*
X192890000Y-163595000D02*
X192890000Y-163295000D01*
G75*
G02*
X193040000Y-163145000I150000J0D01*
G01*
X194340000Y-163145000D01*
G75*
G02*
X194490000Y-163295000I0J-150000D01*
G01*
X194490000Y-163595000D01*
G75*
G02*
X194340000Y-163745000I-150000J0D01*
G01*
X193040000Y-163745000D01*
G75*
G02*
X192890000Y-163595000I0J150000D01*
G01*
G37*
%TD*%
%TO.C,U504*%
G36*
G01*
X186220000Y-157795000D02*
X186220000Y-157495000D01*
G75*
G02*
X186370000Y-157345000I150000J0D01*
G01*
X188020000Y-157345000D01*
G75*
G02*
X188170000Y-157495000I0J-150000D01*
G01*
X188170000Y-157795000D01*
G75*
G02*
X188020000Y-157945000I-150000J0D01*
G01*
X186370000Y-157945000D01*
G75*
G02*
X186220000Y-157795000I0J150000D01*
G01*
G37*
G36*
G01*
X186220000Y-156525000D02*
X186220000Y-156225000D01*
G75*
G02*
X186370000Y-156075000I150000J0D01*
G01*
X188020000Y-156075000D01*
G75*
G02*
X188170000Y-156225000I0J-150000D01*
G01*
X188170000Y-156525000D01*
G75*
G02*
X188020000Y-156675000I-150000J0D01*
G01*
X186370000Y-156675000D01*
G75*
G02*
X186220000Y-156525000I0J150000D01*
G01*
G37*
G36*
G01*
X186220000Y-155255000D02*
X186220000Y-154955000D01*
G75*
G02*
X186370000Y-154805000I150000J0D01*
G01*
X188020000Y-154805000D01*
G75*
G02*
X188170000Y-154955000I0J-150000D01*
G01*
X188170000Y-155255000D01*
G75*
G02*
X188020000Y-155405000I-150000J0D01*
G01*
X186370000Y-155405000D01*
G75*
G02*
X186220000Y-155255000I0J150000D01*
G01*
G37*
G36*
G01*
X186220000Y-153985000D02*
X186220000Y-153685000D01*
G75*
G02*
X186370000Y-153535000I150000J0D01*
G01*
X188020000Y-153535000D01*
G75*
G02*
X188170000Y-153685000I0J-150000D01*
G01*
X188170000Y-153985000D01*
G75*
G02*
X188020000Y-154135000I-150000J0D01*
G01*
X186370000Y-154135000D01*
G75*
G02*
X186220000Y-153985000I0J150000D01*
G01*
G37*
G36*
G01*
X191170000Y-153985000D02*
X191170000Y-153685000D01*
G75*
G02*
X191320000Y-153535000I150000J0D01*
G01*
X192970000Y-153535000D01*
G75*
G02*
X193120000Y-153685000I0J-150000D01*
G01*
X193120000Y-153985000D01*
G75*
G02*
X192970000Y-154135000I-150000J0D01*
G01*
X191320000Y-154135000D01*
G75*
G02*
X191170000Y-153985000I0J150000D01*
G01*
G37*
G36*
G01*
X191170000Y-155255000D02*
X191170000Y-154955000D01*
G75*
G02*
X191320000Y-154805000I150000J0D01*
G01*
X192970000Y-154805000D01*
G75*
G02*
X193120000Y-154955000I0J-150000D01*
G01*
X193120000Y-155255000D01*
G75*
G02*
X192970000Y-155405000I-150000J0D01*
G01*
X191320000Y-155405000D01*
G75*
G02*
X191170000Y-155255000I0J150000D01*
G01*
G37*
G36*
G01*
X191170000Y-156525000D02*
X191170000Y-156225000D01*
G75*
G02*
X191320000Y-156075000I150000J0D01*
G01*
X192970000Y-156075000D01*
G75*
G02*
X193120000Y-156225000I0J-150000D01*
G01*
X193120000Y-156525000D01*
G75*
G02*
X192970000Y-156675000I-150000J0D01*
G01*
X191320000Y-156675000D01*
G75*
G02*
X191170000Y-156525000I0J150000D01*
G01*
G37*
G36*
G01*
X191170000Y-157795000D02*
X191170000Y-157495000D01*
G75*
G02*
X191320000Y-157345000I150000J0D01*
G01*
X192970000Y-157345000D01*
G75*
G02*
X193120000Y-157495000I0J-150000D01*
G01*
X193120000Y-157795000D01*
G75*
G02*
X192970000Y-157945000I-150000J0D01*
G01*
X191320000Y-157945000D01*
G75*
G02*
X191170000Y-157795000I0J150000D01*
G01*
G37*
%TD*%
%TO.C,U306*%
G36*
G01*
X225100000Y-187095000D02*
X225100000Y-187395000D01*
G75*
G02*
X224950000Y-187545000I-150000J0D01*
G01*
X223650000Y-187545000D01*
G75*
G02*
X223500000Y-187395000I0J150000D01*
G01*
X223500000Y-187095000D01*
G75*
G02*
X223650000Y-186945000I150000J0D01*
G01*
X224950000Y-186945000D01*
G75*
G02*
X225100000Y-187095000I0J-150000D01*
G01*
G37*
G36*
G01*
X225100000Y-188365000D02*
X225100000Y-188665000D01*
G75*
G02*
X224950000Y-188815000I-150000J0D01*
G01*
X223650000Y-188815000D01*
G75*
G02*
X223500000Y-188665000I0J150000D01*
G01*
X223500000Y-188365000D01*
G75*
G02*
X223650000Y-188215000I150000J0D01*
G01*
X224950000Y-188215000D01*
G75*
G02*
X225100000Y-188365000I0J-150000D01*
G01*
G37*
G36*
G01*
X225100000Y-189635000D02*
X225100000Y-189935000D01*
G75*
G02*
X224950000Y-190085000I-150000J0D01*
G01*
X223650000Y-190085000D01*
G75*
G02*
X223500000Y-189935000I0J150000D01*
G01*
X223500000Y-189635000D01*
G75*
G02*
X223650000Y-189485000I150000J0D01*
G01*
X224950000Y-189485000D01*
G75*
G02*
X225100000Y-189635000I0J-150000D01*
G01*
G37*
G36*
G01*
X225100000Y-190905000D02*
X225100000Y-191205000D01*
G75*
G02*
X224950000Y-191355000I-150000J0D01*
G01*
X223650000Y-191355000D01*
G75*
G02*
X223500000Y-191205000I0J150000D01*
G01*
X223500000Y-190905000D01*
G75*
G02*
X223650000Y-190755000I150000J0D01*
G01*
X224950000Y-190755000D01*
G75*
G02*
X225100000Y-190905000I0J-150000D01*
G01*
G37*
G36*
G01*
X232300000Y-190905000D02*
X232300000Y-191205000D01*
G75*
G02*
X232150000Y-191355000I-150000J0D01*
G01*
X230850000Y-191355000D01*
G75*
G02*
X230700000Y-191205000I0J150000D01*
G01*
X230700000Y-190905000D01*
G75*
G02*
X230850000Y-190755000I150000J0D01*
G01*
X232150000Y-190755000D01*
G75*
G02*
X232300000Y-190905000I0J-150000D01*
G01*
G37*
G36*
G01*
X232300000Y-189635000D02*
X232300000Y-189935000D01*
G75*
G02*
X232150000Y-190085000I-150000J0D01*
G01*
X230850000Y-190085000D01*
G75*
G02*
X230700000Y-189935000I0J150000D01*
G01*
X230700000Y-189635000D01*
G75*
G02*
X230850000Y-189485000I150000J0D01*
G01*
X232150000Y-189485000D01*
G75*
G02*
X232300000Y-189635000I0J-150000D01*
G01*
G37*
G36*
G01*
X232300000Y-188365000D02*
X232300000Y-188665000D01*
G75*
G02*
X232150000Y-188815000I-150000J0D01*
G01*
X230850000Y-188815000D01*
G75*
G02*
X230700000Y-188665000I0J150000D01*
G01*
X230700000Y-188365000D01*
G75*
G02*
X230850000Y-188215000I150000J0D01*
G01*
X232150000Y-188215000D01*
G75*
G02*
X232300000Y-188365000I0J-150000D01*
G01*
G37*
G36*
G01*
X232300000Y-187095000D02*
X232300000Y-187395000D01*
G75*
G02*
X232150000Y-187545000I-150000J0D01*
G01*
X230850000Y-187545000D01*
G75*
G02*
X230700000Y-187395000I0J150000D01*
G01*
X230700000Y-187095000D01*
G75*
G02*
X230850000Y-186945000I150000J0D01*
G01*
X232150000Y-186945000D01*
G75*
G02*
X232300000Y-187095000I0J-150000D01*
G01*
G37*
%TD*%
%TO.C,U304*%
G36*
G01*
X212225000Y-187045000D02*
X212225000Y-187345000D01*
G75*
G02*
X212075000Y-187495000I-150000J0D01*
G01*
X210425000Y-187495000D01*
G75*
G02*
X210275000Y-187345000I0J150000D01*
G01*
X210275000Y-187045000D01*
G75*
G02*
X210425000Y-186895000I150000J0D01*
G01*
X212075000Y-186895000D01*
G75*
G02*
X212225000Y-187045000I0J-150000D01*
G01*
G37*
G36*
G01*
X212225000Y-188315000D02*
X212225000Y-188615000D01*
G75*
G02*
X212075000Y-188765000I-150000J0D01*
G01*
X210425000Y-188765000D01*
G75*
G02*
X210275000Y-188615000I0J150000D01*
G01*
X210275000Y-188315000D01*
G75*
G02*
X210425000Y-188165000I150000J0D01*
G01*
X212075000Y-188165000D01*
G75*
G02*
X212225000Y-188315000I0J-150000D01*
G01*
G37*
G36*
G01*
X212225000Y-189585000D02*
X212225000Y-189885000D01*
G75*
G02*
X212075000Y-190035000I-150000J0D01*
G01*
X210425000Y-190035000D01*
G75*
G02*
X210275000Y-189885000I0J150000D01*
G01*
X210275000Y-189585000D01*
G75*
G02*
X210425000Y-189435000I150000J0D01*
G01*
X212075000Y-189435000D01*
G75*
G02*
X212225000Y-189585000I0J-150000D01*
G01*
G37*
G36*
G01*
X212225000Y-190855000D02*
X212225000Y-191155000D01*
G75*
G02*
X212075000Y-191305000I-150000J0D01*
G01*
X210425000Y-191305000D01*
G75*
G02*
X210275000Y-191155000I0J150000D01*
G01*
X210275000Y-190855000D01*
G75*
G02*
X210425000Y-190705000I150000J0D01*
G01*
X212075000Y-190705000D01*
G75*
G02*
X212225000Y-190855000I0J-150000D01*
G01*
G37*
G36*
G01*
X217175000Y-190855000D02*
X217175000Y-191155000D01*
G75*
G02*
X217025000Y-191305000I-150000J0D01*
G01*
X215375000Y-191305000D01*
G75*
G02*
X215225000Y-191155000I0J150000D01*
G01*
X215225000Y-190855000D01*
G75*
G02*
X215375000Y-190705000I150000J0D01*
G01*
X217025000Y-190705000D01*
G75*
G02*
X217175000Y-190855000I0J-150000D01*
G01*
G37*
G36*
G01*
X217175000Y-189585000D02*
X217175000Y-189885000D01*
G75*
G02*
X217025000Y-190035000I-150000J0D01*
G01*
X215375000Y-190035000D01*
G75*
G02*
X215225000Y-189885000I0J150000D01*
G01*
X215225000Y-189585000D01*
G75*
G02*
X215375000Y-189435000I150000J0D01*
G01*
X217025000Y-189435000D01*
G75*
G02*
X217175000Y-189585000I0J-150000D01*
G01*
G37*
G36*
G01*
X217175000Y-188315000D02*
X217175000Y-188615000D01*
G75*
G02*
X217025000Y-188765000I-150000J0D01*
G01*
X215375000Y-188765000D01*
G75*
G02*
X215225000Y-188615000I0J150000D01*
G01*
X215225000Y-188315000D01*
G75*
G02*
X215375000Y-188165000I150000J0D01*
G01*
X217025000Y-188165000D01*
G75*
G02*
X217175000Y-188315000I0J-150000D01*
G01*
G37*
G36*
G01*
X217175000Y-187045000D02*
X217175000Y-187345000D01*
G75*
G02*
X217025000Y-187495000I-150000J0D01*
G01*
X215375000Y-187495000D01*
G75*
G02*
X215225000Y-187345000I0J150000D01*
G01*
X215225000Y-187045000D01*
G75*
G02*
X215375000Y-186895000I150000J0D01*
G01*
X217025000Y-186895000D01*
G75*
G02*
X217175000Y-187045000I0J-150000D01*
G01*
G37*
%TD*%
%TO.C,U105*%
G36*
G01*
X178149999Y-213570000D02*
X178149999Y-212070000D01*
G75*
G02*
X178150000Y-212069999I1J0D01*
G01*
X179950000Y-212069999D01*
G75*
G02*
X179950001Y-212070000I0J-1D01*
G01*
X179950001Y-213570000D01*
G75*
G02*
X179950000Y-213570001I-1J0D01*
G01*
X178150000Y-213570001D01*
G75*
G02*
X178149999Y-213570000I0J1D01*
G01*
G37*
G36*
G01*
X178149999Y-211670000D02*
X178149999Y-210170000D01*
G75*
G02*
X178150000Y-210169999I1J0D01*
G01*
X179950000Y-210169999D01*
G75*
G02*
X179950001Y-210170000I0J-1D01*
G01*
X179950001Y-211670000D01*
G75*
G02*
X179950000Y-211670001I-1J0D01*
G01*
X178150000Y-211670001D01*
G75*
G02*
X178149999Y-211670000I0J1D01*
G01*
G37*
G36*
G01*
X178149999Y-209770000D02*
X178149999Y-208270000D01*
G75*
G02*
X178150000Y-208269999I1J0D01*
G01*
X179950000Y-208269999D01*
G75*
G02*
X179950001Y-208270000I0J-1D01*
G01*
X179950001Y-209770000D01*
G75*
G02*
X179950000Y-209770001I-1J0D01*
G01*
X178150000Y-209770001D01*
G75*
G02*
X178149999Y-209770000I0J1D01*
G01*
G37*
G36*
G01*
X178149999Y-207870000D02*
X178149999Y-206370000D01*
G75*
G02*
X178150000Y-206369999I1J0D01*
G01*
X179950000Y-206369999D01*
G75*
G02*
X179950001Y-206370000I0J-1D01*
G01*
X179950001Y-207870000D01*
G75*
G02*
X179950000Y-207870001I-1J0D01*
G01*
X178150000Y-207870001D01*
G75*
G02*
X178149999Y-207870000I0J1D01*
G01*
G37*
G36*
G01*
X178149999Y-205970000D02*
X178149999Y-204470000D01*
G75*
G02*
X178150000Y-204469999I1J0D01*
G01*
X179950000Y-204469999D01*
G75*
G02*
X179950001Y-204470000I0J-1D01*
G01*
X179950001Y-205970000D01*
G75*
G02*
X179950000Y-205970001I-1J0D01*
G01*
X178150000Y-205970001D01*
G75*
G02*
X178149999Y-205970000I0J1D01*
G01*
G37*
G36*
G01*
X181099999Y-203320000D02*
X181099999Y-201520000D01*
G75*
G02*
X181100000Y-201519999I1J0D01*
G01*
X182600000Y-201519999D01*
G75*
G02*
X182600001Y-201520000I0J-1D01*
G01*
X182600001Y-203320000D01*
G75*
G02*
X182600000Y-203320001I-1J0D01*
G01*
X181100000Y-203320001D01*
G75*
G02*
X181099999Y-203320000I0J1D01*
G01*
G37*
G36*
G01*
X182999999Y-203320000D02*
X182999999Y-201520000D01*
G75*
G02*
X183000000Y-201519999I1J0D01*
G01*
X184500000Y-201519999D01*
G75*
G02*
X184500001Y-201520000I0J-1D01*
G01*
X184500001Y-203320000D01*
G75*
G02*
X184500000Y-203320001I-1J0D01*
G01*
X183000000Y-203320001D01*
G75*
G02*
X182999999Y-203320000I0J1D01*
G01*
G37*
G36*
G01*
X184899999Y-203320000D02*
X184899999Y-201520000D01*
G75*
G02*
X184900000Y-201519999I1J0D01*
G01*
X186400000Y-201519999D01*
G75*
G02*
X186400001Y-201520000I0J-1D01*
G01*
X186400001Y-203320000D01*
G75*
G02*
X186400000Y-203320001I-1J0D01*
G01*
X184900000Y-203320001D01*
G75*
G02*
X184899999Y-203320000I0J1D01*
G01*
G37*
G36*
G01*
X186799999Y-203320000D02*
X186799999Y-201520000D01*
G75*
G02*
X186800000Y-201519999I1J0D01*
G01*
X188300000Y-201519999D01*
G75*
G02*
X188300001Y-201520000I0J-1D01*
G01*
X188300001Y-203320000D01*
G75*
G02*
X188300000Y-203320001I-1J0D01*
G01*
X186800000Y-203320001D01*
G75*
G02*
X186799999Y-203320000I0J1D01*
G01*
G37*
G36*
G01*
X188699999Y-203320000D02*
X188699999Y-201520000D01*
G75*
G02*
X188700000Y-201519999I1J0D01*
G01*
X190200000Y-201519999D01*
G75*
G02*
X190200001Y-201520000I0J-1D01*
G01*
X190200001Y-203320000D01*
G75*
G02*
X190200000Y-203320001I-1J0D01*
G01*
X188700000Y-203320001D01*
G75*
G02*
X188699999Y-203320000I0J1D01*
G01*
G37*
G36*
G01*
X191349999Y-205970000D02*
X191349999Y-204470000D01*
G75*
G02*
X191350000Y-204469999I1J0D01*
G01*
X193150000Y-204469999D01*
G75*
G02*
X193150001Y-204470000I0J-1D01*
G01*
X193150001Y-205970000D01*
G75*
G02*
X193150000Y-205970001I-1J0D01*
G01*
X191350000Y-205970001D01*
G75*
G02*
X191349999Y-205970000I0J1D01*
G01*
G37*
G36*
G01*
X191349999Y-207870000D02*
X191349999Y-206370000D01*
G75*
G02*
X191350000Y-206369999I1J0D01*
G01*
X193150000Y-206369999D01*
G75*
G02*
X193150001Y-206370000I0J-1D01*
G01*
X193150001Y-207870000D01*
G75*
G02*
X193150000Y-207870001I-1J0D01*
G01*
X191350000Y-207870001D01*
G75*
G02*
X191349999Y-207870000I0J1D01*
G01*
G37*
G36*
G01*
X191349999Y-209770000D02*
X191349999Y-208270000D01*
G75*
G02*
X191350000Y-208269999I1J0D01*
G01*
X193150000Y-208269999D01*
G75*
G02*
X193150001Y-208270000I0J-1D01*
G01*
X193150001Y-209770000D01*
G75*
G02*
X193150000Y-209770001I-1J0D01*
G01*
X191350000Y-209770001D01*
G75*
G02*
X191349999Y-209770000I0J1D01*
G01*
G37*
G36*
G01*
X191349999Y-211670000D02*
X191349999Y-210170000D01*
G75*
G02*
X191350000Y-210169999I1J0D01*
G01*
X193150000Y-210169999D01*
G75*
G02*
X193150001Y-210170000I0J-1D01*
G01*
X193150001Y-211670000D01*
G75*
G02*
X193150000Y-211670001I-1J0D01*
G01*
X191350000Y-211670001D01*
G75*
G02*
X191349999Y-211670000I0J1D01*
G01*
G37*
G36*
G01*
X191349999Y-213570000D02*
X191349999Y-212070000D01*
G75*
G02*
X191350000Y-212069999I1J0D01*
G01*
X193150000Y-212069999D01*
G75*
G02*
X193150001Y-212070000I0J-1D01*
G01*
X193150001Y-213570000D01*
G75*
G02*
X193150000Y-213570001I-1J0D01*
G01*
X191350000Y-213570001D01*
G75*
G02*
X191349999Y-213570000I0J1D01*
G01*
G37*
G36*
G01*
X188699999Y-216520000D02*
X188699999Y-214720000D01*
G75*
G02*
X188700000Y-214719999I1J0D01*
G01*
X190200000Y-214719999D01*
G75*
G02*
X190200001Y-214720000I0J-1D01*
G01*
X190200001Y-216520000D01*
G75*
G02*
X190200000Y-216520001I-1J0D01*
G01*
X188700000Y-216520001D01*
G75*
G02*
X188699999Y-216520000I0J1D01*
G01*
G37*
G36*
G01*
X186799999Y-216520000D02*
X186799999Y-214720000D01*
G75*
G02*
X186800000Y-214719999I1J0D01*
G01*
X188300000Y-214719999D01*
G75*
G02*
X188300001Y-214720000I0J-1D01*
G01*
X188300001Y-216520000D01*
G75*
G02*
X188300000Y-216520001I-1J0D01*
G01*
X186800000Y-216520001D01*
G75*
G02*
X186799999Y-216520000I0J1D01*
G01*
G37*
G36*
G01*
X184899999Y-216520000D02*
X184899999Y-214720000D01*
G75*
G02*
X184900000Y-214719999I1J0D01*
G01*
X186400000Y-214719999D01*
G75*
G02*
X186400001Y-214720000I0J-1D01*
G01*
X186400001Y-216520000D01*
G75*
G02*
X186400000Y-216520001I-1J0D01*
G01*
X184900000Y-216520001D01*
G75*
G02*
X184899999Y-216520000I0J1D01*
G01*
G37*
G36*
G01*
X182999999Y-216520000D02*
X182999999Y-214720000D01*
G75*
G02*
X183000000Y-214719999I1J0D01*
G01*
X184500000Y-214719999D01*
G75*
G02*
X184500001Y-214720000I0J-1D01*
G01*
X184500001Y-216520000D01*
G75*
G02*
X184500000Y-216520001I-1J0D01*
G01*
X183000000Y-216520001D01*
G75*
G02*
X182999999Y-216520000I0J1D01*
G01*
G37*
G36*
G01*
X181099999Y-216520000D02*
X181099999Y-214720000D01*
G75*
G02*
X181100000Y-214719999I1J0D01*
G01*
X182600000Y-214719999D01*
G75*
G02*
X182600001Y-214720000I0J-1D01*
G01*
X182600001Y-216520000D01*
G75*
G02*
X182600000Y-216520001I-1J0D01*
G01*
X181100000Y-216520001D01*
G75*
G02*
X181099999Y-216520000I0J1D01*
G01*
G37*
%TD*%
D27*
%TO.C,U1*%
X223440000Y-106970000D03*
X223440000Y-105070000D03*
X221240000Y-105070000D03*
D28*
X221240000Y-106790000D03*
%TD*%
D29*
%TO.C,TP604*%
X223340000Y-150090000D03*
%TD*%
%TO.C,TP603*%
X234770000Y-150090000D03*
%TD*%
%TO.C,TP602*%
X230960000Y-150090000D03*
%TD*%
%TO.C,TP601*%
X227150000Y-150090000D03*
%TD*%
D30*
%TO.C,TP17*%
X208750000Y-121300000D03*
%TD*%
%TO.C,TP16*%
X203650000Y-123750000D03*
%TD*%
%TO.C,TP15*%
X204900000Y-121300000D03*
%TD*%
%TO.C,TP13*%
X202900000Y-117450000D03*
%TD*%
%TO.C,R602*%
G36*
G01*
X220075000Y-146775000D02*
X220075000Y-147325000D01*
G75*
G02*
X219875000Y-147525000I-200000J0D01*
G01*
X219475000Y-147525000D01*
G75*
G02*
X219275000Y-147325000I0J200000D01*
G01*
X219275000Y-146775000D01*
G75*
G02*
X219475000Y-146575000I200000J0D01*
G01*
X219875000Y-146575000D01*
G75*
G02*
X220075000Y-146775000I0J-200000D01*
G01*
G37*
G36*
G01*
X221725000Y-146775000D02*
X221725000Y-147325000D01*
G75*
G02*
X221525000Y-147525000I-200000J0D01*
G01*
X221125000Y-147525000D01*
G75*
G02*
X220925000Y-147325000I0J200000D01*
G01*
X220925000Y-146775000D01*
G75*
G02*
X221125000Y-146575000I200000J0D01*
G01*
X221525000Y-146575000D01*
G75*
G02*
X221725000Y-146775000I0J-200000D01*
G01*
G37*
%TD*%
%TO.C,R203*%
G36*
G01*
X235825000Y-116825000D02*
X235825000Y-116275000D01*
G75*
G02*
X236025000Y-116075000I200000J0D01*
G01*
X236425000Y-116075000D01*
G75*
G02*
X236625000Y-116275000I0J-200000D01*
G01*
X236625000Y-116825000D01*
G75*
G02*
X236425000Y-117025000I-200000J0D01*
G01*
X236025000Y-117025000D01*
G75*
G02*
X235825000Y-116825000I0J200000D01*
G01*
G37*
G36*
G01*
X234175000Y-116825000D02*
X234175000Y-116275000D01*
G75*
G02*
X234375000Y-116075000I200000J0D01*
G01*
X234775000Y-116075000D01*
G75*
G02*
X234975000Y-116275000I0J-200000D01*
G01*
X234975000Y-116825000D01*
G75*
G02*
X234775000Y-117025000I-200000J0D01*
G01*
X234375000Y-117025000D01*
G75*
G02*
X234175000Y-116825000I0J200000D01*
G01*
G37*
%TD*%
%TO.C,R202*%
G36*
G01*
X235925000Y-131625000D02*
X235925000Y-131075000D01*
G75*
G02*
X236125000Y-130875000I200000J0D01*
G01*
X236525000Y-130875000D01*
G75*
G02*
X236725000Y-131075000I0J-200000D01*
G01*
X236725000Y-131625000D01*
G75*
G02*
X236525000Y-131825000I-200000J0D01*
G01*
X236125000Y-131825000D01*
G75*
G02*
X235925000Y-131625000I0J200000D01*
G01*
G37*
G36*
G01*
X234275000Y-131625000D02*
X234275000Y-131075000D01*
G75*
G02*
X234475000Y-130875000I200000J0D01*
G01*
X234875000Y-130875000D01*
G75*
G02*
X235075000Y-131075000I0J-200000D01*
G01*
X235075000Y-131625000D01*
G75*
G02*
X234875000Y-131825000I-200000J0D01*
G01*
X234475000Y-131825000D01*
G75*
G02*
X234275000Y-131625000I0J200000D01*
G01*
G37*
%TD*%
%TO.C,R201*%
G36*
G01*
X234975000Y-114825000D02*
X234975000Y-115375000D01*
G75*
G02*
X234775000Y-115575000I-200000J0D01*
G01*
X234375000Y-115575000D01*
G75*
G02*
X234175000Y-115375000I0J200000D01*
G01*
X234175000Y-114825000D01*
G75*
G02*
X234375000Y-114625000I200000J0D01*
G01*
X234775000Y-114625000D01*
G75*
G02*
X234975000Y-114825000I0J-200000D01*
G01*
G37*
G36*
G01*
X236625000Y-114825000D02*
X236625000Y-115375000D01*
G75*
G02*
X236425000Y-115575000I-200000J0D01*
G01*
X236025000Y-115575000D01*
G75*
G02*
X235825000Y-115375000I0J200000D01*
G01*
X235825000Y-114825000D01*
G75*
G02*
X236025000Y-114625000I200000J0D01*
G01*
X236425000Y-114625000D01*
G75*
G02*
X236625000Y-114825000I0J-200000D01*
G01*
G37*
%TD*%
%TO.C,R999*%
G36*
G01*
X236250001Y-68500000D02*
X235349999Y-68500000D01*
G75*
G02*
X235100000Y-68250001I0J249999D01*
G01*
X235100000Y-67724999D01*
G75*
G02*
X235349999Y-67475000I249999J0D01*
G01*
X236250001Y-67475000D01*
G75*
G02*
X236500000Y-67724999I0J-249999D01*
G01*
X236500000Y-68250001D01*
G75*
G02*
X236250001Y-68500000I-249999J0D01*
G01*
G37*
G36*
G01*
X236250001Y-70325000D02*
X235349999Y-70325000D01*
G75*
G02*
X235100000Y-70075001I0J249999D01*
G01*
X235100000Y-69549999D01*
G75*
G02*
X235349999Y-69300000I249999J0D01*
G01*
X236250001Y-69300000D01*
G75*
G02*
X236500000Y-69549999I0J-249999D01*
G01*
X236500000Y-70075001D01*
G75*
G02*
X236250001Y-70325000I-249999J0D01*
G01*
G37*
%TD*%
%TO.C,L303*%
G36*
G01*
X218961316Y-179026291D02*
X219323709Y-179388684D01*
G75*
G02*
X219323709Y-179698044I-154680J-154680D01*
G01*
X219014350Y-180007403D01*
G75*
G02*
X218704990Y-180007403I-154680J154680D01*
G01*
X218342597Y-179645010D01*
G75*
G02*
X218342597Y-179335650I154680J154680D01*
G01*
X218651956Y-179026291D01*
G75*
G02*
X218961316Y-179026291I154680J-154680D01*
G01*
G37*
G36*
G01*
X220075010Y-177912597D02*
X220437403Y-178274990D01*
G75*
G02*
X220437403Y-178584350I-154680J-154680D01*
G01*
X220128044Y-178893709D01*
G75*
G02*
X219818684Y-178893709I-154680J154680D01*
G01*
X219456291Y-178531316D01*
G75*
G02*
X219456291Y-178221956I154680J154680D01*
G01*
X219765650Y-177912597D01*
G75*
G02*
X220075010Y-177912597I154680J-154680D01*
G01*
G37*
%TD*%
%TO.C,L301*%
G36*
G01*
X215830761Y-177967157D02*
X217032843Y-179169239D01*
G75*
G02*
X217032843Y-179522793I-176777J-176777D01*
G01*
X216502513Y-180053123D01*
G75*
G02*
X216148959Y-180053123I-176777J176777D01*
G01*
X214946877Y-178851041D01*
G75*
G02*
X214946877Y-178497487I176777J176777D01*
G01*
X215477207Y-177967157D01*
G75*
G02*
X215830761Y-177967157I176777J-176777D01*
G01*
G37*
G36*
G01*
X217351041Y-176446877D02*
X218553123Y-177648959D01*
G75*
G02*
X218553123Y-178002513I-176777J-176777D01*
G01*
X218022793Y-178532843D01*
G75*
G02*
X217669239Y-178532843I-176777J176777D01*
G01*
X216467157Y-177330761D01*
G75*
G02*
X216467157Y-176977207I176777J176777D01*
G01*
X216997487Y-176446877D01*
G75*
G02*
X217351041Y-176446877I176777J-176777D01*
G01*
G37*
%TD*%
D11*
%TO.C,JP606*%
G36*
X218750000Y-137600000D02*
G01*
X218750000Y-138150000D01*
X218749398Y-138150000D01*
X218749398Y-138174534D01*
X218744588Y-138223365D01*
X218735016Y-138271490D01*
X218720772Y-138318445D01*
X218701995Y-138363778D01*
X218678864Y-138407051D01*
X218651604Y-138447850D01*
X218620476Y-138485779D01*
X218585779Y-138520476D01*
X218547850Y-138551604D01*
X218507051Y-138578864D01*
X218463778Y-138601995D01*
X218418445Y-138620772D01*
X218371490Y-138635016D01*
X218323365Y-138644588D01*
X218274534Y-138649398D01*
X218250000Y-138649398D01*
X218250000Y-138650000D01*
X217750000Y-138650000D01*
X217750000Y-138649398D01*
X217725466Y-138649398D01*
X217676635Y-138644588D01*
X217628510Y-138635016D01*
X217581555Y-138620772D01*
X217536222Y-138601995D01*
X217492949Y-138578864D01*
X217452150Y-138551604D01*
X217414221Y-138520476D01*
X217379524Y-138485779D01*
X217348396Y-138447850D01*
X217321136Y-138407051D01*
X217298005Y-138363778D01*
X217279228Y-138318445D01*
X217264984Y-138271490D01*
X217255412Y-138223365D01*
X217250602Y-138174534D01*
X217250602Y-138150000D01*
X217250000Y-138150000D01*
X217250000Y-137600000D01*
X218750000Y-137600000D01*
G37*
D31*
X218000000Y-136850000D03*
D11*
G36*
X217250602Y-135550000D02*
G01*
X217250602Y-135525466D01*
X217255412Y-135476635D01*
X217264984Y-135428510D01*
X217279228Y-135381555D01*
X217298005Y-135336222D01*
X217321136Y-135292949D01*
X217348396Y-135252150D01*
X217379524Y-135214221D01*
X217414221Y-135179524D01*
X217452150Y-135148396D01*
X217492949Y-135121136D01*
X217536222Y-135098005D01*
X217581555Y-135079228D01*
X217628510Y-135064984D01*
X217676635Y-135055412D01*
X217725466Y-135050602D01*
X217750000Y-135050602D01*
X217750000Y-135050000D01*
X218250000Y-135050000D01*
X218250000Y-135050602D01*
X218274534Y-135050602D01*
X218323365Y-135055412D01*
X218371490Y-135064984D01*
X218418445Y-135079228D01*
X218463778Y-135098005D01*
X218507051Y-135121136D01*
X218547850Y-135148396D01*
X218585779Y-135179524D01*
X218620476Y-135214221D01*
X218651604Y-135252150D01*
X218678864Y-135292949D01*
X218701995Y-135336222D01*
X218720772Y-135381555D01*
X218735016Y-135428510D01*
X218744588Y-135476635D01*
X218749398Y-135525466D01*
X218749398Y-135550000D01*
X218750000Y-135550000D01*
X218750000Y-136100000D01*
X217250000Y-136100000D01*
X217250000Y-135550000D01*
X217250602Y-135550000D01*
G37*
%TD*%
%TO.C,JP605*%
G36*
X218750000Y-142200000D02*
G01*
X218750000Y-142750000D01*
X218749398Y-142750000D01*
X218749398Y-142774534D01*
X218744588Y-142823365D01*
X218735016Y-142871490D01*
X218720772Y-142918445D01*
X218701995Y-142963778D01*
X218678864Y-143007051D01*
X218651604Y-143047850D01*
X218620476Y-143085779D01*
X218585779Y-143120476D01*
X218547850Y-143151604D01*
X218507051Y-143178864D01*
X218463778Y-143201995D01*
X218418445Y-143220772D01*
X218371490Y-143235016D01*
X218323365Y-143244588D01*
X218274534Y-143249398D01*
X218250000Y-143249398D01*
X218250000Y-143250000D01*
X217750000Y-143250000D01*
X217750000Y-143249398D01*
X217725466Y-143249398D01*
X217676635Y-143244588D01*
X217628510Y-143235016D01*
X217581555Y-143220772D01*
X217536222Y-143201995D01*
X217492949Y-143178864D01*
X217452150Y-143151604D01*
X217414221Y-143120476D01*
X217379524Y-143085779D01*
X217348396Y-143047850D01*
X217321136Y-143007051D01*
X217298005Y-142963778D01*
X217279228Y-142918445D01*
X217264984Y-142871490D01*
X217255412Y-142823365D01*
X217250602Y-142774534D01*
X217250602Y-142750000D01*
X217250000Y-142750000D01*
X217250000Y-142200000D01*
X218750000Y-142200000D01*
G37*
D31*
X218000000Y-141450000D03*
D11*
G36*
X217250602Y-140150000D02*
G01*
X217250602Y-140125466D01*
X217255412Y-140076635D01*
X217264984Y-140028510D01*
X217279228Y-139981555D01*
X217298005Y-139936222D01*
X217321136Y-139892949D01*
X217348396Y-139852150D01*
X217379524Y-139814221D01*
X217414221Y-139779524D01*
X217452150Y-139748396D01*
X217492949Y-139721136D01*
X217536222Y-139698005D01*
X217581555Y-139679228D01*
X217628510Y-139664984D01*
X217676635Y-139655412D01*
X217725466Y-139650602D01*
X217750000Y-139650602D01*
X217750000Y-139650000D01*
X218250000Y-139650000D01*
X218250000Y-139650602D01*
X218274534Y-139650602D01*
X218323365Y-139655412D01*
X218371490Y-139664984D01*
X218418445Y-139679228D01*
X218463778Y-139698005D01*
X218507051Y-139721136D01*
X218547850Y-139748396D01*
X218585779Y-139779524D01*
X218620476Y-139814221D01*
X218651604Y-139852150D01*
X218678864Y-139892949D01*
X218701995Y-139936222D01*
X218720772Y-139981555D01*
X218735016Y-140028510D01*
X218744588Y-140076635D01*
X218749398Y-140125466D01*
X218749398Y-140150000D01*
X218750000Y-140150000D01*
X218750000Y-140700000D01*
X217250000Y-140700000D01*
X217250000Y-140150000D01*
X217250602Y-140150000D01*
G37*
%TD*%
%TO.C,JP602*%
G36*
X224625000Y-146300000D02*
G01*
X225175000Y-146300000D01*
X225175000Y-146300602D01*
X225199534Y-146300602D01*
X225248365Y-146305412D01*
X225296490Y-146314984D01*
X225343445Y-146329228D01*
X225388778Y-146348005D01*
X225432051Y-146371136D01*
X225472850Y-146398396D01*
X225510779Y-146429524D01*
X225545476Y-146464221D01*
X225576604Y-146502150D01*
X225603864Y-146542949D01*
X225626995Y-146586222D01*
X225645772Y-146631555D01*
X225660016Y-146678510D01*
X225669588Y-146726635D01*
X225674398Y-146775466D01*
X225674398Y-146800000D01*
X225675000Y-146800000D01*
X225675000Y-147300000D01*
X225674398Y-147300000D01*
X225674398Y-147324534D01*
X225669588Y-147373365D01*
X225660016Y-147421490D01*
X225645772Y-147468445D01*
X225626995Y-147513778D01*
X225603864Y-147557051D01*
X225576604Y-147597850D01*
X225545476Y-147635779D01*
X225510779Y-147670476D01*
X225472850Y-147701604D01*
X225432051Y-147728864D01*
X225388778Y-147751995D01*
X225343445Y-147770772D01*
X225296490Y-147785016D01*
X225248365Y-147794588D01*
X225199534Y-147799398D01*
X225175000Y-147799398D01*
X225175000Y-147800000D01*
X224625000Y-147800000D01*
X224625000Y-146300000D01*
G37*
D32*
X223875000Y-147050000D03*
D11*
G36*
X222575000Y-147799398D02*
G01*
X222550466Y-147799398D01*
X222501635Y-147794588D01*
X222453510Y-147785016D01*
X222406555Y-147770772D01*
X222361222Y-147751995D01*
X222317949Y-147728864D01*
X222277150Y-147701604D01*
X222239221Y-147670476D01*
X222204524Y-147635779D01*
X222173396Y-147597850D01*
X222146136Y-147557051D01*
X222123005Y-147513778D01*
X222104228Y-147468445D01*
X222089984Y-147421490D01*
X222080412Y-147373365D01*
X222075602Y-147324534D01*
X222075602Y-147300000D01*
X222075000Y-147300000D01*
X222075000Y-146800000D01*
X222075602Y-146800000D01*
X222075602Y-146775466D01*
X222080412Y-146726635D01*
X222089984Y-146678510D01*
X222104228Y-146631555D01*
X222123005Y-146586222D01*
X222146136Y-146542949D01*
X222173396Y-146502150D01*
X222204524Y-146464221D01*
X222239221Y-146429524D01*
X222277150Y-146398396D01*
X222317949Y-146371136D01*
X222361222Y-146348005D01*
X222406555Y-146329228D01*
X222453510Y-146314984D01*
X222501635Y-146305412D01*
X222550466Y-146300602D01*
X222575000Y-146300602D01*
X222575000Y-146300000D01*
X223125000Y-146300000D01*
X223125000Y-147800000D01*
X222575000Y-147800000D01*
X222575000Y-147799398D01*
G37*
%TD*%
D15*
%TO.C,J306*%
X236130000Y-165750000D03*
D16*
X233590000Y-165750000D03*
%TD*%
%TO.C,C601*%
G36*
G01*
X224125000Y-138575000D02*
X224125000Y-138075000D01*
G75*
G02*
X224350000Y-137850000I225000J0D01*
G01*
X224800000Y-137850000D01*
G75*
G02*
X225025000Y-138075000I0J-225000D01*
G01*
X225025000Y-138575000D01*
G75*
G02*
X224800000Y-138800000I-225000J0D01*
G01*
X224350000Y-138800000D01*
G75*
G02*
X224125000Y-138575000I0J225000D01*
G01*
G37*
G36*
G01*
X222575000Y-138575000D02*
X222575000Y-138075000D01*
G75*
G02*
X222800000Y-137850000I225000J0D01*
G01*
X223250000Y-137850000D01*
G75*
G02*
X223475000Y-138075000I0J-225000D01*
G01*
X223475000Y-138575000D01*
G75*
G02*
X223250000Y-138800000I-225000J0D01*
G01*
X222800000Y-138800000D01*
G75*
G02*
X222575000Y-138575000I0J225000D01*
G01*
G37*
%TD*%
%TO.C,C515*%
G36*
G01*
X179389009Y-182772563D02*
X179742563Y-182419009D01*
G75*
G02*
X180060761Y-182419009I159099J-159099D01*
G01*
X180378959Y-182737207D01*
G75*
G02*
X180378959Y-183055405I-159099J-159099D01*
G01*
X180025405Y-183408959D01*
G75*
G02*
X179707207Y-183408959I-159099J159099D01*
G01*
X179389009Y-183090761D01*
G75*
G02*
X179389009Y-182772563I159099J159099D01*
G01*
G37*
G36*
G01*
X180485025Y-183868579D02*
X180838579Y-183515025D01*
G75*
G02*
X181156777Y-183515025I159099J-159099D01*
G01*
X181474975Y-183833223D01*
G75*
G02*
X181474975Y-184151421I-159099J-159099D01*
G01*
X181121421Y-184504975D01*
G75*
G02*
X180803223Y-184504975I-159099J159099D01*
G01*
X180485025Y-184186777D01*
G75*
G02*
X180485025Y-183868579I159099J159099D01*
G01*
G37*
%TD*%
%TO.C,C509*%
G36*
G01*
X178347017Y-183810571D02*
X178700571Y-183457017D01*
G75*
G02*
X179018769Y-183457017I159099J-159099D01*
G01*
X179336967Y-183775215D01*
G75*
G02*
X179336967Y-184093413I-159099J-159099D01*
G01*
X178983413Y-184446967D01*
G75*
G02*
X178665215Y-184446967I-159099J159099D01*
G01*
X178347017Y-184128769D01*
G75*
G02*
X178347017Y-183810571I159099J159099D01*
G01*
G37*
G36*
G01*
X179443033Y-184906587D02*
X179796587Y-184553033D01*
G75*
G02*
X180114785Y-184553033I159099J-159099D01*
G01*
X180432983Y-184871231D01*
G75*
G02*
X180432983Y-185189429I-159099J-159099D01*
G01*
X180079429Y-185542983D01*
G75*
G02*
X179761231Y-185542983I-159099J159099D01*
G01*
X179443033Y-185224785D01*
G75*
G02*
X179443033Y-184906587I159099J159099D01*
G01*
G37*
%TD*%
%TO.C,C321*%
G36*
G01*
X209400000Y-187650000D02*
X208900000Y-187650000D01*
G75*
G02*
X208675000Y-187425000I0J225000D01*
G01*
X208675000Y-186975000D01*
G75*
G02*
X208900000Y-186750000I225000J0D01*
G01*
X209400000Y-186750000D01*
G75*
G02*
X209625000Y-186975000I0J-225000D01*
G01*
X209625000Y-187425000D01*
G75*
G02*
X209400000Y-187650000I-225000J0D01*
G01*
G37*
G36*
G01*
X209400000Y-189200000D02*
X208900000Y-189200000D01*
G75*
G02*
X208675000Y-188975000I0J225000D01*
G01*
X208675000Y-188525000D01*
G75*
G02*
X208900000Y-188300000I225000J0D01*
G01*
X209400000Y-188300000D01*
G75*
G02*
X209625000Y-188525000I0J-225000D01*
G01*
X209625000Y-188975000D01*
G75*
G02*
X209400000Y-189200000I-225000J0D01*
G01*
G37*
%TD*%
%TO.C,C320*%
G36*
G01*
X224775000Y-185800000D02*
X224775000Y-186300000D01*
G75*
G02*
X224550000Y-186525000I-225000J0D01*
G01*
X224100000Y-186525000D01*
G75*
G02*
X223875000Y-186300000I0J225000D01*
G01*
X223875000Y-185800000D01*
G75*
G02*
X224100000Y-185575000I225000J0D01*
G01*
X224550000Y-185575000D01*
G75*
G02*
X224775000Y-185800000I0J-225000D01*
G01*
G37*
G36*
G01*
X226325000Y-185800000D02*
X226325000Y-186300000D01*
G75*
G02*
X226100000Y-186525000I-225000J0D01*
G01*
X225650000Y-186525000D01*
G75*
G02*
X225425000Y-186300000I0J225000D01*
G01*
X225425000Y-185800000D01*
G75*
G02*
X225650000Y-185575000I225000J0D01*
G01*
X226100000Y-185575000D01*
G75*
G02*
X226325000Y-185800000I0J-225000D01*
G01*
G37*
%TD*%
%TO.C,C315*%
G36*
G01*
X231082983Y-184889429D02*
X230729429Y-185242983D01*
G75*
G02*
X230411231Y-185242983I-159099J159099D01*
G01*
X230093033Y-184924785D01*
G75*
G02*
X230093033Y-184606587I159099J159099D01*
G01*
X230446587Y-184253033D01*
G75*
G02*
X230764785Y-184253033I159099J-159099D01*
G01*
X231082983Y-184571231D01*
G75*
G02*
X231082983Y-184889429I-159099J-159099D01*
G01*
G37*
G36*
G01*
X229986967Y-183793413D02*
X229633413Y-184146967D01*
G75*
G02*
X229315215Y-184146967I-159099J159099D01*
G01*
X228997017Y-183828769D01*
G75*
G02*
X228997017Y-183510571I159099J159099D01*
G01*
X229350571Y-183157017D01*
G75*
G02*
X229668769Y-183157017I159099J-159099D01*
G01*
X229986967Y-183475215D01*
G75*
G02*
X229986967Y-183793413I-159099J-159099D01*
G01*
G37*
%TD*%
%TO.C,C309*%
G36*
G01*
X232111441Y-183863471D02*
X231757887Y-184217025D01*
G75*
G02*
X231439689Y-184217025I-159099J159099D01*
G01*
X231121491Y-183898827D01*
G75*
G02*
X231121491Y-183580629I159099J159099D01*
G01*
X231475045Y-183227075D01*
G75*
G02*
X231793243Y-183227075I159099J-159099D01*
G01*
X232111441Y-183545273D01*
G75*
G02*
X232111441Y-183863471I-159099J-159099D01*
G01*
G37*
G36*
G01*
X231015425Y-182767455D02*
X230661871Y-183121009D01*
G75*
G02*
X230343673Y-183121009I-159099J159099D01*
G01*
X230025475Y-182802811D01*
G75*
G02*
X230025475Y-182484613I159099J159099D01*
G01*
X230379029Y-182131059D01*
G75*
G02*
X230697227Y-182131059I159099J-159099D01*
G01*
X231015425Y-182449257D01*
G75*
G02*
X231015425Y-182767455I-159099J-159099D01*
G01*
G37*
%TD*%
%TO.C,C202*%
G36*
G01*
X229975000Y-131100000D02*
X229975000Y-131600000D01*
G75*
G02*
X229750000Y-131825000I-225000J0D01*
G01*
X229300000Y-131825000D01*
G75*
G02*
X229075000Y-131600000I0J225000D01*
G01*
X229075000Y-131100000D01*
G75*
G02*
X229300000Y-130875000I225000J0D01*
G01*
X229750000Y-130875000D01*
G75*
G02*
X229975000Y-131100000I0J-225000D01*
G01*
G37*
G36*
G01*
X231525000Y-131100000D02*
X231525000Y-131600000D01*
G75*
G02*
X231300000Y-131825000I-225000J0D01*
G01*
X230850000Y-131825000D01*
G75*
G02*
X230625000Y-131600000I0J225000D01*
G01*
X230625000Y-131100000D01*
G75*
G02*
X230850000Y-130875000I225000J0D01*
G01*
X231300000Y-130875000D01*
G75*
G02*
X231525000Y-131100000I0J-225000D01*
G01*
G37*
%TD*%
%TO.C,C201*%
G36*
G01*
X230075000Y-116300000D02*
X230075000Y-116800000D01*
G75*
G02*
X229850000Y-117025000I-225000J0D01*
G01*
X229400000Y-117025000D01*
G75*
G02*
X229175000Y-116800000I0J225000D01*
G01*
X229175000Y-116300000D01*
G75*
G02*
X229400000Y-116075000I225000J0D01*
G01*
X229850000Y-116075000D01*
G75*
G02*
X230075000Y-116300000I0J-225000D01*
G01*
G37*
G36*
G01*
X231625000Y-116300000D02*
X231625000Y-116800000D01*
G75*
G02*
X231400000Y-117025000I-225000J0D01*
G01*
X230950000Y-117025000D01*
G75*
G02*
X230725000Y-116800000I0J225000D01*
G01*
X230725000Y-116300000D01*
G75*
G02*
X230950000Y-116075000I225000J0D01*
G01*
X231400000Y-116075000D01*
G75*
G02*
X231625000Y-116300000I0J-225000D01*
G01*
G37*
%TD*%
D26*
%TO.C,X601*%
X233800000Y-141360000D03*
X231260000Y-138820000D03*
X231260000Y-143900000D03*
X236340000Y-143900000D03*
X236340000Y-138820000D03*
%TD*%
D33*
%TO.C,J201*%
X235453000Y-118235000D03*
X230297000Y-118235000D03*
X235453000Y-119505000D03*
X230297000Y-119505000D03*
X235453000Y-120775000D03*
X230297000Y-120775000D03*
X235453000Y-122045000D03*
X230297000Y-122045000D03*
X235453000Y-123315000D03*
X230297000Y-123315000D03*
X235453000Y-124585000D03*
X230297000Y-124585000D03*
X235453000Y-125855000D03*
X230297000Y-125855000D03*
X230297000Y-127125000D03*
X235453000Y-128395000D03*
X230297000Y-128395000D03*
X235453000Y-129665000D03*
X230297000Y-129665000D03*
%TD*%
D34*
%TO.C,REF\u002A\u002A*%
X231547056Y-68302944D03*
X229850000Y-67600000D03*
X228152944Y-68302944D03*
X227450000Y-70000000D03*
X228152944Y-71697056D03*
X229850000Y-72400000D03*
X231547056Y-71697056D03*
X232250000Y-70000000D03*
D35*
X229850000Y-70000000D03*
%TD*%
D34*
%TO.C,REF\u002A\u002A*%
X181697056Y-68302944D03*
X180000000Y-67600000D03*
X178302944Y-68302944D03*
X177600000Y-70000000D03*
X178302944Y-71697056D03*
X180000000Y-72400000D03*
X181697056Y-71697056D03*
X182400000Y-70000000D03*
D35*
X180000000Y-70000000D03*
%TD*%
D34*
%TO.C,REF\u002A\u002A*%
X181697056Y-220702944D03*
X180000000Y-220000000D03*
X178302944Y-220702944D03*
X177600000Y-222400000D03*
X178302944Y-224097056D03*
X180000000Y-224800000D03*
X181697056Y-224097056D03*
X182400000Y-222400000D03*
D35*
X180000000Y-222400000D03*
%TD*%
D34*
%TO.C,REF\u002A\u002A*%
X231547056Y-220652144D03*
X229850000Y-219949200D03*
X228152944Y-220652144D03*
X227450000Y-222349200D03*
X228152944Y-224046256D03*
X229850000Y-224749200D03*
X231547056Y-224046256D03*
X232250000Y-222349200D03*
D35*
X229850000Y-222349200D03*
%TD*%
M02*
