%TF.GenerationSoftware,KiCad,Pcbnew,6.0.1*%
%TF.CreationDate,2022-02-08T14:36:58-06:00*%
%TF.ProjectId,FCB,4643422e-6b69-4636-9164-5f7063625858,rev?*%
%TF.SameCoordinates,Original*%
%TF.FileFunction,Paste,Bot*%
%TF.FilePolarity,Positive*%
%FSLAX46Y46*%
G04 Gerber Fmt 4.6, Leading zero omitted, Abs format (unit mm)*
G04 Created by KiCad (PCBNEW 6.0.1) date 2022-02-08 14:36:58*
%MOMM*%
%LPD*%
G01*
G04 APERTURE LIST*
%ADD10R,3.150000X1.000000*%
%ADD11R,3.500000X3.300000*%
G04 APERTURE END LIST*
D10*
%TO.C,J2*%
X27475000Y-6970000D03*
X32525000Y-6970000D03*
X27475000Y-4430000D03*
X32525000Y-4430000D03*
X27475000Y-1890000D03*
X32525000Y-1890000D03*
X27475000Y650000D03*
X32525000Y650000D03*
X27475000Y3190000D03*
X32525000Y3190000D03*
X27475000Y5730000D03*
X32525000Y5730000D03*
X27475000Y8270000D03*
X32525000Y8270000D03*
X27475000Y10810000D03*
X32525000Y10810000D03*
X27475000Y13350000D03*
X32525000Y13350000D03*
X27475000Y15890000D03*
X32525000Y15890000D03*
X27475000Y18430000D03*
X32525000Y18430000D03*
X27475000Y20970000D03*
X32525000Y20970000D03*
%TD*%
%TO.C,J4*%
X-27475000Y20970000D03*
X-32525000Y20970000D03*
X-27475000Y18430000D03*
X-32525000Y18430000D03*
X-27475000Y15890000D03*
X-32525000Y15890000D03*
X-27475000Y13350000D03*
X-32525000Y13350000D03*
X-27475000Y10810000D03*
X-32525000Y10810000D03*
X-27475000Y8270000D03*
X-32525000Y8270000D03*
X-27475000Y5730000D03*
X-32525000Y5730000D03*
X-27475000Y3190000D03*
X-32525000Y3190000D03*
X-27475000Y650000D03*
X-32525000Y650000D03*
X-27475000Y-1890000D03*
X-32525000Y-1890000D03*
X-27475000Y-4430000D03*
X-32525000Y-4430000D03*
X-27475000Y-6970000D03*
X-32525000Y-6970000D03*
%TD*%
D11*
%TO.C,BT1*%
X8800000Y18750000D03*
X-7000000Y18750000D03*
%TD*%
M02*
