%TF.GenerationSoftware,KiCad,Pcbnew,6.0.1*%
%TF.CreationDate,2022-02-08T14:36:59-06:00*%
%TF.ProjectId,FCB,4643422e-6b69-4636-9164-5f7063625858,rev?*%
%TF.SameCoordinates,Original*%
%TF.FileFunction,Soldermask,Bot*%
%TF.FilePolarity,Negative*%
%FSLAX46Y46*%
G04 Gerber Fmt 4.6, Leading zero omitted, Abs format (unit mm)*
G04 Created by KiCad (PCBNEW 6.0.1) date 2022-02-08 14:36:59*
%MOMM*%
%LPD*%
G01*
G04 APERTURE LIST*
%ADD10C,0.300000*%
%ADD11C,1.524000*%
%ADD12R,1.600000X1.600000*%
%ADD13C,1.600000*%
%ADD14R,3.150000X1.000000*%
%ADD15R,3.500000X3.300000*%
%ADD16C,10.200000*%
G04 APERTURE END LIST*
D10*
X229957142Y-81150000D02*
X230671428Y-81150000D01*
X229814285Y-81578571D02*
X230314285Y-80078571D01*
X230814285Y-81578571D01*
X231314285Y-81578571D02*
X231314285Y-80578571D01*
X231314285Y-80864285D02*
X231385714Y-80721428D01*
X231457142Y-80650000D01*
X231600000Y-80578571D01*
X231742857Y-80578571D01*
X232885714Y-81578571D02*
X232885714Y-80078571D01*
X232885714Y-81507142D02*
X232742857Y-81578571D01*
X232457142Y-81578571D01*
X232314285Y-81507142D01*
X232242857Y-81435714D01*
X232171428Y-81292857D01*
X232171428Y-80864285D01*
X232242857Y-80721428D01*
X232314285Y-80650000D01*
X232457142Y-80578571D01*
X232742857Y-80578571D01*
X232885714Y-80650000D01*
X234242857Y-80578571D02*
X234242857Y-81578571D01*
X233600000Y-80578571D02*
X233600000Y-81364285D01*
X233671428Y-81507142D01*
X233814285Y-81578571D01*
X234028571Y-81578571D01*
X234171428Y-81507142D01*
X234242857Y-81435714D01*
X234957142Y-81578571D02*
X234957142Y-80578571D01*
X234957142Y-80078571D02*
X234885714Y-80150000D01*
X234957142Y-80221428D01*
X235028571Y-80150000D01*
X234957142Y-80078571D01*
X234957142Y-80221428D01*
X235671428Y-80578571D02*
X235671428Y-81578571D01*
X235671428Y-80721428D02*
X235742857Y-80650000D01*
X235885714Y-80578571D01*
X236100000Y-80578571D01*
X236242857Y-80650000D01*
X236314285Y-80792857D01*
X236314285Y-81578571D01*
X237242857Y-81578571D02*
X237100000Y-81507142D01*
X237028571Y-81435714D01*
X236957142Y-81292857D01*
X236957142Y-80864285D01*
X237028571Y-80721428D01*
X237100000Y-80650000D01*
X237242857Y-80578571D01*
X237457142Y-80578571D01*
X237600000Y-80650000D01*
X237671428Y-80721428D01*
X237742857Y-80864285D01*
X237742857Y-81292857D01*
X237671428Y-81435714D01*
X237600000Y-81507142D01*
X237457142Y-81578571D01*
X237242857Y-81578571D01*
X240028571Y-80792857D02*
X239528571Y-80792857D01*
X239528571Y-81578571D02*
X239528571Y-80078571D01*
X240242857Y-80078571D01*
X241385714Y-81507142D02*
X241242857Y-81578571D01*
X240957142Y-81578571D01*
X240814285Y-81507142D01*
X240742857Y-81364285D01*
X240742857Y-80792857D01*
X240814285Y-80650000D01*
X240957142Y-80578571D01*
X241242857Y-80578571D01*
X241385714Y-80650000D01*
X241457142Y-80792857D01*
X241457142Y-80935714D01*
X240742857Y-81078571D01*
X242742857Y-81578571D02*
X242742857Y-80792857D01*
X242671428Y-80650000D01*
X242528571Y-80578571D01*
X242242857Y-80578571D01*
X242100000Y-80650000D01*
X242742857Y-81507142D02*
X242600000Y-81578571D01*
X242242857Y-81578571D01*
X242100000Y-81507142D01*
X242028571Y-81364285D01*
X242028571Y-81221428D01*
X242100000Y-81078571D01*
X242242857Y-81007142D01*
X242600000Y-81007142D01*
X242742857Y-80935714D01*
X243242857Y-80578571D02*
X243814285Y-80578571D01*
X243457142Y-80078571D02*
X243457142Y-81364285D01*
X243528571Y-81507142D01*
X243671428Y-81578571D01*
X243814285Y-81578571D01*
X244314285Y-81578571D02*
X244314285Y-80078571D01*
X244957142Y-81578571D02*
X244957142Y-80792857D01*
X244885714Y-80650000D01*
X244742857Y-80578571D01*
X244528571Y-80578571D01*
X244385714Y-80650000D01*
X244314285Y-80721428D01*
X246242857Y-81507142D02*
X246100000Y-81578571D01*
X245814285Y-81578571D01*
X245671428Y-81507142D01*
X245600000Y-81364285D01*
X245600000Y-80792857D01*
X245671428Y-80650000D01*
X245814285Y-80578571D01*
X246100000Y-80578571D01*
X246242857Y-80650000D01*
X246314285Y-80792857D01*
X246314285Y-80935714D01*
X245600000Y-81078571D01*
X246957142Y-81578571D02*
X246957142Y-80578571D01*
X246957142Y-80864285D02*
X247028571Y-80721428D01*
X247100000Y-80650000D01*
X247242857Y-80578571D01*
X247385714Y-80578571D01*
X183578571Y-83178571D02*
X183078571Y-82464285D01*
X182721428Y-83178571D02*
X182721428Y-81678571D01*
X183292857Y-81678571D01*
X183435714Y-81750000D01*
X183507142Y-81821428D01*
X183578571Y-81964285D01*
X183578571Y-82178571D01*
X183507142Y-82321428D01*
X183435714Y-82392857D01*
X183292857Y-82464285D01*
X182721428Y-82464285D01*
X184721428Y-82392857D02*
X184221428Y-82392857D01*
X184221428Y-83178571D02*
X184221428Y-81678571D01*
X184935714Y-81678571D01*
X185507142Y-83178571D02*
X185507142Y-81678571D01*
X186007142Y-82750000D01*
X186507142Y-81678571D01*
X186507142Y-83178571D01*
X187292857Y-83178571D02*
X187578571Y-83178571D01*
X187721428Y-83107142D01*
X187792857Y-83035714D01*
X187935714Y-82821428D01*
X188007142Y-82535714D01*
X188007142Y-81964285D01*
X187935714Y-81821428D01*
X187864285Y-81750000D01*
X187721428Y-81678571D01*
X187435714Y-81678571D01*
X187292857Y-81750000D01*
X187221428Y-81821428D01*
X187150000Y-81964285D01*
X187150000Y-82321428D01*
X187221428Y-82464285D01*
X187292857Y-82535714D01*
X187435714Y-82607142D01*
X187721428Y-82607142D01*
X187864285Y-82535714D01*
X187935714Y-82464285D01*
X188007142Y-82321428D01*
X189292857Y-81678571D02*
X189007142Y-81678571D01*
X188864285Y-81750000D01*
X188792857Y-81821428D01*
X188650000Y-82035714D01*
X188578571Y-82321428D01*
X188578571Y-82892857D01*
X188650000Y-83035714D01*
X188721428Y-83107142D01*
X188864285Y-83178571D01*
X189150000Y-83178571D01*
X189292857Y-83107142D01*
X189364285Y-83035714D01*
X189435714Y-82892857D01*
X189435714Y-82535714D01*
X189364285Y-82392857D01*
X189292857Y-82321428D01*
X189150000Y-82250000D01*
X188864285Y-82250000D01*
X188721428Y-82321428D01*
X188650000Y-82392857D01*
X188578571Y-82535714D01*
X192078571Y-83178571D02*
X191578571Y-82464285D01*
X191221428Y-83178571D02*
X191221428Y-81678571D01*
X191792857Y-81678571D01*
X191935714Y-81750000D01*
X192007142Y-81821428D01*
X192078571Y-81964285D01*
X192078571Y-82178571D01*
X192007142Y-82321428D01*
X191935714Y-82392857D01*
X191792857Y-82464285D01*
X191221428Y-82464285D01*
X193364285Y-83178571D02*
X193364285Y-82392857D01*
X193292857Y-82250000D01*
X193150000Y-82178571D01*
X192864285Y-82178571D01*
X192721428Y-82250000D01*
X193364285Y-83107142D02*
X193221428Y-83178571D01*
X192864285Y-83178571D01*
X192721428Y-83107142D01*
X192650000Y-82964285D01*
X192650000Y-82821428D01*
X192721428Y-82678571D01*
X192864285Y-82607142D01*
X193221428Y-82607142D01*
X193364285Y-82535714D01*
X194721428Y-83178571D02*
X194721428Y-81678571D01*
X194721428Y-83107142D02*
X194578571Y-83178571D01*
X194292857Y-83178571D01*
X194150000Y-83107142D01*
X194078571Y-83035714D01*
X194007142Y-82892857D01*
X194007142Y-82464285D01*
X194078571Y-82321428D01*
X194150000Y-82250000D01*
X194292857Y-82178571D01*
X194578571Y-82178571D01*
X194721428Y-82250000D01*
X195435714Y-83178571D02*
X195435714Y-82178571D01*
X195435714Y-81678571D02*
X195364285Y-81750000D01*
X195435714Y-81821428D01*
X195507142Y-81750000D01*
X195435714Y-81678571D01*
X195435714Y-81821428D01*
X196364285Y-83178571D02*
X196221428Y-83107142D01*
X196150000Y-83035714D01*
X196078571Y-82892857D01*
X196078571Y-82464285D01*
X196150000Y-82321428D01*
X196221428Y-82250000D01*
X196364285Y-82178571D01*
X196578571Y-82178571D01*
X196721428Y-82250000D01*
X196792857Y-82321428D01*
X196864285Y-82464285D01*
X196864285Y-82892857D01*
X196792857Y-83035714D01*
X196721428Y-83107142D01*
X196578571Y-83178571D01*
X196364285Y-83178571D01*
X198649999Y-83178571D02*
X198649999Y-82178571D01*
X198649999Y-82321428D02*
X198721428Y-82250000D01*
X198864285Y-82178571D01*
X199078571Y-82178571D01*
X199221428Y-82250000D01*
X199292857Y-82392857D01*
X199292857Y-83178571D01*
X199292857Y-82392857D02*
X199364285Y-82250000D01*
X199507142Y-82178571D01*
X199721428Y-82178571D01*
X199864285Y-82250000D01*
X199935714Y-82392857D01*
X199935714Y-83178571D01*
X200864285Y-83178571D02*
X200721428Y-83107142D01*
X200650000Y-83035714D01*
X200578571Y-82892857D01*
X200578571Y-82464285D01*
X200650000Y-82321428D01*
X200721428Y-82250000D01*
X200864285Y-82178571D01*
X201078571Y-82178571D01*
X201221428Y-82250000D01*
X201292857Y-82321428D01*
X201364285Y-82464285D01*
X201364285Y-82892857D01*
X201292857Y-83035714D01*
X201221428Y-83107142D01*
X201078571Y-83178571D01*
X200864285Y-83178571D01*
X202650000Y-83178571D02*
X202650000Y-81678571D01*
X202650000Y-83107142D02*
X202507142Y-83178571D01*
X202221428Y-83178571D01*
X202078571Y-83107142D01*
X202007142Y-83035714D01*
X201935714Y-82892857D01*
X201935714Y-82464285D01*
X202007142Y-82321428D01*
X202078571Y-82250000D01*
X202221428Y-82178571D01*
X202507142Y-82178571D01*
X202650000Y-82250000D01*
X204007142Y-82178571D02*
X204007142Y-83178571D01*
X203364285Y-82178571D02*
X203364285Y-82964285D01*
X203435714Y-83107142D01*
X203578571Y-83178571D01*
X203792857Y-83178571D01*
X203935714Y-83107142D01*
X204007142Y-83035714D01*
X204935714Y-83178571D02*
X204792857Y-83107142D01*
X204721428Y-82964285D01*
X204721428Y-81678571D01*
X206078571Y-83107142D02*
X205935714Y-83178571D01*
X205650000Y-83178571D01*
X205507142Y-83107142D01*
X205435714Y-82964285D01*
X205435714Y-82392857D01*
X205507142Y-82250000D01*
X205650000Y-82178571D01*
X205935714Y-82178571D01*
X206078571Y-82250000D01*
X206150000Y-82392857D01*
X206150000Y-82535714D01*
X205435714Y-82678571D01*
D11*
%TO.C,U1*%
X-11300000Y10100000D03*
X-8760000Y10100000D03*
X-6236998Y10100112D03*
X-3691332Y10100112D03*
X-1145666Y10100112D03*
X1400000Y10100112D03*
X3905890Y10100112D03*
X6451556Y10100112D03*
X9020000Y10100000D03*
X11560000Y10100000D03*
X14088555Y12645779D03*
X14100000Y15180000D03*
X14088555Y17737111D03*
X14088555Y20282778D03*
X14088555Y22828444D03*
X14088555Y25374110D03*
X14088555Y27880000D03*
X14088555Y30266562D03*
X11542889Y32971332D03*
X8997222Y32971332D03*
X6451556Y32971332D03*
X3905890Y32971332D03*
X1400000Y32971332D03*
X-1145666Y32971332D03*
X-3691332Y32971332D03*
X-6236998Y32971332D03*
X-8760000Y32960000D03*
X-11300000Y32960000D03*
X-13913773Y30425666D03*
X-13873997Y27880000D03*
X-13873997Y25340000D03*
X-13873997Y22800000D03*
X-13840000Y20260000D03*
X-13873997Y17737111D03*
X-13873997Y15191445D03*
X-13873997Y12645779D03*
%TD*%
D12*
%TO.C,U2*%
X-28575000Y-26820000D03*
D13*
X-26035000Y-26820000D03*
X-23495000Y-26820000D03*
X-20955000Y-26820000D03*
X-18415000Y-26820000D03*
X-15875000Y-26820000D03*
X-13335000Y-26820000D03*
X-10795000Y-26820000D03*
X-8255000Y-26820000D03*
X-5715000Y-26820000D03*
X-3175000Y-26820000D03*
X-635000Y-26820000D03*
X1905000Y-26820000D03*
X4445000Y-26820000D03*
X6985000Y-26820000D03*
X9525000Y-26820000D03*
X12065000Y-26820000D03*
X14605000Y-26820000D03*
X17145000Y-26820000D03*
X19685000Y-26820000D03*
X22225000Y-26820000D03*
X24765000Y-26820000D03*
X27305000Y-26820000D03*
X29845000Y-26820000D03*
X29845000Y-11580000D03*
X27305000Y-11580000D03*
X24765000Y-11580000D03*
X22225000Y-11580000D03*
X19685000Y-11580000D03*
X17145000Y-11580000D03*
X14605000Y-11580000D03*
X12065000Y-11580000D03*
X9525000Y-11580000D03*
X6985000Y-11580000D03*
X4445000Y-11580000D03*
X1905000Y-11580000D03*
X-635000Y-11580000D03*
X-3175000Y-11580000D03*
X-5715000Y-11580000D03*
X-8255000Y-11580000D03*
X-10795000Y-11580000D03*
X-13335000Y-11580000D03*
X-15875000Y-11580000D03*
X-18415000Y-11580000D03*
X-20955000Y-11580000D03*
X-23495000Y-11580000D03*
X-26035000Y-11580000D03*
X-28575000Y-11580000D03*
%TD*%
D14*
%TO.C,J2*%
X27475000Y-6970000D03*
X32525000Y-6970000D03*
X27475000Y-4430000D03*
X32525000Y-4430000D03*
X27475000Y-1890000D03*
X32525000Y-1890000D03*
X27475000Y650000D03*
X32525000Y650000D03*
X27475000Y3190000D03*
X32525000Y3190000D03*
X27475000Y5730000D03*
X32525000Y5730000D03*
X27475000Y8270000D03*
X32525000Y8270000D03*
X27475000Y10810000D03*
X32525000Y10810000D03*
X27475000Y13350000D03*
X32525000Y13350000D03*
X27475000Y15890000D03*
X32525000Y15890000D03*
X27475000Y18430000D03*
X32525000Y18430000D03*
X27475000Y20970000D03*
X32525000Y20970000D03*
%TD*%
%TO.C,J4*%
X-27475000Y20970000D03*
X-32525000Y20970000D03*
X-27475000Y18430000D03*
X-32525000Y18430000D03*
X-27475000Y15890000D03*
X-32525000Y15890000D03*
X-27475000Y13350000D03*
X-32525000Y13350000D03*
X-27475000Y10810000D03*
X-32525000Y10810000D03*
X-27475000Y8270000D03*
X-32525000Y8270000D03*
X-27475000Y5730000D03*
X-32525000Y5730000D03*
X-27475000Y3190000D03*
X-32525000Y3190000D03*
X-27475000Y650000D03*
X-32525000Y650000D03*
X-27475000Y-1890000D03*
X-32525000Y-1890000D03*
X-27475000Y-4430000D03*
X-32525000Y-4430000D03*
X-27475000Y-6970000D03*
X-32525000Y-6970000D03*
%TD*%
D15*
%TO.C,BT1*%
X8800000Y18750000D03*
X-7000000Y18750000D03*
D16*
X900000Y18750000D03*
%TD*%
M02*
