%TF.GenerationSoftware,KiCad,Pcbnew,6.0.1*%
%TF.CreationDate,2022-02-10T21:42:06-06:00*%
%TF.ProjectId,FCB,4643422e-6b69-4636-9164-5f7063625858,rev?*%
%TF.SameCoordinates,Original*%
%TF.FileFunction,Soldermask,Top*%
%TF.FilePolarity,Negative*%
%FSLAX46Y46*%
G04 Gerber Fmt 4.6, Leading zero omitted, Abs format (unit mm)*
G04 Created by KiCad (PCBNEW 6.0.1) date 2022-02-10 21:42:06*
%MOMM*%
%LPD*%
G01*
G04 APERTURE LIST*
G04 Aperture macros list*
%AMRoundRect*
0 Rectangle with rounded corners*
0 $1 Rounding radius*
0 $2 $3 $4 $5 $6 $7 $8 $9 X,Y pos of 4 corners*
0 Add a 4 corners polygon primitive as box body*
4,1,4,$2,$3,$4,$5,$6,$7,$8,$9,$2,$3,0*
0 Add four circle primitives for the rounded corners*
1,1,$1+$1,$2,$3*
1,1,$1+$1,$4,$5*
1,1,$1+$1,$6,$7*
1,1,$1+$1,$8,$9*
0 Add four rect primitives between the rounded corners*
20,1,$1+$1,$2,$3,$4,$5,0*
20,1,$1+$1,$4,$5,$6,$7,0*
20,1,$1+$1,$6,$7,$8,$9,0*
20,1,$1+$1,$8,$9,$2,$3,0*%
G04 Aperture macros list end*
%ADD10RoundRect,0.243750X0.456250X-0.243750X0.456250X0.243750X-0.456250X0.243750X-0.456250X-0.243750X0*%
%ADD11C,1.524000*%
%ADD12C,0.800000*%
%ADD13C,6.400000*%
%ADD14R,3.150000X1.000000*%
%ADD15RoundRect,0.250000X-0.450000X0.262500X-0.450000X-0.262500X0.450000X-0.262500X0.450000X0.262500X0*%
%ADD16R,1.600000X1.600000*%
%ADD17C,1.600000*%
G04 APERTURE END LIST*
D10*
%TO.C,D4*%
X5245000Y-37287500D03*
X5245000Y-35412500D03*
%TD*%
D11*
%TO.C,U1*%
X-11300000Y10100000D03*
X-8760000Y10100000D03*
X-6236998Y10100112D03*
X-3691332Y10100112D03*
X-1145666Y10100112D03*
X1400000Y10100112D03*
X3905890Y10100112D03*
X6451556Y10100112D03*
X9020000Y10100000D03*
X11560000Y10100000D03*
X14088555Y12645779D03*
X14100000Y15180000D03*
X14088555Y17737111D03*
X14088555Y20282778D03*
X14088555Y22828444D03*
X14088555Y25374110D03*
X14088555Y27880000D03*
X14088555Y30266562D03*
X11542889Y32971332D03*
X8997222Y32971332D03*
X6451556Y32971332D03*
X3905890Y32971332D03*
X1400000Y32971332D03*
X-1145666Y32971332D03*
X-3691332Y32971332D03*
X-6236998Y32971332D03*
X-8760000Y32960000D03*
X-11300000Y32960000D03*
X-13913773Y30425666D03*
X-13873997Y27880000D03*
X-13873997Y25340000D03*
X-13873997Y22800000D03*
X-13840000Y20260000D03*
X-13873997Y17737111D03*
X-13873997Y15191445D03*
X-13873997Y12645779D03*
%TD*%
D10*
%TO.C,D2*%
X-3755000Y-37287500D03*
X-3755000Y-35412500D03*
%TD*%
D12*
%TO.C,REF\u002A\u002A*%
X-18440000Y31790000D03*
D13*
X-18440000Y34190000D03*
D12*
X-16742944Y35887056D03*
X-18440000Y36590000D03*
X-20840000Y34190000D03*
X-20137056Y35887056D03*
X-16742944Y32492944D03*
X-20137056Y32492944D03*
X-16040000Y34190000D03*
%TD*%
D14*
%TO.C,J1*%
X32525000Y-6970000D03*
X27475000Y-6970000D03*
X32525000Y-4430000D03*
X27475000Y-4430000D03*
X32525000Y-1890000D03*
X27475000Y-1890000D03*
X32525000Y650000D03*
X27475000Y650000D03*
X32525000Y3190000D03*
X27475000Y3190000D03*
X32525000Y5730000D03*
X27475000Y5730000D03*
X32525000Y8270000D03*
X27475000Y8270000D03*
X32525000Y10810000D03*
X27475000Y10810000D03*
X32525000Y13350000D03*
X27475000Y13350000D03*
X32525000Y15890000D03*
X27475000Y15890000D03*
X32525000Y18430000D03*
X27475000Y18430000D03*
X32525000Y20970000D03*
X27475000Y20970000D03*
%TD*%
D15*
%TO.C,R2*%
X-3800000Y-31400000D03*
X-3800000Y-33225000D03*
%TD*%
D16*
%TO.C,U2*%
X-28575000Y-26820000D03*
D17*
X-26035000Y-26820000D03*
X-23495000Y-26820000D03*
X-20955000Y-26820000D03*
X-18415000Y-26820000D03*
X-15875000Y-26820000D03*
X-13335000Y-26820000D03*
X-10795000Y-26820000D03*
X-8255000Y-26820000D03*
X-5715000Y-26820000D03*
X-3175000Y-26820000D03*
X-635000Y-26820000D03*
X1905000Y-26820000D03*
X4445000Y-26820000D03*
X6985000Y-26820000D03*
X9525000Y-26820000D03*
X12065000Y-26820000D03*
X14605000Y-26820000D03*
X17145000Y-26820000D03*
X19685000Y-26820000D03*
X22225000Y-26820000D03*
X24765000Y-26820000D03*
X27305000Y-26820000D03*
X29845000Y-26820000D03*
X29845000Y-11580000D03*
X27305000Y-11580000D03*
X24765000Y-11580000D03*
X22225000Y-11580000D03*
X19685000Y-11580000D03*
X17145000Y-11580000D03*
X14605000Y-11580000D03*
X12065000Y-11580000D03*
X9525000Y-11580000D03*
X6985000Y-11580000D03*
X4445000Y-11580000D03*
X1905000Y-11580000D03*
X-635000Y-11580000D03*
X-3175000Y-11580000D03*
X-5715000Y-11580000D03*
X-8255000Y-11580000D03*
X-10795000Y-11580000D03*
X-13335000Y-11580000D03*
X-15875000Y-11580000D03*
X-18415000Y-11580000D03*
X-20955000Y-11580000D03*
X-23495000Y-11580000D03*
X-26035000Y-11580000D03*
X-28575000Y-11580000D03*
%TD*%
D13*
%TO.C,REF\u002A\u002A*%
X18460000Y-34300000D03*
D12*
X18460000Y-31900000D03*
X16762944Y-35997056D03*
X18460000Y-36700000D03*
X20860000Y-34300000D03*
X16762944Y-32602944D03*
X16060000Y-34300000D03*
X20157056Y-35997056D03*
X20157056Y-32602944D03*
%TD*%
%TO.C,REF\u002A\u002A*%
X-16732944Y-35997056D03*
X-18430000Y-36700000D03*
X-16030000Y-34300000D03*
X-20127056Y-32602944D03*
X-16732944Y-32602944D03*
X-20830000Y-34300000D03*
X-18430000Y-31900000D03*
D13*
X-18430000Y-34300000D03*
D12*
X-20127056Y-35997056D03*
%TD*%
D15*
%TO.C,R1*%
X-8400000Y-31400000D03*
X-8400000Y-33225000D03*
%TD*%
%TO.C,R4*%
X5200000Y-31400000D03*
X5200000Y-33225000D03*
%TD*%
%TO.C,R3*%
X740000Y-31340000D03*
X740000Y-33165000D03*
%TD*%
D10*
%TO.C,D1*%
X-8355000Y-37265000D03*
X-8355000Y-35390000D03*
%TD*%
%TO.C,D3*%
X770000Y-37227500D03*
X770000Y-35352500D03*
%TD*%
D14*
%TO.C,J3*%
X-32525000Y20970000D03*
X-27475000Y20970000D03*
X-32525000Y18430000D03*
X-27475000Y18430000D03*
X-32525000Y15890000D03*
X-27475000Y15890000D03*
X-32525000Y13350000D03*
X-27475000Y13350000D03*
X-32525000Y10810000D03*
X-27475000Y10810000D03*
X-32525000Y8270000D03*
X-27475000Y8270000D03*
X-32525000Y5730000D03*
X-27475000Y5730000D03*
X-32525000Y3190000D03*
X-27475000Y3190000D03*
X-32525000Y650000D03*
X-27475000Y650000D03*
X-32525000Y-1890000D03*
X-27475000Y-1890000D03*
X-32525000Y-4430000D03*
X-27475000Y-4430000D03*
X-32525000Y-6970000D03*
X-27475000Y-6970000D03*
%TD*%
D12*
%TO.C,REF\u002A\u002A*%
X16752944Y32552944D03*
X18450000Y31850000D03*
X20147056Y35947056D03*
X16752944Y35947056D03*
X16050000Y34250000D03*
X20147056Y32552944D03*
D13*
X18450000Y34250000D03*
D12*
X20850000Y34250000D03*
X18450000Y36650000D03*
%TD*%
M02*
