%TF.GenerationSoftware,KiCad,Pcbnew,5.1.9-73d0e3b20d~88~ubuntu20.04.1*%
%TF.CreationDate,2021-04-18T23:10:18-05:00*%
%TF.ProjectId,COTS,434f5453-2e6b-4696-9361-645f70636258,rev?*%
%TF.SameCoordinates,Original*%
%TF.FileFunction,Profile,NP*%
%FSLAX46Y46*%
G04 Gerber Fmt 4.6, Leading zero omitted, Abs format (unit mm)*
G04 Created by KiCad (PCBNEW 5.1.9-73d0e3b20d~88~ubuntu20.04.1) date 2021-04-18 23:10:18*
%MOMM*%
%LPD*%
G01*
G04 APERTURE LIST*
%TA.AperFunction,Profile*%
%ADD10C,0.200000*%
%TD*%
%TA.AperFunction,Profile*%
%ADD11C,0.150000*%
%TD*%
G04 APERTURE END LIST*
D10*
X179959750Y-69980000D02*
X179959750Y-64980000D01*
X178459750Y-70480000D02*
G75*
G02*
X177959750Y-69980000I0J500000D01*
G01*
X177959750Y-64980000D02*
X177959750Y-69980000D01*
X191570000Y-83580000D02*
X191570000Y-82580000D01*
X206570000Y-82580000D02*
X206570000Y-83580000D01*
X206570000Y-52380000D02*
X206570000Y-51380000D01*
X185570000Y-52380000D02*
X185570000Y-51380000D01*
X212570000Y-83580000D02*
X212570000Y-82580000D01*
X206570000Y-82580000D02*
G75*
G02*
X207070000Y-82080000I500000J0D01*
G01*
X179459750Y-64480000D02*
X178459750Y-64480000D01*
X178459750Y-70480000D02*
X179459750Y-70480000D01*
X186070000Y-84080000D02*
X191070000Y-84080000D01*
X191570000Y-51380000D02*
X191570000Y-52380000D01*
X212070000Y-82080000D02*
X207070000Y-82080000D01*
X177959750Y-64980000D02*
G75*
G02*
X178459750Y-64480000I500000J0D01*
G01*
X207070000Y-50880000D02*
X212070000Y-50880000D01*
X191070000Y-50880000D02*
G75*
G02*
X191570000Y-51380000I0J-500000D01*
G01*
X218180250Y-64980000D02*
X218180250Y-69980000D01*
X212070000Y-50880000D02*
G75*
G02*
X212570000Y-51380000I0J-500000D01*
G01*
X185570000Y-82580000D02*
X185570000Y-83580000D01*
X186070000Y-50880000D02*
X191070000Y-50880000D01*
X207070000Y-84080000D02*
X212070000Y-84080000D01*
X212070000Y-52880000D02*
X207070000Y-52880000D01*
X191070000Y-82080000D02*
X186070000Y-82080000D01*
X219680250Y-64480000D02*
X218680250Y-64480000D01*
X212570000Y-51380000D02*
X212570000Y-52380000D01*
X220180250Y-69980000D02*
X220180250Y-64980000D01*
X191070000Y-82080000D02*
G75*
G02*
X191570000Y-82580000I0J-500000D01*
G01*
X218680250Y-70480000D02*
X219680250Y-70480000D01*
X191070000Y-52880000D02*
X186070000Y-52880000D01*
X185570000Y-82580000D02*
G75*
G02*
X186070000Y-82080000I500000J0D01*
G01*
X179459750Y-64480000D02*
G75*
G02*
X179959750Y-64980000I0J-500000D01*
G01*
X219680250Y-64480000D02*
G75*
G02*
X220180250Y-64980000I0J-500000D01*
G01*
X207070000Y-52880000D02*
G75*
G02*
X206570000Y-52380000I0J500000D01*
G01*
X212070000Y-82080000D02*
G75*
G02*
X212570000Y-82580000I0J-500000D01*
G01*
X191570000Y-83580000D02*
G75*
G02*
X191070000Y-84080000I-500000J0D01*
G01*
X218680250Y-70480000D02*
G75*
G02*
X218180250Y-69980000I0J500000D01*
G01*
X186070000Y-52880000D02*
G75*
G02*
X185570000Y-52380000I0J500000D01*
G01*
X206570000Y-51380000D02*
G75*
G02*
X207070000Y-50880000I500000J0D01*
G01*
X185570000Y-51380000D02*
G75*
G02*
X186070000Y-50880000I500000J0D01*
G01*
X191570000Y-52380000D02*
G75*
G02*
X191070000Y-52880000I-500000J0D01*
G01*
X220180250Y-69980000D02*
G75*
G02*
X219680250Y-70480000I-500000J0D01*
G01*
X212570000Y-52380000D02*
G75*
G02*
X212070000Y-52880000I-500000J0D01*
G01*
X218180250Y-64980000D02*
G75*
G02*
X218680250Y-64480000I500000J0D01*
G01*
X207070000Y-84080000D02*
G75*
G02*
X206570000Y-83580000I0J500000D01*
G01*
X186070000Y-84080000D02*
G75*
G02*
X185570000Y-83580000I0J500000D01*
G01*
X212570000Y-83580000D02*
G75*
G02*
X212070000Y-84080000I-500000J0D01*
G01*
X179959750Y-69980000D02*
G75*
G02*
X179459750Y-70480000I-500000J0D01*
G01*
D11*
X234250000Y-40600000D02*
X234250000Y-199800000D01*
X164400000Y-40600000D02*
G75*
G02*
X166000000Y-39000000I1600000J0D01*
G01*
X232650000Y-201400000D02*
X166000000Y-201400000D01*
X166000000Y-39000000D02*
X232650000Y-39000000D01*
X234250001Y-199800000D02*
G75*
G02*
X232650000Y-201400001I-1600001J0D01*
G01*
X166000000Y-201400000D02*
G75*
G02*
X164400000Y-199800000I0J1600000D01*
G01*
X164400000Y-199800000D02*
X164400000Y-40600000D01*
X232650000Y-39000000D02*
G75*
G02*
X234250000Y-40600000I0J-1600000D01*
G01*
M02*
