%TF.GenerationSoftware,KiCad,Pcbnew,8.0.5*%
%TF.CreationDate,2025-02-04T19:21:07-06:00*%
%TF.ProjectId,Feather1268,46656174-6865-4723-9132-36382e6b6963,rev?*%
%TF.SameCoordinates,Original*%
%TF.FileFunction,Soldermask,Bot*%
%TF.FilePolarity,Negative*%
%FSLAX46Y46*%
G04 Gerber Fmt 4.6, Leading zero omitted, Abs format (unit mm)*
G04 Created by KiCad (PCBNEW 8.0.5) date 2025-02-04 19:21:07*
%MOMM*%
%LPD*%
G01*
G04 APERTURE LIST*
G04 Aperture macros list*
%AMRoundRect*
0 Rectangle with rounded corners*
0 $1 Rounding radius*
0 $2 $3 $4 $5 $6 $7 $8 $9 X,Y pos of 4 corners*
0 Add a 4 corners polygon primitive as box body*
4,1,4,$2,$3,$4,$5,$6,$7,$8,$9,$2,$3,0*
0 Add four circle primitives for the rounded corners*
1,1,$1+$1,$2,$3*
1,1,$1+$1,$4,$5*
1,1,$1+$1,$6,$7*
1,1,$1+$1,$8,$9*
0 Add four rect primitives between the rounded corners*
20,1,$1+$1,$2,$3,$4,$5,0*
20,1,$1+$1,$4,$5,$6,$7,0*
20,1,$1+$1,$6,$7,$8,$9,0*
20,1,$1+$1,$8,$9,$2,$3,0*%
G04 Aperture macros list end*
%ADD10R,0.762800X1.061999*%
%ADD11R,1.061999X0.762800*%
%ADD12RoundRect,0.218750X-0.218750X-0.256250X0.218750X-0.256250X0.218750X0.256250X-0.218750X0.256250X0*%
%ADD13RoundRect,0.250000X0.640000X-1.595000X0.640000X1.595000X-0.640000X1.595000X-0.640000X-1.595000X0*%
%ADD14RoundRect,0.250000X1.082500X-1.595000X1.082500X1.595000X-1.082500X1.595000X-1.082500X-1.595000X0*%
%ADD15C,0.650000*%
%ADD16O,2.100000X1.000000*%
%ADD17O,1.800000X1.000000*%
%ADD18RoundRect,0.225000X-0.250000X0.225000X-0.250000X-0.225000X0.250000X-0.225000X0.250000X0.225000X0*%
%ADD19RoundRect,0.225000X0.250000X-0.225000X0.250000X0.225000X-0.250000X0.225000X-0.250000X-0.225000X0*%
G04 APERTURE END LIST*
D10*
%TO.C,U4*%
X121992500Y-45420600D03*
X123262500Y-45420600D03*
X124532500Y-45420600D03*
X125802500Y-45420600D03*
X127072500Y-45420600D03*
D11*
X129305300Y-43187800D03*
X129305300Y-41917800D03*
X129305300Y-40647800D03*
X129305300Y-39377800D03*
X129305300Y-38107800D03*
D10*
X127072500Y-35875000D03*
X125802500Y-35875000D03*
X124532500Y-35875000D03*
X123262500Y-35875000D03*
X121992500Y-35875000D03*
D11*
X119759700Y-38107800D03*
X119759700Y-39377800D03*
X119759700Y-40647800D03*
X119759700Y-41917800D03*
X119759700Y-43187800D03*
%TD*%
%TO.C,U1*%
X132997200Y-43187800D03*
X132997200Y-41917800D03*
X132997200Y-40647800D03*
X132997200Y-39377800D03*
X132997200Y-38107800D03*
D10*
X135230000Y-35875000D03*
X136500000Y-35875000D03*
X137770000Y-35875000D03*
X139040000Y-35875000D03*
X140310000Y-35875000D03*
D11*
X142542800Y-38107800D03*
X142542800Y-39377800D03*
X142542800Y-40647800D03*
X142542800Y-41917800D03*
X142542800Y-43187800D03*
D10*
X140310000Y-45420600D03*
X139040000Y-45420600D03*
X137770000Y-45420600D03*
X136500000Y-45420600D03*
X135230000Y-45420600D03*
%TD*%
D12*
%TO.C,L2*%
X122005000Y-34275000D03*
X123580000Y-34275000D03*
%TD*%
%TO.C,L1*%
X135242500Y-34275000D03*
X136817500Y-34275000D03*
%TD*%
D13*
%TO.C,J3*%
X121992500Y-29765000D03*
D14*
X125485000Y-29765000D03*
X118500000Y-29765000D03*
%TD*%
D15*
%TO.C,J2*%
X122715000Y-49360000D03*
X122715000Y-55140000D03*
D16*
X123215000Y-47930000D03*
D17*
X119035000Y-47930000D03*
D16*
X123215000Y-56570000D03*
D17*
X119035000Y-56570000D03*
%TD*%
D14*
%TO.C,J1*%
X131737500Y-29765000D03*
X138722500Y-29765000D03*
D13*
X135230000Y-29765000D03*
%TD*%
D18*
%TO.C,C8*%
X118192500Y-43325000D03*
X118192500Y-44875000D03*
%TD*%
%TO.C,C3*%
X131430000Y-44925000D03*
X131430000Y-43375000D03*
%TD*%
%TO.C,C2*%
X131430000Y-41950000D03*
X131430000Y-40400000D03*
%TD*%
D19*
%TO.C,C1*%
X118192500Y-41850000D03*
X118192500Y-40300000D03*
%TD*%
M02*
