%TF.GenerationSoftware,KiCad,Pcbnew,8.0.5*%
%TF.CreationDate,2025-02-04T19:21:07-06:00*%
%TF.ProjectId,Feather1268,46656174-6865-4723-9132-36382e6b6963,rev?*%
%TF.SameCoordinates,Original*%
%TF.FileFunction,Copper,L3,Inr*%
%TF.FilePolarity,Positive*%
%FSLAX46Y46*%
G04 Gerber Fmt 4.6, Leading zero omitted, Abs format (unit mm)*
G04 Created by KiCad (PCBNEW 8.0.5) date 2025-02-04 19:21:07*
%MOMM*%
%LPD*%
G01*
G04 APERTURE LIST*
%TA.AperFunction,ComponentPad*%
%ADD10C,0.970000*%
%TD*%
%TA.AperFunction,ComponentPad*%
%ADD11O,2.100000X1.000000*%
%TD*%
%TA.AperFunction,ComponentPad*%
%ADD12O,1.800000X1.000000*%
%TD*%
%TA.AperFunction,ViaPad*%
%ADD13C,0.600000*%
%TD*%
G04 APERTURE END LIST*
D10*
%TO.N,GND*%
%TO.C,J3*%
X125485000Y-32500000D03*
X118500000Y-32500000D03*
%TD*%
D11*
%TO.N,GND*%
%TO.C,J2*%
X123215000Y-47930000D03*
D12*
X119035000Y-47930000D03*
D11*
X123215000Y-56570000D03*
D12*
X119035000Y-56570000D03*
%TD*%
D10*
%TO.N,GND*%
%TO.C,J1*%
X131737500Y-32500000D03*
X138722500Y-32500000D03*
%TD*%
D13*
%TO.N,+3V3*%
X142100000Y-32775000D03*
X139500000Y-33600000D03*
X140325000Y-32775000D03*
X119388900Y-35825000D03*
%TD*%
%TA.AperFunction,Conductor*%
%TO.N,GND*%
G36*
X143458691Y-28019407D02*
G01*
X143494655Y-28068907D01*
X143499500Y-28099500D01*
X143499500Y-56900500D01*
X143480593Y-56958691D01*
X143431093Y-56994655D01*
X143400500Y-56999500D01*
X117099500Y-56999500D01*
X117041309Y-56980593D01*
X117005345Y-56931093D01*
X117000500Y-56900500D01*
X117000500Y-55064234D01*
X122139500Y-55064234D01*
X122139500Y-55215766D01*
X122174086Y-55344847D01*
X122178720Y-55362139D01*
X122254481Y-55493360D01*
X122254483Y-55493362D01*
X122254485Y-55493365D01*
X122361635Y-55600515D01*
X122361637Y-55600516D01*
X122361639Y-55600518D01*
X122492861Y-55676279D01*
X122492859Y-55676279D01*
X122492863Y-55676280D01*
X122492865Y-55676281D01*
X122639234Y-55715500D01*
X122639236Y-55715500D01*
X122790764Y-55715500D01*
X122790766Y-55715500D01*
X122937135Y-55676281D01*
X122937137Y-55676279D01*
X122937139Y-55676279D01*
X123068360Y-55600518D01*
X123068360Y-55600517D01*
X123068365Y-55600515D01*
X123175515Y-55493365D01*
X123251281Y-55362135D01*
X123290500Y-55215766D01*
X123290500Y-55064234D01*
X123251281Y-54917865D01*
X123251279Y-54917862D01*
X123251279Y-54917860D01*
X123175518Y-54786639D01*
X123175516Y-54786637D01*
X123175515Y-54786635D01*
X123068365Y-54679485D01*
X123068362Y-54679483D01*
X123068360Y-54679481D01*
X122937138Y-54603720D01*
X122937140Y-54603720D01*
X122880347Y-54588503D01*
X122790766Y-54564500D01*
X122639234Y-54564500D01*
X122549652Y-54588503D01*
X122492860Y-54603720D01*
X122361639Y-54679481D01*
X122254481Y-54786639D01*
X122178720Y-54917860D01*
X122178719Y-54917865D01*
X122139500Y-55064234D01*
X117000500Y-55064234D01*
X117000500Y-49284234D01*
X122139500Y-49284234D01*
X122139500Y-49435766D01*
X122174086Y-49564847D01*
X122178720Y-49582139D01*
X122254481Y-49713360D01*
X122254483Y-49713362D01*
X122254485Y-49713365D01*
X122361635Y-49820515D01*
X122361637Y-49820516D01*
X122361639Y-49820518D01*
X122492861Y-49896279D01*
X122492859Y-49896279D01*
X122492863Y-49896280D01*
X122492865Y-49896281D01*
X122639234Y-49935500D01*
X122639236Y-49935500D01*
X122790764Y-49935500D01*
X122790766Y-49935500D01*
X122937135Y-49896281D01*
X122937137Y-49896279D01*
X122937139Y-49896279D01*
X123068360Y-49820518D01*
X123068360Y-49820517D01*
X123068365Y-49820515D01*
X123175515Y-49713365D01*
X123251281Y-49582135D01*
X123290500Y-49435766D01*
X123290500Y-49284234D01*
X123251281Y-49137865D01*
X123251279Y-49137862D01*
X123251279Y-49137860D01*
X123175518Y-49006639D01*
X123175516Y-49006637D01*
X123175515Y-49006635D01*
X123068365Y-48899485D01*
X123068362Y-48899483D01*
X123068360Y-48899481D01*
X122937138Y-48823720D01*
X122937140Y-48823720D01*
X122880347Y-48808503D01*
X122790766Y-48784500D01*
X122639234Y-48784500D01*
X122549652Y-48808503D01*
X122492860Y-48823720D01*
X122361639Y-48899481D01*
X122254481Y-49006639D01*
X122178720Y-49137860D01*
X122178719Y-49137865D01*
X122139500Y-49284234D01*
X117000500Y-49284234D01*
X117000500Y-28099500D01*
X117019407Y-28041309D01*
X117068907Y-28005345D01*
X117099500Y-28000500D01*
X143400500Y-28000500D01*
X143458691Y-28019407D01*
G37*
%TD.AperFunction*%
%TD*%
M02*
