%TF.GenerationSoftware,KiCad,Pcbnew,8.0.5*%
%TF.CreationDate,2025-02-04T19:21:07-06:00*%
%TF.ProjectId,Feather1268,46656174-6865-4723-9132-36382e6b6963,rev?*%
%TF.SameCoordinates,Original*%
%TF.FileFunction,Copper,L4,Bot*%
%TF.FilePolarity,Positive*%
%FSLAX46Y46*%
G04 Gerber Fmt 4.6, Leading zero omitted, Abs format (unit mm)*
G04 Created by KiCad (PCBNEW 8.0.5) date 2025-02-04 19:21:07*
%MOMM*%
%LPD*%
G01*
G04 APERTURE LIST*
G04 Aperture macros list*
%AMRoundRect*
0 Rectangle with rounded corners*
0 $1 Rounding radius*
0 $2 $3 $4 $5 $6 $7 $8 $9 X,Y pos of 4 corners*
0 Add a 4 corners polygon primitive as box body*
4,1,4,$2,$3,$4,$5,$6,$7,$8,$9,$2,$3,0*
0 Add four circle primitives for the rounded corners*
1,1,$1+$1,$2,$3*
1,1,$1+$1,$4,$5*
1,1,$1+$1,$6,$7*
1,1,$1+$1,$8,$9*
0 Add four rect primitives between the rounded corners*
20,1,$1+$1,$2,$3,$4,$5,0*
20,1,$1+$1,$4,$5,$6,$7,0*
20,1,$1+$1,$6,$7,$8,$9,0*
20,1,$1+$1,$8,$9,$2,$3,0*%
G04 Aperture macros list end*
%TA.AperFunction,EtchedComponent*%
%ADD10C,0.460000*%
%TD*%
%TA.AperFunction,SMDPad,CuDef*%
%ADD11R,0.762800X1.061999*%
%TD*%
%TA.AperFunction,SMDPad,CuDef*%
%ADD12R,1.061999X0.762800*%
%TD*%
%TA.AperFunction,SMDPad,CuDef*%
%ADD13RoundRect,0.218750X-0.218750X-0.256250X0.218750X-0.256250X0.218750X0.256250X-0.218750X0.256250X0*%
%TD*%
%TA.AperFunction,SMDPad,CuDef*%
%ADD14RoundRect,0.250000X0.640000X-1.595000X0.640000X1.595000X-0.640000X1.595000X-0.640000X-1.595000X0*%
%TD*%
%TA.AperFunction,ComponentPad*%
%ADD15C,0.970000*%
%TD*%
%TA.AperFunction,SMDPad,CuDef*%
%ADD16RoundRect,0.250000X1.082500X-1.595000X1.082500X1.595000X-1.082500X1.595000X-1.082500X-1.595000X0*%
%TD*%
%TA.AperFunction,ComponentPad*%
%ADD17O,2.100000X1.000000*%
%TD*%
%TA.AperFunction,ComponentPad*%
%ADD18O,1.800000X1.000000*%
%TD*%
%TA.AperFunction,SMDPad,CuDef*%
%ADD19RoundRect,0.225000X-0.250000X0.225000X-0.250000X-0.225000X0.250000X-0.225000X0.250000X0.225000X0*%
%TD*%
%TA.AperFunction,SMDPad,CuDef*%
%ADD20RoundRect,0.225000X0.250000X-0.225000X0.250000X0.225000X-0.250000X0.225000X-0.250000X-0.225000X0*%
%TD*%
%TA.AperFunction,ViaPad*%
%ADD21C,0.600000*%
%TD*%
G04 APERTURE END LIST*
D10*
%TO.C,J3*%
X125485000Y-32500000D02*
X125485000Y-29765000D01*
X118500000Y-32500000D02*
X118500000Y-29765000D01*
%TO.C,J1*%
X131737500Y-32500000D02*
X131737500Y-29765000D01*
X138722500Y-32500000D02*
X138722500Y-29765000D01*
%TD*%
D11*
%TO.P,U4,20,DIO1*%
%TO.N,/E22_DI01_1*%
X121992500Y-45420600D03*
%TO.P,U4,19,DIO2*%
%TO.N,/E22_DI02_1*%
X123262500Y-45420600D03*
%TO.P,U4,18,DIO3*%
%TO.N,/E22_DI03_1*%
X124532500Y-45420600D03*
%TO.P,U4,17,NC*%
%TO.N,unconnected-(U4-NC-Pad17)*%
X125802500Y-45420600D03*
%TO.P,U4,16,GND*%
%TO.N,GND*%
X127072500Y-45420600D03*
D12*
%TO.P,U4,15,SCK*%
%TO.N,/SPI_SCK*%
X129305300Y-43187800D03*
%TO.P,U4,14,NSS*%
%TO.N,/E22_CS_1*%
X129305300Y-41917800D03*
%TO.P,U4,13,MOSI*%
%TO.N,/SPI_MOSI*%
X129305300Y-40647800D03*
%TO.P,U4,12,MISO*%
%TO.N,/SPI_MISO*%
X129305300Y-39377800D03*
%TO.P,U4,11,BUSY*%
%TO.N,/E22_BUSY_1*%
X129305300Y-38107800D03*
D11*
%TO.P,U4,10,RXEN*%
%TO.N,/E22_RXEN_1*%
X127072500Y-35875000D03*
%TO.P,U4,9,TXEN*%
%TO.N,/E22_TXEN_1*%
X125802500Y-35875000D03*
%TO.P,U4,8,NC*%
%TO.N,unconnected-(U4-NC-Pad8)*%
X124532500Y-35875000D03*
%TO.P,U4,7,GND*%
%TO.N,GND*%
X123262500Y-35875000D03*
%TO.P,U4,6,ANT*%
%TO.N,Net-(J3-In)*%
X121992500Y-35875000D03*
D12*
%TO.P,U4,5,NC*%
%TO.N,unconnected-(U4-NC-Pad5)*%
X119759700Y-38107800D03*
%TO.P,U4,4,NC*%
%TO.N,unconnected-(U4-NC-Pad4)*%
X119759700Y-39377800D03*
%TO.P,U4,3,NRST*%
%TO.N,/E22_RESET_1*%
X119759700Y-40647800D03*
%TO.P,U4,2,GND*%
%TO.N,GND*%
X119759700Y-41917800D03*
%TO.P,U4,1,VCC*%
%TO.N,+3V3*%
X119759700Y-43187800D03*
%TD*%
%TO.P,U1,1,VCC*%
%TO.N,+3V3*%
X132997200Y-43187800D03*
%TO.P,U1,2,GND*%
%TO.N,GND*%
X132997200Y-41917800D03*
%TO.P,U1,3,NRST*%
%TO.N,/E22_RESET_0*%
X132997200Y-40647800D03*
%TO.P,U1,4,NC*%
%TO.N,unconnected-(U1-NC-Pad4)*%
X132997200Y-39377800D03*
%TO.P,U1,5,NC*%
%TO.N,unconnected-(U1-NC-Pad5)*%
X132997200Y-38107800D03*
D11*
%TO.P,U1,6,ANT*%
%TO.N,Net-(J1-In)*%
X135230000Y-35875000D03*
%TO.P,U1,7,GND*%
%TO.N,GND*%
X136500000Y-35875000D03*
%TO.P,U1,8,NC*%
%TO.N,unconnected-(U1-NC-Pad8)*%
X137770000Y-35875000D03*
%TO.P,U1,9,TXEN*%
%TO.N,/E22_TXEN_0*%
X139040000Y-35875000D03*
%TO.P,U1,10,RXEN*%
%TO.N,/E22_RXEN_0*%
X140310000Y-35875000D03*
D12*
%TO.P,U1,11,BUSY*%
%TO.N,/E22_BUSY_0*%
X142542800Y-38107800D03*
%TO.P,U1,12,MISO*%
%TO.N,/SPI_MISO*%
X142542800Y-39377800D03*
%TO.P,U1,13,MOSI*%
%TO.N,/SPI_MOSI*%
X142542800Y-40647800D03*
%TO.P,U1,14,NSS*%
%TO.N,/E22_CS_0*%
X142542800Y-41917800D03*
%TO.P,U1,15,SCK*%
%TO.N,/SPI_SCK*%
X142542800Y-43187800D03*
D11*
%TO.P,U1,16,GND*%
%TO.N,GND*%
X140310000Y-45420600D03*
%TO.P,U1,17,NC*%
%TO.N,unconnected-(U1-NC-Pad17)*%
X139040000Y-45420600D03*
%TO.P,U1,18,DIO3*%
%TO.N,/E22_DI03_0*%
X137770000Y-45420600D03*
%TO.P,U1,19,DIO2*%
%TO.N,/E22_DI02_0*%
X136500000Y-45420600D03*
%TO.P,U1,20,DIO1*%
%TO.N,/E22_DI01_0*%
X135230000Y-45420600D03*
%TD*%
D13*
%TO.P,L2,1,1*%
%TO.N,Net-(J3-In)*%
X122005000Y-34275000D03*
%TO.P,L2,2,2*%
%TO.N,GND*%
X123580000Y-34275000D03*
%TD*%
%TO.P,L1,1,1*%
%TO.N,Net-(J1-In)*%
X135242500Y-34275000D03*
%TO.P,L1,2,2*%
%TO.N,GND*%
X136817500Y-34275000D03*
%TD*%
D14*
%TO.P,J3,1,In*%
%TO.N,Net-(J3-In)*%
X121992500Y-29765000D03*
D15*
%TO.P,J3,2,Ext*%
%TO.N,GND*%
X125485000Y-32500000D03*
X118500000Y-32500000D03*
D16*
X125485000Y-29765000D03*
X118500000Y-29765000D03*
%TD*%
D17*
%TO.P,J2,S1,SHIELD*%
%TO.N,GND*%
X123215000Y-47930000D03*
D18*
X119035000Y-47930000D03*
D17*
X123215000Y-56570000D03*
D18*
X119035000Y-56570000D03*
%TD*%
D16*
%TO.P,J1,2,Ext*%
%TO.N,GND*%
X131737500Y-29765000D03*
X138722500Y-29765000D03*
D15*
X131737500Y-32500000D03*
X138722500Y-32500000D03*
D14*
%TO.P,J1,1,In*%
%TO.N,Net-(J1-In)*%
X135230000Y-29765000D03*
%TD*%
D19*
%TO.P,C8,1*%
%TO.N,+3V3*%
X118192500Y-43325000D03*
%TO.P,C8,2*%
%TO.N,GND*%
X118192500Y-44875000D03*
%TD*%
%TO.P,C3,2*%
%TO.N,GND*%
X131430000Y-44925000D03*
%TO.P,C3,1*%
%TO.N,+3V3*%
X131430000Y-43375000D03*
%TD*%
%TO.P,C2,2*%
%TO.N,GND*%
X131430000Y-41950000D03*
%TO.P,C2,1*%
%TO.N,+3V3*%
X131430000Y-40400000D03*
%TD*%
D20*
%TO.P,C1,1*%
%TO.N,+3V3*%
X118192500Y-41850000D03*
%TO.P,C1,2*%
%TO.N,GND*%
X118192500Y-40300000D03*
%TD*%
D21*
%TO.N,+3V3*%
X142100000Y-32775000D03*
X139500000Y-33600000D03*
X140325000Y-32775000D03*
X119388900Y-35825000D03*
%TD*%
%TA.AperFunction,Conductor*%
%TO.N,GND*%
G36*
X120862279Y-28019407D02*
G01*
X120898243Y-28068907D01*
X120902655Y-28108747D01*
X120902000Y-28115728D01*
X120902000Y-31414274D01*
X120904853Y-31444694D01*
X120904855Y-31444703D01*
X120949707Y-31572883D01*
X121030345Y-31682144D01*
X121030347Y-31682146D01*
X121030350Y-31682150D01*
X121030353Y-31682152D01*
X121030355Y-31682154D01*
X121139616Y-31762792D01*
X121139617Y-31762792D01*
X121139618Y-31762793D01*
X121267801Y-31807646D01*
X121298225Y-31810499D01*
X121298227Y-31810500D01*
X121298234Y-31810500D01*
X122686773Y-31810500D01*
X122686773Y-31810499D01*
X122717199Y-31807646D01*
X122845382Y-31762793D01*
X122954650Y-31682150D01*
X123035293Y-31572882D01*
X123080146Y-31444699D01*
X123082999Y-31414273D01*
X123083000Y-31414273D01*
X123083000Y-29708324D01*
X125054500Y-29708324D01*
X125054500Y-32556676D01*
X125083838Y-32666167D01*
X125140514Y-32764333D01*
X125220667Y-32844486D01*
X125318833Y-32901162D01*
X125428324Y-32930500D01*
X125428326Y-32930500D01*
X125541674Y-32930500D01*
X125541676Y-32930500D01*
X125651167Y-32901162D01*
X125749333Y-32844486D01*
X125829486Y-32764333D01*
X125886162Y-32666167D01*
X125915500Y-32556676D01*
X125915500Y-29708324D01*
X131307000Y-29708324D01*
X131307000Y-32556676D01*
X131336338Y-32666167D01*
X131393014Y-32764333D01*
X131473167Y-32844486D01*
X131571333Y-32901162D01*
X131680824Y-32930500D01*
X131680826Y-32930500D01*
X131794174Y-32930500D01*
X131794176Y-32930500D01*
X131903667Y-32901162D01*
X132001833Y-32844486D01*
X132081986Y-32764333D01*
X132138662Y-32666167D01*
X132168000Y-32556676D01*
X132168000Y-29708324D01*
X132138662Y-29598833D01*
X132081986Y-29500667D01*
X132001833Y-29420514D01*
X131903667Y-29363838D01*
X131794176Y-29334500D01*
X131680824Y-29334500D01*
X131571333Y-29363838D01*
X131473167Y-29420514D01*
X131393014Y-29500667D01*
X131336338Y-29598833D01*
X131307000Y-29708324D01*
X125915500Y-29708324D01*
X125886162Y-29598833D01*
X125829486Y-29500667D01*
X125749333Y-29420514D01*
X125651167Y-29363838D01*
X125541676Y-29334500D01*
X125428324Y-29334500D01*
X125318833Y-29363838D01*
X125220667Y-29420514D01*
X125140514Y-29500667D01*
X125083838Y-29598833D01*
X125054500Y-29708324D01*
X123083000Y-29708324D01*
X123083000Y-28115728D01*
X123082345Y-28108747D01*
X123095734Y-28049045D01*
X123141659Y-28008614D01*
X123180912Y-28000500D01*
X134041588Y-28000500D01*
X134099779Y-28019407D01*
X134135743Y-28068907D01*
X134140155Y-28108747D01*
X134139500Y-28115728D01*
X134139500Y-31414274D01*
X134142353Y-31444694D01*
X134142355Y-31444703D01*
X134187207Y-31572883D01*
X134267845Y-31682144D01*
X134267847Y-31682146D01*
X134267850Y-31682150D01*
X134267853Y-31682152D01*
X134267855Y-31682154D01*
X134377116Y-31762792D01*
X134377117Y-31762792D01*
X134377118Y-31762793D01*
X134505301Y-31807646D01*
X134535725Y-31810499D01*
X134535727Y-31810500D01*
X134535734Y-31810500D01*
X135924273Y-31810500D01*
X135924273Y-31810499D01*
X135954699Y-31807646D01*
X136082882Y-31762793D01*
X136192150Y-31682150D01*
X136272793Y-31572882D01*
X136317646Y-31444699D01*
X136320499Y-31414273D01*
X136320500Y-31414273D01*
X136320500Y-29708324D01*
X138292000Y-29708324D01*
X138292000Y-32556676D01*
X138321338Y-32666167D01*
X138378014Y-32764333D01*
X138458167Y-32844486D01*
X138556333Y-32901162D01*
X138665824Y-32930500D01*
X138665826Y-32930500D01*
X138779174Y-32930500D01*
X138779176Y-32930500D01*
X138888667Y-32901162D01*
X138986833Y-32844486D01*
X139066986Y-32764333D01*
X139123662Y-32666167D01*
X139153000Y-32556676D01*
X139153000Y-29708324D01*
X139123662Y-29598833D01*
X139066986Y-29500667D01*
X138986833Y-29420514D01*
X138888667Y-29363838D01*
X138779176Y-29334500D01*
X138665824Y-29334500D01*
X138556333Y-29363838D01*
X138458167Y-29420514D01*
X138378014Y-29500667D01*
X138321338Y-29598833D01*
X138292000Y-29708324D01*
X136320500Y-29708324D01*
X136320500Y-28115728D01*
X136319845Y-28108747D01*
X136333234Y-28049045D01*
X136379159Y-28008614D01*
X136418412Y-28000500D01*
X143400500Y-28000500D01*
X143458691Y-28019407D01*
X143494655Y-28068907D01*
X143499500Y-28099500D01*
X143499500Y-56900500D01*
X143480593Y-56958691D01*
X143431093Y-56994655D01*
X143400500Y-56999500D01*
X117099500Y-56999500D01*
X117041309Y-56980593D01*
X117005345Y-56931093D01*
X117000500Y-56900500D01*
X117000500Y-55064234D01*
X122139500Y-55064234D01*
X122139500Y-55215766D01*
X122174086Y-55344847D01*
X122178720Y-55362139D01*
X122254481Y-55493360D01*
X122254483Y-55493362D01*
X122254485Y-55493365D01*
X122361635Y-55600515D01*
X122361637Y-55600516D01*
X122361639Y-55600518D01*
X122492861Y-55676279D01*
X122492859Y-55676279D01*
X122492863Y-55676280D01*
X122492865Y-55676281D01*
X122639234Y-55715500D01*
X122639236Y-55715500D01*
X122790764Y-55715500D01*
X122790766Y-55715500D01*
X122937135Y-55676281D01*
X122937137Y-55676279D01*
X122937139Y-55676279D01*
X123068360Y-55600518D01*
X123068360Y-55600517D01*
X123068365Y-55600515D01*
X123175515Y-55493365D01*
X123251281Y-55362135D01*
X123290500Y-55215766D01*
X123290500Y-55064234D01*
X123251281Y-54917865D01*
X123251279Y-54917862D01*
X123251279Y-54917860D01*
X123175518Y-54786639D01*
X123175516Y-54786637D01*
X123175515Y-54786635D01*
X123068365Y-54679485D01*
X123068362Y-54679483D01*
X123068360Y-54679481D01*
X122937138Y-54603720D01*
X122937140Y-54603720D01*
X122880347Y-54588503D01*
X122790766Y-54564500D01*
X122639234Y-54564500D01*
X122549652Y-54588503D01*
X122492860Y-54603720D01*
X122361639Y-54679481D01*
X122254481Y-54786639D01*
X122178720Y-54917860D01*
X122178719Y-54917865D01*
X122139500Y-55064234D01*
X117000500Y-55064234D01*
X117000500Y-49284234D01*
X122139500Y-49284234D01*
X122139500Y-49435766D01*
X122174086Y-49564847D01*
X122178720Y-49582139D01*
X122254481Y-49713360D01*
X122254483Y-49713362D01*
X122254485Y-49713365D01*
X122361635Y-49820515D01*
X122361637Y-49820516D01*
X122361639Y-49820518D01*
X122492861Y-49896279D01*
X122492859Y-49896279D01*
X122492863Y-49896280D01*
X122492865Y-49896281D01*
X122639234Y-49935500D01*
X122639236Y-49935500D01*
X122790764Y-49935500D01*
X122790766Y-49935500D01*
X122937135Y-49896281D01*
X122937137Y-49896279D01*
X122937139Y-49896279D01*
X123068360Y-49820518D01*
X123068360Y-49820517D01*
X123068365Y-49820515D01*
X123175515Y-49713365D01*
X123251281Y-49582135D01*
X123290500Y-49435766D01*
X123290500Y-49284234D01*
X123251281Y-49137865D01*
X123251279Y-49137862D01*
X123251279Y-49137860D01*
X123175518Y-49006639D01*
X123175516Y-49006637D01*
X123175515Y-49006635D01*
X123068365Y-48899485D01*
X123068362Y-48899483D01*
X123068360Y-48899481D01*
X122937138Y-48823720D01*
X122937140Y-48823720D01*
X122880347Y-48808503D01*
X122790766Y-48784500D01*
X122639234Y-48784500D01*
X122549652Y-48808503D01*
X122492860Y-48823720D01*
X122361639Y-48899481D01*
X122254481Y-49006639D01*
X122178720Y-49137860D01*
X122178719Y-49137865D01*
X122139500Y-49284234D01*
X117000500Y-49284234D01*
X117000500Y-44869853D01*
X121410600Y-44869853D01*
X121410600Y-45971346D01*
X121410601Y-45971358D01*
X121422232Y-46029827D01*
X121422234Y-46029833D01*
X121439815Y-46056144D01*
X121466548Y-46096152D01*
X121532869Y-46140467D01*
X121577331Y-46149311D01*
X121591341Y-46152098D01*
X121591346Y-46152098D01*
X121591352Y-46152100D01*
X121591353Y-46152100D01*
X122393647Y-46152100D01*
X122393648Y-46152100D01*
X122452131Y-46140467D01*
X122518452Y-46096152D01*
X122545185Y-46056142D01*
X122593234Y-46018264D01*
X122654372Y-46015862D01*
X122705246Y-46049855D01*
X122709804Y-46056128D01*
X122736548Y-46096152D01*
X122802869Y-46140467D01*
X122847331Y-46149311D01*
X122861341Y-46152098D01*
X122861346Y-46152098D01*
X122861352Y-46152100D01*
X122861353Y-46152100D01*
X123663647Y-46152100D01*
X123663648Y-46152100D01*
X123722131Y-46140467D01*
X123788452Y-46096152D01*
X123815185Y-46056142D01*
X123863234Y-46018264D01*
X123924372Y-46015862D01*
X123975246Y-46049855D01*
X123979804Y-46056128D01*
X124006548Y-46096152D01*
X124072869Y-46140467D01*
X124117331Y-46149311D01*
X124131341Y-46152098D01*
X124131346Y-46152098D01*
X124131352Y-46152100D01*
X124131353Y-46152100D01*
X124933647Y-46152100D01*
X124933648Y-46152100D01*
X124992131Y-46140467D01*
X125058452Y-46096152D01*
X125085185Y-46056142D01*
X125133234Y-46018264D01*
X125194372Y-46015862D01*
X125245246Y-46049855D01*
X125249804Y-46056128D01*
X125276548Y-46096152D01*
X125342869Y-46140467D01*
X125387331Y-46149311D01*
X125401341Y-46152098D01*
X125401346Y-46152098D01*
X125401352Y-46152100D01*
X125401353Y-46152100D01*
X126203647Y-46152100D01*
X126203648Y-46152100D01*
X126262131Y-46140467D01*
X126328452Y-46096152D01*
X126372767Y-46029831D01*
X126384400Y-45971348D01*
X126384400Y-44869853D01*
X134648100Y-44869853D01*
X134648100Y-45971346D01*
X134648101Y-45971358D01*
X134659732Y-46029827D01*
X134659734Y-46029833D01*
X134677315Y-46056144D01*
X134704048Y-46096152D01*
X134770369Y-46140467D01*
X134814831Y-46149311D01*
X134828841Y-46152098D01*
X134828846Y-46152098D01*
X134828852Y-46152100D01*
X134828853Y-46152100D01*
X135631147Y-46152100D01*
X135631148Y-46152100D01*
X135689631Y-46140467D01*
X135755952Y-46096152D01*
X135782685Y-46056142D01*
X135830734Y-46018264D01*
X135891872Y-46015862D01*
X135942746Y-46049855D01*
X135947304Y-46056128D01*
X135974048Y-46096152D01*
X136040369Y-46140467D01*
X136084831Y-46149311D01*
X136098841Y-46152098D01*
X136098846Y-46152098D01*
X136098852Y-46152100D01*
X136098853Y-46152100D01*
X136901147Y-46152100D01*
X136901148Y-46152100D01*
X136959631Y-46140467D01*
X137025952Y-46096152D01*
X137052685Y-46056142D01*
X137100734Y-46018264D01*
X137161872Y-46015862D01*
X137212746Y-46049855D01*
X137217304Y-46056128D01*
X137244048Y-46096152D01*
X137310369Y-46140467D01*
X137354831Y-46149311D01*
X137368841Y-46152098D01*
X137368846Y-46152098D01*
X137368852Y-46152100D01*
X137368853Y-46152100D01*
X138171147Y-46152100D01*
X138171148Y-46152100D01*
X138229631Y-46140467D01*
X138295952Y-46096152D01*
X138322685Y-46056142D01*
X138370734Y-46018264D01*
X138431872Y-46015862D01*
X138482746Y-46049855D01*
X138487304Y-46056128D01*
X138514048Y-46096152D01*
X138580369Y-46140467D01*
X138624831Y-46149311D01*
X138638841Y-46152098D01*
X138638846Y-46152098D01*
X138638852Y-46152100D01*
X138638853Y-46152100D01*
X139441147Y-46152100D01*
X139441148Y-46152100D01*
X139499631Y-46140467D01*
X139565952Y-46096152D01*
X139610267Y-46029831D01*
X139621900Y-45971348D01*
X139621900Y-44869852D01*
X139610267Y-44811369D01*
X139565952Y-44745048D01*
X139565948Y-44745045D01*
X139499633Y-44700734D01*
X139499631Y-44700733D01*
X139499628Y-44700732D01*
X139499627Y-44700732D01*
X139441158Y-44689101D01*
X139441148Y-44689100D01*
X138638852Y-44689100D01*
X138638851Y-44689100D01*
X138638841Y-44689101D01*
X138580372Y-44700732D01*
X138580366Y-44700734D01*
X138514051Y-44745045D01*
X138514045Y-44745051D01*
X138487315Y-44785056D01*
X138439265Y-44822935D01*
X138378127Y-44825337D01*
X138327253Y-44791344D01*
X138322685Y-44785056D01*
X138295954Y-44745051D01*
X138295952Y-44745048D01*
X138295948Y-44745045D01*
X138229633Y-44700734D01*
X138229631Y-44700733D01*
X138229628Y-44700732D01*
X138229627Y-44700732D01*
X138171158Y-44689101D01*
X138171148Y-44689100D01*
X137368852Y-44689100D01*
X137368851Y-44689100D01*
X137368841Y-44689101D01*
X137310372Y-44700732D01*
X137310366Y-44700734D01*
X137244051Y-44745045D01*
X137244045Y-44745051D01*
X137217315Y-44785056D01*
X137169265Y-44822935D01*
X137108127Y-44825337D01*
X137057253Y-44791344D01*
X137052685Y-44785056D01*
X137025954Y-44745051D01*
X137025952Y-44745048D01*
X137025948Y-44745045D01*
X136959633Y-44700734D01*
X136959631Y-44700733D01*
X136959628Y-44700732D01*
X136959627Y-44700732D01*
X136901158Y-44689101D01*
X136901148Y-44689100D01*
X136098852Y-44689100D01*
X136098851Y-44689100D01*
X136098841Y-44689101D01*
X136040372Y-44700732D01*
X136040366Y-44700734D01*
X135974051Y-44745045D01*
X135974045Y-44745051D01*
X135947315Y-44785056D01*
X135899265Y-44822935D01*
X135838127Y-44825337D01*
X135787253Y-44791344D01*
X135782685Y-44785056D01*
X135755954Y-44745051D01*
X135755952Y-44745048D01*
X135755948Y-44745045D01*
X135689633Y-44700734D01*
X135689631Y-44700733D01*
X135689628Y-44700732D01*
X135689627Y-44700732D01*
X135631158Y-44689101D01*
X135631148Y-44689100D01*
X134828852Y-44689100D01*
X134828851Y-44689100D01*
X134828841Y-44689101D01*
X134770372Y-44700732D01*
X134770366Y-44700734D01*
X134704051Y-44745045D01*
X134704045Y-44745051D01*
X134659734Y-44811366D01*
X134659732Y-44811372D01*
X134648101Y-44869841D01*
X134648100Y-44869853D01*
X126384400Y-44869853D01*
X126384400Y-44869852D01*
X126372767Y-44811369D01*
X126328452Y-44745048D01*
X126328448Y-44745045D01*
X126262133Y-44700734D01*
X126262131Y-44700733D01*
X126262128Y-44700732D01*
X126262127Y-44700732D01*
X126203658Y-44689101D01*
X126203648Y-44689100D01*
X125401352Y-44689100D01*
X125401351Y-44689100D01*
X125401341Y-44689101D01*
X125342872Y-44700732D01*
X125342866Y-44700734D01*
X125276551Y-44745045D01*
X125276545Y-44745051D01*
X125249815Y-44785056D01*
X125201765Y-44822935D01*
X125140627Y-44825337D01*
X125089753Y-44791344D01*
X125085185Y-44785056D01*
X125058454Y-44745051D01*
X125058452Y-44745048D01*
X125058448Y-44745045D01*
X124992133Y-44700734D01*
X124992131Y-44700733D01*
X124992128Y-44700732D01*
X124992127Y-44700732D01*
X124933658Y-44689101D01*
X124933648Y-44689100D01*
X124131352Y-44689100D01*
X124131351Y-44689100D01*
X124131341Y-44689101D01*
X124072872Y-44700732D01*
X124072866Y-44700734D01*
X124006551Y-44745045D01*
X124006545Y-44745051D01*
X123979815Y-44785056D01*
X123931765Y-44822935D01*
X123870627Y-44825337D01*
X123819753Y-44791344D01*
X123815185Y-44785056D01*
X123788454Y-44745051D01*
X123788452Y-44745048D01*
X123788448Y-44745045D01*
X123722133Y-44700734D01*
X123722131Y-44700733D01*
X123722128Y-44700732D01*
X123722127Y-44700732D01*
X123663658Y-44689101D01*
X123663648Y-44689100D01*
X122861352Y-44689100D01*
X122861351Y-44689100D01*
X122861341Y-44689101D01*
X122802872Y-44700732D01*
X122802866Y-44700734D01*
X122736551Y-44745045D01*
X122736545Y-44745051D01*
X122709815Y-44785056D01*
X122661765Y-44822935D01*
X122600627Y-44825337D01*
X122549753Y-44791344D01*
X122545185Y-44785056D01*
X122518454Y-44745051D01*
X122518452Y-44745048D01*
X122518448Y-44745045D01*
X122452133Y-44700734D01*
X122452131Y-44700733D01*
X122452128Y-44700732D01*
X122452127Y-44700732D01*
X122393658Y-44689101D01*
X122393648Y-44689100D01*
X121591352Y-44689100D01*
X121591351Y-44689100D01*
X121591341Y-44689101D01*
X121532872Y-44700732D01*
X121532866Y-44700734D01*
X121466551Y-44745045D01*
X121466545Y-44745051D01*
X121422234Y-44811366D01*
X121422232Y-44811372D01*
X121410601Y-44869841D01*
X121410600Y-44869853D01*
X117000500Y-44869853D01*
X117000500Y-41591510D01*
X117517000Y-41591510D01*
X117517000Y-42108489D01*
X117532781Y-42208125D01*
X117532783Y-42208132D01*
X117593970Y-42328217D01*
X117593972Y-42328220D01*
X117689280Y-42423528D01*
X117689282Y-42423529D01*
X117809367Y-42484716D01*
X117809369Y-42484716D01*
X117809374Y-42484719D01*
X117840943Y-42489719D01*
X117895459Y-42517497D01*
X117923236Y-42572014D01*
X117913664Y-42632446D01*
X117870399Y-42675710D01*
X117840943Y-42685281D01*
X117809374Y-42690281D01*
X117809367Y-42690283D01*
X117689282Y-42751470D01*
X117593970Y-42846782D01*
X117532783Y-42966867D01*
X117532781Y-42966874D01*
X117517000Y-43066510D01*
X117517000Y-43583489D01*
X117520190Y-43603632D01*
X117525843Y-43639324D01*
X117532781Y-43683125D01*
X117532783Y-43683132D01*
X117593970Y-43803217D01*
X117593972Y-43803220D01*
X117689280Y-43898528D01*
X117689282Y-43898529D01*
X117809367Y-43959716D01*
X117809369Y-43959716D01*
X117809374Y-43959719D01*
X117885041Y-43971703D01*
X117909010Y-43975500D01*
X117909012Y-43975500D01*
X118475990Y-43975500D01*
X118497385Y-43972111D01*
X118575626Y-43959719D01*
X118695720Y-43898528D01*
X118791028Y-43803220D01*
X118846245Y-43694849D01*
X118852216Y-43683132D01*
X118852216Y-43683131D01*
X118852219Y-43683126D01*
X118853291Y-43676355D01*
X118881068Y-43621839D01*
X118935584Y-43594061D01*
X118996016Y-43603632D01*
X119032793Y-43640408D01*
X119034416Y-43639324D01*
X119039833Y-43647431D01*
X119084148Y-43713752D01*
X119150469Y-43758067D01*
X119194931Y-43766911D01*
X119208941Y-43769698D01*
X119208946Y-43769698D01*
X119208952Y-43769700D01*
X119208953Y-43769700D01*
X120310447Y-43769700D01*
X120310448Y-43769700D01*
X120368931Y-43758067D01*
X120435252Y-43713752D01*
X120479567Y-43647431D01*
X120491200Y-43588948D01*
X120491200Y-42786652D01*
X120479567Y-42728169D01*
X120435252Y-42661848D01*
X120435248Y-42661845D01*
X120368933Y-42617534D01*
X120368931Y-42617533D01*
X120368928Y-42617532D01*
X120368927Y-42617532D01*
X120310458Y-42605901D01*
X120310448Y-42605900D01*
X119208952Y-42605900D01*
X119208951Y-42605900D01*
X119208941Y-42605901D01*
X119150472Y-42617532D01*
X119150466Y-42617534D01*
X119084151Y-42661845D01*
X119084145Y-42661851D01*
X119039834Y-42728166D01*
X119039832Y-42728172D01*
X119028201Y-42786641D01*
X119028200Y-42786653D01*
X119028200Y-42899891D01*
X119009293Y-42958082D01*
X118959793Y-42994046D01*
X118898607Y-42994046D01*
X118849107Y-42958082D01*
X118840991Y-42944837D01*
X118791029Y-42846782D01*
X118791028Y-42846780D01*
X118695720Y-42751472D01*
X118695717Y-42751470D01*
X118575632Y-42690283D01*
X118575627Y-42690281D01*
X118575626Y-42690281D01*
X118544056Y-42685280D01*
X118489540Y-42657503D01*
X118461763Y-42602987D01*
X118471335Y-42542555D01*
X118514599Y-42499290D01*
X118544057Y-42489719D01*
X118575626Y-42484719D01*
X118695720Y-42423528D01*
X118791028Y-42328220D01*
X118852219Y-42208126D01*
X118868000Y-42108488D01*
X118868000Y-41591512D01*
X118852219Y-41491874D01*
X118852216Y-41491869D01*
X118852216Y-41491867D01*
X118791029Y-41371782D01*
X118791028Y-41371780D01*
X118695720Y-41276472D01*
X118695717Y-41276470D01*
X118575632Y-41215283D01*
X118575627Y-41215281D01*
X118575626Y-41215281D01*
X118542413Y-41210020D01*
X118475990Y-41199500D01*
X118475988Y-41199500D01*
X117909012Y-41199500D01*
X117909010Y-41199500D01*
X117809374Y-41215281D01*
X117809367Y-41215283D01*
X117689282Y-41276470D01*
X117593970Y-41371782D01*
X117532783Y-41491867D01*
X117532781Y-41491874D01*
X117517000Y-41591510D01*
X117000500Y-41591510D01*
X117000500Y-37706653D01*
X119028200Y-37706653D01*
X119028200Y-38508946D01*
X119028201Y-38508958D01*
X119039832Y-38567427D01*
X119039833Y-38567431D01*
X119084148Y-38633752D01*
X119084151Y-38633754D01*
X119124156Y-38660485D01*
X119162035Y-38708535D01*
X119164437Y-38769673D01*
X119130444Y-38820547D01*
X119124156Y-38825115D01*
X119084151Y-38851845D01*
X119084145Y-38851851D01*
X119039834Y-38918166D01*
X119039832Y-38918172D01*
X119028201Y-38976641D01*
X119028200Y-38976653D01*
X119028200Y-39778946D01*
X119028201Y-39778958D01*
X119037653Y-39826472D01*
X119039833Y-39837431D01*
X119084148Y-39903752D01*
X119084151Y-39903754D01*
X119124156Y-39930485D01*
X119162035Y-39978535D01*
X119164437Y-40039673D01*
X119130444Y-40090547D01*
X119124156Y-40095115D01*
X119084151Y-40121845D01*
X119084145Y-40121851D01*
X119039834Y-40188166D01*
X119039832Y-40188172D01*
X119028201Y-40246641D01*
X119028200Y-40246653D01*
X119028200Y-41048946D01*
X119028201Y-41048958D01*
X119039832Y-41107427D01*
X119039833Y-41107431D01*
X119084148Y-41173752D01*
X119150469Y-41218067D01*
X119194931Y-41226911D01*
X119208941Y-41229698D01*
X119208946Y-41229698D01*
X119208952Y-41229700D01*
X119208953Y-41229700D01*
X120310447Y-41229700D01*
X120310448Y-41229700D01*
X120368931Y-41218067D01*
X120435252Y-41173752D01*
X120479567Y-41107431D01*
X120491200Y-41048948D01*
X120491200Y-40246652D01*
X120479567Y-40188169D01*
X120435252Y-40121848D01*
X120395242Y-40095114D01*
X120357364Y-40047066D01*
X120354962Y-39985928D01*
X120388955Y-39935054D01*
X120395228Y-39930495D01*
X120435252Y-39903752D01*
X120479567Y-39837431D01*
X120491200Y-39778948D01*
X120491200Y-38976652D01*
X120479567Y-38918169D01*
X120435252Y-38851848D01*
X120395242Y-38825114D01*
X120357364Y-38777066D01*
X120354962Y-38715928D01*
X120388955Y-38665054D01*
X120395228Y-38660495D01*
X120435252Y-38633752D01*
X120479567Y-38567431D01*
X120491200Y-38508948D01*
X120491200Y-37706653D01*
X128573800Y-37706653D01*
X128573800Y-38508946D01*
X128573801Y-38508958D01*
X128585432Y-38567427D01*
X128585433Y-38567431D01*
X128629748Y-38633752D01*
X128629751Y-38633754D01*
X128669756Y-38660485D01*
X128707635Y-38708535D01*
X128710037Y-38769673D01*
X128676044Y-38820547D01*
X128669756Y-38825115D01*
X128629751Y-38851845D01*
X128629745Y-38851851D01*
X128585434Y-38918166D01*
X128585432Y-38918172D01*
X128573801Y-38976641D01*
X128573800Y-38976653D01*
X128573800Y-39778946D01*
X128573801Y-39778958D01*
X128583253Y-39826472D01*
X128585433Y-39837431D01*
X128629748Y-39903752D01*
X128629751Y-39903754D01*
X128669756Y-39930485D01*
X128707635Y-39978535D01*
X128710037Y-40039673D01*
X128676044Y-40090547D01*
X128669756Y-40095115D01*
X128629751Y-40121845D01*
X128629745Y-40121851D01*
X128585434Y-40188166D01*
X128585432Y-40188172D01*
X128573801Y-40246641D01*
X128573800Y-40246653D01*
X128573800Y-41048946D01*
X128573801Y-41048958D01*
X128585432Y-41107427D01*
X128585433Y-41107431D01*
X128629748Y-41173752D01*
X128629751Y-41173754D01*
X128669756Y-41200485D01*
X128707635Y-41248535D01*
X128710037Y-41309673D01*
X128676044Y-41360547D01*
X128669756Y-41365115D01*
X128629751Y-41391845D01*
X128629745Y-41391851D01*
X128585434Y-41458166D01*
X128585432Y-41458172D01*
X128573801Y-41516641D01*
X128573800Y-41516653D01*
X128573800Y-42318946D01*
X128573801Y-42318958D01*
X128585432Y-42377427D01*
X128585434Y-42377433D01*
X128616235Y-42423529D01*
X128629748Y-42443752D01*
X128629751Y-42443754D01*
X128669756Y-42470485D01*
X128707635Y-42518535D01*
X128710037Y-42579673D01*
X128676044Y-42630547D01*
X128669756Y-42635115D01*
X128629751Y-42661845D01*
X128629745Y-42661851D01*
X128585434Y-42728166D01*
X128585432Y-42728172D01*
X128573801Y-42786641D01*
X128573800Y-42786653D01*
X128573800Y-43588946D01*
X128573801Y-43588958D01*
X128585432Y-43647427D01*
X128585434Y-43647433D01*
X128609283Y-43683125D01*
X128629748Y-43713752D01*
X128696069Y-43758067D01*
X128740531Y-43766911D01*
X128754541Y-43769698D01*
X128754546Y-43769698D01*
X128754552Y-43769700D01*
X128754553Y-43769700D01*
X129856047Y-43769700D01*
X129856048Y-43769700D01*
X129914531Y-43758067D01*
X129980852Y-43713752D01*
X130025167Y-43647431D01*
X130036800Y-43588948D01*
X130036800Y-43116512D01*
X130754500Y-43116512D01*
X130754500Y-43633488D01*
X130767212Y-43713752D01*
X130770281Y-43733125D01*
X130770283Y-43733132D01*
X130831470Y-43853217D01*
X130831472Y-43853220D01*
X130926780Y-43948528D01*
X130926782Y-43948529D01*
X131046867Y-44009716D01*
X131046869Y-44009716D01*
X131046874Y-44009719D01*
X131122541Y-44021703D01*
X131146510Y-44025500D01*
X131146512Y-44025500D01*
X131713490Y-44025500D01*
X131734885Y-44022111D01*
X131813126Y-44009719D01*
X131933220Y-43948528D01*
X132028528Y-43853220D01*
X132089719Y-43733126D01*
X132097072Y-43686698D01*
X132124849Y-43632183D01*
X132179366Y-43604405D01*
X132239798Y-43613976D01*
X132277168Y-43647184D01*
X132277332Y-43647430D01*
X132277333Y-43647431D01*
X132321648Y-43713752D01*
X132387969Y-43758067D01*
X132432431Y-43766911D01*
X132446441Y-43769698D01*
X132446446Y-43769698D01*
X132446452Y-43769700D01*
X132446453Y-43769700D01*
X133547947Y-43769700D01*
X133547948Y-43769700D01*
X133606431Y-43758067D01*
X133672752Y-43713752D01*
X133717067Y-43647431D01*
X133728700Y-43588948D01*
X133728700Y-42786652D01*
X133717067Y-42728169D01*
X133672752Y-42661848D01*
X133672748Y-42661845D01*
X133606433Y-42617534D01*
X133606431Y-42617533D01*
X133606428Y-42617532D01*
X133606427Y-42617532D01*
X133547958Y-42605901D01*
X133547948Y-42605900D01*
X132446452Y-42605900D01*
X132446451Y-42605900D01*
X132446441Y-42605901D01*
X132387972Y-42617532D01*
X132387966Y-42617534D01*
X132321651Y-42661845D01*
X132321645Y-42661851D01*
X132277334Y-42728166D01*
X132277332Y-42728172D01*
X132265701Y-42786641D01*
X132265700Y-42786653D01*
X132265700Y-42949891D01*
X132246793Y-43008082D01*
X132197293Y-43044046D01*
X132136107Y-43044046D01*
X132086607Y-43008082D01*
X132078491Y-42994837D01*
X132028529Y-42896782D01*
X132028528Y-42896780D01*
X131933220Y-42801472D01*
X131933217Y-42801470D01*
X131813132Y-42740283D01*
X131813127Y-42740281D01*
X131813126Y-42740281D01*
X131779913Y-42735020D01*
X131713490Y-42724500D01*
X131713488Y-42724500D01*
X131146512Y-42724500D01*
X131146510Y-42724500D01*
X131046874Y-42740281D01*
X131046867Y-42740283D01*
X130926782Y-42801470D01*
X130831470Y-42896782D01*
X130770283Y-43016867D01*
X130770281Y-43016874D01*
X130754500Y-43116512D01*
X130036800Y-43116512D01*
X130036800Y-42786652D01*
X130025167Y-42728169D01*
X129980852Y-42661848D01*
X129940842Y-42635114D01*
X129902964Y-42587066D01*
X129900562Y-42525928D01*
X129934555Y-42475054D01*
X129940828Y-42470495D01*
X129980852Y-42443752D01*
X130025167Y-42377431D01*
X130036800Y-42318948D01*
X130036800Y-41516652D01*
X130025167Y-41458169D01*
X129980852Y-41391848D01*
X129940842Y-41365114D01*
X129902964Y-41317066D01*
X129900562Y-41255928D01*
X129934555Y-41205054D01*
X129940828Y-41200495D01*
X129980852Y-41173752D01*
X130025167Y-41107431D01*
X130036800Y-41048948D01*
X130036800Y-40246652D01*
X130025167Y-40188169D01*
X129993990Y-40141510D01*
X130754500Y-40141510D01*
X130754500Y-40658489D01*
X130770281Y-40758125D01*
X130770283Y-40758132D01*
X130831470Y-40878217D01*
X130831472Y-40878220D01*
X130926780Y-40973528D01*
X130926782Y-40973529D01*
X131046867Y-41034716D01*
X131046869Y-41034716D01*
X131046874Y-41034719D01*
X131122541Y-41046703D01*
X131146510Y-41050500D01*
X131146512Y-41050500D01*
X131713490Y-41050500D01*
X131734885Y-41047111D01*
X131813126Y-41034719D01*
X131933220Y-40973528D01*
X132028528Y-40878220D01*
X132078491Y-40780161D01*
X132121755Y-40736898D01*
X132182187Y-40727327D01*
X132236704Y-40755105D01*
X132264481Y-40809621D01*
X132265700Y-40825108D01*
X132265700Y-41048946D01*
X132265701Y-41048958D01*
X132277332Y-41107427D01*
X132277333Y-41107431D01*
X132321648Y-41173752D01*
X132387969Y-41218067D01*
X132432431Y-41226911D01*
X132446441Y-41229698D01*
X132446446Y-41229698D01*
X132446452Y-41229700D01*
X132446453Y-41229700D01*
X133547947Y-41229700D01*
X133547948Y-41229700D01*
X133606431Y-41218067D01*
X133672752Y-41173752D01*
X133717067Y-41107431D01*
X133728700Y-41048948D01*
X133728700Y-40246652D01*
X133717067Y-40188169D01*
X133672752Y-40121848D01*
X133632742Y-40095114D01*
X133594864Y-40047066D01*
X133592462Y-39985928D01*
X133626455Y-39935054D01*
X133632728Y-39930495D01*
X133672752Y-39903752D01*
X133717067Y-39837431D01*
X133728700Y-39778948D01*
X133728700Y-38976652D01*
X133717067Y-38918169D01*
X133672752Y-38851848D01*
X133632742Y-38825114D01*
X133594864Y-38777066D01*
X133592462Y-38715928D01*
X133626455Y-38665054D01*
X133632728Y-38660495D01*
X133672752Y-38633752D01*
X133717067Y-38567431D01*
X133728700Y-38508948D01*
X133728700Y-37706653D01*
X141811300Y-37706653D01*
X141811300Y-38508946D01*
X141811301Y-38508958D01*
X141822932Y-38567427D01*
X141822933Y-38567431D01*
X141867248Y-38633752D01*
X141867251Y-38633754D01*
X141907256Y-38660485D01*
X141945135Y-38708535D01*
X141947537Y-38769673D01*
X141913544Y-38820547D01*
X141907256Y-38825115D01*
X141867251Y-38851845D01*
X141867245Y-38851851D01*
X141822934Y-38918166D01*
X141822932Y-38918172D01*
X141811301Y-38976641D01*
X141811300Y-38976653D01*
X141811300Y-39778946D01*
X141811301Y-39778958D01*
X141820753Y-39826472D01*
X141822933Y-39837431D01*
X141867248Y-39903752D01*
X141867251Y-39903754D01*
X141907256Y-39930485D01*
X141945135Y-39978535D01*
X141947537Y-40039673D01*
X141913544Y-40090547D01*
X141907256Y-40095115D01*
X141867251Y-40121845D01*
X141867245Y-40121851D01*
X141822934Y-40188166D01*
X141822932Y-40188172D01*
X141811301Y-40246641D01*
X141811300Y-40246653D01*
X141811300Y-41048946D01*
X141811301Y-41048958D01*
X141822932Y-41107427D01*
X141822933Y-41107431D01*
X141867248Y-41173752D01*
X141867251Y-41173754D01*
X141907256Y-41200485D01*
X141945135Y-41248535D01*
X141947537Y-41309673D01*
X141913544Y-41360547D01*
X141907256Y-41365115D01*
X141867251Y-41391845D01*
X141867245Y-41391851D01*
X141822934Y-41458166D01*
X141822932Y-41458172D01*
X141811301Y-41516641D01*
X141811300Y-41516653D01*
X141811300Y-42318946D01*
X141811301Y-42318958D01*
X141822932Y-42377427D01*
X141822934Y-42377433D01*
X141853735Y-42423529D01*
X141867248Y-42443752D01*
X141867251Y-42443754D01*
X141907256Y-42470485D01*
X141945135Y-42518535D01*
X141947537Y-42579673D01*
X141913544Y-42630547D01*
X141907256Y-42635115D01*
X141867251Y-42661845D01*
X141867245Y-42661851D01*
X141822934Y-42728166D01*
X141822932Y-42728172D01*
X141811301Y-42786641D01*
X141811300Y-42786653D01*
X141811300Y-43588946D01*
X141811301Y-43588958D01*
X141822932Y-43647427D01*
X141822934Y-43647433D01*
X141846783Y-43683125D01*
X141867248Y-43713752D01*
X141933569Y-43758067D01*
X141978031Y-43766911D01*
X141992041Y-43769698D01*
X141992046Y-43769698D01*
X141992052Y-43769700D01*
X141992053Y-43769700D01*
X143093547Y-43769700D01*
X143093548Y-43769700D01*
X143152031Y-43758067D01*
X143218352Y-43713752D01*
X143262667Y-43647431D01*
X143274300Y-43588948D01*
X143274300Y-42786652D01*
X143262667Y-42728169D01*
X143218352Y-42661848D01*
X143178342Y-42635114D01*
X143140464Y-42587066D01*
X143138062Y-42525928D01*
X143172055Y-42475054D01*
X143178328Y-42470495D01*
X143218352Y-42443752D01*
X143262667Y-42377431D01*
X143274300Y-42318948D01*
X143274300Y-41516652D01*
X143262667Y-41458169D01*
X143218352Y-41391848D01*
X143178342Y-41365114D01*
X143140464Y-41317066D01*
X143138062Y-41255928D01*
X143172055Y-41205054D01*
X143178328Y-41200495D01*
X143218352Y-41173752D01*
X143262667Y-41107431D01*
X143274300Y-41048948D01*
X143274300Y-40246652D01*
X143262667Y-40188169D01*
X143218352Y-40121848D01*
X143178342Y-40095114D01*
X143140464Y-40047066D01*
X143138062Y-39985928D01*
X143172055Y-39935054D01*
X143178328Y-39930495D01*
X143218352Y-39903752D01*
X143262667Y-39837431D01*
X143274300Y-39778948D01*
X143274300Y-38976652D01*
X143262667Y-38918169D01*
X143218352Y-38851848D01*
X143178342Y-38825114D01*
X143140464Y-38777066D01*
X143138062Y-38715928D01*
X143172055Y-38665054D01*
X143178328Y-38660495D01*
X143218352Y-38633752D01*
X143262667Y-38567431D01*
X143274300Y-38508948D01*
X143274300Y-37706652D01*
X143262667Y-37648169D01*
X143218352Y-37581848D01*
X143218348Y-37581845D01*
X143152033Y-37537534D01*
X143152031Y-37537533D01*
X143152028Y-37537532D01*
X143152027Y-37537532D01*
X143093558Y-37525901D01*
X143093548Y-37525900D01*
X141992052Y-37525900D01*
X141992051Y-37525900D01*
X141992041Y-37525901D01*
X141933572Y-37537532D01*
X141933566Y-37537534D01*
X141867251Y-37581845D01*
X141867245Y-37581851D01*
X141822934Y-37648166D01*
X141822932Y-37648172D01*
X141811301Y-37706641D01*
X141811300Y-37706653D01*
X133728700Y-37706653D01*
X133728700Y-37706652D01*
X133717067Y-37648169D01*
X133672752Y-37581848D01*
X133672748Y-37581845D01*
X133606433Y-37537534D01*
X133606431Y-37537533D01*
X133606428Y-37537532D01*
X133606427Y-37537532D01*
X133547958Y-37525901D01*
X133547948Y-37525900D01*
X132446452Y-37525900D01*
X132446451Y-37525900D01*
X132446441Y-37525901D01*
X132387972Y-37537532D01*
X132387966Y-37537534D01*
X132321651Y-37581845D01*
X132321645Y-37581851D01*
X132277334Y-37648166D01*
X132277332Y-37648172D01*
X132265701Y-37706641D01*
X132265700Y-37706653D01*
X132265700Y-38508946D01*
X132265701Y-38508958D01*
X132277332Y-38567427D01*
X132277333Y-38567431D01*
X132321648Y-38633752D01*
X132321651Y-38633754D01*
X132361656Y-38660485D01*
X132399535Y-38708535D01*
X132401937Y-38769673D01*
X132367944Y-38820547D01*
X132361656Y-38825115D01*
X132321651Y-38851845D01*
X132321645Y-38851851D01*
X132277334Y-38918166D01*
X132277332Y-38918172D01*
X132265701Y-38976641D01*
X132265700Y-38976653D01*
X132265700Y-39778946D01*
X132265701Y-39778958D01*
X132275153Y-39826472D01*
X132277333Y-39837431D01*
X132321648Y-39903752D01*
X132321651Y-39903754D01*
X132361656Y-39930485D01*
X132399535Y-39978535D01*
X132401937Y-40039673D01*
X132367944Y-40090547D01*
X132361656Y-40095115D01*
X132321651Y-40121845D01*
X132321647Y-40121849D01*
X132284927Y-40176804D01*
X132236876Y-40214682D01*
X132175738Y-40217084D01*
X132124865Y-40183090D01*
X132104831Y-40137288D01*
X132102386Y-40121849D01*
X132089719Y-40041874D01*
X132089716Y-40041869D01*
X132089716Y-40041867D01*
X132028529Y-39921782D01*
X132028528Y-39921780D01*
X131933220Y-39826472D01*
X131933217Y-39826470D01*
X131813132Y-39765283D01*
X131813127Y-39765281D01*
X131813126Y-39765281D01*
X131779913Y-39760020D01*
X131713490Y-39749500D01*
X131713488Y-39749500D01*
X131146512Y-39749500D01*
X131146510Y-39749500D01*
X131046874Y-39765281D01*
X131046867Y-39765283D01*
X130926782Y-39826470D01*
X130831470Y-39921782D01*
X130770283Y-40041867D01*
X130770281Y-40041874D01*
X130754500Y-40141510D01*
X129993990Y-40141510D01*
X129980852Y-40121848D01*
X129940842Y-40095114D01*
X129902964Y-40047066D01*
X129900562Y-39985928D01*
X129934555Y-39935054D01*
X129940828Y-39930495D01*
X129980852Y-39903752D01*
X130025167Y-39837431D01*
X130036800Y-39778948D01*
X130036800Y-38976652D01*
X130025167Y-38918169D01*
X129980852Y-38851848D01*
X129940842Y-38825114D01*
X129902964Y-38777066D01*
X129900562Y-38715928D01*
X129934555Y-38665054D01*
X129940828Y-38660495D01*
X129980852Y-38633752D01*
X130025167Y-38567431D01*
X130036800Y-38508948D01*
X130036800Y-37706652D01*
X130025167Y-37648169D01*
X129980852Y-37581848D01*
X129980848Y-37581845D01*
X129914533Y-37537534D01*
X129914531Y-37537533D01*
X129914528Y-37537532D01*
X129914527Y-37537532D01*
X129856058Y-37525901D01*
X129856048Y-37525900D01*
X128754552Y-37525900D01*
X128754551Y-37525900D01*
X128754541Y-37525901D01*
X128696072Y-37537532D01*
X128696066Y-37537534D01*
X128629751Y-37581845D01*
X128629745Y-37581851D01*
X128585434Y-37648166D01*
X128585432Y-37648172D01*
X128573801Y-37706641D01*
X128573800Y-37706653D01*
X120491200Y-37706653D01*
X120491200Y-37706652D01*
X120479567Y-37648169D01*
X120435252Y-37581848D01*
X120435248Y-37581845D01*
X120368933Y-37537534D01*
X120368931Y-37537533D01*
X120368928Y-37537532D01*
X120368927Y-37537532D01*
X120310458Y-37525901D01*
X120310448Y-37525900D01*
X119208952Y-37525900D01*
X119208951Y-37525900D01*
X119208941Y-37525901D01*
X119150472Y-37537532D01*
X119150466Y-37537534D01*
X119084151Y-37581845D01*
X119084145Y-37581851D01*
X119039834Y-37648166D01*
X119039832Y-37648172D01*
X119028201Y-37706641D01*
X119028200Y-37706653D01*
X117000500Y-37706653D01*
X117000500Y-33985751D01*
X121367000Y-33985751D01*
X121367000Y-34564248D01*
X121382549Y-34662419D01*
X121382550Y-34662423D01*
X121440743Y-34776631D01*
X121442842Y-34780751D01*
X121536749Y-34874658D01*
X121655080Y-34934951D01*
X121716322Y-34944650D01*
X121729380Y-34946719D01*
X121783896Y-34974497D01*
X121811673Y-35029013D01*
X121802101Y-35089446D01*
X121758837Y-35132710D01*
X121713892Y-35143500D01*
X121591352Y-35143500D01*
X121591351Y-35143500D01*
X121591341Y-35143501D01*
X121532872Y-35155132D01*
X121532866Y-35155134D01*
X121466551Y-35199445D01*
X121466545Y-35199451D01*
X121422234Y-35265766D01*
X121422232Y-35265772D01*
X121410601Y-35324241D01*
X121410600Y-35324253D01*
X121410600Y-36425746D01*
X121410601Y-36425758D01*
X121422232Y-36484227D01*
X121422234Y-36484233D01*
X121439815Y-36510544D01*
X121466548Y-36550552D01*
X121532869Y-36594867D01*
X121577331Y-36603711D01*
X121591341Y-36606498D01*
X121591346Y-36606498D01*
X121591352Y-36606500D01*
X121591353Y-36606500D01*
X122393647Y-36606500D01*
X122393648Y-36606500D01*
X122452131Y-36594867D01*
X122518452Y-36550552D01*
X122562767Y-36484231D01*
X122574400Y-36425748D01*
X122574400Y-35324253D01*
X123950600Y-35324253D01*
X123950600Y-36425746D01*
X123950601Y-36425758D01*
X123962232Y-36484227D01*
X123962234Y-36484233D01*
X123979815Y-36510544D01*
X124006548Y-36550552D01*
X124072869Y-36594867D01*
X124117331Y-36603711D01*
X124131341Y-36606498D01*
X124131346Y-36606498D01*
X124131352Y-36606500D01*
X124131353Y-36606500D01*
X124933647Y-36606500D01*
X124933648Y-36606500D01*
X124992131Y-36594867D01*
X125058452Y-36550552D01*
X125085185Y-36510542D01*
X125133234Y-36472664D01*
X125194372Y-36470262D01*
X125245246Y-36504255D01*
X125249804Y-36510528D01*
X125276548Y-36550552D01*
X125342869Y-36594867D01*
X125387331Y-36603711D01*
X125401341Y-36606498D01*
X125401346Y-36606498D01*
X125401352Y-36606500D01*
X125401353Y-36606500D01*
X126203647Y-36606500D01*
X126203648Y-36606500D01*
X126262131Y-36594867D01*
X126328452Y-36550552D01*
X126355185Y-36510542D01*
X126403234Y-36472664D01*
X126464372Y-36470262D01*
X126515246Y-36504255D01*
X126519804Y-36510528D01*
X126546548Y-36550552D01*
X126612869Y-36594867D01*
X126657331Y-36603711D01*
X126671341Y-36606498D01*
X126671346Y-36606498D01*
X126671352Y-36606500D01*
X126671353Y-36606500D01*
X127473647Y-36606500D01*
X127473648Y-36606500D01*
X127532131Y-36594867D01*
X127598452Y-36550552D01*
X127642767Y-36484231D01*
X127654400Y-36425748D01*
X127654400Y-35324252D01*
X127642767Y-35265769D01*
X127598452Y-35199448D01*
X127598448Y-35199445D01*
X127532133Y-35155134D01*
X127532131Y-35155133D01*
X127532128Y-35155132D01*
X127532127Y-35155132D01*
X127473658Y-35143501D01*
X127473648Y-35143500D01*
X126671352Y-35143500D01*
X126671351Y-35143500D01*
X126671341Y-35143501D01*
X126612872Y-35155132D01*
X126612866Y-35155134D01*
X126546551Y-35199445D01*
X126546545Y-35199451D01*
X126519815Y-35239456D01*
X126471765Y-35277335D01*
X126410627Y-35279737D01*
X126359753Y-35245744D01*
X126355185Y-35239456D01*
X126328454Y-35199451D01*
X126328452Y-35199448D01*
X126328448Y-35199445D01*
X126262133Y-35155134D01*
X126262131Y-35155133D01*
X126262128Y-35155132D01*
X126262127Y-35155132D01*
X126203658Y-35143501D01*
X126203648Y-35143500D01*
X125401352Y-35143500D01*
X125401351Y-35143500D01*
X125401341Y-35143501D01*
X125342872Y-35155132D01*
X125342866Y-35155134D01*
X125276551Y-35199445D01*
X125276545Y-35199451D01*
X125249815Y-35239456D01*
X125201765Y-35277335D01*
X125140627Y-35279737D01*
X125089753Y-35245744D01*
X125085185Y-35239456D01*
X125058454Y-35199451D01*
X125058452Y-35199448D01*
X125058448Y-35199445D01*
X124992133Y-35155134D01*
X124992131Y-35155133D01*
X124992128Y-35155132D01*
X124992127Y-35155132D01*
X124933658Y-35143501D01*
X124933648Y-35143500D01*
X124131352Y-35143500D01*
X124131351Y-35143500D01*
X124131341Y-35143501D01*
X124072872Y-35155132D01*
X124072866Y-35155134D01*
X124006551Y-35199445D01*
X124006545Y-35199451D01*
X123962234Y-35265766D01*
X123962232Y-35265772D01*
X123950601Y-35324241D01*
X123950600Y-35324253D01*
X122574400Y-35324253D01*
X122574400Y-35324252D01*
X122562767Y-35265769D01*
X122518452Y-35199448D01*
X122518448Y-35199445D01*
X122452133Y-35155134D01*
X122452131Y-35155133D01*
X122452128Y-35155132D01*
X122452127Y-35155132D01*
X122393658Y-35143501D01*
X122393648Y-35143500D01*
X122296108Y-35143500D01*
X122237917Y-35124593D01*
X122201953Y-35075093D01*
X122201953Y-35013907D01*
X122237917Y-34964407D01*
X122280620Y-34946719D01*
X122292169Y-34944889D01*
X122354920Y-34934951D01*
X122473251Y-34874658D01*
X122567158Y-34780751D01*
X122627451Y-34662420D01*
X122643000Y-34564246D01*
X122643000Y-33985754D01*
X122643000Y-33985751D01*
X134604500Y-33985751D01*
X134604500Y-34564248D01*
X134620049Y-34662419D01*
X134620050Y-34662423D01*
X134678243Y-34776631D01*
X134680342Y-34780751D01*
X134774249Y-34874658D01*
X134892580Y-34934951D01*
X134953822Y-34944650D01*
X134966880Y-34946719D01*
X135021396Y-34974497D01*
X135049173Y-35029013D01*
X135039601Y-35089446D01*
X134996337Y-35132710D01*
X134951392Y-35143500D01*
X134828852Y-35143500D01*
X134828851Y-35143500D01*
X134828841Y-35143501D01*
X134770372Y-35155132D01*
X134770366Y-35155134D01*
X134704051Y-35199445D01*
X134704045Y-35199451D01*
X134659734Y-35265766D01*
X134659732Y-35265772D01*
X134648101Y-35324241D01*
X134648100Y-35324253D01*
X134648100Y-36425746D01*
X134648101Y-36425758D01*
X134659732Y-36484227D01*
X134659734Y-36484233D01*
X134677315Y-36510544D01*
X134704048Y-36550552D01*
X134770369Y-36594867D01*
X134814831Y-36603711D01*
X134828841Y-36606498D01*
X134828846Y-36606498D01*
X134828852Y-36606500D01*
X134828853Y-36606500D01*
X135631147Y-36606500D01*
X135631148Y-36606500D01*
X135689631Y-36594867D01*
X135755952Y-36550552D01*
X135800267Y-36484231D01*
X135811900Y-36425748D01*
X135811900Y-35324253D01*
X137188100Y-35324253D01*
X137188100Y-36425746D01*
X137188101Y-36425758D01*
X137199732Y-36484227D01*
X137199734Y-36484233D01*
X137217315Y-36510544D01*
X137244048Y-36550552D01*
X137310369Y-36594867D01*
X137354831Y-36603711D01*
X137368841Y-36606498D01*
X137368846Y-36606498D01*
X137368852Y-36606500D01*
X137368853Y-36606500D01*
X138171147Y-36606500D01*
X138171148Y-36606500D01*
X138229631Y-36594867D01*
X138295952Y-36550552D01*
X138322685Y-36510542D01*
X138370734Y-36472664D01*
X138431872Y-36470262D01*
X138482746Y-36504255D01*
X138487304Y-36510528D01*
X138514048Y-36550552D01*
X138580369Y-36594867D01*
X138624831Y-36603711D01*
X138638841Y-36606498D01*
X138638846Y-36606498D01*
X138638852Y-36606500D01*
X138638853Y-36606500D01*
X139441147Y-36606500D01*
X139441148Y-36606500D01*
X139499631Y-36594867D01*
X139565952Y-36550552D01*
X139592685Y-36510542D01*
X139640734Y-36472664D01*
X139701872Y-36470262D01*
X139752746Y-36504255D01*
X139757304Y-36510528D01*
X139784048Y-36550552D01*
X139850369Y-36594867D01*
X139894831Y-36603711D01*
X139908841Y-36606498D01*
X139908846Y-36606498D01*
X139908852Y-36606500D01*
X139908853Y-36606500D01*
X140711147Y-36606500D01*
X140711148Y-36606500D01*
X140769631Y-36594867D01*
X140835952Y-36550552D01*
X140880267Y-36484231D01*
X140891900Y-36425748D01*
X140891900Y-35324252D01*
X140880267Y-35265769D01*
X140835952Y-35199448D01*
X140835948Y-35199445D01*
X140769633Y-35155134D01*
X140769631Y-35155133D01*
X140769628Y-35155132D01*
X140769627Y-35155132D01*
X140711158Y-35143501D01*
X140711148Y-35143500D01*
X139908852Y-35143500D01*
X139908851Y-35143500D01*
X139908841Y-35143501D01*
X139850372Y-35155132D01*
X139850366Y-35155134D01*
X139784051Y-35199445D01*
X139784045Y-35199451D01*
X139757315Y-35239456D01*
X139709265Y-35277335D01*
X139648127Y-35279737D01*
X139597253Y-35245744D01*
X139592685Y-35239456D01*
X139565954Y-35199451D01*
X139565952Y-35199448D01*
X139565948Y-35199445D01*
X139499633Y-35155134D01*
X139499631Y-35155133D01*
X139499628Y-35155132D01*
X139499627Y-35155132D01*
X139441158Y-35143501D01*
X139441148Y-35143500D01*
X138638852Y-35143500D01*
X138638851Y-35143500D01*
X138638841Y-35143501D01*
X138580372Y-35155132D01*
X138580366Y-35155134D01*
X138514051Y-35199445D01*
X138514045Y-35199451D01*
X138487315Y-35239456D01*
X138439265Y-35277335D01*
X138378127Y-35279737D01*
X138327253Y-35245744D01*
X138322685Y-35239456D01*
X138295954Y-35199451D01*
X138295952Y-35199448D01*
X138295948Y-35199445D01*
X138229633Y-35155134D01*
X138229631Y-35155133D01*
X138229628Y-35155132D01*
X138229627Y-35155132D01*
X138171158Y-35143501D01*
X138171148Y-35143500D01*
X137368852Y-35143500D01*
X137368851Y-35143500D01*
X137368841Y-35143501D01*
X137310372Y-35155132D01*
X137310366Y-35155134D01*
X137244051Y-35199445D01*
X137244045Y-35199451D01*
X137199734Y-35265766D01*
X137199732Y-35265772D01*
X137188101Y-35324241D01*
X137188100Y-35324253D01*
X135811900Y-35324253D01*
X135811900Y-35324252D01*
X135800267Y-35265769D01*
X135755952Y-35199448D01*
X135755948Y-35199445D01*
X135689633Y-35155134D01*
X135689631Y-35155133D01*
X135689628Y-35155132D01*
X135689627Y-35155132D01*
X135631158Y-35143501D01*
X135631148Y-35143500D01*
X135533608Y-35143500D01*
X135475417Y-35124593D01*
X135439453Y-35075093D01*
X135439453Y-35013907D01*
X135475417Y-34964407D01*
X135518120Y-34946719D01*
X135529669Y-34944889D01*
X135592420Y-34934951D01*
X135710751Y-34874658D01*
X135804658Y-34780751D01*
X135864951Y-34662420D01*
X135880500Y-34564246D01*
X135880500Y-33985754D01*
X135864951Y-33887580D01*
X135804658Y-33769249D01*
X135710751Y-33675342D01*
X135706631Y-33673243D01*
X135592423Y-33615050D01*
X135592420Y-33615049D01*
X135567876Y-33611161D01*
X135494249Y-33599500D01*
X135494246Y-33599500D01*
X134990754Y-33599500D01*
X134990751Y-33599500D01*
X134892580Y-33615049D01*
X134892576Y-33615050D01*
X134774250Y-33675341D01*
X134680341Y-33769250D01*
X134620050Y-33887576D01*
X134620049Y-33887580D01*
X134604500Y-33985751D01*
X122643000Y-33985751D01*
X122627451Y-33887580D01*
X122567158Y-33769249D01*
X122473251Y-33675342D01*
X122469131Y-33673243D01*
X122354923Y-33615050D01*
X122354920Y-33615049D01*
X122330376Y-33611161D01*
X122256749Y-33599500D01*
X122256746Y-33599500D01*
X121753254Y-33599500D01*
X121753251Y-33599500D01*
X121655080Y-33615049D01*
X121655076Y-33615050D01*
X121536750Y-33675341D01*
X121442841Y-33769250D01*
X121382550Y-33887576D01*
X121382549Y-33887580D01*
X121367000Y-33985751D01*
X117000500Y-33985751D01*
X117000500Y-29708324D01*
X118069500Y-29708324D01*
X118069500Y-32556676D01*
X118098838Y-32666167D01*
X118155514Y-32764333D01*
X118235667Y-32844486D01*
X118333833Y-32901162D01*
X118443324Y-32930500D01*
X118443326Y-32930500D01*
X118556674Y-32930500D01*
X118556676Y-32930500D01*
X118666167Y-32901162D01*
X118764333Y-32844486D01*
X118844486Y-32764333D01*
X118901162Y-32666167D01*
X118930500Y-32556676D01*
X118930500Y-29708324D01*
X118901162Y-29598833D01*
X118844486Y-29500667D01*
X118764333Y-29420514D01*
X118666167Y-29363838D01*
X118556676Y-29334500D01*
X118443324Y-29334500D01*
X118333833Y-29363838D01*
X118235667Y-29420514D01*
X118155514Y-29500667D01*
X118098838Y-29598833D01*
X118069500Y-29708324D01*
X117000500Y-29708324D01*
X117000500Y-28099500D01*
X117019407Y-28041309D01*
X117068907Y-28005345D01*
X117099500Y-28000500D01*
X120804088Y-28000500D01*
X120862279Y-28019407D01*
G37*
%TD.AperFunction*%
%TD*%
M02*
