%TF.GenerationSoftware,KiCad,Pcbnew,8.0.5*%
%TF.CreationDate,2025-02-04T19:21:07-06:00*%
%TF.ProjectId,Feather1268,46656174-6865-4723-9132-36382e6b6963,rev?*%
%TF.SameCoordinates,Original*%
%TF.FileFunction,Copper,L1,Top*%
%TF.FilePolarity,Positive*%
%FSLAX46Y46*%
G04 Gerber Fmt 4.6, Leading zero omitted, Abs format (unit mm)*
G04 Created by KiCad (PCBNEW 8.0.5) date 2025-02-04 19:21:07*
%MOMM*%
%LPD*%
G01*
G04 APERTURE LIST*
G04 Aperture macros list*
%AMRoundRect*
0 Rectangle with rounded corners*
0 $1 Rounding radius*
0 $2 $3 $4 $5 $6 $7 $8 $9 X,Y pos of 4 corners*
0 Add a 4 corners polygon primitive as box body*
4,1,4,$2,$3,$4,$5,$6,$7,$8,$9,$2,$3,0*
0 Add four circle primitives for the rounded corners*
1,1,$1+$1,$2,$3*
1,1,$1+$1,$4,$5*
1,1,$1+$1,$6,$7*
1,1,$1+$1,$8,$9*
0 Add four rect primitives between the rounded corners*
20,1,$1+$1,$2,$3,$4,$5,0*
20,1,$1+$1,$4,$5,$6,$7,0*
20,1,$1+$1,$6,$7,$8,$9,0*
20,1,$1+$1,$8,$9,$2,$3,0*%
%AMOutline5P*
0 Free polygon, 5 corners , with rotation*
0 The origin of the aperture is its center*
0 number of corners: always 5*
0 $1 to $10 corner X, Y*
0 $11 Rotation angle, in degrees counterclockwise*
0 create outline with 5 corners*
4,1,5,$1,$2,$3,$4,$5,$6,$7,$8,$9,$10,$1,$2,$11*%
%AMOutline6P*
0 Free polygon, 6 corners , with rotation*
0 The origin of the aperture is its center*
0 number of corners: always 6*
0 $1 to $12 corner X, Y*
0 $13 Rotation angle, in degrees counterclockwise*
0 create outline with 6 corners*
4,1,6,$1,$2,$3,$4,$5,$6,$7,$8,$9,$10,$11,$12,$1,$2,$13*%
%AMOutline7P*
0 Free polygon, 7 corners , with rotation*
0 The origin of the aperture is its center*
0 number of corners: always 7*
0 $1 to $14 corner X, Y*
0 $15 Rotation angle, in degrees counterclockwise*
0 create outline with 7 corners*
4,1,7,$1,$2,$3,$4,$5,$6,$7,$8,$9,$10,$11,$12,$13,$14,$1,$2,$15*%
%AMOutline8P*
0 Free polygon, 8 corners , with rotation*
0 The origin of the aperture is its center*
0 number of corners: always 8*
0 $1 to $16 corner X, Y*
0 $17 Rotation angle, in degrees counterclockwise*
0 create outline with 8 corners*
4,1,8,$1,$2,$3,$4,$5,$6,$7,$8,$9,$10,$11,$12,$13,$14,$15,$16,$1,$2,$17*%
G04 Aperture macros list end*
%TA.AperFunction,EtchedComponent*%
%ADD10C,0.460000*%
%TD*%
%TA.AperFunction,SMDPad,CuDef*%
%ADD11R,0.889000X1.473200*%
%TD*%
%TA.AperFunction,SMDPad,CuDef*%
%ADD12R,3.200400X1.473200*%
%TD*%
%TA.AperFunction,SMDPad,CuDef*%
%ADD13R,0.762000X0.990600*%
%TD*%
%TA.AperFunction,SMDPad,CuDef*%
%ADD14RoundRect,0.062500X0.237500X0.062500X-0.237500X0.062500X-0.237500X-0.062500X0.237500X-0.062500X0*%
%TD*%
%TA.AperFunction,SMDPad,CuDef*%
%ADD15R,0.400000X0.800000*%
%TD*%
%TA.AperFunction,SMDPad,CuDef*%
%ADD16R,0.800000X0.400000*%
%TD*%
%TA.AperFunction,SMDPad,CuDef*%
%ADD17Outline5P,-0.600000X0.204000X-0.204000X0.600000X0.600000X0.600000X0.600000X-0.600000X-0.600000X-0.600000X270.000000*%
%TD*%
%TA.AperFunction,SMDPad,CuDef*%
%ADD18R,1.200000X1.200000*%
%TD*%
%TA.AperFunction,SMDPad,CuDef*%
%ADD19R,0.800000X0.800000*%
%TD*%
%TA.AperFunction,SMDPad,CuDef*%
%ADD20RoundRect,0.200000X-0.275000X0.200000X-0.275000X-0.200000X0.275000X-0.200000X0.275000X0.200000X0*%
%TD*%
%TA.AperFunction,SMDPad,CuDef*%
%ADD21RoundRect,0.200000X0.275000X-0.200000X0.275000X0.200000X-0.275000X0.200000X-0.275000X-0.200000X0*%
%TD*%
%TA.AperFunction,SMDPad,CuDef*%
%ADD22RoundRect,0.200000X0.200000X0.275000X-0.200000X0.275000X-0.200000X-0.275000X0.200000X-0.275000X0*%
%TD*%
%TA.AperFunction,ComponentPad*%
%ADD23C,0.970000*%
%TD*%
%TA.AperFunction,SMDPad,CuDef*%
%ADD24RoundRect,0.250000X1.082500X-1.595000X1.082500X1.595000X-1.082500X1.595000X-1.082500X-1.595000X0*%
%TD*%
%TA.AperFunction,SMDPad,CuDef*%
%ADD25RoundRect,0.150000X-0.425000X0.150000X-0.425000X-0.150000X0.425000X-0.150000X0.425000X0.150000X0*%
%TD*%
%TA.AperFunction,SMDPad,CuDef*%
%ADD26RoundRect,0.075000X-0.500000X0.075000X-0.500000X-0.075000X0.500000X-0.075000X0.500000X0.075000X0*%
%TD*%
%TA.AperFunction,ComponentPad*%
%ADD27O,2.100000X1.000000*%
%TD*%
%TA.AperFunction,ComponentPad*%
%ADD28O,1.800000X1.000000*%
%TD*%
%TA.AperFunction,SMDPad,CuDef*%
%ADD29RoundRect,0.218750X-0.218750X-0.256250X0.218750X-0.256250X0.218750X0.256250X-0.218750X0.256250X0*%
%TD*%
%TA.AperFunction,SMDPad,CuDef*%
%ADD30RoundRect,0.225000X0.225000X0.250000X-0.225000X0.250000X-0.225000X-0.250000X0.225000X-0.250000X0*%
%TD*%
%TA.AperFunction,SMDPad,CuDef*%
%ADD31RoundRect,0.225000X0.250000X-0.225000X0.250000X0.225000X-0.250000X0.225000X-0.250000X-0.225000X0*%
%TD*%
%TA.AperFunction,SMDPad,CuDef*%
%ADD32RoundRect,0.225000X-0.225000X-0.250000X0.225000X-0.250000X0.225000X0.250000X-0.225000X0.250000X0*%
%TD*%
%TA.AperFunction,SMDPad,CuDef*%
%ADD33RoundRect,0.225000X-0.250000X0.225000X-0.250000X-0.225000X0.250000X-0.225000X0.250000X0.225000X0*%
%TD*%
%TA.AperFunction,ViaPad*%
%ADD34C,0.600000*%
%TD*%
%TA.AperFunction,Conductor*%
%ADD35C,0.500000*%
%TD*%
%TA.AperFunction,Conductor*%
%ADD36C,0.127000*%
%TD*%
G04 APERTURE END LIST*
D10*
%TO.C,J3*%
X125485000Y-32500000D02*
X125485000Y-29765000D01*
X118500000Y-32500000D02*
X118500000Y-29765000D01*
%TO.C,J1*%
X131737500Y-32500000D02*
X131737500Y-29765000D01*
X138722500Y-32500000D02*
X138722500Y-29765000D01*
%TD*%
D11*
%TO.P,U5,1,ADJ/GND*%
%TO.N,GND*%
X118210000Y-43463900D03*
%TO.P,U5,2,OUTPUT*%
%TO.N,+3V3*%
X120500000Y-43463900D03*
%TO.P,U5,3,INPUT*%
%TO.N,+5V*%
X122790000Y-43463900D03*
D12*
%TO.P,U5,4,VOUT*%
%TO.N,+3V3*%
X120500000Y-36936100D03*
%TD*%
D13*
%TO.P,SW2,1,1*%
%TO.N,GND*%
X129625000Y-56300002D03*
%TO.P,SW2,2,2*%
X129625000Y-50299998D03*
%TO.P,SW2,3,3*%
%TO.N,/BOOT*%
X133375000Y-56300002D03*
%TO.P,SW2,4,4*%
X133375000Y-50299998D03*
%TD*%
%TO.P,SW1,1,1*%
%TO.N,GND*%
X135425000Y-56300002D03*
%TO.P,SW1,2,2*%
X135425000Y-50299998D03*
%TO.P,SW1,3,3*%
%TO.N,/RESET*%
X139175000Y-56300002D03*
%TO.P,SW1,4,4*%
X139175000Y-50299998D03*
%TD*%
D14*
%TO.P,U3,1,D+_in*%
%TO.N,/USB_D+*%
X126800000Y-53000000D03*
%TO.P,U3,2,D-_in*%
%TO.N,/USB_D-*%
X126800000Y-52500000D03*
%TO.P,U3,3,GND*%
%TO.N,GND*%
X126800000Y-52000000D03*
%TO.P,U3,4,NC*%
%TO.N,unconnected-(U3-NC-Pad4)*%
X125500000Y-52000000D03*
%TO.P,U3,5,D-_out*%
%TO.N,/D-*%
X125500000Y-52500000D03*
%TO.P,U3,6,D+_out*%
%TO.N,/D+*%
X125500000Y-53000000D03*
%TD*%
D15*
%TO.P,U2,1,GND*%
%TO.N,GND*%
X141200000Y-34500000D03*
%TO.P,U2,2,GND*%
X140350000Y-34500000D03*
%TO.P,U2,3,3V3*%
%TO.N,+3V3*%
X139500000Y-34500000D03*
%TO.P,U2,4,IO0*%
%TO.N,/BOOT*%
X138650000Y-34500000D03*
%TO.P,U2,5,IO1*%
%TO.N,/E22_RESET_0*%
X137800000Y-34500000D03*
%TO.P,U2,6,IO2*%
%TO.N,/E22_CS_0*%
X136950000Y-34500000D03*
%TO.P,U2,7,IO3*%
%TO.N,/SPI_MISO*%
X136100000Y-34500000D03*
%TO.P,U2,8,IO4*%
%TO.N,/SPI_MOSI*%
X135250000Y-34500000D03*
%TO.P,U2,9,IO5*%
%TO.N,/SPI_SCK*%
X134400000Y-34500000D03*
%TO.P,U2,10,IO6*%
%TO.N,/E22_BUSY_0*%
X133550000Y-34500000D03*
%TO.P,U2,11,IO7*%
%TO.N,/E22_TXEN_0*%
X132700000Y-34500000D03*
%TO.P,U2,12,IO8*%
%TO.N,/E22_RXEN_0*%
X131850000Y-34500000D03*
%TO.P,U2,13,IO9*%
%TO.N,/E22_DI01_0*%
X131000000Y-34500000D03*
%TO.P,U2,14,IO10*%
%TO.N,/E22_DI02_0*%
X130150000Y-34500000D03*
%TO.P,U2,15,IO11*%
%TO.N,/E22_DI03_0*%
X129300000Y-34500000D03*
D16*
%TO.P,U2,16,IO12*%
%TO.N,/E22_RESET_1*%
X128250000Y-35550000D03*
%TO.P,U2,17,IO13*%
%TO.N,/E22_CS_1*%
X128250000Y-36400000D03*
%TO.P,U2,18,IO14*%
%TO.N,/SPI_MISO*%
X128250000Y-37250000D03*
%TO.P,U2,19,IO15*%
%TO.N,/SPI_MOSI*%
X128250000Y-38100000D03*
%TO.P,U2,20,IO16*%
%TO.N,/SPI_SCK*%
X128250000Y-38950000D03*
%TO.P,U2,21,IO17*%
%TO.N,/E22_BUSY_1*%
X128250000Y-39800000D03*
%TO.P,U2,22,IO18*%
%TO.N,/E22_TXEN_1*%
X128250000Y-40650000D03*
%TO.P,U2,23,IO19*%
%TO.N,/USB_D-*%
X128250000Y-41500000D03*
%TO.P,U2,24,IO20*%
%TO.N,/USB_D+*%
X128250000Y-42350000D03*
%TO.P,U2,25,IO21*%
%TO.N,/E22_RXEN_1*%
X128250000Y-43200000D03*
%TO.P,U2,26,IO26*%
%TO.N,/E22_DI01_1*%
X128250000Y-44050000D03*
%TO.P,U2,27,IO47*%
%TO.N,Net-(U2-IO47)*%
X128250000Y-44900000D03*
%TO.P,U2,28,IO33*%
%TO.N,/E22_DI02_1*%
X128250000Y-45750000D03*
%TO.P,U2,29,IO34*%
%TO.N,/E22_DI03_1*%
X128250000Y-46600000D03*
%TO.P,U2,30,IO48*%
%TO.N,Net-(U2-IO48)*%
X128250000Y-47450000D03*
D15*
%TO.P,U2,31,IO35*%
%TO.N,unconnected-(U2-IO35-Pad31)*%
X129300000Y-48500000D03*
%TO.P,U2,32,IO36*%
%TO.N,unconnected-(U2-IO36-Pad32)*%
X130150000Y-48500000D03*
%TO.P,U2,33,IO37*%
%TO.N,unconnected-(U2-IO37-Pad33)*%
X131000000Y-48500000D03*
%TO.P,U2,34,IO38*%
%TO.N,unconnected-(U2-IO38-Pad34)*%
X131850000Y-48500000D03*
%TO.P,U2,35,IO39*%
%TO.N,unconnected-(U2-IO39-Pad35)*%
X132700000Y-48500000D03*
%TO.P,U2,36,IO40*%
%TO.N,unconnected-(U2-IO40-Pad36)*%
X133550000Y-48500000D03*
%TO.P,U2,37,IO41*%
%TO.N,unconnected-(U2-IO41-Pad37)*%
X134400000Y-48500000D03*
%TO.P,U2,38,IO42*%
%TO.N,unconnected-(U2-IO42-Pad38)*%
X135250000Y-48500000D03*
%TO.P,U2,39,TXD0*%
%TO.N,unconnected-(U2-TXD0-Pad39)*%
X136100000Y-48500000D03*
%TO.P,U2,40,RXD0*%
%TO.N,unconnected-(U2-RXD0-Pad40)*%
X136950000Y-48500000D03*
%TO.P,U2,41,IO45*%
%TO.N,Net-(U2-IO45)*%
X137800000Y-48500000D03*
%TO.P,U2,42,GND*%
%TO.N,GND*%
X138650000Y-48500000D03*
%TO.P,U2,43,GND*%
X139500000Y-48500000D03*
%TO.P,U2,44,IO46*%
%TO.N,Net-(U2-IO46)*%
X140350000Y-48500000D03*
%TO.P,U2,45,EN*%
%TO.N,/RESET*%
X141200000Y-48500000D03*
D16*
%TO.P,U2,46,GND*%
%TO.N,GND*%
X142250000Y-47450000D03*
%TO.P,U2,47,GND*%
X142250000Y-46600000D03*
%TO.P,U2,48,GND*%
X142250000Y-45750000D03*
%TO.P,U2,49,GND*%
X142250000Y-44900000D03*
%TO.P,U2,50,GND*%
X142250000Y-44050000D03*
%TO.P,U2,51,GND*%
X142250000Y-43200000D03*
%TO.P,U2,52,GND*%
X142250000Y-42350000D03*
%TO.P,U2,53,GND*%
X142250000Y-41500000D03*
%TO.P,U2,54,GND*%
X142250000Y-40650000D03*
%TO.P,U2,55,GND*%
X142250000Y-39800000D03*
%TO.P,U2,56,GND*%
X142250000Y-38950000D03*
%TO.P,U2,57,GND*%
X142250000Y-38100000D03*
%TO.P,U2,58,GND*%
X142250000Y-37250000D03*
%TO.P,U2,59,GND*%
X142250000Y-36400000D03*
%TO.P,U2,60,GND*%
X142250000Y-35550000D03*
D17*
%TO.P,U2,61,GND*%
X136900000Y-39850000D03*
D18*
X135250000Y-39850000D03*
X133600000Y-39850000D03*
X136900000Y-41500000D03*
X135250000Y-41500000D03*
X133600000Y-41500000D03*
X136900000Y-43150000D03*
X135250000Y-43150000D03*
X133600000Y-43150000D03*
D19*
%TO.P,U2,62,GND*%
X142250000Y-34500000D03*
%TO.P,U2,63,GND*%
X128250000Y-34500000D03*
%TO.P,U2,64,GND*%
X128250000Y-48500000D03*
%TO.P,U2,65,GND*%
X142250000Y-48500000D03*
%TD*%
D20*
%TO.P,R8,2*%
%TO.N,GND*%
X125600000Y-55925000D03*
%TO.P,R8,1*%
%TO.N,Net-(J2-CC2)*%
X125600000Y-54275000D03*
%TD*%
D21*
%TO.P,R7,2*%
%TO.N,GND*%
X125600000Y-49075000D03*
%TO.P,R7,1*%
%TO.N,Net-(J2-CC1)*%
X125600000Y-50725000D03*
%TD*%
D22*
%TO.P,R6,2*%
%TO.N,/RESET*%
X140875000Y-51700000D03*
%TO.P,R6,1*%
%TO.N,+3V3*%
X142525000Y-51700000D03*
%TD*%
%TO.P,R5,1*%
%TO.N,Net-(D4-A)*%
X126600000Y-46200000D03*
%TO.P,R5,2*%
%TO.N,Net-(U2-IO48)*%
X124950000Y-46200000D03*
%TD*%
%TO.P,R4,2*%
%TO.N,Net-(U2-IO47)*%
X124950000Y-43200000D03*
%TO.P,R4,1*%
%TO.N,Net-(D3-A)*%
X126600000Y-43200000D03*
%TD*%
%TO.P,R3,1*%
%TO.N,Net-(D2-A)*%
X126600000Y-40200000D03*
%TO.P,R3,2*%
%TO.N,Net-(U2-IO46)*%
X124950000Y-40200000D03*
%TD*%
%TO.P,R2,2*%
%TO.N,Net-(U2-IO45)*%
X124950000Y-37200000D03*
%TO.P,R2,1*%
%TO.N,Net-(D1-A)*%
X126600000Y-37200000D03*
%TD*%
D23*
%TO.P,J3,2,Ext*%
%TO.N,GND*%
X125485000Y-32500000D03*
X118500000Y-32500000D03*
D24*
X125485000Y-29765000D03*
X118500000Y-29765000D03*
%TD*%
D25*
%TO.P,J2,A1,GND*%
%TO.N,GND*%
X123790000Y-49050000D03*
%TO.P,J2,A4,VBUS*%
%TO.N,+5V*%
X123790000Y-49850000D03*
D26*
%TO.P,J2,A5,CC1*%
%TO.N,Net-(J2-CC1)*%
X123790000Y-51000000D03*
%TO.P,J2,A6,D+*%
%TO.N,/D+*%
X123790000Y-52000000D03*
%TO.P,J2,A7,D-*%
%TO.N,/D-*%
X123790000Y-52500000D03*
%TO.P,J2,A8,SBU1*%
%TO.N,unconnected-(J2-SBU1-PadA8)*%
X123790000Y-53500000D03*
D25*
%TO.P,J2,A9,VBUS*%
%TO.N,+5V*%
X123790000Y-54650000D03*
%TO.P,J2,A12,GND*%
%TO.N,GND*%
X123790000Y-55450000D03*
%TO.P,J2,B1,GND*%
X123790000Y-55450000D03*
%TO.P,J2,B4,VBUS*%
%TO.N,+5V*%
X123790000Y-54650000D03*
D26*
%TO.P,J2,B5,CC2*%
%TO.N,Net-(J2-CC2)*%
X123790000Y-54000000D03*
%TO.P,J2,B6,D+*%
%TO.N,/D+*%
X123790000Y-53000000D03*
%TO.P,J2,B7,D-*%
%TO.N,/D-*%
X123790000Y-51500000D03*
%TO.P,J2,B8,SBU2*%
%TO.N,unconnected-(J2-SBU2-PadB8)*%
X123790000Y-50500000D03*
D25*
%TO.P,J2,B9,VBUS*%
%TO.N,+5V*%
X123790000Y-49850000D03*
%TO.P,J2,B12,GND*%
%TO.N,GND*%
X123790000Y-49050000D03*
D27*
%TO.P,J2,S1,SHIELD*%
X123215000Y-47930000D03*
D28*
X119035000Y-47930000D03*
D27*
X123215000Y-56570000D03*
D28*
X119035000Y-56570000D03*
%TD*%
D24*
%TO.P,J1,2,Ext*%
%TO.N,GND*%
X131737500Y-29765000D03*
X138722500Y-29765000D03*
D23*
X131737500Y-32500000D03*
X138722500Y-32500000D03*
%TD*%
D29*
%TO.P,D4,1,K*%
%TO.N,GND*%
X125007500Y-44700000D03*
%TO.P,D4,2,A*%
%TO.N,Net-(D4-A)*%
X126582500Y-44700000D03*
%TD*%
%TO.P,D3,1,K*%
%TO.N,GND*%
X125007500Y-41700000D03*
%TO.P,D3,2,A*%
%TO.N,Net-(D3-A)*%
X126582500Y-41700000D03*
%TD*%
%TO.P,D2,2,A*%
%TO.N,Net-(D2-A)*%
X126582500Y-38700000D03*
%TO.P,D2,1,K*%
%TO.N,GND*%
X125007500Y-38700000D03*
%TD*%
%TO.P,D1,2,A*%
%TO.N,Net-(D1-A)*%
X126582500Y-35700000D03*
%TO.P,D1,1,K*%
%TO.N,GND*%
X125007500Y-35700000D03*
%TD*%
D30*
%TO.P,C10,2*%
%TO.N,GND*%
X121225000Y-45200000D03*
%TO.P,C10,1*%
%TO.N,+5V*%
X122775000Y-45200000D03*
%TD*%
D31*
%TO.P,C9,1*%
%TO.N,GND*%
X117900000Y-37375000D03*
%TO.P,C9,2*%
%TO.N,+3V3*%
X117900000Y-35825000D03*
%TD*%
D32*
%TO.P,C7,1*%
%TO.N,/BOOT*%
X140925000Y-53200000D03*
%TO.P,C7,2*%
%TO.N,GND*%
X142475000Y-53200000D03*
%TD*%
%TO.P,C6,1*%
%TO.N,/RESET*%
X140925000Y-50200000D03*
%TO.P,C6,2*%
%TO.N,GND*%
X142475000Y-50200000D03*
%TD*%
D33*
%TO.P,C5,1*%
%TO.N,GND*%
X141300000Y-31225000D03*
%TO.P,C5,2*%
%TO.N,+3V3*%
X141300000Y-32775000D03*
%TD*%
%TO.P,C4,1*%
%TO.N,GND*%
X142800000Y-31225000D03*
%TO.P,C4,2*%
%TO.N,+3V3*%
X142800000Y-32775000D03*
%TD*%
D34*
%TO.N,+3V3*%
X142100000Y-32775000D03*
X139500000Y-33600000D03*
X140325000Y-32775000D03*
X119388900Y-35825000D03*
%TD*%
D35*
%TO.N,+3V3*%
X142800000Y-32775000D02*
X141300000Y-32775000D01*
X139500000Y-33600000D02*
X139500000Y-34500000D01*
X140325000Y-32775000D02*
X139500000Y-33600000D01*
X141300000Y-32775000D02*
X140325000Y-32775000D01*
D36*
%TO.N,/BOOT*%
X133375000Y-51575000D02*
X133375000Y-50299998D01*
X135000000Y-53200000D02*
X133375000Y-51575000D01*
X140925000Y-53200000D02*
X135000000Y-53200000D01*
%TO.N,/RESET*%
X140925000Y-48775000D02*
X141200000Y-48500000D01*
X140925000Y-50200000D02*
X140925000Y-48775000D01*
X140825002Y-50299998D02*
X140925000Y-50200000D01*
X139175000Y-50299998D02*
X140825002Y-50299998D01*
X140875000Y-50250000D02*
X140925000Y-50200000D01*
X140875000Y-51700000D02*
X140875000Y-50250000D01*
D35*
%TO.N,+3V3*%
X119388900Y-35825000D02*
X120500000Y-36936100D01*
X117900000Y-35825000D02*
X119388900Y-35825000D01*
%TD*%
%TA.AperFunction,Conductor*%
%TO.N,GND*%
G36*
X143458691Y-28019407D02*
G01*
X143494655Y-28068907D01*
X143499500Y-28099500D01*
X143499500Y-32158745D01*
X143480593Y-32216936D01*
X143431093Y-32252900D01*
X143369907Y-32252900D01*
X143330498Y-32228750D01*
X143303220Y-32201472D01*
X143303217Y-32201470D01*
X143183132Y-32140283D01*
X143183127Y-32140281D01*
X143183126Y-32140281D01*
X143149913Y-32135020D01*
X143083490Y-32124500D01*
X143083488Y-32124500D01*
X142516512Y-32124500D01*
X142516510Y-32124500D01*
X142416874Y-32140281D01*
X142416867Y-32140283D01*
X142296782Y-32201470D01*
X142201471Y-32296781D01*
X142138209Y-32420939D01*
X142094944Y-32464203D01*
X142034512Y-32473774D01*
X141979996Y-32445996D01*
X141961791Y-32420939D01*
X141898529Y-32296782D01*
X141898528Y-32296780D01*
X141803220Y-32201472D01*
X141803217Y-32201470D01*
X141683132Y-32140283D01*
X141683127Y-32140281D01*
X141683126Y-32140281D01*
X141649913Y-32135020D01*
X141583490Y-32124500D01*
X141583488Y-32124500D01*
X141016512Y-32124500D01*
X141016510Y-32124500D01*
X140916874Y-32140281D01*
X140916867Y-32140283D01*
X140796782Y-32201470D01*
X140701470Y-32296782D01*
X140640283Y-32416867D01*
X140640281Y-32416874D01*
X140624500Y-32516510D01*
X140624500Y-33033489D01*
X140640281Y-33133125D01*
X140640283Y-33133132D01*
X140701470Y-33253217D01*
X140701472Y-33253220D01*
X140796780Y-33348528D01*
X140796782Y-33348529D01*
X140916867Y-33409716D01*
X140916869Y-33409716D01*
X140916874Y-33409719D01*
X140992541Y-33421703D01*
X141016510Y-33425500D01*
X141016512Y-33425500D01*
X141583490Y-33425500D01*
X141604885Y-33422111D01*
X141683126Y-33409719D01*
X141803220Y-33348528D01*
X141898528Y-33253220D01*
X141924134Y-33202963D01*
X141961791Y-33129061D01*
X142005055Y-33085796D01*
X142065487Y-33076225D01*
X142120004Y-33104003D01*
X142138209Y-33129061D01*
X142201470Y-33253217D01*
X142201472Y-33253220D01*
X142296780Y-33348528D01*
X142296782Y-33348529D01*
X142416867Y-33409716D01*
X142416869Y-33409716D01*
X142416874Y-33409719D01*
X142492541Y-33421703D01*
X142516510Y-33425500D01*
X142516512Y-33425500D01*
X143083490Y-33425500D01*
X143104885Y-33422111D01*
X143183126Y-33409719D01*
X143303220Y-33348528D01*
X143330498Y-33321249D01*
X143385013Y-33293474D01*
X143445445Y-33303045D01*
X143488710Y-33346310D01*
X143499500Y-33391255D01*
X143499500Y-56900500D01*
X143480593Y-56958691D01*
X143431093Y-56994655D01*
X143400500Y-56999500D01*
X139840442Y-56999500D01*
X139782251Y-56980593D01*
X139746287Y-56931093D01*
X139743344Y-56881185D01*
X139744865Y-56873534D01*
X139744867Y-56873533D01*
X139756500Y-56815050D01*
X139756500Y-55784954D01*
X139744867Y-55726471D01*
X139700552Y-55660150D01*
X139700548Y-55660147D01*
X139634233Y-55615836D01*
X139634231Y-55615835D01*
X139634228Y-55615834D01*
X139634227Y-55615834D01*
X139575758Y-55604203D01*
X139575748Y-55604202D01*
X138774252Y-55604202D01*
X138774251Y-55604202D01*
X138774241Y-55604203D01*
X138715772Y-55615834D01*
X138715766Y-55615836D01*
X138649451Y-55660147D01*
X138649445Y-55660153D01*
X138605134Y-55726468D01*
X138605132Y-55726474D01*
X138593501Y-55784943D01*
X138593500Y-55784953D01*
X138593500Y-55784954D01*
X138593500Y-56815050D01*
X138605133Y-56873533D01*
X138605134Y-56873534D01*
X138606656Y-56881185D01*
X138599465Y-56941946D01*
X138557933Y-56986877D01*
X138509558Y-56999500D01*
X134040442Y-56999500D01*
X133982251Y-56980593D01*
X133946287Y-56931093D01*
X133943344Y-56881185D01*
X133944865Y-56873534D01*
X133944867Y-56873533D01*
X133956500Y-56815050D01*
X133956500Y-55784954D01*
X133944867Y-55726471D01*
X133900552Y-55660150D01*
X133900548Y-55660147D01*
X133834233Y-55615836D01*
X133834231Y-55615835D01*
X133834228Y-55615834D01*
X133834227Y-55615834D01*
X133775758Y-55604203D01*
X133775748Y-55604202D01*
X132974252Y-55604202D01*
X132974251Y-55604202D01*
X132974241Y-55604203D01*
X132915772Y-55615834D01*
X132915766Y-55615836D01*
X132849451Y-55660147D01*
X132849445Y-55660153D01*
X132805134Y-55726468D01*
X132805132Y-55726474D01*
X132793501Y-55784943D01*
X132793500Y-55784953D01*
X132793500Y-55784954D01*
X132793500Y-56815050D01*
X132805133Y-56873533D01*
X132805134Y-56873534D01*
X132806656Y-56881185D01*
X132799465Y-56941946D01*
X132757933Y-56986877D01*
X132709558Y-56999500D01*
X117099500Y-56999500D01*
X117041309Y-56980593D01*
X117005345Y-56931093D01*
X117000500Y-56900500D01*
X117000500Y-49284234D01*
X122139500Y-49284234D01*
X122139500Y-49435766D01*
X122163276Y-49524500D01*
X122178720Y-49582139D01*
X122254481Y-49713360D01*
X122254483Y-49713362D01*
X122254485Y-49713365D01*
X122361635Y-49820515D01*
X122361637Y-49820516D01*
X122361639Y-49820518D01*
X122492861Y-49896279D01*
X122492859Y-49896279D01*
X122492863Y-49896280D01*
X122492865Y-49896281D01*
X122639234Y-49935500D01*
X122639236Y-49935500D01*
X122790764Y-49935500D01*
X122790766Y-49935500D01*
X122889878Y-49908943D01*
X122950979Y-49912146D01*
X122998528Y-49950651D01*
X123014500Y-50004570D01*
X123014500Y-50033260D01*
X123021118Y-50078682D01*
X123024427Y-50101395D01*
X123062994Y-50180285D01*
X123071565Y-50240867D01*
X123056369Y-50278766D01*
X123030486Y-50317502D01*
X123030486Y-50317503D01*
X123030485Y-50317505D01*
X123014501Y-50397862D01*
X123014500Y-50397867D01*
X123014500Y-50602129D01*
X123014501Y-50602137D01*
X123030484Y-50682494D01*
X123030486Y-50682498D01*
X123038840Y-50695001D01*
X123055447Y-50753889D01*
X123038840Y-50804999D01*
X123030485Y-50817503D01*
X123030484Y-50817504D01*
X123014500Y-50897864D01*
X123014500Y-51102129D01*
X123014501Y-51102137D01*
X123030484Y-51182494D01*
X123030486Y-51182498D01*
X123038840Y-51195001D01*
X123055447Y-51253889D01*
X123038840Y-51304999D01*
X123030485Y-51317503D01*
X123030484Y-51317504D01*
X123014500Y-51397864D01*
X123014500Y-51602129D01*
X123014501Y-51602137D01*
X123030484Y-51682494D01*
X123030486Y-51682498D01*
X123038840Y-51695001D01*
X123055447Y-51753889D01*
X123038840Y-51804999D01*
X123030485Y-51817503D01*
X123030484Y-51817504D01*
X123014500Y-51897864D01*
X123014500Y-52102129D01*
X123014501Y-52102137D01*
X123030484Y-52182494D01*
X123030486Y-52182498D01*
X123038840Y-52195001D01*
X123055447Y-52253889D01*
X123038840Y-52304999D01*
X123030485Y-52317503D01*
X123030484Y-52317504D01*
X123014500Y-52397864D01*
X123014500Y-52602129D01*
X123014501Y-52602137D01*
X123030484Y-52682494D01*
X123030486Y-52682498D01*
X123038840Y-52695001D01*
X123055447Y-52753889D01*
X123038840Y-52804999D01*
X123030485Y-52817503D01*
X123030484Y-52817504D01*
X123014500Y-52897864D01*
X123014500Y-53102129D01*
X123014501Y-53102137D01*
X123030484Y-53182494D01*
X123030486Y-53182498D01*
X123038840Y-53195001D01*
X123055447Y-53253889D01*
X123038840Y-53304999D01*
X123030485Y-53317503D01*
X123030484Y-53317504D01*
X123014500Y-53397864D01*
X123014500Y-53602129D01*
X123014501Y-53602137D01*
X123030484Y-53682494D01*
X123030486Y-53682498D01*
X123038840Y-53695001D01*
X123055447Y-53753889D01*
X123038840Y-53804999D01*
X123030485Y-53817503D01*
X123030484Y-53817504D01*
X123014500Y-53897864D01*
X123014500Y-54102129D01*
X123014501Y-54102137D01*
X123030484Y-54182494D01*
X123030485Y-54182496D01*
X123056368Y-54221232D01*
X123072977Y-54280120D01*
X123062994Y-54319714D01*
X123024427Y-54398604D01*
X123014500Y-54466743D01*
X123014500Y-54495430D01*
X122995593Y-54553621D01*
X122946093Y-54589585D01*
X122889879Y-54591056D01*
X122790766Y-54564500D01*
X122639234Y-54564500D01*
X122549652Y-54588503D01*
X122492860Y-54603720D01*
X122361639Y-54679481D01*
X122254481Y-54786639D01*
X122178720Y-54917860D01*
X122178719Y-54917865D01*
X122139500Y-55064234D01*
X122139500Y-55215766D01*
X122174086Y-55344847D01*
X122178720Y-55362139D01*
X122254481Y-55493360D01*
X122254483Y-55493362D01*
X122254485Y-55493365D01*
X122361635Y-55600515D01*
X122361637Y-55600516D01*
X122361639Y-55600518D01*
X122492861Y-55676279D01*
X122492859Y-55676279D01*
X122492863Y-55676280D01*
X122492865Y-55676281D01*
X122639234Y-55715500D01*
X122639236Y-55715500D01*
X122790764Y-55715500D01*
X122790766Y-55715500D01*
X122937135Y-55676281D01*
X122937137Y-55676279D01*
X122937139Y-55676279D01*
X123068360Y-55600518D01*
X123068360Y-55600517D01*
X123068365Y-55600515D01*
X123175515Y-55493365D01*
X123251281Y-55362135D01*
X123288327Y-55223875D01*
X123321650Y-55172563D01*
X123378771Y-55150636D01*
X123383953Y-55150500D01*
X124248257Y-55150500D01*
X124248260Y-55150500D01*
X124316393Y-55140573D01*
X124421483Y-55089198D01*
X124504198Y-55006483D01*
X124555573Y-54901393D01*
X124565500Y-54833260D01*
X124565500Y-54466740D01*
X124555573Y-54398607D01*
X124517005Y-54319714D01*
X124508434Y-54259132D01*
X124523629Y-54221235D01*
X124549515Y-54182495D01*
X124565500Y-54102133D01*
X124565500Y-54043477D01*
X124924500Y-54043477D01*
X124924500Y-54506520D01*
X124924501Y-54506523D01*
X124939352Y-54600299D01*
X124939354Y-54600304D01*
X124996950Y-54713342D01*
X125086658Y-54803050D01*
X125199696Y-54860646D01*
X125293481Y-54875500D01*
X125906518Y-54875499D01*
X125906520Y-54875499D01*
X125906521Y-54875498D01*
X125953411Y-54868072D01*
X126000299Y-54860647D01*
X126000299Y-54860646D01*
X126000304Y-54860646D01*
X126113342Y-54803050D01*
X126203050Y-54713342D01*
X126260646Y-54600304D01*
X126275500Y-54506519D01*
X126275499Y-54043482D01*
X126260646Y-53949696D01*
X126203050Y-53836658D01*
X126113342Y-53746950D01*
X126000304Y-53689354D01*
X126000305Y-53689354D01*
X125906522Y-53674500D01*
X125293479Y-53674500D01*
X125293476Y-53674501D01*
X125199700Y-53689352D01*
X125199695Y-53689354D01*
X125086659Y-53746949D01*
X124996949Y-53836659D01*
X124939354Y-53949695D01*
X124924500Y-54043477D01*
X124565500Y-54043477D01*
X124565499Y-53897868D01*
X124549515Y-53817505D01*
X124541159Y-53804999D01*
X124524551Y-53746114D01*
X124541159Y-53694999D01*
X124549515Y-53682495D01*
X124565500Y-53602133D01*
X124565499Y-53397868D01*
X124549515Y-53317505D01*
X124541159Y-53304999D01*
X124524551Y-53246114D01*
X124541159Y-53194999D01*
X124549515Y-53182495D01*
X124565500Y-53102133D01*
X124565499Y-52897868D01*
X124549515Y-52817505D01*
X124541159Y-52804999D01*
X124524551Y-52746114D01*
X124541159Y-52694999D01*
X124549515Y-52682495D01*
X124565500Y-52602133D01*
X124565499Y-52397868D01*
X124549515Y-52317505D01*
X124541159Y-52304999D01*
X124524551Y-52246114D01*
X124541159Y-52194999D01*
X124549515Y-52182495D01*
X124565500Y-52102133D01*
X124565499Y-51911599D01*
X124999500Y-51911599D01*
X124999500Y-52088397D01*
X124999501Y-52088404D01*
X125014759Y-52165115D01*
X125014759Y-52165116D01*
X125014760Y-52165117D01*
X125034726Y-52194999D01*
X125051334Y-52253887D01*
X125034727Y-52304999D01*
X125014761Y-52334880D01*
X125014759Y-52334886D01*
X124999501Y-52411589D01*
X124999500Y-52411599D01*
X124999500Y-52588397D01*
X124999501Y-52588404D01*
X125014759Y-52665115D01*
X125014759Y-52665116D01*
X125014760Y-52665117D01*
X125034726Y-52694999D01*
X125051334Y-52753887D01*
X125034727Y-52804999D01*
X125014761Y-52834880D01*
X125014759Y-52834886D01*
X124999501Y-52911589D01*
X124999500Y-52911599D01*
X124999500Y-53088397D01*
X124999501Y-53088404D01*
X125014759Y-53165116D01*
X125014760Y-53165118D01*
X125068880Y-53246114D01*
X125072888Y-53252112D01*
X125159883Y-53310240D01*
X125236599Y-53325500D01*
X125763400Y-53325499D01*
X125840117Y-53310240D01*
X125927112Y-53252112D01*
X125985240Y-53165117D01*
X126000500Y-53088401D01*
X126000499Y-52911600D01*
X125985240Y-52834883D01*
X125965273Y-52805001D01*
X125948665Y-52746114D01*
X125965274Y-52694998D01*
X125985238Y-52665120D01*
X125985238Y-52665119D01*
X125985240Y-52665117D01*
X126000500Y-52588401D01*
X126000499Y-52411600D01*
X126000499Y-52411599D01*
X126299500Y-52411599D01*
X126299500Y-52588397D01*
X126299501Y-52588404D01*
X126314759Y-52665115D01*
X126314759Y-52665116D01*
X126314760Y-52665117D01*
X126334726Y-52694999D01*
X126351334Y-52753887D01*
X126334727Y-52804999D01*
X126314761Y-52834880D01*
X126314759Y-52834886D01*
X126299501Y-52911589D01*
X126299500Y-52911599D01*
X126299500Y-53088397D01*
X126299501Y-53088404D01*
X126314759Y-53165116D01*
X126314760Y-53165118D01*
X126368880Y-53246114D01*
X126372888Y-53252112D01*
X126459883Y-53310240D01*
X126536599Y-53325500D01*
X127063400Y-53325499D01*
X127140117Y-53310240D01*
X127227112Y-53252112D01*
X127285240Y-53165117D01*
X127300500Y-53088401D01*
X127300499Y-52911600D01*
X127285240Y-52834883D01*
X127265273Y-52805001D01*
X127248665Y-52746114D01*
X127265274Y-52694998D01*
X127285238Y-52665120D01*
X127285238Y-52665119D01*
X127285240Y-52665117D01*
X127300500Y-52588401D01*
X127300499Y-52411600D01*
X127285240Y-52334883D01*
X127285237Y-52334879D01*
X127256176Y-52291385D01*
X127227112Y-52247888D01*
X127140117Y-52189760D01*
X127140113Y-52189759D01*
X127063410Y-52174501D01*
X127063402Y-52174500D01*
X127063401Y-52174500D01*
X127063400Y-52174500D01*
X126536602Y-52174500D01*
X126536595Y-52174501D01*
X126459883Y-52189759D01*
X126459881Y-52189760D01*
X126372890Y-52247886D01*
X126372886Y-52247890D01*
X126314762Y-52334879D01*
X126314759Y-52334886D01*
X126299501Y-52411589D01*
X126299500Y-52411599D01*
X126000499Y-52411599D01*
X125985240Y-52334883D01*
X125985237Y-52334879D01*
X125965274Y-52305002D01*
X125948665Y-52246114D01*
X125965274Y-52194998D01*
X125985238Y-52165120D01*
X125985238Y-52165119D01*
X125985240Y-52165117D01*
X126000500Y-52088401D01*
X126000499Y-51911600D01*
X125985240Y-51834883D01*
X125985237Y-51834879D01*
X125956176Y-51791385D01*
X125927112Y-51747888D01*
X125840117Y-51689760D01*
X125840113Y-51689759D01*
X125763410Y-51674501D01*
X125763402Y-51674500D01*
X125763401Y-51674500D01*
X125763400Y-51674500D01*
X125236602Y-51674500D01*
X125236595Y-51674501D01*
X125159883Y-51689759D01*
X125159881Y-51689760D01*
X125072890Y-51747886D01*
X125072886Y-51747890D01*
X125014762Y-51834879D01*
X125014759Y-51834886D01*
X124999501Y-51911589D01*
X124999500Y-51911599D01*
X124565499Y-51911599D01*
X124565499Y-51897868D01*
X124549515Y-51817505D01*
X124541159Y-51804999D01*
X124524551Y-51746114D01*
X124541159Y-51694999D01*
X124549515Y-51682495D01*
X124565500Y-51602133D01*
X124565499Y-51397868D01*
X124564626Y-51393481D01*
X124549515Y-51317506D01*
X124549515Y-51317505D01*
X124541159Y-51304999D01*
X124524551Y-51246114D01*
X124541159Y-51194999D01*
X124549515Y-51182495D01*
X124565500Y-51102133D01*
X124565499Y-50897868D01*
X124560658Y-50873531D01*
X124549515Y-50817506D01*
X124549515Y-50817505D01*
X124541159Y-50804999D01*
X124524551Y-50746114D01*
X124541159Y-50694999D01*
X124549515Y-50682495D01*
X124565500Y-50602133D01*
X124565499Y-50493477D01*
X124924500Y-50493477D01*
X124924500Y-50956520D01*
X124924501Y-50956523D01*
X124939352Y-51050299D01*
X124939354Y-51050304D01*
X124996950Y-51163342D01*
X125086658Y-51253050D01*
X125199696Y-51310646D01*
X125293481Y-51325500D01*
X125906518Y-51325499D01*
X125906520Y-51325499D01*
X125906521Y-51325498D01*
X125957007Y-51317503D01*
X126000299Y-51310647D01*
X126000299Y-51310646D01*
X126000304Y-51310646D01*
X126113342Y-51253050D01*
X126203050Y-51163342D01*
X126260646Y-51050304D01*
X126275500Y-50956519D01*
X126275499Y-50493482D01*
X126260646Y-50399696D01*
X126203050Y-50286658D01*
X126113342Y-50196950D01*
X126000304Y-50139354D01*
X126000305Y-50139354D01*
X125906522Y-50124500D01*
X125293479Y-50124500D01*
X125293476Y-50124501D01*
X125199700Y-50139352D01*
X125199695Y-50139354D01*
X125086659Y-50196949D01*
X124996949Y-50286659D01*
X124939354Y-50399695D01*
X124924500Y-50493477D01*
X124565499Y-50493477D01*
X124565499Y-50397868D01*
X124549515Y-50317505D01*
X124523631Y-50278767D01*
X124507022Y-50219879D01*
X124517005Y-50180285D01*
X124555573Y-50101393D01*
X124565500Y-50033260D01*
X124565500Y-49784951D01*
X132793500Y-49784951D01*
X132793500Y-50815044D01*
X132793501Y-50815056D01*
X132805132Y-50873525D01*
X132805134Y-50873531D01*
X132849445Y-50939846D01*
X132849448Y-50939850D01*
X132915769Y-50984165D01*
X132960231Y-50993009D01*
X132974241Y-50995796D01*
X132974246Y-50995796D01*
X132974252Y-50995798D01*
X132974253Y-50995798D01*
X133775747Y-50995798D01*
X133775748Y-50995798D01*
X133834231Y-50984165D01*
X133900552Y-50939850D01*
X133944867Y-50873529D01*
X133956500Y-50815046D01*
X133956500Y-49784951D01*
X138593500Y-49784951D01*
X138593500Y-50815044D01*
X138593501Y-50815056D01*
X138605132Y-50873525D01*
X138605134Y-50873531D01*
X138649445Y-50939846D01*
X138649448Y-50939850D01*
X138715769Y-50984165D01*
X138760231Y-50993009D01*
X138774241Y-50995796D01*
X138774246Y-50995796D01*
X138774252Y-50995798D01*
X138774253Y-50995798D01*
X139575747Y-50995798D01*
X139575748Y-50995798D01*
X139634231Y-50984165D01*
X139700552Y-50939850D01*
X139744867Y-50873529D01*
X139756500Y-50815046D01*
X139756500Y-49916510D01*
X140274500Y-49916510D01*
X140274500Y-50483489D01*
X140290281Y-50583125D01*
X140290283Y-50583132D01*
X140347281Y-50694995D01*
X140351472Y-50703220D01*
X140446780Y-50798528D01*
X140446782Y-50798529D01*
X140562502Y-50857492D01*
X140605767Y-50900756D01*
X140615338Y-50961188D01*
X140587560Y-51015705D01*
X140556188Y-51034931D01*
X140556639Y-51035816D01*
X140436659Y-51096949D01*
X140346949Y-51186659D01*
X140289354Y-51299695D01*
X140274500Y-51393477D01*
X140274500Y-52006520D01*
X140274501Y-52006523D01*
X140289352Y-52100299D01*
X140289354Y-52100304D01*
X140346950Y-52213342D01*
X140436658Y-52303050D01*
X140507891Y-52339345D01*
X140556639Y-52364184D01*
X140555847Y-52365737D01*
X140597647Y-52396103D01*
X140616557Y-52454293D01*
X140597653Y-52512485D01*
X140562503Y-52542507D01*
X140446781Y-52601471D01*
X140351470Y-52696782D01*
X140290283Y-52816867D01*
X140290281Y-52816874D01*
X140274500Y-52916510D01*
X140274500Y-53483489D01*
X140290281Y-53583125D01*
X140290283Y-53583132D01*
X140347281Y-53694995D01*
X140351472Y-53703220D01*
X140446780Y-53798528D01*
X140446782Y-53798529D01*
X140566867Y-53859716D01*
X140566869Y-53859716D01*
X140566874Y-53859719D01*
X140642541Y-53871703D01*
X140666510Y-53875500D01*
X140666512Y-53875500D01*
X141183490Y-53875500D01*
X141204885Y-53872111D01*
X141283126Y-53859719D01*
X141403220Y-53798528D01*
X141498528Y-53703220D01*
X141559719Y-53583126D01*
X141575500Y-53483488D01*
X141575500Y-52916512D01*
X141574722Y-52911602D01*
X141571703Y-52892541D01*
X141559719Y-52816874D01*
X141559716Y-52816869D01*
X141559716Y-52816867D01*
X141498529Y-52696782D01*
X141498528Y-52696780D01*
X141403220Y-52601472D01*
X141403217Y-52601470D01*
X141283132Y-52540283D01*
X141283127Y-52540281D01*
X141283126Y-52540281D01*
X141270451Y-52538273D01*
X141251931Y-52535340D01*
X141197414Y-52507562D01*
X141169638Y-52453045D01*
X141179210Y-52392613D01*
X141222472Y-52349350D01*
X141313342Y-52303050D01*
X141403050Y-52213342D01*
X141460646Y-52100304D01*
X141475500Y-52006519D01*
X141475499Y-51393482D01*
X141475498Y-51393477D01*
X141924500Y-51393477D01*
X141924500Y-52006520D01*
X141924501Y-52006523D01*
X141939352Y-52100299D01*
X141939354Y-52100304D01*
X141996950Y-52213342D01*
X142086658Y-52303050D01*
X142199696Y-52360646D01*
X142293481Y-52375500D01*
X142756518Y-52375499D01*
X142756520Y-52375499D01*
X142756521Y-52375498D01*
X142818158Y-52365737D01*
X142850299Y-52360647D01*
X142850299Y-52360646D01*
X142850304Y-52360646D01*
X142963342Y-52303050D01*
X143053050Y-52213342D01*
X143110646Y-52100304D01*
X143125500Y-52006519D01*
X143125499Y-51393482D01*
X143114733Y-51325500D01*
X143110647Y-51299700D01*
X143110646Y-51299698D01*
X143110646Y-51299696D01*
X143053050Y-51186658D01*
X142963342Y-51096950D01*
X142850304Y-51039354D01*
X142850305Y-51039354D01*
X142756522Y-51024500D01*
X142293479Y-51024500D01*
X142293476Y-51024501D01*
X142199700Y-51039352D01*
X142199695Y-51039354D01*
X142086659Y-51096949D01*
X141996949Y-51186659D01*
X141939354Y-51299695D01*
X141924500Y-51393477D01*
X141475498Y-51393477D01*
X141464733Y-51325500D01*
X141460647Y-51299700D01*
X141460646Y-51299698D01*
X141460646Y-51299696D01*
X141403050Y-51186658D01*
X141313342Y-51096950D01*
X141311000Y-51095757D01*
X141222473Y-51050649D01*
X141179209Y-51007384D01*
X141169638Y-50946952D01*
X141197416Y-50892436D01*
X141251931Y-50864659D01*
X141283126Y-50859719D01*
X141403220Y-50798528D01*
X141498528Y-50703220D01*
X141559719Y-50583126D01*
X141575500Y-50483488D01*
X141575500Y-49916512D01*
X141574808Y-49912146D01*
X141565221Y-49851614D01*
X141559719Y-49816874D01*
X141559716Y-49816869D01*
X141559716Y-49816867D01*
X141498529Y-49696782D01*
X141498528Y-49696780D01*
X141403220Y-49601472D01*
X141403217Y-49601470D01*
X141283132Y-49540283D01*
X141283127Y-49540281D01*
X141283126Y-49540281D01*
X141249913Y-49535020D01*
X141183490Y-49524500D01*
X141183488Y-49524500D01*
X140666512Y-49524500D01*
X140666510Y-49524500D01*
X140566874Y-49540281D01*
X140566867Y-49540283D01*
X140446782Y-49601470D01*
X140351470Y-49696782D01*
X140290283Y-49816867D01*
X140290281Y-49816874D01*
X140274500Y-49916510D01*
X139756500Y-49916510D01*
X139756500Y-49784950D01*
X139744867Y-49726467D01*
X139700552Y-49660146D01*
X139700548Y-49660143D01*
X139634233Y-49615832D01*
X139634231Y-49615831D01*
X139634228Y-49615830D01*
X139634227Y-49615830D01*
X139575758Y-49604199D01*
X139575748Y-49604198D01*
X138774252Y-49604198D01*
X138774251Y-49604198D01*
X138774241Y-49604199D01*
X138715772Y-49615830D01*
X138715766Y-49615832D01*
X138649451Y-49660143D01*
X138649445Y-49660149D01*
X138605134Y-49726464D01*
X138605132Y-49726470D01*
X138593501Y-49784939D01*
X138593500Y-49784951D01*
X133956500Y-49784951D01*
X133956500Y-49784950D01*
X133944867Y-49726467D01*
X133900552Y-49660146D01*
X133900548Y-49660143D01*
X133834233Y-49615832D01*
X133834231Y-49615831D01*
X133834228Y-49615830D01*
X133834227Y-49615830D01*
X133775758Y-49604199D01*
X133775748Y-49604198D01*
X132974252Y-49604198D01*
X132974251Y-49604198D01*
X132974241Y-49604199D01*
X132915772Y-49615830D01*
X132915766Y-49615832D01*
X132849451Y-49660143D01*
X132849445Y-49660149D01*
X132805134Y-49726464D01*
X132805132Y-49726470D01*
X132793501Y-49784939D01*
X132793500Y-49784951D01*
X124565500Y-49784951D01*
X124565500Y-49666740D01*
X124555573Y-49598607D01*
X124547522Y-49582139D01*
X124527059Y-49540281D01*
X124504198Y-49493517D01*
X124421483Y-49410802D01*
X124421481Y-49410801D01*
X124316395Y-49359427D01*
X124289139Y-49355456D01*
X124248260Y-49349500D01*
X123383953Y-49349500D01*
X123325762Y-49330593D01*
X123289798Y-49281093D01*
X123288333Y-49276147D01*
X123251281Y-49137865D01*
X123251279Y-49137862D01*
X123251279Y-49137860D01*
X123175518Y-49006639D01*
X123175516Y-49006637D01*
X123175515Y-49006635D01*
X123068365Y-48899485D01*
X123068362Y-48899483D01*
X123068360Y-48899481D01*
X122937138Y-48823720D01*
X122937140Y-48823720D01*
X122880347Y-48808503D01*
X122790766Y-48784500D01*
X122639234Y-48784500D01*
X122549652Y-48808503D01*
X122492860Y-48823720D01*
X122361639Y-48899481D01*
X122254481Y-49006639D01*
X122178720Y-49137860D01*
X122178719Y-49137865D01*
X122139500Y-49284234D01*
X117000500Y-49284234D01*
X117000500Y-48080253D01*
X128899500Y-48080253D01*
X128899500Y-48919746D01*
X128899501Y-48919758D01*
X128911132Y-48978227D01*
X128911134Y-48978233D01*
X128955445Y-49044548D01*
X128955448Y-49044552D01*
X129021769Y-49088867D01*
X129066231Y-49097711D01*
X129080241Y-49100498D01*
X129080246Y-49100498D01*
X129080252Y-49100500D01*
X129080253Y-49100500D01*
X129519747Y-49100500D01*
X129519748Y-49100500D01*
X129578231Y-49088867D01*
X129644552Y-49044552D01*
X129644556Y-49044545D01*
X129651446Y-49037657D01*
X129653001Y-49039212D01*
X129690734Y-49009467D01*
X129751872Y-49007065D01*
X129798194Y-49038016D01*
X129798554Y-49037657D01*
X129800359Y-49039462D01*
X129802746Y-49041057D01*
X129804850Y-49043953D01*
X129805445Y-49044548D01*
X129805448Y-49044552D01*
X129871769Y-49088867D01*
X129916231Y-49097711D01*
X129930241Y-49100498D01*
X129930246Y-49100498D01*
X129930252Y-49100500D01*
X129930253Y-49100500D01*
X130369747Y-49100500D01*
X130369748Y-49100500D01*
X130428231Y-49088867D01*
X130494552Y-49044552D01*
X130494556Y-49044545D01*
X130501446Y-49037657D01*
X130503001Y-49039212D01*
X130540734Y-49009467D01*
X130601872Y-49007065D01*
X130648194Y-49038016D01*
X130648554Y-49037657D01*
X130650359Y-49039462D01*
X130652746Y-49041057D01*
X130654850Y-49043953D01*
X130655445Y-49044548D01*
X130655448Y-49044552D01*
X130721769Y-49088867D01*
X130766231Y-49097711D01*
X130780241Y-49100498D01*
X130780246Y-49100498D01*
X130780252Y-49100500D01*
X130780253Y-49100500D01*
X131219747Y-49100500D01*
X131219748Y-49100500D01*
X131278231Y-49088867D01*
X131344552Y-49044552D01*
X131344556Y-49044545D01*
X131351446Y-49037657D01*
X131353001Y-49039212D01*
X131390734Y-49009467D01*
X131451872Y-49007065D01*
X131498194Y-49038016D01*
X131498554Y-49037657D01*
X131500359Y-49039462D01*
X131502746Y-49041057D01*
X131504850Y-49043953D01*
X131505445Y-49044548D01*
X131505448Y-49044552D01*
X131571769Y-49088867D01*
X131616231Y-49097711D01*
X131630241Y-49100498D01*
X131630246Y-49100498D01*
X131630252Y-49100500D01*
X131630253Y-49100500D01*
X132069747Y-49100500D01*
X132069748Y-49100500D01*
X132128231Y-49088867D01*
X132194552Y-49044552D01*
X132194556Y-49044545D01*
X132201446Y-49037657D01*
X132203001Y-49039212D01*
X132240734Y-49009467D01*
X132301872Y-49007065D01*
X132348194Y-49038016D01*
X132348554Y-49037657D01*
X132350359Y-49039462D01*
X132352746Y-49041057D01*
X132354850Y-49043953D01*
X132355445Y-49044548D01*
X132355448Y-49044552D01*
X132421769Y-49088867D01*
X132466231Y-49097711D01*
X132480241Y-49100498D01*
X132480246Y-49100498D01*
X132480252Y-49100500D01*
X132480253Y-49100500D01*
X132919747Y-49100500D01*
X132919748Y-49100500D01*
X132978231Y-49088867D01*
X133044552Y-49044552D01*
X133044556Y-49044545D01*
X133051446Y-49037657D01*
X133053001Y-49039212D01*
X133090734Y-49009467D01*
X133151872Y-49007065D01*
X133198194Y-49038016D01*
X133198554Y-49037657D01*
X133200359Y-49039462D01*
X133202746Y-49041057D01*
X133204850Y-49043953D01*
X133205445Y-49044548D01*
X133205448Y-49044552D01*
X133271769Y-49088867D01*
X133316231Y-49097711D01*
X133330241Y-49100498D01*
X133330246Y-49100498D01*
X133330252Y-49100500D01*
X133330253Y-49100500D01*
X133769747Y-49100500D01*
X133769748Y-49100500D01*
X133828231Y-49088867D01*
X133894552Y-49044552D01*
X133894556Y-49044545D01*
X133901446Y-49037657D01*
X133903001Y-49039212D01*
X133940734Y-49009467D01*
X134001872Y-49007065D01*
X134048194Y-49038016D01*
X134048554Y-49037657D01*
X134050359Y-49039462D01*
X134052746Y-49041057D01*
X134054850Y-49043953D01*
X134055445Y-49044548D01*
X134055448Y-49044552D01*
X134121769Y-49088867D01*
X134166231Y-49097711D01*
X134180241Y-49100498D01*
X134180246Y-49100498D01*
X134180252Y-49100500D01*
X134180253Y-49100500D01*
X134619747Y-49100500D01*
X134619748Y-49100500D01*
X134678231Y-49088867D01*
X134744552Y-49044552D01*
X134744556Y-49044545D01*
X134751446Y-49037657D01*
X134753001Y-49039212D01*
X134790734Y-49009467D01*
X134851872Y-49007065D01*
X134898194Y-49038016D01*
X134898554Y-49037657D01*
X134900359Y-49039462D01*
X134902746Y-49041057D01*
X134904850Y-49043953D01*
X134905445Y-49044548D01*
X134905448Y-49044552D01*
X134971769Y-49088867D01*
X135016231Y-49097711D01*
X135030241Y-49100498D01*
X135030246Y-49100498D01*
X135030252Y-49100500D01*
X135030253Y-49100500D01*
X135469747Y-49100500D01*
X135469748Y-49100500D01*
X135528231Y-49088867D01*
X135594552Y-49044552D01*
X135594556Y-49044545D01*
X135601446Y-49037657D01*
X135603001Y-49039212D01*
X135640734Y-49009467D01*
X135701872Y-49007065D01*
X135748194Y-49038016D01*
X135748554Y-49037657D01*
X135750359Y-49039462D01*
X135752746Y-49041057D01*
X135754850Y-49043953D01*
X135755445Y-49044548D01*
X135755448Y-49044552D01*
X135821769Y-49088867D01*
X135866231Y-49097711D01*
X135880241Y-49100498D01*
X135880246Y-49100498D01*
X135880252Y-49100500D01*
X135880253Y-49100500D01*
X136319747Y-49100500D01*
X136319748Y-49100500D01*
X136378231Y-49088867D01*
X136444552Y-49044552D01*
X136444556Y-49044545D01*
X136451446Y-49037657D01*
X136453001Y-49039212D01*
X136490734Y-49009467D01*
X136551872Y-49007065D01*
X136598194Y-49038016D01*
X136598554Y-49037657D01*
X136600359Y-49039462D01*
X136602746Y-49041057D01*
X136604850Y-49043953D01*
X136605445Y-49044548D01*
X136605448Y-49044552D01*
X136671769Y-49088867D01*
X136716231Y-49097711D01*
X136730241Y-49100498D01*
X136730246Y-49100498D01*
X136730252Y-49100500D01*
X136730253Y-49100500D01*
X137169747Y-49100500D01*
X137169748Y-49100500D01*
X137228231Y-49088867D01*
X137294552Y-49044552D01*
X137294556Y-49044545D01*
X137301446Y-49037657D01*
X137303001Y-49039212D01*
X137340734Y-49009467D01*
X137401872Y-49007065D01*
X137448194Y-49038016D01*
X137448554Y-49037657D01*
X137450359Y-49039462D01*
X137452746Y-49041057D01*
X137454850Y-49043953D01*
X137455445Y-49044548D01*
X137455448Y-49044552D01*
X137521769Y-49088867D01*
X137566231Y-49097711D01*
X137580241Y-49100498D01*
X137580246Y-49100498D01*
X137580252Y-49100500D01*
X137580253Y-49100500D01*
X138019747Y-49100500D01*
X138019748Y-49100500D01*
X138078231Y-49088867D01*
X138144552Y-49044552D01*
X138188867Y-48978231D01*
X138200500Y-48919748D01*
X138200500Y-48080253D01*
X139949500Y-48080253D01*
X139949500Y-48919746D01*
X139949501Y-48919758D01*
X139961132Y-48978227D01*
X139961134Y-48978233D01*
X140005445Y-49044548D01*
X140005448Y-49044552D01*
X140071769Y-49088867D01*
X140116231Y-49097711D01*
X140130241Y-49100498D01*
X140130246Y-49100498D01*
X140130252Y-49100500D01*
X140130253Y-49100500D01*
X140569747Y-49100500D01*
X140569748Y-49100500D01*
X140628231Y-49088867D01*
X140694552Y-49044552D01*
X140694556Y-49044545D01*
X140701446Y-49037657D01*
X140703001Y-49039212D01*
X140740734Y-49009467D01*
X140801872Y-49007065D01*
X140848194Y-49038016D01*
X140848554Y-49037657D01*
X140850359Y-49039462D01*
X140852746Y-49041057D01*
X140854850Y-49043953D01*
X140855445Y-49044548D01*
X140855448Y-49044552D01*
X140921769Y-49088867D01*
X140966231Y-49097711D01*
X140980241Y-49100498D01*
X140980246Y-49100498D01*
X140980252Y-49100500D01*
X140980253Y-49100500D01*
X141419747Y-49100500D01*
X141419748Y-49100500D01*
X141478231Y-49088867D01*
X141544552Y-49044552D01*
X141588867Y-48978231D01*
X141600500Y-48919748D01*
X141600500Y-48080252D01*
X141588867Y-48021769D01*
X141544552Y-47955448D01*
X141544548Y-47955445D01*
X141478233Y-47911134D01*
X141478231Y-47911133D01*
X141478228Y-47911132D01*
X141478227Y-47911132D01*
X141419758Y-47899501D01*
X141419748Y-47899500D01*
X140980252Y-47899500D01*
X140980251Y-47899500D01*
X140980241Y-47899501D01*
X140921772Y-47911132D01*
X140921766Y-47911134D01*
X140855451Y-47955445D01*
X140848554Y-47962343D01*
X140846998Y-47960787D01*
X140809258Y-47990535D01*
X140748120Y-47992932D01*
X140701807Y-47961981D01*
X140701446Y-47962343D01*
X140699627Y-47960524D01*
X140697249Y-47958935D01*
X140695152Y-47956049D01*
X140694554Y-47955451D01*
X140694552Y-47955448D01*
X140694548Y-47955445D01*
X140628233Y-47911134D01*
X140628231Y-47911133D01*
X140628228Y-47911132D01*
X140628227Y-47911132D01*
X140569758Y-47899501D01*
X140569748Y-47899500D01*
X140130252Y-47899500D01*
X140130251Y-47899500D01*
X140130241Y-47899501D01*
X140071772Y-47911132D01*
X140071766Y-47911134D01*
X140005451Y-47955445D01*
X140005445Y-47955451D01*
X139961134Y-48021766D01*
X139961132Y-48021772D01*
X139949501Y-48080241D01*
X139949500Y-48080253D01*
X138200500Y-48080253D01*
X138200500Y-48080252D01*
X138188867Y-48021769D01*
X138144552Y-47955448D01*
X138144548Y-47955445D01*
X138078233Y-47911134D01*
X138078231Y-47911133D01*
X138078228Y-47911132D01*
X138078227Y-47911132D01*
X138019758Y-47899501D01*
X138019748Y-47899500D01*
X137580252Y-47899500D01*
X137580251Y-47899500D01*
X137580241Y-47899501D01*
X137521772Y-47911132D01*
X137521766Y-47911134D01*
X137455451Y-47955445D01*
X137448554Y-47962343D01*
X137446998Y-47960787D01*
X137409258Y-47990535D01*
X137348120Y-47992932D01*
X137301807Y-47961981D01*
X137301446Y-47962343D01*
X137299627Y-47960524D01*
X137297249Y-47958935D01*
X137295152Y-47956049D01*
X137294554Y-47955451D01*
X137294552Y-47955448D01*
X137294548Y-47955445D01*
X137228233Y-47911134D01*
X137228231Y-47911133D01*
X137228228Y-47911132D01*
X137228227Y-47911132D01*
X137169758Y-47899501D01*
X137169748Y-47899500D01*
X136730252Y-47899500D01*
X136730251Y-47899500D01*
X136730241Y-47899501D01*
X136671772Y-47911132D01*
X136671766Y-47911134D01*
X136605451Y-47955445D01*
X136598554Y-47962343D01*
X136596998Y-47960787D01*
X136559258Y-47990535D01*
X136498120Y-47992932D01*
X136451807Y-47961981D01*
X136451446Y-47962343D01*
X136449627Y-47960524D01*
X136447249Y-47958935D01*
X136445152Y-47956049D01*
X136444554Y-47955451D01*
X136444552Y-47955448D01*
X136444548Y-47955445D01*
X136378233Y-47911134D01*
X136378231Y-47911133D01*
X136378228Y-47911132D01*
X136378227Y-47911132D01*
X136319758Y-47899501D01*
X136319748Y-47899500D01*
X135880252Y-47899500D01*
X135880251Y-47899500D01*
X135880241Y-47899501D01*
X135821772Y-47911132D01*
X135821766Y-47911134D01*
X135755451Y-47955445D01*
X135748554Y-47962343D01*
X135746998Y-47960787D01*
X135709258Y-47990535D01*
X135648120Y-47992932D01*
X135601807Y-47961981D01*
X135601446Y-47962343D01*
X135599627Y-47960524D01*
X135597249Y-47958935D01*
X135595152Y-47956049D01*
X135594554Y-47955451D01*
X135594552Y-47955448D01*
X135594548Y-47955445D01*
X135528233Y-47911134D01*
X135528231Y-47911133D01*
X135528228Y-47911132D01*
X135528227Y-47911132D01*
X135469758Y-47899501D01*
X135469748Y-47899500D01*
X135030252Y-47899500D01*
X135030251Y-47899500D01*
X135030241Y-47899501D01*
X134971772Y-47911132D01*
X134971766Y-47911134D01*
X134905451Y-47955445D01*
X134898554Y-47962343D01*
X134896998Y-47960787D01*
X134859258Y-47990535D01*
X134798120Y-47992932D01*
X134751807Y-47961981D01*
X134751446Y-47962343D01*
X134749627Y-47960524D01*
X134747249Y-47958935D01*
X134745152Y-47956049D01*
X134744554Y-47955451D01*
X134744552Y-47955448D01*
X134744548Y-47955445D01*
X134678233Y-47911134D01*
X134678231Y-47911133D01*
X134678228Y-47911132D01*
X134678227Y-47911132D01*
X134619758Y-47899501D01*
X134619748Y-47899500D01*
X134180252Y-47899500D01*
X134180251Y-47899500D01*
X134180241Y-47899501D01*
X134121772Y-47911132D01*
X134121766Y-47911134D01*
X134055451Y-47955445D01*
X134048554Y-47962343D01*
X134046998Y-47960787D01*
X134009258Y-47990535D01*
X133948120Y-47992932D01*
X133901807Y-47961981D01*
X133901446Y-47962343D01*
X133899627Y-47960524D01*
X133897249Y-47958935D01*
X133895152Y-47956049D01*
X133894554Y-47955451D01*
X133894552Y-47955448D01*
X133894548Y-47955445D01*
X133828233Y-47911134D01*
X133828231Y-47911133D01*
X133828228Y-47911132D01*
X133828227Y-47911132D01*
X133769758Y-47899501D01*
X133769748Y-47899500D01*
X133330252Y-47899500D01*
X133330251Y-47899500D01*
X133330241Y-47899501D01*
X133271772Y-47911132D01*
X133271766Y-47911134D01*
X133205451Y-47955445D01*
X133198554Y-47962343D01*
X133196998Y-47960787D01*
X133159258Y-47990535D01*
X133098120Y-47992932D01*
X133051807Y-47961981D01*
X133051446Y-47962343D01*
X133049627Y-47960524D01*
X133047249Y-47958935D01*
X133045152Y-47956049D01*
X133044554Y-47955451D01*
X133044552Y-47955448D01*
X133044548Y-47955445D01*
X132978233Y-47911134D01*
X132978231Y-47911133D01*
X132978228Y-47911132D01*
X132978227Y-47911132D01*
X132919758Y-47899501D01*
X132919748Y-47899500D01*
X132480252Y-47899500D01*
X132480251Y-47899500D01*
X132480241Y-47899501D01*
X132421772Y-47911132D01*
X132421766Y-47911134D01*
X132355451Y-47955445D01*
X132348554Y-47962343D01*
X132346998Y-47960787D01*
X132309258Y-47990535D01*
X132248120Y-47992932D01*
X132201807Y-47961981D01*
X132201446Y-47962343D01*
X132199627Y-47960524D01*
X132197249Y-47958935D01*
X132195152Y-47956049D01*
X132194554Y-47955451D01*
X132194552Y-47955448D01*
X132194548Y-47955445D01*
X132128233Y-47911134D01*
X132128231Y-47911133D01*
X132128228Y-47911132D01*
X132128227Y-47911132D01*
X132069758Y-47899501D01*
X132069748Y-47899500D01*
X131630252Y-47899500D01*
X131630251Y-47899500D01*
X131630241Y-47899501D01*
X131571772Y-47911132D01*
X131571766Y-47911134D01*
X131505451Y-47955445D01*
X131498554Y-47962343D01*
X131496998Y-47960787D01*
X131459258Y-47990535D01*
X131398120Y-47992932D01*
X131351807Y-47961981D01*
X131351446Y-47962343D01*
X131349627Y-47960524D01*
X131347249Y-47958935D01*
X131345152Y-47956049D01*
X131344554Y-47955451D01*
X131344552Y-47955448D01*
X131344548Y-47955445D01*
X131278233Y-47911134D01*
X131278231Y-47911133D01*
X131278228Y-47911132D01*
X131278227Y-47911132D01*
X131219758Y-47899501D01*
X131219748Y-47899500D01*
X130780252Y-47899500D01*
X130780251Y-47899500D01*
X130780241Y-47899501D01*
X130721772Y-47911132D01*
X130721766Y-47911134D01*
X130655451Y-47955445D01*
X130648554Y-47962343D01*
X130646998Y-47960787D01*
X130609258Y-47990535D01*
X130548120Y-47992932D01*
X130501807Y-47961981D01*
X130501446Y-47962343D01*
X130499627Y-47960524D01*
X130497249Y-47958935D01*
X130495152Y-47956049D01*
X130494554Y-47955451D01*
X130494552Y-47955448D01*
X130494548Y-47955445D01*
X130428233Y-47911134D01*
X130428231Y-47911133D01*
X130428228Y-47911132D01*
X130428227Y-47911132D01*
X130369758Y-47899501D01*
X130369748Y-47899500D01*
X129930252Y-47899500D01*
X129930251Y-47899500D01*
X129930241Y-47899501D01*
X129871772Y-47911132D01*
X129871766Y-47911134D01*
X129805451Y-47955445D01*
X129798554Y-47962343D01*
X129796998Y-47960787D01*
X129759258Y-47990535D01*
X129698120Y-47992932D01*
X129651807Y-47961981D01*
X129651446Y-47962343D01*
X129649627Y-47960524D01*
X129647249Y-47958935D01*
X129645152Y-47956049D01*
X129644554Y-47955451D01*
X129644552Y-47955448D01*
X129644548Y-47955445D01*
X129578233Y-47911134D01*
X129578231Y-47911133D01*
X129578228Y-47911132D01*
X129578227Y-47911132D01*
X129519758Y-47899501D01*
X129519748Y-47899500D01*
X129080252Y-47899500D01*
X129080251Y-47899500D01*
X129080241Y-47899501D01*
X129021772Y-47911132D01*
X129021766Y-47911134D01*
X128955451Y-47955445D01*
X128955445Y-47955451D01*
X128911134Y-48021766D01*
X128911132Y-48021772D01*
X128899501Y-48080241D01*
X128899500Y-48080253D01*
X117000500Y-48080253D01*
X117000500Y-45893477D01*
X124349500Y-45893477D01*
X124349500Y-46506520D01*
X124349501Y-46506523D01*
X124364352Y-46600299D01*
X124364354Y-46600304D01*
X124421950Y-46713342D01*
X124511658Y-46803050D01*
X124624696Y-46860646D01*
X124718481Y-46875500D01*
X125181518Y-46875499D01*
X125181520Y-46875499D01*
X125181521Y-46875498D01*
X125228411Y-46868072D01*
X125275299Y-46860647D01*
X125275299Y-46860646D01*
X125275304Y-46860646D01*
X125388342Y-46803050D01*
X125478050Y-46713342D01*
X125535646Y-46600304D01*
X125550500Y-46506519D01*
X125550499Y-45893482D01*
X125545152Y-45859718D01*
X125535647Y-45799700D01*
X125535646Y-45799698D01*
X125535646Y-45799696D01*
X125478050Y-45686658D01*
X125388342Y-45596950D01*
X125275304Y-45539354D01*
X125275305Y-45539354D01*
X125181522Y-45524500D01*
X124718479Y-45524500D01*
X124718476Y-45524501D01*
X124624700Y-45539352D01*
X124624695Y-45539354D01*
X124511659Y-45596949D01*
X124421949Y-45686659D01*
X124364354Y-45799695D01*
X124349500Y-45893477D01*
X117000500Y-45893477D01*
X117000500Y-44916510D01*
X122124500Y-44916510D01*
X122124500Y-45483489D01*
X122140281Y-45583125D01*
X122140283Y-45583132D01*
X122201470Y-45703217D01*
X122201472Y-45703220D01*
X122296780Y-45798528D01*
X122296782Y-45798529D01*
X122416867Y-45859716D01*
X122416869Y-45859716D01*
X122416874Y-45859719D01*
X122492541Y-45871703D01*
X122516510Y-45875500D01*
X122516512Y-45875500D01*
X123033490Y-45875500D01*
X123054885Y-45872111D01*
X123133126Y-45859719D01*
X123253220Y-45798528D01*
X123348528Y-45703220D01*
X123409719Y-45583126D01*
X123425500Y-45483488D01*
X123425500Y-44916512D01*
X123409719Y-44816874D01*
X123409716Y-44816869D01*
X123409716Y-44816867D01*
X123348529Y-44696782D01*
X123348528Y-44696780D01*
X123253220Y-44601472D01*
X123253217Y-44601470D01*
X123224906Y-44587045D01*
X123181641Y-44543781D01*
X123172070Y-44483349D01*
X123199848Y-44428832D01*
X123250536Y-44401738D01*
X123254246Y-44401000D01*
X123254248Y-44401000D01*
X123312731Y-44389367D01*
X123379052Y-44345052D01*
X123423367Y-44278731D01*
X123435000Y-44220248D01*
X123435000Y-42893477D01*
X124349500Y-42893477D01*
X124349500Y-43506520D01*
X124349501Y-43506523D01*
X124364352Y-43600299D01*
X124364354Y-43600304D01*
X124421950Y-43713342D01*
X124511658Y-43803050D01*
X124624696Y-43860646D01*
X124718481Y-43875500D01*
X125181518Y-43875499D01*
X125181520Y-43875499D01*
X125181521Y-43875498D01*
X125228411Y-43868072D01*
X125275299Y-43860647D01*
X125275299Y-43860646D01*
X125275304Y-43860646D01*
X125388342Y-43803050D01*
X125478050Y-43713342D01*
X125535646Y-43600304D01*
X125550500Y-43506519D01*
X125550499Y-42893482D01*
X125544380Y-42854847D01*
X125535647Y-42799700D01*
X125535646Y-42799698D01*
X125535646Y-42799696D01*
X125478050Y-42686658D01*
X125388342Y-42596950D01*
X125275304Y-42539354D01*
X125275305Y-42539354D01*
X125181522Y-42524500D01*
X124718479Y-42524500D01*
X124718476Y-42524501D01*
X124624700Y-42539352D01*
X124624695Y-42539354D01*
X124511659Y-42596949D01*
X124421949Y-42686659D01*
X124364354Y-42799695D01*
X124349500Y-42893477D01*
X123435000Y-42893477D01*
X123435000Y-42707552D01*
X123433785Y-42701446D01*
X123430844Y-42686658D01*
X123423367Y-42649069D01*
X123379052Y-42582748D01*
X123379048Y-42582745D01*
X123312733Y-42538434D01*
X123312731Y-42538433D01*
X123312728Y-42538432D01*
X123312727Y-42538432D01*
X123254258Y-42526801D01*
X123254248Y-42526800D01*
X122325752Y-42526800D01*
X122325751Y-42526800D01*
X122325741Y-42526801D01*
X122267272Y-42538432D01*
X122267266Y-42538434D01*
X122200951Y-42582745D01*
X122200945Y-42582751D01*
X122156634Y-42649066D01*
X122156632Y-42649072D01*
X122145001Y-42707541D01*
X122145000Y-42707553D01*
X122145000Y-44220246D01*
X122145001Y-44220258D01*
X122156632Y-44278727D01*
X122156634Y-44278733D01*
X122200945Y-44345048D01*
X122200948Y-44345052D01*
X122267269Y-44389367D01*
X122307888Y-44397446D01*
X122361271Y-44427344D01*
X122386886Y-44482909D01*
X122374949Y-44542918D01*
X122333518Y-44582753D01*
X122296781Y-44601471D01*
X122201470Y-44696782D01*
X122140283Y-44816867D01*
X122140281Y-44816874D01*
X122124500Y-44916510D01*
X117000500Y-44916510D01*
X117000500Y-42707553D01*
X119855000Y-42707553D01*
X119855000Y-44220246D01*
X119855001Y-44220258D01*
X119866632Y-44278727D01*
X119866634Y-44278733D01*
X119910945Y-44345048D01*
X119910948Y-44345052D01*
X119977269Y-44389367D01*
X120016920Y-44397254D01*
X120035741Y-44400998D01*
X120035746Y-44400998D01*
X120035752Y-44401000D01*
X120035753Y-44401000D01*
X120964247Y-44401000D01*
X120964248Y-44401000D01*
X121022731Y-44389367D01*
X121089052Y-44345052D01*
X121133367Y-44278731D01*
X121145000Y-44220248D01*
X121145000Y-42707552D01*
X121143785Y-42701446D01*
X121140844Y-42686658D01*
X121133367Y-42649069D01*
X121089052Y-42582748D01*
X121089048Y-42582745D01*
X121022733Y-42538434D01*
X121022731Y-42538433D01*
X121022728Y-42538432D01*
X121022727Y-42538432D01*
X120964258Y-42526801D01*
X120964248Y-42526800D01*
X120035752Y-42526800D01*
X120035751Y-42526800D01*
X120035741Y-42526801D01*
X119977272Y-42538432D01*
X119977266Y-42538434D01*
X119910951Y-42582745D01*
X119910945Y-42582751D01*
X119866634Y-42649066D01*
X119866632Y-42649072D01*
X119855001Y-42707541D01*
X119855000Y-42707553D01*
X117000500Y-42707553D01*
X117000500Y-39893477D01*
X124349500Y-39893477D01*
X124349500Y-40506520D01*
X124349501Y-40506523D01*
X124364352Y-40600299D01*
X124364354Y-40600304D01*
X124421950Y-40713342D01*
X124511658Y-40803050D01*
X124624696Y-40860646D01*
X124718481Y-40875500D01*
X125181518Y-40875499D01*
X125181520Y-40875499D01*
X125181521Y-40875498D01*
X125228411Y-40868072D01*
X125275299Y-40860647D01*
X125275299Y-40860646D01*
X125275304Y-40860646D01*
X125388342Y-40803050D01*
X125478050Y-40713342D01*
X125535646Y-40600304D01*
X125550500Y-40506519D01*
X125550499Y-39893482D01*
X125535646Y-39799696D01*
X125478050Y-39686658D01*
X125388342Y-39596950D01*
X125275304Y-39539354D01*
X125275305Y-39539354D01*
X125181522Y-39524500D01*
X124718479Y-39524500D01*
X124718476Y-39524501D01*
X124624700Y-39539352D01*
X124624695Y-39539354D01*
X124511659Y-39596949D01*
X124421949Y-39686659D01*
X124364354Y-39799695D01*
X124349500Y-39893477D01*
X117000500Y-39893477D01*
X117000500Y-35566510D01*
X117224500Y-35566510D01*
X117224500Y-36083489D01*
X117240281Y-36183125D01*
X117240283Y-36183132D01*
X117299657Y-36299658D01*
X117301472Y-36303220D01*
X117396780Y-36398528D01*
X117396782Y-36398529D01*
X117516867Y-36459716D01*
X117516869Y-36459716D01*
X117516874Y-36459719D01*
X117592541Y-36471703D01*
X117616510Y-36475500D01*
X117616512Y-36475500D01*
X118183490Y-36475500D01*
X118204885Y-36472111D01*
X118283126Y-36459719D01*
X118403220Y-36398528D01*
X118497253Y-36304494D01*
X118551768Y-36276719D01*
X118567255Y-36275500D01*
X118600300Y-36275500D01*
X118658491Y-36294407D01*
X118694455Y-36343907D01*
X118699300Y-36374500D01*
X118699300Y-37692446D01*
X118699301Y-37692458D01*
X118710932Y-37750927D01*
X118710934Y-37750933D01*
X118745758Y-37803050D01*
X118755248Y-37817252D01*
X118821569Y-37861567D01*
X118866031Y-37870411D01*
X118880041Y-37873198D01*
X118880046Y-37873198D01*
X118880052Y-37873200D01*
X118880053Y-37873200D01*
X122119947Y-37873200D01*
X122119948Y-37873200D01*
X122178431Y-37861567D01*
X122244752Y-37817252D01*
X122289067Y-37750931D01*
X122300700Y-37692448D01*
X122300700Y-36893477D01*
X124349500Y-36893477D01*
X124349500Y-37506520D01*
X124349501Y-37506523D01*
X124364352Y-37600299D01*
X124364354Y-37600304D01*
X124421950Y-37713342D01*
X124511658Y-37803050D01*
X124624696Y-37860646D01*
X124718481Y-37875500D01*
X125181518Y-37875499D01*
X125181520Y-37875499D01*
X125181521Y-37875498D01*
X125228411Y-37868072D01*
X125275299Y-37860647D01*
X125275299Y-37860646D01*
X125275304Y-37860646D01*
X125388342Y-37803050D01*
X125478050Y-37713342D01*
X125535646Y-37600304D01*
X125550500Y-37506519D01*
X125550499Y-36893482D01*
X125545080Y-36859266D01*
X125535647Y-36799700D01*
X125535646Y-36799698D01*
X125535646Y-36799696D01*
X125478050Y-36686658D01*
X125388342Y-36596950D01*
X125275304Y-36539354D01*
X125275305Y-36539354D01*
X125181522Y-36524500D01*
X124718479Y-36524500D01*
X124718476Y-36524501D01*
X124624700Y-36539352D01*
X124624695Y-36539354D01*
X124511659Y-36596949D01*
X124421949Y-36686659D01*
X124364354Y-36799695D01*
X124349500Y-36893477D01*
X122300700Y-36893477D01*
X122300700Y-36179752D01*
X122289067Y-36121269D01*
X122244752Y-36054948D01*
X122244601Y-36054847D01*
X122178433Y-36010634D01*
X122178431Y-36010633D01*
X122178428Y-36010632D01*
X122178427Y-36010632D01*
X122119958Y-35999001D01*
X122119948Y-35999000D01*
X122119947Y-35999000D01*
X120241011Y-35999000D01*
X120182820Y-35980093D01*
X120171007Y-35970004D01*
X119970749Y-35769746D01*
X119665514Y-35464511D01*
X119665511Y-35464509D01*
X119665510Y-35464508D01*
X119665509Y-35464507D01*
X119572401Y-35410751D01*
X125944500Y-35410751D01*
X125944500Y-35989248D01*
X125953647Y-36046998D01*
X125959426Y-36083489D01*
X125960049Y-36087419D01*
X125960050Y-36087423D01*
X126007350Y-36180253D01*
X126020342Y-36205751D01*
X126114249Y-36299658D01*
X126232580Y-36359951D01*
X126232584Y-36359951D01*
X126239987Y-36362357D01*
X126239585Y-36363592D01*
X126286890Y-36387696D01*
X126314667Y-36442212D01*
X126305096Y-36502644D01*
X126261832Y-36545908D01*
X126161659Y-36596949D01*
X126071949Y-36686659D01*
X126014354Y-36799695D01*
X125999500Y-36893477D01*
X125999500Y-37506520D01*
X125999501Y-37506523D01*
X126014352Y-37600299D01*
X126014354Y-37600304D01*
X126071950Y-37713342D01*
X126161658Y-37803050D01*
X126261832Y-37854091D01*
X126305096Y-37897355D01*
X126314667Y-37957787D01*
X126286889Y-38012304D01*
X126239586Y-38036409D01*
X126239987Y-38037643D01*
X126232576Y-38040050D01*
X126114250Y-38100341D01*
X126020341Y-38194250D01*
X125960050Y-38312576D01*
X125960049Y-38312580D01*
X125944500Y-38410751D01*
X125944500Y-38989248D01*
X125960049Y-39087419D01*
X125960050Y-39087423D01*
X126018243Y-39201631D01*
X126020342Y-39205751D01*
X126114249Y-39299658D01*
X126232580Y-39359951D01*
X126232584Y-39359951D01*
X126239987Y-39362357D01*
X126239585Y-39363592D01*
X126286890Y-39387696D01*
X126314667Y-39442212D01*
X126305096Y-39502644D01*
X126261832Y-39545908D01*
X126161659Y-39596949D01*
X126071949Y-39686659D01*
X126014354Y-39799695D01*
X125999500Y-39893477D01*
X125999500Y-40506520D01*
X125999501Y-40506523D01*
X126014352Y-40600299D01*
X126014354Y-40600304D01*
X126071950Y-40713342D01*
X126161658Y-40803050D01*
X126261832Y-40854091D01*
X126305096Y-40897355D01*
X126314667Y-40957787D01*
X126286889Y-41012304D01*
X126239586Y-41036409D01*
X126239987Y-41037643D01*
X126232576Y-41040050D01*
X126114250Y-41100341D01*
X126020341Y-41194250D01*
X125960050Y-41312576D01*
X125960049Y-41312580D01*
X125944500Y-41410751D01*
X125944500Y-41989248D01*
X125960049Y-42087419D01*
X125960050Y-42087423D01*
X126018243Y-42201631D01*
X126020342Y-42205751D01*
X126114249Y-42299658D01*
X126232580Y-42359951D01*
X126232584Y-42359951D01*
X126239987Y-42362357D01*
X126239585Y-42363592D01*
X126286890Y-42387696D01*
X126314667Y-42442212D01*
X126305096Y-42502644D01*
X126261832Y-42545908D01*
X126161659Y-42596949D01*
X126071949Y-42686659D01*
X126014354Y-42799695D01*
X125999500Y-42893477D01*
X125999500Y-43506520D01*
X125999501Y-43506523D01*
X126014352Y-43600299D01*
X126014354Y-43600304D01*
X126071950Y-43713342D01*
X126161658Y-43803050D01*
X126261832Y-43854091D01*
X126305096Y-43897355D01*
X126314667Y-43957787D01*
X126286889Y-44012304D01*
X126239586Y-44036409D01*
X126239987Y-44037643D01*
X126232576Y-44040050D01*
X126114250Y-44100341D01*
X126020341Y-44194250D01*
X125960050Y-44312576D01*
X125960049Y-44312580D01*
X125944500Y-44410751D01*
X125944500Y-44989248D01*
X125960049Y-45087419D01*
X125960050Y-45087423D01*
X125976520Y-45119746D01*
X126020342Y-45205751D01*
X126114249Y-45299658D01*
X126232580Y-45359951D01*
X126232584Y-45359951D01*
X126239987Y-45362357D01*
X126239585Y-45363592D01*
X126286890Y-45387696D01*
X126314667Y-45442212D01*
X126305096Y-45502644D01*
X126261832Y-45545908D01*
X126161659Y-45596949D01*
X126071949Y-45686659D01*
X126014354Y-45799695D01*
X125999500Y-45893477D01*
X125999500Y-46506520D01*
X125999501Y-46506523D01*
X126014352Y-46600299D01*
X126014354Y-46600304D01*
X126071950Y-46713342D01*
X126161658Y-46803050D01*
X126274696Y-46860646D01*
X126368481Y-46875500D01*
X126831518Y-46875499D01*
X126831520Y-46875499D01*
X126831521Y-46875498D01*
X126878411Y-46868072D01*
X126925299Y-46860647D01*
X126925299Y-46860646D01*
X126925304Y-46860646D01*
X127038342Y-46803050D01*
X127128050Y-46713342D01*
X127185646Y-46600304D01*
X127200500Y-46506519D01*
X127200499Y-45893482D01*
X127195152Y-45859718D01*
X127185647Y-45799700D01*
X127185646Y-45799698D01*
X127185646Y-45799696D01*
X127128050Y-45686658D01*
X127038342Y-45596950D01*
X127011209Y-45583125D01*
X126925933Y-45539674D01*
X126882669Y-45496409D01*
X126873098Y-45435977D01*
X126900876Y-45381461D01*
X126925934Y-45363255D01*
X126932417Y-45359951D01*
X126932420Y-45359951D01*
X127050751Y-45299658D01*
X127144658Y-45205751D01*
X127204951Y-45087420D01*
X127220500Y-44989246D01*
X127220500Y-44410754D01*
X127218392Y-44397446D01*
X127210094Y-44345054D01*
X127204951Y-44312580D01*
X127144658Y-44194249D01*
X127050751Y-44100342D01*
X127047392Y-44098630D01*
X126925933Y-44036743D01*
X126882669Y-43993478D01*
X126873098Y-43933046D01*
X126900876Y-43878530D01*
X126925929Y-43860327D01*
X127038342Y-43803050D01*
X127128050Y-43713342D01*
X127185646Y-43600304D01*
X127200500Y-43506519D01*
X127200499Y-42893482D01*
X127194380Y-42854847D01*
X127185647Y-42799700D01*
X127185646Y-42799698D01*
X127185646Y-42799696D01*
X127128050Y-42686658D01*
X127038342Y-42596950D01*
X126984975Y-42569758D01*
X126925933Y-42539674D01*
X126882669Y-42496409D01*
X126873098Y-42435977D01*
X126900876Y-42381461D01*
X126925934Y-42363255D01*
X126932417Y-42359951D01*
X126932420Y-42359951D01*
X127050751Y-42299658D01*
X127144658Y-42205751D01*
X127204951Y-42087420D01*
X127220500Y-41989246D01*
X127220500Y-41410754D01*
X127204951Y-41312580D01*
X127144658Y-41194249D01*
X127050751Y-41100342D01*
X127047392Y-41098630D01*
X126925933Y-41036743D01*
X126882669Y-40993478D01*
X126873098Y-40933046D01*
X126900876Y-40878530D01*
X126925929Y-40860327D01*
X127038342Y-40803050D01*
X127128050Y-40713342D01*
X127185646Y-40600304D01*
X127200500Y-40506519D01*
X127200499Y-39893482D01*
X127185646Y-39799696D01*
X127128050Y-39686658D01*
X127038342Y-39596950D01*
X127034156Y-39594817D01*
X126925933Y-39539674D01*
X126882669Y-39496409D01*
X126873098Y-39435977D01*
X126900876Y-39381461D01*
X126925934Y-39363255D01*
X126932417Y-39359951D01*
X126932420Y-39359951D01*
X127050751Y-39299658D01*
X127144658Y-39205751D01*
X127204951Y-39087420D01*
X127220500Y-38989246D01*
X127220500Y-38410754D01*
X127204951Y-38312580D01*
X127144658Y-38194249D01*
X127050751Y-38100342D01*
X127047392Y-38098630D01*
X126925933Y-38036743D01*
X126882669Y-37993478D01*
X126873098Y-37933046D01*
X126900876Y-37878530D01*
X126925929Y-37860327D01*
X127038342Y-37803050D01*
X127128050Y-37713342D01*
X127185646Y-37600304D01*
X127200500Y-37506519D01*
X127200499Y-36893482D01*
X127195080Y-36859266D01*
X127185647Y-36799700D01*
X127185646Y-36799698D01*
X127185646Y-36799696D01*
X127128050Y-36686658D01*
X127038342Y-36596950D01*
X127034156Y-36594817D01*
X126925933Y-36539674D01*
X126882669Y-36496409D01*
X126873098Y-36435977D01*
X126900876Y-36381461D01*
X126925934Y-36363255D01*
X126932417Y-36359951D01*
X126932420Y-36359951D01*
X127050751Y-36299658D01*
X127144658Y-36205751D01*
X127204951Y-36087420D01*
X127220500Y-35989246D01*
X127220500Y-35410754D01*
X127219620Y-35405200D01*
X127211763Y-35355593D01*
X127207750Y-35330253D01*
X127649500Y-35330253D01*
X127649500Y-35769746D01*
X127649501Y-35769758D01*
X127661132Y-35828227D01*
X127661133Y-35828231D01*
X127705448Y-35894552D01*
X127705451Y-35894554D01*
X127712343Y-35901446D01*
X127710787Y-35903001D01*
X127740535Y-35940742D01*
X127742932Y-36001880D01*
X127711981Y-36048192D01*
X127712343Y-36048554D01*
X127710524Y-36050372D01*
X127708935Y-36052751D01*
X127706049Y-36054847D01*
X127705445Y-36055451D01*
X127661134Y-36121766D01*
X127661132Y-36121772D01*
X127649501Y-36180241D01*
X127649500Y-36180253D01*
X127649500Y-36619746D01*
X127649501Y-36619758D01*
X127661132Y-36678227D01*
X127661134Y-36678233D01*
X127705445Y-36744548D01*
X127705448Y-36744552D01*
X127705451Y-36744554D01*
X127712343Y-36751446D01*
X127710787Y-36753001D01*
X127740535Y-36790742D01*
X127742932Y-36851880D01*
X127711981Y-36898192D01*
X127712343Y-36898554D01*
X127710524Y-36900372D01*
X127708935Y-36902751D01*
X127706049Y-36904847D01*
X127705445Y-36905451D01*
X127661134Y-36971766D01*
X127661132Y-36971772D01*
X127649501Y-37030241D01*
X127649500Y-37030253D01*
X127649500Y-37469746D01*
X127649501Y-37469758D01*
X127656815Y-37506523D01*
X127661133Y-37528231D01*
X127705448Y-37594552D01*
X127705451Y-37594554D01*
X127712343Y-37601446D01*
X127710787Y-37603001D01*
X127740535Y-37640742D01*
X127742932Y-37701880D01*
X127711981Y-37748192D01*
X127712343Y-37748554D01*
X127710524Y-37750372D01*
X127708935Y-37752751D01*
X127706049Y-37754847D01*
X127705445Y-37755451D01*
X127661134Y-37821766D01*
X127661132Y-37821772D01*
X127649501Y-37880241D01*
X127649500Y-37880253D01*
X127649500Y-38319746D01*
X127649501Y-38319758D01*
X127661132Y-38378227D01*
X127661134Y-38378233D01*
X127705445Y-38444548D01*
X127705448Y-38444552D01*
X127705451Y-38444554D01*
X127712343Y-38451446D01*
X127710787Y-38453001D01*
X127740535Y-38490742D01*
X127742932Y-38551880D01*
X127711981Y-38598192D01*
X127712343Y-38598554D01*
X127710524Y-38600372D01*
X127708935Y-38602751D01*
X127706049Y-38604847D01*
X127705445Y-38605451D01*
X127661134Y-38671766D01*
X127661132Y-38671772D01*
X127649501Y-38730241D01*
X127649500Y-38730253D01*
X127649500Y-39169746D01*
X127649501Y-39169758D01*
X127656661Y-39205749D01*
X127661133Y-39228231D01*
X127705448Y-39294552D01*
X127705451Y-39294554D01*
X127712343Y-39301446D01*
X127710787Y-39303001D01*
X127740535Y-39340742D01*
X127742932Y-39401880D01*
X127711981Y-39448192D01*
X127712343Y-39448554D01*
X127710524Y-39450372D01*
X127708935Y-39452751D01*
X127706049Y-39454847D01*
X127705445Y-39455451D01*
X127661134Y-39521766D01*
X127661132Y-39521772D01*
X127649501Y-39580241D01*
X127649500Y-39580253D01*
X127649500Y-40019746D01*
X127649501Y-40019758D01*
X127661132Y-40078227D01*
X127661133Y-40078231D01*
X127705448Y-40144552D01*
X127705451Y-40144554D01*
X127712343Y-40151446D01*
X127710787Y-40153001D01*
X127740535Y-40190742D01*
X127742932Y-40251880D01*
X127711981Y-40298192D01*
X127712343Y-40298554D01*
X127710524Y-40300372D01*
X127708935Y-40302751D01*
X127706049Y-40304847D01*
X127705445Y-40305451D01*
X127661134Y-40371766D01*
X127661132Y-40371772D01*
X127649501Y-40430241D01*
X127649500Y-40430253D01*
X127649500Y-40869746D01*
X127649501Y-40869758D01*
X127654991Y-40897355D01*
X127661133Y-40928231D01*
X127705448Y-40994552D01*
X127705451Y-40994554D01*
X127712343Y-41001446D01*
X127710787Y-41003001D01*
X127740535Y-41040742D01*
X127742932Y-41101880D01*
X127711981Y-41148192D01*
X127712343Y-41148554D01*
X127710524Y-41150372D01*
X127708935Y-41152751D01*
X127706049Y-41154847D01*
X127705445Y-41155451D01*
X127661134Y-41221766D01*
X127661132Y-41221772D01*
X127649501Y-41280241D01*
X127649500Y-41280253D01*
X127649500Y-41719746D01*
X127649501Y-41719758D01*
X127661132Y-41778227D01*
X127661133Y-41778231D01*
X127705448Y-41844552D01*
X127705451Y-41844554D01*
X127712343Y-41851446D01*
X127710787Y-41853001D01*
X127740535Y-41890742D01*
X127742932Y-41951880D01*
X127711981Y-41998192D01*
X127712343Y-41998554D01*
X127710524Y-42000372D01*
X127708935Y-42002751D01*
X127706049Y-42004847D01*
X127705445Y-42005451D01*
X127661134Y-42071766D01*
X127661132Y-42071772D01*
X127649501Y-42130241D01*
X127649500Y-42130253D01*
X127649500Y-42569746D01*
X127649501Y-42569758D01*
X127661132Y-42628227D01*
X127661134Y-42628233D01*
X127700173Y-42686658D01*
X127705448Y-42694552D01*
X127705451Y-42694554D01*
X127712343Y-42701446D01*
X127710787Y-42703001D01*
X127740535Y-42740742D01*
X127742932Y-42801880D01*
X127711981Y-42848192D01*
X127712343Y-42848554D01*
X127710524Y-42850372D01*
X127708935Y-42852751D01*
X127706049Y-42854847D01*
X127705445Y-42855451D01*
X127661134Y-42921766D01*
X127661132Y-42921772D01*
X127649501Y-42980241D01*
X127649500Y-42980253D01*
X127649500Y-43419746D01*
X127649501Y-43419758D01*
X127661132Y-43478227D01*
X127661134Y-43478233D01*
X127680037Y-43506523D01*
X127705448Y-43544552D01*
X127705451Y-43544554D01*
X127712343Y-43551446D01*
X127710787Y-43553001D01*
X127740535Y-43590742D01*
X127742932Y-43651880D01*
X127711981Y-43698192D01*
X127712343Y-43698554D01*
X127710524Y-43700372D01*
X127708935Y-43702751D01*
X127706049Y-43704847D01*
X127705445Y-43705451D01*
X127661134Y-43771766D01*
X127661132Y-43771772D01*
X127649501Y-43830241D01*
X127649500Y-43830253D01*
X127649500Y-44269746D01*
X127649501Y-44269758D01*
X127661132Y-44328227D01*
X127661134Y-44328233D01*
X127672374Y-44345054D01*
X127705448Y-44394552D01*
X127705451Y-44394554D01*
X127712343Y-44401446D01*
X127710787Y-44403001D01*
X127740535Y-44440742D01*
X127742932Y-44501880D01*
X127711981Y-44548192D01*
X127712343Y-44548554D01*
X127710524Y-44550372D01*
X127708935Y-44552751D01*
X127706049Y-44554847D01*
X127705445Y-44555451D01*
X127661134Y-44621766D01*
X127661132Y-44621772D01*
X127649501Y-44680241D01*
X127649500Y-44680253D01*
X127649500Y-45119746D01*
X127649501Y-45119758D01*
X127661132Y-45178227D01*
X127661134Y-45178233D01*
X127705445Y-45244548D01*
X127705448Y-45244552D01*
X127705451Y-45244554D01*
X127712343Y-45251446D01*
X127710787Y-45253001D01*
X127740535Y-45290742D01*
X127742932Y-45351880D01*
X127711981Y-45398192D01*
X127712343Y-45398554D01*
X127710524Y-45400372D01*
X127708935Y-45402751D01*
X127706049Y-45404847D01*
X127705445Y-45405451D01*
X127661134Y-45471766D01*
X127661132Y-45471772D01*
X127649501Y-45530241D01*
X127649500Y-45530253D01*
X127649500Y-45969746D01*
X127649501Y-45969758D01*
X127661132Y-46028227D01*
X127661133Y-46028231D01*
X127705448Y-46094552D01*
X127705451Y-46094554D01*
X127712343Y-46101446D01*
X127710787Y-46103001D01*
X127740535Y-46140742D01*
X127742932Y-46201880D01*
X127711981Y-46248192D01*
X127712343Y-46248554D01*
X127710524Y-46250372D01*
X127708935Y-46252751D01*
X127706049Y-46254847D01*
X127705445Y-46255451D01*
X127661134Y-46321766D01*
X127661132Y-46321772D01*
X127649501Y-46380241D01*
X127649500Y-46380253D01*
X127649500Y-46819746D01*
X127649501Y-46819758D01*
X127660590Y-46875500D01*
X127661133Y-46878231D01*
X127705448Y-46944552D01*
X127705451Y-46944554D01*
X127712343Y-46951446D01*
X127710787Y-46953001D01*
X127740535Y-46990742D01*
X127742932Y-47051880D01*
X127711981Y-47098192D01*
X127712343Y-47098554D01*
X127710524Y-47100372D01*
X127708935Y-47102751D01*
X127706049Y-47104847D01*
X127705445Y-47105451D01*
X127661134Y-47171766D01*
X127661132Y-47171772D01*
X127649501Y-47230241D01*
X127649500Y-47230253D01*
X127649500Y-47669746D01*
X127649501Y-47669758D01*
X127661132Y-47728227D01*
X127661133Y-47728231D01*
X127705448Y-47794552D01*
X127771769Y-47838867D01*
X127816231Y-47847711D01*
X127830241Y-47850498D01*
X127830246Y-47850498D01*
X127830252Y-47850500D01*
X127830253Y-47850500D01*
X128669747Y-47850500D01*
X128669748Y-47850500D01*
X128728231Y-47838867D01*
X128794552Y-47794552D01*
X128838867Y-47728231D01*
X128850500Y-47669748D01*
X128850500Y-47230252D01*
X128838867Y-47171769D01*
X128794552Y-47105448D01*
X128794548Y-47105445D01*
X128787657Y-47098554D01*
X128789212Y-47096998D01*
X128759467Y-47059266D01*
X128757065Y-46998128D01*
X128788016Y-46951805D01*
X128787657Y-46951446D01*
X128789462Y-46949640D01*
X128791057Y-46947254D01*
X128793953Y-46945149D01*
X128794545Y-46944556D01*
X128794552Y-46944552D01*
X128838867Y-46878231D01*
X128850500Y-46819748D01*
X128850500Y-46380252D01*
X128838867Y-46321769D01*
X128794552Y-46255448D01*
X128794548Y-46255445D01*
X128787657Y-46248554D01*
X128789212Y-46246998D01*
X128759467Y-46209266D01*
X128757065Y-46148128D01*
X128788016Y-46101805D01*
X128787657Y-46101446D01*
X128789462Y-46099640D01*
X128791057Y-46097254D01*
X128793953Y-46095149D01*
X128794545Y-46094556D01*
X128794552Y-46094552D01*
X128838867Y-46028231D01*
X128850500Y-45969748D01*
X128850500Y-45530252D01*
X128838867Y-45471769D01*
X128794552Y-45405448D01*
X128794548Y-45405445D01*
X128787657Y-45398554D01*
X128789212Y-45396998D01*
X128759467Y-45359266D01*
X128757065Y-45298128D01*
X128788016Y-45251805D01*
X128787657Y-45251446D01*
X128789462Y-45249640D01*
X128791057Y-45247254D01*
X128793953Y-45245149D01*
X128794545Y-45244556D01*
X128794552Y-45244552D01*
X128838867Y-45178231D01*
X128850500Y-45119748D01*
X128850500Y-44680252D01*
X128838867Y-44621769D01*
X128794552Y-44555448D01*
X128794548Y-44555445D01*
X128787657Y-44548554D01*
X128789212Y-44546998D01*
X128759467Y-44509266D01*
X128757065Y-44448128D01*
X128788016Y-44401805D01*
X128787657Y-44401446D01*
X128789462Y-44399640D01*
X128791057Y-44397254D01*
X128793953Y-44395149D01*
X128794545Y-44394556D01*
X128794552Y-44394552D01*
X128838867Y-44328231D01*
X128850500Y-44269748D01*
X128850500Y-43830252D01*
X128838867Y-43771769D01*
X128794552Y-43705448D01*
X128794548Y-43705445D01*
X128787657Y-43698554D01*
X128789212Y-43696998D01*
X128759467Y-43659266D01*
X128757065Y-43598128D01*
X128788016Y-43551805D01*
X128787657Y-43551446D01*
X128789462Y-43549640D01*
X128791057Y-43547254D01*
X128793953Y-43545149D01*
X128794545Y-43544556D01*
X128794552Y-43544552D01*
X128838867Y-43478231D01*
X128850500Y-43419748D01*
X128850500Y-42980252D01*
X128838867Y-42921769D01*
X128794552Y-42855448D01*
X128794548Y-42855445D01*
X128787657Y-42848554D01*
X128789212Y-42846998D01*
X128759467Y-42809266D01*
X128757065Y-42748128D01*
X128788016Y-42701805D01*
X128787657Y-42701446D01*
X128789462Y-42699640D01*
X128791057Y-42697254D01*
X128793953Y-42695149D01*
X128794545Y-42694556D01*
X128794552Y-42694552D01*
X128838867Y-42628231D01*
X128850500Y-42569748D01*
X128850500Y-42130252D01*
X128838867Y-42071769D01*
X128794552Y-42005448D01*
X128794548Y-42005445D01*
X128787657Y-41998554D01*
X128789212Y-41996998D01*
X128759467Y-41959266D01*
X128757065Y-41898128D01*
X128788016Y-41851805D01*
X128787657Y-41851446D01*
X128789462Y-41849640D01*
X128791057Y-41847254D01*
X128793953Y-41845149D01*
X128794545Y-41844556D01*
X128794552Y-41844552D01*
X128838867Y-41778231D01*
X128850500Y-41719748D01*
X128850500Y-41280252D01*
X128838867Y-41221769D01*
X128794552Y-41155448D01*
X128794548Y-41155445D01*
X128787657Y-41148554D01*
X128789212Y-41146998D01*
X128759467Y-41109266D01*
X128757065Y-41048128D01*
X128788016Y-41001805D01*
X128787657Y-41001446D01*
X128789462Y-40999640D01*
X128791057Y-40997254D01*
X128793953Y-40995149D01*
X128794545Y-40994556D01*
X128794552Y-40994552D01*
X128838867Y-40928231D01*
X128850500Y-40869748D01*
X128850500Y-40430252D01*
X128838867Y-40371769D01*
X128794552Y-40305448D01*
X128794548Y-40305445D01*
X128787657Y-40298554D01*
X128789212Y-40296998D01*
X128759467Y-40259266D01*
X128757065Y-40198128D01*
X128788016Y-40151805D01*
X128787657Y-40151446D01*
X128789462Y-40149640D01*
X128791057Y-40147254D01*
X128793953Y-40145149D01*
X128794545Y-40144556D01*
X128794552Y-40144552D01*
X128838867Y-40078231D01*
X128850500Y-40019748D01*
X128850500Y-39580252D01*
X128838867Y-39521769D01*
X128794552Y-39455448D01*
X128794548Y-39455445D01*
X128787657Y-39448554D01*
X128789212Y-39446998D01*
X128759467Y-39409266D01*
X128757065Y-39348128D01*
X128788016Y-39301805D01*
X128787657Y-39301446D01*
X128789462Y-39299640D01*
X128791057Y-39297254D01*
X128793953Y-39295149D01*
X128794545Y-39294556D01*
X128794552Y-39294552D01*
X128838867Y-39228231D01*
X128850500Y-39169748D01*
X128850500Y-38730252D01*
X128838867Y-38671769D01*
X128794552Y-38605448D01*
X128794548Y-38605445D01*
X128787657Y-38598554D01*
X128789212Y-38596998D01*
X128759467Y-38559266D01*
X128757065Y-38498128D01*
X128788016Y-38451805D01*
X128787657Y-38451446D01*
X128789462Y-38449640D01*
X128791057Y-38447254D01*
X128793953Y-38445149D01*
X128794545Y-38444556D01*
X128794552Y-38444552D01*
X128838867Y-38378231D01*
X128850500Y-38319748D01*
X128850500Y-37880252D01*
X128850157Y-37878530D01*
X128845296Y-37854090D01*
X128838867Y-37821769D01*
X128794552Y-37755448D01*
X128794548Y-37755445D01*
X128787657Y-37748554D01*
X128789212Y-37746998D01*
X128759467Y-37709266D01*
X128757065Y-37648128D01*
X128788016Y-37601805D01*
X128787657Y-37601446D01*
X128789462Y-37599640D01*
X128791057Y-37597254D01*
X128793953Y-37595149D01*
X128794545Y-37594556D01*
X128794552Y-37594552D01*
X128838867Y-37528231D01*
X128850500Y-37469748D01*
X128850500Y-37030252D01*
X128838867Y-36971769D01*
X128794552Y-36905448D01*
X128794548Y-36905445D01*
X128787657Y-36898554D01*
X128789212Y-36896998D01*
X128759467Y-36859266D01*
X128757065Y-36798128D01*
X128788016Y-36751805D01*
X128787657Y-36751446D01*
X128789462Y-36749640D01*
X128791057Y-36747254D01*
X128793953Y-36745149D01*
X128794545Y-36744556D01*
X128794552Y-36744552D01*
X128838867Y-36678231D01*
X128850500Y-36619748D01*
X128850500Y-36180252D01*
X128850398Y-36179741D01*
X128847711Y-36166231D01*
X128838867Y-36121769D01*
X128794552Y-36055448D01*
X128794548Y-36055445D01*
X128787657Y-36048554D01*
X128789212Y-36046998D01*
X128759467Y-36009266D01*
X128757065Y-35948128D01*
X128788016Y-35901805D01*
X128787657Y-35901446D01*
X128789462Y-35899640D01*
X128791057Y-35897254D01*
X128793953Y-35895149D01*
X128794545Y-35894556D01*
X128794552Y-35894552D01*
X128838867Y-35828231D01*
X128850500Y-35769748D01*
X128850500Y-35330252D01*
X128838867Y-35271769D01*
X128794552Y-35205448D01*
X128794548Y-35205445D01*
X128728233Y-35161134D01*
X128728231Y-35161133D01*
X128728228Y-35161132D01*
X128728227Y-35161132D01*
X128669758Y-35149501D01*
X128669748Y-35149500D01*
X127830252Y-35149500D01*
X127830251Y-35149500D01*
X127830241Y-35149501D01*
X127771772Y-35161132D01*
X127771766Y-35161134D01*
X127705451Y-35205445D01*
X127705445Y-35205451D01*
X127661134Y-35271766D01*
X127661132Y-35271772D01*
X127649501Y-35330241D01*
X127649500Y-35330253D01*
X127207750Y-35330253D01*
X127204951Y-35312580D01*
X127144658Y-35194249D01*
X127050751Y-35100342D01*
X126941262Y-35044554D01*
X126932423Y-35040050D01*
X126932420Y-35040049D01*
X126907876Y-35036161D01*
X126834249Y-35024500D01*
X126834246Y-35024500D01*
X126330754Y-35024500D01*
X126330751Y-35024500D01*
X126232580Y-35040049D01*
X126232576Y-35040050D01*
X126114250Y-35100341D01*
X126020341Y-35194250D01*
X125960050Y-35312576D01*
X125960049Y-35312580D01*
X125944500Y-35410751D01*
X119572401Y-35410751D01*
X119562790Y-35405202D01*
X119562786Y-35405200D01*
X119538573Y-35398712D01*
X119538573Y-35398713D01*
X119448209Y-35374500D01*
X119448207Y-35374500D01*
X118567255Y-35374500D01*
X118509064Y-35355593D01*
X118497257Y-35345509D01*
X118403220Y-35251472D01*
X118403217Y-35251470D01*
X118283132Y-35190283D01*
X118283127Y-35190281D01*
X118283126Y-35190281D01*
X118249913Y-35185020D01*
X118183490Y-35174500D01*
X118183488Y-35174500D01*
X117616512Y-35174500D01*
X117616510Y-35174500D01*
X117516874Y-35190281D01*
X117516867Y-35190283D01*
X117396782Y-35251470D01*
X117301470Y-35346782D01*
X117240283Y-35466867D01*
X117240281Y-35466874D01*
X117224500Y-35566510D01*
X117000500Y-35566510D01*
X117000500Y-34080253D01*
X128899500Y-34080253D01*
X128899500Y-34919746D01*
X128899501Y-34919758D01*
X128911132Y-34978227D01*
X128911134Y-34978233D01*
X128955445Y-35044548D01*
X128955448Y-35044552D01*
X129021769Y-35088867D01*
X129066231Y-35097711D01*
X129080241Y-35100498D01*
X129080246Y-35100498D01*
X129080252Y-35100500D01*
X129080253Y-35100500D01*
X129519747Y-35100500D01*
X129519748Y-35100500D01*
X129578231Y-35088867D01*
X129644552Y-35044552D01*
X129644556Y-35044545D01*
X129651446Y-35037657D01*
X129653001Y-35039212D01*
X129690734Y-35009467D01*
X129751872Y-35007065D01*
X129798194Y-35038016D01*
X129798554Y-35037657D01*
X129800359Y-35039462D01*
X129802746Y-35041057D01*
X129804850Y-35043953D01*
X129805445Y-35044548D01*
X129805448Y-35044552D01*
X129871769Y-35088867D01*
X129916231Y-35097711D01*
X129930241Y-35100498D01*
X129930246Y-35100498D01*
X129930252Y-35100500D01*
X129930253Y-35100500D01*
X130369747Y-35100500D01*
X130369748Y-35100500D01*
X130428231Y-35088867D01*
X130494552Y-35044552D01*
X130494556Y-35044545D01*
X130501446Y-35037657D01*
X130503001Y-35039212D01*
X130540734Y-35009467D01*
X130601872Y-35007065D01*
X130648194Y-35038016D01*
X130648554Y-35037657D01*
X130650359Y-35039462D01*
X130652746Y-35041057D01*
X130654850Y-35043953D01*
X130655445Y-35044548D01*
X130655448Y-35044552D01*
X130721769Y-35088867D01*
X130766231Y-35097711D01*
X130780241Y-35100498D01*
X130780246Y-35100498D01*
X130780252Y-35100500D01*
X130780253Y-35100500D01*
X131219747Y-35100500D01*
X131219748Y-35100500D01*
X131278231Y-35088867D01*
X131344552Y-35044552D01*
X131344556Y-35044545D01*
X131351446Y-35037657D01*
X131353001Y-35039212D01*
X131390734Y-35009467D01*
X131451872Y-35007065D01*
X131498194Y-35038016D01*
X131498554Y-35037657D01*
X131500359Y-35039462D01*
X131502746Y-35041057D01*
X131504850Y-35043953D01*
X131505445Y-35044548D01*
X131505448Y-35044552D01*
X131571769Y-35088867D01*
X131616231Y-35097711D01*
X131630241Y-35100498D01*
X131630246Y-35100498D01*
X131630252Y-35100500D01*
X131630253Y-35100500D01*
X132069747Y-35100500D01*
X132069748Y-35100500D01*
X132128231Y-35088867D01*
X132194552Y-35044552D01*
X132194556Y-35044545D01*
X132201446Y-35037657D01*
X132203001Y-35039212D01*
X132240734Y-35009467D01*
X132301872Y-35007065D01*
X132348194Y-35038016D01*
X132348554Y-35037657D01*
X132350359Y-35039462D01*
X132352746Y-35041057D01*
X132354850Y-35043953D01*
X132355445Y-35044548D01*
X132355448Y-35044552D01*
X132421769Y-35088867D01*
X132466231Y-35097711D01*
X132480241Y-35100498D01*
X132480246Y-35100498D01*
X132480252Y-35100500D01*
X132480253Y-35100500D01*
X132919747Y-35100500D01*
X132919748Y-35100500D01*
X132978231Y-35088867D01*
X133044552Y-35044552D01*
X133044556Y-35044545D01*
X133051446Y-35037657D01*
X133053001Y-35039212D01*
X133090734Y-35009467D01*
X133151872Y-35007065D01*
X133198194Y-35038016D01*
X133198554Y-35037657D01*
X133200359Y-35039462D01*
X133202746Y-35041057D01*
X133204850Y-35043953D01*
X133205445Y-35044548D01*
X133205448Y-35044552D01*
X133271769Y-35088867D01*
X133316231Y-35097711D01*
X133330241Y-35100498D01*
X133330246Y-35100498D01*
X133330252Y-35100500D01*
X133330253Y-35100500D01*
X133769747Y-35100500D01*
X133769748Y-35100500D01*
X133828231Y-35088867D01*
X133894552Y-35044552D01*
X133894556Y-35044545D01*
X133901446Y-35037657D01*
X133903001Y-35039212D01*
X133940734Y-35009467D01*
X134001872Y-35007065D01*
X134048194Y-35038016D01*
X134048554Y-35037657D01*
X134050359Y-35039462D01*
X134052746Y-35041057D01*
X134054850Y-35043953D01*
X134055445Y-35044548D01*
X134055448Y-35044552D01*
X134121769Y-35088867D01*
X134166231Y-35097711D01*
X134180241Y-35100498D01*
X134180246Y-35100498D01*
X134180252Y-35100500D01*
X134180253Y-35100500D01*
X134619747Y-35100500D01*
X134619748Y-35100500D01*
X134678231Y-35088867D01*
X134744552Y-35044552D01*
X134744556Y-35044545D01*
X134751446Y-35037657D01*
X134753001Y-35039212D01*
X134790734Y-35009467D01*
X134851872Y-35007065D01*
X134898194Y-35038016D01*
X134898554Y-35037657D01*
X134900359Y-35039462D01*
X134902746Y-35041057D01*
X134904850Y-35043953D01*
X134905445Y-35044548D01*
X134905448Y-35044552D01*
X134971769Y-35088867D01*
X135016231Y-35097711D01*
X135030241Y-35100498D01*
X135030246Y-35100498D01*
X135030252Y-35100500D01*
X135030253Y-35100500D01*
X135469747Y-35100500D01*
X135469748Y-35100500D01*
X135528231Y-35088867D01*
X135594552Y-35044552D01*
X135594556Y-35044545D01*
X135601446Y-35037657D01*
X135603001Y-35039212D01*
X135640734Y-35009467D01*
X135701872Y-35007065D01*
X135748194Y-35038016D01*
X135748554Y-35037657D01*
X135750359Y-35039462D01*
X135752746Y-35041057D01*
X135754850Y-35043953D01*
X135755445Y-35044548D01*
X135755448Y-35044552D01*
X135821769Y-35088867D01*
X135866231Y-35097711D01*
X135880241Y-35100498D01*
X135880246Y-35100498D01*
X135880252Y-35100500D01*
X135880253Y-35100500D01*
X136319747Y-35100500D01*
X136319748Y-35100500D01*
X136378231Y-35088867D01*
X136444552Y-35044552D01*
X136444556Y-35044545D01*
X136451446Y-35037657D01*
X136453001Y-35039212D01*
X136490734Y-35009467D01*
X136551872Y-35007065D01*
X136598194Y-35038016D01*
X136598554Y-35037657D01*
X136600359Y-35039462D01*
X136602746Y-35041057D01*
X136604850Y-35043953D01*
X136605445Y-35044548D01*
X136605448Y-35044552D01*
X136671769Y-35088867D01*
X136716231Y-35097711D01*
X136730241Y-35100498D01*
X136730246Y-35100498D01*
X136730252Y-35100500D01*
X136730253Y-35100500D01*
X137169747Y-35100500D01*
X137169748Y-35100500D01*
X137228231Y-35088867D01*
X137294552Y-35044552D01*
X137294556Y-35044545D01*
X137301446Y-35037657D01*
X137303001Y-35039212D01*
X137340734Y-35009467D01*
X137401872Y-35007065D01*
X137448194Y-35038016D01*
X137448554Y-35037657D01*
X137450359Y-35039462D01*
X137452746Y-35041057D01*
X137454850Y-35043953D01*
X137455445Y-35044548D01*
X137455448Y-35044552D01*
X137521769Y-35088867D01*
X137566231Y-35097711D01*
X137580241Y-35100498D01*
X137580246Y-35100498D01*
X137580252Y-35100500D01*
X137580253Y-35100500D01*
X138019747Y-35100500D01*
X138019748Y-35100500D01*
X138078231Y-35088867D01*
X138144552Y-35044552D01*
X138144556Y-35044545D01*
X138151446Y-35037657D01*
X138153001Y-35039212D01*
X138190734Y-35009467D01*
X138251872Y-35007065D01*
X138298194Y-35038016D01*
X138298554Y-35037657D01*
X138300359Y-35039462D01*
X138302746Y-35041057D01*
X138304850Y-35043953D01*
X138305445Y-35044548D01*
X138305448Y-35044552D01*
X138371769Y-35088867D01*
X138416231Y-35097711D01*
X138430241Y-35100498D01*
X138430246Y-35100498D01*
X138430252Y-35100500D01*
X138430253Y-35100500D01*
X138869747Y-35100500D01*
X138869748Y-35100500D01*
X138928231Y-35088867D01*
X138994552Y-35044552D01*
X138994556Y-35044545D01*
X139001446Y-35037657D01*
X139003001Y-35039212D01*
X139040734Y-35009467D01*
X139101872Y-35007065D01*
X139148194Y-35038016D01*
X139148554Y-35037657D01*
X139150359Y-35039462D01*
X139152746Y-35041057D01*
X139154850Y-35043953D01*
X139155445Y-35044548D01*
X139155448Y-35044552D01*
X139221769Y-35088867D01*
X139266231Y-35097711D01*
X139280241Y-35100498D01*
X139280246Y-35100498D01*
X139280252Y-35100500D01*
X139280253Y-35100500D01*
X139719747Y-35100500D01*
X139719748Y-35100500D01*
X139778231Y-35088867D01*
X139844552Y-35044552D01*
X139888867Y-34978231D01*
X139900500Y-34919748D01*
X139900500Y-34080252D01*
X139888867Y-34021769D01*
X139844552Y-33955448D01*
X139844548Y-33955445D01*
X139778233Y-33911134D01*
X139778231Y-33911133D01*
X139778228Y-33911132D01*
X139778227Y-33911132D01*
X139719758Y-33899501D01*
X139719748Y-33899500D01*
X139280252Y-33899500D01*
X139280251Y-33899500D01*
X139280241Y-33899501D01*
X139221772Y-33911132D01*
X139221766Y-33911134D01*
X139155451Y-33955445D01*
X139148554Y-33962343D01*
X139146998Y-33960787D01*
X139109258Y-33990535D01*
X139048120Y-33992932D01*
X139001807Y-33961981D01*
X139001446Y-33962343D01*
X138999627Y-33960524D01*
X138997249Y-33958935D01*
X138995152Y-33956049D01*
X138994554Y-33955451D01*
X138994552Y-33955448D01*
X138994548Y-33955445D01*
X138928233Y-33911134D01*
X138928231Y-33911133D01*
X138928228Y-33911132D01*
X138928227Y-33911132D01*
X138869758Y-33899501D01*
X138869748Y-33899500D01*
X138430252Y-33899500D01*
X138430251Y-33899500D01*
X138430241Y-33899501D01*
X138371772Y-33911132D01*
X138371766Y-33911134D01*
X138305451Y-33955445D01*
X138298554Y-33962343D01*
X138296998Y-33960787D01*
X138259258Y-33990535D01*
X138198120Y-33992932D01*
X138151807Y-33961981D01*
X138151446Y-33962343D01*
X138149627Y-33960524D01*
X138147249Y-33958935D01*
X138145152Y-33956049D01*
X138144554Y-33955451D01*
X138144552Y-33955448D01*
X138144548Y-33955445D01*
X138078233Y-33911134D01*
X138078231Y-33911133D01*
X138078228Y-33911132D01*
X138078227Y-33911132D01*
X138019758Y-33899501D01*
X138019748Y-33899500D01*
X137580252Y-33899500D01*
X137580251Y-33899500D01*
X137580241Y-33899501D01*
X137521772Y-33911132D01*
X137521766Y-33911134D01*
X137455451Y-33955445D01*
X137448554Y-33962343D01*
X137446998Y-33960787D01*
X137409258Y-33990535D01*
X137348120Y-33992932D01*
X137301807Y-33961981D01*
X137301446Y-33962343D01*
X137299627Y-33960524D01*
X137297249Y-33958935D01*
X137295152Y-33956049D01*
X137294554Y-33955451D01*
X137294552Y-33955448D01*
X137294548Y-33955445D01*
X137228233Y-33911134D01*
X137228231Y-33911133D01*
X137228228Y-33911132D01*
X137228227Y-33911132D01*
X137169758Y-33899501D01*
X137169748Y-33899500D01*
X136730252Y-33899500D01*
X136730251Y-33899500D01*
X136730241Y-33899501D01*
X136671772Y-33911132D01*
X136671766Y-33911134D01*
X136605451Y-33955445D01*
X136598554Y-33962343D01*
X136596998Y-33960787D01*
X136559258Y-33990535D01*
X136498120Y-33992932D01*
X136451807Y-33961981D01*
X136451446Y-33962343D01*
X136449627Y-33960524D01*
X136447249Y-33958935D01*
X136445152Y-33956049D01*
X136444554Y-33955451D01*
X136444552Y-33955448D01*
X136444548Y-33955445D01*
X136378233Y-33911134D01*
X136378231Y-33911133D01*
X136378228Y-33911132D01*
X136378227Y-33911132D01*
X136319758Y-33899501D01*
X136319748Y-33899500D01*
X135880252Y-33899500D01*
X135880251Y-33899500D01*
X135880241Y-33899501D01*
X135821772Y-33911132D01*
X135821766Y-33911134D01*
X135755451Y-33955445D01*
X135748554Y-33962343D01*
X135746998Y-33960787D01*
X135709258Y-33990535D01*
X135648120Y-33992932D01*
X135601807Y-33961981D01*
X135601446Y-33962343D01*
X135599627Y-33960524D01*
X135597249Y-33958935D01*
X135595152Y-33956049D01*
X135594554Y-33955451D01*
X135594552Y-33955448D01*
X135594548Y-33955445D01*
X135528233Y-33911134D01*
X135528231Y-33911133D01*
X135528228Y-33911132D01*
X135528227Y-33911132D01*
X135469758Y-33899501D01*
X135469748Y-33899500D01*
X135030252Y-33899500D01*
X135030251Y-33899500D01*
X135030241Y-33899501D01*
X134971772Y-33911132D01*
X134971766Y-33911134D01*
X134905451Y-33955445D01*
X134898554Y-33962343D01*
X134896998Y-33960787D01*
X134859258Y-33990535D01*
X134798120Y-33992932D01*
X134751807Y-33961981D01*
X134751446Y-33962343D01*
X134749627Y-33960524D01*
X134747249Y-33958935D01*
X134745152Y-33956049D01*
X134744554Y-33955451D01*
X134744552Y-33955448D01*
X134744548Y-33955445D01*
X134678233Y-33911134D01*
X134678231Y-33911133D01*
X134678228Y-33911132D01*
X134678227Y-33911132D01*
X134619758Y-33899501D01*
X134619748Y-33899500D01*
X134180252Y-33899500D01*
X134180251Y-33899500D01*
X134180241Y-33899501D01*
X134121772Y-33911132D01*
X134121766Y-33911134D01*
X134055451Y-33955445D01*
X134048554Y-33962343D01*
X134046998Y-33960787D01*
X134009258Y-33990535D01*
X133948120Y-33992932D01*
X133901807Y-33961981D01*
X133901446Y-33962343D01*
X133899627Y-33960524D01*
X133897249Y-33958935D01*
X133895152Y-33956049D01*
X133894554Y-33955451D01*
X133894552Y-33955448D01*
X133894548Y-33955445D01*
X133828233Y-33911134D01*
X133828231Y-33911133D01*
X133828228Y-33911132D01*
X133828227Y-33911132D01*
X133769758Y-33899501D01*
X133769748Y-33899500D01*
X133330252Y-33899500D01*
X133330251Y-33899500D01*
X133330241Y-33899501D01*
X133271772Y-33911132D01*
X133271766Y-33911134D01*
X133205451Y-33955445D01*
X133198554Y-33962343D01*
X133196998Y-33960787D01*
X133159258Y-33990535D01*
X133098120Y-33992932D01*
X133051807Y-33961981D01*
X133051446Y-33962343D01*
X133049627Y-33960524D01*
X133047249Y-33958935D01*
X133045152Y-33956049D01*
X133044554Y-33955451D01*
X133044552Y-33955448D01*
X133044548Y-33955445D01*
X132978233Y-33911134D01*
X132978231Y-33911133D01*
X132978228Y-33911132D01*
X132978227Y-33911132D01*
X132919758Y-33899501D01*
X132919748Y-33899500D01*
X132480252Y-33899500D01*
X132480251Y-33899500D01*
X132480241Y-33899501D01*
X132421772Y-33911132D01*
X132421766Y-33911134D01*
X132355451Y-33955445D01*
X132348554Y-33962343D01*
X132346998Y-33960787D01*
X132309258Y-33990535D01*
X132248120Y-33992932D01*
X132201807Y-33961981D01*
X132201446Y-33962343D01*
X132199627Y-33960524D01*
X132197249Y-33958935D01*
X132195152Y-33956049D01*
X132194554Y-33955451D01*
X132194552Y-33955448D01*
X132194548Y-33955445D01*
X132128233Y-33911134D01*
X132128231Y-33911133D01*
X132128228Y-33911132D01*
X132128227Y-33911132D01*
X132069758Y-33899501D01*
X132069748Y-33899500D01*
X131630252Y-33899500D01*
X131630251Y-33899500D01*
X131630241Y-33899501D01*
X131571772Y-33911132D01*
X131571766Y-33911134D01*
X131505451Y-33955445D01*
X131498554Y-33962343D01*
X131496998Y-33960787D01*
X131459258Y-33990535D01*
X131398120Y-33992932D01*
X131351807Y-33961981D01*
X131351446Y-33962343D01*
X131349627Y-33960524D01*
X131347249Y-33958935D01*
X131345152Y-33956049D01*
X131344554Y-33955451D01*
X131344552Y-33955448D01*
X131344548Y-33955445D01*
X131278233Y-33911134D01*
X131278231Y-33911133D01*
X131278228Y-33911132D01*
X131278227Y-33911132D01*
X131219758Y-33899501D01*
X131219748Y-33899500D01*
X130780252Y-33899500D01*
X130780251Y-33899500D01*
X130780241Y-33899501D01*
X130721772Y-33911132D01*
X130721766Y-33911134D01*
X130655451Y-33955445D01*
X130648554Y-33962343D01*
X130646998Y-33960787D01*
X130609258Y-33990535D01*
X130548120Y-33992932D01*
X130501807Y-33961981D01*
X130501446Y-33962343D01*
X130499627Y-33960524D01*
X130497249Y-33958935D01*
X130495152Y-33956049D01*
X130494554Y-33955451D01*
X130494552Y-33955448D01*
X130494548Y-33955445D01*
X130428233Y-33911134D01*
X130428231Y-33911133D01*
X130428228Y-33911132D01*
X130428227Y-33911132D01*
X130369758Y-33899501D01*
X130369748Y-33899500D01*
X129930252Y-33899500D01*
X129930251Y-33899500D01*
X129930241Y-33899501D01*
X129871772Y-33911132D01*
X129871766Y-33911134D01*
X129805451Y-33955445D01*
X129798554Y-33962343D01*
X129796998Y-33960787D01*
X129759258Y-33990535D01*
X129698120Y-33992932D01*
X129651807Y-33961981D01*
X129651446Y-33962343D01*
X129649627Y-33960524D01*
X129647249Y-33958935D01*
X129645152Y-33956049D01*
X129644554Y-33955451D01*
X129644552Y-33955448D01*
X129644548Y-33955445D01*
X129578233Y-33911134D01*
X129578231Y-33911133D01*
X129578228Y-33911132D01*
X129578227Y-33911132D01*
X129519758Y-33899501D01*
X129519748Y-33899500D01*
X129080252Y-33899500D01*
X129080251Y-33899500D01*
X129080241Y-33899501D01*
X129021772Y-33911132D01*
X129021766Y-33911134D01*
X128955451Y-33955445D01*
X128955445Y-33955451D01*
X128911134Y-34021766D01*
X128911132Y-34021772D01*
X128899501Y-34080241D01*
X128899500Y-34080253D01*
X117000500Y-34080253D01*
X117000500Y-29708324D01*
X118069500Y-29708324D01*
X118069500Y-32556676D01*
X118098838Y-32666167D01*
X118155514Y-32764333D01*
X118235667Y-32844486D01*
X118333833Y-32901162D01*
X118443324Y-32930500D01*
X118443326Y-32930500D01*
X118556674Y-32930500D01*
X118556676Y-32930500D01*
X118666167Y-32901162D01*
X118764333Y-32844486D01*
X118844486Y-32764333D01*
X118901162Y-32666167D01*
X118930500Y-32556676D01*
X118930500Y-29708324D01*
X125054500Y-29708324D01*
X125054500Y-32556676D01*
X125083838Y-32666167D01*
X125140514Y-32764333D01*
X125220667Y-32844486D01*
X125318833Y-32901162D01*
X125428324Y-32930500D01*
X125428326Y-32930500D01*
X125541674Y-32930500D01*
X125541676Y-32930500D01*
X125651167Y-32901162D01*
X125749333Y-32844486D01*
X125829486Y-32764333D01*
X125886162Y-32666167D01*
X125915500Y-32556676D01*
X125915500Y-29708324D01*
X131307000Y-29708324D01*
X131307000Y-32556676D01*
X131336338Y-32666167D01*
X131393014Y-32764333D01*
X131473167Y-32844486D01*
X131571333Y-32901162D01*
X131680824Y-32930500D01*
X131680826Y-32930500D01*
X131794174Y-32930500D01*
X131794176Y-32930500D01*
X131903667Y-32901162D01*
X132001833Y-32844486D01*
X132081986Y-32764333D01*
X132138662Y-32666167D01*
X132168000Y-32556676D01*
X132168000Y-29708324D01*
X138292000Y-29708324D01*
X138292000Y-32556676D01*
X138321338Y-32666167D01*
X138378014Y-32764333D01*
X138458167Y-32844486D01*
X138556333Y-32901162D01*
X138665824Y-32930500D01*
X138665826Y-32930500D01*
X138779174Y-32930500D01*
X138779176Y-32930500D01*
X138888667Y-32901162D01*
X138986833Y-32844486D01*
X139066986Y-32764333D01*
X139123662Y-32666167D01*
X139153000Y-32556676D01*
X139153000Y-29708324D01*
X139123662Y-29598833D01*
X139066986Y-29500667D01*
X138986833Y-29420514D01*
X138888667Y-29363838D01*
X138779176Y-29334500D01*
X138665824Y-29334500D01*
X138556333Y-29363838D01*
X138458167Y-29420514D01*
X138378014Y-29500667D01*
X138321338Y-29598833D01*
X138292000Y-29708324D01*
X132168000Y-29708324D01*
X132138662Y-29598833D01*
X132081986Y-29500667D01*
X132001833Y-29420514D01*
X131903667Y-29363838D01*
X131794176Y-29334500D01*
X131680824Y-29334500D01*
X131571333Y-29363838D01*
X131473167Y-29420514D01*
X131393014Y-29500667D01*
X131336338Y-29598833D01*
X131307000Y-29708324D01*
X125915500Y-29708324D01*
X125886162Y-29598833D01*
X125829486Y-29500667D01*
X125749333Y-29420514D01*
X125651167Y-29363838D01*
X125541676Y-29334500D01*
X125428324Y-29334500D01*
X125318833Y-29363838D01*
X125220667Y-29420514D01*
X125140514Y-29500667D01*
X125083838Y-29598833D01*
X125054500Y-29708324D01*
X118930500Y-29708324D01*
X118901162Y-29598833D01*
X118844486Y-29500667D01*
X118764333Y-29420514D01*
X118666167Y-29363838D01*
X118556676Y-29334500D01*
X118443324Y-29334500D01*
X118333833Y-29363838D01*
X118235667Y-29420514D01*
X118155514Y-29500667D01*
X118098838Y-29598833D01*
X118069500Y-29708324D01*
X117000500Y-29708324D01*
X117000500Y-28099500D01*
X117019407Y-28041309D01*
X117068907Y-28005345D01*
X117099500Y-28000500D01*
X143400500Y-28000500D01*
X143458691Y-28019407D01*
G37*
%TD.AperFunction*%
%TD*%
M02*
