%TF.GenerationSoftware,KiCad,Pcbnew,5.1.10*%
%TF.CreationDate,2021-10-08T11:52:48-05:00*%
%TF.ProjectId,FCB-Lite,4643422d-4c69-4746-952e-6b696361645f,A*%
%TF.SameCoordinates,Original*%
%TF.FileFunction,Legend,Bot*%
%TF.FilePolarity,Positive*%
%FSLAX46Y46*%
G04 Gerber Fmt 4.6, Leading zero omitted, Abs format (unit mm)*
G04 Created by KiCad (PCBNEW 5.1.10) date 2021-10-08 11:52:48*
%MOMM*%
%LPD*%
G01*
G04 APERTURE LIST*
%ADD10C,0.010000*%
G04 APERTURE END LIST*
D10*
%TO.C,G\u002A\u002A\u002A*%
G36*
X36212856Y-33236002D02*
G01*
X36214916Y-33245702D01*
X36226453Y-33251237D01*
X36237750Y-33247147D01*
X36239600Y-33240033D01*
X36233514Y-33229358D01*
X36224784Y-33228945D01*
X36212856Y-33236002D01*
G37*
X36212856Y-33236002D02*
X36214916Y-33245702D01*
X36226453Y-33251237D01*
X36237750Y-33247147D01*
X36239600Y-33240033D01*
X36233514Y-33229358D01*
X36224784Y-33228945D01*
X36212856Y-33236002D01*
G36*
X36519000Y-32994500D02*
G01*
X36523234Y-32998733D01*
X36527467Y-32994500D01*
X36523234Y-32990267D01*
X36519000Y-32994500D01*
G37*
X36519000Y-32994500D02*
X36523234Y-32998733D01*
X36527467Y-32994500D01*
X36523234Y-32990267D01*
X36519000Y-32994500D01*
G36*
X36521683Y-33039479D02*
G01*
X36520674Y-33052711D01*
X36522352Y-33055707D01*
X36526200Y-33053182D01*
X36526799Y-33044594D01*
X36524731Y-33035560D01*
X36521683Y-33039479D01*
G37*
X36521683Y-33039479D02*
X36520674Y-33052711D01*
X36522352Y-33055707D01*
X36526200Y-33053182D01*
X36526799Y-33044594D01*
X36524731Y-33035560D01*
X36521683Y-33039479D01*
G36*
X36629067Y-33595633D02*
G01*
X36633300Y-33599867D01*
X36637534Y-33595633D01*
X36633300Y-33591400D01*
X36629067Y-33595633D01*
G37*
X36629067Y-33595633D02*
X36633300Y-33599867D01*
X36637534Y-33595633D01*
X36633300Y-33591400D01*
X36629067Y-33595633D01*
G36*
X36569800Y-33663367D02*
G01*
X36574034Y-33667600D01*
X36578267Y-33663367D01*
X36574034Y-33659133D01*
X36569800Y-33663367D01*
G37*
X36569800Y-33663367D02*
X36574034Y-33667600D01*
X36578267Y-33663367D01*
X36574034Y-33659133D01*
X36569800Y-33663367D01*
G36*
X36733489Y-33661955D02*
G01*
X36734652Y-33666989D01*
X36739134Y-33667600D01*
X36746103Y-33664502D01*
X36744778Y-33661955D01*
X36734730Y-33660942D01*
X36733489Y-33661955D01*
G37*
X36733489Y-33661955D02*
X36734652Y-33666989D01*
X36739134Y-33667600D01*
X36746103Y-33664502D01*
X36744778Y-33661955D01*
X36734730Y-33660942D01*
X36733489Y-33661955D01*
G36*
X36635239Y-33683927D02*
G01*
X36635224Y-33683986D01*
X36636657Y-33699587D01*
X36642582Y-33704841D01*
X36651210Y-33703052D01*
X36652500Y-33688454D01*
X36648437Y-33671151D01*
X36641911Y-33669443D01*
X36635239Y-33683927D01*
G37*
X36635239Y-33683927D02*
X36635224Y-33683986D01*
X36636657Y-33699587D01*
X36642582Y-33704841D01*
X36651210Y-33703052D01*
X36652500Y-33688454D01*
X36648437Y-33671151D01*
X36641911Y-33669443D01*
X36635239Y-33683927D01*
G36*
X36595200Y-33722633D02*
G01*
X36599434Y-33726867D01*
X36603667Y-33722633D01*
X36599434Y-33718400D01*
X36595200Y-33722633D01*
G37*
X36595200Y-33722633D02*
X36599434Y-33726867D01*
X36603667Y-33722633D01*
X36599434Y-33718400D01*
X36595200Y-33722633D01*
G36*
X34027562Y-34900328D02*
G01*
X34025314Y-34912077D01*
X34032760Y-34924436D01*
X34043406Y-34929133D01*
X34053840Y-34935930D01*
X34055201Y-34941833D01*
X34062259Y-34952176D01*
X34072134Y-34954533D01*
X34085924Y-34949239D01*
X34089067Y-34941833D01*
X34082009Y-34931490D01*
X34072134Y-34929133D01*
X34057983Y-34923146D01*
X34055201Y-34912200D01*
X34049102Y-34898254D01*
X34035805Y-34895422D01*
X34027562Y-34900328D01*
G37*
X34027562Y-34900328D02*
X34025314Y-34912077D01*
X34032760Y-34924436D01*
X34043406Y-34929133D01*
X34053840Y-34935930D01*
X34055201Y-34941833D01*
X34062259Y-34952176D01*
X34072134Y-34954533D01*
X34085924Y-34949239D01*
X34089067Y-34941833D01*
X34082009Y-34931490D01*
X34072134Y-34929133D01*
X34057983Y-34923146D01*
X34055201Y-34912200D01*
X34049102Y-34898254D01*
X34035805Y-34895422D01*
X34027562Y-34900328D01*
G36*
X34125811Y-34942816D02*
G01*
X34127167Y-34946066D01*
X34138383Y-34954217D01*
X34140867Y-34954533D01*
X34145457Y-34949317D01*
X34144101Y-34946066D01*
X34132885Y-34937916D01*
X34130401Y-34937600D01*
X34125811Y-34942816D01*
G37*
X34125811Y-34942816D02*
X34127167Y-34946066D01*
X34138383Y-34954217D01*
X34140867Y-34954533D01*
X34145457Y-34949317D01*
X34144101Y-34946066D01*
X34132885Y-34937916D01*
X34130401Y-34937600D01*
X34125811Y-34942816D01*
G36*
X34350319Y-34968160D02*
G01*
X34347301Y-34971466D01*
X34349893Y-34978131D01*
X34359501Y-34979933D01*
X34373528Y-34976479D01*
X34376934Y-34971466D01*
X34370112Y-34963873D01*
X34364734Y-34963000D01*
X34350319Y-34968160D01*
G37*
X34350319Y-34968160D02*
X34347301Y-34971466D01*
X34349893Y-34978131D01*
X34359501Y-34979933D01*
X34373528Y-34976479D01*
X34376934Y-34971466D01*
X34370112Y-34963873D01*
X34364734Y-34963000D01*
X34350319Y-34968160D01*
G36*
X33991610Y-34933549D02*
G01*
X33987467Y-34941833D01*
X33994459Y-34952327D01*
X34003413Y-34954533D01*
X34018312Y-34961684D01*
X34023787Y-34971466D01*
X34032283Y-34984240D01*
X34044482Y-34988111D01*
X34053745Y-34982240D01*
X34055201Y-34975434D01*
X34048351Y-34961307D01*
X34042501Y-34957595D01*
X34031248Y-34946935D01*
X34029801Y-34940927D01*
X34022446Y-34931705D01*
X34008634Y-34929133D01*
X33991610Y-34933549D01*
G37*
X33991610Y-34933549D02*
X33987467Y-34941833D01*
X33994459Y-34952327D01*
X34003413Y-34954533D01*
X34018312Y-34961684D01*
X34023787Y-34971466D01*
X34032283Y-34984240D01*
X34044482Y-34988111D01*
X34053745Y-34982240D01*
X34055201Y-34975434D01*
X34048351Y-34961307D01*
X34042501Y-34957595D01*
X34031248Y-34946935D01*
X34029801Y-34940927D01*
X34022446Y-34931705D01*
X34008634Y-34929133D01*
X33991610Y-34933549D01*
G36*
X34188167Y-35003021D02*
G01*
X34186434Y-35005333D01*
X34188353Y-35012581D01*
X34194401Y-35013800D01*
X34205985Y-35009379D01*
X34207601Y-35005333D01*
X34201524Y-34997109D01*
X34199634Y-34996866D01*
X34188167Y-35003021D01*
G37*
X34188167Y-35003021D02*
X34186434Y-35005333D01*
X34188353Y-35012581D01*
X34194401Y-35013800D01*
X34205985Y-35009379D01*
X34207601Y-35005333D01*
X34201524Y-34997109D01*
X34199634Y-34996866D01*
X34188167Y-35003021D01*
G36*
X34127919Y-35034782D02*
G01*
X34127167Y-35039200D01*
X34133844Y-35051913D01*
X34137751Y-35054016D01*
X34146248Y-35050087D01*
X34148334Y-35039200D01*
X34144433Y-35025771D01*
X34137751Y-35024383D01*
X34127919Y-35034782D01*
G37*
X34127919Y-35034782D02*
X34127167Y-35039200D01*
X34133844Y-35051913D01*
X34137751Y-35054016D01*
X34146248Y-35050087D01*
X34148334Y-35039200D01*
X34144433Y-35025771D01*
X34137751Y-35024383D01*
X34127919Y-35034782D01*
G36*
X34072134Y-35077300D02*
G01*
X34076367Y-35081533D01*
X34080601Y-35077300D01*
X34076367Y-35073066D01*
X34072134Y-35077300D01*
G37*
X34072134Y-35077300D02*
X34076367Y-35081533D01*
X34080601Y-35077300D01*
X34076367Y-35073066D01*
X34072134Y-35077300D01*
G36*
X34516634Y-35095405D02*
G01*
X34505430Y-35103715D01*
X34503934Y-35107839D01*
X34510805Y-35114551D01*
X34516634Y-35115400D01*
X34527862Y-35108759D01*
X34529334Y-35102966D01*
X34523724Y-35094424D01*
X34516634Y-35095405D01*
G37*
X34516634Y-35095405D02*
X34505430Y-35103715D01*
X34503934Y-35107839D01*
X34510805Y-35114551D01*
X34516634Y-35115400D01*
X34527862Y-35108759D01*
X34529334Y-35102966D01*
X34523724Y-35094424D01*
X34516634Y-35095405D01*
G36*
X34063667Y-35119633D02*
G01*
X34067901Y-35123866D01*
X34072134Y-35119633D01*
X34067901Y-35115400D01*
X34063667Y-35119633D01*
G37*
X34063667Y-35119633D02*
X34067901Y-35123866D01*
X34072134Y-35119633D01*
X34067901Y-35115400D01*
X34063667Y-35119633D01*
G36*
X34040384Y-35091565D02*
G01*
X34027777Y-35102227D01*
X34022914Y-35121819D01*
X34022852Y-35140923D01*
X34029511Y-35148387D01*
X34037731Y-35149266D01*
X34049630Y-35146223D01*
X34054522Y-35134031D01*
X34055201Y-35119012D01*
X34053546Y-35098726D01*
X34047216Y-35091368D01*
X34040384Y-35091565D01*
G37*
X34040384Y-35091565D02*
X34027777Y-35102227D01*
X34022914Y-35121819D01*
X34022852Y-35140923D01*
X34029511Y-35148387D01*
X34037731Y-35149266D01*
X34049630Y-35146223D01*
X34054522Y-35134031D01*
X34055201Y-35119012D01*
X34053546Y-35098726D01*
X34047216Y-35091368D01*
X34040384Y-35091565D01*
G36*
X37564439Y-32655770D02*
G01*
X37561548Y-32670442D01*
X37562075Y-32695384D01*
X37565778Y-32722910D01*
X37572034Y-32738972D01*
X37579307Y-32742019D01*
X37586059Y-32730498D01*
X37588207Y-32721781D01*
X37590355Y-32694366D01*
X37586779Y-32670350D01*
X37578668Y-32654788D01*
X37571671Y-32651600D01*
X37564439Y-32655770D01*
G37*
X37564439Y-32655770D02*
X37561548Y-32670442D01*
X37562075Y-32695384D01*
X37565778Y-32722910D01*
X37572034Y-32738972D01*
X37579307Y-32742019D01*
X37586059Y-32730498D01*
X37588207Y-32721781D01*
X37590355Y-32694366D01*
X37586779Y-32670350D01*
X37578668Y-32654788D01*
X37571671Y-32651600D01*
X37564439Y-32655770D01*
G36*
X37495810Y-32783894D02*
G01*
X37492667Y-32791300D01*
X37499726Y-32801643D01*
X37509600Y-32804000D01*
X37523391Y-32798706D01*
X37526534Y-32791300D01*
X37519475Y-32780957D01*
X37509600Y-32778600D01*
X37495810Y-32783894D01*
G37*
X37495810Y-32783894D02*
X37492667Y-32791300D01*
X37499726Y-32801643D01*
X37509600Y-32804000D01*
X37523391Y-32798706D01*
X37526534Y-32791300D01*
X37519475Y-32780957D01*
X37509600Y-32778600D01*
X37495810Y-32783894D01*
G36*
X37561876Y-32785377D02*
G01*
X37560401Y-32791300D01*
X37567178Y-32802525D01*
X37573101Y-32804000D01*
X37584325Y-32797223D01*
X37585801Y-32791300D01*
X37579023Y-32780075D01*
X37573101Y-32778600D01*
X37561876Y-32785377D01*
G37*
X37561876Y-32785377D02*
X37560401Y-32791300D01*
X37567178Y-32802525D01*
X37573101Y-32804000D01*
X37584325Y-32797223D01*
X37585801Y-32791300D01*
X37579023Y-32780075D01*
X37573101Y-32778600D01*
X37561876Y-32785377D01*
G36*
X37475734Y-32842100D02*
G01*
X37479967Y-32846333D01*
X37484200Y-32842100D01*
X37479967Y-32837867D01*
X37475734Y-32842100D01*
G37*
X37475734Y-32842100D02*
X37479967Y-32846333D01*
X37484200Y-32842100D01*
X37479967Y-32837867D01*
X37475734Y-32842100D01*
G36*
X37467267Y-32859033D02*
G01*
X37471500Y-32863267D01*
X37475734Y-32859033D01*
X37471500Y-32854800D01*
X37467267Y-32859033D01*
G37*
X37467267Y-32859033D02*
X37471500Y-32863267D01*
X37475734Y-32859033D01*
X37471500Y-32854800D01*
X37467267Y-32859033D01*
G36*
X37368390Y-32944402D02*
G01*
X37369868Y-32954557D01*
X37381013Y-32962926D01*
X37389650Y-32959241D01*
X37391067Y-32952872D01*
X37384250Y-32941209D01*
X37377662Y-32939467D01*
X37368390Y-32944402D01*
G37*
X37368390Y-32944402D02*
X37369868Y-32954557D01*
X37381013Y-32962926D01*
X37389650Y-32959241D01*
X37391067Y-32952872D01*
X37384250Y-32941209D01*
X37377662Y-32939467D01*
X37368390Y-32944402D01*
G36*
X37470089Y-32984622D02*
G01*
X37471252Y-32989655D01*
X37475734Y-32990267D01*
X37482703Y-32987169D01*
X37481378Y-32984622D01*
X37471330Y-32983609D01*
X37470089Y-32984622D01*
G37*
X37470089Y-32984622D02*
X37471252Y-32989655D01*
X37475734Y-32990267D01*
X37482703Y-32987169D01*
X37481378Y-32984622D01*
X37471330Y-32983609D01*
X37470089Y-32984622D01*
G36*
X37340267Y-33019900D02*
G01*
X37344501Y-33024133D01*
X37348734Y-33019900D01*
X37344501Y-33015667D01*
X37340267Y-33019900D01*
G37*
X37340267Y-33019900D02*
X37344501Y-33024133D01*
X37348734Y-33019900D01*
X37344501Y-33015667D01*
X37340267Y-33019900D01*
G36*
X37317689Y-33043889D02*
G01*
X37316676Y-33053937D01*
X37317689Y-33055178D01*
X37322723Y-33054015D01*
X37323334Y-33049533D01*
X37320236Y-33042564D01*
X37317689Y-33043889D01*
G37*
X37317689Y-33043889D02*
X37316676Y-33053937D01*
X37317689Y-33055178D01*
X37322723Y-33054015D01*
X37323334Y-33049533D01*
X37320236Y-33042564D01*
X37317689Y-33043889D01*
G36*
X37400759Y-33044954D02*
G01*
X37395301Y-33049533D01*
X37398298Y-33055811D01*
X37411734Y-33058000D01*
X37427883Y-33055163D01*
X37433400Y-33049533D01*
X37426332Y-33042586D01*
X37416967Y-33041067D01*
X37400759Y-33044954D01*
G37*
X37400759Y-33044954D02*
X37395301Y-33049533D01*
X37398298Y-33055811D01*
X37411734Y-33058000D01*
X37427883Y-33055163D01*
X37433400Y-33049533D01*
X37426332Y-33042586D01*
X37416967Y-33041067D01*
X37400759Y-33044954D01*
G36*
X37221734Y-33155366D02*
G01*
X37225967Y-33159600D01*
X37230200Y-33155366D01*
X37225967Y-33151133D01*
X37221734Y-33155366D01*
G37*
X37221734Y-33155366D02*
X37225967Y-33159600D01*
X37230200Y-33155366D01*
X37225967Y-33151133D01*
X37221734Y-33155366D01*
G36*
X37274891Y-33166658D02*
G01*
X37272534Y-33176533D01*
X37276771Y-33191283D01*
X37287313Y-33191763D01*
X37292289Y-33187822D01*
X37297988Y-33174262D01*
X37293091Y-33162443D01*
X37285234Y-33159600D01*
X37274891Y-33166658D01*
G37*
X37274891Y-33166658D02*
X37272534Y-33176533D01*
X37276771Y-33191283D01*
X37287313Y-33191763D01*
X37292289Y-33187822D01*
X37297988Y-33174262D01*
X37293091Y-33162443D01*
X37285234Y-33159600D01*
X37274891Y-33166658D01*
G36*
X37213510Y-33267277D02*
G01*
X37213267Y-33269167D01*
X37219422Y-33280634D01*
X37221734Y-33282366D01*
X37228982Y-33280447D01*
X37230200Y-33274400D01*
X37225780Y-33262815D01*
X37221734Y-33261200D01*
X37213510Y-33267277D01*
G37*
X37213510Y-33267277D02*
X37213267Y-33269167D01*
X37219422Y-33280634D01*
X37221734Y-33282366D01*
X37228982Y-33280447D01*
X37230200Y-33274400D01*
X37225780Y-33262815D01*
X37221734Y-33261200D01*
X37213510Y-33267277D01*
G36*
X35776756Y-33331755D02*
G01*
X35775743Y-33341803D01*
X35776756Y-33343044D01*
X35781789Y-33341882D01*
X35782401Y-33337400D01*
X35779303Y-33330431D01*
X35776756Y-33331755D01*
G37*
X35776756Y-33331755D02*
X35775743Y-33341803D01*
X35776756Y-33343044D01*
X35781789Y-33341882D01*
X35782401Y-33337400D01*
X35779303Y-33330431D01*
X35776756Y-33331755D01*
G36*
X35316371Y-33703036D02*
G01*
X35311278Y-33710138D01*
X35308914Y-33726360D01*
X35308276Y-33755290D01*
X35308267Y-33761916D01*
X35309487Y-33797942D01*
X35313512Y-33820174D01*
X35320892Y-33831599D01*
X35321117Y-33831766D01*
X35329475Y-33845234D01*
X35336551Y-33869297D01*
X35339230Y-33885617D01*
X35343574Y-33912394D01*
X35349581Y-33925960D01*
X35359012Y-33930037D01*
X35360246Y-33930067D01*
X35373323Y-33924846D01*
X35376000Y-33918309D01*
X35383579Y-33908846D01*
X35402805Y-33901570D01*
X35405634Y-33900992D01*
X35423977Y-33894147D01*
X35434617Y-33884253D01*
X35435378Y-33875188D01*
X35424086Y-33870829D01*
X35422567Y-33870800D01*
X35413616Y-33865037D01*
X35410038Y-33846075D01*
X35409867Y-33837921D01*
X35407781Y-33814852D01*
X35400056Y-33803517D01*
X35392934Y-33800613D01*
X35380899Y-33792922D01*
X35376289Y-33775311D01*
X35376000Y-33765759D01*
X35374212Y-33745004D01*
X35367180Y-33736464D01*
X35359067Y-33735333D01*
X35344917Y-33729346D01*
X35342134Y-33718400D01*
X35336147Y-33704249D01*
X35325200Y-33701467D01*
X35316371Y-33703036D01*
G37*
X35316371Y-33703036D02*
X35311278Y-33710138D01*
X35308914Y-33726360D01*
X35308276Y-33755290D01*
X35308267Y-33761916D01*
X35309487Y-33797942D01*
X35313512Y-33820174D01*
X35320892Y-33831599D01*
X35321117Y-33831766D01*
X35329475Y-33845234D01*
X35336551Y-33869297D01*
X35339230Y-33885617D01*
X35343574Y-33912394D01*
X35349581Y-33925960D01*
X35359012Y-33930037D01*
X35360246Y-33930067D01*
X35373323Y-33924846D01*
X35376000Y-33918309D01*
X35383579Y-33908846D01*
X35402805Y-33901570D01*
X35405634Y-33900992D01*
X35423977Y-33894147D01*
X35434617Y-33884253D01*
X35435378Y-33875188D01*
X35424086Y-33870829D01*
X35422567Y-33870800D01*
X35413616Y-33865037D01*
X35410038Y-33846075D01*
X35409867Y-33837921D01*
X35407781Y-33814852D01*
X35400056Y-33803517D01*
X35392934Y-33800613D01*
X35380899Y-33792922D01*
X35376289Y-33775311D01*
X35376000Y-33765759D01*
X35374212Y-33745004D01*
X35367180Y-33736464D01*
X35359067Y-33735333D01*
X35344917Y-33729346D01*
X35342134Y-33718400D01*
X35336147Y-33704249D01*
X35325200Y-33701467D01*
X35316371Y-33703036D01*
G36*
X36801223Y-33975222D02*
G01*
X36800209Y-33985270D01*
X36801223Y-33986511D01*
X36806256Y-33985349D01*
X36806867Y-33980867D01*
X36803769Y-33973897D01*
X36801223Y-33975222D01*
G37*
X36801223Y-33975222D02*
X36800209Y-33985270D01*
X36801223Y-33986511D01*
X36806256Y-33985349D01*
X36806867Y-33980867D01*
X36803769Y-33973897D01*
X36801223Y-33975222D01*
G36*
X36713734Y-34002033D02*
G01*
X36717967Y-34006267D01*
X36722200Y-34002033D01*
X36717967Y-33997800D01*
X36713734Y-34002033D01*
G37*
X36713734Y-34002033D02*
X36717967Y-34006267D01*
X36722200Y-34002033D01*
X36717967Y-33997800D01*
X36713734Y-34002033D01*
G36*
X36696800Y-34018967D02*
G01*
X36701034Y-34023200D01*
X36705267Y-34018967D01*
X36701034Y-34014733D01*
X36696800Y-34018967D01*
G37*
X36696800Y-34018967D02*
X36701034Y-34023200D01*
X36705267Y-34018967D01*
X36701034Y-34014733D01*
X36696800Y-34018967D01*
G36*
X35510756Y-33927799D02*
G01*
X35502027Y-33930962D01*
X35496901Y-33937144D01*
X35494820Y-33949799D01*
X35495224Y-33972379D01*
X35497554Y-34008334D01*
X35497600Y-34008981D01*
X35500320Y-34043011D01*
X35503052Y-34069983D01*
X35505365Y-34085923D01*
X35506193Y-34088481D01*
X35517633Y-34092275D01*
X35538605Y-34094876D01*
X35561722Y-34095749D01*
X35579597Y-34094357D01*
X35581317Y-34093935D01*
X35594151Y-34084267D01*
X35593962Y-34071046D01*
X35583434Y-34062471D01*
X35575341Y-34053371D01*
X35571397Y-34032194D01*
X35570734Y-34010766D01*
X35569638Y-33982713D01*
X35565748Y-33968199D01*
X35558155Y-33963937D01*
X35557824Y-33963933D01*
X35545404Y-33956865D01*
X35537122Y-33943438D01*
X35527438Y-33928574D01*
X35512139Y-33927455D01*
X35510756Y-33927799D01*
G37*
X35510756Y-33927799D02*
X35502027Y-33930962D01*
X35496901Y-33937144D01*
X35494820Y-33949799D01*
X35495224Y-33972379D01*
X35497554Y-34008334D01*
X35497600Y-34008981D01*
X35500320Y-34043011D01*
X35503052Y-34069983D01*
X35505365Y-34085923D01*
X35506193Y-34088481D01*
X35517633Y-34092275D01*
X35538605Y-34094876D01*
X35561722Y-34095749D01*
X35579597Y-34094357D01*
X35581317Y-34093935D01*
X35594151Y-34084267D01*
X35593962Y-34071046D01*
X35583434Y-34062471D01*
X35575341Y-34053371D01*
X35571397Y-34032194D01*
X35570734Y-34010766D01*
X35569638Y-33982713D01*
X35565748Y-33968199D01*
X35558155Y-33963937D01*
X35557824Y-33963933D01*
X35545404Y-33956865D01*
X35537122Y-33943438D01*
X35527438Y-33928574D01*
X35512139Y-33927455D01*
X35510756Y-33927799D01*
G36*
X36598023Y-34136089D02*
G01*
X36599185Y-34141122D01*
X36603667Y-34141733D01*
X36610636Y-34138635D01*
X36609312Y-34136089D01*
X36599264Y-34135075D01*
X36598023Y-34136089D01*
G37*
X36598023Y-34136089D02*
X36599185Y-34141122D01*
X36603667Y-34141733D01*
X36610636Y-34138635D01*
X36609312Y-34136089D01*
X36599264Y-34135075D01*
X36598023Y-34136089D01*
G36*
X36977190Y-31518063D02*
G01*
X36954333Y-31518559D01*
X36904920Y-31519918D01*
X36869757Y-31521678D01*
X36846159Y-31524183D01*
X36831443Y-31527781D01*
X36822924Y-31532815D01*
X36820251Y-31535841D01*
X36814954Y-31540847D01*
X36805861Y-31544599D01*
X36790695Y-31547291D01*
X36767177Y-31549118D01*
X36733030Y-31550275D01*
X36685975Y-31550956D01*
X36639744Y-31551279D01*
X36581974Y-31551671D01*
X36538909Y-31552298D01*
X36508319Y-31553381D01*
X36487974Y-31555141D01*
X36475644Y-31557796D01*
X36469102Y-31561568D01*
X36466116Y-31566677D01*
X36465585Y-31568488D01*
X36460011Y-31578353D01*
X36447059Y-31583286D01*
X36422321Y-31584780D01*
X36417400Y-31584800D01*
X36390732Y-31585848D01*
X36376398Y-31590060D01*
X36369871Y-31599037D01*
X36369006Y-31601917D01*
X36361000Y-31614379D01*
X36343018Y-31617833D01*
X36338048Y-31617676D01*
X36305925Y-31616792D01*
X36286684Y-31619419D01*
X36276363Y-31627333D01*
X36270999Y-31642314D01*
X36269792Y-31648300D01*
X36262614Y-31669361D01*
X36252489Y-31677909D01*
X36251917Y-31677933D01*
X36241933Y-31684981D01*
X36239600Y-31694867D01*
X36233966Y-31708922D01*
X36226108Y-31711800D01*
X36213277Y-31718908D01*
X36208187Y-31728733D01*
X36199846Y-31742490D01*
X36192430Y-31745667D01*
X36183545Y-31753095D01*
X36176373Y-31771394D01*
X36175542Y-31775300D01*
X36168555Y-31795956D01*
X36158839Y-31804870D01*
X36157959Y-31804933D01*
X36145246Y-31811864D01*
X36140490Y-31819750D01*
X36130389Y-31835888D01*
X36124484Y-31840967D01*
X36115221Y-31853269D01*
X36108356Y-31872717D01*
X36102152Y-31890472D01*
X36094927Y-31898063D01*
X36094785Y-31898066D01*
X36086192Y-31905063D01*
X36078734Y-31919233D01*
X36070088Y-31934924D01*
X36062581Y-31940400D01*
X36053811Y-31947391D01*
X36049100Y-31957333D01*
X36039857Y-31971059D01*
X36031980Y-31974267D01*
X36022533Y-31981840D01*
X36015260Y-32001040D01*
X36014675Y-32003900D01*
X36007726Y-32024475D01*
X35998086Y-32033460D01*
X35997149Y-32033533D01*
X35985557Y-32040598D01*
X35977134Y-32054700D01*
X35968616Y-32070385D01*
X35961352Y-32075867D01*
X35954865Y-32083266D01*
X35948886Y-32101474D01*
X35948059Y-32105500D01*
X35940880Y-32126561D01*
X35930755Y-32135109D01*
X35930184Y-32135133D01*
X35920948Y-32142142D01*
X35917869Y-32163930D01*
X35917867Y-32164767D01*
X35915973Y-32185190D01*
X35908578Y-32193431D01*
X35900934Y-32194400D01*
X35886783Y-32200387D01*
X35884001Y-32211333D01*
X35878014Y-32225484D01*
X35867067Y-32228267D01*
X35852917Y-32234253D01*
X35850134Y-32245200D01*
X35844840Y-32258990D01*
X35837434Y-32262133D01*
X35826397Y-32268971D01*
X35824734Y-32275626D01*
X35817654Y-32288628D01*
X35808597Y-32293338D01*
X35794370Y-32305423D01*
X35787046Y-32326412D01*
X35779895Y-32346969D01*
X35769734Y-32355254D01*
X35769317Y-32355266D01*
X35759333Y-32362314D01*
X35757001Y-32372200D01*
X35751874Y-32385927D01*
X35744684Y-32389133D01*
X35734462Y-32396852D01*
X35727142Y-32417016D01*
X35726955Y-32417987D01*
X35717817Y-32441761D01*
X35705404Y-32451061D01*
X35692068Y-32460469D01*
X35689267Y-32468774D01*
X35682701Y-32480497D01*
X35676301Y-32482267D01*
X35662777Y-32489212D01*
X35657890Y-32497083D01*
X35647399Y-32513466D01*
X35641222Y-32518671D01*
X35633072Y-32531347D01*
X35630000Y-32550123D01*
X35623842Y-32573977D01*
X35613313Y-32583735D01*
X35606693Y-32588491D01*
X35602095Y-32596323D01*
X35599157Y-32610025D01*
X35597517Y-32632392D01*
X35596813Y-32666218D01*
X35596680Y-32711996D01*
X35596382Y-32761192D01*
X35595261Y-32796052D01*
X35593060Y-32819166D01*
X35589521Y-32833123D01*
X35584385Y-32840510D01*
X35583828Y-32840946D01*
X35578287Y-32848814D01*
X35573976Y-32864648D01*
X35570569Y-32890804D01*
X35567739Y-32929638D01*
X35565654Y-32971763D01*
X35563686Y-33019248D01*
X35562783Y-33052498D01*
X35563214Y-33074195D01*
X35565248Y-33087019D01*
X35569153Y-33093652D01*
X35575198Y-33096772D01*
X35578260Y-33097634D01*
X35592534Y-33107329D01*
X35596134Y-33117217D01*
X35601201Y-33135326D01*
X35612999Y-33144717D01*
X35626425Y-33142052D01*
X35629496Y-33139041D01*
X35644301Y-33130764D01*
X35657961Y-33136015D01*
X35663867Y-33152039D01*
X35669411Y-33165261D01*
X35676567Y-33168066D01*
X35686910Y-33175125D01*
X35689267Y-33185000D01*
X35694785Y-33198970D01*
X35702467Y-33201933D01*
X35711458Y-33205715D01*
X35710881Y-33209677D01*
X35712349Y-33218965D01*
X35715075Y-33220414D01*
X35723591Y-33230278D01*
X35726519Y-33240187D01*
X35731785Y-33253948D01*
X35736641Y-33257096D01*
X35751368Y-33261704D01*
X35761042Y-33271292D01*
X35761195Y-33278197D01*
X35765559Y-33283499D01*
X35782055Y-33287541D01*
X35788083Y-33288195D01*
X35809760Y-33292001D01*
X35820849Y-33301826D01*
X35826584Y-33318276D01*
X35832950Y-33336423D01*
X35839155Y-33344423D01*
X35839773Y-33344425D01*
X35851290Y-33346434D01*
X35869022Y-33352695D01*
X35883767Y-33363895D01*
X35887340Y-33377029D01*
X35879526Y-33386534D01*
X35870395Y-33388200D01*
X35861206Y-33395704D01*
X35858471Y-33411483D01*
X35855786Y-33433223D01*
X35850951Y-33446435D01*
X35840096Y-33453557D01*
X35829636Y-33447531D01*
X35824741Y-33431453D01*
X35824734Y-33430726D01*
X35820772Y-33405344D01*
X35810256Y-33390468D01*
X35802661Y-33388200D01*
X35792021Y-33394921D01*
X35790867Y-33399994D01*
X35784038Y-33413065D01*
X35778167Y-33416662D01*
X35766904Y-33427977D01*
X35765467Y-33434501D01*
X35772126Y-33445896D01*
X35778167Y-33447466D01*
X35788564Y-33453345D01*
X35790203Y-33466184D01*
X35783619Y-33478793D01*
X35775489Y-33483380D01*
X35768452Y-33487152D01*
X35763746Y-33496135D01*
X35760780Y-33513417D01*
X35758963Y-33542088D01*
X35757945Y-33575064D01*
X35756524Y-33619217D01*
X35754553Y-33648727D01*
X35751591Y-33665885D01*
X35747202Y-33672981D01*
X35740945Y-33672306D01*
X35739482Y-33671472D01*
X35734569Y-33675721D01*
X35731819Y-33692324D01*
X35731601Y-33700061D01*
X35734985Y-33726717D01*
X35744301Y-33738395D01*
X35754876Y-33748213D01*
X35755983Y-33760878D01*
X35747623Y-33768832D01*
X35744301Y-33769200D01*
X35735393Y-33776205D01*
X35731392Y-33792824D01*
X35732296Y-33812467D01*
X35738105Y-33828539D01*
X35744301Y-33833871D01*
X35753883Y-33845918D01*
X35757001Y-33866961D01*
X35758424Y-33885587D01*
X35766037Y-33894134D01*
X35784851Y-33897470D01*
X35788751Y-33897805D01*
X35810050Y-33901229D01*
X35819836Y-33909536D01*
X35823279Y-33924748D01*
X35821872Y-33949228D01*
X35810090Y-33960480D01*
X35788357Y-33959376D01*
X35768976Y-33947633D01*
X35761081Y-33929371D01*
X35753412Y-33907187D01*
X35744316Y-33900004D01*
X35735272Y-33908616D01*
X35732848Y-33914240D01*
X35730439Y-33932259D01*
X35732326Y-33955534D01*
X35737311Y-33978081D01*
X35744197Y-33993915D01*
X35749564Y-33997800D01*
X35756166Y-34004672D01*
X35757001Y-34010500D01*
X35751987Y-34021666D01*
X35740227Y-34020776D01*
X35727468Y-34009206D01*
X35715680Y-33999272D01*
X35706459Y-34005493D01*
X35699671Y-34028091D01*
X35695613Y-34061571D01*
X35691157Y-34096925D01*
X35684039Y-34118874D01*
X35675385Y-34129372D01*
X35664966Y-34139514D01*
X35668291Y-34146975D01*
X35672334Y-34149901D01*
X35686469Y-34158404D01*
X35691213Y-34160646D01*
X35695080Y-34169820D01*
X35693616Y-34187679D01*
X35688439Y-34207464D01*
X35681170Y-34222417D01*
X35675459Y-34226400D01*
X35665202Y-34233201D01*
X35663867Y-34239100D01*
X35656809Y-34249443D01*
X35646934Y-34251800D01*
X35635121Y-34248360D01*
X35630468Y-34235052D01*
X35630000Y-34223072D01*
X35626536Y-34200693D01*
X35617840Y-34189678D01*
X35609103Y-34178687D01*
X35603502Y-34157310D01*
X35603023Y-34152789D01*
X35599984Y-34131635D01*
X35592027Y-34121979D01*
X35573791Y-34118391D01*
X35568617Y-34117939D01*
X35547644Y-34117512D01*
X35538629Y-34122437D01*
X35536867Y-34133021D01*
X35542235Y-34149519D01*
X35549567Y-34155605D01*
X35559191Y-34168215D01*
X35562267Y-34193939D01*
X35560535Y-34213916D01*
X35556143Y-34222751D01*
X35554305Y-34222478D01*
X35543486Y-34224364D01*
X35530002Y-34235098D01*
X35513661Y-34252638D01*
X35508446Y-34233169D01*
X35505817Y-34215085D01*
X35503904Y-34186257D01*
X35503117Y-34152870D01*
X35503116Y-34152317D01*
X35502236Y-34118848D01*
X35499396Y-34099506D01*
X35494060Y-34091546D01*
X35491160Y-34090933D01*
X35483764Y-34084989D01*
X35478025Y-34065906D01*
X35473382Y-34031807D01*
X35473305Y-34031047D01*
X35467919Y-33994090D01*
X35460828Y-33972221D01*
X35455512Y-33966641D01*
X35445589Y-33955414D01*
X35443734Y-33946094D01*
X35440547Y-33935538D01*
X35428130Y-33930892D01*
X35409867Y-33930067D01*
X35387710Y-33931487D01*
X35377918Y-33937226D01*
X35376000Y-33947000D01*
X35381294Y-33960790D01*
X35388700Y-33963933D01*
X35395399Y-33967260D01*
X35399332Y-33979280D01*
X35401110Y-34003057D01*
X35401400Y-34027433D01*
X35400735Y-34060928D01*
X35398331Y-34080589D01*
X35393576Y-34089478D01*
X35388700Y-34090933D01*
X35378358Y-34097992D01*
X35376000Y-34107867D01*
X35370014Y-34122017D01*
X35359067Y-34124800D01*
X35345012Y-34130434D01*
X35342134Y-34138292D01*
X35335026Y-34151123D01*
X35325200Y-34156213D01*
X35311436Y-34165056D01*
X35308267Y-34173147D01*
X35301167Y-34185168D01*
X35291334Y-34190080D01*
X35277577Y-34198371D01*
X35274400Y-34205721D01*
X35268443Y-34220004D01*
X35251169Y-34222258D01*
X35237011Y-34218203D01*
X35219856Y-34206367D01*
X35215134Y-34186158D01*
X35209067Y-34162667D01*
X35198200Y-34147931D01*
X35185083Y-34128849D01*
X35181267Y-34112183D01*
X35177659Y-34096186D01*
X35170684Y-34090787D01*
X35155203Y-34083627D01*
X35138156Y-34066134D01*
X35124147Y-34043744D01*
X35119009Y-34029794D01*
X35108848Y-34009279D01*
X35096263Y-33997619D01*
X35085017Y-33987382D01*
X35084515Y-33979872D01*
X35082078Y-33971312D01*
X35072835Y-33966814D01*
X35056893Y-33956008D01*
X35051609Y-33946217D01*
X35043555Y-33934610D01*
X35024811Y-33930261D01*
X35016960Y-33930067D01*
X34997481Y-33931046D01*
X34988825Y-33937242D01*
X34986604Y-33953538D01*
X34986534Y-33963933D01*
X34988973Y-33988304D01*
X34996571Y-33997625D01*
X34998292Y-33997800D01*
X35007768Y-34005322D01*
X35014961Y-34024171D01*
X35015434Y-34026500D01*
X35024916Y-34050656D01*
X35037542Y-34059574D01*
X35051200Y-34068874D01*
X35054267Y-34077441D01*
X35059067Y-34089200D01*
X35063657Y-34090933D01*
X35078335Y-34097366D01*
X35095324Y-34112615D01*
X35108873Y-34130608D01*
X35113388Y-34143429D01*
X35120192Y-34159634D01*
X35126847Y-34165275D01*
X35136269Y-34178028D01*
X35143528Y-34201151D01*
X35145023Y-34210146D01*
X35150398Y-34234432D01*
X35158162Y-34251240D01*
X35161343Y-34254337D01*
X35171284Y-34266163D01*
X35171169Y-34279008D01*
X35161288Y-34285623D01*
X35160100Y-34285667D01*
X35148864Y-34291936D01*
X35147400Y-34297379D01*
X35140307Y-34308751D01*
X35130467Y-34313520D01*
X35116703Y-34322363D01*
X35113534Y-34330453D01*
X35106433Y-34342475D01*
X35096600Y-34347386D01*
X35082836Y-34356229D01*
X35079667Y-34364320D01*
X35072567Y-34376342D01*
X35062734Y-34381253D01*
X35048964Y-34390518D01*
X35045800Y-34399174D01*
X35038729Y-34410373D01*
X35028867Y-34412667D01*
X35015138Y-34417675D01*
X35011934Y-34424694D01*
X35004602Y-34434737D01*
X34986928Y-34442212D01*
X34986534Y-34442300D01*
X34968726Y-34449683D01*
X34961137Y-34459719D01*
X34961134Y-34459906D01*
X34954130Y-34469840D01*
X34945143Y-34471933D01*
X34932214Y-34466082D01*
X34924461Y-34446675D01*
X34923746Y-34443117D01*
X34916760Y-34422312D01*
X34906936Y-34410019D01*
X34905870Y-34409516D01*
X34894752Y-34398138D01*
X34893400Y-34391766D01*
X34886935Y-34380366D01*
X34881084Y-34378800D01*
X34870870Y-34371046D01*
X34863493Y-34350636D01*
X34863249Y-34349381D01*
X34856830Y-34328546D01*
X34844107Y-34318438D01*
X34828998Y-34314572D01*
X34808226Y-34307275D01*
X34800268Y-34296764D01*
X34800267Y-34296632D01*
X34793166Y-34284573D01*
X34783334Y-34279653D01*
X34769581Y-34271558D01*
X34766400Y-34264473D01*
X34759109Y-34255987D01*
X34741765Y-34250302D01*
X34721165Y-34248530D01*
X34704105Y-34251780D01*
X34700866Y-34253760D01*
X34694850Y-34267930D01*
X34696570Y-34288721D01*
X34704777Y-34308403D01*
X34710791Y-34315300D01*
X34722543Y-34330452D01*
X34726443Y-34338583D01*
X34737216Y-34351116D01*
X34744968Y-34353400D01*
X34756403Y-34357984D01*
X34757934Y-34362048D01*
X34764800Y-34371538D01*
X34779100Y-34380340D01*
X34794722Y-34391167D01*
X34800267Y-34401326D01*
X34807863Y-34409919D01*
X34825667Y-34412667D01*
X34843890Y-34415013D01*
X34850527Y-34424695D01*
X34851067Y-34432775D01*
X34853422Y-34463798D01*
X34859599Y-34488876D01*
X34868273Y-34503643D01*
X34873292Y-34505800D01*
X34883385Y-34511421D01*
X34884283Y-34523889D01*
X34877093Y-34536616D01*
X34867149Y-34542342D01*
X34855364Y-34549371D01*
X34854958Y-34556046D01*
X34852313Y-34565167D01*
X34838877Y-34573339D01*
X34822954Y-34581980D01*
X34817200Y-34589584D01*
X34809900Y-34596789D01*
X34792289Y-34603058D01*
X34791800Y-34603167D01*
X34773992Y-34610549D01*
X34766404Y-34620585D01*
X34766400Y-34620773D01*
X34759633Y-34631479D01*
X34753998Y-34632800D01*
X34740524Y-34639522D01*
X34732534Y-34649733D01*
X34720393Y-34663219D01*
X34711069Y-34666667D01*
X34701016Y-34673713D01*
X34698667Y-34683600D01*
X34692595Y-34697857D01*
X34682721Y-34700533D01*
X34667765Y-34707836D01*
X34662125Y-34718318D01*
X34654844Y-34730375D01*
X34647867Y-34730166D01*
X34638370Y-34731886D01*
X34633847Y-34741106D01*
X34622391Y-34755882D01*
X34606821Y-34762506D01*
X34585591Y-34770825D01*
X34563474Y-34785366D01*
X34545789Y-34801912D01*
X34537855Y-34816248D01*
X34537801Y-34817219D01*
X34530918Y-34826202D01*
X34524308Y-34827533D01*
X34511477Y-34834641D01*
X34506387Y-34844466D01*
X34496035Y-34858302D01*
X34486013Y-34861400D01*
X34472587Y-34867848D01*
X34470067Y-34878333D01*
X34465655Y-34892020D01*
X34459484Y-34895151D01*
X34435312Y-34891563D01*
X34417217Y-34883061D01*
X34410801Y-34873112D01*
X34402994Y-34864179D01*
X34382155Y-34861400D01*
X34360669Y-34858587D01*
X34350439Y-34848369D01*
X34349140Y-34844466D01*
X33919734Y-34844466D01*
X33913291Y-34852687D01*
X33911267Y-34852933D01*
X33903047Y-34846490D01*
X33902801Y-34844466D01*
X33909243Y-34836246D01*
X33911267Y-34836000D01*
X33919488Y-34842443D01*
X33919734Y-34844466D01*
X34349140Y-34844466D01*
X34348866Y-34843646D01*
X34344187Y-34833366D01*
X34334150Y-34828610D01*
X34314169Y-34828010D01*
X34299195Y-34828829D01*
X34272889Y-34829872D01*
X34258995Y-34827597D01*
X34253097Y-34820547D01*
X34251513Y-34813110D01*
X34250167Y-34806709D01*
X34246709Y-34801974D01*
X34238892Y-34798657D01*
X34224465Y-34796513D01*
X34201179Y-34795293D01*
X34166786Y-34794751D01*
X34119036Y-34794639D01*
X34083682Y-34794675D01*
X34026394Y-34794871D01*
X33983605Y-34795431D01*
X33952881Y-34796578D01*
X33931786Y-34798532D01*
X33917887Y-34801517D01*
X33908749Y-34805753D01*
X33902186Y-34811215D01*
X33881480Y-34823341D01*
X33859675Y-34827533D01*
X33838677Y-34831237D01*
X33829227Y-34843830D01*
X33829054Y-34844466D01*
X33820495Y-34857074D01*
X33801054Y-34861336D01*
X33796967Y-34861400D01*
X33775533Y-34864622D01*
X33765636Y-34875841D01*
X33764881Y-34878333D01*
X33755616Y-34892103D01*
X33746960Y-34895266D01*
X33735234Y-34901703D01*
X33733467Y-34907966D01*
X33726629Y-34919003D01*
X33719975Y-34920666D01*
X33707084Y-34927765D01*
X33702127Y-34937319D01*
X33691192Y-34953577D01*
X33681753Y-34959057D01*
X33668517Y-34968575D01*
X33665734Y-34976270D01*
X33658944Y-34986997D01*
X33653034Y-34988400D01*
X33641794Y-34994502D01*
X33640334Y-34999788D01*
X33634531Y-35013604D01*
X33623401Y-35026500D01*
X33610400Y-35046605D01*
X33606467Y-35064925D01*
X33601409Y-35084982D01*
X33589534Y-35092453D01*
X33579263Y-35097955D01*
X33574165Y-35110481D01*
X33572625Y-35134566D01*
X33572600Y-35140007D01*
X33571158Y-35167347D01*
X33566321Y-35180679D01*
X33560510Y-35183133D01*
X33551386Y-35191315D01*
X33544879Y-35215095D01*
X33541099Y-35253323D01*
X33540155Y-35304852D01*
X33542157Y-35368533D01*
X33542395Y-35373116D01*
X33545801Y-35422554D01*
X33550104Y-35456829D01*
X33555581Y-35477697D01*
X33560134Y-35485143D01*
X33568402Y-35502144D01*
X33572449Y-35528871D01*
X33572600Y-35535370D01*
X33575438Y-35564105D01*
X33584070Y-35577472D01*
X33585070Y-35577916D01*
X33594962Y-35588835D01*
X33602448Y-35609082D01*
X33602946Y-35611517D01*
X33609334Y-35630752D01*
X33617910Y-35640149D01*
X33619167Y-35640333D01*
X33627697Y-35647751D01*
X33634700Y-35665999D01*
X33635542Y-35669967D01*
X33642721Y-35691028D01*
X33652846Y-35699576D01*
X33653417Y-35699600D01*
X33664246Y-35706406D01*
X33665734Y-35712566D01*
X33672065Y-35726645D01*
X33676992Y-35729851D01*
X33687315Y-35740056D01*
X33698128Y-35759558D01*
X33699739Y-35763452D01*
X33709950Y-35782564D01*
X33720499Y-35792384D01*
X33722347Y-35792733D01*
X33732572Y-35796954D01*
X33733467Y-35799675D01*
X33739829Y-35813360D01*
X33755609Y-35831375D01*
X33775852Y-35849099D01*
X33795603Y-35861911D01*
X33803494Y-35864969D01*
X33820272Y-35872882D01*
X33826601Y-35882551D01*
X33833655Y-35892106D01*
X33843534Y-35894333D01*
X33857426Y-35899750D01*
X33860467Y-35907299D01*
X33867374Y-35921070D01*
X33874637Y-35925702D01*
X33891670Y-35935881D01*
X33904270Y-35946603D01*
X33927534Y-35958877D01*
X33954100Y-35962067D01*
X33974247Y-35963665D01*
X33983880Y-35967676D01*
X33983827Y-35969574D01*
X33984939Y-35980528D01*
X33997397Y-35990411D01*
X34015805Y-35995629D01*
X34023002Y-35995661D01*
X34049365Y-35994851D01*
X34060577Y-35998254D01*
X34060029Y-36003437D01*
X34059706Y-36008947D01*
X34067365Y-36013249D01*
X34084532Y-36016474D01*
X34112734Y-36018754D01*
X34153497Y-36020218D01*
X34208347Y-36020996D01*
X34267996Y-36021218D01*
X34326543Y-36021201D01*
X34370368Y-36020916D01*
X34401681Y-36020142D01*
X34422693Y-36018657D01*
X34435615Y-36016241D01*
X34442659Y-36012673D01*
X34446034Y-36007731D01*
X34447413Y-36003282D01*
X34455445Y-35990006D01*
X34470384Y-35990002D01*
X34493845Y-35991573D01*
X34509027Y-35983723D01*
X34512401Y-35973861D01*
X34520261Y-35964861D01*
X34542034Y-35962067D01*
X34562458Y-35960172D01*
X34570699Y-35952778D01*
X34571667Y-35945133D01*
X34577350Y-35931045D01*
X34585290Y-35928200D01*
X34602912Y-35921634D01*
X34621758Y-35905944D01*
X34635698Y-35887142D01*
X34639254Y-35875283D01*
X34645445Y-35862753D01*
X34652366Y-35860467D01*
X34666493Y-35853617D01*
X34670205Y-35847767D01*
X34680866Y-35836514D01*
X34686873Y-35835067D01*
X34696803Y-35828111D01*
X34698667Y-35820015D01*
X34704718Y-35803324D01*
X34715600Y-35790464D01*
X34728739Y-35771038D01*
X34732534Y-35753923D01*
X34738151Y-35734236D01*
X34749467Y-35727453D01*
X34760581Y-35720993D01*
X34765529Y-35706184D01*
X34766400Y-35686949D01*
X34770892Y-35654956D01*
X34784531Y-35637069D01*
X34807559Y-35632993D01*
X34810384Y-35633333D01*
X34823961Y-35638611D01*
X34830551Y-35652635D01*
X34832528Y-35667850D01*
X34838002Y-35691404D01*
X34848810Y-35699393D01*
X34864279Y-35691387D01*
X34866307Y-35689440D01*
X34877829Y-35683639D01*
X34886627Y-35689440D01*
X34903717Y-35698555D01*
X34911040Y-35699600D01*
X34924493Y-35706713D01*
X34929720Y-35716533D01*
X34937517Y-35730281D01*
X34944200Y-35733467D01*
X34954212Y-35726389D01*
X34958681Y-35716533D01*
X34967185Y-35702773D01*
X34974821Y-35699600D01*
X34985251Y-35692825D01*
X34986534Y-35687198D01*
X34993256Y-35673723D01*
X35003467Y-35665733D01*
X35016933Y-35654013D01*
X35020400Y-35645256D01*
X35027491Y-35634128D01*
X35037334Y-35629413D01*
X35051104Y-35620149D01*
X35054267Y-35611492D01*
X35060704Y-35599767D01*
X35066967Y-35598000D01*
X35077532Y-35590767D01*
X35081115Y-35578950D01*
X35083134Y-35557682D01*
X35084449Y-35547200D01*
X35086628Y-35527393D01*
X35087234Y-35519147D01*
X35091626Y-35508609D01*
X35105985Y-35505821D01*
X35115650Y-35506447D01*
X35131837Y-35508969D01*
X35140319Y-35515531D01*
X35144071Y-35530706D01*
X35145696Y-35552670D01*
X35148580Y-35579781D01*
X35154340Y-35594305D01*
X35164698Y-35600548D01*
X35164881Y-35600596D01*
X35177398Y-35609364D01*
X35179859Y-35628917D01*
X35179854Y-35628992D01*
X35178559Y-35675553D01*
X35182426Y-35706894D01*
X35191635Y-35723980D01*
X35198200Y-35727453D01*
X35211158Y-35738193D01*
X35215776Y-35756986D01*
X35211996Y-35777117D01*
X35199759Y-35791869D01*
X35198763Y-35792432D01*
X35185550Y-35806947D01*
X35179713Y-35824408D01*
X35172113Y-35842710D01*
X35158142Y-35851436D01*
X35143322Y-35848233D01*
X35137832Y-35842250D01*
X35129026Y-35836225D01*
X35121442Y-35844877D01*
X35116017Y-35865953D01*
X35113689Y-35897199D01*
X35113663Y-35900385D01*
X35114940Y-35928349D01*
X35120012Y-35944442D01*
X35130432Y-35953581D01*
X35130467Y-35953600D01*
X35144618Y-35970360D01*
X35147400Y-35988557D01*
X35151214Y-36009466D01*
X35164110Y-36018821D01*
X35164334Y-36018880D01*
X35178090Y-36027141D01*
X35181267Y-36034450D01*
X35188448Y-36045889D01*
X35205170Y-36052340D01*
X35224204Y-36051152D01*
X35225528Y-36050680D01*
X35237838Y-36052988D01*
X35242862Y-36063188D01*
X35250649Y-36075687D01*
X35268260Y-36080351D01*
X35276854Y-36080600D01*
X35298832Y-36083348D01*
X35309232Y-36093155D01*
X35310720Y-36097533D01*
X35321168Y-36111846D01*
X35339969Y-36113836D01*
X35364527Y-36104100D01*
X35392249Y-36083232D01*
X35398289Y-36077433D01*
X35420273Y-36052749D01*
X35432455Y-36029830D01*
X35438923Y-36000758D01*
X35439300Y-35998050D01*
X35445615Y-35967870D01*
X35454134Y-35954398D01*
X35457228Y-35953600D01*
X35469154Y-35949794D01*
X35468959Y-35940966D01*
X35458924Y-35931000D01*
X35441332Y-35923782D01*
X35439500Y-35923408D01*
X35419831Y-35916861D01*
X35410106Y-35907976D01*
X35409867Y-35906475D01*
X35417311Y-35897528D01*
X35435706Y-35890345D01*
X35439500Y-35889541D01*
X35459059Y-35883176D01*
X35468867Y-35874704D01*
X35469134Y-35873212D01*
X35476218Y-35862611D01*
X35486067Y-35858013D01*
X35498102Y-35850322D01*
X35499879Y-35843533D01*
X35240534Y-35843533D01*
X35233676Y-35851045D01*
X35227834Y-35852000D01*
X35216567Y-35847428D01*
X35215134Y-35843533D01*
X35221991Y-35836022D01*
X35227834Y-35835067D01*
X35239101Y-35839638D01*
X35240534Y-35843533D01*
X35499879Y-35843533D01*
X35502712Y-35832711D01*
X35503000Y-35823159D01*
X35505609Y-35800930D01*
X35514003Y-35792852D01*
X35515700Y-35792733D01*
X35526936Y-35786421D01*
X35528400Y-35780939D01*
X35521571Y-35767868D01*
X35515700Y-35764271D01*
X35505032Y-35752735D01*
X35503000Y-35743186D01*
X35495525Y-35727782D01*
X35483950Y-35721430D01*
X35464900Y-35715885D01*
X35483950Y-35702476D01*
X35488932Y-35696002D01*
X35342134Y-35696002D01*
X35339690Y-35715499D01*
X35328982Y-35724740D01*
X35316734Y-35727963D01*
X35296357Y-35736750D01*
X35290490Y-35748072D01*
X35288500Y-35754559D01*
X35284867Y-35748351D01*
X35284183Y-35745901D01*
X35274400Y-35745901D01*
X35268782Y-35754446D01*
X35261749Y-35753480D01*
X35253151Y-35745510D01*
X35253782Y-35741046D01*
X35264452Y-35733634D01*
X35273180Y-35739454D01*
X35274400Y-35745901D01*
X35284183Y-35745901D01*
X35280705Y-35733459D01*
X35277130Y-35713894D01*
X35275258Y-35693667D01*
X35275244Y-35693250D01*
X35271269Y-35672381D01*
X35262592Y-35665733D01*
X35257303Y-35662177D01*
X35253445Y-35649958D01*
X35250681Y-35626747D01*
X35248673Y-35590215D01*
X35247767Y-35563533D01*
X35246123Y-35519236D01*
X35243965Y-35488948D01*
X35240820Y-35469746D01*
X35236216Y-35458705D01*
X35229942Y-35453045D01*
X35220841Y-35440078D01*
X35215552Y-35417391D01*
X35214195Y-35390895D01*
X35216885Y-35366499D01*
X35221038Y-35356571D01*
X34593630Y-35356571D01*
X34592834Y-35360933D01*
X34582010Y-35369077D01*
X34579634Y-35369400D01*
X34571895Y-35362942D01*
X34571667Y-35360933D01*
X34578559Y-35353503D01*
X34584867Y-35352466D01*
X34593630Y-35356571D01*
X35221038Y-35356571D01*
X35223740Y-35350113D01*
X35227834Y-35347062D01*
X35239077Y-35336907D01*
X35240534Y-35331300D01*
X35244836Y-35324128D01*
X34567845Y-35324128D01*
X34561419Y-35333601D01*
X34554234Y-35335533D01*
X34549689Y-35327918D01*
X34546805Y-35308446D01*
X34546267Y-35293200D01*
X34548011Y-35266961D01*
X34552734Y-35252568D01*
X34555676Y-35250866D01*
X34561299Y-35258361D01*
X34559650Y-35279840D01*
X34558188Y-35301965D01*
X34562847Y-35314139D01*
X34563079Y-35314291D01*
X34567845Y-35324128D01*
X35244836Y-35324128D01*
X35247702Y-35319352D01*
X35264689Y-35311978D01*
X35284722Y-35310381D01*
X35301024Y-35315765D01*
X35304828Y-35319884D01*
X35303925Y-35331983D01*
X35296861Y-35339868D01*
X35285611Y-35353814D01*
X35283669Y-35368346D01*
X35291247Y-35377233D01*
X35295567Y-35377866D01*
X35301156Y-35380474D01*
X35304873Y-35390059D01*
X35307064Y-35409262D01*
X35308075Y-35440726D01*
X35308267Y-35474733D01*
X35308994Y-35516548D01*
X35311012Y-35549485D01*
X35314072Y-35570609D01*
X35316872Y-35576919D01*
X35321756Y-35587065D01*
X35320606Y-35590118D01*
X35321263Y-35597514D01*
X35323713Y-35598000D01*
X35332460Y-35604963D01*
X35336936Y-35620313D01*
X35335703Y-35635744D01*
X35331303Y-35641794D01*
X35325525Y-35649825D01*
X35331621Y-35658607D01*
X35339095Y-35674105D01*
X35342134Y-35696002D01*
X35488932Y-35696002D01*
X35500146Y-35681432D01*
X35503000Y-35665121D01*
X35505001Y-35656794D01*
X35431538Y-35656794D01*
X35429393Y-35660319D01*
X35417102Y-35665469D01*
X35410113Y-35656407D01*
X35409867Y-35653033D01*
X35414174Y-35641762D01*
X35417834Y-35640333D01*
X35428890Y-35645935D01*
X35431538Y-35656794D01*
X35505001Y-35656794D01*
X35508204Y-35643465D01*
X35517817Y-35632887D01*
X35525252Y-35625655D01*
X35530212Y-35611691D01*
X35533395Y-35587656D01*
X35535499Y-35550207D01*
X35535593Y-35547800D01*
X35537944Y-35507935D01*
X35541500Y-35483268D01*
X35546568Y-35472088D01*
X35549351Y-35471000D01*
X35559121Y-35462791D01*
X35566038Y-35438770D01*
X35569920Y-35399848D01*
X35570734Y-35364108D01*
X35571722Y-35333062D01*
X35575103Y-35316037D01*
X35581502Y-35310215D01*
X35582690Y-35310133D01*
X35592314Y-35302203D01*
X35599579Y-35280532D01*
X35600367Y-35276266D01*
X35607132Y-35252798D01*
X35616506Y-35242591D01*
X35618045Y-35242400D01*
X35625762Y-35235074D01*
X35629818Y-35216843D01*
X35630214Y-35195683D01*
X35464454Y-35195683D01*
X35464383Y-35223466D01*
X35462287Y-35267014D01*
X35457051Y-35300184D01*
X35451683Y-35315436D01*
X35444452Y-35332560D01*
X35447230Y-35340555D01*
X35450084Y-35341858D01*
X35459277Y-35352055D01*
X35459210Y-35367550D01*
X35450346Y-35379779D01*
X35447967Y-35380928D01*
X35439253Y-35391385D01*
X35435511Y-35415418D01*
X35435267Y-35426990D01*
X35434166Y-35452188D01*
X35431368Y-35469816D01*
X35429482Y-35473963D01*
X35421854Y-35476990D01*
X35416060Y-35468008D01*
X35411864Y-35445785D01*
X35409032Y-35409092D01*
X35407352Y-35357778D01*
X35405929Y-35310210D01*
X35405030Y-35296728D01*
X35045132Y-35296728D01*
X35043575Y-35307709D01*
X35040685Y-35307840D01*
X35038664Y-35296508D01*
X35040017Y-35291612D01*
X35043776Y-35288405D01*
X35045132Y-35296728D01*
X35405030Y-35296728D01*
X35403720Y-35277096D01*
X35400415Y-35255962D01*
X35395701Y-35244336D01*
X35392693Y-35241298D01*
X35385190Y-35233083D01*
X35390817Y-35228350D01*
X35398316Y-35218734D01*
X35401218Y-35202876D01*
X35399162Y-35188478D01*
X35392934Y-35183133D01*
X35385195Y-35176380D01*
X35384467Y-35171792D01*
X35391884Y-35159131D01*
X35410058Y-35150247D01*
X35432872Y-35147487D01*
X35443734Y-35149042D01*
X35454159Y-35152535D01*
X35460404Y-35159010D01*
X35463494Y-35172162D01*
X35464454Y-35195683D01*
X35630214Y-35195683D01*
X35630259Y-35193321D01*
X35627129Y-35170127D01*
X35620474Y-35152877D01*
X35617300Y-35149266D01*
X35606431Y-35134310D01*
X35606079Y-35120109D01*
X35612875Y-35113989D01*
X35620042Y-35104540D01*
X35626272Y-35085390D01*
X35626634Y-35083650D01*
X35627816Y-35073066D01*
X35138934Y-35073066D01*
X35136045Y-35081313D01*
X35135200Y-35081533D01*
X35127972Y-35075600D01*
X35126234Y-35073066D01*
X35126905Y-35065265D01*
X35129967Y-35064600D01*
X35138589Y-35070746D01*
X35138934Y-35073066D01*
X35627816Y-35073066D01*
X35628782Y-35064431D01*
X35623828Y-35056869D01*
X35618359Y-35056133D01*
X35605498Y-35052430D01*
X35605113Y-35043846D01*
X35609926Y-35039200D01*
X35469134Y-35039200D01*
X35462043Y-35046079D01*
X35452200Y-35047666D01*
X35438442Y-35044121D01*
X35435267Y-35039200D01*
X35376000Y-35039200D01*
X35368888Y-35046012D01*
X35358567Y-35047666D01*
X35346860Y-35044407D01*
X35346367Y-35039200D01*
X35168567Y-35039200D01*
X35167896Y-35047002D01*
X35164834Y-35047666D01*
X35156212Y-35041520D01*
X35155867Y-35039200D01*
X35158756Y-35030953D01*
X35159601Y-35030733D01*
X35166829Y-35036666D01*
X35168567Y-35039200D01*
X35346367Y-35039200D01*
X35358617Y-35031409D01*
X35363800Y-35030733D01*
X35374743Y-35035467D01*
X35376000Y-35039200D01*
X35435267Y-35039200D01*
X35442358Y-35032321D01*
X35452200Y-35030733D01*
X35465959Y-35034279D01*
X35469134Y-35039200D01*
X35609926Y-35039200D01*
X35615134Y-35034174D01*
X35633492Y-35027202D01*
X35634234Y-35027058D01*
X35654140Y-35021640D01*
X35662309Y-35011592D01*
X35662793Y-35005333D01*
X35562267Y-35005333D01*
X35555410Y-35012845D01*
X35549567Y-35013800D01*
X35538300Y-35009228D01*
X35536867Y-35005333D01*
X35543725Y-34997822D01*
X35549567Y-34996866D01*
X35560834Y-35001438D01*
X35562267Y-35005333D01*
X35662793Y-35005333D01*
X35663867Y-34991457D01*
X35661256Y-34969291D01*
X35651872Y-34958725D01*
X35646934Y-34956986D01*
X35633201Y-34949948D01*
X35631007Y-34946066D01*
X35240534Y-34946066D01*
X35233443Y-34952946D01*
X35223600Y-34954533D01*
X35209450Y-34960520D01*
X35206667Y-34971466D01*
X35202582Y-34985804D01*
X35193891Y-34986895D01*
X35187348Y-34977462D01*
X35188680Y-34960685D01*
X35201159Y-34945471D01*
X35217227Y-34938729D01*
X35020327Y-34938729D01*
X35019488Y-34966658D01*
X35015926Y-34982048D01*
X35008236Y-34989240D01*
X35003467Y-34990853D01*
X34989147Y-35002149D01*
X34986534Y-35012709D01*
X34979688Y-35030349D01*
X34969600Y-35039200D01*
X34956036Y-35053167D01*
X34952667Y-35064898D01*
X34946931Y-35083087D01*
X34935734Y-35098466D01*
X34922910Y-35118847D01*
X34918800Y-35137066D01*
X34916110Y-35151484D01*
X34910318Y-35153490D01*
X34901646Y-35156415D01*
X34893594Y-35169924D01*
X34883290Y-35185922D01*
X34872443Y-35191600D01*
X34862001Y-35198924D01*
X34859534Y-35212469D01*
X34852713Y-35233266D01*
X34842600Y-35242400D01*
X34829135Y-35254120D01*
X34825667Y-35262877D01*
X34818576Y-35274005D01*
X34808734Y-35278720D01*
X34794964Y-35287984D01*
X34791800Y-35296641D01*
X34788033Y-35309256D01*
X34779342Y-35309505D01*
X34769644Y-35299463D01*
X34768888Y-35297433D01*
X34597067Y-35297433D01*
X34590290Y-35308658D01*
X34584367Y-35310133D01*
X34573142Y-35303356D01*
X34571667Y-35297433D01*
X34578444Y-35286208D01*
X34584367Y-35284733D01*
X34595592Y-35291510D01*
X34597067Y-35297433D01*
X34768888Y-35297433D01*
X34762879Y-35281317D01*
X34755894Y-35260512D01*
X34755333Y-35259810D01*
X34628744Y-35259810D01*
X34627409Y-35266654D01*
X34617456Y-35272605D01*
X34608262Y-35265852D01*
X34605534Y-35254600D01*
X34598484Y-35244709D01*
X34588600Y-35242400D01*
X34574941Y-35236984D01*
X34571667Y-35222926D01*
X34566663Y-35202102D01*
X34554675Y-35186884D01*
X34544574Y-35183133D01*
X34539067Y-35190239D01*
X34537801Y-35200066D01*
X34533291Y-35214628D01*
X34523086Y-35215116D01*
X34515840Y-35207249D01*
X34516743Y-35195150D01*
X34523807Y-35187265D01*
X34535377Y-35174567D01*
X34537801Y-35167383D01*
X34544617Y-35158774D01*
X34550203Y-35157733D01*
X34563629Y-35151007D01*
X34571794Y-35140563D01*
X34583239Y-35129010D01*
X34593428Y-35132028D01*
X34597067Y-35145533D01*
X34590279Y-35156322D01*
X34584367Y-35157733D01*
X34573142Y-35164510D01*
X34571667Y-35170433D01*
X34576821Y-35180470D01*
X34581551Y-35181016D01*
X34590107Y-35186830D01*
X34598663Y-35203883D01*
X34600164Y-35208533D01*
X34609297Y-35230973D01*
X34620024Y-35246472D01*
X34621207Y-35247465D01*
X34628744Y-35259810D01*
X34755333Y-35259810D01*
X34746069Y-35248219D01*
X34745004Y-35247716D01*
X34735687Y-35235681D01*
X34732534Y-35213032D01*
X34729674Y-35190708D01*
X34720755Y-35183146D01*
X34720217Y-35183133D01*
X34710331Y-35175496D01*
X34703097Y-35155744D01*
X34699520Y-35128613D01*
X34700271Y-35107921D01*
X34571667Y-35107921D01*
X34564567Y-35114000D01*
X34554734Y-35115400D01*
X34541455Y-35120361D01*
X34537801Y-35136566D01*
X34533625Y-35153240D01*
X34525806Y-35157733D01*
X34512702Y-35164059D01*
X34510250Y-35168316D01*
X34503038Y-35173289D01*
X34492330Y-35167427D01*
X34482653Y-35154806D01*
X34478534Y-35139763D01*
X34472137Y-35126464D01*
X34460808Y-35123866D01*
X34443905Y-35116607D01*
X34438654Y-35106933D01*
X34429124Y-35093741D01*
X34409020Y-35090000D01*
X34388315Y-35085915D01*
X34379387Y-35073066D01*
X34372094Y-35061313D01*
X34355367Y-35056575D01*
X34342986Y-35056133D01*
X34318027Y-35052979D01*
X34305905Y-35042723D01*
X34305304Y-35041316D01*
X34300068Y-35030992D01*
X34294509Y-35035728D01*
X34291277Y-35041316D01*
X34276990Y-35052873D01*
X34262213Y-35056133D01*
X34246016Y-35060091D01*
X34241467Y-35074213D01*
X34241467Y-35074246D01*
X34240024Y-35084790D01*
X34232865Y-35089316D01*
X34215742Y-35089138D01*
X34199134Y-35087345D01*
X34156801Y-35082331D01*
X34156801Y-35111066D01*
X34153427Y-35134476D01*
X34144855Y-35146491D01*
X34133410Y-35144851D01*
X34127967Y-35139092D01*
X34112337Y-35126012D01*
X34100752Y-35120655D01*
X34087986Y-35118758D01*
X34085555Y-35127642D01*
X34086808Y-35135588D01*
X34096129Y-35153222D01*
X34107693Y-35160629D01*
X34118930Y-35167677D01*
X34119053Y-35174097D01*
X34107371Y-35182439D01*
X34094683Y-35180677D01*
X34089067Y-35170433D01*
X34082009Y-35160090D01*
X34072134Y-35157733D01*
X34058343Y-35163027D01*
X34055201Y-35170433D01*
X34048142Y-35180776D01*
X34038267Y-35183133D01*
X34024010Y-35177061D01*
X34021334Y-35167187D01*
X34018828Y-35161966D01*
X33987467Y-35161966D01*
X33980409Y-35172309D01*
X33970534Y-35174666D01*
X33956804Y-35169671D01*
X33953601Y-35162672D01*
X33949039Y-35150028D01*
X33945942Y-35147855D01*
X33938447Y-35138064D01*
X33935339Y-35121316D01*
X33937355Y-35106114D01*
X33941893Y-35101039D01*
X33949851Y-35105960D01*
X33956239Y-35122302D01*
X33956498Y-35123536D01*
X33964133Y-35142539D01*
X33974556Y-35149266D01*
X33985916Y-35155949D01*
X33987467Y-35161966D01*
X34018828Y-35161966D01*
X34014183Y-35152289D01*
X34004401Y-35146813D01*
X33991028Y-35136970D01*
X33987467Y-35117886D01*
X33984148Y-35096492D01*
X33977307Y-35083226D01*
X33974920Y-35077800D01*
X33919734Y-35077800D01*
X33915000Y-35088742D01*
X33911267Y-35090000D01*
X33904455Y-35082887D01*
X33902801Y-35072567D01*
X33906060Y-35060860D01*
X33911267Y-35060366D01*
X33919058Y-35072617D01*
X33919734Y-35077800D01*
X33974920Y-35077800D01*
X33971866Y-35070862D01*
X33976158Y-35064056D01*
X33987752Y-35060707D01*
X33998478Y-35068354D01*
X34011643Y-35076257D01*
X34017409Y-35072568D01*
X34016006Y-35061090D01*
X34007365Y-35051330D01*
X33996668Y-35041469D01*
X33999571Y-35034787D01*
X34006517Y-35030306D01*
X34019639Y-35016430D01*
X34018732Y-35008395D01*
X33994883Y-35008395D01*
X33990408Y-35018611D01*
X33977505Y-35022137D01*
X33956139Y-35018651D01*
X33945134Y-35013981D01*
X33938650Y-35005333D01*
X33894334Y-35005333D01*
X33887476Y-35012845D01*
X33881634Y-35013800D01*
X33870367Y-35009228D01*
X33868934Y-35005333D01*
X33875791Y-34997822D01*
X33881634Y-34996866D01*
X33892901Y-35001438D01*
X33894334Y-35005333D01*
X33938650Y-35005333D01*
X33935944Y-35001724D01*
X33932289Y-34984533D01*
X33934509Y-34969322D01*
X33942624Y-34963000D01*
X33952467Y-34969767D01*
X33953601Y-34975111D01*
X33960805Y-34985623D01*
X33972564Y-34989928D01*
X33988648Y-34996960D01*
X33994883Y-35008395D01*
X34018732Y-35008395D01*
X34018086Y-35002675D01*
X34004401Y-34994413D01*
X33990067Y-34983066D01*
X33987467Y-34972259D01*
X33981991Y-34957545D01*
X33973780Y-34954533D01*
X33964219Y-34950054D01*
X33965197Y-34935483D01*
X33969359Y-34915795D01*
X33970418Y-34905850D01*
X33977972Y-34898172D01*
X33995934Y-34895266D01*
X34016099Y-34891480D01*
X34021334Y-34882566D01*
X34028392Y-34872224D01*
X34038267Y-34869866D01*
X34052058Y-34875160D01*
X34055201Y-34882566D01*
X34062136Y-34893362D01*
X34070017Y-34895382D01*
X34090359Y-34897671D01*
X34103884Y-34900603D01*
X34118426Y-34901585D01*
X34122854Y-34891125D01*
X34122934Y-34887787D01*
X34128403Y-34873331D01*
X34140055Y-34870644D01*
X34150757Y-34881035D01*
X34151396Y-34882566D01*
X34162711Y-34893830D01*
X34169235Y-34895266D01*
X34180630Y-34888607D01*
X34182201Y-34882566D01*
X34187793Y-34873736D01*
X34206331Y-34870097D01*
X34216067Y-34869866D01*
X34238555Y-34872572D01*
X34249273Y-34879082D01*
X34246496Y-34886990D01*
X34232591Y-34892921D01*
X34219591Y-34901817D01*
X34217774Y-34910476D01*
X34225899Y-34924664D01*
X34237891Y-34925739D01*
X34247174Y-34913302D01*
X34247461Y-34912274D01*
X34253712Y-34899566D01*
X34266689Y-34896989D01*
X34278035Y-34898770D01*
X34301495Y-34905110D01*
X34308831Y-34912012D01*
X34300847Y-34920379D01*
X34298547Y-34921722D01*
X34286627Y-34933672D01*
X34284653Y-34946582D01*
X34293017Y-34954191D01*
X34296501Y-34954533D01*
X34307471Y-34947675D01*
X34309201Y-34940756D01*
X34311991Y-34932722D01*
X34322960Y-34929612D01*
X34346002Y-34930539D01*
X34351720Y-34931064D01*
X34376929Y-34934195D01*
X34394305Y-34937673D01*
X34398529Y-34939439D01*
X34402441Y-34949714D01*
X34407263Y-34970564D01*
X34409160Y-34980881D01*
X34414992Y-35004987D01*
X34423180Y-35016019D01*
X34432201Y-35018033D01*
X34444819Y-35013669D01*
X34446784Y-35007450D01*
X34451539Y-34998171D01*
X34457367Y-34996866D01*
X34468607Y-35001665D01*
X34467714Y-35011626D01*
X34457367Y-35019205D01*
X34446058Y-35030490D01*
X34447254Y-35045435D01*
X34454080Y-35052485D01*
X34465016Y-35051714D01*
X34473439Y-35041591D01*
X34473440Y-35029354D01*
X34473242Y-35029021D01*
X34476740Y-35023678D01*
X34486501Y-35022266D01*
X34500988Y-35028001D01*
X34503934Y-35039200D01*
X34509921Y-35053350D01*
X34520867Y-35056133D01*
X34534887Y-35061979D01*
X34537801Y-35073859D01*
X34545060Y-35090762D01*
X34554734Y-35096013D01*
X34568459Y-35102715D01*
X34571667Y-35107921D01*
X34700271Y-35107921D01*
X34700602Y-35098840D01*
X34701320Y-35093865D01*
X34709285Y-35072306D01*
X34724084Y-35049704D01*
X34741458Y-35031330D01*
X34757148Y-35022453D01*
X34759170Y-35022266D01*
X34765048Y-35015165D01*
X34766400Y-35005333D01*
X34771281Y-34991601D01*
X34778113Y-34988400D01*
X34789485Y-34981306D01*
X34794254Y-34971466D01*
X34803165Y-34957701D01*
X34811346Y-34954533D01*
X34823307Y-34947473D01*
X34833568Y-34931250D01*
X34849334Y-34899870D01*
X34869163Y-34870163D01*
X34889995Y-34845864D01*
X34908768Y-34830711D01*
X34918561Y-34827533D01*
X34925195Y-34821479D01*
X34923905Y-34814050D01*
X34925539Y-34801133D01*
X34934916Y-34796334D01*
X34950270Y-34785330D01*
X34950580Y-34784727D01*
X34915071Y-34784727D01*
X34912926Y-34788252D01*
X34900636Y-34793403D01*
X34893646Y-34784341D01*
X34893400Y-34780966D01*
X34897707Y-34769695D01*
X34901367Y-34768266D01*
X34912423Y-34773869D01*
X34915071Y-34784727D01*
X34950580Y-34784727D01*
X34955558Y-34775058D01*
X34963763Y-34762800D01*
X34974783Y-34764005D01*
X34983515Y-34777171D01*
X34985006Y-34783746D01*
X34991419Y-34798301D01*
X34998643Y-34802133D01*
X35006137Y-34810163D01*
X35012439Y-34832543D01*
X35017143Y-34866708D01*
X35019841Y-34910091D01*
X35020327Y-34938729D01*
X35217227Y-34938729D01*
X35219570Y-34937746D01*
X35222417Y-34937600D01*
X35236805Y-34940937D01*
X35240534Y-34946066D01*
X35631007Y-34946066D01*
X35630000Y-34944286D01*
X35637057Y-34935733D01*
X35646934Y-34931586D01*
X35659806Y-34920898D01*
X35662567Y-34910789D01*
X35376000Y-34910789D01*
X35369123Y-34917054D01*
X35363300Y-34917844D01*
X35352023Y-34914023D01*
X35350600Y-34910789D01*
X35357478Y-34904523D01*
X35363300Y-34903733D01*
X35374578Y-34907554D01*
X35376000Y-34910789D01*
X35662567Y-34910789D01*
X35664895Y-34902266D01*
X35662205Y-34883066D01*
X35265934Y-34883066D01*
X35261829Y-34891830D01*
X35257467Y-34891033D01*
X35249323Y-34880209D01*
X35249000Y-34877833D01*
X35255458Y-34870095D01*
X35257467Y-34869866D01*
X35264898Y-34876758D01*
X35265934Y-34883066D01*
X35662205Y-34883066D01*
X35662153Y-34882698D01*
X35651536Y-34869205D01*
X35647351Y-34867522D01*
X35638964Y-34863835D01*
X35634571Y-34855780D01*
X35633841Y-34844466D01*
X35604600Y-34844466D01*
X35597340Y-34850777D01*
X35582934Y-34852933D01*
X35568529Y-34850246D01*
X35566500Y-34844466D01*
X35578442Y-34837354D01*
X35588167Y-34836000D01*
X35601651Y-34839642D01*
X35604600Y-34844466D01*
X35633841Y-34844466D01*
X35633523Y-34839555D01*
X35635175Y-34811358D01*
X35636023Y-34800918D01*
X35639924Y-34769401D01*
X35645374Y-34744351D01*
X35647148Y-34740246D01*
X35400758Y-34740246D01*
X35399875Y-34752140D01*
X35392112Y-34761615D01*
X35390817Y-34762168D01*
X35379060Y-34764081D01*
X35378566Y-34755140D01*
X35380940Y-34748312D01*
X35389209Y-34736376D01*
X35393840Y-34734400D01*
X35400758Y-34740246D01*
X35647148Y-34740246D01*
X35651262Y-34730732D01*
X35651861Y-34730166D01*
X35655560Y-34721700D01*
X35401400Y-34721700D01*
X35397167Y-34725933D01*
X35392934Y-34721700D01*
X35397167Y-34717466D01*
X35401400Y-34721700D01*
X35655560Y-34721700D01*
X35657159Y-34718043D01*
X35661509Y-34694069D01*
X35664604Y-34663316D01*
X35666136Y-34630856D01*
X35665800Y-34601758D01*
X35663287Y-34581094D01*
X35661211Y-34575650D01*
X35648512Y-34567987D01*
X35629501Y-34565067D01*
X35611884Y-34562569D01*
X35604600Y-34556600D01*
X35612053Y-34551045D01*
X35630421Y-34548222D01*
X35634790Y-34548133D01*
X35669301Y-34544068D01*
X35689890Y-34531394D01*
X35695905Y-34514267D01*
X35240534Y-34514267D01*
X35239637Y-34535950D01*
X35234098Y-34545586D01*
X35219645Y-34548057D01*
X35210900Y-34548133D01*
X35188688Y-34550653D01*
X35182282Y-34558828D01*
X35191233Y-34573581D01*
X35196008Y-34578598D01*
X35205007Y-34590808D01*
X35200094Y-34596891D01*
X35200090Y-34596892D01*
X35185461Y-34605573D01*
X35176883Y-34612994D01*
X35166795Y-34620189D01*
X35163739Y-34618588D01*
X35160624Y-34619406D01*
X35155867Y-34628567D01*
X35152155Y-34645265D01*
X35149338Y-34672989D01*
X35148007Y-34705836D01*
X35147996Y-34706883D01*
X35146573Y-34741995D01*
X35142944Y-34761912D01*
X35136810Y-34768266D01*
X35136737Y-34768266D01*
X35124318Y-34774745D01*
X35115499Y-34785200D01*
X35104052Y-34798441D01*
X35096529Y-34802133D01*
X35089708Y-34795041D01*
X35088134Y-34785200D01*
X35093428Y-34771409D01*
X35100834Y-34768266D01*
X35111177Y-34761208D01*
X35113534Y-34751333D01*
X35108240Y-34737543D01*
X35100834Y-34734400D01*
X35090422Y-34727387D01*
X35088134Y-34718055D01*
X35087848Y-34717466D01*
X35011934Y-34717466D01*
X35005491Y-34725687D01*
X35003467Y-34725933D01*
X34995247Y-34719490D01*
X34995000Y-34717466D01*
X35001443Y-34709246D01*
X35003467Y-34709000D01*
X35011688Y-34715443D01*
X35011934Y-34717466D01*
X35087848Y-34717466D01*
X35080995Y-34703377D01*
X35069084Y-34699005D01*
X35055111Y-34694565D01*
X35052150Y-34689950D01*
X35053671Y-34677613D01*
X35054267Y-34658200D01*
X35057881Y-34638416D01*
X35066294Y-34632800D01*
X35076344Y-34625469D01*
X35083811Y-34607802D01*
X35083889Y-34607450D01*
X35091094Y-34587334D01*
X35100017Y-34575700D01*
X35111968Y-34562607D01*
X35116023Y-34554483D01*
X35126710Y-34541945D01*
X35134435Y-34539667D01*
X35145834Y-34533220D01*
X35147400Y-34527387D01*
X35153994Y-34513023D01*
X35160402Y-34507832D01*
X35171961Y-34494778D01*
X35179913Y-34476213D01*
X35188887Y-34456031D01*
X35199764Y-34448387D01*
X35209344Y-34454623D01*
X35212447Y-34462574D01*
X35220848Y-34476804D01*
X35228821Y-34480400D01*
X35237267Y-34487513D01*
X35240480Y-34509591D01*
X35240534Y-34514267D01*
X35695905Y-34514267D01*
X35697618Y-34509392D01*
X35697734Y-34505502D01*
X35695415Y-34487795D01*
X35689838Y-34480400D01*
X35689818Y-34480400D01*
X35676793Y-34477602D01*
X35658068Y-34471301D01*
X35642262Y-34464321D01*
X35642050Y-34463467D01*
X35562267Y-34463467D01*
X35555410Y-34470978D01*
X35549567Y-34471933D01*
X35538300Y-34467361D01*
X35536867Y-34463467D01*
X35543725Y-34455955D01*
X35549567Y-34455000D01*
X35560834Y-34459572D01*
X35562267Y-34463467D01*
X35642050Y-34463467D01*
X35640794Y-34458415D01*
X35650139Y-34450521D01*
X35661907Y-34433429D01*
X35661727Y-34430137D01*
X35465381Y-34430137D01*
X35457592Y-34439791D01*
X35438237Y-34444889D01*
X35419425Y-34449186D01*
X35410082Y-34460863D01*
X35406104Y-34476639D01*
X35398410Y-34498414D01*
X35388484Y-34506221D01*
X35379911Y-34499861D01*
X35376277Y-34479137D01*
X35376282Y-34478283D01*
X35382982Y-34446270D01*
X35400580Y-34423970D01*
X35426433Y-34414171D01*
X35437077Y-34414224D01*
X35458492Y-34420257D01*
X35465381Y-34430137D01*
X35661727Y-34430137D01*
X35661186Y-34420261D01*
X35658885Y-34393385D01*
X35664510Y-34369058D01*
X35676315Y-34353198D01*
X35681709Y-34350709D01*
X35694979Y-34341723D01*
X35697734Y-34334013D01*
X35699712Y-34330663D01*
X35562851Y-34330663D01*
X35559307Y-34344379D01*
X35556623Y-34347755D01*
X35544447Y-34353165D01*
X35537424Y-34343646D01*
X35536867Y-34337372D01*
X35542760Y-34321597D01*
X35549567Y-34316471D01*
X35559062Y-34318956D01*
X35562851Y-34330663D01*
X35699712Y-34330663D01*
X35704834Y-34321991D01*
X35714667Y-34317080D01*
X35729001Y-34305733D01*
X35731601Y-34294926D01*
X35735883Y-34280079D01*
X35745075Y-34278791D01*
X35753691Y-34291250D01*
X35754547Y-34294133D01*
X35758588Y-34307985D01*
X35760105Y-34311497D01*
X35768358Y-34312611D01*
X35787935Y-34314932D01*
X35799334Y-34316235D01*
X35831896Y-34320662D01*
X35849979Y-34325348D01*
X35856023Y-34331177D01*
X35854505Y-34336243D01*
X35858545Y-34342634D01*
X35875330Y-34348497D01*
X35883602Y-34350085D01*
X35905303Y-34355931D01*
X35917066Y-34363830D01*
X35917867Y-34366329D01*
X35925940Y-34373921D01*
X35948888Y-34379060D01*
X35984804Y-34381556D01*
X36031781Y-34381215D01*
X36054920Y-34380148D01*
X36088073Y-34377171D01*
X36106553Y-34372513D01*
X36112586Y-34365595D01*
X36112601Y-34365144D01*
X36119656Y-34355620D01*
X36129534Y-34353400D01*
X36143324Y-34358694D01*
X36146467Y-34366100D01*
X36150648Y-34373759D01*
X36165317Y-34377702D01*
X36193034Y-34378800D01*
X36220717Y-34377774D01*
X36235057Y-34374020D01*
X36239556Y-34366524D01*
X36239600Y-34365307D01*
X36246681Y-34352307D01*
X36255751Y-34347591D01*
X36271086Y-34336594D01*
X36276348Y-34326365D01*
X36283239Y-34314982D01*
X36289406Y-34314685D01*
X36299419Y-34312506D01*
X36307207Y-34302837D01*
X36323951Y-34288452D01*
X36340511Y-34285667D01*
X36361132Y-34280943D01*
X36368895Y-34269341D01*
X36369396Y-34268733D01*
X35562267Y-34268733D01*
X35556973Y-34282524D01*
X35549567Y-34285667D01*
X35539224Y-34278608D01*
X35536867Y-34268733D01*
X35542161Y-34254943D01*
X35549567Y-34251800D01*
X35559910Y-34258858D01*
X35562267Y-34268733D01*
X36369396Y-34268733D01*
X36380231Y-34255611D01*
X36400980Y-34250291D01*
X36422289Y-34245153D01*
X36431696Y-34236854D01*
X36427507Y-34228217D01*
X36416855Y-34223804D01*
X36404014Y-34215030D01*
X36404659Y-34203201D01*
X36418091Y-34194509D01*
X36420219Y-34194029D01*
X36432303Y-34197777D01*
X36434334Y-34205233D01*
X36440410Y-34215947D01*
X36447481Y-34216437D01*
X36458384Y-34210145D01*
X36459458Y-34206180D01*
X36465217Y-34194781D01*
X36483213Y-34186717D01*
X36504184Y-34184196D01*
X36521699Y-34180951D01*
X36526705Y-34170661D01*
X36375067Y-34170661D01*
X36368165Y-34182704D01*
X36351700Y-34188810D01*
X36332033Y-34188796D01*
X36315528Y-34182482D01*
X36308830Y-34172552D01*
X36309155Y-34170796D01*
X36273467Y-34170796D01*
X36266416Y-34182868D01*
X36256534Y-34188300D01*
X36242805Y-34197708D01*
X36239600Y-34205804D01*
X36232811Y-34216531D01*
X36226900Y-34217933D01*
X36215739Y-34211135D01*
X36214200Y-34204967D01*
X36221050Y-34190840D01*
X36226900Y-34187128D01*
X36238153Y-34176468D01*
X36239600Y-34170461D01*
X36239973Y-34169955D01*
X36112601Y-34169955D01*
X36107265Y-34186085D01*
X36095613Y-34190617D01*
X36084180Y-34182980D01*
X36080230Y-34172782D01*
X36083821Y-34161121D01*
X36095046Y-34158667D01*
X36109117Y-34163226D01*
X36112601Y-34169955D01*
X36239973Y-34169955D01*
X36246655Y-34160896D01*
X36256534Y-34158667D01*
X36270262Y-34163717D01*
X36273467Y-34170796D01*
X36309155Y-34170796D01*
X36310516Y-34163468D01*
X36322746Y-34159388D01*
X36340580Y-34158667D01*
X36364936Y-34160922D01*
X36374698Y-34168103D01*
X36375067Y-34170661D01*
X36526705Y-34170661D01*
X36527371Y-34169294D01*
X36527467Y-34166341D01*
X36534526Y-34149579D01*
X36543921Y-34144312D01*
X36551988Y-34137719D01*
X36431350Y-34137719D01*
X36430556Y-34149462D01*
X36418938Y-34157854D01*
X36406220Y-34156449D01*
X36400467Y-34146466D01*
X36406108Y-34131736D01*
X36409672Y-34128577D01*
X36422352Y-34128195D01*
X36431350Y-34137719D01*
X36551988Y-34137719D01*
X36558234Y-34132615D01*
X36562971Y-34117857D01*
X36569609Y-34100249D01*
X36587340Y-34089672D01*
X36593568Y-34087722D01*
X36615295Y-34077428D01*
X36619708Y-34069767D01*
X36612134Y-34069767D01*
X36607900Y-34074000D01*
X36603667Y-34069767D01*
X36607900Y-34065533D01*
X36612134Y-34069767D01*
X36619708Y-34069767D01*
X36625421Y-34059853D01*
X36626377Y-34055703D01*
X36630002Y-34048600D01*
X36459734Y-34048600D01*
X36453291Y-34056820D01*
X36451267Y-34057067D01*
X36443047Y-34050624D01*
X36442800Y-34048600D01*
X36443358Y-34047888D01*
X36399422Y-34047888D01*
X36393142Y-34055400D01*
X36375417Y-34057051D01*
X36370578Y-34057067D01*
X36348122Y-34059487D01*
X36337305Y-34068279D01*
X36335187Y-34074000D01*
X36324453Y-34086584D01*
X36305312Y-34091215D01*
X36284425Y-34087667D01*
X36268815Y-34076229D01*
X36259805Y-34066388D01*
X36250965Y-34068477D01*
X36241815Y-34076229D01*
X36223146Y-34085417D01*
X36195439Y-34090664D01*
X36164147Y-34091973D01*
X36134721Y-34089350D01*
X36112615Y-34082799D01*
X36104555Y-34076117D01*
X36096660Y-34066084D01*
X36090011Y-34070841D01*
X36087517Y-34074800D01*
X36074325Y-34084123D01*
X36047530Y-34088998D01*
X36032483Y-34089832D01*
X36005557Y-34090053D01*
X35991476Y-34087556D01*
X35986209Y-34080995D01*
X35985880Y-34077316D01*
X35951976Y-34077316D01*
X35944250Y-34088598D01*
X35934801Y-34090933D01*
X35920745Y-34096568D01*
X35917867Y-34104426D01*
X35924975Y-34117257D01*
X35934801Y-34122347D01*
X35949351Y-34132105D01*
X35950347Y-34146689D01*
X35945599Y-34153512D01*
X35933356Y-34156566D01*
X35922316Y-34155039D01*
X35903110Y-34151124D01*
X35894584Y-34150315D01*
X35885002Y-34143457D01*
X35884001Y-34138487D01*
X35876906Y-34127121D01*
X35867032Y-34122337D01*
X35854063Y-34114623D01*
X35854540Y-34104518D01*
X35866022Y-34095488D01*
X35886068Y-34091002D01*
X35889140Y-34090933D01*
X35911116Y-34087726D01*
X35917867Y-34079139D01*
X35923997Y-34067057D01*
X35936774Y-34060676D01*
X35946673Y-34063294D01*
X35951976Y-34077316D01*
X35985880Y-34077316D01*
X35985601Y-34074215D01*
X35991479Y-34059917D01*
X36002534Y-34057067D01*
X36016589Y-34051432D01*
X36019467Y-34043574D01*
X36018734Y-34042250D01*
X35789255Y-34042250D01*
X35786310Y-34054251D01*
X35773934Y-34057067D01*
X35760038Y-34052781D01*
X35758612Y-34042250D01*
X35766961Y-34029654D01*
X35773934Y-34027433D01*
X35785889Y-34034472D01*
X35789255Y-34042250D01*
X36018734Y-34042250D01*
X36012359Y-34030743D01*
X36002534Y-34025653D01*
X35988774Y-34017148D01*
X35985601Y-34009512D01*
X35992656Y-34000014D01*
X36002534Y-33997800D01*
X36016324Y-34003094D01*
X36019467Y-34010500D01*
X36027295Y-34020791D01*
X36046984Y-34024648D01*
X36070311Y-34026238D01*
X36087201Y-34027981D01*
X36105128Y-34029737D01*
X36123184Y-34030767D01*
X36141596Y-34035603D01*
X36146467Y-34044367D01*
X36153244Y-34055591D01*
X36159167Y-34057067D01*
X36170402Y-34050722D01*
X36171867Y-34045209D01*
X36176047Y-34039100D01*
X36190246Y-34034852D01*
X36216950Y-34031982D01*
X36247911Y-34030392D01*
X36285130Y-34028474D01*
X36309244Y-34025615D01*
X36324082Y-34020897D01*
X36333472Y-34013405D01*
X36336783Y-34009108D01*
X36350419Y-33996223D01*
X36368614Y-33995916D01*
X36372923Y-33996966D01*
X36390483Y-34005652D01*
X36397955Y-34022962D01*
X36398887Y-34030108D01*
X36399422Y-34047888D01*
X36443358Y-34047888D01*
X36449243Y-34040379D01*
X36451267Y-34040133D01*
X36459488Y-34046576D01*
X36459734Y-34048600D01*
X36630002Y-34048600D01*
X36635493Y-34037845D01*
X36650068Y-34030989D01*
X36664580Y-34037028D01*
X36667976Y-34041441D01*
X36668974Y-34047235D01*
X36664242Y-34045175D01*
X36655534Y-34044698D01*
X36654467Y-34048100D01*
X36661317Y-34056052D01*
X36667167Y-34057067D01*
X36678409Y-34052023D01*
X36677024Y-34039263D01*
X36667089Y-34026146D01*
X36658603Y-34010913D01*
X36665536Y-34000556D01*
X36680367Y-33997800D01*
X36694161Y-33991571D01*
X36696800Y-33980867D01*
X36700922Y-33966298D01*
X36712396Y-33966483D01*
X36724877Y-33976286D01*
X36741514Y-33982710D01*
X36761186Y-33977972D01*
X36777355Y-33964877D01*
X36783254Y-33951233D01*
X36792833Y-33936485D01*
X36808984Y-33931621D01*
X36826398Y-33925728D01*
X36832267Y-33916804D01*
X36837022Y-33905903D01*
X36840734Y-33904667D01*
X36847749Y-33897621D01*
X36848778Y-33891313D01*
X36812590Y-33891313D01*
X36803339Y-33896200D01*
X36791676Y-33889383D01*
X36789934Y-33882794D01*
X36794857Y-33872920D01*
X36799988Y-33872740D01*
X36811169Y-33881167D01*
X36812590Y-33891313D01*
X36848778Y-33891313D01*
X36849201Y-33888721D01*
X36856352Y-33873822D01*
X36866134Y-33868347D01*
X36878362Y-33860371D01*
X36882870Y-33842144D01*
X36883067Y-33834480D01*
X36885815Y-33812502D01*
X36895622Y-33802102D01*
X36900000Y-33800613D01*
X36914322Y-33791163D01*
X36915078Y-33778054D01*
X36902427Y-33767550D01*
X36899149Y-33766524D01*
X36887374Y-33759504D01*
X36886948Y-33752836D01*
X36896695Y-33746397D01*
X36910768Y-33743868D01*
X36921632Y-33745806D01*
X36923284Y-33750150D01*
X36927477Y-33758162D01*
X36929634Y-33759064D01*
X36938389Y-33754613D01*
X36940838Y-33748480D01*
X36936845Y-33737133D01*
X36930520Y-33735333D01*
X36921225Y-33731185D01*
X36923208Y-33721796D01*
X36933957Y-33711747D01*
X36946334Y-33706515D01*
X36964949Y-33693831D01*
X36975204Y-33675286D01*
X36980232Y-33656869D01*
X36980173Y-33656718D01*
X36949251Y-33656718D01*
X36948616Y-33664008D01*
X36947051Y-33666817D01*
X36935529Y-33670801D01*
X36907819Y-33672247D01*
X36864480Y-33671137D01*
X36848389Y-33670295D01*
X36807652Y-33668114D01*
X36780724Y-33667411D01*
X36764514Y-33668595D01*
X36755930Y-33672072D01*
X36751882Y-33678250D01*
X36750399Y-33683214D01*
X36742652Y-33696366D01*
X36725490Y-33701208D01*
X36716980Y-33701467D01*
X36688334Y-33701467D01*
X36688334Y-33752267D01*
X36687204Y-33782434D01*
X36683398Y-33798473D01*
X36676540Y-33803067D01*
X36663723Y-33809858D01*
X36656499Y-33830917D01*
X36654467Y-33863026D01*
X36652154Y-33886605D01*
X36644705Y-33895876D01*
X36642151Y-33896200D01*
X36631940Y-33903966D01*
X36624541Y-33924468D01*
X36624275Y-33925833D01*
X36616947Y-33947200D01*
X36606482Y-33955460D01*
X36606166Y-33955467D01*
X36593950Y-33962540D01*
X36589392Y-33971617D01*
X36578345Y-33987188D01*
X36569018Y-33991991D01*
X36555674Y-34001396D01*
X36552867Y-34009707D01*
X36548250Y-34021202D01*
X36539603Y-34021944D01*
X36534853Y-34012617D01*
X36533094Y-33995765D01*
X36531808Y-33983660D01*
X36536141Y-33966585D01*
X36544982Y-33961328D01*
X36557846Y-33949461D01*
X36559472Y-33942767D01*
X36519000Y-33942767D01*
X36514767Y-33947000D01*
X36510534Y-33942767D01*
X36514767Y-33938533D01*
X36519000Y-33942767D01*
X36559472Y-33942767D01*
X36562843Y-33928901D01*
X36568461Y-33907159D01*
X36578267Y-33900433D01*
X36588558Y-33892509D01*
X36593543Y-33869551D01*
X36598796Y-33845825D01*
X36610559Y-33834982D01*
X36612593Y-33834360D01*
X36624568Y-33826171D01*
X36628918Y-33807286D01*
X36629067Y-33800613D01*
X36631815Y-33778635D01*
X36641622Y-33768235D01*
X36646000Y-33766747D01*
X36659748Y-33758950D01*
X36662934Y-33752267D01*
X36655857Y-33742255D01*
X36646000Y-33737786D01*
X36632275Y-33731085D01*
X36629067Y-33725879D01*
X36622532Y-33718681D01*
X36620101Y-33718400D01*
X36615044Y-33723587D01*
X36616367Y-33726867D01*
X36612790Y-33732628D01*
X36595541Y-33735271D01*
X36591467Y-33735333D01*
X36569352Y-33732673D01*
X36561426Y-33724135D01*
X36561334Y-33722633D01*
X36554275Y-33712290D01*
X36544400Y-33709933D01*
X36530610Y-33715227D01*
X36527467Y-33722633D01*
X36520437Y-33732981D01*
X36510800Y-33735333D01*
X36499871Y-33730178D01*
X36500361Y-33717522D01*
X36511462Y-33701575D01*
X36518476Y-33695386D01*
X36527287Y-33687260D01*
X36522202Y-33684931D01*
X36518577Y-33684802D01*
X36501018Y-33690166D01*
X36495914Y-33694073D01*
X36480130Y-33699534D01*
X36462912Y-33697725D01*
X36448541Y-33691820D01*
X36449137Y-33685850D01*
X36449194Y-33685814D01*
X36456492Y-33674289D01*
X36463021Y-33652694D01*
X36464651Y-33644063D01*
X36469287Y-33621606D01*
X36476531Y-33611294D01*
X36490825Y-33608439D01*
X36498495Y-33608333D01*
X36499829Y-33608075D01*
X36270761Y-33608075D01*
X36270486Y-33630598D01*
X36269256Y-33668013D01*
X36266803Y-33690930D01*
X36262712Y-33701762D01*
X36257921Y-33703340D01*
X36247061Y-33708360D01*
X36242117Y-33718157D01*
X36233541Y-33732168D01*
X36222379Y-33734274D01*
X36214837Y-33724422D01*
X36214200Y-33718400D01*
X36208155Y-33704185D01*
X36197778Y-33701467D01*
X36186206Y-33697557D01*
X36180352Y-33683095D01*
X36178728Y-33669787D01*
X36172972Y-33647579D01*
X36162478Y-33635077D01*
X36150834Y-33634150D01*
X36141625Y-33646667D01*
X36140646Y-33649930D01*
X36132536Y-33662866D01*
X36114348Y-33667448D01*
X36107950Y-33667600D01*
X36085836Y-33670981D01*
X36075180Y-33682598D01*
X36074501Y-33684533D01*
X36066899Y-33698216D01*
X36061230Y-33701467D01*
X36054813Y-33694370D01*
X36053334Y-33684533D01*
X36047288Y-33670318D01*
X36036912Y-33667600D01*
X36025352Y-33663702D01*
X36019499Y-33649272D01*
X36017862Y-33635850D01*
X36014842Y-33615083D01*
X36007828Y-33606600D01*
X35992823Y-33605753D01*
X35992031Y-33605810D01*
X35969315Y-33601299D01*
X35959983Y-33590993D01*
X35945968Y-33577637D01*
X35934503Y-33574467D01*
X35920943Y-33569101D01*
X35917867Y-33561767D01*
X35925000Y-33551443D01*
X35935593Y-33549067D01*
X35952496Y-33541807D01*
X35957747Y-33532133D01*
X35966252Y-33518373D01*
X35973888Y-33515200D01*
X35984474Y-33508484D01*
X35985601Y-33503487D01*
X35992694Y-33492115D01*
X36002534Y-33487347D01*
X36014569Y-33479656D01*
X36019179Y-33462045D01*
X36019467Y-33452492D01*
X36021828Y-33430745D01*
X36029790Y-33422405D01*
X36032960Y-33422066D01*
X36045791Y-33414959D01*
X36050881Y-33405133D01*
X36059724Y-33391369D01*
X36067814Y-33388200D01*
X36079836Y-33381099D01*
X36084747Y-33371266D01*
X36090574Y-33360695D01*
X36103879Y-33355637D01*
X36129316Y-33354333D01*
X36129534Y-33354333D01*
X36155066Y-33355618D01*
X36168436Y-33360645D01*
X36174296Y-33371175D01*
X36174320Y-33371266D01*
X36183585Y-33385036D01*
X36192241Y-33388200D01*
X36201885Y-33393524D01*
X36205584Y-33411478D01*
X36205734Y-33418626D01*
X36208263Y-33440912D01*
X36217393Y-33451583D01*
X36222667Y-33453480D01*
X36232791Y-33458831D01*
X36237903Y-33470991D01*
X36239549Y-33494433D01*
X36239600Y-33502500D01*
X36240697Y-33529635D01*
X36244941Y-33544265D01*
X36253760Y-33550732D01*
X36255669Y-33551294D01*
X36263374Y-33554987D01*
X36268032Y-33563405D01*
X36270281Y-33579963D01*
X36270761Y-33608075D01*
X36499829Y-33608075D01*
X36523801Y-33603439D01*
X36535043Y-33593517D01*
X36543887Y-33583665D01*
X36556272Y-33586671D01*
X36560749Y-33589283D01*
X36578867Y-33597918D01*
X36590495Y-33599110D01*
X36591639Y-33592580D01*
X36590967Y-33591400D01*
X36595605Y-33586576D01*
X36615492Y-33583681D01*
X36641267Y-33582933D01*
X36674140Y-33584143D01*
X36691387Y-33587917D01*
X36694684Y-33593014D01*
X36699734Y-33602987D01*
X36707384Y-33606334D01*
X36719969Y-33603576D01*
X36722200Y-33596254D01*
X36727119Y-33587139D01*
X36744008Y-33583286D01*
X36756067Y-33582933D01*
X36779616Y-33585030D01*
X36789319Y-33591982D01*
X36789934Y-33595633D01*
X36797077Y-33605954D01*
X36807773Y-33608333D01*
X36820762Y-33604606D01*
X36820739Y-33595633D01*
X36822040Y-33584710D01*
X36828300Y-33582933D01*
X36837945Y-33589323D01*
X36840384Y-33603025D01*
X36835198Y-33615837D01*
X36830151Y-33619168D01*
X36822606Y-33625073D01*
X36831123Y-33631223D01*
X36854840Y-33637272D01*
X36887300Y-33642200D01*
X36921267Y-33646915D01*
X36941026Y-33651387D01*
X36949251Y-33656718D01*
X36980173Y-33656718D01*
X36976827Y-33648201D01*
X36967583Y-33644614D01*
X36952896Y-33636584D01*
X36953023Y-33626333D01*
X36966700Y-33616958D01*
X36980434Y-33613125D01*
X37001495Y-33605946D01*
X37010043Y-33595821D01*
X37010067Y-33595250D01*
X37017443Y-33585446D01*
X37031234Y-33582933D01*
X37053193Y-33577043D01*
X37069188Y-33566145D01*
X37090182Y-33553014D01*
X37111522Y-33547411D01*
X37130123Y-33543239D01*
X37136727Y-33532152D01*
X37137067Y-33526365D01*
X37133700Y-33512505D01*
X37124367Y-33512138D01*
X37113529Y-33510720D01*
X37111667Y-33503406D01*
X37117420Y-33492208D01*
X37129662Y-33490736D01*
X37140867Y-33499209D01*
X37142472Y-33502500D01*
X37151811Y-33510708D01*
X37173504Y-33514626D01*
X37193006Y-33515200D01*
X37219520Y-33514479D01*
X37233214Y-33511260D01*
X37238177Y-33503953D01*
X37238667Y-33497474D01*
X37231408Y-33480571D01*
X37221734Y-33475320D01*
X37207132Y-33469229D01*
X37208272Y-33460874D01*
X37219617Y-33451199D01*
X37229910Y-33442226D01*
X37234911Y-33431051D01*
X37237226Y-33411003D01*
X37237609Y-33405133D01*
X37244997Y-33390847D01*
X37255600Y-33388200D01*
X37266801Y-33385267D01*
X37271664Y-33373497D01*
X37271830Y-33370000D01*
X37136737Y-33370000D01*
X37131957Y-33384059D01*
X37124867Y-33388200D01*
X37111473Y-33384407D01*
X37108928Y-33381850D01*
X37108141Y-33369533D01*
X37113590Y-33354273D01*
X37121904Y-33342993D01*
X37128529Y-33341589D01*
X37135797Y-33353266D01*
X37136737Y-33370000D01*
X37271830Y-33370000D01*
X37272534Y-33355274D01*
X37274135Y-33333411D01*
X37280156Y-33324372D01*
X37287346Y-33323524D01*
X37300640Y-33317397D01*
X37304869Y-33305650D01*
X37310058Y-33292360D01*
X37323870Y-33287151D01*
X37336623Y-33286600D01*
X37356093Y-33285250D01*
X37364079Y-33277741D01*
X37365664Y-33258885D01*
X37365667Y-33256966D01*
X37368668Y-33234579D01*
X37377797Y-33227333D01*
X37389869Y-33220282D01*
X37395300Y-33210400D01*
X37405049Y-33196663D01*
X37413597Y-33193466D01*
X37425960Y-33186363D01*
X37430947Y-33176533D01*
X37439452Y-33162773D01*
X37447088Y-33159600D01*
X37455996Y-33151741D01*
X37458800Y-33129966D01*
X37454853Y-33109459D01*
X37445531Y-33099544D01*
X37434616Y-33102301D01*
X37427996Y-33113033D01*
X37417461Y-33124545D01*
X37404323Y-33122386D01*
X37395438Y-33109232D01*
X37386145Y-33097382D01*
X37377934Y-33097438D01*
X37366780Y-33107612D01*
X37368307Y-33119488D01*
X37381299Y-33125701D01*
X37382601Y-33125733D01*
X37396751Y-33131720D01*
X37399534Y-33142666D01*
X37393899Y-33156722D01*
X37386041Y-33159600D01*
X37373210Y-33166708D01*
X37368120Y-33176533D01*
X37359277Y-33190298D01*
X37351187Y-33193467D01*
X37339165Y-33200567D01*
X37334254Y-33210400D01*
X37324344Y-33224177D01*
X37314820Y-33227333D01*
X37302512Y-33233776D01*
X37300991Y-33242150D01*
X37295911Y-33254294D01*
X37287609Y-33255834D01*
X37273400Y-33261850D01*
X37267988Y-33270650D01*
X37258460Y-33283848D01*
X37250797Y-33286600D01*
X37239911Y-33291985D01*
X37238667Y-33296212D01*
X37232945Y-33308015D01*
X37218977Y-33324035D01*
X37217064Y-33325846D01*
X37198673Y-33337786D01*
X37177191Y-33344947D01*
X37157193Y-33346932D01*
X37143257Y-33343345D01*
X37139956Y-33333792D01*
X37140395Y-33332474D01*
X37144888Y-33318681D01*
X37145534Y-33315041D01*
X37151107Y-33314794D01*
X37154908Y-33316794D01*
X37159992Y-33315712D01*
X37157692Y-33301137D01*
X37147880Y-33272265D01*
X37147699Y-33271783D01*
X37150826Y-33262760D01*
X37157328Y-33261200D01*
X37168633Y-33254122D01*
X37170934Y-33244001D01*
X37176451Y-33227720D01*
X37183634Y-33221928D01*
X37193599Y-33212841D01*
X37195030Y-33205934D01*
X37005802Y-33205934D01*
X37000780Y-33215622D01*
X36989828Y-33226219D01*
X36985280Y-33221584D01*
X36984667Y-33210666D01*
X36988704Y-33198563D01*
X36997583Y-33198954D01*
X37005802Y-33205934D01*
X37195030Y-33205934D01*
X37196077Y-33200886D01*
X37189935Y-33193674D01*
X37187867Y-33193466D01*
X37180988Y-33186375D01*
X37179400Y-33176533D01*
X37184856Y-33162611D01*
X37192455Y-33159600D01*
X37207845Y-33154168D01*
X37223684Y-33142667D01*
X37242057Y-33130197D01*
X37257197Y-33125733D01*
X37269936Y-33120542D01*
X37271207Y-33108635D01*
X37267260Y-33103422D01*
X37236759Y-33103422D01*
X37229903Y-33117823D01*
X37220219Y-33132124D01*
X37214837Y-33130101D01*
X37213817Y-33119008D01*
X37007738Y-33119008D01*
X36993279Y-33128148D01*
X36993134Y-33128186D01*
X36979364Y-33137451D01*
X36976201Y-33146107D01*
X36969764Y-33157833D01*
X36963501Y-33159600D01*
X36957509Y-33162447D01*
X36953680Y-33172861D01*
X36951577Y-33193652D01*
X36950766Y-33227628D01*
X36950707Y-33242150D01*
X36949553Y-33302562D01*
X36946202Y-33346611D01*
X36940592Y-33374731D01*
X36932660Y-33387359D01*
X36929468Y-33388200D01*
X36920960Y-33395602D01*
X36914092Y-33413739D01*
X36913434Y-33416900D01*
X36903761Y-33441327D01*
X36890473Y-33450197D01*
X36878836Y-33457222D01*
X36878482Y-33463830D01*
X36874534Y-33469538D01*
X36854019Y-33472459D01*
X36836208Y-33472866D01*
X36808216Y-33473746D01*
X36792776Y-33477319D01*
X36785554Y-33484989D01*
X36783920Y-33489800D01*
X36779509Y-33498906D01*
X36769620Y-33504037D01*
X36750289Y-33506282D01*
X36722200Y-33506733D01*
X36691233Y-33506133D01*
X36673212Y-33503607D01*
X36664170Y-33498067D01*
X36660481Y-33489800D01*
X36651472Y-33476915D01*
X36631151Y-33472877D01*
X36629594Y-33472866D01*
X36608210Y-33468959D01*
X36598262Y-33460166D01*
X36587602Y-33448914D01*
X36581595Y-33447466D01*
X36572030Y-33440412D01*
X36569800Y-33430533D01*
X36563728Y-33416276D01*
X36553855Y-33413600D01*
X36538956Y-33406449D01*
X36533481Y-33396666D01*
X36524216Y-33382897D01*
X36515560Y-33379733D01*
X36503843Y-33372912D01*
X36502067Y-33366241D01*
X36494959Y-33353410D01*
X36485134Y-33348320D01*
X36477330Y-33344880D01*
X36472368Y-33337320D01*
X36469614Y-33322373D01*
X36469462Y-33319055D01*
X36265000Y-33319055D01*
X36262821Y-33337493D01*
X36257532Y-33345826D01*
X36257095Y-33345866D01*
X36252691Y-33338757D01*
X36253376Y-33322774D01*
X36258382Y-33301884D01*
X36262423Y-33297087D01*
X36264732Y-33308629D01*
X36265000Y-33319055D01*
X36469462Y-33319055D01*
X36468436Y-33296773D01*
X36468200Y-33260918D01*
X36467364Y-33217676D01*
X36466837Y-33212092D01*
X36270588Y-33212092D01*
X36267558Y-33235957D01*
X36260528Y-33254241D01*
X36251242Y-33261200D01*
X36240942Y-33268000D01*
X36239600Y-33273900D01*
X36233868Y-33284579D01*
X36221401Y-33285370D01*
X36209291Y-33276156D01*
X36208222Y-33274413D01*
X36194714Y-33265835D01*
X36167490Y-33260866D01*
X36158088Y-33260249D01*
X36114774Y-33258273D01*
X36119981Y-33239412D01*
X35917867Y-33239412D01*
X35910745Y-33250404D01*
X35900228Y-33252733D01*
X35887325Y-33248688D01*
X35886113Y-33242150D01*
X35895224Y-33231607D01*
X35908026Y-33229012D01*
X35917012Y-33235012D01*
X35917867Y-33239412D01*
X36119981Y-33239412D01*
X36123053Y-33228286D01*
X36126931Y-33206166D01*
X36011001Y-33206166D01*
X36004575Y-33215560D01*
X35984066Y-33218844D01*
X35981367Y-33218866D01*
X35961777Y-33216987D01*
X35951989Y-33212366D01*
X35951734Y-33211387D01*
X35959037Y-33203937D01*
X35976469Y-33197218D01*
X35997313Y-33193686D01*
X36000417Y-33193582D01*
X36009785Y-33200289D01*
X36011001Y-33206166D01*
X36126931Y-33206166D01*
X36127049Y-33205497D01*
X36123272Y-33195613D01*
X36123197Y-33195588D01*
X36118278Y-33186334D01*
X36118788Y-33173383D01*
X36122197Y-33162136D01*
X36129792Y-33157380D01*
X36146175Y-33157868D01*
X36165567Y-33160696D01*
X36191484Y-33166568D01*
X36210160Y-33174052D01*
X36215291Y-33178297D01*
X36223338Y-33184774D01*
X36232475Y-33178579D01*
X36249410Y-33168649D01*
X36262499Y-33175018D01*
X36268270Y-33188406D01*
X36270588Y-33212092D01*
X36466837Y-33212092D01*
X36464732Y-33189792D01*
X36460124Y-33175767D01*
X36457617Y-33173674D01*
X36456908Y-33170491D01*
X36469905Y-33168747D01*
X36470317Y-33168735D01*
X36487541Y-33165304D01*
X36493335Y-33153264D01*
X36493600Y-33146900D01*
X36489184Y-33129876D01*
X36480900Y-33125733D01*
X36470558Y-33118675D01*
X36470222Y-33117266D01*
X36138001Y-33117266D01*
X36134455Y-33131025D01*
X36129534Y-33134200D01*
X36122655Y-33127109D01*
X36121067Y-33117266D01*
X36124613Y-33103508D01*
X36129534Y-33100333D01*
X36136413Y-33107424D01*
X36138001Y-33117266D01*
X36470222Y-33117266D01*
X36468200Y-33108800D01*
X36472639Y-33095058D01*
X36478834Y-33091866D01*
X36490842Y-33084346D01*
X36500594Y-33065563D01*
X36506077Y-33041189D01*
X36505343Y-33017231D01*
X36503803Y-32996655D01*
X36510971Y-32986519D01*
X36513735Y-32985258D01*
X36523275Y-32975218D01*
X36527226Y-32952806D01*
X36527467Y-32942173D01*
X36528558Y-32918689D01*
X36532900Y-32908271D01*
X36542096Y-32907133D01*
X36542284Y-32907168D01*
X36554942Y-32917617D01*
X36559963Y-32935089D01*
X36568061Y-32958917D01*
X36583449Y-32980824D01*
X36593131Y-32989518D01*
X36603839Y-32995386D01*
X36618972Y-32999015D01*
X36641931Y-33000991D01*
X36676114Y-33001900D01*
X36707472Y-33002207D01*
X36751275Y-33002778D01*
X36780948Y-33004003D01*
X36799292Y-33006293D01*
X36809110Y-33010060D01*
X36813203Y-33015713D01*
X36813723Y-33017783D01*
X36822550Y-33027547D01*
X36840210Y-33032767D01*
X36860389Y-33033251D01*
X36876772Y-33028807D01*
X36883067Y-33019900D01*
X36890126Y-33009557D01*
X36900001Y-33007200D01*
X36913791Y-33012494D01*
X36916934Y-33019900D01*
X36923711Y-33031125D01*
X36929634Y-33032600D01*
X36940671Y-33039438D01*
X36942334Y-33046092D01*
X36949442Y-33058923D01*
X36959267Y-33064013D01*
X36973032Y-33072856D01*
X36976201Y-33080947D01*
X36983301Y-33092968D01*
X36993134Y-33097880D01*
X37007689Y-33106982D01*
X37007738Y-33119008D01*
X37213817Y-33119008D01*
X37213267Y-33113033D01*
X37217683Y-33096009D01*
X37225967Y-33091866D01*
X37236704Y-33094110D01*
X37236759Y-33103422D01*
X37267260Y-33103422D01*
X37261271Y-33095513D01*
X37255600Y-33091866D01*
X37242198Y-33081386D01*
X37238667Y-33074337D01*
X37244660Y-33070687D01*
X37256044Y-33075171D01*
X37275947Y-33081115D01*
X37287794Y-33080684D01*
X37295330Y-33077636D01*
X37286647Y-33076057D01*
X37284291Y-33075915D01*
X37271337Y-33071669D01*
X37269735Y-33057900D01*
X37270315Y-33054534D01*
X37279803Y-33036905D01*
X37291392Y-33029643D01*
X37303673Y-33022216D01*
X37304494Y-33011182D01*
X37260512Y-33011182D01*
X37259834Y-33015667D01*
X37252592Y-33023735D01*
X37251367Y-33024133D01*
X37244636Y-33018228D01*
X37242900Y-33015667D01*
X37244911Y-33008494D01*
X37251367Y-33007200D01*
X37260512Y-33011182D01*
X37304494Y-33011182D01*
X37304873Y-33006101D01*
X37304298Y-33002808D01*
X37305483Y-32983406D01*
X37315221Y-32974807D01*
X37329032Y-32979488D01*
X37334884Y-32985892D01*
X37349792Y-32996544D01*
X37360426Y-32997537D01*
X37370051Y-32994226D01*
X37368065Y-32987339D01*
X37359439Y-32977567D01*
X37345235Y-32959161D01*
X37337989Y-32945817D01*
X37327141Y-32933288D01*
X37319366Y-32931000D01*
X37307754Y-32925750D01*
X37308866Y-32914996D01*
X37314185Y-32910255D01*
X37325390Y-32911759D01*
X37336276Y-32919751D01*
X37347682Y-32929371D01*
X37354530Y-32926389D01*
X37358546Y-32919829D01*
X37372831Y-32906967D01*
X37390029Y-32909790D01*
X37399534Y-32918300D01*
X37413517Y-32929759D01*
X37422833Y-32927327D01*
X37424934Y-32917800D01*
X37421226Y-32908756D01*
X37417354Y-32909285D01*
X37409094Y-32907224D01*
X37403158Y-32895773D01*
X37402874Y-32882448D01*
X37404181Y-32879530D01*
X37413668Y-32878065D01*
X37428825Y-32884987D01*
X37446791Y-32892723D01*
X37454283Y-32889127D01*
X37456937Y-32881361D01*
X37448327Y-32877963D01*
X37441185Y-32877025D01*
X37427706Y-32868591D01*
X37415095Y-32850972D01*
X37408248Y-32831432D01*
X37408001Y-32827782D01*
X37413630Y-32814917D01*
X37426968Y-32813821D01*
X37439633Y-32822086D01*
X37447389Y-32824528D01*
X37454073Y-32812830D01*
X37457038Y-32803036D01*
X37464799Y-32784681D01*
X37466874Y-32782833D01*
X36104134Y-32782833D01*
X36099901Y-32787067D01*
X36095667Y-32782833D01*
X36099901Y-32778600D01*
X36104134Y-32782833D01*
X37466874Y-32782833D01*
X37473804Y-32776664D01*
X37475241Y-32776726D01*
X37485502Y-32771777D01*
X37489946Y-32762692D01*
X37491439Y-32760559D01*
X36112601Y-32760559D01*
X36105578Y-32768523D01*
X36096876Y-32770133D01*
X36087519Y-32772720D01*
X36082649Y-32783122D01*
X36080819Y-32805298D01*
X36080650Y-32814583D01*
X36080203Y-32848097D01*
X36078863Y-32867862D01*
X36075227Y-32877055D01*
X36067893Y-32878855D01*
X36055460Y-32876438D01*
X36053540Y-32876012D01*
X36028287Y-32873811D01*
X36016059Y-32880721D01*
X36016786Y-32893891D01*
X36025235Y-32902526D01*
X36043475Y-32902839D01*
X36050283Y-32901703D01*
X36078734Y-32896366D01*
X36078734Y-32964483D01*
X36078042Y-32999972D01*
X36075657Y-33021274D01*
X36071108Y-33031093D01*
X36066940Y-33032600D01*
X36053472Y-33038372D01*
X36049568Y-33050623D01*
X36056478Y-33061756D01*
X36061766Y-33064004D01*
X36074275Y-33073959D01*
X36079902Y-33091289D01*
X36078643Y-33109704D01*
X36070495Y-33122914D01*
X36061801Y-33125733D01*
X36047650Y-33131720D01*
X36044867Y-33142666D01*
X36043367Y-33151324D01*
X36036529Y-33156404D01*
X36020842Y-33158842D01*
X35992798Y-33159573D01*
X35981367Y-33159600D01*
X35947408Y-33160347D01*
X35927512Y-33162943D01*
X35918859Y-33167921D01*
X35917867Y-33171594D01*
X35911321Y-33185090D01*
X35894347Y-33190365D01*
X35870944Y-33188070D01*
X35845109Y-33178853D01*
X35820839Y-33163363D01*
X35811285Y-33154293D01*
X35793544Y-33137096D01*
X35779190Y-33126920D01*
X35775302Y-33125733D01*
X35766734Y-33118843D01*
X35765467Y-33112241D01*
X35758359Y-33099410D01*
X35748534Y-33094320D01*
X35736305Y-33086344D01*
X35731798Y-33068117D01*
X35731601Y-33060453D01*
X35728852Y-33038475D01*
X35719046Y-33028075D01*
X35714667Y-33026586D01*
X35701017Y-33016247D01*
X35697734Y-32998733D01*
X35702628Y-32978571D01*
X35714667Y-32970880D01*
X35728545Y-32961106D01*
X35730397Y-32946891D01*
X35720074Y-32935333D01*
X35715450Y-32933658D01*
X35699879Y-32922611D01*
X35695076Y-32913284D01*
X35685671Y-32899940D01*
X35677360Y-32897133D01*
X35669073Y-32893351D01*
X35664944Y-32879655D01*
X35663867Y-32854007D01*
X35664973Y-32827561D01*
X35669368Y-32813428D01*
X35678667Y-32807073D01*
X35680800Y-32806453D01*
X35694523Y-32799878D01*
X35697734Y-32794844D01*
X35691156Y-32785651D01*
X35680800Y-32778600D01*
X35666215Y-32765217D01*
X35666511Y-32751592D01*
X35681568Y-32742080D01*
X35681838Y-32742009D01*
X35694105Y-32735541D01*
X35697048Y-32721620D01*
X35695838Y-32710255D01*
X35695325Y-32689974D01*
X35702914Y-32680622D01*
X35706705Y-32679321D01*
X35719163Y-32668206D01*
X35726955Y-32646587D01*
X35734596Y-32625093D01*
X35745477Y-32617733D01*
X35757993Y-32610628D01*
X35763014Y-32600800D01*
X35768626Y-32590426D01*
X35781415Y-32585340D01*
X35805961Y-32583878D01*
X35809581Y-32583867D01*
X35835701Y-32585031D01*
X35849561Y-32589636D01*
X35855739Y-32599346D01*
X35856147Y-32600800D01*
X35863758Y-32614614D01*
X35870171Y-32617879D01*
X35886490Y-32625371D01*
X35902614Y-32643510D01*
X35914383Y-32666484D01*
X35917867Y-32684543D01*
X35917867Y-32710867D01*
X35972208Y-32710867D01*
X36010505Y-32711833D01*
X36034819Y-32715440D01*
X36048026Y-32722754D01*
X36053002Y-32734836D01*
X36053334Y-32740873D01*
X36055140Y-32753757D01*
X36063828Y-32757834D01*
X36082967Y-32755793D01*
X36104956Y-32754669D01*
X36112600Y-32760509D01*
X36112601Y-32760559D01*
X37491439Y-32760559D01*
X37500920Y-32747015D01*
X37510383Y-32742075D01*
X37520763Y-32735748D01*
X37525560Y-32720925D01*
X37526534Y-32699380D01*
X37529095Y-32671907D01*
X37536032Y-32655723D01*
X37537998Y-32654137D01*
X37550800Y-32641603D01*
X37559294Y-32628632D01*
X37572105Y-32615817D01*
X37585580Y-32616548D01*
X37593746Y-32629642D01*
X37594267Y-32635572D01*
X37599352Y-32648805D01*
X37605890Y-32651600D01*
X37614539Y-32643571D01*
X37620398Y-32619260D01*
X37621717Y-32607845D01*
X37627360Y-32576914D01*
X37636569Y-32557066D01*
X37639728Y-32553995D01*
X37646619Y-32545445D01*
X37650861Y-32529834D01*
X37652988Y-32503809D01*
X37653534Y-32467121D01*
X37654251Y-32427461D01*
X37656764Y-32401172D01*
X37661618Y-32384738D01*
X37667607Y-32376270D01*
X37675983Y-32362851D01*
X37672981Y-32356615D01*
X37661841Y-32341333D01*
X37656092Y-32318098D01*
X37657806Y-32295877D01*
X37665135Y-32284291D01*
X37671077Y-32283677D01*
X37678448Y-32282825D01*
X37678934Y-32280272D01*
X37672450Y-32269882D01*
X37670915Y-32269189D01*
X37662122Y-32258348D01*
X37657966Y-32238415D01*
X37658942Y-32216716D01*
X37665545Y-32200578D01*
X37666222Y-32199855D01*
X37676983Y-32184395D01*
X37677620Y-32172537D01*
X37670467Y-32169000D01*
X37664157Y-32161739D01*
X37662001Y-32147333D01*
X37664435Y-32132963D01*
X37669580Y-32130352D01*
X37678508Y-32128045D01*
X37682137Y-32122064D01*
X37680267Y-32108405D01*
X37674558Y-32104273D01*
X37667511Y-32096847D01*
X37663504Y-32079292D01*
X37661955Y-32048609D01*
X37661885Y-32038977D01*
X37660863Y-31995725D01*
X37657523Y-31966581D01*
X37651155Y-31948794D01*
X37641051Y-31939616D01*
X37635818Y-31937742D01*
X37622474Y-31928337D01*
X37619667Y-31920026D01*
X37614266Y-31908231D01*
X37609084Y-31906450D01*
X37597887Y-31900469D01*
X37580681Y-31885235D01*
X37568867Y-31872667D01*
X37545783Y-31850802D01*
X37525536Y-31839690D01*
X37520184Y-31838883D01*
X37504516Y-31833728D01*
X37501134Y-31825307D01*
X37494053Y-31812307D01*
X37484983Y-31807591D01*
X37469648Y-31796594D01*
X37464386Y-31786365D01*
X37457093Y-31774887D01*
X37450334Y-31775300D01*
X37440915Y-31773479D01*
X37436076Y-31763452D01*
X37427348Y-31749237D01*
X37418920Y-31745667D01*
X37406742Y-31738593D01*
X37402192Y-31729516D01*
X37391194Y-31714181D01*
X37380966Y-31708919D01*
X37369487Y-31701625D01*
X37369901Y-31694866D01*
X37368166Y-31685381D01*
X37358835Y-31680814D01*
X37342893Y-31670008D01*
X37337609Y-31660217D01*
X37326484Y-31646694D01*
X37315660Y-31644066D01*
X37301250Y-31638956D01*
X37297934Y-31631366D01*
X37291664Y-31620130D01*
X37286221Y-31618667D01*
X37274849Y-31611573D01*
X37270081Y-31601733D01*
X37264516Y-31591403D01*
X37251840Y-31586312D01*
X37227491Y-31584816D01*
X37223097Y-31584800D01*
X37196616Y-31583595D01*
X37182318Y-31578886D01*
X37175555Y-31569031D01*
X37175167Y-31567867D01*
X37169239Y-31557833D01*
X37156699Y-31552704D01*
X37133052Y-31550999D01*
X37123797Y-31550933D01*
X37097149Y-31550215D01*
X37083341Y-31547024D01*
X37078305Y-31539808D01*
X37077801Y-31533375D01*
X37077136Y-31526568D01*
X37073437Y-31521871D01*
X37064149Y-31518979D01*
X37046716Y-31517585D01*
X37018581Y-31517382D01*
X36977190Y-31518063D01*
G37*
X36977190Y-31518063D02*
X36954333Y-31518559D01*
X36904920Y-31519918D01*
X36869757Y-31521678D01*
X36846159Y-31524183D01*
X36831443Y-31527781D01*
X36822924Y-31532815D01*
X36820251Y-31535841D01*
X36814954Y-31540847D01*
X36805861Y-31544599D01*
X36790695Y-31547291D01*
X36767177Y-31549118D01*
X36733030Y-31550275D01*
X36685975Y-31550956D01*
X36639744Y-31551279D01*
X36581974Y-31551671D01*
X36538909Y-31552298D01*
X36508319Y-31553381D01*
X36487974Y-31555141D01*
X36475644Y-31557796D01*
X36469102Y-31561568D01*
X36466116Y-31566677D01*
X36465585Y-31568488D01*
X36460011Y-31578353D01*
X36447059Y-31583286D01*
X36422321Y-31584780D01*
X36417400Y-31584800D01*
X36390732Y-31585848D01*
X36376398Y-31590060D01*
X36369871Y-31599037D01*
X36369006Y-31601917D01*
X36361000Y-31614379D01*
X36343018Y-31617833D01*
X36338048Y-31617676D01*
X36305925Y-31616792D01*
X36286684Y-31619419D01*
X36276363Y-31627333D01*
X36270999Y-31642314D01*
X36269792Y-31648300D01*
X36262614Y-31669361D01*
X36252489Y-31677909D01*
X36251917Y-31677933D01*
X36241933Y-31684981D01*
X36239600Y-31694867D01*
X36233966Y-31708922D01*
X36226108Y-31711800D01*
X36213277Y-31718908D01*
X36208187Y-31728733D01*
X36199846Y-31742490D01*
X36192430Y-31745667D01*
X36183545Y-31753095D01*
X36176373Y-31771394D01*
X36175542Y-31775300D01*
X36168555Y-31795956D01*
X36158839Y-31804870D01*
X36157959Y-31804933D01*
X36145246Y-31811864D01*
X36140490Y-31819750D01*
X36130389Y-31835888D01*
X36124484Y-31840967D01*
X36115221Y-31853269D01*
X36108356Y-31872717D01*
X36102152Y-31890472D01*
X36094927Y-31898063D01*
X36094785Y-31898066D01*
X36086192Y-31905063D01*
X36078734Y-31919233D01*
X36070088Y-31934924D01*
X36062581Y-31940400D01*
X36053811Y-31947391D01*
X36049100Y-31957333D01*
X36039857Y-31971059D01*
X36031980Y-31974267D01*
X36022533Y-31981840D01*
X36015260Y-32001040D01*
X36014675Y-32003900D01*
X36007726Y-32024475D01*
X35998086Y-32033460D01*
X35997149Y-32033533D01*
X35985557Y-32040598D01*
X35977134Y-32054700D01*
X35968616Y-32070385D01*
X35961352Y-32075867D01*
X35954865Y-32083266D01*
X35948886Y-32101474D01*
X35948059Y-32105500D01*
X35940880Y-32126561D01*
X35930755Y-32135109D01*
X35930184Y-32135133D01*
X35920948Y-32142142D01*
X35917869Y-32163930D01*
X35917867Y-32164767D01*
X35915973Y-32185190D01*
X35908578Y-32193431D01*
X35900934Y-32194400D01*
X35886783Y-32200387D01*
X35884001Y-32211333D01*
X35878014Y-32225484D01*
X35867067Y-32228267D01*
X35852917Y-32234253D01*
X35850134Y-32245200D01*
X35844840Y-32258990D01*
X35837434Y-32262133D01*
X35826397Y-32268971D01*
X35824734Y-32275626D01*
X35817654Y-32288628D01*
X35808597Y-32293338D01*
X35794370Y-32305423D01*
X35787046Y-32326412D01*
X35779895Y-32346969D01*
X35769734Y-32355254D01*
X35769317Y-32355266D01*
X35759333Y-32362314D01*
X35757001Y-32372200D01*
X35751874Y-32385927D01*
X35744684Y-32389133D01*
X35734462Y-32396852D01*
X35727142Y-32417016D01*
X35726955Y-32417987D01*
X35717817Y-32441761D01*
X35705404Y-32451061D01*
X35692068Y-32460469D01*
X35689267Y-32468774D01*
X35682701Y-32480497D01*
X35676301Y-32482267D01*
X35662777Y-32489212D01*
X35657890Y-32497083D01*
X35647399Y-32513466D01*
X35641222Y-32518671D01*
X35633072Y-32531347D01*
X35630000Y-32550123D01*
X35623842Y-32573977D01*
X35613313Y-32583735D01*
X35606693Y-32588491D01*
X35602095Y-32596323D01*
X35599157Y-32610025D01*
X35597517Y-32632392D01*
X35596813Y-32666218D01*
X35596680Y-32711996D01*
X35596382Y-32761192D01*
X35595261Y-32796052D01*
X35593060Y-32819166D01*
X35589521Y-32833123D01*
X35584385Y-32840510D01*
X35583828Y-32840946D01*
X35578287Y-32848814D01*
X35573976Y-32864648D01*
X35570569Y-32890804D01*
X35567739Y-32929638D01*
X35565654Y-32971763D01*
X35563686Y-33019248D01*
X35562783Y-33052498D01*
X35563214Y-33074195D01*
X35565248Y-33087019D01*
X35569153Y-33093652D01*
X35575198Y-33096772D01*
X35578260Y-33097634D01*
X35592534Y-33107329D01*
X35596134Y-33117217D01*
X35601201Y-33135326D01*
X35612999Y-33144717D01*
X35626425Y-33142052D01*
X35629496Y-33139041D01*
X35644301Y-33130764D01*
X35657961Y-33136015D01*
X35663867Y-33152039D01*
X35669411Y-33165261D01*
X35676567Y-33168066D01*
X35686910Y-33175125D01*
X35689267Y-33185000D01*
X35694785Y-33198970D01*
X35702467Y-33201933D01*
X35711458Y-33205715D01*
X35710881Y-33209677D01*
X35712349Y-33218965D01*
X35715075Y-33220414D01*
X35723591Y-33230278D01*
X35726519Y-33240187D01*
X35731785Y-33253948D01*
X35736641Y-33257096D01*
X35751368Y-33261704D01*
X35761042Y-33271292D01*
X35761195Y-33278197D01*
X35765559Y-33283499D01*
X35782055Y-33287541D01*
X35788083Y-33288195D01*
X35809760Y-33292001D01*
X35820849Y-33301826D01*
X35826584Y-33318276D01*
X35832950Y-33336423D01*
X35839155Y-33344423D01*
X35839773Y-33344425D01*
X35851290Y-33346434D01*
X35869022Y-33352695D01*
X35883767Y-33363895D01*
X35887340Y-33377029D01*
X35879526Y-33386534D01*
X35870395Y-33388200D01*
X35861206Y-33395704D01*
X35858471Y-33411483D01*
X35855786Y-33433223D01*
X35850951Y-33446435D01*
X35840096Y-33453557D01*
X35829636Y-33447531D01*
X35824741Y-33431453D01*
X35824734Y-33430726D01*
X35820772Y-33405344D01*
X35810256Y-33390468D01*
X35802661Y-33388200D01*
X35792021Y-33394921D01*
X35790867Y-33399994D01*
X35784038Y-33413065D01*
X35778167Y-33416662D01*
X35766904Y-33427977D01*
X35765467Y-33434501D01*
X35772126Y-33445896D01*
X35778167Y-33447466D01*
X35788564Y-33453345D01*
X35790203Y-33466184D01*
X35783619Y-33478793D01*
X35775489Y-33483380D01*
X35768452Y-33487152D01*
X35763746Y-33496135D01*
X35760780Y-33513417D01*
X35758963Y-33542088D01*
X35757945Y-33575064D01*
X35756524Y-33619217D01*
X35754553Y-33648727D01*
X35751591Y-33665885D01*
X35747202Y-33672981D01*
X35740945Y-33672306D01*
X35739482Y-33671472D01*
X35734569Y-33675721D01*
X35731819Y-33692324D01*
X35731601Y-33700061D01*
X35734985Y-33726717D01*
X35744301Y-33738395D01*
X35754876Y-33748213D01*
X35755983Y-33760878D01*
X35747623Y-33768832D01*
X35744301Y-33769200D01*
X35735393Y-33776205D01*
X35731392Y-33792824D01*
X35732296Y-33812467D01*
X35738105Y-33828539D01*
X35744301Y-33833871D01*
X35753883Y-33845918D01*
X35757001Y-33866961D01*
X35758424Y-33885587D01*
X35766037Y-33894134D01*
X35784851Y-33897470D01*
X35788751Y-33897805D01*
X35810050Y-33901229D01*
X35819836Y-33909536D01*
X35823279Y-33924748D01*
X35821872Y-33949228D01*
X35810090Y-33960480D01*
X35788357Y-33959376D01*
X35768976Y-33947633D01*
X35761081Y-33929371D01*
X35753412Y-33907187D01*
X35744316Y-33900004D01*
X35735272Y-33908616D01*
X35732848Y-33914240D01*
X35730439Y-33932259D01*
X35732326Y-33955534D01*
X35737311Y-33978081D01*
X35744197Y-33993915D01*
X35749564Y-33997800D01*
X35756166Y-34004672D01*
X35757001Y-34010500D01*
X35751987Y-34021666D01*
X35740227Y-34020776D01*
X35727468Y-34009206D01*
X35715680Y-33999272D01*
X35706459Y-34005493D01*
X35699671Y-34028091D01*
X35695613Y-34061571D01*
X35691157Y-34096925D01*
X35684039Y-34118874D01*
X35675385Y-34129372D01*
X35664966Y-34139514D01*
X35668291Y-34146975D01*
X35672334Y-34149901D01*
X35686469Y-34158404D01*
X35691213Y-34160646D01*
X35695080Y-34169820D01*
X35693616Y-34187679D01*
X35688439Y-34207464D01*
X35681170Y-34222417D01*
X35675459Y-34226400D01*
X35665202Y-34233201D01*
X35663867Y-34239100D01*
X35656809Y-34249443D01*
X35646934Y-34251800D01*
X35635121Y-34248360D01*
X35630468Y-34235052D01*
X35630000Y-34223072D01*
X35626536Y-34200693D01*
X35617840Y-34189678D01*
X35609103Y-34178687D01*
X35603502Y-34157310D01*
X35603023Y-34152789D01*
X35599984Y-34131635D01*
X35592027Y-34121979D01*
X35573791Y-34118391D01*
X35568617Y-34117939D01*
X35547644Y-34117512D01*
X35538629Y-34122437D01*
X35536867Y-34133021D01*
X35542235Y-34149519D01*
X35549567Y-34155605D01*
X35559191Y-34168215D01*
X35562267Y-34193939D01*
X35560535Y-34213916D01*
X35556143Y-34222751D01*
X35554305Y-34222478D01*
X35543486Y-34224364D01*
X35530002Y-34235098D01*
X35513661Y-34252638D01*
X35508446Y-34233169D01*
X35505817Y-34215085D01*
X35503904Y-34186257D01*
X35503117Y-34152870D01*
X35503116Y-34152317D01*
X35502236Y-34118848D01*
X35499396Y-34099506D01*
X35494060Y-34091546D01*
X35491160Y-34090933D01*
X35483764Y-34084989D01*
X35478025Y-34065906D01*
X35473382Y-34031807D01*
X35473305Y-34031047D01*
X35467919Y-33994090D01*
X35460828Y-33972221D01*
X35455512Y-33966641D01*
X35445589Y-33955414D01*
X35443734Y-33946094D01*
X35440547Y-33935538D01*
X35428130Y-33930892D01*
X35409867Y-33930067D01*
X35387710Y-33931487D01*
X35377918Y-33937226D01*
X35376000Y-33947000D01*
X35381294Y-33960790D01*
X35388700Y-33963933D01*
X35395399Y-33967260D01*
X35399332Y-33979280D01*
X35401110Y-34003057D01*
X35401400Y-34027433D01*
X35400735Y-34060928D01*
X35398331Y-34080589D01*
X35393576Y-34089478D01*
X35388700Y-34090933D01*
X35378358Y-34097992D01*
X35376000Y-34107867D01*
X35370014Y-34122017D01*
X35359067Y-34124800D01*
X35345012Y-34130434D01*
X35342134Y-34138292D01*
X35335026Y-34151123D01*
X35325200Y-34156213D01*
X35311436Y-34165056D01*
X35308267Y-34173147D01*
X35301167Y-34185168D01*
X35291334Y-34190080D01*
X35277577Y-34198371D01*
X35274400Y-34205721D01*
X35268443Y-34220004D01*
X35251169Y-34222258D01*
X35237011Y-34218203D01*
X35219856Y-34206367D01*
X35215134Y-34186158D01*
X35209067Y-34162667D01*
X35198200Y-34147931D01*
X35185083Y-34128849D01*
X35181267Y-34112183D01*
X35177659Y-34096186D01*
X35170684Y-34090787D01*
X35155203Y-34083627D01*
X35138156Y-34066134D01*
X35124147Y-34043744D01*
X35119009Y-34029794D01*
X35108848Y-34009279D01*
X35096263Y-33997619D01*
X35085017Y-33987382D01*
X35084515Y-33979872D01*
X35082078Y-33971312D01*
X35072835Y-33966814D01*
X35056893Y-33956008D01*
X35051609Y-33946217D01*
X35043555Y-33934610D01*
X35024811Y-33930261D01*
X35016960Y-33930067D01*
X34997481Y-33931046D01*
X34988825Y-33937242D01*
X34986604Y-33953538D01*
X34986534Y-33963933D01*
X34988973Y-33988304D01*
X34996571Y-33997625D01*
X34998292Y-33997800D01*
X35007768Y-34005322D01*
X35014961Y-34024171D01*
X35015434Y-34026500D01*
X35024916Y-34050656D01*
X35037542Y-34059574D01*
X35051200Y-34068874D01*
X35054267Y-34077441D01*
X35059067Y-34089200D01*
X35063657Y-34090933D01*
X35078335Y-34097366D01*
X35095324Y-34112615D01*
X35108873Y-34130608D01*
X35113388Y-34143429D01*
X35120192Y-34159634D01*
X35126847Y-34165275D01*
X35136269Y-34178028D01*
X35143528Y-34201151D01*
X35145023Y-34210146D01*
X35150398Y-34234432D01*
X35158162Y-34251240D01*
X35161343Y-34254337D01*
X35171284Y-34266163D01*
X35171169Y-34279008D01*
X35161288Y-34285623D01*
X35160100Y-34285667D01*
X35148864Y-34291936D01*
X35147400Y-34297379D01*
X35140307Y-34308751D01*
X35130467Y-34313520D01*
X35116703Y-34322363D01*
X35113534Y-34330453D01*
X35106433Y-34342475D01*
X35096600Y-34347386D01*
X35082836Y-34356229D01*
X35079667Y-34364320D01*
X35072567Y-34376342D01*
X35062734Y-34381253D01*
X35048964Y-34390518D01*
X35045800Y-34399174D01*
X35038729Y-34410373D01*
X35028867Y-34412667D01*
X35015138Y-34417675D01*
X35011934Y-34424694D01*
X35004602Y-34434737D01*
X34986928Y-34442212D01*
X34986534Y-34442300D01*
X34968726Y-34449683D01*
X34961137Y-34459719D01*
X34961134Y-34459906D01*
X34954130Y-34469840D01*
X34945143Y-34471933D01*
X34932214Y-34466082D01*
X34924461Y-34446675D01*
X34923746Y-34443117D01*
X34916760Y-34422312D01*
X34906936Y-34410019D01*
X34905870Y-34409516D01*
X34894752Y-34398138D01*
X34893400Y-34391766D01*
X34886935Y-34380366D01*
X34881084Y-34378800D01*
X34870870Y-34371046D01*
X34863493Y-34350636D01*
X34863249Y-34349381D01*
X34856830Y-34328546D01*
X34844107Y-34318438D01*
X34828998Y-34314572D01*
X34808226Y-34307275D01*
X34800268Y-34296764D01*
X34800267Y-34296632D01*
X34793166Y-34284573D01*
X34783334Y-34279653D01*
X34769581Y-34271558D01*
X34766400Y-34264473D01*
X34759109Y-34255987D01*
X34741765Y-34250302D01*
X34721165Y-34248530D01*
X34704105Y-34251780D01*
X34700866Y-34253760D01*
X34694850Y-34267930D01*
X34696570Y-34288721D01*
X34704777Y-34308403D01*
X34710791Y-34315300D01*
X34722543Y-34330452D01*
X34726443Y-34338583D01*
X34737216Y-34351116D01*
X34744968Y-34353400D01*
X34756403Y-34357984D01*
X34757934Y-34362048D01*
X34764800Y-34371538D01*
X34779100Y-34380340D01*
X34794722Y-34391167D01*
X34800267Y-34401326D01*
X34807863Y-34409919D01*
X34825667Y-34412667D01*
X34843890Y-34415013D01*
X34850527Y-34424695D01*
X34851067Y-34432775D01*
X34853422Y-34463798D01*
X34859599Y-34488876D01*
X34868273Y-34503643D01*
X34873292Y-34505800D01*
X34883385Y-34511421D01*
X34884283Y-34523889D01*
X34877093Y-34536616D01*
X34867149Y-34542342D01*
X34855364Y-34549371D01*
X34854958Y-34556046D01*
X34852313Y-34565167D01*
X34838877Y-34573339D01*
X34822954Y-34581980D01*
X34817200Y-34589584D01*
X34809900Y-34596789D01*
X34792289Y-34603058D01*
X34791800Y-34603167D01*
X34773992Y-34610549D01*
X34766404Y-34620585D01*
X34766400Y-34620773D01*
X34759633Y-34631479D01*
X34753998Y-34632800D01*
X34740524Y-34639522D01*
X34732534Y-34649733D01*
X34720393Y-34663219D01*
X34711069Y-34666667D01*
X34701016Y-34673713D01*
X34698667Y-34683600D01*
X34692595Y-34697857D01*
X34682721Y-34700533D01*
X34667765Y-34707836D01*
X34662125Y-34718318D01*
X34654844Y-34730375D01*
X34647867Y-34730166D01*
X34638370Y-34731886D01*
X34633847Y-34741106D01*
X34622391Y-34755882D01*
X34606821Y-34762506D01*
X34585591Y-34770825D01*
X34563474Y-34785366D01*
X34545789Y-34801912D01*
X34537855Y-34816248D01*
X34537801Y-34817219D01*
X34530918Y-34826202D01*
X34524308Y-34827533D01*
X34511477Y-34834641D01*
X34506387Y-34844466D01*
X34496035Y-34858302D01*
X34486013Y-34861400D01*
X34472587Y-34867848D01*
X34470067Y-34878333D01*
X34465655Y-34892020D01*
X34459484Y-34895151D01*
X34435312Y-34891563D01*
X34417217Y-34883061D01*
X34410801Y-34873112D01*
X34402994Y-34864179D01*
X34382155Y-34861400D01*
X34360669Y-34858587D01*
X34350439Y-34848369D01*
X34349140Y-34844466D01*
X33919734Y-34844466D01*
X33913291Y-34852687D01*
X33911267Y-34852933D01*
X33903047Y-34846490D01*
X33902801Y-34844466D01*
X33909243Y-34836246D01*
X33911267Y-34836000D01*
X33919488Y-34842443D01*
X33919734Y-34844466D01*
X34349140Y-34844466D01*
X34348866Y-34843646D01*
X34344187Y-34833366D01*
X34334150Y-34828610D01*
X34314169Y-34828010D01*
X34299195Y-34828829D01*
X34272889Y-34829872D01*
X34258995Y-34827597D01*
X34253097Y-34820547D01*
X34251513Y-34813110D01*
X34250167Y-34806709D01*
X34246709Y-34801974D01*
X34238892Y-34798657D01*
X34224465Y-34796513D01*
X34201179Y-34795293D01*
X34166786Y-34794751D01*
X34119036Y-34794639D01*
X34083682Y-34794675D01*
X34026394Y-34794871D01*
X33983605Y-34795431D01*
X33952881Y-34796578D01*
X33931786Y-34798532D01*
X33917887Y-34801517D01*
X33908749Y-34805753D01*
X33902186Y-34811215D01*
X33881480Y-34823341D01*
X33859675Y-34827533D01*
X33838677Y-34831237D01*
X33829227Y-34843830D01*
X33829054Y-34844466D01*
X33820495Y-34857074D01*
X33801054Y-34861336D01*
X33796967Y-34861400D01*
X33775533Y-34864622D01*
X33765636Y-34875841D01*
X33764881Y-34878333D01*
X33755616Y-34892103D01*
X33746960Y-34895266D01*
X33735234Y-34901703D01*
X33733467Y-34907966D01*
X33726629Y-34919003D01*
X33719975Y-34920666D01*
X33707084Y-34927765D01*
X33702127Y-34937319D01*
X33691192Y-34953577D01*
X33681753Y-34959057D01*
X33668517Y-34968575D01*
X33665734Y-34976270D01*
X33658944Y-34986997D01*
X33653034Y-34988400D01*
X33641794Y-34994502D01*
X33640334Y-34999788D01*
X33634531Y-35013604D01*
X33623401Y-35026500D01*
X33610400Y-35046605D01*
X33606467Y-35064925D01*
X33601409Y-35084982D01*
X33589534Y-35092453D01*
X33579263Y-35097955D01*
X33574165Y-35110481D01*
X33572625Y-35134566D01*
X33572600Y-35140007D01*
X33571158Y-35167347D01*
X33566321Y-35180679D01*
X33560510Y-35183133D01*
X33551386Y-35191315D01*
X33544879Y-35215095D01*
X33541099Y-35253323D01*
X33540155Y-35304852D01*
X33542157Y-35368533D01*
X33542395Y-35373116D01*
X33545801Y-35422554D01*
X33550104Y-35456829D01*
X33555581Y-35477697D01*
X33560134Y-35485143D01*
X33568402Y-35502144D01*
X33572449Y-35528871D01*
X33572600Y-35535370D01*
X33575438Y-35564105D01*
X33584070Y-35577472D01*
X33585070Y-35577916D01*
X33594962Y-35588835D01*
X33602448Y-35609082D01*
X33602946Y-35611517D01*
X33609334Y-35630752D01*
X33617910Y-35640149D01*
X33619167Y-35640333D01*
X33627697Y-35647751D01*
X33634700Y-35665999D01*
X33635542Y-35669967D01*
X33642721Y-35691028D01*
X33652846Y-35699576D01*
X33653417Y-35699600D01*
X33664246Y-35706406D01*
X33665734Y-35712566D01*
X33672065Y-35726645D01*
X33676992Y-35729851D01*
X33687315Y-35740056D01*
X33698128Y-35759558D01*
X33699739Y-35763452D01*
X33709950Y-35782564D01*
X33720499Y-35792384D01*
X33722347Y-35792733D01*
X33732572Y-35796954D01*
X33733467Y-35799675D01*
X33739829Y-35813360D01*
X33755609Y-35831375D01*
X33775852Y-35849099D01*
X33795603Y-35861911D01*
X33803494Y-35864969D01*
X33820272Y-35872882D01*
X33826601Y-35882551D01*
X33833655Y-35892106D01*
X33843534Y-35894333D01*
X33857426Y-35899750D01*
X33860467Y-35907299D01*
X33867374Y-35921070D01*
X33874637Y-35925702D01*
X33891670Y-35935881D01*
X33904270Y-35946603D01*
X33927534Y-35958877D01*
X33954100Y-35962067D01*
X33974247Y-35963665D01*
X33983880Y-35967676D01*
X33983827Y-35969574D01*
X33984939Y-35980528D01*
X33997397Y-35990411D01*
X34015805Y-35995629D01*
X34023002Y-35995661D01*
X34049365Y-35994851D01*
X34060577Y-35998254D01*
X34060029Y-36003437D01*
X34059706Y-36008947D01*
X34067365Y-36013249D01*
X34084532Y-36016474D01*
X34112734Y-36018754D01*
X34153497Y-36020218D01*
X34208347Y-36020996D01*
X34267996Y-36021218D01*
X34326543Y-36021201D01*
X34370368Y-36020916D01*
X34401681Y-36020142D01*
X34422693Y-36018657D01*
X34435615Y-36016241D01*
X34442659Y-36012673D01*
X34446034Y-36007731D01*
X34447413Y-36003282D01*
X34455445Y-35990006D01*
X34470384Y-35990002D01*
X34493845Y-35991573D01*
X34509027Y-35983723D01*
X34512401Y-35973861D01*
X34520261Y-35964861D01*
X34542034Y-35962067D01*
X34562458Y-35960172D01*
X34570699Y-35952778D01*
X34571667Y-35945133D01*
X34577350Y-35931045D01*
X34585290Y-35928200D01*
X34602912Y-35921634D01*
X34621758Y-35905944D01*
X34635698Y-35887142D01*
X34639254Y-35875283D01*
X34645445Y-35862753D01*
X34652366Y-35860467D01*
X34666493Y-35853617D01*
X34670205Y-35847767D01*
X34680866Y-35836514D01*
X34686873Y-35835067D01*
X34696803Y-35828111D01*
X34698667Y-35820015D01*
X34704718Y-35803324D01*
X34715600Y-35790464D01*
X34728739Y-35771038D01*
X34732534Y-35753923D01*
X34738151Y-35734236D01*
X34749467Y-35727453D01*
X34760581Y-35720993D01*
X34765529Y-35706184D01*
X34766400Y-35686949D01*
X34770892Y-35654956D01*
X34784531Y-35637069D01*
X34807559Y-35632993D01*
X34810384Y-35633333D01*
X34823961Y-35638611D01*
X34830551Y-35652635D01*
X34832528Y-35667850D01*
X34838002Y-35691404D01*
X34848810Y-35699393D01*
X34864279Y-35691387D01*
X34866307Y-35689440D01*
X34877829Y-35683639D01*
X34886627Y-35689440D01*
X34903717Y-35698555D01*
X34911040Y-35699600D01*
X34924493Y-35706713D01*
X34929720Y-35716533D01*
X34937517Y-35730281D01*
X34944200Y-35733467D01*
X34954212Y-35726389D01*
X34958681Y-35716533D01*
X34967185Y-35702773D01*
X34974821Y-35699600D01*
X34985251Y-35692825D01*
X34986534Y-35687198D01*
X34993256Y-35673723D01*
X35003467Y-35665733D01*
X35016933Y-35654013D01*
X35020400Y-35645256D01*
X35027491Y-35634128D01*
X35037334Y-35629413D01*
X35051104Y-35620149D01*
X35054267Y-35611492D01*
X35060704Y-35599767D01*
X35066967Y-35598000D01*
X35077532Y-35590767D01*
X35081115Y-35578950D01*
X35083134Y-35557682D01*
X35084449Y-35547200D01*
X35086628Y-35527393D01*
X35087234Y-35519147D01*
X35091626Y-35508609D01*
X35105985Y-35505821D01*
X35115650Y-35506447D01*
X35131837Y-35508969D01*
X35140319Y-35515531D01*
X35144071Y-35530706D01*
X35145696Y-35552670D01*
X35148580Y-35579781D01*
X35154340Y-35594305D01*
X35164698Y-35600548D01*
X35164881Y-35600596D01*
X35177398Y-35609364D01*
X35179859Y-35628917D01*
X35179854Y-35628992D01*
X35178559Y-35675553D01*
X35182426Y-35706894D01*
X35191635Y-35723980D01*
X35198200Y-35727453D01*
X35211158Y-35738193D01*
X35215776Y-35756986D01*
X35211996Y-35777117D01*
X35199759Y-35791869D01*
X35198763Y-35792432D01*
X35185550Y-35806947D01*
X35179713Y-35824408D01*
X35172113Y-35842710D01*
X35158142Y-35851436D01*
X35143322Y-35848233D01*
X35137832Y-35842250D01*
X35129026Y-35836225D01*
X35121442Y-35844877D01*
X35116017Y-35865953D01*
X35113689Y-35897199D01*
X35113663Y-35900385D01*
X35114940Y-35928349D01*
X35120012Y-35944442D01*
X35130432Y-35953581D01*
X35130467Y-35953600D01*
X35144618Y-35970360D01*
X35147400Y-35988557D01*
X35151214Y-36009466D01*
X35164110Y-36018821D01*
X35164334Y-36018880D01*
X35178090Y-36027141D01*
X35181267Y-36034450D01*
X35188448Y-36045889D01*
X35205170Y-36052340D01*
X35224204Y-36051152D01*
X35225528Y-36050680D01*
X35237838Y-36052988D01*
X35242862Y-36063188D01*
X35250649Y-36075687D01*
X35268260Y-36080351D01*
X35276854Y-36080600D01*
X35298832Y-36083348D01*
X35309232Y-36093155D01*
X35310720Y-36097533D01*
X35321168Y-36111846D01*
X35339969Y-36113836D01*
X35364527Y-36104100D01*
X35392249Y-36083232D01*
X35398289Y-36077433D01*
X35420273Y-36052749D01*
X35432455Y-36029830D01*
X35438923Y-36000758D01*
X35439300Y-35998050D01*
X35445615Y-35967870D01*
X35454134Y-35954398D01*
X35457228Y-35953600D01*
X35469154Y-35949794D01*
X35468959Y-35940966D01*
X35458924Y-35931000D01*
X35441332Y-35923782D01*
X35439500Y-35923408D01*
X35419831Y-35916861D01*
X35410106Y-35907976D01*
X35409867Y-35906475D01*
X35417311Y-35897528D01*
X35435706Y-35890345D01*
X35439500Y-35889541D01*
X35459059Y-35883176D01*
X35468867Y-35874704D01*
X35469134Y-35873212D01*
X35476218Y-35862611D01*
X35486067Y-35858013D01*
X35498102Y-35850322D01*
X35499879Y-35843533D01*
X35240534Y-35843533D01*
X35233676Y-35851045D01*
X35227834Y-35852000D01*
X35216567Y-35847428D01*
X35215134Y-35843533D01*
X35221991Y-35836022D01*
X35227834Y-35835067D01*
X35239101Y-35839638D01*
X35240534Y-35843533D01*
X35499879Y-35843533D01*
X35502712Y-35832711D01*
X35503000Y-35823159D01*
X35505609Y-35800930D01*
X35514003Y-35792852D01*
X35515700Y-35792733D01*
X35526936Y-35786421D01*
X35528400Y-35780939D01*
X35521571Y-35767868D01*
X35515700Y-35764271D01*
X35505032Y-35752735D01*
X35503000Y-35743186D01*
X35495525Y-35727782D01*
X35483950Y-35721430D01*
X35464900Y-35715885D01*
X35483950Y-35702476D01*
X35488932Y-35696002D01*
X35342134Y-35696002D01*
X35339690Y-35715499D01*
X35328982Y-35724740D01*
X35316734Y-35727963D01*
X35296357Y-35736750D01*
X35290490Y-35748072D01*
X35288500Y-35754559D01*
X35284867Y-35748351D01*
X35284183Y-35745901D01*
X35274400Y-35745901D01*
X35268782Y-35754446D01*
X35261749Y-35753480D01*
X35253151Y-35745510D01*
X35253782Y-35741046D01*
X35264452Y-35733634D01*
X35273180Y-35739454D01*
X35274400Y-35745901D01*
X35284183Y-35745901D01*
X35280705Y-35733459D01*
X35277130Y-35713894D01*
X35275258Y-35693667D01*
X35275244Y-35693250D01*
X35271269Y-35672381D01*
X35262592Y-35665733D01*
X35257303Y-35662177D01*
X35253445Y-35649958D01*
X35250681Y-35626747D01*
X35248673Y-35590215D01*
X35247767Y-35563533D01*
X35246123Y-35519236D01*
X35243965Y-35488948D01*
X35240820Y-35469746D01*
X35236216Y-35458705D01*
X35229942Y-35453045D01*
X35220841Y-35440078D01*
X35215552Y-35417391D01*
X35214195Y-35390895D01*
X35216885Y-35366499D01*
X35221038Y-35356571D01*
X34593630Y-35356571D01*
X34592834Y-35360933D01*
X34582010Y-35369077D01*
X34579634Y-35369400D01*
X34571895Y-35362942D01*
X34571667Y-35360933D01*
X34578559Y-35353503D01*
X34584867Y-35352466D01*
X34593630Y-35356571D01*
X35221038Y-35356571D01*
X35223740Y-35350113D01*
X35227834Y-35347062D01*
X35239077Y-35336907D01*
X35240534Y-35331300D01*
X35244836Y-35324128D01*
X34567845Y-35324128D01*
X34561419Y-35333601D01*
X34554234Y-35335533D01*
X34549689Y-35327918D01*
X34546805Y-35308446D01*
X34546267Y-35293200D01*
X34548011Y-35266961D01*
X34552734Y-35252568D01*
X34555676Y-35250866D01*
X34561299Y-35258361D01*
X34559650Y-35279840D01*
X34558188Y-35301965D01*
X34562847Y-35314139D01*
X34563079Y-35314291D01*
X34567845Y-35324128D01*
X35244836Y-35324128D01*
X35247702Y-35319352D01*
X35264689Y-35311978D01*
X35284722Y-35310381D01*
X35301024Y-35315765D01*
X35304828Y-35319884D01*
X35303925Y-35331983D01*
X35296861Y-35339868D01*
X35285611Y-35353814D01*
X35283669Y-35368346D01*
X35291247Y-35377233D01*
X35295567Y-35377866D01*
X35301156Y-35380474D01*
X35304873Y-35390059D01*
X35307064Y-35409262D01*
X35308075Y-35440726D01*
X35308267Y-35474733D01*
X35308994Y-35516548D01*
X35311012Y-35549485D01*
X35314072Y-35570609D01*
X35316872Y-35576919D01*
X35321756Y-35587065D01*
X35320606Y-35590118D01*
X35321263Y-35597514D01*
X35323713Y-35598000D01*
X35332460Y-35604963D01*
X35336936Y-35620313D01*
X35335703Y-35635744D01*
X35331303Y-35641794D01*
X35325525Y-35649825D01*
X35331621Y-35658607D01*
X35339095Y-35674105D01*
X35342134Y-35696002D01*
X35488932Y-35696002D01*
X35500146Y-35681432D01*
X35503000Y-35665121D01*
X35505001Y-35656794D01*
X35431538Y-35656794D01*
X35429393Y-35660319D01*
X35417102Y-35665469D01*
X35410113Y-35656407D01*
X35409867Y-35653033D01*
X35414174Y-35641762D01*
X35417834Y-35640333D01*
X35428890Y-35645935D01*
X35431538Y-35656794D01*
X35505001Y-35656794D01*
X35508204Y-35643465D01*
X35517817Y-35632887D01*
X35525252Y-35625655D01*
X35530212Y-35611691D01*
X35533395Y-35587656D01*
X35535499Y-35550207D01*
X35535593Y-35547800D01*
X35537944Y-35507935D01*
X35541500Y-35483268D01*
X35546568Y-35472088D01*
X35549351Y-35471000D01*
X35559121Y-35462791D01*
X35566038Y-35438770D01*
X35569920Y-35399848D01*
X35570734Y-35364108D01*
X35571722Y-35333062D01*
X35575103Y-35316037D01*
X35581502Y-35310215D01*
X35582690Y-35310133D01*
X35592314Y-35302203D01*
X35599579Y-35280532D01*
X35600367Y-35276266D01*
X35607132Y-35252798D01*
X35616506Y-35242591D01*
X35618045Y-35242400D01*
X35625762Y-35235074D01*
X35629818Y-35216843D01*
X35630214Y-35195683D01*
X35464454Y-35195683D01*
X35464383Y-35223466D01*
X35462287Y-35267014D01*
X35457051Y-35300184D01*
X35451683Y-35315436D01*
X35444452Y-35332560D01*
X35447230Y-35340555D01*
X35450084Y-35341858D01*
X35459277Y-35352055D01*
X35459210Y-35367550D01*
X35450346Y-35379779D01*
X35447967Y-35380928D01*
X35439253Y-35391385D01*
X35435511Y-35415418D01*
X35435267Y-35426990D01*
X35434166Y-35452188D01*
X35431368Y-35469816D01*
X35429482Y-35473963D01*
X35421854Y-35476990D01*
X35416060Y-35468008D01*
X35411864Y-35445785D01*
X35409032Y-35409092D01*
X35407352Y-35357778D01*
X35405929Y-35310210D01*
X35405030Y-35296728D01*
X35045132Y-35296728D01*
X35043575Y-35307709D01*
X35040685Y-35307840D01*
X35038664Y-35296508D01*
X35040017Y-35291612D01*
X35043776Y-35288405D01*
X35045132Y-35296728D01*
X35405030Y-35296728D01*
X35403720Y-35277096D01*
X35400415Y-35255962D01*
X35395701Y-35244336D01*
X35392693Y-35241298D01*
X35385190Y-35233083D01*
X35390817Y-35228350D01*
X35398316Y-35218734D01*
X35401218Y-35202876D01*
X35399162Y-35188478D01*
X35392934Y-35183133D01*
X35385195Y-35176380D01*
X35384467Y-35171792D01*
X35391884Y-35159131D01*
X35410058Y-35150247D01*
X35432872Y-35147487D01*
X35443734Y-35149042D01*
X35454159Y-35152535D01*
X35460404Y-35159010D01*
X35463494Y-35172162D01*
X35464454Y-35195683D01*
X35630214Y-35195683D01*
X35630259Y-35193321D01*
X35627129Y-35170127D01*
X35620474Y-35152877D01*
X35617300Y-35149266D01*
X35606431Y-35134310D01*
X35606079Y-35120109D01*
X35612875Y-35113989D01*
X35620042Y-35104540D01*
X35626272Y-35085390D01*
X35626634Y-35083650D01*
X35627816Y-35073066D01*
X35138934Y-35073066D01*
X35136045Y-35081313D01*
X35135200Y-35081533D01*
X35127972Y-35075600D01*
X35126234Y-35073066D01*
X35126905Y-35065265D01*
X35129967Y-35064600D01*
X35138589Y-35070746D01*
X35138934Y-35073066D01*
X35627816Y-35073066D01*
X35628782Y-35064431D01*
X35623828Y-35056869D01*
X35618359Y-35056133D01*
X35605498Y-35052430D01*
X35605113Y-35043846D01*
X35609926Y-35039200D01*
X35469134Y-35039200D01*
X35462043Y-35046079D01*
X35452200Y-35047666D01*
X35438442Y-35044121D01*
X35435267Y-35039200D01*
X35376000Y-35039200D01*
X35368888Y-35046012D01*
X35358567Y-35047666D01*
X35346860Y-35044407D01*
X35346367Y-35039200D01*
X35168567Y-35039200D01*
X35167896Y-35047002D01*
X35164834Y-35047666D01*
X35156212Y-35041520D01*
X35155867Y-35039200D01*
X35158756Y-35030953D01*
X35159601Y-35030733D01*
X35166829Y-35036666D01*
X35168567Y-35039200D01*
X35346367Y-35039200D01*
X35358617Y-35031409D01*
X35363800Y-35030733D01*
X35374743Y-35035467D01*
X35376000Y-35039200D01*
X35435267Y-35039200D01*
X35442358Y-35032321D01*
X35452200Y-35030733D01*
X35465959Y-35034279D01*
X35469134Y-35039200D01*
X35609926Y-35039200D01*
X35615134Y-35034174D01*
X35633492Y-35027202D01*
X35634234Y-35027058D01*
X35654140Y-35021640D01*
X35662309Y-35011592D01*
X35662793Y-35005333D01*
X35562267Y-35005333D01*
X35555410Y-35012845D01*
X35549567Y-35013800D01*
X35538300Y-35009228D01*
X35536867Y-35005333D01*
X35543725Y-34997822D01*
X35549567Y-34996866D01*
X35560834Y-35001438D01*
X35562267Y-35005333D01*
X35662793Y-35005333D01*
X35663867Y-34991457D01*
X35661256Y-34969291D01*
X35651872Y-34958725D01*
X35646934Y-34956986D01*
X35633201Y-34949948D01*
X35631007Y-34946066D01*
X35240534Y-34946066D01*
X35233443Y-34952946D01*
X35223600Y-34954533D01*
X35209450Y-34960520D01*
X35206667Y-34971466D01*
X35202582Y-34985804D01*
X35193891Y-34986895D01*
X35187348Y-34977462D01*
X35188680Y-34960685D01*
X35201159Y-34945471D01*
X35217227Y-34938729D01*
X35020327Y-34938729D01*
X35019488Y-34966658D01*
X35015926Y-34982048D01*
X35008236Y-34989240D01*
X35003467Y-34990853D01*
X34989147Y-35002149D01*
X34986534Y-35012709D01*
X34979688Y-35030349D01*
X34969600Y-35039200D01*
X34956036Y-35053167D01*
X34952667Y-35064898D01*
X34946931Y-35083087D01*
X34935734Y-35098466D01*
X34922910Y-35118847D01*
X34918800Y-35137066D01*
X34916110Y-35151484D01*
X34910318Y-35153490D01*
X34901646Y-35156415D01*
X34893594Y-35169924D01*
X34883290Y-35185922D01*
X34872443Y-35191600D01*
X34862001Y-35198924D01*
X34859534Y-35212469D01*
X34852713Y-35233266D01*
X34842600Y-35242400D01*
X34829135Y-35254120D01*
X34825667Y-35262877D01*
X34818576Y-35274005D01*
X34808734Y-35278720D01*
X34794964Y-35287984D01*
X34791800Y-35296641D01*
X34788033Y-35309256D01*
X34779342Y-35309505D01*
X34769644Y-35299463D01*
X34768888Y-35297433D01*
X34597067Y-35297433D01*
X34590290Y-35308658D01*
X34584367Y-35310133D01*
X34573142Y-35303356D01*
X34571667Y-35297433D01*
X34578444Y-35286208D01*
X34584367Y-35284733D01*
X34595592Y-35291510D01*
X34597067Y-35297433D01*
X34768888Y-35297433D01*
X34762879Y-35281317D01*
X34755894Y-35260512D01*
X34755333Y-35259810D01*
X34628744Y-35259810D01*
X34627409Y-35266654D01*
X34617456Y-35272605D01*
X34608262Y-35265852D01*
X34605534Y-35254600D01*
X34598484Y-35244709D01*
X34588600Y-35242400D01*
X34574941Y-35236984D01*
X34571667Y-35222926D01*
X34566663Y-35202102D01*
X34554675Y-35186884D01*
X34544574Y-35183133D01*
X34539067Y-35190239D01*
X34537801Y-35200066D01*
X34533291Y-35214628D01*
X34523086Y-35215116D01*
X34515840Y-35207249D01*
X34516743Y-35195150D01*
X34523807Y-35187265D01*
X34535377Y-35174567D01*
X34537801Y-35167383D01*
X34544617Y-35158774D01*
X34550203Y-35157733D01*
X34563629Y-35151007D01*
X34571794Y-35140563D01*
X34583239Y-35129010D01*
X34593428Y-35132028D01*
X34597067Y-35145533D01*
X34590279Y-35156322D01*
X34584367Y-35157733D01*
X34573142Y-35164510D01*
X34571667Y-35170433D01*
X34576821Y-35180470D01*
X34581551Y-35181016D01*
X34590107Y-35186830D01*
X34598663Y-35203883D01*
X34600164Y-35208533D01*
X34609297Y-35230973D01*
X34620024Y-35246472D01*
X34621207Y-35247465D01*
X34628744Y-35259810D01*
X34755333Y-35259810D01*
X34746069Y-35248219D01*
X34745004Y-35247716D01*
X34735687Y-35235681D01*
X34732534Y-35213032D01*
X34729674Y-35190708D01*
X34720755Y-35183146D01*
X34720217Y-35183133D01*
X34710331Y-35175496D01*
X34703097Y-35155744D01*
X34699520Y-35128613D01*
X34700271Y-35107921D01*
X34571667Y-35107921D01*
X34564567Y-35114000D01*
X34554734Y-35115400D01*
X34541455Y-35120361D01*
X34537801Y-35136566D01*
X34533625Y-35153240D01*
X34525806Y-35157733D01*
X34512702Y-35164059D01*
X34510250Y-35168316D01*
X34503038Y-35173289D01*
X34492330Y-35167427D01*
X34482653Y-35154806D01*
X34478534Y-35139763D01*
X34472137Y-35126464D01*
X34460808Y-35123866D01*
X34443905Y-35116607D01*
X34438654Y-35106933D01*
X34429124Y-35093741D01*
X34409020Y-35090000D01*
X34388315Y-35085915D01*
X34379387Y-35073066D01*
X34372094Y-35061313D01*
X34355367Y-35056575D01*
X34342986Y-35056133D01*
X34318027Y-35052979D01*
X34305905Y-35042723D01*
X34305304Y-35041316D01*
X34300068Y-35030992D01*
X34294509Y-35035728D01*
X34291277Y-35041316D01*
X34276990Y-35052873D01*
X34262213Y-35056133D01*
X34246016Y-35060091D01*
X34241467Y-35074213D01*
X34241467Y-35074246D01*
X34240024Y-35084790D01*
X34232865Y-35089316D01*
X34215742Y-35089138D01*
X34199134Y-35087345D01*
X34156801Y-35082331D01*
X34156801Y-35111066D01*
X34153427Y-35134476D01*
X34144855Y-35146491D01*
X34133410Y-35144851D01*
X34127967Y-35139092D01*
X34112337Y-35126012D01*
X34100752Y-35120655D01*
X34087986Y-35118758D01*
X34085555Y-35127642D01*
X34086808Y-35135588D01*
X34096129Y-35153222D01*
X34107693Y-35160629D01*
X34118930Y-35167677D01*
X34119053Y-35174097D01*
X34107371Y-35182439D01*
X34094683Y-35180677D01*
X34089067Y-35170433D01*
X34082009Y-35160090D01*
X34072134Y-35157733D01*
X34058343Y-35163027D01*
X34055201Y-35170433D01*
X34048142Y-35180776D01*
X34038267Y-35183133D01*
X34024010Y-35177061D01*
X34021334Y-35167187D01*
X34018828Y-35161966D01*
X33987467Y-35161966D01*
X33980409Y-35172309D01*
X33970534Y-35174666D01*
X33956804Y-35169671D01*
X33953601Y-35162672D01*
X33949039Y-35150028D01*
X33945942Y-35147855D01*
X33938447Y-35138064D01*
X33935339Y-35121316D01*
X33937355Y-35106114D01*
X33941893Y-35101039D01*
X33949851Y-35105960D01*
X33956239Y-35122302D01*
X33956498Y-35123536D01*
X33964133Y-35142539D01*
X33974556Y-35149266D01*
X33985916Y-35155949D01*
X33987467Y-35161966D01*
X34018828Y-35161966D01*
X34014183Y-35152289D01*
X34004401Y-35146813D01*
X33991028Y-35136970D01*
X33987467Y-35117886D01*
X33984148Y-35096492D01*
X33977307Y-35083226D01*
X33974920Y-35077800D01*
X33919734Y-35077800D01*
X33915000Y-35088742D01*
X33911267Y-35090000D01*
X33904455Y-35082887D01*
X33902801Y-35072567D01*
X33906060Y-35060860D01*
X33911267Y-35060366D01*
X33919058Y-35072617D01*
X33919734Y-35077800D01*
X33974920Y-35077800D01*
X33971866Y-35070862D01*
X33976158Y-35064056D01*
X33987752Y-35060707D01*
X33998478Y-35068354D01*
X34011643Y-35076257D01*
X34017409Y-35072568D01*
X34016006Y-35061090D01*
X34007365Y-35051330D01*
X33996668Y-35041469D01*
X33999571Y-35034787D01*
X34006517Y-35030306D01*
X34019639Y-35016430D01*
X34018732Y-35008395D01*
X33994883Y-35008395D01*
X33990408Y-35018611D01*
X33977505Y-35022137D01*
X33956139Y-35018651D01*
X33945134Y-35013981D01*
X33938650Y-35005333D01*
X33894334Y-35005333D01*
X33887476Y-35012845D01*
X33881634Y-35013800D01*
X33870367Y-35009228D01*
X33868934Y-35005333D01*
X33875791Y-34997822D01*
X33881634Y-34996866D01*
X33892901Y-35001438D01*
X33894334Y-35005333D01*
X33938650Y-35005333D01*
X33935944Y-35001724D01*
X33932289Y-34984533D01*
X33934509Y-34969322D01*
X33942624Y-34963000D01*
X33952467Y-34969767D01*
X33953601Y-34975111D01*
X33960805Y-34985623D01*
X33972564Y-34989928D01*
X33988648Y-34996960D01*
X33994883Y-35008395D01*
X34018732Y-35008395D01*
X34018086Y-35002675D01*
X34004401Y-34994413D01*
X33990067Y-34983066D01*
X33987467Y-34972259D01*
X33981991Y-34957545D01*
X33973780Y-34954533D01*
X33964219Y-34950054D01*
X33965197Y-34935483D01*
X33969359Y-34915795D01*
X33970418Y-34905850D01*
X33977972Y-34898172D01*
X33995934Y-34895266D01*
X34016099Y-34891480D01*
X34021334Y-34882566D01*
X34028392Y-34872224D01*
X34038267Y-34869866D01*
X34052058Y-34875160D01*
X34055201Y-34882566D01*
X34062136Y-34893362D01*
X34070017Y-34895382D01*
X34090359Y-34897671D01*
X34103884Y-34900603D01*
X34118426Y-34901585D01*
X34122854Y-34891125D01*
X34122934Y-34887787D01*
X34128403Y-34873331D01*
X34140055Y-34870644D01*
X34150757Y-34881035D01*
X34151396Y-34882566D01*
X34162711Y-34893830D01*
X34169235Y-34895266D01*
X34180630Y-34888607D01*
X34182201Y-34882566D01*
X34187793Y-34873736D01*
X34206331Y-34870097D01*
X34216067Y-34869866D01*
X34238555Y-34872572D01*
X34249273Y-34879082D01*
X34246496Y-34886990D01*
X34232591Y-34892921D01*
X34219591Y-34901817D01*
X34217774Y-34910476D01*
X34225899Y-34924664D01*
X34237891Y-34925739D01*
X34247174Y-34913302D01*
X34247461Y-34912274D01*
X34253712Y-34899566D01*
X34266689Y-34896989D01*
X34278035Y-34898770D01*
X34301495Y-34905110D01*
X34308831Y-34912012D01*
X34300847Y-34920379D01*
X34298547Y-34921722D01*
X34286627Y-34933672D01*
X34284653Y-34946582D01*
X34293017Y-34954191D01*
X34296501Y-34954533D01*
X34307471Y-34947675D01*
X34309201Y-34940756D01*
X34311991Y-34932722D01*
X34322960Y-34929612D01*
X34346002Y-34930539D01*
X34351720Y-34931064D01*
X34376929Y-34934195D01*
X34394305Y-34937673D01*
X34398529Y-34939439D01*
X34402441Y-34949714D01*
X34407263Y-34970564D01*
X34409160Y-34980881D01*
X34414992Y-35004987D01*
X34423180Y-35016019D01*
X34432201Y-35018033D01*
X34444819Y-35013669D01*
X34446784Y-35007450D01*
X34451539Y-34998171D01*
X34457367Y-34996866D01*
X34468607Y-35001665D01*
X34467714Y-35011626D01*
X34457367Y-35019205D01*
X34446058Y-35030490D01*
X34447254Y-35045435D01*
X34454080Y-35052485D01*
X34465016Y-35051714D01*
X34473439Y-35041591D01*
X34473440Y-35029354D01*
X34473242Y-35029021D01*
X34476740Y-35023678D01*
X34486501Y-35022266D01*
X34500988Y-35028001D01*
X34503934Y-35039200D01*
X34509921Y-35053350D01*
X34520867Y-35056133D01*
X34534887Y-35061979D01*
X34537801Y-35073859D01*
X34545060Y-35090762D01*
X34554734Y-35096013D01*
X34568459Y-35102715D01*
X34571667Y-35107921D01*
X34700271Y-35107921D01*
X34700602Y-35098840D01*
X34701320Y-35093865D01*
X34709285Y-35072306D01*
X34724084Y-35049704D01*
X34741458Y-35031330D01*
X34757148Y-35022453D01*
X34759170Y-35022266D01*
X34765048Y-35015165D01*
X34766400Y-35005333D01*
X34771281Y-34991601D01*
X34778113Y-34988400D01*
X34789485Y-34981306D01*
X34794254Y-34971466D01*
X34803165Y-34957701D01*
X34811346Y-34954533D01*
X34823307Y-34947473D01*
X34833568Y-34931250D01*
X34849334Y-34899870D01*
X34869163Y-34870163D01*
X34889995Y-34845864D01*
X34908768Y-34830711D01*
X34918561Y-34827533D01*
X34925195Y-34821479D01*
X34923905Y-34814050D01*
X34925539Y-34801133D01*
X34934916Y-34796334D01*
X34950270Y-34785330D01*
X34950580Y-34784727D01*
X34915071Y-34784727D01*
X34912926Y-34788252D01*
X34900636Y-34793403D01*
X34893646Y-34784341D01*
X34893400Y-34780966D01*
X34897707Y-34769695D01*
X34901367Y-34768266D01*
X34912423Y-34773869D01*
X34915071Y-34784727D01*
X34950580Y-34784727D01*
X34955558Y-34775058D01*
X34963763Y-34762800D01*
X34974783Y-34764005D01*
X34983515Y-34777171D01*
X34985006Y-34783746D01*
X34991419Y-34798301D01*
X34998643Y-34802133D01*
X35006137Y-34810163D01*
X35012439Y-34832543D01*
X35017143Y-34866708D01*
X35019841Y-34910091D01*
X35020327Y-34938729D01*
X35217227Y-34938729D01*
X35219570Y-34937746D01*
X35222417Y-34937600D01*
X35236805Y-34940937D01*
X35240534Y-34946066D01*
X35631007Y-34946066D01*
X35630000Y-34944286D01*
X35637057Y-34935733D01*
X35646934Y-34931586D01*
X35659806Y-34920898D01*
X35662567Y-34910789D01*
X35376000Y-34910789D01*
X35369123Y-34917054D01*
X35363300Y-34917844D01*
X35352023Y-34914023D01*
X35350600Y-34910789D01*
X35357478Y-34904523D01*
X35363300Y-34903733D01*
X35374578Y-34907554D01*
X35376000Y-34910789D01*
X35662567Y-34910789D01*
X35664895Y-34902266D01*
X35662205Y-34883066D01*
X35265934Y-34883066D01*
X35261829Y-34891830D01*
X35257467Y-34891033D01*
X35249323Y-34880209D01*
X35249000Y-34877833D01*
X35255458Y-34870095D01*
X35257467Y-34869866D01*
X35264898Y-34876758D01*
X35265934Y-34883066D01*
X35662205Y-34883066D01*
X35662153Y-34882698D01*
X35651536Y-34869205D01*
X35647351Y-34867522D01*
X35638964Y-34863835D01*
X35634571Y-34855780D01*
X35633841Y-34844466D01*
X35604600Y-34844466D01*
X35597340Y-34850777D01*
X35582934Y-34852933D01*
X35568529Y-34850246D01*
X35566500Y-34844466D01*
X35578442Y-34837354D01*
X35588167Y-34836000D01*
X35601651Y-34839642D01*
X35604600Y-34844466D01*
X35633841Y-34844466D01*
X35633523Y-34839555D01*
X35635175Y-34811358D01*
X35636023Y-34800918D01*
X35639924Y-34769401D01*
X35645374Y-34744351D01*
X35647148Y-34740246D01*
X35400758Y-34740246D01*
X35399875Y-34752140D01*
X35392112Y-34761615D01*
X35390817Y-34762168D01*
X35379060Y-34764081D01*
X35378566Y-34755140D01*
X35380940Y-34748312D01*
X35389209Y-34736376D01*
X35393840Y-34734400D01*
X35400758Y-34740246D01*
X35647148Y-34740246D01*
X35651262Y-34730732D01*
X35651861Y-34730166D01*
X35655560Y-34721700D01*
X35401400Y-34721700D01*
X35397167Y-34725933D01*
X35392934Y-34721700D01*
X35397167Y-34717466D01*
X35401400Y-34721700D01*
X35655560Y-34721700D01*
X35657159Y-34718043D01*
X35661509Y-34694069D01*
X35664604Y-34663316D01*
X35666136Y-34630856D01*
X35665800Y-34601758D01*
X35663287Y-34581094D01*
X35661211Y-34575650D01*
X35648512Y-34567987D01*
X35629501Y-34565067D01*
X35611884Y-34562569D01*
X35604600Y-34556600D01*
X35612053Y-34551045D01*
X35630421Y-34548222D01*
X35634790Y-34548133D01*
X35669301Y-34544068D01*
X35689890Y-34531394D01*
X35695905Y-34514267D01*
X35240534Y-34514267D01*
X35239637Y-34535950D01*
X35234098Y-34545586D01*
X35219645Y-34548057D01*
X35210900Y-34548133D01*
X35188688Y-34550653D01*
X35182282Y-34558828D01*
X35191233Y-34573581D01*
X35196008Y-34578598D01*
X35205007Y-34590808D01*
X35200094Y-34596891D01*
X35200090Y-34596892D01*
X35185461Y-34605573D01*
X35176883Y-34612994D01*
X35166795Y-34620189D01*
X35163739Y-34618588D01*
X35160624Y-34619406D01*
X35155867Y-34628567D01*
X35152155Y-34645265D01*
X35149338Y-34672989D01*
X35148007Y-34705836D01*
X35147996Y-34706883D01*
X35146573Y-34741995D01*
X35142944Y-34761912D01*
X35136810Y-34768266D01*
X35136737Y-34768266D01*
X35124318Y-34774745D01*
X35115499Y-34785200D01*
X35104052Y-34798441D01*
X35096529Y-34802133D01*
X35089708Y-34795041D01*
X35088134Y-34785200D01*
X35093428Y-34771409D01*
X35100834Y-34768266D01*
X35111177Y-34761208D01*
X35113534Y-34751333D01*
X35108240Y-34737543D01*
X35100834Y-34734400D01*
X35090422Y-34727387D01*
X35088134Y-34718055D01*
X35087848Y-34717466D01*
X35011934Y-34717466D01*
X35005491Y-34725687D01*
X35003467Y-34725933D01*
X34995247Y-34719490D01*
X34995000Y-34717466D01*
X35001443Y-34709246D01*
X35003467Y-34709000D01*
X35011688Y-34715443D01*
X35011934Y-34717466D01*
X35087848Y-34717466D01*
X35080995Y-34703377D01*
X35069084Y-34699005D01*
X35055111Y-34694565D01*
X35052150Y-34689950D01*
X35053671Y-34677613D01*
X35054267Y-34658200D01*
X35057881Y-34638416D01*
X35066294Y-34632800D01*
X35076344Y-34625469D01*
X35083811Y-34607802D01*
X35083889Y-34607450D01*
X35091094Y-34587334D01*
X35100017Y-34575700D01*
X35111968Y-34562607D01*
X35116023Y-34554483D01*
X35126710Y-34541945D01*
X35134435Y-34539667D01*
X35145834Y-34533220D01*
X35147400Y-34527387D01*
X35153994Y-34513023D01*
X35160402Y-34507832D01*
X35171961Y-34494778D01*
X35179913Y-34476213D01*
X35188887Y-34456031D01*
X35199764Y-34448387D01*
X35209344Y-34454623D01*
X35212447Y-34462574D01*
X35220848Y-34476804D01*
X35228821Y-34480400D01*
X35237267Y-34487513D01*
X35240480Y-34509591D01*
X35240534Y-34514267D01*
X35695905Y-34514267D01*
X35697618Y-34509392D01*
X35697734Y-34505502D01*
X35695415Y-34487795D01*
X35689838Y-34480400D01*
X35689818Y-34480400D01*
X35676793Y-34477602D01*
X35658068Y-34471301D01*
X35642262Y-34464321D01*
X35642050Y-34463467D01*
X35562267Y-34463467D01*
X35555410Y-34470978D01*
X35549567Y-34471933D01*
X35538300Y-34467361D01*
X35536867Y-34463467D01*
X35543725Y-34455955D01*
X35549567Y-34455000D01*
X35560834Y-34459572D01*
X35562267Y-34463467D01*
X35642050Y-34463467D01*
X35640794Y-34458415D01*
X35650139Y-34450521D01*
X35661907Y-34433429D01*
X35661727Y-34430137D01*
X35465381Y-34430137D01*
X35457592Y-34439791D01*
X35438237Y-34444889D01*
X35419425Y-34449186D01*
X35410082Y-34460863D01*
X35406104Y-34476639D01*
X35398410Y-34498414D01*
X35388484Y-34506221D01*
X35379911Y-34499861D01*
X35376277Y-34479137D01*
X35376282Y-34478283D01*
X35382982Y-34446270D01*
X35400580Y-34423970D01*
X35426433Y-34414171D01*
X35437077Y-34414224D01*
X35458492Y-34420257D01*
X35465381Y-34430137D01*
X35661727Y-34430137D01*
X35661186Y-34420261D01*
X35658885Y-34393385D01*
X35664510Y-34369058D01*
X35676315Y-34353198D01*
X35681709Y-34350709D01*
X35694979Y-34341723D01*
X35697734Y-34334013D01*
X35699712Y-34330663D01*
X35562851Y-34330663D01*
X35559307Y-34344379D01*
X35556623Y-34347755D01*
X35544447Y-34353165D01*
X35537424Y-34343646D01*
X35536867Y-34337372D01*
X35542760Y-34321597D01*
X35549567Y-34316471D01*
X35559062Y-34318956D01*
X35562851Y-34330663D01*
X35699712Y-34330663D01*
X35704834Y-34321991D01*
X35714667Y-34317080D01*
X35729001Y-34305733D01*
X35731601Y-34294926D01*
X35735883Y-34280079D01*
X35745075Y-34278791D01*
X35753691Y-34291250D01*
X35754547Y-34294133D01*
X35758588Y-34307985D01*
X35760105Y-34311497D01*
X35768358Y-34312611D01*
X35787935Y-34314932D01*
X35799334Y-34316235D01*
X35831896Y-34320662D01*
X35849979Y-34325348D01*
X35856023Y-34331177D01*
X35854505Y-34336243D01*
X35858545Y-34342634D01*
X35875330Y-34348497D01*
X35883602Y-34350085D01*
X35905303Y-34355931D01*
X35917066Y-34363830D01*
X35917867Y-34366329D01*
X35925940Y-34373921D01*
X35948888Y-34379060D01*
X35984804Y-34381556D01*
X36031781Y-34381215D01*
X36054920Y-34380148D01*
X36088073Y-34377171D01*
X36106553Y-34372513D01*
X36112586Y-34365595D01*
X36112601Y-34365144D01*
X36119656Y-34355620D01*
X36129534Y-34353400D01*
X36143324Y-34358694D01*
X36146467Y-34366100D01*
X36150648Y-34373759D01*
X36165317Y-34377702D01*
X36193034Y-34378800D01*
X36220717Y-34377774D01*
X36235057Y-34374020D01*
X36239556Y-34366524D01*
X36239600Y-34365307D01*
X36246681Y-34352307D01*
X36255751Y-34347591D01*
X36271086Y-34336594D01*
X36276348Y-34326365D01*
X36283239Y-34314982D01*
X36289406Y-34314685D01*
X36299419Y-34312506D01*
X36307207Y-34302837D01*
X36323951Y-34288452D01*
X36340511Y-34285667D01*
X36361132Y-34280943D01*
X36368895Y-34269341D01*
X36369396Y-34268733D01*
X35562267Y-34268733D01*
X35556973Y-34282524D01*
X35549567Y-34285667D01*
X35539224Y-34278608D01*
X35536867Y-34268733D01*
X35542161Y-34254943D01*
X35549567Y-34251800D01*
X35559910Y-34258858D01*
X35562267Y-34268733D01*
X36369396Y-34268733D01*
X36380231Y-34255611D01*
X36400980Y-34250291D01*
X36422289Y-34245153D01*
X36431696Y-34236854D01*
X36427507Y-34228217D01*
X36416855Y-34223804D01*
X36404014Y-34215030D01*
X36404659Y-34203201D01*
X36418091Y-34194509D01*
X36420219Y-34194029D01*
X36432303Y-34197777D01*
X36434334Y-34205233D01*
X36440410Y-34215947D01*
X36447481Y-34216437D01*
X36458384Y-34210145D01*
X36459458Y-34206180D01*
X36465217Y-34194781D01*
X36483213Y-34186717D01*
X36504184Y-34184196D01*
X36521699Y-34180951D01*
X36526705Y-34170661D01*
X36375067Y-34170661D01*
X36368165Y-34182704D01*
X36351700Y-34188810D01*
X36332033Y-34188796D01*
X36315528Y-34182482D01*
X36308830Y-34172552D01*
X36309155Y-34170796D01*
X36273467Y-34170796D01*
X36266416Y-34182868D01*
X36256534Y-34188300D01*
X36242805Y-34197708D01*
X36239600Y-34205804D01*
X36232811Y-34216531D01*
X36226900Y-34217933D01*
X36215739Y-34211135D01*
X36214200Y-34204967D01*
X36221050Y-34190840D01*
X36226900Y-34187128D01*
X36238153Y-34176468D01*
X36239600Y-34170461D01*
X36239973Y-34169955D01*
X36112601Y-34169955D01*
X36107265Y-34186085D01*
X36095613Y-34190617D01*
X36084180Y-34182980D01*
X36080230Y-34172782D01*
X36083821Y-34161121D01*
X36095046Y-34158667D01*
X36109117Y-34163226D01*
X36112601Y-34169955D01*
X36239973Y-34169955D01*
X36246655Y-34160896D01*
X36256534Y-34158667D01*
X36270262Y-34163717D01*
X36273467Y-34170796D01*
X36309155Y-34170796D01*
X36310516Y-34163468D01*
X36322746Y-34159388D01*
X36340580Y-34158667D01*
X36364936Y-34160922D01*
X36374698Y-34168103D01*
X36375067Y-34170661D01*
X36526705Y-34170661D01*
X36527371Y-34169294D01*
X36527467Y-34166341D01*
X36534526Y-34149579D01*
X36543921Y-34144312D01*
X36551988Y-34137719D01*
X36431350Y-34137719D01*
X36430556Y-34149462D01*
X36418938Y-34157854D01*
X36406220Y-34156449D01*
X36400467Y-34146466D01*
X36406108Y-34131736D01*
X36409672Y-34128577D01*
X36422352Y-34128195D01*
X36431350Y-34137719D01*
X36551988Y-34137719D01*
X36558234Y-34132615D01*
X36562971Y-34117857D01*
X36569609Y-34100249D01*
X36587340Y-34089672D01*
X36593568Y-34087722D01*
X36615295Y-34077428D01*
X36619708Y-34069767D01*
X36612134Y-34069767D01*
X36607900Y-34074000D01*
X36603667Y-34069767D01*
X36607900Y-34065533D01*
X36612134Y-34069767D01*
X36619708Y-34069767D01*
X36625421Y-34059853D01*
X36626377Y-34055703D01*
X36630002Y-34048600D01*
X36459734Y-34048600D01*
X36453291Y-34056820D01*
X36451267Y-34057067D01*
X36443047Y-34050624D01*
X36442800Y-34048600D01*
X36443358Y-34047888D01*
X36399422Y-34047888D01*
X36393142Y-34055400D01*
X36375417Y-34057051D01*
X36370578Y-34057067D01*
X36348122Y-34059487D01*
X36337305Y-34068279D01*
X36335187Y-34074000D01*
X36324453Y-34086584D01*
X36305312Y-34091215D01*
X36284425Y-34087667D01*
X36268815Y-34076229D01*
X36259805Y-34066388D01*
X36250965Y-34068477D01*
X36241815Y-34076229D01*
X36223146Y-34085417D01*
X36195439Y-34090664D01*
X36164147Y-34091973D01*
X36134721Y-34089350D01*
X36112615Y-34082799D01*
X36104555Y-34076117D01*
X36096660Y-34066084D01*
X36090011Y-34070841D01*
X36087517Y-34074800D01*
X36074325Y-34084123D01*
X36047530Y-34088998D01*
X36032483Y-34089832D01*
X36005557Y-34090053D01*
X35991476Y-34087556D01*
X35986209Y-34080995D01*
X35985880Y-34077316D01*
X35951976Y-34077316D01*
X35944250Y-34088598D01*
X35934801Y-34090933D01*
X35920745Y-34096568D01*
X35917867Y-34104426D01*
X35924975Y-34117257D01*
X35934801Y-34122347D01*
X35949351Y-34132105D01*
X35950347Y-34146689D01*
X35945599Y-34153512D01*
X35933356Y-34156566D01*
X35922316Y-34155039D01*
X35903110Y-34151124D01*
X35894584Y-34150315D01*
X35885002Y-34143457D01*
X35884001Y-34138487D01*
X35876906Y-34127121D01*
X35867032Y-34122337D01*
X35854063Y-34114623D01*
X35854540Y-34104518D01*
X35866022Y-34095488D01*
X35886068Y-34091002D01*
X35889140Y-34090933D01*
X35911116Y-34087726D01*
X35917867Y-34079139D01*
X35923997Y-34067057D01*
X35936774Y-34060676D01*
X35946673Y-34063294D01*
X35951976Y-34077316D01*
X35985880Y-34077316D01*
X35985601Y-34074215D01*
X35991479Y-34059917D01*
X36002534Y-34057067D01*
X36016589Y-34051432D01*
X36019467Y-34043574D01*
X36018734Y-34042250D01*
X35789255Y-34042250D01*
X35786310Y-34054251D01*
X35773934Y-34057067D01*
X35760038Y-34052781D01*
X35758612Y-34042250D01*
X35766961Y-34029654D01*
X35773934Y-34027433D01*
X35785889Y-34034472D01*
X35789255Y-34042250D01*
X36018734Y-34042250D01*
X36012359Y-34030743D01*
X36002534Y-34025653D01*
X35988774Y-34017148D01*
X35985601Y-34009512D01*
X35992656Y-34000014D01*
X36002534Y-33997800D01*
X36016324Y-34003094D01*
X36019467Y-34010500D01*
X36027295Y-34020791D01*
X36046984Y-34024648D01*
X36070311Y-34026238D01*
X36087201Y-34027981D01*
X36105128Y-34029737D01*
X36123184Y-34030767D01*
X36141596Y-34035603D01*
X36146467Y-34044367D01*
X36153244Y-34055591D01*
X36159167Y-34057067D01*
X36170402Y-34050722D01*
X36171867Y-34045209D01*
X36176047Y-34039100D01*
X36190246Y-34034852D01*
X36216950Y-34031982D01*
X36247911Y-34030392D01*
X36285130Y-34028474D01*
X36309244Y-34025615D01*
X36324082Y-34020897D01*
X36333472Y-34013405D01*
X36336783Y-34009108D01*
X36350419Y-33996223D01*
X36368614Y-33995916D01*
X36372923Y-33996966D01*
X36390483Y-34005652D01*
X36397955Y-34022962D01*
X36398887Y-34030108D01*
X36399422Y-34047888D01*
X36443358Y-34047888D01*
X36449243Y-34040379D01*
X36451267Y-34040133D01*
X36459488Y-34046576D01*
X36459734Y-34048600D01*
X36630002Y-34048600D01*
X36635493Y-34037845D01*
X36650068Y-34030989D01*
X36664580Y-34037028D01*
X36667976Y-34041441D01*
X36668974Y-34047235D01*
X36664242Y-34045175D01*
X36655534Y-34044698D01*
X36654467Y-34048100D01*
X36661317Y-34056052D01*
X36667167Y-34057067D01*
X36678409Y-34052023D01*
X36677024Y-34039263D01*
X36667089Y-34026146D01*
X36658603Y-34010913D01*
X36665536Y-34000556D01*
X36680367Y-33997800D01*
X36694161Y-33991571D01*
X36696800Y-33980867D01*
X36700922Y-33966298D01*
X36712396Y-33966483D01*
X36724877Y-33976286D01*
X36741514Y-33982710D01*
X36761186Y-33977972D01*
X36777355Y-33964877D01*
X36783254Y-33951233D01*
X36792833Y-33936485D01*
X36808984Y-33931621D01*
X36826398Y-33925728D01*
X36832267Y-33916804D01*
X36837022Y-33905903D01*
X36840734Y-33904667D01*
X36847749Y-33897621D01*
X36848778Y-33891313D01*
X36812590Y-33891313D01*
X36803339Y-33896200D01*
X36791676Y-33889383D01*
X36789934Y-33882794D01*
X36794857Y-33872920D01*
X36799988Y-33872740D01*
X36811169Y-33881167D01*
X36812590Y-33891313D01*
X36848778Y-33891313D01*
X36849201Y-33888721D01*
X36856352Y-33873822D01*
X36866134Y-33868347D01*
X36878362Y-33860371D01*
X36882870Y-33842144D01*
X36883067Y-33834480D01*
X36885815Y-33812502D01*
X36895622Y-33802102D01*
X36900000Y-33800613D01*
X36914322Y-33791163D01*
X36915078Y-33778054D01*
X36902427Y-33767550D01*
X36899149Y-33766524D01*
X36887374Y-33759504D01*
X36886948Y-33752836D01*
X36896695Y-33746397D01*
X36910768Y-33743868D01*
X36921632Y-33745806D01*
X36923284Y-33750150D01*
X36927477Y-33758162D01*
X36929634Y-33759064D01*
X36938389Y-33754613D01*
X36940838Y-33748480D01*
X36936845Y-33737133D01*
X36930520Y-33735333D01*
X36921225Y-33731185D01*
X36923208Y-33721796D01*
X36933957Y-33711747D01*
X36946334Y-33706515D01*
X36964949Y-33693831D01*
X36975204Y-33675286D01*
X36980232Y-33656869D01*
X36980173Y-33656718D01*
X36949251Y-33656718D01*
X36948616Y-33664008D01*
X36947051Y-33666817D01*
X36935529Y-33670801D01*
X36907819Y-33672247D01*
X36864480Y-33671137D01*
X36848389Y-33670295D01*
X36807652Y-33668114D01*
X36780724Y-33667411D01*
X36764514Y-33668595D01*
X36755930Y-33672072D01*
X36751882Y-33678250D01*
X36750399Y-33683214D01*
X36742652Y-33696366D01*
X36725490Y-33701208D01*
X36716980Y-33701467D01*
X36688334Y-33701467D01*
X36688334Y-33752267D01*
X36687204Y-33782434D01*
X36683398Y-33798473D01*
X36676540Y-33803067D01*
X36663723Y-33809858D01*
X36656499Y-33830917D01*
X36654467Y-33863026D01*
X36652154Y-33886605D01*
X36644705Y-33895876D01*
X36642151Y-33896200D01*
X36631940Y-33903966D01*
X36624541Y-33924468D01*
X36624275Y-33925833D01*
X36616947Y-33947200D01*
X36606482Y-33955460D01*
X36606166Y-33955467D01*
X36593950Y-33962540D01*
X36589392Y-33971617D01*
X36578345Y-33987188D01*
X36569018Y-33991991D01*
X36555674Y-34001396D01*
X36552867Y-34009707D01*
X36548250Y-34021202D01*
X36539603Y-34021944D01*
X36534853Y-34012617D01*
X36533094Y-33995765D01*
X36531808Y-33983660D01*
X36536141Y-33966585D01*
X36544982Y-33961328D01*
X36557846Y-33949461D01*
X36559472Y-33942767D01*
X36519000Y-33942767D01*
X36514767Y-33947000D01*
X36510534Y-33942767D01*
X36514767Y-33938533D01*
X36519000Y-33942767D01*
X36559472Y-33942767D01*
X36562843Y-33928901D01*
X36568461Y-33907159D01*
X36578267Y-33900433D01*
X36588558Y-33892509D01*
X36593543Y-33869551D01*
X36598796Y-33845825D01*
X36610559Y-33834982D01*
X36612593Y-33834360D01*
X36624568Y-33826171D01*
X36628918Y-33807286D01*
X36629067Y-33800613D01*
X36631815Y-33778635D01*
X36641622Y-33768235D01*
X36646000Y-33766747D01*
X36659748Y-33758950D01*
X36662934Y-33752267D01*
X36655857Y-33742255D01*
X36646000Y-33737786D01*
X36632275Y-33731085D01*
X36629067Y-33725879D01*
X36622532Y-33718681D01*
X36620101Y-33718400D01*
X36615044Y-33723587D01*
X36616367Y-33726867D01*
X36612790Y-33732628D01*
X36595541Y-33735271D01*
X36591467Y-33735333D01*
X36569352Y-33732673D01*
X36561426Y-33724135D01*
X36561334Y-33722633D01*
X36554275Y-33712290D01*
X36544400Y-33709933D01*
X36530610Y-33715227D01*
X36527467Y-33722633D01*
X36520437Y-33732981D01*
X36510800Y-33735333D01*
X36499871Y-33730178D01*
X36500361Y-33717522D01*
X36511462Y-33701575D01*
X36518476Y-33695386D01*
X36527287Y-33687260D01*
X36522202Y-33684931D01*
X36518577Y-33684802D01*
X36501018Y-33690166D01*
X36495914Y-33694073D01*
X36480130Y-33699534D01*
X36462912Y-33697725D01*
X36448541Y-33691820D01*
X36449137Y-33685850D01*
X36449194Y-33685814D01*
X36456492Y-33674289D01*
X36463021Y-33652694D01*
X36464651Y-33644063D01*
X36469287Y-33621606D01*
X36476531Y-33611294D01*
X36490825Y-33608439D01*
X36498495Y-33608333D01*
X36499829Y-33608075D01*
X36270761Y-33608075D01*
X36270486Y-33630598D01*
X36269256Y-33668013D01*
X36266803Y-33690930D01*
X36262712Y-33701762D01*
X36257921Y-33703340D01*
X36247061Y-33708360D01*
X36242117Y-33718157D01*
X36233541Y-33732168D01*
X36222379Y-33734274D01*
X36214837Y-33724422D01*
X36214200Y-33718400D01*
X36208155Y-33704185D01*
X36197778Y-33701467D01*
X36186206Y-33697557D01*
X36180352Y-33683095D01*
X36178728Y-33669787D01*
X36172972Y-33647579D01*
X36162478Y-33635077D01*
X36150834Y-33634150D01*
X36141625Y-33646667D01*
X36140646Y-33649930D01*
X36132536Y-33662866D01*
X36114348Y-33667448D01*
X36107950Y-33667600D01*
X36085836Y-33670981D01*
X36075180Y-33682598D01*
X36074501Y-33684533D01*
X36066899Y-33698216D01*
X36061230Y-33701467D01*
X36054813Y-33694370D01*
X36053334Y-33684533D01*
X36047288Y-33670318D01*
X36036912Y-33667600D01*
X36025352Y-33663702D01*
X36019499Y-33649272D01*
X36017862Y-33635850D01*
X36014842Y-33615083D01*
X36007828Y-33606600D01*
X35992823Y-33605753D01*
X35992031Y-33605810D01*
X35969315Y-33601299D01*
X35959983Y-33590993D01*
X35945968Y-33577637D01*
X35934503Y-33574467D01*
X35920943Y-33569101D01*
X35917867Y-33561767D01*
X35925000Y-33551443D01*
X35935593Y-33549067D01*
X35952496Y-33541807D01*
X35957747Y-33532133D01*
X35966252Y-33518373D01*
X35973888Y-33515200D01*
X35984474Y-33508484D01*
X35985601Y-33503487D01*
X35992694Y-33492115D01*
X36002534Y-33487347D01*
X36014569Y-33479656D01*
X36019179Y-33462045D01*
X36019467Y-33452492D01*
X36021828Y-33430745D01*
X36029790Y-33422405D01*
X36032960Y-33422066D01*
X36045791Y-33414959D01*
X36050881Y-33405133D01*
X36059724Y-33391369D01*
X36067814Y-33388200D01*
X36079836Y-33381099D01*
X36084747Y-33371266D01*
X36090574Y-33360695D01*
X36103879Y-33355637D01*
X36129316Y-33354333D01*
X36129534Y-33354333D01*
X36155066Y-33355618D01*
X36168436Y-33360645D01*
X36174296Y-33371175D01*
X36174320Y-33371266D01*
X36183585Y-33385036D01*
X36192241Y-33388200D01*
X36201885Y-33393524D01*
X36205584Y-33411478D01*
X36205734Y-33418626D01*
X36208263Y-33440912D01*
X36217393Y-33451583D01*
X36222667Y-33453480D01*
X36232791Y-33458831D01*
X36237903Y-33470991D01*
X36239549Y-33494433D01*
X36239600Y-33502500D01*
X36240697Y-33529635D01*
X36244941Y-33544265D01*
X36253760Y-33550732D01*
X36255669Y-33551294D01*
X36263374Y-33554987D01*
X36268032Y-33563405D01*
X36270281Y-33579963D01*
X36270761Y-33608075D01*
X36499829Y-33608075D01*
X36523801Y-33603439D01*
X36535043Y-33593517D01*
X36543887Y-33583665D01*
X36556272Y-33586671D01*
X36560749Y-33589283D01*
X36578867Y-33597918D01*
X36590495Y-33599110D01*
X36591639Y-33592580D01*
X36590967Y-33591400D01*
X36595605Y-33586576D01*
X36615492Y-33583681D01*
X36641267Y-33582933D01*
X36674140Y-33584143D01*
X36691387Y-33587917D01*
X36694684Y-33593014D01*
X36699734Y-33602987D01*
X36707384Y-33606334D01*
X36719969Y-33603576D01*
X36722200Y-33596254D01*
X36727119Y-33587139D01*
X36744008Y-33583286D01*
X36756067Y-33582933D01*
X36779616Y-33585030D01*
X36789319Y-33591982D01*
X36789934Y-33595633D01*
X36797077Y-33605954D01*
X36807773Y-33608333D01*
X36820762Y-33604606D01*
X36820739Y-33595633D01*
X36822040Y-33584710D01*
X36828300Y-33582933D01*
X36837945Y-33589323D01*
X36840384Y-33603025D01*
X36835198Y-33615837D01*
X36830151Y-33619168D01*
X36822606Y-33625073D01*
X36831123Y-33631223D01*
X36854840Y-33637272D01*
X36887300Y-33642200D01*
X36921267Y-33646915D01*
X36941026Y-33651387D01*
X36949251Y-33656718D01*
X36980173Y-33656718D01*
X36976827Y-33648201D01*
X36967583Y-33644614D01*
X36952896Y-33636584D01*
X36953023Y-33626333D01*
X36966700Y-33616958D01*
X36980434Y-33613125D01*
X37001495Y-33605946D01*
X37010043Y-33595821D01*
X37010067Y-33595250D01*
X37017443Y-33585446D01*
X37031234Y-33582933D01*
X37053193Y-33577043D01*
X37069188Y-33566145D01*
X37090182Y-33553014D01*
X37111522Y-33547411D01*
X37130123Y-33543239D01*
X37136727Y-33532152D01*
X37137067Y-33526365D01*
X37133700Y-33512505D01*
X37124367Y-33512138D01*
X37113529Y-33510720D01*
X37111667Y-33503406D01*
X37117420Y-33492208D01*
X37129662Y-33490736D01*
X37140867Y-33499209D01*
X37142472Y-33502500D01*
X37151811Y-33510708D01*
X37173504Y-33514626D01*
X37193006Y-33515200D01*
X37219520Y-33514479D01*
X37233214Y-33511260D01*
X37238177Y-33503953D01*
X37238667Y-33497474D01*
X37231408Y-33480571D01*
X37221734Y-33475320D01*
X37207132Y-33469229D01*
X37208272Y-33460874D01*
X37219617Y-33451199D01*
X37229910Y-33442226D01*
X37234911Y-33431051D01*
X37237226Y-33411003D01*
X37237609Y-33405133D01*
X37244997Y-33390847D01*
X37255600Y-33388200D01*
X37266801Y-33385267D01*
X37271664Y-33373497D01*
X37271830Y-33370000D01*
X37136737Y-33370000D01*
X37131957Y-33384059D01*
X37124867Y-33388200D01*
X37111473Y-33384407D01*
X37108928Y-33381850D01*
X37108141Y-33369533D01*
X37113590Y-33354273D01*
X37121904Y-33342993D01*
X37128529Y-33341589D01*
X37135797Y-33353266D01*
X37136737Y-33370000D01*
X37271830Y-33370000D01*
X37272534Y-33355274D01*
X37274135Y-33333411D01*
X37280156Y-33324372D01*
X37287346Y-33323524D01*
X37300640Y-33317397D01*
X37304869Y-33305650D01*
X37310058Y-33292360D01*
X37323870Y-33287151D01*
X37336623Y-33286600D01*
X37356093Y-33285250D01*
X37364079Y-33277741D01*
X37365664Y-33258885D01*
X37365667Y-33256966D01*
X37368668Y-33234579D01*
X37377797Y-33227333D01*
X37389869Y-33220282D01*
X37395300Y-33210400D01*
X37405049Y-33196663D01*
X37413597Y-33193466D01*
X37425960Y-33186363D01*
X37430947Y-33176533D01*
X37439452Y-33162773D01*
X37447088Y-33159600D01*
X37455996Y-33151741D01*
X37458800Y-33129966D01*
X37454853Y-33109459D01*
X37445531Y-33099544D01*
X37434616Y-33102301D01*
X37427996Y-33113033D01*
X37417461Y-33124545D01*
X37404323Y-33122386D01*
X37395438Y-33109232D01*
X37386145Y-33097382D01*
X37377934Y-33097438D01*
X37366780Y-33107612D01*
X37368307Y-33119488D01*
X37381299Y-33125701D01*
X37382601Y-33125733D01*
X37396751Y-33131720D01*
X37399534Y-33142666D01*
X37393899Y-33156722D01*
X37386041Y-33159600D01*
X37373210Y-33166708D01*
X37368120Y-33176533D01*
X37359277Y-33190298D01*
X37351187Y-33193467D01*
X37339165Y-33200567D01*
X37334254Y-33210400D01*
X37324344Y-33224177D01*
X37314820Y-33227333D01*
X37302512Y-33233776D01*
X37300991Y-33242150D01*
X37295911Y-33254294D01*
X37287609Y-33255834D01*
X37273400Y-33261850D01*
X37267988Y-33270650D01*
X37258460Y-33283848D01*
X37250797Y-33286600D01*
X37239911Y-33291985D01*
X37238667Y-33296212D01*
X37232945Y-33308015D01*
X37218977Y-33324035D01*
X37217064Y-33325846D01*
X37198673Y-33337786D01*
X37177191Y-33344947D01*
X37157193Y-33346932D01*
X37143257Y-33343345D01*
X37139956Y-33333792D01*
X37140395Y-33332474D01*
X37144888Y-33318681D01*
X37145534Y-33315041D01*
X37151107Y-33314794D01*
X37154908Y-33316794D01*
X37159992Y-33315712D01*
X37157692Y-33301137D01*
X37147880Y-33272265D01*
X37147699Y-33271783D01*
X37150826Y-33262760D01*
X37157328Y-33261200D01*
X37168633Y-33254122D01*
X37170934Y-33244001D01*
X37176451Y-33227720D01*
X37183634Y-33221928D01*
X37193599Y-33212841D01*
X37195030Y-33205934D01*
X37005802Y-33205934D01*
X37000780Y-33215622D01*
X36989828Y-33226219D01*
X36985280Y-33221584D01*
X36984667Y-33210666D01*
X36988704Y-33198563D01*
X36997583Y-33198954D01*
X37005802Y-33205934D01*
X37195030Y-33205934D01*
X37196077Y-33200886D01*
X37189935Y-33193674D01*
X37187867Y-33193466D01*
X37180988Y-33186375D01*
X37179400Y-33176533D01*
X37184856Y-33162611D01*
X37192455Y-33159600D01*
X37207845Y-33154168D01*
X37223684Y-33142667D01*
X37242057Y-33130197D01*
X37257197Y-33125733D01*
X37269936Y-33120542D01*
X37271207Y-33108635D01*
X37267260Y-33103422D01*
X37236759Y-33103422D01*
X37229903Y-33117823D01*
X37220219Y-33132124D01*
X37214837Y-33130101D01*
X37213817Y-33119008D01*
X37007738Y-33119008D01*
X36993279Y-33128148D01*
X36993134Y-33128186D01*
X36979364Y-33137451D01*
X36976201Y-33146107D01*
X36969764Y-33157833D01*
X36963501Y-33159600D01*
X36957509Y-33162447D01*
X36953680Y-33172861D01*
X36951577Y-33193652D01*
X36950766Y-33227628D01*
X36950707Y-33242150D01*
X36949553Y-33302562D01*
X36946202Y-33346611D01*
X36940592Y-33374731D01*
X36932660Y-33387359D01*
X36929468Y-33388200D01*
X36920960Y-33395602D01*
X36914092Y-33413739D01*
X36913434Y-33416900D01*
X36903761Y-33441327D01*
X36890473Y-33450197D01*
X36878836Y-33457222D01*
X36878482Y-33463830D01*
X36874534Y-33469538D01*
X36854019Y-33472459D01*
X36836208Y-33472866D01*
X36808216Y-33473746D01*
X36792776Y-33477319D01*
X36785554Y-33484989D01*
X36783920Y-33489800D01*
X36779509Y-33498906D01*
X36769620Y-33504037D01*
X36750289Y-33506282D01*
X36722200Y-33506733D01*
X36691233Y-33506133D01*
X36673212Y-33503607D01*
X36664170Y-33498067D01*
X36660481Y-33489800D01*
X36651472Y-33476915D01*
X36631151Y-33472877D01*
X36629594Y-33472866D01*
X36608210Y-33468959D01*
X36598262Y-33460166D01*
X36587602Y-33448914D01*
X36581595Y-33447466D01*
X36572030Y-33440412D01*
X36569800Y-33430533D01*
X36563728Y-33416276D01*
X36553855Y-33413600D01*
X36538956Y-33406449D01*
X36533481Y-33396666D01*
X36524216Y-33382897D01*
X36515560Y-33379733D01*
X36503843Y-33372912D01*
X36502067Y-33366241D01*
X36494959Y-33353410D01*
X36485134Y-33348320D01*
X36477330Y-33344880D01*
X36472368Y-33337320D01*
X36469614Y-33322373D01*
X36469462Y-33319055D01*
X36265000Y-33319055D01*
X36262821Y-33337493D01*
X36257532Y-33345826D01*
X36257095Y-33345866D01*
X36252691Y-33338757D01*
X36253376Y-33322774D01*
X36258382Y-33301884D01*
X36262423Y-33297087D01*
X36264732Y-33308629D01*
X36265000Y-33319055D01*
X36469462Y-33319055D01*
X36468436Y-33296773D01*
X36468200Y-33260918D01*
X36467364Y-33217676D01*
X36466837Y-33212092D01*
X36270588Y-33212092D01*
X36267558Y-33235957D01*
X36260528Y-33254241D01*
X36251242Y-33261200D01*
X36240942Y-33268000D01*
X36239600Y-33273900D01*
X36233868Y-33284579D01*
X36221401Y-33285370D01*
X36209291Y-33276156D01*
X36208222Y-33274413D01*
X36194714Y-33265835D01*
X36167490Y-33260866D01*
X36158088Y-33260249D01*
X36114774Y-33258273D01*
X36119981Y-33239412D01*
X35917867Y-33239412D01*
X35910745Y-33250404D01*
X35900228Y-33252733D01*
X35887325Y-33248688D01*
X35886113Y-33242150D01*
X35895224Y-33231607D01*
X35908026Y-33229012D01*
X35917012Y-33235012D01*
X35917867Y-33239412D01*
X36119981Y-33239412D01*
X36123053Y-33228286D01*
X36126931Y-33206166D01*
X36011001Y-33206166D01*
X36004575Y-33215560D01*
X35984066Y-33218844D01*
X35981367Y-33218866D01*
X35961777Y-33216987D01*
X35951989Y-33212366D01*
X35951734Y-33211387D01*
X35959037Y-33203937D01*
X35976469Y-33197218D01*
X35997313Y-33193686D01*
X36000417Y-33193582D01*
X36009785Y-33200289D01*
X36011001Y-33206166D01*
X36126931Y-33206166D01*
X36127049Y-33205497D01*
X36123272Y-33195613D01*
X36123197Y-33195588D01*
X36118278Y-33186334D01*
X36118788Y-33173383D01*
X36122197Y-33162136D01*
X36129792Y-33157380D01*
X36146175Y-33157868D01*
X36165567Y-33160696D01*
X36191484Y-33166568D01*
X36210160Y-33174052D01*
X36215291Y-33178297D01*
X36223338Y-33184774D01*
X36232475Y-33178579D01*
X36249410Y-33168649D01*
X36262499Y-33175018D01*
X36268270Y-33188406D01*
X36270588Y-33212092D01*
X36466837Y-33212092D01*
X36464732Y-33189792D01*
X36460124Y-33175767D01*
X36457617Y-33173674D01*
X36456908Y-33170491D01*
X36469905Y-33168747D01*
X36470317Y-33168735D01*
X36487541Y-33165304D01*
X36493335Y-33153264D01*
X36493600Y-33146900D01*
X36489184Y-33129876D01*
X36480900Y-33125733D01*
X36470558Y-33118675D01*
X36470222Y-33117266D01*
X36138001Y-33117266D01*
X36134455Y-33131025D01*
X36129534Y-33134200D01*
X36122655Y-33127109D01*
X36121067Y-33117266D01*
X36124613Y-33103508D01*
X36129534Y-33100333D01*
X36136413Y-33107424D01*
X36138001Y-33117266D01*
X36470222Y-33117266D01*
X36468200Y-33108800D01*
X36472639Y-33095058D01*
X36478834Y-33091866D01*
X36490842Y-33084346D01*
X36500594Y-33065563D01*
X36506077Y-33041189D01*
X36505343Y-33017231D01*
X36503803Y-32996655D01*
X36510971Y-32986519D01*
X36513735Y-32985258D01*
X36523275Y-32975218D01*
X36527226Y-32952806D01*
X36527467Y-32942173D01*
X36528558Y-32918689D01*
X36532900Y-32908271D01*
X36542096Y-32907133D01*
X36542284Y-32907168D01*
X36554942Y-32917617D01*
X36559963Y-32935089D01*
X36568061Y-32958917D01*
X36583449Y-32980824D01*
X36593131Y-32989518D01*
X36603839Y-32995386D01*
X36618972Y-32999015D01*
X36641931Y-33000991D01*
X36676114Y-33001900D01*
X36707472Y-33002207D01*
X36751275Y-33002778D01*
X36780948Y-33004003D01*
X36799292Y-33006293D01*
X36809110Y-33010060D01*
X36813203Y-33015713D01*
X36813723Y-33017783D01*
X36822550Y-33027547D01*
X36840210Y-33032767D01*
X36860389Y-33033251D01*
X36876772Y-33028807D01*
X36883067Y-33019900D01*
X36890126Y-33009557D01*
X36900001Y-33007200D01*
X36913791Y-33012494D01*
X36916934Y-33019900D01*
X36923711Y-33031125D01*
X36929634Y-33032600D01*
X36940671Y-33039438D01*
X36942334Y-33046092D01*
X36949442Y-33058923D01*
X36959267Y-33064013D01*
X36973032Y-33072856D01*
X36976201Y-33080947D01*
X36983301Y-33092968D01*
X36993134Y-33097880D01*
X37007689Y-33106982D01*
X37007738Y-33119008D01*
X37213817Y-33119008D01*
X37213267Y-33113033D01*
X37217683Y-33096009D01*
X37225967Y-33091866D01*
X37236704Y-33094110D01*
X37236759Y-33103422D01*
X37267260Y-33103422D01*
X37261271Y-33095513D01*
X37255600Y-33091866D01*
X37242198Y-33081386D01*
X37238667Y-33074337D01*
X37244660Y-33070687D01*
X37256044Y-33075171D01*
X37275947Y-33081115D01*
X37287794Y-33080684D01*
X37295330Y-33077636D01*
X37286647Y-33076057D01*
X37284291Y-33075915D01*
X37271337Y-33071669D01*
X37269735Y-33057900D01*
X37270315Y-33054534D01*
X37279803Y-33036905D01*
X37291392Y-33029643D01*
X37303673Y-33022216D01*
X37304494Y-33011182D01*
X37260512Y-33011182D01*
X37259834Y-33015667D01*
X37252592Y-33023735D01*
X37251367Y-33024133D01*
X37244636Y-33018228D01*
X37242900Y-33015667D01*
X37244911Y-33008494D01*
X37251367Y-33007200D01*
X37260512Y-33011182D01*
X37304494Y-33011182D01*
X37304873Y-33006101D01*
X37304298Y-33002808D01*
X37305483Y-32983406D01*
X37315221Y-32974807D01*
X37329032Y-32979488D01*
X37334884Y-32985892D01*
X37349792Y-32996544D01*
X37360426Y-32997537D01*
X37370051Y-32994226D01*
X37368065Y-32987339D01*
X37359439Y-32977567D01*
X37345235Y-32959161D01*
X37337989Y-32945817D01*
X37327141Y-32933288D01*
X37319366Y-32931000D01*
X37307754Y-32925750D01*
X37308866Y-32914996D01*
X37314185Y-32910255D01*
X37325390Y-32911759D01*
X37336276Y-32919751D01*
X37347682Y-32929371D01*
X37354530Y-32926389D01*
X37358546Y-32919829D01*
X37372831Y-32906967D01*
X37390029Y-32909790D01*
X37399534Y-32918300D01*
X37413517Y-32929759D01*
X37422833Y-32927327D01*
X37424934Y-32917800D01*
X37421226Y-32908756D01*
X37417354Y-32909285D01*
X37409094Y-32907224D01*
X37403158Y-32895773D01*
X37402874Y-32882448D01*
X37404181Y-32879530D01*
X37413668Y-32878065D01*
X37428825Y-32884987D01*
X37446791Y-32892723D01*
X37454283Y-32889127D01*
X37456937Y-32881361D01*
X37448327Y-32877963D01*
X37441185Y-32877025D01*
X37427706Y-32868591D01*
X37415095Y-32850972D01*
X37408248Y-32831432D01*
X37408001Y-32827782D01*
X37413630Y-32814917D01*
X37426968Y-32813821D01*
X37439633Y-32822086D01*
X37447389Y-32824528D01*
X37454073Y-32812830D01*
X37457038Y-32803036D01*
X37464799Y-32784681D01*
X37466874Y-32782833D01*
X36104134Y-32782833D01*
X36099901Y-32787067D01*
X36095667Y-32782833D01*
X36099901Y-32778600D01*
X36104134Y-32782833D01*
X37466874Y-32782833D01*
X37473804Y-32776664D01*
X37475241Y-32776726D01*
X37485502Y-32771777D01*
X37489946Y-32762692D01*
X37491439Y-32760559D01*
X36112601Y-32760559D01*
X36105578Y-32768523D01*
X36096876Y-32770133D01*
X36087519Y-32772720D01*
X36082649Y-32783122D01*
X36080819Y-32805298D01*
X36080650Y-32814583D01*
X36080203Y-32848097D01*
X36078863Y-32867862D01*
X36075227Y-32877055D01*
X36067893Y-32878855D01*
X36055460Y-32876438D01*
X36053540Y-32876012D01*
X36028287Y-32873811D01*
X36016059Y-32880721D01*
X36016786Y-32893891D01*
X36025235Y-32902526D01*
X36043475Y-32902839D01*
X36050283Y-32901703D01*
X36078734Y-32896366D01*
X36078734Y-32964483D01*
X36078042Y-32999972D01*
X36075657Y-33021274D01*
X36071108Y-33031093D01*
X36066940Y-33032600D01*
X36053472Y-33038372D01*
X36049568Y-33050623D01*
X36056478Y-33061756D01*
X36061766Y-33064004D01*
X36074275Y-33073959D01*
X36079902Y-33091289D01*
X36078643Y-33109704D01*
X36070495Y-33122914D01*
X36061801Y-33125733D01*
X36047650Y-33131720D01*
X36044867Y-33142666D01*
X36043367Y-33151324D01*
X36036529Y-33156404D01*
X36020842Y-33158842D01*
X35992798Y-33159573D01*
X35981367Y-33159600D01*
X35947408Y-33160347D01*
X35927512Y-33162943D01*
X35918859Y-33167921D01*
X35917867Y-33171594D01*
X35911321Y-33185090D01*
X35894347Y-33190365D01*
X35870944Y-33188070D01*
X35845109Y-33178853D01*
X35820839Y-33163363D01*
X35811285Y-33154293D01*
X35793544Y-33137096D01*
X35779190Y-33126920D01*
X35775302Y-33125733D01*
X35766734Y-33118843D01*
X35765467Y-33112241D01*
X35758359Y-33099410D01*
X35748534Y-33094320D01*
X35736305Y-33086344D01*
X35731798Y-33068117D01*
X35731601Y-33060453D01*
X35728852Y-33038475D01*
X35719046Y-33028075D01*
X35714667Y-33026586D01*
X35701017Y-33016247D01*
X35697734Y-32998733D01*
X35702628Y-32978571D01*
X35714667Y-32970880D01*
X35728545Y-32961106D01*
X35730397Y-32946891D01*
X35720074Y-32935333D01*
X35715450Y-32933658D01*
X35699879Y-32922611D01*
X35695076Y-32913284D01*
X35685671Y-32899940D01*
X35677360Y-32897133D01*
X35669073Y-32893351D01*
X35664944Y-32879655D01*
X35663867Y-32854007D01*
X35664973Y-32827561D01*
X35669368Y-32813428D01*
X35678667Y-32807073D01*
X35680800Y-32806453D01*
X35694523Y-32799878D01*
X35697734Y-32794844D01*
X35691156Y-32785651D01*
X35680800Y-32778600D01*
X35666215Y-32765217D01*
X35666511Y-32751592D01*
X35681568Y-32742080D01*
X35681838Y-32742009D01*
X35694105Y-32735541D01*
X35697048Y-32721620D01*
X35695838Y-32710255D01*
X35695325Y-32689974D01*
X35702914Y-32680622D01*
X35706705Y-32679321D01*
X35719163Y-32668206D01*
X35726955Y-32646587D01*
X35734596Y-32625093D01*
X35745477Y-32617733D01*
X35757993Y-32610628D01*
X35763014Y-32600800D01*
X35768626Y-32590426D01*
X35781415Y-32585340D01*
X35805961Y-32583878D01*
X35809581Y-32583867D01*
X35835701Y-32585031D01*
X35849561Y-32589636D01*
X35855739Y-32599346D01*
X35856147Y-32600800D01*
X35863758Y-32614614D01*
X35870171Y-32617879D01*
X35886490Y-32625371D01*
X35902614Y-32643510D01*
X35914383Y-32666484D01*
X35917867Y-32684543D01*
X35917867Y-32710867D01*
X35972208Y-32710867D01*
X36010505Y-32711833D01*
X36034819Y-32715440D01*
X36048026Y-32722754D01*
X36053002Y-32734836D01*
X36053334Y-32740873D01*
X36055140Y-32753757D01*
X36063828Y-32757834D01*
X36082967Y-32755793D01*
X36104956Y-32754669D01*
X36112600Y-32760509D01*
X36112601Y-32760559D01*
X37491439Y-32760559D01*
X37500920Y-32747015D01*
X37510383Y-32742075D01*
X37520763Y-32735748D01*
X37525560Y-32720925D01*
X37526534Y-32699380D01*
X37529095Y-32671907D01*
X37536032Y-32655723D01*
X37537998Y-32654137D01*
X37550800Y-32641603D01*
X37559294Y-32628632D01*
X37572105Y-32615817D01*
X37585580Y-32616548D01*
X37593746Y-32629642D01*
X37594267Y-32635572D01*
X37599352Y-32648805D01*
X37605890Y-32651600D01*
X37614539Y-32643571D01*
X37620398Y-32619260D01*
X37621717Y-32607845D01*
X37627360Y-32576914D01*
X37636569Y-32557066D01*
X37639728Y-32553995D01*
X37646619Y-32545445D01*
X37650861Y-32529834D01*
X37652988Y-32503809D01*
X37653534Y-32467121D01*
X37654251Y-32427461D01*
X37656764Y-32401172D01*
X37661618Y-32384738D01*
X37667607Y-32376270D01*
X37675983Y-32362851D01*
X37672981Y-32356615D01*
X37661841Y-32341333D01*
X37656092Y-32318098D01*
X37657806Y-32295877D01*
X37665135Y-32284291D01*
X37671077Y-32283677D01*
X37678448Y-32282825D01*
X37678934Y-32280272D01*
X37672450Y-32269882D01*
X37670915Y-32269189D01*
X37662122Y-32258348D01*
X37657966Y-32238415D01*
X37658942Y-32216716D01*
X37665545Y-32200578D01*
X37666222Y-32199855D01*
X37676983Y-32184395D01*
X37677620Y-32172537D01*
X37670467Y-32169000D01*
X37664157Y-32161739D01*
X37662001Y-32147333D01*
X37664435Y-32132963D01*
X37669580Y-32130352D01*
X37678508Y-32128045D01*
X37682137Y-32122064D01*
X37680267Y-32108405D01*
X37674558Y-32104273D01*
X37667511Y-32096847D01*
X37663504Y-32079292D01*
X37661955Y-32048609D01*
X37661885Y-32038977D01*
X37660863Y-31995725D01*
X37657523Y-31966581D01*
X37651155Y-31948794D01*
X37641051Y-31939616D01*
X37635818Y-31937742D01*
X37622474Y-31928337D01*
X37619667Y-31920026D01*
X37614266Y-31908231D01*
X37609084Y-31906450D01*
X37597887Y-31900469D01*
X37580681Y-31885235D01*
X37568867Y-31872667D01*
X37545783Y-31850802D01*
X37525536Y-31839690D01*
X37520184Y-31838883D01*
X37504516Y-31833728D01*
X37501134Y-31825307D01*
X37494053Y-31812307D01*
X37484983Y-31807591D01*
X37469648Y-31796594D01*
X37464386Y-31786365D01*
X37457093Y-31774887D01*
X37450334Y-31775300D01*
X37440915Y-31773479D01*
X37436076Y-31763452D01*
X37427348Y-31749237D01*
X37418920Y-31745667D01*
X37406742Y-31738593D01*
X37402192Y-31729516D01*
X37391194Y-31714181D01*
X37380966Y-31708919D01*
X37369487Y-31701625D01*
X37369901Y-31694866D01*
X37368166Y-31685381D01*
X37358835Y-31680814D01*
X37342893Y-31670008D01*
X37337609Y-31660217D01*
X37326484Y-31646694D01*
X37315660Y-31644066D01*
X37301250Y-31638956D01*
X37297934Y-31631366D01*
X37291664Y-31620130D01*
X37286221Y-31618667D01*
X37274849Y-31611573D01*
X37270081Y-31601733D01*
X37264516Y-31591403D01*
X37251840Y-31586312D01*
X37227491Y-31584816D01*
X37223097Y-31584800D01*
X37196616Y-31583595D01*
X37182318Y-31578886D01*
X37175555Y-31569031D01*
X37175167Y-31567867D01*
X37169239Y-31557833D01*
X37156699Y-31552704D01*
X37133052Y-31550999D01*
X37123797Y-31550933D01*
X37097149Y-31550215D01*
X37083341Y-31547024D01*
X37078305Y-31539808D01*
X37077801Y-31533375D01*
X37077136Y-31526568D01*
X37073437Y-31521871D01*
X37064149Y-31518979D01*
X37046716Y-31517585D01*
X37018581Y-31517382D01*
X36977190Y-31518063D01*
%TD*%
M02*
