%TF.GenerationSoftware,KiCad,Pcbnew,5.1.9-73d0e3b20d~88~ubuntu20.04.1*%
%TF.CreationDate,2021-04-18T23:10:17-05:00*%
%TF.ProjectId,COTS,434f5453-2e6b-4696-9361-645f70636258,rev?*%
%TF.SameCoordinates,Original*%
%TF.FileFunction,Copper,L2,Bot*%
%TF.FilePolarity,Positive*%
%FSLAX46Y46*%
G04 Gerber Fmt 4.6, Leading zero omitted, Abs format (unit mm)*
G04 Created by KiCad (PCBNEW 5.1.9-73d0e3b20d~88~ubuntu20.04.1) date 2021-04-18 23:10:17*
%MOMM*%
%LPD*%
G01*
G04 APERTURE LIST*
%TA.AperFunction,NonConductor*%
%ADD10C,0.150000*%
%TD*%
%TA.AperFunction,NonConductor*%
%ADD11C,0.100000*%
%TD*%
%TA.AperFunction,NonConductor*%
%ADD12C,0.200000*%
%TD*%
%TA.AperFunction,NonConductor*%
%ADD13C,0.300000*%
%TD*%
%TA.AperFunction,ComponentPad*%
%ADD14C,3.600000*%
%TD*%
%TA.AperFunction,ConnectorPad*%
%ADD15C,5.700000*%
%TD*%
%TA.AperFunction,ComponentPad*%
%ADD16C,1.660000*%
%TD*%
%TA.AperFunction,ComponentPad*%
%ADD17C,6.400000*%
%TD*%
%TA.AperFunction,ComponentPad*%
%ADD18C,0.800000*%
%TD*%
%TA.AperFunction,ComponentPad*%
%ADD19O,1.200000X1.750000*%
%TD*%
%TA.AperFunction,ViaPad*%
%ADD20C,0.800000*%
%TD*%
%TA.AperFunction,ViaPad*%
%ADD21C,1.500000*%
%TD*%
%TA.AperFunction,Conductor*%
%ADD22C,1.250000*%
%TD*%
%TA.AperFunction,Conductor*%
%ADD23C,1.500000*%
%TD*%
%TA.AperFunction,Conductor*%
%ADD24C,0.254000*%
%TD*%
%TA.AperFunction,Conductor*%
%ADD25C,0.100000*%
%TD*%
G04 APERTURE END LIST*
D10*
X164400000Y-199800000D02*
G75*
G03*
X166000000Y-201400000I1600000J0D01*
G01*
X165900000Y-198300000D02*
G75*
G03*
X167500000Y-199900000I1600000J0D01*
G01*
X232750000Y-42100000D02*
G75*
G03*
X231150000Y-40500000I-1600000J0D01*
G01*
G36*
X234250000Y-199800000D02*
G01*
X232750000Y-199800000D01*
X232722400Y-40600000D01*
X234222400Y-40600000D01*
X234250000Y-199800000D01*
G37*
X234250000Y-199800000D02*
X232750000Y-199800000D01*
X232722400Y-40600000D01*
X234222400Y-40600000D01*
X234250000Y-199800000D01*
X166000000Y-39000000D02*
G75*
G03*
X164400000Y-40600000I0J-1600000D01*
G01*
G36*
X233050000Y-39100000D02*
G01*
X233650000Y-39400000D01*
X233950000Y-39800000D01*
X234150000Y-40200000D01*
X234250000Y-40600000D01*
X234250000Y-42100000D01*
X232750000Y-42100000D01*
X232650000Y-41500000D01*
X232450000Y-41100000D01*
X232150000Y-40800000D01*
X231750000Y-40600000D01*
X231250000Y-40500000D01*
X231250000Y-39000000D01*
X232650000Y-39000000D01*
X233050000Y-39100000D01*
G37*
X233050000Y-39100000D02*
X233650000Y-39400000D01*
X233950000Y-39800000D01*
X234150000Y-40200000D01*
X234250000Y-40600000D01*
X234250000Y-42100000D01*
X232750000Y-42100000D01*
X232650000Y-41500000D01*
X232450000Y-41100000D01*
X232150000Y-40800000D01*
X231750000Y-40600000D01*
X231250000Y-40500000D01*
X231250000Y-39000000D01*
X232650000Y-39000000D01*
X233050000Y-39100000D01*
X234250000Y-40600000D02*
G75*
G03*
X232650000Y-39000000I-1600000J0D01*
G01*
X232750000Y-198300000D02*
G75*
G02*
X231150000Y-199900000I-1600000J0D01*
G01*
G36*
X165900000Y-199800000D02*
G01*
X164400000Y-199800000D01*
X164400000Y-40600000D01*
X165900000Y-40600000D01*
X165900000Y-199800000D01*
G37*
X165900000Y-199800000D02*
X164400000Y-199800000D01*
X164400000Y-40600000D01*
X165900000Y-40600000D01*
X165900000Y-199800000D01*
G36*
X166000000Y-198900000D02*
G01*
X166200000Y-199300000D01*
X166500000Y-199600000D01*
X166900000Y-199800000D01*
X167400000Y-199900000D01*
X167400000Y-201400000D01*
X166000000Y-201400000D01*
X165600000Y-201300000D01*
X165000000Y-201000000D01*
X164700000Y-200600000D01*
X164500000Y-200200000D01*
X164400000Y-199800000D01*
X164400000Y-198300000D01*
X165900000Y-198300000D01*
X166000000Y-198900000D01*
G37*
X166000000Y-198900000D02*
X166200000Y-199300000D01*
X166500000Y-199600000D01*
X166900000Y-199800000D01*
X167400000Y-199900000D01*
X167400000Y-201400000D01*
X166000000Y-201400000D01*
X165600000Y-201300000D01*
X165000000Y-201000000D01*
X164700000Y-200600000D01*
X164500000Y-200200000D01*
X164400000Y-199800000D01*
X164400000Y-198300000D01*
X165900000Y-198300000D01*
X166000000Y-198900000D01*
D11*
G36*
X234250000Y-199800000D02*
G01*
X234150000Y-200200000D01*
X233950000Y-200600000D01*
X233650000Y-201000000D01*
X233050000Y-201300000D01*
X232650000Y-201400000D01*
X231250000Y-201400000D01*
X231250000Y-199900000D01*
X231750000Y-199800000D01*
X232150000Y-199600000D01*
X232450000Y-199300000D01*
X232650000Y-198900000D01*
X232750000Y-198300000D01*
X234250000Y-198300000D01*
X234250000Y-199800000D01*
G37*
X234250000Y-199800000D02*
X234150000Y-200200000D01*
X233950000Y-200600000D01*
X233650000Y-201000000D01*
X233050000Y-201300000D01*
X232650000Y-201400000D01*
X231250000Y-201400000D01*
X231250000Y-199900000D01*
X231750000Y-199800000D01*
X232150000Y-199600000D01*
X232450000Y-199300000D01*
X232650000Y-198900000D01*
X232750000Y-198300000D01*
X234250000Y-198300000D01*
X234250000Y-199800000D01*
D10*
X234250000Y-199800000D02*
G75*
G02*
X232650000Y-201400000I-1600000J0D01*
G01*
G36*
X232700000Y-201400000D02*
G01*
X166000000Y-201400000D01*
X166000000Y-199900000D01*
X232700000Y-199900000D01*
X232700000Y-201400000D01*
G37*
X232700000Y-201400000D02*
X166000000Y-201400000D01*
X166000000Y-199900000D01*
X232700000Y-199900000D01*
X232700000Y-201400000D01*
G36*
X167500000Y-40500000D02*
G01*
X166900000Y-40600000D01*
X166500000Y-40800000D01*
X166200000Y-41100000D01*
X166000000Y-41500000D01*
X165900000Y-42000000D01*
X164400000Y-42000000D01*
X164400000Y-40600000D01*
X164500000Y-40200000D01*
X164800000Y-39600000D01*
X165200000Y-39300000D01*
X165600000Y-39100000D01*
X166000000Y-39000000D01*
X167500000Y-39000000D01*
X167500000Y-40500000D01*
G37*
X167500000Y-40500000D02*
X166900000Y-40600000D01*
X166500000Y-40800000D01*
X166200000Y-41100000D01*
X166000000Y-41500000D01*
X165900000Y-42000000D01*
X164400000Y-42000000D01*
X164400000Y-40600000D01*
X164500000Y-40200000D01*
X164800000Y-39600000D01*
X165200000Y-39300000D01*
X165600000Y-39100000D01*
X166000000Y-39000000D01*
X167500000Y-39000000D01*
X167500000Y-40500000D01*
X167500000Y-40500000D02*
G75*
G03*
X165900000Y-42100000I0J-1600000D01*
G01*
G36*
X232700000Y-40500000D02*
G01*
X167500000Y-40500000D01*
X167500000Y-39000000D01*
X232700000Y-39000000D01*
X232700000Y-40500000D01*
G37*
X232700000Y-40500000D02*
X167500000Y-40500000D01*
X167500000Y-39000000D01*
X232700000Y-39000000D01*
X232700000Y-40500000D01*
D12*
G36*
X178400000Y-40200000D02*
G01*
X177500000Y-41200000D01*
X177500000Y-44100000D01*
X171300000Y-44100000D01*
X171300000Y-41200000D01*
X170300000Y-40100000D01*
X178400000Y-40200000D01*
G37*
X178400000Y-40200000D02*
X177500000Y-41200000D01*
X177500000Y-44100000D01*
X171300000Y-44100000D01*
X171300000Y-41200000D01*
X170300000Y-40100000D01*
X178400000Y-40200000D01*
D13*
X178900000Y-40400000D02*
G75*
G03*
X177400000Y-41900000I0J-1500000D01*
G01*
X171400000Y-41900000D02*
G75*
G03*
X169900000Y-40400000I-1500000J0D01*
G01*
D12*
G36*
X228200000Y-40200000D02*
G01*
X227300000Y-41200000D01*
X227300000Y-44100000D01*
X221100000Y-44100000D01*
X221100000Y-41200000D01*
X220100000Y-40100000D01*
X228200000Y-40200000D01*
G37*
X228200000Y-40200000D02*
X227300000Y-41200000D01*
X227300000Y-44100000D01*
X221100000Y-44100000D01*
X221100000Y-41200000D01*
X220100000Y-40100000D01*
X228200000Y-40200000D01*
D13*
X228700000Y-40400000D02*
G75*
G03*
X227200000Y-41900000I0J-1500000D01*
G01*
X221200000Y-41900000D02*
G75*
G03*
X219700000Y-40400000I-1500000J0D01*
G01*
D12*
G36*
X227350000Y-199249200D02*
G01*
X228350000Y-200349200D01*
X220250000Y-200249200D01*
X221150000Y-199249200D01*
X221150000Y-196349200D01*
X227350000Y-196349200D01*
X227350000Y-199249200D01*
G37*
X227350000Y-199249200D02*
X228350000Y-200349200D01*
X220250000Y-200249200D01*
X221150000Y-199249200D01*
X221150000Y-196349200D01*
X227350000Y-196349200D01*
X227350000Y-199249200D01*
D13*
X219750000Y-200049200D02*
G75*
G03*
X221250000Y-198549200I0J1500000D01*
G01*
X227250000Y-198549200D02*
G75*
G03*
X228750000Y-200049200I1500000J0D01*
G01*
X177400000Y-198600000D02*
G75*
G03*
X178900000Y-200100000I1500000J0D01*
G01*
D12*
G36*
X177500000Y-199300000D02*
G01*
X178500000Y-200400000D01*
X170400000Y-200300000D01*
X171300000Y-199300000D01*
X171300000Y-196400000D01*
X177500000Y-196400000D01*
X177500000Y-199300000D01*
G37*
X177500000Y-199300000D02*
X178500000Y-200400000D01*
X170400000Y-200300000D01*
X171300000Y-199300000D01*
X171300000Y-196400000D01*
X177500000Y-196400000D01*
X177500000Y-199300000D01*
D13*
X169900000Y-200100000D02*
G75*
G03*
X171400000Y-198600000I0J1500000D01*
G01*
D14*
%TO.P,A2,~*%
%TO.N,N/C*%
X206121000Y-185521600D03*
D15*
X206121000Y-185521600D03*
D14*
X225171000Y-185521600D03*
D15*
X225171000Y-185521600D03*
X206121000Y-128371600D03*
D14*
X206121000Y-128371600D03*
D15*
X225171000Y-128371600D03*
D14*
X225171000Y-128371600D03*
D16*
%TO.P,A2,2*%
%TO.N,SL_POWER_NEGATIVE*%
X230346000Y-134531100D03*
%TO.P,A2,1*%
%TO.N,TM_POWER_POSITIVE*%
X230346000Y-137706100D03*
%TO.P,A2,8*%
%TO.N,Net-(A2-Pad8)*%
X207708500Y-116872000D03*
%TO.P,A2,7*%
%TO.N,Net-(A2-Pad7)*%
X210883500Y-116872000D03*
%TO.P,A2,6*%
%TO.N,Net-(A2-Pad6)*%
X214058500Y-116872000D03*
%TO.P,A2,5*%
%TO.N,Net-(A2-Pad5)*%
X217233500Y-116872000D03*
%TO.P,A2,4*%
%TO.N,Net-(A2-Pad4)*%
X220408500Y-116872000D03*
%TO.P,A2,3*%
%TO.N,Net-(A2-Pad3)*%
X223583500Y-116872000D03*
%TD*%
D14*
%TO.P,A1,~*%
%TO.N,N/C*%
X189357000Y-125349000D03*
D15*
X189357000Y-125349000D03*
D14*
X172847000Y-125349000D03*
D15*
X172847000Y-125349000D03*
D14*
X189357000Y-171069000D03*
D15*
X189357000Y-171069000D03*
D14*
X172847000Y-171069000D03*
D15*
X172847000Y-171069000D03*
D16*
%TO.P,A1,4*%
%TO.N,SL_POWER_NEGATIVE*%
X193290000Y-133985000D03*
%TO.P,A1,3*%
%TO.N,SL_POWER_POSITIVE*%
X193290000Y-137287000D03*
%TO.P,A1,2*%
%TO.N,Net-(A1-Pad2)*%
X193290000Y-140589000D03*
%TO.P,A1,1*%
%TO.N,Net-(A1-Pad1)*%
X193290000Y-143891000D03*
%TO.P,A1,8*%
%TO.N,Net-(A1-Pad8)*%
X168914000Y-133985000D03*
%TO.P,A1,7*%
%TO.N,Net-(A1-Pad7)*%
X168914000Y-137287000D03*
%TO.P,A1,6*%
%TO.N,Net-(A1-Pad6)*%
X168914000Y-140589000D03*
%TO.P,A1,5*%
%TO.N,Net-(A1-Pad5)*%
X168914000Y-143891000D03*
%TD*%
D17*
%TO.P,REF\u002A\u002A,*%
%TO.N,*%
X224250000Y-196400000D03*
D18*
%TO.P,REF\u002A\u002A,1*%
%TO.N,N/C*%
X226650000Y-196349200D03*
X225947056Y-198046256D03*
X224250000Y-198749200D03*
X222552944Y-198046256D03*
X221850000Y-196349200D03*
X222552944Y-194652144D03*
X224250000Y-193949200D03*
X225947056Y-194652144D03*
%TD*%
D17*
%TO.P,REF\u002A\u002A,*%
%TO.N,*%
X174400000Y-196450800D03*
D18*
%TO.P,REF\u002A\u002A,1*%
%TO.N,N/C*%
X176800000Y-196400000D03*
X176097056Y-198097056D03*
X174400000Y-198800000D03*
X172702944Y-198097056D03*
X172000000Y-196400000D03*
X172702944Y-194702944D03*
X174400000Y-194000000D03*
X176097056Y-194702944D03*
%TD*%
D17*
%TO.P,REF\u002A\u002A,*%
%TO.N,*%
X174400000Y-44050800D03*
D18*
%TO.P,REF\u002A\u002A,1*%
%TO.N,N/C*%
X176800000Y-44000000D03*
X176097056Y-45697056D03*
X174400000Y-46400000D03*
X172702944Y-45697056D03*
X172000000Y-44000000D03*
X172702944Y-42302944D03*
X174400000Y-41600000D03*
X176097056Y-42302944D03*
%TD*%
D17*
%TO.P,REF\u002A\u002A,*%
%TO.N,*%
X224250000Y-44050800D03*
D18*
%TO.P,REF\u002A\u002A,1*%
%TO.N,N/C*%
X226650000Y-44000000D03*
X225947056Y-45697056D03*
X224250000Y-46400000D03*
X222552944Y-45697056D03*
X221850000Y-44000000D03*
X222552944Y-42302944D03*
X224250000Y-41600000D03*
X225947056Y-42302944D03*
%TD*%
D19*
%TO.P,J9,2*%
%TO.N,SL_POWER_NEGATIVE*%
X189579000Y-95250000D03*
%TO.P,J9,1*%
%TO.N,TM_POWER_POSITIVE*%
%TA.AperFunction,ComponentPad*%
G36*
G01*
X186979000Y-95875001D02*
X186979000Y-94624999D01*
G75*
G02*
X187228999Y-94375000I249999J0D01*
G01*
X187929001Y-94375000D01*
G75*
G02*
X188179000Y-94624999I0J-249999D01*
G01*
X188179000Y-95875001D01*
G75*
G02*
X187929001Y-96125000I-249999J0D01*
G01*
X187228999Y-96125000D01*
G75*
G02*
X186979000Y-95875001I0J249999D01*
G01*
G37*
%TD.AperFunction*%
%TD*%
%TO.P,J8,2*%
%TO.N,SL_POWER_NEGATIVE*%
X206978000Y-95377000D03*
%TO.P,J8,1*%
%TO.N,Net-(J7-Pad2)*%
%TA.AperFunction,ComponentPad*%
G36*
G01*
X204378000Y-96002001D02*
X204378000Y-94751999D01*
G75*
G02*
X204627999Y-94502000I249999J0D01*
G01*
X205328001Y-94502000D01*
G75*
G02*
X205578000Y-94751999I0J-249999D01*
G01*
X205578000Y-96002001D01*
G75*
G02*
X205328001Y-96252000I-249999J0D01*
G01*
X204627999Y-96252000D01*
G75*
G02*
X204378000Y-96002001I0J249999D01*
G01*
G37*
%TD.AperFunction*%
%TD*%
%TO.P,J7,2*%
%TO.N,Net-(J7-Pad2)*%
X198088000Y-95377000D03*
%TO.P,J7,1*%
%TO.N,SL_POWER_POSITIVE*%
%TA.AperFunction,ComponentPad*%
G36*
G01*
X195488000Y-96002001D02*
X195488000Y-94751999D01*
G75*
G02*
X195737999Y-94502000I249999J0D01*
G01*
X196438001Y-94502000D01*
G75*
G02*
X196688000Y-94751999I0J-249999D01*
G01*
X196688000Y-96002001D01*
G75*
G02*
X196438001Y-96252000I-249999J0D01*
G01*
X195737999Y-96252000D01*
G75*
G02*
X195488000Y-96002001I0J249999D01*
G01*
G37*
%TD.AperFunction*%
%TD*%
D20*
%TO.N,*%
X168220000Y-57920000D03*
X168220000Y-56420000D03*
X168220000Y-60920000D03*
X168220000Y-62420000D03*
X168220000Y-54920000D03*
X168220000Y-59420000D03*
X189720000Y-154420000D03*
X188220000Y-157420000D03*
X191220000Y-158920000D03*
X188220000Y-158920000D03*
X191220000Y-155920000D03*
X189720000Y-157420000D03*
X189720000Y-158920000D03*
X189720000Y-155920000D03*
X191220000Y-154420000D03*
X188220000Y-154420000D03*
X191220000Y-157420000D03*
X188220000Y-155920000D03*
X203720000Y-154420000D03*
X202220000Y-157420000D03*
X205220000Y-158920000D03*
X202220000Y-158920000D03*
X205220000Y-155920000D03*
X203720000Y-157420000D03*
X203720000Y-158920000D03*
X203720000Y-155920000D03*
X205220000Y-154420000D03*
X202220000Y-154420000D03*
X205220000Y-157420000D03*
X202220000Y-155920000D03*
%TO.N,SL_POWER_NEGATIVE*%
X230120000Y-55220000D03*
D21*
%TO.N,SL_POWER_POSITIVE*%
X196088000Y-103378000D03*
X196088000Y-136652000D03*
%TO.N,TM_POWER_POSITIVE*%
X199898000Y-111252000D03*
X224536000Y-137668000D03*
D20*
%TO.N,SL_POWER_NEGATIVE*%
X230120000Y-56720000D03*
X230120000Y-58220000D03*
X230120000Y-59720000D03*
X230120000Y-61220000D03*
X230120000Y-62720000D03*
%TD*%
D22*
%TO.N,SL_POWER_POSITIVE*%
X196088000Y-134620000D02*
X196088000Y-103378000D01*
D23*
X196088000Y-103378000D02*
X196088000Y-103378000D01*
D22*
X196088000Y-134620000D02*
X196088000Y-136652000D01*
%TO.N,TM_POWER_POSITIVE*%
X199898000Y-111252000D02*
X199898000Y-116332000D01*
X199898000Y-116332000D02*
X221234000Y-137668000D01*
X221234000Y-137668000D02*
X224536000Y-137668000D01*
D23*
X224536000Y-137668000D02*
X224536000Y-137668000D01*
%TD*%
D24*
%TO.N,SL_POWER_NEGATIVE*%
X170171030Y-41242430D02*
X170293595Y-41307599D01*
X170401160Y-41395327D01*
X170489643Y-41502285D01*
X170555660Y-41624381D01*
X170565000Y-41654553D01*
X170565000Y-44428515D01*
X170712377Y-45169428D01*
X171001467Y-45867354D01*
X171421161Y-46495470D01*
X171955330Y-47029639D01*
X172583446Y-47449333D01*
X173281372Y-47738423D01*
X174022285Y-47885800D01*
X174777715Y-47885800D01*
X175518628Y-47738423D01*
X176216554Y-47449333D01*
X176844670Y-47029639D01*
X177378839Y-46495470D01*
X177798533Y-45867354D01*
X178087623Y-45169428D01*
X178235000Y-44428515D01*
X178235000Y-41653580D01*
X178242430Y-41628970D01*
X178307599Y-41506405D01*
X178395327Y-41398840D01*
X178502285Y-41310357D01*
X178624381Y-41244340D01*
X178735315Y-41210000D01*
X219863617Y-41210000D01*
X219971030Y-41242430D01*
X220093595Y-41307599D01*
X220201160Y-41395327D01*
X220289643Y-41502285D01*
X220355660Y-41624381D01*
X220365000Y-41654553D01*
X220365000Y-44100000D01*
X220371751Y-44168852D01*
X220378019Y-44237725D01*
X220378746Y-44240197D01*
X220378998Y-44242762D01*
X220398989Y-44308975D01*
X220415000Y-44363376D01*
X220415000Y-44428515D01*
X220562377Y-45169428D01*
X220851467Y-45867354D01*
X221271161Y-46495470D01*
X221805330Y-47029639D01*
X222433446Y-47449333D01*
X223131372Y-47738423D01*
X223872285Y-47885800D01*
X224627715Y-47885800D01*
X225368628Y-47738423D01*
X226066554Y-47449333D01*
X226694670Y-47029639D01*
X227228839Y-46495470D01*
X227648533Y-45867354D01*
X227937623Y-45169428D01*
X228085000Y-44428515D01*
X228085000Y-43673085D01*
X228035000Y-43421718D01*
X228035000Y-41653580D01*
X228042430Y-41628970D01*
X228107599Y-41506405D01*
X228195327Y-41398840D01*
X228302285Y-41310357D01*
X228424381Y-41244340D01*
X228535315Y-41210000D01*
X231115279Y-41210000D01*
X231241655Y-41222391D01*
X231402785Y-41254617D01*
X231487856Y-41280302D01*
X231640634Y-41361536D01*
X231774727Y-41470899D01*
X231885019Y-41604220D01*
X231967318Y-41756428D01*
X231979506Y-41795801D01*
X232012642Y-41994614D01*
X232039734Y-198267988D01*
X232019710Y-198472207D01*
X231969699Y-198637853D01*
X231888464Y-198790634D01*
X231779103Y-198924724D01*
X231645780Y-199035019D01*
X231493569Y-199117319D01*
X231328272Y-199168487D01*
X231123593Y-199190000D01*
X228447430Y-199190000D01*
X228356405Y-199141601D01*
X228248839Y-199053872D01*
X228160358Y-198946917D01*
X228094338Y-198824815D01*
X228085000Y-198794649D01*
X228085000Y-196022285D01*
X227937623Y-195281372D01*
X227648533Y-194583446D01*
X227228839Y-193955330D01*
X226694670Y-193421161D01*
X226066554Y-193001467D01*
X225368628Y-192712377D01*
X224627715Y-192565000D01*
X223872285Y-192565000D01*
X223131372Y-192712377D01*
X222433446Y-193001467D01*
X221805330Y-193421161D01*
X221271161Y-193955330D01*
X220851467Y-194583446D01*
X220562377Y-195281372D01*
X220415000Y-196022285D01*
X220415000Y-198795622D01*
X220407570Y-198820229D01*
X220342401Y-198942795D01*
X220254672Y-199050361D01*
X220147717Y-199138842D01*
X220053102Y-199190000D01*
X178503461Y-199190000D01*
X178398839Y-199104672D01*
X178310358Y-198997717D01*
X178244338Y-198875615D01*
X178235000Y-198845449D01*
X178235000Y-196073085D01*
X178087623Y-195332172D01*
X177798533Y-194634246D01*
X177378839Y-194006130D01*
X176844670Y-193471961D01*
X176216554Y-193052267D01*
X175518628Y-192763177D01*
X174777715Y-192615800D01*
X174022285Y-192615800D01*
X173281372Y-192763177D01*
X172583446Y-193052267D01*
X171955330Y-193471961D01*
X171421161Y-194006130D01*
X171001467Y-194634246D01*
X170712377Y-195332172D01*
X170565000Y-196073085D01*
X170565000Y-198846422D01*
X170557570Y-198871029D01*
X170492401Y-198993595D01*
X170404672Y-199101161D01*
X170297717Y-199189642D01*
X170297054Y-199190000D01*
X167534721Y-199190000D01*
X167408347Y-199177609D01*
X167247213Y-199145382D01*
X167162147Y-199119699D01*
X167009366Y-199038464D01*
X166875276Y-198929103D01*
X166764981Y-198795780D01*
X166682681Y-198643569D01*
X166670494Y-198604200D01*
X166610000Y-198241237D01*
X166610000Y-185178358D01*
X202636000Y-185178358D01*
X202636000Y-185864842D01*
X202769927Y-186538137D01*
X203032633Y-187172366D01*
X203414024Y-187743158D01*
X203899442Y-188228576D01*
X204470234Y-188609967D01*
X205104463Y-188872673D01*
X205777758Y-189006600D01*
X206464242Y-189006600D01*
X207137537Y-188872673D01*
X207771766Y-188609967D01*
X208342558Y-188228576D01*
X208827976Y-187743158D01*
X209209367Y-187172366D01*
X209472073Y-186538137D01*
X209606000Y-185864842D01*
X209606000Y-185178358D01*
X221686000Y-185178358D01*
X221686000Y-185864842D01*
X221819927Y-186538137D01*
X222082633Y-187172366D01*
X222464024Y-187743158D01*
X222949442Y-188228576D01*
X223520234Y-188609967D01*
X224154463Y-188872673D01*
X224827758Y-189006600D01*
X225514242Y-189006600D01*
X226187537Y-188872673D01*
X226821766Y-188609967D01*
X227392558Y-188228576D01*
X227877976Y-187743158D01*
X228259367Y-187172366D01*
X228522073Y-186538137D01*
X228656000Y-185864842D01*
X228656000Y-185178358D01*
X228522073Y-184505063D01*
X228259367Y-183870834D01*
X227877976Y-183300042D01*
X227392558Y-182814624D01*
X226821766Y-182433233D01*
X226187537Y-182170527D01*
X225514242Y-182036600D01*
X224827758Y-182036600D01*
X224154463Y-182170527D01*
X223520234Y-182433233D01*
X222949442Y-182814624D01*
X222464024Y-183300042D01*
X222082633Y-183870834D01*
X221819927Y-184505063D01*
X221686000Y-185178358D01*
X209606000Y-185178358D01*
X209472073Y-184505063D01*
X209209367Y-183870834D01*
X208827976Y-183300042D01*
X208342558Y-182814624D01*
X207771766Y-182433233D01*
X207137537Y-182170527D01*
X206464242Y-182036600D01*
X205777758Y-182036600D01*
X205104463Y-182170527D01*
X204470234Y-182433233D01*
X203899442Y-182814624D01*
X203414024Y-183300042D01*
X203032633Y-183870834D01*
X202769927Y-184505063D01*
X202636000Y-185178358D01*
X166610000Y-185178358D01*
X166610000Y-170725758D01*
X169362000Y-170725758D01*
X169362000Y-171412242D01*
X169495927Y-172085537D01*
X169758633Y-172719766D01*
X170140024Y-173290558D01*
X170625442Y-173775976D01*
X171196234Y-174157367D01*
X171830463Y-174420073D01*
X172503758Y-174554000D01*
X173190242Y-174554000D01*
X173863537Y-174420073D01*
X174497766Y-174157367D01*
X175068558Y-173775976D01*
X175553976Y-173290558D01*
X175935367Y-172719766D01*
X176198073Y-172085537D01*
X176332000Y-171412242D01*
X176332000Y-170725758D01*
X185872000Y-170725758D01*
X185872000Y-171412242D01*
X186005927Y-172085537D01*
X186268633Y-172719766D01*
X186650024Y-173290558D01*
X187135442Y-173775976D01*
X187706234Y-174157367D01*
X188340463Y-174420073D01*
X189013758Y-174554000D01*
X189700242Y-174554000D01*
X190373537Y-174420073D01*
X191007766Y-174157367D01*
X191578558Y-173775976D01*
X192063976Y-173290558D01*
X192445367Y-172719766D01*
X192708073Y-172085537D01*
X192842000Y-171412242D01*
X192842000Y-170725758D01*
X192708073Y-170052463D01*
X192445367Y-169418234D01*
X192063976Y-168847442D01*
X191578558Y-168362024D01*
X191007766Y-167980633D01*
X190373537Y-167717927D01*
X189700242Y-167584000D01*
X189013758Y-167584000D01*
X188340463Y-167717927D01*
X187706234Y-167980633D01*
X187135442Y-168362024D01*
X186650024Y-168847442D01*
X186268633Y-169418234D01*
X186005927Y-170052463D01*
X185872000Y-170725758D01*
X176332000Y-170725758D01*
X176198073Y-170052463D01*
X175935367Y-169418234D01*
X175553976Y-168847442D01*
X175068558Y-168362024D01*
X174497766Y-167980633D01*
X173863537Y-167717927D01*
X173190242Y-167584000D01*
X172503758Y-167584000D01*
X171830463Y-167717927D01*
X171196234Y-167980633D01*
X170625442Y-168362024D01*
X170140024Y-168847442D01*
X169758633Y-169418234D01*
X169495927Y-170052463D01*
X169362000Y-170725758D01*
X166610000Y-170725758D01*
X166610000Y-154318061D01*
X187185000Y-154318061D01*
X187185000Y-154521939D01*
X187224774Y-154721898D01*
X187302795Y-154910256D01*
X187416063Y-155079774D01*
X187506289Y-155170000D01*
X187416063Y-155260226D01*
X187302795Y-155429744D01*
X187224774Y-155618102D01*
X187185000Y-155818061D01*
X187185000Y-156021939D01*
X187224774Y-156221898D01*
X187302795Y-156410256D01*
X187416063Y-156579774D01*
X187506289Y-156670000D01*
X187416063Y-156760226D01*
X187302795Y-156929744D01*
X187224774Y-157118102D01*
X187185000Y-157318061D01*
X187185000Y-157521939D01*
X187224774Y-157721898D01*
X187302795Y-157910256D01*
X187416063Y-158079774D01*
X187506289Y-158170000D01*
X187416063Y-158260226D01*
X187302795Y-158429744D01*
X187224774Y-158618102D01*
X187185000Y-158818061D01*
X187185000Y-159021939D01*
X187224774Y-159221898D01*
X187302795Y-159410256D01*
X187416063Y-159579774D01*
X187560226Y-159723937D01*
X187729744Y-159837205D01*
X187918102Y-159915226D01*
X188118061Y-159955000D01*
X188321939Y-159955000D01*
X188521898Y-159915226D01*
X188710256Y-159837205D01*
X188879774Y-159723937D01*
X188970000Y-159633711D01*
X189060226Y-159723937D01*
X189229744Y-159837205D01*
X189418102Y-159915226D01*
X189618061Y-159955000D01*
X189821939Y-159955000D01*
X190021898Y-159915226D01*
X190210256Y-159837205D01*
X190379774Y-159723937D01*
X190470000Y-159633711D01*
X190560226Y-159723937D01*
X190729744Y-159837205D01*
X190918102Y-159915226D01*
X191118061Y-159955000D01*
X191321939Y-159955000D01*
X191521898Y-159915226D01*
X191710256Y-159837205D01*
X191879774Y-159723937D01*
X192023937Y-159579774D01*
X192137205Y-159410256D01*
X192215226Y-159221898D01*
X192255000Y-159021939D01*
X192255000Y-158818061D01*
X192215226Y-158618102D01*
X192137205Y-158429744D01*
X192023937Y-158260226D01*
X191933711Y-158170000D01*
X192023937Y-158079774D01*
X192137205Y-157910256D01*
X192215226Y-157721898D01*
X192255000Y-157521939D01*
X192255000Y-157318061D01*
X192215226Y-157118102D01*
X192137205Y-156929744D01*
X192023937Y-156760226D01*
X191933711Y-156670000D01*
X192023937Y-156579774D01*
X192137205Y-156410256D01*
X192215226Y-156221898D01*
X192255000Y-156021939D01*
X192255000Y-155818061D01*
X192215226Y-155618102D01*
X192137205Y-155429744D01*
X192023937Y-155260226D01*
X191933711Y-155170000D01*
X192023937Y-155079774D01*
X192137205Y-154910256D01*
X192215226Y-154721898D01*
X192255000Y-154521939D01*
X192255000Y-154318061D01*
X201185000Y-154318061D01*
X201185000Y-154521939D01*
X201224774Y-154721898D01*
X201302795Y-154910256D01*
X201416063Y-155079774D01*
X201506289Y-155170000D01*
X201416063Y-155260226D01*
X201302795Y-155429744D01*
X201224774Y-155618102D01*
X201185000Y-155818061D01*
X201185000Y-156021939D01*
X201224774Y-156221898D01*
X201302795Y-156410256D01*
X201416063Y-156579774D01*
X201506289Y-156670000D01*
X201416063Y-156760226D01*
X201302795Y-156929744D01*
X201224774Y-157118102D01*
X201185000Y-157318061D01*
X201185000Y-157521939D01*
X201224774Y-157721898D01*
X201302795Y-157910256D01*
X201416063Y-158079774D01*
X201506289Y-158170000D01*
X201416063Y-158260226D01*
X201302795Y-158429744D01*
X201224774Y-158618102D01*
X201185000Y-158818061D01*
X201185000Y-159021939D01*
X201224774Y-159221898D01*
X201302795Y-159410256D01*
X201416063Y-159579774D01*
X201560226Y-159723937D01*
X201729744Y-159837205D01*
X201918102Y-159915226D01*
X202118061Y-159955000D01*
X202321939Y-159955000D01*
X202521898Y-159915226D01*
X202710256Y-159837205D01*
X202879774Y-159723937D01*
X202970000Y-159633711D01*
X203060226Y-159723937D01*
X203229744Y-159837205D01*
X203418102Y-159915226D01*
X203618061Y-159955000D01*
X203821939Y-159955000D01*
X204021898Y-159915226D01*
X204210256Y-159837205D01*
X204379774Y-159723937D01*
X204470000Y-159633711D01*
X204560226Y-159723937D01*
X204729744Y-159837205D01*
X204918102Y-159915226D01*
X205118061Y-159955000D01*
X205321939Y-159955000D01*
X205521898Y-159915226D01*
X205710256Y-159837205D01*
X205879774Y-159723937D01*
X206023937Y-159579774D01*
X206137205Y-159410256D01*
X206215226Y-159221898D01*
X206255000Y-159021939D01*
X206255000Y-158818061D01*
X206215226Y-158618102D01*
X206137205Y-158429744D01*
X206023937Y-158260226D01*
X205933711Y-158170000D01*
X206023937Y-158079774D01*
X206137205Y-157910256D01*
X206215226Y-157721898D01*
X206255000Y-157521939D01*
X206255000Y-157318061D01*
X206215226Y-157118102D01*
X206137205Y-156929744D01*
X206023937Y-156760226D01*
X205933711Y-156670000D01*
X206023937Y-156579774D01*
X206137205Y-156410256D01*
X206215226Y-156221898D01*
X206255000Y-156021939D01*
X206255000Y-155818061D01*
X206215226Y-155618102D01*
X206137205Y-155429744D01*
X206023937Y-155260226D01*
X205933711Y-155170000D01*
X206023937Y-155079774D01*
X206137205Y-154910256D01*
X206215226Y-154721898D01*
X206255000Y-154521939D01*
X206255000Y-154318061D01*
X206215226Y-154118102D01*
X206137205Y-153929744D01*
X206023937Y-153760226D01*
X205879774Y-153616063D01*
X205710256Y-153502795D01*
X205521898Y-153424774D01*
X205321939Y-153385000D01*
X205118061Y-153385000D01*
X204918102Y-153424774D01*
X204729744Y-153502795D01*
X204560226Y-153616063D01*
X204470000Y-153706289D01*
X204379774Y-153616063D01*
X204210256Y-153502795D01*
X204021898Y-153424774D01*
X203821939Y-153385000D01*
X203618061Y-153385000D01*
X203418102Y-153424774D01*
X203229744Y-153502795D01*
X203060226Y-153616063D01*
X202970000Y-153706289D01*
X202879774Y-153616063D01*
X202710256Y-153502795D01*
X202521898Y-153424774D01*
X202321939Y-153385000D01*
X202118061Y-153385000D01*
X201918102Y-153424774D01*
X201729744Y-153502795D01*
X201560226Y-153616063D01*
X201416063Y-153760226D01*
X201302795Y-153929744D01*
X201224774Y-154118102D01*
X201185000Y-154318061D01*
X192255000Y-154318061D01*
X192215226Y-154118102D01*
X192137205Y-153929744D01*
X192023937Y-153760226D01*
X191879774Y-153616063D01*
X191710256Y-153502795D01*
X191521898Y-153424774D01*
X191321939Y-153385000D01*
X191118061Y-153385000D01*
X190918102Y-153424774D01*
X190729744Y-153502795D01*
X190560226Y-153616063D01*
X190470000Y-153706289D01*
X190379774Y-153616063D01*
X190210256Y-153502795D01*
X190021898Y-153424774D01*
X189821939Y-153385000D01*
X189618061Y-153385000D01*
X189418102Y-153424774D01*
X189229744Y-153502795D01*
X189060226Y-153616063D01*
X188970000Y-153706289D01*
X188879774Y-153616063D01*
X188710256Y-153502795D01*
X188521898Y-153424774D01*
X188321939Y-153385000D01*
X188118061Y-153385000D01*
X187918102Y-153424774D01*
X187729744Y-153502795D01*
X187560226Y-153616063D01*
X187416063Y-153760226D01*
X187302795Y-153929744D01*
X187224774Y-154118102D01*
X187185000Y-154318061D01*
X166610000Y-154318061D01*
X166610000Y-143746710D01*
X167449000Y-143746710D01*
X167449000Y-144035290D01*
X167505299Y-144318325D01*
X167615733Y-144584938D01*
X167776060Y-144824883D01*
X167980117Y-145028940D01*
X168220062Y-145189267D01*
X168486675Y-145299701D01*
X168769710Y-145356000D01*
X169058290Y-145356000D01*
X169341325Y-145299701D01*
X169607938Y-145189267D01*
X169847883Y-145028940D01*
X170051940Y-144824883D01*
X170212267Y-144584938D01*
X170322701Y-144318325D01*
X170379000Y-144035290D01*
X170379000Y-143746710D01*
X191825000Y-143746710D01*
X191825000Y-144035290D01*
X191881299Y-144318325D01*
X191991733Y-144584938D01*
X192152060Y-144824883D01*
X192356117Y-145028940D01*
X192596062Y-145189267D01*
X192862675Y-145299701D01*
X193145710Y-145356000D01*
X193434290Y-145356000D01*
X193717325Y-145299701D01*
X193983938Y-145189267D01*
X194223883Y-145028940D01*
X194427940Y-144824883D01*
X194588267Y-144584938D01*
X194698701Y-144318325D01*
X194755000Y-144035290D01*
X194755000Y-143746710D01*
X194698701Y-143463675D01*
X194588267Y-143197062D01*
X194427940Y-142957117D01*
X194223883Y-142753060D01*
X193983938Y-142592733D01*
X193717325Y-142482299D01*
X193434290Y-142426000D01*
X193145710Y-142426000D01*
X192862675Y-142482299D01*
X192596062Y-142592733D01*
X192356117Y-142753060D01*
X192152060Y-142957117D01*
X191991733Y-143197062D01*
X191881299Y-143463675D01*
X191825000Y-143746710D01*
X170379000Y-143746710D01*
X170322701Y-143463675D01*
X170212267Y-143197062D01*
X170051940Y-142957117D01*
X169847883Y-142753060D01*
X169607938Y-142592733D01*
X169341325Y-142482299D01*
X169058290Y-142426000D01*
X168769710Y-142426000D01*
X168486675Y-142482299D01*
X168220062Y-142592733D01*
X167980117Y-142753060D01*
X167776060Y-142957117D01*
X167615733Y-143197062D01*
X167505299Y-143463675D01*
X167449000Y-143746710D01*
X166610000Y-143746710D01*
X166610000Y-140444710D01*
X167449000Y-140444710D01*
X167449000Y-140733290D01*
X167505299Y-141016325D01*
X167615733Y-141282938D01*
X167776060Y-141522883D01*
X167980117Y-141726940D01*
X168220062Y-141887267D01*
X168486675Y-141997701D01*
X168769710Y-142054000D01*
X169058290Y-142054000D01*
X169341325Y-141997701D01*
X169607938Y-141887267D01*
X169847883Y-141726940D01*
X170051940Y-141522883D01*
X170212267Y-141282938D01*
X170322701Y-141016325D01*
X170379000Y-140733290D01*
X170379000Y-140444710D01*
X191825000Y-140444710D01*
X191825000Y-140733290D01*
X191881299Y-141016325D01*
X191991733Y-141282938D01*
X192152060Y-141522883D01*
X192356117Y-141726940D01*
X192596062Y-141887267D01*
X192862675Y-141997701D01*
X193145710Y-142054000D01*
X193434290Y-142054000D01*
X193717325Y-141997701D01*
X193983938Y-141887267D01*
X194223883Y-141726940D01*
X194427940Y-141522883D01*
X194588267Y-141282938D01*
X194698701Y-141016325D01*
X194755000Y-140733290D01*
X194755000Y-140444710D01*
X194698701Y-140161675D01*
X194588267Y-139895062D01*
X194427940Y-139655117D01*
X194223883Y-139451060D01*
X193983938Y-139290733D01*
X193717325Y-139180299D01*
X193434290Y-139124000D01*
X193145710Y-139124000D01*
X192862675Y-139180299D01*
X192596062Y-139290733D01*
X192356117Y-139451060D01*
X192152060Y-139655117D01*
X191991733Y-139895062D01*
X191881299Y-140161675D01*
X191825000Y-140444710D01*
X170379000Y-140444710D01*
X170322701Y-140161675D01*
X170212267Y-139895062D01*
X170051940Y-139655117D01*
X169847883Y-139451060D01*
X169607938Y-139290733D01*
X169341325Y-139180299D01*
X169058290Y-139124000D01*
X168769710Y-139124000D01*
X168486675Y-139180299D01*
X168220062Y-139290733D01*
X167980117Y-139451060D01*
X167776060Y-139655117D01*
X167615733Y-139895062D01*
X167505299Y-140161675D01*
X167449000Y-140444710D01*
X166610000Y-140444710D01*
X166610000Y-137142710D01*
X167449000Y-137142710D01*
X167449000Y-137431290D01*
X167505299Y-137714325D01*
X167615733Y-137980938D01*
X167776060Y-138220883D01*
X167980117Y-138424940D01*
X168220062Y-138585267D01*
X168486675Y-138695701D01*
X168769710Y-138752000D01*
X169058290Y-138752000D01*
X169341325Y-138695701D01*
X169607938Y-138585267D01*
X169847883Y-138424940D01*
X170051940Y-138220883D01*
X170212267Y-137980938D01*
X170322701Y-137714325D01*
X170379000Y-137431290D01*
X170379000Y-137142710D01*
X191825000Y-137142710D01*
X191825000Y-137431290D01*
X191881299Y-137714325D01*
X191991733Y-137980938D01*
X192152060Y-138220883D01*
X192356117Y-138424940D01*
X192596062Y-138585267D01*
X192862675Y-138695701D01*
X193145710Y-138752000D01*
X193434290Y-138752000D01*
X193717325Y-138695701D01*
X193983938Y-138585267D01*
X194223883Y-138424940D01*
X194427940Y-138220883D01*
X194588267Y-137980938D01*
X194698701Y-137714325D01*
X194755000Y-137431290D01*
X194755000Y-137142710D01*
X194698701Y-136859675D01*
X194588267Y-136593062D01*
X194427940Y-136353117D01*
X194223883Y-136149060D01*
X193983938Y-135988733D01*
X193717325Y-135878299D01*
X193434290Y-135822000D01*
X193145710Y-135822000D01*
X192862675Y-135878299D01*
X192596062Y-135988733D01*
X192356117Y-136149060D01*
X192152060Y-136353117D01*
X191991733Y-136593062D01*
X191881299Y-136859675D01*
X191825000Y-137142710D01*
X170379000Y-137142710D01*
X170322701Y-136859675D01*
X170212267Y-136593062D01*
X170051940Y-136353117D01*
X169847883Y-136149060D01*
X169607938Y-135988733D01*
X169341325Y-135878299D01*
X169058290Y-135822000D01*
X168769710Y-135822000D01*
X168486675Y-135878299D01*
X168220062Y-135988733D01*
X167980117Y-136149060D01*
X167776060Y-136353117D01*
X167615733Y-136593062D01*
X167505299Y-136859675D01*
X167449000Y-137142710D01*
X166610000Y-137142710D01*
X166610000Y-133840710D01*
X167449000Y-133840710D01*
X167449000Y-134129290D01*
X167505299Y-134412325D01*
X167615733Y-134678938D01*
X167776060Y-134918883D01*
X167980117Y-135122940D01*
X168220062Y-135283267D01*
X168486675Y-135393701D01*
X168769710Y-135450000D01*
X169058290Y-135450000D01*
X169341325Y-135393701D01*
X169607938Y-135283267D01*
X169847883Y-135122940D01*
X169971702Y-134999121D01*
X192455484Y-134999121D01*
X192530699Y-135246153D01*
X192791327Y-135370052D01*
X193071119Y-135440725D01*
X193359323Y-135455455D01*
X193644862Y-135413676D01*
X193916765Y-135316995D01*
X194049301Y-135246153D01*
X194124516Y-134999121D01*
X193290000Y-134164605D01*
X192455484Y-134999121D01*
X169971702Y-134999121D01*
X170051940Y-134918883D01*
X170212267Y-134678938D01*
X170322701Y-134412325D01*
X170379000Y-134129290D01*
X170379000Y-134054323D01*
X191819545Y-134054323D01*
X191861324Y-134339862D01*
X191958005Y-134611765D01*
X192028847Y-134744301D01*
X192275879Y-134819516D01*
X193110395Y-133985000D01*
X193469605Y-133985000D01*
X194304121Y-134819516D01*
X194551153Y-134744301D01*
X194675052Y-134483673D01*
X194745725Y-134203881D01*
X194760455Y-133915677D01*
X194718676Y-133630138D01*
X194621995Y-133358235D01*
X194551153Y-133225699D01*
X194304121Y-133150484D01*
X193469605Y-133985000D01*
X193110395Y-133985000D01*
X192275879Y-133150484D01*
X192028847Y-133225699D01*
X191904948Y-133486327D01*
X191834275Y-133766119D01*
X191819545Y-134054323D01*
X170379000Y-134054323D01*
X170379000Y-133840710D01*
X170322701Y-133557675D01*
X170212267Y-133291062D01*
X170051940Y-133051117D01*
X169971702Y-132970879D01*
X192455484Y-132970879D01*
X193290000Y-133805395D01*
X194124516Y-132970879D01*
X194049301Y-132723847D01*
X193788673Y-132599948D01*
X193508881Y-132529275D01*
X193220677Y-132514545D01*
X192935138Y-132556324D01*
X192663235Y-132653005D01*
X192530699Y-132723847D01*
X192455484Y-132970879D01*
X169971702Y-132970879D01*
X169847883Y-132847060D01*
X169607938Y-132686733D01*
X169341325Y-132576299D01*
X169058290Y-132520000D01*
X168769710Y-132520000D01*
X168486675Y-132576299D01*
X168220062Y-132686733D01*
X167980117Y-132847060D01*
X167776060Y-133051117D01*
X167615733Y-133291062D01*
X167505299Y-133557675D01*
X167449000Y-133840710D01*
X166610000Y-133840710D01*
X166610000Y-125005758D01*
X169362000Y-125005758D01*
X169362000Y-125692242D01*
X169495927Y-126365537D01*
X169758633Y-126999766D01*
X170140024Y-127570558D01*
X170625442Y-128055976D01*
X171196234Y-128437367D01*
X171830463Y-128700073D01*
X172503758Y-128834000D01*
X173190242Y-128834000D01*
X173863537Y-128700073D01*
X174497766Y-128437367D01*
X175068558Y-128055976D01*
X175553976Y-127570558D01*
X175935367Y-126999766D01*
X176198073Y-126365537D01*
X176332000Y-125692242D01*
X176332000Y-125005758D01*
X185872000Y-125005758D01*
X185872000Y-125692242D01*
X186005927Y-126365537D01*
X186268633Y-126999766D01*
X186650024Y-127570558D01*
X187135442Y-128055976D01*
X187706234Y-128437367D01*
X188340463Y-128700073D01*
X189013758Y-128834000D01*
X189700242Y-128834000D01*
X190373537Y-128700073D01*
X191007766Y-128437367D01*
X191578558Y-128055976D01*
X192063976Y-127570558D01*
X192445367Y-126999766D01*
X192708073Y-126365537D01*
X192842000Y-125692242D01*
X192842000Y-125005758D01*
X192708073Y-124332463D01*
X192445367Y-123698234D01*
X192063976Y-123127442D01*
X191578558Y-122642024D01*
X191007766Y-122260633D01*
X190373537Y-121997927D01*
X189700242Y-121864000D01*
X189013758Y-121864000D01*
X188340463Y-121997927D01*
X187706234Y-122260633D01*
X187135442Y-122642024D01*
X186650024Y-123127442D01*
X186268633Y-123698234D01*
X186005927Y-124332463D01*
X185872000Y-125005758D01*
X176332000Y-125005758D01*
X176198073Y-124332463D01*
X175935367Y-123698234D01*
X175553976Y-123127442D01*
X175068558Y-122642024D01*
X174497766Y-122260633D01*
X173863537Y-121997927D01*
X173190242Y-121864000D01*
X172503758Y-121864000D01*
X171830463Y-121997927D01*
X171196234Y-122260633D01*
X170625442Y-122642024D01*
X170140024Y-123127442D01*
X169758633Y-123698234D01*
X169495927Y-124332463D01*
X169362000Y-125005758D01*
X166610000Y-125005758D01*
X166610000Y-103378000D01*
X194696299Y-103378000D01*
X194703000Y-103446037D01*
X194703000Y-103514411D01*
X194716339Y-103581470D01*
X194723040Y-103649507D01*
X194742886Y-103714932D01*
X194756225Y-103781989D01*
X194782389Y-103845155D01*
X194802236Y-103910581D01*
X194828001Y-103958784D01*
X194828000Y-134558107D01*
X194828000Y-134558108D01*
X194828001Y-136074729D01*
X194756225Y-136248011D01*
X194703000Y-136515589D01*
X194703000Y-136788411D01*
X194756225Y-137055989D01*
X194860629Y-137308043D01*
X195012201Y-137534886D01*
X195205114Y-137727799D01*
X195431957Y-137879371D01*
X195684011Y-137983775D01*
X195951589Y-138037000D01*
X196224411Y-138037000D01*
X196491989Y-137983775D01*
X196744043Y-137879371D01*
X196970886Y-137727799D01*
X197163799Y-137534886D01*
X197315371Y-137308043D01*
X197419775Y-137055989D01*
X197473000Y-136788411D01*
X197473000Y-136515589D01*
X197419775Y-136248011D01*
X197348000Y-136074731D01*
X197348000Y-111115589D01*
X198513000Y-111115589D01*
X198513000Y-111388411D01*
X198566225Y-111655989D01*
X198638000Y-111829270D01*
X198638001Y-116270107D01*
X198631905Y-116332000D01*
X198656233Y-116579003D01*
X198728280Y-116816513D01*
X198845280Y-117035405D01*
X198963281Y-117179189D01*
X199002736Y-117227265D01*
X199050811Y-117266719D01*
X206721954Y-124937862D01*
X206464242Y-124886600D01*
X205777758Y-124886600D01*
X205104463Y-125020527D01*
X204470234Y-125283233D01*
X203899442Y-125664624D01*
X203414024Y-126150042D01*
X203032633Y-126720834D01*
X202769927Y-127355063D01*
X202636000Y-128028358D01*
X202636000Y-128714842D01*
X202769927Y-129388137D01*
X203032633Y-130022366D01*
X203414024Y-130593158D01*
X203899442Y-131078576D01*
X204470234Y-131459967D01*
X205104463Y-131722673D01*
X205777758Y-131856600D01*
X206464242Y-131856600D01*
X207137537Y-131722673D01*
X207771766Y-131459967D01*
X208342558Y-131078576D01*
X208827976Y-130593158D01*
X209209367Y-130022366D01*
X209472073Y-129388137D01*
X209606000Y-128714842D01*
X209606000Y-128028358D01*
X209554738Y-127770646D01*
X220299281Y-138515190D01*
X220338735Y-138563265D01*
X220386810Y-138602719D01*
X220530595Y-138720720D01*
X220749486Y-138837720D01*
X220986997Y-138909768D01*
X221234000Y-138934096D01*
X221295893Y-138928000D01*
X223955218Y-138928000D01*
X224003419Y-138953764D01*
X224068845Y-138973611D01*
X224132011Y-138999775D01*
X224199068Y-139013114D01*
X224264493Y-139032960D01*
X224332530Y-139039661D01*
X224399589Y-139053000D01*
X224672411Y-139053000D01*
X224739470Y-139039661D01*
X224807507Y-139032960D01*
X224872932Y-139013114D01*
X224939989Y-138999775D01*
X225003155Y-138973611D01*
X225068581Y-138953764D01*
X225128877Y-138921535D01*
X225192043Y-138895371D01*
X225248890Y-138857387D01*
X225309188Y-138825157D01*
X225362040Y-138781783D01*
X225418886Y-138743799D01*
X225467231Y-138695454D01*
X225520081Y-138652081D01*
X225563454Y-138599231D01*
X225611799Y-138550886D01*
X225649783Y-138494040D01*
X225693157Y-138441188D01*
X225725387Y-138380890D01*
X225763371Y-138324043D01*
X225789535Y-138260877D01*
X225821764Y-138200581D01*
X225841611Y-138135155D01*
X225867775Y-138071989D01*
X225881114Y-138004932D01*
X225900960Y-137939507D01*
X225907661Y-137871470D01*
X225921000Y-137804411D01*
X225921000Y-137736037D01*
X225927701Y-137668000D01*
X225921000Y-137599963D01*
X225921000Y-137561810D01*
X228881000Y-137561810D01*
X228881000Y-137850390D01*
X228937299Y-138133425D01*
X229047733Y-138400038D01*
X229208060Y-138639983D01*
X229412117Y-138844040D01*
X229652062Y-139004367D01*
X229918675Y-139114801D01*
X230201710Y-139171100D01*
X230490290Y-139171100D01*
X230773325Y-139114801D01*
X231039938Y-139004367D01*
X231279883Y-138844040D01*
X231483940Y-138639983D01*
X231644267Y-138400038D01*
X231754701Y-138133425D01*
X231811000Y-137850390D01*
X231811000Y-137561810D01*
X231754701Y-137278775D01*
X231644267Y-137012162D01*
X231483940Y-136772217D01*
X231279883Y-136568160D01*
X231039938Y-136407833D01*
X230773325Y-136297399D01*
X230490290Y-136241100D01*
X230201710Y-136241100D01*
X229918675Y-136297399D01*
X229652062Y-136407833D01*
X229412117Y-136568160D01*
X229208060Y-136772217D01*
X229047733Y-137012162D01*
X228937299Y-137278775D01*
X228881000Y-137561810D01*
X225921000Y-137561810D01*
X225921000Y-137531589D01*
X225907661Y-137464530D01*
X225900960Y-137396493D01*
X225881114Y-137331068D01*
X225867775Y-137264011D01*
X225841611Y-137200845D01*
X225821764Y-137135419D01*
X225789535Y-137075123D01*
X225763371Y-137011957D01*
X225725387Y-136955110D01*
X225693157Y-136894812D01*
X225649783Y-136841960D01*
X225611799Y-136785114D01*
X225563454Y-136736769D01*
X225520081Y-136683919D01*
X225467231Y-136640546D01*
X225418886Y-136592201D01*
X225362040Y-136554217D01*
X225309188Y-136510843D01*
X225248890Y-136478613D01*
X225192043Y-136440629D01*
X225128877Y-136414465D01*
X225068581Y-136382236D01*
X225003155Y-136362389D01*
X224939989Y-136336225D01*
X224872932Y-136322886D01*
X224807507Y-136303040D01*
X224739470Y-136296339D01*
X224672411Y-136283000D01*
X224399589Y-136283000D01*
X224332530Y-136296339D01*
X224264493Y-136303040D01*
X224199068Y-136322886D01*
X224132011Y-136336225D01*
X224068845Y-136362389D01*
X224003419Y-136382236D01*
X223955218Y-136408000D01*
X221755909Y-136408000D01*
X220893130Y-135545221D01*
X229511484Y-135545221D01*
X229586699Y-135792253D01*
X229847327Y-135916152D01*
X230127119Y-135986825D01*
X230415323Y-136001555D01*
X230700862Y-135959776D01*
X230972765Y-135863095D01*
X231105301Y-135792253D01*
X231180516Y-135545221D01*
X230346000Y-134710705D01*
X229511484Y-135545221D01*
X220893130Y-135545221D01*
X219948332Y-134600423D01*
X228875545Y-134600423D01*
X228917324Y-134885962D01*
X229014005Y-135157865D01*
X229084847Y-135290401D01*
X229331879Y-135365616D01*
X230166395Y-134531100D01*
X230525605Y-134531100D01*
X231360121Y-135365616D01*
X231607153Y-135290401D01*
X231731052Y-135029773D01*
X231801725Y-134749981D01*
X231816455Y-134461777D01*
X231774676Y-134176238D01*
X231677995Y-133904335D01*
X231607153Y-133771799D01*
X231360121Y-133696584D01*
X230525605Y-134531100D01*
X230166395Y-134531100D01*
X229331879Y-133696584D01*
X229084847Y-133771799D01*
X228960948Y-134032427D01*
X228890275Y-134312219D01*
X228875545Y-134600423D01*
X219948332Y-134600423D01*
X218864888Y-133516979D01*
X229511484Y-133516979D01*
X230346000Y-134351495D01*
X231180516Y-133516979D01*
X231105301Y-133269947D01*
X230844673Y-133146048D01*
X230564881Y-133075375D01*
X230276677Y-133060645D01*
X229991138Y-133102424D01*
X229719235Y-133199105D01*
X229586699Y-133269947D01*
X229511484Y-133516979D01*
X218864888Y-133516979D01*
X213376267Y-128028358D01*
X221686000Y-128028358D01*
X221686000Y-128714842D01*
X221819927Y-129388137D01*
X222082633Y-130022366D01*
X222464024Y-130593158D01*
X222949442Y-131078576D01*
X223520234Y-131459967D01*
X224154463Y-131722673D01*
X224827758Y-131856600D01*
X225514242Y-131856600D01*
X226187537Y-131722673D01*
X226821766Y-131459967D01*
X227392558Y-131078576D01*
X227877976Y-130593158D01*
X228259367Y-130022366D01*
X228522073Y-129388137D01*
X228656000Y-128714842D01*
X228656000Y-128028358D01*
X228522073Y-127355063D01*
X228259367Y-126720834D01*
X227877976Y-126150042D01*
X227392558Y-125664624D01*
X226821766Y-125283233D01*
X226187537Y-125020527D01*
X225514242Y-124886600D01*
X224827758Y-124886600D01*
X224154463Y-125020527D01*
X223520234Y-125283233D01*
X222949442Y-125664624D01*
X222464024Y-126150042D01*
X222082633Y-126720834D01*
X221819927Y-127355063D01*
X221686000Y-128028358D01*
X213376267Y-128028358D01*
X202075619Y-116727710D01*
X206243500Y-116727710D01*
X206243500Y-117016290D01*
X206299799Y-117299325D01*
X206410233Y-117565938D01*
X206570560Y-117805883D01*
X206774617Y-118009940D01*
X207014562Y-118170267D01*
X207281175Y-118280701D01*
X207564210Y-118337000D01*
X207852790Y-118337000D01*
X208135825Y-118280701D01*
X208402438Y-118170267D01*
X208642383Y-118009940D01*
X208846440Y-117805883D01*
X209006767Y-117565938D01*
X209117201Y-117299325D01*
X209173500Y-117016290D01*
X209173500Y-116727710D01*
X209418500Y-116727710D01*
X209418500Y-117016290D01*
X209474799Y-117299325D01*
X209585233Y-117565938D01*
X209745560Y-117805883D01*
X209949617Y-118009940D01*
X210189562Y-118170267D01*
X210456175Y-118280701D01*
X210739210Y-118337000D01*
X211027790Y-118337000D01*
X211310825Y-118280701D01*
X211577438Y-118170267D01*
X211817383Y-118009940D01*
X212021440Y-117805883D01*
X212181767Y-117565938D01*
X212292201Y-117299325D01*
X212348500Y-117016290D01*
X212348500Y-116727710D01*
X212593500Y-116727710D01*
X212593500Y-117016290D01*
X212649799Y-117299325D01*
X212760233Y-117565938D01*
X212920560Y-117805883D01*
X213124617Y-118009940D01*
X213364562Y-118170267D01*
X213631175Y-118280701D01*
X213914210Y-118337000D01*
X214202790Y-118337000D01*
X214485825Y-118280701D01*
X214752438Y-118170267D01*
X214992383Y-118009940D01*
X215196440Y-117805883D01*
X215356767Y-117565938D01*
X215467201Y-117299325D01*
X215523500Y-117016290D01*
X215523500Y-116727710D01*
X215768500Y-116727710D01*
X215768500Y-117016290D01*
X215824799Y-117299325D01*
X215935233Y-117565938D01*
X216095560Y-117805883D01*
X216299617Y-118009940D01*
X216539562Y-118170267D01*
X216806175Y-118280701D01*
X217089210Y-118337000D01*
X217377790Y-118337000D01*
X217660825Y-118280701D01*
X217927438Y-118170267D01*
X218167383Y-118009940D01*
X218371440Y-117805883D01*
X218531767Y-117565938D01*
X218642201Y-117299325D01*
X218698500Y-117016290D01*
X218698500Y-116727710D01*
X218943500Y-116727710D01*
X218943500Y-117016290D01*
X218999799Y-117299325D01*
X219110233Y-117565938D01*
X219270560Y-117805883D01*
X219474617Y-118009940D01*
X219714562Y-118170267D01*
X219981175Y-118280701D01*
X220264210Y-118337000D01*
X220552790Y-118337000D01*
X220835825Y-118280701D01*
X221102438Y-118170267D01*
X221342383Y-118009940D01*
X221546440Y-117805883D01*
X221706767Y-117565938D01*
X221817201Y-117299325D01*
X221873500Y-117016290D01*
X221873500Y-116727710D01*
X222118500Y-116727710D01*
X222118500Y-117016290D01*
X222174799Y-117299325D01*
X222285233Y-117565938D01*
X222445560Y-117805883D01*
X222649617Y-118009940D01*
X222889562Y-118170267D01*
X223156175Y-118280701D01*
X223439210Y-118337000D01*
X223727790Y-118337000D01*
X224010825Y-118280701D01*
X224277438Y-118170267D01*
X224517383Y-118009940D01*
X224721440Y-117805883D01*
X224881767Y-117565938D01*
X224992201Y-117299325D01*
X225048500Y-117016290D01*
X225048500Y-116727710D01*
X224992201Y-116444675D01*
X224881767Y-116178062D01*
X224721440Y-115938117D01*
X224517383Y-115734060D01*
X224277438Y-115573733D01*
X224010825Y-115463299D01*
X223727790Y-115407000D01*
X223439210Y-115407000D01*
X223156175Y-115463299D01*
X222889562Y-115573733D01*
X222649617Y-115734060D01*
X222445560Y-115938117D01*
X222285233Y-116178062D01*
X222174799Y-116444675D01*
X222118500Y-116727710D01*
X221873500Y-116727710D01*
X221817201Y-116444675D01*
X221706767Y-116178062D01*
X221546440Y-115938117D01*
X221342383Y-115734060D01*
X221102438Y-115573733D01*
X220835825Y-115463299D01*
X220552790Y-115407000D01*
X220264210Y-115407000D01*
X219981175Y-115463299D01*
X219714562Y-115573733D01*
X219474617Y-115734060D01*
X219270560Y-115938117D01*
X219110233Y-116178062D01*
X218999799Y-116444675D01*
X218943500Y-116727710D01*
X218698500Y-116727710D01*
X218642201Y-116444675D01*
X218531767Y-116178062D01*
X218371440Y-115938117D01*
X218167383Y-115734060D01*
X217927438Y-115573733D01*
X217660825Y-115463299D01*
X217377790Y-115407000D01*
X217089210Y-115407000D01*
X216806175Y-115463299D01*
X216539562Y-115573733D01*
X216299617Y-115734060D01*
X216095560Y-115938117D01*
X215935233Y-116178062D01*
X215824799Y-116444675D01*
X215768500Y-116727710D01*
X215523500Y-116727710D01*
X215467201Y-116444675D01*
X215356767Y-116178062D01*
X215196440Y-115938117D01*
X214992383Y-115734060D01*
X214752438Y-115573733D01*
X214485825Y-115463299D01*
X214202790Y-115407000D01*
X213914210Y-115407000D01*
X213631175Y-115463299D01*
X213364562Y-115573733D01*
X213124617Y-115734060D01*
X212920560Y-115938117D01*
X212760233Y-116178062D01*
X212649799Y-116444675D01*
X212593500Y-116727710D01*
X212348500Y-116727710D01*
X212292201Y-116444675D01*
X212181767Y-116178062D01*
X212021440Y-115938117D01*
X211817383Y-115734060D01*
X211577438Y-115573733D01*
X211310825Y-115463299D01*
X211027790Y-115407000D01*
X210739210Y-115407000D01*
X210456175Y-115463299D01*
X210189562Y-115573733D01*
X209949617Y-115734060D01*
X209745560Y-115938117D01*
X209585233Y-116178062D01*
X209474799Y-116444675D01*
X209418500Y-116727710D01*
X209173500Y-116727710D01*
X209117201Y-116444675D01*
X209006767Y-116178062D01*
X208846440Y-115938117D01*
X208642383Y-115734060D01*
X208402438Y-115573733D01*
X208135825Y-115463299D01*
X207852790Y-115407000D01*
X207564210Y-115407000D01*
X207281175Y-115463299D01*
X207014562Y-115573733D01*
X206774617Y-115734060D01*
X206570560Y-115938117D01*
X206410233Y-116178062D01*
X206299799Y-116444675D01*
X206243500Y-116727710D01*
X202075619Y-116727710D01*
X201158000Y-115810092D01*
X201158000Y-111829269D01*
X201229775Y-111655989D01*
X201283000Y-111388411D01*
X201283000Y-111115589D01*
X201229775Y-110848011D01*
X201125371Y-110595957D01*
X200973799Y-110369114D01*
X200780886Y-110176201D01*
X200554043Y-110024629D01*
X200301989Y-109920225D01*
X200034411Y-109867000D01*
X199761589Y-109867000D01*
X199494011Y-109920225D01*
X199241957Y-110024629D01*
X199015114Y-110176201D01*
X198822201Y-110369114D01*
X198670629Y-110595957D01*
X198566225Y-110848011D01*
X198513000Y-111115589D01*
X197348000Y-111115589D01*
X197348000Y-103958782D01*
X197373764Y-103910581D01*
X197393611Y-103845155D01*
X197419775Y-103781989D01*
X197433114Y-103714932D01*
X197452960Y-103649507D01*
X197459661Y-103581470D01*
X197473000Y-103514411D01*
X197473000Y-103446037D01*
X197479701Y-103378000D01*
X197473000Y-103309963D01*
X197473000Y-103241589D01*
X197459661Y-103174530D01*
X197452960Y-103106493D01*
X197433114Y-103041068D01*
X197419775Y-102974011D01*
X197393611Y-102910845D01*
X197373764Y-102845419D01*
X197341535Y-102785123D01*
X197315371Y-102721957D01*
X197277387Y-102665110D01*
X197245157Y-102604812D01*
X197201783Y-102551960D01*
X197163799Y-102495114D01*
X197115454Y-102446769D01*
X197072081Y-102393919D01*
X197019231Y-102350546D01*
X196970886Y-102302201D01*
X196914040Y-102264217D01*
X196861188Y-102220843D01*
X196800890Y-102188613D01*
X196744043Y-102150629D01*
X196680877Y-102124465D01*
X196620581Y-102092236D01*
X196555155Y-102072389D01*
X196491989Y-102046225D01*
X196424932Y-102032886D01*
X196359507Y-102013040D01*
X196291470Y-102006339D01*
X196224411Y-101993000D01*
X195951589Y-101993000D01*
X195884530Y-102006339D01*
X195816493Y-102013040D01*
X195751068Y-102032886D01*
X195684011Y-102046225D01*
X195620845Y-102072389D01*
X195555419Y-102092236D01*
X195495123Y-102124465D01*
X195431957Y-102150629D01*
X195375110Y-102188613D01*
X195314812Y-102220843D01*
X195261960Y-102264217D01*
X195205114Y-102302201D01*
X195156769Y-102350546D01*
X195103919Y-102393919D01*
X195060546Y-102446769D01*
X195012201Y-102495114D01*
X194974217Y-102551960D01*
X194930843Y-102604812D01*
X194898613Y-102665110D01*
X194860629Y-102721957D01*
X194834465Y-102785123D01*
X194802236Y-102845419D01*
X194782389Y-102910845D01*
X194756225Y-102974011D01*
X194742886Y-103041068D01*
X194723040Y-103106493D01*
X194716339Y-103174530D01*
X194703000Y-103241589D01*
X194703000Y-103309963D01*
X194696299Y-103378000D01*
X166610000Y-103378000D01*
X166610000Y-94624999D01*
X186340928Y-94624999D01*
X186340928Y-95875001D01*
X186357992Y-96048255D01*
X186408528Y-96214851D01*
X186490595Y-96368387D01*
X186601038Y-96502962D01*
X186735613Y-96613405D01*
X186889149Y-96695472D01*
X187055745Y-96746008D01*
X187228999Y-96763072D01*
X187929001Y-96763072D01*
X188102255Y-96746008D01*
X188268851Y-96695472D01*
X188422387Y-96613405D01*
X188556962Y-96502962D01*
X188667405Y-96368387D01*
X188669967Y-96363594D01*
X188795526Y-96488078D01*
X188998467Y-96622421D01*
X189223718Y-96714591D01*
X189261391Y-96718462D01*
X189452000Y-96593731D01*
X189452000Y-95377000D01*
X189706000Y-95377000D01*
X189706000Y-96593731D01*
X189896609Y-96718462D01*
X189934282Y-96714591D01*
X190159533Y-96622421D01*
X190362474Y-96488078D01*
X190535307Y-96316725D01*
X190671390Y-96114946D01*
X190765493Y-95890496D01*
X190814000Y-95652000D01*
X190814000Y-95377000D01*
X189706000Y-95377000D01*
X189452000Y-95377000D01*
X189432000Y-95377000D01*
X189432000Y-95123000D01*
X189452000Y-95123000D01*
X189452000Y-93906269D01*
X189706000Y-93906269D01*
X189706000Y-95123000D01*
X190814000Y-95123000D01*
X190814000Y-94848000D01*
X190794475Y-94751999D01*
X194849928Y-94751999D01*
X194849928Y-96002001D01*
X194866992Y-96175255D01*
X194917528Y-96341851D01*
X194999595Y-96495387D01*
X195110038Y-96629962D01*
X195244613Y-96740405D01*
X195398149Y-96822472D01*
X195564745Y-96873008D01*
X195737999Y-96890072D01*
X196438001Y-96890072D01*
X196611255Y-96873008D01*
X196777851Y-96822472D01*
X196931387Y-96740405D01*
X197065962Y-96629962D01*
X197176405Y-96495387D01*
X197178810Y-96490888D01*
X197210499Y-96529502D01*
X197398552Y-96683833D01*
X197613100Y-96798511D01*
X197845899Y-96869130D01*
X198088000Y-96892975D01*
X198330102Y-96869130D01*
X198562901Y-96798511D01*
X198777449Y-96683833D01*
X198965502Y-96529502D01*
X199119833Y-96341449D01*
X199234511Y-96126900D01*
X199305130Y-95894101D01*
X199323000Y-95712664D01*
X199323000Y-95041335D01*
X199305130Y-94859898D01*
X199272400Y-94751999D01*
X203739928Y-94751999D01*
X203739928Y-96002001D01*
X203756992Y-96175255D01*
X203807528Y-96341851D01*
X203889595Y-96495387D01*
X204000038Y-96629962D01*
X204134613Y-96740405D01*
X204288149Y-96822472D01*
X204454745Y-96873008D01*
X204627999Y-96890072D01*
X205328001Y-96890072D01*
X205501255Y-96873008D01*
X205667851Y-96822472D01*
X205821387Y-96740405D01*
X205955962Y-96629962D01*
X206066405Y-96495387D01*
X206068967Y-96490594D01*
X206194526Y-96615078D01*
X206397467Y-96749421D01*
X206622718Y-96841591D01*
X206660391Y-96845462D01*
X206851000Y-96720731D01*
X206851000Y-95504000D01*
X207105000Y-95504000D01*
X207105000Y-96720731D01*
X207295609Y-96845462D01*
X207333282Y-96841591D01*
X207558533Y-96749421D01*
X207761474Y-96615078D01*
X207934307Y-96443725D01*
X208070390Y-96241946D01*
X208164493Y-96017496D01*
X208213000Y-95779000D01*
X208213000Y-95504000D01*
X207105000Y-95504000D01*
X206851000Y-95504000D01*
X206831000Y-95504000D01*
X206831000Y-95250000D01*
X206851000Y-95250000D01*
X206851000Y-94033269D01*
X207105000Y-94033269D01*
X207105000Y-95250000D01*
X208213000Y-95250000D01*
X208213000Y-94975000D01*
X208164493Y-94736504D01*
X208070390Y-94512054D01*
X207934307Y-94310275D01*
X207761474Y-94138922D01*
X207558533Y-94004579D01*
X207333282Y-93912409D01*
X207295609Y-93908538D01*
X207105000Y-94033269D01*
X206851000Y-94033269D01*
X206660391Y-93908538D01*
X206622718Y-93912409D01*
X206397467Y-94004579D01*
X206194526Y-94138922D01*
X206068967Y-94263406D01*
X206066405Y-94258613D01*
X205955962Y-94124038D01*
X205821387Y-94013595D01*
X205667851Y-93931528D01*
X205501255Y-93880992D01*
X205328001Y-93863928D01*
X204627999Y-93863928D01*
X204454745Y-93880992D01*
X204288149Y-93931528D01*
X204134613Y-94013595D01*
X204000038Y-94124038D01*
X203889595Y-94258613D01*
X203807528Y-94412149D01*
X203756992Y-94578745D01*
X203739928Y-94751999D01*
X199272400Y-94751999D01*
X199234511Y-94627099D01*
X199119833Y-94412551D01*
X198965502Y-94224498D01*
X198777448Y-94070167D01*
X198562900Y-93955489D01*
X198330101Y-93884870D01*
X198088000Y-93861025D01*
X197845898Y-93884870D01*
X197613099Y-93955489D01*
X197398551Y-94070167D01*
X197210498Y-94224498D01*
X197178809Y-94263111D01*
X197176405Y-94258613D01*
X197065962Y-94124038D01*
X196931387Y-94013595D01*
X196777851Y-93931528D01*
X196611255Y-93880992D01*
X196438001Y-93863928D01*
X195737999Y-93863928D01*
X195564745Y-93880992D01*
X195398149Y-93931528D01*
X195244613Y-94013595D01*
X195110038Y-94124038D01*
X194999595Y-94258613D01*
X194917528Y-94412149D01*
X194866992Y-94578745D01*
X194849928Y-94751999D01*
X190794475Y-94751999D01*
X190765493Y-94609504D01*
X190671390Y-94385054D01*
X190535307Y-94183275D01*
X190362474Y-94011922D01*
X190159533Y-93877579D01*
X189934282Y-93785409D01*
X189896609Y-93781538D01*
X189706000Y-93906269D01*
X189452000Y-93906269D01*
X189261391Y-93781538D01*
X189223718Y-93785409D01*
X188998467Y-93877579D01*
X188795526Y-94011922D01*
X188669967Y-94136406D01*
X188667405Y-94131613D01*
X188556962Y-93997038D01*
X188422387Y-93886595D01*
X188268851Y-93804528D01*
X188102255Y-93753992D01*
X187929001Y-93736928D01*
X187228999Y-93736928D01*
X187055745Y-93753992D01*
X186889149Y-93804528D01*
X186735613Y-93886595D01*
X186601038Y-93997038D01*
X186490595Y-94131613D01*
X186408528Y-94285149D01*
X186357992Y-94451745D01*
X186340928Y-94624999D01*
X166610000Y-94624999D01*
X166610000Y-82543896D01*
X184835000Y-82543896D01*
X184835001Y-83616105D01*
X184838058Y-83647141D01*
X184838037Y-83650105D01*
X184839038Y-83660318D01*
X184844086Y-83708352D01*
X184845636Y-83724085D01*
X184845795Y-83724610D01*
X184849238Y-83757367D01*
X184862638Y-83822644D01*
X184875116Y-83888059D01*
X184878082Y-83897884D01*
X184906938Y-83991103D01*
X184932780Y-84052578D01*
X184957711Y-84114284D01*
X184962528Y-84123345D01*
X185008941Y-84209183D01*
X185046196Y-84264415D01*
X185082669Y-84320151D01*
X185089155Y-84328104D01*
X185151357Y-84403293D01*
X185198641Y-84450248D01*
X185245230Y-84497824D01*
X185253137Y-84504365D01*
X185253142Y-84504370D01*
X185253148Y-84504374D01*
X185328758Y-84566041D01*
X185384256Y-84602914D01*
X185439219Y-84640548D01*
X185448246Y-84645429D01*
X185534407Y-84691241D01*
X185596013Y-84716633D01*
X185657220Y-84742867D01*
X185667024Y-84745902D01*
X185667028Y-84745903D01*
X185667030Y-84745904D01*
X185667032Y-84745904D01*
X185760442Y-84774107D01*
X185825835Y-84787056D01*
X185890957Y-84800897D01*
X185901148Y-84801968D01*
X185901156Y-84801970D01*
X185901163Y-84801970D01*
X185997689Y-84811434D01*
X186033895Y-84815000D01*
X191106105Y-84815000D01*
X191137150Y-84811942D01*
X191140105Y-84811963D01*
X191150318Y-84810962D01*
X191198201Y-84805929D01*
X191214085Y-84804365D01*
X191214615Y-84804204D01*
X191247367Y-84800762D01*
X191312644Y-84787362D01*
X191378059Y-84774884D01*
X191387884Y-84771918D01*
X191481103Y-84743062D01*
X191542578Y-84717220D01*
X191604284Y-84692289D01*
X191613345Y-84687472D01*
X191699183Y-84641059D01*
X191754415Y-84603804D01*
X191810151Y-84567331D01*
X191818104Y-84560845D01*
X191893293Y-84498643D01*
X191940248Y-84451359D01*
X191987824Y-84404770D01*
X191994365Y-84396863D01*
X191994370Y-84396858D01*
X191994374Y-84396852D01*
X192056041Y-84321242D01*
X192092914Y-84265744D01*
X192130548Y-84210781D01*
X192135429Y-84201754D01*
X192181241Y-84115593D01*
X192206633Y-84053987D01*
X192232867Y-83992780D01*
X192235902Y-83982976D01*
X192264107Y-83889558D01*
X192277056Y-83824165D01*
X192290897Y-83759043D01*
X192291968Y-83748852D01*
X192291970Y-83748844D01*
X192291970Y-83748837D01*
X192301492Y-83651720D01*
X192305000Y-83616105D01*
X192305000Y-82543896D01*
X205835000Y-82543896D01*
X205835001Y-83616105D01*
X205838058Y-83647141D01*
X205838037Y-83650105D01*
X205839038Y-83660318D01*
X205844086Y-83708352D01*
X205845636Y-83724085D01*
X205845795Y-83724610D01*
X205849238Y-83757367D01*
X205862638Y-83822644D01*
X205875116Y-83888059D01*
X205878082Y-83897884D01*
X205906938Y-83991103D01*
X205932780Y-84052578D01*
X205957711Y-84114284D01*
X205962528Y-84123345D01*
X206008941Y-84209183D01*
X206046196Y-84264415D01*
X206082669Y-84320151D01*
X206089155Y-84328104D01*
X206151357Y-84403293D01*
X206198641Y-84450248D01*
X206245230Y-84497824D01*
X206253137Y-84504365D01*
X206253142Y-84504370D01*
X206253148Y-84504374D01*
X206328758Y-84566041D01*
X206384256Y-84602914D01*
X206439219Y-84640548D01*
X206448246Y-84645429D01*
X206534407Y-84691241D01*
X206596013Y-84716633D01*
X206657220Y-84742867D01*
X206667024Y-84745902D01*
X206667028Y-84745903D01*
X206667030Y-84745904D01*
X206667032Y-84745904D01*
X206760442Y-84774107D01*
X206825835Y-84787056D01*
X206890957Y-84800897D01*
X206901148Y-84801968D01*
X206901156Y-84801970D01*
X206901163Y-84801970D01*
X206997689Y-84811434D01*
X207033895Y-84815000D01*
X212106105Y-84815000D01*
X212137150Y-84811942D01*
X212140105Y-84811963D01*
X212150318Y-84810962D01*
X212198201Y-84805929D01*
X212214085Y-84804365D01*
X212214615Y-84804204D01*
X212247367Y-84800762D01*
X212312644Y-84787362D01*
X212378059Y-84774884D01*
X212387884Y-84771918D01*
X212481103Y-84743062D01*
X212542578Y-84717220D01*
X212604284Y-84692289D01*
X212613345Y-84687472D01*
X212699183Y-84641059D01*
X212754415Y-84603804D01*
X212810151Y-84567331D01*
X212818104Y-84560845D01*
X212893293Y-84498643D01*
X212940248Y-84451359D01*
X212987824Y-84404770D01*
X212994365Y-84396863D01*
X212994370Y-84396858D01*
X212994374Y-84396852D01*
X213056041Y-84321242D01*
X213092914Y-84265744D01*
X213130548Y-84210781D01*
X213135429Y-84201754D01*
X213181241Y-84115593D01*
X213206633Y-84053987D01*
X213232867Y-83992780D01*
X213235902Y-83982976D01*
X213264107Y-83889558D01*
X213277056Y-83824165D01*
X213290897Y-83759043D01*
X213291968Y-83748852D01*
X213291970Y-83748844D01*
X213291970Y-83748837D01*
X213301492Y-83651720D01*
X213305000Y-83616105D01*
X213305000Y-82543895D01*
X213301942Y-82512850D01*
X213301963Y-82509895D01*
X213300962Y-82499682D01*
X213295930Y-82451807D01*
X213294365Y-82435915D01*
X213294204Y-82435385D01*
X213290762Y-82402634D01*
X213277364Y-82337364D01*
X213264884Y-82271941D01*
X213261918Y-82262116D01*
X213233062Y-82168897D01*
X213207225Y-82107434D01*
X213182289Y-82045716D01*
X213177472Y-82036655D01*
X213131059Y-81950817D01*
X213093789Y-81895562D01*
X213057331Y-81839849D01*
X213050845Y-81831896D01*
X212988643Y-81756707D01*
X212941359Y-81709752D01*
X212894770Y-81662176D01*
X212886863Y-81655634D01*
X212811242Y-81593959D01*
X212755721Y-81557070D01*
X212700781Y-81519452D01*
X212691770Y-81514580D01*
X212691763Y-81514575D01*
X212691756Y-81514572D01*
X212691754Y-81514571D01*
X212605593Y-81468759D01*
X212543987Y-81443367D01*
X212482780Y-81417133D01*
X212472976Y-81414098D01*
X212472972Y-81414097D01*
X212472970Y-81414096D01*
X212472968Y-81414096D01*
X212379558Y-81385893D01*
X212314172Y-81372946D01*
X212249044Y-81359103D01*
X212238851Y-81358031D01*
X212238844Y-81358030D01*
X212238838Y-81358030D01*
X212142310Y-81348566D01*
X212106105Y-81345000D01*
X207033895Y-81345000D01*
X207002850Y-81348058D01*
X206999895Y-81348037D01*
X206989682Y-81349038D01*
X206941807Y-81354070D01*
X206925915Y-81355635D01*
X206925385Y-81355796D01*
X206892634Y-81359238D01*
X206827364Y-81372636D01*
X206761941Y-81385116D01*
X206752116Y-81388082D01*
X206658897Y-81416938D01*
X206597434Y-81442775D01*
X206535716Y-81467711D01*
X206526655Y-81472528D01*
X206440817Y-81518941D01*
X206385562Y-81556211D01*
X206329849Y-81592669D01*
X206321896Y-81599155D01*
X206246707Y-81661357D01*
X206199752Y-81708641D01*
X206152176Y-81755230D01*
X206145634Y-81763137D01*
X206083959Y-81838758D01*
X206047070Y-81894279D01*
X206009452Y-81949219D01*
X206004580Y-81958230D01*
X206004575Y-81958237D01*
X206004572Y-81958244D01*
X206004571Y-81958246D01*
X205958759Y-82044407D01*
X205933367Y-82106013D01*
X205907133Y-82167220D01*
X205904098Y-82177024D01*
X205875893Y-82270442D01*
X205862946Y-82335828D01*
X205849103Y-82400956D01*
X205848031Y-82411149D01*
X205848030Y-82411156D01*
X205848030Y-82411162D01*
X205838544Y-82507912D01*
X205835000Y-82543896D01*
X192305000Y-82543896D01*
X192305000Y-82543895D01*
X192301942Y-82512850D01*
X192301963Y-82509895D01*
X192300962Y-82499682D01*
X192295930Y-82451807D01*
X192294365Y-82435915D01*
X192294204Y-82435385D01*
X192290762Y-82402634D01*
X192277364Y-82337364D01*
X192264884Y-82271941D01*
X192261918Y-82262116D01*
X192233062Y-82168897D01*
X192207225Y-82107434D01*
X192182289Y-82045716D01*
X192177472Y-82036655D01*
X192131059Y-81950817D01*
X192093789Y-81895562D01*
X192057331Y-81839849D01*
X192050845Y-81831896D01*
X191988643Y-81756707D01*
X191941359Y-81709752D01*
X191894770Y-81662176D01*
X191886863Y-81655634D01*
X191811242Y-81593959D01*
X191755721Y-81557070D01*
X191700781Y-81519452D01*
X191691770Y-81514580D01*
X191691763Y-81514575D01*
X191691756Y-81514572D01*
X191691754Y-81514571D01*
X191605593Y-81468759D01*
X191543987Y-81443367D01*
X191482780Y-81417133D01*
X191472976Y-81414098D01*
X191472972Y-81414097D01*
X191472970Y-81414096D01*
X191472968Y-81414096D01*
X191379558Y-81385893D01*
X191314172Y-81372946D01*
X191249044Y-81359103D01*
X191238851Y-81358031D01*
X191238844Y-81358030D01*
X191238838Y-81358030D01*
X191142310Y-81348566D01*
X191106105Y-81345000D01*
X186033895Y-81345000D01*
X186002850Y-81348058D01*
X185999895Y-81348037D01*
X185989682Y-81349038D01*
X185941807Y-81354070D01*
X185925915Y-81355635D01*
X185925385Y-81355796D01*
X185892634Y-81359238D01*
X185827364Y-81372636D01*
X185761941Y-81385116D01*
X185752116Y-81388082D01*
X185658897Y-81416938D01*
X185597434Y-81442775D01*
X185535716Y-81467711D01*
X185526655Y-81472528D01*
X185440817Y-81518941D01*
X185385562Y-81556211D01*
X185329849Y-81592669D01*
X185321896Y-81599155D01*
X185246707Y-81661357D01*
X185199752Y-81708641D01*
X185152176Y-81755230D01*
X185145634Y-81763137D01*
X185083959Y-81838758D01*
X185047070Y-81894279D01*
X185009452Y-81949219D01*
X185004580Y-81958230D01*
X185004575Y-81958237D01*
X185004572Y-81958244D01*
X185004571Y-81958246D01*
X184958759Y-82044407D01*
X184933367Y-82106013D01*
X184907133Y-82167220D01*
X184904098Y-82177024D01*
X184875893Y-82270442D01*
X184862946Y-82335828D01*
X184849103Y-82400956D01*
X184848031Y-82411149D01*
X184848030Y-82411156D01*
X184848030Y-82411162D01*
X184838544Y-82507912D01*
X184835000Y-82543896D01*
X166610000Y-82543896D01*
X166610000Y-64943896D01*
X177224750Y-64943896D01*
X177224751Y-70016105D01*
X177227808Y-70047141D01*
X177227787Y-70050105D01*
X177228788Y-70060318D01*
X177233836Y-70108352D01*
X177235386Y-70124085D01*
X177235545Y-70124610D01*
X177238988Y-70157367D01*
X177252388Y-70222644D01*
X177264866Y-70288059D01*
X177267832Y-70297884D01*
X177296688Y-70391103D01*
X177322530Y-70452578D01*
X177347461Y-70514284D01*
X177352278Y-70523345D01*
X177398691Y-70609183D01*
X177435946Y-70664415D01*
X177472419Y-70720151D01*
X177478905Y-70728104D01*
X177541107Y-70803293D01*
X177588391Y-70850248D01*
X177634980Y-70897824D01*
X177642887Y-70904365D01*
X177642892Y-70904370D01*
X177642898Y-70904374D01*
X177718508Y-70966041D01*
X177774006Y-71002914D01*
X177828969Y-71040548D01*
X177837996Y-71045429D01*
X177924157Y-71091241D01*
X177985763Y-71116633D01*
X178046970Y-71142867D01*
X178056774Y-71145902D01*
X178056778Y-71145903D01*
X178056780Y-71145904D01*
X178056782Y-71145904D01*
X178150192Y-71174107D01*
X178215585Y-71187056D01*
X178280707Y-71200897D01*
X178290898Y-71201968D01*
X178290906Y-71201970D01*
X178290913Y-71201970D01*
X178387439Y-71211434D01*
X178423645Y-71215000D01*
X179495855Y-71215000D01*
X179526900Y-71211942D01*
X179529855Y-71211963D01*
X179540068Y-71210962D01*
X179587951Y-71205929D01*
X179603835Y-71204365D01*
X179604365Y-71204204D01*
X179637117Y-71200762D01*
X179702394Y-71187362D01*
X179767809Y-71174884D01*
X179777634Y-71171918D01*
X179870853Y-71143062D01*
X179932328Y-71117220D01*
X179994034Y-71092289D01*
X180003095Y-71087472D01*
X180088933Y-71041059D01*
X180144165Y-71003804D01*
X180199901Y-70967331D01*
X180207854Y-70960845D01*
X180283043Y-70898643D01*
X180329998Y-70851359D01*
X180377574Y-70804770D01*
X180384115Y-70796863D01*
X180384120Y-70796858D01*
X180384124Y-70796852D01*
X180445791Y-70721242D01*
X180482664Y-70665744D01*
X180520298Y-70610781D01*
X180525179Y-70601754D01*
X180570991Y-70515593D01*
X180596383Y-70453987D01*
X180622617Y-70392780D01*
X180625652Y-70382976D01*
X180653857Y-70289558D01*
X180666806Y-70224165D01*
X180680647Y-70159043D01*
X180681718Y-70148852D01*
X180681720Y-70148844D01*
X180681720Y-70148837D01*
X180691242Y-70051720D01*
X180694750Y-70016105D01*
X180694750Y-64943896D01*
X217445250Y-64943896D01*
X217445251Y-70016105D01*
X217448308Y-70047141D01*
X217448287Y-70050105D01*
X217449288Y-70060318D01*
X217454336Y-70108352D01*
X217455886Y-70124085D01*
X217456045Y-70124610D01*
X217459488Y-70157367D01*
X217472888Y-70222644D01*
X217485366Y-70288059D01*
X217488332Y-70297884D01*
X217517188Y-70391103D01*
X217543030Y-70452578D01*
X217567961Y-70514284D01*
X217572778Y-70523345D01*
X217619191Y-70609183D01*
X217656446Y-70664415D01*
X217692919Y-70720151D01*
X217699405Y-70728104D01*
X217761607Y-70803293D01*
X217808891Y-70850248D01*
X217855480Y-70897824D01*
X217863387Y-70904365D01*
X217863392Y-70904370D01*
X217863398Y-70904374D01*
X217939008Y-70966041D01*
X217994506Y-71002914D01*
X218049469Y-71040548D01*
X218058496Y-71045429D01*
X218144657Y-71091241D01*
X218206263Y-71116633D01*
X218267470Y-71142867D01*
X218277274Y-71145902D01*
X218277278Y-71145903D01*
X218277280Y-71145904D01*
X218277282Y-71145904D01*
X218370692Y-71174107D01*
X218436085Y-71187056D01*
X218501207Y-71200897D01*
X218511398Y-71201968D01*
X218511406Y-71201970D01*
X218511413Y-71201970D01*
X218607939Y-71211434D01*
X218644145Y-71215000D01*
X219716355Y-71215000D01*
X219747400Y-71211942D01*
X219750355Y-71211963D01*
X219760568Y-71210962D01*
X219808451Y-71205929D01*
X219824335Y-71204365D01*
X219824865Y-71204204D01*
X219857617Y-71200762D01*
X219922894Y-71187362D01*
X219988309Y-71174884D01*
X219998134Y-71171918D01*
X220091353Y-71143062D01*
X220152828Y-71117220D01*
X220214534Y-71092289D01*
X220223595Y-71087472D01*
X220309433Y-71041059D01*
X220364665Y-71003804D01*
X220420401Y-70967331D01*
X220428354Y-70960845D01*
X220503543Y-70898643D01*
X220550498Y-70851359D01*
X220598074Y-70804770D01*
X220604615Y-70796863D01*
X220604620Y-70796858D01*
X220604624Y-70796852D01*
X220666291Y-70721242D01*
X220703164Y-70665744D01*
X220740798Y-70610781D01*
X220745679Y-70601754D01*
X220791491Y-70515593D01*
X220816883Y-70453987D01*
X220843117Y-70392780D01*
X220846152Y-70382976D01*
X220874357Y-70289558D01*
X220887306Y-70224165D01*
X220901147Y-70159043D01*
X220902218Y-70148852D01*
X220902220Y-70148844D01*
X220902220Y-70148837D01*
X220911742Y-70051720D01*
X220915250Y-70016105D01*
X220915250Y-64943895D01*
X220912192Y-64912850D01*
X220912213Y-64909895D01*
X220911212Y-64899682D01*
X220906180Y-64851807D01*
X220904615Y-64835915D01*
X220904454Y-64835385D01*
X220901012Y-64802634D01*
X220887614Y-64737364D01*
X220875134Y-64671941D01*
X220872168Y-64662116D01*
X220843312Y-64568897D01*
X220817475Y-64507434D01*
X220792539Y-64445716D01*
X220787722Y-64436655D01*
X220741309Y-64350817D01*
X220704039Y-64295562D01*
X220667581Y-64239849D01*
X220661095Y-64231896D01*
X220598893Y-64156707D01*
X220551609Y-64109752D01*
X220505020Y-64062176D01*
X220497113Y-64055634D01*
X220421492Y-63993959D01*
X220365971Y-63957070D01*
X220311031Y-63919452D01*
X220302020Y-63914580D01*
X220302013Y-63914575D01*
X220302006Y-63914572D01*
X220302004Y-63914571D01*
X220215843Y-63868759D01*
X220154237Y-63843367D01*
X220093030Y-63817133D01*
X220083226Y-63814098D01*
X220083222Y-63814097D01*
X220083220Y-63814096D01*
X220083218Y-63814096D01*
X219989808Y-63785893D01*
X219924422Y-63772946D01*
X219859294Y-63759103D01*
X219849101Y-63758031D01*
X219849094Y-63758030D01*
X219849088Y-63758030D01*
X219752560Y-63748566D01*
X219716355Y-63745000D01*
X218644145Y-63745000D01*
X218613100Y-63748058D01*
X218610145Y-63748037D01*
X218599932Y-63749038D01*
X218552057Y-63754070D01*
X218536165Y-63755635D01*
X218535635Y-63755796D01*
X218502884Y-63759238D01*
X218437614Y-63772636D01*
X218372191Y-63785116D01*
X218362366Y-63788082D01*
X218269147Y-63816938D01*
X218207684Y-63842775D01*
X218145966Y-63867711D01*
X218136905Y-63872528D01*
X218051067Y-63918941D01*
X217995812Y-63956211D01*
X217940099Y-63992669D01*
X217932146Y-63999155D01*
X217856957Y-64061357D01*
X217810002Y-64108641D01*
X217762426Y-64155230D01*
X217755884Y-64163137D01*
X217694209Y-64238758D01*
X217657320Y-64294279D01*
X217619702Y-64349219D01*
X217614830Y-64358230D01*
X217614825Y-64358237D01*
X217614822Y-64358244D01*
X217614821Y-64358246D01*
X217569009Y-64444407D01*
X217543617Y-64506013D01*
X217517383Y-64567220D01*
X217514348Y-64577024D01*
X217486143Y-64670442D01*
X217473196Y-64735828D01*
X217459353Y-64800956D01*
X217458281Y-64811149D01*
X217458280Y-64811156D01*
X217458280Y-64811162D01*
X217448794Y-64907912D01*
X217445250Y-64943896D01*
X180694750Y-64943896D01*
X180694750Y-64943895D01*
X180691692Y-64912850D01*
X180691713Y-64909895D01*
X180690712Y-64899682D01*
X180685680Y-64851807D01*
X180684115Y-64835915D01*
X180683954Y-64835385D01*
X180680512Y-64802634D01*
X180667114Y-64737364D01*
X180654634Y-64671941D01*
X180651668Y-64662116D01*
X180622812Y-64568897D01*
X180596975Y-64507434D01*
X180572039Y-64445716D01*
X180567222Y-64436655D01*
X180520809Y-64350817D01*
X180483539Y-64295562D01*
X180447081Y-64239849D01*
X180440595Y-64231896D01*
X180378393Y-64156707D01*
X180331109Y-64109752D01*
X180284520Y-64062176D01*
X180276613Y-64055634D01*
X180200992Y-63993959D01*
X180145471Y-63957070D01*
X180090531Y-63919452D01*
X180081520Y-63914580D01*
X180081513Y-63914575D01*
X180081506Y-63914572D01*
X180081504Y-63914571D01*
X179995343Y-63868759D01*
X179933737Y-63843367D01*
X179872530Y-63817133D01*
X179862726Y-63814098D01*
X179862722Y-63814097D01*
X179862720Y-63814096D01*
X179862718Y-63814096D01*
X179769308Y-63785893D01*
X179703922Y-63772946D01*
X179638794Y-63759103D01*
X179628601Y-63758031D01*
X179628594Y-63758030D01*
X179628588Y-63758030D01*
X179532060Y-63748566D01*
X179495855Y-63745000D01*
X178423645Y-63745000D01*
X178392600Y-63748058D01*
X178389645Y-63748037D01*
X178379432Y-63749038D01*
X178331557Y-63754070D01*
X178315665Y-63755635D01*
X178315135Y-63755796D01*
X178282384Y-63759238D01*
X178217114Y-63772636D01*
X178151691Y-63785116D01*
X178141866Y-63788082D01*
X178048647Y-63816938D01*
X177987184Y-63842775D01*
X177925466Y-63867711D01*
X177916405Y-63872528D01*
X177830567Y-63918941D01*
X177775312Y-63956211D01*
X177719599Y-63992669D01*
X177711646Y-63999155D01*
X177636457Y-64061357D01*
X177589502Y-64108641D01*
X177541926Y-64155230D01*
X177535384Y-64163137D01*
X177473709Y-64238758D01*
X177436820Y-64294279D01*
X177399202Y-64349219D01*
X177394330Y-64358230D01*
X177394325Y-64358237D01*
X177394322Y-64358244D01*
X177394321Y-64358246D01*
X177348509Y-64444407D01*
X177323117Y-64506013D01*
X177296883Y-64567220D01*
X177293848Y-64577024D01*
X177265643Y-64670442D01*
X177252696Y-64735828D01*
X177238853Y-64800956D01*
X177237781Y-64811149D01*
X177237780Y-64811156D01*
X177237780Y-64811162D01*
X177228294Y-64907912D01*
X177224750Y-64943896D01*
X166610000Y-64943896D01*
X166610000Y-54818061D01*
X167185000Y-54818061D01*
X167185000Y-55021939D01*
X167224774Y-55221898D01*
X167302795Y-55410256D01*
X167416063Y-55579774D01*
X167506289Y-55670000D01*
X167416063Y-55760226D01*
X167302795Y-55929744D01*
X167224774Y-56118102D01*
X167185000Y-56318061D01*
X167185000Y-56521939D01*
X167224774Y-56721898D01*
X167302795Y-56910256D01*
X167416063Y-57079774D01*
X167506289Y-57170000D01*
X167416063Y-57260226D01*
X167302795Y-57429744D01*
X167224774Y-57618102D01*
X167185000Y-57818061D01*
X167185000Y-58021939D01*
X167224774Y-58221898D01*
X167302795Y-58410256D01*
X167416063Y-58579774D01*
X167506289Y-58670000D01*
X167416063Y-58760226D01*
X167302795Y-58929744D01*
X167224774Y-59118102D01*
X167185000Y-59318061D01*
X167185000Y-59521939D01*
X167224774Y-59721898D01*
X167302795Y-59910256D01*
X167416063Y-60079774D01*
X167506289Y-60170000D01*
X167416063Y-60260226D01*
X167302795Y-60429744D01*
X167224774Y-60618102D01*
X167185000Y-60818061D01*
X167185000Y-61021939D01*
X167224774Y-61221898D01*
X167302795Y-61410256D01*
X167416063Y-61579774D01*
X167506289Y-61670000D01*
X167416063Y-61760226D01*
X167302795Y-61929744D01*
X167224774Y-62118102D01*
X167185000Y-62318061D01*
X167185000Y-62521939D01*
X167224774Y-62721898D01*
X167302795Y-62910256D01*
X167416063Y-63079774D01*
X167560226Y-63223937D01*
X167729744Y-63337205D01*
X167918102Y-63415226D01*
X168118061Y-63455000D01*
X168321939Y-63455000D01*
X168521898Y-63415226D01*
X168710256Y-63337205D01*
X168879774Y-63223937D01*
X169023937Y-63079774D01*
X169137205Y-62910256D01*
X169215226Y-62721898D01*
X169255000Y-62521939D01*
X169255000Y-62318061D01*
X169215226Y-62118102D01*
X169137205Y-61929744D01*
X169023937Y-61760226D01*
X168933711Y-61670000D01*
X169023937Y-61579774D01*
X169137205Y-61410256D01*
X169215226Y-61221898D01*
X169255000Y-61021939D01*
X169255000Y-60818061D01*
X169215226Y-60618102D01*
X169137205Y-60429744D01*
X169023937Y-60260226D01*
X168933711Y-60170000D01*
X169023937Y-60079774D01*
X169137205Y-59910256D01*
X169215226Y-59721898D01*
X169255000Y-59521939D01*
X169255000Y-59318061D01*
X169215226Y-59118102D01*
X169137205Y-58929744D01*
X169023937Y-58760226D01*
X168933711Y-58670000D01*
X169023937Y-58579774D01*
X169137205Y-58410256D01*
X169215226Y-58221898D01*
X169255000Y-58021939D01*
X169255000Y-57818061D01*
X169215226Y-57618102D01*
X169137205Y-57429744D01*
X169023937Y-57260226D01*
X168933711Y-57170000D01*
X169023937Y-57079774D01*
X169137205Y-56910256D01*
X169215226Y-56721898D01*
X169255000Y-56521939D01*
X169255000Y-56318061D01*
X169215226Y-56118102D01*
X169137205Y-55929744D01*
X169023937Y-55760226D01*
X168933711Y-55670000D01*
X169023937Y-55579774D01*
X169137205Y-55410256D01*
X169215226Y-55221898D01*
X169255000Y-55021939D01*
X169255000Y-54818061D01*
X169215226Y-54618102D01*
X169137205Y-54429744D01*
X169023937Y-54260226D01*
X168879774Y-54116063D01*
X168710256Y-54002795D01*
X168521898Y-53924774D01*
X168321939Y-53885000D01*
X168118061Y-53885000D01*
X167918102Y-53924774D01*
X167729744Y-54002795D01*
X167560226Y-54116063D01*
X167416063Y-54260226D01*
X167302795Y-54429744D01*
X167224774Y-54618102D01*
X167185000Y-54818061D01*
X166610000Y-54818061D01*
X166610000Y-52416104D01*
X184835000Y-52416104D01*
X184838058Y-52447149D01*
X184838037Y-52450105D01*
X184839038Y-52460318D01*
X184844072Y-52508216D01*
X184845635Y-52524084D01*
X184845796Y-52524613D01*
X184849238Y-52557367D01*
X184862638Y-52622644D01*
X184875116Y-52688059D01*
X184878082Y-52697884D01*
X184906938Y-52791103D01*
X184932780Y-52852578D01*
X184957711Y-52914284D01*
X184962528Y-52923345D01*
X185008941Y-53009183D01*
X185046196Y-53064415D01*
X185082669Y-53120151D01*
X185089155Y-53128104D01*
X185151357Y-53203293D01*
X185198641Y-53250248D01*
X185245230Y-53297824D01*
X185253137Y-53304365D01*
X185253142Y-53304370D01*
X185253148Y-53304374D01*
X185328758Y-53366041D01*
X185384256Y-53402914D01*
X185439219Y-53440548D01*
X185448246Y-53445429D01*
X185534407Y-53491241D01*
X185596013Y-53516633D01*
X185657220Y-53542867D01*
X185667024Y-53545902D01*
X185667028Y-53545903D01*
X185667030Y-53545904D01*
X185667032Y-53545904D01*
X185760442Y-53574107D01*
X185825835Y-53587056D01*
X185890957Y-53600897D01*
X185901148Y-53601968D01*
X185901156Y-53601970D01*
X185901163Y-53601970D01*
X185997689Y-53611434D01*
X186033895Y-53615000D01*
X191106105Y-53615000D01*
X191137150Y-53611942D01*
X191140105Y-53611963D01*
X191150318Y-53610962D01*
X191198201Y-53605929D01*
X191214085Y-53604365D01*
X191214615Y-53604204D01*
X191247367Y-53600762D01*
X191312644Y-53587362D01*
X191378059Y-53574884D01*
X191387884Y-53571918D01*
X191481103Y-53543062D01*
X191542578Y-53517220D01*
X191604284Y-53492289D01*
X191613345Y-53487472D01*
X191699183Y-53441059D01*
X191754415Y-53403804D01*
X191810151Y-53367331D01*
X191818104Y-53360845D01*
X191893293Y-53298643D01*
X191940248Y-53251359D01*
X191987824Y-53204770D01*
X191994365Y-53196863D01*
X191994370Y-53196858D01*
X191994374Y-53196852D01*
X192056041Y-53121242D01*
X192092914Y-53065744D01*
X192130548Y-53010781D01*
X192135429Y-53001754D01*
X192181241Y-52915593D01*
X192206633Y-52853987D01*
X192232867Y-52792780D01*
X192235902Y-52782976D01*
X192264107Y-52689558D01*
X192277056Y-52624165D01*
X192290897Y-52559043D01*
X192291968Y-52548852D01*
X192291970Y-52548844D01*
X192291970Y-52548837D01*
X192301492Y-52451720D01*
X192305000Y-52416105D01*
X192305000Y-52416104D01*
X205835000Y-52416104D01*
X205838058Y-52447149D01*
X205838037Y-52450105D01*
X205839038Y-52460318D01*
X205844072Y-52508216D01*
X205845635Y-52524084D01*
X205845796Y-52524613D01*
X205849238Y-52557367D01*
X205862638Y-52622644D01*
X205875116Y-52688059D01*
X205878082Y-52697884D01*
X205906938Y-52791103D01*
X205932780Y-52852578D01*
X205957711Y-52914284D01*
X205962528Y-52923345D01*
X206008941Y-53009183D01*
X206046196Y-53064415D01*
X206082669Y-53120151D01*
X206089155Y-53128104D01*
X206151357Y-53203293D01*
X206198641Y-53250248D01*
X206245230Y-53297824D01*
X206253137Y-53304365D01*
X206253142Y-53304370D01*
X206253148Y-53304374D01*
X206328758Y-53366041D01*
X206384256Y-53402914D01*
X206439219Y-53440548D01*
X206448246Y-53445429D01*
X206534407Y-53491241D01*
X206596013Y-53516633D01*
X206657220Y-53542867D01*
X206667024Y-53545902D01*
X206667028Y-53545903D01*
X206667030Y-53545904D01*
X206667032Y-53545904D01*
X206760442Y-53574107D01*
X206825835Y-53587056D01*
X206890957Y-53600897D01*
X206901148Y-53601968D01*
X206901156Y-53601970D01*
X206901163Y-53601970D01*
X206997689Y-53611434D01*
X207033895Y-53615000D01*
X212106105Y-53615000D01*
X212137150Y-53611942D01*
X212140105Y-53611963D01*
X212150318Y-53610962D01*
X212198201Y-53605929D01*
X212214085Y-53604365D01*
X212214615Y-53604204D01*
X212247367Y-53600762D01*
X212312644Y-53587362D01*
X212378059Y-53574884D01*
X212387884Y-53571918D01*
X212481103Y-53543062D01*
X212542578Y-53517220D01*
X212604284Y-53492289D01*
X212613345Y-53487472D01*
X212699183Y-53441059D01*
X212754415Y-53403804D01*
X212810151Y-53367331D01*
X212818104Y-53360845D01*
X212893293Y-53298643D01*
X212940248Y-53251359D01*
X212987824Y-53204770D01*
X212994365Y-53196863D01*
X212994370Y-53196858D01*
X212994374Y-53196852D01*
X213056041Y-53121242D01*
X213092914Y-53065744D01*
X213130548Y-53010781D01*
X213135429Y-53001754D01*
X213181241Y-52915593D01*
X213206633Y-52853987D01*
X213232867Y-52792780D01*
X213235902Y-52782976D01*
X213264107Y-52689558D01*
X213277056Y-52624165D01*
X213290897Y-52559043D01*
X213291968Y-52548852D01*
X213291970Y-52548844D01*
X213291970Y-52548837D01*
X213301492Y-52451720D01*
X213305000Y-52416105D01*
X213305000Y-51343895D01*
X213301942Y-51312850D01*
X213301963Y-51309895D01*
X213300962Y-51299682D01*
X213295930Y-51251807D01*
X213294365Y-51235915D01*
X213294204Y-51235385D01*
X213290762Y-51202634D01*
X213277364Y-51137364D01*
X213264884Y-51071941D01*
X213261918Y-51062116D01*
X213233062Y-50968897D01*
X213207225Y-50907434D01*
X213182289Y-50845716D01*
X213177472Y-50836655D01*
X213131059Y-50750817D01*
X213093789Y-50695562D01*
X213057331Y-50639849D01*
X213050845Y-50631896D01*
X212988643Y-50556707D01*
X212941359Y-50509752D01*
X212894770Y-50462176D01*
X212886863Y-50455634D01*
X212811242Y-50393959D01*
X212755721Y-50357070D01*
X212700781Y-50319452D01*
X212691770Y-50314580D01*
X212691763Y-50314575D01*
X212691756Y-50314572D01*
X212691754Y-50314571D01*
X212605593Y-50268759D01*
X212543987Y-50243367D01*
X212482780Y-50217133D01*
X212472976Y-50214098D01*
X212472972Y-50214097D01*
X212472970Y-50214096D01*
X212472968Y-50214096D01*
X212379558Y-50185893D01*
X212314172Y-50172946D01*
X212249044Y-50159103D01*
X212238851Y-50158031D01*
X212238844Y-50158030D01*
X212238838Y-50158030D01*
X212142310Y-50148566D01*
X212106105Y-50145000D01*
X207033895Y-50145000D01*
X207002850Y-50148058D01*
X206999895Y-50148037D01*
X206989682Y-50149038D01*
X206941807Y-50154070D01*
X206925915Y-50155635D01*
X206925385Y-50155796D01*
X206892634Y-50159238D01*
X206827364Y-50172636D01*
X206761941Y-50185116D01*
X206752116Y-50188082D01*
X206658897Y-50216938D01*
X206597434Y-50242775D01*
X206535716Y-50267711D01*
X206526655Y-50272528D01*
X206440817Y-50318941D01*
X206385562Y-50356211D01*
X206329849Y-50392669D01*
X206321896Y-50399155D01*
X206246707Y-50461357D01*
X206199752Y-50508641D01*
X206152176Y-50555230D01*
X206145634Y-50563137D01*
X206083959Y-50638758D01*
X206047070Y-50694279D01*
X206009452Y-50749219D01*
X206004580Y-50758230D01*
X206004575Y-50758237D01*
X206004572Y-50758244D01*
X206004571Y-50758246D01*
X205958759Y-50844407D01*
X205933367Y-50906013D01*
X205907133Y-50967220D01*
X205904098Y-50977024D01*
X205875893Y-51070442D01*
X205862946Y-51135828D01*
X205849103Y-51200956D01*
X205848031Y-51211149D01*
X205848030Y-51211156D01*
X205848030Y-51211162D01*
X205838508Y-51308280D01*
X205838508Y-51308287D01*
X205835001Y-51343895D01*
X205835000Y-52416104D01*
X192305000Y-52416104D01*
X192305000Y-51343895D01*
X192301942Y-51312850D01*
X192301963Y-51309895D01*
X192300962Y-51299682D01*
X192295930Y-51251807D01*
X192294365Y-51235915D01*
X192294204Y-51235385D01*
X192290762Y-51202634D01*
X192277364Y-51137364D01*
X192264884Y-51071941D01*
X192261918Y-51062116D01*
X192233062Y-50968897D01*
X192207225Y-50907434D01*
X192182289Y-50845716D01*
X192177472Y-50836655D01*
X192131059Y-50750817D01*
X192093789Y-50695562D01*
X192057331Y-50639849D01*
X192050845Y-50631896D01*
X191988643Y-50556707D01*
X191941359Y-50509752D01*
X191894770Y-50462176D01*
X191886863Y-50455634D01*
X191811242Y-50393959D01*
X191755721Y-50357070D01*
X191700781Y-50319452D01*
X191691770Y-50314580D01*
X191691763Y-50314575D01*
X191691756Y-50314572D01*
X191691754Y-50314571D01*
X191605593Y-50268759D01*
X191543987Y-50243367D01*
X191482780Y-50217133D01*
X191472976Y-50214098D01*
X191472972Y-50214097D01*
X191472970Y-50214096D01*
X191472968Y-50214096D01*
X191379558Y-50185893D01*
X191314172Y-50172946D01*
X191249044Y-50159103D01*
X191238851Y-50158031D01*
X191238844Y-50158030D01*
X191238838Y-50158030D01*
X191142310Y-50148566D01*
X191106105Y-50145000D01*
X186033895Y-50145000D01*
X186002850Y-50148058D01*
X185999895Y-50148037D01*
X185989682Y-50149038D01*
X185941807Y-50154070D01*
X185925915Y-50155635D01*
X185925385Y-50155796D01*
X185892634Y-50159238D01*
X185827364Y-50172636D01*
X185761941Y-50185116D01*
X185752116Y-50188082D01*
X185658897Y-50216938D01*
X185597434Y-50242775D01*
X185535716Y-50267711D01*
X185526655Y-50272528D01*
X185440817Y-50318941D01*
X185385562Y-50356211D01*
X185329849Y-50392669D01*
X185321896Y-50399155D01*
X185246707Y-50461357D01*
X185199752Y-50508641D01*
X185152176Y-50555230D01*
X185145634Y-50563137D01*
X185083959Y-50638758D01*
X185047070Y-50694279D01*
X185009452Y-50749219D01*
X185004580Y-50758230D01*
X185004575Y-50758237D01*
X185004572Y-50758244D01*
X185004571Y-50758246D01*
X184958759Y-50844407D01*
X184933367Y-50906013D01*
X184907133Y-50967220D01*
X184904098Y-50977024D01*
X184875893Y-51070442D01*
X184862946Y-51135828D01*
X184849103Y-51200956D01*
X184848031Y-51211149D01*
X184848030Y-51211156D01*
X184848030Y-51211162D01*
X184838508Y-51308280D01*
X184838508Y-51308287D01*
X184835001Y-51343895D01*
X184835000Y-52416104D01*
X166610000Y-52416104D01*
X166610000Y-42134721D01*
X166622391Y-42008345D01*
X166654617Y-41847215D01*
X166680302Y-41762144D01*
X166761536Y-41609366D01*
X166870899Y-41475273D01*
X167004220Y-41364981D01*
X167156428Y-41282682D01*
X167195801Y-41270494D01*
X167558763Y-41210000D01*
X170063617Y-41210000D01*
X170171030Y-41242430D01*
%TA.AperFunction,Conductor*%
D25*
G36*
X170171030Y-41242430D02*
G01*
X170293595Y-41307599D01*
X170401160Y-41395327D01*
X170489643Y-41502285D01*
X170555660Y-41624381D01*
X170565000Y-41654553D01*
X170565000Y-44428515D01*
X170712377Y-45169428D01*
X171001467Y-45867354D01*
X171421161Y-46495470D01*
X171955330Y-47029639D01*
X172583446Y-47449333D01*
X173281372Y-47738423D01*
X174022285Y-47885800D01*
X174777715Y-47885800D01*
X175518628Y-47738423D01*
X176216554Y-47449333D01*
X176844670Y-47029639D01*
X177378839Y-46495470D01*
X177798533Y-45867354D01*
X178087623Y-45169428D01*
X178235000Y-44428515D01*
X178235000Y-41653580D01*
X178242430Y-41628970D01*
X178307599Y-41506405D01*
X178395327Y-41398840D01*
X178502285Y-41310357D01*
X178624381Y-41244340D01*
X178735315Y-41210000D01*
X219863617Y-41210000D01*
X219971030Y-41242430D01*
X220093595Y-41307599D01*
X220201160Y-41395327D01*
X220289643Y-41502285D01*
X220355660Y-41624381D01*
X220365000Y-41654553D01*
X220365000Y-44100000D01*
X220371751Y-44168852D01*
X220378019Y-44237725D01*
X220378746Y-44240197D01*
X220378998Y-44242762D01*
X220398989Y-44308975D01*
X220415000Y-44363376D01*
X220415000Y-44428515D01*
X220562377Y-45169428D01*
X220851467Y-45867354D01*
X221271161Y-46495470D01*
X221805330Y-47029639D01*
X222433446Y-47449333D01*
X223131372Y-47738423D01*
X223872285Y-47885800D01*
X224627715Y-47885800D01*
X225368628Y-47738423D01*
X226066554Y-47449333D01*
X226694670Y-47029639D01*
X227228839Y-46495470D01*
X227648533Y-45867354D01*
X227937623Y-45169428D01*
X228085000Y-44428515D01*
X228085000Y-43673085D01*
X228035000Y-43421718D01*
X228035000Y-41653580D01*
X228042430Y-41628970D01*
X228107599Y-41506405D01*
X228195327Y-41398840D01*
X228302285Y-41310357D01*
X228424381Y-41244340D01*
X228535315Y-41210000D01*
X231115279Y-41210000D01*
X231241655Y-41222391D01*
X231402785Y-41254617D01*
X231487856Y-41280302D01*
X231640634Y-41361536D01*
X231774727Y-41470899D01*
X231885019Y-41604220D01*
X231967318Y-41756428D01*
X231979506Y-41795801D01*
X232012642Y-41994614D01*
X232039734Y-198267988D01*
X232019710Y-198472207D01*
X231969699Y-198637853D01*
X231888464Y-198790634D01*
X231779103Y-198924724D01*
X231645780Y-199035019D01*
X231493569Y-199117319D01*
X231328272Y-199168487D01*
X231123593Y-199190000D01*
X228447430Y-199190000D01*
X228356405Y-199141601D01*
X228248839Y-199053872D01*
X228160358Y-198946917D01*
X228094338Y-198824815D01*
X228085000Y-198794649D01*
X228085000Y-196022285D01*
X227937623Y-195281372D01*
X227648533Y-194583446D01*
X227228839Y-193955330D01*
X226694670Y-193421161D01*
X226066554Y-193001467D01*
X225368628Y-192712377D01*
X224627715Y-192565000D01*
X223872285Y-192565000D01*
X223131372Y-192712377D01*
X222433446Y-193001467D01*
X221805330Y-193421161D01*
X221271161Y-193955330D01*
X220851467Y-194583446D01*
X220562377Y-195281372D01*
X220415000Y-196022285D01*
X220415000Y-198795622D01*
X220407570Y-198820229D01*
X220342401Y-198942795D01*
X220254672Y-199050361D01*
X220147717Y-199138842D01*
X220053102Y-199190000D01*
X178503461Y-199190000D01*
X178398839Y-199104672D01*
X178310358Y-198997717D01*
X178244338Y-198875615D01*
X178235000Y-198845449D01*
X178235000Y-196073085D01*
X178087623Y-195332172D01*
X177798533Y-194634246D01*
X177378839Y-194006130D01*
X176844670Y-193471961D01*
X176216554Y-193052267D01*
X175518628Y-192763177D01*
X174777715Y-192615800D01*
X174022285Y-192615800D01*
X173281372Y-192763177D01*
X172583446Y-193052267D01*
X171955330Y-193471961D01*
X171421161Y-194006130D01*
X171001467Y-194634246D01*
X170712377Y-195332172D01*
X170565000Y-196073085D01*
X170565000Y-198846422D01*
X170557570Y-198871029D01*
X170492401Y-198993595D01*
X170404672Y-199101161D01*
X170297717Y-199189642D01*
X170297054Y-199190000D01*
X167534721Y-199190000D01*
X167408347Y-199177609D01*
X167247213Y-199145382D01*
X167162147Y-199119699D01*
X167009366Y-199038464D01*
X166875276Y-198929103D01*
X166764981Y-198795780D01*
X166682681Y-198643569D01*
X166670494Y-198604200D01*
X166610000Y-198241237D01*
X166610000Y-185178358D01*
X202636000Y-185178358D01*
X202636000Y-185864842D01*
X202769927Y-186538137D01*
X203032633Y-187172366D01*
X203414024Y-187743158D01*
X203899442Y-188228576D01*
X204470234Y-188609967D01*
X205104463Y-188872673D01*
X205777758Y-189006600D01*
X206464242Y-189006600D01*
X207137537Y-188872673D01*
X207771766Y-188609967D01*
X208342558Y-188228576D01*
X208827976Y-187743158D01*
X209209367Y-187172366D01*
X209472073Y-186538137D01*
X209606000Y-185864842D01*
X209606000Y-185178358D01*
X221686000Y-185178358D01*
X221686000Y-185864842D01*
X221819927Y-186538137D01*
X222082633Y-187172366D01*
X222464024Y-187743158D01*
X222949442Y-188228576D01*
X223520234Y-188609967D01*
X224154463Y-188872673D01*
X224827758Y-189006600D01*
X225514242Y-189006600D01*
X226187537Y-188872673D01*
X226821766Y-188609967D01*
X227392558Y-188228576D01*
X227877976Y-187743158D01*
X228259367Y-187172366D01*
X228522073Y-186538137D01*
X228656000Y-185864842D01*
X228656000Y-185178358D01*
X228522073Y-184505063D01*
X228259367Y-183870834D01*
X227877976Y-183300042D01*
X227392558Y-182814624D01*
X226821766Y-182433233D01*
X226187537Y-182170527D01*
X225514242Y-182036600D01*
X224827758Y-182036600D01*
X224154463Y-182170527D01*
X223520234Y-182433233D01*
X222949442Y-182814624D01*
X222464024Y-183300042D01*
X222082633Y-183870834D01*
X221819927Y-184505063D01*
X221686000Y-185178358D01*
X209606000Y-185178358D01*
X209472073Y-184505063D01*
X209209367Y-183870834D01*
X208827976Y-183300042D01*
X208342558Y-182814624D01*
X207771766Y-182433233D01*
X207137537Y-182170527D01*
X206464242Y-182036600D01*
X205777758Y-182036600D01*
X205104463Y-182170527D01*
X204470234Y-182433233D01*
X203899442Y-182814624D01*
X203414024Y-183300042D01*
X203032633Y-183870834D01*
X202769927Y-184505063D01*
X202636000Y-185178358D01*
X166610000Y-185178358D01*
X166610000Y-170725758D01*
X169362000Y-170725758D01*
X169362000Y-171412242D01*
X169495927Y-172085537D01*
X169758633Y-172719766D01*
X170140024Y-173290558D01*
X170625442Y-173775976D01*
X171196234Y-174157367D01*
X171830463Y-174420073D01*
X172503758Y-174554000D01*
X173190242Y-174554000D01*
X173863537Y-174420073D01*
X174497766Y-174157367D01*
X175068558Y-173775976D01*
X175553976Y-173290558D01*
X175935367Y-172719766D01*
X176198073Y-172085537D01*
X176332000Y-171412242D01*
X176332000Y-170725758D01*
X185872000Y-170725758D01*
X185872000Y-171412242D01*
X186005927Y-172085537D01*
X186268633Y-172719766D01*
X186650024Y-173290558D01*
X187135442Y-173775976D01*
X187706234Y-174157367D01*
X188340463Y-174420073D01*
X189013758Y-174554000D01*
X189700242Y-174554000D01*
X190373537Y-174420073D01*
X191007766Y-174157367D01*
X191578558Y-173775976D01*
X192063976Y-173290558D01*
X192445367Y-172719766D01*
X192708073Y-172085537D01*
X192842000Y-171412242D01*
X192842000Y-170725758D01*
X192708073Y-170052463D01*
X192445367Y-169418234D01*
X192063976Y-168847442D01*
X191578558Y-168362024D01*
X191007766Y-167980633D01*
X190373537Y-167717927D01*
X189700242Y-167584000D01*
X189013758Y-167584000D01*
X188340463Y-167717927D01*
X187706234Y-167980633D01*
X187135442Y-168362024D01*
X186650024Y-168847442D01*
X186268633Y-169418234D01*
X186005927Y-170052463D01*
X185872000Y-170725758D01*
X176332000Y-170725758D01*
X176198073Y-170052463D01*
X175935367Y-169418234D01*
X175553976Y-168847442D01*
X175068558Y-168362024D01*
X174497766Y-167980633D01*
X173863537Y-167717927D01*
X173190242Y-167584000D01*
X172503758Y-167584000D01*
X171830463Y-167717927D01*
X171196234Y-167980633D01*
X170625442Y-168362024D01*
X170140024Y-168847442D01*
X169758633Y-169418234D01*
X169495927Y-170052463D01*
X169362000Y-170725758D01*
X166610000Y-170725758D01*
X166610000Y-154318061D01*
X187185000Y-154318061D01*
X187185000Y-154521939D01*
X187224774Y-154721898D01*
X187302795Y-154910256D01*
X187416063Y-155079774D01*
X187506289Y-155170000D01*
X187416063Y-155260226D01*
X187302795Y-155429744D01*
X187224774Y-155618102D01*
X187185000Y-155818061D01*
X187185000Y-156021939D01*
X187224774Y-156221898D01*
X187302795Y-156410256D01*
X187416063Y-156579774D01*
X187506289Y-156670000D01*
X187416063Y-156760226D01*
X187302795Y-156929744D01*
X187224774Y-157118102D01*
X187185000Y-157318061D01*
X187185000Y-157521939D01*
X187224774Y-157721898D01*
X187302795Y-157910256D01*
X187416063Y-158079774D01*
X187506289Y-158170000D01*
X187416063Y-158260226D01*
X187302795Y-158429744D01*
X187224774Y-158618102D01*
X187185000Y-158818061D01*
X187185000Y-159021939D01*
X187224774Y-159221898D01*
X187302795Y-159410256D01*
X187416063Y-159579774D01*
X187560226Y-159723937D01*
X187729744Y-159837205D01*
X187918102Y-159915226D01*
X188118061Y-159955000D01*
X188321939Y-159955000D01*
X188521898Y-159915226D01*
X188710256Y-159837205D01*
X188879774Y-159723937D01*
X188970000Y-159633711D01*
X189060226Y-159723937D01*
X189229744Y-159837205D01*
X189418102Y-159915226D01*
X189618061Y-159955000D01*
X189821939Y-159955000D01*
X190021898Y-159915226D01*
X190210256Y-159837205D01*
X190379774Y-159723937D01*
X190470000Y-159633711D01*
X190560226Y-159723937D01*
X190729744Y-159837205D01*
X190918102Y-159915226D01*
X191118061Y-159955000D01*
X191321939Y-159955000D01*
X191521898Y-159915226D01*
X191710256Y-159837205D01*
X191879774Y-159723937D01*
X192023937Y-159579774D01*
X192137205Y-159410256D01*
X192215226Y-159221898D01*
X192255000Y-159021939D01*
X192255000Y-158818061D01*
X192215226Y-158618102D01*
X192137205Y-158429744D01*
X192023937Y-158260226D01*
X191933711Y-158170000D01*
X192023937Y-158079774D01*
X192137205Y-157910256D01*
X192215226Y-157721898D01*
X192255000Y-157521939D01*
X192255000Y-157318061D01*
X192215226Y-157118102D01*
X192137205Y-156929744D01*
X192023937Y-156760226D01*
X191933711Y-156670000D01*
X192023937Y-156579774D01*
X192137205Y-156410256D01*
X192215226Y-156221898D01*
X192255000Y-156021939D01*
X192255000Y-155818061D01*
X192215226Y-155618102D01*
X192137205Y-155429744D01*
X192023937Y-155260226D01*
X191933711Y-155170000D01*
X192023937Y-155079774D01*
X192137205Y-154910256D01*
X192215226Y-154721898D01*
X192255000Y-154521939D01*
X192255000Y-154318061D01*
X201185000Y-154318061D01*
X201185000Y-154521939D01*
X201224774Y-154721898D01*
X201302795Y-154910256D01*
X201416063Y-155079774D01*
X201506289Y-155170000D01*
X201416063Y-155260226D01*
X201302795Y-155429744D01*
X201224774Y-155618102D01*
X201185000Y-155818061D01*
X201185000Y-156021939D01*
X201224774Y-156221898D01*
X201302795Y-156410256D01*
X201416063Y-156579774D01*
X201506289Y-156670000D01*
X201416063Y-156760226D01*
X201302795Y-156929744D01*
X201224774Y-157118102D01*
X201185000Y-157318061D01*
X201185000Y-157521939D01*
X201224774Y-157721898D01*
X201302795Y-157910256D01*
X201416063Y-158079774D01*
X201506289Y-158170000D01*
X201416063Y-158260226D01*
X201302795Y-158429744D01*
X201224774Y-158618102D01*
X201185000Y-158818061D01*
X201185000Y-159021939D01*
X201224774Y-159221898D01*
X201302795Y-159410256D01*
X201416063Y-159579774D01*
X201560226Y-159723937D01*
X201729744Y-159837205D01*
X201918102Y-159915226D01*
X202118061Y-159955000D01*
X202321939Y-159955000D01*
X202521898Y-159915226D01*
X202710256Y-159837205D01*
X202879774Y-159723937D01*
X202970000Y-159633711D01*
X203060226Y-159723937D01*
X203229744Y-159837205D01*
X203418102Y-159915226D01*
X203618061Y-159955000D01*
X203821939Y-159955000D01*
X204021898Y-159915226D01*
X204210256Y-159837205D01*
X204379774Y-159723937D01*
X204470000Y-159633711D01*
X204560226Y-159723937D01*
X204729744Y-159837205D01*
X204918102Y-159915226D01*
X205118061Y-159955000D01*
X205321939Y-159955000D01*
X205521898Y-159915226D01*
X205710256Y-159837205D01*
X205879774Y-159723937D01*
X206023937Y-159579774D01*
X206137205Y-159410256D01*
X206215226Y-159221898D01*
X206255000Y-159021939D01*
X206255000Y-158818061D01*
X206215226Y-158618102D01*
X206137205Y-158429744D01*
X206023937Y-158260226D01*
X205933711Y-158170000D01*
X206023937Y-158079774D01*
X206137205Y-157910256D01*
X206215226Y-157721898D01*
X206255000Y-157521939D01*
X206255000Y-157318061D01*
X206215226Y-157118102D01*
X206137205Y-156929744D01*
X206023937Y-156760226D01*
X205933711Y-156670000D01*
X206023937Y-156579774D01*
X206137205Y-156410256D01*
X206215226Y-156221898D01*
X206255000Y-156021939D01*
X206255000Y-155818061D01*
X206215226Y-155618102D01*
X206137205Y-155429744D01*
X206023937Y-155260226D01*
X205933711Y-155170000D01*
X206023937Y-155079774D01*
X206137205Y-154910256D01*
X206215226Y-154721898D01*
X206255000Y-154521939D01*
X206255000Y-154318061D01*
X206215226Y-154118102D01*
X206137205Y-153929744D01*
X206023937Y-153760226D01*
X205879774Y-153616063D01*
X205710256Y-153502795D01*
X205521898Y-153424774D01*
X205321939Y-153385000D01*
X205118061Y-153385000D01*
X204918102Y-153424774D01*
X204729744Y-153502795D01*
X204560226Y-153616063D01*
X204470000Y-153706289D01*
X204379774Y-153616063D01*
X204210256Y-153502795D01*
X204021898Y-153424774D01*
X203821939Y-153385000D01*
X203618061Y-153385000D01*
X203418102Y-153424774D01*
X203229744Y-153502795D01*
X203060226Y-153616063D01*
X202970000Y-153706289D01*
X202879774Y-153616063D01*
X202710256Y-153502795D01*
X202521898Y-153424774D01*
X202321939Y-153385000D01*
X202118061Y-153385000D01*
X201918102Y-153424774D01*
X201729744Y-153502795D01*
X201560226Y-153616063D01*
X201416063Y-153760226D01*
X201302795Y-153929744D01*
X201224774Y-154118102D01*
X201185000Y-154318061D01*
X192255000Y-154318061D01*
X192215226Y-154118102D01*
X192137205Y-153929744D01*
X192023937Y-153760226D01*
X191879774Y-153616063D01*
X191710256Y-153502795D01*
X191521898Y-153424774D01*
X191321939Y-153385000D01*
X191118061Y-153385000D01*
X190918102Y-153424774D01*
X190729744Y-153502795D01*
X190560226Y-153616063D01*
X190470000Y-153706289D01*
X190379774Y-153616063D01*
X190210256Y-153502795D01*
X190021898Y-153424774D01*
X189821939Y-153385000D01*
X189618061Y-153385000D01*
X189418102Y-153424774D01*
X189229744Y-153502795D01*
X189060226Y-153616063D01*
X188970000Y-153706289D01*
X188879774Y-153616063D01*
X188710256Y-153502795D01*
X188521898Y-153424774D01*
X188321939Y-153385000D01*
X188118061Y-153385000D01*
X187918102Y-153424774D01*
X187729744Y-153502795D01*
X187560226Y-153616063D01*
X187416063Y-153760226D01*
X187302795Y-153929744D01*
X187224774Y-154118102D01*
X187185000Y-154318061D01*
X166610000Y-154318061D01*
X166610000Y-143746710D01*
X167449000Y-143746710D01*
X167449000Y-144035290D01*
X167505299Y-144318325D01*
X167615733Y-144584938D01*
X167776060Y-144824883D01*
X167980117Y-145028940D01*
X168220062Y-145189267D01*
X168486675Y-145299701D01*
X168769710Y-145356000D01*
X169058290Y-145356000D01*
X169341325Y-145299701D01*
X169607938Y-145189267D01*
X169847883Y-145028940D01*
X170051940Y-144824883D01*
X170212267Y-144584938D01*
X170322701Y-144318325D01*
X170379000Y-144035290D01*
X170379000Y-143746710D01*
X191825000Y-143746710D01*
X191825000Y-144035290D01*
X191881299Y-144318325D01*
X191991733Y-144584938D01*
X192152060Y-144824883D01*
X192356117Y-145028940D01*
X192596062Y-145189267D01*
X192862675Y-145299701D01*
X193145710Y-145356000D01*
X193434290Y-145356000D01*
X193717325Y-145299701D01*
X193983938Y-145189267D01*
X194223883Y-145028940D01*
X194427940Y-144824883D01*
X194588267Y-144584938D01*
X194698701Y-144318325D01*
X194755000Y-144035290D01*
X194755000Y-143746710D01*
X194698701Y-143463675D01*
X194588267Y-143197062D01*
X194427940Y-142957117D01*
X194223883Y-142753060D01*
X193983938Y-142592733D01*
X193717325Y-142482299D01*
X193434290Y-142426000D01*
X193145710Y-142426000D01*
X192862675Y-142482299D01*
X192596062Y-142592733D01*
X192356117Y-142753060D01*
X192152060Y-142957117D01*
X191991733Y-143197062D01*
X191881299Y-143463675D01*
X191825000Y-143746710D01*
X170379000Y-143746710D01*
X170322701Y-143463675D01*
X170212267Y-143197062D01*
X170051940Y-142957117D01*
X169847883Y-142753060D01*
X169607938Y-142592733D01*
X169341325Y-142482299D01*
X169058290Y-142426000D01*
X168769710Y-142426000D01*
X168486675Y-142482299D01*
X168220062Y-142592733D01*
X167980117Y-142753060D01*
X167776060Y-142957117D01*
X167615733Y-143197062D01*
X167505299Y-143463675D01*
X167449000Y-143746710D01*
X166610000Y-143746710D01*
X166610000Y-140444710D01*
X167449000Y-140444710D01*
X167449000Y-140733290D01*
X167505299Y-141016325D01*
X167615733Y-141282938D01*
X167776060Y-141522883D01*
X167980117Y-141726940D01*
X168220062Y-141887267D01*
X168486675Y-141997701D01*
X168769710Y-142054000D01*
X169058290Y-142054000D01*
X169341325Y-141997701D01*
X169607938Y-141887267D01*
X169847883Y-141726940D01*
X170051940Y-141522883D01*
X170212267Y-141282938D01*
X170322701Y-141016325D01*
X170379000Y-140733290D01*
X170379000Y-140444710D01*
X191825000Y-140444710D01*
X191825000Y-140733290D01*
X191881299Y-141016325D01*
X191991733Y-141282938D01*
X192152060Y-141522883D01*
X192356117Y-141726940D01*
X192596062Y-141887267D01*
X192862675Y-141997701D01*
X193145710Y-142054000D01*
X193434290Y-142054000D01*
X193717325Y-141997701D01*
X193983938Y-141887267D01*
X194223883Y-141726940D01*
X194427940Y-141522883D01*
X194588267Y-141282938D01*
X194698701Y-141016325D01*
X194755000Y-140733290D01*
X194755000Y-140444710D01*
X194698701Y-140161675D01*
X194588267Y-139895062D01*
X194427940Y-139655117D01*
X194223883Y-139451060D01*
X193983938Y-139290733D01*
X193717325Y-139180299D01*
X193434290Y-139124000D01*
X193145710Y-139124000D01*
X192862675Y-139180299D01*
X192596062Y-139290733D01*
X192356117Y-139451060D01*
X192152060Y-139655117D01*
X191991733Y-139895062D01*
X191881299Y-140161675D01*
X191825000Y-140444710D01*
X170379000Y-140444710D01*
X170322701Y-140161675D01*
X170212267Y-139895062D01*
X170051940Y-139655117D01*
X169847883Y-139451060D01*
X169607938Y-139290733D01*
X169341325Y-139180299D01*
X169058290Y-139124000D01*
X168769710Y-139124000D01*
X168486675Y-139180299D01*
X168220062Y-139290733D01*
X167980117Y-139451060D01*
X167776060Y-139655117D01*
X167615733Y-139895062D01*
X167505299Y-140161675D01*
X167449000Y-140444710D01*
X166610000Y-140444710D01*
X166610000Y-137142710D01*
X167449000Y-137142710D01*
X167449000Y-137431290D01*
X167505299Y-137714325D01*
X167615733Y-137980938D01*
X167776060Y-138220883D01*
X167980117Y-138424940D01*
X168220062Y-138585267D01*
X168486675Y-138695701D01*
X168769710Y-138752000D01*
X169058290Y-138752000D01*
X169341325Y-138695701D01*
X169607938Y-138585267D01*
X169847883Y-138424940D01*
X170051940Y-138220883D01*
X170212267Y-137980938D01*
X170322701Y-137714325D01*
X170379000Y-137431290D01*
X170379000Y-137142710D01*
X191825000Y-137142710D01*
X191825000Y-137431290D01*
X191881299Y-137714325D01*
X191991733Y-137980938D01*
X192152060Y-138220883D01*
X192356117Y-138424940D01*
X192596062Y-138585267D01*
X192862675Y-138695701D01*
X193145710Y-138752000D01*
X193434290Y-138752000D01*
X193717325Y-138695701D01*
X193983938Y-138585267D01*
X194223883Y-138424940D01*
X194427940Y-138220883D01*
X194588267Y-137980938D01*
X194698701Y-137714325D01*
X194755000Y-137431290D01*
X194755000Y-137142710D01*
X194698701Y-136859675D01*
X194588267Y-136593062D01*
X194427940Y-136353117D01*
X194223883Y-136149060D01*
X193983938Y-135988733D01*
X193717325Y-135878299D01*
X193434290Y-135822000D01*
X193145710Y-135822000D01*
X192862675Y-135878299D01*
X192596062Y-135988733D01*
X192356117Y-136149060D01*
X192152060Y-136353117D01*
X191991733Y-136593062D01*
X191881299Y-136859675D01*
X191825000Y-137142710D01*
X170379000Y-137142710D01*
X170322701Y-136859675D01*
X170212267Y-136593062D01*
X170051940Y-136353117D01*
X169847883Y-136149060D01*
X169607938Y-135988733D01*
X169341325Y-135878299D01*
X169058290Y-135822000D01*
X168769710Y-135822000D01*
X168486675Y-135878299D01*
X168220062Y-135988733D01*
X167980117Y-136149060D01*
X167776060Y-136353117D01*
X167615733Y-136593062D01*
X167505299Y-136859675D01*
X167449000Y-137142710D01*
X166610000Y-137142710D01*
X166610000Y-133840710D01*
X167449000Y-133840710D01*
X167449000Y-134129290D01*
X167505299Y-134412325D01*
X167615733Y-134678938D01*
X167776060Y-134918883D01*
X167980117Y-135122940D01*
X168220062Y-135283267D01*
X168486675Y-135393701D01*
X168769710Y-135450000D01*
X169058290Y-135450000D01*
X169341325Y-135393701D01*
X169607938Y-135283267D01*
X169847883Y-135122940D01*
X169971702Y-134999121D01*
X192455484Y-134999121D01*
X192530699Y-135246153D01*
X192791327Y-135370052D01*
X193071119Y-135440725D01*
X193359323Y-135455455D01*
X193644862Y-135413676D01*
X193916765Y-135316995D01*
X194049301Y-135246153D01*
X194124516Y-134999121D01*
X193290000Y-134164605D01*
X192455484Y-134999121D01*
X169971702Y-134999121D01*
X170051940Y-134918883D01*
X170212267Y-134678938D01*
X170322701Y-134412325D01*
X170379000Y-134129290D01*
X170379000Y-134054323D01*
X191819545Y-134054323D01*
X191861324Y-134339862D01*
X191958005Y-134611765D01*
X192028847Y-134744301D01*
X192275879Y-134819516D01*
X193110395Y-133985000D01*
X193469605Y-133985000D01*
X194304121Y-134819516D01*
X194551153Y-134744301D01*
X194675052Y-134483673D01*
X194745725Y-134203881D01*
X194760455Y-133915677D01*
X194718676Y-133630138D01*
X194621995Y-133358235D01*
X194551153Y-133225699D01*
X194304121Y-133150484D01*
X193469605Y-133985000D01*
X193110395Y-133985000D01*
X192275879Y-133150484D01*
X192028847Y-133225699D01*
X191904948Y-133486327D01*
X191834275Y-133766119D01*
X191819545Y-134054323D01*
X170379000Y-134054323D01*
X170379000Y-133840710D01*
X170322701Y-133557675D01*
X170212267Y-133291062D01*
X170051940Y-133051117D01*
X169971702Y-132970879D01*
X192455484Y-132970879D01*
X193290000Y-133805395D01*
X194124516Y-132970879D01*
X194049301Y-132723847D01*
X193788673Y-132599948D01*
X193508881Y-132529275D01*
X193220677Y-132514545D01*
X192935138Y-132556324D01*
X192663235Y-132653005D01*
X192530699Y-132723847D01*
X192455484Y-132970879D01*
X169971702Y-132970879D01*
X169847883Y-132847060D01*
X169607938Y-132686733D01*
X169341325Y-132576299D01*
X169058290Y-132520000D01*
X168769710Y-132520000D01*
X168486675Y-132576299D01*
X168220062Y-132686733D01*
X167980117Y-132847060D01*
X167776060Y-133051117D01*
X167615733Y-133291062D01*
X167505299Y-133557675D01*
X167449000Y-133840710D01*
X166610000Y-133840710D01*
X166610000Y-125005758D01*
X169362000Y-125005758D01*
X169362000Y-125692242D01*
X169495927Y-126365537D01*
X169758633Y-126999766D01*
X170140024Y-127570558D01*
X170625442Y-128055976D01*
X171196234Y-128437367D01*
X171830463Y-128700073D01*
X172503758Y-128834000D01*
X173190242Y-128834000D01*
X173863537Y-128700073D01*
X174497766Y-128437367D01*
X175068558Y-128055976D01*
X175553976Y-127570558D01*
X175935367Y-126999766D01*
X176198073Y-126365537D01*
X176332000Y-125692242D01*
X176332000Y-125005758D01*
X185872000Y-125005758D01*
X185872000Y-125692242D01*
X186005927Y-126365537D01*
X186268633Y-126999766D01*
X186650024Y-127570558D01*
X187135442Y-128055976D01*
X187706234Y-128437367D01*
X188340463Y-128700073D01*
X189013758Y-128834000D01*
X189700242Y-128834000D01*
X190373537Y-128700073D01*
X191007766Y-128437367D01*
X191578558Y-128055976D01*
X192063976Y-127570558D01*
X192445367Y-126999766D01*
X192708073Y-126365537D01*
X192842000Y-125692242D01*
X192842000Y-125005758D01*
X192708073Y-124332463D01*
X192445367Y-123698234D01*
X192063976Y-123127442D01*
X191578558Y-122642024D01*
X191007766Y-122260633D01*
X190373537Y-121997927D01*
X189700242Y-121864000D01*
X189013758Y-121864000D01*
X188340463Y-121997927D01*
X187706234Y-122260633D01*
X187135442Y-122642024D01*
X186650024Y-123127442D01*
X186268633Y-123698234D01*
X186005927Y-124332463D01*
X185872000Y-125005758D01*
X176332000Y-125005758D01*
X176198073Y-124332463D01*
X175935367Y-123698234D01*
X175553976Y-123127442D01*
X175068558Y-122642024D01*
X174497766Y-122260633D01*
X173863537Y-121997927D01*
X173190242Y-121864000D01*
X172503758Y-121864000D01*
X171830463Y-121997927D01*
X171196234Y-122260633D01*
X170625442Y-122642024D01*
X170140024Y-123127442D01*
X169758633Y-123698234D01*
X169495927Y-124332463D01*
X169362000Y-125005758D01*
X166610000Y-125005758D01*
X166610000Y-103378000D01*
X194696299Y-103378000D01*
X194703000Y-103446037D01*
X194703000Y-103514411D01*
X194716339Y-103581470D01*
X194723040Y-103649507D01*
X194742886Y-103714932D01*
X194756225Y-103781989D01*
X194782389Y-103845155D01*
X194802236Y-103910581D01*
X194828001Y-103958784D01*
X194828000Y-134558107D01*
X194828000Y-134558108D01*
X194828001Y-136074729D01*
X194756225Y-136248011D01*
X194703000Y-136515589D01*
X194703000Y-136788411D01*
X194756225Y-137055989D01*
X194860629Y-137308043D01*
X195012201Y-137534886D01*
X195205114Y-137727799D01*
X195431957Y-137879371D01*
X195684011Y-137983775D01*
X195951589Y-138037000D01*
X196224411Y-138037000D01*
X196491989Y-137983775D01*
X196744043Y-137879371D01*
X196970886Y-137727799D01*
X197163799Y-137534886D01*
X197315371Y-137308043D01*
X197419775Y-137055989D01*
X197473000Y-136788411D01*
X197473000Y-136515589D01*
X197419775Y-136248011D01*
X197348000Y-136074731D01*
X197348000Y-111115589D01*
X198513000Y-111115589D01*
X198513000Y-111388411D01*
X198566225Y-111655989D01*
X198638000Y-111829270D01*
X198638001Y-116270107D01*
X198631905Y-116332000D01*
X198656233Y-116579003D01*
X198728280Y-116816513D01*
X198845280Y-117035405D01*
X198963281Y-117179189D01*
X199002736Y-117227265D01*
X199050811Y-117266719D01*
X206721954Y-124937862D01*
X206464242Y-124886600D01*
X205777758Y-124886600D01*
X205104463Y-125020527D01*
X204470234Y-125283233D01*
X203899442Y-125664624D01*
X203414024Y-126150042D01*
X203032633Y-126720834D01*
X202769927Y-127355063D01*
X202636000Y-128028358D01*
X202636000Y-128714842D01*
X202769927Y-129388137D01*
X203032633Y-130022366D01*
X203414024Y-130593158D01*
X203899442Y-131078576D01*
X204470234Y-131459967D01*
X205104463Y-131722673D01*
X205777758Y-131856600D01*
X206464242Y-131856600D01*
X207137537Y-131722673D01*
X207771766Y-131459967D01*
X208342558Y-131078576D01*
X208827976Y-130593158D01*
X209209367Y-130022366D01*
X209472073Y-129388137D01*
X209606000Y-128714842D01*
X209606000Y-128028358D01*
X209554738Y-127770646D01*
X220299281Y-138515190D01*
X220338735Y-138563265D01*
X220386810Y-138602719D01*
X220530595Y-138720720D01*
X220749486Y-138837720D01*
X220986997Y-138909768D01*
X221234000Y-138934096D01*
X221295893Y-138928000D01*
X223955218Y-138928000D01*
X224003419Y-138953764D01*
X224068845Y-138973611D01*
X224132011Y-138999775D01*
X224199068Y-139013114D01*
X224264493Y-139032960D01*
X224332530Y-139039661D01*
X224399589Y-139053000D01*
X224672411Y-139053000D01*
X224739470Y-139039661D01*
X224807507Y-139032960D01*
X224872932Y-139013114D01*
X224939989Y-138999775D01*
X225003155Y-138973611D01*
X225068581Y-138953764D01*
X225128877Y-138921535D01*
X225192043Y-138895371D01*
X225248890Y-138857387D01*
X225309188Y-138825157D01*
X225362040Y-138781783D01*
X225418886Y-138743799D01*
X225467231Y-138695454D01*
X225520081Y-138652081D01*
X225563454Y-138599231D01*
X225611799Y-138550886D01*
X225649783Y-138494040D01*
X225693157Y-138441188D01*
X225725387Y-138380890D01*
X225763371Y-138324043D01*
X225789535Y-138260877D01*
X225821764Y-138200581D01*
X225841611Y-138135155D01*
X225867775Y-138071989D01*
X225881114Y-138004932D01*
X225900960Y-137939507D01*
X225907661Y-137871470D01*
X225921000Y-137804411D01*
X225921000Y-137736037D01*
X225927701Y-137668000D01*
X225921000Y-137599963D01*
X225921000Y-137561810D01*
X228881000Y-137561810D01*
X228881000Y-137850390D01*
X228937299Y-138133425D01*
X229047733Y-138400038D01*
X229208060Y-138639983D01*
X229412117Y-138844040D01*
X229652062Y-139004367D01*
X229918675Y-139114801D01*
X230201710Y-139171100D01*
X230490290Y-139171100D01*
X230773325Y-139114801D01*
X231039938Y-139004367D01*
X231279883Y-138844040D01*
X231483940Y-138639983D01*
X231644267Y-138400038D01*
X231754701Y-138133425D01*
X231811000Y-137850390D01*
X231811000Y-137561810D01*
X231754701Y-137278775D01*
X231644267Y-137012162D01*
X231483940Y-136772217D01*
X231279883Y-136568160D01*
X231039938Y-136407833D01*
X230773325Y-136297399D01*
X230490290Y-136241100D01*
X230201710Y-136241100D01*
X229918675Y-136297399D01*
X229652062Y-136407833D01*
X229412117Y-136568160D01*
X229208060Y-136772217D01*
X229047733Y-137012162D01*
X228937299Y-137278775D01*
X228881000Y-137561810D01*
X225921000Y-137561810D01*
X225921000Y-137531589D01*
X225907661Y-137464530D01*
X225900960Y-137396493D01*
X225881114Y-137331068D01*
X225867775Y-137264011D01*
X225841611Y-137200845D01*
X225821764Y-137135419D01*
X225789535Y-137075123D01*
X225763371Y-137011957D01*
X225725387Y-136955110D01*
X225693157Y-136894812D01*
X225649783Y-136841960D01*
X225611799Y-136785114D01*
X225563454Y-136736769D01*
X225520081Y-136683919D01*
X225467231Y-136640546D01*
X225418886Y-136592201D01*
X225362040Y-136554217D01*
X225309188Y-136510843D01*
X225248890Y-136478613D01*
X225192043Y-136440629D01*
X225128877Y-136414465D01*
X225068581Y-136382236D01*
X225003155Y-136362389D01*
X224939989Y-136336225D01*
X224872932Y-136322886D01*
X224807507Y-136303040D01*
X224739470Y-136296339D01*
X224672411Y-136283000D01*
X224399589Y-136283000D01*
X224332530Y-136296339D01*
X224264493Y-136303040D01*
X224199068Y-136322886D01*
X224132011Y-136336225D01*
X224068845Y-136362389D01*
X224003419Y-136382236D01*
X223955218Y-136408000D01*
X221755909Y-136408000D01*
X220893130Y-135545221D01*
X229511484Y-135545221D01*
X229586699Y-135792253D01*
X229847327Y-135916152D01*
X230127119Y-135986825D01*
X230415323Y-136001555D01*
X230700862Y-135959776D01*
X230972765Y-135863095D01*
X231105301Y-135792253D01*
X231180516Y-135545221D01*
X230346000Y-134710705D01*
X229511484Y-135545221D01*
X220893130Y-135545221D01*
X219948332Y-134600423D01*
X228875545Y-134600423D01*
X228917324Y-134885962D01*
X229014005Y-135157865D01*
X229084847Y-135290401D01*
X229331879Y-135365616D01*
X230166395Y-134531100D01*
X230525605Y-134531100D01*
X231360121Y-135365616D01*
X231607153Y-135290401D01*
X231731052Y-135029773D01*
X231801725Y-134749981D01*
X231816455Y-134461777D01*
X231774676Y-134176238D01*
X231677995Y-133904335D01*
X231607153Y-133771799D01*
X231360121Y-133696584D01*
X230525605Y-134531100D01*
X230166395Y-134531100D01*
X229331879Y-133696584D01*
X229084847Y-133771799D01*
X228960948Y-134032427D01*
X228890275Y-134312219D01*
X228875545Y-134600423D01*
X219948332Y-134600423D01*
X218864888Y-133516979D01*
X229511484Y-133516979D01*
X230346000Y-134351495D01*
X231180516Y-133516979D01*
X231105301Y-133269947D01*
X230844673Y-133146048D01*
X230564881Y-133075375D01*
X230276677Y-133060645D01*
X229991138Y-133102424D01*
X229719235Y-133199105D01*
X229586699Y-133269947D01*
X229511484Y-133516979D01*
X218864888Y-133516979D01*
X213376267Y-128028358D01*
X221686000Y-128028358D01*
X221686000Y-128714842D01*
X221819927Y-129388137D01*
X222082633Y-130022366D01*
X222464024Y-130593158D01*
X222949442Y-131078576D01*
X223520234Y-131459967D01*
X224154463Y-131722673D01*
X224827758Y-131856600D01*
X225514242Y-131856600D01*
X226187537Y-131722673D01*
X226821766Y-131459967D01*
X227392558Y-131078576D01*
X227877976Y-130593158D01*
X228259367Y-130022366D01*
X228522073Y-129388137D01*
X228656000Y-128714842D01*
X228656000Y-128028358D01*
X228522073Y-127355063D01*
X228259367Y-126720834D01*
X227877976Y-126150042D01*
X227392558Y-125664624D01*
X226821766Y-125283233D01*
X226187537Y-125020527D01*
X225514242Y-124886600D01*
X224827758Y-124886600D01*
X224154463Y-125020527D01*
X223520234Y-125283233D01*
X222949442Y-125664624D01*
X222464024Y-126150042D01*
X222082633Y-126720834D01*
X221819927Y-127355063D01*
X221686000Y-128028358D01*
X213376267Y-128028358D01*
X202075619Y-116727710D01*
X206243500Y-116727710D01*
X206243500Y-117016290D01*
X206299799Y-117299325D01*
X206410233Y-117565938D01*
X206570560Y-117805883D01*
X206774617Y-118009940D01*
X207014562Y-118170267D01*
X207281175Y-118280701D01*
X207564210Y-118337000D01*
X207852790Y-118337000D01*
X208135825Y-118280701D01*
X208402438Y-118170267D01*
X208642383Y-118009940D01*
X208846440Y-117805883D01*
X209006767Y-117565938D01*
X209117201Y-117299325D01*
X209173500Y-117016290D01*
X209173500Y-116727710D01*
X209418500Y-116727710D01*
X209418500Y-117016290D01*
X209474799Y-117299325D01*
X209585233Y-117565938D01*
X209745560Y-117805883D01*
X209949617Y-118009940D01*
X210189562Y-118170267D01*
X210456175Y-118280701D01*
X210739210Y-118337000D01*
X211027790Y-118337000D01*
X211310825Y-118280701D01*
X211577438Y-118170267D01*
X211817383Y-118009940D01*
X212021440Y-117805883D01*
X212181767Y-117565938D01*
X212292201Y-117299325D01*
X212348500Y-117016290D01*
X212348500Y-116727710D01*
X212593500Y-116727710D01*
X212593500Y-117016290D01*
X212649799Y-117299325D01*
X212760233Y-117565938D01*
X212920560Y-117805883D01*
X213124617Y-118009940D01*
X213364562Y-118170267D01*
X213631175Y-118280701D01*
X213914210Y-118337000D01*
X214202790Y-118337000D01*
X214485825Y-118280701D01*
X214752438Y-118170267D01*
X214992383Y-118009940D01*
X215196440Y-117805883D01*
X215356767Y-117565938D01*
X215467201Y-117299325D01*
X215523500Y-117016290D01*
X215523500Y-116727710D01*
X215768500Y-116727710D01*
X215768500Y-117016290D01*
X215824799Y-117299325D01*
X215935233Y-117565938D01*
X216095560Y-117805883D01*
X216299617Y-118009940D01*
X216539562Y-118170267D01*
X216806175Y-118280701D01*
X217089210Y-118337000D01*
X217377790Y-118337000D01*
X217660825Y-118280701D01*
X217927438Y-118170267D01*
X218167383Y-118009940D01*
X218371440Y-117805883D01*
X218531767Y-117565938D01*
X218642201Y-117299325D01*
X218698500Y-117016290D01*
X218698500Y-116727710D01*
X218943500Y-116727710D01*
X218943500Y-117016290D01*
X218999799Y-117299325D01*
X219110233Y-117565938D01*
X219270560Y-117805883D01*
X219474617Y-118009940D01*
X219714562Y-118170267D01*
X219981175Y-118280701D01*
X220264210Y-118337000D01*
X220552790Y-118337000D01*
X220835825Y-118280701D01*
X221102438Y-118170267D01*
X221342383Y-118009940D01*
X221546440Y-117805883D01*
X221706767Y-117565938D01*
X221817201Y-117299325D01*
X221873500Y-117016290D01*
X221873500Y-116727710D01*
X222118500Y-116727710D01*
X222118500Y-117016290D01*
X222174799Y-117299325D01*
X222285233Y-117565938D01*
X222445560Y-117805883D01*
X222649617Y-118009940D01*
X222889562Y-118170267D01*
X223156175Y-118280701D01*
X223439210Y-118337000D01*
X223727790Y-118337000D01*
X224010825Y-118280701D01*
X224277438Y-118170267D01*
X224517383Y-118009940D01*
X224721440Y-117805883D01*
X224881767Y-117565938D01*
X224992201Y-117299325D01*
X225048500Y-117016290D01*
X225048500Y-116727710D01*
X224992201Y-116444675D01*
X224881767Y-116178062D01*
X224721440Y-115938117D01*
X224517383Y-115734060D01*
X224277438Y-115573733D01*
X224010825Y-115463299D01*
X223727790Y-115407000D01*
X223439210Y-115407000D01*
X223156175Y-115463299D01*
X222889562Y-115573733D01*
X222649617Y-115734060D01*
X222445560Y-115938117D01*
X222285233Y-116178062D01*
X222174799Y-116444675D01*
X222118500Y-116727710D01*
X221873500Y-116727710D01*
X221817201Y-116444675D01*
X221706767Y-116178062D01*
X221546440Y-115938117D01*
X221342383Y-115734060D01*
X221102438Y-115573733D01*
X220835825Y-115463299D01*
X220552790Y-115407000D01*
X220264210Y-115407000D01*
X219981175Y-115463299D01*
X219714562Y-115573733D01*
X219474617Y-115734060D01*
X219270560Y-115938117D01*
X219110233Y-116178062D01*
X218999799Y-116444675D01*
X218943500Y-116727710D01*
X218698500Y-116727710D01*
X218642201Y-116444675D01*
X218531767Y-116178062D01*
X218371440Y-115938117D01*
X218167383Y-115734060D01*
X217927438Y-115573733D01*
X217660825Y-115463299D01*
X217377790Y-115407000D01*
X217089210Y-115407000D01*
X216806175Y-115463299D01*
X216539562Y-115573733D01*
X216299617Y-115734060D01*
X216095560Y-115938117D01*
X215935233Y-116178062D01*
X215824799Y-116444675D01*
X215768500Y-116727710D01*
X215523500Y-116727710D01*
X215467201Y-116444675D01*
X215356767Y-116178062D01*
X215196440Y-115938117D01*
X214992383Y-115734060D01*
X214752438Y-115573733D01*
X214485825Y-115463299D01*
X214202790Y-115407000D01*
X213914210Y-115407000D01*
X213631175Y-115463299D01*
X213364562Y-115573733D01*
X213124617Y-115734060D01*
X212920560Y-115938117D01*
X212760233Y-116178062D01*
X212649799Y-116444675D01*
X212593500Y-116727710D01*
X212348500Y-116727710D01*
X212292201Y-116444675D01*
X212181767Y-116178062D01*
X212021440Y-115938117D01*
X211817383Y-115734060D01*
X211577438Y-115573733D01*
X211310825Y-115463299D01*
X211027790Y-115407000D01*
X210739210Y-115407000D01*
X210456175Y-115463299D01*
X210189562Y-115573733D01*
X209949617Y-115734060D01*
X209745560Y-115938117D01*
X209585233Y-116178062D01*
X209474799Y-116444675D01*
X209418500Y-116727710D01*
X209173500Y-116727710D01*
X209117201Y-116444675D01*
X209006767Y-116178062D01*
X208846440Y-115938117D01*
X208642383Y-115734060D01*
X208402438Y-115573733D01*
X208135825Y-115463299D01*
X207852790Y-115407000D01*
X207564210Y-115407000D01*
X207281175Y-115463299D01*
X207014562Y-115573733D01*
X206774617Y-115734060D01*
X206570560Y-115938117D01*
X206410233Y-116178062D01*
X206299799Y-116444675D01*
X206243500Y-116727710D01*
X202075619Y-116727710D01*
X201158000Y-115810092D01*
X201158000Y-111829269D01*
X201229775Y-111655989D01*
X201283000Y-111388411D01*
X201283000Y-111115589D01*
X201229775Y-110848011D01*
X201125371Y-110595957D01*
X200973799Y-110369114D01*
X200780886Y-110176201D01*
X200554043Y-110024629D01*
X200301989Y-109920225D01*
X200034411Y-109867000D01*
X199761589Y-109867000D01*
X199494011Y-109920225D01*
X199241957Y-110024629D01*
X199015114Y-110176201D01*
X198822201Y-110369114D01*
X198670629Y-110595957D01*
X198566225Y-110848011D01*
X198513000Y-111115589D01*
X197348000Y-111115589D01*
X197348000Y-103958782D01*
X197373764Y-103910581D01*
X197393611Y-103845155D01*
X197419775Y-103781989D01*
X197433114Y-103714932D01*
X197452960Y-103649507D01*
X197459661Y-103581470D01*
X197473000Y-103514411D01*
X197473000Y-103446037D01*
X197479701Y-103378000D01*
X197473000Y-103309963D01*
X197473000Y-103241589D01*
X197459661Y-103174530D01*
X197452960Y-103106493D01*
X197433114Y-103041068D01*
X197419775Y-102974011D01*
X197393611Y-102910845D01*
X197373764Y-102845419D01*
X197341535Y-102785123D01*
X197315371Y-102721957D01*
X197277387Y-102665110D01*
X197245157Y-102604812D01*
X197201783Y-102551960D01*
X197163799Y-102495114D01*
X197115454Y-102446769D01*
X197072081Y-102393919D01*
X197019231Y-102350546D01*
X196970886Y-102302201D01*
X196914040Y-102264217D01*
X196861188Y-102220843D01*
X196800890Y-102188613D01*
X196744043Y-102150629D01*
X196680877Y-102124465D01*
X196620581Y-102092236D01*
X196555155Y-102072389D01*
X196491989Y-102046225D01*
X196424932Y-102032886D01*
X196359507Y-102013040D01*
X196291470Y-102006339D01*
X196224411Y-101993000D01*
X195951589Y-101993000D01*
X195884530Y-102006339D01*
X195816493Y-102013040D01*
X195751068Y-102032886D01*
X195684011Y-102046225D01*
X195620845Y-102072389D01*
X195555419Y-102092236D01*
X195495123Y-102124465D01*
X195431957Y-102150629D01*
X195375110Y-102188613D01*
X195314812Y-102220843D01*
X195261960Y-102264217D01*
X195205114Y-102302201D01*
X195156769Y-102350546D01*
X195103919Y-102393919D01*
X195060546Y-102446769D01*
X195012201Y-102495114D01*
X194974217Y-102551960D01*
X194930843Y-102604812D01*
X194898613Y-102665110D01*
X194860629Y-102721957D01*
X194834465Y-102785123D01*
X194802236Y-102845419D01*
X194782389Y-102910845D01*
X194756225Y-102974011D01*
X194742886Y-103041068D01*
X194723040Y-103106493D01*
X194716339Y-103174530D01*
X194703000Y-103241589D01*
X194703000Y-103309963D01*
X194696299Y-103378000D01*
X166610000Y-103378000D01*
X166610000Y-94624999D01*
X186340928Y-94624999D01*
X186340928Y-95875001D01*
X186357992Y-96048255D01*
X186408528Y-96214851D01*
X186490595Y-96368387D01*
X186601038Y-96502962D01*
X186735613Y-96613405D01*
X186889149Y-96695472D01*
X187055745Y-96746008D01*
X187228999Y-96763072D01*
X187929001Y-96763072D01*
X188102255Y-96746008D01*
X188268851Y-96695472D01*
X188422387Y-96613405D01*
X188556962Y-96502962D01*
X188667405Y-96368387D01*
X188669967Y-96363594D01*
X188795526Y-96488078D01*
X188998467Y-96622421D01*
X189223718Y-96714591D01*
X189261391Y-96718462D01*
X189452000Y-96593731D01*
X189452000Y-95377000D01*
X189706000Y-95377000D01*
X189706000Y-96593731D01*
X189896609Y-96718462D01*
X189934282Y-96714591D01*
X190159533Y-96622421D01*
X190362474Y-96488078D01*
X190535307Y-96316725D01*
X190671390Y-96114946D01*
X190765493Y-95890496D01*
X190814000Y-95652000D01*
X190814000Y-95377000D01*
X189706000Y-95377000D01*
X189452000Y-95377000D01*
X189432000Y-95377000D01*
X189432000Y-95123000D01*
X189452000Y-95123000D01*
X189452000Y-93906269D01*
X189706000Y-93906269D01*
X189706000Y-95123000D01*
X190814000Y-95123000D01*
X190814000Y-94848000D01*
X190794475Y-94751999D01*
X194849928Y-94751999D01*
X194849928Y-96002001D01*
X194866992Y-96175255D01*
X194917528Y-96341851D01*
X194999595Y-96495387D01*
X195110038Y-96629962D01*
X195244613Y-96740405D01*
X195398149Y-96822472D01*
X195564745Y-96873008D01*
X195737999Y-96890072D01*
X196438001Y-96890072D01*
X196611255Y-96873008D01*
X196777851Y-96822472D01*
X196931387Y-96740405D01*
X197065962Y-96629962D01*
X197176405Y-96495387D01*
X197178810Y-96490888D01*
X197210499Y-96529502D01*
X197398552Y-96683833D01*
X197613100Y-96798511D01*
X197845899Y-96869130D01*
X198088000Y-96892975D01*
X198330102Y-96869130D01*
X198562901Y-96798511D01*
X198777449Y-96683833D01*
X198965502Y-96529502D01*
X199119833Y-96341449D01*
X199234511Y-96126900D01*
X199305130Y-95894101D01*
X199323000Y-95712664D01*
X199323000Y-95041335D01*
X199305130Y-94859898D01*
X199272400Y-94751999D01*
X203739928Y-94751999D01*
X203739928Y-96002001D01*
X203756992Y-96175255D01*
X203807528Y-96341851D01*
X203889595Y-96495387D01*
X204000038Y-96629962D01*
X204134613Y-96740405D01*
X204288149Y-96822472D01*
X204454745Y-96873008D01*
X204627999Y-96890072D01*
X205328001Y-96890072D01*
X205501255Y-96873008D01*
X205667851Y-96822472D01*
X205821387Y-96740405D01*
X205955962Y-96629962D01*
X206066405Y-96495387D01*
X206068967Y-96490594D01*
X206194526Y-96615078D01*
X206397467Y-96749421D01*
X206622718Y-96841591D01*
X206660391Y-96845462D01*
X206851000Y-96720731D01*
X206851000Y-95504000D01*
X207105000Y-95504000D01*
X207105000Y-96720731D01*
X207295609Y-96845462D01*
X207333282Y-96841591D01*
X207558533Y-96749421D01*
X207761474Y-96615078D01*
X207934307Y-96443725D01*
X208070390Y-96241946D01*
X208164493Y-96017496D01*
X208213000Y-95779000D01*
X208213000Y-95504000D01*
X207105000Y-95504000D01*
X206851000Y-95504000D01*
X206831000Y-95504000D01*
X206831000Y-95250000D01*
X206851000Y-95250000D01*
X206851000Y-94033269D01*
X207105000Y-94033269D01*
X207105000Y-95250000D01*
X208213000Y-95250000D01*
X208213000Y-94975000D01*
X208164493Y-94736504D01*
X208070390Y-94512054D01*
X207934307Y-94310275D01*
X207761474Y-94138922D01*
X207558533Y-94004579D01*
X207333282Y-93912409D01*
X207295609Y-93908538D01*
X207105000Y-94033269D01*
X206851000Y-94033269D01*
X206660391Y-93908538D01*
X206622718Y-93912409D01*
X206397467Y-94004579D01*
X206194526Y-94138922D01*
X206068967Y-94263406D01*
X206066405Y-94258613D01*
X205955962Y-94124038D01*
X205821387Y-94013595D01*
X205667851Y-93931528D01*
X205501255Y-93880992D01*
X205328001Y-93863928D01*
X204627999Y-93863928D01*
X204454745Y-93880992D01*
X204288149Y-93931528D01*
X204134613Y-94013595D01*
X204000038Y-94124038D01*
X203889595Y-94258613D01*
X203807528Y-94412149D01*
X203756992Y-94578745D01*
X203739928Y-94751999D01*
X199272400Y-94751999D01*
X199234511Y-94627099D01*
X199119833Y-94412551D01*
X198965502Y-94224498D01*
X198777448Y-94070167D01*
X198562900Y-93955489D01*
X198330101Y-93884870D01*
X198088000Y-93861025D01*
X197845898Y-93884870D01*
X197613099Y-93955489D01*
X197398551Y-94070167D01*
X197210498Y-94224498D01*
X197178809Y-94263111D01*
X197176405Y-94258613D01*
X197065962Y-94124038D01*
X196931387Y-94013595D01*
X196777851Y-93931528D01*
X196611255Y-93880992D01*
X196438001Y-93863928D01*
X195737999Y-93863928D01*
X195564745Y-93880992D01*
X195398149Y-93931528D01*
X195244613Y-94013595D01*
X195110038Y-94124038D01*
X194999595Y-94258613D01*
X194917528Y-94412149D01*
X194866992Y-94578745D01*
X194849928Y-94751999D01*
X190794475Y-94751999D01*
X190765493Y-94609504D01*
X190671390Y-94385054D01*
X190535307Y-94183275D01*
X190362474Y-94011922D01*
X190159533Y-93877579D01*
X189934282Y-93785409D01*
X189896609Y-93781538D01*
X189706000Y-93906269D01*
X189452000Y-93906269D01*
X189261391Y-93781538D01*
X189223718Y-93785409D01*
X188998467Y-93877579D01*
X188795526Y-94011922D01*
X188669967Y-94136406D01*
X188667405Y-94131613D01*
X188556962Y-93997038D01*
X188422387Y-93886595D01*
X188268851Y-93804528D01*
X188102255Y-93753992D01*
X187929001Y-93736928D01*
X187228999Y-93736928D01*
X187055745Y-93753992D01*
X186889149Y-93804528D01*
X186735613Y-93886595D01*
X186601038Y-93997038D01*
X186490595Y-94131613D01*
X186408528Y-94285149D01*
X186357992Y-94451745D01*
X186340928Y-94624999D01*
X166610000Y-94624999D01*
X166610000Y-82543896D01*
X184835000Y-82543896D01*
X184835001Y-83616105D01*
X184838058Y-83647141D01*
X184838037Y-83650105D01*
X184839038Y-83660318D01*
X184844086Y-83708352D01*
X184845636Y-83724085D01*
X184845795Y-83724610D01*
X184849238Y-83757367D01*
X184862638Y-83822644D01*
X184875116Y-83888059D01*
X184878082Y-83897884D01*
X184906938Y-83991103D01*
X184932780Y-84052578D01*
X184957711Y-84114284D01*
X184962528Y-84123345D01*
X185008941Y-84209183D01*
X185046196Y-84264415D01*
X185082669Y-84320151D01*
X185089155Y-84328104D01*
X185151357Y-84403293D01*
X185198641Y-84450248D01*
X185245230Y-84497824D01*
X185253137Y-84504365D01*
X185253142Y-84504370D01*
X185253148Y-84504374D01*
X185328758Y-84566041D01*
X185384256Y-84602914D01*
X185439219Y-84640548D01*
X185448246Y-84645429D01*
X185534407Y-84691241D01*
X185596013Y-84716633D01*
X185657220Y-84742867D01*
X185667024Y-84745902D01*
X185667028Y-84745903D01*
X185667030Y-84745904D01*
X185667032Y-84745904D01*
X185760442Y-84774107D01*
X185825835Y-84787056D01*
X185890957Y-84800897D01*
X185901148Y-84801968D01*
X185901156Y-84801970D01*
X185901163Y-84801970D01*
X185997689Y-84811434D01*
X186033895Y-84815000D01*
X191106105Y-84815000D01*
X191137150Y-84811942D01*
X191140105Y-84811963D01*
X191150318Y-84810962D01*
X191198201Y-84805929D01*
X191214085Y-84804365D01*
X191214615Y-84804204D01*
X191247367Y-84800762D01*
X191312644Y-84787362D01*
X191378059Y-84774884D01*
X191387884Y-84771918D01*
X191481103Y-84743062D01*
X191542578Y-84717220D01*
X191604284Y-84692289D01*
X191613345Y-84687472D01*
X191699183Y-84641059D01*
X191754415Y-84603804D01*
X191810151Y-84567331D01*
X191818104Y-84560845D01*
X191893293Y-84498643D01*
X191940248Y-84451359D01*
X191987824Y-84404770D01*
X191994365Y-84396863D01*
X191994370Y-84396858D01*
X191994374Y-84396852D01*
X192056041Y-84321242D01*
X192092914Y-84265744D01*
X192130548Y-84210781D01*
X192135429Y-84201754D01*
X192181241Y-84115593D01*
X192206633Y-84053987D01*
X192232867Y-83992780D01*
X192235902Y-83982976D01*
X192264107Y-83889558D01*
X192277056Y-83824165D01*
X192290897Y-83759043D01*
X192291968Y-83748852D01*
X192291970Y-83748844D01*
X192291970Y-83748837D01*
X192301492Y-83651720D01*
X192305000Y-83616105D01*
X192305000Y-82543896D01*
X205835000Y-82543896D01*
X205835001Y-83616105D01*
X205838058Y-83647141D01*
X205838037Y-83650105D01*
X205839038Y-83660318D01*
X205844086Y-83708352D01*
X205845636Y-83724085D01*
X205845795Y-83724610D01*
X205849238Y-83757367D01*
X205862638Y-83822644D01*
X205875116Y-83888059D01*
X205878082Y-83897884D01*
X205906938Y-83991103D01*
X205932780Y-84052578D01*
X205957711Y-84114284D01*
X205962528Y-84123345D01*
X206008941Y-84209183D01*
X206046196Y-84264415D01*
X206082669Y-84320151D01*
X206089155Y-84328104D01*
X206151357Y-84403293D01*
X206198641Y-84450248D01*
X206245230Y-84497824D01*
X206253137Y-84504365D01*
X206253142Y-84504370D01*
X206253148Y-84504374D01*
X206328758Y-84566041D01*
X206384256Y-84602914D01*
X206439219Y-84640548D01*
X206448246Y-84645429D01*
X206534407Y-84691241D01*
X206596013Y-84716633D01*
X206657220Y-84742867D01*
X206667024Y-84745902D01*
X206667028Y-84745903D01*
X206667030Y-84745904D01*
X206667032Y-84745904D01*
X206760442Y-84774107D01*
X206825835Y-84787056D01*
X206890957Y-84800897D01*
X206901148Y-84801968D01*
X206901156Y-84801970D01*
X206901163Y-84801970D01*
X206997689Y-84811434D01*
X207033895Y-84815000D01*
X212106105Y-84815000D01*
X212137150Y-84811942D01*
X212140105Y-84811963D01*
X212150318Y-84810962D01*
X212198201Y-84805929D01*
X212214085Y-84804365D01*
X212214615Y-84804204D01*
X212247367Y-84800762D01*
X212312644Y-84787362D01*
X212378059Y-84774884D01*
X212387884Y-84771918D01*
X212481103Y-84743062D01*
X212542578Y-84717220D01*
X212604284Y-84692289D01*
X212613345Y-84687472D01*
X212699183Y-84641059D01*
X212754415Y-84603804D01*
X212810151Y-84567331D01*
X212818104Y-84560845D01*
X212893293Y-84498643D01*
X212940248Y-84451359D01*
X212987824Y-84404770D01*
X212994365Y-84396863D01*
X212994370Y-84396858D01*
X212994374Y-84396852D01*
X213056041Y-84321242D01*
X213092914Y-84265744D01*
X213130548Y-84210781D01*
X213135429Y-84201754D01*
X213181241Y-84115593D01*
X213206633Y-84053987D01*
X213232867Y-83992780D01*
X213235902Y-83982976D01*
X213264107Y-83889558D01*
X213277056Y-83824165D01*
X213290897Y-83759043D01*
X213291968Y-83748852D01*
X213291970Y-83748844D01*
X213291970Y-83748837D01*
X213301492Y-83651720D01*
X213305000Y-83616105D01*
X213305000Y-82543895D01*
X213301942Y-82512850D01*
X213301963Y-82509895D01*
X213300962Y-82499682D01*
X213295930Y-82451807D01*
X213294365Y-82435915D01*
X213294204Y-82435385D01*
X213290762Y-82402634D01*
X213277364Y-82337364D01*
X213264884Y-82271941D01*
X213261918Y-82262116D01*
X213233062Y-82168897D01*
X213207225Y-82107434D01*
X213182289Y-82045716D01*
X213177472Y-82036655D01*
X213131059Y-81950817D01*
X213093789Y-81895562D01*
X213057331Y-81839849D01*
X213050845Y-81831896D01*
X212988643Y-81756707D01*
X212941359Y-81709752D01*
X212894770Y-81662176D01*
X212886863Y-81655634D01*
X212811242Y-81593959D01*
X212755721Y-81557070D01*
X212700781Y-81519452D01*
X212691770Y-81514580D01*
X212691763Y-81514575D01*
X212691756Y-81514572D01*
X212691754Y-81514571D01*
X212605593Y-81468759D01*
X212543987Y-81443367D01*
X212482780Y-81417133D01*
X212472976Y-81414098D01*
X212472972Y-81414097D01*
X212472970Y-81414096D01*
X212472968Y-81414096D01*
X212379558Y-81385893D01*
X212314172Y-81372946D01*
X212249044Y-81359103D01*
X212238851Y-81358031D01*
X212238844Y-81358030D01*
X212238838Y-81358030D01*
X212142310Y-81348566D01*
X212106105Y-81345000D01*
X207033895Y-81345000D01*
X207002850Y-81348058D01*
X206999895Y-81348037D01*
X206989682Y-81349038D01*
X206941807Y-81354070D01*
X206925915Y-81355635D01*
X206925385Y-81355796D01*
X206892634Y-81359238D01*
X206827364Y-81372636D01*
X206761941Y-81385116D01*
X206752116Y-81388082D01*
X206658897Y-81416938D01*
X206597434Y-81442775D01*
X206535716Y-81467711D01*
X206526655Y-81472528D01*
X206440817Y-81518941D01*
X206385562Y-81556211D01*
X206329849Y-81592669D01*
X206321896Y-81599155D01*
X206246707Y-81661357D01*
X206199752Y-81708641D01*
X206152176Y-81755230D01*
X206145634Y-81763137D01*
X206083959Y-81838758D01*
X206047070Y-81894279D01*
X206009452Y-81949219D01*
X206004580Y-81958230D01*
X206004575Y-81958237D01*
X206004572Y-81958244D01*
X206004571Y-81958246D01*
X205958759Y-82044407D01*
X205933367Y-82106013D01*
X205907133Y-82167220D01*
X205904098Y-82177024D01*
X205875893Y-82270442D01*
X205862946Y-82335828D01*
X205849103Y-82400956D01*
X205848031Y-82411149D01*
X205848030Y-82411156D01*
X205848030Y-82411162D01*
X205838544Y-82507912D01*
X205835000Y-82543896D01*
X192305000Y-82543896D01*
X192305000Y-82543895D01*
X192301942Y-82512850D01*
X192301963Y-82509895D01*
X192300962Y-82499682D01*
X192295930Y-82451807D01*
X192294365Y-82435915D01*
X192294204Y-82435385D01*
X192290762Y-82402634D01*
X192277364Y-82337364D01*
X192264884Y-82271941D01*
X192261918Y-82262116D01*
X192233062Y-82168897D01*
X192207225Y-82107434D01*
X192182289Y-82045716D01*
X192177472Y-82036655D01*
X192131059Y-81950817D01*
X192093789Y-81895562D01*
X192057331Y-81839849D01*
X192050845Y-81831896D01*
X191988643Y-81756707D01*
X191941359Y-81709752D01*
X191894770Y-81662176D01*
X191886863Y-81655634D01*
X191811242Y-81593959D01*
X191755721Y-81557070D01*
X191700781Y-81519452D01*
X191691770Y-81514580D01*
X191691763Y-81514575D01*
X191691756Y-81514572D01*
X191691754Y-81514571D01*
X191605593Y-81468759D01*
X191543987Y-81443367D01*
X191482780Y-81417133D01*
X191472976Y-81414098D01*
X191472972Y-81414097D01*
X191472970Y-81414096D01*
X191472968Y-81414096D01*
X191379558Y-81385893D01*
X191314172Y-81372946D01*
X191249044Y-81359103D01*
X191238851Y-81358031D01*
X191238844Y-81358030D01*
X191238838Y-81358030D01*
X191142310Y-81348566D01*
X191106105Y-81345000D01*
X186033895Y-81345000D01*
X186002850Y-81348058D01*
X185999895Y-81348037D01*
X185989682Y-81349038D01*
X185941807Y-81354070D01*
X185925915Y-81355635D01*
X185925385Y-81355796D01*
X185892634Y-81359238D01*
X185827364Y-81372636D01*
X185761941Y-81385116D01*
X185752116Y-81388082D01*
X185658897Y-81416938D01*
X185597434Y-81442775D01*
X185535716Y-81467711D01*
X185526655Y-81472528D01*
X185440817Y-81518941D01*
X185385562Y-81556211D01*
X185329849Y-81592669D01*
X185321896Y-81599155D01*
X185246707Y-81661357D01*
X185199752Y-81708641D01*
X185152176Y-81755230D01*
X185145634Y-81763137D01*
X185083959Y-81838758D01*
X185047070Y-81894279D01*
X185009452Y-81949219D01*
X185004580Y-81958230D01*
X185004575Y-81958237D01*
X185004572Y-81958244D01*
X185004571Y-81958246D01*
X184958759Y-82044407D01*
X184933367Y-82106013D01*
X184907133Y-82167220D01*
X184904098Y-82177024D01*
X184875893Y-82270442D01*
X184862946Y-82335828D01*
X184849103Y-82400956D01*
X184848031Y-82411149D01*
X184848030Y-82411156D01*
X184848030Y-82411162D01*
X184838544Y-82507912D01*
X184835000Y-82543896D01*
X166610000Y-82543896D01*
X166610000Y-64943896D01*
X177224750Y-64943896D01*
X177224751Y-70016105D01*
X177227808Y-70047141D01*
X177227787Y-70050105D01*
X177228788Y-70060318D01*
X177233836Y-70108352D01*
X177235386Y-70124085D01*
X177235545Y-70124610D01*
X177238988Y-70157367D01*
X177252388Y-70222644D01*
X177264866Y-70288059D01*
X177267832Y-70297884D01*
X177296688Y-70391103D01*
X177322530Y-70452578D01*
X177347461Y-70514284D01*
X177352278Y-70523345D01*
X177398691Y-70609183D01*
X177435946Y-70664415D01*
X177472419Y-70720151D01*
X177478905Y-70728104D01*
X177541107Y-70803293D01*
X177588391Y-70850248D01*
X177634980Y-70897824D01*
X177642887Y-70904365D01*
X177642892Y-70904370D01*
X177642898Y-70904374D01*
X177718508Y-70966041D01*
X177774006Y-71002914D01*
X177828969Y-71040548D01*
X177837996Y-71045429D01*
X177924157Y-71091241D01*
X177985763Y-71116633D01*
X178046970Y-71142867D01*
X178056774Y-71145902D01*
X178056778Y-71145903D01*
X178056780Y-71145904D01*
X178056782Y-71145904D01*
X178150192Y-71174107D01*
X178215585Y-71187056D01*
X178280707Y-71200897D01*
X178290898Y-71201968D01*
X178290906Y-71201970D01*
X178290913Y-71201970D01*
X178387439Y-71211434D01*
X178423645Y-71215000D01*
X179495855Y-71215000D01*
X179526900Y-71211942D01*
X179529855Y-71211963D01*
X179540068Y-71210962D01*
X179587951Y-71205929D01*
X179603835Y-71204365D01*
X179604365Y-71204204D01*
X179637117Y-71200762D01*
X179702394Y-71187362D01*
X179767809Y-71174884D01*
X179777634Y-71171918D01*
X179870853Y-71143062D01*
X179932328Y-71117220D01*
X179994034Y-71092289D01*
X180003095Y-71087472D01*
X180088933Y-71041059D01*
X180144165Y-71003804D01*
X180199901Y-70967331D01*
X180207854Y-70960845D01*
X180283043Y-70898643D01*
X180329998Y-70851359D01*
X180377574Y-70804770D01*
X180384115Y-70796863D01*
X180384120Y-70796858D01*
X180384124Y-70796852D01*
X180445791Y-70721242D01*
X180482664Y-70665744D01*
X180520298Y-70610781D01*
X180525179Y-70601754D01*
X180570991Y-70515593D01*
X180596383Y-70453987D01*
X180622617Y-70392780D01*
X180625652Y-70382976D01*
X180653857Y-70289558D01*
X180666806Y-70224165D01*
X180680647Y-70159043D01*
X180681718Y-70148852D01*
X180681720Y-70148844D01*
X180681720Y-70148837D01*
X180691242Y-70051720D01*
X180694750Y-70016105D01*
X180694750Y-64943896D01*
X217445250Y-64943896D01*
X217445251Y-70016105D01*
X217448308Y-70047141D01*
X217448287Y-70050105D01*
X217449288Y-70060318D01*
X217454336Y-70108352D01*
X217455886Y-70124085D01*
X217456045Y-70124610D01*
X217459488Y-70157367D01*
X217472888Y-70222644D01*
X217485366Y-70288059D01*
X217488332Y-70297884D01*
X217517188Y-70391103D01*
X217543030Y-70452578D01*
X217567961Y-70514284D01*
X217572778Y-70523345D01*
X217619191Y-70609183D01*
X217656446Y-70664415D01*
X217692919Y-70720151D01*
X217699405Y-70728104D01*
X217761607Y-70803293D01*
X217808891Y-70850248D01*
X217855480Y-70897824D01*
X217863387Y-70904365D01*
X217863392Y-70904370D01*
X217863398Y-70904374D01*
X217939008Y-70966041D01*
X217994506Y-71002914D01*
X218049469Y-71040548D01*
X218058496Y-71045429D01*
X218144657Y-71091241D01*
X218206263Y-71116633D01*
X218267470Y-71142867D01*
X218277274Y-71145902D01*
X218277278Y-71145903D01*
X218277280Y-71145904D01*
X218277282Y-71145904D01*
X218370692Y-71174107D01*
X218436085Y-71187056D01*
X218501207Y-71200897D01*
X218511398Y-71201968D01*
X218511406Y-71201970D01*
X218511413Y-71201970D01*
X218607939Y-71211434D01*
X218644145Y-71215000D01*
X219716355Y-71215000D01*
X219747400Y-71211942D01*
X219750355Y-71211963D01*
X219760568Y-71210962D01*
X219808451Y-71205929D01*
X219824335Y-71204365D01*
X219824865Y-71204204D01*
X219857617Y-71200762D01*
X219922894Y-71187362D01*
X219988309Y-71174884D01*
X219998134Y-71171918D01*
X220091353Y-71143062D01*
X220152828Y-71117220D01*
X220214534Y-71092289D01*
X220223595Y-71087472D01*
X220309433Y-71041059D01*
X220364665Y-71003804D01*
X220420401Y-70967331D01*
X220428354Y-70960845D01*
X220503543Y-70898643D01*
X220550498Y-70851359D01*
X220598074Y-70804770D01*
X220604615Y-70796863D01*
X220604620Y-70796858D01*
X220604624Y-70796852D01*
X220666291Y-70721242D01*
X220703164Y-70665744D01*
X220740798Y-70610781D01*
X220745679Y-70601754D01*
X220791491Y-70515593D01*
X220816883Y-70453987D01*
X220843117Y-70392780D01*
X220846152Y-70382976D01*
X220874357Y-70289558D01*
X220887306Y-70224165D01*
X220901147Y-70159043D01*
X220902218Y-70148852D01*
X220902220Y-70148844D01*
X220902220Y-70148837D01*
X220911742Y-70051720D01*
X220915250Y-70016105D01*
X220915250Y-64943895D01*
X220912192Y-64912850D01*
X220912213Y-64909895D01*
X220911212Y-64899682D01*
X220906180Y-64851807D01*
X220904615Y-64835915D01*
X220904454Y-64835385D01*
X220901012Y-64802634D01*
X220887614Y-64737364D01*
X220875134Y-64671941D01*
X220872168Y-64662116D01*
X220843312Y-64568897D01*
X220817475Y-64507434D01*
X220792539Y-64445716D01*
X220787722Y-64436655D01*
X220741309Y-64350817D01*
X220704039Y-64295562D01*
X220667581Y-64239849D01*
X220661095Y-64231896D01*
X220598893Y-64156707D01*
X220551609Y-64109752D01*
X220505020Y-64062176D01*
X220497113Y-64055634D01*
X220421492Y-63993959D01*
X220365971Y-63957070D01*
X220311031Y-63919452D01*
X220302020Y-63914580D01*
X220302013Y-63914575D01*
X220302006Y-63914572D01*
X220302004Y-63914571D01*
X220215843Y-63868759D01*
X220154237Y-63843367D01*
X220093030Y-63817133D01*
X220083226Y-63814098D01*
X220083222Y-63814097D01*
X220083220Y-63814096D01*
X220083218Y-63814096D01*
X219989808Y-63785893D01*
X219924422Y-63772946D01*
X219859294Y-63759103D01*
X219849101Y-63758031D01*
X219849094Y-63758030D01*
X219849088Y-63758030D01*
X219752560Y-63748566D01*
X219716355Y-63745000D01*
X218644145Y-63745000D01*
X218613100Y-63748058D01*
X218610145Y-63748037D01*
X218599932Y-63749038D01*
X218552057Y-63754070D01*
X218536165Y-63755635D01*
X218535635Y-63755796D01*
X218502884Y-63759238D01*
X218437614Y-63772636D01*
X218372191Y-63785116D01*
X218362366Y-63788082D01*
X218269147Y-63816938D01*
X218207684Y-63842775D01*
X218145966Y-63867711D01*
X218136905Y-63872528D01*
X218051067Y-63918941D01*
X217995812Y-63956211D01*
X217940099Y-63992669D01*
X217932146Y-63999155D01*
X217856957Y-64061357D01*
X217810002Y-64108641D01*
X217762426Y-64155230D01*
X217755884Y-64163137D01*
X217694209Y-64238758D01*
X217657320Y-64294279D01*
X217619702Y-64349219D01*
X217614830Y-64358230D01*
X217614825Y-64358237D01*
X217614822Y-64358244D01*
X217614821Y-64358246D01*
X217569009Y-64444407D01*
X217543617Y-64506013D01*
X217517383Y-64567220D01*
X217514348Y-64577024D01*
X217486143Y-64670442D01*
X217473196Y-64735828D01*
X217459353Y-64800956D01*
X217458281Y-64811149D01*
X217458280Y-64811156D01*
X217458280Y-64811162D01*
X217448794Y-64907912D01*
X217445250Y-64943896D01*
X180694750Y-64943896D01*
X180694750Y-64943895D01*
X180691692Y-64912850D01*
X180691713Y-64909895D01*
X180690712Y-64899682D01*
X180685680Y-64851807D01*
X180684115Y-64835915D01*
X180683954Y-64835385D01*
X180680512Y-64802634D01*
X180667114Y-64737364D01*
X180654634Y-64671941D01*
X180651668Y-64662116D01*
X180622812Y-64568897D01*
X180596975Y-64507434D01*
X180572039Y-64445716D01*
X180567222Y-64436655D01*
X180520809Y-64350817D01*
X180483539Y-64295562D01*
X180447081Y-64239849D01*
X180440595Y-64231896D01*
X180378393Y-64156707D01*
X180331109Y-64109752D01*
X180284520Y-64062176D01*
X180276613Y-64055634D01*
X180200992Y-63993959D01*
X180145471Y-63957070D01*
X180090531Y-63919452D01*
X180081520Y-63914580D01*
X180081513Y-63914575D01*
X180081506Y-63914572D01*
X180081504Y-63914571D01*
X179995343Y-63868759D01*
X179933737Y-63843367D01*
X179872530Y-63817133D01*
X179862726Y-63814098D01*
X179862722Y-63814097D01*
X179862720Y-63814096D01*
X179862718Y-63814096D01*
X179769308Y-63785893D01*
X179703922Y-63772946D01*
X179638794Y-63759103D01*
X179628601Y-63758031D01*
X179628594Y-63758030D01*
X179628588Y-63758030D01*
X179532060Y-63748566D01*
X179495855Y-63745000D01*
X178423645Y-63745000D01*
X178392600Y-63748058D01*
X178389645Y-63748037D01*
X178379432Y-63749038D01*
X178331557Y-63754070D01*
X178315665Y-63755635D01*
X178315135Y-63755796D01*
X178282384Y-63759238D01*
X178217114Y-63772636D01*
X178151691Y-63785116D01*
X178141866Y-63788082D01*
X178048647Y-63816938D01*
X177987184Y-63842775D01*
X177925466Y-63867711D01*
X177916405Y-63872528D01*
X177830567Y-63918941D01*
X177775312Y-63956211D01*
X177719599Y-63992669D01*
X177711646Y-63999155D01*
X177636457Y-64061357D01*
X177589502Y-64108641D01*
X177541926Y-64155230D01*
X177535384Y-64163137D01*
X177473709Y-64238758D01*
X177436820Y-64294279D01*
X177399202Y-64349219D01*
X177394330Y-64358230D01*
X177394325Y-64358237D01*
X177394322Y-64358244D01*
X177394321Y-64358246D01*
X177348509Y-64444407D01*
X177323117Y-64506013D01*
X177296883Y-64567220D01*
X177293848Y-64577024D01*
X177265643Y-64670442D01*
X177252696Y-64735828D01*
X177238853Y-64800956D01*
X177237781Y-64811149D01*
X177237780Y-64811156D01*
X177237780Y-64811162D01*
X177228294Y-64907912D01*
X177224750Y-64943896D01*
X166610000Y-64943896D01*
X166610000Y-54818061D01*
X167185000Y-54818061D01*
X167185000Y-55021939D01*
X167224774Y-55221898D01*
X167302795Y-55410256D01*
X167416063Y-55579774D01*
X167506289Y-55670000D01*
X167416063Y-55760226D01*
X167302795Y-55929744D01*
X167224774Y-56118102D01*
X167185000Y-56318061D01*
X167185000Y-56521939D01*
X167224774Y-56721898D01*
X167302795Y-56910256D01*
X167416063Y-57079774D01*
X167506289Y-57170000D01*
X167416063Y-57260226D01*
X167302795Y-57429744D01*
X167224774Y-57618102D01*
X167185000Y-57818061D01*
X167185000Y-58021939D01*
X167224774Y-58221898D01*
X167302795Y-58410256D01*
X167416063Y-58579774D01*
X167506289Y-58670000D01*
X167416063Y-58760226D01*
X167302795Y-58929744D01*
X167224774Y-59118102D01*
X167185000Y-59318061D01*
X167185000Y-59521939D01*
X167224774Y-59721898D01*
X167302795Y-59910256D01*
X167416063Y-60079774D01*
X167506289Y-60170000D01*
X167416063Y-60260226D01*
X167302795Y-60429744D01*
X167224774Y-60618102D01*
X167185000Y-60818061D01*
X167185000Y-61021939D01*
X167224774Y-61221898D01*
X167302795Y-61410256D01*
X167416063Y-61579774D01*
X167506289Y-61670000D01*
X167416063Y-61760226D01*
X167302795Y-61929744D01*
X167224774Y-62118102D01*
X167185000Y-62318061D01*
X167185000Y-62521939D01*
X167224774Y-62721898D01*
X167302795Y-62910256D01*
X167416063Y-63079774D01*
X167560226Y-63223937D01*
X167729744Y-63337205D01*
X167918102Y-63415226D01*
X168118061Y-63455000D01*
X168321939Y-63455000D01*
X168521898Y-63415226D01*
X168710256Y-63337205D01*
X168879774Y-63223937D01*
X169023937Y-63079774D01*
X169137205Y-62910256D01*
X169215226Y-62721898D01*
X169255000Y-62521939D01*
X169255000Y-62318061D01*
X169215226Y-62118102D01*
X169137205Y-61929744D01*
X169023937Y-61760226D01*
X168933711Y-61670000D01*
X169023937Y-61579774D01*
X169137205Y-61410256D01*
X169215226Y-61221898D01*
X169255000Y-61021939D01*
X169255000Y-60818061D01*
X169215226Y-60618102D01*
X169137205Y-60429744D01*
X169023937Y-60260226D01*
X168933711Y-60170000D01*
X169023937Y-60079774D01*
X169137205Y-59910256D01*
X169215226Y-59721898D01*
X169255000Y-59521939D01*
X169255000Y-59318061D01*
X169215226Y-59118102D01*
X169137205Y-58929744D01*
X169023937Y-58760226D01*
X168933711Y-58670000D01*
X169023937Y-58579774D01*
X169137205Y-58410256D01*
X169215226Y-58221898D01*
X169255000Y-58021939D01*
X169255000Y-57818061D01*
X169215226Y-57618102D01*
X169137205Y-57429744D01*
X169023937Y-57260226D01*
X168933711Y-57170000D01*
X169023937Y-57079774D01*
X169137205Y-56910256D01*
X169215226Y-56721898D01*
X169255000Y-56521939D01*
X169255000Y-56318061D01*
X169215226Y-56118102D01*
X169137205Y-55929744D01*
X169023937Y-55760226D01*
X168933711Y-55670000D01*
X169023937Y-55579774D01*
X169137205Y-55410256D01*
X169215226Y-55221898D01*
X169255000Y-55021939D01*
X169255000Y-54818061D01*
X169215226Y-54618102D01*
X169137205Y-54429744D01*
X169023937Y-54260226D01*
X168879774Y-54116063D01*
X168710256Y-54002795D01*
X168521898Y-53924774D01*
X168321939Y-53885000D01*
X168118061Y-53885000D01*
X167918102Y-53924774D01*
X167729744Y-54002795D01*
X167560226Y-54116063D01*
X167416063Y-54260226D01*
X167302795Y-54429744D01*
X167224774Y-54618102D01*
X167185000Y-54818061D01*
X166610000Y-54818061D01*
X166610000Y-52416104D01*
X184835000Y-52416104D01*
X184838058Y-52447149D01*
X184838037Y-52450105D01*
X184839038Y-52460318D01*
X184844072Y-52508216D01*
X184845635Y-52524084D01*
X184845796Y-52524613D01*
X184849238Y-52557367D01*
X184862638Y-52622644D01*
X184875116Y-52688059D01*
X184878082Y-52697884D01*
X184906938Y-52791103D01*
X184932780Y-52852578D01*
X184957711Y-52914284D01*
X184962528Y-52923345D01*
X185008941Y-53009183D01*
X185046196Y-53064415D01*
X185082669Y-53120151D01*
X185089155Y-53128104D01*
X185151357Y-53203293D01*
X185198641Y-53250248D01*
X185245230Y-53297824D01*
X185253137Y-53304365D01*
X185253142Y-53304370D01*
X185253148Y-53304374D01*
X185328758Y-53366041D01*
X185384256Y-53402914D01*
X185439219Y-53440548D01*
X185448246Y-53445429D01*
X185534407Y-53491241D01*
X185596013Y-53516633D01*
X185657220Y-53542867D01*
X185667024Y-53545902D01*
X185667028Y-53545903D01*
X185667030Y-53545904D01*
X185667032Y-53545904D01*
X185760442Y-53574107D01*
X185825835Y-53587056D01*
X185890957Y-53600897D01*
X185901148Y-53601968D01*
X185901156Y-53601970D01*
X185901163Y-53601970D01*
X185997689Y-53611434D01*
X186033895Y-53615000D01*
X191106105Y-53615000D01*
X191137150Y-53611942D01*
X191140105Y-53611963D01*
X191150318Y-53610962D01*
X191198201Y-53605929D01*
X191214085Y-53604365D01*
X191214615Y-53604204D01*
X191247367Y-53600762D01*
X191312644Y-53587362D01*
X191378059Y-53574884D01*
X191387884Y-53571918D01*
X191481103Y-53543062D01*
X191542578Y-53517220D01*
X191604284Y-53492289D01*
X191613345Y-53487472D01*
X191699183Y-53441059D01*
X191754415Y-53403804D01*
X191810151Y-53367331D01*
X191818104Y-53360845D01*
X191893293Y-53298643D01*
X191940248Y-53251359D01*
X191987824Y-53204770D01*
X191994365Y-53196863D01*
X191994370Y-53196858D01*
X191994374Y-53196852D01*
X192056041Y-53121242D01*
X192092914Y-53065744D01*
X192130548Y-53010781D01*
X192135429Y-53001754D01*
X192181241Y-52915593D01*
X192206633Y-52853987D01*
X192232867Y-52792780D01*
X192235902Y-52782976D01*
X192264107Y-52689558D01*
X192277056Y-52624165D01*
X192290897Y-52559043D01*
X192291968Y-52548852D01*
X192291970Y-52548844D01*
X192291970Y-52548837D01*
X192301492Y-52451720D01*
X192305000Y-52416105D01*
X192305000Y-52416104D01*
X205835000Y-52416104D01*
X205838058Y-52447149D01*
X205838037Y-52450105D01*
X205839038Y-52460318D01*
X205844072Y-52508216D01*
X205845635Y-52524084D01*
X205845796Y-52524613D01*
X205849238Y-52557367D01*
X205862638Y-52622644D01*
X205875116Y-52688059D01*
X205878082Y-52697884D01*
X205906938Y-52791103D01*
X205932780Y-52852578D01*
X205957711Y-52914284D01*
X205962528Y-52923345D01*
X206008941Y-53009183D01*
X206046196Y-53064415D01*
X206082669Y-53120151D01*
X206089155Y-53128104D01*
X206151357Y-53203293D01*
X206198641Y-53250248D01*
X206245230Y-53297824D01*
X206253137Y-53304365D01*
X206253142Y-53304370D01*
X206253148Y-53304374D01*
X206328758Y-53366041D01*
X206384256Y-53402914D01*
X206439219Y-53440548D01*
X206448246Y-53445429D01*
X206534407Y-53491241D01*
X206596013Y-53516633D01*
X206657220Y-53542867D01*
X206667024Y-53545902D01*
X206667028Y-53545903D01*
X206667030Y-53545904D01*
X206667032Y-53545904D01*
X206760442Y-53574107D01*
X206825835Y-53587056D01*
X206890957Y-53600897D01*
X206901148Y-53601968D01*
X206901156Y-53601970D01*
X206901163Y-53601970D01*
X206997689Y-53611434D01*
X207033895Y-53615000D01*
X212106105Y-53615000D01*
X212137150Y-53611942D01*
X212140105Y-53611963D01*
X212150318Y-53610962D01*
X212198201Y-53605929D01*
X212214085Y-53604365D01*
X212214615Y-53604204D01*
X212247367Y-53600762D01*
X212312644Y-53587362D01*
X212378059Y-53574884D01*
X212387884Y-53571918D01*
X212481103Y-53543062D01*
X212542578Y-53517220D01*
X212604284Y-53492289D01*
X212613345Y-53487472D01*
X212699183Y-53441059D01*
X212754415Y-53403804D01*
X212810151Y-53367331D01*
X212818104Y-53360845D01*
X212893293Y-53298643D01*
X212940248Y-53251359D01*
X212987824Y-53204770D01*
X212994365Y-53196863D01*
X212994370Y-53196858D01*
X212994374Y-53196852D01*
X213056041Y-53121242D01*
X213092914Y-53065744D01*
X213130548Y-53010781D01*
X213135429Y-53001754D01*
X213181241Y-52915593D01*
X213206633Y-52853987D01*
X213232867Y-52792780D01*
X213235902Y-52782976D01*
X213264107Y-52689558D01*
X213277056Y-52624165D01*
X213290897Y-52559043D01*
X213291968Y-52548852D01*
X213291970Y-52548844D01*
X213291970Y-52548837D01*
X213301492Y-52451720D01*
X213305000Y-52416105D01*
X213305000Y-51343895D01*
X213301942Y-51312850D01*
X213301963Y-51309895D01*
X213300962Y-51299682D01*
X213295930Y-51251807D01*
X213294365Y-51235915D01*
X213294204Y-51235385D01*
X213290762Y-51202634D01*
X213277364Y-51137364D01*
X213264884Y-51071941D01*
X213261918Y-51062116D01*
X213233062Y-50968897D01*
X213207225Y-50907434D01*
X213182289Y-50845716D01*
X213177472Y-50836655D01*
X213131059Y-50750817D01*
X213093789Y-50695562D01*
X213057331Y-50639849D01*
X213050845Y-50631896D01*
X212988643Y-50556707D01*
X212941359Y-50509752D01*
X212894770Y-50462176D01*
X212886863Y-50455634D01*
X212811242Y-50393959D01*
X212755721Y-50357070D01*
X212700781Y-50319452D01*
X212691770Y-50314580D01*
X212691763Y-50314575D01*
X212691756Y-50314572D01*
X212691754Y-50314571D01*
X212605593Y-50268759D01*
X212543987Y-50243367D01*
X212482780Y-50217133D01*
X212472976Y-50214098D01*
X212472972Y-50214097D01*
X212472970Y-50214096D01*
X212472968Y-50214096D01*
X212379558Y-50185893D01*
X212314172Y-50172946D01*
X212249044Y-50159103D01*
X212238851Y-50158031D01*
X212238844Y-50158030D01*
X212238838Y-50158030D01*
X212142310Y-50148566D01*
X212106105Y-50145000D01*
X207033895Y-50145000D01*
X207002850Y-50148058D01*
X206999895Y-50148037D01*
X206989682Y-50149038D01*
X206941807Y-50154070D01*
X206925915Y-50155635D01*
X206925385Y-50155796D01*
X206892634Y-50159238D01*
X206827364Y-50172636D01*
X206761941Y-50185116D01*
X206752116Y-50188082D01*
X206658897Y-50216938D01*
X206597434Y-50242775D01*
X206535716Y-50267711D01*
X206526655Y-50272528D01*
X206440817Y-50318941D01*
X206385562Y-50356211D01*
X206329849Y-50392669D01*
X206321896Y-50399155D01*
X206246707Y-50461357D01*
X206199752Y-50508641D01*
X206152176Y-50555230D01*
X206145634Y-50563137D01*
X206083959Y-50638758D01*
X206047070Y-50694279D01*
X206009452Y-50749219D01*
X206004580Y-50758230D01*
X206004575Y-50758237D01*
X206004572Y-50758244D01*
X206004571Y-50758246D01*
X205958759Y-50844407D01*
X205933367Y-50906013D01*
X205907133Y-50967220D01*
X205904098Y-50977024D01*
X205875893Y-51070442D01*
X205862946Y-51135828D01*
X205849103Y-51200956D01*
X205848031Y-51211149D01*
X205848030Y-51211156D01*
X205848030Y-51211162D01*
X205838508Y-51308280D01*
X205838508Y-51308287D01*
X205835001Y-51343895D01*
X205835000Y-52416104D01*
X192305000Y-52416104D01*
X192305000Y-51343895D01*
X192301942Y-51312850D01*
X192301963Y-51309895D01*
X192300962Y-51299682D01*
X192295930Y-51251807D01*
X192294365Y-51235915D01*
X192294204Y-51235385D01*
X192290762Y-51202634D01*
X192277364Y-51137364D01*
X192264884Y-51071941D01*
X192261918Y-51062116D01*
X192233062Y-50968897D01*
X192207225Y-50907434D01*
X192182289Y-50845716D01*
X192177472Y-50836655D01*
X192131059Y-50750817D01*
X192093789Y-50695562D01*
X192057331Y-50639849D01*
X192050845Y-50631896D01*
X191988643Y-50556707D01*
X191941359Y-50509752D01*
X191894770Y-50462176D01*
X191886863Y-50455634D01*
X191811242Y-50393959D01*
X191755721Y-50357070D01*
X191700781Y-50319452D01*
X191691770Y-50314580D01*
X191691763Y-50314575D01*
X191691756Y-50314572D01*
X191691754Y-50314571D01*
X191605593Y-50268759D01*
X191543987Y-50243367D01*
X191482780Y-50217133D01*
X191472976Y-50214098D01*
X191472972Y-50214097D01*
X191472970Y-50214096D01*
X191472968Y-50214096D01*
X191379558Y-50185893D01*
X191314172Y-50172946D01*
X191249044Y-50159103D01*
X191238851Y-50158031D01*
X191238844Y-50158030D01*
X191238838Y-50158030D01*
X191142310Y-50148566D01*
X191106105Y-50145000D01*
X186033895Y-50145000D01*
X186002850Y-50148058D01*
X185999895Y-50148037D01*
X185989682Y-50149038D01*
X185941807Y-50154070D01*
X185925915Y-50155635D01*
X185925385Y-50155796D01*
X185892634Y-50159238D01*
X185827364Y-50172636D01*
X185761941Y-50185116D01*
X185752116Y-50188082D01*
X185658897Y-50216938D01*
X185597434Y-50242775D01*
X185535716Y-50267711D01*
X185526655Y-50272528D01*
X185440817Y-50318941D01*
X185385562Y-50356211D01*
X185329849Y-50392669D01*
X185321896Y-50399155D01*
X185246707Y-50461357D01*
X185199752Y-50508641D01*
X185152176Y-50555230D01*
X185145634Y-50563137D01*
X185083959Y-50638758D01*
X185047070Y-50694279D01*
X185009452Y-50749219D01*
X185004580Y-50758230D01*
X185004575Y-50758237D01*
X185004572Y-50758244D01*
X185004571Y-50758246D01*
X184958759Y-50844407D01*
X184933367Y-50906013D01*
X184907133Y-50967220D01*
X184904098Y-50977024D01*
X184875893Y-51070442D01*
X184862946Y-51135828D01*
X184849103Y-51200956D01*
X184848031Y-51211149D01*
X184848030Y-51211156D01*
X184848030Y-51211162D01*
X184838508Y-51308280D01*
X184838508Y-51308287D01*
X184835001Y-51343895D01*
X184835000Y-52416104D01*
X166610000Y-52416104D01*
X166610000Y-42134721D01*
X166622391Y-42008345D01*
X166654617Y-41847215D01*
X166680302Y-41762144D01*
X166761536Y-41609366D01*
X166870899Y-41475273D01*
X167004220Y-41364981D01*
X167156428Y-41282682D01*
X167195801Y-41270494D01*
X167558763Y-41210000D01*
X170063617Y-41210000D01*
X170171030Y-41242430D01*
G37*
%TD.AperFunction*%
%TD*%
M02*
