%TF.GenerationSoftware,KiCad,Pcbnew,5.1.9-73d0e3b20d~88~ubuntu20.04.1*%
%TF.CreationDate,2021-04-18T23:10:17-05:00*%
%TF.ProjectId,COTS,434f5453-2e6b-4696-9361-645f70636258,rev?*%
%TF.SameCoordinates,Original*%
%TF.FileFunction,Legend,Top*%
%TF.FilePolarity,Positive*%
%FSLAX46Y46*%
G04 Gerber Fmt 4.6, Leading zero omitted, Abs format (unit mm)*
G04 Created by KiCad (PCBNEW 5.1.9-73d0e3b20d~88~ubuntu20.04.1) date 2021-04-18 23:10:17*
%MOMM*%
%LPD*%
G01*
G04 APERTURE LIST*
%ADD10C,0.120000*%
%ADD11C,0.300000*%
%ADD12C,0.350000*%
%ADD13C,0.130000*%
%ADD14C,0.140000*%
%ADD15C,0.100000*%
%ADD16C,0.010000*%
%ADD17C,0.150000*%
%ADD18C,0.250000*%
%ADD19C,0.180000*%
G04 APERTURE END LIST*
D10*
X189806666Y-70481666D02*
X189806666Y-69781666D01*
X190106666Y-70448333D02*
X190173333Y-70481666D01*
X190306666Y-70481666D01*
X190373333Y-70448333D01*
X190406666Y-70381666D01*
X190406666Y-70348333D01*
X190373333Y-70281666D01*
X190306666Y-70248333D01*
X190206666Y-70248333D01*
X190140000Y-70215000D01*
X190106666Y-70148333D01*
X190106666Y-70115000D01*
X190140000Y-70048333D01*
X190206666Y-70015000D01*
X190306666Y-70015000D01*
X190373333Y-70048333D01*
X191140000Y-70015000D02*
X191406666Y-70015000D01*
X191240000Y-69781666D02*
X191240000Y-70381666D01*
X191273333Y-70448333D01*
X191340000Y-70481666D01*
X191406666Y-70481666D01*
X191640000Y-70481666D02*
X191640000Y-69781666D01*
X191940000Y-70481666D02*
X191940000Y-70115000D01*
X191906666Y-70048333D01*
X191840000Y-70015000D01*
X191740000Y-70015000D01*
X191673333Y-70048333D01*
X191640000Y-70081666D01*
X192573333Y-70481666D02*
X192573333Y-70115000D01*
X192540000Y-70048333D01*
X192473333Y-70015000D01*
X192340000Y-70015000D01*
X192273333Y-70048333D01*
X192573333Y-70448333D02*
X192506666Y-70481666D01*
X192340000Y-70481666D01*
X192273333Y-70448333D01*
X192240000Y-70381666D01*
X192240000Y-70315000D01*
X192273333Y-70248333D01*
X192340000Y-70215000D01*
X192506666Y-70215000D01*
X192573333Y-70181666D01*
X192806666Y-70015000D02*
X193073333Y-70015000D01*
X192906666Y-69781666D02*
X192906666Y-70381666D01*
X192940000Y-70448333D01*
X193006666Y-70481666D01*
X193073333Y-70481666D01*
X193740000Y-70015000D02*
X194006666Y-70015000D01*
X193840000Y-69781666D02*
X193840000Y-70381666D01*
X193873333Y-70448333D01*
X193940000Y-70481666D01*
X194006666Y-70481666D01*
X194240000Y-70481666D02*
X194240000Y-69781666D01*
X194540000Y-70481666D02*
X194540000Y-70115000D01*
X194506666Y-70048333D01*
X194440000Y-70015000D01*
X194340000Y-70015000D01*
X194273333Y-70048333D01*
X194240000Y-70081666D01*
X195140000Y-70448333D02*
X195073333Y-70481666D01*
X194940000Y-70481666D01*
X194873333Y-70448333D01*
X194840000Y-70381666D01*
X194840000Y-70115000D01*
X194873333Y-70048333D01*
X194940000Y-70015000D01*
X195073333Y-70015000D01*
X195140000Y-70048333D01*
X195173333Y-70115000D01*
X195173333Y-70181666D01*
X194840000Y-70248333D01*
X195906666Y-70015000D02*
X196173333Y-70015000D01*
X196006666Y-70481666D02*
X196006666Y-69881666D01*
X196040000Y-69815000D01*
X196106666Y-69781666D01*
X196173333Y-69781666D01*
X196706666Y-70481666D02*
X196706666Y-70115000D01*
X196673333Y-70048333D01*
X196606666Y-70015000D01*
X196473333Y-70015000D01*
X196406666Y-70048333D01*
X196706666Y-70448333D02*
X196640000Y-70481666D01*
X196473333Y-70481666D01*
X196406666Y-70448333D01*
X196373333Y-70381666D01*
X196373333Y-70315000D01*
X196406666Y-70248333D01*
X196473333Y-70215000D01*
X196640000Y-70215000D01*
X196706666Y-70181666D01*
X196940000Y-70015000D02*
X197206666Y-70015000D01*
X197040000Y-69781666D02*
X197040000Y-70381666D01*
X197073333Y-70448333D01*
X197140000Y-70481666D01*
X197206666Y-70481666D01*
X197873333Y-70015000D02*
X198140000Y-70015000D01*
X197973333Y-69781666D02*
X197973333Y-70381666D01*
X198006666Y-70448333D01*
X198073333Y-70481666D01*
X198140000Y-70481666D01*
X198373333Y-70481666D02*
X198373333Y-69781666D01*
X198673333Y-70481666D02*
X198673333Y-70115000D01*
X198640000Y-70048333D01*
X198573333Y-70015000D01*
X198473333Y-70015000D01*
X198406666Y-70048333D01*
X198373333Y-70081666D01*
X199006666Y-70481666D02*
X199006666Y-70015000D01*
X199006666Y-69781666D02*
X198973333Y-69815000D01*
X199006666Y-69848333D01*
X199040000Y-69815000D01*
X199006666Y-69781666D01*
X199006666Y-69848333D01*
X199340000Y-70015000D02*
X199340000Y-70481666D01*
X199340000Y-70081666D02*
X199373333Y-70048333D01*
X199440000Y-70015000D01*
X199540000Y-70015000D01*
X199606666Y-70048333D01*
X199640000Y-70115000D01*
X199640000Y-70481666D01*
X200273333Y-70015000D02*
X200273333Y-70581666D01*
X200240000Y-70648333D01*
X200206666Y-70681666D01*
X200140000Y-70715000D01*
X200040000Y-70715000D01*
X199973333Y-70681666D01*
X200273333Y-70448333D02*
X200206666Y-70481666D01*
X200073333Y-70481666D01*
X200006666Y-70448333D01*
X199973333Y-70415000D01*
X199940000Y-70348333D01*
X199940000Y-70148333D01*
X199973333Y-70081666D01*
X200006666Y-70048333D01*
X200073333Y-70015000D01*
X200206666Y-70015000D01*
X200273333Y-70048333D01*
X200706666Y-70415000D02*
X200740000Y-70448333D01*
X200706666Y-70481666D01*
X200673333Y-70448333D01*
X200706666Y-70415000D01*
X200706666Y-70481666D01*
X200573333Y-69815000D02*
X200640000Y-69781666D01*
X200806666Y-69781666D01*
X200873333Y-69815000D01*
X200906666Y-69881666D01*
X200906666Y-69948333D01*
X200873333Y-70015000D01*
X200840000Y-70048333D01*
X200773333Y-70081666D01*
X200740000Y-70115000D01*
X200706666Y-70181666D01*
X200706666Y-70215000D01*
X194106666Y-71385000D02*
X194640000Y-71385000D01*
X195206666Y-71285000D02*
X195306666Y-71318333D01*
X195340000Y-71351666D01*
X195373333Y-71418333D01*
X195373333Y-71518333D01*
X195340000Y-71585000D01*
X195306666Y-71618333D01*
X195240000Y-71651666D01*
X194973333Y-71651666D01*
X194973333Y-70951666D01*
X195206666Y-70951666D01*
X195273333Y-70985000D01*
X195306666Y-71018333D01*
X195340000Y-71085000D01*
X195340000Y-71151666D01*
X195306666Y-71218333D01*
X195273333Y-71251666D01*
X195206666Y-71285000D01*
X194973333Y-71285000D01*
X195940000Y-71618333D02*
X195873333Y-71651666D01*
X195740000Y-71651666D01*
X195673333Y-71618333D01*
X195640000Y-71551666D01*
X195640000Y-71285000D01*
X195673333Y-71218333D01*
X195740000Y-71185000D01*
X195873333Y-71185000D01*
X195940000Y-71218333D01*
X195973333Y-71285000D01*
X195973333Y-71351666D01*
X195640000Y-71418333D01*
X196273333Y-71185000D02*
X196273333Y-71651666D01*
X196273333Y-71251666D02*
X196306666Y-71218333D01*
X196373333Y-71185000D01*
X196473333Y-71185000D01*
X196540000Y-71218333D01*
X196573333Y-71285000D01*
X196573333Y-71651666D01*
D11*
X190562380Y-68272761D02*
X189610000Y-68272761D01*
X189610000Y-66272761D01*
X191229047Y-68272761D02*
X191229047Y-66939428D01*
X191229047Y-66272761D02*
X191133809Y-66368000D01*
X191229047Y-66463238D01*
X191324285Y-66368000D01*
X191229047Y-66272761D01*
X191229047Y-66463238D01*
X192181428Y-68272761D02*
X192181428Y-66272761D01*
X192943333Y-66272761D01*
X193133809Y-66368000D01*
X193229047Y-66463238D01*
X193324285Y-66653714D01*
X193324285Y-66939428D01*
X193229047Y-67129904D01*
X193133809Y-67225142D01*
X192943333Y-67320380D01*
X192181428Y-67320380D01*
X194467142Y-68272761D02*
X194276666Y-68177523D01*
X194181428Y-68082285D01*
X194086190Y-67891809D01*
X194086190Y-67320380D01*
X194181428Y-67129904D01*
X194276666Y-67034666D01*
X194467142Y-66939428D01*
X194752857Y-66939428D01*
X194943333Y-67034666D01*
X195038571Y-67129904D01*
X195133809Y-67320380D01*
X195133809Y-67891809D01*
X195038571Y-68082285D01*
X194943333Y-68177523D01*
X194752857Y-68272761D01*
X194467142Y-68272761D01*
X197419523Y-68177523D02*
X197705238Y-68272761D01*
X198181428Y-68272761D01*
X198371904Y-68177523D01*
X198467142Y-68082285D01*
X198562380Y-67891809D01*
X198562380Y-67701333D01*
X198467142Y-67510857D01*
X198371904Y-67415619D01*
X198181428Y-67320380D01*
X197800476Y-67225142D01*
X197610000Y-67129904D01*
X197514761Y-67034666D01*
X197419523Y-66844190D01*
X197419523Y-66653714D01*
X197514761Y-66463238D01*
X197610000Y-66368000D01*
X197800476Y-66272761D01*
X198276666Y-66272761D01*
X198562380Y-66368000D01*
X200181428Y-68177523D02*
X199990952Y-68272761D01*
X199610000Y-68272761D01*
X199419523Y-68177523D01*
X199324285Y-67987047D01*
X199324285Y-67225142D01*
X199419523Y-67034666D01*
X199610000Y-66939428D01*
X199990952Y-66939428D01*
X200181428Y-67034666D01*
X200276666Y-67225142D01*
X200276666Y-67415619D01*
X199324285Y-67606095D01*
X201990952Y-68177523D02*
X201800476Y-68272761D01*
X201419523Y-68272761D01*
X201229047Y-68177523D01*
X201133809Y-68082285D01*
X201038571Y-67891809D01*
X201038571Y-67320380D01*
X201133809Y-67129904D01*
X201229047Y-67034666D01*
X201419523Y-66939428D01*
X201800476Y-66939428D01*
X201990952Y-67034666D01*
X202562380Y-66939428D02*
X203324285Y-66939428D01*
X202848095Y-66272761D02*
X202848095Y-67987047D01*
X202943333Y-68177523D01*
X203133809Y-68272761D01*
X203324285Y-68272761D01*
X203990952Y-68272761D02*
X203990952Y-66939428D01*
X203990952Y-66272761D02*
X203895714Y-66368000D01*
X203990952Y-66463238D01*
X204086190Y-66368000D01*
X203990952Y-66272761D01*
X203990952Y-66463238D01*
X205229047Y-68272761D02*
X205038571Y-68177523D01*
X204943333Y-68082285D01*
X204848095Y-67891809D01*
X204848095Y-67320380D01*
X204943333Y-67129904D01*
X205038571Y-67034666D01*
X205229047Y-66939428D01*
X205514761Y-66939428D01*
X205705238Y-67034666D01*
X205800476Y-67129904D01*
X205895714Y-67320380D01*
X205895714Y-67891809D01*
X205800476Y-68082285D01*
X205705238Y-68177523D01*
X205514761Y-68272761D01*
X205229047Y-68272761D01*
X206752857Y-66939428D02*
X206752857Y-68272761D01*
X206752857Y-67129904D02*
X206848095Y-67034666D01*
X207038571Y-66939428D01*
X207324285Y-66939428D01*
X207514761Y-67034666D01*
X207610000Y-67225142D01*
X207610000Y-68272761D01*
D12*
X223059523Y-112103913D02*
X223059523Y-108961056D01*
X227059523Y-111032485D02*
X223059523Y-110532485D01*
X225916666Y-107746770D02*
X225916666Y-105127723D01*
X227059523Y-108413437D02*
X223059523Y-106080104D01*
X227059523Y-104746770D01*
X227059523Y-99770580D02*
X225154761Y-101365818D01*
X227059523Y-102913437D02*
X223059523Y-102413437D01*
X223059523Y-100318199D01*
X223250000Y-99818199D01*
X223440476Y-99580104D01*
X223821428Y-99365818D01*
X224392857Y-99437247D01*
X224773809Y-99746770D01*
X224964285Y-100032485D01*
X225154761Y-100580104D01*
X225154761Y-102675342D01*
X226869047Y-97651532D02*
X227059523Y-96889627D01*
X227059523Y-95580104D01*
X226869047Y-95032485D01*
X226678571Y-94746770D01*
X226297619Y-94437247D01*
X225916666Y-94389627D01*
X225535714Y-94603913D01*
X225345238Y-94842008D01*
X225154761Y-95342008D01*
X224964285Y-96365818D01*
X224773809Y-96865818D01*
X224583333Y-97103913D01*
X224202380Y-97318199D01*
X223821428Y-97270580D01*
X223440476Y-96961056D01*
X223250000Y-96675342D01*
X223059523Y-96127723D01*
X223059523Y-94818199D01*
X223250000Y-94056294D01*
X225535714Y-91984866D02*
X225535714Y-87794389D01*
X227059523Y-85365818D02*
X223059523Y-84865818D01*
X225916666Y-83389627D01*
X223059523Y-81199151D01*
X227059523Y-81699151D01*
X227059523Y-79080104D02*
X223059523Y-78580104D01*
X227059523Y-75937247D02*
X224773809Y-78008675D01*
X223059523Y-75437247D02*
X225345238Y-78865818D01*
X223440476Y-73389627D02*
X223250000Y-73103913D01*
X223059523Y-72556294D01*
X223059523Y-71246770D01*
X223250000Y-70746770D01*
X223440476Y-70508675D01*
X223821428Y-70294389D01*
X224202380Y-70342008D01*
X224773809Y-70675342D01*
X227059523Y-74103913D01*
X227059523Y-70699151D01*
D13*
X228957142Y-111348360D02*
X229004761Y-111401931D01*
X229052380Y-111550741D01*
X229052380Y-111645979D01*
X229004761Y-111782883D01*
X228909523Y-111866217D01*
X228814285Y-111901931D01*
X228623809Y-111925741D01*
X228480952Y-111907883D01*
X228290476Y-111836455D01*
X228195238Y-111776931D01*
X228100000Y-111669788D01*
X228052380Y-111520979D01*
X228052380Y-111425741D01*
X228100000Y-111288836D01*
X228147619Y-111247169D01*
X228052380Y-110616217D02*
X228052380Y-110425741D01*
X228100000Y-110336455D01*
X228195238Y-110253122D01*
X228385714Y-110229312D01*
X228719047Y-110270979D01*
X228909523Y-110342407D01*
X229004761Y-110449550D01*
X229052380Y-110550741D01*
X229052380Y-110741217D01*
X229004761Y-110830502D01*
X228909523Y-110913836D01*
X228719047Y-110937645D01*
X228385714Y-110895979D01*
X228195238Y-110824550D01*
X228100000Y-110717407D01*
X228052380Y-110616217D01*
X228052380Y-109901931D02*
X228052380Y-109330502D01*
X229052380Y-109741217D02*
X228052380Y-109616217D01*
X229004761Y-109163836D02*
X229052380Y-109026931D01*
X229052380Y-108788836D01*
X229004761Y-108687645D01*
X228957142Y-108634074D01*
X228861904Y-108574550D01*
X228766666Y-108562645D01*
X228671428Y-108598360D01*
X228623809Y-108640026D01*
X228576190Y-108729312D01*
X228528571Y-108913836D01*
X228480952Y-109003122D01*
X228433333Y-109044788D01*
X228338095Y-109080502D01*
X228242857Y-109068598D01*
X228147619Y-109009074D01*
X228100000Y-108955502D01*
X228052380Y-108854312D01*
X228052380Y-108616217D01*
X228100000Y-108479312D01*
X228766666Y-107419788D02*
X228766666Y-106943598D01*
X229052380Y-107550741D02*
X228052380Y-107092407D01*
X229052380Y-106884074D01*
X229052380Y-106074550D02*
X229052380Y-106550741D01*
X228052380Y-106425741D01*
X228052380Y-105759074D02*
X228052380Y-105187645D01*
X229052380Y-105598360D02*
X228052380Y-105473360D01*
X229052380Y-104979312D02*
X228052380Y-104854312D01*
X229052380Y-104503122D02*
X228052380Y-104378122D01*
X228766666Y-104134074D01*
X228052380Y-103711455D01*
X229052380Y-103836455D01*
X228528571Y-103294788D02*
X228528571Y-102961455D01*
X229052380Y-102884074D02*
X229052380Y-103360264D01*
X228052380Y-103235264D01*
X228052380Y-102759074D01*
X228052380Y-102473360D02*
X228052380Y-101901931D01*
X229052380Y-102312645D02*
X228052380Y-102187645D01*
X228528571Y-101628122D02*
X228528571Y-101294788D01*
X229052380Y-101217407D02*
X229052380Y-101693598D01*
X228052380Y-101568598D01*
X228052380Y-101092407D01*
X229052380Y-100217407D02*
X228576190Y-100491217D01*
X229052380Y-100788836D02*
X228052380Y-100663836D01*
X228052380Y-100282883D01*
X228100000Y-100193598D01*
X228147619Y-100151931D01*
X228242857Y-100116217D01*
X228385714Y-100134074D01*
X228480952Y-100193598D01*
X228528571Y-100247169D01*
X228576190Y-100348360D01*
X228576190Y-100729312D01*
X228528571Y-98628122D02*
X228576190Y-98491217D01*
X228623809Y-98449550D01*
X228719047Y-98413836D01*
X228861904Y-98431693D01*
X228957142Y-98491217D01*
X229004761Y-98544788D01*
X229052380Y-98645979D01*
X229052380Y-99026931D01*
X228052380Y-98901931D01*
X228052380Y-98568598D01*
X228100000Y-98479312D01*
X228147619Y-98437645D01*
X228242857Y-98401931D01*
X228338095Y-98413836D01*
X228433333Y-98473360D01*
X228480952Y-98526931D01*
X228528571Y-98628122D01*
X228528571Y-98961455D01*
X228052380Y-97711455D02*
X228052380Y-97520979D01*
X228100000Y-97431693D01*
X228195238Y-97348360D01*
X228385714Y-97324550D01*
X228719047Y-97366217D01*
X228909523Y-97437645D01*
X229004761Y-97544788D01*
X229052380Y-97645979D01*
X229052380Y-97836455D01*
X229004761Y-97925741D01*
X228909523Y-98009074D01*
X228719047Y-98032883D01*
X228385714Y-97991217D01*
X228195238Y-97919788D01*
X228100000Y-97812645D01*
X228052380Y-97711455D01*
X228766666Y-96991217D02*
X228766666Y-96515026D01*
X229052380Y-97122169D02*
X228052380Y-96663836D01*
X229052380Y-96455502D01*
X229052380Y-95550741D02*
X228576190Y-95824550D01*
X229052380Y-96122169D02*
X228052380Y-95997169D01*
X228052380Y-95616217D01*
X228100000Y-95526931D01*
X228147619Y-95485264D01*
X228242857Y-95449550D01*
X228385714Y-95467407D01*
X228480952Y-95526931D01*
X228528571Y-95580502D01*
X228576190Y-95681693D01*
X228576190Y-96062645D01*
X229052380Y-95122169D02*
X228052380Y-94997169D01*
X228052380Y-94759074D01*
X228100000Y-94622169D01*
X228195238Y-94538836D01*
X228290476Y-94503122D01*
X228480952Y-94479312D01*
X228623809Y-94497169D01*
X228814285Y-94568598D01*
X228909523Y-94628122D01*
X229004761Y-94735264D01*
X229052380Y-94884074D01*
X229052380Y-95122169D01*
X229052380Y-93360264D02*
X228385714Y-93276931D01*
X228576190Y-93300741D02*
X228480952Y-93241217D01*
X228433333Y-93187645D01*
X228385714Y-93086455D01*
X228385714Y-92991217D01*
X229004761Y-92354312D02*
X229052380Y-92455502D01*
X229052380Y-92645979D01*
X229004761Y-92735264D01*
X228909523Y-92770979D01*
X228528571Y-92723360D01*
X228433333Y-92663836D01*
X228385714Y-92562645D01*
X228385714Y-92372169D01*
X228433333Y-92282883D01*
X228528571Y-92247169D01*
X228623809Y-92259074D01*
X228719047Y-92747169D01*
X228385714Y-91895979D02*
X229052380Y-91741217D01*
X228385714Y-91419788D01*
X228957142Y-91110264D02*
X229004761Y-91068598D01*
X229052380Y-91122169D01*
X229004761Y-91163836D01*
X228957142Y-91110264D01*
X229052380Y-91122169D01*
X228766666Y-90657883D02*
X228766666Y-90181693D01*
X229052380Y-90788836D02*
X228052380Y-90330502D01*
X229052380Y-90122169D01*
D14*
X177973333Y-101368571D02*
X176573333Y-101368571D01*
X177973333Y-99749523D02*
X177973333Y-100559047D01*
X176573333Y-100559047D01*
X177973333Y-98373333D02*
X177973333Y-99182857D01*
X176573333Y-99182857D01*
X177973333Y-97806666D02*
X176573333Y-97806666D01*
X177973333Y-96997142D02*
X176573333Y-96997142D01*
X177973333Y-96025714D01*
X176573333Y-96025714D01*
X176573333Y-94892380D02*
X176573333Y-94568571D01*
X176640000Y-94406666D01*
X176773333Y-94244761D01*
X177040000Y-94163809D01*
X177506666Y-94163809D01*
X177773333Y-94244761D01*
X177906666Y-94406666D01*
X177973333Y-94568571D01*
X177973333Y-94892380D01*
X177906666Y-95054285D01*
X177773333Y-95216190D01*
X177506666Y-95297142D01*
X177040000Y-95297142D01*
X176773333Y-95216190D01*
X176640000Y-95054285D01*
X176573333Y-94892380D01*
X177973333Y-93435238D02*
X176573333Y-93435238D01*
X177906666Y-92706666D02*
X177973333Y-92463809D01*
X177973333Y-92059047D01*
X177906666Y-91897142D01*
X177840000Y-91816190D01*
X177706666Y-91735238D01*
X177573333Y-91735238D01*
X177440000Y-91816190D01*
X177373333Y-91897142D01*
X177306666Y-92059047D01*
X177240000Y-92382857D01*
X177173333Y-92544761D01*
X177106666Y-92625714D01*
X176973333Y-92706666D01*
X176840000Y-92706666D01*
X176706666Y-92625714D01*
X176640000Y-92544761D01*
X176573333Y-92382857D01*
X176573333Y-91978095D01*
X176640000Y-91735238D01*
X177906666Y-89792380D02*
X177973333Y-89549523D01*
X177973333Y-89144761D01*
X177906666Y-88982857D01*
X177840000Y-88901904D01*
X177706666Y-88820952D01*
X177573333Y-88820952D01*
X177440000Y-88901904D01*
X177373333Y-88982857D01*
X177306666Y-89144761D01*
X177240000Y-89468571D01*
X177173333Y-89630476D01*
X177106666Y-89711428D01*
X176973333Y-89792380D01*
X176840000Y-89792380D01*
X176706666Y-89711428D01*
X176640000Y-89630476D01*
X176573333Y-89468571D01*
X176573333Y-89063809D01*
X176640000Y-88820952D01*
X177973333Y-88092380D02*
X176573333Y-88092380D01*
X176573333Y-87444761D01*
X176640000Y-87282857D01*
X176706666Y-87201904D01*
X176840000Y-87120952D01*
X177040000Y-87120952D01*
X177173333Y-87201904D01*
X177240000Y-87282857D01*
X177306666Y-87444761D01*
X177306666Y-88092380D01*
X177573333Y-86473333D02*
X177573333Y-85663809D01*
X177973333Y-86635238D02*
X176573333Y-86068571D01*
X177973333Y-85501904D01*
X177840000Y-83963809D02*
X177906666Y-84044761D01*
X177973333Y-84287619D01*
X177973333Y-84449523D01*
X177906666Y-84692380D01*
X177773333Y-84854285D01*
X177640000Y-84935238D01*
X177373333Y-85016190D01*
X177173333Y-85016190D01*
X176906666Y-84935238D01*
X176773333Y-84854285D01*
X176640000Y-84692380D01*
X176573333Y-84449523D01*
X176573333Y-84287619D01*
X176640000Y-84044761D01*
X176706666Y-83963809D01*
X177240000Y-83235238D02*
X177240000Y-82668571D01*
X177973333Y-82425714D02*
X177973333Y-83235238D01*
X176573333Y-83235238D01*
X176573333Y-82425714D01*
X177906666Y-80482857D02*
X177973333Y-80240000D01*
X177973333Y-79835238D01*
X177906666Y-79673333D01*
X177840000Y-79592380D01*
X177706666Y-79511428D01*
X177573333Y-79511428D01*
X177440000Y-79592380D01*
X177373333Y-79673333D01*
X177306666Y-79835238D01*
X177240000Y-80159047D01*
X177173333Y-80320952D01*
X177106666Y-80401904D01*
X176973333Y-80482857D01*
X176840000Y-80482857D01*
X176706666Y-80401904D01*
X176640000Y-80320952D01*
X176573333Y-80159047D01*
X176573333Y-79754285D01*
X176640000Y-79511428D01*
X176573333Y-78459047D02*
X176573333Y-78135238D01*
X176640000Y-77973333D01*
X176773333Y-77811428D01*
X177040000Y-77730476D01*
X177506666Y-77730476D01*
X177773333Y-77811428D01*
X177906666Y-77973333D01*
X177973333Y-78135238D01*
X177973333Y-78459047D01*
X177906666Y-78620952D01*
X177773333Y-78782857D01*
X177506666Y-78863809D01*
X177040000Y-78863809D01*
X176773333Y-78782857D01*
X176640000Y-78620952D01*
X176573333Y-78459047D01*
X177840000Y-76030476D02*
X177906666Y-76111428D01*
X177973333Y-76354285D01*
X177973333Y-76516190D01*
X177906666Y-76759047D01*
X177773333Y-76920952D01*
X177640000Y-77001904D01*
X177373333Y-77082857D01*
X177173333Y-77082857D01*
X176906666Y-77001904D01*
X176773333Y-76920952D01*
X176640000Y-76759047D01*
X176573333Y-76516190D01*
X176573333Y-76354285D01*
X176640000Y-76111428D01*
X176706666Y-76030476D01*
X177973333Y-75301904D02*
X176573333Y-75301904D01*
X177240000Y-74492380D02*
X177240000Y-73925714D01*
X177973333Y-73682857D02*
X177973333Y-74492380D01*
X176573333Y-74492380D01*
X176573333Y-73682857D01*
X176573333Y-73197142D02*
X176573333Y-72225714D01*
X177973333Y-72711428D02*
X176573333Y-72711428D01*
X177306666Y-71335238D02*
X177973333Y-71335238D01*
X176573333Y-71901904D02*
X177306666Y-71335238D01*
X176573333Y-70768571D01*
D15*
%TO.C,G\u002A\u002A\u002A*%
G36*
X169181720Y-98677840D02*
G01*
X169542400Y-97285920D01*
X170065640Y-98627040D01*
X171447400Y-99048680D01*
X170131680Y-99551600D01*
X169760840Y-101014640D01*
X169257920Y-99622720D01*
X167805040Y-99236640D01*
X169181720Y-98677840D01*
G37*
X169181720Y-98677840D02*
X169542400Y-97285920D01*
X170065640Y-98627040D01*
X171447400Y-99048680D01*
X170131680Y-99551600D01*
X169760840Y-101014640D01*
X169257920Y-99622720D01*
X167805040Y-99236640D01*
X169181720Y-98677840D01*
D16*
G36*
X168109571Y-91523623D02*
G01*
X168218909Y-91568572D01*
X168298439Y-91605729D01*
X168315384Y-91615586D01*
X168366629Y-91646063D01*
X168467194Y-91702293D01*
X168597404Y-91773311D01*
X168628000Y-91789790D01*
X168769495Y-91869082D01*
X168892182Y-91943613D01*
X168972542Y-91998996D01*
X168979692Y-92004938D01*
X169056058Y-92057053D01*
X169176093Y-92124068D01*
X169292307Y-92181289D01*
X169436926Y-92252665D01*
X169616061Y-92347677D01*
X169797585Y-92449137D01*
X169850352Y-92479819D01*
X169990979Y-92561529D01*
X170104645Y-92625680D01*
X170175805Y-92663599D01*
X170191517Y-92670154D01*
X170231180Y-92689391D01*
X170316939Y-92739489D01*
X170415010Y-92800083D01*
X170542961Y-92877692D01*
X170711630Y-92975752D01*
X170892766Y-93077956D01*
X170972615Y-93121937D01*
X171129557Y-93208121D01*
X171267541Y-93284868D01*
X171367611Y-93341585D01*
X171402461Y-93362145D01*
X171499566Y-93418330D01*
X171578307Y-93460563D01*
X171745262Y-93549535D01*
X171951391Y-93664175D01*
X172169442Y-93788972D01*
X172372165Y-93908415D01*
X172474397Y-93970619D01*
X172628072Y-94061929D01*
X172784659Y-94148900D01*
X172904243Y-94209764D01*
X173013413Y-94265150D01*
X173166349Y-94348277D01*
X173339961Y-94446405D01*
X173461597Y-94517297D01*
X173616550Y-94607001D01*
X173748023Y-94679587D01*
X173840879Y-94726921D01*
X173878417Y-94741231D01*
X173925097Y-94771987D01*
X173934520Y-94790077D01*
X173962171Y-94815605D01*
X174010175Y-94780308D01*
X174050200Y-94702351D01*
X174089361Y-94556425D01*
X174125807Y-94352709D01*
X174157685Y-94101383D01*
X174181089Y-93840886D01*
X174191071Y-93665202D01*
X174187875Y-93540841D01*
X174168597Y-93441650D01*
X174130337Y-93341477D01*
X174124141Y-93327729D01*
X174065455Y-93219181D01*
X174007471Y-93143524D01*
X173982663Y-93125377D01*
X173930205Y-93084867D01*
X173922923Y-93063485D01*
X173900718Y-93018739D01*
X173840209Y-92925410D01*
X173750553Y-92797004D01*
X173640909Y-92647029D01*
X173637290Y-92642182D01*
X173523343Y-92488912D01*
X173424537Y-92354626D01*
X173351491Y-92253849D01*
X173314905Y-92201231D01*
X173307913Y-92151982D01*
X173300831Y-92029684D01*
X173293765Y-91839439D01*
X173286821Y-91586352D01*
X173280106Y-91275527D01*
X173273726Y-90912066D01*
X173267787Y-90501074D01*
X173262396Y-90047655D01*
X173257660Y-89556912D01*
X173256259Y-89387693D01*
X173251943Y-88855403D01*
X173247931Y-88395461D01*
X173244030Y-88002063D01*
X173240047Y-87669404D01*
X173235787Y-87391679D01*
X173231058Y-87163084D01*
X173225665Y-86977815D01*
X173219415Y-86830067D01*
X173212115Y-86714035D01*
X173203571Y-86623916D01*
X173193589Y-86553905D01*
X173181976Y-86498197D01*
X173168538Y-86450989D01*
X173157209Y-86417846D01*
X173035442Y-86127704D01*
X172903865Y-85912226D01*
X172759232Y-85768200D01*
X172598294Y-85692413D01*
X172417807Y-85681651D01*
X172413751Y-85682103D01*
X172330853Y-85709518D01*
X172259509Y-85781686D01*
X172204594Y-85870769D01*
X172107284Y-86046616D01*
X172083620Y-88371693D01*
X172078594Y-88857248D01*
X172073985Y-89271260D01*
X172069517Y-89620338D01*
X172064911Y-89911089D01*
X172059890Y-90150122D01*
X172054175Y-90344044D01*
X172047489Y-90499464D01*
X172039554Y-90622990D01*
X172030093Y-90721229D01*
X172018826Y-90800790D01*
X172005477Y-90868281D01*
X171989768Y-90930309D01*
X171973702Y-90985853D01*
X171845172Y-91327539D01*
X171684520Y-91598238D01*
X171491417Y-91798360D01*
X171265531Y-91928313D01*
X171189664Y-91954162D01*
X170924351Y-91992248D01*
X170636020Y-91962989D01*
X170332613Y-91870802D01*
X170022067Y-91720103D01*
X169712323Y-91515309D01*
X169411319Y-91260836D01*
X169126996Y-90961101D01*
X168914697Y-90688624D01*
X168607867Y-90206422D01*
X168363958Y-89706356D01*
X168176953Y-89173615D01*
X168040831Y-88593390D01*
X168023442Y-88495576D01*
X168009199Y-88409044D01*
X167996767Y-88323695D01*
X167986025Y-88233810D01*
X167976848Y-88133666D01*
X167969115Y-88017542D01*
X167962703Y-87879717D01*
X167957488Y-87714470D01*
X167953349Y-87516079D01*
X167950161Y-87278823D01*
X167947803Y-86996981D01*
X167946151Y-86664832D01*
X167945083Y-86276655D01*
X167944477Y-85826727D01*
X167944208Y-85309329D01*
X167944154Y-84801582D01*
X167944452Y-84183105D01*
X167945379Y-83639487D01*
X167946978Y-83167437D01*
X167949296Y-82763663D01*
X167952377Y-82424874D01*
X167956268Y-82147776D01*
X167961014Y-81929079D01*
X167966659Y-81765490D01*
X167973250Y-81653717D01*
X167980832Y-81590469D01*
X167988692Y-81572308D01*
X168007941Y-81572927D01*
X168027320Y-81580864D01*
X168054787Y-81605242D01*
X168098301Y-81655182D01*
X168165820Y-81739806D01*
X168265302Y-81868236D01*
X168401757Y-82045755D01*
X168605331Y-82311092D01*
X168766003Y-82521447D01*
X168888837Y-82683541D01*
X168978900Y-82804092D01*
X169041256Y-82889820D01*
X169077384Y-82942018D01*
X169127711Y-83012650D01*
X169211124Y-83124646D01*
X169312529Y-83257836D01*
X169350923Y-83307592D01*
X169453830Y-83443092D01*
X169542539Y-83564685D01*
X169602595Y-83652386D01*
X169614692Y-83672301D01*
X169624985Y-83708109D01*
X169633848Y-83779194D01*
X169641364Y-83890194D01*
X169647622Y-84045746D01*
X169652705Y-84250490D01*
X169656701Y-84509064D01*
X169659694Y-84826105D01*
X169661771Y-85206253D01*
X169663017Y-85654145D01*
X169663519Y-86174421D01*
X169663538Y-86312663D01*
X169663592Y-86849232D01*
X169664064Y-87313275D01*
X169665420Y-87710417D01*
X169668126Y-88046288D01*
X169672647Y-88326512D01*
X169679449Y-88556718D01*
X169688997Y-88742533D01*
X169701758Y-88889583D01*
X169718196Y-89003496D01*
X169738778Y-89089898D01*
X169763969Y-89154417D01*
X169794235Y-89202680D01*
X169830041Y-89240314D01*
X169871854Y-89272945D01*
X169910731Y-89299769D01*
X170041168Y-89366431D01*
X170158098Y-89386919D01*
X170243911Y-89360766D01*
X170277446Y-89309539D01*
X170308376Y-89246190D01*
X170332403Y-89231385D01*
X170339352Y-89193421D01*
X170345790Y-89083983D01*
X170351601Y-88909747D01*
X170356669Y-88677392D01*
X170360878Y-88393595D01*
X170364111Y-88065035D01*
X170366254Y-87698388D01*
X170367189Y-87300334D01*
X170367219Y-87228693D01*
X170367982Y-86828512D01*
X170370056Y-86442593D01*
X170373303Y-86079844D01*
X170377582Y-85749172D01*
X170382755Y-85459485D01*
X170388682Y-85219693D01*
X170395223Y-85038701D01*
X170402239Y-84925420D01*
X170403486Y-84913385D01*
X170473233Y-84542820D01*
X170589443Y-84217371D01*
X170747668Y-83942261D01*
X170943462Y-83722711D01*
X171172379Y-83563944D01*
X171429972Y-83471181D01*
X171651288Y-83448000D01*
X171802934Y-83463532D01*
X171990204Y-83505804D01*
X172196382Y-83568334D01*
X172404755Y-83644639D01*
X172598606Y-83728234D01*
X172761221Y-83812637D01*
X172875885Y-83891365D01*
X172918634Y-83939565D01*
X172970590Y-83988772D01*
X172994927Y-83995077D01*
X173049004Y-84020336D01*
X173129990Y-84083553D01*
X173159300Y-84110736D01*
X173244416Y-84184749D01*
X173302768Y-84211489D01*
X173335668Y-84185680D01*
X173344427Y-84102047D01*
X173330357Y-83955316D01*
X173294770Y-83740211D01*
X173276146Y-83640845D01*
X173219889Y-83347334D01*
X173175792Y-83118652D01*
X173141487Y-82942837D01*
X173114604Y-82807926D01*
X173092773Y-82701957D01*
X173073624Y-82612969D01*
X173063792Y-82568769D01*
X173031620Y-82425685D01*
X172996311Y-82268797D01*
X172989063Y-82236616D01*
X172955871Y-82097073D01*
X172913429Y-81928695D01*
X172886520Y-81826308D01*
X172860049Y-81725857D01*
X172817543Y-81562338D01*
X172762269Y-81348415D01*
X172697491Y-81096754D01*
X172626476Y-80820020D01*
X172553995Y-80536769D01*
X172459914Y-80170768D01*
X172382156Y-79873905D01*
X172318651Y-79639358D01*
X172267328Y-79460307D01*
X172226114Y-79329931D01*
X172192939Y-79241410D01*
X172165731Y-79187923D01*
X172142419Y-79162649D01*
X172135728Y-79159499D01*
X172122165Y-79192729D01*
X172108414Y-79295509D01*
X172095177Y-79459240D01*
X172083159Y-79675325D01*
X172073547Y-79920132D01*
X172066769Y-80095572D01*
X172066769Y-79071385D01*
X172086307Y-79051846D01*
X172066769Y-79032308D01*
X172047231Y-79051846D01*
X172066769Y-79071385D01*
X172066769Y-80095572D01*
X172061846Y-80222998D01*
X172047955Y-80462199D01*
X172030426Y-80652221D01*
X172007815Y-80807549D01*
X171978675Y-80942669D01*
X171967141Y-80986154D01*
X171844448Y-81326553D01*
X171685091Y-81598389D01*
X171491106Y-81800747D01*
X171264529Y-81932714D01*
X171007398Y-81993379D01*
X170721748Y-81981826D01*
X170409616Y-81897143D01*
X170171538Y-81791354D01*
X169895670Y-81640259D01*
X169668544Y-81489390D01*
X169465753Y-81319345D01*
X169262892Y-81110725D01*
X169144499Y-80974931D01*
X168898705Y-80657711D01*
X168670137Y-80310301D01*
X168469833Y-79952408D01*
X168308830Y-79603742D01*
X168198796Y-79286308D01*
X168155312Y-79128369D01*
X168117111Y-78986696D01*
X168083853Y-78855322D01*
X168055196Y-78728277D01*
X168030795Y-78599596D01*
X168010310Y-78463309D01*
X167993398Y-78313449D01*
X167979717Y-78144048D01*
X167968923Y-77949139D01*
X167960676Y-77722753D01*
X167954631Y-77458923D01*
X167950448Y-77151680D01*
X167947784Y-76795058D01*
X167946296Y-76383088D01*
X167945641Y-75909803D01*
X167945479Y-75369234D01*
X167945472Y-74870616D01*
X167945810Y-74373340D01*
X167946825Y-73898194D01*
X167948464Y-73451033D01*
X167950673Y-73037713D01*
X167953400Y-72664088D01*
X167956589Y-72336015D01*
X167960189Y-72059348D01*
X167964145Y-71839942D01*
X167968403Y-71683653D01*
X167972911Y-71596336D01*
X167975562Y-71579685D01*
X167996535Y-71565846D01*
X168030648Y-71580926D01*
X168084241Y-71631847D01*
X168163654Y-71725530D01*
X168275227Y-71868898D01*
X168425300Y-72068873D01*
X168432615Y-72078715D01*
X168519832Y-72193999D01*
X168630101Y-72336950D01*
X168725993Y-72459396D01*
X168840077Y-72606078D01*
X168958042Y-72761357D01*
X169038608Y-72870130D01*
X169140333Y-73007110D01*
X169260004Y-73164008D01*
X169341154Y-73268033D01*
X169424650Y-73378519D01*
X169484286Y-73466719D01*
X169507229Y-73513643D01*
X169507231Y-73513770D01*
X169533448Y-73564083D01*
X169585384Y-73620154D01*
X169600880Y-73635882D01*
X169614179Y-73656732D01*
X169625450Y-73688405D01*
X169634861Y-73736599D01*
X169642579Y-73807016D01*
X169648772Y-73905356D01*
X169653607Y-74037319D01*
X169657253Y-74208605D01*
X169659877Y-74424914D01*
X169661647Y-74691946D01*
X169662730Y-75015403D01*
X169663294Y-75400983D01*
X169663508Y-75854387D01*
X169663538Y-76276480D01*
X169663614Y-76819467D01*
X169664144Y-77289832D01*
X169665583Y-77693108D01*
X169668386Y-78034827D01*
X169673006Y-78320522D01*
X169679898Y-78555724D01*
X169689517Y-78745966D01*
X169702317Y-78896780D01*
X169718753Y-79013698D01*
X169739278Y-79102254D01*
X169764348Y-79167978D01*
X169794416Y-79216404D01*
X169829937Y-79253064D01*
X169871366Y-79283489D01*
X169912649Y-79309243D01*
X170064173Y-79373311D01*
X170195814Y-79373954D01*
X170295036Y-79311558D01*
X170306092Y-79297152D01*
X170319624Y-79270244D01*
X170331027Y-79227188D01*
X170340477Y-79161716D01*
X170348150Y-79067559D01*
X170354223Y-78938448D01*
X170358871Y-78768113D01*
X170362272Y-78550286D01*
X170364601Y-78278698D01*
X170366034Y-77947080D01*
X170366749Y-77549164D01*
X170366923Y-77133716D01*
X170367581Y-76613374D01*
X170369607Y-76167419D01*
X170373077Y-75792094D01*
X170378071Y-75483643D01*
X170384664Y-75238309D01*
X170392935Y-75052335D01*
X170402961Y-74921966D01*
X170414082Y-74846642D01*
X170452311Y-74640300D01*
X170462319Y-74463506D01*
X170440634Y-74294273D01*
X170383782Y-74110614D01*
X170288291Y-73890542D01*
X170250723Y-73812354D01*
X170081448Y-73465964D01*
X169942153Y-73182507D01*
X169829014Y-72954448D01*
X169738206Y-72774256D01*
X169665903Y-72634397D01*
X169608283Y-72527338D01*
X169561518Y-72445547D01*
X169533500Y-72399777D01*
X169473451Y-72301194D01*
X169435697Y-72232428D01*
X169429077Y-72215214D01*
X169407422Y-72162498D01*
X169347636Y-72058285D01*
X169257484Y-71914334D01*
X169145992Y-71744325D01*
X169145992Y-71567480D01*
X169152405Y-71529539D01*
X169130447Y-71463350D01*
X169072397Y-71375060D01*
X169057798Y-71357384D01*
X168996599Y-71294620D01*
X168962611Y-71276072D01*
X168960154Y-71281631D01*
X168984446Y-71335909D01*
X169032389Y-71396953D01*
X169095651Y-71476597D01*
X169126996Y-71531321D01*
X169145992Y-71567480D01*
X169145992Y-71744325D01*
X169144734Y-71742406D01*
X169017150Y-71554260D01*
X168882500Y-71361656D01*
X168748550Y-71176353D01*
X168698820Y-71109462D01*
X168556259Y-70914500D01*
X168456720Y-70767434D01*
X168402515Y-70671977D01*
X168395960Y-70631836D01*
X168400274Y-70630769D01*
X168483946Y-70661960D01*
X168603596Y-70750104D01*
X168751946Y-70887063D01*
X168921721Y-71064699D01*
X169105645Y-71274870D01*
X169296440Y-71509440D01*
X169486832Y-71760267D01*
X169669543Y-72019213D01*
X169750542Y-72141172D01*
X169885937Y-72351365D01*
X169996352Y-72528450D01*
X170097749Y-72699193D01*
X170206096Y-72890356D01*
X170312269Y-73082846D01*
X170455133Y-73341430D01*
X170566625Y-73537466D01*
X170651125Y-73677902D01*
X170713017Y-73769683D01*
X170756681Y-73819759D01*
X170786500Y-73835076D01*
X170786722Y-73835077D01*
X170845639Y-73807301D01*
X170921297Y-73738846D01*
X170935537Y-73722598D01*
X171025444Y-73644841D01*
X171155353Y-73565227D01*
X171247918Y-73521746D01*
X171512360Y-73455465D01*
X171802857Y-73456406D01*
X172112596Y-73520884D01*
X172434762Y-73645217D01*
X172762540Y-73825719D01*
X173089117Y-74058708D01*
X173407678Y-74340499D01*
X173711408Y-74667409D01*
X173959847Y-74987846D01*
X174076910Y-75160007D01*
X174184809Y-75337081D01*
X174292300Y-75535387D01*
X174408139Y-75771241D01*
X174541083Y-76060962D01*
X174567943Y-76121077D01*
X174627082Y-76268740D01*
X174690487Y-76450113D01*
X174748228Y-76634471D01*
X174790378Y-76791092D01*
X174801553Y-76844000D01*
X174827777Y-76961148D01*
X174857211Y-77056209D01*
X174858307Y-77058923D01*
X174878886Y-77116853D01*
X174897015Y-77187395D01*
X174912843Y-77275481D01*
X174926521Y-77386045D01*
X174938198Y-77524021D01*
X174948024Y-77694343D01*
X174956149Y-77901944D01*
X174962723Y-78151758D01*
X174967895Y-78448718D01*
X174971816Y-78797758D01*
X174974635Y-79203812D01*
X174976502Y-79671814D01*
X174977567Y-80206696D01*
X174977981Y-80813393D01*
X174978000Y-80999905D01*
X174977721Y-81500501D01*
X174976912Y-81978520D01*
X174975614Y-82428208D01*
X174973870Y-82843814D01*
X174971720Y-83219583D01*
X174969208Y-83549762D01*
X174966374Y-83828599D01*
X174963260Y-84050339D01*
X174959908Y-84209231D01*
X174956360Y-84299520D01*
X174953930Y-84318737D01*
X174919160Y-84302567D01*
X174848943Y-84234204D01*
X174753171Y-84125111D01*
X174641737Y-83986755D01*
X174524533Y-83830598D01*
X174485006Y-83775316D01*
X174406340Y-83668589D01*
X174298165Y-83527930D01*
X174180781Y-83379634D01*
X174151922Y-83343888D01*
X174050499Y-83213231D01*
X173968850Y-83097561D01*
X173919810Y-83015489D01*
X173912224Y-82996330D01*
X173899925Y-82983212D01*
X173890757Y-83036437D01*
X173888379Y-83083412D01*
X173895103Y-83186754D01*
X173916793Y-83343769D01*
X173949957Y-83532186D01*
X173986383Y-83708643D01*
X174030147Y-83908412D01*
X174070775Y-84098255D01*
X174103379Y-84255077D01*
X174121430Y-84346769D01*
X174157165Y-84538365D01*
X174200926Y-84770537D01*
X174245882Y-85007133D01*
X174272830Y-85147846D01*
X174301083Y-85269786D01*
X174343918Y-85427672D01*
X174383035Y-85558154D01*
X174469736Y-85837095D01*
X174531763Y-86046491D01*
X174570297Y-86190551D01*
X174586521Y-86273481D01*
X174587231Y-86285565D01*
X174609838Y-86334619D01*
X174626307Y-86339693D01*
X174658371Y-86372318D01*
X174665384Y-86415540D01*
X174681159Y-86488864D01*
X174699956Y-86512754D01*
X174732138Y-86563472D01*
X174755355Y-86642060D01*
X174780080Y-86752172D01*
X174814063Y-86883917D01*
X174820291Y-86906308D01*
X174856552Y-87049014D01*
X174886384Y-87202259D01*
X174910854Y-87377173D01*
X174931027Y-87584882D01*
X174947969Y-87836513D01*
X174962744Y-88143194D01*
X174976419Y-88516053D01*
X174977447Y-88547539D01*
X174988300Y-88847607D01*
X175001100Y-89145312D01*
X175014998Y-89424420D01*
X175029147Y-89668694D01*
X175042697Y-89861899D01*
X175050978Y-89954308D01*
X175093635Y-90376622D01*
X175139128Y-90847591D01*
X175184668Y-91337919D01*
X175216513Y-91693231D01*
X175229473Y-91884134D01*
X175240760Y-92136889D01*
X175250337Y-92440757D01*
X175258167Y-92785000D01*
X175264212Y-93158876D01*
X175268436Y-93551648D01*
X175270801Y-93952576D01*
X175271269Y-94350921D01*
X175269805Y-94735943D01*
X175266370Y-95096903D01*
X175260927Y-95423062D01*
X175253439Y-95703680D01*
X175243869Y-95928018D01*
X175232180Y-96085338D01*
X175231745Y-96089385D01*
X175152822Y-96719732D01*
X175061045Y-97276980D01*
X174955046Y-97765334D01*
X174833458Y-98188999D01*
X174694914Y-98552182D01*
X174538045Y-98859087D01*
X174361484Y-99113920D01*
X174188082Y-99299041D01*
X173962703Y-99459375D01*
X173716565Y-99548927D01*
X173617384Y-99555045D01*
X173617384Y-99466185D01*
X173858758Y-99396059D01*
X174084935Y-99255057D01*
X174290264Y-99045598D01*
X174445548Y-98813116D01*
X174516862Y-98680619D01*
X174581517Y-98545358D01*
X174643928Y-98395210D01*
X174708514Y-98218054D01*
X174779691Y-98001769D01*
X174861876Y-97734234D01*
X174959487Y-97403326D01*
X174960284Y-97400589D01*
X174972963Y-97333704D01*
X174992213Y-97202437D01*
X175016290Y-97020115D01*
X175043448Y-96800066D01*
X175071942Y-96555618D01*
X175078000Y-96501820D01*
X175099483Y-96304855D01*
X175117156Y-96127030D01*
X175131320Y-95958241D01*
X175142278Y-95788381D01*
X175150333Y-95607347D01*
X175155788Y-95405031D01*
X175158944Y-95171329D01*
X175160106Y-94896135D01*
X175159574Y-94569343D01*
X175157652Y-94180849D01*
X175155872Y-93901077D01*
X175152394Y-93512536D01*
X175147319Y-93130647D01*
X175140907Y-92766180D01*
X175133415Y-92429905D01*
X175125101Y-92132594D01*
X175116222Y-91885017D01*
X175107037Y-91697943D01*
X175101129Y-91615077D01*
X175080866Y-91375389D01*
X175058208Y-91094478D01*
X175036068Y-90809094D01*
X175019046Y-90579539D01*
X175005421Y-90400860D01*
X174990317Y-90228394D01*
X174972388Y-90051431D01*
X174950290Y-89859259D01*
X174922680Y-89641168D01*
X174888211Y-89386448D01*
X174845540Y-89084387D01*
X174793323Y-88724275D01*
X174744369Y-88391231D01*
X174719452Y-88221682D01*
X174690611Y-88024425D01*
X174670057Y-87883231D01*
X174642005Y-87696219D01*
X174610584Y-87495853D01*
X174589250Y-87365462D01*
X174559368Y-87186471D01*
X174527812Y-86995327D01*
X174511672Y-86896539D01*
X174469328Y-86637610D01*
X174426672Y-86380113D01*
X174385996Y-86137570D01*
X174349593Y-85923500D01*
X174319755Y-85751427D01*
X174298774Y-85634870D01*
X174291395Y-85597231D01*
X174269303Y-85495787D01*
X174240673Y-85366016D01*
X174233438Y-85333462D01*
X174199892Y-85182712D01*
X174164049Y-85021524D01*
X174157384Y-84991539D01*
X174122169Y-84833070D01*
X174085412Y-84667665D01*
X174079231Y-84639846D01*
X174045693Y-84485205D01*
X174012503Y-84326649D01*
X174006665Y-84297923D01*
X173980536Y-84178157D01*
X173942475Y-84015302D01*
X173900120Y-83841933D01*
X173894422Y-83819231D01*
X173848124Y-83624411D01*
X173802397Y-83413952D01*
X173767126Y-83233358D01*
X173767076Y-83233077D01*
X173737334Y-83077151D01*
X173707026Y-82936602D01*
X173683934Y-82846246D01*
X173658704Y-82721797D01*
X173649384Y-82602015D01*
X173640321Y-82513942D01*
X173618158Y-82471713D01*
X173614743Y-82471077D01*
X173583853Y-82437412D01*
X173561698Y-82363616D01*
X173542628Y-82275395D01*
X173508674Y-82138432D01*
X173466437Y-81979122D01*
X173456645Y-81943539D01*
X173343917Y-81535017D01*
X173251566Y-81196200D01*
X173219538Y-81076425D01*
X173219538Y-80536769D01*
X173229738Y-80504555D01*
X173238417Y-80394701D01*
X173245562Y-80207706D01*
X173251165Y-79944069D01*
X173255214Y-79604289D01*
X173257699Y-79188865D01*
X173258611Y-78698296D01*
X173258615Y-78657827D01*
X173258488Y-78221233D01*
X173257921Y-77855336D01*
X173256630Y-77552678D01*
X173254335Y-77305804D01*
X173250754Y-77107255D01*
X173245606Y-76949576D01*
X173238609Y-76825309D01*
X173229481Y-76726996D01*
X173217940Y-76647182D01*
X173203707Y-76578410D01*
X173186497Y-76513222D01*
X173176319Y-76478399D01*
X173075169Y-76207173D01*
X172953702Y-75989609D01*
X172819033Y-75827179D01*
X172678275Y-75721352D01*
X172538543Y-75673600D01*
X172406953Y-75685393D01*
X172290619Y-75758203D01*
X172196656Y-75893499D01*
X172132178Y-76092753D01*
X172109403Y-76257846D01*
X172092025Y-76412206D01*
X172067360Y-76560929D01*
X172054294Y-76619308D01*
X172036526Y-76711939D01*
X172038854Y-76762612D01*
X172043726Y-76765846D01*
X172062528Y-76801419D01*
X172087987Y-76895804D01*
X172115323Y-77030501D01*
X172121898Y-77068358D01*
X172158517Y-77243218D01*
X172213627Y-77455947D01*
X172277811Y-77671412D01*
X172307859Y-77761973D01*
X172440880Y-78149887D01*
X172551497Y-78479292D01*
X172644546Y-78764931D01*
X172724862Y-79021549D01*
X172769355Y-79169077D01*
X172819371Y-79335792D01*
X172864622Y-79483909D01*
X172898038Y-79590393D01*
X172907286Y-79618462D01*
X172934527Y-79703051D01*
X172975485Y-79835762D01*
X173021880Y-79989723D01*
X173027682Y-80009231D01*
X173073101Y-80153273D01*
X173114391Y-80268685D01*
X173143844Y-80334237D01*
X173147578Y-80339431D01*
X173176617Y-80408421D01*
X173180461Y-80444586D01*
X173200365Y-80516110D01*
X173219538Y-80536769D01*
X173219538Y-81076425D01*
X173178174Y-80921735D01*
X173122326Y-80706274D01*
X173082604Y-80544465D01*
X173062807Y-80456354D01*
X173031616Y-80328783D01*
X172997715Y-80217860D01*
X172991943Y-80202354D01*
X172965245Y-80126304D01*
X172922412Y-79995633D01*
X172869968Y-79830517D01*
X172828377Y-79696616D01*
X172773898Y-79521320D01*
X172725117Y-79367696D01*
X172688189Y-79254940D01*
X172671748Y-79208154D01*
X172646219Y-79133840D01*
X172606782Y-79009429D01*
X172561320Y-78859879D01*
X172554499Y-78836923D01*
X172495397Y-78642359D01*
X172428109Y-78428128D01*
X172374691Y-78263418D01*
X172329499Y-78119347D01*
X172296430Y-77999053D01*
X172281888Y-77926086D01*
X172281692Y-77921495D01*
X172261456Y-77867671D01*
X172242615Y-77860000D01*
X172210937Y-77827248D01*
X172203538Y-77781316D01*
X172184700Y-77678967D01*
X172166093Y-77634778D01*
X172138049Y-77570692D01*
X172092073Y-77451574D01*
X172035332Y-77296408D01*
X171992925Y-77176154D01*
X171930787Y-76997292D01*
X171873114Y-76831354D01*
X171827954Y-76701497D01*
X171809544Y-76648616D01*
X171678285Y-76285830D01*
X171557353Y-75981804D01*
X171499169Y-75847539D01*
X171434999Y-75701241D01*
X171355184Y-75515545D01*
X171273816Y-75323325D01*
X171247910Y-75261385D01*
X171170953Y-75077073D01*
X171107261Y-74926394D01*
X171050139Y-74794820D01*
X170992893Y-74667824D01*
X170928827Y-74530876D01*
X170851249Y-74369450D01*
X170753463Y-74169019D01*
X170628775Y-73915053D01*
X170608670Y-73874154D01*
X170497481Y-73650202D01*
X170396526Y-73451081D01*
X170311224Y-73287138D01*
X170246994Y-73168721D01*
X170209255Y-73106176D01*
X170202809Y-73099128D01*
X170171625Y-73055391D01*
X170171538Y-73052879D01*
X170150881Y-72999592D01*
X170092643Y-72890852D01*
X170002428Y-72736349D01*
X169885837Y-72545770D01*
X169793768Y-72399601D01*
X169725226Y-72286452D01*
X169678049Y-72198077D01*
X169663538Y-72158627D01*
X169638009Y-72111163D01*
X169634231Y-72109180D01*
X169596849Y-72071632D01*
X169534518Y-71990646D01*
X169496648Y-71936573D01*
X169414739Y-71822280D01*
X169335923Y-71722306D01*
X169311033Y-71693976D01*
X169253359Y-71616909D01*
X169230607Y-71560480D01*
X169221228Y-71533499D01*
X169208711Y-71556151D01*
X169220226Y-71606645D01*
X169266053Y-71707185D01*
X169338406Y-71841968D01*
X169407180Y-71958955D01*
X169496565Y-72109998D01*
X169568104Y-72239111D01*
X169613187Y-72330240D01*
X169624461Y-72364143D01*
X169649319Y-72436233D01*
X169660152Y-72449800D01*
X169702221Y-72509095D01*
X169769080Y-72620213D01*
X169850597Y-72765061D01*
X169936641Y-72925545D01*
X170017079Y-73083571D01*
X170031052Y-73112154D01*
X170123800Y-73306025D01*
X170231094Y-73534498D01*
X170344169Y-73778484D01*
X170454257Y-74018900D01*
X170552594Y-74236658D01*
X170630412Y-74412673D01*
X170659218Y-74479846D01*
X170701213Y-74579388D01*
X170759379Y-74717122D01*
X170807729Y-74831539D01*
X170871866Y-74989457D01*
X170932836Y-75149661D01*
X170965354Y-75241846D01*
X171004894Y-75353284D01*
X171064503Y-75512512D01*
X171134861Y-75694904D01*
X171182467Y-75815530D01*
X171259166Y-76013825D01*
X171334693Y-76219127D01*
X171397814Y-76400476D01*
X171423497Y-76479838D01*
X171469388Y-76624838D01*
X171510416Y-76748681D01*
X171537663Y-76824462D01*
X171567502Y-76909860D01*
X171604643Y-77031244D01*
X171618035Y-77078462D01*
X171665733Y-77229310D01*
X171722524Y-77381135D01*
X171734989Y-77410616D01*
X171773414Y-77509737D01*
X171826889Y-77662563D01*
X171888204Y-77847884D01*
X171947497Y-78035846D01*
X172005716Y-78224721D01*
X172058213Y-78394191D01*
X172099297Y-78525939D01*
X172123277Y-78601648D01*
X172123542Y-78602462D01*
X172155397Y-78705109D01*
X172193033Y-78832747D01*
X172199816Y-78856462D01*
X172229567Y-78960120D01*
X172274332Y-79114849D01*
X172327173Y-79296711D01*
X172364008Y-79423077D01*
X172417011Y-79606784D01*
X172464957Y-79776797D01*
X172501506Y-79910429D01*
X172516908Y-79970154D01*
X172550766Y-80103018D01*
X172589768Y-80247109D01*
X172594307Y-80263231D01*
X172632844Y-80404137D01*
X172668543Y-80542042D01*
X172672065Y-80556308D01*
X172696312Y-80653030D01*
X172734153Y-80801370D01*
X172779448Y-80977327D01*
X172807043Y-81083846D01*
X172855137Y-81273891D01*
X172899925Y-81459415D01*
X172934711Y-81612306D01*
X172946706Y-81670000D01*
X172979488Y-81830021D01*
X173015444Y-81994576D01*
X173026189Y-82041231D01*
X173060971Y-82192039D01*
X173095026Y-82343840D01*
X173101497Y-82373385D01*
X173136748Y-82521886D01*
X173176987Y-82673818D01*
X173180461Y-82686000D01*
X173219564Y-82834401D01*
X173254506Y-82986273D01*
X173257040Y-82998616D01*
X173277078Y-83096570D01*
X173308852Y-83250592D01*
X173348136Y-83440246D01*
X173390703Y-83645093D01*
X173394415Y-83662923D01*
X173438610Y-83880511D01*
X173480642Y-84096871D01*
X173515746Y-84286899D01*
X173539068Y-84424923D01*
X173609732Y-84879852D01*
X173675576Y-85288528D01*
X173741727Y-85682219D01*
X173801787Y-86027077D01*
X173854038Y-86324885D01*
X173894759Y-86562469D01*
X173926561Y-86756470D01*
X173952056Y-86923530D01*
X173973855Y-87080289D01*
X173994570Y-87243387D01*
X174001089Y-87297077D01*
X174025485Y-87494834D01*
X174051749Y-87700173D01*
X174074919Y-87874444D01*
X174078829Y-87902769D01*
X174095732Y-88041338D01*
X174115883Y-88232954D01*
X174136800Y-88452722D01*
X174156004Y-88675744D01*
X174156695Y-88684308D01*
X174177211Y-88934676D01*
X174200311Y-89209599D01*
X174222944Y-89473119D01*
X174239534Y-89661231D01*
X174261320Y-89954500D01*
X174280297Y-90309360D01*
X174296126Y-90709289D01*
X174308469Y-91137763D01*
X174316986Y-91578261D01*
X174321339Y-92014257D01*
X174321189Y-92429230D01*
X174316196Y-92806657D01*
X174309129Y-93053542D01*
X174280207Y-93629065D01*
X174238289Y-94163281D01*
X174184389Y-94647094D01*
X174119519Y-95071404D01*
X174045199Y-95425077D01*
X173994130Y-95626091D01*
X173950144Y-95782992D01*
X173904983Y-95917606D01*
X173850390Y-96051757D01*
X173778105Y-96207271D01*
X173679870Y-96405973D01*
X173656095Y-96453390D01*
X173490446Y-96728560D01*
X173301768Y-96944508D01*
X173097915Y-97092484D01*
X173069718Y-97106748D01*
X172959923Y-97159626D01*
X172871077Y-97202722D01*
X172858607Y-97208827D01*
X172770228Y-97228002D01*
X172770228Y-97108427D01*
X172883585Y-97086910D01*
X173022261Y-97026850D01*
X173164986Y-96931039D01*
X173292250Y-96816711D01*
X173384543Y-96701101D01*
X173421359Y-96611852D01*
X173398758Y-96524939D01*
X173321282Y-96455166D01*
X173212170Y-96422120D01*
X173195533Y-96421539D01*
X173146464Y-96398939D01*
X173141384Y-96382462D01*
X173110336Y-96346510D01*
X173090419Y-96343385D01*
X173031123Y-96323616D01*
X172932332Y-96272704D01*
X172852999Y-96225138D01*
X172732532Y-96152481D01*
X172570678Y-96059824D01*
X172395461Y-95963088D01*
X172327579Y-95926642D01*
X172146466Y-95828964D01*
X171959134Y-95725704D01*
X171797794Y-95634680D01*
X171754154Y-95609434D01*
X171591240Y-95515528D01*
X171415657Y-95416211D01*
X171304769Y-95354651D01*
X171155136Y-95268862D01*
X171003927Y-95176334D01*
X170926497Y-95125797D01*
X170823219Y-95061530D01*
X170742008Y-95021445D01*
X170716187Y-95014769D01*
X170654753Y-94995505D01*
X170561553Y-94947770D01*
X170537612Y-94933429D01*
X170460670Y-94893001D01*
X170420032Y-94891148D01*
X170417423Y-94931768D01*
X170454568Y-95018759D01*
X170533193Y-95156021D01*
X170655024Y-95347450D01*
X170821786Y-95596947D01*
X170849101Y-95637151D01*
X171138515Y-96031984D01*
X171429249Y-96369762D01*
X171717517Y-96647789D01*
X171999535Y-96863367D01*
X172271517Y-97013797D01*
X172529676Y-97096383D01*
X172770228Y-97108427D01*
X172770228Y-97228002D01*
X172709285Y-97241226D01*
X172520966Y-97217204D01*
X172303374Y-97141451D01*
X172066231Y-97018656D01*
X171819260Y-96853510D01*
X171572184Y-96650701D01*
X171439145Y-96524175D01*
X171326968Y-96404888D01*
X171197796Y-96256641D01*
X171061201Y-96091763D01*
X170926752Y-95922583D01*
X170804020Y-95761428D01*
X170702577Y-95620627D01*
X170631992Y-95512508D01*
X170601836Y-95449398D01*
X170601384Y-95445047D01*
X170578431Y-95406694D01*
X170571194Y-95405539D01*
X170536300Y-95374054D01*
X170484937Y-95295103D01*
X170465370Y-95259000D01*
X170363180Y-95077060D01*
X170270827Y-94953144D01*
X170174498Y-94870784D01*
X170109478Y-94834670D01*
X170004440Y-94791738D01*
X169958460Y-94794960D01*
X169965154Y-94847761D01*
X169989050Y-94899323D01*
X170037514Y-95003612D01*
X170088049Y-95125457D01*
X170090574Y-95132000D01*
X170142084Y-95253083D01*
X170223223Y-95428054D01*
X170327129Y-95643432D01*
X170446940Y-95885739D01*
X170575794Y-96141497D01*
X170706828Y-96397225D01*
X170833181Y-96639445D01*
X170947991Y-96854679D01*
X171044396Y-97029446D01*
X171115534Y-97150269D01*
X171127562Y-97168953D01*
X171186601Y-97261591D01*
X171222044Y-97323813D01*
X171226615Y-97335893D01*
X171247360Y-97373386D01*
X171303161Y-97460195D01*
X171384366Y-97581536D01*
X171441538Y-97665157D01*
X171533915Y-97803441D01*
X171606399Y-97919904D01*
X171649157Y-97998313D01*
X171656461Y-98019965D01*
X171677806Y-98060934D01*
X171686487Y-98062769D01*
X171726782Y-98092385D01*
X171774410Y-98155993D01*
X171829717Y-98232211D01*
X171923048Y-98348336D01*
X172039449Y-98486819D01*
X172163969Y-98630108D01*
X172281653Y-98760652D01*
X172359846Y-98843118D01*
X172496641Y-98967070D01*
X172670766Y-99103702D01*
X172856270Y-99234339D01*
X173027207Y-99340309D01*
X173111651Y-99384130D01*
X173366465Y-99463015D01*
X173617384Y-99466185D01*
X173617384Y-99555045D01*
X173459786Y-99564767D01*
X173336833Y-99545581D01*
X173179648Y-99498569D01*
X173002835Y-99429486D01*
X172893276Y-99377849D01*
X172685213Y-99243948D01*
X172452345Y-99048911D01*
X172203193Y-98802295D01*
X171946277Y-98513656D01*
X171690122Y-98192551D01*
X171443247Y-97848536D01*
X171221173Y-97502763D01*
X171133170Y-97357335D01*
X171057757Y-97232858D01*
X171005998Y-97147590D01*
X170992177Y-97124923D01*
X170902081Y-96970529D01*
X170787033Y-96762338D01*
X170655709Y-96517102D01*
X170516785Y-96251571D01*
X170378938Y-95982499D01*
X170250842Y-95726637D01*
X170141176Y-95500737D01*
X170061187Y-95327385D01*
X170000885Y-95190916D01*
X169928471Y-95026972D01*
X169881914Y-94921534D01*
X169825433Y-94785218D01*
X169781916Y-94664891D01*
X169763574Y-94598901D01*
X169732939Y-94511269D01*
X169666111Y-94437012D01*
X169546304Y-94359077D01*
X169505448Y-94336666D01*
X169347280Y-94250673D01*
X169168636Y-94151802D01*
X168996350Y-94055047D01*
X168857253Y-93975402D01*
X168823384Y-93955534D01*
X168716104Y-93892831D01*
X168573647Y-93810692D01*
X168415918Y-93720459D01*
X168262818Y-93633472D01*
X168134250Y-93561073D01*
X168050118Y-93514603D01*
X168041846Y-93510192D01*
X168017991Y-93494203D01*
X167999402Y-93468285D01*
X167985295Y-93423181D01*
X167974886Y-93349634D01*
X167967391Y-93238386D01*
X167962027Y-93080181D01*
X167958009Y-92865762D01*
X167954555Y-92585871D01*
X167953263Y-92463920D01*
X167942834Y-91458874D01*
X168109571Y-91523623D01*
G37*
X168109571Y-91523623D02*
X168218909Y-91568572D01*
X168298439Y-91605729D01*
X168315384Y-91615586D01*
X168366629Y-91646063D01*
X168467194Y-91702293D01*
X168597404Y-91773311D01*
X168628000Y-91789790D01*
X168769495Y-91869082D01*
X168892182Y-91943613D01*
X168972542Y-91998996D01*
X168979692Y-92004938D01*
X169056058Y-92057053D01*
X169176093Y-92124068D01*
X169292307Y-92181289D01*
X169436926Y-92252665D01*
X169616061Y-92347677D01*
X169797585Y-92449137D01*
X169850352Y-92479819D01*
X169990979Y-92561529D01*
X170104645Y-92625680D01*
X170175805Y-92663599D01*
X170191517Y-92670154D01*
X170231180Y-92689391D01*
X170316939Y-92739489D01*
X170415010Y-92800083D01*
X170542961Y-92877692D01*
X170711630Y-92975752D01*
X170892766Y-93077956D01*
X170972615Y-93121937D01*
X171129557Y-93208121D01*
X171267541Y-93284868D01*
X171367611Y-93341585D01*
X171402461Y-93362145D01*
X171499566Y-93418330D01*
X171578307Y-93460563D01*
X171745262Y-93549535D01*
X171951391Y-93664175D01*
X172169442Y-93788972D01*
X172372165Y-93908415D01*
X172474397Y-93970619D01*
X172628072Y-94061929D01*
X172784659Y-94148900D01*
X172904243Y-94209764D01*
X173013413Y-94265150D01*
X173166349Y-94348277D01*
X173339961Y-94446405D01*
X173461597Y-94517297D01*
X173616550Y-94607001D01*
X173748023Y-94679587D01*
X173840879Y-94726921D01*
X173878417Y-94741231D01*
X173925097Y-94771987D01*
X173934520Y-94790077D01*
X173962171Y-94815605D01*
X174010175Y-94780308D01*
X174050200Y-94702351D01*
X174089361Y-94556425D01*
X174125807Y-94352709D01*
X174157685Y-94101383D01*
X174181089Y-93840886D01*
X174191071Y-93665202D01*
X174187875Y-93540841D01*
X174168597Y-93441650D01*
X174130337Y-93341477D01*
X174124141Y-93327729D01*
X174065455Y-93219181D01*
X174007471Y-93143524D01*
X173982663Y-93125377D01*
X173930205Y-93084867D01*
X173922923Y-93063485D01*
X173900718Y-93018739D01*
X173840209Y-92925410D01*
X173750553Y-92797004D01*
X173640909Y-92647029D01*
X173637290Y-92642182D01*
X173523343Y-92488912D01*
X173424537Y-92354626D01*
X173351491Y-92253849D01*
X173314905Y-92201231D01*
X173307913Y-92151982D01*
X173300831Y-92029684D01*
X173293765Y-91839439D01*
X173286821Y-91586352D01*
X173280106Y-91275527D01*
X173273726Y-90912066D01*
X173267787Y-90501074D01*
X173262396Y-90047655D01*
X173257660Y-89556912D01*
X173256259Y-89387693D01*
X173251943Y-88855403D01*
X173247931Y-88395461D01*
X173244030Y-88002063D01*
X173240047Y-87669404D01*
X173235787Y-87391679D01*
X173231058Y-87163084D01*
X173225665Y-86977815D01*
X173219415Y-86830067D01*
X173212115Y-86714035D01*
X173203571Y-86623916D01*
X173193589Y-86553905D01*
X173181976Y-86498197D01*
X173168538Y-86450989D01*
X173157209Y-86417846D01*
X173035442Y-86127704D01*
X172903865Y-85912226D01*
X172759232Y-85768200D01*
X172598294Y-85692413D01*
X172417807Y-85681651D01*
X172413751Y-85682103D01*
X172330853Y-85709518D01*
X172259509Y-85781686D01*
X172204594Y-85870769D01*
X172107284Y-86046616D01*
X172083620Y-88371693D01*
X172078594Y-88857248D01*
X172073985Y-89271260D01*
X172069517Y-89620338D01*
X172064911Y-89911089D01*
X172059890Y-90150122D01*
X172054175Y-90344044D01*
X172047489Y-90499464D01*
X172039554Y-90622990D01*
X172030093Y-90721229D01*
X172018826Y-90800790D01*
X172005477Y-90868281D01*
X171989768Y-90930309D01*
X171973702Y-90985853D01*
X171845172Y-91327539D01*
X171684520Y-91598238D01*
X171491417Y-91798360D01*
X171265531Y-91928313D01*
X171189664Y-91954162D01*
X170924351Y-91992248D01*
X170636020Y-91962989D01*
X170332613Y-91870802D01*
X170022067Y-91720103D01*
X169712323Y-91515309D01*
X169411319Y-91260836D01*
X169126996Y-90961101D01*
X168914697Y-90688624D01*
X168607867Y-90206422D01*
X168363958Y-89706356D01*
X168176953Y-89173615D01*
X168040831Y-88593390D01*
X168023442Y-88495576D01*
X168009199Y-88409044D01*
X167996767Y-88323695D01*
X167986025Y-88233810D01*
X167976848Y-88133666D01*
X167969115Y-88017542D01*
X167962703Y-87879717D01*
X167957488Y-87714470D01*
X167953349Y-87516079D01*
X167950161Y-87278823D01*
X167947803Y-86996981D01*
X167946151Y-86664832D01*
X167945083Y-86276655D01*
X167944477Y-85826727D01*
X167944208Y-85309329D01*
X167944154Y-84801582D01*
X167944452Y-84183105D01*
X167945379Y-83639487D01*
X167946978Y-83167437D01*
X167949296Y-82763663D01*
X167952377Y-82424874D01*
X167956268Y-82147776D01*
X167961014Y-81929079D01*
X167966659Y-81765490D01*
X167973250Y-81653717D01*
X167980832Y-81590469D01*
X167988692Y-81572308D01*
X168007941Y-81572927D01*
X168027320Y-81580864D01*
X168054787Y-81605242D01*
X168098301Y-81655182D01*
X168165820Y-81739806D01*
X168265302Y-81868236D01*
X168401757Y-82045755D01*
X168605331Y-82311092D01*
X168766003Y-82521447D01*
X168888837Y-82683541D01*
X168978900Y-82804092D01*
X169041256Y-82889820D01*
X169077384Y-82942018D01*
X169127711Y-83012650D01*
X169211124Y-83124646D01*
X169312529Y-83257836D01*
X169350923Y-83307592D01*
X169453830Y-83443092D01*
X169542539Y-83564685D01*
X169602595Y-83652386D01*
X169614692Y-83672301D01*
X169624985Y-83708109D01*
X169633848Y-83779194D01*
X169641364Y-83890194D01*
X169647622Y-84045746D01*
X169652705Y-84250490D01*
X169656701Y-84509064D01*
X169659694Y-84826105D01*
X169661771Y-85206253D01*
X169663017Y-85654145D01*
X169663519Y-86174421D01*
X169663538Y-86312663D01*
X169663592Y-86849232D01*
X169664064Y-87313275D01*
X169665420Y-87710417D01*
X169668126Y-88046288D01*
X169672647Y-88326512D01*
X169679449Y-88556718D01*
X169688997Y-88742533D01*
X169701758Y-88889583D01*
X169718196Y-89003496D01*
X169738778Y-89089898D01*
X169763969Y-89154417D01*
X169794235Y-89202680D01*
X169830041Y-89240314D01*
X169871854Y-89272945D01*
X169910731Y-89299769D01*
X170041168Y-89366431D01*
X170158098Y-89386919D01*
X170243911Y-89360766D01*
X170277446Y-89309539D01*
X170308376Y-89246190D01*
X170332403Y-89231385D01*
X170339352Y-89193421D01*
X170345790Y-89083983D01*
X170351601Y-88909747D01*
X170356669Y-88677392D01*
X170360878Y-88393595D01*
X170364111Y-88065035D01*
X170366254Y-87698388D01*
X170367189Y-87300334D01*
X170367219Y-87228693D01*
X170367982Y-86828512D01*
X170370056Y-86442593D01*
X170373303Y-86079844D01*
X170377582Y-85749172D01*
X170382755Y-85459485D01*
X170388682Y-85219693D01*
X170395223Y-85038701D01*
X170402239Y-84925420D01*
X170403486Y-84913385D01*
X170473233Y-84542820D01*
X170589443Y-84217371D01*
X170747668Y-83942261D01*
X170943462Y-83722711D01*
X171172379Y-83563944D01*
X171429972Y-83471181D01*
X171651288Y-83448000D01*
X171802934Y-83463532D01*
X171990204Y-83505804D01*
X172196382Y-83568334D01*
X172404755Y-83644639D01*
X172598606Y-83728234D01*
X172761221Y-83812637D01*
X172875885Y-83891365D01*
X172918634Y-83939565D01*
X172970590Y-83988772D01*
X172994927Y-83995077D01*
X173049004Y-84020336D01*
X173129990Y-84083553D01*
X173159300Y-84110736D01*
X173244416Y-84184749D01*
X173302768Y-84211489D01*
X173335668Y-84185680D01*
X173344427Y-84102047D01*
X173330357Y-83955316D01*
X173294770Y-83740211D01*
X173276146Y-83640845D01*
X173219889Y-83347334D01*
X173175792Y-83118652D01*
X173141487Y-82942837D01*
X173114604Y-82807926D01*
X173092773Y-82701957D01*
X173073624Y-82612969D01*
X173063792Y-82568769D01*
X173031620Y-82425685D01*
X172996311Y-82268797D01*
X172989063Y-82236616D01*
X172955871Y-82097073D01*
X172913429Y-81928695D01*
X172886520Y-81826308D01*
X172860049Y-81725857D01*
X172817543Y-81562338D01*
X172762269Y-81348415D01*
X172697491Y-81096754D01*
X172626476Y-80820020D01*
X172553995Y-80536769D01*
X172459914Y-80170768D01*
X172382156Y-79873905D01*
X172318651Y-79639358D01*
X172267328Y-79460307D01*
X172226114Y-79329931D01*
X172192939Y-79241410D01*
X172165731Y-79187923D01*
X172142419Y-79162649D01*
X172135728Y-79159499D01*
X172122165Y-79192729D01*
X172108414Y-79295509D01*
X172095177Y-79459240D01*
X172083159Y-79675325D01*
X172073547Y-79920132D01*
X172066769Y-80095572D01*
X172066769Y-79071385D01*
X172086307Y-79051846D01*
X172066769Y-79032308D01*
X172047231Y-79051846D01*
X172066769Y-79071385D01*
X172066769Y-80095572D01*
X172061846Y-80222998D01*
X172047955Y-80462199D01*
X172030426Y-80652221D01*
X172007815Y-80807549D01*
X171978675Y-80942669D01*
X171967141Y-80986154D01*
X171844448Y-81326553D01*
X171685091Y-81598389D01*
X171491106Y-81800747D01*
X171264529Y-81932714D01*
X171007398Y-81993379D01*
X170721748Y-81981826D01*
X170409616Y-81897143D01*
X170171538Y-81791354D01*
X169895670Y-81640259D01*
X169668544Y-81489390D01*
X169465753Y-81319345D01*
X169262892Y-81110725D01*
X169144499Y-80974931D01*
X168898705Y-80657711D01*
X168670137Y-80310301D01*
X168469833Y-79952408D01*
X168308830Y-79603742D01*
X168198796Y-79286308D01*
X168155312Y-79128369D01*
X168117111Y-78986696D01*
X168083853Y-78855322D01*
X168055196Y-78728277D01*
X168030795Y-78599596D01*
X168010310Y-78463309D01*
X167993398Y-78313449D01*
X167979717Y-78144048D01*
X167968923Y-77949139D01*
X167960676Y-77722753D01*
X167954631Y-77458923D01*
X167950448Y-77151680D01*
X167947784Y-76795058D01*
X167946296Y-76383088D01*
X167945641Y-75909803D01*
X167945479Y-75369234D01*
X167945472Y-74870616D01*
X167945810Y-74373340D01*
X167946825Y-73898194D01*
X167948464Y-73451033D01*
X167950673Y-73037713D01*
X167953400Y-72664088D01*
X167956589Y-72336015D01*
X167960189Y-72059348D01*
X167964145Y-71839942D01*
X167968403Y-71683653D01*
X167972911Y-71596336D01*
X167975562Y-71579685D01*
X167996535Y-71565846D01*
X168030648Y-71580926D01*
X168084241Y-71631847D01*
X168163654Y-71725530D01*
X168275227Y-71868898D01*
X168425300Y-72068873D01*
X168432615Y-72078715D01*
X168519832Y-72193999D01*
X168630101Y-72336950D01*
X168725993Y-72459396D01*
X168840077Y-72606078D01*
X168958042Y-72761357D01*
X169038608Y-72870130D01*
X169140333Y-73007110D01*
X169260004Y-73164008D01*
X169341154Y-73268033D01*
X169424650Y-73378519D01*
X169484286Y-73466719D01*
X169507229Y-73513643D01*
X169507231Y-73513770D01*
X169533448Y-73564083D01*
X169585384Y-73620154D01*
X169600880Y-73635882D01*
X169614179Y-73656732D01*
X169625450Y-73688405D01*
X169634861Y-73736599D01*
X169642579Y-73807016D01*
X169648772Y-73905356D01*
X169653607Y-74037319D01*
X169657253Y-74208605D01*
X169659877Y-74424914D01*
X169661647Y-74691946D01*
X169662730Y-75015403D01*
X169663294Y-75400983D01*
X169663508Y-75854387D01*
X169663538Y-76276480D01*
X169663614Y-76819467D01*
X169664144Y-77289832D01*
X169665583Y-77693108D01*
X169668386Y-78034827D01*
X169673006Y-78320522D01*
X169679898Y-78555724D01*
X169689517Y-78745966D01*
X169702317Y-78896780D01*
X169718753Y-79013698D01*
X169739278Y-79102254D01*
X169764348Y-79167978D01*
X169794416Y-79216404D01*
X169829937Y-79253064D01*
X169871366Y-79283489D01*
X169912649Y-79309243D01*
X170064173Y-79373311D01*
X170195814Y-79373954D01*
X170295036Y-79311558D01*
X170306092Y-79297152D01*
X170319624Y-79270244D01*
X170331027Y-79227188D01*
X170340477Y-79161716D01*
X170348150Y-79067559D01*
X170354223Y-78938448D01*
X170358871Y-78768113D01*
X170362272Y-78550286D01*
X170364601Y-78278698D01*
X170366034Y-77947080D01*
X170366749Y-77549164D01*
X170366923Y-77133716D01*
X170367581Y-76613374D01*
X170369607Y-76167419D01*
X170373077Y-75792094D01*
X170378071Y-75483643D01*
X170384664Y-75238309D01*
X170392935Y-75052335D01*
X170402961Y-74921966D01*
X170414082Y-74846642D01*
X170452311Y-74640300D01*
X170462319Y-74463506D01*
X170440634Y-74294273D01*
X170383782Y-74110614D01*
X170288291Y-73890542D01*
X170250723Y-73812354D01*
X170081448Y-73465964D01*
X169942153Y-73182507D01*
X169829014Y-72954448D01*
X169738206Y-72774256D01*
X169665903Y-72634397D01*
X169608283Y-72527338D01*
X169561518Y-72445547D01*
X169533500Y-72399777D01*
X169473451Y-72301194D01*
X169435697Y-72232428D01*
X169429077Y-72215214D01*
X169407422Y-72162498D01*
X169347636Y-72058285D01*
X169257484Y-71914334D01*
X169145992Y-71744325D01*
X169145992Y-71567480D01*
X169152405Y-71529539D01*
X169130447Y-71463350D01*
X169072397Y-71375060D01*
X169057798Y-71357384D01*
X168996599Y-71294620D01*
X168962611Y-71276072D01*
X168960154Y-71281631D01*
X168984446Y-71335909D01*
X169032389Y-71396953D01*
X169095651Y-71476597D01*
X169126996Y-71531321D01*
X169145992Y-71567480D01*
X169145992Y-71744325D01*
X169144734Y-71742406D01*
X169017150Y-71554260D01*
X168882500Y-71361656D01*
X168748550Y-71176353D01*
X168698820Y-71109462D01*
X168556259Y-70914500D01*
X168456720Y-70767434D01*
X168402515Y-70671977D01*
X168395960Y-70631836D01*
X168400274Y-70630769D01*
X168483946Y-70661960D01*
X168603596Y-70750104D01*
X168751946Y-70887063D01*
X168921721Y-71064699D01*
X169105645Y-71274870D01*
X169296440Y-71509440D01*
X169486832Y-71760267D01*
X169669543Y-72019213D01*
X169750542Y-72141172D01*
X169885937Y-72351365D01*
X169996352Y-72528450D01*
X170097749Y-72699193D01*
X170206096Y-72890356D01*
X170312269Y-73082846D01*
X170455133Y-73341430D01*
X170566625Y-73537466D01*
X170651125Y-73677902D01*
X170713017Y-73769683D01*
X170756681Y-73819759D01*
X170786500Y-73835076D01*
X170786722Y-73835077D01*
X170845639Y-73807301D01*
X170921297Y-73738846D01*
X170935537Y-73722598D01*
X171025444Y-73644841D01*
X171155353Y-73565227D01*
X171247918Y-73521746D01*
X171512360Y-73455465D01*
X171802857Y-73456406D01*
X172112596Y-73520884D01*
X172434762Y-73645217D01*
X172762540Y-73825719D01*
X173089117Y-74058708D01*
X173407678Y-74340499D01*
X173711408Y-74667409D01*
X173959847Y-74987846D01*
X174076910Y-75160007D01*
X174184809Y-75337081D01*
X174292300Y-75535387D01*
X174408139Y-75771241D01*
X174541083Y-76060962D01*
X174567943Y-76121077D01*
X174627082Y-76268740D01*
X174690487Y-76450113D01*
X174748228Y-76634471D01*
X174790378Y-76791092D01*
X174801553Y-76844000D01*
X174827777Y-76961148D01*
X174857211Y-77056209D01*
X174858307Y-77058923D01*
X174878886Y-77116853D01*
X174897015Y-77187395D01*
X174912843Y-77275481D01*
X174926521Y-77386045D01*
X174938198Y-77524021D01*
X174948024Y-77694343D01*
X174956149Y-77901944D01*
X174962723Y-78151758D01*
X174967895Y-78448718D01*
X174971816Y-78797758D01*
X174974635Y-79203812D01*
X174976502Y-79671814D01*
X174977567Y-80206696D01*
X174977981Y-80813393D01*
X174978000Y-80999905D01*
X174977721Y-81500501D01*
X174976912Y-81978520D01*
X174975614Y-82428208D01*
X174973870Y-82843814D01*
X174971720Y-83219583D01*
X174969208Y-83549762D01*
X174966374Y-83828599D01*
X174963260Y-84050339D01*
X174959908Y-84209231D01*
X174956360Y-84299520D01*
X174953930Y-84318737D01*
X174919160Y-84302567D01*
X174848943Y-84234204D01*
X174753171Y-84125111D01*
X174641737Y-83986755D01*
X174524533Y-83830598D01*
X174485006Y-83775316D01*
X174406340Y-83668589D01*
X174298165Y-83527930D01*
X174180781Y-83379634D01*
X174151922Y-83343888D01*
X174050499Y-83213231D01*
X173968850Y-83097561D01*
X173919810Y-83015489D01*
X173912224Y-82996330D01*
X173899925Y-82983212D01*
X173890757Y-83036437D01*
X173888379Y-83083412D01*
X173895103Y-83186754D01*
X173916793Y-83343769D01*
X173949957Y-83532186D01*
X173986383Y-83708643D01*
X174030147Y-83908412D01*
X174070775Y-84098255D01*
X174103379Y-84255077D01*
X174121430Y-84346769D01*
X174157165Y-84538365D01*
X174200926Y-84770537D01*
X174245882Y-85007133D01*
X174272830Y-85147846D01*
X174301083Y-85269786D01*
X174343918Y-85427672D01*
X174383035Y-85558154D01*
X174469736Y-85837095D01*
X174531763Y-86046491D01*
X174570297Y-86190551D01*
X174586521Y-86273481D01*
X174587231Y-86285565D01*
X174609838Y-86334619D01*
X174626307Y-86339693D01*
X174658371Y-86372318D01*
X174665384Y-86415540D01*
X174681159Y-86488864D01*
X174699956Y-86512754D01*
X174732138Y-86563472D01*
X174755355Y-86642060D01*
X174780080Y-86752172D01*
X174814063Y-86883917D01*
X174820291Y-86906308D01*
X174856552Y-87049014D01*
X174886384Y-87202259D01*
X174910854Y-87377173D01*
X174931027Y-87584882D01*
X174947969Y-87836513D01*
X174962744Y-88143194D01*
X174976419Y-88516053D01*
X174977447Y-88547539D01*
X174988300Y-88847607D01*
X175001100Y-89145312D01*
X175014998Y-89424420D01*
X175029147Y-89668694D01*
X175042697Y-89861899D01*
X175050978Y-89954308D01*
X175093635Y-90376622D01*
X175139128Y-90847591D01*
X175184668Y-91337919D01*
X175216513Y-91693231D01*
X175229473Y-91884134D01*
X175240760Y-92136889D01*
X175250337Y-92440757D01*
X175258167Y-92785000D01*
X175264212Y-93158876D01*
X175268436Y-93551648D01*
X175270801Y-93952576D01*
X175271269Y-94350921D01*
X175269805Y-94735943D01*
X175266370Y-95096903D01*
X175260927Y-95423062D01*
X175253439Y-95703680D01*
X175243869Y-95928018D01*
X175232180Y-96085338D01*
X175231745Y-96089385D01*
X175152822Y-96719732D01*
X175061045Y-97276980D01*
X174955046Y-97765334D01*
X174833458Y-98188999D01*
X174694914Y-98552182D01*
X174538045Y-98859087D01*
X174361484Y-99113920D01*
X174188082Y-99299041D01*
X173962703Y-99459375D01*
X173716565Y-99548927D01*
X173617384Y-99555045D01*
X173617384Y-99466185D01*
X173858758Y-99396059D01*
X174084935Y-99255057D01*
X174290264Y-99045598D01*
X174445548Y-98813116D01*
X174516862Y-98680619D01*
X174581517Y-98545358D01*
X174643928Y-98395210D01*
X174708514Y-98218054D01*
X174779691Y-98001769D01*
X174861876Y-97734234D01*
X174959487Y-97403326D01*
X174960284Y-97400589D01*
X174972963Y-97333704D01*
X174992213Y-97202437D01*
X175016290Y-97020115D01*
X175043448Y-96800066D01*
X175071942Y-96555618D01*
X175078000Y-96501820D01*
X175099483Y-96304855D01*
X175117156Y-96127030D01*
X175131320Y-95958241D01*
X175142278Y-95788381D01*
X175150333Y-95607347D01*
X175155788Y-95405031D01*
X175158944Y-95171329D01*
X175160106Y-94896135D01*
X175159574Y-94569343D01*
X175157652Y-94180849D01*
X175155872Y-93901077D01*
X175152394Y-93512536D01*
X175147319Y-93130647D01*
X175140907Y-92766180D01*
X175133415Y-92429905D01*
X175125101Y-92132594D01*
X175116222Y-91885017D01*
X175107037Y-91697943D01*
X175101129Y-91615077D01*
X175080866Y-91375389D01*
X175058208Y-91094478D01*
X175036068Y-90809094D01*
X175019046Y-90579539D01*
X175005421Y-90400860D01*
X174990317Y-90228394D01*
X174972388Y-90051431D01*
X174950290Y-89859259D01*
X174922680Y-89641168D01*
X174888211Y-89386448D01*
X174845540Y-89084387D01*
X174793323Y-88724275D01*
X174744369Y-88391231D01*
X174719452Y-88221682D01*
X174690611Y-88024425D01*
X174670057Y-87883231D01*
X174642005Y-87696219D01*
X174610584Y-87495853D01*
X174589250Y-87365462D01*
X174559368Y-87186471D01*
X174527812Y-86995327D01*
X174511672Y-86896539D01*
X174469328Y-86637610D01*
X174426672Y-86380113D01*
X174385996Y-86137570D01*
X174349593Y-85923500D01*
X174319755Y-85751427D01*
X174298774Y-85634870D01*
X174291395Y-85597231D01*
X174269303Y-85495787D01*
X174240673Y-85366016D01*
X174233438Y-85333462D01*
X174199892Y-85182712D01*
X174164049Y-85021524D01*
X174157384Y-84991539D01*
X174122169Y-84833070D01*
X174085412Y-84667665D01*
X174079231Y-84639846D01*
X174045693Y-84485205D01*
X174012503Y-84326649D01*
X174006665Y-84297923D01*
X173980536Y-84178157D01*
X173942475Y-84015302D01*
X173900120Y-83841933D01*
X173894422Y-83819231D01*
X173848124Y-83624411D01*
X173802397Y-83413952D01*
X173767126Y-83233358D01*
X173767076Y-83233077D01*
X173737334Y-83077151D01*
X173707026Y-82936602D01*
X173683934Y-82846246D01*
X173658704Y-82721797D01*
X173649384Y-82602015D01*
X173640321Y-82513942D01*
X173618158Y-82471713D01*
X173614743Y-82471077D01*
X173583853Y-82437412D01*
X173561698Y-82363616D01*
X173542628Y-82275395D01*
X173508674Y-82138432D01*
X173466437Y-81979122D01*
X173456645Y-81943539D01*
X173343917Y-81535017D01*
X173251566Y-81196200D01*
X173219538Y-81076425D01*
X173219538Y-80536769D01*
X173229738Y-80504555D01*
X173238417Y-80394701D01*
X173245562Y-80207706D01*
X173251165Y-79944069D01*
X173255214Y-79604289D01*
X173257699Y-79188865D01*
X173258611Y-78698296D01*
X173258615Y-78657827D01*
X173258488Y-78221233D01*
X173257921Y-77855336D01*
X173256630Y-77552678D01*
X173254335Y-77305804D01*
X173250754Y-77107255D01*
X173245606Y-76949576D01*
X173238609Y-76825309D01*
X173229481Y-76726996D01*
X173217940Y-76647182D01*
X173203707Y-76578410D01*
X173186497Y-76513222D01*
X173176319Y-76478399D01*
X173075169Y-76207173D01*
X172953702Y-75989609D01*
X172819033Y-75827179D01*
X172678275Y-75721352D01*
X172538543Y-75673600D01*
X172406953Y-75685393D01*
X172290619Y-75758203D01*
X172196656Y-75893499D01*
X172132178Y-76092753D01*
X172109403Y-76257846D01*
X172092025Y-76412206D01*
X172067360Y-76560929D01*
X172054294Y-76619308D01*
X172036526Y-76711939D01*
X172038854Y-76762612D01*
X172043726Y-76765846D01*
X172062528Y-76801419D01*
X172087987Y-76895804D01*
X172115323Y-77030501D01*
X172121898Y-77068358D01*
X172158517Y-77243218D01*
X172213627Y-77455947D01*
X172277811Y-77671412D01*
X172307859Y-77761973D01*
X172440880Y-78149887D01*
X172551497Y-78479292D01*
X172644546Y-78764931D01*
X172724862Y-79021549D01*
X172769355Y-79169077D01*
X172819371Y-79335792D01*
X172864622Y-79483909D01*
X172898038Y-79590393D01*
X172907286Y-79618462D01*
X172934527Y-79703051D01*
X172975485Y-79835762D01*
X173021880Y-79989723D01*
X173027682Y-80009231D01*
X173073101Y-80153273D01*
X173114391Y-80268685D01*
X173143844Y-80334237D01*
X173147578Y-80339431D01*
X173176617Y-80408421D01*
X173180461Y-80444586D01*
X173200365Y-80516110D01*
X173219538Y-80536769D01*
X173219538Y-81076425D01*
X173178174Y-80921735D01*
X173122326Y-80706274D01*
X173082604Y-80544465D01*
X173062807Y-80456354D01*
X173031616Y-80328783D01*
X172997715Y-80217860D01*
X172991943Y-80202354D01*
X172965245Y-80126304D01*
X172922412Y-79995633D01*
X172869968Y-79830517D01*
X172828377Y-79696616D01*
X172773898Y-79521320D01*
X172725117Y-79367696D01*
X172688189Y-79254940D01*
X172671748Y-79208154D01*
X172646219Y-79133840D01*
X172606782Y-79009429D01*
X172561320Y-78859879D01*
X172554499Y-78836923D01*
X172495397Y-78642359D01*
X172428109Y-78428128D01*
X172374691Y-78263418D01*
X172329499Y-78119347D01*
X172296430Y-77999053D01*
X172281888Y-77926086D01*
X172281692Y-77921495D01*
X172261456Y-77867671D01*
X172242615Y-77860000D01*
X172210937Y-77827248D01*
X172203538Y-77781316D01*
X172184700Y-77678967D01*
X172166093Y-77634778D01*
X172138049Y-77570692D01*
X172092073Y-77451574D01*
X172035332Y-77296408D01*
X171992925Y-77176154D01*
X171930787Y-76997292D01*
X171873114Y-76831354D01*
X171827954Y-76701497D01*
X171809544Y-76648616D01*
X171678285Y-76285830D01*
X171557353Y-75981804D01*
X171499169Y-75847539D01*
X171434999Y-75701241D01*
X171355184Y-75515545D01*
X171273816Y-75323325D01*
X171247910Y-75261385D01*
X171170953Y-75077073D01*
X171107261Y-74926394D01*
X171050139Y-74794820D01*
X170992893Y-74667824D01*
X170928827Y-74530876D01*
X170851249Y-74369450D01*
X170753463Y-74169019D01*
X170628775Y-73915053D01*
X170608670Y-73874154D01*
X170497481Y-73650202D01*
X170396526Y-73451081D01*
X170311224Y-73287138D01*
X170246994Y-73168721D01*
X170209255Y-73106176D01*
X170202809Y-73099128D01*
X170171625Y-73055391D01*
X170171538Y-73052879D01*
X170150881Y-72999592D01*
X170092643Y-72890852D01*
X170002428Y-72736349D01*
X169885837Y-72545770D01*
X169793768Y-72399601D01*
X169725226Y-72286452D01*
X169678049Y-72198077D01*
X169663538Y-72158627D01*
X169638009Y-72111163D01*
X169634231Y-72109180D01*
X169596849Y-72071632D01*
X169534518Y-71990646D01*
X169496648Y-71936573D01*
X169414739Y-71822280D01*
X169335923Y-71722306D01*
X169311033Y-71693976D01*
X169253359Y-71616909D01*
X169230607Y-71560480D01*
X169221228Y-71533499D01*
X169208711Y-71556151D01*
X169220226Y-71606645D01*
X169266053Y-71707185D01*
X169338406Y-71841968D01*
X169407180Y-71958955D01*
X169496565Y-72109998D01*
X169568104Y-72239111D01*
X169613187Y-72330240D01*
X169624461Y-72364143D01*
X169649319Y-72436233D01*
X169660152Y-72449800D01*
X169702221Y-72509095D01*
X169769080Y-72620213D01*
X169850597Y-72765061D01*
X169936641Y-72925545D01*
X170017079Y-73083571D01*
X170031052Y-73112154D01*
X170123800Y-73306025D01*
X170231094Y-73534498D01*
X170344169Y-73778484D01*
X170454257Y-74018900D01*
X170552594Y-74236658D01*
X170630412Y-74412673D01*
X170659218Y-74479846D01*
X170701213Y-74579388D01*
X170759379Y-74717122D01*
X170807729Y-74831539D01*
X170871866Y-74989457D01*
X170932836Y-75149661D01*
X170965354Y-75241846D01*
X171004894Y-75353284D01*
X171064503Y-75512512D01*
X171134861Y-75694904D01*
X171182467Y-75815530D01*
X171259166Y-76013825D01*
X171334693Y-76219127D01*
X171397814Y-76400476D01*
X171423497Y-76479838D01*
X171469388Y-76624838D01*
X171510416Y-76748681D01*
X171537663Y-76824462D01*
X171567502Y-76909860D01*
X171604643Y-77031244D01*
X171618035Y-77078462D01*
X171665733Y-77229310D01*
X171722524Y-77381135D01*
X171734989Y-77410616D01*
X171773414Y-77509737D01*
X171826889Y-77662563D01*
X171888204Y-77847884D01*
X171947497Y-78035846D01*
X172005716Y-78224721D01*
X172058213Y-78394191D01*
X172099297Y-78525939D01*
X172123277Y-78601648D01*
X172123542Y-78602462D01*
X172155397Y-78705109D01*
X172193033Y-78832747D01*
X172199816Y-78856462D01*
X172229567Y-78960120D01*
X172274332Y-79114849D01*
X172327173Y-79296711D01*
X172364008Y-79423077D01*
X172417011Y-79606784D01*
X172464957Y-79776797D01*
X172501506Y-79910429D01*
X172516908Y-79970154D01*
X172550766Y-80103018D01*
X172589768Y-80247109D01*
X172594307Y-80263231D01*
X172632844Y-80404137D01*
X172668543Y-80542042D01*
X172672065Y-80556308D01*
X172696312Y-80653030D01*
X172734153Y-80801370D01*
X172779448Y-80977327D01*
X172807043Y-81083846D01*
X172855137Y-81273891D01*
X172899925Y-81459415D01*
X172934711Y-81612306D01*
X172946706Y-81670000D01*
X172979488Y-81830021D01*
X173015444Y-81994576D01*
X173026189Y-82041231D01*
X173060971Y-82192039D01*
X173095026Y-82343840D01*
X173101497Y-82373385D01*
X173136748Y-82521886D01*
X173176987Y-82673818D01*
X173180461Y-82686000D01*
X173219564Y-82834401D01*
X173254506Y-82986273D01*
X173257040Y-82998616D01*
X173277078Y-83096570D01*
X173308852Y-83250592D01*
X173348136Y-83440246D01*
X173390703Y-83645093D01*
X173394415Y-83662923D01*
X173438610Y-83880511D01*
X173480642Y-84096871D01*
X173515746Y-84286899D01*
X173539068Y-84424923D01*
X173609732Y-84879852D01*
X173675576Y-85288528D01*
X173741727Y-85682219D01*
X173801787Y-86027077D01*
X173854038Y-86324885D01*
X173894759Y-86562469D01*
X173926561Y-86756470D01*
X173952056Y-86923530D01*
X173973855Y-87080289D01*
X173994570Y-87243387D01*
X174001089Y-87297077D01*
X174025485Y-87494834D01*
X174051749Y-87700173D01*
X174074919Y-87874444D01*
X174078829Y-87902769D01*
X174095732Y-88041338D01*
X174115883Y-88232954D01*
X174136800Y-88452722D01*
X174156004Y-88675744D01*
X174156695Y-88684308D01*
X174177211Y-88934676D01*
X174200311Y-89209599D01*
X174222944Y-89473119D01*
X174239534Y-89661231D01*
X174261320Y-89954500D01*
X174280297Y-90309360D01*
X174296126Y-90709289D01*
X174308469Y-91137763D01*
X174316986Y-91578261D01*
X174321339Y-92014257D01*
X174321189Y-92429230D01*
X174316196Y-92806657D01*
X174309129Y-93053542D01*
X174280207Y-93629065D01*
X174238289Y-94163281D01*
X174184389Y-94647094D01*
X174119519Y-95071404D01*
X174045199Y-95425077D01*
X173994130Y-95626091D01*
X173950144Y-95782992D01*
X173904983Y-95917606D01*
X173850390Y-96051757D01*
X173778105Y-96207271D01*
X173679870Y-96405973D01*
X173656095Y-96453390D01*
X173490446Y-96728560D01*
X173301768Y-96944508D01*
X173097915Y-97092484D01*
X173069718Y-97106748D01*
X172959923Y-97159626D01*
X172871077Y-97202722D01*
X172858607Y-97208827D01*
X172770228Y-97228002D01*
X172770228Y-97108427D01*
X172883585Y-97086910D01*
X173022261Y-97026850D01*
X173164986Y-96931039D01*
X173292250Y-96816711D01*
X173384543Y-96701101D01*
X173421359Y-96611852D01*
X173398758Y-96524939D01*
X173321282Y-96455166D01*
X173212170Y-96422120D01*
X173195533Y-96421539D01*
X173146464Y-96398939D01*
X173141384Y-96382462D01*
X173110336Y-96346510D01*
X173090419Y-96343385D01*
X173031123Y-96323616D01*
X172932332Y-96272704D01*
X172852999Y-96225138D01*
X172732532Y-96152481D01*
X172570678Y-96059824D01*
X172395461Y-95963088D01*
X172327579Y-95926642D01*
X172146466Y-95828964D01*
X171959134Y-95725704D01*
X171797794Y-95634680D01*
X171754154Y-95609434D01*
X171591240Y-95515528D01*
X171415657Y-95416211D01*
X171304769Y-95354651D01*
X171155136Y-95268862D01*
X171003927Y-95176334D01*
X170926497Y-95125797D01*
X170823219Y-95061530D01*
X170742008Y-95021445D01*
X170716187Y-95014769D01*
X170654753Y-94995505D01*
X170561553Y-94947770D01*
X170537612Y-94933429D01*
X170460670Y-94893001D01*
X170420032Y-94891148D01*
X170417423Y-94931768D01*
X170454568Y-95018759D01*
X170533193Y-95156021D01*
X170655024Y-95347450D01*
X170821786Y-95596947D01*
X170849101Y-95637151D01*
X171138515Y-96031984D01*
X171429249Y-96369762D01*
X171717517Y-96647789D01*
X171999535Y-96863367D01*
X172271517Y-97013797D01*
X172529676Y-97096383D01*
X172770228Y-97108427D01*
X172770228Y-97228002D01*
X172709285Y-97241226D01*
X172520966Y-97217204D01*
X172303374Y-97141451D01*
X172066231Y-97018656D01*
X171819260Y-96853510D01*
X171572184Y-96650701D01*
X171439145Y-96524175D01*
X171326968Y-96404888D01*
X171197796Y-96256641D01*
X171061201Y-96091763D01*
X170926752Y-95922583D01*
X170804020Y-95761428D01*
X170702577Y-95620627D01*
X170631992Y-95512508D01*
X170601836Y-95449398D01*
X170601384Y-95445047D01*
X170578431Y-95406694D01*
X170571194Y-95405539D01*
X170536300Y-95374054D01*
X170484937Y-95295103D01*
X170465370Y-95259000D01*
X170363180Y-95077060D01*
X170270827Y-94953144D01*
X170174498Y-94870784D01*
X170109478Y-94834670D01*
X170004440Y-94791738D01*
X169958460Y-94794960D01*
X169965154Y-94847761D01*
X169989050Y-94899323D01*
X170037514Y-95003612D01*
X170088049Y-95125457D01*
X170090574Y-95132000D01*
X170142084Y-95253083D01*
X170223223Y-95428054D01*
X170327129Y-95643432D01*
X170446940Y-95885739D01*
X170575794Y-96141497D01*
X170706828Y-96397225D01*
X170833181Y-96639445D01*
X170947991Y-96854679D01*
X171044396Y-97029446D01*
X171115534Y-97150269D01*
X171127562Y-97168953D01*
X171186601Y-97261591D01*
X171222044Y-97323813D01*
X171226615Y-97335893D01*
X171247360Y-97373386D01*
X171303161Y-97460195D01*
X171384366Y-97581536D01*
X171441538Y-97665157D01*
X171533915Y-97803441D01*
X171606399Y-97919904D01*
X171649157Y-97998313D01*
X171656461Y-98019965D01*
X171677806Y-98060934D01*
X171686487Y-98062769D01*
X171726782Y-98092385D01*
X171774410Y-98155993D01*
X171829717Y-98232211D01*
X171923048Y-98348336D01*
X172039449Y-98486819D01*
X172163969Y-98630108D01*
X172281653Y-98760652D01*
X172359846Y-98843118D01*
X172496641Y-98967070D01*
X172670766Y-99103702D01*
X172856270Y-99234339D01*
X173027207Y-99340309D01*
X173111651Y-99384130D01*
X173366465Y-99463015D01*
X173617384Y-99466185D01*
X173617384Y-99555045D01*
X173459786Y-99564767D01*
X173336833Y-99545581D01*
X173179648Y-99498569D01*
X173002835Y-99429486D01*
X172893276Y-99377849D01*
X172685213Y-99243948D01*
X172452345Y-99048911D01*
X172203193Y-98802295D01*
X171946277Y-98513656D01*
X171690122Y-98192551D01*
X171443247Y-97848536D01*
X171221173Y-97502763D01*
X171133170Y-97357335D01*
X171057757Y-97232858D01*
X171005998Y-97147590D01*
X170992177Y-97124923D01*
X170902081Y-96970529D01*
X170787033Y-96762338D01*
X170655709Y-96517102D01*
X170516785Y-96251571D01*
X170378938Y-95982499D01*
X170250842Y-95726637D01*
X170141176Y-95500737D01*
X170061187Y-95327385D01*
X170000885Y-95190916D01*
X169928471Y-95026972D01*
X169881914Y-94921534D01*
X169825433Y-94785218D01*
X169781916Y-94664891D01*
X169763574Y-94598901D01*
X169732939Y-94511269D01*
X169666111Y-94437012D01*
X169546304Y-94359077D01*
X169505448Y-94336666D01*
X169347280Y-94250673D01*
X169168636Y-94151802D01*
X168996350Y-94055047D01*
X168857253Y-93975402D01*
X168823384Y-93955534D01*
X168716104Y-93892831D01*
X168573647Y-93810692D01*
X168415918Y-93720459D01*
X168262818Y-93633472D01*
X168134250Y-93561073D01*
X168050118Y-93514603D01*
X168041846Y-93510192D01*
X168017991Y-93494203D01*
X167999402Y-93468285D01*
X167985295Y-93423181D01*
X167974886Y-93349634D01*
X167967391Y-93238386D01*
X167962027Y-93080181D01*
X167958009Y-92865762D01*
X167954555Y-92585871D01*
X167953263Y-92463920D01*
X167942834Y-91458874D01*
X168109571Y-91523623D01*
G36*
X167903551Y-99162214D02*
G01*
X168032167Y-99099881D01*
X168155123Y-99055758D01*
X168295189Y-99008084D01*
X168424287Y-98960348D01*
X168471692Y-98941159D01*
X168567317Y-98902057D01*
X168706405Y-98847239D01*
X168859233Y-98788416D01*
X168862671Y-98787111D01*
X169046835Y-98702978D01*
X169163087Y-98611799D01*
X169221593Y-98503048D01*
X169233692Y-98402916D01*
X169243584Y-98323636D01*
X169268841Y-98203040D01*
X169287928Y-98127399D01*
X169327702Y-97969156D01*
X169369435Y-97787255D01*
X169389711Y-97691539D01*
X169437638Y-97491875D01*
X169486385Y-97358032D01*
X169533925Y-97294830D01*
X169558136Y-97291687D01*
X169589528Y-97331859D01*
X169636880Y-97425628D01*
X169690085Y-97552916D01*
X169691401Y-97556352D01*
X169745372Y-97696570D01*
X169792164Y-97816531D01*
X169820291Y-97886923D01*
X169848801Y-97960187D01*
X169894729Y-98082782D01*
X169949027Y-98230505D01*
X169959084Y-98258154D01*
X170013246Y-98401649D01*
X170060955Y-98518050D01*
X170093509Y-98586357D01*
X170097821Y-98592908D01*
X170147679Y-98618996D01*
X170255918Y-98655674D01*
X170404484Y-98697240D01*
X170512296Y-98723753D01*
X170682118Y-98765248D01*
X170828204Y-98804367D01*
X170930369Y-98835530D01*
X170962316Y-98848153D01*
X171055640Y-98878789D01*
X171097778Y-98883385D01*
X171177062Y-98896567D01*
X171282712Y-98929332D01*
X171388946Y-98971503D01*
X171469985Y-99012905D01*
X171500154Y-99042194D01*
X171466606Y-99071190D01*
X171379299Y-99115638D01*
X171275461Y-99158698D01*
X171142517Y-99207987D01*
X170962698Y-99272874D01*
X170763075Y-99343652D01*
X170628022Y-99390822D01*
X170456998Y-99452070D01*
X170313251Y-99507200D01*
X170212984Y-99549760D01*
X170173429Y-99571855D01*
X170154067Y-99619383D01*
X170121195Y-99726878D01*
X170078937Y-99878169D01*
X170031416Y-100057083D01*
X169982753Y-100247450D01*
X169937072Y-100433097D01*
X169898495Y-100597853D01*
X169871145Y-100725546D01*
X169859144Y-100800005D01*
X169858923Y-100805558D01*
X169831937Y-100874396D01*
X169781584Y-100934186D01*
X169723926Y-100980818D01*
X169713266Y-100977579D01*
X169713266Y-100802476D01*
X169735406Y-100766009D01*
X169769099Y-100664957D01*
X169812543Y-100505365D01*
X169863937Y-100293274D01*
X169916968Y-100055693D01*
X169960293Y-99867274D01*
X170002554Y-99705338D01*
X170039181Y-99586034D01*
X170065604Y-99525513D01*
X170067623Y-99523203D01*
X170119629Y-99493588D01*
X170229873Y-99443714D01*
X170383162Y-99380073D01*
X170564301Y-99309159D01*
X170601384Y-99295108D01*
X170791818Y-99223167D01*
X170963295Y-99158058D01*
X171098611Y-99106335D01*
X171180562Y-99074553D01*
X171187214Y-99071901D01*
X171284582Y-99032761D01*
X171153420Y-98977611D01*
X171037948Y-98939664D01*
X170936024Y-98922542D01*
X170930890Y-98922462D01*
X170818608Y-98907469D01*
X170749761Y-98886911D01*
X170666924Y-98862598D01*
X170534996Y-98832653D01*
X170382113Y-98803444D01*
X170377814Y-98802701D01*
X170221058Y-98770419D01*
X170107379Y-98727395D01*
X170023745Y-98659877D01*
X169957123Y-98554114D01*
X169894480Y-98396354D01*
X169843199Y-98238616D01*
X169791193Y-98076770D01*
X169744051Y-97938008D01*
X169708952Y-97843123D01*
X169698387Y-97819069D01*
X169668204Y-97729225D01*
X169663538Y-97689278D01*
X169647194Y-97635333D01*
X169610227Y-97576403D01*
X169570738Y-97535022D01*
X169546829Y-97533726D01*
X169545410Y-97542209D01*
X169533839Y-97616997D01*
X169504608Y-97744044D01*
X169462302Y-97907544D01*
X169411509Y-98091687D01*
X169356811Y-98280665D01*
X169302796Y-98458671D01*
X169254047Y-98609895D01*
X169215152Y-98718529D01*
X169190694Y-98768765D01*
X169189300Y-98769918D01*
X169123884Y-98799199D01*
X169011867Y-98839213D01*
X168921077Y-98867998D01*
X168721459Y-98932950D01*
X168519108Y-99010240D01*
X168284546Y-99111312D01*
X168223683Y-99138789D01*
X168048595Y-99218347D01*
X168221067Y-99268437D01*
X168357869Y-99308528D01*
X168485564Y-99346510D01*
X168513543Y-99354956D01*
X168626565Y-99381382D01*
X168716391Y-99391385D01*
X168792477Y-99405553D01*
X168820125Y-99425189D01*
X168868869Y-99451234D01*
X168964930Y-99474877D01*
X168999767Y-99480285D01*
X169153699Y-99518201D01*
X169273663Y-99580462D01*
X169341942Y-99656235D01*
X169351164Y-99695132D01*
X169368613Y-99780137D01*
X169401073Y-99860308D01*
X169436708Y-99944883D01*
X169484740Y-100077572D01*
X169535507Y-100231513D01*
X169541616Y-100251077D01*
X169589589Y-100400203D01*
X169633233Y-100526179D01*
X169664216Y-100605123D01*
X169667552Y-100612009D01*
X169697498Y-100707676D01*
X169704481Y-100768316D01*
X169713266Y-100802476D01*
X169713266Y-100977579D01*
X169696534Y-100972493D01*
X169680348Y-100930473D01*
X169644087Y-100830211D01*
X169623275Y-100778616D01*
X169597243Y-100710715D01*
X169552285Y-100587149D01*
X169494832Y-100426179D01*
X169431317Y-100246066D01*
X169368171Y-100065069D01*
X169311826Y-99901451D01*
X169268714Y-99773470D01*
X169261631Y-99751870D01*
X169201586Y-99644805D01*
X169119375Y-99602155D01*
X168998053Y-99571854D01*
X168921077Y-99549365D01*
X168827174Y-99523475D01*
X168693612Y-99491146D01*
X168608461Y-99472164D01*
X168341289Y-99412363D01*
X168123201Y-99358542D01*
X167962251Y-99312888D01*
X167866489Y-99277584D01*
X167846461Y-99265346D01*
X167839617Y-99218749D01*
X167903551Y-99162214D01*
G37*
X167903551Y-99162214D02*
X168032167Y-99099881D01*
X168155123Y-99055758D01*
X168295189Y-99008084D01*
X168424287Y-98960348D01*
X168471692Y-98941159D01*
X168567317Y-98902057D01*
X168706405Y-98847239D01*
X168859233Y-98788416D01*
X168862671Y-98787111D01*
X169046835Y-98702978D01*
X169163087Y-98611799D01*
X169221593Y-98503048D01*
X169233692Y-98402916D01*
X169243584Y-98323636D01*
X169268841Y-98203040D01*
X169287928Y-98127399D01*
X169327702Y-97969156D01*
X169369435Y-97787255D01*
X169389711Y-97691539D01*
X169437638Y-97491875D01*
X169486385Y-97358032D01*
X169533925Y-97294830D01*
X169558136Y-97291687D01*
X169589528Y-97331859D01*
X169636880Y-97425628D01*
X169690085Y-97552916D01*
X169691401Y-97556352D01*
X169745372Y-97696570D01*
X169792164Y-97816531D01*
X169820291Y-97886923D01*
X169848801Y-97960187D01*
X169894729Y-98082782D01*
X169949027Y-98230505D01*
X169959084Y-98258154D01*
X170013246Y-98401649D01*
X170060955Y-98518050D01*
X170093509Y-98586357D01*
X170097821Y-98592908D01*
X170147679Y-98618996D01*
X170255918Y-98655674D01*
X170404484Y-98697240D01*
X170512296Y-98723753D01*
X170682118Y-98765248D01*
X170828204Y-98804367D01*
X170930369Y-98835530D01*
X170962316Y-98848153D01*
X171055640Y-98878789D01*
X171097778Y-98883385D01*
X171177062Y-98896567D01*
X171282712Y-98929332D01*
X171388946Y-98971503D01*
X171469985Y-99012905D01*
X171500154Y-99042194D01*
X171466606Y-99071190D01*
X171379299Y-99115638D01*
X171275461Y-99158698D01*
X171142517Y-99207987D01*
X170962698Y-99272874D01*
X170763075Y-99343652D01*
X170628022Y-99390822D01*
X170456998Y-99452070D01*
X170313251Y-99507200D01*
X170212984Y-99549760D01*
X170173429Y-99571855D01*
X170154067Y-99619383D01*
X170121195Y-99726878D01*
X170078937Y-99878169D01*
X170031416Y-100057083D01*
X169982753Y-100247450D01*
X169937072Y-100433097D01*
X169898495Y-100597853D01*
X169871145Y-100725546D01*
X169859144Y-100800005D01*
X169858923Y-100805558D01*
X169831937Y-100874396D01*
X169781584Y-100934186D01*
X169723926Y-100980818D01*
X169713266Y-100977579D01*
X169713266Y-100802476D01*
X169735406Y-100766009D01*
X169769099Y-100664957D01*
X169812543Y-100505365D01*
X169863937Y-100293274D01*
X169916968Y-100055693D01*
X169960293Y-99867274D01*
X170002554Y-99705338D01*
X170039181Y-99586034D01*
X170065604Y-99525513D01*
X170067623Y-99523203D01*
X170119629Y-99493588D01*
X170229873Y-99443714D01*
X170383162Y-99380073D01*
X170564301Y-99309159D01*
X170601384Y-99295108D01*
X170791818Y-99223167D01*
X170963295Y-99158058D01*
X171098611Y-99106335D01*
X171180562Y-99074553D01*
X171187214Y-99071901D01*
X171284582Y-99032761D01*
X171153420Y-98977611D01*
X171037948Y-98939664D01*
X170936024Y-98922542D01*
X170930890Y-98922462D01*
X170818608Y-98907469D01*
X170749761Y-98886911D01*
X170666924Y-98862598D01*
X170534996Y-98832653D01*
X170382113Y-98803444D01*
X170377814Y-98802701D01*
X170221058Y-98770419D01*
X170107379Y-98727395D01*
X170023745Y-98659877D01*
X169957123Y-98554114D01*
X169894480Y-98396354D01*
X169843199Y-98238616D01*
X169791193Y-98076770D01*
X169744051Y-97938008D01*
X169708952Y-97843123D01*
X169698387Y-97819069D01*
X169668204Y-97729225D01*
X169663538Y-97689278D01*
X169647194Y-97635333D01*
X169610227Y-97576403D01*
X169570738Y-97535022D01*
X169546829Y-97533726D01*
X169545410Y-97542209D01*
X169533839Y-97616997D01*
X169504608Y-97744044D01*
X169462302Y-97907544D01*
X169411509Y-98091687D01*
X169356811Y-98280665D01*
X169302796Y-98458671D01*
X169254047Y-98609895D01*
X169215152Y-98718529D01*
X169190694Y-98768765D01*
X169189300Y-98769918D01*
X169123884Y-98799199D01*
X169011867Y-98839213D01*
X168921077Y-98867998D01*
X168721459Y-98932950D01*
X168519108Y-99010240D01*
X168284546Y-99111312D01*
X168223683Y-99138789D01*
X168048595Y-99218347D01*
X168221067Y-99268437D01*
X168357869Y-99308528D01*
X168485564Y-99346510D01*
X168513543Y-99354956D01*
X168626565Y-99381382D01*
X168716391Y-99391385D01*
X168792477Y-99405553D01*
X168820125Y-99425189D01*
X168868869Y-99451234D01*
X168964930Y-99474877D01*
X168999767Y-99480285D01*
X169153699Y-99518201D01*
X169273663Y-99580462D01*
X169341942Y-99656235D01*
X169351164Y-99695132D01*
X169368613Y-99780137D01*
X169401073Y-99860308D01*
X169436708Y-99944883D01*
X169484740Y-100077572D01*
X169535507Y-100231513D01*
X169541616Y-100251077D01*
X169589589Y-100400203D01*
X169633233Y-100526179D01*
X169664216Y-100605123D01*
X169667552Y-100612009D01*
X169697498Y-100707676D01*
X169704481Y-100768316D01*
X169713266Y-100802476D01*
X169713266Y-100977579D01*
X169696534Y-100972493D01*
X169680348Y-100930473D01*
X169644087Y-100830211D01*
X169623275Y-100778616D01*
X169597243Y-100710715D01*
X169552285Y-100587149D01*
X169494832Y-100426179D01*
X169431317Y-100246066D01*
X169368171Y-100065069D01*
X169311826Y-99901451D01*
X169268714Y-99773470D01*
X169261631Y-99751870D01*
X169201586Y-99644805D01*
X169119375Y-99602155D01*
X168998053Y-99571854D01*
X168921077Y-99549365D01*
X168827174Y-99523475D01*
X168693612Y-99491146D01*
X168608461Y-99472164D01*
X168341289Y-99412363D01*
X168123201Y-99358542D01*
X167962251Y-99312888D01*
X167866489Y-99277584D01*
X167846461Y-99265346D01*
X167839617Y-99218749D01*
X167903551Y-99162214D01*
D10*
%TO.C,A2*%
X228346000Y-188722000D02*
X228346000Y-118872000D01*
X202946000Y-188722000D02*
X228346000Y-188722000D01*
X202946000Y-118872000D02*
X202946000Y-188722000D01*
X228346000Y-118872000D02*
X202946000Y-118872000D01*
%TO.C,J11*%
X165820000Y-66920000D02*
X165820000Y-50920000D01*
X165820000Y-66920000D02*
X171620000Y-66920000D01*
X171620000Y-66920000D02*
X171620000Y-50920000D01*
X165820000Y-50920000D02*
X171620000Y-50920000D01*
%TO.C,J10*%
X232620000Y-50920000D02*
X232620000Y-66920000D01*
X232620000Y-50920000D02*
X226820000Y-50920000D01*
X226820000Y-50920000D02*
X226820000Y-66920000D01*
X232620000Y-66920000D02*
X226820000Y-66920000D01*
%TO.C,J1*%
X167323000Y-177800000D02*
X175323000Y-177800000D01*
X167323000Y-177800000D02*
X167323000Y-183600000D01*
X167323000Y-183600000D02*
X175323000Y-183600000D01*
X175323000Y-177800000D02*
X175323000Y-183600000D01*
%TO.C,J2*%
X178753000Y-177800000D02*
X186753000Y-177800000D01*
X178753000Y-177800000D02*
X178753000Y-183600000D01*
X178753000Y-183600000D02*
X186753000Y-183600000D01*
X186753000Y-177800000D02*
X186753000Y-183600000D01*
%TO.C,J4*%
X202282000Y-106052000D02*
X210282000Y-106052000D01*
X202282000Y-106052000D02*
X202282000Y-111852000D01*
X202282000Y-111852000D02*
X210282000Y-111852000D01*
X210282000Y-106052000D02*
X210282000Y-111852000D01*
%TO.C,J6*%
X182112000Y-106052000D02*
X190112000Y-106052000D01*
X182112000Y-106052000D02*
X182112000Y-111852000D01*
X182112000Y-111852000D02*
X190112000Y-111852000D01*
X190112000Y-106052000D02*
X190112000Y-111852000D01*
%TO.C,J3*%
X220442000Y-106052000D02*
X220442000Y-111852000D01*
X212442000Y-111852000D02*
X220442000Y-111852000D01*
X212442000Y-106052000D02*
X212442000Y-111852000D01*
X212442000Y-106052000D02*
X220442000Y-106052000D01*
%TO.C,J5*%
X170682000Y-106052000D02*
X178682000Y-106052000D01*
X170682000Y-106052000D02*
X170682000Y-111852000D01*
X170682000Y-111852000D02*
X178682000Y-111852000D01*
X178682000Y-106052000D02*
X178682000Y-111852000D01*
%TO.C,A1*%
X191770000Y-173609000D02*
X170434000Y-173609000D01*
X170434000Y-122809000D02*
X191770000Y-122809000D01*
X170434000Y-122809000D02*
X170434000Y-173609000D01*
X191770000Y-173609000D02*
X191770000Y-122809000D01*
%TO.C,J9*%
X185519000Y-93440000D02*
X185519000Y-98160000D01*
X185519000Y-98160000D02*
X191639000Y-98160000D01*
X191639000Y-98160000D02*
X191639000Y-93440000D01*
X191639000Y-93440000D02*
X185519000Y-93440000D01*
X187279000Y-93440000D02*
X187279000Y-93240000D01*
X187279000Y-93240000D02*
X186979000Y-93240000D01*
X186979000Y-93240000D02*
X186979000Y-93440000D01*
X187279000Y-93340000D02*
X186979000Y-93340000D01*
X188079000Y-93440000D02*
X188079000Y-94050000D01*
X188079000Y-94050000D02*
X186129000Y-94050000D01*
X186129000Y-94050000D02*
X186129000Y-97550000D01*
X186129000Y-97550000D02*
X191029000Y-97550000D01*
X191029000Y-97550000D02*
X191029000Y-94050000D01*
X191029000Y-94050000D02*
X189079000Y-94050000D01*
X189079000Y-94050000D02*
X189079000Y-93440000D01*
X185519000Y-94750000D02*
X186129000Y-94750000D01*
X185519000Y-96050000D02*
X186129000Y-96050000D01*
X191639000Y-94750000D02*
X191029000Y-94750000D01*
X191639000Y-96050000D02*
X191029000Y-96050000D01*
X188479000Y-97550000D02*
X188479000Y-97050000D01*
X188479000Y-97050000D02*
X188679000Y-97050000D01*
X188679000Y-97050000D02*
X188679000Y-97550000D01*
X188579000Y-97550000D02*
X188579000Y-97050000D01*
X186469000Y-93140000D02*
X185219000Y-93140000D01*
X185219000Y-93140000D02*
X185219000Y-94390000D01*
%TO.C,J8*%
X202918000Y-93567000D02*
X202918000Y-98287000D01*
X202918000Y-98287000D02*
X209038000Y-98287000D01*
X209038000Y-98287000D02*
X209038000Y-93567000D01*
X209038000Y-93567000D02*
X202918000Y-93567000D01*
X204678000Y-93567000D02*
X204678000Y-93367000D01*
X204678000Y-93367000D02*
X204378000Y-93367000D01*
X204378000Y-93367000D02*
X204378000Y-93567000D01*
X204678000Y-93467000D02*
X204378000Y-93467000D01*
X205478000Y-93567000D02*
X205478000Y-94177000D01*
X205478000Y-94177000D02*
X203528000Y-94177000D01*
X203528000Y-94177000D02*
X203528000Y-97677000D01*
X203528000Y-97677000D02*
X208428000Y-97677000D01*
X208428000Y-97677000D02*
X208428000Y-94177000D01*
X208428000Y-94177000D02*
X206478000Y-94177000D01*
X206478000Y-94177000D02*
X206478000Y-93567000D01*
X202918000Y-94877000D02*
X203528000Y-94877000D01*
X202918000Y-96177000D02*
X203528000Y-96177000D01*
X209038000Y-94877000D02*
X208428000Y-94877000D01*
X209038000Y-96177000D02*
X208428000Y-96177000D01*
X205878000Y-97677000D02*
X205878000Y-97177000D01*
X205878000Y-97177000D02*
X206078000Y-97177000D01*
X206078000Y-97177000D02*
X206078000Y-97677000D01*
X205978000Y-97677000D02*
X205978000Y-97177000D01*
X203868000Y-93267000D02*
X202618000Y-93267000D01*
X202618000Y-93267000D02*
X202618000Y-94517000D01*
%TO.C,J7*%
X194028000Y-93567000D02*
X194028000Y-98287000D01*
X194028000Y-98287000D02*
X200148000Y-98287000D01*
X200148000Y-98287000D02*
X200148000Y-93567000D01*
X200148000Y-93567000D02*
X194028000Y-93567000D01*
X195788000Y-93567000D02*
X195788000Y-93367000D01*
X195788000Y-93367000D02*
X195488000Y-93367000D01*
X195488000Y-93367000D02*
X195488000Y-93567000D01*
X195788000Y-93467000D02*
X195488000Y-93467000D01*
X196588000Y-93567000D02*
X196588000Y-94177000D01*
X196588000Y-94177000D02*
X194638000Y-94177000D01*
X194638000Y-94177000D02*
X194638000Y-97677000D01*
X194638000Y-97677000D02*
X199538000Y-97677000D01*
X199538000Y-97677000D02*
X199538000Y-94177000D01*
X199538000Y-94177000D02*
X197588000Y-94177000D01*
X197588000Y-94177000D02*
X197588000Y-93567000D01*
X194028000Y-94877000D02*
X194638000Y-94877000D01*
X194028000Y-96177000D02*
X194638000Y-96177000D01*
X200148000Y-94877000D02*
X199538000Y-94877000D01*
X200148000Y-96177000D02*
X199538000Y-96177000D01*
X196988000Y-97677000D02*
X196988000Y-97177000D01*
X196988000Y-97177000D02*
X197188000Y-97177000D01*
X197188000Y-97177000D02*
X197188000Y-97677000D01*
X197088000Y-97677000D02*
X197088000Y-97177000D01*
X194978000Y-93267000D02*
X193728000Y-93267000D01*
X193728000Y-93267000D02*
X193728000Y-94517000D01*
%TO.C,*%
D17*
X469535047Y-322222528D02*
X470296952Y-322222528D01*
X469535047Y-325397528D02*
X470296952Y-325397528D01*
X469916000Y-325778480D02*
X469916000Y-325016576D01*
%TO.C,A2*%
X209518228Y-185900571D02*
X210375371Y-185900571D01*
X209946800Y-187400571D02*
X209946800Y-185900571D01*
X211446800Y-187329142D02*
X211303942Y-187400571D01*
X211018228Y-187400571D01*
X210875371Y-187329142D01*
X210803942Y-187186285D01*
X210803942Y-186614857D01*
X210875371Y-186472000D01*
X211018228Y-186400571D01*
X211303942Y-186400571D01*
X211446800Y-186472000D01*
X211518228Y-186614857D01*
X211518228Y-186757714D01*
X210803942Y-186900571D01*
X212375371Y-187400571D02*
X212232514Y-187329142D01*
X212161085Y-187186285D01*
X212161085Y-185900571D01*
X213518228Y-187329142D02*
X213375371Y-187400571D01*
X213089657Y-187400571D01*
X212946800Y-187329142D01*
X212875371Y-187186285D01*
X212875371Y-186614857D01*
X212946800Y-186472000D01*
X213089657Y-186400571D01*
X213375371Y-186400571D01*
X213518228Y-186472000D01*
X213589657Y-186614857D01*
X213589657Y-186757714D01*
X212875371Y-186900571D01*
X214232514Y-187400571D02*
X214232514Y-185900571D01*
X214732514Y-186972000D01*
X215232514Y-185900571D01*
X215232514Y-187400571D01*
X216518228Y-187329142D02*
X216375371Y-187400571D01*
X216089657Y-187400571D01*
X215946800Y-187329142D01*
X215875371Y-187186285D01*
X215875371Y-186614857D01*
X215946800Y-186472000D01*
X216089657Y-186400571D01*
X216375371Y-186400571D01*
X216518228Y-186472000D01*
X216589657Y-186614857D01*
X216589657Y-186757714D01*
X215875371Y-186900571D01*
X217018228Y-186400571D02*
X217589657Y-186400571D01*
X217232514Y-185900571D02*
X217232514Y-187186285D01*
X217303942Y-187329142D01*
X217446800Y-187400571D01*
X217589657Y-187400571D01*
X218089657Y-187400571D02*
X218089657Y-186400571D01*
X218089657Y-186686285D02*
X218161085Y-186543428D01*
X218232514Y-186472000D01*
X218375371Y-186400571D01*
X218518228Y-186400571D01*
X219661085Y-186400571D02*
X219661085Y-187400571D01*
X219018228Y-186400571D02*
X219018228Y-187186285D01*
X219089657Y-187329142D01*
X219232514Y-187400571D01*
X219446800Y-187400571D01*
X219589657Y-187329142D01*
X219661085Y-187257714D01*
X220375371Y-187400571D02*
X220375371Y-186400571D01*
X220375371Y-186543428D02*
X220446800Y-186472000D01*
X220589657Y-186400571D01*
X220803942Y-186400571D01*
X220946800Y-186472000D01*
X221018228Y-186614857D01*
X221018228Y-187400571D01*
X221018228Y-186614857D02*
X221089657Y-186472000D01*
X221232514Y-186400571D01*
X221446800Y-186400571D01*
X221589657Y-186472000D01*
X221661085Y-186614857D01*
X221661085Y-187400571D01*
X215788857Y-158606523D02*
X215788857Y-157082714D01*
X215217428Y-156130333D02*
X215788857Y-154606523D01*
X216360285Y-156130333D01*
X214550761Y-152130333D02*
X216169809Y-152130333D01*
X216360285Y-152035095D01*
X216455523Y-151939857D01*
X216550761Y-151749380D01*
X216550761Y-151368428D01*
X216455523Y-151177952D01*
X216360285Y-151082714D01*
X216169809Y-150987476D01*
X214550761Y-150987476D01*
X216550761Y-150035095D02*
X214550761Y-150035095D01*
X214550761Y-149273190D01*
X214646000Y-149082714D01*
X214741238Y-148987476D01*
X214931714Y-148892238D01*
X215217428Y-148892238D01*
X215407904Y-148987476D01*
X215503142Y-149082714D01*
X215598380Y-149273190D01*
X215598380Y-150035095D01*
D18*
X231957428Y-134902052D02*
X231957428Y-134140147D01*
X231957428Y-138077052D02*
X231957428Y-137315147D01*
X232338380Y-137696100D02*
X231576476Y-137696100D01*
D17*
X206262095Y-115318380D02*
X206262095Y-114318380D01*
X206500190Y-114318380D01*
X206643047Y-114366000D01*
X206738285Y-114461238D01*
X206785904Y-114556476D01*
X206833523Y-114746952D01*
X206833523Y-114889809D01*
X206785904Y-115080285D01*
X206738285Y-115175523D01*
X206643047Y-115270761D01*
X206500190Y-115318380D01*
X206262095Y-115318380D01*
X207833523Y-115318380D02*
X207500190Y-114842190D01*
X207262095Y-115318380D02*
X207262095Y-114318380D01*
X207643047Y-114318380D01*
X207738285Y-114366000D01*
X207785904Y-114413619D01*
X207833523Y-114508857D01*
X207833523Y-114651714D01*
X207785904Y-114746952D01*
X207738285Y-114794571D01*
X207643047Y-114842190D01*
X207262095Y-114842190D01*
X208452571Y-114318380D02*
X208643047Y-114318380D01*
X208738285Y-114366000D01*
X208833523Y-114461238D01*
X208881142Y-114651714D01*
X208881142Y-114985047D01*
X208833523Y-115175523D01*
X208738285Y-115270761D01*
X208643047Y-115318380D01*
X208452571Y-115318380D01*
X208357333Y-115270761D01*
X208262095Y-115175523D01*
X208214476Y-114985047D01*
X208214476Y-114651714D01*
X208262095Y-114461238D01*
X208357333Y-114366000D01*
X208452571Y-114318380D01*
X209833523Y-114366000D02*
X209738285Y-114318380D01*
X209595428Y-114318380D01*
X209452571Y-114366000D01*
X209357333Y-114461238D01*
X209309714Y-114556476D01*
X209262095Y-114746952D01*
X209262095Y-114889809D01*
X209309714Y-115080285D01*
X209357333Y-115175523D01*
X209452571Y-115270761D01*
X209595428Y-115318380D01*
X209690666Y-115318380D01*
X209833523Y-115270761D01*
X209881142Y-115223142D01*
X209881142Y-114889809D01*
X209690666Y-114889809D01*
X210309714Y-114318380D02*
X210309714Y-115127904D01*
X210357333Y-115223142D01*
X210404952Y-115270761D01*
X210500190Y-115318380D01*
X210690666Y-115318380D01*
X210785904Y-115270761D01*
X210833523Y-115223142D01*
X210881142Y-115127904D01*
X210881142Y-114318380D01*
X211357333Y-114794571D02*
X211690666Y-114794571D01*
X211833523Y-115318380D02*
X211357333Y-115318380D01*
X211357333Y-114318380D01*
X211833523Y-114318380D01*
X214122190Y-115324380D02*
X214122190Y-114324380D01*
X214455523Y-115038666D01*
X214788857Y-114324380D01*
X214788857Y-115324380D01*
X215217428Y-115038666D02*
X215693619Y-115038666D01*
X215122190Y-115324380D02*
X215455523Y-114324380D01*
X215788857Y-115324380D01*
X216122190Y-115324380D02*
X216122190Y-114324380D01*
X216598380Y-115324380D02*
X216598380Y-114324380D01*
X217169809Y-115324380D01*
X217169809Y-114324380D01*
X219496000Y-115276761D02*
X219638857Y-115324380D01*
X219876952Y-115324380D01*
X219972190Y-115276761D01*
X220019809Y-115229142D01*
X220067428Y-115133904D01*
X220067428Y-115038666D01*
X220019809Y-114943428D01*
X219972190Y-114895809D01*
X219876952Y-114848190D01*
X219686476Y-114800571D01*
X219591238Y-114752952D01*
X219543619Y-114705333D01*
X219496000Y-114610095D01*
X219496000Y-114514857D01*
X219543619Y-114419619D01*
X219591238Y-114372000D01*
X219686476Y-114324380D01*
X219924571Y-114324380D01*
X220067428Y-114372000D01*
X220400761Y-114324380D02*
X220638857Y-115324380D01*
X220829333Y-114610095D01*
X221019809Y-115324380D01*
X221257904Y-114324380D01*
X221638857Y-115324380D02*
X221638857Y-114324380D01*
X221972190Y-114324380D02*
X222543619Y-114324380D01*
X222257904Y-115324380D02*
X222257904Y-114324380D01*
X223448380Y-115229142D02*
X223400761Y-115276761D01*
X223257904Y-115324380D01*
X223162666Y-115324380D01*
X223019809Y-115276761D01*
X222924571Y-115181523D01*
X222876952Y-115086285D01*
X222829333Y-114895809D01*
X222829333Y-114752952D01*
X222876952Y-114562476D01*
X222924571Y-114467238D01*
X223019809Y-114372000D01*
X223162666Y-114324380D01*
X223257904Y-114324380D01*
X223400761Y-114372000D01*
X223448380Y-114419619D01*
X223876952Y-115324380D02*
X223876952Y-114324380D01*
X223876952Y-114800571D02*
X224448380Y-114800571D01*
X224448380Y-115324380D02*
X224448380Y-114324380D01*
%TO.C,J11*%
X162248380Y-61827523D02*
X162962666Y-61827523D01*
X163105523Y-61875142D01*
X163200761Y-61970380D01*
X163248380Y-62113238D01*
X163248380Y-62208476D01*
X163248380Y-60827523D02*
X163248380Y-61398952D01*
X163248380Y-61113238D02*
X162248380Y-61113238D01*
X162391238Y-61208476D01*
X162486476Y-61303714D01*
X162534095Y-61398952D01*
X163248380Y-59875142D02*
X163248380Y-60446571D01*
X163248380Y-60160857D02*
X162248380Y-60160857D01*
X162391238Y-60256095D01*
X162486476Y-60351333D01*
X162534095Y-60446571D01*
%TO.C,J10*%
X234892380Y-55985523D02*
X235606666Y-55985523D01*
X235749523Y-56033142D01*
X235844761Y-56128380D01*
X235892380Y-56271238D01*
X235892380Y-56366476D01*
X235892380Y-54985523D02*
X235892380Y-55556952D01*
X235892380Y-55271238D02*
X234892380Y-55271238D01*
X235035238Y-55366476D01*
X235130476Y-55461714D01*
X235178095Y-55556952D01*
X234892380Y-54366476D02*
X234892380Y-54271238D01*
X234940000Y-54176000D01*
X234987619Y-54128380D01*
X235082857Y-54080761D01*
X235273333Y-54033142D01*
X235511428Y-54033142D01*
X235701904Y-54080761D01*
X235797142Y-54128380D01*
X235844761Y-54176000D01*
X235892380Y-54271238D01*
X235892380Y-54366476D01*
X235844761Y-54461714D01*
X235797142Y-54509333D01*
X235701904Y-54556952D01*
X235511428Y-54604571D01*
X235273333Y-54604571D01*
X235082857Y-54556952D01*
X234987619Y-54509333D01*
X234940000Y-54461714D01*
X234892380Y-54366476D01*
%TO.C,J1*%
X171656333Y-180807619D02*
X171656333Y-180093333D01*
X171703952Y-179950476D01*
X171799190Y-179855238D01*
X171942047Y-179807619D01*
X172037285Y-179807619D01*
X170656333Y-179807619D02*
X171227761Y-179807619D01*
X170942047Y-179807619D02*
X170942047Y-180807619D01*
X171037285Y-180664761D01*
X171132523Y-180569523D01*
X171227761Y-180521904D01*
D19*
X166729523Y-177085714D02*
X166915238Y-177142857D01*
X167224761Y-177142857D01*
X167348571Y-177085714D01*
X167410476Y-177028571D01*
X167472380Y-176914285D01*
X167472380Y-176800000D01*
X167410476Y-176685714D01*
X167348571Y-176628571D01*
X167224761Y-176571428D01*
X166977142Y-176514285D01*
X166853333Y-176457142D01*
X166791428Y-176400000D01*
X166729523Y-176285714D01*
X166729523Y-176171428D01*
X166791428Y-176057142D01*
X166853333Y-176000000D01*
X166977142Y-175942857D01*
X167286666Y-175942857D01*
X167472380Y-176000000D01*
X168648571Y-177142857D02*
X168029523Y-177142857D01*
X168029523Y-175942857D01*
X168772380Y-177257142D02*
X169762857Y-177257142D01*
X170010476Y-177085714D02*
X170196190Y-177142857D01*
X170505714Y-177142857D01*
X170629523Y-177085714D01*
X170691428Y-177028571D01*
X170753333Y-176914285D01*
X170753333Y-176800000D01*
X170691428Y-176685714D01*
X170629523Y-176628571D01*
X170505714Y-176571428D01*
X170258095Y-176514285D01*
X170134285Y-176457142D01*
X170072380Y-176400000D01*
X170010476Y-176285714D01*
X170010476Y-176171428D01*
X170072380Y-176057142D01*
X170134285Y-176000000D01*
X170258095Y-175942857D01*
X170567619Y-175942857D01*
X170753333Y-176000000D01*
X171186666Y-175942857D02*
X171496190Y-177142857D01*
X171743809Y-176285714D01*
X171991428Y-177142857D01*
X172300952Y-175942857D01*
X172796190Y-177142857D02*
X172796190Y-175942857D01*
X173229523Y-175942857D02*
X173972380Y-175942857D01*
X173600952Y-177142857D02*
X173600952Y-175942857D01*
X175148571Y-177028571D02*
X175086666Y-177085714D01*
X174900952Y-177142857D01*
X174777142Y-177142857D01*
X174591428Y-177085714D01*
X174467619Y-176971428D01*
X174405714Y-176857142D01*
X174343809Y-176628571D01*
X174343809Y-176457142D01*
X174405714Y-176228571D01*
X174467619Y-176114285D01*
X174591428Y-176000000D01*
X174777142Y-175942857D01*
X174900952Y-175942857D01*
X175086666Y-176000000D01*
X175148571Y-176057142D01*
X175705714Y-177142857D02*
X175705714Y-175942857D01*
X175705714Y-176514285D02*
X176448571Y-176514285D01*
X176448571Y-177142857D02*
X176448571Y-175942857D01*
%TO.C,J2*%
D17*
X183086333Y-180807619D02*
X183086333Y-180093333D01*
X183133952Y-179950476D01*
X183229190Y-179855238D01*
X183372047Y-179807619D01*
X183467285Y-179807619D01*
X182657761Y-180712380D02*
X182610142Y-180760000D01*
X182514904Y-180807619D01*
X182276809Y-180807619D01*
X182181571Y-180760000D01*
X182133952Y-180712380D01*
X182086333Y-180617142D01*
X182086333Y-180521904D01*
X182133952Y-180379047D01*
X182705380Y-179807619D01*
X182086333Y-179807619D01*
D19*
X178212857Y-175992857D02*
X178955714Y-175992857D01*
X178584285Y-177192857D02*
X178584285Y-175992857D01*
X179389047Y-177192857D02*
X179389047Y-175992857D01*
X179822380Y-176850000D01*
X180255714Y-175992857D01*
X180255714Y-177192857D01*
X180565238Y-177307142D02*
X181555714Y-177307142D01*
X181803333Y-177135714D02*
X181989047Y-177192857D01*
X182298571Y-177192857D01*
X182422380Y-177135714D01*
X182484285Y-177078571D01*
X182546190Y-176964285D01*
X182546190Y-176850000D01*
X182484285Y-176735714D01*
X182422380Y-176678571D01*
X182298571Y-176621428D01*
X182050952Y-176564285D01*
X181927142Y-176507142D01*
X181865238Y-176450000D01*
X181803333Y-176335714D01*
X181803333Y-176221428D01*
X181865238Y-176107142D01*
X181927142Y-176050000D01*
X182050952Y-175992857D01*
X182360476Y-175992857D01*
X182546190Y-176050000D01*
X182979523Y-175992857D02*
X183289047Y-177192857D01*
X183536666Y-176335714D01*
X183784285Y-177192857D01*
X184093809Y-175992857D01*
X184589047Y-177192857D02*
X184589047Y-175992857D01*
X185022380Y-175992857D02*
X185765238Y-175992857D01*
X185393809Y-177192857D02*
X185393809Y-175992857D01*
X186941428Y-177078571D02*
X186879523Y-177135714D01*
X186693809Y-177192857D01*
X186570000Y-177192857D01*
X186384285Y-177135714D01*
X186260476Y-177021428D01*
X186198571Y-176907142D01*
X186136666Y-176678571D01*
X186136666Y-176507142D01*
X186198571Y-176278571D01*
X186260476Y-176164285D01*
X186384285Y-176050000D01*
X186570000Y-175992857D01*
X186693809Y-175992857D01*
X186879523Y-176050000D01*
X186941428Y-176107142D01*
X187498571Y-177192857D02*
X187498571Y-175992857D01*
X187498571Y-176564285D02*
X188241428Y-176564285D01*
X188241428Y-177192857D02*
X188241428Y-175992857D01*
%TO.C,J4*%
D17*
X206615333Y-109059619D02*
X206615333Y-108345333D01*
X206662952Y-108202476D01*
X206758190Y-108107238D01*
X206901047Y-108059619D01*
X206996285Y-108059619D01*
X205710571Y-108726285D02*
X205710571Y-108059619D01*
X205948666Y-109107238D02*
X206186761Y-108392952D01*
X205567714Y-108392952D01*
D19*
X200020476Y-104092857D02*
X200763333Y-104092857D01*
X200391904Y-105292857D02*
X200391904Y-104092857D01*
X201196666Y-105292857D02*
X201196666Y-104092857D01*
X201630000Y-104950000D01*
X202063333Y-104092857D01*
X202063333Y-105292857D01*
X202372857Y-105407142D02*
X203363333Y-105407142D01*
X203672857Y-105292857D02*
X203672857Y-104092857D01*
X203982380Y-104092857D01*
X204168095Y-104150000D01*
X204291904Y-104264285D01*
X204353809Y-104378571D01*
X204415714Y-104607142D01*
X204415714Y-104778571D01*
X204353809Y-105007142D01*
X204291904Y-105121428D01*
X204168095Y-105235714D01*
X203982380Y-105292857D01*
X203672857Y-105292857D01*
X205715714Y-105292857D02*
X205282380Y-104721428D01*
X204972857Y-105292857D02*
X204972857Y-104092857D01*
X205468095Y-104092857D01*
X205591904Y-104150000D01*
X205653809Y-104207142D01*
X205715714Y-104321428D01*
X205715714Y-104492857D01*
X205653809Y-104607142D01*
X205591904Y-104664285D01*
X205468095Y-104721428D01*
X204972857Y-104721428D01*
X206520476Y-104092857D02*
X206768095Y-104092857D01*
X206891904Y-104150000D01*
X207015714Y-104264285D01*
X207077619Y-104492857D01*
X207077619Y-104892857D01*
X207015714Y-105121428D01*
X206891904Y-105235714D01*
X206768095Y-105292857D01*
X206520476Y-105292857D01*
X206396666Y-105235714D01*
X206272857Y-105121428D01*
X206210952Y-104892857D01*
X206210952Y-104492857D01*
X206272857Y-104264285D01*
X206396666Y-104150000D01*
X206520476Y-104092857D01*
X208315714Y-104150000D02*
X208191904Y-104092857D01*
X208006190Y-104092857D01*
X207820476Y-104150000D01*
X207696666Y-104264285D01*
X207634761Y-104378571D01*
X207572857Y-104607142D01*
X207572857Y-104778571D01*
X207634761Y-105007142D01*
X207696666Y-105121428D01*
X207820476Y-105235714D01*
X208006190Y-105292857D01*
X208130000Y-105292857D01*
X208315714Y-105235714D01*
X208377619Y-105178571D01*
X208377619Y-104778571D01*
X208130000Y-104778571D01*
X208934761Y-104092857D02*
X208934761Y-105064285D01*
X208996666Y-105178571D01*
X209058571Y-105235714D01*
X209182380Y-105292857D01*
X209430000Y-105292857D01*
X209553809Y-105235714D01*
X209615714Y-105178571D01*
X209677619Y-105064285D01*
X209677619Y-104092857D01*
X210296666Y-104664285D02*
X210730000Y-104664285D01*
X210915714Y-105292857D02*
X210296666Y-105292857D01*
X210296666Y-104092857D01*
X210915714Y-104092857D01*
%TO.C,J6*%
D17*
X186445333Y-109059619D02*
X186445333Y-108345333D01*
X186492952Y-108202476D01*
X186588190Y-108107238D01*
X186731047Y-108059619D01*
X186826285Y-108059619D01*
X185540571Y-109059619D02*
X185731047Y-109059619D01*
X185826285Y-109012000D01*
X185873904Y-108964380D01*
X185969142Y-108821523D01*
X186016761Y-108631047D01*
X186016761Y-108250095D01*
X185969142Y-108154857D01*
X185921523Y-108107238D01*
X185826285Y-108059619D01*
X185635809Y-108059619D01*
X185540571Y-108107238D01*
X185492952Y-108154857D01*
X185445333Y-108250095D01*
X185445333Y-108488190D01*
X185492952Y-108583428D01*
X185540571Y-108631047D01*
X185635809Y-108678666D01*
X185826285Y-108678666D01*
X185921523Y-108631047D01*
X185969142Y-108583428D01*
X186016761Y-108488190D01*
D19*
X180819142Y-105267714D02*
X181004857Y-105324857D01*
X181314380Y-105324857D01*
X181438190Y-105267714D01*
X181500095Y-105210571D01*
X181562000Y-105096285D01*
X181562000Y-104982000D01*
X181500095Y-104867714D01*
X181438190Y-104810571D01*
X181314380Y-104753428D01*
X181066761Y-104696285D01*
X180942952Y-104639142D01*
X180881047Y-104582000D01*
X180819142Y-104467714D01*
X180819142Y-104353428D01*
X180881047Y-104239142D01*
X180942952Y-104182000D01*
X181066761Y-104124857D01*
X181376285Y-104124857D01*
X181562000Y-104182000D01*
X182738190Y-105324857D02*
X182119142Y-105324857D01*
X182119142Y-104124857D01*
X182862000Y-105439142D02*
X183852476Y-105439142D01*
X184162000Y-105324857D02*
X184162000Y-104124857D01*
X184471523Y-104124857D01*
X184657238Y-104182000D01*
X184781047Y-104296285D01*
X184842952Y-104410571D01*
X184904857Y-104639142D01*
X184904857Y-104810571D01*
X184842952Y-105039142D01*
X184781047Y-105153428D01*
X184657238Y-105267714D01*
X184471523Y-105324857D01*
X184162000Y-105324857D01*
X186204857Y-105324857D02*
X185771523Y-104753428D01*
X185462000Y-105324857D02*
X185462000Y-104124857D01*
X185957238Y-104124857D01*
X186081047Y-104182000D01*
X186142952Y-104239142D01*
X186204857Y-104353428D01*
X186204857Y-104524857D01*
X186142952Y-104639142D01*
X186081047Y-104696285D01*
X185957238Y-104753428D01*
X185462000Y-104753428D01*
X187009619Y-104124857D02*
X187257238Y-104124857D01*
X187381047Y-104182000D01*
X187504857Y-104296285D01*
X187566761Y-104524857D01*
X187566761Y-104924857D01*
X187504857Y-105153428D01*
X187381047Y-105267714D01*
X187257238Y-105324857D01*
X187009619Y-105324857D01*
X186885809Y-105267714D01*
X186762000Y-105153428D01*
X186700095Y-104924857D01*
X186700095Y-104524857D01*
X186762000Y-104296285D01*
X186885809Y-104182000D01*
X187009619Y-104124857D01*
X188804857Y-104182000D02*
X188681047Y-104124857D01*
X188495333Y-104124857D01*
X188309619Y-104182000D01*
X188185809Y-104296285D01*
X188123904Y-104410571D01*
X188062000Y-104639142D01*
X188062000Y-104810571D01*
X188123904Y-105039142D01*
X188185809Y-105153428D01*
X188309619Y-105267714D01*
X188495333Y-105324857D01*
X188619142Y-105324857D01*
X188804857Y-105267714D01*
X188866761Y-105210571D01*
X188866761Y-104810571D01*
X188619142Y-104810571D01*
X189423904Y-104124857D02*
X189423904Y-105096285D01*
X189485809Y-105210571D01*
X189547714Y-105267714D01*
X189671523Y-105324857D01*
X189919142Y-105324857D01*
X190042952Y-105267714D01*
X190104857Y-105210571D01*
X190166761Y-105096285D01*
X190166761Y-104124857D01*
X190785809Y-104696285D02*
X191219142Y-104696285D01*
X191404857Y-105324857D02*
X190785809Y-105324857D01*
X190785809Y-104124857D01*
X191404857Y-104124857D01*
%TO.C,J3*%
D17*
X216775333Y-109059619D02*
X216775333Y-108345333D01*
X216822952Y-108202476D01*
X216918190Y-108107238D01*
X217061047Y-108059619D01*
X217156285Y-108059619D01*
X216394380Y-109059619D02*
X215775333Y-109059619D01*
X216108666Y-108678666D01*
X215965809Y-108678666D01*
X215870571Y-108631047D01*
X215822952Y-108583428D01*
X215775333Y-108488190D01*
X215775333Y-108250095D01*
X215822952Y-108154857D01*
X215870571Y-108107238D01*
X215965809Y-108059619D01*
X216251523Y-108059619D01*
X216346761Y-108107238D01*
X216394380Y-108154857D01*
D19*
X213390000Y-104122857D02*
X214132857Y-104122857D01*
X213761428Y-105322857D02*
X213761428Y-104122857D01*
X214566190Y-105322857D02*
X214566190Y-104122857D01*
X214999523Y-104980000D01*
X215432857Y-104122857D01*
X215432857Y-105322857D01*
X215742380Y-105437142D02*
X216732857Y-105437142D01*
X217042380Y-105322857D02*
X217042380Y-104122857D01*
X217475714Y-104980000D01*
X217909047Y-104122857D01*
X217909047Y-105322857D01*
X218466190Y-104980000D02*
X219085238Y-104980000D01*
X218342380Y-105322857D02*
X218775714Y-104122857D01*
X219209047Y-105322857D01*
X219642380Y-105322857D02*
X219642380Y-104122857D01*
X220261428Y-105322857D02*
X220261428Y-104122857D01*
X221004285Y-105322857D01*
X221004285Y-104122857D01*
%TO.C,J5*%
D17*
X175015333Y-109059619D02*
X175015333Y-108345333D01*
X175062952Y-108202476D01*
X175158190Y-108107238D01*
X175301047Y-108059619D01*
X175396285Y-108059619D01*
X174062952Y-109059619D02*
X174539142Y-109059619D01*
X174586761Y-108583428D01*
X174539142Y-108631047D01*
X174443904Y-108678666D01*
X174205809Y-108678666D01*
X174110571Y-108631047D01*
X174062952Y-108583428D01*
X174015333Y-108488190D01*
X174015333Y-108250095D01*
X174062952Y-108154857D01*
X174110571Y-108107238D01*
X174205809Y-108059619D01*
X174443904Y-108059619D01*
X174539142Y-108107238D01*
X174586761Y-108154857D01*
D19*
X170998666Y-105267714D02*
X171184380Y-105324857D01*
X171493904Y-105324857D01*
X171617714Y-105267714D01*
X171679619Y-105210571D01*
X171741523Y-105096285D01*
X171741523Y-104982000D01*
X171679619Y-104867714D01*
X171617714Y-104810571D01*
X171493904Y-104753428D01*
X171246285Y-104696285D01*
X171122476Y-104639142D01*
X171060571Y-104582000D01*
X170998666Y-104467714D01*
X170998666Y-104353428D01*
X171060571Y-104239142D01*
X171122476Y-104182000D01*
X171246285Y-104124857D01*
X171555809Y-104124857D01*
X171741523Y-104182000D01*
X172917714Y-105324857D02*
X172298666Y-105324857D01*
X172298666Y-104124857D01*
X173041523Y-105439142D02*
X174032000Y-105439142D01*
X174341523Y-105324857D02*
X174341523Y-104124857D01*
X174774857Y-104982000D01*
X175208190Y-104124857D01*
X175208190Y-105324857D01*
X175765333Y-104982000D02*
X176384380Y-104982000D01*
X175641523Y-105324857D02*
X176074857Y-104124857D01*
X176508190Y-105324857D01*
X176941523Y-105324857D02*
X176941523Y-104124857D01*
X177560571Y-105324857D02*
X177560571Y-104124857D01*
X178303428Y-105324857D01*
X178303428Y-104124857D01*
%TO.C,A1*%
D17*
X174734857Y-166527142D02*
X174949142Y-166598571D01*
X175306285Y-166598571D01*
X175449142Y-166527142D01*
X175520571Y-166455714D01*
X175592000Y-166312857D01*
X175592000Y-166170000D01*
X175520571Y-166027142D01*
X175449142Y-165955714D01*
X175306285Y-165884285D01*
X175020571Y-165812857D01*
X174877714Y-165741428D01*
X174806285Y-165670000D01*
X174734857Y-165527142D01*
X174734857Y-165384285D01*
X174806285Y-165241428D01*
X174877714Y-165170000D01*
X175020571Y-165098571D01*
X175377714Y-165098571D01*
X175592000Y-165170000D01*
X176020571Y-165598571D02*
X176592000Y-165598571D01*
X176234857Y-165098571D02*
X176234857Y-166384285D01*
X176306285Y-166527142D01*
X176449142Y-166598571D01*
X176592000Y-166598571D01*
X177092000Y-166598571D02*
X177092000Y-165598571D01*
X177092000Y-165884285D02*
X177163428Y-165741428D01*
X177234857Y-165670000D01*
X177377714Y-165598571D01*
X177520571Y-165598571D01*
X178663428Y-166598571D02*
X178663428Y-165812857D01*
X178592000Y-165670000D01*
X178449142Y-165598571D01*
X178163428Y-165598571D01*
X178020571Y-165670000D01*
X178663428Y-166527142D02*
X178520571Y-166598571D01*
X178163428Y-166598571D01*
X178020571Y-166527142D01*
X177949142Y-166384285D01*
X177949142Y-166241428D01*
X178020571Y-166098571D01*
X178163428Y-166027142D01*
X178520571Y-166027142D01*
X178663428Y-165955714D01*
X179163428Y-165598571D02*
X179734857Y-165598571D01*
X179377714Y-165098571D02*
X179377714Y-166384285D01*
X179449142Y-166527142D01*
X179592000Y-166598571D01*
X179734857Y-166598571D01*
X180449142Y-166598571D02*
X180306285Y-166527142D01*
X180234857Y-166455714D01*
X180163428Y-166312857D01*
X180163428Y-165884285D01*
X180234857Y-165741428D01*
X180306285Y-165670000D01*
X180449142Y-165598571D01*
X180663428Y-165598571D01*
X180806285Y-165670000D01*
X180877714Y-165741428D01*
X180949142Y-165884285D01*
X180949142Y-166312857D01*
X180877714Y-166455714D01*
X180806285Y-166527142D01*
X180663428Y-166598571D01*
X180449142Y-166598571D01*
X182306285Y-166598571D02*
X181592000Y-166598571D01*
X181592000Y-165098571D01*
X183020571Y-166598571D02*
X182877714Y-166527142D01*
X182806285Y-166455714D01*
X182734857Y-166312857D01*
X182734857Y-165884285D01*
X182806285Y-165741428D01*
X182877714Y-165670000D01*
X183020571Y-165598571D01*
X183234857Y-165598571D01*
X183377714Y-165670000D01*
X183449142Y-165741428D01*
X183520571Y-165884285D01*
X183520571Y-166312857D01*
X183449142Y-166455714D01*
X183377714Y-166527142D01*
X183234857Y-166598571D01*
X183020571Y-166598571D01*
X184806285Y-165598571D02*
X184806285Y-166812857D01*
X184734857Y-166955714D01*
X184663428Y-167027142D01*
X184520571Y-167098571D01*
X184306285Y-167098571D01*
X184163428Y-167027142D01*
X184806285Y-166527142D02*
X184663428Y-166598571D01*
X184377714Y-166598571D01*
X184234857Y-166527142D01*
X184163428Y-166455714D01*
X184092000Y-166312857D01*
X184092000Y-165884285D01*
X184163428Y-165741428D01*
X184234857Y-165670000D01*
X184377714Y-165598571D01*
X184663428Y-165598571D01*
X184806285Y-165670000D01*
X186163428Y-165598571D02*
X186163428Y-166812857D01*
X186092000Y-166955714D01*
X186020571Y-167027142D01*
X185877714Y-167098571D01*
X185663428Y-167098571D01*
X185520571Y-167027142D01*
X186163428Y-166527142D02*
X186020571Y-166598571D01*
X185734857Y-166598571D01*
X185592000Y-166527142D01*
X185520571Y-166455714D01*
X185449142Y-166312857D01*
X185449142Y-165884285D01*
X185520571Y-165741428D01*
X185592000Y-165670000D01*
X185734857Y-165598571D01*
X186020571Y-165598571D01*
X186163428Y-165670000D01*
X187449142Y-166527142D02*
X187306285Y-166598571D01*
X187020571Y-166598571D01*
X186877714Y-166527142D01*
X186806285Y-166384285D01*
X186806285Y-165812857D01*
X186877714Y-165670000D01*
X187020571Y-165598571D01*
X187306285Y-165598571D01*
X187449142Y-165670000D01*
X187520571Y-165812857D01*
X187520571Y-165955714D01*
X186806285Y-166098571D01*
X188163428Y-166598571D02*
X188163428Y-165598571D01*
X188163428Y-165884285D02*
X188234857Y-165741428D01*
X188306285Y-165670000D01*
X188449142Y-165598571D01*
X188592000Y-165598571D01*
X180959142Y-143399476D02*
X180959142Y-144923285D01*
X181530571Y-145875666D02*
X180959142Y-147399476D01*
X180387714Y-145875666D01*
X182197238Y-149875666D02*
X180578190Y-149875666D01*
X180387714Y-149970904D01*
X180292476Y-150066142D01*
X180197238Y-150256619D01*
X180197238Y-150637571D01*
X180292476Y-150828047D01*
X180387714Y-150923285D01*
X180578190Y-151018523D01*
X182197238Y-151018523D01*
X180197238Y-151970904D02*
X182197238Y-151970904D01*
X182197238Y-152732809D01*
X182102000Y-152923285D01*
X182006761Y-153018523D01*
X181816285Y-153113761D01*
X181530571Y-153113761D01*
X181340095Y-153018523D01*
X181244857Y-152923285D01*
X181149619Y-152732809D01*
X181149619Y-151970904D01*
D18*
X195361428Y-134365952D02*
X195361428Y-133604047D01*
X195361428Y-137667952D02*
X195361428Y-136906047D01*
X195742380Y-137287000D02*
X194980476Y-137287000D01*
D17*
X194955238Y-139890000D02*
X194907619Y-140032857D01*
X194907619Y-140270952D01*
X194955238Y-140366190D01*
X195002857Y-140413809D01*
X195098095Y-140461428D01*
X195193333Y-140461428D01*
X195288571Y-140413809D01*
X195336190Y-140366190D01*
X195383809Y-140270952D01*
X195431428Y-140080476D01*
X195479047Y-139985238D01*
X195526666Y-139937619D01*
X195621904Y-139890000D01*
X195717142Y-139890000D01*
X195812380Y-139937619D01*
X195860000Y-139985238D01*
X195907619Y-140080476D01*
X195907619Y-140318571D01*
X195860000Y-140461428D01*
X195907619Y-140794761D02*
X194907619Y-141032857D01*
X195621904Y-141223333D01*
X194907619Y-141413809D01*
X195907619Y-141651904D01*
X194907619Y-142032857D02*
X195907619Y-142032857D01*
X195907619Y-142366190D02*
X195907619Y-142937619D01*
X194907619Y-142651904D02*
X195907619Y-142651904D01*
X195002857Y-143842380D02*
X194955238Y-143794761D01*
X194907619Y-143651904D01*
X194907619Y-143556666D01*
X194955238Y-143413809D01*
X195050476Y-143318571D01*
X195145714Y-143270952D01*
X195336190Y-143223333D01*
X195479047Y-143223333D01*
X195669523Y-143270952D01*
X195764761Y-143318571D01*
X195860000Y-143413809D01*
X195907619Y-143556666D01*
X195907619Y-143651904D01*
X195860000Y-143794761D01*
X195812380Y-143842380D01*
X194907619Y-144270952D02*
X195907619Y-144270952D01*
X195431428Y-144270952D02*
X195431428Y-144842380D01*
X194907619Y-144842380D02*
X195907619Y-144842380D01*
X167366380Y-137159809D02*
X166366380Y-137159809D01*
X167080666Y-136826476D01*
X166366380Y-136493142D01*
X167366380Y-136493142D01*
X167080666Y-136064571D02*
X167080666Y-135588380D01*
X167366380Y-136159809D02*
X166366380Y-135826476D01*
X167366380Y-135493142D01*
X167366380Y-135159809D02*
X166366380Y-135159809D01*
X167366380Y-134683619D02*
X166366380Y-134683619D01*
X167366380Y-134112190D01*
X166366380Y-134112190D01*
X167366380Y-145001904D02*
X166366380Y-145001904D01*
X166366380Y-144763809D01*
X166414000Y-144620952D01*
X166509238Y-144525714D01*
X166604476Y-144478095D01*
X166794952Y-144430476D01*
X166937809Y-144430476D01*
X167128285Y-144478095D01*
X167223523Y-144525714D01*
X167318761Y-144620952D01*
X167366380Y-144763809D01*
X167366380Y-145001904D01*
X167366380Y-143430476D02*
X166890190Y-143763809D01*
X167366380Y-144001904D02*
X166366380Y-144001904D01*
X166366380Y-143620952D01*
X166414000Y-143525714D01*
X166461619Y-143478095D01*
X166556857Y-143430476D01*
X166699714Y-143430476D01*
X166794952Y-143478095D01*
X166842571Y-143525714D01*
X166890190Y-143620952D01*
X166890190Y-144001904D01*
X166366380Y-142811428D02*
X166366380Y-142620952D01*
X166414000Y-142525714D01*
X166509238Y-142430476D01*
X166699714Y-142382857D01*
X167033047Y-142382857D01*
X167223523Y-142430476D01*
X167318761Y-142525714D01*
X167366380Y-142620952D01*
X167366380Y-142811428D01*
X167318761Y-142906666D01*
X167223523Y-143001904D01*
X167033047Y-143049523D01*
X166699714Y-143049523D01*
X166509238Y-143001904D01*
X166414000Y-142906666D01*
X166366380Y-142811428D01*
X166414000Y-141430476D02*
X166366380Y-141525714D01*
X166366380Y-141668571D01*
X166414000Y-141811428D01*
X166509238Y-141906666D01*
X166604476Y-141954285D01*
X166794952Y-142001904D01*
X166937809Y-142001904D01*
X167128285Y-141954285D01*
X167223523Y-141906666D01*
X167318761Y-141811428D01*
X167366380Y-141668571D01*
X167366380Y-141573333D01*
X167318761Y-141430476D01*
X167271142Y-141382857D01*
X166937809Y-141382857D01*
X166937809Y-141573333D01*
X166366380Y-140954285D02*
X167175904Y-140954285D01*
X167271142Y-140906666D01*
X167318761Y-140859047D01*
X167366380Y-140763809D01*
X167366380Y-140573333D01*
X167318761Y-140478095D01*
X167271142Y-140430476D01*
X167175904Y-140382857D01*
X166366380Y-140382857D01*
X166842571Y-139906666D02*
X166842571Y-139573333D01*
X167366380Y-139430476D02*
X167366380Y-139906666D01*
X166366380Y-139906666D01*
X166366380Y-139430476D01*
%TO.C,J9*%
X184793285Y-98702380D02*
X185364714Y-98702380D01*
X185079000Y-99702380D02*
X185079000Y-98702380D01*
X185698047Y-99702380D02*
X185698047Y-98702380D01*
X186031380Y-99416666D01*
X186364714Y-98702380D01*
X186364714Y-99702380D01*
X186602809Y-99797619D02*
X187364714Y-99797619D01*
X187936142Y-99178571D02*
X188079000Y-99226190D01*
X188126619Y-99273809D01*
X188174238Y-99369047D01*
X188174238Y-99511904D01*
X188126619Y-99607142D01*
X188079000Y-99654761D01*
X187983761Y-99702380D01*
X187602809Y-99702380D01*
X187602809Y-98702380D01*
X187936142Y-98702380D01*
X188031380Y-98750000D01*
X188079000Y-98797619D01*
X188126619Y-98892857D01*
X188126619Y-98988095D01*
X188079000Y-99083333D01*
X188031380Y-99130952D01*
X187936142Y-99178571D01*
X187602809Y-99178571D01*
X188555190Y-99416666D02*
X189031380Y-99416666D01*
X188459952Y-99702380D02*
X188793285Y-98702380D01*
X189126619Y-99702380D01*
X189317095Y-98702380D02*
X189888523Y-98702380D01*
X189602809Y-99702380D02*
X189602809Y-98702380D01*
X190079000Y-98702380D02*
X190650428Y-98702380D01*
X190364714Y-99702380D02*
X190364714Y-98702380D01*
X190745666Y-99797619D02*
X191507571Y-99797619D01*
X191936142Y-98702380D02*
X192031380Y-98702380D01*
X192126619Y-98750000D01*
X192174238Y-98797619D01*
X192221857Y-98892857D01*
X192269476Y-99083333D01*
X192269476Y-99321428D01*
X192221857Y-99511904D01*
X192174238Y-99607142D01*
X192126619Y-99654761D01*
X192031380Y-99702380D01*
X191936142Y-99702380D01*
X191840904Y-99654761D01*
X191793285Y-99607142D01*
X191745666Y-99511904D01*
X191698047Y-99321428D01*
X191698047Y-99083333D01*
X191745666Y-98892857D01*
X191793285Y-98797619D01*
X191840904Y-98750000D01*
X191936142Y-98702380D01*
X188245666Y-96202380D02*
X188245666Y-96916666D01*
X188198047Y-97059523D01*
X188102809Y-97154761D01*
X187959952Y-97202380D01*
X187864714Y-97202380D01*
X188769476Y-97202380D02*
X188959952Y-97202380D01*
X189055190Y-97154761D01*
X189102809Y-97107142D01*
X189198047Y-96964285D01*
X189245666Y-96773809D01*
X189245666Y-96392857D01*
X189198047Y-96297619D01*
X189150428Y-96250000D01*
X189055190Y-96202380D01*
X188864714Y-96202380D01*
X188769476Y-96250000D01*
X188721857Y-96297619D01*
X188674238Y-96392857D01*
X188674238Y-96630952D01*
X188721857Y-96726190D01*
X188769476Y-96773809D01*
X188864714Y-96821428D01*
X189055190Y-96821428D01*
X189150428Y-96773809D01*
X189198047Y-96726190D01*
X189245666Y-96630952D01*
%TO.C,J8*%
X202358952Y-99781761D02*
X202501809Y-99829380D01*
X202739904Y-99829380D01*
X202835142Y-99781761D01*
X202882761Y-99734142D01*
X202930380Y-99638904D01*
X202930380Y-99543666D01*
X202882761Y-99448428D01*
X202835142Y-99400809D01*
X202739904Y-99353190D01*
X202549428Y-99305571D01*
X202454190Y-99257952D01*
X202406571Y-99210333D01*
X202358952Y-99115095D01*
X202358952Y-99019857D01*
X202406571Y-98924619D01*
X202454190Y-98877000D01*
X202549428Y-98829380D01*
X202787523Y-98829380D01*
X202930380Y-98877000D01*
X203835142Y-99829380D02*
X203358952Y-99829380D01*
X203358952Y-98829380D01*
X203930380Y-99924619D02*
X204692285Y-99924619D01*
X205263714Y-99305571D02*
X205406571Y-99353190D01*
X205454190Y-99400809D01*
X205501809Y-99496047D01*
X205501809Y-99638904D01*
X205454190Y-99734142D01*
X205406571Y-99781761D01*
X205311333Y-99829380D01*
X204930380Y-99829380D01*
X204930380Y-98829380D01*
X205263714Y-98829380D01*
X205358952Y-98877000D01*
X205406571Y-98924619D01*
X205454190Y-99019857D01*
X205454190Y-99115095D01*
X205406571Y-99210333D01*
X205358952Y-99257952D01*
X205263714Y-99305571D01*
X204930380Y-99305571D01*
X205882761Y-99543666D02*
X206358952Y-99543666D01*
X205787523Y-99829380D02*
X206120857Y-98829380D01*
X206454190Y-99829380D01*
X206644666Y-98829380D02*
X207216095Y-98829380D01*
X206930380Y-99829380D02*
X206930380Y-98829380D01*
X207406571Y-98829380D02*
X207978000Y-98829380D01*
X207692285Y-99829380D02*
X207692285Y-98829380D01*
X208073238Y-99924619D02*
X208835142Y-99924619D01*
X209597047Y-99829380D02*
X209025619Y-99829380D01*
X209311333Y-99829380D02*
X209311333Y-98829380D01*
X209216095Y-98972238D01*
X209120857Y-99067476D01*
X209025619Y-99115095D01*
X205644666Y-96329380D02*
X205644666Y-97043666D01*
X205597047Y-97186523D01*
X205501809Y-97281761D01*
X205358952Y-97329380D01*
X205263714Y-97329380D01*
X206263714Y-96757952D02*
X206168476Y-96710333D01*
X206120857Y-96662714D01*
X206073238Y-96567476D01*
X206073238Y-96519857D01*
X206120857Y-96424619D01*
X206168476Y-96377000D01*
X206263714Y-96329380D01*
X206454190Y-96329380D01*
X206549428Y-96377000D01*
X206597047Y-96424619D01*
X206644666Y-96519857D01*
X206644666Y-96567476D01*
X206597047Y-96662714D01*
X206549428Y-96710333D01*
X206454190Y-96757952D01*
X206263714Y-96757952D01*
X206168476Y-96805571D01*
X206120857Y-96853190D01*
X206073238Y-96948428D01*
X206073238Y-97138904D01*
X206120857Y-97234142D01*
X206168476Y-97281761D01*
X206263714Y-97329380D01*
X206454190Y-97329380D01*
X206549428Y-97281761D01*
X206597047Y-97234142D01*
X206644666Y-97138904D01*
X206644666Y-96948428D01*
X206597047Y-96853190D01*
X206549428Y-96805571D01*
X206454190Y-96757952D01*
%TO.C,J7*%
X193468952Y-99781761D02*
X193611809Y-99829380D01*
X193849904Y-99829380D01*
X193945142Y-99781761D01*
X193992761Y-99734142D01*
X194040380Y-99638904D01*
X194040380Y-99543666D01*
X193992761Y-99448428D01*
X193945142Y-99400809D01*
X193849904Y-99353190D01*
X193659428Y-99305571D01*
X193564190Y-99257952D01*
X193516571Y-99210333D01*
X193468952Y-99115095D01*
X193468952Y-99019857D01*
X193516571Y-98924619D01*
X193564190Y-98877000D01*
X193659428Y-98829380D01*
X193897523Y-98829380D01*
X194040380Y-98877000D01*
X194945142Y-99829380D02*
X194468952Y-99829380D01*
X194468952Y-98829380D01*
X195040380Y-99924619D02*
X195802285Y-99924619D01*
X196373714Y-99305571D02*
X196516571Y-99353190D01*
X196564190Y-99400809D01*
X196611809Y-99496047D01*
X196611809Y-99638904D01*
X196564190Y-99734142D01*
X196516571Y-99781761D01*
X196421333Y-99829380D01*
X196040380Y-99829380D01*
X196040380Y-98829380D01*
X196373714Y-98829380D01*
X196468952Y-98877000D01*
X196516571Y-98924619D01*
X196564190Y-99019857D01*
X196564190Y-99115095D01*
X196516571Y-99210333D01*
X196468952Y-99257952D01*
X196373714Y-99305571D01*
X196040380Y-99305571D01*
X196992761Y-99543666D02*
X197468952Y-99543666D01*
X196897523Y-99829380D02*
X197230857Y-98829380D01*
X197564190Y-99829380D01*
X197754666Y-98829380D02*
X198326095Y-98829380D01*
X198040380Y-99829380D02*
X198040380Y-98829380D01*
X198516571Y-98829380D02*
X199088000Y-98829380D01*
X198802285Y-99829380D02*
X198802285Y-98829380D01*
X199183238Y-99924619D02*
X199945142Y-99924619D01*
X200373714Y-98829380D02*
X200468952Y-98829380D01*
X200564190Y-98877000D01*
X200611809Y-98924619D01*
X200659428Y-99019857D01*
X200707047Y-99210333D01*
X200707047Y-99448428D01*
X200659428Y-99638904D01*
X200611809Y-99734142D01*
X200564190Y-99781761D01*
X200468952Y-99829380D01*
X200373714Y-99829380D01*
X200278476Y-99781761D01*
X200230857Y-99734142D01*
X200183238Y-99638904D01*
X200135619Y-99448428D01*
X200135619Y-99210333D01*
X200183238Y-99019857D01*
X200230857Y-98924619D01*
X200278476Y-98877000D01*
X200373714Y-98829380D01*
X196754666Y-96329380D02*
X196754666Y-97043666D01*
X196707047Y-97186523D01*
X196611809Y-97281761D01*
X196468952Y-97329380D01*
X196373714Y-97329380D01*
X197135619Y-96329380D02*
X197802285Y-96329380D01*
X197373714Y-97329380D01*
%TD*%
M02*
