%TF.GenerationSoftware,KiCad,Pcbnew,5.1.9-73d0e3b20d~88~ubuntu20.04.1*%
%TF.CreationDate,2021-04-18T23:10:18-05:00*%
%TF.ProjectId,COTS,434f5453-2e6b-4696-9361-645f70636258,rev?*%
%TF.SameCoordinates,Original*%
%TF.FileFunction,Legend,Bot*%
%TF.FilePolarity,Positive*%
%FSLAX46Y46*%
G04 Gerber Fmt 4.6, Leading zero omitted, Abs format (unit mm)*
G04 Created by KiCad (PCBNEW 5.1.9-73d0e3b20d~88~ubuntu20.04.1) date 2021-04-18 23:10:18*
%MOMM*%
%LPD*%
G01*
G04 APERTURE LIST*
%ADD10C,0.100000*%
%ADD11C,0.300000*%
%ADD12C,0.010000*%
G04 APERTURE END LIST*
D10*
X216016666Y-197606666D02*
X215540476Y-197606666D01*
X216111904Y-197892380D02*
X215778571Y-196892380D01*
X215445238Y-197892380D01*
X215111904Y-197892380D02*
X215111904Y-197225714D01*
X215111904Y-197320952D02*
X215064285Y-197273333D01*
X214969047Y-197225714D01*
X214826190Y-197225714D01*
X214730952Y-197273333D01*
X214683333Y-197368571D01*
X214683333Y-197892380D01*
X214683333Y-197368571D02*
X214635714Y-197273333D01*
X214540476Y-197225714D01*
X214397619Y-197225714D01*
X214302380Y-197273333D01*
X214254761Y-197368571D01*
X214254761Y-197892380D01*
X213635714Y-197892380D02*
X213730952Y-197844761D01*
X213778571Y-197797142D01*
X213826190Y-197701904D01*
X213826190Y-197416190D01*
X213778571Y-197320952D01*
X213730952Y-197273333D01*
X213635714Y-197225714D01*
X213492857Y-197225714D01*
X213397619Y-197273333D01*
X213350000Y-197320952D01*
X213302380Y-197416190D01*
X213302380Y-197701904D01*
X213350000Y-197797142D01*
X213397619Y-197844761D01*
X213492857Y-197892380D01*
X213635714Y-197892380D01*
X212445238Y-197225714D02*
X212445238Y-198035238D01*
X212492857Y-198130476D01*
X212540476Y-198178095D01*
X212635714Y-198225714D01*
X212778571Y-198225714D01*
X212873809Y-198178095D01*
X212445238Y-197844761D02*
X212540476Y-197892380D01*
X212730952Y-197892380D01*
X212826190Y-197844761D01*
X212873809Y-197797142D01*
X212921428Y-197701904D01*
X212921428Y-197416190D01*
X212873809Y-197320952D01*
X212826190Y-197273333D01*
X212730952Y-197225714D01*
X212540476Y-197225714D01*
X212445238Y-197273333D01*
X211540476Y-197225714D02*
X211540476Y-197892380D01*
X211969047Y-197225714D02*
X211969047Y-197749523D01*
X211921428Y-197844761D01*
X211826190Y-197892380D01*
X211683333Y-197892380D01*
X211588095Y-197844761D01*
X211540476Y-197797142D01*
X211111904Y-197844761D02*
X211016666Y-197892380D01*
X210826190Y-197892380D01*
X210730952Y-197844761D01*
X210683333Y-197749523D01*
X210683333Y-197701904D01*
X210730952Y-197606666D01*
X210826190Y-197559047D01*
X210969047Y-197559047D01*
X211064285Y-197511428D01*
X211111904Y-197416190D01*
X211111904Y-197368571D01*
X211064285Y-197273333D01*
X210969047Y-197225714D01*
X210826190Y-197225714D01*
X210730952Y-197273333D01*
D11*
X187945428Y-198023142D02*
X187731142Y-198094571D01*
X187374000Y-198094571D01*
X187231142Y-198023142D01*
X187159714Y-197951714D01*
X187088285Y-197808857D01*
X187088285Y-197666000D01*
X187159714Y-197523142D01*
X187231142Y-197451714D01*
X187374000Y-197380285D01*
X187659714Y-197308857D01*
X187802571Y-197237428D01*
X187874000Y-197166000D01*
X187945428Y-197023142D01*
X187945428Y-196880285D01*
X187874000Y-196737428D01*
X187802571Y-196666000D01*
X187659714Y-196594571D01*
X187302571Y-196594571D01*
X187088285Y-196666000D01*
X186516857Y-198023142D02*
X186302571Y-198094571D01*
X185945428Y-198094571D01*
X185802571Y-198023142D01*
X185731142Y-197951714D01*
X185659714Y-197808857D01*
X185659714Y-197666000D01*
X185731142Y-197523142D01*
X185802571Y-197451714D01*
X185945428Y-197380285D01*
X186231142Y-197308857D01*
X186374000Y-197237428D01*
X186445428Y-197166000D01*
X186516857Y-197023142D01*
X186516857Y-196880285D01*
X186445428Y-196737428D01*
X186374000Y-196666000D01*
X186231142Y-196594571D01*
X185874000Y-196594571D01*
X185659714Y-196666000D01*
X185088285Y-198023142D02*
X184874000Y-198094571D01*
X184516857Y-198094571D01*
X184374000Y-198023142D01*
X184302571Y-197951714D01*
X184231142Y-197808857D01*
X184231142Y-197666000D01*
X184302571Y-197523142D01*
X184374000Y-197451714D01*
X184516857Y-197380285D01*
X184802571Y-197308857D01*
X184945428Y-197237428D01*
X185016857Y-197166000D01*
X185088285Y-197023142D01*
X185088285Y-196880285D01*
X185016857Y-196737428D01*
X184945428Y-196666000D01*
X184802571Y-196594571D01*
X184445428Y-196594571D01*
X184231142Y-196666000D01*
X182516857Y-198023142D02*
X182374000Y-198094571D01*
X182088285Y-198094571D01*
X181945428Y-198023142D01*
X181874000Y-197880285D01*
X181874000Y-197808857D01*
X181945428Y-197666000D01*
X182088285Y-197594571D01*
X182302571Y-197594571D01*
X182445428Y-197523142D01*
X182516857Y-197380285D01*
X182516857Y-197308857D01*
X182445428Y-197166000D01*
X182302571Y-197094571D01*
X182088285Y-197094571D01*
X181945428Y-197166000D01*
X180588285Y-197094571D02*
X180588285Y-198094571D01*
X181231142Y-197094571D02*
X181231142Y-197880285D01*
X181159714Y-198023142D01*
X181016857Y-198094571D01*
X180802571Y-198094571D01*
X180659714Y-198023142D01*
X180588285Y-197951714D01*
X180016857Y-198094571D02*
X179231142Y-197094571D01*
X180016857Y-197094571D02*
X179231142Y-198094571D01*
D12*
%TO.C,G\u002A\u002A\u002A*%
G36*
X212443515Y-190362154D02*
G01*
X212391803Y-190364284D01*
X212338948Y-190367419D01*
X212287242Y-190371452D01*
X212238977Y-190376276D01*
X212196447Y-190381784D01*
X212174914Y-190385322D01*
X212086963Y-190404023D01*
X212005926Y-190426707D01*
X211932800Y-190452934D01*
X211868582Y-190482265D01*
X211814267Y-190514258D01*
X211770851Y-190548476D01*
X211746864Y-190574289D01*
X211720744Y-190613570D01*
X211697153Y-190661243D01*
X211681732Y-190702048D01*
X211670486Y-190742276D01*
X211662848Y-190784712D01*
X211658541Y-190832086D01*
X211657292Y-190887125D01*
X211658191Y-190934975D01*
X211659823Y-190976791D01*
X211661891Y-191008687D01*
X211664739Y-191033440D01*
X211668713Y-191053828D01*
X211674158Y-191072630D01*
X211675929Y-191077806D01*
X211704397Y-191141627D01*
X211741793Y-191196690D01*
X211787835Y-191242643D01*
X211831075Y-191272826D01*
X211885265Y-191300761D01*
X211948754Y-191326834D01*
X212018167Y-191349999D01*
X212090131Y-191369212D01*
X212161271Y-191383426D01*
X212208900Y-191389857D01*
X212237706Y-191393271D01*
X212263831Y-191397092D01*
X212283217Y-191400695D01*
X212288726Y-191402100D01*
X212299378Y-191403497D01*
X212320408Y-191404718D01*
X212349992Y-191405758D01*
X212386309Y-191406610D01*
X212427537Y-191407266D01*
X212471852Y-191407719D01*
X212517433Y-191407964D01*
X212562457Y-191407992D01*
X212605101Y-191407796D01*
X212643544Y-191407371D01*
X212675963Y-191406708D01*
X212700535Y-191405802D01*
X212715439Y-191404644D01*
X212719096Y-191403737D01*
X212726569Y-191401842D01*
X212744529Y-191399324D01*
X212770789Y-191396431D01*
X212803168Y-191393409D01*
X212829692Y-191391242D01*
X212888263Y-191386288D01*
X212949843Y-191380290D01*
X213011606Y-191373579D01*
X213070724Y-191366487D01*
X213124368Y-191359346D01*
X213169711Y-191352486D01*
X213189975Y-191348975D01*
X213262058Y-191332716D01*
X213324451Y-191311856D01*
X213379685Y-191285251D01*
X213430292Y-191251755D01*
X213461454Y-191226142D01*
X213503007Y-191186178D01*
X213536296Y-191146133D01*
X213564936Y-191101427D01*
X213575999Y-191081025D01*
X213584627Y-191063504D01*
X213590462Y-191048077D01*
X213594175Y-191031340D01*
X213596437Y-191009888D01*
X213597921Y-190980316D01*
X213598374Y-190967617D01*
X213598817Y-190916372D01*
X213595791Y-190873610D01*
X213588546Y-190835408D01*
X213576333Y-190797841D01*
X213558401Y-190756987D01*
X213557912Y-190755971D01*
X213527938Y-190701488D01*
X213522702Y-190694382D01*
X213291575Y-190694382D01*
X213290901Y-190729591D01*
X213286050Y-190763496D01*
X213272236Y-190797524D01*
X213248598Y-190833224D01*
X213214274Y-190872150D01*
X213208337Y-190878176D01*
X213151565Y-190928172D01*
X213087564Y-190972508D01*
X213020679Y-191008288D01*
X212999475Y-191017417D01*
X212947624Y-191036477D01*
X212897959Y-191050305D01*
X212845128Y-191060196D01*
X212799450Y-191065891D01*
X212770210Y-191069254D01*
X212743218Y-191072888D01*
X212722738Y-191076200D01*
X212716900Y-191077399D01*
X212703416Y-191079017D01*
X212679193Y-191080380D01*
X212646191Y-191081484D01*
X212606371Y-191082328D01*
X212561690Y-191082907D01*
X212514110Y-191083219D01*
X212465589Y-191083261D01*
X212418086Y-191083030D01*
X212373562Y-191082522D01*
X212333975Y-191081736D01*
X212301285Y-191080667D01*
X212277452Y-191079313D01*
X212266433Y-191078086D01*
X212245539Y-191075061D01*
X212216189Y-191071584D01*
X212182594Y-191068125D01*
X212154925Y-191065640D01*
X212065385Y-191055366D01*
X211980416Y-191040035D01*
X211902783Y-191020220D01*
X211850125Y-191002415D01*
X211818375Y-190990267D01*
X211814014Y-190953096D01*
X211812269Y-190920828D01*
X211813190Y-190881601D01*
X211816388Y-190839816D01*
X211821479Y-190799874D01*
X211828075Y-190766175D01*
X211831503Y-190754000D01*
X211849552Y-190710448D01*
X211872302Y-190675349D01*
X211885878Y-190660947D01*
X211918906Y-190636727D01*
X211963315Y-190613273D01*
X212017788Y-190591043D01*
X212081010Y-190570495D01*
X212151665Y-190552086D01*
X212228438Y-190536274D01*
X212259700Y-190530918D01*
X212282407Y-190528216D01*
X212313797Y-190525840D01*
X212351634Y-190523831D01*
X212393678Y-190522227D01*
X212437691Y-190521070D01*
X212481434Y-190520398D01*
X212522669Y-190520253D01*
X212559157Y-190520674D01*
X212588660Y-190521700D01*
X212608939Y-190523373D01*
X212615300Y-190524568D01*
X212630862Y-190527794D01*
X212655330Y-190531488D01*
X212684950Y-190535124D01*
X212707375Y-190537415D01*
X212756071Y-190542904D01*
X212810305Y-190550636D01*
X212866867Y-190560021D01*
X212922546Y-190570468D01*
X212974132Y-190581387D01*
X213018413Y-190592187D01*
X213042254Y-190599018D01*
X213086699Y-190613081D01*
X213122632Y-190625007D01*
X213153748Y-190636153D01*
X213183744Y-190647876D01*
X213216317Y-190661535D01*
X213237600Y-190670771D01*
X213291575Y-190694382D01*
X213522702Y-190694382D01*
X213493677Y-190654994D01*
X213453221Y-190614702D01*
X213404660Y-190578825D01*
X213346083Y-190545575D01*
X213319041Y-190532434D01*
X213219220Y-190490743D01*
X213110742Y-190454558D01*
X212996815Y-190424859D01*
X212910575Y-190407579D01*
X212882369Y-190402432D01*
X212855272Y-190397113D01*
X212834697Y-190392690D01*
X212833072Y-190392305D01*
X212816906Y-190389477D01*
X212791276Y-190386203D01*
X212759394Y-190382846D01*
X212724470Y-190379768D01*
X212715597Y-190379081D01*
X212679825Y-190376105D01*
X212645716Y-190372754D01*
X212616687Y-190369396D01*
X212596152Y-190366402D01*
X212593075Y-190365821D01*
X212568863Y-190362862D01*
X212534337Y-190361336D01*
X212491790Y-190361135D01*
X212443515Y-190362154D01*
G37*
X212443515Y-190362154D02*
X212391803Y-190364284D01*
X212338948Y-190367419D01*
X212287242Y-190371452D01*
X212238977Y-190376276D01*
X212196447Y-190381784D01*
X212174914Y-190385322D01*
X212086963Y-190404023D01*
X212005926Y-190426707D01*
X211932800Y-190452934D01*
X211868582Y-190482265D01*
X211814267Y-190514258D01*
X211770851Y-190548476D01*
X211746864Y-190574289D01*
X211720744Y-190613570D01*
X211697153Y-190661243D01*
X211681732Y-190702048D01*
X211670486Y-190742276D01*
X211662848Y-190784712D01*
X211658541Y-190832086D01*
X211657292Y-190887125D01*
X211658191Y-190934975D01*
X211659823Y-190976791D01*
X211661891Y-191008687D01*
X211664739Y-191033440D01*
X211668713Y-191053828D01*
X211674158Y-191072630D01*
X211675929Y-191077806D01*
X211704397Y-191141627D01*
X211741793Y-191196690D01*
X211787835Y-191242643D01*
X211831075Y-191272826D01*
X211885265Y-191300761D01*
X211948754Y-191326834D01*
X212018167Y-191349999D01*
X212090131Y-191369212D01*
X212161271Y-191383426D01*
X212208900Y-191389857D01*
X212237706Y-191393271D01*
X212263831Y-191397092D01*
X212283217Y-191400695D01*
X212288726Y-191402100D01*
X212299378Y-191403497D01*
X212320408Y-191404718D01*
X212349992Y-191405758D01*
X212386309Y-191406610D01*
X212427537Y-191407266D01*
X212471852Y-191407719D01*
X212517433Y-191407964D01*
X212562457Y-191407992D01*
X212605101Y-191407796D01*
X212643544Y-191407371D01*
X212675963Y-191406708D01*
X212700535Y-191405802D01*
X212715439Y-191404644D01*
X212719096Y-191403737D01*
X212726569Y-191401842D01*
X212744529Y-191399324D01*
X212770789Y-191396431D01*
X212803168Y-191393409D01*
X212829692Y-191391242D01*
X212888263Y-191386288D01*
X212949843Y-191380290D01*
X213011606Y-191373579D01*
X213070724Y-191366487D01*
X213124368Y-191359346D01*
X213169711Y-191352486D01*
X213189975Y-191348975D01*
X213262058Y-191332716D01*
X213324451Y-191311856D01*
X213379685Y-191285251D01*
X213430292Y-191251755D01*
X213461454Y-191226142D01*
X213503007Y-191186178D01*
X213536296Y-191146133D01*
X213564936Y-191101427D01*
X213575999Y-191081025D01*
X213584627Y-191063504D01*
X213590462Y-191048077D01*
X213594175Y-191031340D01*
X213596437Y-191009888D01*
X213597921Y-190980316D01*
X213598374Y-190967617D01*
X213598817Y-190916372D01*
X213595791Y-190873610D01*
X213588546Y-190835408D01*
X213576333Y-190797841D01*
X213558401Y-190756987D01*
X213557912Y-190755971D01*
X213527938Y-190701488D01*
X213522702Y-190694382D01*
X213291575Y-190694382D01*
X213290901Y-190729591D01*
X213286050Y-190763496D01*
X213272236Y-190797524D01*
X213248598Y-190833224D01*
X213214274Y-190872150D01*
X213208337Y-190878176D01*
X213151565Y-190928172D01*
X213087564Y-190972508D01*
X213020679Y-191008288D01*
X212999475Y-191017417D01*
X212947624Y-191036477D01*
X212897959Y-191050305D01*
X212845128Y-191060196D01*
X212799450Y-191065891D01*
X212770210Y-191069254D01*
X212743218Y-191072888D01*
X212722738Y-191076200D01*
X212716900Y-191077399D01*
X212703416Y-191079017D01*
X212679193Y-191080380D01*
X212646191Y-191081484D01*
X212606371Y-191082328D01*
X212561690Y-191082907D01*
X212514110Y-191083219D01*
X212465589Y-191083261D01*
X212418086Y-191083030D01*
X212373562Y-191082522D01*
X212333975Y-191081736D01*
X212301285Y-191080667D01*
X212277452Y-191079313D01*
X212266433Y-191078086D01*
X212245539Y-191075061D01*
X212216189Y-191071584D01*
X212182594Y-191068125D01*
X212154925Y-191065640D01*
X212065385Y-191055366D01*
X211980416Y-191040035D01*
X211902783Y-191020220D01*
X211850125Y-191002415D01*
X211818375Y-190990267D01*
X211814014Y-190953096D01*
X211812269Y-190920828D01*
X211813190Y-190881601D01*
X211816388Y-190839816D01*
X211821479Y-190799874D01*
X211828075Y-190766175D01*
X211831503Y-190754000D01*
X211849552Y-190710448D01*
X211872302Y-190675349D01*
X211885878Y-190660947D01*
X211918906Y-190636727D01*
X211963315Y-190613273D01*
X212017788Y-190591043D01*
X212081010Y-190570495D01*
X212151665Y-190552086D01*
X212228438Y-190536274D01*
X212259700Y-190530918D01*
X212282407Y-190528216D01*
X212313797Y-190525840D01*
X212351634Y-190523831D01*
X212393678Y-190522227D01*
X212437691Y-190521070D01*
X212481434Y-190520398D01*
X212522669Y-190520253D01*
X212559157Y-190520674D01*
X212588660Y-190521700D01*
X212608939Y-190523373D01*
X212615300Y-190524568D01*
X212630862Y-190527794D01*
X212655330Y-190531488D01*
X212684950Y-190535124D01*
X212707375Y-190537415D01*
X212756071Y-190542904D01*
X212810305Y-190550636D01*
X212866867Y-190560021D01*
X212922546Y-190570468D01*
X212974132Y-190581387D01*
X213018413Y-190592187D01*
X213042254Y-190599018D01*
X213086699Y-190613081D01*
X213122632Y-190625007D01*
X213153748Y-190636153D01*
X213183744Y-190647876D01*
X213216317Y-190661535D01*
X213237600Y-190670771D01*
X213291575Y-190694382D01*
X213522702Y-190694382D01*
X213493677Y-190654994D01*
X213453221Y-190614702D01*
X213404660Y-190578825D01*
X213346083Y-190545575D01*
X213319041Y-190532434D01*
X213219220Y-190490743D01*
X213110742Y-190454558D01*
X212996815Y-190424859D01*
X212910575Y-190407579D01*
X212882369Y-190402432D01*
X212855272Y-190397113D01*
X212834697Y-190392690D01*
X212833072Y-190392305D01*
X212816906Y-190389477D01*
X212791276Y-190386203D01*
X212759394Y-190382846D01*
X212724470Y-190379768D01*
X212715597Y-190379081D01*
X212679825Y-190376105D01*
X212645716Y-190372754D01*
X212616687Y-190369396D01*
X212596152Y-190366402D01*
X212593075Y-190365821D01*
X212568863Y-190362862D01*
X212534337Y-190361336D01*
X212491790Y-190361135D01*
X212443515Y-190362154D01*
G36*
X212758387Y-189434850D02*
G01*
X212695128Y-189435142D01*
X212631850Y-189435610D01*
X212569927Y-189436243D01*
X212510735Y-189437030D01*
X212455647Y-189437960D01*
X212406040Y-189439023D01*
X212363286Y-189440208D01*
X212328761Y-189441504D01*
X212303840Y-189442902D01*
X212289897Y-189444389D01*
X212288275Y-189444778D01*
X212275927Y-189447137D01*
X212253325Y-189449943D01*
X212222895Y-189452954D01*
X212187067Y-189455927D01*
X212152135Y-189458375D01*
X212107053Y-189461688D01*
X212069457Y-189465321D01*
X212040860Y-189469094D01*
X212022773Y-189472824D01*
X212018501Y-189474423D01*
X212003759Y-189479772D01*
X211981404Y-189485390D01*
X211957791Y-189489804D01*
X211879895Y-189503395D01*
X211810882Y-189519124D01*
X211746972Y-189538192D01*
X211684382Y-189561797D01*
X211619332Y-189591137D01*
X211586057Y-189607642D01*
X211540423Y-189631781D01*
X211500876Y-189655140D01*
X211464842Y-189679671D01*
X211429748Y-189707327D01*
X211393021Y-189740061D01*
X211352088Y-189779824D01*
X211330978Y-189801176D01*
X211234579Y-189906903D01*
X211145276Y-190019615D01*
X211064217Y-190137539D01*
X210992549Y-190258905D01*
X210931419Y-190381941D01*
X210890663Y-190480950D01*
X210881932Y-190503848D01*
X210874124Y-190523425D01*
X210869162Y-190534925D01*
X210866527Y-190540665D01*
X210863508Y-190548014D01*
X210859595Y-190558431D01*
X210854279Y-190573374D01*
X210847052Y-190594302D01*
X210837404Y-190622674D01*
X210824826Y-190659950D01*
X210808809Y-190707588D01*
X210806018Y-190715900D01*
X210791562Y-190759037D01*
X210780310Y-190792943D01*
X210771385Y-190820412D01*
X210763907Y-190844236D01*
X210756999Y-190867211D01*
X210749781Y-190892131D01*
X210742135Y-190919100D01*
X210735677Y-190941775D01*
X210726842Y-190972507D01*
X210716821Y-191007165D01*
X210707348Y-191039750D01*
X210656147Y-191223940D01*
X210611903Y-191402145D01*
X210573753Y-191578382D01*
X210540832Y-191756671D01*
X210512275Y-191941031D01*
X210509992Y-191957325D01*
X210505846Y-191986121D01*
X210501910Y-192011674D01*
X210498754Y-192030372D01*
X210497494Y-192036700D01*
X210495249Y-192050169D01*
X210492028Y-192074876D01*
X210487985Y-192109411D01*
X210483274Y-192152361D01*
X210478049Y-192202316D01*
X210472465Y-192257863D01*
X210466675Y-192317593D01*
X210465918Y-192325573D01*
X210462425Y-192361171D01*
X210458966Y-192394221D01*
X210455868Y-192421732D01*
X210453459Y-192440715D01*
X210452795Y-192445055D01*
X210450395Y-192463702D01*
X210447498Y-192493568D01*
X210444198Y-192533182D01*
X210440588Y-192581077D01*
X210436763Y-192635785D01*
X210432816Y-192695836D01*
X210428840Y-192759762D01*
X210424931Y-192826094D01*
X210421180Y-192893365D01*
X210417683Y-192960105D01*
X210414533Y-193024846D01*
X210411824Y-193086120D01*
X210411761Y-193087625D01*
X210409763Y-193135669D01*
X210407365Y-193193101D01*
X210404705Y-193256618D01*
X210401923Y-193322917D01*
X210399157Y-193388698D01*
X210396544Y-193450657D01*
X210396054Y-193462275D01*
X210393511Y-193523305D01*
X210390652Y-193593424D01*
X210387619Y-193669028D01*
X210384554Y-193746514D01*
X210381602Y-193822279D01*
X210378906Y-193892719D01*
X210377828Y-193921322D01*
X210375294Y-193984365D01*
X210372684Y-194040583D01*
X210370064Y-194088933D01*
X210367499Y-194128376D01*
X210365055Y-194157870D01*
X210362796Y-194176373D01*
X210361479Y-194181964D01*
X210358872Y-194194175D01*
X210357171Y-194216446D01*
X210356358Y-194249446D01*
X210356416Y-194293839D01*
X210357222Y-194345217D01*
X210358815Y-194417112D01*
X210360708Y-194492807D01*
X210362842Y-194570510D01*
X210365157Y-194648431D01*
X210367593Y-194724779D01*
X210370091Y-194797763D01*
X210372591Y-194865592D01*
X210375034Y-194926476D01*
X210377359Y-194978624D01*
X210379508Y-195020245D01*
X210379935Y-195027550D01*
X210382237Y-195067487D01*
X210384886Y-195116062D01*
X210387669Y-195169223D01*
X210390375Y-195222919D01*
X210392791Y-195273100D01*
X210392889Y-195275200D01*
X210395087Y-195317915D01*
X210397515Y-195357573D01*
X210400009Y-195391993D01*
X210402404Y-195418994D01*
X210404538Y-195436396D01*
X210405311Y-195440300D01*
X210407294Y-195452987D01*
X210409656Y-195476211D01*
X210412228Y-195507819D01*
X210414843Y-195545661D01*
X210417333Y-195587583D01*
X210418415Y-195608160D01*
X210420732Y-195650576D01*
X210423182Y-195689288D01*
X210425614Y-195722306D01*
X210427874Y-195747638D01*
X210429809Y-195763291D01*
X210430623Y-195766910D01*
X210433147Y-195778696D01*
X210435968Y-195799689D01*
X210438657Y-195826417D01*
X210440014Y-195843525D01*
X210449065Y-195927211D01*
X210463512Y-196001076D01*
X210483192Y-196064390D01*
X210496139Y-196094350D01*
X210509496Y-196120057D01*
X210523454Y-196142172D01*
X210540454Y-196163916D01*
X210562938Y-196188509D01*
X210582981Y-196208878D01*
X210623355Y-196246614D01*
X210667125Y-196282229D01*
X210715621Y-196316510D01*
X210770171Y-196350243D01*
X210832105Y-196384214D01*
X210902752Y-196419209D01*
X210983439Y-196456016D01*
X211046850Y-196483382D01*
X211150094Y-196525478D01*
X211245738Y-196560942D01*
X211336451Y-196590621D01*
X211424901Y-196615359D01*
X211513754Y-196636001D01*
X211553773Y-196644025D01*
X211580500Y-196649355D01*
X211605654Y-196654731D01*
X211623623Y-196658948D01*
X211641439Y-196662406D01*
X211666793Y-196665946D01*
X211694549Y-196668861D01*
X211697725Y-196669130D01*
X211724615Y-196671900D01*
X211748920Y-196675384D01*
X211765947Y-196678892D01*
X211767575Y-196679375D01*
X211779120Y-196681450D01*
X211801341Y-196684024D01*
X211832234Y-196686919D01*
X211869794Y-196689956D01*
X211912016Y-196692958D01*
X211942200Y-196694879D01*
X211989802Y-196697834D01*
X212037214Y-196700905D01*
X212081653Y-196703901D01*
X212120339Y-196706634D01*
X212150487Y-196708913D01*
X212161275Y-196709805D01*
X212193833Y-196711971D01*
X212232984Y-196713554D01*
X212276020Y-196714551D01*
X212320233Y-196714955D01*
X212362917Y-196714764D01*
X212401362Y-196713973D01*
X212432862Y-196712577D01*
X212454709Y-196710572D01*
X212456550Y-196710290D01*
X212482413Y-196705685D01*
X212512620Y-196699725D01*
X212543576Y-196693188D01*
X212571686Y-196686847D01*
X212593353Y-196681481D01*
X212602600Y-196678774D01*
X212615670Y-196674598D01*
X212637182Y-196667995D01*
X212663390Y-196660110D01*
X212675625Y-196656475D01*
X212727921Y-196639693D01*
X212782251Y-196619935D01*
X212835282Y-196598567D01*
X212883678Y-196576954D01*
X212924105Y-196556461D01*
X212934705Y-196550427D01*
X212993317Y-196509946D01*
X213048699Y-196460363D01*
X213098570Y-196404273D01*
X213140650Y-196344274D01*
X213172658Y-196282961D01*
X213175478Y-196276220D01*
X213189648Y-196231300D01*
X213199316Y-196179301D01*
X213204335Y-196123844D01*
X213204555Y-196068550D01*
X213199830Y-196017040D01*
X213190010Y-195972935D01*
X213188130Y-195967300D01*
X213166130Y-195918007D01*
X213134878Y-195866546D01*
X213096736Y-195815896D01*
X213054061Y-195769037D01*
X213009214Y-195728947D01*
X212985607Y-195711622D01*
X212924536Y-195675608D01*
X212854126Y-195643110D01*
X212777533Y-195615359D01*
X212697912Y-195593587D01*
X212666100Y-195586863D01*
X212634814Y-195580598D01*
X212596956Y-195572687D01*
X212557090Y-195564113D01*
X212519777Y-195555859D01*
X212489579Y-195548908D01*
X212485440Y-195547917D01*
X212445974Y-195536424D01*
X212407401Y-195521665D01*
X212372289Y-195504930D01*
X212343206Y-195487512D01*
X212322720Y-195470700D01*
X212316519Y-195462952D01*
X212305601Y-195438721D01*
X212295731Y-195402834D01*
X212287017Y-195356298D01*
X212279566Y-195300124D01*
X212273487Y-195235318D01*
X212268887Y-195162890D01*
X212265875Y-195083848D01*
X212264558Y-194999201D01*
X212264507Y-194976750D01*
X212264942Y-194926220D01*
X212266138Y-194871864D01*
X212267978Y-194816105D01*
X212270348Y-194761371D01*
X212273132Y-194710087D01*
X212276213Y-194664679D01*
X212279478Y-194627572D01*
X212282187Y-194605199D01*
X212295126Y-194557008D01*
X212318752Y-194508879D01*
X212351257Y-194463142D01*
X212390833Y-194422131D01*
X212435672Y-194388178D01*
X212461898Y-194373369D01*
X212532792Y-194343322D01*
X212604504Y-194323990D01*
X212659750Y-194315889D01*
X212691627Y-194312339D01*
X212722544Y-194308354D01*
X212747947Y-194304544D01*
X212758175Y-194302693D01*
X212777785Y-194300336D01*
X212805889Y-194299009D01*
X212838314Y-194298837D01*
X212862950Y-194299542D01*
X212890237Y-194300740D01*
X212927407Y-194302334D01*
X212971658Y-194304204D01*
X213020183Y-194306234D01*
X213070177Y-194308303D01*
X213101075Y-194309571D01*
X213148645Y-194311679D01*
X213194742Y-194314020D01*
X213236996Y-194316452D01*
X213273037Y-194318832D01*
X213300494Y-194321017D01*
X213313800Y-194322412D01*
X213369854Y-194329623D01*
X213414719Y-194335504D01*
X213449813Y-194340264D01*
X213476553Y-194344110D01*
X213496358Y-194347252D01*
X213510644Y-194349897D01*
X213520830Y-194352254D01*
X213524924Y-194353418D01*
X213545720Y-194358851D01*
X213568696Y-194363627D01*
X213570680Y-194363970D01*
X213607473Y-194374968D01*
X213639923Y-194393692D01*
X213658327Y-194410917D01*
X213669024Y-194426487D01*
X213683153Y-194451197D01*
X213699341Y-194482431D01*
X213716211Y-194517575D01*
X213727111Y-194541775D01*
X213733483Y-194560428D01*
X213740921Y-194588937D01*
X213748750Y-194624575D01*
X213753039Y-194646550D01*
X213755292Y-194666382D01*
X213756539Y-194694289D01*
X213756866Y-194727578D01*
X213756359Y-194763561D01*
X213755104Y-194799546D01*
X213753187Y-194832843D01*
X213750694Y-194860762D01*
X213747711Y-194880611D01*
X213745309Y-194888393D01*
X213742662Y-194899574D01*
X213740293Y-194921352D01*
X213738242Y-194951628D01*
X213736551Y-194988300D01*
X213735257Y-195029269D01*
X213734403Y-195072435D01*
X213734028Y-195115696D01*
X213734172Y-195156954D01*
X213734876Y-195194107D01*
X213736178Y-195225055D01*
X213738121Y-195247699D01*
X213738405Y-195249800D01*
X213745426Y-195293263D01*
X213753526Y-195334112D01*
X213762050Y-195369494D01*
X213770342Y-195396559D01*
X213774316Y-195406334D01*
X213780714Y-195422007D01*
X213783676Y-195433267D01*
X213783700Y-195433864D01*
X213786983Y-195445576D01*
X213795947Y-195465530D01*
X213809265Y-195491378D01*
X213825609Y-195520771D01*
X213843652Y-195551362D01*
X213862067Y-195580801D01*
X213879527Y-195606739D01*
X213887815Y-195618100D01*
X213935338Y-195677371D01*
X213981460Y-195726801D01*
X214028651Y-195768164D01*
X214079386Y-195803233D01*
X214136135Y-195833780D01*
X214201373Y-195861580D01*
X214253600Y-195880418D01*
X214283686Y-195890459D01*
X214312055Y-195899569D01*
X214334911Y-195906548D01*
X214345675Y-195909541D01*
X214364708Y-195914395D01*
X214390556Y-195921041D01*
X214417743Y-195928072D01*
X214418700Y-195928320D01*
X214478634Y-195943696D01*
X214527772Y-195955871D01*
X214567526Y-195965146D01*
X214599308Y-195971821D01*
X214624531Y-195976198D01*
X214644606Y-195978577D01*
X214657722Y-195979241D01*
X214681442Y-195980523D01*
X214702111Y-195983214D01*
X214712284Y-195985756D01*
X214735120Y-195991564D01*
X214770225Y-195996272D01*
X214817658Y-195999883D01*
X214877479Y-196002398D01*
X214949748Y-196003822D01*
X215034523Y-196004154D01*
X215131865Y-196003398D01*
X215180700Y-196002688D01*
X215240903Y-196001597D01*
X215298973Y-196000349D01*
X215353288Y-195998994D01*
X215402222Y-195997581D01*
X215444150Y-195996159D01*
X215477450Y-195994775D01*
X215500496Y-195993479D01*
X215507725Y-195992873D01*
X215577640Y-195984929D01*
X215647212Y-195975745D01*
X215714573Y-195965651D01*
X215777853Y-195954972D01*
X215835180Y-195944036D01*
X215884685Y-195933170D01*
X215924498Y-195922700D01*
X215942700Y-195916835D01*
X215955780Y-195912558D01*
X215977309Y-195905909D01*
X216003537Y-195898037D01*
X216015725Y-195894446D01*
X216042347Y-195886460D01*
X216065444Y-195879190D01*
X216081494Y-195873760D01*
X216085575Y-195872173D01*
X216097742Y-195866938D01*
X216117319Y-195858582D01*
X216139550Y-195849133D01*
X216174652Y-195832688D01*
X216207836Y-195813465D01*
X216241870Y-195789579D01*
X216279523Y-195759142D01*
X216307758Y-195734499D01*
X216358201Y-195685546D01*
X216397228Y-195637966D01*
X216425644Y-195589686D01*
X216444256Y-195538634D01*
X216453871Y-195482738D01*
X216455296Y-195419926D01*
X216454234Y-195405375D01*
X216337555Y-195405375D01*
X216331776Y-195467359D01*
X216315257Y-195523033D01*
X216288192Y-195571979D01*
X216250775Y-195613778D01*
X216234430Y-195627285D01*
X216213645Y-195641699D01*
X216189777Y-195656104D01*
X216166148Y-195668731D01*
X216146084Y-195677812D01*
X216132908Y-195681580D01*
X216132305Y-195681600D01*
X216123882Y-195684120D01*
X216107557Y-195690727D01*
X216086898Y-195699974D01*
X216058328Y-195712541D01*
X216026837Y-195724797D01*
X215990465Y-195737390D01*
X215947250Y-195750972D01*
X215895233Y-195766193D01*
X215844275Y-195780453D01*
X215792561Y-195792813D01*
X215729960Y-195804494D01*
X215658278Y-195815169D01*
X215634725Y-195818196D01*
X215598788Y-195822704D01*
X215560434Y-195827603D01*
X215525624Y-195832126D01*
X215510900Y-195834076D01*
X215485360Y-195836779D01*
X215449315Y-195839591D01*
X215404963Y-195842415D01*
X215354497Y-195845151D01*
X215300113Y-195847703D01*
X215244005Y-195849973D01*
X215188369Y-195851863D01*
X215135400Y-195853275D01*
X215087292Y-195854111D01*
X215056875Y-195854302D01*
X215000403Y-195853525D01*
X214942022Y-195851318D01*
X214884550Y-195847884D01*
X214830801Y-195843431D01*
X214783593Y-195838165D01*
X214745740Y-195832290D01*
X214739967Y-195831148D01*
X214711692Y-195826153D01*
X214683561Y-195822558D01*
X214661856Y-195821148D01*
X214637909Y-195819778D01*
X214615017Y-195816538D01*
X214609200Y-195815230D01*
X214544145Y-195798339D01*
X214490262Y-195784318D01*
X214446429Y-195772863D01*
X214411520Y-195763672D01*
X214384411Y-195756443D01*
X214363979Y-195750873D01*
X214349098Y-195746659D01*
X214338645Y-195743498D01*
X214331495Y-195741089D01*
X214326625Y-195739172D01*
X214314212Y-195734359D01*
X214294234Y-195727139D01*
X214272650Y-195719638D01*
X214200799Y-195688689D01*
X214134718Y-195646736D01*
X214074222Y-195593615D01*
X214019126Y-195529163D01*
X213969244Y-195453217D01*
X213967290Y-195449825D01*
X213949023Y-195416094D01*
X213934253Y-195383907D01*
X213921733Y-195349824D01*
X213910216Y-195310407D01*
X213898456Y-195262217D01*
X213897075Y-195256150D01*
X213894705Y-195238427D01*
X213892931Y-195210535D01*
X213891748Y-195174987D01*
X213891149Y-195134299D01*
X213891128Y-195090985D01*
X213891680Y-195047562D01*
X213892799Y-195006544D01*
X213894477Y-194970447D01*
X213896710Y-194941785D01*
X213897849Y-194932300D01*
X213909027Y-194833454D01*
X213913297Y-194743915D01*
X213910558Y-194662271D01*
X213900710Y-194587105D01*
X213883652Y-194517005D01*
X213864248Y-194462400D01*
X213834501Y-194397092D01*
X213802760Y-194341832D01*
X213769534Y-194297326D01*
X213735333Y-194264281D01*
X213709239Y-194247387D01*
X213682155Y-194235363D01*
X213648786Y-194223057D01*
X213615016Y-194212475D01*
X213586850Y-194205646D01*
X213565163Y-194201237D01*
X213541678Y-194195890D01*
X213539225Y-194195290D01*
X213522947Y-194192072D01*
X213497559Y-194187981D01*
X213466575Y-194183549D01*
X213434450Y-194179423D01*
X213398362Y-194175009D01*
X213361495Y-194170416D01*
X213328567Y-194166237D01*
X213307450Y-194163485D01*
X213270683Y-194159686D01*
X213221804Y-194156426D01*
X213161388Y-194153725D01*
X213090015Y-194151602D01*
X213008260Y-194150076D01*
X212916700Y-194149168D01*
X212878825Y-194148987D01*
X212806957Y-194149149D01*
X212746119Y-194150258D01*
X212694667Y-194152438D01*
X212650960Y-194155815D01*
X212613354Y-194160513D01*
X212580205Y-194166656D01*
X212551800Y-194173816D01*
X212480395Y-194195842D01*
X212419759Y-194218568D01*
X212367972Y-194243227D01*
X212323117Y-194271052D01*
X212283272Y-194303277D01*
X212246519Y-194341136D01*
X212210938Y-194385861D01*
X212201548Y-194398900D01*
X212178231Y-194434156D01*
X212160005Y-194467805D01*
X212145998Y-194502569D01*
X212135337Y-194541169D01*
X212127149Y-194586329D01*
X212120562Y-194640770D01*
X212119050Y-194656281D01*
X212116460Y-194690876D01*
X212114193Y-194734766D01*
X212112272Y-194785837D01*
X212110720Y-194841972D01*
X212109562Y-194901056D01*
X212108819Y-194960973D01*
X212108516Y-195019607D01*
X212108676Y-195074843D01*
X212109322Y-195124564D01*
X212110477Y-195166655D01*
X212112165Y-195199000D01*
X212112973Y-195208525D01*
X212120403Y-195280324D01*
X212127316Y-195340393D01*
X212133861Y-195389682D01*
X212140184Y-195429143D01*
X212146435Y-195459727D01*
X212152761Y-195482387D01*
X212157421Y-195494275D01*
X212163488Y-195507424D01*
X212172272Y-195526527D01*
X212177077Y-195536997D01*
X212199951Y-195572309D01*
X212234912Y-195605345D01*
X212281507Y-195635858D01*
X212339288Y-195663603D01*
X212407802Y-195688333D01*
X212486599Y-195709801D01*
X212497825Y-195712396D01*
X212529111Y-195719419D01*
X212567059Y-195727836D01*
X212605916Y-195736376D01*
X212628000Y-195741188D01*
X212674166Y-195751457D01*
X212710845Y-195760402D01*
X212741039Y-195769005D01*
X212767749Y-195778247D01*
X212793977Y-195789111D01*
X212822725Y-195802577D01*
X212836641Y-195809428D01*
X212898064Y-195845499D01*
X212949844Y-195888388D01*
X212993997Y-195939879D01*
X213009027Y-195961811D01*
X213025700Y-195989702D01*
X213036918Y-196014887D01*
X213043478Y-196040916D01*
X213046181Y-196071341D01*
X213045824Y-196109716D01*
X213045258Y-196122925D01*
X213042481Y-196161918D01*
X213037463Y-196192563D01*
X213028782Y-196219185D01*
X213015021Y-196246111D01*
X212994759Y-196277665D01*
X212994191Y-196278500D01*
X212953368Y-196330980D01*
X212907331Y-196375106D01*
X212853888Y-196412597D01*
X212790850Y-196445172D01*
X212770875Y-196453773D01*
X212748864Y-196462986D01*
X212730063Y-196471009D01*
X212720075Y-196475415D01*
X212703515Y-196481909D01*
X212677881Y-196490663D01*
X212646386Y-196500708D01*
X212612240Y-196511077D01*
X212578655Y-196520804D01*
X212548841Y-196528922D01*
X212526010Y-196534463D01*
X212520050Y-196535654D01*
X212499729Y-196540228D01*
X212481999Y-196545638D01*
X212481950Y-196545657D01*
X212455759Y-196552351D01*
X212419278Y-196557037D01*
X212374765Y-196559677D01*
X212324476Y-196560234D01*
X212270667Y-196558673D01*
X212215597Y-196554958D01*
X212173975Y-196550632D01*
X212147768Y-196547833D01*
X212124675Y-196546040D01*
X212109030Y-196545575D01*
X212107300Y-196545660D01*
X212100468Y-196546143D01*
X212093833Y-196546394D01*
X212085459Y-196546322D01*
X212073407Y-196545837D01*
X212055741Y-196544849D01*
X212030523Y-196543266D01*
X211995814Y-196540999D01*
X211967600Y-196539138D01*
X211808131Y-196524989D01*
X211658993Y-196504279D01*
X211520355Y-196477038D01*
X211392387Y-196443299D01*
X211319900Y-196419633D01*
X211289935Y-196408911D01*
X211257840Y-196397178D01*
X211226426Y-196385489D01*
X211198506Y-196374900D01*
X211176892Y-196366467D01*
X211164396Y-196361245D01*
X211164325Y-196361212D01*
X211152089Y-196355854D01*
X211132399Y-196347603D01*
X211110350Y-196338585D01*
X211088984Y-196329772D01*
X211066433Y-196320055D01*
X211040340Y-196308372D01*
X211008348Y-196293663D01*
X210968102Y-196274866D01*
X210951600Y-196267111D01*
X210902010Y-196241994D01*
X210851538Y-196213202D01*
X210802485Y-196182295D01*
X210757150Y-196150827D01*
X210717836Y-196120355D01*
X210686842Y-196092437D01*
X210675530Y-196080324D01*
X210656366Y-196056241D01*
X210641096Y-196032028D01*
X210628985Y-196005466D01*
X210619295Y-195974339D01*
X210611289Y-195936429D01*
X210604229Y-195889517D01*
X210599686Y-195852155D01*
X210596097Y-195822624D01*
X210592656Y-195797720D01*
X210589765Y-195780162D01*
X210587908Y-195772780D01*
X210586575Y-195765066D01*
X210584761Y-195746622D01*
X210582616Y-195719402D01*
X210580289Y-195685360D01*
X210577932Y-195646450D01*
X210577234Y-195633975D01*
X210574747Y-195592634D01*
X210572041Y-195554312D01*
X210569308Y-195521294D01*
X210566742Y-195495869D01*
X210564534Y-195480322D01*
X210564102Y-195478400D01*
X210562412Y-195466820D01*
X210560299Y-195444230D01*
X210557876Y-195412308D01*
X210555257Y-195372731D01*
X210552555Y-195327179D01*
X210549884Y-195277330D01*
X210548219Y-195243450D01*
X210545260Y-195182196D01*
X210541945Y-195115697D01*
X210538459Y-195047462D01*
X210534981Y-194981003D01*
X210531694Y-194919830D01*
X210528779Y-194867453D01*
X210528493Y-194862450D01*
X210525301Y-194805314D01*
X210522895Y-194757946D01*
X210521196Y-194717440D01*
X210520125Y-194680893D01*
X210519603Y-194645401D01*
X210519549Y-194608061D01*
X210519886Y-194565968D01*
X210520040Y-194552887D01*
X210519813Y-194533763D01*
X210518889Y-194505158D01*
X210517398Y-194470264D01*
X210515470Y-194432272D01*
X210514330Y-194412230D01*
X210511808Y-194357857D01*
X210511411Y-194315741D01*
X210513141Y-194285619D01*
X210514653Y-194275705D01*
X210516461Y-194261634D01*
X210518601Y-194236633D01*
X210520967Y-194202465D01*
X210523450Y-194160892D01*
X210525942Y-194113677D01*
X210528337Y-194062582D01*
X210529818Y-194027425D01*
X210531921Y-193975002D01*
X210534425Y-193912409D01*
X210537229Y-193842168D01*
X210540233Y-193766798D01*
X210543336Y-193688821D01*
X210546439Y-193610756D01*
X210549440Y-193535125D01*
X210551319Y-193487675D01*
X210553895Y-193423353D01*
X210556417Y-193361778D01*
X210558824Y-193304331D01*
X210561056Y-193252395D01*
X210563053Y-193207354D01*
X210564753Y-193170590D01*
X210566098Y-193143486D01*
X210567025Y-193127425D01*
X210567150Y-193125725D01*
X210568169Y-193109436D01*
X210569539Y-193082497D01*
X210571172Y-193046952D01*
X210572976Y-193004843D01*
X210574862Y-192958213D01*
X210576740Y-192909105D01*
X210576949Y-192903475D01*
X210578911Y-192854826D01*
X210581080Y-192808980D01*
X210583338Y-192767858D01*
X210585571Y-192733379D01*
X210587663Y-192707465D01*
X210589498Y-192692038D01*
X210589744Y-192690750D01*
X210592317Y-192674098D01*
X210595274Y-192647923D01*
X210598302Y-192615383D01*
X210601090Y-192579634D01*
X210601954Y-192566925D01*
X210610090Y-192459211D01*
X210620861Y-192343577D01*
X210633876Y-192223114D01*
X210648745Y-192100913D01*
X210665079Y-191980065D01*
X210682486Y-191863659D01*
X210700578Y-191754787D01*
X210712916Y-191687450D01*
X210725211Y-191624131D01*
X210736854Y-191566464D01*
X210748383Y-191512168D01*
X210760337Y-191458966D01*
X210773256Y-191404577D01*
X210787678Y-191346722D01*
X210804143Y-191283123D01*
X210823188Y-191211501D01*
X210841289Y-191144525D01*
X210858164Y-191083357D01*
X210872443Y-191033685D01*
X210884377Y-190994630D01*
X210885178Y-190992125D01*
X210891072Y-190973172D01*
X210898840Y-190947432D01*
X210906846Y-190920325D01*
X210907203Y-190919100D01*
X210914252Y-190895936D01*
X210924451Y-190863776D01*
X210936948Y-190825183D01*
X210950890Y-190782724D01*
X210965425Y-190738961D01*
X210979698Y-190696461D01*
X210992859Y-190657787D01*
X211004053Y-190625505D01*
X211012428Y-190602179D01*
X211013838Y-190598425D01*
X211053060Y-190500540D01*
X211092832Y-190412312D01*
X211134665Y-190330733D01*
X211180072Y-190252794D01*
X211214357Y-190199446D01*
X211263598Y-190127983D01*
X211310957Y-190064731D01*
X211359312Y-190006125D01*
X211411546Y-189948603D01*
X211445477Y-189913602D01*
X211485801Y-189873607D01*
X211520226Y-189841437D01*
X211551110Y-189815262D01*
X211580806Y-189793256D01*
X211611672Y-189773589D01*
X211646062Y-189754433D01*
X211659735Y-189747323D01*
X211726746Y-189715568D01*
X211792652Y-189690073D01*
X211860682Y-189669908D01*
X211934066Y-189654146D01*
X212016035Y-189641858D01*
X212034275Y-189639675D01*
X212067233Y-189635563D01*
X212098481Y-189631114D01*
X212124206Y-189626901D01*
X212139050Y-189623893D01*
X212160674Y-189619467D01*
X212188447Y-189614930D01*
X212212762Y-189611704D01*
X212235913Y-189608638D01*
X212254162Y-189605479D01*
X212263753Y-189602883D01*
X212263966Y-189602763D01*
X212271423Y-189601793D01*
X212290223Y-189600569D01*
X212319015Y-189599145D01*
X212356446Y-189597576D01*
X212401164Y-189595917D01*
X212451816Y-189594224D01*
X212507050Y-189592549D01*
X212536330Y-189591726D01*
X212605462Y-189590164D01*
X212676494Y-189589167D01*
X212748087Y-189588710D01*
X212818906Y-189588767D01*
X212887614Y-189589312D01*
X212952874Y-189590320D01*
X213013350Y-189591765D01*
X213067705Y-189593621D01*
X213114603Y-189595864D01*
X213152708Y-189598466D01*
X213180682Y-189601404D01*
X213196325Y-189604380D01*
X213210600Y-189607646D01*
X213233793Y-189611910D01*
X213262229Y-189616525D01*
X213282050Y-189619446D01*
X213357841Y-189632109D01*
X213429836Y-189647975D01*
X213496348Y-189666501D01*
X213555686Y-189687146D01*
X213606162Y-189709368D01*
X213646086Y-189732625D01*
X213654813Y-189738993D01*
X213688100Y-189767507D01*
X213724056Y-189802994D01*
X213758956Y-189841453D01*
X213789074Y-189878885D01*
X213801699Y-189896750D01*
X213812274Y-189914283D01*
X213827309Y-189941447D01*
X213845866Y-189976377D01*
X213867008Y-190017207D01*
X213889799Y-190062071D01*
X213913301Y-190109106D01*
X213936576Y-190156444D01*
X213958689Y-190202222D01*
X213978701Y-190244573D01*
X213995676Y-190281632D01*
X214000367Y-190292192D01*
X214039477Y-190385434D01*
X214078655Y-190486991D01*
X214116442Y-190592689D01*
X214151376Y-190698352D01*
X214181998Y-190799802D01*
X214197348Y-190855600D01*
X214205119Y-190884789D01*
X214213223Y-190914795D01*
X214219638Y-190938150D01*
X214223122Y-190950781D01*
X214226634Y-190963875D01*
X214230600Y-190979127D01*
X214235445Y-190998229D01*
X214241594Y-191022875D01*
X214249474Y-191054758D01*
X214259509Y-191095571D01*
X214272126Y-191147008D01*
X214272295Y-191147700D01*
X214280289Y-191179996D01*
X214287806Y-191209805D01*
X214294019Y-191233879D01*
X214298099Y-191248973D01*
X214298194Y-191249300D01*
X214303028Y-191267569D01*
X214308987Y-191292255D01*
X214313629Y-191312800D01*
X214319478Y-191338975D01*
X214326933Y-191371413D01*
X214334595Y-191404038D01*
X214336310Y-191411225D01*
X214343704Y-191442381D01*
X214351147Y-191474222D01*
X214357297Y-191500991D01*
X214358533Y-191506475D01*
X214369903Y-191557020D01*
X214381157Y-191606662D01*
X214391512Y-191651969D01*
X214400187Y-191689507D01*
X214402675Y-191700150D01*
X214408585Y-191725666D01*
X214415756Y-191757287D01*
X214424519Y-191796503D01*
X214435208Y-191844804D01*
X214448155Y-191903680D01*
X214451564Y-191919225D01*
X214458421Y-191950464D01*
X214465440Y-191982377D01*
X214471346Y-192009162D01*
X214472520Y-192014475D01*
X214477684Y-192037998D01*
X214484389Y-192068785D01*
X214491512Y-192101680D01*
X214494616Y-192116075D01*
X214505759Y-192167799D01*
X214515007Y-192210589D01*
X214523115Y-192247929D01*
X214530841Y-192283303D01*
X214538941Y-192320196D01*
X214539437Y-192322450D01*
X214547279Y-192358488D01*
X214555997Y-192399168D01*
X214563932Y-192436734D01*
X214565260Y-192443100D01*
X214577114Y-192499800D01*
X214587573Y-192549125D01*
X214597721Y-192596150D01*
X214608646Y-192645955D01*
X214608722Y-192646300D01*
X214616408Y-192681495D01*
X214625098Y-192721878D01*
X214633235Y-192760195D01*
X214635319Y-192770125D01*
X214642085Y-192802284D01*
X214648973Y-192834698D01*
X214654884Y-192862202D01*
X214656959Y-192871725D01*
X214662200Y-192895746D01*
X214668917Y-192926727D01*
X214675927Y-192959206D01*
X214678280Y-192970150D01*
X214686044Y-193006212D01*
X214694832Y-193046917D01*
X214702966Y-193084495D01*
X214704334Y-193090800D01*
X214711561Y-193124260D01*
X214719200Y-193159891D01*
X214725887Y-193191326D01*
X214727454Y-193198750D01*
X214733754Y-193228507D01*
X214741293Y-193263851D01*
X214748612Y-193297959D01*
X214749812Y-193303525D01*
X214756664Y-193335388D01*
X214763749Y-193368513D01*
X214769756Y-193396770D01*
X214770850Y-193401950D01*
X214776363Y-193427571D01*
X214783460Y-193459846D01*
X214790880Y-193493050D01*
X214793256Y-193503550D01*
X214801068Y-193538791D01*
X214809743Y-193579223D01*
X214817724Y-193617568D01*
X214819711Y-193627375D01*
X214826421Y-193660673D01*
X214833434Y-193695299D01*
X214839591Y-193725533D01*
X214841597Y-193735325D01*
X214855151Y-193802630D01*
X214866064Y-193859964D01*
X214874751Y-193909679D01*
X214881633Y-193954130D01*
X214885548Y-193982975D01*
X214889565Y-194013029D01*
X214893463Y-194039788D01*
X214896733Y-194059887D01*
X214898502Y-194068700D01*
X214901397Y-194082234D01*
X214905540Y-194104211D01*
X214910166Y-194130533D01*
X214911515Y-194138550D01*
X214916814Y-194169648D01*
X214923359Y-194207000D01*
X214930053Y-194244377D01*
X214932759Y-194259200D01*
X214939163Y-194294059D01*
X214945957Y-194331078D01*
X214952047Y-194364301D01*
X214954312Y-194376675D01*
X214959135Y-194401690D01*
X214963603Y-194422530D01*
X214966907Y-194435476D01*
X214967438Y-194437000D01*
X214970440Y-194447611D01*
X214974826Y-194466827D01*
X214979714Y-194490753D01*
X214980368Y-194494150D01*
X214988674Y-194535422D01*
X214999405Y-194585341D01*
X215011762Y-194640271D01*
X215024372Y-194694175D01*
X215035744Y-194741880D01*
X215044593Y-194779080D01*
X215051353Y-194807621D01*
X215056457Y-194829346D01*
X215060339Y-194846104D01*
X215063432Y-194859737D01*
X215066144Y-194871975D01*
X215071752Y-194896854D01*
X215078483Y-194925788D01*
X215082306Y-194941825D01*
X215087710Y-194964412D01*
X215094903Y-194994747D01*
X215102789Y-195028207D01*
X215107848Y-195049775D01*
X215117322Y-195089121D01*
X215125106Y-195118214D01*
X215131980Y-195139259D01*
X215138723Y-195154460D01*
X215146116Y-195166021D01*
X215151094Y-195172022D01*
X215173125Y-195188454D01*
X215198295Y-195194668D01*
X215224026Y-195191790D01*
X215247742Y-195180942D01*
X215266865Y-195163248D01*
X215278819Y-195139832D01*
X215281349Y-195115221D01*
X215281175Y-195098841D01*
X215282923Y-195088605D01*
X215283488Y-195087745D01*
X215290819Y-195085889D01*
X215308572Y-195083256D01*
X215334514Y-195080124D01*
X215366412Y-195076772D01*
X215388005Y-195074723D01*
X215429324Y-195070911D01*
X215472692Y-195066833D01*
X215513628Y-195062916D01*
X215547651Y-195059585D01*
X215555350Y-195058813D01*
X215581550Y-195056960D01*
X215617538Y-195055543D01*
X215660407Y-195054616D01*
X215707253Y-195054234D01*
X215755167Y-195054451D01*
X215774425Y-195054726D01*
X215825151Y-195055746D01*
X215865285Y-195056952D01*
X215896936Y-195058511D01*
X215922212Y-195060592D01*
X215943222Y-195063363D01*
X215962073Y-195066993D01*
X215978535Y-195071026D01*
X216058810Y-195096593D01*
X216130821Y-195128505D01*
X216193484Y-195166167D01*
X216245717Y-195208986D01*
X216263241Y-195227193D01*
X216294519Y-195265258D01*
X216316233Y-195300016D01*
X216329721Y-195334675D01*
X216336322Y-195372444D01*
X216337555Y-195405375D01*
X216454234Y-195405375D01*
X216451336Y-195365694D01*
X216437991Y-195286299D01*
X216415595Y-195214259D01*
X216384466Y-195150337D01*
X216344925Y-195095296D01*
X216332103Y-195081283D01*
X216284244Y-195038352D01*
X216228597Y-195001025D01*
X216163700Y-194968466D01*
X216088085Y-194939839D01*
X216079225Y-194936950D01*
X216045231Y-194926237D01*
X216015638Y-194917650D01*
X215988424Y-194910963D01*
X215961563Y-194905947D01*
X215933033Y-194902376D01*
X215900808Y-194900022D01*
X215862865Y-194898657D01*
X215817180Y-194898054D01*
X215761728Y-194897986D01*
X215733150Y-194898069D01*
X215681916Y-194898483D01*
X215632266Y-194899313D01*
X215586330Y-194900492D01*
X215546231Y-194901951D01*
X215514097Y-194903622D01*
X215492054Y-194905438D01*
X215488675Y-194905863D01*
X215449622Y-194910836D01*
X215408806Y-194915190D01*
X215368305Y-194918795D01*
X215330192Y-194921520D01*
X215296544Y-194923237D01*
X215269434Y-194923814D01*
X215250938Y-194923122D01*
X215243300Y-194921239D01*
X215238465Y-194911828D01*
X215232576Y-194894008D01*
X215227507Y-194874172D01*
X215216359Y-194824449D01*
X215207429Y-194784799D01*
X215200185Y-194752898D01*
X215194093Y-194726421D01*
X215188621Y-194703043D01*
X215183236Y-194680440D01*
X215180428Y-194668775D01*
X215161605Y-194588615D01*
X215142634Y-194503744D01*
X215124124Y-194417124D01*
X215106685Y-194331721D01*
X215090927Y-194250499D01*
X215077458Y-194176424D01*
X215069495Y-194129025D01*
X215064972Y-194102051D01*
X215060721Y-194078749D01*
X215057425Y-194062793D01*
X215056494Y-194059175D01*
X215053413Y-194046682D01*
X215049011Y-194026143D01*
X215044244Y-194002025D01*
X215039187Y-193975812D01*
X215032647Y-193942550D01*
X215025688Y-193907632D01*
X215022316Y-193890900D01*
X215014848Y-193853747D01*
X215006577Y-193812166D01*
X214998912Y-193773254D01*
X214996467Y-193760725D01*
X214989822Y-193726823D01*
X214982723Y-193691041D01*
X214976368Y-193659397D01*
X214974375Y-193649600D01*
X214968417Y-193618768D01*
X214962573Y-193585746D01*
X214958569Y-193560700D01*
X214954076Y-193530082D01*
X214949147Y-193496467D01*
X214946464Y-193478150D01*
X214942201Y-193452550D01*
X214936108Y-193420303D01*
X214929280Y-193387120D01*
X214926967Y-193376550D01*
X214912672Y-193311984D01*
X214900090Y-193254034D01*
X214887983Y-193196965D01*
X214881728Y-193167000D01*
X214874962Y-193134700D01*
X214867896Y-193101390D01*
X214861757Y-193072837D01*
X214860134Y-193065400D01*
X214854654Y-193040276D01*
X214847695Y-193008154D01*
X214840430Y-192974453D01*
X214837460Y-192960625D01*
X214823217Y-192894323D01*
X214810251Y-192834222D01*
X214799013Y-192782409D01*
X214790082Y-192741550D01*
X214784513Y-192715853D01*
X214777610Y-192683484D01*
X214770601Y-192650210D01*
X214768460Y-192639950D01*
X214760844Y-192603938D01*
X214752058Y-192563288D01*
X214743776Y-192525735D01*
X214742333Y-192519300D01*
X214735151Y-192487077D01*
X214727859Y-192453836D01*
X214721710Y-192425304D01*
X214720103Y-192417700D01*
X214709227Y-192365844D01*
X214700526Y-192324450D01*
X214693582Y-192291547D01*
X214687976Y-192265164D01*
X214683290Y-192243332D01*
X214679105Y-192224079D01*
X214675603Y-192208150D01*
X214659676Y-192135379D01*
X214646611Y-192074252D01*
X214636262Y-192024075D01*
X214631229Y-191998600D01*
X214626297Y-191974339D01*
X214621779Y-191954259D01*
X214618556Y-191942248D01*
X214618265Y-191941450D01*
X214615123Y-191930719D01*
X214610450Y-191911615D01*
X214605239Y-191888211D01*
X214605083Y-191887475D01*
X214593529Y-191833677D01*
X214579879Y-191771388D01*
X214563883Y-191699487D01*
X214545295Y-191616853D01*
X214536121Y-191576325D01*
X214530561Y-191551799D01*
X214523504Y-191520673D01*
X214516261Y-191488732D01*
X214514525Y-191481075D01*
X214508537Y-191454771D01*
X214502925Y-191430409D01*
X214497032Y-191405197D01*
X214490200Y-191376343D01*
X214481772Y-191341058D01*
X214471091Y-191296549D01*
X214469655Y-191290575D01*
X214461589Y-191256863D01*
X214452836Y-191220032D01*
X214445089Y-191187216D01*
X214444012Y-191182625D01*
X214430007Y-191123999D01*
X214415783Y-191066991D01*
X214399650Y-191004825D01*
X214391945Y-190975247D01*
X214384230Y-190945107D01*
X214378087Y-190920584D01*
X214377722Y-190919100D01*
X214371688Y-190895327D01*
X214363810Y-190865475D01*
X214355712Y-190835679D01*
X214355073Y-190833375D01*
X214346959Y-190803852D01*
X214338819Y-190773759D01*
X214332314Y-190749240D01*
X214331900Y-190747650D01*
X214325863Y-190725856D01*
X214320140Y-190707534D01*
X214317361Y-190700025D01*
X214313175Y-190688472D01*
X214306572Y-190668240D01*
X214298684Y-190642847D01*
X214294869Y-190630175D01*
X214286270Y-190602381D01*
X214277846Y-190576969D01*
X214270968Y-190558010D01*
X214268898Y-190553015D01*
X214262808Y-190537750D01*
X214259976Y-190527409D01*
X214259951Y-190526888D01*
X214257808Y-190518670D01*
X214252056Y-190501371D01*
X214243708Y-190477741D01*
X214233778Y-190450527D01*
X214223280Y-190422478D01*
X214213228Y-190396343D01*
X214204635Y-190374869D01*
X214199319Y-190362515D01*
X214193098Y-190347844D01*
X214190140Y-190338569D01*
X214190100Y-190338074D01*
X214187717Y-190329783D01*
X214181896Y-190315434D01*
X214181094Y-190313634D01*
X214175013Y-190299836D01*
X214165342Y-190277566D01*
X214153469Y-190250036D01*
X214142204Y-190223775D01*
X214128778Y-190193452D01*
X214111620Y-190156325D01*
X214091628Y-190114192D01*
X214069700Y-190068852D01*
X214046732Y-190022103D01*
X214023623Y-189975745D01*
X214001271Y-189931574D01*
X213980573Y-189891391D01*
X213962427Y-189856994D01*
X213947730Y-189830181D01*
X213937380Y-189812750D01*
X213936090Y-189810809D01*
X213917559Y-189784784D01*
X213896246Y-189756583D01*
X213873666Y-189728013D01*
X213851333Y-189700880D01*
X213830763Y-189676994D01*
X213813468Y-189658159D01*
X213800964Y-189646185D01*
X213795261Y-189642750D01*
X213787775Y-189639063D01*
X213773610Y-189629416D01*
X213756526Y-189616436D01*
X213733262Y-189599222D01*
X213708279Y-189583548D01*
X213679953Y-189568731D01*
X213646661Y-189554088D01*
X213606780Y-189538936D01*
X213558688Y-189522591D01*
X213500761Y-189504370D01*
X213463884Y-189493230D01*
X213443800Y-189487833D01*
X213427537Y-189484509D01*
X213422355Y-189483999D01*
X213410705Y-189482457D01*
X213391515Y-189478465D01*
X213374360Y-189474269D01*
X213344950Y-189467967D01*
X213305013Y-189461444D01*
X213256714Y-189454966D01*
X213202217Y-189448800D01*
X213143685Y-189443213D01*
X213085200Y-189438607D01*
X213060564Y-189437374D01*
X213026286Y-189436390D01*
X212983741Y-189435646D01*
X212934304Y-189435131D01*
X212879350Y-189434833D01*
X212820253Y-189434743D01*
X212758387Y-189434850D01*
G37*
X212758387Y-189434850D02*
X212695128Y-189435142D01*
X212631850Y-189435610D01*
X212569927Y-189436243D01*
X212510735Y-189437030D01*
X212455647Y-189437960D01*
X212406040Y-189439023D01*
X212363286Y-189440208D01*
X212328761Y-189441504D01*
X212303840Y-189442902D01*
X212289897Y-189444389D01*
X212288275Y-189444778D01*
X212275927Y-189447137D01*
X212253325Y-189449943D01*
X212222895Y-189452954D01*
X212187067Y-189455927D01*
X212152135Y-189458375D01*
X212107053Y-189461688D01*
X212069457Y-189465321D01*
X212040860Y-189469094D01*
X212022773Y-189472824D01*
X212018501Y-189474423D01*
X212003759Y-189479772D01*
X211981404Y-189485390D01*
X211957791Y-189489804D01*
X211879895Y-189503395D01*
X211810882Y-189519124D01*
X211746972Y-189538192D01*
X211684382Y-189561797D01*
X211619332Y-189591137D01*
X211586057Y-189607642D01*
X211540423Y-189631781D01*
X211500876Y-189655140D01*
X211464842Y-189679671D01*
X211429748Y-189707327D01*
X211393021Y-189740061D01*
X211352088Y-189779824D01*
X211330978Y-189801176D01*
X211234579Y-189906903D01*
X211145276Y-190019615D01*
X211064217Y-190137539D01*
X210992549Y-190258905D01*
X210931419Y-190381941D01*
X210890663Y-190480950D01*
X210881932Y-190503848D01*
X210874124Y-190523425D01*
X210869162Y-190534925D01*
X210866527Y-190540665D01*
X210863508Y-190548014D01*
X210859595Y-190558431D01*
X210854279Y-190573374D01*
X210847052Y-190594302D01*
X210837404Y-190622674D01*
X210824826Y-190659950D01*
X210808809Y-190707588D01*
X210806018Y-190715900D01*
X210791562Y-190759037D01*
X210780310Y-190792943D01*
X210771385Y-190820412D01*
X210763907Y-190844236D01*
X210756999Y-190867211D01*
X210749781Y-190892131D01*
X210742135Y-190919100D01*
X210735677Y-190941775D01*
X210726842Y-190972507D01*
X210716821Y-191007165D01*
X210707348Y-191039750D01*
X210656147Y-191223940D01*
X210611903Y-191402145D01*
X210573753Y-191578382D01*
X210540832Y-191756671D01*
X210512275Y-191941031D01*
X210509992Y-191957325D01*
X210505846Y-191986121D01*
X210501910Y-192011674D01*
X210498754Y-192030372D01*
X210497494Y-192036700D01*
X210495249Y-192050169D01*
X210492028Y-192074876D01*
X210487985Y-192109411D01*
X210483274Y-192152361D01*
X210478049Y-192202316D01*
X210472465Y-192257863D01*
X210466675Y-192317593D01*
X210465918Y-192325573D01*
X210462425Y-192361171D01*
X210458966Y-192394221D01*
X210455868Y-192421732D01*
X210453459Y-192440715D01*
X210452795Y-192445055D01*
X210450395Y-192463702D01*
X210447498Y-192493568D01*
X210444198Y-192533182D01*
X210440588Y-192581077D01*
X210436763Y-192635785D01*
X210432816Y-192695836D01*
X210428840Y-192759762D01*
X210424931Y-192826094D01*
X210421180Y-192893365D01*
X210417683Y-192960105D01*
X210414533Y-193024846D01*
X210411824Y-193086120D01*
X210411761Y-193087625D01*
X210409763Y-193135669D01*
X210407365Y-193193101D01*
X210404705Y-193256618D01*
X210401923Y-193322917D01*
X210399157Y-193388698D01*
X210396544Y-193450657D01*
X210396054Y-193462275D01*
X210393511Y-193523305D01*
X210390652Y-193593424D01*
X210387619Y-193669028D01*
X210384554Y-193746514D01*
X210381602Y-193822279D01*
X210378906Y-193892719D01*
X210377828Y-193921322D01*
X210375294Y-193984365D01*
X210372684Y-194040583D01*
X210370064Y-194088933D01*
X210367499Y-194128376D01*
X210365055Y-194157870D01*
X210362796Y-194176373D01*
X210361479Y-194181964D01*
X210358872Y-194194175D01*
X210357171Y-194216446D01*
X210356358Y-194249446D01*
X210356416Y-194293839D01*
X210357222Y-194345217D01*
X210358815Y-194417112D01*
X210360708Y-194492807D01*
X210362842Y-194570510D01*
X210365157Y-194648431D01*
X210367593Y-194724779D01*
X210370091Y-194797763D01*
X210372591Y-194865592D01*
X210375034Y-194926476D01*
X210377359Y-194978624D01*
X210379508Y-195020245D01*
X210379935Y-195027550D01*
X210382237Y-195067487D01*
X210384886Y-195116062D01*
X210387669Y-195169223D01*
X210390375Y-195222919D01*
X210392791Y-195273100D01*
X210392889Y-195275200D01*
X210395087Y-195317915D01*
X210397515Y-195357573D01*
X210400009Y-195391993D01*
X210402404Y-195418994D01*
X210404538Y-195436396D01*
X210405311Y-195440300D01*
X210407294Y-195452987D01*
X210409656Y-195476211D01*
X210412228Y-195507819D01*
X210414843Y-195545661D01*
X210417333Y-195587583D01*
X210418415Y-195608160D01*
X210420732Y-195650576D01*
X210423182Y-195689288D01*
X210425614Y-195722306D01*
X210427874Y-195747638D01*
X210429809Y-195763291D01*
X210430623Y-195766910D01*
X210433147Y-195778696D01*
X210435968Y-195799689D01*
X210438657Y-195826417D01*
X210440014Y-195843525D01*
X210449065Y-195927211D01*
X210463512Y-196001076D01*
X210483192Y-196064390D01*
X210496139Y-196094350D01*
X210509496Y-196120057D01*
X210523454Y-196142172D01*
X210540454Y-196163916D01*
X210562938Y-196188509D01*
X210582981Y-196208878D01*
X210623355Y-196246614D01*
X210667125Y-196282229D01*
X210715621Y-196316510D01*
X210770171Y-196350243D01*
X210832105Y-196384214D01*
X210902752Y-196419209D01*
X210983439Y-196456016D01*
X211046850Y-196483382D01*
X211150094Y-196525478D01*
X211245738Y-196560942D01*
X211336451Y-196590621D01*
X211424901Y-196615359D01*
X211513754Y-196636001D01*
X211553773Y-196644025D01*
X211580500Y-196649355D01*
X211605654Y-196654731D01*
X211623623Y-196658948D01*
X211641439Y-196662406D01*
X211666793Y-196665946D01*
X211694549Y-196668861D01*
X211697725Y-196669130D01*
X211724615Y-196671900D01*
X211748920Y-196675384D01*
X211765947Y-196678892D01*
X211767575Y-196679375D01*
X211779120Y-196681450D01*
X211801341Y-196684024D01*
X211832234Y-196686919D01*
X211869794Y-196689956D01*
X211912016Y-196692958D01*
X211942200Y-196694879D01*
X211989802Y-196697834D01*
X212037214Y-196700905D01*
X212081653Y-196703901D01*
X212120339Y-196706634D01*
X212150487Y-196708913D01*
X212161275Y-196709805D01*
X212193833Y-196711971D01*
X212232984Y-196713554D01*
X212276020Y-196714551D01*
X212320233Y-196714955D01*
X212362917Y-196714764D01*
X212401362Y-196713973D01*
X212432862Y-196712577D01*
X212454709Y-196710572D01*
X212456550Y-196710290D01*
X212482413Y-196705685D01*
X212512620Y-196699725D01*
X212543576Y-196693188D01*
X212571686Y-196686847D01*
X212593353Y-196681481D01*
X212602600Y-196678774D01*
X212615670Y-196674598D01*
X212637182Y-196667995D01*
X212663390Y-196660110D01*
X212675625Y-196656475D01*
X212727921Y-196639693D01*
X212782251Y-196619935D01*
X212835282Y-196598567D01*
X212883678Y-196576954D01*
X212924105Y-196556461D01*
X212934705Y-196550427D01*
X212993317Y-196509946D01*
X213048699Y-196460363D01*
X213098570Y-196404273D01*
X213140650Y-196344274D01*
X213172658Y-196282961D01*
X213175478Y-196276220D01*
X213189648Y-196231300D01*
X213199316Y-196179301D01*
X213204335Y-196123844D01*
X213204555Y-196068550D01*
X213199830Y-196017040D01*
X213190010Y-195972935D01*
X213188130Y-195967300D01*
X213166130Y-195918007D01*
X213134878Y-195866546D01*
X213096736Y-195815896D01*
X213054061Y-195769037D01*
X213009214Y-195728947D01*
X212985607Y-195711622D01*
X212924536Y-195675608D01*
X212854126Y-195643110D01*
X212777533Y-195615359D01*
X212697912Y-195593587D01*
X212666100Y-195586863D01*
X212634814Y-195580598D01*
X212596956Y-195572687D01*
X212557090Y-195564113D01*
X212519777Y-195555859D01*
X212489579Y-195548908D01*
X212485440Y-195547917D01*
X212445974Y-195536424D01*
X212407401Y-195521665D01*
X212372289Y-195504930D01*
X212343206Y-195487512D01*
X212322720Y-195470700D01*
X212316519Y-195462952D01*
X212305601Y-195438721D01*
X212295731Y-195402834D01*
X212287017Y-195356298D01*
X212279566Y-195300124D01*
X212273487Y-195235318D01*
X212268887Y-195162890D01*
X212265875Y-195083848D01*
X212264558Y-194999201D01*
X212264507Y-194976750D01*
X212264942Y-194926220D01*
X212266138Y-194871864D01*
X212267978Y-194816105D01*
X212270348Y-194761371D01*
X212273132Y-194710087D01*
X212276213Y-194664679D01*
X212279478Y-194627572D01*
X212282187Y-194605199D01*
X212295126Y-194557008D01*
X212318752Y-194508879D01*
X212351257Y-194463142D01*
X212390833Y-194422131D01*
X212435672Y-194388178D01*
X212461898Y-194373369D01*
X212532792Y-194343322D01*
X212604504Y-194323990D01*
X212659750Y-194315889D01*
X212691627Y-194312339D01*
X212722544Y-194308354D01*
X212747947Y-194304544D01*
X212758175Y-194302693D01*
X212777785Y-194300336D01*
X212805889Y-194299009D01*
X212838314Y-194298837D01*
X212862950Y-194299542D01*
X212890237Y-194300740D01*
X212927407Y-194302334D01*
X212971658Y-194304204D01*
X213020183Y-194306234D01*
X213070177Y-194308303D01*
X213101075Y-194309571D01*
X213148645Y-194311679D01*
X213194742Y-194314020D01*
X213236996Y-194316452D01*
X213273037Y-194318832D01*
X213300494Y-194321017D01*
X213313800Y-194322412D01*
X213369854Y-194329623D01*
X213414719Y-194335504D01*
X213449813Y-194340264D01*
X213476553Y-194344110D01*
X213496358Y-194347252D01*
X213510644Y-194349897D01*
X213520830Y-194352254D01*
X213524924Y-194353418D01*
X213545720Y-194358851D01*
X213568696Y-194363627D01*
X213570680Y-194363970D01*
X213607473Y-194374968D01*
X213639923Y-194393692D01*
X213658327Y-194410917D01*
X213669024Y-194426487D01*
X213683153Y-194451197D01*
X213699341Y-194482431D01*
X213716211Y-194517575D01*
X213727111Y-194541775D01*
X213733483Y-194560428D01*
X213740921Y-194588937D01*
X213748750Y-194624575D01*
X213753039Y-194646550D01*
X213755292Y-194666382D01*
X213756539Y-194694289D01*
X213756866Y-194727578D01*
X213756359Y-194763561D01*
X213755104Y-194799546D01*
X213753187Y-194832843D01*
X213750694Y-194860762D01*
X213747711Y-194880611D01*
X213745309Y-194888393D01*
X213742662Y-194899574D01*
X213740293Y-194921352D01*
X213738242Y-194951628D01*
X213736551Y-194988300D01*
X213735257Y-195029269D01*
X213734403Y-195072435D01*
X213734028Y-195115696D01*
X213734172Y-195156954D01*
X213734876Y-195194107D01*
X213736178Y-195225055D01*
X213738121Y-195247699D01*
X213738405Y-195249800D01*
X213745426Y-195293263D01*
X213753526Y-195334112D01*
X213762050Y-195369494D01*
X213770342Y-195396559D01*
X213774316Y-195406334D01*
X213780714Y-195422007D01*
X213783676Y-195433267D01*
X213783700Y-195433864D01*
X213786983Y-195445576D01*
X213795947Y-195465530D01*
X213809265Y-195491378D01*
X213825609Y-195520771D01*
X213843652Y-195551362D01*
X213862067Y-195580801D01*
X213879527Y-195606739D01*
X213887815Y-195618100D01*
X213935338Y-195677371D01*
X213981460Y-195726801D01*
X214028651Y-195768164D01*
X214079386Y-195803233D01*
X214136135Y-195833780D01*
X214201373Y-195861580D01*
X214253600Y-195880418D01*
X214283686Y-195890459D01*
X214312055Y-195899569D01*
X214334911Y-195906548D01*
X214345675Y-195909541D01*
X214364708Y-195914395D01*
X214390556Y-195921041D01*
X214417743Y-195928072D01*
X214418700Y-195928320D01*
X214478634Y-195943696D01*
X214527772Y-195955871D01*
X214567526Y-195965146D01*
X214599308Y-195971821D01*
X214624531Y-195976198D01*
X214644606Y-195978577D01*
X214657722Y-195979241D01*
X214681442Y-195980523D01*
X214702111Y-195983214D01*
X214712284Y-195985756D01*
X214735120Y-195991564D01*
X214770225Y-195996272D01*
X214817658Y-195999883D01*
X214877479Y-196002398D01*
X214949748Y-196003822D01*
X215034523Y-196004154D01*
X215131865Y-196003398D01*
X215180700Y-196002688D01*
X215240903Y-196001597D01*
X215298973Y-196000349D01*
X215353288Y-195998994D01*
X215402222Y-195997581D01*
X215444150Y-195996159D01*
X215477450Y-195994775D01*
X215500496Y-195993479D01*
X215507725Y-195992873D01*
X215577640Y-195984929D01*
X215647212Y-195975745D01*
X215714573Y-195965651D01*
X215777853Y-195954972D01*
X215835180Y-195944036D01*
X215884685Y-195933170D01*
X215924498Y-195922700D01*
X215942700Y-195916835D01*
X215955780Y-195912558D01*
X215977309Y-195905909D01*
X216003537Y-195898037D01*
X216015725Y-195894446D01*
X216042347Y-195886460D01*
X216065444Y-195879190D01*
X216081494Y-195873760D01*
X216085575Y-195872173D01*
X216097742Y-195866938D01*
X216117319Y-195858582D01*
X216139550Y-195849133D01*
X216174652Y-195832688D01*
X216207836Y-195813465D01*
X216241870Y-195789579D01*
X216279523Y-195759142D01*
X216307758Y-195734499D01*
X216358201Y-195685546D01*
X216397228Y-195637966D01*
X216425644Y-195589686D01*
X216444256Y-195538634D01*
X216453871Y-195482738D01*
X216455296Y-195419926D01*
X216454234Y-195405375D01*
X216337555Y-195405375D01*
X216331776Y-195467359D01*
X216315257Y-195523033D01*
X216288192Y-195571979D01*
X216250775Y-195613778D01*
X216234430Y-195627285D01*
X216213645Y-195641699D01*
X216189777Y-195656104D01*
X216166148Y-195668731D01*
X216146084Y-195677812D01*
X216132908Y-195681580D01*
X216132305Y-195681600D01*
X216123882Y-195684120D01*
X216107557Y-195690727D01*
X216086898Y-195699974D01*
X216058328Y-195712541D01*
X216026837Y-195724797D01*
X215990465Y-195737390D01*
X215947250Y-195750972D01*
X215895233Y-195766193D01*
X215844275Y-195780453D01*
X215792561Y-195792813D01*
X215729960Y-195804494D01*
X215658278Y-195815169D01*
X215634725Y-195818196D01*
X215598788Y-195822704D01*
X215560434Y-195827603D01*
X215525624Y-195832126D01*
X215510900Y-195834076D01*
X215485360Y-195836779D01*
X215449315Y-195839591D01*
X215404963Y-195842415D01*
X215354497Y-195845151D01*
X215300113Y-195847703D01*
X215244005Y-195849973D01*
X215188369Y-195851863D01*
X215135400Y-195853275D01*
X215087292Y-195854111D01*
X215056875Y-195854302D01*
X215000403Y-195853525D01*
X214942022Y-195851318D01*
X214884550Y-195847884D01*
X214830801Y-195843431D01*
X214783593Y-195838165D01*
X214745740Y-195832290D01*
X214739967Y-195831148D01*
X214711692Y-195826153D01*
X214683561Y-195822558D01*
X214661856Y-195821148D01*
X214637909Y-195819778D01*
X214615017Y-195816538D01*
X214609200Y-195815230D01*
X214544145Y-195798339D01*
X214490262Y-195784318D01*
X214446429Y-195772863D01*
X214411520Y-195763672D01*
X214384411Y-195756443D01*
X214363979Y-195750873D01*
X214349098Y-195746659D01*
X214338645Y-195743498D01*
X214331495Y-195741089D01*
X214326625Y-195739172D01*
X214314212Y-195734359D01*
X214294234Y-195727139D01*
X214272650Y-195719638D01*
X214200799Y-195688689D01*
X214134718Y-195646736D01*
X214074222Y-195593615D01*
X214019126Y-195529163D01*
X213969244Y-195453217D01*
X213967290Y-195449825D01*
X213949023Y-195416094D01*
X213934253Y-195383907D01*
X213921733Y-195349824D01*
X213910216Y-195310407D01*
X213898456Y-195262217D01*
X213897075Y-195256150D01*
X213894705Y-195238427D01*
X213892931Y-195210535D01*
X213891748Y-195174987D01*
X213891149Y-195134299D01*
X213891128Y-195090985D01*
X213891680Y-195047562D01*
X213892799Y-195006544D01*
X213894477Y-194970447D01*
X213896710Y-194941785D01*
X213897849Y-194932300D01*
X213909027Y-194833454D01*
X213913297Y-194743915D01*
X213910558Y-194662271D01*
X213900710Y-194587105D01*
X213883652Y-194517005D01*
X213864248Y-194462400D01*
X213834501Y-194397092D01*
X213802760Y-194341832D01*
X213769534Y-194297326D01*
X213735333Y-194264281D01*
X213709239Y-194247387D01*
X213682155Y-194235363D01*
X213648786Y-194223057D01*
X213615016Y-194212475D01*
X213586850Y-194205646D01*
X213565163Y-194201237D01*
X213541678Y-194195890D01*
X213539225Y-194195290D01*
X213522947Y-194192072D01*
X213497559Y-194187981D01*
X213466575Y-194183549D01*
X213434450Y-194179423D01*
X213398362Y-194175009D01*
X213361495Y-194170416D01*
X213328567Y-194166237D01*
X213307450Y-194163485D01*
X213270683Y-194159686D01*
X213221804Y-194156426D01*
X213161388Y-194153725D01*
X213090015Y-194151602D01*
X213008260Y-194150076D01*
X212916700Y-194149168D01*
X212878825Y-194148987D01*
X212806957Y-194149149D01*
X212746119Y-194150258D01*
X212694667Y-194152438D01*
X212650960Y-194155815D01*
X212613354Y-194160513D01*
X212580205Y-194166656D01*
X212551800Y-194173816D01*
X212480395Y-194195842D01*
X212419759Y-194218568D01*
X212367972Y-194243227D01*
X212323117Y-194271052D01*
X212283272Y-194303277D01*
X212246519Y-194341136D01*
X212210938Y-194385861D01*
X212201548Y-194398900D01*
X212178231Y-194434156D01*
X212160005Y-194467805D01*
X212145998Y-194502569D01*
X212135337Y-194541169D01*
X212127149Y-194586329D01*
X212120562Y-194640770D01*
X212119050Y-194656281D01*
X212116460Y-194690876D01*
X212114193Y-194734766D01*
X212112272Y-194785837D01*
X212110720Y-194841972D01*
X212109562Y-194901056D01*
X212108819Y-194960973D01*
X212108516Y-195019607D01*
X212108676Y-195074843D01*
X212109322Y-195124564D01*
X212110477Y-195166655D01*
X212112165Y-195199000D01*
X212112973Y-195208525D01*
X212120403Y-195280324D01*
X212127316Y-195340393D01*
X212133861Y-195389682D01*
X212140184Y-195429143D01*
X212146435Y-195459727D01*
X212152761Y-195482387D01*
X212157421Y-195494275D01*
X212163488Y-195507424D01*
X212172272Y-195526527D01*
X212177077Y-195536997D01*
X212199951Y-195572309D01*
X212234912Y-195605345D01*
X212281507Y-195635858D01*
X212339288Y-195663603D01*
X212407802Y-195688333D01*
X212486599Y-195709801D01*
X212497825Y-195712396D01*
X212529111Y-195719419D01*
X212567059Y-195727836D01*
X212605916Y-195736376D01*
X212628000Y-195741188D01*
X212674166Y-195751457D01*
X212710845Y-195760402D01*
X212741039Y-195769005D01*
X212767749Y-195778247D01*
X212793977Y-195789111D01*
X212822725Y-195802577D01*
X212836641Y-195809428D01*
X212898064Y-195845499D01*
X212949844Y-195888388D01*
X212993997Y-195939879D01*
X213009027Y-195961811D01*
X213025700Y-195989702D01*
X213036918Y-196014887D01*
X213043478Y-196040916D01*
X213046181Y-196071341D01*
X213045824Y-196109716D01*
X213045258Y-196122925D01*
X213042481Y-196161918D01*
X213037463Y-196192563D01*
X213028782Y-196219185D01*
X213015021Y-196246111D01*
X212994759Y-196277665D01*
X212994191Y-196278500D01*
X212953368Y-196330980D01*
X212907331Y-196375106D01*
X212853888Y-196412597D01*
X212790850Y-196445172D01*
X212770875Y-196453773D01*
X212748864Y-196462986D01*
X212730063Y-196471009D01*
X212720075Y-196475415D01*
X212703515Y-196481909D01*
X212677881Y-196490663D01*
X212646386Y-196500708D01*
X212612240Y-196511077D01*
X212578655Y-196520804D01*
X212548841Y-196528922D01*
X212526010Y-196534463D01*
X212520050Y-196535654D01*
X212499729Y-196540228D01*
X212481999Y-196545638D01*
X212481950Y-196545657D01*
X212455759Y-196552351D01*
X212419278Y-196557037D01*
X212374765Y-196559677D01*
X212324476Y-196560234D01*
X212270667Y-196558673D01*
X212215597Y-196554958D01*
X212173975Y-196550632D01*
X212147768Y-196547833D01*
X212124675Y-196546040D01*
X212109030Y-196545575D01*
X212107300Y-196545660D01*
X212100468Y-196546143D01*
X212093833Y-196546394D01*
X212085459Y-196546322D01*
X212073407Y-196545837D01*
X212055741Y-196544849D01*
X212030523Y-196543266D01*
X211995814Y-196540999D01*
X211967600Y-196539138D01*
X211808131Y-196524989D01*
X211658993Y-196504279D01*
X211520355Y-196477038D01*
X211392387Y-196443299D01*
X211319900Y-196419633D01*
X211289935Y-196408911D01*
X211257840Y-196397178D01*
X211226426Y-196385489D01*
X211198506Y-196374900D01*
X211176892Y-196366467D01*
X211164396Y-196361245D01*
X211164325Y-196361212D01*
X211152089Y-196355854D01*
X211132399Y-196347603D01*
X211110350Y-196338585D01*
X211088984Y-196329772D01*
X211066433Y-196320055D01*
X211040340Y-196308372D01*
X211008348Y-196293663D01*
X210968102Y-196274866D01*
X210951600Y-196267111D01*
X210902010Y-196241994D01*
X210851538Y-196213202D01*
X210802485Y-196182295D01*
X210757150Y-196150827D01*
X210717836Y-196120355D01*
X210686842Y-196092437D01*
X210675530Y-196080324D01*
X210656366Y-196056241D01*
X210641096Y-196032028D01*
X210628985Y-196005466D01*
X210619295Y-195974339D01*
X210611289Y-195936429D01*
X210604229Y-195889517D01*
X210599686Y-195852155D01*
X210596097Y-195822624D01*
X210592656Y-195797720D01*
X210589765Y-195780162D01*
X210587908Y-195772780D01*
X210586575Y-195765066D01*
X210584761Y-195746622D01*
X210582616Y-195719402D01*
X210580289Y-195685360D01*
X210577932Y-195646450D01*
X210577234Y-195633975D01*
X210574747Y-195592634D01*
X210572041Y-195554312D01*
X210569308Y-195521294D01*
X210566742Y-195495869D01*
X210564534Y-195480322D01*
X210564102Y-195478400D01*
X210562412Y-195466820D01*
X210560299Y-195444230D01*
X210557876Y-195412308D01*
X210555257Y-195372731D01*
X210552555Y-195327179D01*
X210549884Y-195277330D01*
X210548219Y-195243450D01*
X210545260Y-195182196D01*
X210541945Y-195115697D01*
X210538459Y-195047462D01*
X210534981Y-194981003D01*
X210531694Y-194919830D01*
X210528779Y-194867453D01*
X210528493Y-194862450D01*
X210525301Y-194805314D01*
X210522895Y-194757946D01*
X210521196Y-194717440D01*
X210520125Y-194680893D01*
X210519603Y-194645401D01*
X210519549Y-194608061D01*
X210519886Y-194565968D01*
X210520040Y-194552887D01*
X210519813Y-194533763D01*
X210518889Y-194505158D01*
X210517398Y-194470264D01*
X210515470Y-194432272D01*
X210514330Y-194412230D01*
X210511808Y-194357857D01*
X210511411Y-194315741D01*
X210513141Y-194285619D01*
X210514653Y-194275705D01*
X210516461Y-194261634D01*
X210518601Y-194236633D01*
X210520967Y-194202465D01*
X210523450Y-194160892D01*
X210525942Y-194113677D01*
X210528337Y-194062582D01*
X210529818Y-194027425D01*
X210531921Y-193975002D01*
X210534425Y-193912409D01*
X210537229Y-193842168D01*
X210540233Y-193766798D01*
X210543336Y-193688821D01*
X210546439Y-193610756D01*
X210549440Y-193535125D01*
X210551319Y-193487675D01*
X210553895Y-193423353D01*
X210556417Y-193361778D01*
X210558824Y-193304331D01*
X210561056Y-193252395D01*
X210563053Y-193207354D01*
X210564753Y-193170590D01*
X210566098Y-193143486D01*
X210567025Y-193127425D01*
X210567150Y-193125725D01*
X210568169Y-193109436D01*
X210569539Y-193082497D01*
X210571172Y-193046952D01*
X210572976Y-193004843D01*
X210574862Y-192958213D01*
X210576740Y-192909105D01*
X210576949Y-192903475D01*
X210578911Y-192854826D01*
X210581080Y-192808980D01*
X210583338Y-192767858D01*
X210585571Y-192733379D01*
X210587663Y-192707465D01*
X210589498Y-192692038D01*
X210589744Y-192690750D01*
X210592317Y-192674098D01*
X210595274Y-192647923D01*
X210598302Y-192615383D01*
X210601090Y-192579634D01*
X210601954Y-192566925D01*
X210610090Y-192459211D01*
X210620861Y-192343577D01*
X210633876Y-192223114D01*
X210648745Y-192100913D01*
X210665079Y-191980065D01*
X210682486Y-191863659D01*
X210700578Y-191754787D01*
X210712916Y-191687450D01*
X210725211Y-191624131D01*
X210736854Y-191566464D01*
X210748383Y-191512168D01*
X210760337Y-191458966D01*
X210773256Y-191404577D01*
X210787678Y-191346722D01*
X210804143Y-191283123D01*
X210823188Y-191211501D01*
X210841289Y-191144525D01*
X210858164Y-191083357D01*
X210872443Y-191033685D01*
X210884377Y-190994630D01*
X210885178Y-190992125D01*
X210891072Y-190973172D01*
X210898840Y-190947432D01*
X210906846Y-190920325D01*
X210907203Y-190919100D01*
X210914252Y-190895936D01*
X210924451Y-190863776D01*
X210936948Y-190825183D01*
X210950890Y-190782724D01*
X210965425Y-190738961D01*
X210979698Y-190696461D01*
X210992859Y-190657787D01*
X211004053Y-190625505D01*
X211012428Y-190602179D01*
X211013838Y-190598425D01*
X211053060Y-190500540D01*
X211092832Y-190412312D01*
X211134665Y-190330733D01*
X211180072Y-190252794D01*
X211214357Y-190199446D01*
X211263598Y-190127983D01*
X211310957Y-190064731D01*
X211359312Y-190006125D01*
X211411546Y-189948603D01*
X211445477Y-189913602D01*
X211485801Y-189873607D01*
X211520226Y-189841437D01*
X211551110Y-189815262D01*
X211580806Y-189793256D01*
X211611672Y-189773589D01*
X211646062Y-189754433D01*
X211659735Y-189747323D01*
X211726746Y-189715568D01*
X211792652Y-189690073D01*
X211860682Y-189669908D01*
X211934066Y-189654146D01*
X212016035Y-189641858D01*
X212034275Y-189639675D01*
X212067233Y-189635563D01*
X212098481Y-189631114D01*
X212124206Y-189626901D01*
X212139050Y-189623893D01*
X212160674Y-189619467D01*
X212188447Y-189614930D01*
X212212762Y-189611704D01*
X212235913Y-189608638D01*
X212254162Y-189605479D01*
X212263753Y-189602883D01*
X212263966Y-189602763D01*
X212271423Y-189601793D01*
X212290223Y-189600569D01*
X212319015Y-189599145D01*
X212356446Y-189597576D01*
X212401164Y-189595917D01*
X212451816Y-189594224D01*
X212507050Y-189592549D01*
X212536330Y-189591726D01*
X212605462Y-189590164D01*
X212676494Y-189589167D01*
X212748087Y-189588710D01*
X212818906Y-189588767D01*
X212887614Y-189589312D01*
X212952874Y-189590320D01*
X213013350Y-189591765D01*
X213067705Y-189593621D01*
X213114603Y-189595864D01*
X213152708Y-189598466D01*
X213180682Y-189601404D01*
X213196325Y-189604380D01*
X213210600Y-189607646D01*
X213233793Y-189611910D01*
X213262229Y-189616525D01*
X213282050Y-189619446D01*
X213357841Y-189632109D01*
X213429836Y-189647975D01*
X213496348Y-189666501D01*
X213555686Y-189687146D01*
X213606162Y-189709368D01*
X213646086Y-189732625D01*
X213654813Y-189738993D01*
X213688100Y-189767507D01*
X213724056Y-189802994D01*
X213758956Y-189841453D01*
X213789074Y-189878885D01*
X213801699Y-189896750D01*
X213812274Y-189914283D01*
X213827309Y-189941447D01*
X213845866Y-189976377D01*
X213867008Y-190017207D01*
X213889799Y-190062071D01*
X213913301Y-190109106D01*
X213936576Y-190156444D01*
X213958689Y-190202222D01*
X213978701Y-190244573D01*
X213995676Y-190281632D01*
X214000367Y-190292192D01*
X214039477Y-190385434D01*
X214078655Y-190486991D01*
X214116442Y-190592689D01*
X214151376Y-190698352D01*
X214181998Y-190799802D01*
X214197348Y-190855600D01*
X214205119Y-190884789D01*
X214213223Y-190914795D01*
X214219638Y-190938150D01*
X214223122Y-190950781D01*
X214226634Y-190963875D01*
X214230600Y-190979127D01*
X214235445Y-190998229D01*
X214241594Y-191022875D01*
X214249474Y-191054758D01*
X214259509Y-191095571D01*
X214272126Y-191147008D01*
X214272295Y-191147700D01*
X214280289Y-191179996D01*
X214287806Y-191209805D01*
X214294019Y-191233879D01*
X214298099Y-191248973D01*
X214298194Y-191249300D01*
X214303028Y-191267569D01*
X214308987Y-191292255D01*
X214313629Y-191312800D01*
X214319478Y-191338975D01*
X214326933Y-191371413D01*
X214334595Y-191404038D01*
X214336310Y-191411225D01*
X214343704Y-191442381D01*
X214351147Y-191474222D01*
X214357297Y-191500991D01*
X214358533Y-191506475D01*
X214369903Y-191557020D01*
X214381157Y-191606662D01*
X214391512Y-191651969D01*
X214400187Y-191689507D01*
X214402675Y-191700150D01*
X214408585Y-191725666D01*
X214415756Y-191757287D01*
X214424519Y-191796503D01*
X214435208Y-191844804D01*
X214448155Y-191903680D01*
X214451564Y-191919225D01*
X214458421Y-191950464D01*
X214465440Y-191982377D01*
X214471346Y-192009162D01*
X214472520Y-192014475D01*
X214477684Y-192037998D01*
X214484389Y-192068785D01*
X214491512Y-192101680D01*
X214494616Y-192116075D01*
X214505759Y-192167799D01*
X214515007Y-192210589D01*
X214523115Y-192247929D01*
X214530841Y-192283303D01*
X214538941Y-192320196D01*
X214539437Y-192322450D01*
X214547279Y-192358488D01*
X214555997Y-192399168D01*
X214563932Y-192436734D01*
X214565260Y-192443100D01*
X214577114Y-192499800D01*
X214587573Y-192549125D01*
X214597721Y-192596150D01*
X214608646Y-192645955D01*
X214608722Y-192646300D01*
X214616408Y-192681495D01*
X214625098Y-192721878D01*
X214633235Y-192760195D01*
X214635319Y-192770125D01*
X214642085Y-192802284D01*
X214648973Y-192834698D01*
X214654884Y-192862202D01*
X214656959Y-192871725D01*
X214662200Y-192895746D01*
X214668917Y-192926727D01*
X214675927Y-192959206D01*
X214678280Y-192970150D01*
X214686044Y-193006212D01*
X214694832Y-193046917D01*
X214702966Y-193084495D01*
X214704334Y-193090800D01*
X214711561Y-193124260D01*
X214719200Y-193159891D01*
X214725887Y-193191326D01*
X214727454Y-193198750D01*
X214733754Y-193228507D01*
X214741293Y-193263851D01*
X214748612Y-193297959D01*
X214749812Y-193303525D01*
X214756664Y-193335388D01*
X214763749Y-193368513D01*
X214769756Y-193396770D01*
X214770850Y-193401950D01*
X214776363Y-193427571D01*
X214783460Y-193459846D01*
X214790880Y-193493050D01*
X214793256Y-193503550D01*
X214801068Y-193538791D01*
X214809743Y-193579223D01*
X214817724Y-193617568D01*
X214819711Y-193627375D01*
X214826421Y-193660673D01*
X214833434Y-193695299D01*
X214839591Y-193725533D01*
X214841597Y-193735325D01*
X214855151Y-193802630D01*
X214866064Y-193859964D01*
X214874751Y-193909679D01*
X214881633Y-193954130D01*
X214885548Y-193982975D01*
X214889565Y-194013029D01*
X214893463Y-194039788D01*
X214896733Y-194059887D01*
X214898502Y-194068700D01*
X214901397Y-194082234D01*
X214905540Y-194104211D01*
X214910166Y-194130533D01*
X214911515Y-194138550D01*
X214916814Y-194169648D01*
X214923359Y-194207000D01*
X214930053Y-194244377D01*
X214932759Y-194259200D01*
X214939163Y-194294059D01*
X214945957Y-194331078D01*
X214952047Y-194364301D01*
X214954312Y-194376675D01*
X214959135Y-194401690D01*
X214963603Y-194422530D01*
X214966907Y-194435476D01*
X214967438Y-194437000D01*
X214970440Y-194447611D01*
X214974826Y-194466827D01*
X214979714Y-194490753D01*
X214980368Y-194494150D01*
X214988674Y-194535422D01*
X214999405Y-194585341D01*
X215011762Y-194640271D01*
X215024372Y-194694175D01*
X215035744Y-194741880D01*
X215044593Y-194779080D01*
X215051353Y-194807621D01*
X215056457Y-194829346D01*
X215060339Y-194846104D01*
X215063432Y-194859737D01*
X215066144Y-194871975D01*
X215071752Y-194896854D01*
X215078483Y-194925788D01*
X215082306Y-194941825D01*
X215087710Y-194964412D01*
X215094903Y-194994747D01*
X215102789Y-195028207D01*
X215107848Y-195049775D01*
X215117322Y-195089121D01*
X215125106Y-195118214D01*
X215131980Y-195139259D01*
X215138723Y-195154460D01*
X215146116Y-195166021D01*
X215151094Y-195172022D01*
X215173125Y-195188454D01*
X215198295Y-195194668D01*
X215224026Y-195191790D01*
X215247742Y-195180942D01*
X215266865Y-195163248D01*
X215278819Y-195139832D01*
X215281349Y-195115221D01*
X215281175Y-195098841D01*
X215282923Y-195088605D01*
X215283488Y-195087745D01*
X215290819Y-195085889D01*
X215308572Y-195083256D01*
X215334514Y-195080124D01*
X215366412Y-195076772D01*
X215388005Y-195074723D01*
X215429324Y-195070911D01*
X215472692Y-195066833D01*
X215513628Y-195062916D01*
X215547651Y-195059585D01*
X215555350Y-195058813D01*
X215581550Y-195056960D01*
X215617538Y-195055543D01*
X215660407Y-195054616D01*
X215707253Y-195054234D01*
X215755167Y-195054451D01*
X215774425Y-195054726D01*
X215825151Y-195055746D01*
X215865285Y-195056952D01*
X215896936Y-195058511D01*
X215922212Y-195060592D01*
X215943222Y-195063363D01*
X215962073Y-195066993D01*
X215978535Y-195071026D01*
X216058810Y-195096593D01*
X216130821Y-195128505D01*
X216193484Y-195166167D01*
X216245717Y-195208986D01*
X216263241Y-195227193D01*
X216294519Y-195265258D01*
X216316233Y-195300016D01*
X216329721Y-195334675D01*
X216336322Y-195372444D01*
X216337555Y-195405375D01*
X216454234Y-195405375D01*
X216451336Y-195365694D01*
X216437991Y-195286299D01*
X216415595Y-195214259D01*
X216384466Y-195150337D01*
X216344925Y-195095296D01*
X216332103Y-195081283D01*
X216284244Y-195038352D01*
X216228597Y-195001025D01*
X216163700Y-194968466D01*
X216088085Y-194939839D01*
X216079225Y-194936950D01*
X216045231Y-194926237D01*
X216015638Y-194917650D01*
X215988424Y-194910963D01*
X215961563Y-194905947D01*
X215933033Y-194902376D01*
X215900808Y-194900022D01*
X215862865Y-194898657D01*
X215817180Y-194898054D01*
X215761728Y-194897986D01*
X215733150Y-194898069D01*
X215681916Y-194898483D01*
X215632266Y-194899313D01*
X215586330Y-194900492D01*
X215546231Y-194901951D01*
X215514097Y-194903622D01*
X215492054Y-194905438D01*
X215488675Y-194905863D01*
X215449622Y-194910836D01*
X215408806Y-194915190D01*
X215368305Y-194918795D01*
X215330192Y-194921520D01*
X215296544Y-194923237D01*
X215269434Y-194923814D01*
X215250938Y-194923122D01*
X215243300Y-194921239D01*
X215238465Y-194911828D01*
X215232576Y-194894008D01*
X215227507Y-194874172D01*
X215216359Y-194824449D01*
X215207429Y-194784799D01*
X215200185Y-194752898D01*
X215194093Y-194726421D01*
X215188621Y-194703043D01*
X215183236Y-194680440D01*
X215180428Y-194668775D01*
X215161605Y-194588615D01*
X215142634Y-194503744D01*
X215124124Y-194417124D01*
X215106685Y-194331721D01*
X215090927Y-194250499D01*
X215077458Y-194176424D01*
X215069495Y-194129025D01*
X215064972Y-194102051D01*
X215060721Y-194078749D01*
X215057425Y-194062793D01*
X215056494Y-194059175D01*
X215053413Y-194046682D01*
X215049011Y-194026143D01*
X215044244Y-194002025D01*
X215039187Y-193975812D01*
X215032647Y-193942550D01*
X215025688Y-193907632D01*
X215022316Y-193890900D01*
X215014848Y-193853747D01*
X215006577Y-193812166D01*
X214998912Y-193773254D01*
X214996467Y-193760725D01*
X214989822Y-193726823D01*
X214982723Y-193691041D01*
X214976368Y-193659397D01*
X214974375Y-193649600D01*
X214968417Y-193618768D01*
X214962573Y-193585746D01*
X214958569Y-193560700D01*
X214954076Y-193530082D01*
X214949147Y-193496467D01*
X214946464Y-193478150D01*
X214942201Y-193452550D01*
X214936108Y-193420303D01*
X214929280Y-193387120D01*
X214926967Y-193376550D01*
X214912672Y-193311984D01*
X214900090Y-193254034D01*
X214887983Y-193196965D01*
X214881728Y-193167000D01*
X214874962Y-193134700D01*
X214867896Y-193101390D01*
X214861757Y-193072837D01*
X214860134Y-193065400D01*
X214854654Y-193040276D01*
X214847695Y-193008154D01*
X214840430Y-192974453D01*
X214837460Y-192960625D01*
X214823217Y-192894323D01*
X214810251Y-192834222D01*
X214799013Y-192782409D01*
X214790082Y-192741550D01*
X214784513Y-192715853D01*
X214777610Y-192683484D01*
X214770601Y-192650210D01*
X214768460Y-192639950D01*
X214760844Y-192603938D01*
X214752058Y-192563288D01*
X214743776Y-192525735D01*
X214742333Y-192519300D01*
X214735151Y-192487077D01*
X214727859Y-192453836D01*
X214721710Y-192425304D01*
X214720103Y-192417700D01*
X214709227Y-192365844D01*
X214700526Y-192324450D01*
X214693582Y-192291547D01*
X214687976Y-192265164D01*
X214683290Y-192243332D01*
X214679105Y-192224079D01*
X214675603Y-192208150D01*
X214659676Y-192135379D01*
X214646611Y-192074252D01*
X214636262Y-192024075D01*
X214631229Y-191998600D01*
X214626297Y-191974339D01*
X214621779Y-191954259D01*
X214618556Y-191942248D01*
X214618265Y-191941450D01*
X214615123Y-191930719D01*
X214610450Y-191911615D01*
X214605239Y-191888211D01*
X214605083Y-191887475D01*
X214593529Y-191833677D01*
X214579879Y-191771388D01*
X214563883Y-191699487D01*
X214545295Y-191616853D01*
X214536121Y-191576325D01*
X214530561Y-191551799D01*
X214523504Y-191520673D01*
X214516261Y-191488732D01*
X214514525Y-191481075D01*
X214508537Y-191454771D01*
X214502925Y-191430409D01*
X214497032Y-191405197D01*
X214490200Y-191376343D01*
X214481772Y-191341058D01*
X214471091Y-191296549D01*
X214469655Y-191290575D01*
X214461589Y-191256863D01*
X214452836Y-191220032D01*
X214445089Y-191187216D01*
X214444012Y-191182625D01*
X214430007Y-191123999D01*
X214415783Y-191066991D01*
X214399650Y-191004825D01*
X214391945Y-190975247D01*
X214384230Y-190945107D01*
X214378087Y-190920584D01*
X214377722Y-190919100D01*
X214371688Y-190895327D01*
X214363810Y-190865475D01*
X214355712Y-190835679D01*
X214355073Y-190833375D01*
X214346959Y-190803852D01*
X214338819Y-190773759D01*
X214332314Y-190749240D01*
X214331900Y-190747650D01*
X214325863Y-190725856D01*
X214320140Y-190707534D01*
X214317361Y-190700025D01*
X214313175Y-190688472D01*
X214306572Y-190668240D01*
X214298684Y-190642847D01*
X214294869Y-190630175D01*
X214286270Y-190602381D01*
X214277846Y-190576969D01*
X214270968Y-190558010D01*
X214268898Y-190553015D01*
X214262808Y-190537750D01*
X214259976Y-190527409D01*
X214259951Y-190526888D01*
X214257808Y-190518670D01*
X214252056Y-190501371D01*
X214243708Y-190477741D01*
X214233778Y-190450527D01*
X214223280Y-190422478D01*
X214213228Y-190396343D01*
X214204635Y-190374869D01*
X214199319Y-190362515D01*
X214193098Y-190347844D01*
X214190140Y-190338569D01*
X214190100Y-190338074D01*
X214187717Y-190329783D01*
X214181896Y-190315434D01*
X214181094Y-190313634D01*
X214175013Y-190299836D01*
X214165342Y-190277566D01*
X214153469Y-190250036D01*
X214142204Y-190223775D01*
X214128778Y-190193452D01*
X214111620Y-190156325D01*
X214091628Y-190114192D01*
X214069700Y-190068852D01*
X214046732Y-190022103D01*
X214023623Y-189975745D01*
X214001271Y-189931574D01*
X213980573Y-189891391D01*
X213962427Y-189856994D01*
X213947730Y-189830181D01*
X213937380Y-189812750D01*
X213936090Y-189810809D01*
X213917559Y-189784784D01*
X213896246Y-189756583D01*
X213873666Y-189728013D01*
X213851333Y-189700880D01*
X213830763Y-189676994D01*
X213813468Y-189658159D01*
X213800964Y-189646185D01*
X213795261Y-189642750D01*
X213787775Y-189639063D01*
X213773610Y-189629416D01*
X213756526Y-189616436D01*
X213733262Y-189599222D01*
X213708279Y-189583548D01*
X213679953Y-189568731D01*
X213646661Y-189554088D01*
X213606780Y-189538936D01*
X213558688Y-189522591D01*
X213500761Y-189504370D01*
X213463884Y-189493230D01*
X213443800Y-189487833D01*
X213427537Y-189484509D01*
X213422355Y-189483999D01*
X213410705Y-189482457D01*
X213391515Y-189478465D01*
X213374360Y-189474269D01*
X213344950Y-189467967D01*
X213305013Y-189461444D01*
X213256714Y-189454966D01*
X213202217Y-189448800D01*
X213143685Y-189443213D01*
X213085200Y-189438607D01*
X213060564Y-189437374D01*
X213026286Y-189436390D01*
X212983741Y-189435646D01*
X212934304Y-189435131D01*
X212879350Y-189434833D01*
X212820253Y-189434743D01*
X212758387Y-189434850D01*
%TD*%
M02*
