%TF.GenerationSoftware,KiCad,Pcbnew,6.0.1*%
%TF.CreationDate,2022-02-10T21:42:05-06:00*%
%TF.ProjectId,FCB,4643422e-6b69-4636-9164-5f7063625858,rev?*%
%TF.SameCoordinates,Original*%
%TF.FileFunction,Paste,Top*%
%TF.FilePolarity,Positive*%
%FSLAX46Y46*%
G04 Gerber Fmt 4.6, Leading zero omitted, Abs format (unit mm)*
G04 Created by KiCad (PCBNEW 6.0.1) date 2022-02-10 21:42:05*
%MOMM*%
%LPD*%
G01*
G04 APERTURE LIST*
G04 Aperture macros list*
%AMRoundRect*
0 Rectangle with rounded corners*
0 $1 Rounding radius*
0 $2 $3 $4 $5 $6 $7 $8 $9 X,Y pos of 4 corners*
0 Add a 4 corners polygon primitive as box body*
4,1,4,$2,$3,$4,$5,$6,$7,$8,$9,$2,$3,0*
0 Add four circle primitives for the rounded corners*
1,1,$1+$1,$2,$3*
1,1,$1+$1,$4,$5*
1,1,$1+$1,$6,$7*
1,1,$1+$1,$8,$9*
0 Add four rect primitives between the rounded corners*
20,1,$1+$1,$2,$3,$4,$5,0*
20,1,$1+$1,$4,$5,$6,$7,0*
20,1,$1+$1,$6,$7,$8,$9,0*
20,1,$1+$1,$8,$9,$2,$3,0*%
G04 Aperture macros list end*
%ADD10RoundRect,0.243750X0.456250X-0.243750X0.456250X0.243750X-0.456250X0.243750X-0.456250X-0.243750X0*%
%ADD11R,3.150000X1.000000*%
%ADD12RoundRect,0.250000X-0.450000X0.262500X-0.450000X-0.262500X0.450000X-0.262500X0.450000X0.262500X0*%
G04 APERTURE END LIST*
D10*
%TO.C,D4*%
X5245000Y-37287500D03*
X5245000Y-35412500D03*
%TD*%
%TO.C,D2*%
X-3755000Y-37287500D03*
X-3755000Y-35412500D03*
%TD*%
D11*
%TO.C,J1*%
X32525000Y-6970000D03*
X27475000Y-6970000D03*
X32525000Y-4430000D03*
X27475000Y-4430000D03*
X32525000Y-1890000D03*
X27475000Y-1890000D03*
X32525000Y650000D03*
X27475000Y650000D03*
X32525000Y3190000D03*
X27475000Y3190000D03*
X32525000Y5730000D03*
X27475000Y5730000D03*
X32525000Y8270000D03*
X27475000Y8270000D03*
X32525000Y10810000D03*
X27475000Y10810000D03*
X32525000Y13350000D03*
X27475000Y13350000D03*
X32525000Y15890000D03*
X27475000Y15890000D03*
X32525000Y18430000D03*
X27475000Y18430000D03*
X32525000Y20970000D03*
X27475000Y20970000D03*
%TD*%
D12*
%TO.C,R2*%
X-3800000Y-31400000D03*
X-3800000Y-33225000D03*
%TD*%
%TO.C,R1*%
X-8400000Y-31400000D03*
X-8400000Y-33225000D03*
%TD*%
%TO.C,R4*%
X5200000Y-31400000D03*
X5200000Y-33225000D03*
%TD*%
%TO.C,R3*%
X740000Y-31340000D03*
X740000Y-33165000D03*
%TD*%
D10*
%TO.C,D1*%
X-8355000Y-37265000D03*
X-8355000Y-35390000D03*
%TD*%
%TO.C,D3*%
X770000Y-37227500D03*
X770000Y-35352500D03*
%TD*%
D11*
%TO.C,J3*%
X-32525000Y20970000D03*
X-27475000Y20970000D03*
X-32525000Y18430000D03*
X-27475000Y18430000D03*
X-32525000Y15890000D03*
X-27475000Y15890000D03*
X-32525000Y13350000D03*
X-27475000Y13350000D03*
X-32525000Y10810000D03*
X-27475000Y10810000D03*
X-32525000Y8270000D03*
X-27475000Y8270000D03*
X-32525000Y5730000D03*
X-27475000Y5730000D03*
X-32525000Y3190000D03*
X-27475000Y3190000D03*
X-32525000Y650000D03*
X-27475000Y650000D03*
X-32525000Y-1890000D03*
X-27475000Y-1890000D03*
X-32525000Y-4430000D03*
X-27475000Y-4430000D03*
X-32525000Y-6970000D03*
X-27475000Y-6970000D03*
%TD*%
M02*
