M48
; DRILL file {KiCad 6.0.1} date Thu Feb 10 21:42:04 2022
; FORMAT={-:-/ absolute / inch / decimal}
; #@! TF.CreationDate,2022-02-10T21:42:04-06:00
; #@! TF.GenerationSoftware,Kicad,Pcbnew,6.0.1
; #@! TF.FileFunction,Plated,1,2,PTH
FMAT,2
INCH
; #@! TA.AperFunction,Plated,PTH,ViaDrill
T1C0.0157
; #@! TA.AperFunction,Plated,PTH,ComponentDrill
T2C0.0197
; #@! TA.AperFunction,Plated,PTH,ComponentDrill
T3C0.0300
; #@! TA.AperFunction,Plated,PTH,ComponentDrill
T4C0.0433
; #@! TA.AperFunction,Plated,PTH,ComponentDrill
T5C0.1260
%
G90
G05
T1
X-1.5079Y-0.336
X-1.4674Y-0.4517
X-1.4449Y-0.689
X-1.4331Y0.5256
X-1.4131Y0.6256
X-1.4087Y0.826
X-1.4075Y0.7254
X-1.4047Y0.0256
X-1.4031Y0.2256
X-1.4031Y0.1256
X-1.4031Y-0.0744
X-1.4031Y-0.1744
X-1.4031Y-0.2744
X-1.3268Y-0.8543
X-1.1732Y-0.5709
X-1.0039Y-0.5315
X-0.9531Y0.8256
X-0.9531Y0.7256
X-0.9531Y0.6256
X-0.9531Y0.5256
X-0.9531Y0.4256
X-0.9531Y0.3256
X-0.9531Y0.2256
X-0.9531Y0.1256
X-0.9531Y0.0256
X-0.9531Y-0.0744
X-0.9531Y-0.1744
X-0.9496Y-0.2744
X-0.9281Y-0.7874
X-0.87Y0.904
X-0.8346Y-0.0236
X-0.8157Y-0.3063
X-0.79Y-0.004
X-0.7451Y-0.936
X-0.7382Y-0.5433
X-0.689Y0.7461
X-0.652Y0.264
X-0.5945Y-0.8612
X-0.5827Y-0.2087
X-0.54Y-0.188
X-0.5315Y-0.5453
X-0.5201Y0.2
X-0.436Y0.618
X-0.41Y-0.374
X-0.3878Y0.7283
X-0.3228Y0.1417
X-0.3169Y0.3051
X-0.2953Y-0.5472
X-0.264Y0.066
X-0.2407Y-0.1732
X-0.2407Y-0.5906
X-0.2224Y0.1516
X-0.1693Y-0.5472
X-0.1437Y-0.3169
X-0.1122Y0.2717
X0.136Y0.232
X0.1772Y-0.315
X0.186Y0.268
X0.192Y-0.958
X0.196Y-0.1732
X0.2244Y-0.3583
X0.2257Y-0.5171
X0.2677Y-0.908
X0.3071Y-0.9744
X0.3125Y0.2355
X0.3255Y-0.3228
X0.3278Y-0.872
X0.408Y-0.084
X0.4252Y-0.5197
X0.4803Y0.6732
X0.4983Y-0.02
X0.5373Y0.2274
X0.552Y0.306
X0.6024Y0.2008
X0.6201Y-0.1831
X0.626Y-0.939
X0.6299Y0.0906
X0.652Y0.37
X0.69Y0.608
X0.6949Y0.872
X0.7126Y0.7323
X0.7205Y0.937
X0.7645Y0.2261
X0.77Y0.474
X0.8228Y0.9488
X0.8445Y-0.9419
X0.874Y-0.164
X0.932Y-0.5866
X0.9531Y0.7256
X0.9531Y0.6256
X0.9531Y0.5256
X0.9531Y0.4256
X0.9531Y0.3256
X0.9531Y0.2256
X0.9531Y0.1256
X0.9531Y0.0256
X0.9531Y-0.0744
X0.9531Y-0.1744
X0.9531Y-0.2744
X0.9693Y0.8256
X1.12Y-0.576
X1.2776Y-0.5886
X1.3958Y0.8256
X1.3958Y0.7256
X1.3958Y0.6256
X1.3958Y0.5256
X1.3958Y0.4256
X1.3958Y0.3256
X1.3958Y0.0256
X1.3958Y-0.0744
X1.3958Y-0.1744
X1.3972Y-0.274
X1.48Y0.58
X1.522Y0.54
X1.562Y0.478
T2
X-0.8205Y1.3461
X-0.8201Y-1.3504
X-0.7928Y1.4129
X-0.7928Y1.2792
X-0.7924Y-1.2836
X-0.7924Y-1.4172
X-0.726Y1.4406
X-0.726Y1.2516
X-0.7256Y-1.2559
X-0.7256Y-1.4449
X-0.6592Y1.4129
X-0.6592Y1.2792
X-0.6588Y-1.2836
X-0.6588Y-1.4172
X-0.6315Y1.3461
X-0.6311Y-1.3504
X0.6319Y1.3484
X0.6323Y-1.3504
X0.6596Y1.4152
X0.6596Y1.2816
X0.66Y-1.2836
X0.66Y-1.4172
X0.7264Y1.4429
X0.7264Y1.2539
X0.7268Y-1.2559
X0.7268Y-1.4449
X0.7932Y1.4152
X0.7932Y1.2816
X0.7936Y-1.2836
X0.7936Y-1.4172
X0.8209Y1.3484
X0.8213Y-1.3504
T3
X-0.5478Y1.1979
X-0.5462Y1.0976
X-0.5462Y0.9976
X-0.5462Y0.8976
X-0.5462Y0.6983
X-0.5462Y0.5981
X-0.5462Y0.4979
X-0.5449Y0.7976
X-0.4449Y1.2976
X-0.4449Y0.3976
X-0.3449Y1.2976
X-0.3449Y0.3976
X-0.2456Y1.2981
X-0.2456Y0.3976
X-0.1453Y1.2981
X-0.1453Y0.3976
X-0.0451Y1.2981
X-0.0451Y0.3976
X0.0551Y1.2981
X0.0551Y0.3976
X0.1538Y1.2981
X0.1538Y0.3976
X0.254Y1.2981
X0.254Y0.3976
X0.3542Y1.2981
X0.3551Y0.3976
X0.4544Y1.2981
X0.4551Y0.3976
X0.5547Y1.1916
X0.5547Y1.0976
X0.5547Y0.999
X0.5547Y0.8988
X0.5547Y0.7985
X0.5547Y0.6983
X0.5547Y0.4979
X0.5551Y0.5976
T4
X-1.125Y-0.4559
X-1.125Y-1.0559
X-1.025Y-0.4559
X-1.025Y-1.0559
X-0.925Y-0.4559
X-0.925Y-1.0559
X-0.825Y-0.4559
X-0.825Y-1.0559
X-0.725Y-0.4559
X-0.725Y-1.0559
X-0.625Y-0.4559
X-0.625Y-1.0559
X-0.525Y-0.4559
X-0.525Y-1.0559
X-0.425Y-0.4559
X-0.425Y-1.0559
X-0.325Y-0.4559
X-0.325Y-1.0559
X-0.225Y-0.4559
X-0.225Y-1.0559
X-0.125Y-0.4559
X-0.125Y-1.0559
X-0.025Y-0.4559
X-0.025Y-1.0559
X0.075Y-0.4559
X0.075Y-1.0559
X0.175Y-0.4559
X0.175Y-1.0559
X0.275Y-0.4559
X0.275Y-1.0559
X0.375Y-0.4559
X0.375Y-1.0559
X0.475Y-0.4559
X0.475Y-1.0559
X0.575Y-0.4559
X0.575Y-1.0559
X0.675Y-0.4559
X0.675Y-1.0559
X0.775Y-0.4559
X0.775Y-1.0559
X0.875Y-0.4559
X0.875Y-1.0559
X0.975Y-0.4559
X0.975Y-1.0559
X1.075Y-0.4559
X1.075Y-1.0559
X1.175Y-0.4559
X1.175Y-1.0559
T5
X-0.726Y1.3461
X-0.7256Y-1.3504
X0.7264Y1.3484
X0.7268Y-1.3504
T0
M30
