%TF.GenerationSoftware,KiCad,Pcbnew,7.0.10*%
%TF.CreationDate,2024-02-10T17:39:24-06:00*%
%TF.ProjectId,DAQ,4441512e-6b69-4636-9164-5f7063625858,rev?*%
%TF.SameCoordinates,Original*%
%TF.FileFunction,Paste,Top*%
%TF.FilePolarity,Positive*%
%FSLAX46Y46*%
G04 Gerber Fmt 4.6, Leading zero omitted, Abs format (unit mm)*
G04 Created by KiCad (PCBNEW 7.0.10) date 2024-02-10 17:39:24*
%MOMM*%
%LPD*%
G01*
G04 APERTURE LIST*
G04 Aperture macros list*
%AMRoundRect*
0 Rectangle with rounded corners*
0 $1 Rounding radius*
0 $2 $3 $4 $5 $6 $7 $8 $9 X,Y pos of 4 corners*
0 Add a 4 corners polygon primitive as box body*
4,1,4,$2,$3,$4,$5,$6,$7,$8,$9,$2,$3,0*
0 Add four circle primitives for the rounded corners*
1,1,$1+$1,$2,$3*
1,1,$1+$1,$4,$5*
1,1,$1+$1,$6,$7*
1,1,$1+$1,$8,$9*
0 Add four rect primitives between the rounded corners*
20,1,$1+$1,$2,$3,$4,$5,0*
20,1,$1+$1,$4,$5,$6,$7,0*
20,1,$1+$1,$6,$7,$8,$9,0*
20,1,$1+$1,$8,$9,$2,$3,0*%
G04 Aperture macros list end*
%ADD10R,2.387600X1.955800*%
%ADD11R,1.270000X0.558800*%
%ADD12RoundRect,0.200000X-0.275000X0.200000X-0.275000X-0.200000X0.275000X-0.200000X0.275000X0.200000X0*%
%ADD13RoundRect,0.225000X-0.250000X0.225000X-0.250000X-0.225000X0.250000X-0.225000X0.250000X0.225000X0*%
%ADD14RoundRect,0.200000X0.200000X0.275000X-0.200000X0.275000X-0.200000X-0.275000X0.200000X-0.275000X0*%
%ADD15RoundRect,0.225000X-0.225000X-0.250000X0.225000X-0.250000X0.225000X0.250000X-0.225000X0.250000X0*%
%ADD16R,2.413000X5.334000*%
%ADD17RoundRect,0.225000X0.250000X-0.225000X0.250000X0.225000X-0.250000X0.225000X-0.250000X-0.225000X0*%
%ADD18R,1.111200X0.450800*%
%ADD19RoundRect,0.225000X0.225000X0.250000X-0.225000X0.250000X-0.225000X-0.250000X0.225000X-0.250000X0*%
%ADD20R,1.879600X0.558800*%
%ADD21R,7.289800X2.590800*%
%ADD22R,0.838200X1.600200*%
%ADD23RoundRect,0.400050X1.174750X0.400050X-1.174750X0.400050X-1.174750X-0.400050X1.174750X-0.400050X0*%
%ADD24R,0.558800X1.460500*%
%ADD25RoundRect,0.200000X0.275000X-0.200000X0.275000X0.200000X-0.275000X0.200000X-0.275000X-0.200000X0*%
%ADD26R,0.599999X1.000000*%
%ADD27R,0.355600X0.850900*%
%ADD28RoundRect,0.200000X-0.200000X-0.275000X0.200000X-0.275000X0.200000X0.275000X-0.200000X0.275000X0*%
%ADD29R,0.558800X1.981200*%
%ADD30R,1.955800X2.387600*%
%ADD31R,1.320800X0.558800*%
%ADD32R,1.587500X0.558800*%
%ADD33R,0.450800X1.111200*%
%ADD34R,0.330200X1.371600*%
%ADD35R,1.168400X0.355600*%
%ADD36R,0.406400X0.558800*%
%ADD37R,0.558800X0.406400*%
%ADD38RoundRect,0.218750X-0.218750X-0.256250X0.218750X-0.256250X0.218750X0.256250X-0.218750X0.256250X0*%
%ADD39O,0.449999X1.350000*%
%ADD40R,0.549999X0.249999*%
G04 APERTURE END LIST*
%TO.C,U12*%
G36*
X90474800Y-107378500D02*
G01*
X87325200Y-107378500D01*
X87325200Y-105778300D01*
X90474800Y-105778300D01*
X90474800Y-107378500D01*
G37*
%TO.C,U1*%
G36*
X71518018Y-101734465D02*
G01*
X71167930Y-101734465D01*
X71167930Y-100814528D01*
X71518018Y-100814528D01*
X71518018Y-101734465D01*
G37*
G36*
X71492999Y-103214447D02*
G01*
X71243165Y-103214447D01*
X71243165Y-102934666D01*
X71492999Y-102934666D01*
X71492999Y-103214447D01*
G37*
G36*
X71492974Y-102734361D02*
G01*
X70493001Y-102734361D01*
X70493001Y-102214474D01*
X71492974Y-102214474D01*
X71492974Y-102734361D01*
G37*
G36*
X70817969Y-101734490D02*
G01*
X70467982Y-101734490D01*
X70467982Y-100814528D01*
X70817969Y-100814528D01*
X70817969Y-101734490D01*
G37*
G36*
X70742988Y-103214548D02*
G01*
X70493306Y-103214548D01*
X70493306Y-102934488D01*
X70742988Y-102934488D01*
X70742988Y-103214548D01*
G37*
%TD*%
D10*
%TO.C,C1*%
X88138000Y-129311400D03*
X88138000Y-123672600D03*
%TD*%
D11*
%TO.C,MOSFET1*%
X52899399Y-98652497D03*
X52899399Y-96822499D03*
X50968999Y-97737498D03*
%TD*%
D12*
%TO.C,R10*%
X92202000Y-157734000D03*
X92202000Y-156084000D03*
%TD*%
D13*
%TO.C,C14*%
X66040000Y-162179000D03*
X66040000Y-163729000D03*
%TD*%
D14*
%TO.C,R4*%
X73850000Y-152527000D03*
X72200000Y-152527000D03*
%TD*%
D15*
%TO.C,C23*%
X44691000Y-135382000D03*
X46241000Y-135382000D03*
%TD*%
D16*
%TO.C,L1*%
X66167000Y-109474000D03*
X73406000Y-109474000D03*
%TD*%
D17*
%TO.C,C18*%
X74198000Y-92977000D03*
X74198000Y-91427000D03*
%TD*%
D18*
%TO.C,CR3*%
X72136000Y-178689000D03*
X74436000Y-178689000D03*
%TD*%
D17*
%TO.C,C15*%
X62144999Y-96480498D03*
X62144999Y-94930498D03*
%TD*%
D19*
%TO.C,C3*%
X68593000Y-103886000D03*
X67043000Y-103886000D03*
%TD*%
D18*
%TO.C,CR5*%
X55252000Y-174498000D03*
X52952000Y-174498000D03*
%TD*%
D20*
%TO.C,U6*%
X83730253Y-135303253D03*
X83730253Y-136573253D03*
X83730253Y-137843253D03*
X83730253Y-139113253D03*
X83730253Y-140383253D03*
X83730253Y-141653253D03*
X83730253Y-142923253D03*
X83730253Y-144193253D03*
X83730253Y-145463253D03*
X83730253Y-146733253D03*
X83730253Y-148003253D03*
X83730253Y-149273253D03*
X83730253Y-150543253D03*
X83730253Y-151813253D03*
X93204453Y-151813253D03*
X93204453Y-150543253D03*
X93204453Y-149273253D03*
X93204453Y-148003253D03*
X93204453Y-146733253D03*
X93204453Y-145463253D03*
X93204453Y-144193253D03*
X93204453Y-142923253D03*
X93204453Y-141653253D03*
X93204453Y-140383253D03*
X93204453Y-139113253D03*
X93204453Y-137843253D03*
X93204453Y-136573253D03*
X93204453Y-135303253D03*
%TD*%
D10*
%TO.C,C9*%
X63627000Y-119100600D03*
X63627000Y-124739400D03*
%TD*%
D19*
%TO.C,C34*%
X68199000Y-149987000D03*
X66649000Y-149987000D03*
%TD*%
D17*
%TO.C,C29*%
X70358000Y-148349000D03*
X70358000Y-146799000D03*
%TD*%
D13*
%TO.C,C27*%
X89789000Y-166103000D03*
X89789000Y-167653000D03*
%TD*%
D17*
%TO.C,C7*%
X64897000Y-104312499D03*
X64897000Y-102762499D03*
%TD*%
D12*
%TO.C,R13*%
X92202000Y-171832000D03*
X92202000Y-173482000D03*
%TD*%
D21*
%TO.C,L2*%
X80772000Y-122047000D03*
X80772000Y-126746000D03*
%TD*%
D12*
%TO.C,R8*%
X78867000Y-99169499D03*
X78867000Y-100819499D03*
%TD*%
D17*
%TO.C,C26*%
X85090000Y-166891000D03*
X85090000Y-165341000D03*
%TD*%
D20*
%TO.C,U3*%
X58674000Y-152654000D03*
X58674000Y-151384000D03*
X58674000Y-150114000D03*
X58674000Y-148844000D03*
X58674000Y-147574000D03*
X58674000Y-146304000D03*
X58674000Y-145034000D03*
X58674000Y-143764000D03*
X58674000Y-142494000D03*
X58674000Y-141224000D03*
X58674000Y-139954000D03*
X58674000Y-138684000D03*
X58674000Y-137414000D03*
X58674000Y-136144000D03*
X49199800Y-136144000D03*
X49199800Y-137414000D03*
X49199800Y-138684000D03*
X49199800Y-139954000D03*
X49199800Y-141224000D03*
X49199800Y-142494000D03*
X49199800Y-143764000D03*
X49199800Y-145034000D03*
X49199800Y-146304000D03*
X49199800Y-147574000D03*
X49199800Y-148844000D03*
X49199800Y-150114000D03*
X49199800Y-151384000D03*
X49199800Y-152654000D03*
%TD*%
D22*
%TO.C,U12*%
X91200000Y-100177600D03*
X88900000Y-100177600D03*
X86600000Y-100177600D03*
D23*
X88900000Y-106578400D03*
%TD*%
D24*
%TO.C,U11*%
X85979000Y-175190150D03*
X87249000Y-175190150D03*
X88519000Y-175190150D03*
X89789000Y-175190150D03*
X89789000Y-169741850D03*
X88519000Y-169741850D03*
X87249000Y-169741850D03*
X85979000Y-169741850D03*
%TD*%
D25*
%TO.C,R3*%
X69088000Y-153479000D03*
X69088000Y-151829000D03*
%TD*%
D14*
%TO.C,R6*%
X74485000Y-136144000D03*
X72835000Y-136144000D03*
%TD*%
D17*
%TO.C,C4*%
X73025000Y-98991499D03*
X73025000Y-97441499D03*
%TD*%
D26*
%TO.C,U5*%
X85409999Y-117961001D03*
X86360000Y-117961001D03*
X87309998Y-117961001D03*
X87309998Y-115211001D03*
X86360000Y-115211001D03*
X85409999Y-115211001D03*
%TD*%
D27*
%TO.C,U7*%
X104281999Y-151237950D03*
X103632000Y-151237950D03*
X102982001Y-151237950D03*
X102982001Y-148990050D03*
X103632000Y-148990050D03*
X104281999Y-148990050D03*
%TD*%
D17*
%TO.C,C24*%
X101346000Y-154699000D03*
X101346000Y-153149000D03*
%TD*%
D19*
%TO.C,C11*%
X81026000Y-109982000D03*
X79476000Y-109982000D03*
%TD*%
D15*
%TO.C,C32*%
X44450000Y-152908000D03*
X46000000Y-152908000D03*
%TD*%
D19*
%TO.C,C36*%
X29998000Y-94996000D03*
X28448000Y-94996000D03*
%TD*%
D15*
%TO.C,C16*%
X67284000Y-99314000D03*
X68834000Y-99314000D03*
%TD*%
D27*
%TO.C,U8*%
X41924999Y-136036050D03*
X41275000Y-136036050D03*
X40625001Y-136036050D03*
X40625001Y-138283950D03*
X41275000Y-138283950D03*
X41924999Y-138283950D03*
%TD*%
D28*
%TO.C,R14*%
X35751000Y-97917000D03*
X37401000Y-97917000D03*
%TD*%
D13*
%TO.C,C20*%
X72263000Y-167132000D03*
X72263000Y-168682000D03*
%TD*%
D10*
%TO.C,C2*%
X91186000Y-119024400D03*
X91186000Y-113385600D03*
%TD*%
D19*
%TO.C,C10*%
X81026000Y-112014000D03*
X79476000Y-112014000D03*
%TD*%
D13*
%TO.C,C6*%
X67310000Y-116154200D03*
X67310000Y-117704200D03*
%TD*%
D29*
%TO.C,U10*%
X73279000Y-116154200D03*
X72009000Y-116154200D03*
X70739000Y-116154200D03*
X69469000Y-116154200D03*
X69469000Y-121081800D03*
X70739000Y-121081800D03*
X72009000Y-121081800D03*
X73279000Y-121081800D03*
%TD*%
D17*
%TO.C,C28*%
X77343000Y-145428000D03*
X77343000Y-143878000D03*
%TD*%
D30*
%TO.C,C12*%
X102133400Y-98044000D03*
X96494600Y-98044000D03*
%TD*%
D24*
%TO.C,U2*%
X75438000Y-138569700D03*
X74168000Y-138569700D03*
X72898000Y-138569700D03*
X71628000Y-138569700D03*
X71628000Y-144018000D03*
X72898000Y-144018000D03*
X74168000Y-144018000D03*
X75438000Y-144018000D03*
%TD*%
D19*
%TO.C,C8*%
X70625000Y-96520000D03*
X69075000Y-96520000D03*
%TD*%
D14*
%TO.C,R2*%
X67310000Y-101092000D03*
X65660000Y-101092000D03*
%TD*%
D31*
%TO.C,U9*%
X70104000Y-165984002D03*
X70104000Y-164084000D03*
D32*
X68205350Y-165034001D03*
%TD*%
D33*
%TO.C,CR1*%
X80264000Y-162680000D03*
X80264000Y-164980000D03*
%TD*%
D15*
%TO.C,C31*%
X89141000Y-133096000D03*
X90691000Y-133096000D03*
%TD*%
D34*
%TO.C,U4*%
X72151999Y-161709100D03*
X72652001Y-161709100D03*
X73152000Y-161709100D03*
X73651999Y-161709100D03*
X74152001Y-161709100D03*
X74152001Y-157314900D03*
X73651999Y-157314900D03*
X73152000Y-157314900D03*
X72652001Y-157314900D03*
X72151999Y-157314900D03*
%TD*%
D35*
%TO.C,U14*%
X74828400Y-150509999D03*
X74828400Y-149860000D03*
X74828400Y-149210001D03*
X72745600Y-149210001D03*
X72745600Y-150509999D03*
%TD*%
D28*
%TO.C,R1*%
X73089000Y-103632000D03*
X74739000Y-103632000D03*
%TD*%
D36*
%TO.C,U15*%
X31358002Y-90932000D03*
X31958000Y-90932000D03*
D37*
X32585101Y-90604899D03*
X32585101Y-90004900D03*
X32585101Y-89404901D03*
D36*
X31958000Y-89077800D03*
X31358002Y-89077800D03*
D37*
X30730901Y-89404901D03*
X30730901Y-90004900D03*
X30730901Y-90604899D03*
%TD*%
D12*
%TO.C,R7*%
X78867000Y-94851499D03*
X78867000Y-96501499D03*
%TD*%
D13*
%TO.C,C13*%
X91186000Y-94996000D03*
X91186000Y-96546000D03*
%TD*%
D19*
%TO.C,C5*%
X75324000Y-94901499D03*
X73774000Y-94901499D03*
%TD*%
D17*
%TO.C,C25*%
X87249000Y-113170000D03*
X87249000Y-111620000D03*
%TD*%
D18*
%TO.C,CR4*%
X50412000Y-177038000D03*
X52712000Y-177038000D03*
%TD*%
D38*
%TO.C,D1*%
X69062500Y-124460000D03*
X70637500Y-124460000D03*
%TD*%
D19*
%TO.C,C17*%
X76721000Y-101600000D03*
X75171000Y-101600000D03*
%TD*%
D39*
%TO.C,U13*%
X60071998Y-93287497D03*
X59421997Y-93287497D03*
X58771998Y-93287497D03*
X58121997Y-93287497D03*
X58121997Y-97737498D03*
X58771998Y-97737498D03*
X59421997Y-97737498D03*
X60071998Y-97737498D03*
%TD*%
D10*
%TO.C,C21*%
X58166000Y-119100600D03*
X58166000Y-124739400D03*
%TD*%
D17*
%TO.C,C19*%
X76708000Y-92977000D03*
X76708000Y-91427000D03*
%TD*%
D28*
%TO.C,R11*%
X48197000Y-180594000D03*
X49847000Y-180594000D03*
%TD*%
D19*
%TO.C,C33*%
X55652000Y-155067000D03*
X54102000Y-155067000D03*
%TD*%
D25*
%TO.C,R5*%
X75819000Y-99091499D03*
X75819000Y-97441499D03*
%TD*%
D33*
%TO.C,CR2*%
X75692000Y-152774000D03*
X75692000Y-155074000D03*
%TD*%
D40*
%TO.C,U1*%
X72167999Y-102764501D03*
X72167999Y-102264500D03*
X72167999Y-101764500D03*
X72167999Y-101264499D03*
X69818001Y-101264499D03*
X69818001Y-101764500D03*
X69818001Y-102264500D03*
X69818001Y-102764501D03*
%TD*%
D17*
%TO.C,C22*%
X70231000Y-162179000D03*
X70231000Y-160629000D03*
%TD*%
D25*
%TO.C,R9*%
X52070000Y-132461000D03*
X52070000Y-130811000D03*
%TD*%
D19*
%TO.C,C30*%
X97168000Y-135382000D03*
X95618000Y-135382000D03*
%TD*%
%TO.C,C35*%
X29985000Y-92964000D03*
X28435000Y-92964000D03*
%TD*%
D14*
%TO.C,R12*%
X32829000Y-97790000D03*
X31179000Y-97790000D03*
%TD*%
M02*
