%TF.GenerationSoftware,KiCad,Pcbnew,7.0.10*%
%TF.CreationDate,2024-02-10T20:18:10-06:00*%
%TF.ProjectId,DAQ,4441512e-6b69-4636-9164-5f7063625858,rev?*%
%TF.SameCoordinates,Original*%
%TF.FileFunction,Soldermask,Top*%
%TF.FilePolarity,Negative*%
%FSLAX46Y46*%
G04 Gerber Fmt 4.6, Leading zero omitted, Abs format (unit mm)*
G04 Created by KiCad (PCBNEW 7.0.10) date 2024-02-10 20:18:10*
%MOMM*%
%LPD*%
G01*
G04 APERTURE LIST*
G04 Aperture macros list*
%AMRoundRect*
0 Rectangle with rounded corners*
0 $1 Rounding radius*
0 $2 $3 $4 $5 $6 $7 $8 $9 X,Y pos of 4 corners*
0 Add a 4 corners polygon primitive as box body*
4,1,4,$2,$3,$4,$5,$6,$7,$8,$9,$2,$3,0*
0 Add four circle primitives for the rounded corners*
1,1,$1+$1,$2,$3*
1,1,$1+$1,$4,$5*
1,1,$1+$1,$6,$7*
1,1,$1+$1,$8,$9*
0 Add four rect primitives between the rounded corners*
20,1,$1+$1,$2,$3,$4,$5,0*
20,1,$1+$1,$4,$5,$6,$7,0*
20,1,$1+$1,$6,$7,$8,$9,0*
20,1,$1+$1,$8,$9,$2,$3,0*%
G04 Aperture macros list end*
%ADD10C,0.150000*%
%ADD11C,2.500000*%
%ADD12C,2.108200*%
%ADD13C,3.600000*%
%ADD14RoundRect,0.102000X1.200000X1.200000X-1.200000X1.200000X-1.200000X-1.200000X1.200000X-1.200000X0*%
%ADD15C,2.604000*%
%ADD16R,2.387600X1.955800*%
%ADD17R,1.270000X0.558800*%
%ADD18RoundRect,0.200000X-0.275000X0.200000X-0.275000X-0.200000X0.275000X-0.200000X0.275000X0.200000X0*%
%ADD19RoundRect,0.225000X-0.250000X0.225000X-0.250000X-0.225000X0.250000X-0.225000X0.250000X0.225000X0*%
%ADD20RoundRect,0.200000X0.200000X0.275000X-0.200000X0.275000X-0.200000X-0.275000X0.200000X-0.275000X0*%
%ADD21RoundRect,0.225000X-0.225000X-0.250000X0.225000X-0.250000X0.225000X0.250000X-0.225000X0.250000X0*%
%ADD22R,2.413000X5.334000*%
%ADD23RoundRect,0.225000X0.250000X-0.225000X0.250000X0.225000X-0.250000X0.225000X-0.250000X-0.225000X0*%
%ADD24R,1.111200X0.450800*%
%ADD25RoundRect,0.225000X0.225000X0.250000X-0.225000X0.250000X-0.225000X-0.250000X0.225000X-0.250000X0*%
%ADD26C,2.750000*%
%ADD27RoundRect,0.102000X0.754000X0.754000X-0.754000X0.754000X-0.754000X-0.754000X0.754000X-0.754000X0*%
%ADD28C,1.712000*%
%ADD29R,1.879600X0.558800*%
%ADD30R,7.289800X2.590800*%
%ADD31R,0.838200X1.600200*%
%ADD32RoundRect,0.400050X1.174750X0.400050X-1.174750X0.400050X-1.174750X-0.400050X1.174750X-0.400050X0*%
%ADD33R,0.558800X1.460500*%
%ADD34RoundRect,0.200000X0.275000X-0.200000X0.275000X0.200000X-0.275000X0.200000X-0.275000X-0.200000X0*%
%ADD35R,0.599999X1.000000*%
%ADD36R,0.355600X0.850900*%
%ADD37RoundRect,0.102000X0.714000X-0.714000X0.714000X0.714000X-0.714000X0.714000X-0.714000X-0.714000X0*%
%ADD38C,1.632000*%
%ADD39C,3.480000*%
%ADD40RoundRect,0.200000X-0.200000X-0.275000X0.200000X-0.275000X0.200000X0.275000X-0.200000X0.275000X0*%
%ADD41R,0.558800X1.981200*%
%ADD42R,1.955800X2.387600*%
%ADD43R,1.320800X0.558800*%
%ADD44R,1.587500X0.558800*%
%ADD45R,0.450800X1.111200*%
%ADD46R,0.330200X1.371600*%
%ADD47R,1.168400X0.355600*%
%ADD48R,0.406400X0.558800*%
%ADD49R,0.558800X0.406400*%
%ADD50RoundRect,0.218750X-0.218750X-0.256250X0.218750X-0.256250X0.218750X0.256250X-0.218750X0.256250X0*%
%ADD51O,0.449999X1.350000*%
%ADD52R,0.549999X0.249999*%
%ADD53R,0.449999X1.100000*%
%ADD54C,0.700000*%
%ADD55C,2.082800*%
%ADD56C,3.200400*%
G04 APERTURE END LIST*
D10*
X117983000Y-184277000D02*
X108331000Y-184277000D01*
X108331000Y-103505000D01*
X117983000Y-103505000D01*
X117983000Y-184277000D01*
G36*
X117983000Y-184277000D02*
G01*
X108331000Y-184277000D01*
X108331000Y-103505000D01*
X117983000Y-103505000D01*
X117983000Y-184277000D01*
G37*
X34798000Y-184277000D02*
X25019000Y-184277000D01*
X25019000Y-103251000D01*
X34798000Y-103251000D01*
X34798000Y-184277000D01*
G36*
X34798000Y-184277000D02*
G01*
X25019000Y-184277000D01*
X25019000Y-103251000D01*
X34798000Y-103251000D01*
X34798000Y-184277000D01*
G37*
%TO.C,U12*%
G36*
X90500200Y-107734100D02*
G01*
X87299800Y-107734100D01*
X87299800Y-105422700D01*
X90500200Y-105422700D01*
X90500200Y-107734100D01*
G37*
%TO.C,U1*%
G36*
X71492999Y-102264502D02*
G01*
X71492999Y-103164500D01*
X71442999Y-103214500D01*
X71292999Y-103214500D01*
X71243000Y-103164500D01*
X71243000Y-102884501D01*
X71193000Y-102834501D01*
X70793000Y-102834501D01*
X70743000Y-102884501D01*
X70743000Y-103164500D01*
X70693001Y-103214500D01*
X70543001Y-103214500D01*
X70493001Y-103164500D01*
X70493001Y-102264502D01*
X70543001Y-102214502D01*
X71442999Y-102214502D01*
X71492999Y-102264502D01*
G37*
%TD*%
D11*
%TO.C,REF\u002A\u002A*%
X31369000Y-88773000D03*
%TD*%
%TO.C,REF\u002A\u002A*%
X46990000Y-170942000D03*
%TD*%
%TO.C,REF\u002A\u002A*%
X97409000Y-103632000D03*
%TD*%
%TO.C,REF\u002A\u002A*%
X113284000Y-189230000D03*
%TD*%
D12*
%TO.C,J2*%
X112940253Y-105839253D03*
X112940253Y-110919253D03*
X112940253Y-115999253D03*
X112940253Y-121079253D03*
X112940253Y-126159253D03*
X112940253Y-131239253D03*
X112940253Y-136319253D03*
X112940253Y-141399253D03*
X112940253Y-146479253D03*
X112940253Y-151559253D03*
X112940253Y-156639253D03*
X112940253Y-161719253D03*
X112940253Y-166799253D03*
X112940253Y-171879253D03*
X112940253Y-176959253D03*
X112940253Y-182039253D03*
%TD*%
D13*
%TO.C,TP6*%
X97663000Y-126111000D03*
%TD*%
D14*
%TO.C,J4*%
X50546000Y-187198000D03*
D15*
X45466000Y-187198000D03*
%TD*%
D16*
%TO.C,C1*%
X88138000Y-129311400D03*
X88138000Y-123672600D03*
%TD*%
D17*
%TO.C,MOSFET1*%
X52899399Y-98652497D03*
X52899399Y-96822499D03*
X50968999Y-97737498D03*
%TD*%
D18*
%TO.C,R10*%
X92202000Y-156084000D03*
X92202000Y-157734000D03*
%TD*%
D19*
%TO.C,C14*%
X66040000Y-162179000D03*
X66040000Y-163729000D03*
%TD*%
D20*
%TO.C,R4*%
X73850000Y-152527000D03*
X72200000Y-152527000D03*
%TD*%
D21*
%TO.C,C23*%
X44691000Y-135382000D03*
X46241000Y-135382000D03*
%TD*%
D22*
%TO.C,L1*%
X66167000Y-109474000D03*
X73406000Y-109474000D03*
%TD*%
D23*
%TO.C,C18*%
X74198000Y-92977000D03*
X74198000Y-91427000D03*
%TD*%
D24*
%TO.C,CR3*%
X72136000Y-178689000D03*
X74436000Y-178689000D03*
%TD*%
D23*
%TO.C,C15*%
X62144999Y-96480498D03*
X62144999Y-94930498D03*
%TD*%
D25*
%TO.C,C3*%
X68593000Y-103886000D03*
X67043000Y-103886000D03*
%TD*%
D24*
%TO.C,CR5*%
X55252000Y-174498000D03*
X52952000Y-174498000D03*
%TD*%
D26*
%TO.C,A1*%
X99358000Y-86614000D03*
X99358000Y-63614000D03*
X41358000Y-86614000D03*
X41358000Y-63614000D03*
D27*
X94488000Y-85344000D03*
D28*
X94488000Y-87884000D03*
X91948000Y-85344000D03*
X91948000Y-87884000D03*
X89408000Y-85344000D03*
X89408000Y-87884000D03*
X86868000Y-85344000D03*
X86868000Y-87884000D03*
X84328000Y-85344000D03*
X84328000Y-87884000D03*
X81788000Y-85344000D03*
X81788000Y-87884000D03*
X79248000Y-85344000D03*
X79248000Y-87884000D03*
X76708000Y-85344000D03*
X76708000Y-87884000D03*
X74168000Y-85344000D03*
X74168000Y-87884000D03*
X71628000Y-85344000D03*
X71628000Y-87884000D03*
X69088000Y-85344000D03*
X69088000Y-87884000D03*
X66548000Y-85344000D03*
X66548000Y-87884000D03*
X64008000Y-85344000D03*
X64008000Y-87884000D03*
X61468000Y-85344000D03*
X61468000Y-87884000D03*
X58928000Y-85344000D03*
X58928000Y-87884000D03*
X56388000Y-85344000D03*
X56388000Y-87884000D03*
X53848000Y-85344000D03*
X53848000Y-87884000D03*
X51308000Y-85344000D03*
X51308000Y-87884000D03*
X48768000Y-85344000D03*
X48768000Y-87884000D03*
X46228000Y-85344000D03*
X46228000Y-87884000D03*
%TD*%
D29*
%TO.C,U6*%
X83730253Y-135303253D03*
X83730253Y-136573253D03*
X83730253Y-137843253D03*
X83730253Y-139113253D03*
X83730253Y-140383253D03*
X83730253Y-141653253D03*
X83730253Y-142923253D03*
X83730253Y-144193253D03*
X83730253Y-145463253D03*
X83730253Y-146733253D03*
X83730253Y-148003253D03*
X83730253Y-149273253D03*
X83730253Y-150543253D03*
X83730253Y-151813253D03*
X93204453Y-151813253D03*
X93204453Y-150543253D03*
X93204453Y-149273253D03*
X93204453Y-148003253D03*
X93204453Y-146733253D03*
X93204453Y-145463253D03*
X93204453Y-144193253D03*
X93204453Y-142923253D03*
X93204453Y-141653253D03*
X93204453Y-140383253D03*
X93204453Y-139113253D03*
X93204453Y-137843253D03*
X93204453Y-136573253D03*
X93204453Y-135303253D03*
%TD*%
D16*
%TO.C,C9*%
X63627000Y-119100600D03*
X63627000Y-124739400D03*
%TD*%
D25*
%TO.C,C34*%
X68199000Y-149987000D03*
X66649000Y-149987000D03*
%TD*%
D23*
%TO.C,C29*%
X70358000Y-148349000D03*
X70358000Y-146799000D03*
%TD*%
D19*
%TO.C,C27*%
X89789000Y-166103000D03*
X89789000Y-167653000D03*
%TD*%
D23*
%TO.C,C7*%
X64897000Y-104312499D03*
X64897000Y-102762499D03*
%TD*%
D18*
%TO.C,R13*%
X92202000Y-171832000D03*
X92202000Y-173482000D03*
%TD*%
D30*
%TO.C,L2*%
X80772000Y-122047000D03*
X80772000Y-126746000D03*
%TD*%
D18*
%TO.C,R8*%
X78867000Y-99169499D03*
X78867000Y-100819499D03*
%TD*%
D12*
%TO.C,J1*%
X30226000Y-181864000D03*
X30226000Y-176784000D03*
X30226000Y-171704000D03*
X30226000Y-166624000D03*
X30226000Y-161544000D03*
X30226000Y-156464000D03*
X30226000Y-151384000D03*
X30226000Y-146304000D03*
X30226000Y-141224000D03*
X30226000Y-136144000D03*
X30226000Y-131064000D03*
X30226000Y-125984000D03*
X30226000Y-120904000D03*
X30226000Y-115824000D03*
X30226000Y-110744000D03*
X30226000Y-105664000D03*
%TD*%
D23*
%TO.C,C26*%
X85090000Y-166891000D03*
X85090000Y-165341000D03*
%TD*%
D29*
%TO.C,U3*%
X58674000Y-152654000D03*
X58674000Y-151384000D03*
X58674000Y-150114000D03*
X58674000Y-148844000D03*
X58674000Y-147574000D03*
X58674000Y-146304000D03*
X58674000Y-145034000D03*
X58674000Y-143764000D03*
X58674000Y-142494000D03*
X58674000Y-141224000D03*
X58674000Y-139954000D03*
X58674000Y-138684000D03*
X58674000Y-137414000D03*
X58674000Y-136144000D03*
X49199800Y-136144000D03*
X49199800Y-137414000D03*
X49199800Y-138684000D03*
X49199800Y-139954000D03*
X49199800Y-141224000D03*
X49199800Y-142494000D03*
X49199800Y-143764000D03*
X49199800Y-145034000D03*
X49199800Y-146304000D03*
X49199800Y-147574000D03*
X49199800Y-148844000D03*
X49199800Y-150114000D03*
X49199800Y-151384000D03*
X49199800Y-152654000D03*
%TD*%
D31*
%TO.C,U12*%
X91200000Y-100177600D03*
X88900000Y-100177600D03*
X86600000Y-100177600D03*
D32*
X88900000Y-106578400D03*
%TD*%
D33*
%TO.C,U11*%
X85979000Y-175190150D03*
X87249000Y-175190150D03*
X88519000Y-175190150D03*
X89789000Y-175190150D03*
X89789000Y-169741850D03*
X88519000Y-169741850D03*
X87249000Y-169741850D03*
X85979000Y-169741850D03*
%TD*%
D34*
%TO.C,R3*%
X69088000Y-153479000D03*
X69088000Y-151829000D03*
%TD*%
D20*
%TO.C,R6*%
X74485000Y-136144000D03*
X72835000Y-136144000D03*
%TD*%
D23*
%TO.C,C4*%
X73025000Y-98991499D03*
X73025000Y-97441499D03*
%TD*%
D35*
%TO.C,U5*%
X85409999Y-117961001D03*
X86360000Y-117961001D03*
X87309998Y-117961001D03*
X87309998Y-115211001D03*
X86360000Y-115211001D03*
X85409999Y-115211001D03*
%TD*%
D36*
%TO.C,U7*%
X104281999Y-148990050D03*
X103632000Y-148990050D03*
X102982001Y-148990050D03*
X102982001Y-151237950D03*
X103632000Y-151237950D03*
X104281999Y-151237950D03*
%TD*%
D23*
%TO.C,C24*%
X101346000Y-154699000D03*
X101346000Y-153149000D03*
%TD*%
D37*
%TO.C,J3*%
X112098000Y-97387000D03*
D38*
X112098000Y-94887000D03*
X112098000Y-92887000D03*
X112098000Y-90387000D03*
D39*
X114808000Y-100457000D03*
X114808000Y-87317000D03*
%TD*%
D25*
%TO.C,C11*%
X81026000Y-109982000D03*
X79476000Y-109982000D03*
%TD*%
D13*
%TO.C,TP7*%
X66040000Y-183896000D03*
%TD*%
D21*
%TO.C,C32*%
X44450000Y-152908000D03*
X46000000Y-152908000D03*
%TD*%
D25*
%TO.C,C36*%
X26556000Y-100076000D03*
X28106000Y-100076000D03*
%TD*%
D21*
%TO.C,C16*%
X67284000Y-99314000D03*
X68834000Y-99314000D03*
%TD*%
D36*
%TO.C,U8*%
X41924999Y-136036050D03*
X41275000Y-136036050D03*
X40625001Y-136036050D03*
X40625001Y-138283950D03*
X41275000Y-138283950D03*
X41924999Y-138283950D03*
%TD*%
D25*
%TO.C,C30*%
X97041000Y-135636000D03*
X95491000Y-135636000D03*
%TD*%
D40*
%TO.C,R14*%
X35751000Y-97917000D03*
X37401000Y-97917000D03*
%TD*%
D19*
%TO.C,C20*%
X72263000Y-167132000D03*
X72263000Y-168682000D03*
%TD*%
D13*
%TO.C,TP1*%
X106172000Y-91567000D03*
%TD*%
%TO.C,TP5*%
X81788000Y-102616000D03*
%TD*%
D16*
%TO.C,C2*%
X91186000Y-119024400D03*
X91186000Y-113385600D03*
%TD*%
D25*
%TO.C,C10*%
X81026000Y-112014000D03*
X79476000Y-112014000D03*
%TD*%
D19*
%TO.C,C6*%
X67310000Y-116154200D03*
X67310000Y-117704200D03*
%TD*%
D41*
%TO.C,U10*%
X73279000Y-116154200D03*
X72009000Y-116154200D03*
X70739000Y-116154200D03*
X69469000Y-116154200D03*
X69469000Y-121081800D03*
X70739000Y-121081800D03*
X72009000Y-121081800D03*
X73279000Y-121081800D03*
%TD*%
D23*
%TO.C,C28*%
X77343000Y-145428000D03*
X77343000Y-143878000D03*
%TD*%
D42*
%TO.C,C12*%
X102133400Y-96901000D03*
X96494600Y-96901000D03*
%TD*%
D33*
%TO.C,U2*%
X75438000Y-138569700D03*
X74168000Y-138569700D03*
X72898000Y-138569700D03*
X71628000Y-138569700D03*
X71628000Y-144018000D03*
X72898000Y-144018000D03*
X74168000Y-144018000D03*
X75438000Y-144018000D03*
%TD*%
D25*
%TO.C,C8*%
X70625000Y-96520000D03*
X69075000Y-96520000D03*
%TD*%
D20*
%TO.C,R2*%
X67310000Y-101092000D03*
X65660000Y-101092000D03*
%TD*%
D43*
%TO.C,U9*%
X70104000Y-165984002D03*
X70104000Y-164084000D03*
D44*
X68205350Y-165034001D03*
%TD*%
D45*
%TO.C,CR1*%
X80264000Y-162680000D03*
X80264000Y-164980000D03*
%TD*%
D21*
%TO.C,C31*%
X89141000Y-133096000D03*
X90691000Y-133096000D03*
%TD*%
D46*
%TO.C,U4*%
X72151999Y-161709100D03*
X72652001Y-161709100D03*
X73152000Y-161709100D03*
X73651999Y-161709100D03*
X74152001Y-161709100D03*
X74152001Y-157314900D03*
X73651999Y-157314900D03*
X73152000Y-157314900D03*
X72652001Y-157314900D03*
X72151999Y-157314900D03*
%TD*%
D47*
%TO.C,U14*%
X74828400Y-150509999D03*
X74828400Y-149860000D03*
X74828400Y-149210001D03*
X72745600Y-149210001D03*
X72745600Y-150509999D03*
%TD*%
D40*
%TO.C,R1*%
X73089000Y-103632000D03*
X74739000Y-103632000D03*
%TD*%
D48*
%TO.C,U15*%
X28148001Y-95796100D03*
X28747999Y-95796100D03*
D49*
X29375100Y-95468999D03*
X29375100Y-94869000D03*
X29375100Y-94269001D03*
D48*
X28747999Y-93941900D03*
X28148001Y-93941900D03*
D49*
X27520900Y-94269001D03*
X27520900Y-94869000D03*
X27520900Y-95468999D03*
%TD*%
D14*
%TO.C,J5*%
X100838000Y-187198000D03*
D15*
X95758000Y-187198000D03*
X90678000Y-187198000D03*
X85598000Y-187198000D03*
%TD*%
D18*
%TO.C,R7*%
X78867000Y-94851499D03*
X78867000Y-96501499D03*
%TD*%
D19*
%TO.C,C13*%
X91186000Y-94996000D03*
X91186000Y-96546000D03*
%TD*%
D13*
%TO.C,TP3*%
X96774000Y-114808000D03*
%TD*%
D25*
%TO.C,C5*%
X75324000Y-94901499D03*
X73774000Y-94901499D03*
%TD*%
D23*
%TO.C,C25*%
X87249000Y-113170000D03*
X87249000Y-111620000D03*
%TD*%
D24*
%TO.C,CR4*%
X50412000Y-177038000D03*
X52712000Y-177038000D03*
%TD*%
D50*
%TO.C,D1*%
X69062500Y-124460000D03*
X70637500Y-124460000D03*
%TD*%
D25*
%TO.C,C17*%
X76721000Y-101600000D03*
X75171000Y-101600000D03*
%TD*%
D51*
%TO.C,U13*%
X60071998Y-93287497D03*
X59421997Y-93287497D03*
X58771998Y-93287497D03*
X58121997Y-93287497D03*
X58121997Y-97737498D03*
X58771998Y-97737498D03*
X59421997Y-97737498D03*
X60071998Y-97737498D03*
%TD*%
D16*
%TO.C,C21*%
X58166000Y-119100600D03*
X58166000Y-124739400D03*
%TD*%
D23*
%TO.C,C19*%
X76708000Y-92977000D03*
X76708000Y-91427000D03*
%TD*%
D40*
%TO.C,R11*%
X48197000Y-180594000D03*
X49847000Y-180594000D03*
%TD*%
D25*
%TO.C,C33*%
X55652000Y-155067000D03*
X54102000Y-155067000D03*
%TD*%
D13*
%TO.C,TP4*%
X96393000Y-176276000D03*
%TD*%
%TO.C,TP2*%
X106299000Y-86741000D03*
%TD*%
D34*
%TO.C,R5*%
X75819000Y-99091499D03*
X75819000Y-97441499D03*
%TD*%
D45*
%TO.C,CR2*%
X75692000Y-152774000D03*
X75692000Y-155074000D03*
%TD*%
D52*
%TO.C,U1*%
X72167999Y-102764501D03*
X72167999Y-102264500D03*
X72167999Y-101764500D03*
X72167999Y-101264499D03*
D53*
X71342999Y-101314499D03*
X70643001Y-101314499D03*
D52*
X69818001Y-101264499D03*
X69818001Y-101764500D03*
X69818001Y-102264500D03*
X69818001Y-102764501D03*
D54*
X70993000Y-103014501D03*
%TD*%
D23*
%TO.C,C22*%
X70231000Y-162179000D03*
X70231000Y-160629000D03*
%TD*%
D34*
%TO.C,R9*%
X52070000Y-132461000D03*
X52070000Y-130811000D03*
%TD*%
D25*
%TO.C,C35*%
X26543000Y-98044000D03*
X28093000Y-98044000D03*
%TD*%
D20*
%TO.C,R12*%
X32829000Y-97790000D03*
X31179000Y-97790000D03*
%TD*%
D55*
%TO.C,B1*%
X61217998Y-106427991D03*
X80518000Y-106427991D03*
X80518000Y-179328003D03*
X61217998Y-179328003D03*
D56*
X80518000Y-115067994D03*
X80518000Y-170688000D03*
X61217998Y-115067994D03*
X61217998Y-170688000D03*
%TD*%
M02*
