%TF.GenerationSoftware,KiCad,Pcbnew,7.0.10*%
%TF.CreationDate,2024-02-10T20:18:10-06:00*%
%TF.ProjectId,DAQ,4441512e-6b69-4636-9164-5f7063625858,rev?*%
%TF.SameCoordinates,Original*%
%TF.FileFunction,Soldermask,Bot*%
%TF.FilePolarity,Negative*%
%FSLAX46Y46*%
G04 Gerber Fmt 4.6, Leading zero omitted, Abs format (unit mm)*
G04 Created by KiCad (PCBNEW 7.0.10) date 2024-02-10 20:18:10*
%MOMM*%
%LPD*%
G01*
G04 APERTURE LIST*
G04 Aperture macros list*
%AMRoundRect*
0 Rectangle with rounded corners*
0 $1 Rounding radius*
0 $2 $3 $4 $5 $6 $7 $8 $9 X,Y pos of 4 corners*
0 Add a 4 corners polygon primitive as box body*
4,1,4,$2,$3,$4,$5,$6,$7,$8,$9,$2,$3,0*
0 Add four circle primitives for the rounded corners*
1,1,$1+$1,$2,$3*
1,1,$1+$1,$4,$5*
1,1,$1+$1,$6,$7*
1,1,$1+$1,$8,$9*
0 Add four rect primitives between the rounded corners*
20,1,$1+$1,$2,$3,$4,$5,0*
20,1,$1+$1,$4,$5,$6,$7,0*
20,1,$1+$1,$6,$7,$8,$9,0*
20,1,$1+$1,$8,$9,$2,$3,0*%
G04 Aperture macros list end*
%ADD10C,2.500000*%
%ADD11C,2.108200*%
%ADD12C,3.600000*%
%ADD13RoundRect,0.102000X1.200000X1.200000X-1.200000X1.200000X-1.200000X-1.200000X1.200000X-1.200000X0*%
%ADD14C,2.604000*%
%ADD15C,2.750000*%
%ADD16RoundRect,0.102000X0.754000X0.754000X-0.754000X0.754000X-0.754000X-0.754000X0.754000X-0.754000X0*%
%ADD17C,1.712000*%
%ADD18RoundRect,0.102000X0.714000X-0.714000X0.714000X0.714000X-0.714000X0.714000X-0.714000X-0.714000X0*%
%ADD19C,1.632000*%
%ADD20C,3.480000*%
%ADD21C,0.700000*%
%ADD22C,2.082800*%
%ADD23C,3.200400*%
G04 APERTURE END LIST*
D10*
%TO.C,REF\u002A\u002A*%
X31369000Y-88773000D03*
%TD*%
%TO.C,REF\u002A\u002A*%
X46990000Y-170942000D03*
%TD*%
%TO.C,REF\u002A\u002A*%
X97409000Y-103632000D03*
%TD*%
%TO.C,REF\u002A\u002A*%
X113284000Y-189230000D03*
%TD*%
D11*
%TO.C,J2*%
X112940253Y-105839253D03*
X112940253Y-110919253D03*
X112940253Y-115999253D03*
X112940253Y-121079253D03*
X112940253Y-126159253D03*
X112940253Y-131239253D03*
X112940253Y-136319253D03*
X112940253Y-141399253D03*
X112940253Y-146479253D03*
X112940253Y-151559253D03*
X112940253Y-156639253D03*
X112940253Y-161719253D03*
X112940253Y-166799253D03*
X112940253Y-171879253D03*
X112940253Y-176959253D03*
X112940253Y-182039253D03*
%TD*%
D12*
%TO.C,TP6*%
X97663000Y-126111000D03*
%TD*%
D13*
%TO.C,J4*%
X50546000Y-187198000D03*
D14*
X45466000Y-187198000D03*
%TD*%
D15*
%TO.C,A1*%
X99358000Y-86614000D03*
X99358000Y-63614000D03*
X41358000Y-86614000D03*
X41358000Y-63614000D03*
D16*
X94488000Y-85344000D03*
D17*
X94488000Y-87884000D03*
X91948000Y-85344000D03*
X91948000Y-87884000D03*
X89408000Y-85344000D03*
X89408000Y-87884000D03*
X86868000Y-85344000D03*
X86868000Y-87884000D03*
X84328000Y-85344000D03*
X84328000Y-87884000D03*
X81788000Y-85344000D03*
X81788000Y-87884000D03*
X79248000Y-85344000D03*
X79248000Y-87884000D03*
X76708000Y-85344000D03*
X76708000Y-87884000D03*
X74168000Y-85344000D03*
X74168000Y-87884000D03*
X71628000Y-85344000D03*
X71628000Y-87884000D03*
X69088000Y-85344000D03*
X69088000Y-87884000D03*
X66548000Y-85344000D03*
X66548000Y-87884000D03*
X64008000Y-85344000D03*
X64008000Y-87884000D03*
X61468000Y-85344000D03*
X61468000Y-87884000D03*
X58928000Y-85344000D03*
X58928000Y-87884000D03*
X56388000Y-85344000D03*
X56388000Y-87884000D03*
X53848000Y-85344000D03*
X53848000Y-87884000D03*
X51308000Y-85344000D03*
X51308000Y-87884000D03*
X48768000Y-85344000D03*
X48768000Y-87884000D03*
X46228000Y-85344000D03*
X46228000Y-87884000D03*
%TD*%
D11*
%TO.C,J1*%
X30226000Y-181864000D03*
X30226000Y-176784000D03*
X30226000Y-171704000D03*
X30226000Y-166624000D03*
X30226000Y-161544000D03*
X30226000Y-156464000D03*
X30226000Y-151384000D03*
X30226000Y-146304000D03*
X30226000Y-141224000D03*
X30226000Y-136144000D03*
X30226000Y-131064000D03*
X30226000Y-125984000D03*
X30226000Y-120904000D03*
X30226000Y-115824000D03*
X30226000Y-110744000D03*
X30226000Y-105664000D03*
%TD*%
D18*
%TO.C,J3*%
X112098000Y-97387000D03*
D19*
X112098000Y-94887000D03*
X112098000Y-92887000D03*
X112098000Y-90387000D03*
D20*
X114808000Y-100457000D03*
X114808000Y-87317000D03*
%TD*%
D12*
%TO.C,TP7*%
X66040000Y-183896000D03*
%TD*%
%TO.C,TP1*%
X106172000Y-91567000D03*
%TD*%
%TO.C,TP5*%
X81788000Y-102616000D03*
%TD*%
D13*
%TO.C,J5*%
X100838000Y-187198000D03*
D14*
X95758000Y-187198000D03*
X90678000Y-187198000D03*
X85598000Y-187198000D03*
%TD*%
D12*
%TO.C,TP3*%
X96774000Y-114808000D03*
%TD*%
%TO.C,TP4*%
X96393000Y-176276000D03*
%TD*%
%TO.C,TP2*%
X106299000Y-86741000D03*
%TD*%
D21*
%TO.C,U1*%
X70993000Y-103014501D03*
%TD*%
D22*
%TO.C,B1*%
X61217998Y-106427991D03*
X80518000Y-106427991D03*
X80518000Y-179328003D03*
X61217998Y-179328003D03*
D23*
X80518000Y-115067994D03*
X80518000Y-170688000D03*
X61217998Y-115067994D03*
X61217998Y-170688000D03*
%TD*%
M02*
