M48
; DRILL file {KiCad (6.0.11)} date Sun Jun  4 20:58:51 2023
; FORMAT={-:-/ absolute / inch / decimal}
; #@! TF.CreationDate,2023-06-04T20:58:51-05:00
; #@! TF.GenerationSoftware,Kicad,Pcbnew,(6.0.11)
; #@! TF.FileFunction,Plated,1,2,PTH
FMAT,2
INCH
; #@! TA.AperFunction,Plated,PTH,ViaDrill
T1C0.0157
; #@! TA.AperFunction,Plated,PTH,ComponentDrill
T2C0.0315
; #@! TA.AperFunction,Plated,PTH,ComponentDrill
T3C0.0394
; #@! TA.AperFunction,Plated,PTH,ComponentDrill
T4C0.0433
%
G90
G05
T1
X4.15Y-1.47
X4.15Y-4.82
X4.322Y-2.8354
X4.322Y-3.302
X4.3234Y-4.5049
X4.3236Y-3.4031
X4.3366Y-2.0169
X4.345Y-3.485
X4.3709Y-3.2591
X4.4083Y-2.1358
X4.4083Y-3.1953
X4.4486Y-2.2185
X4.4913Y-3.3423
X4.5256Y-2.3197
X4.5713Y-3.9882
X4.5982Y-2.71
X4.6366Y-3.8984
X4.6681Y-2.7177
X4.6769Y-3.56
X4.68Y-2.8
X4.68Y-3.11
X4.76Y-5.68
X4.9Y-2.17
X4.9504Y-3.3423
X4.9555Y-2.623
X4.988Y-3.422
X5.0768Y-3.2187
X5.0768Y-2.2532
X5.0876Y-2.4277
X5.0965Y-2.5827
X5.1276Y-4.9433
X5.128Y-2.252
X5.1477Y-3.613
X5.1772Y-2.4852
X5.188Y-2.6817
X5.2068Y-2.2501
X5.2175Y-2.2
X5.2248Y-2.5634
X5.2273Y-2.3819
X5.2579Y-2.2479
X5.3445Y-2.2455
X5.3445Y-2.2834
X5.3537Y-2.6069
X5.4075Y-3.9685
X5.41Y-2.25
X5.4354Y-5.3217
X5.44Y-3.54
X5.4477Y-5.25
X5.4512Y-3.6504
X5.47Y-2.41
X5.5017Y-1.4417
X5.51Y-2.33
X5.52Y-3.54
X5.5382Y-1.4982
X5.5394Y-4.8465
X5.5555Y-5.3846
X5.5732Y-4.3232
X5.63Y-1.71
X5.6309Y-3.2809
X5.6356Y-3.2192
X5.66Y-1.91
X5.6651Y-3.11
X5.6949Y-2.01
X5.7Y-1.56
X5.7055Y-2.2834
X5.7449Y-5.711
X5.7461Y-5.3445
X5.7472Y-3.1172
X5.76Y-3.5
X5.78Y-2.51
X5.811Y-5.2441
X5.82Y-2.92
X5.88Y-2.83
X5.93Y-2.1097
X5.93Y-2.42
X5.9449Y-4.8583
X5.9529Y-3.05
X5.9529Y-4.0591
X5.9693Y-4.7417
X5.97Y-3.55
X5.98Y-2.77
X5.98Y-2.8431
X6.0236Y-5.8976
X6.08Y-3.52
X6.0874Y-4.3827
X6.09Y-2.79
X6.09Y-3.08
X6.1319Y-4.1972
X6.16Y-2.62
X6.1819Y-4.1217
X6.1866Y-4.9248
X6.1937Y-2.74
X6.278Y-3.9535
X6.3417Y-2.82
X6.4Y-2.63
X6.4Y-2.7
X6.4118Y-4.5634
T2
X6.02Y-4.66
X6.02Y-4.76
X6.02Y-4.86
X6.02Y-4.96
X6.42Y-4.66
X6.42Y-4.76
X6.42Y-4.86
X6.42Y-4.96
T3
X4.2Y-1.68
X4.2Y-1.78
X4.2Y-1.88
X4.2Y-1.98
X4.2Y-2.08
X4.2Y-2.18
X4.2Y-2.28
X4.2Y-2.38
X4.2Y-2.48
X4.2Y-2.58
X4.2Y-2.68
X4.2Y-2.78
X4.2Y-2.88
X4.2Y-2.98
X4.2Y-3.08
X4.8Y-1.68
X4.8Y-1.78
X4.8Y-1.88
X4.8Y-1.98
X4.8Y-2.08
X4.8Y-2.18
X4.8Y-2.28
X4.8Y-2.38
X4.8Y-2.48
X4.8Y-2.58
X4.8Y-2.68
X4.8Y-2.78
X4.8Y-2.88
X4.8Y-2.98
X4.8Y-3.08
X4.988Y-6.0
X5.064Y-3.0256
X5.064Y-3.1043
X5.088Y-6.0
X5.188Y-6.0
X5.288Y-6.0
X5.388Y-6.0
X5.3943Y-2.7083
X5.3943Y-3.4303
X5.473Y-2.7083
X5.473Y-3.4303
X5.488Y-6.0
X5.588Y-6.0
X5.8189Y-5.9921
X5.8307Y-1.6742
X5.8307Y-1.7742
X5.8307Y-1.8742
X5.8307Y-1.9742
X5.8307Y-2.0742
X5.9189Y-5.9921
X6.0189Y-5.9921
T4
X6.29Y-2.36
X6.29Y-2.46
T0
M30
