M48
; DRILL file {KiCad 5.1.5+dfsg1-2build2} date Mon 09 Nov 2020 04:20:15 PM CST
; FORMAT={-:-/ absolute / inch / decimal}
; #@! TF.CreationDate,2020-11-09T16:20:15-06:00
; #@! TF.GenerationSoftware,Kicad,Pcbnew,5.1.5+dfsg1-2build2
; #@! TF.FileFunction,Plated,1,2,PTH
FMAT,2
INCH
T1C0.0118
T2C0.0157
T3C0.0197
T4C0.0295
T5C0.0354
T6C0.0374
T7C0.0394
T8C0.0400
T9C0.0402
T10C0.0433
T11C0.0512
T12C0.0551
T13C0.0591
T14C0.0630
T15C0.1772
%
G90
G05
T1
X8.534Y-9.0248
X8.559Y-9.1394
X8.614Y-8.9098
X8.759Y-9.0298
X8.759Y-9.0848
X8.7969Y-8.8136
X8.8304Y-8.7452
X8.834Y-8.7068
X9.289Y-9.1298
X9.294Y-9.0848
X9.354Y-8.8598
X9.389Y-8.7548
X9.398Y-8.5728
X9.398Y-8.6122
X9.398Y-8.6515
X9.4374Y-8.5728
X9.4374Y-8.6122
X9.4374Y-8.6515
X9.454Y-8.9668
X9.454Y-9.0062
X9.4768Y-8.5728
X9.4768Y-8.6122
X9.4768Y-8.6515
X9.4934Y-8.9668
X9.4934Y-9.0062
X9.5161Y-8.5728
X9.5161Y-8.6122
X9.5161Y-8.6515
X9.5328Y-8.9668
X9.5328Y-9.0062
X9.669Y-9.0848
X9.669Y-9.1298
X9.674Y-9.6998
X9.699Y-9.0148
X9.704Y-8.8548
X9.7825Y-9.0148
X9.814Y-9.0148
X9.854Y-8.9912
X10.012Y-8.8748
X10.012Y-8.9142
X10.026Y-8.6128
X10.026Y-8.6522
X10.026Y-8.6915
X10.026Y-8.7309
X10.0514Y-8.8748
X10.0514Y-8.9142
X10.0654Y-8.6128
X10.0654Y-8.6522
X10.0654Y-8.6915
X10.0654Y-8.7309
X10.0908Y-8.8748
X10.0908Y-8.9142
X10.099Y-9.4748
X10.1048Y-8.6128
X10.1048Y-8.6522
X10.1048Y-8.6915
X10.1048Y-8.7309
X10.2203Y-9.1448
X10.234Y-8.5468
X10.234Y-8.5862
X10.2722Y-8.9716
X10.2734Y-8.5468
X10.2734Y-8.5862
X10.2755Y-8.6988
X10.284Y-8.7448
X10.284Y-8.7798
X10.304Y-8.9348
X10.3195Y-8.6793
X10.329Y-8.7298
X10.334Y-8.8998
X10.344Y-9.7048
X10.374Y-9.0248
X10.399Y-8.7198
X10.4065Y-8.6763
X10.4289Y-8.9658
X10.4289Y-9.0052
X10.433Y-8.8072
X10.449Y-8.7748
X10.499Y-9.4748
X10.5465Y-8.7614
X10.5804Y-9.1083
X10.5804Y-9.1477
X10.582Y-8.6268
X10.582Y-8.6662
X10.5859Y-8.7614
X10.6179Y-9.1073
X10.6179Y-9.1467
X10.6214Y-8.6268
X10.6214Y-8.6662
X10.789Y-8.9608
X10.789Y-9.0002
X10.789Y-9.0395
X10.8481Y-8.9214
X10.8481Y-8.9608
X10.8481Y-9.0002
X10.9071Y-8.8821
X10.9071Y-8.9214
X10.9071Y-8.9608
T2
X7.924Y-9.842
X7.9592Y-7.1128
X7.986Y-9.6608
X8.0188Y-9.7636
X8.038Y-7.1128
X8.0606Y-8.3148
X8.0606Y-8.3652
X8.099Y-10.0748
X8.099Y-10.1248
X8.099Y-10.1748
X8.1167Y-7.1128
X8.134Y-10.0248
X8.174Y-9.5348
X8.1954Y-7.1128
X8.224Y-8.7988
X8.2259Y-9.6067
X8.2742Y-7.1128
X8.3043Y-5.7988
X8.3175Y-9.1498
X8.318Y-9.0563
X8.318Y-9.1013
X8.437Y-5.7783
X8.55Y-8.6188
X8.564Y-9.5848
X8.606Y-8.6188
X8.624Y-9.4848
X8.624Y-9.5248
X8.624Y-9.5648
X8.656Y-9.6648
X8.67Y-8.6188
X8.676Y-8.9268
X8.694Y-7.9948
X8.702Y-8.9808
X8.738Y-8.9268
X8.742Y-8.6188
X8.754Y-6.2848
X8.8213Y-9.4383
X8.824Y-9.5848
X8.8606Y-9.4361
X8.8634Y-9.5848
X8.874Y-7.9948
X8.9Y-9.4352
X8.9038Y-9.5846
X8.904Y-6.2848
X8.9394Y-9.4332
X8.944Y-9.5848
X8.96Y-8.9288
X8.96Y-8.9888
X8.974Y-7.9208
X8.9964Y-9.4348
X9.0015Y-9.6668
X9.01Y-8.9288
X9.01Y-8.9888
X9.0358Y-9.4048
X9.044Y-8.5588
X9.044Y-8.6048
X9.06Y-7.0568
X9.068Y-8.9288
X9.068Y-8.9888
X9.0885Y-5.9903
X9.0885Y-6.069
X9.0885Y-6.1478
X9.0885Y-6.2265
X9.0885Y-6.3053
X9.0935Y-9.6668
X9.094Y-8.5588
X9.094Y-8.6048
X9.098Y-7.9208
X9.1Y-7.8268
X9.122Y-8.9288
X9.122Y-8.9888
X9.132Y-9.4468
X9.132Y-9.5068
X9.148Y-8.5588
X9.148Y-8.6048
X9.1673Y-5.9903
X9.1673Y-6.069
X9.1673Y-6.1478
X9.1673Y-6.2265
X9.1673Y-6.3053
X9.194Y-9.4448
X9.194Y-9.5068
X9.222Y-7.8268
X9.222Y-7.9208
X9.246Y-5.9903
X9.246Y-6.069
X9.246Y-6.1478
X9.246Y-6.2265
X9.246Y-6.3053
X9.254Y-7.0448
X9.258Y-9.4448
X9.258Y-9.5068
X9.3247Y-5.9903
X9.3247Y-6.069
X9.3247Y-6.1478
X9.3247Y-6.2265
X9.3247Y-6.3053
X9.348Y-7.8268
X9.3504Y-7.4511
X9.384Y-7.4148
X9.4035Y-5.9903
X9.4035Y-6.069
X9.4035Y-6.1478
X9.4035Y-6.2265
X9.4035Y-6.3053
X9.474Y-2.6948
X9.4822Y-5.9903
X9.4822Y-6.069
X9.4822Y-6.1478
X9.4822Y-6.2265
X9.4822Y-6.3053
X9.4839Y-7.4176
X9.494Y-9.5748
X9.494Y-9.7013
X9.614Y-9.5748
X9.614Y-9.7033
X9.628Y-9.4768
X9.688Y-9.4788
X9.704Y-8.3848
X9.714Y-9.3813
X9.756Y-9.3813
X9.804Y-9.5748
X9.844Y-9.5748
X9.844Y-9.7013
X9.854Y-8.3848
X9.864Y-9.3508
X9.896Y-7.8408
X9.896Y-7.9728
X9.922Y-9.3508
X9.9565Y-9.7013
X9.992Y-9.3508
X10.02Y-9.5428
X10.092Y-9.5428
X10.099Y-9.4098
X10.139Y-2.5898
X10.168Y-9.5428
X10.309Y-3.5298
X10.3716Y-9.7702
X10.3793Y-9.7013
X10.4395Y-5.9853
X10.4395Y-6.064
X10.4395Y-6.1428
X10.4395Y-6.2215
X10.4395Y-6.3003
X10.454Y-8.4413
X10.454Y-9.5428
X10.474Y-7.9748
X10.494Y-9.4148
X10.5183Y-5.9853
X10.5183Y-6.064
X10.5183Y-6.1428
X10.5183Y-6.2215
X10.5183Y-6.3003
X10.5285Y-7.9738
X10.568Y-9.5428
X10.572Y-7.1063
X10.5845Y-7.9748
X10.597Y-5.9853
X10.597Y-6.064
X10.597Y-6.1428
X10.597Y-6.2215
X10.597Y-6.3003
X10.64Y-7.9738
X10.674Y-7.1058
X10.6757Y-5.9853
X10.6757Y-6.064
X10.6757Y-6.1428
X10.6757Y-6.2215
X10.6757Y-6.3003
X10.6865Y-7.9748
X10.734Y-8.5348
X10.7545Y-5.9853
X10.7545Y-6.064
X10.7545Y-6.1428
X10.7545Y-6.2215
X10.7545Y-6.3003
X10.7702Y-6.9418
X10.774Y-8.3748
X10.7765Y-7.1063
X10.7938Y-9.1646
X10.8034Y-6.9116
X10.824Y-8.3748
X10.828Y-6.9538
X10.8332Y-5.9853
X10.8332Y-6.064
X10.8332Y-6.1428
X10.8332Y-6.2215
X10.8332Y-6.3003
X10.974Y-8.3748
X11.4615Y-10.4373
X11.694Y-3.6648
X11.934Y-6.8348
T3
X10.874Y-8.3748
X10.924Y-8.3748
T4
X9.064Y-2.3348
X9.1428Y-2.3348
X9.434Y-2.3348
X9.5128Y-2.3348
X8.684Y-2.3348
X8.7628Y-2.3348
T5
X10.489Y-10.1148
X10.789Y-10.1148
T6
X12.074Y-4.8248
X12.074Y-4.9232
X12.074Y-5.0217
X12.074Y-5.1201
X8.0853Y-5.3748
X8.1838Y-5.3748
X8.2822Y-5.3748
X8.3806Y-5.3748
T7
X11.5283Y-10.3118
X11.5283Y-10.4118
X11.5283Y-10.5118
X11.8283Y-10.3118
X11.8283Y-10.4118
X11.8283Y-10.5118
X11.6283Y-10.3118
X11.6283Y-10.4118
X11.6283Y-10.5118
X11.7283Y-10.3118
X11.7283Y-10.4118
X11.7283Y-10.5118
X11.9283Y-10.3118
X11.9283Y-10.4118
X11.9283Y-10.5118
T8
X8.824Y-5.3248
X8.824Y-5.4248
X8.824Y-7.2248
X8.824Y-7.3248
X8.924Y-5.3248
X8.924Y-5.4248
X8.924Y-7.2248
X8.924Y-7.3248
X9.024Y-5.3248
X9.024Y-5.4248
X9.024Y-7.2248
X9.024Y-7.3248
X9.124Y-5.3248
X9.124Y-5.4248
X9.124Y-7.2248
X9.124Y-7.3248
X9.224Y-5.3248
X9.224Y-5.4248
X9.224Y-7.2248
X9.224Y-7.3248
X9.324Y-5.3248
X9.324Y-5.4248
X9.324Y-7.2248
X9.324Y-7.3248
X9.424Y-5.3248
X9.424Y-5.4248
X9.424Y-7.2248
X9.424Y-7.3248
X9.524Y-5.3248
X9.524Y-5.4248
X9.524Y-7.2248
X9.524Y-7.3248
X9.624Y-5.3248
X9.624Y-5.4248
X9.624Y-7.2248
X9.624Y-7.3248
X9.724Y-5.3248
X9.724Y-5.4248
X9.724Y-7.2248
X9.724Y-7.3248
X9.824Y-5.3248
X9.824Y-5.4248
X9.824Y-7.2248
X9.824Y-7.3248
X9.924Y-5.3248
X9.924Y-5.4248
X9.924Y-7.2248
X9.924Y-7.3248
X10.024Y-5.3248
X10.024Y-5.4248
X10.024Y-7.2248
X10.024Y-7.3248
X10.124Y-5.3248
X10.124Y-5.4248
X10.124Y-7.2248
X10.124Y-7.3248
X10.224Y-5.3248
X10.224Y-5.4248
X10.224Y-7.2248
X10.224Y-7.3248
X10.324Y-5.3248
X10.324Y-5.4248
X10.324Y-7.2248
X10.324Y-7.3248
X10.424Y-5.3248
X10.424Y-5.4248
X10.424Y-7.2248
X10.424Y-7.3248
X10.524Y-5.3248
X10.524Y-5.4248
X10.524Y-7.2248
X10.524Y-7.3248
X10.624Y-5.3248
X10.624Y-5.4248
X10.624Y-7.2248
X10.624Y-7.3248
X10.724Y-5.3248
X10.724Y-5.4248
X10.724Y-7.2248
X10.724Y-7.3248
X10.824Y-5.3248
X10.824Y-5.4248
X10.824Y-7.2248
X10.824Y-7.3248
X10.924Y-5.3248
X10.924Y-5.4248
X10.924Y-7.2248
X10.924Y-7.3248
X11.024Y-5.3248
X11.024Y-5.4248
X11.024Y-7.2248
X11.024Y-7.3248
T9
X12.0571Y-6.4004
X12.0571Y-6.5004
X12.0571Y-6.6004
X12.0571Y-6.7004
X12.0571Y-6.8004
X12.1571Y-6.4004
X12.0571Y-7.1752
X12.0571Y-7.2752
X12.0571Y-7.3752
X12.0571Y-7.4752
X12.0571Y-7.5752
X12.0571Y-5.5752
X12.0571Y-5.6752
X12.0571Y-5.7752
X12.0571Y-5.8752
X12.0571Y-5.9752
X11.974Y-9.7748
X11.974Y-9.8748
X12.074Y-9.7748
X12.074Y-9.8748
X12.174Y-9.7748
X12.174Y-9.8748
X12.274Y-9.7748
X12.274Y-9.8748
X12.374Y-9.7748
X12.374Y-9.8748
X12.474Y-9.7748
X12.474Y-9.8748
X11.974Y-8.6114
X11.974Y-8.7114
X12.074Y-8.6114
X12.074Y-8.7114
X12.174Y-8.6114
X12.174Y-8.7114
X12.274Y-8.6114
X12.274Y-8.7114
X12.374Y-8.6114
X12.374Y-8.7114
X12.474Y-8.6114
X12.474Y-8.7114
T10
X12.124Y-10.2998
X12.124Y-10.3998
X12.124Y-10.4998
X10.329Y-10.3148
X10.329Y-10.4148
X10.329Y-10.5148
X8.294Y-7.7098
X8.294Y-8.3098
X8.394Y-7.7098
X8.394Y-8.3098
X8.494Y-7.7098
X8.494Y-8.3098
X8.594Y-7.7098
X8.594Y-8.3098
X8.694Y-7.7098
X8.694Y-8.3098
X8.794Y-7.7098
X8.794Y-8.3098
X8.894Y-7.7098
X8.894Y-8.3098
X8.994Y-7.7098
X8.994Y-8.3098
X9.094Y-7.7098
X9.094Y-8.3098
X9.194Y-7.7098
X9.194Y-8.3098
X9.294Y-7.7098
X9.294Y-8.3098
X9.394Y-7.7098
X9.394Y-8.3098
X9.494Y-7.7098
X9.494Y-8.3098
X9.594Y-7.7098
X9.594Y-8.3098
X9.694Y-7.7098
X9.694Y-8.3098
X9.794Y-7.7098
X9.794Y-8.3098
X9.894Y-7.7098
X9.894Y-8.3098
X9.994Y-7.7098
X9.994Y-8.3098
X10.094Y-7.7098
X10.094Y-8.3098
X10.194Y-7.7098
X10.194Y-8.3098
X10.294Y-7.7098
X10.294Y-8.3098
X10.394Y-7.7098
X10.394Y-8.3098
X10.494Y-7.7098
X10.494Y-8.3098
X10.594Y-7.7098
X10.594Y-8.3098
X8.299Y-9.2398
X8.299Y-9.8398
X8.399Y-9.2398
X8.399Y-9.8398
X8.499Y-9.2398
X8.499Y-9.8398
X8.599Y-9.2398
X8.599Y-9.8398
X8.699Y-9.2398
X8.699Y-9.8398
X8.799Y-9.2398
X8.799Y-9.8398
X8.899Y-9.2398
X8.899Y-9.8398
X8.999Y-9.2398
X8.999Y-9.8398
X9.099Y-9.2398
X9.099Y-9.8398
X9.199Y-9.2398
X9.199Y-9.8398
X9.299Y-9.2398
X9.299Y-9.8398
X9.399Y-9.2398
X9.399Y-9.8398
X9.499Y-9.2398
X9.499Y-9.8398
X9.599Y-9.2398
X9.599Y-9.8398
X9.699Y-9.2398
X9.699Y-9.8398
X9.799Y-9.2398
X9.799Y-9.8398
X9.899Y-9.2398
X9.899Y-9.8398
X9.999Y-9.2398
X9.999Y-9.8398
X10.099Y-9.2398
X10.099Y-9.8398
X10.199Y-9.2398
X10.199Y-9.8398
X10.299Y-9.2398
X10.299Y-9.8398
X10.399Y-9.2398
X10.399Y-9.8398
X10.499Y-9.2398
X10.499Y-9.8398
X10.599Y-9.2398
X10.599Y-9.8398
T11
X11.004Y-10.4248
X11.204Y-10.4248
X8.714Y-10.4248
X8.9109Y-10.4248
X9.1077Y-10.4248
X9.3883Y-10.4248
X9.5851Y-10.4248
X9.782Y-10.4248
X10.539Y-10.4248
X10.739Y-10.4248
X8.0372Y-10.4248
X8.234Y-10.4248
X8.4309Y-10.4248
T12
X10.624Y-3.5248
X10.624Y-3.6248
X10.624Y-3.8748
X10.624Y-3.9748
X11.174Y-3.5248
X11.174Y-3.6248
X11.174Y-3.8748
X11.174Y-3.9748
X11.924Y-4.4248
X11.974Y-3.8248
X11.974Y-3.9248
X12.024Y-4.4248
X12.224Y-4.4248
X12.324Y-4.4248
X12.524Y-4.4248
X12.624Y-4.4248
T13
X8.078Y-6.8858
X8.334Y-8.7998
T14
X7.978Y-6.7858
X7.978Y-6.9858
X8.178Y-6.7858
X8.178Y-6.9858
X8.234Y-8.6998
X8.234Y-8.8998
X8.434Y-8.6998
X8.434Y-8.8998
T15
X12.549Y-10.1595
X12.549Y-10.4548
T0
M30
