%TF.GenerationSoftware,KiCad,Pcbnew,5.1.5+dfsg1-2build2*%
%TF.CreationDate,2020-11-09T16:20:19-06:00*%
%TF.ProjectId,TARS-MK1,54415253-2d4d-44b3-912e-6b696361645f,rev?*%
%TF.SameCoordinates,Original*%
%TF.FileFunction,Soldermask,Top*%
%TF.FilePolarity,Negative*%
%FSLAX46Y46*%
G04 Gerber Fmt 4.6, Leading zero omitted, Abs format (unit mm)*
G04 Created by KiCad (PCBNEW 5.1.5+dfsg1-2build2) date 2020-11-09 16:20:19*
%MOMM*%
%LPD*%
G04 APERTURE LIST*
%ADD10C,0.100000*%
%ADD11C,3.800000*%
%ADD12O,1.727200X1.727200*%
%ADD13R,1.727200X1.727200*%
%ADD14O,1.200000X1.750000*%
%ADD15O,2.000000X1.905000*%
%ADD16R,2.000000X1.905000*%
%ADD17C,1.600000*%
%ADD18R,1.600000X1.600000*%
%ADD19C,2.600000*%
%ADD20R,2.600000X2.600000*%
%ADD21O,1.800000X1.800000*%
%ADD22R,1.800000X1.800000*%
%ADD23O,3.200000X1.800000*%
%ADD24C,4.000000*%
%ADD25O,1.800000X3.200000*%
%ADD26C,4.200000*%
%ADD27R,1.400000X3.000000*%
%ADD28C,2.800000*%
%ADD29C,1.750000*%
%ADD30C,2.540000*%
%ADD31O,1.700000X1.700000*%
%ADD32R,1.700000X1.700000*%
%ADD33R,4.000000X1.800000*%
%ADD34R,3.000000X1.000000*%
%ADD35R,1.800000X4.000000*%
%ADD36R,1.000000X3.000000*%
%ADD37R,0.950000X0.550000*%
%ADD38R,0.350000X0.375000*%
%ADD39R,0.375000X0.350000*%
%ADD40R,0.230000X0.350000*%
%ADD41R,0.350000X0.230000*%
%ADD42C,1.150000*%
%ADD43C,1.650000*%
%ADD44O,1.950000X1.700000*%
%ADD45C,6.000000*%
%ADD46O,1.700000X1.950000*%
G04 APERTURE END LIST*
D10*
%TO.C,U8001*%
X218505000Y-221007000D02*
G75*
G03X218505000Y-221007000I-185000J0D01*
G01*
X219005000Y-221007000D02*
G75*
G03X219005000Y-221007000I-185000J0D01*
G01*
X219505000Y-221007000D02*
G75*
G03X219505000Y-221007000I-185000J0D01*
G01*
X220005000Y-221007000D02*
G75*
G03X220005000Y-221007000I-185000J0D01*
G01*
X220505000Y-221007000D02*
G75*
G03X220505000Y-221007000I-185000J0D01*
G01*
X221005000Y-221007000D02*
G75*
G03X221005000Y-221007000I-185000J0D01*
G01*
X221505000Y-221007000D02*
G75*
G03X221505000Y-221007000I-185000J0D01*
G01*
X222005000Y-221007000D02*
G75*
G03X222005000Y-221007000I-185000J0D01*
G01*
X218505000Y-221507000D02*
G75*
G03X218505000Y-221507000I-185000J0D01*
G01*
X218505000Y-222007000D02*
G75*
G03X218505000Y-222007000I-185000J0D01*
G01*
X218505000Y-222507000D02*
G75*
G03X218505000Y-222507000I-185000J0D01*
G01*
X218505000Y-223007000D02*
G75*
G03X218505000Y-223007000I-185000J0D01*
G01*
X218505000Y-223507000D02*
G75*
G03X218505000Y-223507000I-185000J0D01*
G01*
X218505000Y-224007000D02*
G75*
G03X218505000Y-224007000I-185000J0D01*
G01*
X218505000Y-224507000D02*
G75*
G03X218505000Y-224507000I-185000J0D01*
G01*
X218505000Y-225007000D02*
G75*
G03X218505000Y-225007000I-185000J0D01*
G01*
X219005000Y-225007000D02*
G75*
G03X219005000Y-225007000I-185000J0D01*
G01*
X219505000Y-225007000D02*
G75*
G03X219505000Y-225007000I-185000J0D01*
G01*
X220005000Y-225007000D02*
G75*
G03X220005000Y-225007000I-185000J0D01*
G01*
X220505000Y-225007000D02*
G75*
G03X220505000Y-225007000I-185000J0D01*
G01*
X221005000Y-225007000D02*
G75*
G03X221005000Y-225007000I-185000J0D01*
G01*
X221505000Y-225007000D02*
G75*
G03X221505000Y-225007000I-185000J0D01*
G01*
X222005000Y-225007000D02*
G75*
G03X222005000Y-225007000I-185000J0D01*
G01*
X222505000Y-225007000D02*
G75*
G03X222505000Y-225007000I-185000J0D01*
G01*
X222505000Y-224507000D02*
G75*
G03X222505000Y-224507000I-185000J0D01*
G01*
X222505000Y-224007000D02*
G75*
G03X222505000Y-224007000I-185000J0D01*
G01*
X222505000Y-223507000D02*
G75*
G03X222505000Y-223507000I-185000J0D01*
G01*
X222505000Y-223007000D02*
G75*
G03X222505000Y-223007000I-185000J0D01*
G01*
X222505000Y-222507000D02*
G75*
G03X222505000Y-222507000I-185000J0D01*
G01*
X222505000Y-222007000D02*
G75*
G03X222505000Y-222007000I-185000J0D01*
G01*
X222505000Y-221507000D02*
G75*
G03X222505000Y-221507000I-185000J0D01*
G01*
X222505000Y-221007000D02*
G75*
G03X222505000Y-221007000I-185000J0D01*
G01*
X219505000Y-224007000D02*
G75*
G03X219505000Y-224007000I-185000J0D01*
G01*
X220005000Y-224007000D02*
G75*
G03X220005000Y-224007000I-185000J0D01*
G01*
X220505000Y-224007000D02*
G75*
G03X220505000Y-224007000I-185000J0D01*
G01*
X221005000Y-224007000D02*
G75*
G03X221005000Y-224007000I-185000J0D01*
G01*
X221505000Y-224007000D02*
G75*
G03X221505000Y-224007000I-185000J0D01*
G01*
X219505000Y-223507000D02*
G75*
G03X219505000Y-223507000I-185000J0D01*
G01*
X220005000Y-223507000D02*
G75*
G03X220005000Y-223507000I-185000J0D01*
G01*
X221005000Y-223507000D02*
G75*
G03X221005000Y-223507000I-185000J0D01*
G01*
X221505000Y-223507000D02*
G75*
G03X221505000Y-223507000I-185000J0D01*
G01*
X219505000Y-223007000D02*
G75*
G03X219505000Y-223007000I-185000J0D01*
G01*
X221505000Y-223007000D02*
G75*
G03X221505000Y-223007000I-185000J0D01*
G01*
X219505000Y-222507000D02*
G75*
G03X219505000Y-222507000I-185000J0D01*
G01*
X220005000Y-222507000D02*
G75*
G03X220005000Y-222507000I-185000J0D01*
G01*
X221005000Y-222507000D02*
G75*
G03X221005000Y-222507000I-185000J0D01*
G01*
X221505000Y-222507000D02*
G75*
G03X221505000Y-222507000I-185000J0D01*
G01*
X219505000Y-222007000D02*
G75*
G03X219505000Y-222007000I-185000J0D01*
G01*
X220505000Y-222007000D02*
G75*
G03X220505000Y-222007000I-185000J0D01*
G01*
X221005000Y-222007000D02*
G75*
G03X221005000Y-222007000I-185000J0D01*
G01*
X221505000Y-222007000D02*
G75*
G03X221505000Y-222007000I-185000J0D01*
G01*
%TD*%
D11*
%TO.C,U2001*%
X286360000Y-180970000D03*
X219050000Y-136520000D03*
D12*
X236830000Y-137790000D03*
X244450000Y-137790000D03*
X231750000Y-135250000D03*
X264770000Y-135250000D03*
X267310000Y-137790000D03*
X234290000Y-135250000D03*
X267310000Y-135250000D03*
X269850000Y-137790000D03*
X269850000Y-135250000D03*
X239370000Y-135250000D03*
X257150000Y-135250000D03*
X259690000Y-137790000D03*
X246990000Y-137790000D03*
X234290000Y-137790000D03*
X229210000Y-135250000D03*
X231750000Y-137790000D03*
X252070000Y-135250000D03*
X236830000Y-135250000D03*
X280010000Y-135250000D03*
X241910000Y-135250000D03*
X254610000Y-137790000D03*
X241910000Y-137790000D03*
D13*
X224130000Y-137790000D03*
D12*
X224130000Y-135250000D03*
X262230000Y-135250000D03*
X264770000Y-137790000D03*
X244450000Y-135250000D03*
X254610000Y-135250000D03*
X249530000Y-137790000D03*
X257150000Y-137790000D03*
X272390000Y-137790000D03*
X272390000Y-135250000D03*
X274930000Y-137790000D03*
X274930000Y-135250000D03*
X277470000Y-137790000D03*
X277470000Y-135250000D03*
X280010000Y-137790000D03*
X259690000Y-135250000D03*
X262230000Y-137790000D03*
X252070000Y-137790000D03*
X239370000Y-137790000D03*
X226670000Y-137790000D03*
X226670000Y-135250000D03*
X229210000Y-137790000D03*
X249530000Y-135250000D03*
X246990000Y-135250000D03*
X280010000Y-183510000D03*
X280010000Y-186050000D03*
X277470000Y-183510000D03*
X277470000Y-186050000D03*
X274930000Y-183510000D03*
X274930000Y-186050000D03*
X272390000Y-183510000D03*
X272390000Y-186050000D03*
X269850000Y-183510000D03*
X269850000Y-186050000D03*
X267310000Y-183510000D03*
X267310000Y-186050000D03*
X264770000Y-183510000D03*
X264770000Y-186050000D03*
X262230000Y-183510000D03*
X262230000Y-186050000D03*
X259690000Y-183510000D03*
X259690000Y-186050000D03*
X257150000Y-183510000D03*
X257150000Y-186050000D03*
X254610000Y-183510000D03*
X254610000Y-186050000D03*
X252070000Y-183510000D03*
X252070000Y-186050000D03*
X249530000Y-183510000D03*
X249530000Y-186050000D03*
X246990000Y-183510000D03*
X246990000Y-186050000D03*
X244450000Y-183510000D03*
X244450000Y-186050000D03*
X241910000Y-183510000D03*
X241910000Y-186050000D03*
X239370000Y-183510000D03*
X239370000Y-186050000D03*
X236830000Y-183510000D03*
X236830000Y-186050000D03*
X234290000Y-183510000D03*
X234290000Y-186050000D03*
X231750000Y-183510000D03*
X231750000Y-186050000D03*
X229210000Y-183510000D03*
X229210000Y-186050000D03*
X226670000Y-183510000D03*
X226670000Y-186050000D03*
X224130000Y-183510000D03*
D13*
X224130000Y-186050000D03*
%TD*%
D14*
%TO.C,J6007*%
X241624000Y-59304000D03*
D10*
G36*
X239998505Y-58430204D02*
G01*
X240022773Y-58433804D01*
X240046572Y-58439765D01*
X240069671Y-58448030D01*
X240091850Y-58458520D01*
X240112893Y-58471132D01*
X240132599Y-58485747D01*
X240150777Y-58502223D01*
X240167253Y-58520401D01*
X240181868Y-58540107D01*
X240194480Y-58561150D01*
X240204970Y-58583329D01*
X240213235Y-58606428D01*
X240219196Y-58630227D01*
X240222796Y-58654495D01*
X240224000Y-58678999D01*
X240224000Y-59929001D01*
X240222796Y-59953505D01*
X240219196Y-59977773D01*
X240213235Y-60001572D01*
X240204970Y-60024671D01*
X240194480Y-60046850D01*
X240181868Y-60067893D01*
X240167253Y-60087599D01*
X240150777Y-60105777D01*
X240132599Y-60122253D01*
X240112893Y-60136868D01*
X240091850Y-60149480D01*
X240069671Y-60159970D01*
X240046572Y-60168235D01*
X240022773Y-60174196D01*
X239998505Y-60177796D01*
X239974001Y-60179000D01*
X239273999Y-60179000D01*
X239249495Y-60177796D01*
X239225227Y-60174196D01*
X239201428Y-60168235D01*
X239178329Y-60159970D01*
X239156150Y-60149480D01*
X239135107Y-60136868D01*
X239115401Y-60122253D01*
X239097223Y-60105777D01*
X239080747Y-60087599D01*
X239066132Y-60067893D01*
X239053520Y-60046850D01*
X239043030Y-60024671D01*
X239034765Y-60001572D01*
X239028804Y-59977773D01*
X239025204Y-59953505D01*
X239024000Y-59929001D01*
X239024000Y-58678999D01*
X239025204Y-58654495D01*
X239028804Y-58630227D01*
X239034765Y-58606428D01*
X239043030Y-58583329D01*
X239053520Y-58561150D01*
X239066132Y-58540107D01*
X239080747Y-58520401D01*
X239097223Y-58502223D01*
X239115401Y-58485747D01*
X239135107Y-58471132D01*
X239156150Y-58458520D01*
X239178329Y-58448030D01*
X239201428Y-58439765D01*
X239225227Y-58433804D01*
X239249495Y-58430204D01*
X239273999Y-58429000D01*
X239974001Y-58429000D01*
X239998505Y-58430204D01*
G37*
%TD*%
D14*
%TO.C,J6004*%
X222574000Y-59304000D03*
D10*
G36*
X220948505Y-58430204D02*
G01*
X220972773Y-58433804D01*
X220996572Y-58439765D01*
X221019671Y-58448030D01*
X221041850Y-58458520D01*
X221062893Y-58471132D01*
X221082599Y-58485747D01*
X221100777Y-58502223D01*
X221117253Y-58520401D01*
X221131868Y-58540107D01*
X221144480Y-58561150D01*
X221154970Y-58583329D01*
X221163235Y-58606428D01*
X221169196Y-58630227D01*
X221172796Y-58654495D01*
X221174000Y-58678999D01*
X221174000Y-59929001D01*
X221172796Y-59953505D01*
X221169196Y-59977773D01*
X221163235Y-60001572D01*
X221154970Y-60024671D01*
X221144480Y-60046850D01*
X221131868Y-60067893D01*
X221117253Y-60087599D01*
X221100777Y-60105777D01*
X221082599Y-60122253D01*
X221062893Y-60136868D01*
X221041850Y-60149480D01*
X221019671Y-60159970D01*
X220996572Y-60168235D01*
X220972773Y-60174196D01*
X220948505Y-60177796D01*
X220924001Y-60179000D01*
X220223999Y-60179000D01*
X220199495Y-60177796D01*
X220175227Y-60174196D01*
X220151428Y-60168235D01*
X220128329Y-60159970D01*
X220106150Y-60149480D01*
X220085107Y-60136868D01*
X220065401Y-60122253D01*
X220047223Y-60105777D01*
X220030747Y-60087599D01*
X220016132Y-60067893D01*
X220003520Y-60046850D01*
X219993030Y-60024671D01*
X219984765Y-60001572D01*
X219978804Y-59977773D01*
X219975204Y-59953505D01*
X219974000Y-59929001D01*
X219974000Y-58678999D01*
X219975204Y-58654495D01*
X219978804Y-58630227D01*
X219984765Y-58606428D01*
X219993030Y-58583329D01*
X220003520Y-58561150D01*
X220016132Y-58540107D01*
X220030747Y-58520401D01*
X220047223Y-58502223D01*
X220065401Y-58485747D01*
X220085107Y-58471132D01*
X220106150Y-58458520D01*
X220128329Y-58448030D01*
X220151428Y-58439765D01*
X220175227Y-58433804D01*
X220199495Y-58430204D01*
X220223999Y-58429000D01*
X220924001Y-58429000D01*
X220948505Y-58430204D01*
G37*
%TD*%
D14*
%TO.C,J6005*%
X232226000Y-59304000D03*
D10*
G36*
X230600505Y-58430204D02*
G01*
X230624773Y-58433804D01*
X230648572Y-58439765D01*
X230671671Y-58448030D01*
X230693850Y-58458520D01*
X230714893Y-58471132D01*
X230734599Y-58485747D01*
X230752777Y-58502223D01*
X230769253Y-58520401D01*
X230783868Y-58540107D01*
X230796480Y-58561150D01*
X230806970Y-58583329D01*
X230815235Y-58606428D01*
X230821196Y-58630227D01*
X230824796Y-58654495D01*
X230826000Y-58678999D01*
X230826000Y-59929001D01*
X230824796Y-59953505D01*
X230821196Y-59977773D01*
X230815235Y-60001572D01*
X230806970Y-60024671D01*
X230796480Y-60046850D01*
X230783868Y-60067893D01*
X230769253Y-60087599D01*
X230752777Y-60105777D01*
X230734599Y-60122253D01*
X230714893Y-60136868D01*
X230693850Y-60149480D01*
X230671671Y-60159970D01*
X230648572Y-60168235D01*
X230624773Y-60174196D01*
X230600505Y-60177796D01*
X230576001Y-60179000D01*
X229875999Y-60179000D01*
X229851495Y-60177796D01*
X229827227Y-60174196D01*
X229803428Y-60168235D01*
X229780329Y-60159970D01*
X229758150Y-60149480D01*
X229737107Y-60136868D01*
X229717401Y-60122253D01*
X229699223Y-60105777D01*
X229682747Y-60087599D01*
X229668132Y-60067893D01*
X229655520Y-60046850D01*
X229645030Y-60024671D01*
X229636765Y-60001572D01*
X229630804Y-59977773D01*
X229627204Y-59953505D01*
X229626000Y-59929001D01*
X229626000Y-58678999D01*
X229627204Y-58654495D01*
X229630804Y-58630227D01*
X229636765Y-58606428D01*
X229645030Y-58583329D01*
X229655520Y-58561150D01*
X229668132Y-58540107D01*
X229682747Y-58520401D01*
X229699223Y-58502223D01*
X229717401Y-58485747D01*
X229737107Y-58471132D01*
X229758150Y-58458520D01*
X229780329Y-58448030D01*
X229803428Y-58439765D01*
X229827227Y-58433804D01*
X229851495Y-58430204D01*
X229875999Y-58429000D01*
X230576001Y-58429000D01*
X230600505Y-58430204D01*
G37*
%TD*%
D15*
%TO.C,U6003*%
X307950000Y-266695000D03*
X307950000Y-264155000D03*
D16*
X307950000Y-261615000D03*
%TD*%
D17*
%TO.C,U9001*%
X251308000Y-211069000D03*
X253848000Y-211069000D03*
X256388000Y-211069000D03*
X258928000Y-211069000D03*
X248768000Y-211069000D03*
X246228000Y-211069000D03*
X243688000Y-211069000D03*
X261468000Y-211069000D03*
X264008000Y-211069000D03*
X266548000Y-211069000D03*
X269088000Y-211069000D03*
X269088000Y-195829000D03*
X266548000Y-195829000D03*
X264008000Y-195829000D03*
X261468000Y-195829000D03*
X258928000Y-195829000D03*
X256388000Y-195829000D03*
X253848000Y-195829000D03*
X251308000Y-195829000D03*
X248768000Y-195829000D03*
X246228000Y-195829000D03*
X241148000Y-211069000D03*
X238608000Y-211069000D03*
X236068000Y-211069000D03*
X233528000Y-211069000D03*
X230988000Y-211069000D03*
X228448000Y-211069000D03*
X225908000Y-211069000D03*
X223368000Y-211069000D03*
X220828000Y-211069000D03*
X218288000Y-211069000D03*
X215748000Y-211069000D03*
X213208000Y-211069000D03*
D18*
X210668000Y-211069000D03*
D17*
X243688000Y-195829000D03*
X241148000Y-195829000D03*
X238608000Y-195829000D03*
X236068000Y-195829000D03*
X233528000Y-195829000D03*
X230988000Y-195829000D03*
X228448000Y-195829000D03*
X225908000Y-195829000D03*
X223368000Y-195829000D03*
X220828000Y-195829000D03*
X218288000Y-195829000D03*
X215748000Y-195829000D03*
X213208000Y-195829000D03*
X210668000Y-195829000D03*
%TD*%
D19*
%TO.C,J3007*%
X284582000Y-264790000D03*
D20*
X279502000Y-264790000D03*
%TD*%
D10*
%TO.C,R9004*%
G36*
X277320505Y-208973204D02*
G01*
X277344773Y-208976804D01*
X277368572Y-208982765D01*
X277391671Y-208991030D01*
X277413850Y-209001520D01*
X277434893Y-209014132D01*
X277454599Y-209028747D01*
X277472777Y-209045223D01*
X277489253Y-209063401D01*
X277503868Y-209083107D01*
X277516480Y-209104150D01*
X277526970Y-209126329D01*
X277535235Y-209149428D01*
X277541196Y-209173227D01*
X277544796Y-209197495D01*
X277546000Y-209221999D01*
X277546000Y-210122001D01*
X277544796Y-210146505D01*
X277541196Y-210170773D01*
X277535235Y-210194572D01*
X277526970Y-210217671D01*
X277516480Y-210239850D01*
X277503868Y-210260893D01*
X277489253Y-210280599D01*
X277472777Y-210298777D01*
X277454599Y-210315253D01*
X277434893Y-210329868D01*
X277413850Y-210342480D01*
X277391671Y-210352970D01*
X277368572Y-210361235D01*
X277344773Y-210367196D01*
X277320505Y-210370796D01*
X277296001Y-210372000D01*
X276595999Y-210372000D01*
X276571495Y-210370796D01*
X276547227Y-210367196D01*
X276523428Y-210361235D01*
X276500329Y-210352970D01*
X276478150Y-210342480D01*
X276457107Y-210329868D01*
X276437401Y-210315253D01*
X276419223Y-210298777D01*
X276402747Y-210280599D01*
X276388132Y-210260893D01*
X276375520Y-210239850D01*
X276365030Y-210217671D01*
X276356765Y-210194572D01*
X276350804Y-210170773D01*
X276347204Y-210146505D01*
X276346000Y-210122001D01*
X276346000Y-209221999D01*
X276347204Y-209197495D01*
X276350804Y-209173227D01*
X276356765Y-209149428D01*
X276365030Y-209126329D01*
X276375520Y-209104150D01*
X276388132Y-209083107D01*
X276402747Y-209063401D01*
X276419223Y-209045223D01*
X276437401Y-209028747D01*
X276457107Y-209014132D01*
X276478150Y-209001520D01*
X276500329Y-208991030D01*
X276523428Y-208982765D01*
X276547227Y-208976804D01*
X276571495Y-208973204D01*
X276595999Y-208972000D01*
X277296001Y-208972000D01*
X277320505Y-208973204D01*
G37*
G36*
X275320505Y-208973204D02*
G01*
X275344773Y-208976804D01*
X275368572Y-208982765D01*
X275391671Y-208991030D01*
X275413850Y-209001520D01*
X275434893Y-209014132D01*
X275454599Y-209028747D01*
X275472777Y-209045223D01*
X275489253Y-209063401D01*
X275503868Y-209083107D01*
X275516480Y-209104150D01*
X275526970Y-209126329D01*
X275535235Y-209149428D01*
X275541196Y-209173227D01*
X275544796Y-209197495D01*
X275546000Y-209221999D01*
X275546000Y-210122001D01*
X275544796Y-210146505D01*
X275541196Y-210170773D01*
X275535235Y-210194572D01*
X275526970Y-210217671D01*
X275516480Y-210239850D01*
X275503868Y-210260893D01*
X275489253Y-210280599D01*
X275472777Y-210298777D01*
X275454599Y-210315253D01*
X275434893Y-210329868D01*
X275413850Y-210342480D01*
X275391671Y-210352970D01*
X275368572Y-210361235D01*
X275344773Y-210367196D01*
X275320505Y-210370796D01*
X275296001Y-210372000D01*
X274595999Y-210372000D01*
X274571495Y-210370796D01*
X274547227Y-210367196D01*
X274523428Y-210361235D01*
X274500329Y-210352970D01*
X274478150Y-210342480D01*
X274457107Y-210329868D01*
X274437401Y-210315253D01*
X274419223Y-210298777D01*
X274402747Y-210280599D01*
X274388132Y-210260893D01*
X274375520Y-210239850D01*
X274365030Y-210217671D01*
X274356765Y-210194572D01*
X274350804Y-210170773D01*
X274347204Y-210146505D01*
X274346000Y-210122001D01*
X274346000Y-209221999D01*
X274347204Y-209197495D01*
X274350804Y-209173227D01*
X274356765Y-209149428D01*
X274365030Y-209126329D01*
X274375520Y-209104150D01*
X274388132Y-209083107D01*
X274402747Y-209063401D01*
X274419223Y-209045223D01*
X274437401Y-209028747D01*
X274457107Y-209014132D01*
X274478150Y-209001520D01*
X274500329Y-208991030D01*
X274523428Y-208982765D01*
X274547227Y-208976804D01*
X274571495Y-208973204D01*
X274595999Y-208972000D01*
X275296001Y-208972000D01*
X275320505Y-208973204D01*
G37*
%TD*%
%TO.C,R9003*%
G36*
X277320505Y-205925204D02*
G01*
X277344773Y-205928804D01*
X277368572Y-205934765D01*
X277391671Y-205943030D01*
X277413850Y-205953520D01*
X277434893Y-205966132D01*
X277454599Y-205980747D01*
X277472777Y-205997223D01*
X277489253Y-206015401D01*
X277503868Y-206035107D01*
X277516480Y-206056150D01*
X277526970Y-206078329D01*
X277535235Y-206101428D01*
X277541196Y-206125227D01*
X277544796Y-206149495D01*
X277546000Y-206173999D01*
X277546000Y-207074001D01*
X277544796Y-207098505D01*
X277541196Y-207122773D01*
X277535235Y-207146572D01*
X277526970Y-207169671D01*
X277516480Y-207191850D01*
X277503868Y-207212893D01*
X277489253Y-207232599D01*
X277472777Y-207250777D01*
X277454599Y-207267253D01*
X277434893Y-207281868D01*
X277413850Y-207294480D01*
X277391671Y-207304970D01*
X277368572Y-207313235D01*
X277344773Y-207319196D01*
X277320505Y-207322796D01*
X277296001Y-207324000D01*
X276595999Y-207324000D01*
X276571495Y-207322796D01*
X276547227Y-207319196D01*
X276523428Y-207313235D01*
X276500329Y-207304970D01*
X276478150Y-207294480D01*
X276457107Y-207281868D01*
X276437401Y-207267253D01*
X276419223Y-207250777D01*
X276402747Y-207232599D01*
X276388132Y-207212893D01*
X276375520Y-207191850D01*
X276365030Y-207169671D01*
X276356765Y-207146572D01*
X276350804Y-207122773D01*
X276347204Y-207098505D01*
X276346000Y-207074001D01*
X276346000Y-206173999D01*
X276347204Y-206149495D01*
X276350804Y-206125227D01*
X276356765Y-206101428D01*
X276365030Y-206078329D01*
X276375520Y-206056150D01*
X276388132Y-206035107D01*
X276402747Y-206015401D01*
X276419223Y-205997223D01*
X276437401Y-205980747D01*
X276457107Y-205966132D01*
X276478150Y-205953520D01*
X276500329Y-205943030D01*
X276523428Y-205934765D01*
X276547227Y-205928804D01*
X276571495Y-205925204D01*
X276595999Y-205924000D01*
X277296001Y-205924000D01*
X277320505Y-205925204D01*
G37*
G36*
X275320505Y-205925204D02*
G01*
X275344773Y-205928804D01*
X275368572Y-205934765D01*
X275391671Y-205943030D01*
X275413850Y-205953520D01*
X275434893Y-205966132D01*
X275454599Y-205980747D01*
X275472777Y-205997223D01*
X275489253Y-206015401D01*
X275503868Y-206035107D01*
X275516480Y-206056150D01*
X275526970Y-206078329D01*
X275535235Y-206101428D01*
X275541196Y-206125227D01*
X275544796Y-206149495D01*
X275546000Y-206173999D01*
X275546000Y-207074001D01*
X275544796Y-207098505D01*
X275541196Y-207122773D01*
X275535235Y-207146572D01*
X275526970Y-207169671D01*
X275516480Y-207191850D01*
X275503868Y-207212893D01*
X275489253Y-207232599D01*
X275472777Y-207250777D01*
X275454599Y-207267253D01*
X275434893Y-207281868D01*
X275413850Y-207294480D01*
X275391671Y-207304970D01*
X275368572Y-207313235D01*
X275344773Y-207319196D01*
X275320505Y-207322796D01*
X275296001Y-207324000D01*
X274595999Y-207324000D01*
X274571495Y-207322796D01*
X274547227Y-207319196D01*
X274523428Y-207313235D01*
X274500329Y-207304970D01*
X274478150Y-207294480D01*
X274457107Y-207281868D01*
X274437401Y-207267253D01*
X274419223Y-207250777D01*
X274402747Y-207232599D01*
X274388132Y-207212893D01*
X274375520Y-207191850D01*
X274365030Y-207169671D01*
X274356765Y-207146572D01*
X274350804Y-207122773D01*
X274347204Y-207098505D01*
X274346000Y-207074001D01*
X274346000Y-206173999D01*
X274347204Y-206149495D01*
X274350804Y-206125227D01*
X274356765Y-206101428D01*
X274365030Y-206078329D01*
X274375520Y-206056150D01*
X274388132Y-206035107D01*
X274402747Y-206015401D01*
X274419223Y-205997223D01*
X274437401Y-205980747D01*
X274457107Y-205966132D01*
X274478150Y-205953520D01*
X274500329Y-205943030D01*
X274523428Y-205934765D01*
X274547227Y-205928804D01*
X274571495Y-205925204D01*
X274595999Y-205924000D01*
X275296001Y-205924000D01*
X275320505Y-205925204D01*
G37*
%TD*%
%TO.C,R9002*%
G36*
X277320505Y-202877204D02*
G01*
X277344773Y-202880804D01*
X277368572Y-202886765D01*
X277391671Y-202895030D01*
X277413850Y-202905520D01*
X277434893Y-202918132D01*
X277454599Y-202932747D01*
X277472777Y-202949223D01*
X277489253Y-202967401D01*
X277503868Y-202987107D01*
X277516480Y-203008150D01*
X277526970Y-203030329D01*
X277535235Y-203053428D01*
X277541196Y-203077227D01*
X277544796Y-203101495D01*
X277546000Y-203125999D01*
X277546000Y-204026001D01*
X277544796Y-204050505D01*
X277541196Y-204074773D01*
X277535235Y-204098572D01*
X277526970Y-204121671D01*
X277516480Y-204143850D01*
X277503868Y-204164893D01*
X277489253Y-204184599D01*
X277472777Y-204202777D01*
X277454599Y-204219253D01*
X277434893Y-204233868D01*
X277413850Y-204246480D01*
X277391671Y-204256970D01*
X277368572Y-204265235D01*
X277344773Y-204271196D01*
X277320505Y-204274796D01*
X277296001Y-204276000D01*
X276595999Y-204276000D01*
X276571495Y-204274796D01*
X276547227Y-204271196D01*
X276523428Y-204265235D01*
X276500329Y-204256970D01*
X276478150Y-204246480D01*
X276457107Y-204233868D01*
X276437401Y-204219253D01*
X276419223Y-204202777D01*
X276402747Y-204184599D01*
X276388132Y-204164893D01*
X276375520Y-204143850D01*
X276365030Y-204121671D01*
X276356765Y-204098572D01*
X276350804Y-204074773D01*
X276347204Y-204050505D01*
X276346000Y-204026001D01*
X276346000Y-203125999D01*
X276347204Y-203101495D01*
X276350804Y-203077227D01*
X276356765Y-203053428D01*
X276365030Y-203030329D01*
X276375520Y-203008150D01*
X276388132Y-202987107D01*
X276402747Y-202967401D01*
X276419223Y-202949223D01*
X276437401Y-202932747D01*
X276457107Y-202918132D01*
X276478150Y-202905520D01*
X276500329Y-202895030D01*
X276523428Y-202886765D01*
X276547227Y-202880804D01*
X276571495Y-202877204D01*
X276595999Y-202876000D01*
X277296001Y-202876000D01*
X277320505Y-202877204D01*
G37*
G36*
X275320505Y-202877204D02*
G01*
X275344773Y-202880804D01*
X275368572Y-202886765D01*
X275391671Y-202895030D01*
X275413850Y-202905520D01*
X275434893Y-202918132D01*
X275454599Y-202932747D01*
X275472777Y-202949223D01*
X275489253Y-202967401D01*
X275503868Y-202987107D01*
X275516480Y-203008150D01*
X275526970Y-203030329D01*
X275535235Y-203053428D01*
X275541196Y-203077227D01*
X275544796Y-203101495D01*
X275546000Y-203125999D01*
X275546000Y-204026001D01*
X275544796Y-204050505D01*
X275541196Y-204074773D01*
X275535235Y-204098572D01*
X275526970Y-204121671D01*
X275516480Y-204143850D01*
X275503868Y-204164893D01*
X275489253Y-204184599D01*
X275472777Y-204202777D01*
X275454599Y-204219253D01*
X275434893Y-204233868D01*
X275413850Y-204246480D01*
X275391671Y-204256970D01*
X275368572Y-204265235D01*
X275344773Y-204271196D01*
X275320505Y-204274796D01*
X275296001Y-204276000D01*
X274595999Y-204276000D01*
X274571495Y-204274796D01*
X274547227Y-204271196D01*
X274523428Y-204265235D01*
X274500329Y-204256970D01*
X274478150Y-204246480D01*
X274457107Y-204233868D01*
X274437401Y-204219253D01*
X274419223Y-204202777D01*
X274402747Y-204184599D01*
X274388132Y-204164893D01*
X274375520Y-204143850D01*
X274365030Y-204121671D01*
X274356765Y-204098572D01*
X274350804Y-204074773D01*
X274347204Y-204050505D01*
X274346000Y-204026001D01*
X274346000Y-203125999D01*
X274347204Y-203101495D01*
X274350804Y-203077227D01*
X274356765Y-203053428D01*
X274365030Y-203030329D01*
X274375520Y-203008150D01*
X274388132Y-202987107D01*
X274402747Y-202967401D01*
X274419223Y-202949223D01*
X274437401Y-202932747D01*
X274457107Y-202918132D01*
X274478150Y-202905520D01*
X274500329Y-202895030D01*
X274523428Y-202886765D01*
X274547227Y-202880804D01*
X274571495Y-202877204D01*
X274595999Y-202876000D01*
X275296001Y-202876000D01*
X275320505Y-202877204D01*
G37*
%TD*%
%TO.C,R9001*%
G36*
X277320505Y-199829204D02*
G01*
X277344773Y-199832804D01*
X277368572Y-199838765D01*
X277391671Y-199847030D01*
X277413850Y-199857520D01*
X277434893Y-199870132D01*
X277454599Y-199884747D01*
X277472777Y-199901223D01*
X277489253Y-199919401D01*
X277503868Y-199939107D01*
X277516480Y-199960150D01*
X277526970Y-199982329D01*
X277535235Y-200005428D01*
X277541196Y-200029227D01*
X277544796Y-200053495D01*
X277546000Y-200077999D01*
X277546000Y-200978001D01*
X277544796Y-201002505D01*
X277541196Y-201026773D01*
X277535235Y-201050572D01*
X277526970Y-201073671D01*
X277516480Y-201095850D01*
X277503868Y-201116893D01*
X277489253Y-201136599D01*
X277472777Y-201154777D01*
X277454599Y-201171253D01*
X277434893Y-201185868D01*
X277413850Y-201198480D01*
X277391671Y-201208970D01*
X277368572Y-201217235D01*
X277344773Y-201223196D01*
X277320505Y-201226796D01*
X277296001Y-201228000D01*
X276595999Y-201228000D01*
X276571495Y-201226796D01*
X276547227Y-201223196D01*
X276523428Y-201217235D01*
X276500329Y-201208970D01*
X276478150Y-201198480D01*
X276457107Y-201185868D01*
X276437401Y-201171253D01*
X276419223Y-201154777D01*
X276402747Y-201136599D01*
X276388132Y-201116893D01*
X276375520Y-201095850D01*
X276365030Y-201073671D01*
X276356765Y-201050572D01*
X276350804Y-201026773D01*
X276347204Y-201002505D01*
X276346000Y-200978001D01*
X276346000Y-200077999D01*
X276347204Y-200053495D01*
X276350804Y-200029227D01*
X276356765Y-200005428D01*
X276365030Y-199982329D01*
X276375520Y-199960150D01*
X276388132Y-199939107D01*
X276402747Y-199919401D01*
X276419223Y-199901223D01*
X276437401Y-199884747D01*
X276457107Y-199870132D01*
X276478150Y-199857520D01*
X276500329Y-199847030D01*
X276523428Y-199838765D01*
X276547227Y-199832804D01*
X276571495Y-199829204D01*
X276595999Y-199828000D01*
X277296001Y-199828000D01*
X277320505Y-199829204D01*
G37*
G36*
X275320505Y-199829204D02*
G01*
X275344773Y-199832804D01*
X275368572Y-199838765D01*
X275391671Y-199847030D01*
X275413850Y-199857520D01*
X275434893Y-199870132D01*
X275454599Y-199884747D01*
X275472777Y-199901223D01*
X275489253Y-199919401D01*
X275503868Y-199939107D01*
X275516480Y-199960150D01*
X275526970Y-199982329D01*
X275535235Y-200005428D01*
X275541196Y-200029227D01*
X275544796Y-200053495D01*
X275546000Y-200077999D01*
X275546000Y-200978001D01*
X275544796Y-201002505D01*
X275541196Y-201026773D01*
X275535235Y-201050572D01*
X275526970Y-201073671D01*
X275516480Y-201095850D01*
X275503868Y-201116893D01*
X275489253Y-201136599D01*
X275472777Y-201154777D01*
X275454599Y-201171253D01*
X275434893Y-201185868D01*
X275413850Y-201198480D01*
X275391671Y-201208970D01*
X275368572Y-201217235D01*
X275344773Y-201223196D01*
X275320505Y-201226796D01*
X275296001Y-201228000D01*
X274595999Y-201228000D01*
X274571495Y-201226796D01*
X274547227Y-201223196D01*
X274523428Y-201217235D01*
X274500329Y-201208970D01*
X274478150Y-201198480D01*
X274457107Y-201185868D01*
X274437401Y-201171253D01*
X274419223Y-201154777D01*
X274402747Y-201136599D01*
X274388132Y-201116893D01*
X274375520Y-201095850D01*
X274365030Y-201073671D01*
X274356765Y-201050572D01*
X274350804Y-201026773D01*
X274347204Y-201002505D01*
X274346000Y-200978001D01*
X274346000Y-200077999D01*
X274347204Y-200053495D01*
X274350804Y-200029227D01*
X274356765Y-200005428D01*
X274365030Y-199982329D01*
X274375520Y-199960150D01*
X274388132Y-199939107D01*
X274402747Y-199919401D01*
X274419223Y-199901223D01*
X274437401Y-199884747D01*
X274457107Y-199870132D01*
X274478150Y-199857520D01*
X274500329Y-199847030D01*
X274523428Y-199838765D01*
X274547227Y-199832804D01*
X274571495Y-199829204D01*
X274595999Y-199828000D01*
X275296001Y-199828000D01*
X275320505Y-199829204D01*
G37*
%TD*%
%TO.C,R4004*%
G36*
X277574505Y-247835204D02*
G01*
X277598773Y-247838804D01*
X277622572Y-247844765D01*
X277645671Y-247853030D01*
X277667850Y-247863520D01*
X277688893Y-247876132D01*
X277708599Y-247890747D01*
X277726777Y-247907223D01*
X277743253Y-247925401D01*
X277757868Y-247945107D01*
X277770480Y-247966150D01*
X277780970Y-247988329D01*
X277789235Y-248011428D01*
X277795196Y-248035227D01*
X277798796Y-248059495D01*
X277800000Y-248083999D01*
X277800000Y-248984001D01*
X277798796Y-249008505D01*
X277795196Y-249032773D01*
X277789235Y-249056572D01*
X277780970Y-249079671D01*
X277770480Y-249101850D01*
X277757868Y-249122893D01*
X277743253Y-249142599D01*
X277726777Y-249160777D01*
X277708599Y-249177253D01*
X277688893Y-249191868D01*
X277667850Y-249204480D01*
X277645671Y-249214970D01*
X277622572Y-249223235D01*
X277598773Y-249229196D01*
X277574505Y-249232796D01*
X277550001Y-249234000D01*
X276849999Y-249234000D01*
X276825495Y-249232796D01*
X276801227Y-249229196D01*
X276777428Y-249223235D01*
X276754329Y-249214970D01*
X276732150Y-249204480D01*
X276711107Y-249191868D01*
X276691401Y-249177253D01*
X276673223Y-249160777D01*
X276656747Y-249142599D01*
X276642132Y-249122893D01*
X276629520Y-249101850D01*
X276619030Y-249079671D01*
X276610765Y-249056572D01*
X276604804Y-249032773D01*
X276601204Y-249008505D01*
X276600000Y-248984001D01*
X276600000Y-248083999D01*
X276601204Y-248059495D01*
X276604804Y-248035227D01*
X276610765Y-248011428D01*
X276619030Y-247988329D01*
X276629520Y-247966150D01*
X276642132Y-247945107D01*
X276656747Y-247925401D01*
X276673223Y-247907223D01*
X276691401Y-247890747D01*
X276711107Y-247876132D01*
X276732150Y-247863520D01*
X276754329Y-247853030D01*
X276777428Y-247844765D01*
X276801227Y-247838804D01*
X276825495Y-247835204D01*
X276849999Y-247834000D01*
X277550001Y-247834000D01*
X277574505Y-247835204D01*
G37*
G36*
X275574505Y-247835204D02*
G01*
X275598773Y-247838804D01*
X275622572Y-247844765D01*
X275645671Y-247853030D01*
X275667850Y-247863520D01*
X275688893Y-247876132D01*
X275708599Y-247890747D01*
X275726777Y-247907223D01*
X275743253Y-247925401D01*
X275757868Y-247945107D01*
X275770480Y-247966150D01*
X275780970Y-247988329D01*
X275789235Y-248011428D01*
X275795196Y-248035227D01*
X275798796Y-248059495D01*
X275800000Y-248083999D01*
X275800000Y-248984001D01*
X275798796Y-249008505D01*
X275795196Y-249032773D01*
X275789235Y-249056572D01*
X275780970Y-249079671D01*
X275770480Y-249101850D01*
X275757868Y-249122893D01*
X275743253Y-249142599D01*
X275726777Y-249160777D01*
X275708599Y-249177253D01*
X275688893Y-249191868D01*
X275667850Y-249204480D01*
X275645671Y-249214970D01*
X275622572Y-249223235D01*
X275598773Y-249229196D01*
X275574505Y-249232796D01*
X275550001Y-249234000D01*
X274849999Y-249234000D01*
X274825495Y-249232796D01*
X274801227Y-249229196D01*
X274777428Y-249223235D01*
X274754329Y-249214970D01*
X274732150Y-249204480D01*
X274711107Y-249191868D01*
X274691401Y-249177253D01*
X274673223Y-249160777D01*
X274656747Y-249142599D01*
X274642132Y-249122893D01*
X274629520Y-249101850D01*
X274619030Y-249079671D01*
X274610765Y-249056572D01*
X274604804Y-249032773D01*
X274601204Y-249008505D01*
X274600000Y-248984001D01*
X274600000Y-248083999D01*
X274601204Y-248059495D01*
X274604804Y-248035227D01*
X274610765Y-248011428D01*
X274619030Y-247988329D01*
X274629520Y-247966150D01*
X274642132Y-247945107D01*
X274656747Y-247925401D01*
X274673223Y-247907223D01*
X274691401Y-247890747D01*
X274711107Y-247876132D01*
X274732150Y-247863520D01*
X274754329Y-247853030D01*
X274777428Y-247844765D01*
X274801227Y-247838804D01*
X274825495Y-247835204D01*
X274849999Y-247834000D01*
X275550001Y-247834000D01*
X275574505Y-247835204D01*
G37*
%TD*%
%TO.C,R4003*%
G36*
X277574505Y-244787204D02*
G01*
X277598773Y-244790804D01*
X277622572Y-244796765D01*
X277645671Y-244805030D01*
X277667850Y-244815520D01*
X277688893Y-244828132D01*
X277708599Y-244842747D01*
X277726777Y-244859223D01*
X277743253Y-244877401D01*
X277757868Y-244897107D01*
X277770480Y-244918150D01*
X277780970Y-244940329D01*
X277789235Y-244963428D01*
X277795196Y-244987227D01*
X277798796Y-245011495D01*
X277800000Y-245035999D01*
X277800000Y-245936001D01*
X277798796Y-245960505D01*
X277795196Y-245984773D01*
X277789235Y-246008572D01*
X277780970Y-246031671D01*
X277770480Y-246053850D01*
X277757868Y-246074893D01*
X277743253Y-246094599D01*
X277726777Y-246112777D01*
X277708599Y-246129253D01*
X277688893Y-246143868D01*
X277667850Y-246156480D01*
X277645671Y-246166970D01*
X277622572Y-246175235D01*
X277598773Y-246181196D01*
X277574505Y-246184796D01*
X277550001Y-246186000D01*
X276849999Y-246186000D01*
X276825495Y-246184796D01*
X276801227Y-246181196D01*
X276777428Y-246175235D01*
X276754329Y-246166970D01*
X276732150Y-246156480D01*
X276711107Y-246143868D01*
X276691401Y-246129253D01*
X276673223Y-246112777D01*
X276656747Y-246094599D01*
X276642132Y-246074893D01*
X276629520Y-246053850D01*
X276619030Y-246031671D01*
X276610765Y-246008572D01*
X276604804Y-245984773D01*
X276601204Y-245960505D01*
X276600000Y-245936001D01*
X276600000Y-245035999D01*
X276601204Y-245011495D01*
X276604804Y-244987227D01*
X276610765Y-244963428D01*
X276619030Y-244940329D01*
X276629520Y-244918150D01*
X276642132Y-244897107D01*
X276656747Y-244877401D01*
X276673223Y-244859223D01*
X276691401Y-244842747D01*
X276711107Y-244828132D01*
X276732150Y-244815520D01*
X276754329Y-244805030D01*
X276777428Y-244796765D01*
X276801227Y-244790804D01*
X276825495Y-244787204D01*
X276849999Y-244786000D01*
X277550001Y-244786000D01*
X277574505Y-244787204D01*
G37*
G36*
X275574505Y-244787204D02*
G01*
X275598773Y-244790804D01*
X275622572Y-244796765D01*
X275645671Y-244805030D01*
X275667850Y-244815520D01*
X275688893Y-244828132D01*
X275708599Y-244842747D01*
X275726777Y-244859223D01*
X275743253Y-244877401D01*
X275757868Y-244897107D01*
X275770480Y-244918150D01*
X275780970Y-244940329D01*
X275789235Y-244963428D01*
X275795196Y-244987227D01*
X275798796Y-245011495D01*
X275800000Y-245035999D01*
X275800000Y-245936001D01*
X275798796Y-245960505D01*
X275795196Y-245984773D01*
X275789235Y-246008572D01*
X275780970Y-246031671D01*
X275770480Y-246053850D01*
X275757868Y-246074893D01*
X275743253Y-246094599D01*
X275726777Y-246112777D01*
X275708599Y-246129253D01*
X275688893Y-246143868D01*
X275667850Y-246156480D01*
X275645671Y-246166970D01*
X275622572Y-246175235D01*
X275598773Y-246181196D01*
X275574505Y-246184796D01*
X275550001Y-246186000D01*
X274849999Y-246186000D01*
X274825495Y-246184796D01*
X274801227Y-246181196D01*
X274777428Y-246175235D01*
X274754329Y-246166970D01*
X274732150Y-246156480D01*
X274711107Y-246143868D01*
X274691401Y-246129253D01*
X274673223Y-246112777D01*
X274656747Y-246094599D01*
X274642132Y-246074893D01*
X274629520Y-246053850D01*
X274619030Y-246031671D01*
X274610765Y-246008572D01*
X274604804Y-245984773D01*
X274601204Y-245960505D01*
X274600000Y-245936001D01*
X274600000Y-245035999D01*
X274601204Y-245011495D01*
X274604804Y-244987227D01*
X274610765Y-244963428D01*
X274619030Y-244940329D01*
X274629520Y-244918150D01*
X274642132Y-244897107D01*
X274656747Y-244877401D01*
X274673223Y-244859223D01*
X274691401Y-244842747D01*
X274711107Y-244828132D01*
X274732150Y-244815520D01*
X274754329Y-244805030D01*
X274777428Y-244796765D01*
X274801227Y-244790804D01*
X274825495Y-244787204D01*
X274849999Y-244786000D01*
X275550001Y-244786000D01*
X275574505Y-244787204D01*
G37*
%TD*%
%TO.C,R4002*%
G36*
X277574505Y-241993204D02*
G01*
X277598773Y-241996804D01*
X277622572Y-242002765D01*
X277645671Y-242011030D01*
X277667850Y-242021520D01*
X277688893Y-242034132D01*
X277708599Y-242048747D01*
X277726777Y-242065223D01*
X277743253Y-242083401D01*
X277757868Y-242103107D01*
X277770480Y-242124150D01*
X277780970Y-242146329D01*
X277789235Y-242169428D01*
X277795196Y-242193227D01*
X277798796Y-242217495D01*
X277800000Y-242241999D01*
X277800000Y-243142001D01*
X277798796Y-243166505D01*
X277795196Y-243190773D01*
X277789235Y-243214572D01*
X277780970Y-243237671D01*
X277770480Y-243259850D01*
X277757868Y-243280893D01*
X277743253Y-243300599D01*
X277726777Y-243318777D01*
X277708599Y-243335253D01*
X277688893Y-243349868D01*
X277667850Y-243362480D01*
X277645671Y-243372970D01*
X277622572Y-243381235D01*
X277598773Y-243387196D01*
X277574505Y-243390796D01*
X277550001Y-243392000D01*
X276849999Y-243392000D01*
X276825495Y-243390796D01*
X276801227Y-243387196D01*
X276777428Y-243381235D01*
X276754329Y-243372970D01*
X276732150Y-243362480D01*
X276711107Y-243349868D01*
X276691401Y-243335253D01*
X276673223Y-243318777D01*
X276656747Y-243300599D01*
X276642132Y-243280893D01*
X276629520Y-243259850D01*
X276619030Y-243237671D01*
X276610765Y-243214572D01*
X276604804Y-243190773D01*
X276601204Y-243166505D01*
X276600000Y-243142001D01*
X276600000Y-242241999D01*
X276601204Y-242217495D01*
X276604804Y-242193227D01*
X276610765Y-242169428D01*
X276619030Y-242146329D01*
X276629520Y-242124150D01*
X276642132Y-242103107D01*
X276656747Y-242083401D01*
X276673223Y-242065223D01*
X276691401Y-242048747D01*
X276711107Y-242034132D01*
X276732150Y-242021520D01*
X276754329Y-242011030D01*
X276777428Y-242002765D01*
X276801227Y-241996804D01*
X276825495Y-241993204D01*
X276849999Y-241992000D01*
X277550001Y-241992000D01*
X277574505Y-241993204D01*
G37*
G36*
X275574505Y-241993204D02*
G01*
X275598773Y-241996804D01*
X275622572Y-242002765D01*
X275645671Y-242011030D01*
X275667850Y-242021520D01*
X275688893Y-242034132D01*
X275708599Y-242048747D01*
X275726777Y-242065223D01*
X275743253Y-242083401D01*
X275757868Y-242103107D01*
X275770480Y-242124150D01*
X275780970Y-242146329D01*
X275789235Y-242169428D01*
X275795196Y-242193227D01*
X275798796Y-242217495D01*
X275800000Y-242241999D01*
X275800000Y-243142001D01*
X275798796Y-243166505D01*
X275795196Y-243190773D01*
X275789235Y-243214572D01*
X275780970Y-243237671D01*
X275770480Y-243259850D01*
X275757868Y-243280893D01*
X275743253Y-243300599D01*
X275726777Y-243318777D01*
X275708599Y-243335253D01*
X275688893Y-243349868D01*
X275667850Y-243362480D01*
X275645671Y-243372970D01*
X275622572Y-243381235D01*
X275598773Y-243387196D01*
X275574505Y-243390796D01*
X275550001Y-243392000D01*
X274849999Y-243392000D01*
X274825495Y-243390796D01*
X274801227Y-243387196D01*
X274777428Y-243381235D01*
X274754329Y-243372970D01*
X274732150Y-243362480D01*
X274711107Y-243349868D01*
X274691401Y-243335253D01*
X274673223Y-243318777D01*
X274656747Y-243300599D01*
X274642132Y-243280893D01*
X274629520Y-243259850D01*
X274619030Y-243237671D01*
X274610765Y-243214572D01*
X274604804Y-243190773D01*
X274601204Y-243166505D01*
X274600000Y-243142001D01*
X274600000Y-242241999D01*
X274601204Y-242217495D01*
X274604804Y-242193227D01*
X274610765Y-242169428D01*
X274619030Y-242146329D01*
X274629520Y-242124150D01*
X274642132Y-242103107D01*
X274656747Y-242083401D01*
X274673223Y-242065223D01*
X274691401Y-242048747D01*
X274711107Y-242034132D01*
X274732150Y-242021520D01*
X274754329Y-242011030D01*
X274777428Y-242002765D01*
X274801227Y-241996804D01*
X274825495Y-241993204D01*
X274849999Y-241992000D01*
X275550001Y-241992000D01*
X275574505Y-241993204D01*
G37*
%TD*%
%TO.C,R4001*%
G36*
X277574505Y-238945204D02*
G01*
X277598773Y-238948804D01*
X277622572Y-238954765D01*
X277645671Y-238963030D01*
X277667850Y-238973520D01*
X277688893Y-238986132D01*
X277708599Y-239000747D01*
X277726777Y-239017223D01*
X277743253Y-239035401D01*
X277757868Y-239055107D01*
X277770480Y-239076150D01*
X277780970Y-239098329D01*
X277789235Y-239121428D01*
X277795196Y-239145227D01*
X277798796Y-239169495D01*
X277800000Y-239193999D01*
X277800000Y-240094001D01*
X277798796Y-240118505D01*
X277795196Y-240142773D01*
X277789235Y-240166572D01*
X277780970Y-240189671D01*
X277770480Y-240211850D01*
X277757868Y-240232893D01*
X277743253Y-240252599D01*
X277726777Y-240270777D01*
X277708599Y-240287253D01*
X277688893Y-240301868D01*
X277667850Y-240314480D01*
X277645671Y-240324970D01*
X277622572Y-240333235D01*
X277598773Y-240339196D01*
X277574505Y-240342796D01*
X277550001Y-240344000D01*
X276849999Y-240344000D01*
X276825495Y-240342796D01*
X276801227Y-240339196D01*
X276777428Y-240333235D01*
X276754329Y-240324970D01*
X276732150Y-240314480D01*
X276711107Y-240301868D01*
X276691401Y-240287253D01*
X276673223Y-240270777D01*
X276656747Y-240252599D01*
X276642132Y-240232893D01*
X276629520Y-240211850D01*
X276619030Y-240189671D01*
X276610765Y-240166572D01*
X276604804Y-240142773D01*
X276601204Y-240118505D01*
X276600000Y-240094001D01*
X276600000Y-239193999D01*
X276601204Y-239169495D01*
X276604804Y-239145227D01*
X276610765Y-239121428D01*
X276619030Y-239098329D01*
X276629520Y-239076150D01*
X276642132Y-239055107D01*
X276656747Y-239035401D01*
X276673223Y-239017223D01*
X276691401Y-239000747D01*
X276711107Y-238986132D01*
X276732150Y-238973520D01*
X276754329Y-238963030D01*
X276777428Y-238954765D01*
X276801227Y-238948804D01*
X276825495Y-238945204D01*
X276849999Y-238944000D01*
X277550001Y-238944000D01*
X277574505Y-238945204D01*
G37*
G36*
X275574505Y-238945204D02*
G01*
X275598773Y-238948804D01*
X275622572Y-238954765D01*
X275645671Y-238963030D01*
X275667850Y-238973520D01*
X275688893Y-238986132D01*
X275708599Y-239000747D01*
X275726777Y-239017223D01*
X275743253Y-239035401D01*
X275757868Y-239055107D01*
X275770480Y-239076150D01*
X275780970Y-239098329D01*
X275789235Y-239121428D01*
X275795196Y-239145227D01*
X275798796Y-239169495D01*
X275800000Y-239193999D01*
X275800000Y-240094001D01*
X275798796Y-240118505D01*
X275795196Y-240142773D01*
X275789235Y-240166572D01*
X275780970Y-240189671D01*
X275770480Y-240211850D01*
X275757868Y-240232893D01*
X275743253Y-240252599D01*
X275726777Y-240270777D01*
X275708599Y-240287253D01*
X275688893Y-240301868D01*
X275667850Y-240314480D01*
X275645671Y-240324970D01*
X275622572Y-240333235D01*
X275598773Y-240339196D01*
X275574505Y-240342796D01*
X275550001Y-240344000D01*
X274849999Y-240344000D01*
X274825495Y-240342796D01*
X274801227Y-240339196D01*
X274777428Y-240333235D01*
X274754329Y-240324970D01*
X274732150Y-240314480D01*
X274711107Y-240301868D01*
X274691401Y-240287253D01*
X274673223Y-240270777D01*
X274656747Y-240252599D01*
X274642132Y-240232893D01*
X274629520Y-240211850D01*
X274619030Y-240189671D01*
X274610765Y-240166572D01*
X274604804Y-240142773D01*
X274601204Y-240118505D01*
X274600000Y-240094001D01*
X274600000Y-239193999D01*
X274601204Y-239169495D01*
X274604804Y-239145227D01*
X274610765Y-239121428D01*
X274619030Y-239098329D01*
X274629520Y-239076150D01*
X274642132Y-239055107D01*
X274656747Y-239035401D01*
X274673223Y-239017223D01*
X274691401Y-239000747D01*
X274711107Y-238986132D01*
X274732150Y-238973520D01*
X274754329Y-238963030D01*
X274777428Y-238954765D01*
X274801227Y-238948804D01*
X274825495Y-238945204D01*
X274849999Y-238944000D01*
X275550001Y-238944000D01*
X275574505Y-238945204D01*
G37*
%TD*%
%TO.C,JP6*%
G36*
X213343000Y-173743000D02*
G01*
X213843000Y-173743000D01*
X213843000Y-173743602D01*
X213867534Y-173743602D01*
X213916365Y-173748412D01*
X213964490Y-173757984D01*
X214011445Y-173772228D01*
X214056778Y-173791005D01*
X214100051Y-173814136D01*
X214140850Y-173841396D01*
X214178779Y-173872524D01*
X214213476Y-173907221D01*
X214244604Y-173945150D01*
X214271864Y-173985949D01*
X214294995Y-174029222D01*
X214313772Y-174074555D01*
X214328016Y-174121510D01*
X214337588Y-174169635D01*
X214342398Y-174218466D01*
X214342398Y-174243000D01*
X214343000Y-174243000D01*
X214343000Y-174743000D01*
X214342398Y-174743000D01*
X214342398Y-174767534D01*
X214337588Y-174816365D01*
X214328016Y-174864490D01*
X214313772Y-174911445D01*
X214294995Y-174956778D01*
X214271864Y-175000051D01*
X214244604Y-175040850D01*
X214213476Y-175078779D01*
X214178779Y-175113476D01*
X214140850Y-175144604D01*
X214100051Y-175171864D01*
X214056778Y-175194995D01*
X214011445Y-175213772D01*
X213964490Y-175228016D01*
X213916365Y-175237588D01*
X213867534Y-175242398D01*
X213843000Y-175242398D01*
X213843000Y-175243000D01*
X213343000Y-175243000D01*
X213343000Y-173743000D01*
G37*
G36*
X212543000Y-175242398D02*
G01*
X212518466Y-175242398D01*
X212469635Y-175237588D01*
X212421510Y-175228016D01*
X212374555Y-175213772D01*
X212329222Y-175194995D01*
X212285949Y-175171864D01*
X212245150Y-175144604D01*
X212207221Y-175113476D01*
X212172524Y-175078779D01*
X212141396Y-175040850D01*
X212114136Y-175000051D01*
X212091005Y-174956778D01*
X212072228Y-174911445D01*
X212057984Y-174864490D01*
X212048412Y-174816365D01*
X212043602Y-174767534D01*
X212043602Y-174743000D01*
X212043000Y-174743000D01*
X212043000Y-174243000D01*
X212043602Y-174243000D01*
X212043602Y-174218466D01*
X212048412Y-174169635D01*
X212057984Y-174121510D01*
X212072228Y-174074555D01*
X212091005Y-174029222D01*
X212114136Y-173985949D01*
X212141396Y-173945150D01*
X212172524Y-173907221D01*
X212207221Y-173872524D01*
X212245150Y-173841396D01*
X212285949Y-173814136D01*
X212329222Y-173791005D01*
X212374555Y-173772228D01*
X212421510Y-173757984D01*
X212469635Y-173748412D01*
X212518466Y-173743602D01*
X212543000Y-173743602D01*
X212543000Y-173743000D01*
X213043000Y-173743000D01*
X213043000Y-175243000D01*
X212543000Y-175243000D01*
X212543000Y-175242398D01*
G37*
%TD*%
%TO.C,JP5*%
G36*
X225565000Y-216034000D02*
G01*
X226065000Y-216034000D01*
X226065000Y-216034602D01*
X226089534Y-216034602D01*
X226138365Y-216039412D01*
X226186490Y-216048984D01*
X226233445Y-216063228D01*
X226278778Y-216082005D01*
X226322051Y-216105136D01*
X226362850Y-216132396D01*
X226400779Y-216163524D01*
X226435476Y-216198221D01*
X226466604Y-216236150D01*
X226493864Y-216276949D01*
X226516995Y-216320222D01*
X226535772Y-216365555D01*
X226550016Y-216412510D01*
X226559588Y-216460635D01*
X226564398Y-216509466D01*
X226564398Y-216534000D01*
X226565000Y-216534000D01*
X226565000Y-217034000D01*
X226564398Y-217034000D01*
X226564398Y-217058534D01*
X226559588Y-217107365D01*
X226550016Y-217155490D01*
X226535772Y-217202445D01*
X226516995Y-217247778D01*
X226493864Y-217291051D01*
X226466604Y-217331850D01*
X226435476Y-217369779D01*
X226400779Y-217404476D01*
X226362850Y-217435604D01*
X226322051Y-217462864D01*
X226278778Y-217485995D01*
X226233445Y-217504772D01*
X226186490Y-217519016D01*
X226138365Y-217528588D01*
X226089534Y-217533398D01*
X226065000Y-217533398D01*
X226065000Y-217534000D01*
X225565000Y-217534000D01*
X225565000Y-216034000D01*
G37*
G36*
X224765000Y-217533398D02*
G01*
X224740466Y-217533398D01*
X224691635Y-217528588D01*
X224643510Y-217519016D01*
X224596555Y-217504772D01*
X224551222Y-217485995D01*
X224507949Y-217462864D01*
X224467150Y-217435604D01*
X224429221Y-217404476D01*
X224394524Y-217369779D01*
X224363396Y-217331850D01*
X224336136Y-217291051D01*
X224313005Y-217247778D01*
X224294228Y-217202445D01*
X224279984Y-217155490D01*
X224270412Y-217107365D01*
X224265602Y-217058534D01*
X224265602Y-217034000D01*
X224265000Y-217034000D01*
X224265000Y-216534000D01*
X224265602Y-216534000D01*
X224265602Y-216509466D01*
X224270412Y-216460635D01*
X224279984Y-216412510D01*
X224294228Y-216365555D01*
X224313005Y-216320222D01*
X224336136Y-216276949D01*
X224363396Y-216236150D01*
X224394524Y-216198221D01*
X224429221Y-216163524D01*
X224467150Y-216132396D01*
X224507949Y-216105136D01*
X224551222Y-216082005D01*
X224596555Y-216063228D01*
X224643510Y-216048984D01*
X224691635Y-216039412D01*
X224740466Y-216034602D01*
X224765000Y-216034602D01*
X224765000Y-216034000D01*
X225265000Y-216034000D01*
X225265000Y-217534000D01*
X224765000Y-217534000D01*
X224765000Y-217533398D01*
G37*
%TD*%
%TO.C,JP4*%
G36*
X235979000Y-216034000D02*
G01*
X236479000Y-216034000D01*
X236479000Y-216034602D01*
X236503534Y-216034602D01*
X236552365Y-216039412D01*
X236600490Y-216048984D01*
X236647445Y-216063228D01*
X236692778Y-216082005D01*
X236736051Y-216105136D01*
X236776850Y-216132396D01*
X236814779Y-216163524D01*
X236849476Y-216198221D01*
X236880604Y-216236150D01*
X236907864Y-216276949D01*
X236930995Y-216320222D01*
X236949772Y-216365555D01*
X236964016Y-216412510D01*
X236973588Y-216460635D01*
X236978398Y-216509466D01*
X236978398Y-216534000D01*
X236979000Y-216534000D01*
X236979000Y-217034000D01*
X236978398Y-217034000D01*
X236978398Y-217058534D01*
X236973588Y-217107365D01*
X236964016Y-217155490D01*
X236949772Y-217202445D01*
X236930995Y-217247778D01*
X236907864Y-217291051D01*
X236880604Y-217331850D01*
X236849476Y-217369779D01*
X236814779Y-217404476D01*
X236776850Y-217435604D01*
X236736051Y-217462864D01*
X236692778Y-217485995D01*
X236647445Y-217504772D01*
X236600490Y-217519016D01*
X236552365Y-217528588D01*
X236503534Y-217533398D01*
X236479000Y-217533398D01*
X236479000Y-217534000D01*
X235979000Y-217534000D01*
X235979000Y-216034000D01*
G37*
G36*
X235179000Y-217533398D02*
G01*
X235154466Y-217533398D01*
X235105635Y-217528588D01*
X235057510Y-217519016D01*
X235010555Y-217504772D01*
X234965222Y-217485995D01*
X234921949Y-217462864D01*
X234881150Y-217435604D01*
X234843221Y-217404476D01*
X234808524Y-217369779D01*
X234777396Y-217331850D01*
X234750136Y-217291051D01*
X234727005Y-217247778D01*
X234708228Y-217202445D01*
X234693984Y-217155490D01*
X234684412Y-217107365D01*
X234679602Y-217058534D01*
X234679602Y-217034000D01*
X234679000Y-217034000D01*
X234679000Y-216534000D01*
X234679602Y-216534000D01*
X234679602Y-216509466D01*
X234684412Y-216460635D01*
X234693984Y-216412510D01*
X234708228Y-216365555D01*
X234727005Y-216320222D01*
X234750136Y-216276949D01*
X234777396Y-216236150D01*
X234808524Y-216198221D01*
X234843221Y-216163524D01*
X234881150Y-216132396D01*
X234921949Y-216105136D01*
X234965222Y-216082005D01*
X235010555Y-216063228D01*
X235057510Y-216048984D01*
X235105635Y-216039412D01*
X235154466Y-216034602D01*
X235179000Y-216034602D01*
X235179000Y-216034000D01*
X235679000Y-216034000D01*
X235679000Y-217534000D01*
X235179000Y-217534000D01*
X235179000Y-217533398D01*
G37*
%TD*%
%TO.C,JP3*%
G36*
X266459000Y-216034000D02*
G01*
X266959000Y-216034000D01*
X266959000Y-216034602D01*
X266983534Y-216034602D01*
X267032365Y-216039412D01*
X267080490Y-216048984D01*
X267127445Y-216063228D01*
X267172778Y-216082005D01*
X267216051Y-216105136D01*
X267256850Y-216132396D01*
X267294779Y-216163524D01*
X267329476Y-216198221D01*
X267360604Y-216236150D01*
X267387864Y-216276949D01*
X267410995Y-216320222D01*
X267429772Y-216365555D01*
X267444016Y-216412510D01*
X267453588Y-216460635D01*
X267458398Y-216509466D01*
X267458398Y-216534000D01*
X267459000Y-216534000D01*
X267459000Y-217034000D01*
X267458398Y-217034000D01*
X267458398Y-217058534D01*
X267453588Y-217107365D01*
X267444016Y-217155490D01*
X267429772Y-217202445D01*
X267410995Y-217247778D01*
X267387864Y-217291051D01*
X267360604Y-217331850D01*
X267329476Y-217369779D01*
X267294779Y-217404476D01*
X267256850Y-217435604D01*
X267216051Y-217462864D01*
X267172778Y-217485995D01*
X267127445Y-217504772D01*
X267080490Y-217519016D01*
X267032365Y-217528588D01*
X266983534Y-217533398D01*
X266959000Y-217533398D01*
X266959000Y-217534000D01*
X266459000Y-217534000D01*
X266459000Y-216034000D01*
G37*
G36*
X265659000Y-217533398D02*
G01*
X265634466Y-217533398D01*
X265585635Y-217528588D01*
X265537510Y-217519016D01*
X265490555Y-217504772D01*
X265445222Y-217485995D01*
X265401949Y-217462864D01*
X265361150Y-217435604D01*
X265323221Y-217404476D01*
X265288524Y-217369779D01*
X265257396Y-217331850D01*
X265230136Y-217291051D01*
X265207005Y-217247778D01*
X265188228Y-217202445D01*
X265173984Y-217155490D01*
X265164412Y-217107365D01*
X265159602Y-217058534D01*
X265159602Y-217034000D01*
X265159000Y-217034000D01*
X265159000Y-216534000D01*
X265159602Y-216534000D01*
X265159602Y-216509466D01*
X265164412Y-216460635D01*
X265173984Y-216412510D01*
X265188228Y-216365555D01*
X265207005Y-216320222D01*
X265230136Y-216276949D01*
X265257396Y-216236150D01*
X265288524Y-216198221D01*
X265323221Y-216163524D01*
X265361150Y-216132396D01*
X265401949Y-216105136D01*
X265445222Y-216082005D01*
X265490555Y-216063228D01*
X265537510Y-216048984D01*
X265585635Y-216039412D01*
X265634466Y-216034602D01*
X265659000Y-216034602D01*
X265659000Y-216034000D01*
X266159000Y-216034000D01*
X266159000Y-217534000D01*
X265659000Y-217534000D01*
X265659000Y-217533398D01*
G37*
%TD*%
%TO.C,JP2*%
G36*
X251473000Y-216034000D02*
G01*
X251973000Y-216034000D01*
X251973000Y-216034602D01*
X251997534Y-216034602D01*
X252046365Y-216039412D01*
X252094490Y-216048984D01*
X252141445Y-216063228D01*
X252186778Y-216082005D01*
X252230051Y-216105136D01*
X252270850Y-216132396D01*
X252308779Y-216163524D01*
X252343476Y-216198221D01*
X252374604Y-216236150D01*
X252401864Y-216276949D01*
X252424995Y-216320222D01*
X252443772Y-216365555D01*
X252458016Y-216412510D01*
X252467588Y-216460635D01*
X252472398Y-216509466D01*
X252472398Y-216534000D01*
X252473000Y-216534000D01*
X252473000Y-217034000D01*
X252472398Y-217034000D01*
X252472398Y-217058534D01*
X252467588Y-217107365D01*
X252458016Y-217155490D01*
X252443772Y-217202445D01*
X252424995Y-217247778D01*
X252401864Y-217291051D01*
X252374604Y-217331850D01*
X252343476Y-217369779D01*
X252308779Y-217404476D01*
X252270850Y-217435604D01*
X252230051Y-217462864D01*
X252186778Y-217485995D01*
X252141445Y-217504772D01*
X252094490Y-217519016D01*
X252046365Y-217528588D01*
X251997534Y-217533398D01*
X251973000Y-217533398D01*
X251973000Y-217534000D01*
X251473000Y-217534000D01*
X251473000Y-216034000D01*
G37*
G36*
X250673000Y-217533398D02*
G01*
X250648466Y-217533398D01*
X250599635Y-217528588D01*
X250551510Y-217519016D01*
X250504555Y-217504772D01*
X250459222Y-217485995D01*
X250415949Y-217462864D01*
X250375150Y-217435604D01*
X250337221Y-217404476D01*
X250302524Y-217369779D01*
X250271396Y-217331850D01*
X250244136Y-217291051D01*
X250221005Y-217247778D01*
X250202228Y-217202445D01*
X250187984Y-217155490D01*
X250178412Y-217107365D01*
X250173602Y-217058534D01*
X250173602Y-217034000D01*
X250173000Y-217034000D01*
X250173000Y-216534000D01*
X250173602Y-216534000D01*
X250173602Y-216509466D01*
X250178412Y-216460635D01*
X250187984Y-216412510D01*
X250202228Y-216365555D01*
X250221005Y-216320222D01*
X250244136Y-216276949D01*
X250271396Y-216236150D01*
X250302524Y-216198221D01*
X250337221Y-216163524D01*
X250375150Y-216132396D01*
X250415949Y-216105136D01*
X250459222Y-216082005D01*
X250504555Y-216063228D01*
X250551510Y-216048984D01*
X250599635Y-216039412D01*
X250648466Y-216034602D01*
X250673000Y-216034602D01*
X250673000Y-216034000D01*
X251173000Y-216034000D01*
X251173000Y-217534000D01*
X250673000Y-217534000D01*
X250673000Y-217533398D01*
G37*
%TD*%
%TO.C,D9004*%
G36*
X280350505Y-208973204D02*
G01*
X280374773Y-208976804D01*
X280398572Y-208982765D01*
X280421671Y-208991030D01*
X280443850Y-209001520D01*
X280464893Y-209014132D01*
X280484599Y-209028747D01*
X280502777Y-209045223D01*
X280519253Y-209063401D01*
X280533868Y-209083107D01*
X280546480Y-209104150D01*
X280556970Y-209126329D01*
X280565235Y-209149428D01*
X280571196Y-209173227D01*
X280574796Y-209197495D01*
X280576000Y-209221999D01*
X280576000Y-210122001D01*
X280574796Y-210146505D01*
X280571196Y-210170773D01*
X280565235Y-210194572D01*
X280556970Y-210217671D01*
X280546480Y-210239850D01*
X280533868Y-210260893D01*
X280519253Y-210280599D01*
X280502777Y-210298777D01*
X280484599Y-210315253D01*
X280464893Y-210329868D01*
X280443850Y-210342480D01*
X280421671Y-210352970D01*
X280398572Y-210361235D01*
X280374773Y-210367196D01*
X280350505Y-210370796D01*
X280326001Y-210372000D01*
X279675999Y-210372000D01*
X279651495Y-210370796D01*
X279627227Y-210367196D01*
X279603428Y-210361235D01*
X279580329Y-210352970D01*
X279558150Y-210342480D01*
X279537107Y-210329868D01*
X279517401Y-210315253D01*
X279499223Y-210298777D01*
X279482747Y-210280599D01*
X279468132Y-210260893D01*
X279455520Y-210239850D01*
X279445030Y-210217671D01*
X279436765Y-210194572D01*
X279430804Y-210170773D01*
X279427204Y-210146505D01*
X279426000Y-210122001D01*
X279426000Y-209221999D01*
X279427204Y-209197495D01*
X279430804Y-209173227D01*
X279436765Y-209149428D01*
X279445030Y-209126329D01*
X279455520Y-209104150D01*
X279468132Y-209083107D01*
X279482747Y-209063401D01*
X279499223Y-209045223D01*
X279517401Y-209028747D01*
X279537107Y-209014132D01*
X279558150Y-209001520D01*
X279580329Y-208991030D01*
X279603428Y-208982765D01*
X279627227Y-208976804D01*
X279651495Y-208973204D01*
X279675999Y-208972000D01*
X280326001Y-208972000D01*
X280350505Y-208973204D01*
G37*
G36*
X282400505Y-208973204D02*
G01*
X282424773Y-208976804D01*
X282448572Y-208982765D01*
X282471671Y-208991030D01*
X282493850Y-209001520D01*
X282514893Y-209014132D01*
X282534599Y-209028747D01*
X282552777Y-209045223D01*
X282569253Y-209063401D01*
X282583868Y-209083107D01*
X282596480Y-209104150D01*
X282606970Y-209126329D01*
X282615235Y-209149428D01*
X282621196Y-209173227D01*
X282624796Y-209197495D01*
X282626000Y-209221999D01*
X282626000Y-210122001D01*
X282624796Y-210146505D01*
X282621196Y-210170773D01*
X282615235Y-210194572D01*
X282606970Y-210217671D01*
X282596480Y-210239850D01*
X282583868Y-210260893D01*
X282569253Y-210280599D01*
X282552777Y-210298777D01*
X282534599Y-210315253D01*
X282514893Y-210329868D01*
X282493850Y-210342480D01*
X282471671Y-210352970D01*
X282448572Y-210361235D01*
X282424773Y-210367196D01*
X282400505Y-210370796D01*
X282376001Y-210372000D01*
X281725999Y-210372000D01*
X281701495Y-210370796D01*
X281677227Y-210367196D01*
X281653428Y-210361235D01*
X281630329Y-210352970D01*
X281608150Y-210342480D01*
X281587107Y-210329868D01*
X281567401Y-210315253D01*
X281549223Y-210298777D01*
X281532747Y-210280599D01*
X281518132Y-210260893D01*
X281505520Y-210239850D01*
X281495030Y-210217671D01*
X281486765Y-210194572D01*
X281480804Y-210170773D01*
X281477204Y-210146505D01*
X281476000Y-210122001D01*
X281476000Y-209221999D01*
X281477204Y-209197495D01*
X281480804Y-209173227D01*
X281486765Y-209149428D01*
X281495030Y-209126329D01*
X281505520Y-209104150D01*
X281518132Y-209083107D01*
X281532747Y-209063401D01*
X281549223Y-209045223D01*
X281567401Y-209028747D01*
X281587107Y-209014132D01*
X281608150Y-209001520D01*
X281630329Y-208991030D01*
X281653428Y-208982765D01*
X281677227Y-208976804D01*
X281701495Y-208973204D01*
X281725999Y-208972000D01*
X282376001Y-208972000D01*
X282400505Y-208973204D01*
G37*
%TD*%
%TO.C,D9003*%
G36*
X280350505Y-205925204D02*
G01*
X280374773Y-205928804D01*
X280398572Y-205934765D01*
X280421671Y-205943030D01*
X280443850Y-205953520D01*
X280464893Y-205966132D01*
X280484599Y-205980747D01*
X280502777Y-205997223D01*
X280519253Y-206015401D01*
X280533868Y-206035107D01*
X280546480Y-206056150D01*
X280556970Y-206078329D01*
X280565235Y-206101428D01*
X280571196Y-206125227D01*
X280574796Y-206149495D01*
X280576000Y-206173999D01*
X280576000Y-207074001D01*
X280574796Y-207098505D01*
X280571196Y-207122773D01*
X280565235Y-207146572D01*
X280556970Y-207169671D01*
X280546480Y-207191850D01*
X280533868Y-207212893D01*
X280519253Y-207232599D01*
X280502777Y-207250777D01*
X280484599Y-207267253D01*
X280464893Y-207281868D01*
X280443850Y-207294480D01*
X280421671Y-207304970D01*
X280398572Y-207313235D01*
X280374773Y-207319196D01*
X280350505Y-207322796D01*
X280326001Y-207324000D01*
X279675999Y-207324000D01*
X279651495Y-207322796D01*
X279627227Y-207319196D01*
X279603428Y-207313235D01*
X279580329Y-207304970D01*
X279558150Y-207294480D01*
X279537107Y-207281868D01*
X279517401Y-207267253D01*
X279499223Y-207250777D01*
X279482747Y-207232599D01*
X279468132Y-207212893D01*
X279455520Y-207191850D01*
X279445030Y-207169671D01*
X279436765Y-207146572D01*
X279430804Y-207122773D01*
X279427204Y-207098505D01*
X279426000Y-207074001D01*
X279426000Y-206173999D01*
X279427204Y-206149495D01*
X279430804Y-206125227D01*
X279436765Y-206101428D01*
X279445030Y-206078329D01*
X279455520Y-206056150D01*
X279468132Y-206035107D01*
X279482747Y-206015401D01*
X279499223Y-205997223D01*
X279517401Y-205980747D01*
X279537107Y-205966132D01*
X279558150Y-205953520D01*
X279580329Y-205943030D01*
X279603428Y-205934765D01*
X279627227Y-205928804D01*
X279651495Y-205925204D01*
X279675999Y-205924000D01*
X280326001Y-205924000D01*
X280350505Y-205925204D01*
G37*
G36*
X282400505Y-205925204D02*
G01*
X282424773Y-205928804D01*
X282448572Y-205934765D01*
X282471671Y-205943030D01*
X282493850Y-205953520D01*
X282514893Y-205966132D01*
X282534599Y-205980747D01*
X282552777Y-205997223D01*
X282569253Y-206015401D01*
X282583868Y-206035107D01*
X282596480Y-206056150D01*
X282606970Y-206078329D01*
X282615235Y-206101428D01*
X282621196Y-206125227D01*
X282624796Y-206149495D01*
X282626000Y-206173999D01*
X282626000Y-207074001D01*
X282624796Y-207098505D01*
X282621196Y-207122773D01*
X282615235Y-207146572D01*
X282606970Y-207169671D01*
X282596480Y-207191850D01*
X282583868Y-207212893D01*
X282569253Y-207232599D01*
X282552777Y-207250777D01*
X282534599Y-207267253D01*
X282514893Y-207281868D01*
X282493850Y-207294480D01*
X282471671Y-207304970D01*
X282448572Y-207313235D01*
X282424773Y-207319196D01*
X282400505Y-207322796D01*
X282376001Y-207324000D01*
X281725999Y-207324000D01*
X281701495Y-207322796D01*
X281677227Y-207319196D01*
X281653428Y-207313235D01*
X281630329Y-207304970D01*
X281608150Y-207294480D01*
X281587107Y-207281868D01*
X281567401Y-207267253D01*
X281549223Y-207250777D01*
X281532747Y-207232599D01*
X281518132Y-207212893D01*
X281505520Y-207191850D01*
X281495030Y-207169671D01*
X281486765Y-207146572D01*
X281480804Y-207122773D01*
X281477204Y-207098505D01*
X281476000Y-207074001D01*
X281476000Y-206173999D01*
X281477204Y-206149495D01*
X281480804Y-206125227D01*
X281486765Y-206101428D01*
X281495030Y-206078329D01*
X281505520Y-206056150D01*
X281518132Y-206035107D01*
X281532747Y-206015401D01*
X281549223Y-205997223D01*
X281567401Y-205980747D01*
X281587107Y-205966132D01*
X281608150Y-205953520D01*
X281630329Y-205943030D01*
X281653428Y-205934765D01*
X281677227Y-205928804D01*
X281701495Y-205925204D01*
X281725999Y-205924000D01*
X282376001Y-205924000D01*
X282400505Y-205925204D01*
G37*
%TD*%
%TO.C,D9002*%
G36*
X280350505Y-202877204D02*
G01*
X280374773Y-202880804D01*
X280398572Y-202886765D01*
X280421671Y-202895030D01*
X280443850Y-202905520D01*
X280464893Y-202918132D01*
X280484599Y-202932747D01*
X280502777Y-202949223D01*
X280519253Y-202967401D01*
X280533868Y-202987107D01*
X280546480Y-203008150D01*
X280556970Y-203030329D01*
X280565235Y-203053428D01*
X280571196Y-203077227D01*
X280574796Y-203101495D01*
X280576000Y-203125999D01*
X280576000Y-204026001D01*
X280574796Y-204050505D01*
X280571196Y-204074773D01*
X280565235Y-204098572D01*
X280556970Y-204121671D01*
X280546480Y-204143850D01*
X280533868Y-204164893D01*
X280519253Y-204184599D01*
X280502777Y-204202777D01*
X280484599Y-204219253D01*
X280464893Y-204233868D01*
X280443850Y-204246480D01*
X280421671Y-204256970D01*
X280398572Y-204265235D01*
X280374773Y-204271196D01*
X280350505Y-204274796D01*
X280326001Y-204276000D01*
X279675999Y-204276000D01*
X279651495Y-204274796D01*
X279627227Y-204271196D01*
X279603428Y-204265235D01*
X279580329Y-204256970D01*
X279558150Y-204246480D01*
X279537107Y-204233868D01*
X279517401Y-204219253D01*
X279499223Y-204202777D01*
X279482747Y-204184599D01*
X279468132Y-204164893D01*
X279455520Y-204143850D01*
X279445030Y-204121671D01*
X279436765Y-204098572D01*
X279430804Y-204074773D01*
X279427204Y-204050505D01*
X279426000Y-204026001D01*
X279426000Y-203125999D01*
X279427204Y-203101495D01*
X279430804Y-203077227D01*
X279436765Y-203053428D01*
X279445030Y-203030329D01*
X279455520Y-203008150D01*
X279468132Y-202987107D01*
X279482747Y-202967401D01*
X279499223Y-202949223D01*
X279517401Y-202932747D01*
X279537107Y-202918132D01*
X279558150Y-202905520D01*
X279580329Y-202895030D01*
X279603428Y-202886765D01*
X279627227Y-202880804D01*
X279651495Y-202877204D01*
X279675999Y-202876000D01*
X280326001Y-202876000D01*
X280350505Y-202877204D01*
G37*
G36*
X282400505Y-202877204D02*
G01*
X282424773Y-202880804D01*
X282448572Y-202886765D01*
X282471671Y-202895030D01*
X282493850Y-202905520D01*
X282514893Y-202918132D01*
X282534599Y-202932747D01*
X282552777Y-202949223D01*
X282569253Y-202967401D01*
X282583868Y-202987107D01*
X282596480Y-203008150D01*
X282606970Y-203030329D01*
X282615235Y-203053428D01*
X282621196Y-203077227D01*
X282624796Y-203101495D01*
X282626000Y-203125999D01*
X282626000Y-204026001D01*
X282624796Y-204050505D01*
X282621196Y-204074773D01*
X282615235Y-204098572D01*
X282606970Y-204121671D01*
X282596480Y-204143850D01*
X282583868Y-204164893D01*
X282569253Y-204184599D01*
X282552777Y-204202777D01*
X282534599Y-204219253D01*
X282514893Y-204233868D01*
X282493850Y-204246480D01*
X282471671Y-204256970D01*
X282448572Y-204265235D01*
X282424773Y-204271196D01*
X282400505Y-204274796D01*
X282376001Y-204276000D01*
X281725999Y-204276000D01*
X281701495Y-204274796D01*
X281677227Y-204271196D01*
X281653428Y-204265235D01*
X281630329Y-204256970D01*
X281608150Y-204246480D01*
X281587107Y-204233868D01*
X281567401Y-204219253D01*
X281549223Y-204202777D01*
X281532747Y-204184599D01*
X281518132Y-204164893D01*
X281505520Y-204143850D01*
X281495030Y-204121671D01*
X281486765Y-204098572D01*
X281480804Y-204074773D01*
X281477204Y-204050505D01*
X281476000Y-204026001D01*
X281476000Y-203125999D01*
X281477204Y-203101495D01*
X281480804Y-203077227D01*
X281486765Y-203053428D01*
X281495030Y-203030329D01*
X281505520Y-203008150D01*
X281518132Y-202987107D01*
X281532747Y-202967401D01*
X281549223Y-202949223D01*
X281567401Y-202932747D01*
X281587107Y-202918132D01*
X281608150Y-202905520D01*
X281630329Y-202895030D01*
X281653428Y-202886765D01*
X281677227Y-202880804D01*
X281701495Y-202877204D01*
X281725999Y-202876000D01*
X282376001Y-202876000D01*
X282400505Y-202877204D01*
G37*
%TD*%
%TO.C,D9001*%
G36*
X280350505Y-199829204D02*
G01*
X280374773Y-199832804D01*
X280398572Y-199838765D01*
X280421671Y-199847030D01*
X280443850Y-199857520D01*
X280464893Y-199870132D01*
X280484599Y-199884747D01*
X280502777Y-199901223D01*
X280519253Y-199919401D01*
X280533868Y-199939107D01*
X280546480Y-199960150D01*
X280556970Y-199982329D01*
X280565235Y-200005428D01*
X280571196Y-200029227D01*
X280574796Y-200053495D01*
X280576000Y-200077999D01*
X280576000Y-200978001D01*
X280574796Y-201002505D01*
X280571196Y-201026773D01*
X280565235Y-201050572D01*
X280556970Y-201073671D01*
X280546480Y-201095850D01*
X280533868Y-201116893D01*
X280519253Y-201136599D01*
X280502777Y-201154777D01*
X280484599Y-201171253D01*
X280464893Y-201185868D01*
X280443850Y-201198480D01*
X280421671Y-201208970D01*
X280398572Y-201217235D01*
X280374773Y-201223196D01*
X280350505Y-201226796D01*
X280326001Y-201228000D01*
X279675999Y-201228000D01*
X279651495Y-201226796D01*
X279627227Y-201223196D01*
X279603428Y-201217235D01*
X279580329Y-201208970D01*
X279558150Y-201198480D01*
X279537107Y-201185868D01*
X279517401Y-201171253D01*
X279499223Y-201154777D01*
X279482747Y-201136599D01*
X279468132Y-201116893D01*
X279455520Y-201095850D01*
X279445030Y-201073671D01*
X279436765Y-201050572D01*
X279430804Y-201026773D01*
X279427204Y-201002505D01*
X279426000Y-200978001D01*
X279426000Y-200077999D01*
X279427204Y-200053495D01*
X279430804Y-200029227D01*
X279436765Y-200005428D01*
X279445030Y-199982329D01*
X279455520Y-199960150D01*
X279468132Y-199939107D01*
X279482747Y-199919401D01*
X279499223Y-199901223D01*
X279517401Y-199884747D01*
X279537107Y-199870132D01*
X279558150Y-199857520D01*
X279580329Y-199847030D01*
X279603428Y-199838765D01*
X279627227Y-199832804D01*
X279651495Y-199829204D01*
X279675999Y-199828000D01*
X280326001Y-199828000D01*
X280350505Y-199829204D01*
G37*
G36*
X282400505Y-199829204D02*
G01*
X282424773Y-199832804D01*
X282448572Y-199838765D01*
X282471671Y-199847030D01*
X282493850Y-199857520D01*
X282514893Y-199870132D01*
X282534599Y-199884747D01*
X282552777Y-199901223D01*
X282569253Y-199919401D01*
X282583868Y-199939107D01*
X282596480Y-199960150D01*
X282606970Y-199982329D01*
X282615235Y-200005428D01*
X282621196Y-200029227D01*
X282624796Y-200053495D01*
X282626000Y-200077999D01*
X282626000Y-200978001D01*
X282624796Y-201002505D01*
X282621196Y-201026773D01*
X282615235Y-201050572D01*
X282606970Y-201073671D01*
X282596480Y-201095850D01*
X282583868Y-201116893D01*
X282569253Y-201136599D01*
X282552777Y-201154777D01*
X282534599Y-201171253D01*
X282514893Y-201185868D01*
X282493850Y-201198480D01*
X282471671Y-201208970D01*
X282448572Y-201217235D01*
X282424773Y-201223196D01*
X282400505Y-201226796D01*
X282376001Y-201228000D01*
X281725999Y-201228000D01*
X281701495Y-201226796D01*
X281677227Y-201223196D01*
X281653428Y-201217235D01*
X281630329Y-201208970D01*
X281608150Y-201198480D01*
X281587107Y-201185868D01*
X281567401Y-201171253D01*
X281549223Y-201154777D01*
X281532747Y-201136599D01*
X281518132Y-201116893D01*
X281505520Y-201095850D01*
X281495030Y-201073671D01*
X281486765Y-201050572D01*
X281480804Y-201026773D01*
X281477204Y-201002505D01*
X281476000Y-200978001D01*
X281476000Y-200077999D01*
X281477204Y-200053495D01*
X281480804Y-200029227D01*
X281486765Y-200005428D01*
X281495030Y-199982329D01*
X281505520Y-199960150D01*
X281518132Y-199939107D01*
X281532747Y-199919401D01*
X281549223Y-199901223D01*
X281567401Y-199884747D01*
X281587107Y-199870132D01*
X281608150Y-199857520D01*
X281630329Y-199847030D01*
X281653428Y-199838765D01*
X281677227Y-199832804D01*
X281701495Y-199829204D01*
X281725999Y-199828000D01*
X282376001Y-199828000D01*
X282400505Y-199829204D01*
G37*
%TD*%
%TO.C,D4004*%
G36*
X280096505Y-247835204D02*
G01*
X280120773Y-247838804D01*
X280144572Y-247844765D01*
X280167671Y-247853030D01*
X280189850Y-247863520D01*
X280210893Y-247876132D01*
X280230599Y-247890747D01*
X280248777Y-247907223D01*
X280265253Y-247925401D01*
X280279868Y-247945107D01*
X280292480Y-247966150D01*
X280302970Y-247988329D01*
X280311235Y-248011428D01*
X280317196Y-248035227D01*
X280320796Y-248059495D01*
X280322000Y-248083999D01*
X280322000Y-248984001D01*
X280320796Y-249008505D01*
X280317196Y-249032773D01*
X280311235Y-249056572D01*
X280302970Y-249079671D01*
X280292480Y-249101850D01*
X280279868Y-249122893D01*
X280265253Y-249142599D01*
X280248777Y-249160777D01*
X280230599Y-249177253D01*
X280210893Y-249191868D01*
X280189850Y-249204480D01*
X280167671Y-249214970D01*
X280144572Y-249223235D01*
X280120773Y-249229196D01*
X280096505Y-249232796D01*
X280072001Y-249234000D01*
X279421999Y-249234000D01*
X279397495Y-249232796D01*
X279373227Y-249229196D01*
X279349428Y-249223235D01*
X279326329Y-249214970D01*
X279304150Y-249204480D01*
X279283107Y-249191868D01*
X279263401Y-249177253D01*
X279245223Y-249160777D01*
X279228747Y-249142599D01*
X279214132Y-249122893D01*
X279201520Y-249101850D01*
X279191030Y-249079671D01*
X279182765Y-249056572D01*
X279176804Y-249032773D01*
X279173204Y-249008505D01*
X279172000Y-248984001D01*
X279172000Y-248083999D01*
X279173204Y-248059495D01*
X279176804Y-248035227D01*
X279182765Y-248011428D01*
X279191030Y-247988329D01*
X279201520Y-247966150D01*
X279214132Y-247945107D01*
X279228747Y-247925401D01*
X279245223Y-247907223D01*
X279263401Y-247890747D01*
X279283107Y-247876132D01*
X279304150Y-247863520D01*
X279326329Y-247853030D01*
X279349428Y-247844765D01*
X279373227Y-247838804D01*
X279397495Y-247835204D01*
X279421999Y-247834000D01*
X280072001Y-247834000D01*
X280096505Y-247835204D01*
G37*
G36*
X282146505Y-247835204D02*
G01*
X282170773Y-247838804D01*
X282194572Y-247844765D01*
X282217671Y-247853030D01*
X282239850Y-247863520D01*
X282260893Y-247876132D01*
X282280599Y-247890747D01*
X282298777Y-247907223D01*
X282315253Y-247925401D01*
X282329868Y-247945107D01*
X282342480Y-247966150D01*
X282352970Y-247988329D01*
X282361235Y-248011428D01*
X282367196Y-248035227D01*
X282370796Y-248059495D01*
X282372000Y-248083999D01*
X282372000Y-248984001D01*
X282370796Y-249008505D01*
X282367196Y-249032773D01*
X282361235Y-249056572D01*
X282352970Y-249079671D01*
X282342480Y-249101850D01*
X282329868Y-249122893D01*
X282315253Y-249142599D01*
X282298777Y-249160777D01*
X282280599Y-249177253D01*
X282260893Y-249191868D01*
X282239850Y-249204480D01*
X282217671Y-249214970D01*
X282194572Y-249223235D01*
X282170773Y-249229196D01*
X282146505Y-249232796D01*
X282122001Y-249234000D01*
X281471999Y-249234000D01*
X281447495Y-249232796D01*
X281423227Y-249229196D01*
X281399428Y-249223235D01*
X281376329Y-249214970D01*
X281354150Y-249204480D01*
X281333107Y-249191868D01*
X281313401Y-249177253D01*
X281295223Y-249160777D01*
X281278747Y-249142599D01*
X281264132Y-249122893D01*
X281251520Y-249101850D01*
X281241030Y-249079671D01*
X281232765Y-249056572D01*
X281226804Y-249032773D01*
X281223204Y-249008505D01*
X281222000Y-248984001D01*
X281222000Y-248083999D01*
X281223204Y-248059495D01*
X281226804Y-248035227D01*
X281232765Y-248011428D01*
X281241030Y-247988329D01*
X281251520Y-247966150D01*
X281264132Y-247945107D01*
X281278747Y-247925401D01*
X281295223Y-247907223D01*
X281313401Y-247890747D01*
X281333107Y-247876132D01*
X281354150Y-247863520D01*
X281376329Y-247853030D01*
X281399428Y-247844765D01*
X281423227Y-247838804D01*
X281447495Y-247835204D01*
X281471999Y-247834000D01*
X282122001Y-247834000D01*
X282146505Y-247835204D01*
G37*
%TD*%
%TO.C,D4003*%
G36*
X280096505Y-244787204D02*
G01*
X280120773Y-244790804D01*
X280144572Y-244796765D01*
X280167671Y-244805030D01*
X280189850Y-244815520D01*
X280210893Y-244828132D01*
X280230599Y-244842747D01*
X280248777Y-244859223D01*
X280265253Y-244877401D01*
X280279868Y-244897107D01*
X280292480Y-244918150D01*
X280302970Y-244940329D01*
X280311235Y-244963428D01*
X280317196Y-244987227D01*
X280320796Y-245011495D01*
X280322000Y-245035999D01*
X280322000Y-245936001D01*
X280320796Y-245960505D01*
X280317196Y-245984773D01*
X280311235Y-246008572D01*
X280302970Y-246031671D01*
X280292480Y-246053850D01*
X280279868Y-246074893D01*
X280265253Y-246094599D01*
X280248777Y-246112777D01*
X280230599Y-246129253D01*
X280210893Y-246143868D01*
X280189850Y-246156480D01*
X280167671Y-246166970D01*
X280144572Y-246175235D01*
X280120773Y-246181196D01*
X280096505Y-246184796D01*
X280072001Y-246186000D01*
X279421999Y-246186000D01*
X279397495Y-246184796D01*
X279373227Y-246181196D01*
X279349428Y-246175235D01*
X279326329Y-246166970D01*
X279304150Y-246156480D01*
X279283107Y-246143868D01*
X279263401Y-246129253D01*
X279245223Y-246112777D01*
X279228747Y-246094599D01*
X279214132Y-246074893D01*
X279201520Y-246053850D01*
X279191030Y-246031671D01*
X279182765Y-246008572D01*
X279176804Y-245984773D01*
X279173204Y-245960505D01*
X279172000Y-245936001D01*
X279172000Y-245035999D01*
X279173204Y-245011495D01*
X279176804Y-244987227D01*
X279182765Y-244963428D01*
X279191030Y-244940329D01*
X279201520Y-244918150D01*
X279214132Y-244897107D01*
X279228747Y-244877401D01*
X279245223Y-244859223D01*
X279263401Y-244842747D01*
X279283107Y-244828132D01*
X279304150Y-244815520D01*
X279326329Y-244805030D01*
X279349428Y-244796765D01*
X279373227Y-244790804D01*
X279397495Y-244787204D01*
X279421999Y-244786000D01*
X280072001Y-244786000D01*
X280096505Y-244787204D01*
G37*
G36*
X282146505Y-244787204D02*
G01*
X282170773Y-244790804D01*
X282194572Y-244796765D01*
X282217671Y-244805030D01*
X282239850Y-244815520D01*
X282260893Y-244828132D01*
X282280599Y-244842747D01*
X282298777Y-244859223D01*
X282315253Y-244877401D01*
X282329868Y-244897107D01*
X282342480Y-244918150D01*
X282352970Y-244940329D01*
X282361235Y-244963428D01*
X282367196Y-244987227D01*
X282370796Y-245011495D01*
X282372000Y-245035999D01*
X282372000Y-245936001D01*
X282370796Y-245960505D01*
X282367196Y-245984773D01*
X282361235Y-246008572D01*
X282352970Y-246031671D01*
X282342480Y-246053850D01*
X282329868Y-246074893D01*
X282315253Y-246094599D01*
X282298777Y-246112777D01*
X282280599Y-246129253D01*
X282260893Y-246143868D01*
X282239850Y-246156480D01*
X282217671Y-246166970D01*
X282194572Y-246175235D01*
X282170773Y-246181196D01*
X282146505Y-246184796D01*
X282122001Y-246186000D01*
X281471999Y-246186000D01*
X281447495Y-246184796D01*
X281423227Y-246181196D01*
X281399428Y-246175235D01*
X281376329Y-246166970D01*
X281354150Y-246156480D01*
X281333107Y-246143868D01*
X281313401Y-246129253D01*
X281295223Y-246112777D01*
X281278747Y-246094599D01*
X281264132Y-246074893D01*
X281251520Y-246053850D01*
X281241030Y-246031671D01*
X281232765Y-246008572D01*
X281226804Y-245984773D01*
X281223204Y-245960505D01*
X281222000Y-245936001D01*
X281222000Y-245035999D01*
X281223204Y-245011495D01*
X281226804Y-244987227D01*
X281232765Y-244963428D01*
X281241030Y-244940329D01*
X281251520Y-244918150D01*
X281264132Y-244897107D01*
X281278747Y-244877401D01*
X281295223Y-244859223D01*
X281313401Y-244842747D01*
X281333107Y-244828132D01*
X281354150Y-244815520D01*
X281376329Y-244805030D01*
X281399428Y-244796765D01*
X281423227Y-244790804D01*
X281447495Y-244787204D01*
X281471999Y-244786000D01*
X282122001Y-244786000D01*
X282146505Y-244787204D01*
G37*
%TD*%
%TO.C,D4002*%
G36*
X280096505Y-241993204D02*
G01*
X280120773Y-241996804D01*
X280144572Y-242002765D01*
X280167671Y-242011030D01*
X280189850Y-242021520D01*
X280210893Y-242034132D01*
X280230599Y-242048747D01*
X280248777Y-242065223D01*
X280265253Y-242083401D01*
X280279868Y-242103107D01*
X280292480Y-242124150D01*
X280302970Y-242146329D01*
X280311235Y-242169428D01*
X280317196Y-242193227D01*
X280320796Y-242217495D01*
X280322000Y-242241999D01*
X280322000Y-243142001D01*
X280320796Y-243166505D01*
X280317196Y-243190773D01*
X280311235Y-243214572D01*
X280302970Y-243237671D01*
X280292480Y-243259850D01*
X280279868Y-243280893D01*
X280265253Y-243300599D01*
X280248777Y-243318777D01*
X280230599Y-243335253D01*
X280210893Y-243349868D01*
X280189850Y-243362480D01*
X280167671Y-243372970D01*
X280144572Y-243381235D01*
X280120773Y-243387196D01*
X280096505Y-243390796D01*
X280072001Y-243392000D01*
X279421999Y-243392000D01*
X279397495Y-243390796D01*
X279373227Y-243387196D01*
X279349428Y-243381235D01*
X279326329Y-243372970D01*
X279304150Y-243362480D01*
X279283107Y-243349868D01*
X279263401Y-243335253D01*
X279245223Y-243318777D01*
X279228747Y-243300599D01*
X279214132Y-243280893D01*
X279201520Y-243259850D01*
X279191030Y-243237671D01*
X279182765Y-243214572D01*
X279176804Y-243190773D01*
X279173204Y-243166505D01*
X279172000Y-243142001D01*
X279172000Y-242241999D01*
X279173204Y-242217495D01*
X279176804Y-242193227D01*
X279182765Y-242169428D01*
X279191030Y-242146329D01*
X279201520Y-242124150D01*
X279214132Y-242103107D01*
X279228747Y-242083401D01*
X279245223Y-242065223D01*
X279263401Y-242048747D01*
X279283107Y-242034132D01*
X279304150Y-242021520D01*
X279326329Y-242011030D01*
X279349428Y-242002765D01*
X279373227Y-241996804D01*
X279397495Y-241993204D01*
X279421999Y-241992000D01*
X280072001Y-241992000D01*
X280096505Y-241993204D01*
G37*
G36*
X282146505Y-241993204D02*
G01*
X282170773Y-241996804D01*
X282194572Y-242002765D01*
X282217671Y-242011030D01*
X282239850Y-242021520D01*
X282260893Y-242034132D01*
X282280599Y-242048747D01*
X282298777Y-242065223D01*
X282315253Y-242083401D01*
X282329868Y-242103107D01*
X282342480Y-242124150D01*
X282352970Y-242146329D01*
X282361235Y-242169428D01*
X282367196Y-242193227D01*
X282370796Y-242217495D01*
X282372000Y-242241999D01*
X282372000Y-243142001D01*
X282370796Y-243166505D01*
X282367196Y-243190773D01*
X282361235Y-243214572D01*
X282352970Y-243237671D01*
X282342480Y-243259850D01*
X282329868Y-243280893D01*
X282315253Y-243300599D01*
X282298777Y-243318777D01*
X282280599Y-243335253D01*
X282260893Y-243349868D01*
X282239850Y-243362480D01*
X282217671Y-243372970D01*
X282194572Y-243381235D01*
X282170773Y-243387196D01*
X282146505Y-243390796D01*
X282122001Y-243392000D01*
X281471999Y-243392000D01*
X281447495Y-243390796D01*
X281423227Y-243387196D01*
X281399428Y-243381235D01*
X281376329Y-243372970D01*
X281354150Y-243362480D01*
X281333107Y-243349868D01*
X281313401Y-243335253D01*
X281295223Y-243318777D01*
X281278747Y-243300599D01*
X281264132Y-243280893D01*
X281251520Y-243259850D01*
X281241030Y-243237671D01*
X281232765Y-243214572D01*
X281226804Y-243190773D01*
X281223204Y-243166505D01*
X281222000Y-243142001D01*
X281222000Y-242241999D01*
X281223204Y-242217495D01*
X281226804Y-242193227D01*
X281232765Y-242169428D01*
X281241030Y-242146329D01*
X281251520Y-242124150D01*
X281264132Y-242103107D01*
X281278747Y-242083401D01*
X281295223Y-242065223D01*
X281313401Y-242048747D01*
X281333107Y-242034132D01*
X281354150Y-242021520D01*
X281376329Y-242011030D01*
X281399428Y-242002765D01*
X281423227Y-241996804D01*
X281447495Y-241993204D01*
X281471999Y-241992000D01*
X282122001Y-241992000D01*
X282146505Y-241993204D01*
G37*
%TD*%
%TO.C,D4001*%
G36*
X280096505Y-238945204D02*
G01*
X280120773Y-238948804D01*
X280144572Y-238954765D01*
X280167671Y-238963030D01*
X280189850Y-238973520D01*
X280210893Y-238986132D01*
X280230599Y-239000747D01*
X280248777Y-239017223D01*
X280265253Y-239035401D01*
X280279868Y-239055107D01*
X280292480Y-239076150D01*
X280302970Y-239098329D01*
X280311235Y-239121428D01*
X280317196Y-239145227D01*
X280320796Y-239169495D01*
X280322000Y-239193999D01*
X280322000Y-240094001D01*
X280320796Y-240118505D01*
X280317196Y-240142773D01*
X280311235Y-240166572D01*
X280302970Y-240189671D01*
X280292480Y-240211850D01*
X280279868Y-240232893D01*
X280265253Y-240252599D01*
X280248777Y-240270777D01*
X280230599Y-240287253D01*
X280210893Y-240301868D01*
X280189850Y-240314480D01*
X280167671Y-240324970D01*
X280144572Y-240333235D01*
X280120773Y-240339196D01*
X280096505Y-240342796D01*
X280072001Y-240344000D01*
X279421999Y-240344000D01*
X279397495Y-240342796D01*
X279373227Y-240339196D01*
X279349428Y-240333235D01*
X279326329Y-240324970D01*
X279304150Y-240314480D01*
X279283107Y-240301868D01*
X279263401Y-240287253D01*
X279245223Y-240270777D01*
X279228747Y-240252599D01*
X279214132Y-240232893D01*
X279201520Y-240211850D01*
X279191030Y-240189671D01*
X279182765Y-240166572D01*
X279176804Y-240142773D01*
X279173204Y-240118505D01*
X279172000Y-240094001D01*
X279172000Y-239193999D01*
X279173204Y-239169495D01*
X279176804Y-239145227D01*
X279182765Y-239121428D01*
X279191030Y-239098329D01*
X279201520Y-239076150D01*
X279214132Y-239055107D01*
X279228747Y-239035401D01*
X279245223Y-239017223D01*
X279263401Y-239000747D01*
X279283107Y-238986132D01*
X279304150Y-238973520D01*
X279326329Y-238963030D01*
X279349428Y-238954765D01*
X279373227Y-238948804D01*
X279397495Y-238945204D01*
X279421999Y-238944000D01*
X280072001Y-238944000D01*
X280096505Y-238945204D01*
G37*
G36*
X282146505Y-238945204D02*
G01*
X282170773Y-238948804D01*
X282194572Y-238954765D01*
X282217671Y-238963030D01*
X282239850Y-238973520D01*
X282260893Y-238986132D01*
X282280599Y-239000747D01*
X282298777Y-239017223D01*
X282315253Y-239035401D01*
X282329868Y-239055107D01*
X282342480Y-239076150D01*
X282352970Y-239098329D01*
X282361235Y-239121428D01*
X282367196Y-239145227D01*
X282370796Y-239169495D01*
X282372000Y-239193999D01*
X282372000Y-240094001D01*
X282370796Y-240118505D01*
X282367196Y-240142773D01*
X282361235Y-240166572D01*
X282352970Y-240189671D01*
X282342480Y-240211850D01*
X282329868Y-240232893D01*
X282315253Y-240252599D01*
X282298777Y-240270777D01*
X282280599Y-240287253D01*
X282260893Y-240301868D01*
X282239850Y-240314480D01*
X282217671Y-240324970D01*
X282194572Y-240333235D01*
X282170773Y-240339196D01*
X282146505Y-240342796D01*
X282122001Y-240344000D01*
X281471999Y-240344000D01*
X281447495Y-240342796D01*
X281423227Y-240339196D01*
X281399428Y-240333235D01*
X281376329Y-240324970D01*
X281354150Y-240314480D01*
X281333107Y-240301868D01*
X281313401Y-240287253D01*
X281295223Y-240270777D01*
X281278747Y-240252599D01*
X281264132Y-240232893D01*
X281251520Y-240211850D01*
X281241030Y-240189671D01*
X281232765Y-240166572D01*
X281226804Y-240142773D01*
X281223204Y-240118505D01*
X281222000Y-240094001D01*
X281222000Y-239193999D01*
X281223204Y-239169495D01*
X281226804Y-239145227D01*
X281232765Y-239121428D01*
X281241030Y-239098329D01*
X281251520Y-239076150D01*
X281264132Y-239055107D01*
X281278747Y-239035401D01*
X281295223Y-239017223D01*
X281313401Y-239000747D01*
X281333107Y-238986132D01*
X281354150Y-238973520D01*
X281376329Y-238963030D01*
X281399428Y-238954765D01*
X281423227Y-238948804D01*
X281447495Y-238945204D01*
X281471999Y-238944000D01*
X282122001Y-238944000D01*
X282146505Y-238945204D01*
G37*
%TD*%
D21*
%TO.C,D3001*%
X266421000Y-256916000D03*
D22*
X274041000Y-256916000D03*
%TD*%
D10*
%TO.C,D2004*%
G36*
X235272505Y-122747204D02*
G01*
X235296773Y-122750804D01*
X235320572Y-122756765D01*
X235343671Y-122765030D01*
X235365850Y-122775520D01*
X235386893Y-122788132D01*
X235406599Y-122802747D01*
X235424777Y-122819223D01*
X235441253Y-122837401D01*
X235455868Y-122857107D01*
X235468480Y-122878150D01*
X235478970Y-122900329D01*
X235487235Y-122923428D01*
X235493196Y-122947227D01*
X235496796Y-122971495D01*
X235498000Y-122995999D01*
X235498000Y-123646001D01*
X235496796Y-123670505D01*
X235493196Y-123694773D01*
X235487235Y-123718572D01*
X235478970Y-123741671D01*
X235468480Y-123763850D01*
X235455868Y-123784893D01*
X235441253Y-123804599D01*
X235424777Y-123822777D01*
X235406599Y-123839253D01*
X235386893Y-123853868D01*
X235365850Y-123866480D01*
X235343671Y-123876970D01*
X235320572Y-123885235D01*
X235296773Y-123891196D01*
X235272505Y-123894796D01*
X235248001Y-123896000D01*
X234347999Y-123896000D01*
X234323495Y-123894796D01*
X234299227Y-123891196D01*
X234275428Y-123885235D01*
X234252329Y-123876970D01*
X234230150Y-123866480D01*
X234209107Y-123853868D01*
X234189401Y-123839253D01*
X234171223Y-123822777D01*
X234154747Y-123804599D01*
X234140132Y-123784893D01*
X234127520Y-123763850D01*
X234117030Y-123741671D01*
X234108765Y-123718572D01*
X234102804Y-123694773D01*
X234099204Y-123670505D01*
X234098000Y-123646001D01*
X234098000Y-122995999D01*
X234099204Y-122971495D01*
X234102804Y-122947227D01*
X234108765Y-122923428D01*
X234117030Y-122900329D01*
X234127520Y-122878150D01*
X234140132Y-122857107D01*
X234154747Y-122837401D01*
X234171223Y-122819223D01*
X234189401Y-122802747D01*
X234209107Y-122788132D01*
X234230150Y-122775520D01*
X234252329Y-122765030D01*
X234275428Y-122756765D01*
X234299227Y-122750804D01*
X234323495Y-122747204D01*
X234347999Y-122746000D01*
X235248001Y-122746000D01*
X235272505Y-122747204D01*
G37*
G36*
X235272505Y-120697204D02*
G01*
X235296773Y-120700804D01*
X235320572Y-120706765D01*
X235343671Y-120715030D01*
X235365850Y-120725520D01*
X235386893Y-120738132D01*
X235406599Y-120752747D01*
X235424777Y-120769223D01*
X235441253Y-120787401D01*
X235455868Y-120807107D01*
X235468480Y-120828150D01*
X235478970Y-120850329D01*
X235487235Y-120873428D01*
X235493196Y-120897227D01*
X235496796Y-120921495D01*
X235498000Y-120945999D01*
X235498000Y-121596001D01*
X235496796Y-121620505D01*
X235493196Y-121644773D01*
X235487235Y-121668572D01*
X235478970Y-121691671D01*
X235468480Y-121713850D01*
X235455868Y-121734893D01*
X235441253Y-121754599D01*
X235424777Y-121772777D01*
X235406599Y-121789253D01*
X235386893Y-121803868D01*
X235365850Y-121816480D01*
X235343671Y-121826970D01*
X235320572Y-121835235D01*
X235296773Y-121841196D01*
X235272505Y-121844796D01*
X235248001Y-121846000D01*
X234347999Y-121846000D01*
X234323495Y-121844796D01*
X234299227Y-121841196D01*
X234275428Y-121835235D01*
X234252329Y-121826970D01*
X234230150Y-121816480D01*
X234209107Y-121803868D01*
X234189401Y-121789253D01*
X234171223Y-121772777D01*
X234154747Y-121754599D01*
X234140132Y-121734893D01*
X234127520Y-121713850D01*
X234117030Y-121691671D01*
X234108765Y-121668572D01*
X234102804Y-121644773D01*
X234099204Y-121620505D01*
X234098000Y-121596001D01*
X234098000Y-120945999D01*
X234099204Y-120921495D01*
X234102804Y-120897227D01*
X234108765Y-120873428D01*
X234117030Y-120850329D01*
X234127520Y-120828150D01*
X234140132Y-120807107D01*
X234154747Y-120787401D01*
X234171223Y-120769223D01*
X234189401Y-120752747D01*
X234209107Y-120738132D01*
X234230150Y-120725520D01*
X234252329Y-120715030D01*
X234275428Y-120706765D01*
X234299227Y-120700804D01*
X234323495Y-120697204D01*
X234347999Y-120696000D01*
X235248001Y-120696000D01*
X235272505Y-120697204D01*
G37*
%TD*%
%TO.C,D2003*%
G36*
X239336505Y-122747204D02*
G01*
X239360773Y-122750804D01*
X239384572Y-122756765D01*
X239407671Y-122765030D01*
X239429850Y-122775520D01*
X239450893Y-122788132D01*
X239470599Y-122802747D01*
X239488777Y-122819223D01*
X239505253Y-122837401D01*
X239519868Y-122857107D01*
X239532480Y-122878150D01*
X239542970Y-122900329D01*
X239551235Y-122923428D01*
X239557196Y-122947227D01*
X239560796Y-122971495D01*
X239562000Y-122995999D01*
X239562000Y-123646001D01*
X239560796Y-123670505D01*
X239557196Y-123694773D01*
X239551235Y-123718572D01*
X239542970Y-123741671D01*
X239532480Y-123763850D01*
X239519868Y-123784893D01*
X239505253Y-123804599D01*
X239488777Y-123822777D01*
X239470599Y-123839253D01*
X239450893Y-123853868D01*
X239429850Y-123866480D01*
X239407671Y-123876970D01*
X239384572Y-123885235D01*
X239360773Y-123891196D01*
X239336505Y-123894796D01*
X239312001Y-123896000D01*
X238411999Y-123896000D01*
X238387495Y-123894796D01*
X238363227Y-123891196D01*
X238339428Y-123885235D01*
X238316329Y-123876970D01*
X238294150Y-123866480D01*
X238273107Y-123853868D01*
X238253401Y-123839253D01*
X238235223Y-123822777D01*
X238218747Y-123804599D01*
X238204132Y-123784893D01*
X238191520Y-123763850D01*
X238181030Y-123741671D01*
X238172765Y-123718572D01*
X238166804Y-123694773D01*
X238163204Y-123670505D01*
X238162000Y-123646001D01*
X238162000Y-122995999D01*
X238163204Y-122971495D01*
X238166804Y-122947227D01*
X238172765Y-122923428D01*
X238181030Y-122900329D01*
X238191520Y-122878150D01*
X238204132Y-122857107D01*
X238218747Y-122837401D01*
X238235223Y-122819223D01*
X238253401Y-122802747D01*
X238273107Y-122788132D01*
X238294150Y-122775520D01*
X238316329Y-122765030D01*
X238339428Y-122756765D01*
X238363227Y-122750804D01*
X238387495Y-122747204D01*
X238411999Y-122746000D01*
X239312001Y-122746000D01*
X239336505Y-122747204D01*
G37*
G36*
X239336505Y-120697204D02*
G01*
X239360773Y-120700804D01*
X239384572Y-120706765D01*
X239407671Y-120715030D01*
X239429850Y-120725520D01*
X239450893Y-120738132D01*
X239470599Y-120752747D01*
X239488777Y-120769223D01*
X239505253Y-120787401D01*
X239519868Y-120807107D01*
X239532480Y-120828150D01*
X239542970Y-120850329D01*
X239551235Y-120873428D01*
X239557196Y-120897227D01*
X239560796Y-120921495D01*
X239562000Y-120945999D01*
X239562000Y-121596001D01*
X239560796Y-121620505D01*
X239557196Y-121644773D01*
X239551235Y-121668572D01*
X239542970Y-121691671D01*
X239532480Y-121713850D01*
X239519868Y-121734893D01*
X239505253Y-121754599D01*
X239488777Y-121772777D01*
X239470599Y-121789253D01*
X239450893Y-121803868D01*
X239429850Y-121816480D01*
X239407671Y-121826970D01*
X239384572Y-121835235D01*
X239360773Y-121841196D01*
X239336505Y-121844796D01*
X239312001Y-121846000D01*
X238411999Y-121846000D01*
X238387495Y-121844796D01*
X238363227Y-121841196D01*
X238339428Y-121835235D01*
X238316329Y-121826970D01*
X238294150Y-121816480D01*
X238273107Y-121803868D01*
X238253401Y-121789253D01*
X238235223Y-121772777D01*
X238218747Y-121754599D01*
X238204132Y-121734893D01*
X238191520Y-121713850D01*
X238181030Y-121691671D01*
X238172765Y-121668572D01*
X238166804Y-121644773D01*
X238163204Y-121620505D01*
X238162000Y-121596001D01*
X238162000Y-120945999D01*
X238163204Y-120921495D01*
X238166804Y-120897227D01*
X238172765Y-120873428D01*
X238181030Y-120850329D01*
X238191520Y-120828150D01*
X238204132Y-120807107D01*
X238218747Y-120787401D01*
X238235223Y-120769223D01*
X238253401Y-120752747D01*
X238273107Y-120738132D01*
X238294150Y-120725520D01*
X238316329Y-120715030D01*
X238339428Y-120706765D01*
X238363227Y-120700804D01*
X238387495Y-120697204D01*
X238411999Y-120696000D01*
X239312001Y-120696000D01*
X239336505Y-120697204D01*
G37*
%TD*%
%TO.C,D2002*%
G36*
X242892505Y-122747204D02*
G01*
X242916773Y-122750804D01*
X242940572Y-122756765D01*
X242963671Y-122765030D01*
X242985850Y-122775520D01*
X243006893Y-122788132D01*
X243026599Y-122802747D01*
X243044777Y-122819223D01*
X243061253Y-122837401D01*
X243075868Y-122857107D01*
X243088480Y-122878150D01*
X243098970Y-122900329D01*
X243107235Y-122923428D01*
X243113196Y-122947227D01*
X243116796Y-122971495D01*
X243118000Y-122995999D01*
X243118000Y-123646001D01*
X243116796Y-123670505D01*
X243113196Y-123694773D01*
X243107235Y-123718572D01*
X243098970Y-123741671D01*
X243088480Y-123763850D01*
X243075868Y-123784893D01*
X243061253Y-123804599D01*
X243044777Y-123822777D01*
X243026599Y-123839253D01*
X243006893Y-123853868D01*
X242985850Y-123866480D01*
X242963671Y-123876970D01*
X242940572Y-123885235D01*
X242916773Y-123891196D01*
X242892505Y-123894796D01*
X242868001Y-123896000D01*
X241967999Y-123896000D01*
X241943495Y-123894796D01*
X241919227Y-123891196D01*
X241895428Y-123885235D01*
X241872329Y-123876970D01*
X241850150Y-123866480D01*
X241829107Y-123853868D01*
X241809401Y-123839253D01*
X241791223Y-123822777D01*
X241774747Y-123804599D01*
X241760132Y-123784893D01*
X241747520Y-123763850D01*
X241737030Y-123741671D01*
X241728765Y-123718572D01*
X241722804Y-123694773D01*
X241719204Y-123670505D01*
X241718000Y-123646001D01*
X241718000Y-122995999D01*
X241719204Y-122971495D01*
X241722804Y-122947227D01*
X241728765Y-122923428D01*
X241737030Y-122900329D01*
X241747520Y-122878150D01*
X241760132Y-122857107D01*
X241774747Y-122837401D01*
X241791223Y-122819223D01*
X241809401Y-122802747D01*
X241829107Y-122788132D01*
X241850150Y-122775520D01*
X241872329Y-122765030D01*
X241895428Y-122756765D01*
X241919227Y-122750804D01*
X241943495Y-122747204D01*
X241967999Y-122746000D01*
X242868001Y-122746000D01*
X242892505Y-122747204D01*
G37*
G36*
X242892505Y-120697204D02*
G01*
X242916773Y-120700804D01*
X242940572Y-120706765D01*
X242963671Y-120715030D01*
X242985850Y-120725520D01*
X243006893Y-120738132D01*
X243026599Y-120752747D01*
X243044777Y-120769223D01*
X243061253Y-120787401D01*
X243075868Y-120807107D01*
X243088480Y-120828150D01*
X243098970Y-120850329D01*
X243107235Y-120873428D01*
X243113196Y-120897227D01*
X243116796Y-120921495D01*
X243118000Y-120945999D01*
X243118000Y-121596001D01*
X243116796Y-121620505D01*
X243113196Y-121644773D01*
X243107235Y-121668572D01*
X243098970Y-121691671D01*
X243088480Y-121713850D01*
X243075868Y-121734893D01*
X243061253Y-121754599D01*
X243044777Y-121772777D01*
X243026599Y-121789253D01*
X243006893Y-121803868D01*
X242985850Y-121816480D01*
X242963671Y-121826970D01*
X242940572Y-121835235D01*
X242916773Y-121841196D01*
X242892505Y-121844796D01*
X242868001Y-121846000D01*
X241967999Y-121846000D01*
X241943495Y-121844796D01*
X241919227Y-121841196D01*
X241895428Y-121835235D01*
X241872329Y-121826970D01*
X241850150Y-121816480D01*
X241829107Y-121803868D01*
X241809401Y-121789253D01*
X241791223Y-121772777D01*
X241774747Y-121754599D01*
X241760132Y-121734893D01*
X241747520Y-121713850D01*
X241737030Y-121691671D01*
X241728765Y-121668572D01*
X241722804Y-121644773D01*
X241719204Y-121620505D01*
X241718000Y-121596001D01*
X241718000Y-120945999D01*
X241719204Y-120921495D01*
X241722804Y-120897227D01*
X241728765Y-120873428D01*
X241737030Y-120850329D01*
X241747520Y-120828150D01*
X241760132Y-120807107D01*
X241774747Y-120787401D01*
X241791223Y-120769223D01*
X241809401Y-120752747D01*
X241829107Y-120738132D01*
X241850150Y-120725520D01*
X241872329Y-120715030D01*
X241895428Y-120706765D01*
X241919227Y-120700804D01*
X241943495Y-120697204D01*
X241967999Y-120696000D01*
X242868001Y-120696000D01*
X242892505Y-120697204D01*
G37*
%TD*%
%TO.C,D2001*%
G36*
X246448505Y-122747204D02*
G01*
X246472773Y-122750804D01*
X246496572Y-122756765D01*
X246519671Y-122765030D01*
X246541850Y-122775520D01*
X246562893Y-122788132D01*
X246582599Y-122802747D01*
X246600777Y-122819223D01*
X246617253Y-122837401D01*
X246631868Y-122857107D01*
X246644480Y-122878150D01*
X246654970Y-122900329D01*
X246663235Y-122923428D01*
X246669196Y-122947227D01*
X246672796Y-122971495D01*
X246674000Y-122995999D01*
X246674000Y-123646001D01*
X246672796Y-123670505D01*
X246669196Y-123694773D01*
X246663235Y-123718572D01*
X246654970Y-123741671D01*
X246644480Y-123763850D01*
X246631868Y-123784893D01*
X246617253Y-123804599D01*
X246600777Y-123822777D01*
X246582599Y-123839253D01*
X246562893Y-123853868D01*
X246541850Y-123866480D01*
X246519671Y-123876970D01*
X246496572Y-123885235D01*
X246472773Y-123891196D01*
X246448505Y-123894796D01*
X246424001Y-123896000D01*
X245523999Y-123896000D01*
X245499495Y-123894796D01*
X245475227Y-123891196D01*
X245451428Y-123885235D01*
X245428329Y-123876970D01*
X245406150Y-123866480D01*
X245385107Y-123853868D01*
X245365401Y-123839253D01*
X245347223Y-123822777D01*
X245330747Y-123804599D01*
X245316132Y-123784893D01*
X245303520Y-123763850D01*
X245293030Y-123741671D01*
X245284765Y-123718572D01*
X245278804Y-123694773D01*
X245275204Y-123670505D01*
X245274000Y-123646001D01*
X245274000Y-122995999D01*
X245275204Y-122971495D01*
X245278804Y-122947227D01*
X245284765Y-122923428D01*
X245293030Y-122900329D01*
X245303520Y-122878150D01*
X245316132Y-122857107D01*
X245330747Y-122837401D01*
X245347223Y-122819223D01*
X245365401Y-122802747D01*
X245385107Y-122788132D01*
X245406150Y-122775520D01*
X245428329Y-122765030D01*
X245451428Y-122756765D01*
X245475227Y-122750804D01*
X245499495Y-122747204D01*
X245523999Y-122746000D01*
X246424001Y-122746000D01*
X246448505Y-122747204D01*
G37*
G36*
X246448505Y-120697204D02*
G01*
X246472773Y-120700804D01*
X246496572Y-120706765D01*
X246519671Y-120715030D01*
X246541850Y-120725520D01*
X246562893Y-120738132D01*
X246582599Y-120752747D01*
X246600777Y-120769223D01*
X246617253Y-120787401D01*
X246631868Y-120807107D01*
X246644480Y-120828150D01*
X246654970Y-120850329D01*
X246663235Y-120873428D01*
X246669196Y-120897227D01*
X246672796Y-120921495D01*
X246674000Y-120945999D01*
X246674000Y-121596001D01*
X246672796Y-121620505D01*
X246669196Y-121644773D01*
X246663235Y-121668572D01*
X246654970Y-121691671D01*
X246644480Y-121713850D01*
X246631868Y-121734893D01*
X246617253Y-121754599D01*
X246600777Y-121772777D01*
X246582599Y-121789253D01*
X246562893Y-121803868D01*
X246541850Y-121816480D01*
X246519671Y-121826970D01*
X246496572Y-121835235D01*
X246472773Y-121841196D01*
X246448505Y-121844796D01*
X246424001Y-121846000D01*
X245523999Y-121846000D01*
X245499495Y-121844796D01*
X245475227Y-121841196D01*
X245451428Y-121835235D01*
X245428329Y-121826970D01*
X245406150Y-121816480D01*
X245385107Y-121803868D01*
X245365401Y-121789253D01*
X245347223Y-121772777D01*
X245330747Y-121754599D01*
X245316132Y-121734893D01*
X245303520Y-121713850D01*
X245293030Y-121691671D01*
X245284765Y-121668572D01*
X245278804Y-121644773D01*
X245275204Y-121620505D01*
X245274000Y-121596001D01*
X245274000Y-120945999D01*
X245275204Y-120921495D01*
X245278804Y-120897227D01*
X245284765Y-120873428D01*
X245293030Y-120850329D01*
X245303520Y-120828150D01*
X245316132Y-120807107D01*
X245330747Y-120787401D01*
X245347223Y-120769223D01*
X245365401Y-120752747D01*
X245385107Y-120738132D01*
X245406150Y-120725520D01*
X245428329Y-120715030D01*
X245451428Y-120706765D01*
X245475227Y-120700804D01*
X245499495Y-120697204D01*
X245523999Y-120696000D01*
X246424001Y-120696000D01*
X246448505Y-120697204D01*
G37*
%TD*%
%TO.C,C7008*%
G36*
X231360504Y-220896704D02*
G01*
X231384773Y-220900304D01*
X231408571Y-220906265D01*
X231431671Y-220914530D01*
X231453849Y-220925020D01*
X231474893Y-220937633D01*
X231494598Y-220952247D01*
X231512777Y-220968723D01*
X231529253Y-220986902D01*
X231543867Y-221006607D01*
X231556480Y-221027651D01*
X231566970Y-221049829D01*
X231575235Y-221072929D01*
X231581196Y-221096727D01*
X231584796Y-221120996D01*
X231586000Y-221145500D01*
X231586000Y-221820500D01*
X231584796Y-221845004D01*
X231581196Y-221869273D01*
X231575235Y-221893071D01*
X231566970Y-221916171D01*
X231556480Y-221938349D01*
X231543867Y-221959393D01*
X231529253Y-221979098D01*
X231512777Y-221997277D01*
X231494598Y-222013753D01*
X231474893Y-222028367D01*
X231453849Y-222040980D01*
X231431671Y-222051470D01*
X231408571Y-222059735D01*
X231384773Y-222065696D01*
X231360504Y-222069296D01*
X231336000Y-222070500D01*
X230386000Y-222070500D01*
X230361496Y-222069296D01*
X230337227Y-222065696D01*
X230313429Y-222059735D01*
X230290329Y-222051470D01*
X230268151Y-222040980D01*
X230247107Y-222028367D01*
X230227402Y-222013753D01*
X230209223Y-221997277D01*
X230192747Y-221979098D01*
X230178133Y-221959393D01*
X230165520Y-221938349D01*
X230155030Y-221916171D01*
X230146765Y-221893071D01*
X230140804Y-221869273D01*
X230137204Y-221845004D01*
X230136000Y-221820500D01*
X230136000Y-221145500D01*
X230137204Y-221120996D01*
X230140804Y-221096727D01*
X230146765Y-221072929D01*
X230155030Y-221049829D01*
X230165520Y-221027651D01*
X230178133Y-221006607D01*
X230192747Y-220986902D01*
X230209223Y-220968723D01*
X230227402Y-220952247D01*
X230247107Y-220937633D01*
X230268151Y-220925020D01*
X230290329Y-220914530D01*
X230313429Y-220906265D01*
X230337227Y-220900304D01*
X230361496Y-220896704D01*
X230386000Y-220895500D01*
X231336000Y-220895500D01*
X231360504Y-220896704D01*
G37*
G36*
X231360504Y-222971704D02*
G01*
X231384773Y-222975304D01*
X231408571Y-222981265D01*
X231431671Y-222989530D01*
X231453849Y-223000020D01*
X231474893Y-223012633D01*
X231494598Y-223027247D01*
X231512777Y-223043723D01*
X231529253Y-223061902D01*
X231543867Y-223081607D01*
X231556480Y-223102651D01*
X231566970Y-223124829D01*
X231575235Y-223147929D01*
X231581196Y-223171727D01*
X231584796Y-223195996D01*
X231586000Y-223220500D01*
X231586000Y-223895500D01*
X231584796Y-223920004D01*
X231581196Y-223944273D01*
X231575235Y-223968071D01*
X231566970Y-223991171D01*
X231556480Y-224013349D01*
X231543867Y-224034393D01*
X231529253Y-224054098D01*
X231512777Y-224072277D01*
X231494598Y-224088753D01*
X231474893Y-224103367D01*
X231453849Y-224115980D01*
X231431671Y-224126470D01*
X231408571Y-224134735D01*
X231384773Y-224140696D01*
X231360504Y-224144296D01*
X231336000Y-224145500D01*
X230386000Y-224145500D01*
X230361496Y-224144296D01*
X230337227Y-224140696D01*
X230313429Y-224134735D01*
X230290329Y-224126470D01*
X230268151Y-224115980D01*
X230247107Y-224103367D01*
X230227402Y-224088753D01*
X230209223Y-224072277D01*
X230192747Y-224054098D01*
X230178133Y-224034393D01*
X230165520Y-224013349D01*
X230155030Y-223991171D01*
X230146765Y-223968071D01*
X230140804Y-223944273D01*
X230137204Y-223920004D01*
X230136000Y-223895500D01*
X230136000Y-223220500D01*
X230137204Y-223195996D01*
X230140804Y-223171727D01*
X230146765Y-223147929D01*
X230155030Y-223124829D01*
X230165520Y-223102651D01*
X230178133Y-223081607D01*
X230192747Y-223061902D01*
X230209223Y-223043723D01*
X230227402Y-223027247D01*
X230247107Y-223012633D01*
X230268151Y-223000020D01*
X230290329Y-222989530D01*
X230313429Y-222981265D01*
X230337227Y-222975304D01*
X230361496Y-222971704D01*
X230386000Y-222970500D01*
X231336000Y-222970500D01*
X231360504Y-222971704D01*
G37*
%TD*%
%TO.C,C7007*%
G36*
X267174504Y-225892704D02*
G01*
X267198773Y-225896304D01*
X267222571Y-225902265D01*
X267245671Y-225910530D01*
X267267849Y-225921020D01*
X267288893Y-225933633D01*
X267308598Y-225948247D01*
X267326777Y-225964723D01*
X267343253Y-225982902D01*
X267357867Y-226002607D01*
X267370480Y-226023651D01*
X267380970Y-226045829D01*
X267389235Y-226068929D01*
X267395196Y-226092727D01*
X267398796Y-226116996D01*
X267400000Y-226141500D01*
X267400000Y-226816500D01*
X267398796Y-226841004D01*
X267395196Y-226865273D01*
X267389235Y-226889071D01*
X267380970Y-226912171D01*
X267370480Y-226934349D01*
X267357867Y-226955393D01*
X267343253Y-226975098D01*
X267326777Y-226993277D01*
X267308598Y-227009753D01*
X267288893Y-227024367D01*
X267267849Y-227036980D01*
X267245671Y-227047470D01*
X267222571Y-227055735D01*
X267198773Y-227061696D01*
X267174504Y-227065296D01*
X267150000Y-227066500D01*
X266200000Y-227066500D01*
X266175496Y-227065296D01*
X266151227Y-227061696D01*
X266127429Y-227055735D01*
X266104329Y-227047470D01*
X266082151Y-227036980D01*
X266061107Y-227024367D01*
X266041402Y-227009753D01*
X266023223Y-226993277D01*
X266006747Y-226975098D01*
X265992133Y-226955393D01*
X265979520Y-226934349D01*
X265969030Y-226912171D01*
X265960765Y-226889071D01*
X265954804Y-226865273D01*
X265951204Y-226841004D01*
X265950000Y-226816500D01*
X265950000Y-226141500D01*
X265951204Y-226116996D01*
X265954804Y-226092727D01*
X265960765Y-226068929D01*
X265969030Y-226045829D01*
X265979520Y-226023651D01*
X265992133Y-226002607D01*
X266006747Y-225982902D01*
X266023223Y-225964723D01*
X266041402Y-225948247D01*
X266061107Y-225933633D01*
X266082151Y-225921020D01*
X266104329Y-225910530D01*
X266127429Y-225902265D01*
X266151227Y-225896304D01*
X266175496Y-225892704D01*
X266200000Y-225891500D01*
X267150000Y-225891500D01*
X267174504Y-225892704D01*
G37*
G36*
X267174504Y-223817704D02*
G01*
X267198773Y-223821304D01*
X267222571Y-223827265D01*
X267245671Y-223835530D01*
X267267849Y-223846020D01*
X267288893Y-223858633D01*
X267308598Y-223873247D01*
X267326777Y-223889723D01*
X267343253Y-223907902D01*
X267357867Y-223927607D01*
X267370480Y-223948651D01*
X267380970Y-223970829D01*
X267389235Y-223993929D01*
X267395196Y-224017727D01*
X267398796Y-224041996D01*
X267400000Y-224066500D01*
X267400000Y-224741500D01*
X267398796Y-224766004D01*
X267395196Y-224790273D01*
X267389235Y-224814071D01*
X267380970Y-224837171D01*
X267370480Y-224859349D01*
X267357867Y-224880393D01*
X267343253Y-224900098D01*
X267326777Y-224918277D01*
X267308598Y-224934753D01*
X267288893Y-224949367D01*
X267267849Y-224961980D01*
X267245671Y-224972470D01*
X267222571Y-224980735D01*
X267198773Y-224986696D01*
X267174504Y-224990296D01*
X267150000Y-224991500D01*
X266200000Y-224991500D01*
X266175496Y-224990296D01*
X266151227Y-224986696D01*
X266127429Y-224980735D01*
X266104329Y-224972470D01*
X266082151Y-224961980D01*
X266061107Y-224949367D01*
X266041402Y-224934753D01*
X266023223Y-224918277D01*
X266006747Y-224900098D01*
X265992133Y-224880393D01*
X265979520Y-224859349D01*
X265969030Y-224837171D01*
X265960765Y-224814071D01*
X265954804Y-224790273D01*
X265951204Y-224766004D01*
X265950000Y-224741500D01*
X265950000Y-224066500D01*
X265951204Y-224041996D01*
X265954804Y-224017727D01*
X265960765Y-223993929D01*
X265969030Y-223970829D01*
X265979520Y-223948651D01*
X265992133Y-223927607D01*
X266006747Y-223907902D01*
X266023223Y-223889723D01*
X266041402Y-223873247D01*
X266061107Y-223858633D01*
X266082151Y-223846020D01*
X266104329Y-223835530D01*
X266127429Y-223827265D01*
X266151227Y-223821304D01*
X266175496Y-223817704D01*
X266200000Y-223816500D01*
X267150000Y-223816500D01*
X267174504Y-223817704D01*
G37*
%TD*%
%TO.C,C7006*%
G36*
X260316504Y-225638704D02*
G01*
X260340773Y-225642304D01*
X260364571Y-225648265D01*
X260387671Y-225656530D01*
X260409849Y-225667020D01*
X260430893Y-225679633D01*
X260450598Y-225694247D01*
X260468777Y-225710723D01*
X260485253Y-225728902D01*
X260499867Y-225748607D01*
X260512480Y-225769651D01*
X260522970Y-225791829D01*
X260531235Y-225814929D01*
X260537196Y-225838727D01*
X260540796Y-225862996D01*
X260542000Y-225887500D01*
X260542000Y-226562500D01*
X260540796Y-226587004D01*
X260537196Y-226611273D01*
X260531235Y-226635071D01*
X260522970Y-226658171D01*
X260512480Y-226680349D01*
X260499867Y-226701393D01*
X260485253Y-226721098D01*
X260468777Y-226739277D01*
X260450598Y-226755753D01*
X260430893Y-226770367D01*
X260409849Y-226782980D01*
X260387671Y-226793470D01*
X260364571Y-226801735D01*
X260340773Y-226807696D01*
X260316504Y-226811296D01*
X260292000Y-226812500D01*
X259342000Y-226812500D01*
X259317496Y-226811296D01*
X259293227Y-226807696D01*
X259269429Y-226801735D01*
X259246329Y-226793470D01*
X259224151Y-226782980D01*
X259203107Y-226770367D01*
X259183402Y-226755753D01*
X259165223Y-226739277D01*
X259148747Y-226721098D01*
X259134133Y-226701393D01*
X259121520Y-226680349D01*
X259111030Y-226658171D01*
X259102765Y-226635071D01*
X259096804Y-226611273D01*
X259093204Y-226587004D01*
X259092000Y-226562500D01*
X259092000Y-225887500D01*
X259093204Y-225862996D01*
X259096804Y-225838727D01*
X259102765Y-225814929D01*
X259111030Y-225791829D01*
X259121520Y-225769651D01*
X259134133Y-225748607D01*
X259148747Y-225728902D01*
X259165223Y-225710723D01*
X259183402Y-225694247D01*
X259203107Y-225679633D01*
X259224151Y-225667020D01*
X259246329Y-225656530D01*
X259269429Y-225648265D01*
X259293227Y-225642304D01*
X259317496Y-225638704D01*
X259342000Y-225637500D01*
X260292000Y-225637500D01*
X260316504Y-225638704D01*
G37*
G36*
X260316504Y-223563704D02*
G01*
X260340773Y-223567304D01*
X260364571Y-223573265D01*
X260387671Y-223581530D01*
X260409849Y-223592020D01*
X260430893Y-223604633D01*
X260450598Y-223619247D01*
X260468777Y-223635723D01*
X260485253Y-223653902D01*
X260499867Y-223673607D01*
X260512480Y-223694651D01*
X260522970Y-223716829D01*
X260531235Y-223739929D01*
X260537196Y-223763727D01*
X260540796Y-223787996D01*
X260542000Y-223812500D01*
X260542000Y-224487500D01*
X260540796Y-224512004D01*
X260537196Y-224536273D01*
X260531235Y-224560071D01*
X260522970Y-224583171D01*
X260512480Y-224605349D01*
X260499867Y-224626393D01*
X260485253Y-224646098D01*
X260468777Y-224664277D01*
X260450598Y-224680753D01*
X260430893Y-224695367D01*
X260409849Y-224707980D01*
X260387671Y-224718470D01*
X260364571Y-224726735D01*
X260340773Y-224732696D01*
X260316504Y-224736296D01*
X260292000Y-224737500D01*
X259342000Y-224737500D01*
X259317496Y-224736296D01*
X259293227Y-224732696D01*
X259269429Y-224726735D01*
X259246329Y-224718470D01*
X259224151Y-224707980D01*
X259203107Y-224695367D01*
X259183402Y-224680753D01*
X259165223Y-224664277D01*
X259148747Y-224646098D01*
X259134133Y-224626393D01*
X259121520Y-224605349D01*
X259111030Y-224583171D01*
X259102765Y-224560071D01*
X259096804Y-224536273D01*
X259093204Y-224512004D01*
X259092000Y-224487500D01*
X259092000Y-223812500D01*
X259093204Y-223787996D01*
X259096804Y-223763727D01*
X259102765Y-223739929D01*
X259111030Y-223716829D01*
X259121520Y-223694651D01*
X259134133Y-223673607D01*
X259148747Y-223653902D01*
X259165223Y-223635723D01*
X259183402Y-223619247D01*
X259203107Y-223604633D01*
X259224151Y-223592020D01*
X259246329Y-223581530D01*
X259269429Y-223573265D01*
X259293227Y-223567304D01*
X259317496Y-223563704D01*
X259342000Y-223562500D01*
X260292000Y-223562500D01*
X260316504Y-223563704D01*
G37*
%TD*%
%TO.C,C7005*%
G36*
X247616504Y-218567704D02*
G01*
X247640773Y-218571304D01*
X247664571Y-218577265D01*
X247687671Y-218585530D01*
X247709849Y-218596020D01*
X247730893Y-218608633D01*
X247750598Y-218623247D01*
X247768777Y-218639723D01*
X247785253Y-218657902D01*
X247799867Y-218677607D01*
X247812480Y-218698651D01*
X247822970Y-218720829D01*
X247831235Y-218743929D01*
X247837196Y-218767727D01*
X247840796Y-218791996D01*
X247842000Y-218816500D01*
X247842000Y-219491500D01*
X247840796Y-219516004D01*
X247837196Y-219540273D01*
X247831235Y-219564071D01*
X247822970Y-219587171D01*
X247812480Y-219609349D01*
X247799867Y-219630393D01*
X247785253Y-219650098D01*
X247768777Y-219668277D01*
X247750598Y-219684753D01*
X247730893Y-219699367D01*
X247709849Y-219711980D01*
X247687671Y-219722470D01*
X247664571Y-219730735D01*
X247640773Y-219736696D01*
X247616504Y-219740296D01*
X247592000Y-219741500D01*
X246642000Y-219741500D01*
X246617496Y-219740296D01*
X246593227Y-219736696D01*
X246569429Y-219730735D01*
X246546329Y-219722470D01*
X246524151Y-219711980D01*
X246503107Y-219699367D01*
X246483402Y-219684753D01*
X246465223Y-219668277D01*
X246448747Y-219650098D01*
X246434133Y-219630393D01*
X246421520Y-219609349D01*
X246411030Y-219587171D01*
X246402765Y-219564071D01*
X246396804Y-219540273D01*
X246393204Y-219516004D01*
X246392000Y-219491500D01*
X246392000Y-218816500D01*
X246393204Y-218791996D01*
X246396804Y-218767727D01*
X246402765Y-218743929D01*
X246411030Y-218720829D01*
X246421520Y-218698651D01*
X246434133Y-218677607D01*
X246448747Y-218657902D01*
X246465223Y-218639723D01*
X246483402Y-218623247D01*
X246503107Y-218608633D01*
X246524151Y-218596020D01*
X246546329Y-218585530D01*
X246569429Y-218577265D01*
X246593227Y-218571304D01*
X246617496Y-218567704D01*
X246642000Y-218566500D01*
X247592000Y-218566500D01*
X247616504Y-218567704D01*
G37*
G36*
X247616504Y-220642704D02*
G01*
X247640773Y-220646304D01*
X247664571Y-220652265D01*
X247687671Y-220660530D01*
X247709849Y-220671020D01*
X247730893Y-220683633D01*
X247750598Y-220698247D01*
X247768777Y-220714723D01*
X247785253Y-220732902D01*
X247799867Y-220752607D01*
X247812480Y-220773651D01*
X247822970Y-220795829D01*
X247831235Y-220818929D01*
X247837196Y-220842727D01*
X247840796Y-220866996D01*
X247842000Y-220891500D01*
X247842000Y-221566500D01*
X247840796Y-221591004D01*
X247837196Y-221615273D01*
X247831235Y-221639071D01*
X247822970Y-221662171D01*
X247812480Y-221684349D01*
X247799867Y-221705393D01*
X247785253Y-221725098D01*
X247768777Y-221743277D01*
X247750598Y-221759753D01*
X247730893Y-221774367D01*
X247709849Y-221786980D01*
X247687671Y-221797470D01*
X247664571Y-221805735D01*
X247640773Y-221811696D01*
X247616504Y-221815296D01*
X247592000Y-221816500D01*
X246642000Y-221816500D01*
X246617496Y-221815296D01*
X246593227Y-221811696D01*
X246569429Y-221805735D01*
X246546329Y-221797470D01*
X246524151Y-221786980D01*
X246503107Y-221774367D01*
X246483402Y-221759753D01*
X246465223Y-221743277D01*
X246448747Y-221725098D01*
X246434133Y-221705393D01*
X246421520Y-221684349D01*
X246411030Y-221662171D01*
X246402765Y-221639071D01*
X246396804Y-221615273D01*
X246393204Y-221591004D01*
X246392000Y-221566500D01*
X246392000Y-220891500D01*
X246393204Y-220866996D01*
X246396804Y-220842727D01*
X246402765Y-220818929D01*
X246411030Y-220795829D01*
X246421520Y-220773651D01*
X246434133Y-220752607D01*
X246448747Y-220732902D01*
X246465223Y-220714723D01*
X246483402Y-220698247D01*
X246503107Y-220683633D01*
X246524151Y-220671020D01*
X246546329Y-220660530D01*
X246569429Y-220652265D01*
X246593227Y-220646304D01*
X246617496Y-220642704D01*
X246642000Y-220641500D01*
X247592000Y-220641500D01*
X247616504Y-220642704D01*
G37*
%TD*%
%TO.C,C7004*%
G36*
X249775504Y-218567704D02*
G01*
X249799773Y-218571304D01*
X249823571Y-218577265D01*
X249846671Y-218585530D01*
X249868849Y-218596020D01*
X249889893Y-218608633D01*
X249909598Y-218623247D01*
X249927777Y-218639723D01*
X249944253Y-218657902D01*
X249958867Y-218677607D01*
X249971480Y-218698651D01*
X249981970Y-218720829D01*
X249990235Y-218743929D01*
X249996196Y-218767727D01*
X249999796Y-218791996D01*
X250001000Y-218816500D01*
X250001000Y-219491500D01*
X249999796Y-219516004D01*
X249996196Y-219540273D01*
X249990235Y-219564071D01*
X249981970Y-219587171D01*
X249971480Y-219609349D01*
X249958867Y-219630393D01*
X249944253Y-219650098D01*
X249927777Y-219668277D01*
X249909598Y-219684753D01*
X249889893Y-219699367D01*
X249868849Y-219711980D01*
X249846671Y-219722470D01*
X249823571Y-219730735D01*
X249799773Y-219736696D01*
X249775504Y-219740296D01*
X249751000Y-219741500D01*
X248801000Y-219741500D01*
X248776496Y-219740296D01*
X248752227Y-219736696D01*
X248728429Y-219730735D01*
X248705329Y-219722470D01*
X248683151Y-219711980D01*
X248662107Y-219699367D01*
X248642402Y-219684753D01*
X248624223Y-219668277D01*
X248607747Y-219650098D01*
X248593133Y-219630393D01*
X248580520Y-219609349D01*
X248570030Y-219587171D01*
X248561765Y-219564071D01*
X248555804Y-219540273D01*
X248552204Y-219516004D01*
X248551000Y-219491500D01*
X248551000Y-218816500D01*
X248552204Y-218791996D01*
X248555804Y-218767727D01*
X248561765Y-218743929D01*
X248570030Y-218720829D01*
X248580520Y-218698651D01*
X248593133Y-218677607D01*
X248607747Y-218657902D01*
X248624223Y-218639723D01*
X248642402Y-218623247D01*
X248662107Y-218608633D01*
X248683151Y-218596020D01*
X248705329Y-218585530D01*
X248728429Y-218577265D01*
X248752227Y-218571304D01*
X248776496Y-218567704D01*
X248801000Y-218566500D01*
X249751000Y-218566500D01*
X249775504Y-218567704D01*
G37*
G36*
X249775504Y-220642704D02*
G01*
X249799773Y-220646304D01*
X249823571Y-220652265D01*
X249846671Y-220660530D01*
X249868849Y-220671020D01*
X249889893Y-220683633D01*
X249909598Y-220698247D01*
X249927777Y-220714723D01*
X249944253Y-220732902D01*
X249958867Y-220752607D01*
X249971480Y-220773651D01*
X249981970Y-220795829D01*
X249990235Y-220818929D01*
X249996196Y-220842727D01*
X249999796Y-220866996D01*
X250001000Y-220891500D01*
X250001000Y-221566500D01*
X249999796Y-221591004D01*
X249996196Y-221615273D01*
X249990235Y-221639071D01*
X249981970Y-221662171D01*
X249971480Y-221684349D01*
X249958867Y-221705393D01*
X249944253Y-221725098D01*
X249927777Y-221743277D01*
X249909598Y-221759753D01*
X249889893Y-221774367D01*
X249868849Y-221786980D01*
X249846671Y-221797470D01*
X249823571Y-221805735D01*
X249799773Y-221811696D01*
X249775504Y-221815296D01*
X249751000Y-221816500D01*
X248801000Y-221816500D01*
X248776496Y-221815296D01*
X248752227Y-221811696D01*
X248728429Y-221805735D01*
X248705329Y-221797470D01*
X248683151Y-221786980D01*
X248662107Y-221774367D01*
X248642402Y-221759753D01*
X248624223Y-221743277D01*
X248607747Y-221725098D01*
X248593133Y-221705393D01*
X248580520Y-221684349D01*
X248570030Y-221662171D01*
X248561765Y-221639071D01*
X248555804Y-221615273D01*
X248552204Y-221591004D01*
X248551000Y-221566500D01*
X248551000Y-220891500D01*
X248552204Y-220866996D01*
X248555804Y-220842727D01*
X248561765Y-220818929D01*
X248570030Y-220795829D01*
X248580520Y-220773651D01*
X248593133Y-220752607D01*
X248607747Y-220732902D01*
X248624223Y-220714723D01*
X248642402Y-220698247D01*
X248662107Y-220683633D01*
X248683151Y-220671020D01*
X248705329Y-220660530D01*
X248728429Y-220652265D01*
X248752227Y-220646304D01*
X248776496Y-220642704D01*
X248801000Y-220641500D01*
X249751000Y-220641500D01*
X249775504Y-220642704D01*
G37*
%TD*%
%TO.C,C7003*%
G36*
X243118004Y-223299204D02*
G01*
X243142273Y-223302804D01*
X243166071Y-223308765D01*
X243189171Y-223317030D01*
X243211349Y-223327520D01*
X243232393Y-223340133D01*
X243252098Y-223354747D01*
X243270277Y-223371223D01*
X243286753Y-223389402D01*
X243301367Y-223409107D01*
X243313980Y-223430151D01*
X243324470Y-223452329D01*
X243332735Y-223475429D01*
X243338696Y-223499227D01*
X243342296Y-223523496D01*
X243343500Y-223548000D01*
X243343500Y-224498000D01*
X243342296Y-224522504D01*
X243338696Y-224546773D01*
X243332735Y-224570571D01*
X243324470Y-224593671D01*
X243313980Y-224615849D01*
X243301367Y-224636893D01*
X243286753Y-224656598D01*
X243270277Y-224674777D01*
X243252098Y-224691253D01*
X243232393Y-224705867D01*
X243211349Y-224718480D01*
X243189171Y-224728970D01*
X243166071Y-224737235D01*
X243142273Y-224743196D01*
X243118004Y-224746796D01*
X243093500Y-224748000D01*
X242418500Y-224748000D01*
X242393996Y-224746796D01*
X242369727Y-224743196D01*
X242345929Y-224737235D01*
X242322829Y-224728970D01*
X242300651Y-224718480D01*
X242279607Y-224705867D01*
X242259902Y-224691253D01*
X242241723Y-224674777D01*
X242225247Y-224656598D01*
X242210633Y-224636893D01*
X242198020Y-224615849D01*
X242187530Y-224593671D01*
X242179265Y-224570571D01*
X242173304Y-224546773D01*
X242169704Y-224522504D01*
X242168500Y-224498000D01*
X242168500Y-223548000D01*
X242169704Y-223523496D01*
X242173304Y-223499227D01*
X242179265Y-223475429D01*
X242187530Y-223452329D01*
X242198020Y-223430151D01*
X242210633Y-223409107D01*
X242225247Y-223389402D01*
X242241723Y-223371223D01*
X242259902Y-223354747D01*
X242279607Y-223340133D01*
X242300651Y-223327520D01*
X242322829Y-223317030D01*
X242345929Y-223308765D01*
X242369727Y-223302804D01*
X242393996Y-223299204D01*
X242418500Y-223298000D01*
X243093500Y-223298000D01*
X243118004Y-223299204D01*
G37*
G36*
X245193004Y-223299204D02*
G01*
X245217273Y-223302804D01*
X245241071Y-223308765D01*
X245264171Y-223317030D01*
X245286349Y-223327520D01*
X245307393Y-223340133D01*
X245327098Y-223354747D01*
X245345277Y-223371223D01*
X245361753Y-223389402D01*
X245376367Y-223409107D01*
X245388980Y-223430151D01*
X245399470Y-223452329D01*
X245407735Y-223475429D01*
X245413696Y-223499227D01*
X245417296Y-223523496D01*
X245418500Y-223548000D01*
X245418500Y-224498000D01*
X245417296Y-224522504D01*
X245413696Y-224546773D01*
X245407735Y-224570571D01*
X245399470Y-224593671D01*
X245388980Y-224615849D01*
X245376367Y-224636893D01*
X245361753Y-224656598D01*
X245345277Y-224674777D01*
X245327098Y-224691253D01*
X245307393Y-224705867D01*
X245286349Y-224718480D01*
X245264171Y-224728970D01*
X245241071Y-224737235D01*
X245217273Y-224743196D01*
X245193004Y-224746796D01*
X245168500Y-224748000D01*
X244493500Y-224748000D01*
X244468996Y-224746796D01*
X244444727Y-224743196D01*
X244420929Y-224737235D01*
X244397829Y-224728970D01*
X244375651Y-224718480D01*
X244354607Y-224705867D01*
X244334902Y-224691253D01*
X244316723Y-224674777D01*
X244300247Y-224656598D01*
X244285633Y-224636893D01*
X244273020Y-224615849D01*
X244262530Y-224593671D01*
X244254265Y-224570571D01*
X244248304Y-224546773D01*
X244244704Y-224522504D01*
X244243500Y-224498000D01*
X244243500Y-223548000D01*
X244244704Y-223523496D01*
X244248304Y-223499227D01*
X244254265Y-223475429D01*
X244262530Y-223452329D01*
X244273020Y-223430151D01*
X244285633Y-223409107D01*
X244300247Y-223389402D01*
X244316723Y-223371223D01*
X244334902Y-223354747D01*
X244354607Y-223340133D01*
X244375651Y-223327520D01*
X244397829Y-223317030D01*
X244420929Y-223308765D01*
X244444727Y-223302804D01*
X244468996Y-223299204D01*
X244493500Y-223298000D01*
X245168500Y-223298000D01*
X245193004Y-223299204D01*
G37*
%TD*%
%TO.C,C7002*%
G36*
X245457504Y-218567704D02*
G01*
X245481773Y-218571304D01*
X245505571Y-218577265D01*
X245528671Y-218585530D01*
X245550849Y-218596020D01*
X245571893Y-218608633D01*
X245591598Y-218623247D01*
X245609777Y-218639723D01*
X245626253Y-218657902D01*
X245640867Y-218677607D01*
X245653480Y-218698651D01*
X245663970Y-218720829D01*
X245672235Y-218743929D01*
X245678196Y-218767727D01*
X245681796Y-218791996D01*
X245683000Y-218816500D01*
X245683000Y-219491500D01*
X245681796Y-219516004D01*
X245678196Y-219540273D01*
X245672235Y-219564071D01*
X245663970Y-219587171D01*
X245653480Y-219609349D01*
X245640867Y-219630393D01*
X245626253Y-219650098D01*
X245609777Y-219668277D01*
X245591598Y-219684753D01*
X245571893Y-219699367D01*
X245550849Y-219711980D01*
X245528671Y-219722470D01*
X245505571Y-219730735D01*
X245481773Y-219736696D01*
X245457504Y-219740296D01*
X245433000Y-219741500D01*
X244483000Y-219741500D01*
X244458496Y-219740296D01*
X244434227Y-219736696D01*
X244410429Y-219730735D01*
X244387329Y-219722470D01*
X244365151Y-219711980D01*
X244344107Y-219699367D01*
X244324402Y-219684753D01*
X244306223Y-219668277D01*
X244289747Y-219650098D01*
X244275133Y-219630393D01*
X244262520Y-219609349D01*
X244252030Y-219587171D01*
X244243765Y-219564071D01*
X244237804Y-219540273D01*
X244234204Y-219516004D01*
X244233000Y-219491500D01*
X244233000Y-218816500D01*
X244234204Y-218791996D01*
X244237804Y-218767727D01*
X244243765Y-218743929D01*
X244252030Y-218720829D01*
X244262520Y-218698651D01*
X244275133Y-218677607D01*
X244289747Y-218657902D01*
X244306223Y-218639723D01*
X244324402Y-218623247D01*
X244344107Y-218608633D01*
X244365151Y-218596020D01*
X244387329Y-218585530D01*
X244410429Y-218577265D01*
X244434227Y-218571304D01*
X244458496Y-218567704D01*
X244483000Y-218566500D01*
X245433000Y-218566500D01*
X245457504Y-218567704D01*
G37*
G36*
X245457504Y-220642704D02*
G01*
X245481773Y-220646304D01*
X245505571Y-220652265D01*
X245528671Y-220660530D01*
X245550849Y-220671020D01*
X245571893Y-220683633D01*
X245591598Y-220698247D01*
X245609777Y-220714723D01*
X245626253Y-220732902D01*
X245640867Y-220752607D01*
X245653480Y-220773651D01*
X245663970Y-220795829D01*
X245672235Y-220818929D01*
X245678196Y-220842727D01*
X245681796Y-220866996D01*
X245683000Y-220891500D01*
X245683000Y-221566500D01*
X245681796Y-221591004D01*
X245678196Y-221615273D01*
X245672235Y-221639071D01*
X245663970Y-221662171D01*
X245653480Y-221684349D01*
X245640867Y-221705393D01*
X245626253Y-221725098D01*
X245609777Y-221743277D01*
X245591598Y-221759753D01*
X245571893Y-221774367D01*
X245550849Y-221786980D01*
X245528671Y-221797470D01*
X245505571Y-221805735D01*
X245481773Y-221811696D01*
X245457504Y-221815296D01*
X245433000Y-221816500D01*
X244483000Y-221816500D01*
X244458496Y-221815296D01*
X244434227Y-221811696D01*
X244410429Y-221805735D01*
X244387329Y-221797470D01*
X244365151Y-221786980D01*
X244344107Y-221774367D01*
X244324402Y-221759753D01*
X244306223Y-221743277D01*
X244289747Y-221725098D01*
X244275133Y-221705393D01*
X244262520Y-221684349D01*
X244252030Y-221662171D01*
X244243765Y-221639071D01*
X244237804Y-221615273D01*
X244234204Y-221591004D01*
X244233000Y-221566500D01*
X244233000Y-220891500D01*
X244234204Y-220866996D01*
X244237804Y-220842727D01*
X244243765Y-220818929D01*
X244252030Y-220795829D01*
X244262520Y-220773651D01*
X244275133Y-220752607D01*
X244289747Y-220732902D01*
X244306223Y-220714723D01*
X244324402Y-220698247D01*
X244344107Y-220683633D01*
X244365151Y-220671020D01*
X244387329Y-220660530D01*
X244410429Y-220652265D01*
X244434227Y-220646304D01*
X244458496Y-220642704D01*
X244483000Y-220641500D01*
X245433000Y-220641500D01*
X245457504Y-220642704D01*
G37*
%TD*%
%TO.C,C7001*%
G36*
X252696504Y-220642704D02*
G01*
X252720773Y-220646304D01*
X252744571Y-220652265D01*
X252767671Y-220660530D01*
X252789849Y-220671020D01*
X252810893Y-220683633D01*
X252830598Y-220698247D01*
X252848777Y-220714723D01*
X252865253Y-220732902D01*
X252879867Y-220752607D01*
X252892480Y-220773651D01*
X252902970Y-220795829D01*
X252911235Y-220818929D01*
X252917196Y-220842727D01*
X252920796Y-220866996D01*
X252922000Y-220891500D01*
X252922000Y-221566500D01*
X252920796Y-221591004D01*
X252917196Y-221615273D01*
X252911235Y-221639071D01*
X252902970Y-221662171D01*
X252892480Y-221684349D01*
X252879867Y-221705393D01*
X252865253Y-221725098D01*
X252848777Y-221743277D01*
X252830598Y-221759753D01*
X252810893Y-221774367D01*
X252789849Y-221786980D01*
X252767671Y-221797470D01*
X252744571Y-221805735D01*
X252720773Y-221811696D01*
X252696504Y-221815296D01*
X252672000Y-221816500D01*
X251722000Y-221816500D01*
X251697496Y-221815296D01*
X251673227Y-221811696D01*
X251649429Y-221805735D01*
X251626329Y-221797470D01*
X251604151Y-221786980D01*
X251583107Y-221774367D01*
X251563402Y-221759753D01*
X251545223Y-221743277D01*
X251528747Y-221725098D01*
X251514133Y-221705393D01*
X251501520Y-221684349D01*
X251491030Y-221662171D01*
X251482765Y-221639071D01*
X251476804Y-221615273D01*
X251473204Y-221591004D01*
X251472000Y-221566500D01*
X251472000Y-220891500D01*
X251473204Y-220866996D01*
X251476804Y-220842727D01*
X251482765Y-220818929D01*
X251491030Y-220795829D01*
X251501520Y-220773651D01*
X251514133Y-220752607D01*
X251528747Y-220732902D01*
X251545223Y-220714723D01*
X251563402Y-220698247D01*
X251583107Y-220683633D01*
X251604151Y-220671020D01*
X251626329Y-220660530D01*
X251649429Y-220652265D01*
X251673227Y-220646304D01*
X251697496Y-220642704D01*
X251722000Y-220641500D01*
X252672000Y-220641500D01*
X252696504Y-220642704D01*
G37*
G36*
X252696504Y-218567704D02*
G01*
X252720773Y-218571304D01*
X252744571Y-218577265D01*
X252767671Y-218585530D01*
X252789849Y-218596020D01*
X252810893Y-218608633D01*
X252830598Y-218623247D01*
X252848777Y-218639723D01*
X252865253Y-218657902D01*
X252879867Y-218677607D01*
X252892480Y-218698651D01*
X252902970Y-218720829D01*
X252911235Y-218743929D01*
X252917196Y-218767727D01*
X252920796Y-218791996D01*
X252922000Y-218816500D01*
X252922000Y-219491500D01*
X252920796Y-219516004D01*
X252917196Y-219540273D01*
X252911235Y-219564071D01*
X252902970Y-219587171D01*
X252892480Y-219609349D01*
X252879867Y-219630393D01*
X252865253Y-219650098D01*
X252848777Y-219668277D01*
X252830598Y-219684753D01*
X252810893Y-219699367D01*
X252789849Y-219711980D01*
X252767671Y-219722470D01*
X252744571Y-219730735D01*
X252720773Y-219736696D01*
X252696504Y-219740296D01*
X252672000Y-219741500D01*
X251722000Y-219741500D01*
X251697496Y-219740296D01*
X251673227Y-219736696D01*
X251649429Y-219730735D01*
X251626329Y-219722470D01*
X251604151Y-219711980D01*
X251583107Y-219699367D01*
X251563402Y-219684753D01*
X251545223Y-219668277D01*
X251528747Y-219650098D01*
X251514133Y-219630393D01*
X251501520Y-219609349D01*
X251491030Y-219587171D01*
X251482765Y-219564071D01*
X251476804Y-219540273D01*
X251473204Y-219516004D01*
X251472000Y-219491500D01*
X251472000Y-218816500D01*
X251473204Y-218791996D01*
X251476804Y-218767727D01*
X251482765Y-218743929D01*
X251491030Y-218720829D01*
X251501520Y-218698651D01*
X251514133Y-218677607D01*
X251528747Y-218657902D01*
X251545223Y-218639723D01*
X251563402Y-218623247D01*
X251583107Y-218608633D01*
X251604151Y-218596020D01*
X251626329Y-218585530D01*
X251649429Y-218577265D01*
X251673227Y-218571304D01*
X251697496Y-218567704D01*
X251722000Y-218566500D01*
X252672000Y-218566500D01*
X252696504Y-218567704D01*
G37*
%TD*%
%TO.C,C1*%
G36*
X212173004Y-171102204D02*
G01*
X212197273Y-171105804D01*
X212221071Y-171111765D01*
X212244171Y-171120030D01*
X212266349Y-171130520D01*
X212287393Y-171143133D01*
X212307098Y-171157747D01*
X212325277Y-171174223D01*
X212341753Y-171192402D01*
X212356367Y-171212107D01*
X212368980Y-171233151D01*
X212379470Y-171255329D01*
X212387735Y-171278429D01*
X212393696Y-171302227D01*
X212397296Y-171326496D01*
X212398500Y-171351000D01*
X212398500Y-172301000D01*
X212397296Y-172325504D01*
X212393696Y-172349773D01*
X212387735Y-172373571D01*
X212379470Y-172396671D01*
X212368980Y-172418849D01*
X212356367Y-172439893D01*
X212341753Y-172459598D01*
X212325277Y-172477777D01*
X212307098Y-172494253D01*
X212287393Y-172508867D01*
X212266349Y-172521480D01*
X212244171Y-172531970D01*
X212221071Y-172540235D01*
X212197273Y-172546196D01*
X212173004Y-172549796D01*
X212148500Y-172551000D01*
X211473500Y-172551000D01*
X211448996Y-172549796D01*
X211424727Y-172546196D01*
X211400929Y-172540235D01*
X211377829Y-172531970D01*
X211355651Y-172521480D01*
X211334607Y-172508867D01*
X211314902Y-172494253D01*
X211296723Y-172477777D01*
X211280247Y-172459598D01*
X211265633Y-172439893D01*
X211253020Y-172418849D01*
X211242530Y-172396671D01*
X211234265Y-172373571D01*
X211228304Y-172349773D01*
X211224704Y-172325504D01*
X211223500Y-172301000D01*
X211223500Y-171351000D01*
X211224704Y-171326496D01*
X211228304Y-171302227D01*
X211234265Y-171278429D01*
X211242530Y-171255329D01*
X211253020Y-171233151D01*
X211265633Y-171212107D01*
X211280247Y-171192402D01*
X211296723Y-171174223D01*
X211314902Y-171157747D01*
X211334607Y-171143133D01*
X211355651Y-171130520D01*
X211377829Y-171120030D01*
X211400929Y-171111765D01*
X211424727Y-171105804D01*
X211448996Y-171102204D01*
X211473500Y-171101000D01*
X212148500Y-171101000D01*
X212173004Y-171102204D01*
G37*
G36*
X214248004Y-171102204D02*
G01*
X214272273Y-171105804D01*
X214296071Y-171111765D01*
X214319171Y-171120030D01*
X214341349Y-171130520D01*
X214362393Y-171143133D01*
X214382098Y-171157747D01*
X214400277Y-171174223D01*
X214416753Y-171192402D01*
X214431367Y-171212107D01*
X214443980Y-171233151D01*
X214454470Y-171255329D01*
X214462735Y-171278429D01*
X214468696Y-171302227D01*
X214472296Y-171326496D01*
X214473500Y-171351000D01*
X214473500Y-172301000D01*
X214472296Y-172325504D01*
X214468696Y-172349773D01*
X214462735Y-172373571D01*
X214454470Y-172396671D01*
X214443980Y-172418849D01*
X214431367Y-172439893D01*
X214416753Y-172459598D01*
X214400277Y-172477777D01*
X214382098Y-172494253D01*
X214362393Y-172508867D01*
X214341349Y-172521480D01*
X214319171Y-172531970D01*
X214296071Y-172540235D01*
X214272273Y-172546196D01*
X214248004Y-172549796D01*
X214223500Y-172551000D01*
X213548500Y-172551000D01*
X213523996Y-172549796D01*
X213499727Y-172546196D01*
X213475929Y-172540235D01*
X213452829Y-172531970D01*
X213430651Y-172521480D01*
X213409607Y-172508867D01*
X213389902Y-172494253D01*
X213371723Y-172477777D01*
X213355247Y-172459598D01*
X213340633Y-172439893D01*
X213328020Y-172418849D01*
X213317530Y-172396671D01*
X213309265Y-172373571D01*
X213303304Y-172349773D01*
X213299704Y-172325504D01*
X213298500Y-172301000D01*
X213298500Y-171351000D01*
X213299704Y-171326496D01*
X213303304Y-171302227D01*
X213309265Y-171278429D01*
X213317530Y-171255329D01*
X213328020Y-171233151D01*
X213340633Y-171212107D01*
X213355247Y-171192402D01*
X213371723Y-171174223D01*
X213389902Y-171157747D01*
X213409607Y-171143133D01*
X213430651Y-171130520D01*
X213452829Y-171120030D01*
X213475929Y-171111765D01*
X213499727Y-171105804D01*
X213523996Y-171102204D01*
X213548500Y-171101000D01*
X214223500Y-171101000D01*
X214248004Y-171102204D01*
G37*
%TD*%
D23*
%TO.C,U5001*%
X284470000Y-89530000D03*
X284470000Y-92070000D03*
X284470000Y-100960000D03*
X284470000Y-98420000D03*
X269200000Y-92070000D03*
X269200000Y-89530000D03*
X269200000Y-98420000D03*
X269200000Y-100960000D03*
D24*
X268580000Y-112390000D03*
X268580000Y-66670000D03*
X285090000Y-112390000D03*
X285090000Y-66670000D03*
%TD*%
D23*
%TO.C,U5002*%
X303490000Y-99690000D03*
X303490000Y-97150000D03*
D25*
X320650000Y-113040000D03*
X318110000Y-113040000D03*
X305410000Y-113040000D03*
X302870000Y-113040000D03*
X313030000Y-113040000D03*
X310490000Y-113040000D03*
D26*
X302235000Y-48890000D03*
X321285000Y-48890000D03*
X302235000Y-106040000D03*
X321285000Y-106040000D03*
%TD*%
D27*
%TO.C,U1*%
X222748000Y-150410000D03*
X220748000Y-150410000D03*
X218748000Y-150410000D03*
X216748000Y-150410000D03*
X214748000Y-150410000D03*
X212748000Y-150410000D03*
X210748000Y-150410000D03*
X208748000Y-150410000D03*
X208748000Y-165810000D03*
X210748000Y-165810000D03*
X212748000Y-165810000D03*
X214748000Y-165810000D03*
X216748000Y-165810000D03*
X218748000Y-165810000D03*
X220748000Y-165810000D03*
X222748000Y-165810000D03*
%TD*%
D10*
%TO.C,R6010*%
G36*
X208389145Y-145541204D02*
G01*
X208413413Y-145544804D01*
X208437212Y-145550765D01*
X208460311Y-145559030D01*
X208482490Y-145569520D01*
X208503533Y-145582132D01*
X208523239Y-145596747D01*
X208541417Y-145613223D01*
X208557893Y-145631401D01*
X208572508Y-145651107D01*
X208585120Y-145672150D01*
X208595610Y-145694329D01*
X208603875Y-145717428D01*
X208609836Y-145741227D01*
X208613436Y-145765495D01*
X208614640Y-145789999D01*
X208614640Y-146490001D01*
X208613436Y-146514505D01*
X208609836Y-146538773D01*
X208603875Y-146562572D01*
X208595610Y-146585671D01*
X208585120Y-146607850D01*
X208572508Y-146628893D01*
X208557893Y-146648599D01*
X208541417Y-146666777D01*
X208523239Y-146683253D01*
X208503533Y-146697868D01*
X208482490Y-146710480D01*
X208460311Y-146720970D01*
X208437212Y-146729235D01*
X208413413Y-146735196D01*
X208389145Y-146738796D01*
X208364641Y-146740000D01*
X207464639Y-146740000D01*
X207440135Y-146738796D01*
X207415867Y-146735196D01*
X207392068Y-146729235D01*
X207368969Y-146720970D01*
X207346790Y-146710480D01*
X207325747Y-146697868D01*
X207306041Y-146683253D01*
X207287863Y-146666777D01*
X207271387Y-146648599D01*
X207256772Y-146628893D01*
X207244160Y-146607850D01*
X207233670Y-146585671D01*
X207225405Y-146562572D01*
X207219444Y-146538773D01*
X207215844Y-146514505D01*
X207214640Y-146490001D01*
X207214640Y-145789999D01*
X207215844Y-145765495D01*
X207219444Y-145741227D01*
X207225405Y-145717428D01*
X207233670Y-145694329D01*
X207244160Y-145672150D01*
X207256772Y-145651107D01*
X207271387Y-145631401D01*
X207287863Y-145613223D01*
X207306041Y-145596747D01*
X207325747Y-145582132D01*
X207346790Y-145569520D01*
X207368969Y-145559030D01*
X207392068Y-145550765D01*
X207415867Y-145544804D01*
X207440135Y-145541204D01*
X207464639Y-145540000D01*
X208364641Y-145540000D01*
X208389145Y-145541204D01*
G37*
G36*
X208389145Y-143541204D02*
G01*
X208413413Y-143544804D01*
X208437212Y-143550765D01*
X208460311Y-143559030D01*
X208482490Y-143569520D01*
X208503533Y-143582132D01*
X208523239Y-143596747D01*
X208541417Y-143613223D01*
X208557893Y-143631401D01*
X208572508Y-143651107D01*
X208585120Y-143672150D01*
X208595610Y-143694329D01*
X208603875Y-143717428D01*
X208609836Y-143741227D01*
X208613436Y-143765495D01*
X208614640Y-143789999D01*
X208614640Y-144490001D01*
X208613436Y-144514505D01*
X208609836Y-144538773D01*
X208603875Y-144562572D01*
X208595610Y-144585671D01*
X208585120Y-144607850D01*
X208572508Y-144628893D01*
X208557893Y-144648599D01*
X208541417Y-144666777D01*
X208523239Y-144683253D01*
X208503533Y-144697868D01*
X208482490Y-144710480D01*
X208460311Y-144720970D01*
X208437212Y-144729235D01*
X208413413Y-144735196D01*
X208389145Y-144738796D01*
X208364641Y-144740000D01*
X207464639Y-144740000D01*
X207440135Y-144738796D01*
X207415867Y-144735196D01*
X207392068Y-144729235D01*
X207368969Y-144720970D01*
X207346790Y-144710480D01*
X207325747Y-144697868D01*
X207306041Y-144683253D01*
X207287863Y-144666777D01*
X207271387Y-144648599D01*
X207256772Y-144628893D01*
X207244160Y-144607850D01*
X207233670Y-144585671D01*
X207225405Y-144562572D01*
X207219444Y-144538773D01*
X207215844Y-144514505D01*
X207214640Y-144490001D01*
X207214640Y-143789999D01*
X207215844Y-143765495D01*
X207219444Y-143741227D01*
X207225405Y-143717428D01*
X207233670Y-143694329D01*
X207244160Y-143672150D01*
X207256772Y-143651107D01*
X207271387Y-143631401D01*
X207287863Y-143613223D01*
X207306041Y-143596747D01*
X207325747Y-143582132D01*
X207346790Y-143569520D01*
X207368969Y-143559030D01*
X207392068Y-143550765D01*
X207415867Y-143544804D01*
X207440135Y-143541204D01*
X207464639Y-143540000D01*
X208364641Y-143540000D01*
X208389145Y-143541204D01*
G37*
%TD*%
%TO.C,R6009*%
G36*
X208445025Y-141382204D02*
G01*
X208469293Y-141385804D01*
X208493092Y-141391765D01*
X208516191Y-141400030D01*
X208538370Y-141410520D01*
X208559413Y-141423132D01*
X208579119Y-141437747D01*
X208597297Y-141454223D01*
X208613773Y-141472401D01*
X208628388Y-141492107D01*
X208641000Y-141513150D01*
X208651490Y-141535329D01*
X208659755Y-141558428D01*
X208665716Y-141582227D01*
X208669316Y-141606495D01*
X208670520Y-141630999D01*
X208670520Y-142331001D01*
X208669316Y-142355505D01*
X208665716Y-142379773D01*
X208659755Y-142403572D01*
X208651490Y-142426671D01*
X208641000Y-142448850D01*
X208628388Y-142469893D01*
X208613773Y-142489599D01*
X208597297Y-142507777D01*
X208579119Y-142524253D01*
X208559413Y-142538868D01*
X208538370Y-142551480D01*
X208516191Y-142561970D01*
X208493092Y-142570235D01*
X208469293Y-142576196D01*
X208445025Y-142579796D01*
X208420521Y-142581000D01*
X207520519Y-142581000D01*
X207496015Y-142579796D01*
X207471747Y-142576196D01*
X207447948Y-142570235D01*
X207424849Y-142561970D01*
X207402670Y-142551480D01*
X207381627Y-142538868D01*
X207361921Y-142524253D01*
X207343743Y-142507777D01*
X207327267Y-142489599D01*
X207312652Y-142469893D01*
X207300040Y-142448850D01*
X207289550Y-142426671D01*
X207281285Y-142403572D01*
X207275324Y-142379773D01*
X207271724Y-142355505D01*
X207270520Y-142331001D01*
X207270520Y-141630999D01*
X207271724Y-141606495D01*
X207275324Y-141582227D01*
X207281285Y-141558428D01*
X207289550Y-141535329D01*
X207300040Y-141513150D01*
X207312652Y-141492107D01*
X207327267Y-141472401D01*
X207343743Y-141454223D01*
X207361921Y-141437747D01*
X207381627Y-141423132D01*
X207402670Y-141410520D01*
X207424849Y-141400030D01*
X207447948Y-141391765D01*
X207471747Y-141385804D01*
X207496015Y-141382204D01*
X207520519Y-141381000D01*
X208420521Y-141381000D01*
X208445025Y-141382204D01*
G37*
G36*
X208445025Y-139382204D02*
G01*
X208469293Y-139385804D01*
X208493092Y-139391765D01*
X208516191Y-139400030D01*
X208538370Y-139410520D01*
X208559413Y-139423132D01*
X208579119Y-139437747D01*
X208597297Y-139454223D01*
X208613773Y-139472401D01*
X208628388Y-139492107D01*
X208641000Y-139513150D01*
X208651490Y-139535329D01*
X208659755Y-139558428D01*
X208665716Y-139582227D01*
X208669316Y-139606495D01*
X208670520Y-139630999D01*
X208670520Y-140331001D01*
X208669316Y-140355505D01*
X208665716Y-140379773D01*
X208659755Y-140403572D01*
X208651490Y-140426671D01*
X208641000Y-140448850D01*
X208628388Y-140469893D01*
X208613773Y-140489599D01*
X208597297Y-140507777D01*
X208579119Y-140524253D01*
X208559413Y-140538868D01*
X208538370Y-140551480D01*
X208516191Y-140561970D01*
X208493092Y-140570235D01*
X208469293Y-140576196D01*
X208445025Y-140579796D01*
X208420521Y-140581000D01*
X207520519Y-140581000D01*
X207496015Y-140579796D01*
X207471747Y-140576196D01*
X207447948Y-140570235D01*
X207424849Y-140561970D01*
X207402670Y-140551480D01*
X207381627Y-140538868D01*
X207361921Y-140524253D01*
X207343743Y-140507777D01*
X207327267Y-140489599D01*
X207312652Y-140469893D01*
X207300040Y-140448850D01*
X207289550Y-140426671D01*
X207281285Y-140403572D01*
X207275324Y-140379773D01*
X207271724Y-140355505D01*
X207270520Y-140331001D01*
X207270520Y-139630999D01*
X207271724Y-139606495D01*
X207275324Y-139582227D01*
X207281285Y-139558428D01*
X207289550Y-139535329D01*
X207300040Y-139513150D01*
X207312652Y-139492107D01*
X207327267Y-139472401D01*
X207343743Y-139454223D01*
X207361921Y-139437747D01*
X207381627Y-139423132D01*
X207402670Y-139410520D01*
X207424849Y-139400030D01*
X207447948Y-139391765D01*
X207471747Y-139385804D01*
X207496015Y-139382204D01*
X207520519Y-139381000D01*
X208420521Y-139381000D01*
X208445025Y-139382204D01*
G37*
%TD*%
%TO.C,R6006*%
G36*
X210802145Y-145541204D02*
G01*
X210826413Y-145544804D01*
X210850212Y-145550765D01*
X210873311Y-145559030D01*
X210895490Y-145569520D01*
X210916533Y-145582132D01*
X210936239Y-145596747D01*
X210954417Y-145613223D01*
X210970893Y-145631401D01*
X210985508Y-145651107D01*
X210998120Y-145672150D01*
X211008610Y-145694329D01*
X211016875Y-145717428D01*
X211022836Y-145741227D01*
X211026436Y-145765495D01*
X211027640Y-145789999D01*
X211027640Y-146490001D01*
X211026436Y-146514505D01*
X211022836Y-146538773D01*
X211016875Y-146562572D01*
X211008610Y-146585671D01*
X210998120Y-146607850D01*
X210985508Y-146628893D01*
X210970893Y-146648599D01*
X210954417Y-146666777D01*
X210936239Y-146683253D01*
X210916533Y-146697868D01*
X210895490Y-146710480D01*
X210873311Y-146720970D01*
X210850212Y-146729235D01*
X210826413Y-146735196D01*
X210802145Y-146738796D01*
X210777641Y-146740000D01*
X209877639Y-146740000D01*
X209853135Y-146738796D01*
X209828867Y-146735196D01*
X209805068Y-146729235D01*
X209781969Y-146720970D01*
X209759790Y-146710480D01*
X209738747Y-146697868D01*
X209719041Y-146683253D01*
X209700863Y-146666777D01*
X209684387Y-146648599D01*
X209669772Y-146628893D01*
X209657160Y-146607850D01*
X209646670Y-146585671D01*
X209638405Y-146562572D01*
X209632444Y-146538773D01*
X209628844Y-146514505D01*
X209627640Y-146490001D01*
X209627640Y-145789999D01*
X209628844Y-145765495D01*
X209632444Y-145741227D01*
X209638405Y-145717428D01*
X209646670Y-145694329D01*
X209657160Y-145672150D01*
X209669772Y-145651107D01*
X209684387Y-145631401D01*
X209700863Y-145613223D01*
X209719041Y-145596747D01*
X209738747Y-145582132D01*
X209759790Y-145569520D01*
X209781969Y-145559030D01*
X209805068Y-145550765D01*
X209828867Y-145544804D01*
X209853135Y-145541204D01*
X209877639Y-145540000D01*
X210777641Y-145540000D01*
X210802145Y-145541204D01*
G37*
G36*
X210802145Y-143541204D02*
G01*
X210826413Y-143544804D01*
X210850212Y-143550765D01*
X210873311Y-143559030D01*
X210895490Y-143569520D01*
X210916533Y-143582132D01*
X210936239Y-143596747D01*
X210954417Y-143613223D01*
X210970893Y-143631401D01*
X210985508Y-143651107D01*
X210998120Y-143672150D01*
X211008610Y-143694329D01*
X211016875Y-143717428D01*
X211022836Y-143741227D01*
X211026436Y-143765495D01*
X211027640Y-143789999D01*
X211027640Y-144490001D01*
X211026436Y-144514505D01*
X211022836Y-144538773D01*
X211016875Y-144562572D01*
X211008610Y-144585671D01*
X210998120Y-144607850D01*
X210985508Y-144628893D01*
X210970893Y-144648599D01*
X210954417Y-144666777D01*
X210936239Y-144683253D01*
X210916533Y-144697868D01*
X210895490Y-144710480D01*
X210873311Y-144720970D01*
X210850212Y-144729235D01*
X210826413Y-144735196D01*
X210802145Y-144738796D01*
X210777641Y-144740000D01*
X209877639Y-144740000D01*
X209853135Y-144738796D01*
X209828867Y-144735196D01*
X209805068Y-144729235D01*
X209781969Y-144720970D01*
X209759790Y-144710480D01*
X209738747Y-144697868D01*
X209719041Y-144683253D01*
X209700863Y-144666777D01*
X209684387Y-144648599D01*
X209669772Y-144628893D01*
X209657160Y-144607850D01*
X209646670Y-144585671D01*
X209638405Y-144562572D01*
X209632444Y-144538773D01*
X209628844Y-144514505D01*
X209627640Y-144490001D01*
X209627640Y-143789999D01*
X209628844Y-143765495D01*
X209632444Y-143741227D01*
X209638405Y-143717428D01*
X209646670Y-143694329D01*
X209657160Y-143672150D01*
X209669772Y-143651107D01*
X209684387Y-143631401D01*
X209700863Y-143613223D01*
X209719041Y-143596747D01*
X209738747Y-143582132D01*
X209759790Y-143569520D01*
X209781969Y-143559030D01*
X209805068Y-143550765D01*
X209828867Y-143544804D01*
X209853135Y-143541204D01*
X209877639Y-143540000D01*
X210777641Y-143540000D01*
X210802145Y-143541204D01*
G37*
%TD*%
%TO.C,R6005*%
G36*
X210858025Y-141382204D02*
G01*
X210882293Y-141385804D01*
X210906092Y-141391765D01*
X210929191Y-141400030D01*
X210951370Y-141410520D01*
X210972413Y-141423132D01*
X210992119Y-141437747D01*
X211010297Y-141454223D01*
X211026773Y-141472401D01*
X211041388Y-141492107D01*
X211054000Y-141513150D01*
X211064490Y-141535329D01*
X211072755Y-141558428D01*
X211078716Y-141582227D01*
X211082316Y-141606495D01*
X211083520Y-141630999D01*
X211083520Y-142331001D01*
X211082316Y-142355505D01*
X211078716Y-142379773D01*
X211072755Y-142403572D01*
X211064490Y-142426671D01*
X211054000Y-142448850D01*
X211041388Y-142469893D01*
X211026773Y-142489599D01*
X211010297Y-142507777D01*
X210992119Y-142524253D01*
X210972413Y-142538868D01*
X210951370Y-142551480D01*
X210929191Y-142561970D01*
X210906092Y-142570235D01*
X210882293Y-142576196D01*
X210858025Y-142579796D01*
X210833521Y-142581000D01*
X209933519Y-142581000D01*
X209909015Y-142579796D01*
X209884747Y-142576196D01*
X209860948Y-142570235D01*
X209837849Y-142561970D01*
X209815670Y-142551480D01*
X209794627Y-142538868D01*
X209774921Y-142524253D01*
X209756743Y-142507777D01*
X209740267Y-142489599D01*
X209725652Y-142469893D01*
X209713040Y-142448850D01*
X209702550Y-142426671D01*
X209694285Y-142403572D01*
X209688324Y-142379773D01*
X209684724Y-142355505D01*
X209683520Y-142331001D01*
X209683520Y-141630999D01*
X209684724Y-141606495D01*
X209688324Y-141582227D01*
X209694285Y-141558428D01*
X209702550Y-141535329D01*
X209713040Y-141513150D01*
X209725652Y-141492107D01*
X209740267Y-141472401D01*
X209756743Y-141454223D01*
X209774921Y-141437747D01*
X209794627Y-141423132D01*
X209815670Y-141410520D01*
X209837849Y-141400030D01*
X209860948Y-141391765D01*
X209884747Y-141385804D01*
X209909015Y-141382204D01*
X209933519Y-141381000D01*
X210833521Y-141381000D01*
X210858025Y-141382204D01*
G37*
G36*
X210858025Y-139382204D02*
G01*
X210882293Y-139385804D01*
X210906092Y-139391765D01*
X210929191Y-139400030D01*
X210951370Y-139410520D01*
X210972413Y-139423132D01*
X210992119Y-139437747D01*
X211010297Y-139454223D01*
X211026773Y-139472401D01*
X211041388Y-139492107D01*
X211054000Y-139513150D01*
X211064490Y-139535329D01*
X211072755Y-139558428D01*
X211078716Y-139582227D01*
X211082316Y-139606495D01*
X211083520Y-139630999D01*
X211083520Y-140331001D01*
X211082316Y-140355505D01*
X211078716Y-140379773D01*
X211072755Y-140403572D01*
X211064490Y-140426671D01*
X211054000Y-140448850D01*
X211041388Y-140469893D01*
X211026773Y-140489599D01*
X211010297Y-140507777D01*
X210992119Y-140524253D01*
X210972413Y-140538868D01*
X210951370Y-140551480D01*
X210929191Y-140561970D01*
X210906092Y-140570235D01*
X210882293Y-140576196D01*
X210858025Y-140579796D01*
X210833521Y-140581000D01*
X209933519Y-140581000D01*
X209909015Y-140579796D01*
X209884747Y-140576196D01*
X209860948Y-140570235D01*
X209837849Y-140561970D01*
X209815670Y-140551480D01*
X209794627Y-140538868D01*
X209774921Y-140524253D01*
X209756743Y-140507777D01*
X209740267Y-140489599D01*
X209725652Y-140469893D01*
X209713040Y-140448850D01*
X209702550Y-140426671D01*
X209694285Y-140403572D01*
X209688324Y-140379773D01*
X209684724Y-140355505D01*
X209683520Y-140331001D01*
X209683520Y-139630999D01*
X209684724Y-139606495D01*
X209688324Y-139582227D01*
X209694285Y-139558428D01*
X209702550Y-139535329D01*
X209713040Y-139513150D01*
X209725652Y-139492107D01*
X209740267Y-139472401D01*
X209756743Y-139454223D01*
X209774921Y-139437747D01*
X209794627Y-139423132D01*
X209815670Y-139410520D01*
X209837849Y-139400030D01*
X209860948Y-139391765D01*
X209884747Y-139385804D01*
X209909015Y-139382204D01*
X209933519Y-139381000D01*
X210833521Y-139381000D01*
X210858025Y-139382204D01*
G37*
%TD*%
%TO.C,R6002*%
G36*
X213342145Y-145541204D02*
G01*
X213366413Y-145544804D01*
X213390212Y-145550765D01*
X213413311Y-145559030D01*
X213435490Y-145569520D01*
X213456533Y-145582132D01*
X213476239Y-145596747D01*
X213494417Y-145613223D01*
X213510893Y-145631401D01*
X213525508Y-145651107D01*
X213538120Y-145672150D01*
X213548610Y-145694329D01*
X213556875Y-145717428D01*
X213562836Y-145741227D01*
X213566436Y-145765495D01*
X213567640Y-145789999D01*
X213567640Y-146490001D01*
X213566436Y-146514505D01*
X213562836Y-146538773D01*
X213556875Y-146562572D01*
X213548610Y-146585671D01*
X213538120Y-146607850D01*
X213525508Y-146628893D01*
X213510893Y-146648599D01*
X213494417Y-146666777D01*
X213476239Y-146683253D01*
X213456533Y-146697868D01*
X213435490Y-146710480D01*
X213413311Y-146720970D01*
X213390212Y-146729235D01*
X213366413Y-146735196D01*
X213342145Y-146738796D01*
X213317641Y-146740000D01*
X212417639Y-146740000D01*
X212393135Y-146738796D01*
X212368867Y-146735196D01*
X212345068Y-146729235D01*
X212321969Y-146720970D01*
X212299790Y-146710480D01*
X212278747Y-146697868D01*
X212259041Y-146683253D01*
X212240863Y-146666777D01*
X212224387Y-146648599D01*
X212209772Y-146628893D01*
X212197160Y-146607850D01*
X212186670Y-146585671D01*
X212178405Y-146562572D01*
X212172444Y-146538773D01*
X212168844Y-146514505D01*
X212167640Y-146490001D01*
X212167640Y-145789999D01*
X212168844Y-145765495D01*
X212172444Y-145741227D01*
X212178405Y-145717428D01*
X212186670Y-145694329D01*
X212197160Y-145672150D01*
X212209772Y-145651107D01*
X212224387Y-145631401D01*
X212240863Y-145613223D01*
X212259041Y-145596747D01*
X212278747Y-145582132D01*
X212299790Y-145569520D01*
X212321969Y-145559030D01*
X212345068Y-145550765D01*
X212368867Y-145544804D01*
X212393135Y-145541204D01*
X212417639Y-145540000D01*
X213317641Y-145540000D01*
X213342145Y-145541204D01*
G37*
G36*
X213342145Y-143541204D02*
G01*
X213366413Y-143544804D01*
X213390212Y-143550765D01*
X213413311Y-143559030D01*
X213435490Y-143569520D01*
X213456533Y-143582132D01*
X213476239Y-143596747D01*
X213494417Y-143613223D01*
X213510893Y-143631401D01*
X213525508Y-143651107D01*
X213538120Y-143672150D01*
X213548610Y-143694329D01*
X213556875Y-143717428D01*
X213562836Y-143741227D01*
X213566436Y-143765495D01*
X213567640Y-143789999D01*
X213567640Y-144490001D01*
X213566436Y-144514505D01*
X213562836Y-144538773D01*
X213556875Y-144562572D01*
X213548610Y-144585671D01*
X213538120Y-144607850D01*
X213525508Y-144628893D01*
X213510893Y-144648599D01*
X213494417Y-144666777D01*
X213476239Y-144683253D01*
X213456533Y-144697868D01*
X213435490Y-144710480D01*
X213413311Y-144720970D01*
X213390212Y-144729235D01*
X213366413Y-144735196D01*
X213342145Y-144738796D01*
X213317641Y-144740000D01*
X212417639Y-144740000D01*
X212393135Y-144738796D01*
X212368867Y-144735196D01*
X212345068Y-144729235D01*
X212321969Y-144720970D01*
X212299790Y-144710480D01*
X212278747Y-144697868D01*
X212259041Y-144683253D01*
X212240863Y-144666777D01*
X212224387Y-144648599D01*
X212209772Y-144628893D01*
X212197160Y-144607850D01*
X212186670Y-144585671D01*
X212178405Y-144562572D01*
X212172444Y-144538773D01*
X212168844Y-144514505D01*
X212167640Y-144490001D01*
X212167640Y-143789999D01*
X212168844Y-143765495D01*
X212172444Y-143741227D01*
X212178405Y-143717428D01*
X212186670Y-143694329D01*
X212197160Y-143672150D01*
X212209772Y-143651107D01*
X212224387Y-143631401D01*
X212240863Y-143613223D01*
X212259041Y-143596747D01*
X212278747Y-143582132D01*
X212299790Y-143569520D01*
X212321969Y-143559030D01*
X212345068Y-143550765D01*
X212368867Y-143544804D01*
X212393135Y-143541204D01*
X212417639Y-143540000D01*
X213317641Y-143540000D01*
X213342145Y-143541204D01*
G37*
%TD*%
%TO.C,R6001*%
G36*
X213342145Y-141382204D02*
G01*
X213366413Y-141385804D01*
X213390212Y-141391765D01*
X213413311Y-141400030D01*
X213435490Y-141410520D01*
X213456533Y-141423132D01*
X213476239Y-141437747D01*
X213494417Y-141454223D01*
X213510893Y-141472401D01*
X213525508Y-141492107D01*
X213538120Y-141513150D01*
X213548610Y-141535329D01*
X213556875Y-141558428D01*
X213562836Y-141582227D01*
X213566436Y-141606495D01*
X213567640Y-141630999D01*
X213567640Y-142331001D01*
X213566436Y-142355505D01*
X213562836Y-142379773D01*
X213556875Y-142403572D01*
X213548610Y-142426671D01*
X213538120Y-142448850D01*
X213525508Y-142469893D01*
X213510893Y-142489599D01*
X213494417Y-142507777D01*
X213476239Y-142524253D01*
X213456533Y-142538868D01*
X213435490Y-142551480D01*
X213413311Y-142561970D01*
X213390212Y-142570235D01*
X213366413Y-142576196D01*
X213342145Y-142579796D01*
X213317641Y-142581000D01*
X212417639Y-142581000D01*
X212393135Y-142579796D01*
X212368867Y-142576196D01*
X212345068Y-142570235D01*
X212321969Y-142561970D01*
X212299790Y-142551480D01*
X212278747Y-142538868D01*
X212259041Y-142524253D01*
X212240863Y-142507777D01*
X212224387Y-142489599D01*
X212209772Y-142469893D01*
X212197160Y-142448850D01*
X212186670Y-142426671D01*
X212178405Y-142403572D01*
X212172444Y-142379773D01*
X212168844Y-142355505D01*
X212167640Y-142331001D01*
X212167640Y-141630999D01*
X212168844Y-141606495D01*
X212172444Y-141582227D01*
X212178405Y-141558428D01*
X212186670Y-141535329D01*
X212197160Y-141513150D01*
X212209772Y-141492107D01*
X212224387Y-141472401D01*
X212240863Y-141454223D01*
X212259041Y-141437747D01*
X212278747Y-141423132D01*
X212299790Y-141410520D01*
X212321969Y-141400030D01*
X212345068Y-141391765D01*
X212368867Y-141385804D01*
X212393135Y-141382204D01*
X212417639Y-141381000D01*
X213317641Y-141381000D01*
X213342145Y-141382204D01*
G37*
G36*
X213342145Y-139382204D02*
G01*
X213366413Y-139385804D01*
X213390212Y-139391765D01*
X213413311Y-139400030D01*
X213435490Y-139410520D01*
X213456533Y-139423132D01*
X213476239Y-139437747D01*
X213494417Y-139454223D01*
X213510893Y-139472401D01*
X213525508Y-139492107D01*
X213538120Y-139513150D01*
X213548610Y-139535329D01*
X213556875Y-139558428D01*
X213562836Y-139582227D01*
X213566436Y-139606495D01*
X213567640Y-139630999D01*
X213567640Y-140331001D01*
X213566436Y-140355505D01*
X213562836Y-140379773D01*
X213556875Y-140403572D01*
X213548610Y-140426671D01*
X213538120Y-140448850D01*
X213525508Y-140469893D01*
X213510893Y-140489599D01*
X213494417Y-140507777D01*
X213476239Y-140524253D01*
X213456533Y-140538868D01*
X213435490Y-140551480D01*
X213413311Y-140561970D01*
X213390212Y-140570235D01*
X213366413Y-140576196D01*
X213342145Y-140579796D01*
X213317641Y-140581000D01*
X212417639Y-140581000D01*
X212393135Y-140579796D01*
X212368867Y-140576196D01*
X212345068Y-140570235D01*
X212321969Y-140561970D01*
X212299790Y-140551480D01*
X212278747Y-140538868D01*
X212259041Y-140524253D01*
X212240863Y-140507777D01*
X212224387Y-140489599D01*
X212209772Y-140469893D01*
X212197160Y-140448850D01*
X212186670Y-140426671D01*
X212178405Y-140403572D01*
X212172444Y-140379773D01*
X212168844Y-140355505D01*
X212167640Y-140331001D01*
X212167640Y-139630999D01*
X212168844Y-139606495D01*
X212172444Y-139582227D01*
X212178405Y-139558428D01*
X212186670Y-139535329D01*
X212197160Y-139513150D01*
X212209772Y-139492107D01*
X212224387Y-139472401D01*
X212240863Y-139454223D01*
X212259041Y-139437747D01*
X212278747Y-139423132D01*
X212299790Y-139410520D01*
X212321969Y-139400030D01*
X212345068Y-139391765D01*
X212368867Y-139385804D01*
X212393135Y-139382204D01*
X212417639Y-139381000D01*
X213317641Y-139381000D01*
X213342145Y-139382204D01*
G37*
%TD*%
%TO.C,R2004*%
G36*
X235272505Y-126539204D02*
G01*
X235296773Y-126542804D01*
X235320572Y-126548765D01*
X235343671Y-126557030D01*
X235365850Y-126567520D01*
X235386893Y-126580132D01*
X235406599Y-126594747D01*
X235424777Y-126611223D01*
X235441253Y-126629401D01*
X235455868Y-126649107D01*
X235468480Y-126670150D01*
X235478970Y-126692329D01*
X235487235Y-126715428D01*
X235493196Y-126739227D01*
X235496796Y-126763495D01*
X235498000Y-126787999D01*
X235498000Y-127488001D01*
X235496796Y-127512505D01*
X235493196Y-127536773D01*
X235487235Y-127560572D01*
X235478970Y-127583671D01*
X235468480Y-127605850D01*
X235455868Y-127626893D01*
X235441253Y-127646599D01*
X235424777Y-127664777D01*
X235406599Y-127681253D01*
X235386893Y-127695868D01*
X235365850Y-127708480D01*
X235343671Y-127718970D01*
X235320572Y-127727235D01*
X235296773Y-127733196D01*
X235272505Y-127736796D01*
X235248001Y-127738000D01*
X234347999Y-127738000D01*
X234323495Y-127736796D01*
X234299227Y-127733196D01*
X234275428Y-127727235D01*
X234252329Y-127718970D01*
X234230150Y-127708480D01*
X234209107Y-127695868D01*
X234189401Y-127681253D01*
X234171223Y-127664777D01*
X234154747Y-127646599D01*
X234140132Y-127626893D01*
X234127520Y-127605850D01*
X234117030Y-127583671D01*
X234108765Y-127560572D01*
X234102804Y-127536773D01*
X234099204Y-127512505D01*
X234098000Y-127488001D01*
X234098000Y-126787999D01*
X234099204Y-126763495D01*
X234102804Y-126739227D01*
X234108765Y-126715428D01*
X234117030Y-126692329D01*
X234127520Y-126670150D01*
X234140132Y-126649107D01*
X234154747Y-126629401D01*
X234171223Y-126611223D01*
X234189401Y-126594747D01*
X234209107Y-126580132D01*
X234230150Y-126567520D01*
X234252329Y-126557030D01*
X234275428Y-126548765D01*
X234299227Y-126542804D01*
X234323495Y-126539204D01*
X234347999Y-126538000D01*
X235248001Y-126538000D01*
X235272505Y-126539204D01*
G37*
G36*
X235272505Y-128539204D02*
G01*
X235296773Y-128542804D01*
X235320572Y-128548765D01*
X235343671Y-128557030D01*
X235365850Y-128567520D01*
X235386893Y-128580132D01*
X235406599Y-128594747D01*
X235424777Y-128611223D01*
X235441253Y-128629401D01*
X235455868Y-128649107D01*
X235468480Y-128670150D01*
X235478970Y-128692329D01*
X235487235Y-128715428D01*
X235493196Y-128739227D01*
X235496796Y-128763495D01*
X235498000Y-128787999D01*
X235498000Y-129488001D01*
X235496796Y-129512505D01*
X235493196Y-129536773D01*
X235487235Y-129560572D01*
X235478970Y-129583671D01*
X235468480Y-129605850D01*
X235455868Y-129626893D01*
X235441253Y-129646599D01*
X235424777Y-129664777D01*
X235406599Y-129681253D01*
X235386893Y-129695868D01*
X235365850Y-129708480D01*
X235343671Y-129718970D01*
X235320572Y-129727235D01*
X235296773Y-129733196D01*
X235272505Y-129736796D01*
X235248001Y-129738000D01*
X234347999Y-129738000D01*
X234323495Y-129736796D01*
X234299227Y-129733196D01*
X234275428Y-129727235D01*
X234252329Y-129718970D01*
X234230150Y-129708480D01*
X234209107Y-129695868D01*
X234189401Y-129681253D01*
X234171223Y-129664777D01*
X234154747Y-129646599D01*
X234140132Y-129626893D01*
X234127520Y-129605850D01*
X234117030Y-129583671D01*
X234108765Y-129560572D01*
X234102804Y-129536773D01*
X234099204Y-129512505D01*
X234098000Y-129488001D01*
X234098000Y-128787999D01*
X234099204Y-128763495D01*
X234102804Y-128739227D01*
X234108765Y-128715428D01*
X234117030Y-128692329D01*
X234127520Y-128670150D01*
X234140132Y-128649107D01*
X234154747Y-128629401D01*
X234171223Y-128611223D01*
X234189401Y-128594747D01*
X234209107Y-128580132D01*
X234230150Y-128567520D01*
X234252329Y-128557030D01*
X234275428Y-128548765D01*
X234299227Y-128542804D01*
X234323495Y-128539204D01*
X234347999Y-128538000D01*
X235248001Y-128538000D01*
X235272505Y-128539204D01*
G37*
%TD*%
%TO.C,R2003*%
G36*
X239320505Y-126539204D02*
G01*
X239344773Y-126542804D01*
X239368572Y-126548765D01*
X239391671Y-126557030D01*
X239413850Y-126567520D01*
X239434893Y-126580132D01*
X239454599Y-126594747D01*
X239472777Y-126611223D01*
X239489253Y-126629401D01*
X239503868Y-126649107D01*
X239516480Y-126670150D01*
X239526970Y-126692329D01*
X239535235Y-126715428D01*
X239541196Y-126739227D01*
X239544796Y-126763495D01*
X239546000Y-126787999D01*
X239546000Y-127488001D01*
X239544796Y-127512505D01*
X239541196Y-127536773D01*
X239535235Y-127560572D01*
X239526970Y-127583671D01*
X239516480Y-127605850D01*
X239503868Y-127626893D01*
X239489253Y-127646599D01*
X239472777Y-127664777D01*
X239454599Y-127681253D01*
X239434893Y-127695868D01*
X239413850Y-127708480D01*
X239391671Y-127718970D01*
X239368572Y-127727235D01*
X239344773Y-127733196D01*
X239320505Y-127736796D01*
X239296001Y-127738000D01*
X238395999Y-127738000D01*
X238371495Y-127736796D01*
X238347227Y-127733196D01*
X238323428Y-127727235D01*
X238300329Y-127718970D01*
X238278150Y-127708480D01*
X238257107Y-127695868D01*
X238237401Y-127681253D01*
X238219223Y-127664777D01*
X238202747Y-127646599D01*
X238188132Y-127626893D01*
X238175520Y-127605850D01*
X238165030Y-127583671D01*
X238156765Y-127560572D01*
X238150804Y-127536773D01*
X238147204Y-127512505D01*
X238146000Y-127488001D01*
X238146000Y-126787999D01*
X238147204Y-126763495D01*
X238150804Y-126739227D01*
X238156765Y-126715428D01*
X238165030Y-126692329D01*
X238175520Y-126670150D01*
X238188132Y-126649107D01*
X238202747Y-126629401D01*
X238219223Y-126611223D01*
X238237401Y-126594747D01*
X238257107Y-126580132D01*
X238278150Y-126567520D01*
X238300329Y-126557030D01*
X238323428Y-126548765D01*
X238347227Y-126542804D01*
X238371495Y-126539204D01*
X238395999Y-126538000D01*
X239296001Y-126538000D01*
X239320505Y-126539204D01*
G37*
G36*
X239320505Y-128539204D02*
G01*
X239344773Y-128542804D01*
X239368572Y-128548765D01*
X239391671Y-128557030D01*
X239413850Y-128567520D01*
X239434893Y-128580132D01*
X239454599Y-128594747D01*
X239472777Y-128611223D01*
X239489253Y-128629401D01*
X239503868Y-128649107D01*
X239516480Y-128670150D01*
X239526970Y-128692329D01*
X239535235Y-128715428D01*
X239541196Y-128739227D01*
X239544796Y-128763495D01*
X239546000Y-128787999D01*
X239546000Y-129488001D01*
X239544796Y-129512505D01*
X239541196Y-129536773D01*
X239535235Y-129560572D01*
X239526970Y-129583671D01*
X239516480Y-129605850D01*
X239503868Y-129626893D01*
X239489253Y-129646599D01*
X239472777Y-129664777D01*
X239454599Y-129681253D01*
X239434893Y-129695868D01*
X239413850Y-129708480D01*
X239391671Y-129718970D01*
X239368572Y-129727235D01*
X239344773Y-129733196D01*
X239320505Y-129736796D01*
X239296001Y-129738000D01*
X238395999Y-129738000D01*
X238371495Y-129736796D01*
X238347227Y-129733196D01*
X238323428Y-129727235D01*
X238300329Y-129718970D01*
X238278150Y-129708480D01*
X238257107Y-129695868D01*
X238237401Y-129681253D01*
X238219223Y-129664777D01*
X238202747Y-129646599D01*
X238188132Y-129626893D01*
X238175520Y-129605850D01*
X238165030Y-129583671D01*
X238156765Y-129560572D01*
X238150804Y-129536773D01*
X238147204Y-129512505D01*
X238146000Y-129488001D01*
X238146000Y-128787999D01*
X238147204Y-128763495D01*
X238150804Y-128739227D01*
X238156765Y-128715428D01*
X238165030Y-128692329D01*
X238175520Y-128670150D01*
X238188132Y-128649107D01*
X238202747Y-128629401D01*
X238219223Y-128611223D01*
X238237401Y-128594747D01*
X238257107Y-128580132D01*
X238278150Y-128567520D01*
X238300329Y-128557030D01*
X238323428Y-128548765D01*
X238347227Y-128542804D01*
X238371495Y-128539204D01*
X238395999Y-128538000D01*
X239296001Y-128538000D01*
X239320505Y-128539204D01*
G37*
%TD*%
%TO.C,R2002*%
G36*
X242892505Y-126539204D02*
G01*
X242916773Y-126542804D01*
X242940572Y-126548765D01*
X242963671Y-126557030D01*
X242985850Y-126567520D01*
X243006893Y-126580132D01*
X243026599Y-126594747D01*
X243044777Y-126611223D01*
X243061253Y-126629401D01*
X243075868Y-126649107D01*
X243088480Y-126670150D01*
X243098970Y-126692329D01*
X243107235Y-126715428D01*
X243113196Y-126739227D01*
X243116796Y-126763495D01*
X243118000Y-126787999D01*
X243118000Y-127488001D01*
X243116796Y-127512505D01*
X243113196Y-127536773D01*
X243107235Y-127560572D01*
X243098970Y-127583671D01*
X243088480Y-127605850D01*
X243075868Y-127626893D01*
X243061253Y-127646599D01*
X243044777Y-127664777D01*
X243026599Y-127681253D01*
X243006893Y-127695868D01*
X242985850Y-127708480D01*
X242963671Y-127718970D01*
X242940572Y-127727235D01*
X242916773Y-127733196D01*
X242892505Y-127736796D01*
X242868001Y-127738000D01*
X241967999Y-127738000D01*
X241943495Y-127736796D01*
X241919227Y-127733196D01*
X241895428Y-127727235D01*
X241872329Y-127718970D01*
X241850150Y-127708480D01*
X241829107Y-127695868D01*
X241809401Y-127681253D01*
X241791223Y-127664777D01*
X241774747Y-127646599D01*
X241760132Y-127626893D01*
X241747520Y-127605850D01*
X241737030Y-127583671D01*
X241728765Y-127560572D01*
X241722804Y-127536773D01*
X241719204Y-127512505D01*
X241718000Y-127488001D01*
X241718000Y-126787999D01*
X241719204Y-126763495D01*
X241722804Y-126739227D01*
X241728765Y-126715428D01*
X241737030Y-126692329D01*
X241747520Y-126670150D01*
X241760132Y-126649107D01*
X241774747Y-126629401D01*
X241791223Y-126611223D01*
X241809401Y-126594747D01*
X241829107Y-126580132D01*
X241850150Y-126567520D01*
X241872329Y-126557030D01*
X241895428Y-126548765D01*
X241919227Y-126542804D01*
X241943495Y-126539204D01*
X241967999Y-126538000D01*
X242868001Y-126538000D01*
X242892505Y-126539204D01*
G37*
G36*
X242892505Y-128539204D02*
G01*
X242916773Y-128542804D01*
X242940572Y-128548765D01*
X242963671Y-128557030D01*
X242985850Y-128567520D01*
X243006893Y-128580132D01*
X243026599Y-128594747D01*
X243044777Y-128611223D01*
X243061253Y-128629401D01*
X243075868Y-128649107D01*
X243088480Y-128670150D01*
X243098970Y-128692329D01*
X243107235Y-128715428D01*
X243113196Y-128739227D01*
X243116796Y-128763495D01*
X243118000Y-128787999D01*
X243118000Y-129488001D01*
X243116796Y-129512505D01*
X243113196Y-129536773D01*
X243107235Y-129560572D01*
X243098970Y-129583671D01*
X243088480Y-129605850D01*
X243075868Y-129626893D01*
X243061253Y-129646599D01*
X243044777Y-129664777D01*
X243026599Y-129681253D01*
X243006893Y-129695868D01*
X242985850Y-129708480D01*
X242963671Y-129718970D01*
X242940572Y-129727235D01*
X242916773Y-129733196D01*
X242892505Y-129736796D01*
X242868001Y-129738000D01*
X241967999Y-129738000D01*
X241943495Y-129736796D01*
X241919227Y-129733196D01*
X241895428Y-129727235D01*
X241872329Y-129718970D01*
X241850150Y-129708480D01*
X241829107Y-129695868D01*
X241809401Y-129681253D01*
X241791223Y-129664777D01*
X241774747Y-129646599D01*
X241760132Y-129626893D01*
X241747520Y-129605850D01*
X241737030Y-129583671D01*
X241728765Y-129560572D01*
X241722804Y-129536773D01*
X241719204Y-129512505D01*
X241718000Y-129488001D01*
X241718000Y-128787999D01*
X241719204Y-128763495D01*
X241722804Y-128739227D01*
X241728765Y-128715428D01*
X241737030Y-128692329D01*
X241747520Y-128670150D01*
X241760132Y-128649107D01*
X241774747Y-128629401D01*
X241791223Y-128611223D01*
X241809401Y-128594747D01*
X241829107Y-128580132D01*
X241850150Y-128567520D01*
X241872329Y-128557030D01*
X241895428Y-128548765D01*
X241919227Y-128542804D01*
X241943495Y-128539204D01*
X241967999Y-128538000D01*
X242868001Y-128538000D01*
X242892505Y-128539204D01*
G37*
%TD*%
%TO.C,R2001*%
G36*
X246448505Y-126539204D02*
G01*
X246472773Y-126542804D01*
X246496572Y-126548765D01*
X246519671Y-126557030D01*
X246541850Y-126567520D01*
X246562893Y-126580132D01*
X246582599Y-126594747D01*
X246600777Y-126611223D01*
X246617253Y-126629401D01*
X246631868Y-126649107D01*
X246644480Y-126670150D01*
X246654970Y-126692329D01*
X246663235Y-126715428D01*
X246669196Y-126739227D01*
X246672796Y-126763495D01*
X246674000Y-126787999D01*
X246674000Y-127488001D01*
X246672796Y-127512505D01*
X246669196Y-127536773D01*
X246663235Y-127560572D01*
X246654970Y-127583671D01*
X246644480Y-127605850D01*
X246631868Y-127626893D01*
X246617253Y-127646599D01*
X246600777Y-127664777D01*
X246582599Y-127681253D01*
X246562893Y-127695868D01*
X246541850Y-127708480D01*
X246519671Y-127718970D01*
X246496572Y-127727235D01*
X246472773Y-127733196D01*
X246448505Y-127736796D01*
X246424001Y-127738000D01*
X245523999Y-127738000D01*
X245499495Y-127736796D01*
X245475227Y-127733196D01*
X245451428Y-127727235D01*
X245428329Y-127718970D01*
X245406150Y-127708480D01*
X245385107Y-127695868D01*
X245365401Y-127681253D01*
X245347223Y-127664777D01*
X245330747Y-127646599D01*
X245316132Y-127626893D01*
X245303520Y-127605850D01*
X245293030Y-127583671D01*
X245284765Y-127560572D01*
X245278804Y-127536773D01*
X245275204Y-127512505D01*
X245274000Y-127488001D01*
X245274000Y-126787999D01*
X245275204Y-126763495D01*
X245278804Y-126739227D01*
X245284765Y-126715428D01*
X245293030Y-126692329D01*
X245303520Y-126670150D01*
X245316132Y-126649107D01*
X245330747Y-126629401D01*
X245347223Y-126611223D01*
X245365401Y-126594747D01*
X245385107Y-126580132D01*
X245406150Y-126567520D01*
X245428329Y-126557030D01*
X245451428Y-126548765D01*
X245475227Y-126542804D01*
X245499495Y-126539204D01*
X245523999Y-126538000D01*
X246424001Y-126538000D01*
X246448505Y-126539204D01*
G37*
G36*
X246448505Y-128539204D02*
G01*
X246472773Y-128542804D01*
X246496572Y-128548765D01*
X246519671Y-128557030D01*
X246541850Y-128567520D01*
X246562893Y-128580132D01*
X246582599Y-128594747D01*
X246600777Y-128611223D01*
X246617253Y-128629401D01*
X246631868Y-128649107D01*
X246644480Y-128670150D01*
X246654970Y-128692329D01*
X246663235Y-128715428D01*
X246669196Y-128739227D01*
X246672796Y-128763495D01*
X246674000Y-128787999D01*
X246674000Y-129488001D01*
X246672796Y-129512505D01*
X246669196Y-129536773D01*
X246663235Y-129560572D01*
X246654970Y-129583671D01*
X246644480Y-129605850D01*
X246631868Y-129626893D01*
X246617253Y-129646599D01*
X246600777Y-129664777D01*
X246582599Y-129681253D01*
X246562893Y-129695868D01*
X246541850Y-129708480D01*
X246519671Y-129718970D01*
X246496572Y-129727235D01*
X246472773Y-129733196D01*
X246448505Y-129736796D01*
X246424001Y-129738000D01*
X245523999Y-129738000D01*
X245499495Y-129736796D01*
X245475227Y-129733196D01*
X245451428Y-129727235D01*
X245428329Y-129718970D01*
X245406150Y-129708480D01*
X245385107Y-129695868D01*
X245365401Y-129681253D01*
X245347223Y-129664777D01*
X245330747Y-129646599D01*
X245316132Y-129626893D01*
X245303520Y-129605850D01*
X245293030Y-129583671D01*
X245284765Y-129560572D01*
X245278804Y-129536773D01*
X245275204Y-129512505D01*
X245274000Y-129488001D01*
X245274000Y-128787999D01*
X245275204Y-128763495D01*
X245278804Y-128739227D01*
X245284765Y-128715428D01*
X245293030Y-128692329D01*
X245303520Y-128670150D01*
X245316132Y-128649107D01*
X245330747Y-128629401D01*
X245347223Y-128611223D01*
X245365401Y-128594747D01*
X245385107Y-128580132D01*
X245406150Y-128567520D01*
X245428329Y-128557030D01*
X245451428Y-128548765D01*
X245475227Y-128542804D01*
X245499495Y-128539204D01*
X245523999Y-128538000D01*
X246424001Y-128538000D01*
X246448505Y-128539204D01*
G37*
%TD*%
D28*
%TO.C,U6005*%
X320990000Y-249890000D03*
X320990000Y-228890000D03*
X299990000Y-249890000D03*
D29*
X304140000Y-248280000D03*
X306680000Y-248280000D03*
X309220000Y-248280000D03*
X311760000Y-248280000D03*
X314300000Y-248280000D03*
X316840000Y-248280000D03*
X304140000Y-250820000D03*
X306680000Y-250820000D03*
X309220000Y-250820000D03*
X311760000Y-250820000D03*
X314300000Y-250820000D03*
X316840000Y-250820000D03*
%TD*%
D28*
%TO.C,U6004*%
X320990000Y-220340000D03*
X320990000Y-199340000D03*
X299990000Y-220340000D03*
D29*
X304140000Y-218730000D03*
X306680000Y-218730000D03*
X309220000Y-218730000D03*
X311760000Y-218730000D03*
X314300000Y-218730000D03*
X316840000Y-218730000D03*
X304140000Y-221270000D03*
X306680000Y-221270000D03*
X309220000Y-221270000D03*
X311760000Y-221270000D03*
X314300000Y-221270000D03*
X316840000Y-221270000D03*
%TD*%
D26*
%TO.C,REF\002A\002A*%
X251641000Y-69451000D03*
X220241000Y-115451000D03*
X220241000Y-69451000D03*
X251641000Y-115451000D03*
%TD*%
D30*
%TO.C,X1*%
X205181600Y-174899400D03*
X207721600Y-172359400D03*
X207721600Y-177439400D03*
X202641600Y-177439400D03*
X202641600Y-172359400D03*
%TD*%
D31*
%TO.C,J7003*%
X297899000Y-261920000D03*
X297899000Y-264460000D03*
D32*
X297899000Y-267000000D03*
%TD*%
D31*
%TO.C,J7002*%
X295359000Y-261920000D03*
X295359000Y-264460000D03*
D32*
X295359000Y-267000000D03*
%TD*%
D31*
%TO.C,J7001*%
X292819000Y-261920000D03*
X292819000Y-264460000D03*
D32*
X292819000Y-267000000D03*
%TD*%
D33*
%TO.C,J6009*%
X207080000Y-96290000D03*
X207080000Y-103090000D03*
D34*
X211380000Y-98690000D03*
X211380000Y-100690000D03*
%TD*%
D33*
%TO.C,J6006*%
X207080000Y-107720000D03*
X207080000Y-114520000D03*
D34*
X211380000Y-110120000D03*
X211380000Y-112120000D03*
%TD*%
D35*
%TO.C,J5006*%
X275028000Y-47080000D03*
X268228000Y-47080000D03*
D36*
X272628000Y-51380000D03*
X270628000Y-51380000D03*
%TD*%
D35*
%TO.C,J5005*%
X286712000Y-47080000D03*
X279912000Y-47080000D03*
D36*
X284312000Y-51380000D03*
X282312000Y-51380000D03*
%TD*%
D35*
%TO.C,J5004*%
X249120000Y-47080000D03*
X242320000Y-47080000D03*
D36*
X246720000Y-51380000D03*
X244720000Y-51380000D03*
%TD*%
D35*
%TO.C,J5003*%
X261312000Y-47080000D03*
X254512000Y-47080000D03*
D36*
X258912000Y-51380000D03*
X256912000Y-51380000D03*
%TD*%
D33*
%TO.C,J5002*%
X207080000Y-84860000D03*
X207080000Y-91660000D03*
D34*
X211380000Y-87260000D03*
X211380000Y-89260000D03*
%TD*%
D33*
%TO.C,J5001*%
X207080000Y-73430000D03*
X207080000Y-80230000D03*
D34*
X211380000Y-75830000D03*
X211380000Y-77830000D03*
%TD*%
D29*
%TO.C,U6002*%
X308790000Y-162570000D03*
X306250000Y-165110000D03*
X306250000Y-162570000D03*
X306250000Y-167650000D03*
X306250000Y-170190000D03*
D28*
X305650000Y-158350000D03*
X321650000Y-171850000D03*
D29*
X306250000Y-172730000D03*
%TD*%
D17*
%TO.C,U4001*%
X251435000Y-249931000D03*
X253975000Y-249931000D03*
X256515000Y-249931000D03*
X259055000Y-249931000D03*
X248895000Y-249931000D03*
X246355000Y-249931000D03*
X243815000Y-249931000D03*
X261595000Y-249931000D03*
X264135000Y-249931000D03*
X266675000Y-249931000D03*
X269215000Y-249931000D03*
X269215000Y-234691000D03*
X266675000Y-234691000D03*
X264135000Y-234691000D03*
X261595000Y-234691000D03*
X259055000Y-234691000D03*
X256515000Y-234691000D03*
X253975000Y-234691000D03*
X251435000Y-234691000D03*
X248895000Y-234691000D03*
X246355000Y-234691000D03*
X241275000Y-249931000D03*
X238735000Y-249931000D03*
X236195000Y-249931000D03*
X233655000Y-249931000D03*
X231115000Y-249931000D03*
X228575000Y-249931000D03*
X226035000Y-249931000D03*
X223495000Y-249931000D03*
X220955000Y-249931000D03*
X218415000Y-249931000D03*
X215875000Y-249931000D03*
X213335000Y-249931000D03*
D18*
X210795000Y-249931000D03*
D17*
X243815000Y-234691000D03*
X241275000Y-234691000D03*
X238735000Y-234691000D03*
X236195000Y-234691000D03*
X233655000Y-234691000D03*
X231115000Y-234691000D03*
X228575000Y-234691000D03*
X226035000Y-234691000D03*
X223495000Y-234691000D03*
X220955000Y-234691000D03*
X218415000Y-234691000D03*
X215875000Y-234691000D03*
X213335000Y-234691000D03*
X210795000Y-234691000D03*
%TD*%
D30*
%TO.C,X8001*%
X211684000Y-223515000D03*
X214224000Y-226055000D03*
X214224000Y-220975000D03*
X209144000Y-220975000D03*
X209144000Y-226055000D03*
%TD*%
D37*
%TO.C,U7003*%
X235873000Y-225390000D03*
X235873000Y-224140000D03*
X235873000Y-222890000D03*
X235873000Y-221640000D03*
X233723000Y-224140000D03*
X233723000Y-222890000D03*
X233723000Y-221640000D03*
X233723000Y-225390000D03*
%TD*%
D38*
%TO.C,U7002*%
X262995500Y-222875500D03*
X263495500Y-222875500D03*
X263495500Y-224400500D03*
X262995500Y-224400500D03*
D39*
X264008000Y-222888000D03*
X262483000Y-222888000D03*
X264008000Y-224388000D03*
X262483000Y-224388000D03*
X264008000Y-223888000D03*
X264008000Y-223388000D03*
X262483000Y-223888000D03*
X262483000Y-223388000D03*
%TD*%
D40*
%TO.C,U7001*%
X251035000Y-227153000D03*
X250605000Y-227153000D03*
X250175000Y-227153000D03*
X249745000Y-227153000D03*
X249315000Y-227153000D03*
X248885000Y-227153000D03*
X248455000Y-227153000D03*
X248025000Y-227153000D03*
X251035000Y-224703000D03*
X250605000Y-224703000D03*
X250175000Y-224703000D03*
X249745000Y-224703000D03*
X249315000Y-224703000D03*
X248885000Y-224703000D03*
X248455000Y-224703000D03*
D41*
X251005000Y-226573000D03*
X248055000Y-226573000D03*
X251005000Y-226143000D03*
X248055000Y-226143000D03*
X251005000Y-225713000D03*
X248055000Y-225713000D03*
X251005000Y-225283000D03*
X248055000Y-225283000D03*
D40*
X248025000Y-224703000D03*
%TD*%
D29*
%TO.C,U6006*%
X306250000Y-141610000D03*
X306250000Y-144150000D03*
X306250000Y-146690000D03*
X306250000Y-149230000D03*
X306250000Y-151770000D03*
D28*
X305650000Y-138030000D03*
X321650000Y-151530000D03*
%TD*%
D29*
%TO.C,U6001*%
X306250000Y-182250000D03*
X306250000Y-184790000D03*
X306250000Y-187330000D03*
X306250000Y-189870000D03*
X306250000Y-192410000D03*
D28*
X305650000Y-178670000D03*
X321650000Y-192170000D03*
%TD*%
D15*
%TO.C,Q3001*%
X262357000Y-261996000D03*
X262357000Y-264536000D03*
D16*
X262357000Y-267076000D03*
%TD*%
D24*
%TO.C,J11001*%
X283560000Y-127540000D03*
X219960000Y-127540000D03*
D42*
X217360000Y-169540000D03*
D43*
X286160000Y-169540000D03*
%TD*%
D44*
%TO.C,J6008*%
X306680000Y-130050000D03*
X306680000Y-127550000D03*
X306680000Y-125050000D03*
D10*
G36*
X307429504Y-121701204D02*
G01*
X307453773Y-121704804D01*
X307477571Y-121710765D01*
X307500671Y-121719030D01*
X307522849Y-121729520D01*
X307543893Y-121742133D01*
X307563598Y-121756747D01*
X307581777Y-121773223D01*
X307598253Y-121791402D01*
X307612867Y-121811107D01*
X307625480Y-121832151D01*
X307635970Y-121854329D01*
X307644235Y-121877429D01*
X307650196Y-121901227D01*
X307653796Y-121925496D01*
X307655000Y-121950000D01*
X307655000Y-123150000D01*
X307653796Y-123174504D01*
X307650196Y-123198773D01*
X307644235Y-123222571D01*
X307635970Y-123245671D01*
X307625480Y-123267849D01*
X307612867Y-123288893D01*
X307598253Y-123308598D01*
X307581777Y-123326777D01*
X307563598Y-123343253D01*
X307543893Y-123357867D01*
X307522849Y-123370480D01*
X307500671Y-123380970D01*
X307477571Y-123389235D01*
X307453773Y-123395196D01*
X307429504Y-123398796D01*
X307405000Y-123400000D01*
X305955000Y-123400000D01*
X305930496Y-123398796D01*
X305906227Y-123395196D01*
X305882429Y-123389235D01*
X305859329Y-123380970D01*
X305837151Y-123370480D01*
X305816107Y-123357867D01*
X305796402Y-123343253D01*
X305778223Y-123326777D01*
X305761747Y-123308598D01*
X305747133Y-123288893D01*
X305734520Y-123267849D01*
X305724030Y-123245671D01*
X305715765Y-123222571D01*
X305709804Y-123198773D01*
X305706204Y-123174504D01*
X305705000Y-123150000D01*
X305705000Y-121950000D01*
X305706204Y-121925496D01*
X305709804Y-121901227D01*
X305715765Y-121877429D01*
X305724030Y-121854329D01*
X305734520Y-121832151D01*
X305747133Y-121811107D01*
X305761747Y-121791402D01*
X305778223Y-121773223D01*
X305796402Y-121756747D01*
X305816107Y-121742133D01*
X305837151Y-121729520D01*
X305859329Y-121719030D01*
X305882429Y-121710765D01*
X305906227Y-121704804D01*
X305930496Y-121701204D01*
X305955000Y-121700000D01*
X307405000Y-121700000D01*
X307429504Y-121701204D01*
G37*
%TD*%
D45*
%TO.C,J6002*%
X318745000Y-258052000D03*
X318745000Y-265552000D03*
%TD*%
D46*
%TO.C,J6001*%
X205367640Y-136520000D03*
X207867640Y-136520000D03*
X210367640Y-136520000D03*
D10*
G36*
X213492144Y-135546204D02*
G01*
X213516413Y-135549804D01*
X213540211Y-135555765D01*
X213563311Y-135564030D01*
X213585489Y-135574520D01*
X213606533Y-135587133D01*
X213626238Y-135601747D01*
X213644417Y-135618223D01*
X213660893Y-135636402D01*
X213675507Y-135656107D01*
X213688120Y-135677151D01*
X213698610Y-135699329D01*
X213706875Y-135722429D01*
X213712836Y-135746227D01*
X213716436Y-135770496D01*
X213717640Y-135795000D01*
X213717640Y-137245000D01*
X213716436Y-137269504D01*
X213712836Y-137293773D01*
X213706875Y-137317571D01*
X213698610Y-137340671D01*
X213688120Y-137362849D01*
X213675507Y-137383893D01*
X213660893Y-137403598D01*
X213644417Y-137421777D01*
X213626238Y-137438253D01*
X213606533Y-137452867D01*
X213585489Y-137465480D01*
X213563311Y-137475970D01*
X213540211Y-137484235D01*
X213516413Y-137490196D01*
X213492144Y-137493796D01*
X213467640Y-137495000D01*
X212267640Y-137495000D01*
X212243136Y-137493796D01*
X212218867Y-137490196D01*
X212195069Y-137484235D01*
X212171969Y-137475970D01*
X212149791Y-137465480D01*
X212128747Y-137452867D01*
X212109042Y-137438253D01*
X212090863Y-137421777D01*
X212074387Y-137403598D01*
X212059773Y-137383893D01*
X212047160Y-137362849D01*
X212036670Y-137340671D01*
X212028405Y-137317571D01*
X212022444Y-137293773D01*
X212018844Y-137269504D01*
X212017640Y-137245000D01*
X212017640Y-135795000D01*
X212018844Y-135770496D01*
X212022444Y-135746227D01*
X212028405Y-135722429D01*
X212036670Y-135699329D01*
X212047160Y-135677151D01*
X212059773Y-135656107D01*
X212074387Y-135636402D01*
X212090863Y-135618223D01*
X212109042Y-135601747D01*
X212128747Y-135587133D01*
X212149791Y-135574520D01*
X212171969Y-135564030D01*
X212195069Y-135555765D01*
X212218867Y-135549804D01*
X212243136Y-135546204D01*
X212267640Y-135545000D01*
X213467640Y-135545000D01*
X213492144Y-135546204D01*
G37*
%TD*%
D19*
%TO.C,J3006*%
X214144000Y-264790000D03*
X209144000Y-264790000D03*
D20*
X204144000Y-264790000D03*
%TD*%
D19*
%TO.C,J3005*%
X231336000Y-264790000D03*
X226336000Y-264790000D03*
D20*
X221336000Y-264790000D03*
%TD*%
D19*
%TO.C,J3004*%
X248462000Y-264790000D03*
X243462000Y-264790000D03*
D20*
X238462000Y-264790000D03*
%TD*%
D31*
%TO.C,J3003*%
X302979000Y-261920000D03*
X302979000Y-264460000D03*
D32*
X302979000Y-267000000D03*
%TD*%
D31*
%TO.C,J3002*%
X300439000Y-261920000D03*
X300439000Y-264460000D03*
D32*
X300439000Y-267000000D03*
%TD*%
D19*
%TO.C,J3001*%
X272771000Y-264790000D03*
D20*
X267691000Y-264790000D03*
%TD*%
M02*
