%TF.GenerationSoftware,KiCad,Pcbnew,5.1.5+dfsg1-2build2*%
%TF.CreationDate,2020-11-09T16:20:19-06:00*%
%TF.ProjectId,TARS-MK1,54415253-2d4d-44b3-912e-6b696361645f,rev?*%
%TF.SameCoordinates,Original*%
%TF.FileFunction,Paste,Bot*%
%TF.FilePolarity,Positive*%
%FSLAX46Y46*%
G04 Gerber Fmt 4.6, Leading zero omitted, Abs format (unit mm)*
G04 Created by KiCad (PCBNEW 5.1.5+dfsg1-2build2) date 2020-11-09 16:20:19*
%MOMM*%
%LPD*%
G04 APERTURE LIST*
%ADD10C,0.100000*%
%ADD11R,2.000000X3.500000*%
%ADD12R,0.300000X1.750000*%
G04 APERTURE END LIST*
D10*
%TO.C,C6002*%
G36*
X309324505Y-268536204D02*
G01*
X309348773Y-268539804D01*
X309372572Y-268545765D01*
X309395671Y-268554030D01*
X309417850Y-268564520D01*
X309438893Y-268577132D01*
X309458599Y-268591747D01*
X309476777Y-268608223D01*
X309493253Y-268626401D01*
X309507868Y-268646107D01*
X309520480Y-268667150D01*
X309530970Y-268689329D01*
X309539235Y-268712428D01*
X309545196Y-268736227D01*
X309548796Y-268760495D01*
X309550000Y-268784999D01*
X309550000Y-269685001D01*
X309548796Y-269709505D01*
X309545196Y-269733773D01*
X309539235Y-269757572D01*
X309530970Y-269780671D01*
X309520480Y-269802850D01*
X309507868Y-269823893D01*
X309493253Y-269843599D01*
X309476777Y-269861777D01*
X309458599Y-269878253D01*
X309438893Y-269892868D01*
X309417850Y-269905480D01*
X309395671Y-269915970D01*
X309372572Y-269924235D01*
X309348773Y-269930196D01*
X309324505Y-269933796D01*
X309300001Y-269935000D01*
X308649999Y-269935000D01*
X308625495Y-269933796D01*
X308601227Y-269930196D01*
X308577428Y-269924235D01*
X308554329Y-269915970D01*
X308532150Y-269905480D01*
X308511107Y-269892868D01*
X308491401Y-269878253D01*
X308473223Y-269861777D01*
X308456747Y-269843599D01*
X308442132Y-269823893D01*
X308429520Y-269802850D01*
X308419030Y-269780671D01*
X308410765Y-269757572D01*
X308404804Y-269733773D01*
X308401204Y-269709505D01*
X308400000Y-269685001D01*
X308400000Y-268784999D01*
X308401204Y-268760495D01*
X308404804Y-268736227D01*
X308410765Y-268712428D01*
X308419030Y-268689329D01*
X308429520Y-268667150D01*
X308442132Y-268646107D01*
X308456747Y-268626401D01*
X308473223Y-268608223D01*
X308491401Y-268591747D01*
X308511107Y-268577132D01*
X308532150Y-268564520D01*
X308554329Y-268554030D01*
X308577428Y-268545765D01*
X308601227Y-268539804D01*
X308625495Y-268536204D01*
X308649999Y-268535000D01*
X309300001Y-268535000D01*
X309324505Y-268536204D01*
G37*
G36*
X307274505Y-268536204D02*
G01*
X307298773Y-268539804D01*
X307322572Y-268545765D01*
X307345671Y-268554030D01*
X307367850Y-268564520D01*
X307388893Y-268577132D01*
X307408599Y-268591747D01*
X307426777Y-268608223D01*
X307443253Y-268626401D01*
X307457868Y-268646107D01*
X307470480Y-268667150D01*
X307480970Y-268689329D01*
X307489235Y-268712428D01*
X307495196Y-268736227D01*
X307498796Y-268760495D01*
X307500000Y-268784999D01*
X307500000Y-269685001D01*
X307498796Y-269709505D01*
X307495196Y-269733773D01*
X307489235Y-269757572D01*
X307480970Y-269780671D01*
X307470480Y-269802850D01*
X307457868Y-269823893D01*
X307443253Y-269843599D01*
X307426777Y-269861777D01*
X307408599Y-269878253D01*
X307388893Y-269892868D01*
X307367850Y-269905480D01*
X307345671Y-269915970D01*
X307322572Y-269924235D01*
X307298773Y-269930196D01*
X307274505Y-269933796D01*
X307250001Y-269935000D01*
X306599999Y-269935000D01*
X306575495Y-269933796D01*
X306551227Y-269930196D01*
X306527428Y-269924235D01*
X306504329Y-269915970D01*
X306482150Y-269905480D01*
X306461107Y-269892868D01*
X306441401Y-269878253D01*
X306423223Y-269861777D01*
X306406747Y-269843599D01*
X306392132Y-269823893D01*
X306379520Y-269802850D01*
X306369030Y-269780671D01*
X306360765Y-269757572D01*
X306354804Y-269733773D01*
X306351204Y-269709505D01*
X306350000Y-269685001D01*
X306350000Y-268784999D01*
X306351204Y-268760495D01*
X306354804Y-268736227D01*
X306360765Y-268712428D01*
X306369030Y-268689329D01*
X306379520Y-268667150D01*
X306392132Y-268646107D01*
X306406747Y-268626401D01*
X306423223Y-268608223D01*
X306441401Y-268591747D01*
X306461107Y-268577132D01*
X306482150Y-268564520D01*
X306504329Y-268554030D01*
X306527428Y-268545765D01*
X306551227Y-268539804D01*
X306575495Y-268536204D01*
X306599999Y-268535000D01*
X307250001Y-268535000D01*
X307274505Y-268536204D01*
G37*
%TD*%
%TO.C,C6001*%
G36*
X307274505Y-258376204D02*
G01*
X307298773Y-258379804D01*
X307322572Y-258385765D01*
X307345671Y-258394030D01*
X307367850Y-258404520D01*
X307388893Y-258417132D01*
X307408599Y-258431747D01*
X307426777Y-258448223D01*
X307443253Y-258466401D01*
X307457868Y-258486107D01*
X307470480Y-258507150D01*
X307480970Y-258529329D01*
X307489235Y-258552428D01*
X307495196Y-258576227D01*
X307498796Y-258600495D01*
X307500000Y-258624999D01*
X307500000Y-259525001D01*
X307498796Y-259549505D01*
X307495196Y-259573773D01*
X307489235Y-259597572D01*
X307480970Y-259620671D01*
X307470480Y-259642850D01*
X307457868Y-259663893D01*
X307443253Y-259683599D01*
X307426777Y-259701777D01*
X307408599Y-259718253D01*
X307388893Y-259732868D01*
X307367850Y-259745480D01*
X307345671Y-259755970D01*
X307322572Y-259764235D01*
X307298773Y-259770196D01*
X307274505Y-259773796D01*
X307250001Y-259775000D01*
X306599999Y-259775000D01*
X306575495Y-259773796D01*
X306551227Y-259770196D01*
X306527428Y-259764235D01*
X306504329Y-259755970D01*
X306482150Y-259745480D01*
X306461107Y-259732868D01*
X306441401Y-259718253D01*
X306423223Y-259701777D01*
X306406747Y-259683599D01*
X306392132Y-259663893D01*
X306379520Y-259642850D01*
X306369030Y-259620671D01*
X306360765Y-259597572D01*
X306354804Y-259573773D01*
X306351204Y-259549505D01*
X306350000Y-259525001D01*
X306350000Y-258624999D01*
X306351204Y-258600495D01*
X306354804Y-258576227D01*
X306360765Y-258552428D01*
X306369030Y-258529329D01*
X306379520Y-258507150D01*
X306392132Y-258486107D01*
X306406747Y-258466401D01*
X306423223Y-258448223D01*
X306441401Y-258431747D01*
X306461107Y-258417132D01*
X306482150Y-258404520D01*
X306504329Y-258394030D01*
X306527428Y-258385765D01*
X306551227Y-258379804D01*
X306575495Y-258376204D01*
X306599999Y-258375000D01*
X307250001Y-258375000D01*
X307274505Y-258376204D01*
G37*
G36*
X309324505Y-258376204D02*
G01*
X309348773Y-258379804D01*
X309372572Y-258385765D01*
X309395671Y-258394030D01*
X309417850Y-258404520D01*
X309438893Y-258417132D01*
X309458599Y-258431747D01*
X309476777Y-258448223D01*
X309493253Y-258466401D01*
X309507868Y-258486107D01*
X309520480Y-258507150D01*
X309530970Y-258529329D01*
X309539235Y-258552428D01*
X309545196Y-258576227D01*
X309548796Y-258600495D01*
X309550000Y-258624999D01*
X309550000Y-259525001D01*
X309548796Y-259549505D01*
X309545196Y-259573773D01*
X309539235Y-259597572D01*
X309530970Y-259620671D01*
X309520480Y-259642850D01*
X309507868Y-259663893D01*
X309493253Y-259683599D01*
X309476777Y-259701777D01*
X309458599Y-259718253D01*
X309438893Y-259732868D01*
X309417850Y-259745480D01*
X309395671Y-259755970D01*
X309372572Y-259764235D01*
X309348773Y-259770196D01*
X309324505Y-259773796D01*
X309300001Y-259775000D01*
X308649999Y-259775000D01*
X308625495Y-259773796D01*
X308601227Y-259770196D01*
X308577428Y-259764235D01*
X308554329Y-259755970D01*
X308532150Y-259745480D01*
X308511107Y-259732868D01*
X308491401Y-259718253D01*
X308473223Y-259701777D01*
X308456747Y-259683599D01*
X308442132Y-259663893D01*
X308429520Y-259642850D01*
X308419030Y-259620671D01*
X308410765Y-259597572D01*
X308404804Y-259573773D01*
X308401204Y-259549505D01*
X308400000Y-259525001D01*
X308400000Y-258624999D01*
X308401204Y-258600495D01*
X308404804Y-258576227D01*
X308410765Y-258552428D01*
X308419030Y-258529329D01*
X308429520Y-258507150D01*
X308442132Y-258486107D01*
X308456747Y-258466401D01*
X308473223Y-258448223D01*
X308491401Y-258431747D01*
X308511107Y-258417132D01*
X308532150Y-258404520D01*
X308554329Y-258394030D01*
X308577428Y-258385765D01*
X308601227Y-258379804D01*
X308625495Y-258376204D01*
X308649999Y-258375000D01*
X309300001Y-258375000D01*
X309324505Y-258376204D01*
G37*
%TD*%
%TO.C,R3005*%
G36*
X209391505Y-260789204D02*
G01*
X209415773Y-260792804D01*
X209439572Y-260798765D01*
X209462671Y-260807030D01*
X209484850Y-260817520D01*
X209505893Y-260830132D01*
X209525599Y-260844747D01*
X209543777Y-260861223D01*
X209560253Y-260879401D01*
X209574868Y-260899107D01*
X209587480Y-260920150D01*
X209597970Y-260942329D01*
X209606235Y-260965428D01*
X209612196Y-260989227D01*
X209615796Y-261013495D01*
X209617000Y-261037999D01*
X209617000Y-261938001D01*
X209615796Y-261962505D01*
X209612196Y-261986773D01*
X209606235Y-262010572D01*
X209597970Y-262033671D01*
X209587480Y-262055850D01*
X209574868Y-262076893D01*
X209560253Y-262096599D01*
X209543777Y-262114777D01*
X209525599Y-262131253D01*
X209505893Y-262145868D01*
X209484850Y-262158480D01*
X209462671Y-262168970D01*
X209439572Y-262177235D01*
X209415773Y-262183196D01*
X209391505Y-262186796D01*
X209367001Y-262188000D01*
X208666999Y-262188000D01*
X208642495Y-262186796D01*
X208618227Y-262183196D01*
X208594428Y-262177235D01*
X208571329Y-262168970D01*
X208549150Y-262158480D01*
X208528107Y-262145868D01*
X208508401Y-262131253D01*
X208490223Y-262114777D01*
X208473747Y-262096599D01*
X208459132Y-262076893D01*
X208446520Y-262055850D01*
X208436030Y-262033671D01*
X208427765Y-262010572D01*
X208421804Y-261986773D01*
X208418204Y-261962505D01*
X208417000Y-261938001D01*
X208417000Y-261037999D01*
X208418204Y-261013495D01*
X208421804Y-260989227D01*
X208427765Y-260965428D01*
X208436030Y-260942329D01*
X208446520Y-260920150D01*
X208459132Y-260899107D01*
X208473747Y-260879401D01*
X208490223Y-260861223D01*
X208508401Y-260844747D01*
X208528107Y-260830132D01*
X208549150Y-260817520D01*
X208571329Y-260807030D01*
X208594428Y-260798765D01*
X208618227Y-260792804D01*
X208642495Y-260789204D01*
X208666999Y-260788000D01*
X209367001Y-260788000D01*
X209391505Y-260789204D01*
G37*
G36*
X207391505Y-260789204D02*
G01*
X207415773Y-260792804D01*
X207439572Y-260798765D01*
X207462671Y-260807030D01*
X207484850Y-260817520D01*
X207505893Y-260830132D01*
X207525599Y-260844747D01*
X207543777Y-260861223D01*
X207560253Y-260879401D01*
X207574868Y-260899107D01*
X207587480Y-260920150D01*
X207597970Y-260942329D01*
X207606235Y-260965428D01*
X207612196Y-260989227D01*
X207615796Y-261013495D01*
X207617000Y-261037999D01*
X207617000Y-261938001D01*
X207615796Y-261962505D01*
X207612196Y-261986773D01*
X207606235Y-262010572D01*
X207597970Y-262033671D01*
X207587480Y-262055850D01*
X207574868Y-262076893D01*
X207560253Y-262096599D01*
X207543777Y-262114777D01*
X207525599Y-262131253D01*
X207505893Y-262145868D01*
X207484850Y-262158480D01*
X207462671Y-262168970D01*
X207439572Y-262177235D01*
X207415773Y-262183196D01*
X207391505Y-262186796D01*
X207367001Y-262188000D01*
X206666999Y-262188000D01*
X206642495Y-262186796D01*
X206618227Y-262183196D01*
X206594428Y-262177235D01*
X206571329Y-262168970D01*
X206549150Y-262158480D01*
X206528107Y-262145868D01*
X206508401Y-262131253D01*
X206490223Y-262114777D01*
X206473747Y-262096599D01*
X206459132Y-262076893D01*
X206446520Y-262055850D01*
X206436030Y-262033671D01*
X206427765Y-262010572D01*
X206421804Y-261986773D01*
X206418204Y-261962505D01*
X206417000Y-261938001D01*
X206417000Y-261037999D01*
X206418204Y-261013495D01*
X206421804Y-260989227D01*
X206427765Y-260965428D01*
X206436030Y-260942329D01*
X206446520Y-260920150D01*
X206459132Y-260899107D01*
X206473747Y-260879401D01*
X206490223Y-260861223D01*
X206508401Y-260844747D01*
X206528107Y-260830132D01*
X206549150Y-260817520D01*
X206571329Y-260807030D01*
X206594428Y-260798765D01*
X206618227Y-260792804D01*
X206642495Y-260789204D01*
X206666999Y-260788000D01*
X207367001Y-260788000D01*
X207391505Y-260789204D01*
G37*
%TD*%
%TO.C,R3004*%
G36*
X226631505Y-260789204D02*
G01*
X226655773Y-260792804D01*
X226679572Y-260798765D01*
X226702671Y-260807030D01*
X226724850Y-260817520D01*
X226745893Y-260830132D01*
X226765599Y-260844747D01*
X226783777Y-260861223D01*
X226800253Y-260879401D01*
X226814868Y-260899107D01*
X226827480Y-260920150D01*
X226837970Y-260942329D01*
X226846235Y-260965428D01*
X226852196Y-260989227D01*
X226855796Y-261013495D01*
X226857000Y-261037999D01*
X226857000Y-261938001D01*
X226855796Y-261962505D01*
X226852196Y-261986773D01*
X226846235Y-262010572D01*
X226837970Y-262033671D01*
X226827480Y-262055850D01*
X226814868Y-262076893D01*
X226800253Y-262096599D01*
X226783777Y-262114777D01*
X226765599Y-262131253D01*
X226745893Y-262145868D01*
X226724850Y-262158480D01*
X226702671Y-262168970D01*
X226679572Y-262177235D01*
X226655773Y-262183196D01*
X226631505Y-262186796D01*
X226607001Y-262188000D01*
X225906999Y-262188000D01*
X225882495Y-262186796D01*
X225858227Y-262183196D01*
X225834428Y-262177235D01*
X225811329Y-262168970D01*
X225789150Y-262158480D01*
X225768107Y-262145868D01*
X225748401Y-262131253D01*
X225730223Y-262114777D01*
X225713747Y-262096599D01*
X225699132Y-262076893D01*
X225686520Y-262055850D01*
X225676030Y-262033671D01*
X225667765Y-262010572D01*
X225661804Y-261986773D01*
X225658204Y-261962505D01*
X225657000Y-261938001D01*
X225657000Y-261037999D01*
X225658204Y-261013495D01*
X225661804Y-260989227D01*
X225667765Y-260965428D01*
X225676030Y-260942329D01*
X225686520Y-260920150D01*
X225699132Y-260899107D01*
X225713747Y-260879401D01*
X225730223Y-260861223D01*
X225748401Y-260844747D01*
X225768107Y-260830132D01*
X225789150Y-260817520D01*
X225811329Y-260807030D01*
X225834428Y-260798765D01*
X225858227Y-260792804D01*
X225882495Y-260789204D01*
X225906999Y-260788000D01*
X226607001Y-260788000D01*
X226631505Y-260789204D01*
G37*
G36*
X224631505Y-260789204D02*
G01*
X224655773Y-260792804D01*
X224679572Y-260798765D01*
X224702671Y-260807030D01*
X224724850Y-260817520D01*
X224745893Y-260830132D01*
X224765599Y-260844747D01*
X224783777Y-260861223D01*
X224800253Y-260879401D01*
X224814868Y-260899107D01*
X224827480Y-260920150D01*
X224837970Y-260942329D01*
X224846235Y-260965428D01*
X224852196Y-260989227D01*
X224855796Y-261013495D01*
X224857000Y-261037999D01*
X224857000Y-261938001D01*
X224855796Y-261962505D01*
X224852196Y-261986773D01*
X224846235Y-262010572D01*
X224837970Y-262033671D01*
X224827480Y-262055850D01*
X224814868Y-262076893D01*
X224800253Y-262096599D01*
X224783777Y-262114777D01*
X224765599Y-262131253D01*
X224745893Y-262145868D01*
X224724850Y-262158480D01*
X224702671Y-262168970D01*
X224679572Y-262177235D01*
X224655773Y-262183196D01*
X224631505Y-262186796D01*
X224607001Y-262188000D01*
X223906999Y-262188000D01*
X223882495Y-262186796D01*
X223858227Y-262183196D01*
X223834428Y-262177235D01*
X223811329Y-262168970D01*
X223789150Y-262158480D01*
X223768107Y-262145868D01*
X223748401Y-262131253D01*
X223730223Y-262114777D01*
X223713747Y-262096599D01*
X223699132Y-262076893D01*
X223686520Y-262055850D01*
X223676030Y-262033671D01*
X223667765Y-262010572D01*
X223661804Y-261986773D01*
X223658204Y-261962505D01*
X223657000Y-261938001D01*
X223657000Y-261037999D01*
X223658204Y-261013495D01*
X223661804Y-260989227D01*
X223667765Y-260965428D01*
X223676030Y-260942329D01*
X223686520Y-260920150D01*
X223699132Y-260899107D01*
X223713747Y-260879401D01*
X223730223Y-260861223D01*
X223748401Y-260844747D01*
X223768107Y-260830132D01*
X223789150Y-260817520D01*
X223811329Y-260807030D01*
X223834428Y-260798765D01*
X223858227Y-260792804D01*
X223882495Y-260789204D01*
X223906999Y-260788000D01*
X224607001Y-260788000D01*
X224631505Y-260789204D01*
G37*
%TD*%
%TO.C,R3003*%
G36*
X243916505Y-260789204D02*
G01*
X243940773Y-260792804D01*
X243964572Y-260798765D01*
X243987671Y-260807030D01*
X244009850Y-260817520D01*
X244030893Y-260830132D01*
X244050599Y-260844747D01*
X244068777Y-260861223D01*
X244085253Y-260879401D01*
X244099868Y-260899107D01*
X244112480Y-260920150D01*
X244122970Y-260942329D01*
X244131235Y-260965428D01*
X244137196Y-260989227D01*
X244140796Y-261013495D01*
X244142000Y-261037999D01*
X244142000Y-261938001D01*
X244140796Y-261962505D01*
X244137196Y-261986773D01*
X244131235Y-262010572D01*
X244122970Y-262033671D01*
X244112480Y-262055850D01*
X244099868Y-262076893D01*
X244085253Y-262096599D01*
X244068777Y-262114777D01*
X244050599Y-262131253D01*
X244030893Y-262145868D01*
X244009850Y-262158480D01*
X243987671Y-262168970D01*
X243964572Y-262177235D01*
X243940773Y-262183196D01*
X243916505Y-262186796D01*
X243892001Y-262188000D01*
X243191999Y-262188000D01*
X243167495Y-262186796D01*
X243143227Y-262183196D01*
X243119428Y-262177235D01*
X243096329Y-262168970D01*
X243074150Y-262158480D01*
X243053107Y-262145868D01*
X243033401Y-262131253D01*
X243015223Y-262114777D01*
X242998747Y-262096599D01*
X242984132Y-262076893D01*
X242971520Y-262055850D01*
X242961030Y-262033671D01*
X242952765Y-262010572D01*
X242946804Y-261986773D01*
X242943204Y-261962505D01*
X242942000Y-261938001D01*
X242942000Y-261037999D01*
X242943204Y-261013495D01*
X242946804Y-260989227D01*
X242952765Y-260965428D01*
X242961030Y-260942329D01*
X242971520Y-260920150D01*
X242984132Y-260899107D01*
X242998747Y-260879401D01*
X243015223Y-260861223D01*
X243033401Y-260844747D01*
X243053107Y-260830132D01*
X243074150Y-260817520D01*
X243096329Y-260807030D01*
X243119428Y-260798765D01*
X243143227Y-260792804D01*
X243167495Y-260789204D01*
X243191999Y-260788000D01*
X243892001Y-260788000D01*
X243916505Y-260789204D01*
G37*
G36*
X241916505Y-260789204D02*
G01*
X241940773Y-260792804D01*
X241964572Y-260798765D01*
X241987671Y-260807030D01*
X242009850Y-260817520D01*
X242030893Y-260830132D01*
X242050599Y-260844747D01*
X242068777Y-260861223D01*
X242085253Y-260879401D01*
X242099868Y-260899107D01*
X242112480Y-260920150D01*
X242122970Y-260942329D01*
X242131235Y-260965428D01*
X242137196Y-260989227D01*
X242140796Y-261013495D01*
X242142000Y-261037999D01*
X242142000Y-261938001D01*
X242140796Y-261962505D01*
X242137196Y-261986773D01*
X242131235Y-262010572D01*
X242122970Y-262033671D01*
X242112480Y-262055850D01*
X242099868Y-262076893D01*
X242085253Y-262096599D01*
X242068777Y-262114777D01*
X242050599Y-262131253D01*
X242030893Y-262145868D01*
X242009850Y-262158480D01*
X241987671Y-262168970D01*
X241964572Y-262177235D01*
X241940773Y-262183196D01*
X241916505Y-262186796D01*
X241892001Y-262188000D01*
X241191999Y-262188000D01*
X241167495Y-262186796D01*
X241143227Y-262183196D01*
X241119428Y-262177235D01*
X241096329Y-262168970D01*
X241074150Y-262158480D01*
X241053107Y-262145868D01*
X241033401Y-262131253D01*
X241015223Y-262114777D01*
X240998747Y-262096599D01*
X240984132Y-262076893D01*
X240971520Y-262055850D01*
X240961030Y-262033671D01*
X240952765Y-262010572D01*
X240946804Y-261986773D01*
X240943204Y-261962505D01*
X240942000Y-261938001D01*
X240942000Y-261037999D01*
X240943204Y-261013495D01*
X240946804Y-260989227D01*
X240952765Y-260965428D01*
X240961030Y-260942329D01*
X240971520Y-260920150D01*
X240984132Y-260899107D01*
X240998747Y-260879401D01*
X241015223Y-260861223D01*
X241033401Y-260844747D01*
X241053107Y-260830132D01*
X241074150Y-260817520D01*
X241096329Y-260807030D01*
X241119428Y-260798765D01*
X241143227Y-260792804D01*
X241167495Y-260789204D01*
X241191999Y-260788000D01*
X241892001Y-260788000D01*
X241916505Y-260789204D01*
G37*
%TD*%
%TO.C,R3002*%
G36*
X263080505Y-258884204D02*
G01*
X263104773Y-258887804D01*
X263128572Y-258893765D01*
X263151671Y-258902030D01*
X263173850Y-258912520D01*
X263194893Y-258925132D01*
X263214599Y-258939747D01*
X263232777Y-258956223D01*
X263249253Y-258974401D01*
X263263868Y-258994107D01*
X263276480Y-259015150D01*
X263286970Y-259037329D01*
X263295235Y-259060428D01*
X263301196Y-259084227D01*
X263304796Y-259108495D01*
X263306000Y-259132999D01*
X263306000Y-260033001D01*
X263304796Y-260057505D01*
X263301196Y-260081773D01*
X263295235Y-260105572D01*
X263286970Y-260128671D01*
X263276480Y-260150850D01*
X263263868Y-260171893D01*
X263249253Y-260191599D01*
X263232777Y-260209777D01*
X263214599Y-260226253D01*
X263194893Y-260240868D01*
X263173850Y-260253480D01*
X263151671Y-260263970D01*
X263128572Y-260272235D01*
X263104773Y-260278196D01*
X263080505Y-260281796D01*
X263056001Y-260283000D01*
X262355999Y-260283000D01*
X262331495Y-260281796D01*
X262307227Y-260278196D01*
X262283428Y-260272235D01*
X262260329Y-260263970D01*
X262238150Y-260253480D01*
X262217107Y-260240868D01*
X262197401Y-260226253D01*
X262179223Y-260209777D01*
X262162747Y-260191599D01*
X262148132Y-260171893D01*
X262135520Y-260150850D01*
X262125030Y-260128671D01*
X262116765Y-260105572D01*
X262110804Y-260081773D01*
X262107204Y-260057505D01*
X262106000Y-260033001D01*
X262106000Y-259132999D01*
X262107204Y-259108495D01*
X262110804Y-259084227D01*
X262116765Y-259060428D01*
X262125030Y-259037329D01*
X262135520Y-259015150D01*
X262148132Y-258994107D01*
X262162747Y-258974401D01*
X262179223Y-258956223D01*
X262197401Y-258939747D01*
X262217107Y-258925132D01*
X262238150Y-258912520D01*
X262260329Y-258902030D01*
X262283428Y-258893765D01*
X262307227Y-258887804D01*
X262331495Y-258884204D01*
X262355999Y-258883000D01*
X263056001Y-258883000D01*
X263080505Y-258884204D01*
G37*
G36*
X261080505Y-258884204D02*
G01*
X261104773Y-258887804D01*
X261128572Y-258893765D01*
X261151671Y-258902030D01*
X261173850Y-258912520D01*
X261194893Y-258925132D01*
X261214599Y-258939747D01*
X261232777Y-258956223D01*
X261249253Y-258974401D01*
X261263868Y-258994107D01*
X261276480Y-259015150D01*
X261286970Y-259037329D01*
X261295235Y-259060428D01*
X261301196Y-259084227D01*
X261304796Y-259108495D01*
X261306000Y-259132999D01*
X261306000Y-260033001D01*
X261304796Y-260057505D01*
X261301196Y-260081773D01*
X261295235Y-260105572D01*
X261286970Y-260128671D01*
X261276480Y-260150850D01*
X261263868Y-260171893D01*
X261249253Y-260191599D01*
X261232777Y-260209777D01*
X261214599Y-260226253D01*
X261194893Y-260240868D01*
X261173850Y-260253480D01*
X261151671Y-260263970D01*
X261128572Y-260272235D01*
X261104773Y-260278196D01*
X261080505Y-260281796D01*
X261056001Y-260283000D01*
X260355999Y-260283000D01*
X260331495Y-260281796D01*
X260307227Y-260278196D01*
X260283428Y-260272235D01*
X260260329Y-260263970D01*
X260238150Y-260253480D01*
X260217107Y-260240868D01*
X260197401Y-260226253D01*
X260179223Y-260209777D01*
X260162747Y-260191599D01*
X260148132Y-260171893D01*
X260135520Y-260150850D01*
X260125030Y-260128671D01*
X260116765Y-260105572D01*
X260110804Y-260081773D01*
X260107204Y-260057505D01*
X260106000Y-260033001D01*
X260106000Y-259132999D01*
X260107204Y-259108495D01*
X260110804Y-259084227D01*
X260116765Y-259060428D01*
X260125030Y-259037329D01*
X260135520Y-259015150D01*
X260148132Y-258994107D01*
X260162747Y-258974401D01*
X260179223Y-258956223D01*
X260197401Y-258939747D01*
X260217107Y-258925132D01*
X260238150Y-258912520D01*
X260260329Y-258902030D01*
X260283428Y-258893765D01*
X260307227Y-258887804D01*
X260331495Y-258884204D01*
X260355999Y-258883000D01*
X261056001Y-258883000D01*
X261080505Y-258884204D01*
G37*
%TD*%
%TO.C,R3001*%
G36*
X263207505Y-269298204D02*
G01*
X263231773Y-269301804D01*
X263255572Y-269307765D01*
X263278671Y-269316030D01*
X263300850Y-269326520D01*
X263321893Y-269339132D01*
X263341599Y-269353747D01*
X263359777Y-269370223D01*
X263376253Y-269388401D01*
X263390868Y-269408107D01*
X263403480Y-269429150D01*
X263413970Y-269451329D01*
X263422235Y-269474428D01*
X263428196Y-269498227D01*
X263431796Y-269522495D01*
X263433000Y-269546999D01*
X263433000Y-270447001D01*
X263431796Y-270471505D01*
X263428196Y-270495773D01*
X263422235Y-270519572D01*
X263413970Y-270542671D01*
X263403480Y-270564850D01*
X263390868Y-270585893D01*
X263376253Y-270605599D01*
X263359777Y-270623777D01*
X263341599Y-270640253D01*
X263321893Y-270654868D01*
X263300850Y-270667480D01*
X263278671Y-270677970D01*
X263255572Y-270686235D01*
X263231773Y-270692196D01*
X263207505Y-270695796D01*
X263183001Y-270697000D01*
X262482999Y-270697000D01*
X262458495Y-270695796D01*
X262434227Y-270692196D01*
X262410428Y-270686235D01*
X262387329Y-270677970D01*
X262365150Y-270667480D01*
X262344107Y-270654868D01*
X262324401Y-270640253D01*
X262306223Y-270623777D01*
X262289747Y-270605599D01*
X262275132Y-270585893D01*
X262262520Y-270564850D01*
X262252030Y-270542671D01*
X262243765Y-270519572D01*
X262237804Y-270495773D01*
X262234204Y-270471505D01*
X262233000Y-270447001D01*
X262233000Y-269546999D01*
X262234204Y-269522495D01*
X262237804Y-269498227D01*
X262243765Y-269474428D01*
X262252030Y-269451329D01*
X262262520Y-269429150D01*
X262275132Y-269408107D01*
X262289747Y-269388401D01*
X262306223Y-269370223D01*
X262324401Y-269353747D01*
X262344107Y-269339132D01*
X262365150Y-269326520D01*
X262387329Y-269316030D01*
X262410428Y-269307765D01*
X262434227Y-269301804D01*
X262458495Y-269298204D01*
X262482999Y-269297000D01*
X263183001Y-269297000D01*
X263207505Y-269298204D01*
G37*
G36*
X261207505Y-269298204D02*
G01*
X261231773Y-269301804D01*
X261255572Y-269307765D01*
X261278671Y-269316030D01*
X261300850Y-269326520D01*
X261321893Y-269339132D01*
X261341599Y-269353747D01*
X261359777Y-269370223D01*
X261376253Y-269388401D01*
X261390868Y-269408107D01*
X261403480Y-269429150D01*
X261413970Y-269451329D01*
X261422235Y-269474428D01*
X261428196Y-269498227D01*
X261431796Y-269522495D01*
X261433000Y-269546999D01*
X261433000Y-270447001D01*
X261431796Y-270471505D01*
X261428196Y-270495773D01*
X261422235Y-270519572D01*
X261413970Y-270542671D01*
X261403480Y-270564850D01*
X261390868Y-270585893D01*
X261376253Y-270605599D01*
X261359777Y-270623777D01*
X261341599Y-270640253D01*
X261321893Y-270654868D01*
X261300850Y-270667480D01*
X261278671Y-270677970D01*
X261255572Y-270686235D01*
X261231773Y-270692196D01*
X261207505Y-270695796D01*
X261183001Y-270697000D01*
X260482999Y-270697000D01*
X260458495Y-270695796D01*
X260434227Y-270692196D01*
X260410428Y-270686235D01*
X260387329Y-270677970D01*
X260365150Y-270667480D01*
X260344107Y-270654868D01*
X260324401Y-270640253D01*
X260306223Y-270623777D01*
X260289747Y-270605599D01*
X260275132Y-270585893D01*
X260262520Y-270564850D01*
X260252030Y-270542671D01*
X260243765Y-270519572D01*
X260237804Y-270495773D01*
X260234204Y-270471505D01*
X260233000Y-270447001D01*
X260233000Y-269546999D01*
X260234204Y-269522495D01*
X260237804Y-269498227D01*
X260243765Y-269474428D01*
X260252030Y-269451329D01*
X260262520Y-269429150D01*
X260275132Y-269408107D01*
X260289747Y-269388401D01*
X260306223Y-269370223D01*
X260324401Y-269353747D01*
X260344107Y-269339132D01*
X260365150Y-269326520D01*
X260387329Y-269316030D01*
X260410428Y-269307765D01*
X260434227Y-269301804D01*
X260458495Y-269298204D01*
X260482999Y-269297000D01*
X261183001Y-269297000D01*
X261207505Y-269298204D01*
G37*
%TD*%
D11*
%TO.C,J11001*%
X289510000Y-157540000D03*
X214010000Y-161540000D03*
D12*
X218385000Y-165440000D03*
X218635000Y-173640000D03*
X218885000Y-165440000D03*
X219135000Y-173640000D03*
X219385000Y-165440000D03*
X219635000Y-173640000D03*
X219885000Y-165440000D03*
X220135000Y-173640000D03*
X220385000Y-165440000D03*
X220635000Y-173640000D03*
X220885000Y-165440000D03*
X221135000Y-173640000D03*
X221385000Y-165440000D03*
X221635000Y-173640000D03*
X221885000Y-165440000D03*
X222135000Y-173640000D03*
X222385000Y-165440000D03*
X222635000Y-173640000D03*
X222885000Y-165440000D03*
X223135000Y-173640000D03*
X223385000Y-165440000D03*
X223635000Y-173640000D03*
X223885000Y-165440000D03*
X224135000Y-173640000D03*
X224385000Y-165440000D03*
X224635000Y-173640000D03*
X224885000Y-165440000D03*
X225135000Y-173640000D03*
X225385000Y-165440000D03*
X225635000Y-173640000D03*
X225885000Y-165440000D03*
X226135000Y-173640000D03*
X226385000Y-165440000D03*
X226635000Y-173640000D03*
X226885000Y-165440000D03*
X227135000Y-173640000D03*
X227385000Y-165440000D03*
X227635000Y-173640000D03*
X227885000Y-165440000D03*
X228135000Y-173640000D03*
X228385000Y-165440000D03*
X228635000Y-173640000D03*
X228885000Y-165440000D03*
X229135000Y-173640000D03*
X229385000Y-165440000D03*
X229635000Y-173640000D03*
X229885000Y-165440000D03*
X230135000Y-173640000D03*
X230385000Y-165440000D03*
X230635000Y-173640000D03*
X230885000Y-165440000D03*
X231135000Y-173640000D03*
X231385000Y-165440000D03*
X231635000Y-173640000D03*
X231885000Y-165440000D03*
X232135000Y-173640000D03*
X232385000Y-165440000D03*
X232635000Y-173640000D03*
X232885000Y-165440000D03*
X233135000Y-173640000D03*
X233385000Y-165440000D03*
X233635000Y-173640000D03*
X233885000Y-165440000D03*
X234135000Y-173640000D03*
X234385000Y-165440000D03*
X234635000Y-173640000D03*
X234885000Y-165440000D03*
X235135000Y-173640000D03*
X235385000Y-165440000D03*
X235635000Y-173640000D03*
X235885000Y-165440000D03*
X236135000Y-173640000D03*
X236385000Y-165440000D03*
X236635000Y-173640000D03*
X236885000Y-165440000D03*
X237135000Y-173640000D03*
X237385000Y-165440000D03*
X237635000Y-173640000D03*
X237885000Y-165440000D03*
X238135000Y-173640000D03*
X238385000Y-165440000D03*
X238635000Y-173640000D03*
X238885000Y-165440000D03*
X239135000Y-173640000D03*
X239385000Y-165440000D03*
X239635000Y-173640000D03*
X239885000Y-165440000D03*
X240135000Y-173640000D03*
X240385000Y-165440000D03*
X240635000Y-173640000D03*
X240885000Y-165440000D03*
X241135000Y-173640000D03*
X241385000Y-165440000D03*
X241635000Y-173640000D03*
X241885000Y-165440000D03*
X242135000Y-173640000D03*
X242385000Y-165440000D03*
X242635000Y-173640000D03*
X242885000Y-165440000D03*
X243135000Y-173640000D03*
X243385000Y-165440000D03*
X243635000Y-173640000D03*
X243885000Y-165440000D03*
X244135000Y-173640000D03*
X244385000Y-165440000D03*
X244635000Y-173640000D03*
X244885000Y-165440000D03*
X245135000Y-173640000D03*
X245385000Y-165440000D03*
X245635000Y-173640000D03*
X245885000Y-165440000D03*
X246135000Y-173640000D03*
X246385000Y-165440000D03*
X246635000Y-173640000D03*
X246885000Y-165440000D03*
X247135000Y-173640000D03*
X249385000Y-165440000D03*
X249635000Y-173640000D03*
X249885000Y-165440000D03*
X250135000Y-173640000D03*
X250385000Y-165440000D03*
X250635000Y-173640000D03*
X250885000Y-165440000D03*
X251135000Y-173640000D03*
X251385000Y-165440000D03*
X251635000Y-173640000D03*
X251885000Y-165440000D03*
X252135000Y-173640000D03*
X252385000Y-165440000D03*
X252635000Y-173640000D03*
X252885000Y-165440000D03*
X253135000Y-173640000D03*
X253385000Y-165440000D03*
X253635000Y-173640000D03*
X253885000Y-165440000D03*
X254135000Y-173640000D03*
X254385000Y-165440000D03*
X254635000Y-173640000D03*
X254885000Y-165440000D03*
X255135000Y-173640000D03*
X255385000Y-165440000D03*
X255635000Y-173640000D03*
X255885000Y-165440000D03*
X256135000Y-173640000D03*
X256385000Y-165440000D03*
X256635000Y-173640000D03*
X256885000Y-165440000D03*
X257135000Y-173640000D03*
X257385000Y-165440000D03*
X257635000Y-173640000D03*
X257885000Y-165440000D03*
X258135000Y-173640000D03*
X258385000Y-165440000D03*
X258635000Y-173640000D03*
X258885000Y-165440000D03*
X259135000Y-173640000D03*
X259385000Y-165440000D03*
X259635000Y-173640000D03*
X259885000Y-165440000D03*
X260135000Y-173640000D03*
X260385000Y-165440000D03*
X260635000Y-173640000D03*
X260885000Y-165440000D03*
X261135000Y-173640000D03*
X261385000Y-165440000D03*
X261635000Y-173640000D03*
X261885000Y-165440000D03*
X262135000Y-173640000D03*
X262385000Y-165440000D03*
X262635000Y-173640000D03*
X262885000Y-165440000D03*
X263135000Y-173640000D03*
X263385000Y-165440000D03*
X263635000Y-173640000D03*
X263885000Y-165440000D03*
X264135000Y-173640000D03*
X264385000Y-165440000D03*
X264635000Y-173640000D03*
X264885000Y-165440000D03*
X265135000Y-173640000D03*
X265385000Y-165440000D03*
X265635000Y-173640000D03*
X265885000Y-165440000D03*
X266135000Y-173640000D03*
X266385000Y-165440000D03*
X266635000Y-173640000D03*
X266885000Y-165440000D03*
X267135000Y-173640000D03*
X267385000Y-165440000D03*
X267635000Y-173640000D03*
X267885000Y-165440000D03*
X268135000Y-173640000D03*
X268385000Y-165440000D03*
X268635000Y-173640000D03*
X268885000Y-165440000D03*
X269135000Y-173640000D03*
X269385000Y-165440000D03*
X269635000Y-173640000D03*
X269885000Y-165440000D03*
X270135000Y-173640000D03*
X270385000Y-165440000D03*
X270635000Y-173640000D03*
X270885000Y-165440000D03*
X271135000Y-173640000D03*
X271385000Y-165440000D03*
X271635000Y-173640000D03*
X271885000Y-165440000D03*
X272135000Y-173640000D03*
X272385000Y-165440000D03*
X272635000Y-173640000D03*
X272885000Y-165440000D03*
X273135000Y-173640000D03*
X273385000Y-165440000D03*
X273635000Y-173640000D03*
X273885000Y-165440000D03*
X274135000Y-173640000D03*
X274385000Y-165440000D03*
X274635000Y-173640000D03*
X274885000Y-165440000D03*
X275135000Y-173640000D03*
X275385000Y-165440000D03*
X275635000Y-173640000D03*
X275885000Y-165440000D03*
X276135000Y-173640000D03*
X276385000Y-165440000D03*
X276635000Y-173640000D03*
X276885000Y-165440000D03*
X277135000Y-173640000D03*
X277385000Y-165440000D03*
X277635000Y-173640000D03*
X277885000Y-165440000D03*
X278135000Y-173640000D03*
X278385000Y-165440000D03*
X278635000Y-173640000D03*
X278885000Y-165440000D03*
X279135000Y-173640000D03*
X279385000Y-165440000D03*
X279635000Y-173640000D03*
X279885000Y-165440000D03*
X280135000Y-173640000D03*
X280385000Y-165440000D03*
X280635000Y-173640000D03*
X280885000Y-165440000D03*
X281135000Y-173640000D03*
X281385000Y-165440000D03*
X281635000Y-173640000D03*
X281885000Y-165440000D03*
X282135000Y-173640000D03*
X282385000Y-165440000D03*
X282635000Y-173640000D03*
X282885000Y-165440000D03*
X283135000Y-173640000D03*
X283385000Y-165440000D03*
X283635000Y-173640000D03*
X283885000Y-165440000D03*
X284135000Y-173640000D03*
X284385000Y-165440000D03*
X284635000Y-173640000D03*
X284885000Y-165440000D03*
X285135000Y-173640000D03*
%TD*%
M02*
