%TF.GenerationSoftware,KiCad,Pcbnew,(6.0.11)*%
%TF.CreationDate,2023-06-04T21:12:16-05:00*%
%TF.ProjectId,Payload-Easy,5061796c-6f61-4642-9d45-6173792e6b69,1*%
%TF.SameCoordinates,Original*%
%TF.FileFunction,Paste,Top*%
%TF.FilePolarity,Positive*%
%FSLAX46Y46*%
G04 Gerber Fmt 4.6, Leading zero omitted, Abs format (unit mm)*
G04 Created by KiCad (PCBNEW (6.0.11)) date 2023-06-04 21:12:16*
%MOMM*%
%LPD*%
G01*
G04 APERTURE LIST*
G04 Aperture macros list*
%AMRoundRect*
0 Rectangle with rounded corners*
0 $1 Rounding radius*
0 $2 $3 $4 $5 $6 $7 $8 $9 X,Y pos of 4 corners*
0 Add a 4 corners polygon primitive as box body*
4,1,4,$2,$3,$4,$5,$6,$7,$8,$9,$2,$3,0*
0 Add four circle primitives for the rounded corners*
1,1,$1+$1,$2,$3*
1,1,$1+$1,$4,$5*
1,1,$1+$1,$6,$7*
1,1,$1+$1,$8,$9*
0 Add four rect primitives between the rounded corners*
20,1,$1+$1,$2,$3,$4,$5,0*
20,1,$1+$1,$4,$5,$6,$7,0*
20,1,$1+$1,$6,$7,$8,$9,0*
20,1,$1+$1,$8,$9,$2,$3,0*%
G04 Aperture macros list end*
%TA.AperFunction,Profile*%
%ADD10C,0.100000*%
%TD*%
%ADD11C,0.010000*%
%TA.AperFunction,Profile*%
%ADD12C,0.010000*%
%TD*%
%ADD13RoundRect,0.250000X0.475000X-0.250000X0.475000X0.250000X-0.475000X0.250000X-0.475000X-0.250000X0*%
%ADD14RoundRect,0.250000X-0.250000X-0.475000X0.250000X-0.475000X0.250000X0.475000X-0.250000X0.475000X0*%
%ADD15RoundRect,0.250000X0.262500X0.450000X-0.262500X0.450000X-0.262500X-0.450000X0.262500X-0.450000X0*%
%ADD16RoundRect,0.250000X-0.262500X-0.450000X0.262500X-0.450000X0.262500X0.450000X-0.262500X0.450000X0*%
%ADD17R,2.500000X1.500000*%
%ADD18R,0.700000X1.200000*%
%ADD19R,1.000000X0.800000*%
%ADD20R,1.000000X1.200000*%
%ADD21R,1.000000X2.800000*%
%ADD22R,1.300000X1.900000*%
%ADD23RoundRect,0.125000X-0.125000X-0.137500X0.125000X-0.137500X0.125000X0.137500X-0.125000X0.137500X0*%
G04 APERTURE END LIST*
D10*
X163650000Y-100000000D02*
G75*
G03*
X163650000Y-100000000I-1650000J0D01*
G01*
X163650000Y-152000000D02*
G75*
G03*
X163650000Y-152000000I-1650000J0D01*
G01*
X110000000Y-40000000D02*
X170000000Y-40000000D01*
X170000000Y-40000000D02*
X170000000Y-160000000D01*
X170000000Y-160000000D02*
X110000000Y-160000000D01*
X110000000Y-160000000D02*
X110000000Y-40000000D01*
X119650000Y-152000000D02*
G75*
G03*
X119650000Y-152000000I-1650000J0D01*
G01*
X119650000Y-100000000D02*
G75*
G03*
X119650000Y-100000000I-1650000J0D01*
G01*
%TO.C,U104*%
G36*
X145857000Y-83239000D02*
G01*
X145307000Y-83239000D01*
X145307000Y-81989000D01*
X145857000Y-81989000D01*
X145857000Y-83239000D01*
G37*
D11*
X145857000Y-83239000D02*
X145307000Y-83239000D01*
X145307000Y-81989000D01*
X145857000Y-81989000D01*
X145857000Y-83239000D01*
G36*
X147732000Y-86264000D02*
G01*
X145932000Y-86264000D01*
X145932000Y-84464000D01*
X147732000Y-84464000D01*
X147732000Y-86264000D01*
G37*
X147732000Y-86264000D02*
X145932000Y-86264000D01*
X145932000Y-84464000D01*
X147732000Y-84464000D01*
X147732000Y-86264000D01*
G36*
X144707000Y-86889000D02*
G01*
X143457000Y-86889000D01*
X143457000Y-86339000D01*
X144707000Y-86339000D01*
X144707000Y-86889000D01*
G37*
X144707000Y-86889000D02*
X143457000Y-86889000D01*
X143457000Y-86339000D01*
X144707000Y-86339000D01*
X144707000Y-86889000D01*
G36*
X152707000Y-89389000D02*
G01*
X151457000Y-89389000D01*
X151457000Y-88839000D01*
X152707000Y-88839000D01*
X152707000Y-89389000D01*
G37*
X152707000Y-89389000D02*
X151457000Y-89389000D01*
X151457000Y-88839000D01*
X152707000Y-88839000D01*
X152707000Y-89389000D01*
G36*
X152707000Y-88139000D02*
G01*
X151457000Y-88139000D01*
X151457000Y-87589000D01*
X152707000Y-87589000D01*
X152707000Y-88139000D01*
G37*
X152707000Y-88139000D02*
X151457000Y-88139000D01*
X151457000Y-87589000D01*
X152707000Y-87589000D01*
X152707000Y-88139000D01*
G36*
X150857000Y-83239000D02*
G01*
X150307000Y-83239000D01*
X150307000Y-81989000D01*
X150857000Y-81989000D01*
X150857000Y-83239000D01*
G37*
X150857000Y-83239000D02*
X150307000Y-83239000D01*
X150307000Y-81989000D01*
X150857000Y-81989000D01*
X150857000Y-83239000D01*
G36*
X149607000Y-83239000D02*
G01*
X149057000Y-83239000D01*
X149057000Y-81989000D01*
X149607000Y-81989000D01*
X149607000Y-83239000D01*
G37*
X149607000Y-83239000D02*
X149057000Y-83239000D01*
X149057000Y-81989000D01*
X149607000Y-81989000D01*
X149607000Y-83239000D01*
G36*
X148357000Y-91239000D02*
G01*
X147807000Y-91239000D01*
X147807000Y-89989000D01*
X148357000Y-89989000D01*
X148357000Y-91239000D01*
G37*
X148357000Y-91239000D02*
X147807000Y-91239000D01*
X147807000Y-89989000D01*
X148357000Y-89989000D01*
X148357000Y-91239000D01*
G36*
X150857000Y-91239000D02*
G01*
X150307000Y-91239000D01*
X150307000Y-89989000D01*
X150857000Y-89989000D01*
X150857000Y-91239000D01*
G37*
X150857000Y-91239000D02*
X150307000Y-91239000D01*
X150307000Y-89989000D01*
X150857000Y-89989000D01*
X150857000Y-91239000D01*
G36*
X145857000Y-91239000D02*
G01*
X145307000Y-91239000D01*
X145307000Y-89989000D01*
X145857000Y-89989000D01*
X145857000Y-91239000D01*
G37*
X145857000Y-91239000D02*
X145307000Y-91239000D01*
X145307000Y-89989000D01*
X145857000Y-89989000D01*
X145857000Y-91239000D01*
G36*
X152707000Y-84389000D02*
G01*
X151457000Y-84389000D01*
X151457000Y-83839000D01*
X152707000Y-83839000D01*
X152707000Y-84389000D01*
G37*
X152707000Y-84389000D02*
X151457000Y-84389000D01*
X151457000Y-83839000D01*
X152707000Y-83839000D01*
X152707000Y-84389000D01*
G36*
X152707000Y-86889000D02*
G01*
X151457000Y-86889000D01*
X151457000Y-86339000D01*
X152707000Y-86339000D01*
X152707000Y-86889000D01*
G37*
X152707000Y-86889000D02*
X151457000Y-86889000D01*
X151457000Y-86339000D01*
X152707000Y-86339000D01*
X152707000Y-86889000D01*
G36*
X150232000Y-86264000D02*
G01*
X148432000Y-86264000D01*
X148432000Y-84464000D01*
X150232000Y-84464000D01*
X150232000Y-86264000D01*
G37*
X150232000Y-86264000D02*
X148432000Y-86264000D01*
X148432000Y-84464000D01*
X150232000Y-84464000D01*
X150232000Y-86264000D01*
G36*
X147107000Y-91239000D02*
G01*
X146557000Y-91239000D01*
X146557000Y-89989000D01*
X147107000Y-89989000D01*
X147107000Y-91239000D01*
G37*
X147107000Y-91239000D02*
X146557000Y-91239000D01*
X146557000Y-89989000D01*
X147107000Y-89989000D01*
X147107000Y-91239000D01*
G36*
X144707000Y-84019000D02*
G01*
X144707000Y-84389000D01*
X143457000Y-84389000D01*
X143457000Y-83839000D01*
X144527000Y-83839000D01*
X144707000Y-84019000D01*
G37*
X144707000Y-84019000D02*
X144707000Y-84389000D01*
X143457000Y-84389000D01*
X143457000Y-83839000D01*
X144527000Y-83839000D01*
X144707000Y-84019000D01*
G36*
X147732000Y-88764000D02*
G01*
X145932000Y-88764000D01*
X145932000Y-86964000D01*
X147732000Y-86964000D01*
X147732000Y-88764000D01*
G37*
X147732000Y-88764000D02*
X145932000Y-88764000D01*
X145932000Y-86964000D01*
X147732000Y-86964000D01*
X147732000Y-88764000D01*
G36*
X147107000Y-83239000D02*
G01*
X146557000Y-83239000D01*
X146557000Y-81989000D01*
X147107000Y-81989000D01*
X147107000Y-83239000D01*
G37*
X147107000Y-83239000D02*
X146557000Y-83239000D01*
X146557000Y-81989000D01*
X147107000Y-81989000D01*
X147107000Y-83239000D01*
G36*
X150232000Y-88764000D02*
G01*
X148432000Y-88764000D01*
X148432000Y-86964000D01*
X150232000Y-86964000D01*
X150232000Y-88764000D01*
G37*
X150232000Y-88764000D02*
X148432000Y-88764000D01*
X148432000Y-86964000D01*
X150232000Y-86964000D01*
X150232000Y-88764000D01*
G36*
X152707000Y-85639000D02*
G01*
X151457000Y-85639000D01*
X151457000Y-85089000D01*
X152707000Y-85089000D01*
X152707000Y-85639000D01*
G37*
X152707000Y-85639000D02*
X151457000Y-85639000D01*
X151457000Y-85089000D01*
X152707000Y-85089000D01*
X152707000Y-85639000D01*
G36*
X144707000Y-88139000D02*
G01*
X143457000Y-88139000D01*
X143457000Y-87589000D01*
X144707000Y-87589000D01*
X144707000Y-88139000D01*
G37*
X144707000Y-88139000D02*
X143457000Y-88139000D01*
X143457000Y-87589000D01*
X144707000Y-87589000D01*
X144707000Y-88139000D01*
G36*
X149607000Y-91239000D02*
G01*
X149057000Y-91239000D01*
X149057000Y-89989000D01*
X149607000Y-89989000D01*
X149607000Y-91239000D01*
G37*
X149607000Y-91239000D02*
X149057000Y-91239000D01*
X149057000Y-89989000D01*
X149607000Y-89989000D01*
X149607000Y-91239000D01*
G36*
X148357000Y-83239000D02*
G01*
X147807000Y-83239000D01*
X147807000Y-81989000D01*
X148357000Y-81989000D01*
X148357000Y-83239000D01*
G37*
X148357000Y-83239000D02*
X147807000Y-83239000D01*
X147807000Y-81989000D01*
X148357000Y-81989000D01*
X148357000Y-83239000D01*
G36*
X144707000Y-89389000D02*
G01*
X143457000Y-89389000D01*
X143457000Y-88839000D01*
X144707000Y-88839000D01*
X144707000Y-89389000D01*
G37*
X144707000Y-89389000D02*
X143457000Y-89389000D01*
X143457000Y-88839000D01*
X144707000Y-88839000D01*
X144707000Y-89389000D01*
G36*
X144707000Y-85639000D02*
G01*
X143457000Y-85639000D01*
X143457000Y-85089000D01*
X144707000Y-85089000D01*
X144707000Y-85639000D01*
G37*
X144707000Y-85639000D02*
X143457000Y-85639000D01*
X143457000Y-85089000D01*
X144707000Y-85089000D01*
X144707000Y-85639000D01*
D12*
%TO.C,U103*%
X144397000Y-71883000D02*
X149227000Y-71883000D01*
X154687000Y-66423000D02*
X154687000Y-61593000D01*
X138937000Y-61593000D02*
X138937000Y-66423000D01*
X149227000Y-56133000D02*
X144397000Y-56133000D01*
X151047000Y-57953000D02*
G75*
G03*
X152867000Y-59773000I1820000J0D01*
G01*
X138937000Y-66423000D02*
G75*
G03*
X140757000Y-68243000I1820001J1D01*
G01*
X152867000Y-68243000D02*
G75*
G03*
X154687000Y-66423000I0J1820000D01*
G01*
X140757000Y-59773000D02*
G75*
G03*
X138937000Y-61593000I1J-1820001D01*
G01*
X149227000Y-71883000D02*
G75*
G03*
X151047000Y-70063000I0J1820000D01*
G01*
X140757000Y-59773000D02*
G75*
G03*
X142577000Y-57953000I-1J1820001D01*
G01*
X154687000Y-61593000D02*
G75*
G03*
X152867000Y-59773000I-1820000J0D01*
G01*
X142577000Y-70063000D02*
G75*
G03*
X144397000Y-71883000I1820001J1D01*
G01*
X151047000Y-57953000D02*
G75*
G03*
X149227000Y-56133000I-1820000J0D01*
G01*
X152867000Y-68243000D02*
G75*
G03*
X151047000Y-70063000I0J-1820000D01*
G01*
X144397000Y-56133000D02*
G75*
G03*
X142577000Y-57953000I1J-1820001D01*
G01*
X142577000Y-70063000D02*
G75*
G03*
X140757000Y-68243000I-1820001J-1D01*
G01*
%TD*%
D13*
%TO.C,C103*%
X148931000Y-105939000D03*
X148931000Y-104039000D03*
%TD*%
D14*
%TO.C,C102*%
X144425000Y-108291000D03*
X146325000Y-108291000D03*
%TD*%
D15*
%TO.C,R109*%
X147216500Y-94488000D03*
X145391500Y-94488000D03*
%TD*%
D16*
%TO.C,R103*%
X151892000Y-135890000D03*
X153717000Y-135890000D03*
%TD*%
D17*
%TO.C,U103*%
X137062000Y-72008000D03*
X137062000Y-68008000D03*
X137062000Y-64008000D03*
X137062000Y-60008000D03*
X137062000Y-56008000D03*
X156562000Y-56008000D03*
X156562000Y-60008000D03*
X156562000Y-64008000D03*
X156562000Y-68008000D03*
X156562000Y-72008000D03*
%TD*%
D16*
%TO.C,R101*%
X147423500Y-135890000D03*
X149248500Y-135890000D03*
%TD*%
D14*
%TO.C,C101*%
X142814000Y-135890000D03*
X144714000Y-135890000D03*
%TD*%
D18*
%TO.C,J101*%
X151619000Y-139087000D03*
X150519000Y-139087000D03*
X149419000Y-139087000D03*
X148319000Y-139087000D03*
X147219000Y-139087000D03*
X146119000Y-139087000D03*
X145019000Y-139087000D03*
X143919000Y-139087000D03*
X142969000Y-139087000D03*
D19*
X142019000Y-149587000D03*
D20*
X153169000Y-139087000D03*
D21*
X142019000Y-153737000D03*
D22*
X155519000Y-154187000D03*
D20*
X142019000Y-143387000D03*
%TD*%
D15*
%TO.C,R110*%
X151788500Y-94488000D03*
X149963500Y-94488000D03*
%TD*%
D23*
%TO.C,U101*%
X144175000Y-103801500D03*
X144975000Y-103801500D03*
X145775000Y-103801500D03*
X146575000Y-103801500D03*
X146575000Y-106176500D03*
X145775000Y-106176500D03*
X144975000Y-106176500D03*
X144175000Y-106176500D03*
%TD*%
M02*
