M48
; DRILL file {KiCad (6.0.11)} date Sun Jun  4 21:12:25 2023
; FORMAT={-:-/ absolute / inch / decimal}
; #@! TF.CreationDate,2023-06-04T21:12:25-05:00
; #@! TF.GenerationSoftware,Kicad,Pcbnew,(6.0.11)
; #@! TF.FileFunction,Plated,1,2,PTH
FMAT,2
INCH
; #@! TA.AperFunction,Plated,PTH,ViaDrill
T1C0.0157
; #@! TA.AperFunction,Plated,PTH,ComponentDrill
T2C0.0315
; #@! TA.AperFunction,Plated,PTH,ComponentDrill
T3C0.0394
; #@! TA.AperFunction,Plated,PTH,ComponentDrill
T4C0.0433
%
G90
G05
T1
X4.58Y-2.45
X4.58Y-2.7
X4.63Y-3.73
X4.88Y-3.25
X4.89Y-4.05
X4.89Y-5.44
X4.92Y-3.15
X4.94Y-4.43
X4.95Y-2.45
X4.96Y-3.63
X4.99Y-2.55
X5.01Y-3.72
X5.11Y-1.62
X5.14Y-3.93
X5.18Y-2.28
X5.24Y-2.0
X5.24Y-2.93
X5.2615Y-2.4585
X5.29Y-2.18
X5.29Y-3.1
X5.3198Y-2.09
X5.3198Y-2.29
X5.51Y-1.81
X5.54Y-1.6
X5.56Y-5.4
X5.57Y-3.15
X5.6198Y-2.16
X5.6198Y-2.2
X5.64Y-4.39
X5.64Y-5.15
X5.65Y-4.05
X5.6598Y-2.07
X5.66Y-2.13
X5.66Y-3.58
X5.66Y-3.76
X5.6613Y-1.78
X5.6894Y-5.5222
X5.71Y-4.45
X5.7198Y-1.66
X5.73Y-3.77
X5.73Y-4.05
X5.74Y-1.6
X5.74Y-5.32
X5.74Y-5.41
X5.76Y-3.82
X5.76Y-4.1285
X5.77Y-3.95
X5.77Y-5.29
X5.78Y-5.42
X5.79Y-4.34
X5.8Y-4.12
X5.8Y-4.4
X5.8072Y-5.2745
X5.81Y-4.2
X5.81Y-4.28
X5.84Y-4.24
X5.84Y-5.23
X5.85Y-4.3885
X5.86Y-2.13
X5.87Y-3.65
X5.87Y-5.41
X5.8791Y-4.3344
X5.8994Y-4.2643
X5.9034Y-4.3034
X5.91Y-5.41
X5.9388Y-5.3805
X5.94Y-3.82
X5.94Y-3.95
X5.94Y-4.32
X5.98Y-4.11
X6.0698Y-2.2
X6.07Y-3.56
X6.07Y-3.71
X6.0898Y-1.79
X6.11Y-5.39
X6.13Y-2.91
X6.14Y-4.06
X6.15Y-3.73
X6.17Y-4.44
X6.18Y-3.77
X6.2898Y-1.67
X6.29Y-3.76
X6.32Y-2.22
X6.33Y-2.7
X6.33Y-2.81
X6.34Y-3.15
X6.36Y-2.41
X6.39Y-3.71
X6.42Y-2.32
X6.44Y-3.55
X6.45Y-2.5
X6.47Y-3.63
X6.63Y-2.83
X6.65Y-3.12
X6.66Y-1.62
X6.66Y-2.94
T2
X5.749Y-1.7196
X5.749Y-1.8196
X5.749Y-1.9196
X5.749Y-2.0196
X6.149Y-1.7196
X6.149Y-1.8196
X6.149Y-1.9196
X6.149Y-2.0196
T3
X4.5Y-1.83
X4.5Y-1.93
X4.5Y-2.03
X4.5Y-2.13
X4.5Y-2.23
X4.5Y-2.33
X4.5Y-2.43
X4.5Y-2.53
X4.5Y-2.63
X4.5Y-2.73
X4.5Y-2.83
X4.5Y-2.93
X4.5Y-3.03
X4.5Y-3.13
X4.5Y-3.23
X4.8916Y-6.1632
X4.9916Y-6.1632
X5.0916Y-6.1632
X5.1Y-1.83
X5.1Y-1.93
X5.1Y-2.03
X5.1Y-2.13
X5.1Y-2.23
X5.1Y-2.33
X5.1Y-2.43
X5.1Y-2.53
X5.1Y-2.63
X5.1Y-2.73
X5.1Y-2.83
X5.1Y-2.93
X5.1Y-3.03
X5.1Y-3.13
X5.1Y-3.23
X5.1916Y-6.1632
X6.57Y-2.1
X6.57Y-2.2
X6.57Y-2.3
X6.57Y-2.4
X6.57Y-2.5
X6.57Y-2.6
X6.57Y-2.7
X6.57Y-2.8
X6.57Y-2.9
T4
X5.3Y-1.83
X5.4Y-1.83
T0
M30
