%TF.GenerationSoftware,KiCad,Pcbnew,(6.0.11)*%
%TF.CreationDate,2023-06-04T21:12:27-05:00*%
%TF.ProjectId,Payload-Easy,5061796c-6f61-4642-9d45-6173792e6b69,1*%
%TF.SameCoordinates,Original*%
%TF.FileFunction,Drillmap*%
%TF.FilePolarity,Positive*%
%FSLAX45Y45*%
G04 Gerber Fmt 4.5, Leading zero omitted, Abs format (unit mm)*
G04 Created by KiCad (PCBNEW (6.0.11)) date 2023-06-04 21:12:27*
%MOMM*%
%LPD*%
G01*
G04 APERTURE LIST*
%ADD10C,0.100000*%
%ADD11C,0.200000*%
%ADD12C,0.040000*%
%ADD13C,0.080000*%
%ADD14C,0.110000*%
G04 APERTURE END LIST*
D10*
X16365000Y-10000000D02*
G75*
G03*
X16365000Y-10000000I-165000J0D01*
G01*
X16365000Y-15200000D02*
G75*
G03*
X16365000Y-15200000I-165000J0D01*
G01*
X11000000Y-4000000D02*
X17000000Y-4000000D01*
X17000000Y-4000000D02*
X17000000Y-16000000D01*
X17000000Y-16000000D02*
X11000000Y-16000000D01*
X11000000Y-16000000D02*
X11000000Y-4000000D01*
X11965000Y-15200000D02*
G75*
G03*
X11965000Y-15200000I-165000J0D01*
G01*
X11965000Y-10000000D02*
G75*
G03*
X11965000Y-10000000I-165000J0D01*
G01*
D11*
D12*
X11613200Y-6203000D02*
X11653200Y-6243000D01*
X11653200Y-6203000D02*
X11613200Y-6243000D01*
X11613200Y-6838000D02*
X11653200Y-6878000D01*
X11653200Y-6838000D02*
X11613200Y-6878000D01*
X11740200Y-9454200D02*
X11780200Y-9494200D01*
X11780200Y-9454200D02*
X11740200Y-9494200D01*
X12375200Y-8235000D02*
X12415200Y-8275000D01*
X12415200Y-8235000D02*
X12375200Y-8275000D01*
X12400600Y-10267000D02*
X12440600Y-10307000D01*
X12440600Y-10267000D02*
X12400600Y-10307000D01*
X12400600Y-13797600D02*
X12440600Y-13837600D01*
X12440600Y-13797600D02*
X12400600Y-13837600D01*
X12476800Y-7981000D02*
X12516800Y-8021000D01*
X12516800Y-7981000D02*
X12476800Y-8021000D01*
X12527600Y-11232200D02*
X12567600Y-11272200D01*
X12567600Y-11232200D02*
X12527600Y-11272200D01*
X12553000Y-6203000D02*
X12593000Y-6243000D01*
X12593000Y-6203000D02*
X12553000Y-6243000D01*
X12578400Y-9200200D02*
X12618400Y-9240200D01*
X12618400Y-9200200D02*
X12578400Y-9240200D01*
X12654600Y-6457000D02*
X12694600Y-6497000D01*
X12694600Y-6457000D02*
X12654600Y-6497000D01*
X12705400Y-9428800D02*
X12745400Y-9468800D01*
X12745400Y-9428800D02*
X12705400Y-9468800D01*
X12959400Y-4094800D02*
X12999400Y-4134800D01*
X12999400Y-4094800D02*
X12959400Y-4134800D01*
X13035600Y-9962200D02*
X13075600Y-10002200D01*
X13075600Y-9962200D02*
X13035600Y-10002200D01*
X13137200Y-5771200D02*
X13177200Y-5811200D01*
X13177200Y-5771200D02*
X13137200Y-5811200D01*
X13289600Y-5060000D02*
X13329600Y-5100000D01*
X13329600Y-5060000D02*
X13289600Y-5100000D01*
X13289600Y-7422200D02*
X13329600Y-7462200D01*
X13329600Y-7422200D02*
X13289600Y-7462200D01*
X13344149Y-6224651D02*
X13384149Y-6264651D01*
X13384149Y-6224651D02*
X13344149Y-6264651D01*
X13416600Y-5517200D02*
X13456600Y-5557200D01*
X13456600Y-5517200D02*
X13416600Y-5557200D01*
X13416600Y-7854000D02*
X13456600Y-7894000D01*
X13456600Y-7854000D02*
X13416600Y-7894000D01*
X13492350Y-5288600D02*
X13532350Y-5328600D01*
X13532350Y-5288600D02*
X13492350Y-5328600D01*
X13492350Y-5796600D02*
X13532350Y-5836600D01*
X13532350Y-5796600D02*
X13492350Y-5836600D01*
X13975400Y-4577400D02*
X14015400Y-4617400D01*
X14015400Y-4577400D02*
X13975400Y-4617400D01*
X14051600Y-4044000D02*
X14091600Y-4084000D01*
X14091600Y-4044000D02*
X14051600Y-4084000D01*
X14102400Y-13696000D02*
X14142400Y-13736000D01*
X14142400Y-13696000D02*
X14102400Y-13736000D01*
X14127800Y-7981000D02*
X14167800Y-8021000D01*
X14167800Y-7981000D02*
X14127800Y-8021000D01*
X14254350Y-5466400D02*
X14294350Y-5506400D01*
X14294350Y-5466400D02*
X14254350Y-5506400D01*
X14254350Y-5568000D02*
X14294350Y-5608000D01*
X14294350Y-5568000D02*
X14254350Y-5608000D01*
X14305600Y-11130600D02*
X14345600Y-11170600D01*
X14345600Y-11130600D02*
X14305600Y-11170600D01*
X14305600Y-13061000D02*
X14345600Y-13101000D01*
X14345600Y-13061000D02*
X14305600Y-13101000D01*
X14331000Y-10267000D02*
X14371000Y-10307000D01*
X14371000Y-10267000D02*
X14331000Y-10307000D01*
X14355950Y-5237800D02*
X14395950Y-5277800D01*
X14395950Y-5237800D02*
X14355950Y-5277800D01*
X14356400Y-5390200D02*
X14396400Y-5430200D01*
X14396400Y-5390200D02*
X14356400Y-5430200D01*
X14356400Y-9073200D02*
X14396400Y-9113200D01*
X14396400Y-9073200D02*
X14356400Y-9113200D01*
X14356400Y-9530400D02*
X14396400Y-9570400D01*
X14396400Y-9530400D02*
X14356400Y-9570400D01*
X14359700Y-4501200D02*
X14399700Y-4541200D01*
X14399700Y-4501200D02*
X14359700Y-4541200D01*
X14431032Y-14006512D02*
X14471032Y-14046512D01*
X14471032Y-14006512D02*
X14431032Y-14046512D01*
X14483400Y-11283000D02*
X14523400Y-11323000D01*
X14523400Y-11283000D02*
X14483400Y-11323000D01*
X14508350Y-4196400D02*
X14548350Y-4236400D01*
X14548350Y-4196400D02*
X14508350Y-4236400D01*
X14534200Y-9555800D02*
X14574200Y-9595800D01*
X14574200Y-9555800D02*
X14534200Y-9595800D01*
X14534200Y-10267000D02*
X14574200Y-10307000D01*
X14574200Y-10267000D02*
X14534200Y-10307000D01*
X14559600Y-4044000D02*
X14599600Y-4084000D01*
X14599600Y-4044000D02*
X14559600Y-4084000D01*
X14559600Y-13492800D02*
X14599600Y-13532800D01*
X14599600Y-13492800D02*
X14559600Y-13532800D01*
X14559600Y-13721400D02*
X14599600Y-13761400D01*
X14599600Y-13721400D02*
X14559600Y-13761400D01*
X14610400Y-9682800D02*
X14650400Y-9722800D01*
X14650400Y-9682800D02*
X14610400Y-9722800D01*
X14610400Y-10466498D02*
X14650400Y-10506498D01*
X14650400Y-10466498D02*
X14610400Y-10506498D01*
X14635800Y-10013000D02*
X14675800Y-10053000D01*
X14675800Y-10013000D02*
X14635800Y-10053000D01*
X14635800Y-13416600D02*
X14675800Y-13456600D01*
X14675800Y-13416600D02*
X14635800Y-13456600D01*
X14661200Y-13746800D02*
X14701200Y-13786800D01*
X14701200Y-13746800D02*
X14661200Y-13786800D01*
X14686600Y-11003600D02*
X14726600Y-11043600D01*
X14726600Y-11003600D02*
X14686600Y-11043600D01*
X14712000Y-10444800D02*
X14752000Y-10484800D01*
X14752000Y-10444800D02*
X14712000Y-10484800D01*
X14712000Y-11156000D02*
X14752000Y-11196000D01*
X14752000Y-11156000D02*
X14712000Y-11196000D01*
X14730399Y-13377199D02*
X14770399Y-13417199D01*
X14770399Y-13377199D02*
X14730399Y-13417199D01*
X14737400Y-10648000D02*
X14777400Y-10688000D01*
X14777400Y-10648000D02*
X14737400Y-10688000D01*
X14737400Y-10851200D02*
X14777400Y-10891200D01*
X14777400Y-10851200D02*
X14737400Y-10891200D01*
X14813600Y-10749600D02*
X14853600Y-10789600D01*
X14853600Y-10749600D02*
X14813600Y-10789600D01*
X14813600Y-13264200D02*
X14853600Y-13304200D01*
X14853600Y-13264200D02*
X14813600Y-13304200D01*
X14839000Y-11126850D02*
X14879000Y-11166850D01*
X14879000Y-11126850D02*
X14839000Y-11166850D01*
X14864400Y-5390200D02*
X14904400Y-5430200D01*
X14904400Y-5390200D02*
X14864400Y-5430200D01*
X14889800Y-9251000D02*
X14929800Y-9291000D01*
X14929800Y-9251000D02*
X14889800Y-9291000D01*
X14889800Y-13721400D02*
X14929800Y-13761400D01*
X14929800Y-13721400D02*
X14889800Y-13761400D01*
X14912986Y-10989322D02*
X14952986Y-11029322D01*
X14952986Y-10989322D02*
X14912986Y-11029322D01*
X14964511Y-10811270D02*
X15004511Y-10851270D01*
X15004511Y-10811270D02*
X14964511Y-10851270D01*
X14974700Y-10910700D02*
X15014700Y-10950700D01*
X15014700Y-10910700D02*
X14974700Y-10950700D01*
X14991400Y-13721400D02*
X15031400Y-13761400D01*
X15031400Y-13721400D02*
X14991400Y-13761400D01*
X15064462Y-13646499D02*
X15104462Y-13686499D01*
X15104462Y-13646499D02*
X15064462Y-13686499D01*
X15067600Y-9682800D02*
X15107600Y-9722800D01*
X15107600Y-9682800D02*
X15067600Y-9722800D01*
X15067600Y-10013000D02*
X15107600Y-10053000D01*
X15107600Y-10013000D02*
X15067600Y-10053000D01*
X15067600Y-10952800D02*
X15107600Y-10992800D01*
X15107600Y-10952800D02*
X15067600Y-10992800D01*
X15169200Y-10419400D02*
X15209200Y-10459400D01*
X15209200Y-10419400D02*
X15169200Y-10459400D01*
X15397350Y-5568000D02*
X15437350Y-5608000D01*
X15437350Y-5568000D02*
X15397350Y-5608000D01*
X15397800Y-9022400D02*
X15437800Y-9062400D01*
X15437800Y-9022400D02*
X15397800Y-9062400D01*
X15397800Y-9403400D02*
X15437800Y-9443400D01*
X15437800Y-9403400D02*
X15397800Y-9443400D01*
X15448150Y-4526600D02*
X15488150Y-4566600D01*
X15488150Y-4526600D02*
X15448150Y-4566600D01*
X15499400Y-13670600D02*
X15539400Y-13710600D01*
X15539400Y-13670600D02*
X15499400Y-13710600D01*
X15550200Y-7371400D02*
X15590200Y-7411400D01*
X15590200Y-7371400D02*
X15550200Y-7411400D01*
X15575600Y-10292400D02*
X15615600Y-10332400D01*
X15615600Y-10292400D02*
X15575600Y-10332400D01*
X15601000Y-9454200D02*
X15641000Y-9494200D01*
X15641000Y-9454200D02*
X15601000Y-9494200D01*
X15651800Y-11257600D02*
X15691800Y-11297600D01*
X15691800Y-11257600D02*
X15651800Y-11297600D01*
X15677200Y-9555800D02*
X15717200Y-9595800D01*
X15717200Y-9555800D02*
X15677200Y-9595800D01*
X15956150Y-4221800D02*
X15996150Y-4261800D01*
X15996150Y-4221800D02*
X15956150Y-4261800D01*
X15956600Y-9530400D02*
X15996600Y-9570400D01*
X15996600Y-9530400D02*
X15956600Y-9570400D01*
X16032800Y-5618800D02*
X16072800Y-5658800D01*
X16072800Y-5618800D02*
X16032800Y-5658800D01*
X16058200Y-6838000D02*
X16098200Y-6878000D01*
X16098200Y-6838000D02*
X16058200Y-6878000D01*
X16058200Y-7117400D02*
X16098200Y-7157400D01*
X16098200Y-7117400D02*
X16058200Y-7157400D01*
X16083600Y-7981000D02*
X16123600Y-8021000D01*
X16123600Y-7981000D02*
X16083600Y-8021000D01*
X16134400Y-6101400D02*
X16174400Y-6141400D01*
X16174400Y-6101400D02*
X16134400Y-6141400D01*
X16210600Y-9403400D02*
X16250600Y-9443400D01*
X16250600Y-9403400D02*
X16210600Y-9443400D01*
X16286800Y-5872800D02*
X16326800Y-5912800D01*
X16326800Y-5872800D02*
X16286800Y-5912800D01*
X16337600Y-8997000D02*
X16377600Y-9037000D01*
X16377600Y-8997000D02*
X16337600Y-9037000D01*
X16363000Y-6330000D02*
X16403000Y-6370000D01*
X16403000Y-6330000D02*
X16363000Y-6370000D01*
X16413800Y-9200200D02*
X16453800Y-9240200D01*
X16453800Y-9200200D02*
X16413800Y-9240200D01*
X16820200Y-7168200D02*
X16860200Y-7208200D01*
X16860200Y-7168200D02*
X16820200Y-7208200D01*
X16871000Y-7904800D02*
X16911000Y-7944800D01*
X16911000Y-7904800D02*
X16871000Y-7944800D01*
X16896400Y-4094800D02*
X16936400Y-4134800D01*
X16936400Y-4094800D02*
X16896400Y-4134800D01*
X16896400Y-7447600D02*
X16936400Y-7487600D01*
X16936400Y-7447600D02*
X16896400Y-7487600D01*
D13*
X14642550Y-4367800D02*
G75*
G03*
X14642550Y-4367800I-40000J0D01*
G01*
X14642550Y-4621800D02*
G75*
G03*
X14642550Y-4621800I-40000J0D01*
G01*
X14642550Y-4875800D02*
G75*
G03*
X14642550Y-4875800I-40000J0D01*
G01*
X14642550Y-5129800D02*
G75*
G03*
X14642550Y-5129800I-40000J0D01*
G01*
X15658550Y-4367800D02*
G75*
G03*
X15658550Y-4367800I-40000J0D01*
G01*
X15658550Y-4621800D02*
G75*
G03*
X15658550Y-4621800I-40000J0D01*
G01*
X15658550Y-4875800D02*
G75*
G03*
X15658550Y-4875800I-40000J0D01*
G01*
X15658550Y-5129800D02*
G75*
G03*
X15658550Y-5129800I-40000J0D01*
G01*
D10*
X11430000Y-4598200D02*
X11430000Y-4698200D01*
X11380000Y-4648200D02*
X11480000Y-4648200D01*
X11430000Y-4852200D02*
X11430000Y-4952200D01*
X11380000Y-4902200D02*
X11480000Y-4902200D01*
X11430000Y-5106200D02*
X11430000Y-5206200D01*
X11380000Y-5156200D02*
X11480000Y-5156200D01*
X11430000Y-5360200D02*
X11430000Y-5460200D01*
X11380000Y-5410200D02*
X11480000Y-5410200D01*
X11430000Y-5614200D02*
X11430000Y-5714200D01*
X11380000Y-5664200D02*
X11480000Y-5664200D01*
X11430000Y-5868200D02*
X11430000Y-5968200D01*
X11380000Y-5918200D02*
X11480000Y-5918200D01*
X11430000Y-6122200D02*
X11430000Y-6222200D01*
X11380000Y-6172200D02*
X11480000Y-6172200D01*
X11430000Y-6376200D02*
X11430000Y-6476200D01*
X11380000Y-6426200D02*
X11480000Y-6426200D01*
X11430000Y-6630200D02*
X11430000Y-6730200D01*
X11380000Y-6680200D02*
X11480000Y-6680200D01*
X11430000Y-6884200D02*
X11430000Y-6984200D01*
X11380000Y-6934200D02*
X11480000Y-6934200D01*
X11430000Y-7138200D02*
X11430000Y-7238200D01*
X11380000Y-7188200D02*
X11480000Y-7188200D01*
X11430000Y-7392200D02*
X11430000Y-7492200D01*
X11380000Y-7442200D02*
X11480000Y-7442200D01*
X11430000Y-7646200D02*
X11430000Y-7746200D01*
X11380000Y-7696200D02*
X11480000Y-7696200D01*
X11430000Y-7900200D02*
X11430000Y-8000200D01*
X11380000Y-7950200D02*
X11480000Y-7950200D01*
X11430000Y-8154200D02*
X11430000Y-8254200D01*
X11380000Y-8204200D02*
X11480000Y-8204200D01*
X12424600Y-15604600D02*
X12424600Y-15704600D01*
X12374600Y-15654600D02*
X12474600Y-15654600D01*
X12678600Y-15604600D02*
X12678600Y-15704600D01*
X12628600Y-15654600D02*
X12728600Y-15654600D01*
X12932600Y-15604600D02*
X12932600Y-15704600D01*
X12882600Y-15654600D02*
X12982600Y-15654600D01*
X12954000Y-4598200D02*
X12954000Y-4698200D01*
X12904000Y-4648200D02*
X13004000Y-4648200D01*
X12954000Y-4852200D02*
X12954000Y-4952200D01*
X12904000Y-4902200D02*
X13004000Y-4902200D01*
X12954000Y-5106200D02*
X12954000Y-5206200D01*
X12904000Y-5156200D02*
X13004000Y-5156200D01*
X12954000Y-5360200D02*
X12954000Y-5460200D01*
X12904000Y-5410200D02*
X13004000Y-5410200D01*
X12954000Y-5614200D02*
X12954000Y-5714200D01*
X12904000Y-5664200D02*
X13004000Y-5664200D01*
X12954000Y-5868200D02*
X12954000Y-5968200D01*
X12904000Y-5918200D02*
X13004000Y-5918200D01*
X12954000Y-6122200D02*
X12954000Y-6222200D01*
X12904000Y-6172200D02*
X13004000Y-6172200D01*
X12954000Y-6376200D02*
X12954000Y-6476200D01*
X12904000Y-6426200D02*
X13004000Y-6426200D01*
X12954000Y-6630200D02*
X12954000Y-6730200D01*
X12904000Y-6680200D02*
X13004000Y-6680200D01*
X12954000Y-6884200D02*
X12954000Y-6984200D01*
X12904000Y-6934200D02*
X13004000Y-6934200D01*
X12954000Y-7138200D02*
X12954000Y-7238200D01*
X12904000Y-7188200D02*
X13004000Y-7188200D01*
X12954000Y-7392200D02*
X12954000Y-7492200D01*
X12904000Y-7442200D02*
X13004000Y-7442200D01*
X12954000Y-7646200D02*
X12954000Y-7746200D01*
X12904000Y-7696200D02*
X13004000Y-7696200D01*
X12954000Y-7900200D02*
X12954000Y-8000200D01*
X12904000Y-7950200D02*
X13004000Y-7950200D01*
X12954000Y-8154200D02*
X12954000Y-8254200D01*
X12904000Y-8204200D02*
X13004000Y-8204200D01*
X13186600Y-15604600D02*
X13186600Y-15704600D01*
X13136600Y-15654600D02*
X13236600Y-15654600D01*
X16687800Y-5284000D02*
X16687800Y-5384000D01*
X16637800Y-5334000D02*
X16737800Y-5334000D01*
X16687800Y-5538000D02*
X16687800Y-5638000D01*
X16637800Y-5588000D02*
X16737800Y-5588000D01*
X16687800Y-5792000D02*
X16687800Y-5892000D01*
X16637800Y-5842000D02*
X16737800Y-5842000D01*
X16687800Y-6046000D02*
X16687800Y-6146000D01*
X16637800Y-6096000D02*
X16737800Y-6096000D01*
X16687800Y-6300000D02*
X16687800Y-6400000D01*
X16637800Y-6350000D02*
X16737800Y-6350000D01*
X16687800Y-6554000D02*
X16687800Y-6654000D01*
X16637800Y-6604000D02*
X16737800Y-6604000D01*
X16687800Y-6808000D02*
X16687800Y-6908000D01*
X16637800Y-6858000D02*
X16737800Y-6858000D01*
X16687800Y-7062000D02*
X16687800Y-7162000D01*
X16637800Y-7112000D02*
X16737800Y-7112000D01*
X16687800Y-7316000D02*
X16687800Y-7416000D01*
X16637800Y-7366000D02*
X16737800Y-7366000D01*
D14*
X13500891Y-4687091D02*
X13500891Y-4609309D01*
X13423109Y-4609309D01*
X13423109Y-4687091D01*
X13500891Y-4687091D01*
X13754891Y-4687091D02*
X13754891Y-4609309D01*
X13677109Y-4609309D01*
X13677109Y-4687091D01*
X13754891Y-4687091D01*
D11*
X11252619Y-16315476D02*
X11252619Y-16115476D01*
X11300238Y-16115476D01*
X11328809Y-16125000D01*
X11347857Y-16144048D01*
X11357381Y-16163095D01*
X11366905Y-16201190D01*
X11366905Y-16229762D01*
X11357381Y-16267857D01*
X11347857Y-16286905D01*
X11328809Y-16305952D01*
X11300238Y-16315476D01*
X11252619Y-16315476D01*
X11452619Y-16315476D02*
X11452619Y-16182143D01*
X11452619Y-16220238D02*
X11462143Y-16201190D01*
X11471667Y-16191667D01*
X11490714Y-16182143D01*
X11509762Y-16182143D01*
X11576428Y-16315476D02*
X11576428Y-16182143D01*
X11576428Y-16115476D02*
X11566905Y-16125000D01*
X11576428Y-16134524D01*
X11585952Y-16125000D01*
X11576428Y-16115476D01*
X11576428Y-16134524D01*
X11700238Y-16315476D02*
X11681190Y-16305952D01*
X11671667Y-16286905D01*
X11671667Y-16115476D01*
X11805000Y-16315476D02*
X11785952Y-16305952D01*
X11776428Y-16286905D01*
X11776428Y-16115476D01*
X12033571Y-16315476D02*
X12033571Y-16115476D01*
X12100238Y-16258333D01*
X12166905Y-16115476D01*
X12166905Y-16315476D01*
X12347857Y-16315476D02*
X12347857Y-16210714D01*
X12338333Y-16191667D01*
X12319286Y-16182143D01*
X12281190Y-16182143D01*
X12262143Y-16191667D01*
X12347857Y-16305952D02*
X12328809Y-16315476D01*
X12281190Y-16315476D01*
X12262143Y-16305952D01*
X12252619Y-16286905D01*
X12252619Y-16267857D01*
X12262143Y-16248809D01*
X12281190Y-16239286D01*
X12328809Y-16239286D01*
X12347857Y-16229762D01*
X12443095Y-16182143D02*
X12443095Y-16382143D01*
X12443095Y-16191667D02*
X12462143Y-16182143D01*
X12500238Y-16182143D01*
X12519286Y-16191667D01*
X12528809Y-16201190D01*
X12538333Y-16220238D01*
X12538333Y-16277381D01*
X12528809Y-16296428D01*
X12519286Y-16305952D01*
X12500238Y-16315476D01*
X12462143Y-16315476D01*
X12443095Y-16305952D01*
X12624048Y-16296428D02*
X12633571Y-16305952D01*
X12624048Y-16315476D01*
X12614524Y-16305952D01*
X12624048Y-16296428D01*
X12624048Y-16315476D01*
X12624048Y-16191667D02*
X12633571Y-16201190D01*
X12624048Y-16210714D01*
X12614524Y-16201190D01*
X12624048Y-16191667D01*
X12624048Y-16210714D01*
D12*
X10955000Y-16625000D02*
X10995000Y-16665000D01*
X10995000Y-16625000D02*
X10955000Y-16665000D01*
D11*
X11290714Y-16535476D02*
X11309762Y-16535476D01*
X11328809Y-16545000D01*
X11338333Y-16554524D01*
X11347857Y-16573571D01*
X11357381Y-16611667D01*
X11357381Y-16659286D01*
X11347857Y-16697381D01*
X11338333Y-16716428D01*
X11328809Y-16725952D01*
X11309762Y-16735476D01*
X11290714Y-16735476D01*
X11271667Y-16725952D01*
X11262143Y-16716428D01*
X11252619Y-16697381D01*
X11243095Y-16659286D01*
X11243095Y-16611667D01*
X11252619Y-16573571D01*
X11262143Y-16554524D01*
X11271667Y-16545000D01*
X11290714Y-16535476D01*
X11443095Y-16716428D02*
X11452619Y-16725952D01*
X11443095Y-16735476D01*
X11433571Y-16725952D01*
X11443095Y-16716428D01*
X11443095Y-16735476D01*
X11624048Y-16602143D02*
X11624048Y-16735476D01*
X11576428Y-16525952D02*
X11528809Y-16668809D01*
X11652619Y-16668809D01*
X11766905Y-16535476D02*
X11785952Y-16535476D01*
X11805000Y-16545000D01*
X11814524Y-16554524D01*
X11824048Y-16573571D01*
X11833571Y-16611667D01*
X11833571Y-16659286D01*
X11824048Y-16697381D01*
X11814524Y-16716428D01*
X11805000Y-16725952D01*
X11785952Y-16735476D01*
X11766905Y-16735476D01*
X11747857Y-16725952D01*
X11738333Y-16716428D01*
X11728809Y-16697381D01*
X11719286Y-16659286D01*
X11719286Y-16611667D01*
X11728809Y-16573571D01*
X11738333Y-16554524D01*
X11747857Y-16545000D01*
X11766905Y-16535476D01*
X11957381Y-16535476D02*
X11976428Y-16535476D01*
X11995476Y-16545000D01*
X12005000Y-16554524D01*
X12014524Y-16573571D01*
X12024048Y-16611667D01*
X12024048Y-16659286D01*
X12014524Y-16697381D01*
X12005000Y-16716428D01*
X11995476Y-16725952D01*
X11976428Y-16735476D01*
X11957381Y-16735476D01*
X11938333Y-16725952D01*
X11928809Y-16716428D01*
X11919286Y-16697381D01*
X11909762Y-16659286D01*
X11909762Y-16611667D01*
X11919286Y-16573571D01*
X11928809Y-16554524D01*
X11938333Y-16545000D01*
X11957381Y-16535476D01*
X12109762Y-16735476D02*
X12109762Y-16602143D01*
X12109762Y-16621190D02*
X12119286Y-16611667D01*
X12138333Y-16602143D01*
X12166905Y-16602143D01*
X12185952Y-16611667D01*
X12195476Y-16630714D01*
X12195476Y-16735476D01*
X12195476Y-16630714D02*
X12205000Y-16611667D01*
X12224048Y-16602143D01*
X12252619Y-16602143D01*
X12271667Y-16611667D01*
X12281190Y-16630714D01*
X12281190Y-16735476D01*
X12376428Y-16735476D02*
X12376428Y-16602143D01*
X12376428Y-16621190D02*
X12385952Y-16611667D01*
X12405000Y-16602143D01*
X12433571Y-16602143D01*
X12452619Y-16611667D01*
X12462143Y-16630714D01*
X12462143Y-16735476D01*
X12462143Y-16630714D02*
X12471667Y-16611667D01*
X12490714Y-16602143D01*
X12519286Y-16602143D01*
X12538333Y-16611667D01*
X12547857Y-16630714D01*
X12547857Y-16735476D01*
X12938333Y-16525952D02*
X12766905Y-16783095D01*
X13195476Y-16535476D02*
X13214524Y-16535476D01*
X13233571Y-16545000D01*
X13243095Y-16554524D01*
X13252619Y-16573571D01*
X13262143Y-16611667D01*
X13262143Y-16659286D01*
X13252619Y-16697381D01*
X13243095Y-16716428D01*
X13233571Y-16725952D01*
X13214524Y-16735476D01*
X13195476Y-16735476D01*
X13176428Y-16725952D01*
X13166905Y-16716428D01*
X13157381Y-16697381D01*
X13147857Y-16659286D01*
X13147857Y-16611667D01*
X13157381Y-16573571D01*
X13166905Y-16554524D01*
X13176428Y-16545000D01*
X13195476Y-16535476D01*
X13347857Y-16716428D02*
X13357381Y-16725952D01*
X13347857Y-16735476D01*
X13338333Y-16725952D01*
X13347857Y-16716428D01*
X13347857Y-16735476D01*
X13481190Y-16535476D02*
X13500238Y-16535476D01*
X13519286Y-16545000D01*
X13528809Y-16554524D01*
X13538333Y-16573571D01*
X13547857Y-16611667D01*
X13547857Y-16659286D01*
X13538333Y-16697381D01*
X13528809Y-16716428D01*
X13519286Y-16725952D01*
X13500238Y-16735476D01*
X13481190Y-16735476D01*
X13462143Y-16725952D01*
X13452619Y-16716428D01*
X13443095Y-16697381D01*
X13433571Y-16659286D01*
X13433571Y-16611667D01*
X13443095Y-16573571D01*
X13452619Y-16554524D01*
X13462143Y-16545000D01*
X13481190Y-16535476D01*
X13738333Y-16735476D02*
X13624048Y-16735476D01*
X13681190Y-16735476D02*
X13681190Y-16535476D01*
X13662143Y-16564048D01*
X13643095Y-16583095D01*
X13624048Y-16592619D01*
X13919286Y-16535476D02*
X13824048Y-16535476D01*
X13814524Y-16630714D01*
X13824048Y-16621190D01*
X13843095Y-16611667D01*
X13890714Y-16611667D01*
X13909762Y-16621190D01*
X13919286Y-16630714D01*
X13928809Y-16649762D01*
X13928809Y-16697381D01*
X13919286Y-16716428D01*
X13909762Y-16725952D01*
X13890714Y-16735476D01*
X13843095Y-16735476D01*
X13824048Y-16725952D01*
X13814524Y-16716428D01*
X13995476Y-16535476D02*
X14128809Y-16535476D01*
X14043095Y-16735476D01*
X14195476Y-16535476D02*
X14195476Y-16573571D01*
X14271667Y-16535476D02*
X14271667Y-16573571D01*
X14566905Y-16811667D02*
X14557381Y-16802143D01*
X14538333Y-16773571D01*
X14528809Y-16754524D01*
X14519286Y-16725952D01*
X14509762Y-16678333D01*
X14509762Y-16640238D01*
X14519286Y-16592619D01*
X14528809Y-16564048D01*
X14538333Y-16545000D01*
X14557381Y-16516428D01*
X14566905Y-16506905D01*
X14652619Y-16735476D02*
X14690714Y-16735476D01*
X14709762Y-16725952D01*
X14719286Y-16716428D01*
X14738333Y-16687857D01*
X14747857Y-16649762D01*
X14747857Y-16573571D01*
X14738333Y-16554524D01*
X14728809Y-16545000D01*
X14709762Y-16535476D01*
X14671667Y-16535476D01*
X14652619Y-16545000D01*
X14643095Y-16554524D01*
X14633571Y-16573571D01*
X14633571Y-16621190D01*
X14643095Y-16640238D01*
X14652619Y-16649762D01*
X14671667Y-16659286D01*
X14709762Y-16659286D01*
X14728809Y-16649762D01*
X14738333Y-16640238D01*
X14747857Y-16621190D01*
X14919286Y-16535476D02*
X14881190Y-16535476D01*
X14862143Y-16545000D01*
X14852619Y-16554524D01*
X14833571Y-16583095D01*
X14824048Y-16621190D01*
X14824048Y-16697381D01*
X14833571Y-16716428D01*
X14843095Y-16725952D01*
X14862143Y-16735476D01*
X14900238Y-16735476D01*
X14919286Y-16725952D01*
X14928809Y-16716428D01*
X14938333Y-16697381D01*
X14938333Y-16649762D01*
X14928809Y-16630714D01*
X14919286Y-16621190D01*
X14900238Y-16611667D01*
X14862143Y-16611667D01*
X14843095Y-16621190D01*
X14833571Y-16630714D01*
X14824048Y-16649762D01*
X15176428Y-16735476D02*
X15176428Y-16535476D01*
X15262143Y-16735476D02*
X15262143Y-16630714D01*
X15252619Y-16611667D01*
X15233571Y-16602143D01*
X15205000Y-16602143D01*
X15185952Y-16611667D01*
X15176428Y-16621190D01*
X15385952Y-16735476D02*
X15366905Y-16725952D01*
X15357381Y-16716428D01*
X15347857Y-16697381D01*
X15347857Y-16640238D01*
X15357381Y-16621190D01*
X15366905Y-16611667D01*
X15385952Y-16602143D01*
X15414524Y-16602143D01*
X15433571Y-16611667D01*
X15443095Y-16621190D01*
X15452619Y-16640238D01*
X15452619Y-16697381D01*
X15443095Y-16716428D01*
X15433571Y-16725952D01*
X15414524Y-16735476D01*
X15385952Y-16735476D01*
X15566905Y-16735476D02*
X15547857Y-16725952D01*
X15538333Y-16706905D01*
X15538333Y-16535476D01*
X15719286Y-16725952D02*
X15700238Y-16735476D01*
X15662143Y-16735476D01*
X15643095Y-16725952D01*
X15633571Y-16706905D01*
X15633571Y-16630714D01*
X15643095Y-16611667D01*
X15662143Y-16602143D01*
X15700238Y-16602143D01*
X15719286Y-16611667D01*
X15728809Y-16630714D01*
X15728809Y-16649762D01*
X15633571Y-16668809D01*
X15805000Y-16725952D02*
X15824048Y-16735476D01*
X15862143Y-16735476D01*
X15881190Y-16725952D01*
X15890714Y-16706905D01*
X15890714Y-16697381D01*
X15881190Y-16678333D01*
X15862143Y-16668809D01*
X15833571Y-16668809D01*
X15814524Y-16659286D01*
X15805000Y-16640238D01*
X15805000Y-16630714D01*
X15814524Y-16611667D01*
X15833571Y-16602143D01*
X15862143Y-16602143D01*
X15881190Y-16611667D01*
X15957381Y-16811667D02*
X15966905Y-16802143D01*
X15985952Y-16773571D01*
X15995476Y-16754524D01*
X16005000Y-16725952D01*
X16014524Y-16678333D01*
X16014524Y-16640238D01*
X16005000Y-16592619D01*
X15995476Y-16564048D01*
X15985952Y-16545000D01*
X15966905Y-16516428D01*
X15957381Y-16506905D01*
D13*
X10995000Y-16909000D02*
G75*
G03*
X10995000Y-16909000I-40000J0D01*
G01*
D11*
X11290714Y-16799476D02*
X11309762Y-16799476D01*
X11328809Y-16809000D01*
X11338333Y-16818524D01*
X11347857Y-16837571D01*
X11357381Y-16875667D01*
X11357381Y-16923286D01*
X11347857Y-16961381D01*
X11338333Y-16980429D01*
X11328809Y-16989952D01*
X11309762Y-16999476D01*
X11290714Y-16999476D01*
X11271667Y-16989952D01*
X11262143Y-16980429D01*
X11252619Y-16961381D01*
X11243095Y-16923286D01*
X11243095Y-16875667D01*
X11252619Y-16837571D01*
X11262143Y-16818524D01*
X11271667Y-16809000D01*
X11290714Y-16799476D01*
X11443095Y-16980429D02*
X11452619Y-16989952D01*
X11443095Y-16999476D01*
X11433571Y-16989952D01*
X11443095Y-16980429D01*
X11443095Y-16999476D01*
X11566905Y-16885190D02*
X11547857Y-16875667D01*
X11538333Y-16866143D01*
X11528809Y-16847095D01*
X11528809Y-16837571D01*
X11538333Y-16818524D01*
X11547857Y-16809000D01*
X11566905Y-16799476D01*
X11605000Y-16799476D01*
X11624048Y-16809000D01*
X11633571Y-16818524D01*
X11643095Y-16837571D01*
X11643095Y-16847095D01*
X11633571Y-16866143D01*
X11624048Y-16875667D01*
X11605000Y-16885190D01*
X11566905Y-16885190D01*
X11547857Y-16894714D01*
X11538333Y-16904238D01*
X11528809Y-16923286D01*
X11528809Y-16961381D01*
X11538333Y-16980429D01*
X11547857Y-16989952D01*
X11566905Y-16999476D01*
X11605000Y-16999476D01*
X11624048Y-16989952D01*
X11633571Y-16980429D01*
X11643095Y-16961381D01*
X11643095Y-16923286D01*
X11633571Y-16904238D01*
X11624048Y-16894714D01*
X11605000Y-16885190D01*
X11766905Y-16799476D02*
X11785952Y-16799476D01*
X11805000Y-16809000D01*
X11814524Y-16818524D01*
X11824048Y-16837571D01*
X11833571Y-16875667D01*
X11833571Y-16923286D01*
X11824048Y-16961381D01*
X11814524Y-16980429D01*
X11805000Y-16989952D01*
X11785952Y-16999476D01*
X11766905Y-16999476D01*
X11747857Y-16989952D01*
X11738333Y-16980429D01*
X11728809Y-16961381D01*
X11719286Y-16923286D01*
X11719286Y-16875667D01*
X11728809Y-16837571D01*
X11738333Y-16818524D01*
X11747857Y-16809000D01*
X11766905Y-16799476D01*
X11957381Y-16799476D02*
X11976428Y-16799476D01*
X11995476Y-16809000D01*
X12005000Y-16818524D01*
X12014524Y-16837571D01*
X12024048Y-16875667D01*
X12024048Y-16923286D01*
X12014524Y-16961381D01*
X12005000Y-16980429D01*
X11995476Y-16989952D01*
X11976428Y-16999476D01*
X11957381Y-16999476D01*
X11938333Y-16989952D01*
X11928809Y-16980429D01*
X11919286Y-16961381D01*
X11909762Y-16923286D01*
X11909762Y-16875667D01*
X11919286Y-16837571D01*
X11928809Y-16818524D01*
X11938333Y-16809000D01*
X11957381Y-16799476D01*
X12109762Y-16999476D02*
X12109762Y-16866143D01*
X12109762Y-16885190D02*
X12119286Y-16875667D01*
X12138333Y-16866143D01*
X12166905Y-16866143D01*
X12185952Y-16875667D01*
X12195476Y-16894714D01*
X12195476Y-16999476D01*
X12195476Y-16894714D02*
X12205000Y-16875667D01*
X12224048Y-16866143D01*
X12252619Y-16866143D01*
X12271667Y-16875667D01*
X12281190Y-16894714D01*
X12281190Y-16999476D01*
X12376428Y-16999476D02*
X12376428Y-16866143D01*
X12376428Y-16885190D02*
X12385952Y-16875667D01*
X12405000Y-16866143D01*
X12433571Y-16866143D01*
X12452619Y-16875667D01*
X12462143Y-16894714D01*
X12462143Y-16999476D01*
X12462143Y-16894714D02*
X12471667Y-16875667D01*
X12490714Y-16866143D01*
X12519286Y-16866143D01*
X12538333Y-16875667D01*
X12547857Y-16894714D01*
X12547857Y-16999476D01*
X12938333Y-16789952D02*
X12766905Y-17047095D01*
X13195476Y-16799476D02*
X13214524Y-16799476D01*
X13233571Y-16809000D01*
X13243095Y-16818524D01*
X13252619Y-16837571D01*
X13262143Y-16875667D01*
X13262143Y-16923286D01*
X13252619Y-16961381D01*
X13243095Y-16980429D01*
X13233571Y-16989952D01*
X13214524Y-16999476D01*
X13195476Y-16999476D01*
X13176428Y-16989952D01*
X13166905Y-16980429D01*
X13157381Y-16961381D01*
X13147857Y-16923286D01*
X13147857Y-16875667D01*
X13157381Y-16837571D01*
X13166905Y-16818524D01*
X13176428Y-16809000D01*
X13195476Y-16799476D01*
X13347857Y-16980429D02*
X13357381Y-16989952D01*
X13347857Y-16999476D01*
X13338333Y-16989952D01*
X13347857Y-16980429D01*
X13347857Y-16999476D01*
X13481190Y-16799476D02*
X13500238Y-16799476D01*
X13519286Y-16809000D01*
X13528809Y-16818524D01*
X13538333Y-16837571D01*
X13547857Y-16875667D01*
X13547857Y-16923286D01*
X13538333Y-16961381D01*
X13528809Y-16980429D01*
X13519286Y-16989952D01*
X13500238Y-16999476D01*
X13481190Y-16999476D01*
X13462143Y-16989952D01*
X13452619Y-16980429D01*
X13443095Y-16961381D01*
X13433571Y-16923286D01*
X13433571Y-16875667D01*
X13443095Y-16837571D01*
X13452619Y-16818524D01*
X13462143Y-16809000D01*
X13481190Y-16799476D01*
X13614524Y-16799476D02*
X13738333Y-16799476D01*
X13671667Y-16875667D01*
X13700238Y-16875667D01*
X13719286Y-16885190D01*
X13728809Y-16894714D01*
X13738333Y-16913762D01*
X13738333Y-16961381D01*
X13728809Y-16980429D01*
X13719286Y-16989952D01*
X13700238Y-16999476D01*
X13643095Y-16999476D01*
X13624048Y-16989952D01*
X13614524Y-16980429D01*
X13928809Y-16999476D02*
X13814524Y-16999476D01*
X13871667Y-16999476D02*
X13871667Y-16799476D01*
X13852619Y-16828048D01*
X13833571Y-16847095D01*
X13814524Y-16856619D01*
X14109762Y-16799476D02*
X14014524Y-16799476D01*
X14005000Y-16894714D01*
X14014524Y-16885190D01*
X14033571Y-16875667D01*
X14081190Y-16875667D01*
X14100238Y-16885190D01*
X14109762Y-16894714D01*
X14119286Y-16913762D01*
X14119286Y-16961381D01*
X14109762Y-16980429D01*
X14100238Y-16989952D01*
X14081190Y-16999476D01*
X14033571Y-16999476D01*
X14014524Y-16989952D01*
X14005000Y-16980429D01*
X14195476Y-16799476D02*
X14195476Y-16837571D01*
X14271667Y-16799476D02*
X14271667Y-16837571D01*
X14566905Y-17075667D02*
X14557381Y-17066143D01*
X14538333Y-17037571D01*
X14528809Y-17018524D01*
X14519286Y-16989952D01*
X14509762Y-16942333D01*
X14509762Y-16904238D01*
X14519286Y-16856619D01*
X14528809Y-16828048D01*
X14538333Y-16809000D01*
X14557381Y-16780429D01*
X14566905Y-16770905D01*
X14671667Y-16885190D02*
X14652619Y-16875667D01*
X14643095Y-16866143D01*
X14633571Y-16847095D01*
X14633571Y-16837571D01*
X14643095Y-16818524D01*
X14652619Y-16809000D01*
X14671667Y-16799476D01*
X14709762Y-16799476D01*
X14728809Y-16809000D01*
X14738333Y-16818524D01*
X14747857Y-16837571D01*
X14747857Y-16847095D01*
X14738333Y-16866143D01*
X14728809Y-16875667D01*
X14709762Y-16885190D01*
X14671667Y-16885190D01*
X14652619Y-16894714D01*
X14643095Y-16904238D01*
X14633571Y-16923286D01*
X14633571Y-16961381D01*
X14643095Y-16980429D01*
X14652619Y-16989952D01*
X14671667Y-16999476D01*
X14709762Y-16999476D01*
X14728809Y-16989952D01*
X14738333Y-16980429D01*
X14747857Y-16961381D01*
X14747857Y-16923286D01*
X14738333Y-16904238D01*
X14728809Y-16894714D01*
X14709762Y-16885190D01*
X14985952Y-16999476D02*
X14985952Y-16799476D01*
X15071667Y-16999476D02*
X15071667Y-16894714D01*
X15062143Y-16875667D01*
X15043095Y-16866143D01*
X15014524Y-16866143D01*
X14995476Y-16875667D01*
X14985952Y-16885190D01*
X15195476Y-16999476D02*
X15176428Y-16989952D01*
X15166905Y-16980429D01*
X15157381Y-16961381D01*
X15157381Y-16904238D01*
X15166905Y-16885190D01*
X15176428Y-16875667D01*
X15195476Y-16866143D01*
X15224048Y-16866143D01*
X15243095Y-16875667D01*
X15252619Y-16885190D01*
X15262143Y-16904238D01*
X15262143Y-16961381D01*
X15252619Y-16980429D01*
X15243095Y-16989952D01*
X15224048Y-16999476D01*
X15195476Y-16999476D01*
X15376428Y-16999476D02*
X15357381Y-16989952D01*
X15347857Y-16970905D01*
X15347857Y-16799476D01*
X15528809Y-16989952D02*
X15509762Y-16999476D01*
X15471667Y-16999476D01*
X15452619Y-16989952D01*
X15443095Y-16970905D01*
X15443095Y-16894714D01*
X15452619Y-16875667D01*
X15471667Y-16866143D01*
X15509762Y-16866143D01*
X15528809Y-16875667D01*
X15538333Y-16894714D01*
X15538333Y-16913762D01*
X15443095Y-16932810D01*
X15614524Y-16989952D02*
X15633571Y-16999476D01*
X15671667Y-16999476D01*
X15690714Y-16989952D01*
X15700238Y-16970905D01*
X15700238Y-16961381D01*
X15690714Y-16942333D01*
X15671667Y-16932810D01*
X15643095Y-16932810D01*
X15624048Y-16923286D01*
X15614524Y-16904238D01*
X15614524Y-16894714D01*
X15624048Y-16875667D01*
X15643095Y-16866143D01*
X15671667Y-16866143D01*
X15690714Y-16875667D01*
X15766905Y-17075667D02*
X15776428Y-17066143D01*
X15795476Y-17037571D01*
X15805000Y-17018524D01*
X15814524Y-16989952D01*
X15824048Y-16942333D01*
X15824048Y-16904238D01*
X15814524Y-16856619D01*
X15805000Y-16828048D01*
X15795476Y-16809000D01*
X15776428Y-16780429D01*
X15766905Y-16770905D01*
D10*
X10945000Y-17123000D02*
X10945000Y-17223000D01*
X10895000Y-17173000D02*
X10995000Y-17173000D01*
D11*
X11357381Y-17263476D02*
X11243095Y-17263476D01*
X11300238Y-17263476D02*
X11300238Y-17063476D01*
X11281190Y-17092048D01*
X11262143Y-17111095D01*
X11243095Y-17120619D01*
X11443095Y-17244429D02*
X11452619Y-17253952D01*
X11443095Y-17263476D01*
X11433571Y-17253952D01*
X11443095Y-17244429D01*
X11443095Y-17263476D01*
X11576428Y-17063476D02*
X11595476Y-17063476D01*
X11614524Y-17073000D01*
X11624048Y-17082524D01*
X11633571Y-17101571D01*
X11643095Y-17139667D01*
X11643095Y-17187286D01*
X11633571Y-17225381D01*
X11624048Y-17244429D01*
X11614524Y-17253952D01*
X11595476Y-17263476D01*
X11576428Y-17263476D01*
X11557381Y-17253952D01*
X11547857Y-17244429D01*
X11538333Y-17225381D01*
X11528809Y-17187286D01*
X11528809Y-17139667D01*
X11538333Y-17101571D01*
X11547857Y-17082524D01*
X11557381Y-17073000D01*
X11576428Y-17063476D01*
X11766905Y-17063476D02*
X11785952Y-17063476D01*
X11805000Y-17073000D01*
X11814524Y-17082524D01*
X11824048Y-17101571D01*
X11833571Y-17139667D01*
X11833571Y-17187286D01*
X11824048Y-17225381D01*
X11814524Y-17244429D01*
X11805000Y-17253952D01*
X11785952Y-17263476D01*
X11766905Y-17263476D01*
X11747857Y-17253952D01*
X11738333Y-17244429D01*
X11728809Y-17225381D01*
X11719286Y-17187286D01*
X11719286Y-17139667D01*
X11728809Y-17101571D01*
X11738333Y-17082524D01*
X11747857Y-17073000D01*
X11766905Y-17063476D01*
X11957381Y-17063476D02*
X11976428Y-17063476D01*
X11995476Y-17073000D01*
X12005000Y-17082524D01*
X12014524Y-17101571D01*
X12024048Y-17139667D01*
X12024048Y-17187286D01*
X12014524Y-17225381D01*
X12005000Y-17244429D01*
X11995476Y-17253952D01*
X11976428Y-17263476D01*
X11957381Y-17263476D01*
X11938333Y-17253952D01*
X11928809Y-17244429D01*
X11919286Y-17225381D01*
X11909762Y-17187286D01*
X11909762Y-17139667D01*
X11919286Y-17101571D01*
X11928809Y-17082524D01*
X11938333Y-17073000D01*
X11957381Y-17063476D01*
X12109762Y-17263476D02*
X12109762Y-17130143D01*
X12109762Y-17149190D02*
X12119286Y-17139667D01*
X12138333Y-17130143D01*
X12166905Y-17130143D01*
X12185952Y-17139667D01*
X12195476Y-17158714D01*
X12195476Y-17263476D01*
X12195476Y-17158714D02*
X12205000Y-17139667D01*
X12224048Y-17130143D01*
X12252619Y-17130143D01*
X12271667Y-17139667D01*
X12281190Y-17158714D01*
X12281190Y-17263476D01*
X12376428Y-17263476D02*
X12376428Y-17130143D01*
X12376428Y-17149190D02*
X12385952Y-17139667D01*
X12405000Y-17130143D01*
X12433571Y-17130143D01*
X12452619Y-17139667D01*
X12462143Y-17158714D01*
X12462143Y-17263476D01*
X12462143Y-17158714D02*
X12471667Y-17139667D01*
X12490714Y-17130143D01*
X12519286Y-17130143D01*
X12538333Y-17139667D01*
X12547857Y-17158714D01*
X12547857Y-17263476D01*
X12938333Y-17053952D02*
X12766905Y-17311095D01*
X13195476Y-17063476D02*
X13214524Y-17063476D01*
X13233571Y-17073000D01*
X13243095Y-17082524D01*
X13252619Y-17101571D01*
X13262143Y-17139667D01*
X13262143Y-17187286D01*
X13252619Y-17225381D01*
X13243095Y-17244429D01*
X13233571Y-17253952D01*
X13214524Y-17263476D01*
X13195476Y-17263476D01*
X13176428Y-17253952D01*
X13166905Y-17244429D01*
X13157381Y-17225381D01*
X13147857Y-17187286D01*
X13147857Y-17139667D01*
X13157381Y-17101571D01*
X13166905Y-17082524D01*
X13176428Y-17073000D01*
X13195476Y-17063476D01*
X13347857Y-17244429D02*
X13357381Y-17253952D01*
X13347857Y-17263476D01*
X13338333Y-17253952D01*
X13347857Y-17244429D01*
X13347857Y-17263476D01*
X13481190Y-17063476D02*
X13500238Y-17063476D01*
X13519286Y-17073000D01*
X13528809Y-17082524D01*
X13538333Y-17101571D01*
X13547857Y-17139667D01*
X13547857Y-17187286D01*
X13538333Y-17225381D01*
X13528809Y-17244429D01*
X13519286Y-17253952D01*
X13500238Y-17263476D01*
X13481190Y-17263476D01*
X13462143Y-17253952D01*
X13452619Y-17244429D01*
X13443095Y-17225381D01*
X13433571Y-17187286D01*
X13433571Y-17139667D01*
X13443095Y-17101571D01*
X13452619Y-17082524D01*
X13462143Y-17073000D01*
X13481190Y-17063476D01*
X13614524Y-17063476D02*
X13738333Y-17063476D01*
X13671667Y-17139667D01*
X13700238Y-17139667D01*
X13719286Y-17149190D01*
X13728809Y-17158714D01*
X13738333Y-17177762D01*
X13738333Y-17225381D01*
X13728809Y-17244429D01*
X13719286Y-17253952D01*
X13700238Y-17263476D01*
X13643095Y-17263476D01*
X13624048Y-17253952D01*
X13614524Y-17244429D01*
X13833571Y-17263476D02*
X13871667Y-17263476D01*
X13890714Y-17253952D01*
X13900238Y-17244429D01*
X13919286Y-17215857D01*
X13928809Y-17177762D01*
X13928809Y-17101571D01*
X13919286Y-17082524D01*
X13909762Y-17073000D01*
X13890714Y-17063476D01*
X13852619Y-17063476D01*
X13833571Y-17073000D01*
X13824048Y-17082524D01*
X13814524Y-17101571D01*
X13814524Y-17149190D01*
X13824048Y-17168238D01*
X13833571Y-17177762D01*
X13852619Y-17187286D01*
X13890714Y-17187286D01*
X13909762Y-17177762D01*
X13919286Y-17168238D01*
X13928809Y-17149190D01*
X14100238Y-17130143D02*
X14100238Y-17263476D01*
X14052619Y-17053952D02*
X14005000Y-17196810D01*
X14128809Y-17196810D01*
X14195476Y-17063476D02*
X14195476Y-17101571D01*
X14271667Y-17063476D02*
X14271667Y-17101571D01*
X14566905Y-17339667D02*
X14557381Y-17330143D01*
X14538333Y-17301571D01*
X14528809Y-17282524D01*
X14519286Y-17253952D01*
X14509762Y-17206333D01*
X14509762Y-17168238D01*
X14519286Y-17120619D01*
X14528809Y-17092048D01*
X14538333Y-17073000D01*
X14557381Y-17044429D01*
X14566905Y-17034905D01*
X14728809Y-17130143D02*
X14728809Y-17263476D01*
X14681190Y-17053952D02*
X14633571Y-17196810D01*
X14757381Y-17196810D01*
X14814524Y-17063476D02*
X14938333Y-17063476D01*
X14871667Y-17139667D01*
X14900238Y-17139667D01*
X14919286Y-17149190D01*
X14928809Y-17158714D01*
X14938333Y-17177762D01*
X14938333Y-17225381D01*
X14928809Y-17244429D01*
X14919286Y-17253952D01*
X14900238Y-17263476D01*
X14843095Y-17263476D01*
X14824048Y-17253952D01*
X14814524Y-17244429D01*
X15176428Y-17263476D02*
X15176428Y-17063476D01*
X15262143Y-17263476D02*
X15262143Y-17158714D01*
X15252619Y-17139667D01*
X15233571Y-17130143D01*
X15205000Y-17130143D01*
X15185952Y-17139667D01*
X15176428Y-17149190D01*
X15385952Y-17263476D02*
X15366905Y-17253952D01*
X15357381Y-17244429D01*
X15347857Y-17225381D01*
X15347857Y-17168238D01*
X15357381Y-17149190D01*
X15366905Y-17139667D01*
X15385952Y-17130143D01*
X15414524Y-17130143D01*
X15433571Y-17139667D01*
X15443095Y-17149190D01*
X15452619Y-17168238D01*
X15452619Y-17225381D01*
X15443095Y-17244429D01*
X15433571Y-17253952D01*
X15414524Y-17263476D01*
X15385952Y-17263476D01*
X15566905Y-17263476D02*
X15547857Y-17253952D01*
X15538333Y-17234905D01*
X15538333Y-17063476D01*
X15719286Y-17253952D02*
X15700238Y-17263476D01*
X15662143Y-17263476D01*
X15643095Y-17253952D01*
X15633571Y-17234905D01*
X15633571Y-17158714D01*
X15643095Y-17139667D01*
X15662143Y-17130143D01*
X15700238Y-17130143D01*
X15719286Y-17139667D01*
X15728809Y-17158714D01*
X15728809Y-17177762D01*
X15633571Y-17196810D01*
X15805000Y-17253952D02*
X15824048Y-17263476D01*
X15862143Y-17263476D01*
X15881190Y-17253952D01*
X15890714Y-17234905D01*
X15890714Y-17225381D01*
X15881190Y-17206333D01*
X15862143Y-17196810D01*
X15833571Y-17196810D01*
X15814524Y-17187286D01*
X15805000Y-17168238D01*
X15805000Y-17158714D01*
X15814524Y-17139667D01*
X15833571Y-17130143D01*
X15862143Y-17130143D01*
X15881190Y-17139667D01*
X15957381Y-17339667D02*
X15966905Y-17330143D01*
X15985952Y-17301571D01*
X15995476Y-17282524D01*
X16005000Y-17253952D01*
X16014524Y-17206333D01*
X16014524Y-17168238D01*
X16005000Y-17120619D01*
X15995476Y-17092048D01*
X15985952Y-17073000D01*
X15966905Y-17044429D01*
X15957381Y-17034905D01*
D14*
X10978891Y-17475891D02*
X10978891Y-17398109D01*
X10901109Y-17398109D01*
X10901109Y-17475891D01*
X10978891Y-17475891D01*
D11*
X11357381Y-17527476D02*
X11243095Y-17527476D01*
X11300238Y-17527476D02*
X11300238Y-17327476D01*
X11281190Y-17356048D01*
X11262143Y-17375095D01*
X11243095Y-17384619D01*
X11443095Y-17508429D02*
X11452619Y-17517952D01*
X11443095Y-17527476D01*
X11433571Y-17517952D01*
X11443095Y-17508429D01*
X11443095Y-17527476D01*
X11643095Y-17527476D02*
X11528809Y-17527476D01*
X11585952Y-17527476D02*
X11585952Y-17327476D01*
X11566905Y-17356048D01*
X11547857Y-17375095D01*
X11528809Y-17384619D01*
X11766905Y-17327476D02*
X11785952Y-17327476D01*
X11805000Y-17337000D01*
X11814524Y-17346524D01*
X11824048Y-17365571D01*
X11833571Y-17403667D01*
X11833571Y-17451286D01*
X11824048Y-17489381D01*
X11814524Y-17508429D01*
X11805000Y-17517952D01*
X11785952Y-17527476D01*
X11766905Y-17527476D01*
X11747857Y-17517952D01*
X11738333Y-17508429D01*
X11728809Y-17489381D01*
X11719286Y-17451286D01*
X11719286Y-17403667D01*
X11728809Y-17365571D01*
X11738333Y-17346524D01*
X11747857Y-17337000D01*
X11766905Y-17327476D01*
X11957381Y-17327476D02*
X11976428Y-17327476D01*
X11995476Y-17337000D01*
X12005000Y-17346524D01*
X12014524Y-17365571D01*
X12024048Y-17403667D01*
X12024048Y-17451286D01*
X12014524Y-17489381D01*
X12005000Y-17508429D01*
X11995476Y-17517952D01*
X11976428Y-17527476D01*
X11957381Y-17527476D01*
X11938333Y-17517952D01*
X11928809Y-17508429D01*
X11919286Y-17489381D01*
X11909762Y-17451286D01*
X11909762Y-17403667D01*
X11919286Y-17365571D01*
X11928809Y-17346524D01*
X11938333Y-17337000D01*
X11957381Y-17327476D01*
X12109762Y-17527476D02*
X12109762Y-17394143D01*
X12109762Y-17413190D02*
X12119286Y-17403667D01*
X12138333Y-17394143D01*
X12166905Y-17394143D01*
X12185952Y-17403667D01*
X12195476Y-17422714D01*
X12195476Y-17527476D01*
X12195476Y-17422714D02*
X12205000Y-17403667D01*
X12224048Y-17394143D01*
X12252619Y-17394143D01*
X12271667Y-17403667D01*
X12281190Y-17422714D01*
X12281190Y-17527476D01*
X12376428Y-17527476D02*
X12376428Y-17394143D01*
X12376428Y-17413190D02*
X12385952Y-17403667D01*
X12405000Y-17394143D01*
X12433571Y-17394143D01*
X12452619Y-17403667D01*
X12462143Y-17422714D01*
X12462143Y-17527476D01*
X12462143Y-17422714D02*
X12471667Y-17403667D01*
X12490714Y-17394143D01*
X12519286Y-17394143D01*
X12538333Y-17403667D01*
X12547857Y-17422714D01*
X12547857Y-17527476D01*
X12938333Y-17317952D02*
X12766905Y-17575095D01*
X13195476Y-17327476D02*
X13214524Y-17327476D01*
X13233571Y-17337000D01*
X13243095Y-17346524D01*
X13252619Y-17365571D01*
X13262143Y-17403667D01*
X13262143Y-17451286D01*
X13252619Y-17489381D01*
X13243095Y-17508429D01*
X13233571Y-17517952D01*
X13214524Y-17527476D01*
X13195476Y-17527476D01*
X13176428Y-17517952D01*
X13166905Y-17508429D01*
X13157381Y-17489381D01*
X13147857Y-17451286D01*
X13147857Y-17403667D01*
X13157381Y-17365571D01*
X13166905Y-17346524D01*
X13176428Y-17337000D01*
X13195476Y-17327476D01*
X13347857Y-17508429D02*
X13357381Y-17517952D01*
X13347857Y-17527476D01*
X13338333Y-17517952D01*
X13347857Y-17508429D01*
X13347857Y-17527476D01*
X13481190Y-17327476D02*
X13500238Y-17327476D01*
X13519286Y-17337000D01*
X13528809Y-17346524D01*
X13538333Y-17365571D01*
X13547857Y-17403667D01*
X13547857Y-17451286D01*
X13538333Y-17489381D01*
X13528809Y-17508429D01*
X13519286Y-17517952D01*
X13500238Y-17527476D01*
X13481190Y-17527476D01*
X13462143Y-17517952D01*
X13452619Y-17508429D01*
X13443095Y-17489381D01*
X13433571Y-17451286D01*
X13433571Y-17403667D01*
X13443095Y-17365571D01*
X13452619Y-17346524D01*
X13462143Y-17337000D01*
X13481190Y-17327476D01*
X13719286Y-17394143D02*
X13719286Y-17527476D01*
X13671667Y-17317952D02*
X13624048Y-17460810D01*
X13747857Y-17460810D01*
X13805000Y-17327476D02*
X13928809Y-17327476D01*
X13862143Y-17403667D01*
X13890714Y-17403667D01*
X13909762Y-17413190D01*
X13919286Y-17422714D01*
X13928809Y-17441762D01*
X13928809Y-17489381D01*
X13919286Y-17508429D01*
X13909762Y-17517952D01*
X13890714Y-17527476D01*
X13833571Y-17527476D01*
X13814524Y-17517952D01*
X13805000Y-17508429D01*
X13995476Y-17327476D02*
X14119286Y-17327476D01*
X14052619Y-17403667D01*
X14081190Y-17403667D01*
X14100238Y-17413190D01*
X14109762Y-17422714D01*
X14119286Y-17441762D01*
X14119286Y-17489381D01*
X14109762Y-17508429D01*
X14100238Y-17517952D01*
X14081190Y-17527476D01*
X14024048Y-17527476D01*
X14005000Y-17517952D01*
X13995476Y-17508429D01*
X14195476Y-17327476D02*
X14195476Y-17365571D01*
X14271667Y-17327476D02*
X14271667Y-17365571D01*
X14566905Y-17603667D02*
X14557381Y-17594143D01*
X14538333Y-17565571D01*
X14528809Y-17546524D01*
X14519286Y-17517952D01*
X14509762Y-17470333D01*
X14509762Y-17432238D01*
X14519286Y-17384619D01*
X14528809Y-17356048D01*
X14538333Y-17337000D01*
X14557381Y-17308429D01*
X14566905Y-17298905D01*
X14633571Y-17346524D02*
X14643095Y-17337000D01*
X14662143Y-17327476D01*
X14709762Y-17327476D01*
X14728809Y-17337000D01*
X14738333Y-17346524D01*
X14747857Y-17365571D01*
X14747857Y-17384619D01*
X14738333Y-17413190D01*
X14624048Y-17527476D01*
X14747857Y-17527476D01*
X14985952Y-17527476D02*
X14985952Y-17327476D01*
X15071667Y-17527476D02*
X15071667Y-17422714D01*
X15062143Y-17403667D01*
X15043095Y-17394143D01*
X15014524Y-17394143D01*
X14995476Y-17403667D01*
X14985952Y-17413190D01*
X15195476Y-17527476D02*
X15176428Y-17517952D01*
X15166905Y-17508429D01*
X15157381Y-17489381D01*
X15157381Y-17432238D01*
X15166905Y-17413190D01*
X15176428Y-17403667D01*
X15195476Y-17394143D01*
X15224048Y-17394143D01*
X15243095Y-17403667D01*
X15252619Y-17413190D01*
X15262143Y-17432238D01*
X15262143Y-17489381D01*
X15252619Y-17508429D01*
X15243095Y-17517952D01*
X15224048Y-17527476D01*
X15195476Y-17527476D01*
X15376428Y-17527476D02*
X15357381Y-17517952D01*
X15347857Y-17498905D01*
X15347857Y-17327476D01*
X15528809Y-17517952D02*
X15509762Y-17527476D01*
X15471667Y-17527476D01*
X15452619Y-17517952D01*
X15443095Y-17498905D01*
X15443095Y-17422714D01*
X15452619Y-17403667D01*
X15471667Y-17394143D01*
X15509762Y-17394143D01*
X15528809Y-17403667D01*
X15538333Y-17422714D01*
X15538333Y-17441762D01*
X15443095Y-17460810D01*
X15614524Y-17517952D02*
X15633571Y-17527476D01*
X15671667Y-17527476D01*
X15690714Y-17517952D01*
X15700238Y-17498905D01*
X15700238Y-17489381D01*
X15690714Y-17470333D01*
X15671667Y-17460810D01*
X15643095Y-17460810D01*
X15624048Y-17451286D01*
X15614524Y-17432238D01*
X15614524Y-17422714D01*
X15624048Y-17403667D01*
X15643095Y-17394143D01*
X15671667Y-17394143D01*
X15690714Y-17403667D01*
X15766905Y-17603667D02*
X15776428Y-17594143D01*
X15795476Y-17565571D01*
X15805000Y-17546524D01*
X15814524Y-17517952D01*
X15824048Y-17470333D01*
X15824048Y-17432238D01*
X15814524Y-17384619D01*
X15805000Y-17356048D01*
X15795476Y-17337000D01*
X15776428Y-17308429D01*
X15766905Y-17298905D01*
M02*
