%TF.GenerationSoftware,KiCad,Pcbnew,(6.0.11)*%
%TF.CreationDate,2023-06-04T21:12:16-05:00*%
%TF.ProjectId,Payload-Easy,5061796c-6f61-4642-9d45-6173792e6b69,1*%
%TF.SameCoordinates,Original*%
%TF.FileFunction,Profile,NP*%
%FSLAX46Y46*%
G04 Gerber Fmt 4.6, Leading zero omitted, Abs format (unit mm)*
G04 Created by KiCad (PCBNEW (6.0.11)) date 2023-06-04 21:12:16*
%MOMM*%
%LPD*%
G01*
G04 APERTURE LIST*
%TA.AperFunction,Profile*%
%ADD10C,0.100000*%
%TD*%
%TA.AperFunction,Profile*%
%ADD11C,0.010000*%
%TD*%
G04 APERTURE END LIST*
D10*
X163650000Y-100000000D02*
G75*
G03*
X163650000Y-100000000I-1650000J0D01*
G01*
X163650000Y-152000000D02*
G75*
G03*
X163650000Y-152000000I-1650000J0D01*
G01*
X110000000Y-40000000D02*
X170000000Y-40000000D01*
X170000000Y-40000000D02*
X170000000Y-160000000D01*
X170000000Y-160000000D02*
X110000000Y-160000000D01*
X110000000Y-160000000D02*
X110000000Y-40000000D01*
X119650000Y-152000000D02*
G75*
G03*
X119650000Y-152000000I-1650000J0D01*
G01*
X119650000Y-100000000D02*
G75*
G03*
X119650000Y-100000000I-1650000J0D01*
G01*
D11*
%TO.C,U103*%
X144397000Y-71883000D02*
X149227000Y-71883000D01*
X154687000Y-66423000D02*
X154687000Y-61593000D01*
X138937000Y-61593000D02*
X138937000Y-66423000D01*
X149227000Y-56133000D02*
X144397000Y-56133000D01*
X151047000Y-57953000D02*
G75*
G03*
X152867000Y-59773000I1820000J0D01*
G01*
X138937000Y-66423000D02*
G75*
G03*
X140757000Y-68243000I1820001J1D01*
G01*
X152867000Y-68243000D02*
G75*
G03*
X154687000Y-66423000I0J1820000D01*
G01*
X140757000Y-59773000D02*
G75*
G03*
X138937000Y-61593000I1J-1820001D01*
G01*
X149227000Y-71883000D02*
G75*
G03*
X151047000Y-70063000I0J1820000D01*
G01*
X140757000Y-59773000D02*
G75*
G03*
X142577000Y-57953000I-1J1820001D01*
G01*
X154687000Y-61593000D02*
G75*
G03*
X152867000Y-59773000I-1820000J0D01*
G01*
X142577000Y-70063000D02*
G75*
G03*
X144397000Y-71883000I1820001J1D01*
G01*
X151047000Y-57953000D02*
G75*
G03*
X149227000Y-56133000I-1820000J0D01*
G01*
X152867000Y-68243000D02*
G75*
G03*
X151047000Y-70063000I0J-1820000D01*
G01*
X144397000Y-56133000D02*
G75*
G03*
X142577000Y-57953000I1J-1820001D01*
G01*
X142577000Y-70063000D02*
G75*
G03*
X140757000Y-68243000I-1820001J-1D01*
G01*
%TD*%
M02*
