%TF.GenerationSoftware,KiCad,Pcbnew,(6.0.11)*%
%TF.CreationDate,2023-06-04T21:12:16-05:00*%
%TF.ProjectId,Payload-Easy,5061796c-6f61-4642-9d45-6173792e6b69,1*%
%TF.SameCoordinates,Original*%
%TF.FileFunction,Paste,Bot*%
%TF.FilePolarity,Positive*%
%FSLAX46Y46*%
G04 Gerber Fmt 4.6, Leading zero omitted, Abs format (unit mm)*
G04 Created by KiCad (PCBNEW (6.0.11)) date 2023-06-04 21:12:16*
%MOMM*%
%LPD*%
G01*
G04 APERTURE LIST*
G04 Aperture macros list*
%AMRoundRect*
0 Rectangle with rounded corners*
0 $1 Rounding radius*
0 $2 $3 $4 $5 $6 $7 $8 $9 X,Y pos of 4 corners*
0 Add a 4 corners polygon primitive as box body*
4,1,4,$2,$3,$4,$5,$6,$7,$8,$9,$2,$3,0*
0 Add four circle primitives for the rounded corners*
1,1,$1+$1,$2,$3*
1,1,$1+$1,$4,$5*
1,1,$1+$1,$6,$7*
1,1,$1+$1,$8,$9*
0 Add four rect primitives between the rounded corners*
20,1,$1+$1,$2,$3,$4,$5,0*
20,1,$1+$1,$4,$5,$6,$7,0*
20,1,$1+$1,$6,$7,$8,$9,0*
20,1,$1+$1,$8,$9,$2,$3,0*%
G04 Aperture macros list end*
%TA.AperFunction,Profile*%
%ADD10C,0.100000*%
%TD*%
%TA.AperFunction,Profile*%
%ADD11C,0.010000*%
%TD*%
%ADD12RoundRect,0.250000X-0.262500X-0.450000X0.262500X-0.450000X0.262500X0.450000X-0.262500X0.450000X0*%
%ADD13RoundRect,0.250000X0.262500X0.450000X-0.262500X0.450000X-0.262500X-0.450000X0.262500X-0.450000X0*%
%ADD14RoundRect,0.250000X0.250000X0.475000X-0.250000X0.475000X-0.250000X-0.475000X0.250000X-0.475000X0*%
G04 APERTURE END LIST*
D10*
X163650000Y-100000000D02*
G75*
G03*
X163650000Y-100000000I-1650000J0D01*
G01*
X163650000Y-152000000D02*
G75*
G03*
X163650000Y-152000000I-1650000J0D01*
G01*
X110000000Y-40000000D02*
X170000000Y-40000000D01*
X170000000Y-40000000D02*
X170000000Y-160000000D01*
X170000000Y-160000000D02*
X110000000Y-160000000D01*
X110000000Y-160000000D02*
X110000000Y-40000000D01*
X119650000Y-152000000D02*
G75*
G03*
X119650000Y-152000000I-1650000J0D01*
G01*
X119650000Y-100000000D02*
G75*
G03*
X119650000Y-100000000I-1650000J0D01*
G01*
D11*
%TO.C,U103*%
X144397000Y-71883000D02*
X149227000Y-71883000D01*
X154687000Y-66423000D02*
X154687000Y-61593000D01*
X138937000Y-61593000D02*
X138937000Y-66423000D01*
X149227000Y-56133000D02*
X144397000Y-56133000D01*
X151047000Y-57953000D02*
G75*
G03*
X152867000Y-59773000I1820000J0D01*
G01*
X138937000Y-66423000D02*
G75*
G03*
X140757000Y-68243000I1820001J1D01*
G01*
X152867000Y-68243000D02*
G75*
G03*
X154687000Y-66423000I0J1820000D01*
G01*
X140757000Y-59773000D02*
G75*
G03*
X138937000Y-61593000I1J-1820001D01*
G01*
X149227000Y-71883000D02*
G75*
G03*
X151047000Y-70063000I0J1820000D01*
G01*
X140757000Y-59773000D02*
G75*
G03*
X142577000Y-57953000I-1J1820001D01*
G01*
X154687000Y-61593000D02*
G75*
G03*
X152867000Y-59773000I-1820000J0D01*
G01*
X142577000Y-70063000D02*
G75*
G03*
X144397000Y-71883000I1820001J1D01*
G01*
X151047000Y-57953000D02*
G75*
G03*
X149227000Y-56133000I-1820000J0D01*
G01*
X152867000Y-68243000D02*
G75*
G03*
X151047000Y-70063000I0J-1820000D01*
G01*
X144397000Y-56133000D02*
G75*
G03*
X142577000Y-57953000I1J-1820001D01*
G01*
X142577000Y-70063000D02*
G75*
G03*
X140757000Y-68243000I-1820001J-1D01*
G01*
%TD*%
D12*
%TO.C,R106*%
X159357000Y-43942000D03*
X161182000Y-43942000D03*
%TD*%
D13*
%TO.C,R108*%
X161182000Y-48514000D03*
X159357000Y-48514000D03*
%TD*%
%TO.C,R102*%
X142894000Y-43942000D03*
X141069000Y-43942000D03*
%TD*%
D14*
%TO.C,C104*%
X147508000Y-54864000D03*
X145608000Y-54864000D03*
%TD*%
%TO.C,C105*%
X161169500Y-46220000D03*
X159269500Y-46220000D03*
%TD*%
D13*
%TO.C,R107*%
X137818500Y-62738000D03*
X135993500Y-62738000D03*
%TD*%
%TO.C,R104*%
X142894000Y-46228000D03*
X141069000Y-46228000D03*
%TD*%
%TO.C,R105*%
X138576000Y-59944000D03*
X136751000Y-59944000D03*
%TD*%
M02*
