M48
; DRILL file {KiCad 5.1.5+dfsg1-2build2} date Mon 09 Nov 2020 04:58:03 PM CST
; FORMAT={-:-/ absolute / inch / decimal}
; #@! TF.CreationDate,2020-11-09T16:58:03-06:00
; #@! TF.GenerationSoftware,Kicad,Pcbnew,5.1.5+dfsg1-2build2
; #@! TF.FileFunction,NonPlated,1,2,NPTH
FMAT,2
INCH
T1C0.0453
T2C0.0650
T3C0.0858
T4C0.1083
T5C0.1181
T6C0.1240
T7C0.1250
%
G90
G05
T1
X8.5575Y-6.6748
T2
X11.2661Y-6.6748
T3
X12.0335Y-6.2343
X12.6634Y-6.7657
X12.0335Y-7.0343
X12.6634Y-7.5657
X12.0335Y-5.4343
X12.6634Y-5.9657
X11.8106Y-9.8382
X12.6374Y-9.0114
X12.6374Y-9.8382
X11.8106Y-8.6748
X12.6374Y-7.848
X12.6374Y-8.6748
T4
X8.6598Y-5.0213
X11.1638Y-5.0213
T5
X10.574Y-2.6248
X10.574Y-4.4248
X11.224Y-2.6248
X11.224Y-4.4248
T6
X8.6709Y-2.7343
X8.6709Y-4.5453
X9.9071Y-2.7343
X9.9071Y-4.5453
X11.899Y-1.9248
X11.899Y-4.1748
X12.649Y-1.9248
X12.649Y-4.1748
T7
X8.624Y-5.3748
X11.274Y-7.1248
T0
M30
