%TF.GenerationSoftware,KiCad,Pcbnew,6.0.2*%
%TF.CreationDate,2022-02-14T22:33:10-06:00*%
%TF.ProjectId,ALTIMETER_HOLDER,414c5449-4d45-4544-9552-5f484f4c4445,rev?*%
%TF.SameCoordinates,Original*%
%TF.FileFunction,Legend,Bot*%
%TF.FilePolarity,Positive*%
%FSLAX46Y46*%
G04 Gerber Fmt 4.6, Leading zero omitted, Abs format (unit mm)*
G04 Created by KiCad (PCBNEW 6.0.2) date 2022-02-14 22:33:10*
%MOMM*%
%LPD*%
G01*
G04 APERTURE LIST*
%ADD10C,0.200000*%
G04 APERTURE END LIST*
D10*
X42496181Y-37509994D02*
X42496181Y-36938566D01*
X41496181Y-37224280D02*
X42496181Y-37224280D01*
X41781895Y-36652852D02*
X41781895Y-36176661D01*
X41496181Y-36748090D02*
X42496181Y-36414756D01*
X41496181Y-36081423D01*
X41496181Y-35176661D02*
X41972371Y-35509994D01*
X41496181Y-35748090D02*
X42496181Y-35748090D01*
X42496181Y-35367137D01*
X42448562Y-35271899D01*
X42400942Y-35224280D01*
X42305704Y-35176661D01*
X42162847Y-35176661D01*
X42067609Y-35224280D01*
X42019990Y-35271899D01*
X41972371Y-35367137D01*
X41972371Y-35748090D01*
X41543800Y-34795709D02*
X41496181Y-34652852D01*
X41496181Y-34414756D01*
X41543800Y-34319518D01*
X41591419Y-34271899D01*
X41686657Y-34224280D01*
X41781895Y-34224280D01*
X41877133Y-34271899D01*
X41924752Y-34319518D01*
X41972371Y-34414756D01*
X42019990Y-34605232D01*
X42067609Y-34700471D01*
X42115228Y-34748090D01*
X42210466Y-34795709D01*
X42305704Y-34795709D01*
X42400942Y-34748090D01*
X42448562Y-34700471D01*
X42496181Y-34605232D01*
X42496181Y-34367137D01*
X42448562Y-34224280D01*
X41877133Y-33795709D02*
X41877133Y-33033804D01*
X41496181Y-32557613D02*
X42496181Y-32557613D01*
X41781895Y-32224280D01*
X42496181Y-31890947D01*
X41496181Y-31890947D01*
X41496181Y-31414756D02*
X42496181Y-31414756D01*
X41496181Y-30843328D02*
X42067609Y-31271899D01*
X42496181Y-30843328D02*
X41924752Y-31414756D01*
X42496181Y-30509994D02*
X42496181Y-29890947D01*
X42115228Y-30224280D01*
X42115228Y-30081423D01*
X42067609Y-29986185D01*
X42019990Y-29938566D01*
X41924752Y-29890947D01*
X41686657Y-29890947D01*
X41591419Y-29938566D01*
X41543800Y-29986185D01*
X41496181Y-30081423D01*
X41496181Y-30367137D01*
X41543800Y-30462375D01*
X41591419Y-30509994D01*
X40171895Y-41700471D02*
X40171895Y-41224280D01*
X39886181Y-41795709D02*
X40886181Y-41462375D01*
X39886181Y-41129042D01*
X39886181Y-40652852D02*
X39933800Y-40748090D01*
X40029038Y-40795709D01*
X40886181Y-40795709D01*
X40552847Y-40414756D02*
X40552847Y-40033804D01*
X40886181Y-40271899D02*
X40029038Y-40271899D01*
X39933800Y-40224280D01*
X39886181Y-40129042D01*
X39886181Y-40033804D01*
X39886181Y-39700471D02*
X40552847Y-39700471D01*
X40886181Y-39700471D02*
X40838562Y-39748090D01*
X40790942Y-39700471D01*
X40838562Y-39652852D01*
X40886181Y-39700471D01*
X40790942Y-39700471D01*
X39886181Y-39224280D02*
X40552847Y-39224280D01*
X40457609Y-39224280D02*
X40505228Y-39176661D01*
X40552847Y-39081423D01*
X40552847Y-38938566D01*
X40505228Y-38843328D01*
X40409990Y-38795709D01*
X39886181Y-38795709D01*
X40409990Y-38795709D02*
X40505228Y-38748090D01*
X40552847Y-38652852D01*
X40552847Y-38509994D01*
X40505228Y-38414756D01*
X40409990Y-38367137D01*
X39886181Y-38367137D01*
X39933800Y-37509994D02*
X39886181Y-37605232D01*
X39886181Y-37795709D01*
X39933800Y-37890947D01*
X40029038Y-37938566D01*
X40409990Y-37938566D01*
X40505228Y-37890947D01*
X40552847Y-37795709D01*
X40552847Y-37605232D01*
X40505228Y-37509994D01*
X40409990Y-37462375D01*
X40314752Y-37462375D01*
X40219514Y-37938566D01*
X40552847Y-37176661D02*
X40552847Y-36795709D01*
X40886181Y-37033804D02*
X40029038Y-37033804D01*
X39933800Y-36986185D01*
X39886181Y-36890947D01*
X39886181Y-36795709D01*
X39933800Y-36081423D02*
X39886181Y-36176661D01*
X39886181Y-36367137D01*
X39933800Y-36462375D01*
X40029038Y-36509994D01*
X40409990Y-36509994D01*
X40505228Y-36462375D01*
X40552847Y-36367137D01*
X40552847Y-36176661D01*
X40505228Y-36081423D01*
X40409990Y-36033804D01*
X40314752Y-36033804D01*
X40219514Y-36509994D01*
X39886181Y-35605232D02*
X40552847Y-35605232D01*
X40362371Y-35605232D02*
X40457609Y-35557613D01*
X40505228Y-35509994D01*
X40552847Y-35414756D01*
X40552847Y-35319518D01*
X40409990Y-33890947D02*
X40362371Y-33748090D01*
X40314752Y-33700471D01*
X40219514Y-33652852D01*
X40076657Y-33652852D01*
X39981419Y-33700471D01*
X39933800Y-33748090D01*
X39886181Y-33843328D01*
X39886181Y-34224280D01*
X40886181Y-34224280D01*
X40886181Y-33890947D01*
X40838562Y-33795709D01*
X40790942Y-33748090D01*
X40695704Y-33700471D01*
X40600466Y-33700471D01*
X40505228Y-33748090D01*
X40457609Y-33795709D01*
X40409990Y-33890947D01*
X40409990Y-34224280D01*
X39886181Y-33081423D02*
X39933800Y-33176661D01*
X39981419Y-33224280D01*
X40076657Y-33271899D01*
X40362371Y-33271899D01*
X40457609Y-33224280D01*
X40505228Y-33176661D01*
X40552847Y-33081423D01*
X40552847Y-32938566D01*
X40505228Y-32843328D01*
X40457609Y-32795709D01*
X40362371Y-32748090D01*
X40076657Y-32748090D01*
X39981419Y-32795709D01*
X39933800Y-32843328D01*
X39886181Y-32938566D01*
X39886181Y-33081423D01*
X39886181Y-31890947D02*
X40409990Y-31890947D01*
X40505228Y-31938566D01*
X40552847Y-32033804D01*
X40552847Y-32224280D01*
X40505228Y-32319518D01*
X39933800Y-31890947D02*
X39886181Y-31986185D01*
X39886181Y-32224280D01*
X39933800Y-32319518D01*
X40029038Y-32367137D01*
X40124276Y-32367137D01*
X40219514Y-32319518D01*
X40267133Y-32224280D01*
X40267133Y-31986185D01*
X40314752Y-31890947D01*
X39886181Y-31414756D02*
X40552847Y-31414756D01*
X40362371Y-31414756D02*
X40457609Y-31367137D01*
X40505228Y-31319518D01*
X40552847Y-31224280D01*
X40552847Y-31129042D01*
X39886181Y-30367137D02*
X40886181Y-30367137D01*
X39933800Y-30367137D02*
X39886181Y-30462375D01*
X39886181Y-30652852D01*
X39933800Y-30748090D01*
X39981419Y-30795709D01*
X40076657Y-30843328D01*
X40362371Y-30843328D01*
X40457609Y-30795709D01*
X40505228Y-30748090D01*
X40552847Y-30652852D01*
X40552847Y-30462375D01*
X40505228Y-30367137D01*
X39886181Y-28557613D02*
X40362371Y-28890947D01*
X39886181Y-29129042D02*
X40886181Y-29129042D01*
X40886181Y-28748090D01*
X40838562Y-28652852D01*
X40790942Y-28605232D01*
X40695704Y-28557613D01*
X40552847Y-28557613D01*
X40457609Y-28605232D01*
X40409990Y-28652852D01*
X40362371Y-28748090D01*
X40362371Y-29129042D01*
X39933800Y-27748090D02*
X39886181Y-27843328D01*
X39886181Y-28033804D01*
X39933800Y-28129042D01*
X40029038Y-28176661D01*
X40409990Y-28176661D01*
X40505228Y-28129042D01*
X40552847Y-28033804D01*
X40552847Y-27843328D01*
X40505228Y-27748090D01*
X40409990Y-27700471D01*
X40314752Y-27700471D01*
X40219514Y-28176661D01*
X40552847Y-27367137D02*
X39886181Y-27129042D01*
X40552847Y-26890947D01*
X39981419Y-26509994D02*
X39933800Y-26462375D01*
X39886181Y-26509994D01*
X39933800Y-26557613D01*
X39981419Y-26509994D01*
X39886181Y-26509994D01*
X40171895Y-26081423D02*
X40171895Y-25605232D01*
X39886181Y-26176661D02*
X40886181Y-25843328D01*
X39886181Y-25509994D01*
X43091181Y-44181423D02*
X44091181Y-44181423D01*
X43091181Y-43229042D02*
X43091181Y-43705232D01*
X44091181Y-43705232D01*
X43091181Y-42419518D02*
X43091181Y-42895709D01*
X44091181Y-42895709D01*
X43091181Y-42086185D02*
X44091181Y-42086185D01*
X43091181Y-41609994D02*
X44091181Y-41609994D01*
X43091181Y-41038566D01*
X44091181Y-41038566D01*
X44091181Y-40371899D02*
X44091181Y-40181423D01*
X44043562Y-40086185D01*
X43948323Y-39990947D01*
X43757847Y-39943328D01*
X43424514Y-39943328D01*
X43234038Y-39990947D01*
X43138800Y-40086185D01*
X43091181Y-40181423D01*
X43091181Y-40371899D01*
X43138800Y-40467137D01*
X43234038Y-40562375D01*
X43424514Y-40609994D01*
X43757847Y-40609994D01*
X43948323Y-40562375D01*
X44043562Y-40467137D01*
X44091181Y-40371899D01*
X43091181Y-39514756D02*
X44091181Y-39514756D01*
X43138800Y-39086185D02*
X43091181Y-38943328D01*
X43091181Y-38705232D01*
X43138800Y-38609994D01*
X43186419Y-38562375D01*
X43281657Y-38514756D01*
X43376895Y-38514756D01*
X43472133Y-38562375D01*
X43519752Y-38609994D01*
X43567371Y-38705232D01*
X43614990Y-38895709D01*
X43662609Y-38990947D01*
X43710228Y-39038566D01*
X43805466Y-39086185D01*
X43900704Y-39086185D01*
X43995942Y-39038566D01*
X44043562Y-38990947D01*
X44091181Y-38895709D01*
X44091181Y-38657613D01*
X44043562Y-38514756D01*
X43138800Y-37371899D02*
X43091181Y-37229042D01*
X43091181Y-36990947D01*
X43138800Y-36895709D01*
X43186419Y-36848090D01*
X43281657Y-36800471D01*
X43376895Y-36800471D01*
X43472133Y-36848090D01*
X43519752Y-36895709D01*
X43567371Y-36990947D01*
X43614990Y-37181423D01*
X43662609Y-37276661D01*
X43710228Y-37324280D01*
X43805466Y-37371899D01*
X43900704Y-37371899D01*
X43995942Y-37324280D01*
X44043562Y-37276661D01*
X44091181Y-37181423D01*
X44091181Y-36943328D01*
X44043562Y-36800471D01*
X43091181Y-36371899D02*
X44091181Y-36371899D01*
X44091181Y-35990947D01*
X44043562Y-35895709D01*
X43995942Y-35848090D01*
X43900704Y-35800471D01*
X43757847Y-35800471D01*
X43662609Y-35848090D01*
X43614990Y-35895709D01*
X43567371Y-35990947D01*
X43567371Y-36371899D01*
X43376895Y-35419518D02*
X43376895Y-34943328D01*
X43091181Y-35514756D02*
X44091181Y-35181423D01*
X43091181Y-34848090D01*
X43186419Y-33943328D02*
X43138800Y-33990947D01*
X43091181Y-34133804D01*
X43091181Y-34229042D01*
X43138800Y-34371899D01*
X43234038Y-34467137D01*
X43329276Y-34514756D01*
X43519752Y-34562375D01*
X43662609Y-34562375D01*
X43853085Y-34514756D01*
X43948323Y-34467137D01*
X44043562Y-34371899D01*
X44091181Y-34229042D01*
X44091181Y-34133804D01*
X44043562Y-33990947D01*
X43995942Y-33943328D01*
X43614990Y-33514756D02*
X43614990Y-33181423D01*
X43091181Y-33038566D02*
X43091181Y-33514756D01*
X44091181Y-33514756D01*
X44091181Y-33038566D01*
X43138800Y-31895709D02*
X43091181Y-31752852D01*
X43091181Y-31514756D01*
X43138800Y-31419518D01*
X43186419Y-31371899D01*
X43281657Y-31324280D01*
X43376895Y-31324280D01*
X43472133Y-31371899D01*
X43519752Y-31419518D01*
X43567371Y-31514756D01*
X43614990Y-31705232D01*
X43662609Y-31800471D01*
X43710228Y-31848090D01*
X43805466Y-31895709D01*
X43900704Y-31895709D01*
X43995942Y-31848090D01*
X44043562Y-31800471D01*
X44091181Y-31705232D01*
X44091181Y-31467137D01*
X44043562Y-31324280D01*
X44091181Y-30705232D02*
X44091181Y-30514756D01*
X44043562Y-30419518D01*
X43948323Y-30324280D01*
X43757847Y-30276661D01*
X43424514Y-30276661D01*
X43234038Y-30324280D01*
X43138800Y-30419518D01*
X43091181Y-30514756D01*
X43091181Y-30705232D01*
X43138800Y-30800471D01*
X43234038Y-30895709D01*
X43424514Y-30943328D01*
X43757847Y-30943328D01*
X43948323Y-30895709D01*
X44043562Y-30800471D01*
X44091181Y-30705232D01*
X43186419Y-29276661D02*
X43138800Y-29324280D01*
X43091181Y-29467137D01*
X43091181Y-29562375D01*
X43138800Y-29705232D01*
X43234038Y-29800471D01*
X43329276Y-29848090D01*
X43519752Y-29895709D01*
X43662609Y-29895709D01*
X43853085Y-29848090D01*
X43948323Y-29800471D01*
X44043562Y-29705232D01*
X44091181Y-29562375D01*
X44091181Y-29467137D01*
X44043562Y-29324280D01*
X43995942Y-29276661D01*
X43091181Y-28848090D02*
X44091181Y-28848090D01*
X43614990Y-28371899D02*
X43614990Y-28038566D01*
X43091181Y-27895709D02*
X43091181Y-28371899D01*
X44091181Y-28371899D01*
X44091181Y-27895709D01*
X44091181Y-27609994D02*
X44091181Y-27038566D01*
X43091181Y-27324280D02*
X44091181Y-27324280D01*
X43567371Y-26514756D02*
X43091181Y-26514756D01*
X44091181Y-26848090D02*
X43567371Y-26514756D01*
X44091181Y-26181423D01*
%TO.C,G\u002A\u002A\u002A*%
G36*
X45327018Y-66633859D02*
G01*
X45212327Y-66689267D01*
X45066154Y-66745535D01*
X44911474Y-66795248D01*
X44771263Y-66830994D01*
X44668497Y-66845360D01*
X44627669Y-66841123D01*
X44533331Y-66821839D01*
X44420112Y-66792086D01*
X44397115Y-66785017D01*
X44205967Y-66693772D01*
X44025009Y-66545804D01*
X43850770Y-66337710D01*
X43679781Y-66066089D01*
X43635647Y-65972410D01*
X43577233Y-65815903D01*
X43507786Y-65600823D01*
X43426113Y-65323673D01*
X43398603Y-65230509D01*
X43362545Y-65116782D01*
X43335007Y-65039220D01*
X43306580Y-64945165D01*
X43273409Y-64787485D01*
X43238971Y-64580248D01*
X43204610Y-64332417D01*
X43173534Y-64068732D01*
X44751828Y-64068732D01*
X44757896Y-64097019D01*
X44771154Y-64164784D01*
X44802606Y-64237163D01*
X44882663Y-64337210D01*
X44992326Y-64436295D01*
X45114243Y-64519118D01*
X45231065Y-64570376D01*
X45453173Y-64600259D01*
X45688299Y-64566562D01*
X45933306Y-64467901D01*
X46188915Y-64303985D01*
X46455846Y-64074523D01*
X46492557Y-64039135D01*
X46593302Y-63940088D01*
X46678377Y-63851314D01*
X46756614Y-63761840D01*
X46836844Y-63660695D01*
X46927897Y-63536905D01*
X47038605Y-63379499D01*
X47177799Y-63177503D01*
X47282527Y-63022734D01*
X47403329Y-62835352D01*
X47483410Y-62696867D01*
X47523539Y-62605361D01*
X47524484Y-62558915D01*
X47487015Y-62555614D01*
X47411900Y-62593539D01*
X47391386Y-62605828D01*
X47311613Y-62646703D01*
X47259074Y-62663198D01*
X47249779Y-62664601D01*
X47190093Y-62692176D01*
X47112431Y-62743903D01*
X47100241Y-62752830D01*
X47009921Y-62811440D01*
X46887179Y-62883592D01*
X46754914Y-62955718D01*
X46740376Y-62963341D01*
X46594792Y-63042121D01*
X46450445Y-63123837D01*
X46336601Y-63191960D01*
X46211673Y-63268018D01*
X46054968Y-63358279D01*
X45903320Y-63440990D01*
X45773938Y-63506805D01*
X45684032Y-63546378D01*
X45664889Y-63554452D01*
X45582927Y-63597083D01*
X45470492Y-63662119D01*
X45346038Y-63739043D01*
X45292235Y-63772851D01*
X45181738Y-63838721D01*
X45097062Y-63884348D01*
X45053218Y-63901407D01*
X45040813Y-63903201D01*
X45014730Y-63934872D01*
X45011276Y-63947901D01*
X44971204Y-63968337D01*
X44917323Y-63979598D01*
X44837605Y-64010168D01*
X44775364Y-64044551D01*
X44751828Y-64068732D01*
X43173534Y-64068732D01*
X43171674Y-64052952D01*
X43141508Y-63750814D01*
X43126627Y-63593659D01*
X43112357Y-63453928D01*
X43100673Y-63350689D01*
X43093191Y-63299035D01*
X43092478Y-63293590D01*
X43089806Y-63233291D01*
X43087177Y-63115571D01*
X43084674Y-62947930D01*
X43082384Y-62737863D01*
X43080391Y-62492869D01*
X43078780Y-62220445D01*
X43077637Y-61928089D01*
X43077124Y-61629485D01*
X43077995Y-61278273D01*
X43081108Y-60969937D01*
X43086960Y-60690717D01*
X43096051Y-60426853D01*
X43108880Y-60164586D01*
X43125946Y-59890154D01*
X43147749Y-59589799D01*
X43174787Y-59249760D01*
X43199250Y-58952302D01*
X43222848Y-58669948D01*
X43242688Y-58439183D01*
X43259519Y-58251954D01*
X43274090Y-58100205D01*
X43287150Y-57975882D01*
X43299448Y-57870931D01*
X43311734Y-57777296D01*
X43313676Y-57762314D01*
X43325030Y-57641094D01*
X43336235Y-57470224D01*
X43346538Y-57264414D01*
X43355186Y-57038373D01*
X43361426Y-56806808D01*
X43362383Y-56763431D01*
X43369100Y-56533511D01*
X43378058Y-56313178D01*
X43388512Y-56116768D01*
X43399718Y-55958615D01*
X43410933Y-55853054D01*
X43418622Y-55801466D01*
X43468159Y-55500146D01*
X43516576Y-55261580D01*
X43564687Y-55082169D01*
X43613304Y-54958317D01*
X43627874Y-54920533D01*
X43642661Y-54832822D01*
X43648998Y-54793487D01*
X43676126Y-54765438D01*
X43690231Y-54761094D01*
X43709592Y-54719084D01*
X43713567Y-54688040D01*
X43733781Y-54598820D01*
X43766465Y-54477219D01*
X43806382Y-54342334D01*
X43848296Y-54213264D01*
X43877373Y-54123795D01*
X43940589Y-53902032D01*
X44004263Y-53646941D01*
X44063020Y-53380740D01*
X44111482Y-53125649D01*
X44118424Y-53086451D01*
X44145653Y-52943019D01*
X44182050Y-52760743D01*
X44223706Y-52558984D01*
X44266709Y-52357104D01*
X44290058Y-52248633D01*
X44331512Y-52048847D01*
X44358772Y-51901786D01*
X44372814Y-51798907D01*
X44374618Y-51731665D01*
X44365164Y-51691517D01*
X44345428Y-51669918D01*
X44328104Y-51666845D01*
X44311963Y-51701738D01*
X44304642Y-51724356D01*
X44262904Y-51794865D01*
X44192464Y-51893917D01*
X44102806Y-52007639D01*
X44062400Y-52057353D01*
X43955816Y-52194688D01*
X43859100Y-52327164D01*
X43789183Y-52431875D01*
X43741023Y-52505621D01*
X43670221Y-52600050D01*
X43613492Y-52660389D01*
X43565339Y-52704149D01*
X43542266Y-52736074D01*
X43541340Y-52739747D01*
X43513379Y-52780830D01*
X43458603Y-52844358D01*
X43374941Y-52934632D01*
X43374720Y-49926254D01*
X43374773Y-49577388D01*
X43375257Y-49055522D01*
X43376331Y-48594136D01*
X43378108Y-48189220D01*
X43380701Y-47836765D01*
X43381542Y-47764171D01*
X44914335Y-47764171D01*
X44914339Y-47797603D01*
X44914993Y-48160113D01*
X44916698Y-48489352D01*
X44919372Y-48780510D01*
X44922930Y-49028781D01*
X44927290Y-49229355D01*
X44932368Y-49377426D01*
X44938082Y-49468184D01*
X44944346Y-49496821D01*
X44961764Y-49473521D01*
X44999490Y-49392131D01*
X45048997Y-49263224D01*
X45106703Y-49096813D01*
X45169029Y-48902909D01*
X45232392Y-48691525D01*
X45260606Y-48594092D01*
X45337249Y-48331763D01*
X45402947Y-48112252D01*
X45404927Y-48105886D01*
X45985217Y-48105886D01*
X45986579Y-48115059D01*
X46020657Y-48139351D01*
X46032762Y-48136724D01*
X46035415Y-48105886D01*
X46028546Y-48095871D01*
X45999975Y-48072421D01*
X45996635Y-48073291D01*
X45985217Y-48105886D01*
X45404927Y-48105886D01*
X45462990Y-47919224D01*
X45522665Y-47736341D01*
X45587261Y-47547268D01*
X45662066Y-47335666D01*
X45752369Y-47085201D01*
X45771347Y-47031887D01*
X45820187Y-46882673D01*
X45865822Y-46721316D01*
X45913094Y-46529873D01*
X45966844Y-46290405D01*
X45974503Y-46256289D01*
X46004247Y-46141593D01*
X46031406Y-46061296D01*
X46050906Y-46031051D01*
X46060477Y-46020470D01*
X46060548Y-45966703D01*
X46045458Y-45888352D01*
X46020369Y-45809166D01*
X45990442Y-45752893D01*
X45977378Y-45728872D01*
X45983375Y-45665915D01*
X45988942Y-45654304D01*
X45999405Y-45574083D01*
X45990422Y-45467505D01*
X45966118Y-45363797D01*
X45930619Y-45292184D01*
X45904914Y-45256149D01*
X45884822Y-45202584D01*
X45884819Y-45202064D01*
X45855500Y-45146636D01*
X45783930Y-45089626D01*
X45692655Y-45045125D01*
X45604222Y-45027223D01*
X45568135Y-45029500D01*
X45429030Y-45077906D01*
X45294472Y-45183458D01*
X45170926Y-45338467D01*
X45064863Y-45535242D01*
X44982748Y-45766094D01*
X44970126Y-45813433D01*
X44956939Y-45871030D01*
X44946006Y-45934156D01*
X44937117Y-46008949D01*
X44930060Y-46101551D01*
X44924627Y-46218101D01*
X44920606Y-46364739D01*
X44917788Y-46547607D01*
X44915962Y-46772844D01*
X44914918Y-47046590D01*
X44914445Y-47374986D01*
X44914335Y-47764171D01*
X43381542Y-47764171D01*
X43384223Y-47532761D01*
X43388787Y-47273200D01*
X43394506Y-47054072D01*
X43401492Y-46871367D01*
X43409858Y-46721076D01*
X43419718Y-46599190D01*
X43431183Y-46501699D01*
X43444368Y-46424594D01*
X43459383Y-46363865D01*
X43476344Y-46315504D01*
X43480642Y-46304204D01*
X43504535Y-46218892D01*
X43525310Y-46114714D01*
X43527316Y-46102740D01*
X43553309Y-45985572D01*
X43592615Y-45844136D01*
X43639322Y-45696273D01*
X43687516Y-45559819D01*
X43731285Y-45452615D01*
X43764714Y-45392498D01*
X43788200Y-45357653D01*
X43792519Y-45321971D01*
X43791811Y-45303882D01*
X43825911Y-45262025D01*
X43853261Y-45231940D01*
X43876917Y-45172639D01*
X43885519Y-45134690D01*
X43921187Y-45045668D01*
X43976182Y-44930394D01*
X44041396Y-44806725D01*
X44107725Y-44692517D01*
X44166063Y-44605626D01*
X44179325Y-44587686D01*
X44226121Y-44513241D01*
X44245033Y-44463399D01*
X44246760Y-44450868D01*
X44276890Y-44424727D01*
X44300642Y-44409681D01*
X44353260Y-44351954D01*
X44417169Y-44265768D01*
X44465143Y-44198074D01*
X44520351Y-44127483D01*
X44552637Y-44095653D01*
X44563545Y-44087105D01*
X44579684Y-44037090D01*
X44585482Y-44015038D01*
X44629881Y-43989681D01*
X44652956Y-43986041D01*
X44680079Y-43957369D01*
X44692746Y-43929624D01*
X44738979Y-43869356D01*
X44801376Y-43801063D01*
X44860988Y-43745134D01*
X44898865Y-43721960D01*
X44915398Y-43715999D01*
X44962259Y-43680129D01*
X44967875Y-43674689D01*
X45094600Y-43556949D01*
X45210466Y-43462994D01*
X45333695Y-43380591D01*
X45482508Y-43297507D01*
X45675125Y-43201508D01*
X45688737Y-43195000D01*
X45952032Y-43093750D01*
X46212339Y-43037345D01*
X46459999Y-43025421D01*
X46685357Y-43057611D01*
X46878752Y-43133549D01*
X47030530Y-43252869D01*
X47062443Y-43286521D01*
X47130779Y-43340416D01*
X47190610Y-43349078D01*
X47250183Y-43308243D01*
X47317745Y-43213647D01*
X47401545Y-43061025D01*
X47463372Y-42941525D01*
X47536346Y-42801115D01*
X47588815Y-42701852D01*
X47626949Y-42632666D01*
X47656917Y-42582484D01*
X47684890Y-42540235D01*
X47717036Y-42494847D01*
X47730427Y-42475799D01*
X47774536Y-42406603D01*
X47792332Y-42367318D01*
X47794164Y-42360996D01*
X47821134Y-42309637D01*
X47873604Y-42221780D01*
X47942925Y-42112086D01*
X47966898Y-42074838D01*
X48031520Y-41972262D01*
X48076588Y-41897409D01*
X48093518Y-41864396D01*
X48095062Y-41859967D01*
X48121655Y-41813806D01*
X48174426Y-41730572D01*
X48244470Y-41624420D01*
X48273759Y-41581473D01*
X48402138Y-41404809D01*
X48550677Y-41214430D01*
X48707772Y-41024115D01*
X48861817Y-40847648D01*
X49001208Y-40698809D01*
X49114341Y-40591379D01*
X49182815Y-40534435D01*
X49278813Y-40463877D01*
X49329956Y-40442606D01*
X49336267Y-40470389D01*
X49297773Y-40546996D01*
X49214500Y-40672195D01*
X49086471Y-40845754D01*
X48965697Y-41006260D01*
X48861651Y-41150216D01*
X48769597Y-41286280D01*
X48678657Y-41431185D01*
X48577949Y-41601664D01*
X48456594Y-41814450D01*
X48409095Y-41896115D01*
X48329284Y-42028091D01*
X48249253Y-42155860D01*
X48187769Y-42254709D01*
X48143769Y-42331000D01*
X48126983Y-42367891D01*
X48124651Y-42375154D01*
X48099726Y-42431494D01*
X48050963Y-42535179D01*
X47982663Y-42677234D01*
X47899127Y-42848683D01*
X47804656Y-43040552D01*
X47761658Y-43127587D01*
X47664938Y-43325480D01*
X47593344Y-43477452D01*
X47543079Y-43593529D01*
X47510344Y-43683737D01*
X47491344Y-43758101D01*
X47482279Y-43826648D01*
X47479354Y-43899403D01*
X47481051Y-43986548D01*
X47494476Y-44147070D01*
X47517227Y-44287068D01*
X47521643Y-44310773D01*
X47530754Y-44393857D01*
X47538441Y-44519495D01*
X47544775Y-44691167D01*
X47549825Y-44912356D01*
X47553660Y-45186542D01*
X47556349Y-45517208D01*
X47557963Y-45907835D01*
X47558570Y-46361903D01*
X47558689Y-46562142D01*
X47559460Y-46962760D01*
X47561004Y-47302640D01*
X47563412Y-47586055D01*
X47566777Y-47817280D01*
X47571191Y-48000588D01*
X47576745Y-48140254D01*
X47583531Y-48240553D01*
X47591643Y-48305757D01*
X47601171Y-48340142D01*
X47652357Y-48399767D01*
X47749905Y-48435079D01*
X47868977Y-48424142D01*
X47993575Y-48365906D01*
X48021286Y-48347351D01*
X48059982Y-48319980D01*
X48093406Y-48290513D01*
X48121949Y-48254318D01*
X48145999Y-48206764D01*
X48165948Y-48143221D01*
X48182184Y-48059057D01*
X48195097Y-47949642D01*
X48205077Y-47810345D01*
X48212515Y-47636534D01*
X48217799Y-47423579D01*
X48221319Y-47166849D01*
X48223465Y-46861713D01*
X48224627Y-46503539D01*
X48225195Y-46087698D01*
X48225558Y-45609558D01*
X48225682Y-45451761D01*
X48226094Y-45016569D01*
X48226667Y-44642055D01*
X48227534Y-44323518D01*
X48228826Y-44056259D01*
X48230677Y-43835575D01*
X48233218Y-43656768D01*
X48236583Y-43515136D01*
X48240903Y-43405979D01*
X48246311Y-43324597D01*
X48252940Y-43266288D01*
X48260921Y-43226354D01*
X48270388Y-43200092D01*
X48281473Y-43182803D01*
X48294308Y-43169786D01*
X48338475Y-43119851D01*
X48361238Y-43069391D01*
X48377985Y-43027955D01*
X48428169Y-42968996D01*
X48472768Y-42921748D01*
X48495099Y-42881525D01*
X48496019Y-42876226D01*
X48522476Y-42826244D01*
X48575906Y-42747709D01*
X48643397Y-42657407D01*
X48712036Y-42572122D01*
X48768909Y-42508642D01*
X48801102Y-42483752D01*
X48811589Y-42480834D01*
X48829791Y-42441920D01*
X48834496Y-42426911D01*
X48871489Y-42364257D01*
X48937269Y-42271019D01*
X49022215Y-42161233D01*
X49048216Y-42128874D01*
X49153718Y-41996300D01*
X49254469Y-41868000D01*
X49331726Y-41767798D01*
X49416069Y-41656791D01*
X49527814Y-41511719D01*
X49608897Y-41410602D01*
X49664982Y-41347254D01*
X49701730Y-41315487D01*
X49724807Y-41309115D01*
X49739874Y-41321953D01*
X49743528Y-41348409D01*
X49747740Y-41437311D01*
X49751501Y-41582745D01*
X49754815Y-41778909D01*
X49757684Y-42020001D01*
X49760112Y-42300215D01*
X49762102Y-42613750D01*
X49763656Y-42954803D01*
X49764777Y-43317570D01*
X49765469Y-43696248D01*
X49765734Y-44085034D01*
X49765576Y-44478125D01*
X49764997Y-44869718D01*
X49764000Y-45254010D01*
X49762589Y-45625198D01*
X49760766Y-45977478D01*
X49758535Y-46305048D01*
X49755898Y-46602104D01*
X49752858Y-46862843D01*
X49749419Y-47081462D01*
X49745583Y-47252159D01*
X49741353Y-47369130D01*
X49736732Y-47426571D01*
X49718343Y-47526003D01*
X49691367Y-47673863D01*
X49664753Y-47821433D01*
X49638128Y-47947895D01*
X49608108Y-48056540D01*
X49581432Y-48122619D01*
X49562988Y-48161199D01*
X49529871Y-48258045D01*
X49500046Y-48373607D01*
X49491074Y-48407764D01*
X49455304Y-48512033D01*
X49402320Y-48645990D01*
X49338122Y-48796512D01*
X49268711Y-48950477D01*
X49200087Y-49094761D01*
X49138250Y-49216243D01*
X49089200Y-49301799D01*
X49058938Y-49338307D01*
X49050652Y-49344046D01*
X49008622Y-49391856D01*
X48951456Y-49469594D01*
X48893215Y-49556572D01*
X48847959Y-49632104D01*
X48829750Y-49675504D01*
X48828791Y-49680163D01*
X48797501Y-49727862D01*
X48729753Y-49808223D01*
X48636046Y-49910508D01*
X48526882Y-50023981D01*
X48412762Y-50137903D01*
X48304185Y-50241539D01*
X48211654Y-50324150D01*
X48145668Y-50374999D01*
X48043610Y-50437128D01*
X47846871Y-50543926D01*
X47647908Y-50637895D01*
X47465648Y-50710387D01*
X47319017Y-50752753D01*
X47261511Y-50762884D01*
X47002764Y-50773784D01*
X46766478Y-50726601D01*
X46559151Y-50624311D01*
X46387279Y-50469890D01*
X46257360Y-50266315D01*
X46214590Y-50170547D01*
X46158336Y-50020176D01*
X46114913Y-49862091D01*
X46082323Y-49684462D01*
X46058573Y-49475457D01*
X46041666Y-49223245D01*
X46029607Y-48915995D01*
X46025288Y-48779727D01*
X46020657Y-48656238D01*
X46017501Y-48572081D01*
X46009467Y-48419784D01*
X46000437Y-48315294D01*
X45989663Y-48251067D01*
X45976397Y-48219560D01*
X45959891Y-48213228D01*
X45935287Y-48227529D01*
X45898066Y-48283275D01*
X45856170Y-48386191D01*
X45807185Y-48542508D01*
X45748699Y-48758455D01*
X45741616Y-48785809D01*
X45705212Y-48924797D01*
X45672781Y-49046273D01*
X45650627Y-49126571D01*
X45636789Y-49178351D01*
X45608785Y-49287394D01*
X45570129Y-49440030D01*
X45523615Y-49625035D01*
X45472042Y-49831183D01*
X45418204Y-50047250D01*
X45364899Y-50262010D01*
X45314923Y-50464239D01*
X45271072Y-50642711D01*
X45236143Y-50786203D01*
X45212932Y-50883488D01*
X45181034Y-51018077D01*
X45126419Y-51236586D01*
X45080855Y-51402197D01*
X45079802Y-51405802D01*
X45057926Y-51491812D01*
X45029776Y-51616288D01*
X45001167Y-51753581D01*
X44974450Y-51888549D01*
X44944346Y-52044973D01*
X44918712Y-52178171D01*
X44877620Y-52408877D01*
X44851166Y-52585214D01*
X44839342Y-52711731D01*
X44842140Y-52792974D01*
X44859551Y-52833494D01*
X44891568Y-52837837D01*
X44938183Y-52810552D01*
X44999387Y-52756186D01*
X45024501Y-52732890D01*
X45093763Y-52678764D01*
X45139920Y-52657138D01*
X45172705Y-52643788D01*
X45222800Y-52593549D01*
X45234792Y-52580576D01*
X45304053Y-52531100D01*
X45414743Y-52467150D01*
X45551696Y-52396344D01*
X45699747Y-52326300D01*
X45843732Y-52264635D01*
X45968485Y-52218969D01*
X46066667Y-52196672D01*
X46237914Y-52179198D01*
X46427681Y-52176714D01*
X46609003Y-52189288D01*
X46754914Y-52216987D01*
X46821180Y-52243662D01*
X46960273Y-52334008D01*
X47101853Y-52463118D01*
X47230443Y-52615930D01*
X47330571Y-52777379D01*
X47363605Y-52844110D01*
X47401947Y-52924735D01*
X47419548Y-52966339D01*
X47422320Y-52976321D01*
X47440040Y-53033269D01*
X47457425Y-53087490D01*
X47474799Y-53149284D01*
X47489525Y-53215611D01*
X47501871Y-53292146D01*
X47512100Y-53384559D01*
X47520478Y-53498523D01*
X47527271Y-53639710D01*
X47532744Y-53813793D01*
X47537161Y-54026445D01*
X47540789Y-54283336D01*
X47543891Y-54590140D01*
X47546734Y-54952530D01*
X47549583Y-55376176D01*
X47549718Y-55396932D01*
X47552557Y-55757941D01*
X47556123Y-56098007D01*
X47560300Y-56411380D01*
X47564967Y-56692312D01*
X47570007Y-56935056D01*
X47575300Y-57133863D01*
X47580729Y-57282985D01*
X47586175Y-57376673D01*
X47591518Y-57409180D01*
X47611797Y-57425639D01*
X47631045Y-57484476D01*
X47640485Y-57519603D01*
X47680568Y-57554725D01*
X47767768Y-57570191D01*
X47792150Y-57571792D01*
X47869321Y-57565156D01*
X47938031Y-57529426D01*
X48023472Y-57453063D01*
X48052249Y-57422749D01*
X48138033Y-57305695D01*
X48190076Y-57191657D01*
X48194576Y-57167075D01*
X48202336Y-57076616D01*
X48209006Y-56928030D01*
X48214605Y-56720060D01*
X48219151Y-56451451D01*
X48222664Y-56120945D01*
X48225162Y-55727286D01*
X48226665Y-55269217D01*
X48227192Y-54745481D01*
X48227193Y-54586459D01*
X48227158Y-54155739D01*
X48227304Y-53785213D01*
X48227946Y-53469837D01*
X48229395Y-53204567D01*
X48231967Y-52984361D01*
X48235972Y-52804175D01*
X48241725Y-52658966D01*
X48249538Y-52543691D01*
X48259724Y-52453307D01*
X48272597Y-52382771D01*
X48288469Y-52327039D01*
X48307654Y-52281069D01*
X48330464Y-52239817D01*
X48357213Y-52198239D01*
X48388214Y-52151294D01*
X48432831Y-52085413D01*
X48511501Y-51977888D01*
X48595247Y-51870738D01*
X48673058Y-51777475D01*
X48733926Y-51711608D01*
X48766840Y-51686650D01*
X48778878Y-51682664D01*
X48796285Y-51641308D01*
X48797712Y-51633566D01*
X48826705Y-51576407D01*
X48885374Y-51487306D01*
X48963599Y-51381953D01*
X49008960Y-51323908D01*
X49203452Y-51074274D01*
X49359326Y-50872738D01*
X49479212Y-50715837D01*
X49565736Y-50600107D01*
X49621527Y-50522083D01*
X49649214Y-50478301D01*
X49676429Y-50441406D01*
X49724510Y-50414977D01*
X49728742Y-50418407D01*
X49735836Y-50444132D01*
X49742048Y-50498005D01*
X49747429Y-50583550D01*
X49752028Y-50704293D01*
X49755897Y-50863760D01*
X49759086Y-51065477D01*
X49761645Y-51312969D01*
X49763626Y-51609762D01*
X49765078Y-51959382D01*
X49766053Y-52365354D01*
X49766601Y-52831204D01*
X49766772Y-53360458D01*
X49766768Y-53514345D01*
X49766662Y-54010397D01*
X49766342Y-54445615D01*
X49765712Y-54824742D01*
X49764680Y-55152516D01*
X49763149Y-55433678D01*
X49761025Y-55672969D01*
X49758214Y-55875128D01*
X49754621Y-56044896D01*
X49750151Y-56187013D01*
X49744710Y-56306219D01*
X49738203Y-56407256D01*
X49730536Y-56494862D01*
X49721613Y-56573778D01*
X49711341Y-56648744D01*
X49699624Y-56724502D01*
X49697781Y-56735938D01*
X49669494Y-56899456D01*
X49641584Y-57041352D01*
X49617178Y-57146764D01*
X49599402Y-57200826D01*
X49585203Y-57232216D01*
X49551794Y-57321403D01*
X49508732Y-57446922D01*
X49461827Y-57592243D01*
X49370176Y-57849800D01*
X49169620Y-58267936D01*
X48907516Y-58672163D01*
X48869999Y-58723836D01*
X48797921Y-58827375D01*
X48748010Y-58905173D01*
X48729354Y-58943396D01*
X48724997Y-58955005D01*
X48694628Y-58992666D01*
X48631388Y-59056160D01*
X48530701Y-59149813D01*
X48387989Y-59277950D01*
X48198677Y-59444896D01*
X48038895Y-59569725D01*
X47793965Y-59715123D01*
X47536399Y-59822245D01*
X47279127Y-59887077D01*
X47035080Y-59905605D01*
X46817186Y-59873814D01*
X46736905Y-59847105D01*
X46641849Y-59805545D01*
X46587869Y-59768806D01*
X46559733Y-59741325D01*
X46513011Y-59718271D01*
X46509516Y-59718093D01*
X46453404Y-59683812D01*
X46384420Y-59598359D01*
X46309061Y-59473595D01*
X46233824Y-59321381D01*
X46165205Y-59153575D01*
X46109703Y-58982039D01*
X46096092Y-58930250D01*
X46083856Y-58875021D01*
X46073393Y-58813065D01*
X46064498Y-58738909D01*
X46056966Y-58647081D01*
X46050593Y-58532106D01*
X46045172Y-58388513D01*
X46040500Y-58210828D01*
X46036371Y-57993579D01*
X46032579Y-57731293D01*
X46028921Y-57418498D01*
X46025190Y-57049719D01*
X46021182Y-56619485D01*
X46017247Y-56208616D01*
X46013056Y-55825163D01*
X46008793Y-55499939D01*
X46004320Y-55228426D01*
X45999502Y-55006105D01*
X45994202Y-54828459D01*
X45988283Y-54690970D01*
X45981609Y-54589120D01*
X45974043Y-54518391D01*
X45965449Y-54474264D01*
X45955690Y-54452222D01*
X45953294Y-54449283D01*
X45905441Y-54378309D01*
X45855295Y-54288162D01*
X45837759Y-54255946D01*
X45778050Y-54192792D01*
X45687767Y-54168967D01*
X45679260Y-54168191D01*
X45533546Y-54172022D01*
X45414269Y-54219059D01*
X45296243Y-54318951D01*
X45238335Y-54382217D01*
X45150150Y-54502202D01*
X45075283Y-54645076D01*
X45001366Y-54832368D01*
X44998000Y-54841907D01*
X44986084Y-54879372D01*
X44975704Y-54921641D01*
X44966710Y-54973492D01*
X44958954Y-55039704D01*
X44952286Y-55125057D01*
X44946556Y-55234327D01*
X44941614Y-55372296D01*
X44937312Y-55543741D01*
X44933498Y-55753442D01*
X44930025Y-56006177D01*
X44926742Y-56306726D01*
X44923501Y-56659867D01*
X44920150Y-57070378D01*
X44916541Y-57543040D01*
X44914433Y-57806261D01*
X44910304Y-58241336D01*
X44905680Y-58641144D01*
X44900637Y-59001726D01*
X44895253Y-59319126D01*
X44889605Y-59589384D01*
X44883772Y-59808544D01*
X44877832Y-59972647D01*
X44871861Y-60077736D01*
X44865938Y-60119852D01*
X44864399Y-60122229D01*
X44829063Y-60171801D01*
X44762805Y-60261309D01*
X44674525Y-60378823D01*
X44573118Y-60512415D01*
X44558862Y-60531157D01*
X44462456Y-60660824D01*
X44384010Y-60771305D01*
X44331265Y-60851410D01*
X44311963Y-60889948D01*
X44305749Y-60909079D01*
X44260802Y-60944747D01*
X44239193Y-60960682D01*
X44189489Y-61025857D01*
X44139137Y-61119147D01*
X44111083Y-61186107D01*
X44090405Y-61259760D01*
X44081294Y-61345409D01*
X44082013Y-61461266D01*
X44090826Y-61625539D01*
X44096874Y-61713109D01*
X44118492Y-61947319D01*
X44145414Y-62153044D01*
X44175991Y-62320675D01*
X44208572Y-62440605D01*
X44241509Y-62503226D01*
X44279673Y-62528898D01*
X44302202Y-62504239D01*
X44310366Y-62488832D01*
X44353119Y-62462408D01*
X44387399Y-62450263D01*
X44463475Y-62409171D01*
X44559487Y-62349077D01*
X44624761Y-62308195D01*
X44756669Y-62231889D01*
X44912664Y-62146641D01*
X45071251Y-62064408D01*
X45175168Y-62010905D01*
X45341132Y-61921092D01*
X45493200Y-61834089D01*
X45608137Y-61762943D01*
X45708306Y-61699623D01*
X45862943Y-61609599D01*
X46003395Y-61535343D01*
X46212138Y-61431630D01*
X46378603Y-61344715D01*
X46493094Y-61279061D01*
X46560511Y-61232000D01*
X46600063Y-61202660D01*
X46705584Y-61137131D01*
X46845913Y-61058972D01*
X47004517Y-60977239D01*
X47164862Y-60900987D01*
X47255925Y-60856367D01*
X47329189Y-60812965D01*
X47357286Y-60785560D01*
X47360966Y-60776941D01*
X47404976Y-60739782D01*
X47482780Y-60695130D01*
X47499207Y-60686945D01*
X47681242Y-60591220D01*
X47898198Y-60469803D01*
X48131360Y-60333139D01*
X48226698Y-60278622D01*
X48309668Y-60236409D01*
X48354461Y-60220247D01*
X48361875Y-60219703D01*
X48400281Y-60195148D01*
X48403014Y-60190461D01*
X48449934Y-60151370D01*
X48528627Y-60106046D01*
X48612107Y-60068545D01*
X48673386Y-60052922D01*
X48679758Y-60052416D01*
X48742625Y-60026763D01*
X48818816Y-59974275D01*
X48854423Y-59946674D01*
X48957565Y-59876393D01*
X49069040Y-59809472D01*
X49116122Y-59783075D01*
X49242993Y-59709700D01*
X49353493Y-59643151D01*
X49374404Y-59630507D01*
X49500092Y-59563225D01*
X49625083Y-59506824D01*
X49767848Y-59450662D01*
X49750040Y-61269616D01*
X49427462Y-61439332D01*
X49322734Y-61495342D01*
X49197456Y-61564918D01*
X49101766Y-61621084D01*
X49050640Y-61655260D01*
X49006801Y-61687983D01*
X48882715Y-61763924D01*
X48699151Y-61863363D01*
X48457776Y-61985374D01*
X48436220Y-61996078D01*
X48289390Y-62076054D01*
X48193491Y-62146595D01*
X48137216Y-62217917D01*
X48109258Y-62300234D01*
X48100950Y-62333781D01*
X48060629Y-62450276D01*
X47994703Y-62612404D01*
X47907657Y-62810950D01*
X47803972Y-63036694D01*
X47688131Y-63280419D01*
X47564617Y-63532907D01*
X47437912Y-63784941D01*
X47312500Y-64027302D01*
X47192862Y-64250773D01*
X47083482Y-64446136D01*
X46988841Y-64604173D01*
X46975460Y-64626193D01*
X46930738Y-64701835D01*
X46866820Y-64811207D01*
X46792778Y-64938824D01*
X46646549Y-65174990D01*
X46467520Y-65433405D01*
X46271719Y-65691018D01*
X46067422Y-65938247D01*
X45862904Y-66165509D01*
X45666441Y-66363223D01*
X45486308Y-66521805D01*
X45453173Y-66545213D01*
X45330782Y-66631674D01*
X45327018Y-66633859D01*
G37*
G36*
X48320982Y-64779422D02*
G01*
X48362016Y-64831874D01*
X48402719Y-64938729D01*
X48445856Y-65106150D01*
X48479946Y-65252351D01*
X48517528Y-65406588D01*
X48549120Y-65529614D01*
X48564858Y-65592929D01*
X48586859Y-65703706D01*
X48595494Y-65782296D01*
X48617338Y-65909356D01*
X48694972Y-66018894D01*
X48829750Y-66093951D01*
X48873624Y-66109989D01*
X48972303Y-66148946D01*
X49038452Y-66179024D01*
X49075084Y-66195165D01*
X49144502Y-66210498D01*
X49205083Y-66223970D01*
X49287183Y-66257600D01*
X49371361Y-66297622D01*
X49465586Y-66339100D01*
X49552528Y-66375000D01*
X49715427Y-66445355D01*
X49818222Y-66499511D01*
X49860000Y-66542393D01*
X49839846Y-66578924D01*
X49756846Y-66614026D01*
X49610088Y-66652623D01*
X49398656Y-66699637D01*
X49379063Y-66703884D01*
X49128546Y-66758864D01*
X48936064Y-66802898D01*
X48794511Y-66838024D01*
X48696783Y-66866285D01*
X48635775Y-66889719D01*
X48604380Y-66910367D01*
X48595494Y-66930269D01*
X48589005Y-66958813D01*
X48562202Y-67043272D01*
X48518263Y-67170409D01*
X48461119Y-67328918D01*
X48394704Y-67507492D01*
X48343858Y-67643533D01*
X48284137Y-67807054D01*
X48236626Y-67941547D01*
X48205245Y-68035860D01*
X48193913Y-68078836D01*
X48193877Y-68080583D01*
X48168598Y-68113098D01*
X48117853Y-68112481D01*
X48073208Y-68078755D01*
X48070657Y-68074222D01*
X48047351Y-68010497D01*
X48024758Y-67919796D01*
X47995363Y-67778861D01*
X47944531Y-67552702D01*
X47892739Y-67341010D01*
X47842775Y-67154023D01*
X47797426Y-67001981D01*
X47759481Y-66895121D01*
X47731728Y-66843682D01*
X47725229Y-66838590D01*
X47661044Y-66805319D01*
X47549668Y-66758964D01*
X47404804Y-66704961D01*
X47240158Y-66648744D01*
X47218004Y-66641478D01*
X47043438Y-66582221D01*
X46880795Y-66523825D01*
X46747391Y-66472670D01*
X46660542Y-66435138D01*
X46647675Y-66428702D01*
X46590402Y-66396408D01*
X46558823Y-66367359D01*
X46557886Y-66339306D01*
X46592541Y-66310000D01*
X46667737Y-66277193D01*
X46788423Y-66238634D01*
X46959547Y-66192075D01*
X47186059Y-66135267D01*
X47472906Y-66065961D01*
X47570939Y-66040708D01*
X47697768Y-66001991D01*
X47789365Y-65966433D01*
X47830606Y-65939384D01*
X47833630Y-65933176D01*
X47859546Y-65870027D01*
X47898593Y-65766495D01*
X47943558Y-65641591D01*
X47951640Y-65618709D01*
X47997205Y-65491890D01*
X48036245Y-65386593D01*
X48061051Y-65323673D01*
X48070389Y-65300839D01*
X48102976Y-65212250D01*
X48138861Y-65106150D01*
X48166661Y-65023789D01*
X48218809Y-64889559D01*
X48263171Y-64802496D01*
X48295582Y-64771499D01*
X48320982Y-64779422D01*
G37*
%TD*%
M02*
