%TF.GenerationSoftware,KiCad,Pcbnew,6.0.2*%
%TF.CreationDate,2022-02-14T22:33:10-06:00*%
%TF.ProjectId,ALTIMETER_HOLDER,414c5449-4d45-4544-9552-5f484f4c4445,rev?*%
%TF.SameCoordinates,Original*%
%TF.FileFunction,Soldermask,Bot*%
%TF.FilePolarity,Negative*%
%FSLAX46Y46*%
G04 Gerber Fmt 4.6, Leading zero omitted, Abs format (unit mm)*
G04 Created by KiCad (PCBNEW 6.0.2) date 2022-02-14 22:33:10*
%MOMM*%
%LPD*%
G01*
G04 APERTURE LIST*
G04 Aperture macros list*
%AMRoundRect*
0 Rectangle with rounded corners*
0 $1 Rounding radius*
0 $2 $3 $4 $5 $6 $7 $8 $9 X,Y pos of 4 corners*
0 Add a 4 corners polygon primitive as box body*
4,1,4,$2,$3,$4,$5,$6,$7,$8,$9,$2,$3,0*
0 Add four circle primitives for the rounded corners*
1,1,$1+$1,$2,$3*
1,1,$1+$1,$4,$5*
1,1,$1+$1,$6,$7*
1,1,$1+$1,$8,$9*
0 Add four rect primitives between the rounded corners*
20,1,$1+$1,$2,$3,$4,$5,0*
20,1,$1+$1,$4,$5,$6,$7,0*
20,1,$1+$1,$6,$7,$8,$9,0*
20,1,$1+$1,$8,$9,$2,$3,0*%
G04 Aperture macros list end*
%ADD10RoundRect,0.250000X-0.350000X-0.625000X0.350000X-0.625000X0.350000X0.625000X-0.350000X0.625000X0*%
%ADD11O,1.200000X1.750000*%
%ADD12C,0.800000*%
%ADD13C,6.400000*%
%ADD14C,1.660000*%
%ADD15C,3.600000*%
%ADD16C,5.700000*%
G04 APERTURE END LIST*
D10*
%TO.C,J3*%
X28400000Y-4250000D03*
D11*
X30400000Y-4250000D03*
%TD*%
D12*
%TO.C,REF\u002A\u002A*%
X58190000Y-3500000D03*
D13*
X55790000Y-3500000D03*
D12*
X57487056Y-1802944D03*
X55790000Y-1100000D03*
X53390000Y-3500000D03*
X54092944Y-1802944D03*
X57487056Y-5197056D03*
X55790000Y-5900000D03*
X54092944Y-5197056D03*
%TD*%
D14*
%TO.C,A2*%
X4162000Y-39918000D03*
X4162000Y-43220000D03*
X4162000Y-46522000D03*
X4162000Y-49824000D03*
X28538000Y-39918000D03*
X28538000Y-43220000D03*
X28538000Y-46522000D03*
X28538000Y-49824000D03*
D15*
X24605000Y-12740000D03*
D16*
X24605000Y-58460000D03*
D15*
X8095000Y-58460000D03*
D16*
X8095000Y-58460000D03*
X8095000Y-12740000D03*
D15*
X24605000Y-58460000D03*
D16*
X24605000Y-12740000D03*
D15*
X8095000Y-12740000D03*
%TD*%
D10*
%TO.C,J1*%
X12400000Y-4250000D03*
D11*
X14400000Y-4250000D03*
%TD*%
D10*
%TO.C,J2*%
X20400000Y-4250000D03*
D11*
X22400000Y-4250000D03*
%TD*%
D12*
%TO.C,REF\u002A\u002A*%
X3500000Y-5900000D03*
X5197056Y-5197056D03*
X5197056Y-1802944D03*
X1802944Y-1802944D03*
D13*
X3500000Y-3500000D03*
D12*
X5900000Y-3500000D03*
X1802944Y-5197056D03*
X3500000Y-1100000D03*
X1100000Y-3500000D03*
%TD*%
D14*
%TO.C,A1*%
X31400000Y-61140900D03*
X31400000Y-64315900D03*
X38162500Y-81975000D03*
X41337500Y-81975000D03*
X44512500Y-81975000D03*
X47687500Y-81975000D03*
X50862500Y-81975000D03*
X54037500Y-81975000D03*
D15*
X36575000Y-70475400D03*
D16*
X36575000Y-70475400D03*
D15*
X55625000Y-13325400D03*
D16*
X55625000Y-13325400D03*
D15*
X55625000Y-70475400D03*
D16*
X36575000Y-13325400D03*
D15*
X36575000Y-13325400D03*
D16*
X55625000Y-70475400D03*
%TD*%
D12*
%TO.C,REF\u002A\u002A*%
X1792944Y-87312944D03*
X5890000Y-89010000D03*
X1792944Y-90707056D03*
X3490000Y-91410000D03*
X1090000Y-89010000D03*
X5187056Y-87312944D03*
X5187056Y-90707056D03*
X3490000Y-86610000D03*
D13*
X3490000Y-89010000D03*
%TD*%
D12*
%TO.C,REF\u002A\u002A*%
X54092944Y-87302944D03*
X58190000Y-89000000D03*
X53390000Y-89000000D03*
X57487056Y-87302944D03*
D13*
X55790000Y-89000000D03*
D12*
X54092944Y-90697056D03*
X57487056Y-90697056D03*
X55790000Y-91400000D03*
X55790000Y-86600000D03*
%TD*%
M02*
