M48
; DRILL file {KiCad 6.0.1} date Thu Feb 10 21:50:40 2022
; FORMAT={-:-/ absolute / inch / decimal}
; #@! TF.CreationDate,2022-02-10T21:50:40-06:00
; #@! TF.GenerationSoftware,Kicad,Pcbnew,6.0.1
; #@! TF.FileFunction,Plated,1,2,PTH
FMAT,2
INCH
; #@! TA.AperFunction,Plated,PTH,ViaDrill
T1C0.0157
; #@! TA.AperFunction,Plated,PTH,ComponentDrill
T2C0.0300
; #@! TA.AperFunction,Plated,PTH,ComponentDrill
T3C0.0394
%
G90
G05
T1
X3.6237Y-3.6268
X3.643Y-4.202
X3.6476Y-3.5
X3.656Y-4.69
X3.6577Y-4.2917
X3.663Y-3.6285
X3.673Y-4.438
X3.682Y-4.499
X3.701Y-4.191
X3.7028Y-3.8583
X3.7355Y-4.246
X3.744Y-3.55
X3.764Y-4.291
X3.783Y-3.451
X3.814Y-4.338
X3.947Y-4.055
X3.958Y-4.435
X3.981Y-3.628
X4.03Y-4.157
X4.038Y-3.955
X4.074Y-4.329
X4.0984Y-4.4034
X4.1122Y-3.8976
X4.16Y-4.256
X4.22Y-3.572
X4.266Y-4.135
X4.2835Y-4.2638
X4.2854Y-3.9055
X4.288Y-3.709
X4.315Y-4.3957
X4.367Y-4.048
X4.377Y-4.147
X4.3917Y-3.8917
X4.4154Y-4.3957
X4.456Y-3.946
X4.479Y-4.033
X4.498Y-3.068
X4.544Y-5.15
X4.659Y-5.082
X4.6673Y-4.3937
X4.771Y-4.968
X4.863Y-4.774
T2
X3.8577Y-3.8927
X3.8593Y-3.9929
X3.8593Y-4.0929
X3.8593Y-4.1929
X3.8593Y-4.3922
X3.8593Y-4.4925
X3.8593Y-4.5927
X3.8606Y-4.2929
X3.9606Y-3.7929
X3.9606Y-4.6929
X4.0606Y-3.7929
X4.0606Y-4.6929
X4.16Y-3.7925
X4.16Y-4.6929
X4.2602Y-3.7925
X4.2602Y-4.6929
X4.3604Y-3.7925
X4.3604Y-4.6929
X4.4606Y-3.7925
X4.4606Y-4.6929
X4.5593Y-3.7925
X4.5593Y-4.6929
X4.6595Y-3.7925
X4.6595Y-4.6929
X4.7597Y-3.7925
X4.7606Y-4.6929
X4.86Y-3.7925
X4.8606Y-4.6929
X4.9602Y-3.899
X4.9602Y-3.9929
X4.9602Y-4.0916
X4.9602Y-4.1918
X4.9602Y-4.292
X4.9602Y-4.3922
X4.9602Y-4.5927
X4.9606Y-4.4929
T3
X3.4291Y-3.057
X3.4291Y-3.157
X3.4291Y-3.257
X3.4291Y-3.357
X3.4291Y-3.457
X3.4291Y-3.557
X3.4291Y-3.657
X3.4291Y-3.757
X3.4291Y-3.857
X3.4291Y-3.957
X3.4291Y-4.057
X3.4291Y-4.157
X3.4291Y-4.257
X3.4291Y-4.357
X3.4291Y-4.457
X3.4291Y-4.557
X3.4291Y-4.657
X3.4291Y-4.757
X3.4291Y-4.857
X3.4291Y-4.957
X3.4291Y-5.057
X3.4291Y-5.157
X3.4291Y-5.257
X3.4291Y-5.357
T0
M30
