%TF.GenerationSoftware,KiCad,Pcbnew,6.0.1*%
%TF.CreationDate,2022-02-10T21:50:42-06:00*%
%TF.ProjectId,SENSOR_BREADBOARD_8X10,53454e53-4f52-45f4-9252-454144424f41,rev?*%
%TF.SameCoordinates,Original*%
%TF.FileFunction,Soldermask,Top*%
%TF.FilePolarity,Negative*%
%FSLAX46Y46*%
G04 Gerber Fmt 4.6, Leading zero omitted, Abs format (unit mm)*
G04 Created by KiCad (PCBNEW 6.0.1) date 2022-02-10 21:50:42*
%MOMM*%
%LPD*%
G01*
G04 APERTURE LIST*
%ADD10C,1.524000*%
%ADD11R,1.700000X1.700000*%
%ADD12O,1.700000X1.700000*%
G04 APERTURE END LIST*
D10*
%TO.C,U1*%
X100600000Y-119200000D03*
X103140000Y-119200000D03*
X105663002Y-119199888D03*
X108208668Y-119199888D03*
X110754334Y-119199888D03*
X113300000Y-119199888D03*
X115805890Y-119199888D03*
X118351556Y-119199888D03*
X120920000Y-119200000D03*
X123460000Y-119200000D03*
X125988555Y-116654221D03*
X126000000Y-114120000D03*
X125988555Y-111562889D03*
X125988555Y-109017222D03*
X125988555Y-106471556D03*
X125988555Y-103925890D03*
X125988555Y-101420000D03*
X125988555Y-99033438D03*
X123442889Y-96328668D03*
X120897222Y-96328668D03*
X118351556Y-96328668D03*
X115805890Y-96328668D03*
X113300000Y-96328668D03*
X110754334Y-96328668D03*
X108208668Y-96328668D03*
X105663002Y-96328668D03*
X103140000Y-96340000D03*
X100600000Y-96340000D03*
X97986227Y-98874334D03*
X98026003Y-101420000D03*
X98026003Y-103960000D03*
X98026003Y-106500000D03*
X98060000Y-109040000D03*
X98026003Y-111562889D03*
X98026003Y-114108555D03*
X98026003Y-116654221D03*
%TD*%
D11*
%TO.C,J1*%
X87100000Y-77647800D03*
D12*
X87100000Y-80187800D03*
X87100000Y-82727800D03*
X87100000Y-85267800D03*
X87100000Y-87807800D03*
X87100000Y-90347800D03*
X87100000Y-92887800D03*
X87100000Y-95427800D03*
X87100000Y-97967800D03*
X87100000Y-100507800D03*
X87100000Y-103047800D03*
X87100000Y-105587800D03*
X87100000Y-108127800D03*
X87100000Y-110667800D03*
X87100000Y-113207800D03*
X87100000Y-115747800D03*
X87100000Y-118287800D03*
X87100000Y-120827800D03*
X87100000Y-123367800D03*
X87100000Y-125907800D03*
X87100000Y-128447800D03*
X87100000Y-130987800D03*
X87100000Y-133527800D03*
X87100000Y-136067800D03*
%TD*%
M02*
