M48
; DRILL file {KiCad 6.0.1} date Thu Feb 10 21:42:35 2022
; FORMAT={-:-/ absolute / inch / decimal}
; #@! TF.CreationDate,2022-02-10T21:42:35-06:00
; #@! TF.GenerationSoftware,Kicad,Pcbnew,6.0.1
; #@! TF.FileFunction,Plated,1,2,PTH
FMAT,2
INCH
; #@! TA.AperFunction,Plated,PTH,ViaDrill
T1C0.0079
; #@! TA.AperFunction,Plated,PTH,ComponentDrill
T2C0.0300
%
G90
G05
T1
X5.3457Y-3.7606
X5.3819Y-3.1575
X5.3878Y-3.3091
X5.3878Y-3.748
X5.4134Y-3.2677
X5.4134Y-3.4492
X5.4232Y-3.5098
X5.4232Y-3.7283
X5.4343Y-2.9831
X5.435Y-3.3543
X5.4567Y-3.128
X5.4654Y-3.3217
X5.4732Y-3.2311
X5.4764Y-3.4114
X5.4841Y-3.581
X5.4843Y-3.1575
X5.4843Y-3.5472
X5.4956Y-3.6579
X5.5039Y-3.5197
X5.5098Y-3.002
X5.5453Y-3.7264
X5.5492Y-3.2864
X5.5497Y-3.1275
X5.563Y-3.4724
X5.5784Y-3.7267
X5.5959Y-3.4888
X5.6142Y-3.4665
X5.6437Y-3.7224
X5.6548Y-3.6549
X5.6555Y-2.9744
X5.6634Y-3.4626
X5.6929Y-3.2677
X5.6969Y-3.6919
X5.711Y-3.211
X5.7264Y-3.3543
X5.7331Y-3.3913
X5.7343Y-3.2874
X5.7362Y-3.6732
X5.7453Y-3.7878
X5.7717Y-3.1772
X5.8189Y-3.5728
X5.876Y-3.7333
X5.9035Y-3.3256
X5.9232Y-3.5094
X5.9243Y-3.4167
X5.9291Y-3.6378
X5.9331Y-3.1673
X5.9331Y-3.6693
X5.9363Y-3.3479
X5.9469Y-3.3268
X5.9567Y-3.3671
X5.9575Y-3.6303
X5.9614Y-3.7815
X5.9626Y-3.4134
X5.9626Y-3.5295
X5.9626Y-3.5728
X5.9709Y-3.0504
X5.9724Y-3.4724
X5.976Y-3.7319
X5.9783Y-3.3071
X5.9862Y-3.5728
X5.9941Y-3.2854
X5.9961Y-3.4724
X6.0059Y-3.752
X6.0123Y-3.7165
X6.0276Y-3.002
X6.0335Y-3.5728
X6.0358Y-3.5299
X6.039Y-3.4528
X6.0669Y-3.5728
X6.0669Y-3.7185
X6.0798Y-3.5138
X6.0807Y-3.4803
X6.0886Y-3.3878
X6.0906Y-3.435
X6.0906Y-3.5807
X6.1102Y-3.3455
X6.1142Y-3.6949
X6.128Y-3.4134
X6.1339Y-3.3268
X6.1508Y-3.0291
X6.1575Y-3.2854
X6.1752Y-2.9705
X6.1961Y-3.387
X6.2067Y-3.3071
X6.2244Y-3.4311
X6.2539Y-3.3268
X6.2549Y-3.0994
X6.3028Y-3.5945
X6.3169Y-3.6339
X6.3228Y-3.4882
X6.3268Y-3.1205
X6.3307Y-3.3642
X6.3315Y-3.2902
T2
X5.304Y-3.0098
X5.3056Y-3.11
X5.3056Y-3.21
X5.3056Y-3.31
X5.3056Y-3.5094
X5.3056Y-3.6096
X5.3056Y-3.7098
X5.3069Y-3.41
X5.4069Y-2.91
X5.4069Y-3.81
X5.5069Y-2.91
X5.5069Y-3.81
X5.6062Y-2.9096
X5.6062Y-3.81
X5.7064Y-2.9096
X5.7064Y-3.81
X5.8067Y-2.9096
X5.8067Y-3.81
X5.9069Y-2.9096
X5.9069Y-3.81
X6.0055Y-2.9096
X6.0055Y-3.81
X6.1058Y-2.9096
X6.1058Y-3.81
X6.206Y-2.9096
X6.2069Y-3.81
X6.3062Y-2.9096
X6.3069Y-3.81
X6.4064Y-3.0161
X6.4064Y-3.11
X6.4064Y-3.2087
X6.4064Y-3.3089
X6.4064Y-3.4091
X6.4064Y-3.5094
X6.4064Y-3.7098
X6.4069Y-3.61
T0
M30
