%TF.GenerationSoftware,KiCad,Pcbnew,6.0.1*%
%TF.CreationDate,2022-02-10T21:42:36-06:00*%
%TF.ProjectId,SENSOR_SUITE,53454e53-4f52-45f5-9355-4954452e6b69,rev?*%
%TF.SameCoordinates,Original*%
%TF.FileFunction,Paste,Top*%
%TF.FilePolarity,Positive*%
%FSLAX46Y46*%
G04 Gerber Fmt 4.6, Leading zero omitted, Abs format (unit mm)*
G04 Created by KiCad (PCBNEW 6.0.1) date 2022-02-10 21:42:36*
%MOMM*%
%LPD*%
G01*
G04 APERTURE LIST*
G04 Aperture macros list*
%AMRoundRect*
0 Rectangle with rounded corners*
0 $1 Rounding radius*
0 $2 $3 $4 $5 $6 $7 $8 $9 X,Y pos of 4 corners*
0 Add a 4 corners polygon primitive as box body*
4,1,4,$2,$3,$4,$5,$6,$7,$8,$9,$2,$3,0*
0 Add four circle primitives for the rounded corners*
1,1,$1+$1,$2,$3*
1,1,$1+$1,$4,$5*
1,1,$1+$1,$6,$7*
1,1,$1+$1,$8,$9*
0 Add four rect primitives between the rounded corners*
20,1,$1+$1,$2,$3,$4,$5,0*
20,1,$1+$1,$4,$5,$6,$7,0*
20,1,$1+$1,$6,$7,$8,$9,0*
20,1,$1+$1,$8,$9,$2,$3,0*%
G04 Aperture macros list end*
%ADD10R,0.230000X0.350000*%
%ADD11R,0.350000X0.230000*%
%ADD12R,0.550000X0.950000*%
%ADD13RoundRect,0.087500X0.087500X-0.187500X0.087500X0.187500X-0.087500X0.187500X-0.087500X-0.187500X0*%
%ADD14RoundRect,0.087500X0.187500X-0.087500X0.187500X0.087500X-0.187500X0.087500X-0.187500X-0.087500X0*%
%ADD15C,0.270000*%
%ADD16R,0.375000X0.350000*%
%ADD17R,0.350000X0.375000*%
G04 APERTURE END LIST*
%TO.C,X8001*%
G36*
X156981600Y-91682600D02*
G01*
X156219600Y-91682600D01*
X156219600Y-90717400D01*
X156981600Y-90717400D01*
X156981600Y-91682600D01*
G37*
G36*
X159191400Y-90211000D02*
G01*
X157057800Y-90211000D01*
X157057800Y-89398200D01*
X159191400Y-89398200D01*
X159191400Y-90211000D01*
G37*
G36*
X159191400Y-93001800D02*
G01*
X157057800Y-93001800D01*
X157057800Y-92189000D01*
X159191400Y-92189000D01*
X159191400Y-93001800D01*
G37*
%TD*%
D10*
%TO.C,U101*%
X140845000Y-89525000D03*
D11*
X140875000Y-90105000D03*
X140875000Y-90535000D03*
X140875000Y-90965000D03*
X140875000Y-91395000D03*
D10*
X140845000Y-91975000D03*
X141275000Y-91975000D03*
X141705000Y-91975000D03*
X142135000Y-91975000D03*
X142565000Y-91975000D03*
X142995000Y-91975000D03*
X143425000Y-91975000D03*
X143855000Y-91975000D03*
D11*
X143825000Y-91395000D03*
X143825000Y-90965000D03*
X143825000Y-90535000D03*
X143825000Y-90105000D03*
D10*
X143855000Y-89525000D03*
X143425000Y-89525000D03*
X142995000Y-89525000D03*
X142565000Y-89525000D03*
X142135000Y-89525000D03*
X141705000Y-89525000D03*
X141275000Y-89525000D03*
%TD*%
D12*
%TO.C,U102*%
X158875000Y-79775000D03*
X157625000Y-79775000D03*
X156375000Y-79775000D03*
X155125000Y-79775000D03*
X155125000Y-81925000D03*
X156375000Y-81925000D03*
X157625000Y-81925000D03*
X158875000Y-81925000D03*
%TD*%
D13*
%TO.C,U103*%
X147500000Y-80225000D03*
X148000000Y-80225000D03*
X148500000Y-80225000D03*
X149000000Y-80225000D03*
X149500000Y-80225000D03*
D14*
X149725000Y-79500000D03*
X149725000Y-79000000D03*
X149725000Y-78500000D03*
D13*
X149500000Y-77775000D03*
X149000000Y-77775000D03*
X148500000Y-77775000D03*
X148000000Y-77775000D03*
X147500000Y-77775000D03*
D14*
X147275000Y-78500000D03*
X147275000Y-79000000D03*
X147275000Y-79500000D03*
%TD*%
D15*
%TO.C,U8001*%
X149950000Y-88200000D03*
X149950000Y-86200000D03*
X150450000Y-86200000D03*
X150950000Y-86200000D03*
X151450000Y-86200000D03*
X151950000Y-86200000D03*
X152450000Y-86200000D03*
X152950000Y-86200000D03*
X153450000Y-86200000D03*
X153950000Y-86200000D03*
X149950000Y-86700000D03*
X153950000Y-86700000D03*
X149950000Y-87200000D03*
X150950000Y-87200000D03*
X151450000Y-87200000D03*
X151950000Y-87200000D03*
X152450000Y-87200000D03*
X152950000Y-87200000D03*
X153950000Y-87200000D03*
X149950000Y-87700000D03*
X150950000Y-87700000D03*
X151450000Y-87700000D03*
X152450000Y-87700000D03*
X153950000Y-87700000D03*
X150950000Y-88200000D03*
X152950000Y-88200000D03*
X153950000Y-88200000D03*
X149950000Y-88700000D03*
X150950000Y-88700000D03*
X151450000Y-88700000D03*
X152450000Y-88700000D03*
X152950000Y-88700000D03*
X153950000Y-88700000D03*
X149950000Y-89200000D03*
X150950000Y-89200000D03*
X151450000Y-89200000D03*
X151950000Y-89200000D03*
X152450000Y-89200000D03*
X152950000Y-89200000D03*
X153950000Y-89200000D03*
X149950000Y-89700000D03*
X153950000Y-89700000D03*
X149950000Y-90200000D03*
X150450000Y-90200000D03*
X150950000Y-90200000D03*
X151450000Y-90200000D03*
X151950000Y-90200000D03*
X152450000Y-90200000D03*
X152950000Y-90200000D03*
X153450000Y-90200000D03*
X153950000Y-90200000D03*
%TD*%
D16*
%TO.C,U104*%
X139437500Y-77150000D03*
X139437500Y-77650000D03*
X139437500Y-78150000D03*
X139437500Y-78650000D03*
D17*
X139950000Y-78662500D03*
X140450000Y-78662500D03*
D16*
X140962500Y-78650000D03*
X140962500Y-78150000D03*
X140962500Y-77650000D03*
X140962500Y-77150000D03*
D17*
X140450000Y-77137500D03*
X139950000Y-77137500D03*
%TD*%
M02*
