%TF.GenerationSoftware,KiCad,Pcbnew,6.0.1*%
%TF.CreationDate,2022-02-10T21:42:37-06:00*%
%TF.ProjectId,SENSOR_SUITE,53454e53-4f52-45f5-9355-4954452e6b69,rev?*%
%TF.SameCoordinates,Original*%
%TF.FileFunction,Soldermask,Bot*%
%TF.FilePolarity,Negative*%
%FSLAX46Y46*%
G04 Gerber Fmt 4.6, Leading zero omitted, Abs format (unit mm)*
G04 Created by KiCad (PCBNEW 6.0.1) date 2022-02-10 21:42:37*
%MOMM*%
%LPD*%
G01*
G04 APERTURE LIST*
G04 Aperture macros list*
%AMRoundRect*
0 Rectangle with rounded corners*
0 $1 Rounding radius*
0 $2 $3 $4 $5 $6 $7 $8 $9 X,Y pos of 4 corners*
0 Add a 4 corners polygon primitive as box body*
4,1,4,$2,$3,$4,$5,$6,$7,$8,$9,$2,$3,0*
0 Add four circle primitives for the rounded corners*
1,1,$1+$1,$2,$3*
1,1,$1+$1,$4,$5*
1,1,$1+$1,$6,$7*
1,1,$1+$1,$8,$9*
0 Add four rect primitives between the rounded corners*
20,1,$1+$1,$2,$3,$4,$5,0*
20,1,$1+$1,$4,$5,$6,$7,0*
20,1,$1+$1,$6,$7,$8,$9,0*
20,1,$1+$1,$8,$9,$2,$3,0*%
G04 Aperture macros list end*
%ADD10C,1.524000*%
%ADD11RoundRect,0.050800X-2.032000X0.762000X-2.032000X-0.762000X2.032000X-0.762000X2.032000X0.762000X0*%
%ADD12RoundRect,0.250000X-0.250000X-0.475000X0.250000X-0.475000X0.250000X0.475000X-0.250000X0.475000X0*%
%ADD13RoundRect,0.250000X0.475000X-0.250000X0.475000X0.250000X-0.475000X0.250000X-0.475000X-0.250000X0*%
%ADD14RoundRect,0.250000X-0.475000X0.250000X-0.475000X-0.250000X0.475000X-0.250000X0.475000X0.250000X0*%
G04 APERTURE END LIST*
D10*
%TO.C,U1*%
X137335000Y-96775000D03*
X139875000Y-96775000D03*
X142398002Y-96774888D03*
X144943668Y-96774888D03*
X147489334Y-96774888D03*
X150035000Y-96774888D03*
X152540890Y-96774888D03*
X155086556Y-96774888D03*
X157655000Y-96775000D03*
X160195000Y-96775000D03*
X162723555Y-94229221D03*
X162735000Y-91695000D03*
X162723555Y-89137889D03*
X162723555Y-86592222D03*
X162723555Y-84046556D03*
X162723555Y-81500890D03*
X162723555Y-78995000D03*
X162723555Y-76608438D03*
X160177889Y-73903668D03*
X157632222Y-73903668D03*
X155086556Y-73903668D03*
X152540890Y-73903668D03*
X150035000Y-73903668D03*
X147489334Y-73903668D03*
X144943668Y-73903668D03*
X142398002Y-73903668D03*
X139875000Y-73915000D03*
X137335000Y-73915000D03*
X134721227Y-76449334D03*
X134761003Y-78995000D03*
X134761003Y-81535000D03*
X134761003Y-84075000D03*
X134795000Y-86615000D03*
X134761003Y-89137889D03*
X134761003Y-91683555D03*
X134761003Y-94229221D03*
%TD*%
D11*
%TO.C,X8001*%
X158150000Y-93740000D03*
X158150000Y-88660000D03*
%TD*%
D12*
%TO.C,C101*%
X142600000Y-86400000D03*
X144500000Y-86400000D03*
%TD*%
%TO.C,C104*%
X146550000Y-86950000D03*
X148450000Y-86950000D03*
%TD*%
D13*
%TO.C,C106*%
X156450000Y-80650000D03*
X156450000Y-78750000D03*
%TD*%
D12*
%TO.C,C302*%
X149850000Y-81850000D03*
X151750000Y-81850000D03*
%TD*%
D13*
%TO.C,C108*%
X143300000Y-79150000D03*
X143300000Y-77250000D03*
%TD*%
D12*
%TO.C,C102*%
X141350000Y-90500000D03*
X143250000Y-90500000D03*
%TD*%
%TO.C,C103*%
X146600000Y-84850000D03*
X148500000Y-84850000D03*
%TD*%
D13*
%TO.C,C107*%
X145350000Y-79150000D03*
X145350000Y-77250000D03*
%TD*%
D12*
%TO.C,C301*%
X149850000Y-79650000D03*
X151750000Y-79650000D03*
%TD*%
D14*
%TO.C,C105*%
X145950000Y-89850000D03*
X145950000Y-91750000D03*
%TD*%
M02*
