%TF.GenerationSoftware,KiCad,Pcbnew,5.1.9-73d0e3b20d~88~ubuntu20.04.1*%
%TF.CreationDate,2021-04-18T23:10:18-05:00*%
%TF.ProjectId,COTS,434f5453-2e6b-4696-9361-645f70636258,rev?*%
%TF.SameCoordinates,Original*%
%TF.FileFunction,Soldermask,Top*%
%TF.FilePolarity,Negative*%
%FSLAX46Y46*%
G04 Gerber Fmt 4.6, Leading zero omitted, Abs format (unit mm)*
G04 Created by KiCad (PCBNEW 5.1.9-73d0e3b20d~88~ubuntu20.04.1) date 2021-04-18 23:10:18*
%MOMM*%
%LPD*%
G01*
G04 APERTURE LIST*
%ADD10C,0.150000*%
%ADD11C,0.100000*%
%ADD12C,3.600000*%
%ADD13C,5.700000*%
%ADD14C,1.660000*%
%ADD15R,3.000000X1.000000*%
%ADD16R,4.000000X1.800000*%
%ADD17R,1.800000X4.000000*%
%ADD18R,1.000000X3.000000*%
%ADD19C,6.400000*%
%ADD20C,0.800000*%
%ADD21O,1.200000X1.750000*%
G04 APERTURE END LIST*
D10*
X164400000Y-40600000D02*
G75*
G02*
X166000000Y-39000000I1600000J0D01*
G01*
X165900000Y-42100000D02*
G75*
G02*
X167500000Y-40500000I1600000J0D01*
G01*
X232750000Y-198300000D02*
G75*
G02*
X231150000Y-199900000I-1600000J0D01*
G01*
G36*
X234222400Y-199800000D02*
G01*
X232722400Y-199800000D01*
X232750000Y-40600000D01*
X234250000Y-40600000D01*
X234222400Y-199800000D01*
G37*
X234222400Y-199800000D02*
X232722400Y-199800000D01*
X232750000Y-40600000D01*
X234250000Y-40600000D01*
X234222400Y-199800000D01*
X166000000Y-201400000D02*
G75*
G02*
X164400000Y-199800000I0J1600000D01*
G01*
G36*
X234250000Y-199800000D02*
G01*
X234150000Y-200200000D01*
X233950000Y-200600000D01*
X233650000Y-201000000D01*
X233050000Y-201300000D01*
X232650000Y-201400000D01*
X231250000Y-201400000D01*
X231250000Y-199900000D01*
X231750000Y-199800000D01*
X232150000Y-199600000D01*
X232450000Y-199300000D01*
X232650000Y-198900000D01*
X232750000Y-198300000D01*
X234250000Y-198300000D01*
X234250000Y-199800000D01*
G37*
X234250000Y-199800000D02*
X234150000Y-200200000D01*
X233950000Y-200600000D01*
X233650000Y-201000000D01*
X233050000Y-201300000D01*
X232650000Y-201400000D01*
X231250000Y-201400000D01*
X231250000Y-199900000D01*
X231750000Y-199800000D01*
X232150000Y-199600000D01*
X232450000Y-199300000D01*
X232650000Y-198900000D01*
X232750000Y-198300000D01*
X234250000Y-198300000D01*
X234250000Y-199800000D01*
X234250000Y-199800000D02*
G75*
G02*
X232650000Y-201400000I-1600000J0D01*
G01*
X232750000Y-42100000D02*
G75*
G03*
X231150000Y-40500000I-1600000J0D01*
G01*
G36*
X165900000Y-199800000D02*
G01*
X164400000Y-199800000D01*
X164400000Y-40600000D01*
X165900000Y-40600000D01*
X165900000Y-199800000D01*
G37*
X165900000Y-199800000D02*
X164400000Y-199800000D01*
X164400000Y-40600000D01*
X165900000Y-40600000D01*
X165900000Y-199800000D01*
G36*
X167400000Y-40500000D02*
G01*
X166900000Y-40600000D01*
X166500000Y-40800000D01*
X166200000Y-41100000D01*
X166000000Y-41500000D01*
X165900000Y-42100000D01*
X164400000Y-42100000D01*
X164400000Y-40600000D01*
X164500000Y-40200000D01*
X164700000Y-39800000D01*
X165000000Y-39400000D01*
X165600000Y-39100000D01*
X166000000Y-39000000D01*
X167400000Y-39000000D01*
X167400000Y-40500000D01*
G37*
X167400000Y-40500000D02*
X166900000Y-40600000D01*
X166500000Y-40800000D01*
X166200000Y-41100000D01*
X166000000Y-41500000D01*
X165900000Y-42100000D01*
X164400000Y-42100000D01*
X164400000Y-40600000D01*
X164500000Y-40200000D01*
X164700000Y-39800000D01*
X165000000Y-39400000D01*
X165600000Y-39100000D01*
X166000000Y-39000000D01*
X167400000Y-39000000D01*
X167400000Y-40500000D01*
D11*
G36*
X233050000Y-39100000D02*
G01*
X233650000Y-39400000D01*
X233950000Y-39800000D01*
X234150000Y-40200000D01*
X234250000Y-40600000D01*
X234250000Y-42100000D01*
X232750000Y-42100000D01*
X232650000Y-41500000D01*
X232450000Y-41100000D01*
X232150000Y-40800000D01*
X231750000Y-40600000D01*
X231250000Y-40500000D01*
X231250000Y-39000000D01*
X232650000Y-39000000D01*
X233050000Y-39100000D01*
G37*
X233050000Y-39100000D02*
X233650000Y-39400000D01*
X233950000Y-39800000D01*
X234150000Y-40200000D01*
X234250000Y-40600000D01*
X234250000Y-42100000D01*
X232750000Y-42100000D01*
X232650000Y-41500000D01*
X232450000Y-41100000D01*
X232150000Y-40800000D01*
X231750000Y-40600000D01*
X231250000Y-40500000D01*
X231250000Y-39000000D01*
X232650000Y-39000000D01*
X233050000Y-39100000D01*
D10*
X234250000Y-40600000D02*
G75*
G03*
X232650000Y-39000000I-1600000J0D01*
G01*
G36*
X232700000Y-40500000D02*
G01*
X166000000Y-40500000D01*
X166000000Y-39000000D01*
X232700000Y-39000000D01*
X232700000Y-40500000D01*
G37*
X232700000Y-40500000D02*
X166000000Y-40500000D01*
X166000000Y-39000000D01*
X232700000Y-39000000D01*
X232700000Y-40500000D01*
G36*
X166000000Y-198900000D02*
G01*
X166200000Y-199300000D01*
X166500000Y-199600000D01*
X166900000Y-199800000D01*
X167500000Y-199900000D01*
X167500000Y-201400000D01*
X166000000Y-201400000D01*
X165600000Y-201300000D01*
X165200000Y-201100000D01*
X164800000Y-200800000D01*
X164500000Y-200200000D01*
X164400000Y-199800000D01*
X164400000Y-198400000D01*
X165900000Y-198400000D01*
X166000000Y-198900000D01*
G37*
X166000000Y-198900000D02*
X166200000Y-199300000D01*
X166500000Y-199600000D01*
X166900000Y-199800000D01*
X167500000Y-199900000D01*
X167500000Y-201400000D01*
X166000000Y-201400000D01*
X165600000Y-201300000D01*
X165200000Y-201100000D01*
X164800000Y-200800000D01*
X164500000Y-200200000D01*
X164400000Y-199800000D01*
X164400000Y-198400000D01*
X165900000Y-198400000D01*
X166000000Y-198900000D01*
X167500000Y-199900000D02*
G75*
G02*
X165900000Y-198300000I0J1600000D01*
G01*
G36*
X232700000Y-201400000D02*
G01*
X167500000Y-201400000D01*
X167500000Y-199900000D01*
X232700000Y-199900000D01*
X232700000Y-201400000D01*
G37*
X232700000Y-201400000D02*
X167500000Y-201400000D01*
X167500000Y-199900000D01*
X232700000Y-199900000D01*
X232700000Y-201400000D01*
D12*
%TO.C,A2*%
X206121000Y-185521600D03*
D13*
X206121000Y-185521600D03*
D12*
X225171000Y-185521600D03*
D13*
X225171000Y-185521600D03*
D12*
X206121000Y-128371600D03*
D13*
X206121000Y-128371600D03*
D12*
X225171000Y-128371600D03*
D13*
X225171000Y-128371600D03*
D14*
X230346000Y-134531100D03*
X230346000Y-137706100D03*
X207708500Y-116872000D03*
X210883500Y-116872000D03*
X214058500Y-116872000D03*
X217233500Y-116872000D03*
X220408500Y-116872000D03*
X223583500Y-116872000D03*
%TD*%
D15*
%TO.C,J11*%
X172120000Y-53920000D03*
X172120000Y-55920000D03*
X172120000Y-57920000D03*
X172120000Y-59920000D03*
D16*
X167820000Y-51520000D03*
X167820000Y-66320000D03*
D15*
X172120000Y-61920000D03*
X172120000Y-63920000D03*
%TD*%
%TO.C,J10*%
X226320000Y-63920000D03*
X226320000Y-61920000D03*
X226320000Y-59920000D03*
X226320000Y-57920000D03*
D16*
X230620000Y-66320000D03*
X230620000Y-51520000D03*
D15*
X226320000Y-55920000D03*
X226320000Y-53920000D03*
%TD*%
D17*
%TO.C,J1*%
X174723000Y-179800000D03*
X167923000Y-179800000D03*
D18*
X172323000Y-184100000D03*
X170323000Y-184100000D03*
%TD*%
D17*
%TO.C,J2*%
X186153000Y-179800000D03*
X179353000Y-179800000D03*
D18*
X183753000Y-184100000D03*
X181753000Y-184100000D03*
%TD*%
D17*
%TO.C,J4*%
X209682000Y-108052000D03*
X202882000Y-108052000D03*
D18*
X207282000Y-112352000D03*
X205282000Y-112352000D03*
%TD*%
D17*
%TO.C,J6*%
X189512000Y-108052000D03*
X182712000Y-108052000D03*
D18*
X187112000Y-112352000D03*
X185112000Y-112352000D03*
%TD*%
%TO.C,J3*%
X215442000Y-112352000D03*
X217442000Y-112352000D03*
D17*
X213042000Y-108052000D03*
X219842000Y-108052000D03*
%TD*%
%TO.C,J5*%
X178082000Y-108052000D03*
X171282000Y-108052000D03*
D18*
X175682000Y-112352000D03*
X173682000Y-112352000D03*
%TD*%
D12*
%TO.C,A1*%
X189357000Y-125349000D03*
D13*
X189357000Y-125349000D03*
D12*
X172847000Y-125349000D03*
D13*
X172847000Y-125349000D03*
D12*
X189357000Y-171069000D03*
D13*
X189357000Y-171069000D03*
D12*
X172847000Y-171069000D03*
D13*
X172847000Y-171069000D03*
D14*
X193290000Y-133985000D03*
X193290000Y-137287000D03*
X193290000Y-140589000D03*
X193290000Y-143891000D03*
X168914000Y-133985000D03*
X168914000Y-137287000D03*
X168914000Y-140589000D03*
X168914000Y-143891000D03*
%TD*%
D19*
%TO.C,REF\u002A\u002A*%
X224250000Y-196400000D03*
D20*
X226650000Y-196349200D03*
X225947056Y-198046256D03*
X224250000Y-198749200D03*
X222552944Y-198046256D03*
X221850000Y-196349200D03*
X222552944Y-194652144D03*
X224250000Y-193949200D03*
X225947056Y-194652144D03*
%TD*%
D19*
%TO.C,REF\u002A\u002A*%
X174400000Y-196450800D03*
D20*
X176800000Y-196400000D03*
X176097056Y-198097056D03*
X174400000Y-198800000D03*
X172702944Y-198097056D03*
X172000000Y-196400000D03*
X172702944Y-194702944D03*
X174400000Y-194000000D03*
X176097056Y-194702944D03*
%TD*%
D19*
%TO.C,REF\u002A\u002A*%
X174400000Y-44050800D03*
D20*
X176800000Y-44000000D03*
X176097056Y-45697056D03*
X174400000Y-46400000D03*
X172702944Y-45697056D03*
X172000000Y-44000000D03*
X172702944Y-42302944D03*
X174400000Y-41600000D03*
X176097056Y-42302944D03*
%TD*%
D19*
%TO.C,REF\u002A\u002A*%
X224250000Y-44050800D03*
D20*
X226650000Y-44000000D03*
X225947056Y-45697056D03*
X224250000Y-46400000D03*
X222552944Y-45697056D03*
X221850000Y-44000000D03*
X222552944Y-42302944D03*
X224250000Y-41600000D03*
X225947056Y-42302944D03*
%TD*%
D21*
%TO.C,J9*%
X189579000Y-95250000D03*
G36*
G01*
X186979000Y-95875001D02*
X186979000Y-94624999D01*
G75*
G02*
X187228999Y-94375000I249999J0D01*
G01*
X187929001Y-94375000D01*
G75*
G02*
X188179000Y-94624999I0J-249999D01*
G01*
X188179000Y-95875001D01*
G75*
G02*
X187929001Y-96125000I-249999J0D01*
G01*
X187228999Y-96125000D01*
G75*
G02*
X186979000Y-95875001I0J249999D01*
G01*
G37*
%TD*%
%TO.C,J8*%
X206978000Y-95377000D03*
G36*
G01*
X204378000Y-96002001D02*
X204378000Y-94751999D01*
G75*
G02*
X204627999Y-94502000I249999J0D01*
G01*
X205328001Y-94502000D01*
G75*
G02*
X205578000Y-94751999I0J-249999D01*
G01*
X205578000Y-96002001D01*
G75*
G02*
X205328001Y-96252000I-249999J0D01*
G01*
X204627999Y-96252000D01*
G75*
G02*
X204378000Y-96002001I0J249999D01*
G01*
G37*
%TD*%
%TO.C,J7*%
X198088000Y-95377000D03*
G36*
G01*
X195488000Y-96002001D02*
X195488000Y-94751999D01*
G75*
G02*
X195737999Y-94502000I249999J0D01*
G01*
X196438001Y-94502000D01*
G75*
G02*
X196688000Y-94751999I0J-249999D01*
G01*
X196688000Y-96002001D01*
G75*
G02*
X196438001Y-96252000I-249999J0D01*
G01*
X195737999Y-96252000D01*
G75*
G02*
X195488000Y-96002001I0J249999D01*
G01*
G37*
%TD*%
M02*
