%TF.GenerationSoftware,KiCad,Pcbnew,6.0.1*%
%TF.CreationDate,2022-02-10T21:41:43-06:00*%
%TF.ProjectId,ALTIMETER_HOLDER,414c5449-4d45-4544-9552-5f484f4c4445,rev?*%
%TF.SameCoordinates,Original*%
%TF.FileFunction,Copper,L1,Top*%
%TF.FilePolarity,Positive*%
%FSLAX46Y46*%
G04 Gerber Fmt 4.6, Leading zero omitted, Abs format (unit mm)*
G04 Created by KiCad (PCBNEW 6.0.1) date 2022-02-10 21:41:43*
%MOMM*%
%LPD*%
G01*
G04 APERTURE LIST*
G04 Aperture macros list*
%AMRoundRect*
0 Rectangle with rounded corners*
0 $1 Rounding radius*
0 $2 $3 $4 $5 $6 $7 $8 $9 X,Y pos of 4 corners*
0 Add a 4 corners polygon primitive as box body*
4,1,4,$2,$3,$4,$5,$6,$7,$8,$9,$2,$3,0*
0 Add four circle primitives for the rounded corners*
1,1,$1+$1,$2,$3*
1,1,$1+$1,$4,$5*
1,1,$1+$1,$6,$7*
1,1,$1+$1,$8,$9*
0 Add four rect primitives between the rounded corners*
20,1,$1+$1,$2,$3,$4,$5,0*
20,1,$1+$1,$4,$5,$6,$7,0*
20,1,$1+$1,$6,$7,$8,$9,0*
20,1,$1+$1,$8,$9,$2,$3,0*%
G04 Aperture macros list end*
%TA.AperFunction,SMDPad,CuDef*%
%ADD10RoundRect,0.250000X0.250000X1.200000X-0.250000X1.200000X-0.250000X-1.200000X0.250000X-1.200000X0*%
%TD*%
%TA.AperFunction,SMDPad,CuDef*%
%ADD11RoundRect,0.250000X0.650000X1.550000X-0.650000X1.550000X-0.650000X-1.550000X0.650000X-1.550000X0*%
%TD*%
%TA.AperFunction,ComponentPad*%
%ADD12C,6.400000*%
%TD*%
%TA.AperFunction,ComponentPad*%
%ADD13RoundRect,0.250000X-0.350000X-0.625000X0.350000X-0.625000X0.350000X0.625000X-0.350000X0.625000X0*%
%TD*%
%TA.AperFunction,ComponentPad*%
%ADD14O,1.200000X1.750000*%
%TD*%
%TA.AperFunction,ComponentPad*%
%ADD15C,1.660000*%
%TD*%
%TA.AperFunction,ConnectorPad*%
%ADD16C,5.700000*%
%TD*%
%TA.AperFunction,ComponentPad*%
%ADD17C,3.600000*%
%TD*%
%TA.AperFunction,SMDPad,CuDef*%
%ADD18RoundRect,0.250000X-0.250000X-1.200000X0.250000X-1.200000X0.250000X1.200000X-0.250000X1.200000X0*%
%TD*%
%TA.AperFunction,SMDPad,CuDef*%
%ADD19RoundRect,0.250000X-0.650000X-1.550000X0.650000X-1.550000X0.650000X1.550000X-0.650000X1.550000X0*%
%TD*%
%TA.AperFunction,ViaPad*%
%ADD20C,1.250000*%
%TD*%
%TA.AperFunction,Conductor*%
%ADD21C,0.750000*%
%TD*%
G04 APERTURE END LIST*
D10*
%TO.P,J4,1,Pin_1*%
%TO.N,/TM_SWITCH_P*%
X6950000Y-66275000D03*
%TO.P,J4,2,Pin_2*%
%TO.N,/TM_SWITCH_N*%
X4950000Y-66275000D03*
D11*
%TO.P,J4,MP*%
%TO.N,N/C*%
X2600000Y-70925000D03*
X9300000Y-70925000D03*
%TD*%
D10*
%TO.P,J6,1,Pin_1*%
%TO.N,/TM_DROGUE_P*%
X26950000Y-66275000D03*
%TO.P,J6,2,Pin_2*%
%TO.N,/TM_DROGUE_N*%
X24950000Y-66275000D03*
D11*
%TO.P,J6,MP*%
%TO.N,N/C*%
X29300000Y-70925000D03*
X22600000Y-70925000D03*
%TD*%
D12*
%TO.P,REF\u002A\u002A,1*%
%TO.N,N/C*%
X55800000Y-3500000D03*
%TD*%
D13*
%TO.P,J3,1,Pin_1*%
%TO.N,Net-(J2-Pad2)*%
X28400000Y-4250000D03*
D14*
%TO.P,J3,2,Pin_2*%
%TO.N,SL_POWER_NEGATIVE*%
X30400000Y-4250000D03*
%TD*%
D15*
%TO.P,A2,1,SWITCH0*%
%TO.N,/SL_SWITCH_P*%
X4162000Y-39918000D03*
%TO.P,A2,2,SWITCH1*%
%TO.N,/SL_SWITCH_N*%
X4162000Y-43220000D03*
%TO.P,A2,3,POSITIVE*%
%TO.N,SL_POWER_POSITIVE*%
X4162000Y-46522000D03*
%TO.P,A2,4,NEGATIVE*%
%TO.N,SL_POWER_NEGATIVE*%
X4162000Y-49824000D03*
%TO.P,A2,5,DROGUE0*%
%TO.N,/SL_DROGUE_P*%
X28538000Y-39918000D03*
%TO.P,A2,6,DROGUE1*%
%TO.N,/SL_DROGUE_N*%
X28538000Y-43220000D03*
%TO.P,A2,7,MAIN0*%
%TO.N,/SL_MAIN_P*%
X28538000Y-46522000D03*
%TO.P,A2,8,MAIN1*%
%TO.N,/SL_MAIN_N*%
X28538000Y-49824000D03*
D16*
%TO.P,A2,~*%
%TO.N,N/C*%
X8095000Y-12740000D03*
D17*
X24605000Y-12740000D03*
D16*
X24605000Y-12740000D03*
D17*
X8095000Y-58460000D03*
D16*
X24605000Y-58460000D03*
D17*
X24605000Y-58460000D03*
D16*
X8095000Y-58460000D03*
D17*
X8095000Y-12740000D03*
%TD*%
D13*
%TO.P,J1,1,Pin_1*%
%TO.N,TM_POWER_POSITIVE*%
X12400000Y-4250000D03*
D14*
%TO.P,J1,2,Pin_2*%
%TO.N,TM_POWER_NEGATIVE*%
X14400000Y-4250000D03*
%TD*%
D12*
%TO.P,REF\u002A\u002A,1*%
%TO.N,N/C*%
X3500000Y-3500000D03*
%TD*%
D10*
%TO.P,J5,1,Pin_1*%
%TO.N,/TM_MAIN_P*%
X16950000Y-66275000D03*
%TO.P,J5,2,Pin_2*%
%TO.N,/TM_MAIN_N*%
X14950000Y-66275000D03*
D11*
%TO.P,J5,MP*%
%TO.N,N/C*%
X12600000Y-70925000D03*
X19300000Y-70925000D03*
%TD*%
D12*
%TO.P,REF\u002A\u002A,1*%
%TO.N,N/C*%
X55800000Y-89000000D03*
%TD*%
%TO.P,REF\u002A\u002A,1*%
%TO.N,N/C*%
X3500000Y-89000000D03*
%TD*%
D13*
%TO.P,J2,1,Pin_1*%
%TO.N,SL_POWER_POSITIVE*%
X20400000Y-4250000D03*
D14*
%TO.P,J2,2,Pin_2*%
%TO.N,Net-(J2-Pad2)*%
X22400000Y-4250000D03*
%TD*%
D18*
%TO.P,J9,1,Pin_1*%
%TO.N,/SL_DROGUE_P*%
X24950000Y-83275000D03*
%TO.P,J9,2,Pin_2*%
%TO.N,/SL_DROGUE_N*%
X26950000Y-83275000D03*
D19*
%TO.P,J9,MP*%
%TO.N,N/C*%
X22600000Y-78625000D03*
X29300000Y-78625000D03*
%TD*%
D18*
%TO.P,J8,1,Pin_1*%
%TO.N,/SL_MAIN_P*%
X14950000Y-83275000D03*
%TO.P,J8,2,Pin_2*%
%TO.N,/SL_MAIN_N*%
X16950000Y-83275000D03*
D19*
%TO.P,J8,MP*%
%TO.N,N/C*%
X19300000Y-78625000D03*
X12600000Y-78625000D03*
%TD*%
D18*
%TO.P,J7,1,Pin_1*%
%TO.N,/SL_SWITCH_P*%
X4950000Y-83275000D03*
%TO.P,J7,2,Pin_2*%
%TO.N,/SL_SWITCH_N*%
X6950000Y-83275000D03*
D19*
%TO.P,J7,MP*%
%TO.N,N/C*%
X9300000Y-78625000D03*
X2600000Y-78625000D03*
%TD*%
D15*
%TO.P,A1,1,POSITIVE*%
%TO.N,TM_POWER_POSITIVE*%
X31400000Y-61140900D03*
%TO.P,A1,2,NEGATIVE*%
%TO.N,TM_POWER_NEGATIVE*%
X31400000Y-64315900D03*
%TO.P,A1,3,SWITCH0*%
%TO.N,/TM_SWITCH_P*%
X38162500Y-81975000D03*
%TO.P,A1,4,SWITCH1*%
%TO.N,/TM_SWITCH_N*%
X41337500Y-81975000D03*
%TO.P,A1,5,MAIN0*%
%TO.N,/TM_MAIN_P*%
X44512500Y-81975000D03*
%TO.P,A1,6,MAIN1*%
%TO.N,/TM_MAIN_N*%
X47687500Y-81975000D03*
%TO.P,A1,7,DROGUE0*%
%TO.N,/TM_DROGUE_P*%
X50862500Y-81975000D03*
%TO.P,A1,8,DROGUE1*%
%TO.N,/TM_DROGUE_N*%
X54037500Y-81975000D03*
D16*
%TO.P,A1,~*%
%TO.N,N/C*%
X36575000Y-70475400D03*
D17*
X36575000Y-70475400D03*
D16*
X36575000Y-13325400D03*
D17*
X55625000Y-13325400D03*
X55625000Y-70475400D03*
D16*
X55625000Y-13325400D03*
D17*
X36575000Y-13325400D03*
D16*
X55625000Y-70475400D03*
%TD*%
D20*
%TO.N,/TM_SWITCH_P*%
X6950000Y-63100000D03*
%TO.N,/TM_SWITCH_N*%
X4950000Y-63050000D03*
%TO.N,/TM_MAIN_P*%
X16950000Y-62450000D03*
%TO.N,/TM_MAIN_N*%
X14900000Y-58450000D03*
%TO.N,/TM_DROGUE_P*%
X53600000Y-79200000D03*
X28700000Y-62100000D03*
%TO.N,/TM_DROGUE_N*%
X26800000Y-62000000D03*
%TO.N,TM_POWER_NEGATIVE*%
X10350000Y-17700000D03*
%TO.N,/SL_SWITCH_P*%
X2425000Y-84575000D03*
%TO.N,/SL_SWITCH_N*%
X9425000Y-84575000D03*
%TO.N,/SL_MAIN_P*%
X14950000Y-87450000D03*
%TO.N,/SL_MAIN_N*%
X18050000Y-87600000D03*
%TD*%
D21*
%TO.N,/TM_SWITCH_P*%
X6950000Y-63100000D02*
X6950000Y-66275000D01*
%TO.N,/TM_SWITCH_N*%
X4950000Y-66275000D02*
X4950000Y-63050000D01*
%TO.N,/TM_MAIN_P*%
X16950000Y-66275000D02*
X16950000Y-62450000D01*
%TO.N,/TM_MAIN_N*%
X14950000Y-58500000D02*
X14900000Y-58450000D01*
X14950000Y-66275000D02*
X14950000Y-58500000D01*
%TO.N,/TM_DROGUE_P*%
X53600000Y-79200000D02*
X53600000Y-79237500D01*
X53600000Y-79237500D02*
X50862500Y-81975000D01*
X28700000Y-62100000D02*
X26950000Y-63850000D01*
X26950000Y-63850000D02*
X26950000Y-66275000D01*
%TO.N,/TM_DROGUE_N*%
X24950000Y-63850000D02*
X24950000Y-66275000D01*
X26800000Y-62000000D02*
X24950000Y-63850000D01*
%TO.N,TM_POWER_POSITIVE*%
X31400000Y-56400000D02*
X31400000Y-61140900D01*
X12400000Y-4250000D02*
X12400000Y-37400000D01*
X12400000Y-37400000D02*
X31400000Y-56400000D01*
%TO.N,TM_POWER_NEGATIVE*%
X31400000Y-64315900D02*
X29995489Y-62911389D01*
X10350000Y-38150000D02*
X10350000Y-17700000D01*
X29995489Y-62911389D02*
X29995489Y-57795489D01*
X29995489Y-57795489D02*
X10350000Y-38150000D01*
%TO.N,/SL_DROGUE_P*%
X29492824Y-87700000D02*
X42149520Y-75043304D01*
X24950000Y-86250000D02*
X26400000Y-87700000D01*
X24950000Y-83275000D02*
X24950000Y-86250000D01*
X42149520Y-53529520D02*
X28538000Y-39918000D01*
X26400000Y-87700000D02*
X29492824Y-87700000D01*
X42149520Y-75043304D02*
X42149520Y-53529520D01*
%TO.N,/SL_DROGUE_N*%
X41200000Y-55882000D02*
X28538000Y-43220000D01*
X29500000Y-86350000D02*
X41200000Y-74650000D01*
X41200000Y-74650000D02*
X41200000Y-55882000D01*
X27650000Y-86350000D02*
X29500000Y-86350000D01*
X26950000Y-85650000D02*
X27650000Y-86350000D01*
X26950000Y-83275000D02*
X26950000Y-85650000D01*
%TO.N,/SL_SWITCH_P*%
X3650000Y-84575000D02*
X4950000Y-83275000D01*
X2425000Y-84575000D02*
X3650000Y-84575000D01*
%TO.N,/SL_SWITCH_N*%
X9425000Y-84575000D02*
X7850000Y-84575000D01*
X6950000Y-83675000D02*
X6950000Y-83275000D01*
X7850000Y-84575000D02*
X6950000Y-83675000D01*
%TO.N,SL_POWER_NEGATIVE*%
X30400000Y-3975000D02*
X30399200Y-3974200D01*
%TO.N,/SL_MAIN_P*%
X14950000Y-83275000D02*
X14950000Y-87450000D01*
%TO.N,/SL_MAIN_N*%
X16950000Y-83275000D02*
X16950000Y-86500000D01*
X16950000Y-86500000D02*
X18050000Y-87600000D01*
%TD*%
%TA.AperFunction,NonConductor*%
G36*
X59141255Y-148745D02*
G01*
X59160000Y-194000D01*
X59160000Y-2420871D01*
X59141255Y-2466126D01*
X59096000Y-2484871D01*
X59050745Y-2466126D01*
X59034328Y-2437974D01*
X59028083Y-2415457D01*
X59027620Y-2413786D01*
X59022501Y-2400922D01*
X58892073Y-2073170D01*
X58892069Y-2073162D01*
X58891431Y-2071558D01*
X58890626Y-2070037D01*
X58890622Y-2070029D01*
X58719884Y-1747563D01*
X58719883Y-1747561D01*
X58719078Y-1746041D01*
X58512578Y-1441041D01*
X58503445Y-1430271D01*
X58275457Y-1161438D01*
X58274346Y-1160128D01*
X58007168Y-906586D01*
X58005801Y-905544D01*
X58005792Y-905537D01*
X57715554Y-684435D01*
X57714172Y-683382D01*
X57398783Y-493127D01*
X57241797Y-420257D01*
X57066265Y-338777D01*
X57066255Y-338773D01*
X57064691Y-338047D01*
X57063046Y-337490D01*
X57063043Y-337489D01*
X56818219Y-254621D01*
X56781363Y-222357D01*
X56778117Y-173481D01*
X56810381Y-136625D01*
X56838738Y-130000D01*
X59096000Y-130000D01*
X59141255Y-148745D01*
G37*
%TD.AperFunction*%
%TA.AperFunction,NonConductor*%
G36*
X2507284Y-148745D02*
G01*
X2526029Y-194000D01*
X2507284Y-239255D01*
X2482337Y-254693D01*
X2247991Y-333104D01*
X2247987Y-333106D01*
X2246354Y-333652D01*
X2244786Y-334373D01*
X2244784Y-334374D01*
X2235211Y-338777D01*
X1911723Y-487565D01*
X1910253Y-488445D01*
X1910245Y-488449D01*
X1597169Y-675822D01*
X1595672Y-676718D01*
X1301898Y-898897D01*
X1300635Y-900087D01*
X1300634Y-900088D01*
X1292479Y-907773D01*
X1033837Y-1151505D01*
X794626Y-1431585D01*
X793653Y-1433012D01*
X793651Y-1433014D01*
X749924Y-1497115D01*
X587062Y-1735862D01*
X413574Y-2060776D01*
X412935Y-2062367D01*
X412933Y-2062370D01*
X341637Y-2239727D01*
X276192Y-2402526D01*
X275724Y-2404192D01*
X275723Y-2404194D01*
X255612Y-2475741D01*
X225320Y-2514235D01*
X176681Y-2520034D01*
X138187Y-2489742D01*
X130000Y-2458422D01*
X130000Y-194000D01*
X148745Y-148745D01*
X194000Y-130000D01*
X2462029Y-130000D01*
X2507284Y-148745D01*
G37*
%TD.AperFunction*%
%TA.AperFunction,NonConductor*%
G36*
X59151921Y-90044257D02*
G01*
X59160000Y-90075382D01*
X59160000Y-92306000D01*
X59141255Y-92351255D01*
X59096000Y-92370000D01*
X56837318Y-92370000D01*
X56792063Y-92351255D01*
X56773318Y-92306000D01*
X56792063Y-92260745D01*
X56817222Y-92245237D01*
X57040939Y-92171250D01*
X57040944Y-92171248D01*
X57042586Y-92170705D01*
X57377752Y-92017961D01*
X57379228Y-92017085D01*
X57379233Y-92017082D01*
X57692987Y-91830788D01*
X57694461Y-91829913D01*
X57989009Y-91608760D01*
X57990273Y-91607577D01*
X57990278Y-91607573D01*
X58256685Y-91358273D01*
X58256687Y-91358271D01*
X58257950Y-91357089D01*
X58498138Y-91077846D01*
X58517636Y-91049477D01*
X58705782Y-90775721D01*
X58705782Y-90775720D01*
X58706762Y-90774295D01*
X58881383Y-90449989D01*
X59019958Y-90108720D01*
X59034449Y-90057849D01*
X59064875Y-90019461D01*
X59113533Y-90013831D01*
X59151921Y-90044257D01*
G37*
%TD.AperFunction*%
%TA.AperFunction,NonConductor*%
G36*
X54807284Y-148745D02*
G01*
X54826029Y-194000D01*
X54807284Y-239255D01*
X54782337Y-254693D01*
X54547991Y-333104D01*
X54547987Y-333106D01*
X54546354Y-333652D01*
X54544786Y-334373D01*
X54544784Y-334374D01*
X54535211Y-338777D01*
X54211723Y-487565D01*
X54210253Y-488445D01*
X54210245Y-488449D01*
X53897169Y-675822D01*
X53895672Y-676718D01*
X53601898Y-898897D01*
X53600635Y-900087D01*
X53600634Y-900088D01*
X53592479Y-907773D01*
X53333837Y-1151505D01*
X53094626Y-1431585D01*
X53093653Y-1433012D01*
X53093651Y-1433014D01*
X53049924Y-1497115D01*
X52887062Y-1735862D01*
X52713574Y-2060776D01*
X52712935Y-2062367D01*
X52712933Y-2062370D01*
X52641637Y-2239727D01*
X52576192Y-2402526D01*
X52476521Y-2757115D01*
X52415729Y-3120393D01*
X52394527Y-3488113D01*
X52394615Y-3489850D01*
X52397334Y-3543514D01*
X52413162Y-3855971D01*
X52413437Y-3857686D01*
X52413437Y-3857689D01*
X52425281Y-3931631D01*
X52471416Y-4219665D01*
X52568608Y-4574941D01*
X52569244Y-4576555D01*
X52702966Y-4916029D01*
X52702970Y-4916039D01*
X52703602Y-4917642D01*
X52874817Y-5243759D01*
X52875781Y-5245193D01*
X52875783Y-5245197D01*
X52929745Y-5325500D01*
X53080252Y-5549477D01*
X53317502Y-5831221D01*
X53583792Y-6085694D01*
X53876008Y-6309919D01*
X53877487Y-6310818D01*
X53877491Y-6310821D01*
X53908892Y-6329913D01*
X54190731Y-6501274D01*
X54524279Y-6657519D01*
X54525921Y-6658081D01*
X54525928Y-6658084D01*
X54817560Y-6757932D01*
X54872751Y-6776828D01*
X55232070Y-6857804D01*
X55284214Y-6863745D01*
X55596310Y-6899304D01*
X55596316Y-6899304D01*
X55598033Y-6899500D01*
X55777666Y-6900440D01*
X55964618Y-6901419D01*
X55964620Y-6901419D01*
X55966358Y-6901428D01*
X56332737Y-6863567D01*
X56576312Y-6811349D01*
X56691187Y-6786722D01*
X56691190Y-6786721D01*
X56692884Y-6786358D01*
X56694527Y-6785815D01*
X56694533Y-6785813D01*
X57040939Y-6671250D01*
X57040944Y-6671248D01*
X57042586Y-6670705D01*
X57377752Y-6517961D01*
X57379228Y-6517085D01*
X57379233Y-6517082D01*
X57692987Y-6330788D01*
X57694461Y-6329913D01*
X57989009Y-6108760D01*
X57990273Y-6107577D01*
X57990278Y-6107573D01*
X58256685Y-5858273D01*
X58256687Y-5858271D01*
X58257950Y-5857089D01*
X58498138Y-5577846D01*
X58517636Y-5549477D01*
X58705782Y-5275721D01*
X58705782Y-5275720D01*
X58706762Y-5274295D01*
X58719717Y-5250236D01*
X58767404Y-5161671D01*
X58881383Y-4949989D01*
X59019958Y-4608720D01*
X59034449Y-4557849D01*
X59064875Y-4519461D01*
X59113533Y-4513831D01*
X59151921Y-4544257D01*
X59160000Y-4575382D01*
X59160000Y-87920871D01*
X59141255Y-87966126D01*
X59096000Y-87984871D01*
X59050745Y-87966126D01*
X59034328Y-87937974D01*
X59028083Y-87915457D01*
X59027620Y-87913786D01*
X59022501Y-87900922D01*
X58892073Y-87573170D01*
X58892069Y-87573162D01*
X58891431Y-87571558D01*
X58890626Y-87570037D01*
X58890622Y-87570029D01*
X58719884Y-87247563D01*
X58719883Y-87247561D01*
X58719078Y-87246041D01*
X58528812Y-86965018D01*
X58513541Y-86942463D01*
X58513539Y-86942460D01*
X58512578Y-86941041D01*
X58508792Y-86936576D01*
X58275457Y-86661438D01*
X58274346Y-86660128D01*
X58007168Y-86406586D01*
X58005801Y-86405544D01*
X58005792Y-86405537D01*
X57715554Y-86184435D01*
X57714172Y-86183382D01*
X57398783Y-85993127D01*
X57240240Y-85919534D01*
X57066265Y-85838777D01*
X57066255Y-85838773D01*
X57064691Y-85838047D01*
X57063046Y-85837490D01*
X57063043Y-85837489D01*
X56952983Y-85800236D01*
X56715805Y-85719956D01*
X56561886Y-85685833D01*
X56357895Y-85640608D01*
X56357887Y-85640607D01*
X56356206Y-85640234D01*
X56140689Y-85616441D01*
X55991806Y-85600004D01*
X55991800Y-85600004D01*
X55990100Y-85599816D01*
X55851352Y-85599574D01*
X55623491Y-85599176D01*
X55621770Y-85599173D01*
X55362506Y-85626880D01*
X55257237Y-85638130D01*
X55257234Y-85638130D01*
X55255526Y-85638313D01*
X55253845Y-85638679D01*
X55253842Y-85638680D01*
X55027284Y-85688078D01*
X54895650Y-85716779D01*
X54779163Y-85755755D01*
X54547991Y-85833104D01*
X54547987Y-85833106D01*
X54546354Y-85833652D01*
X54544786Y-85834373D01*
X54544784Y-85834374D01*
X54213286Y-85986846D01*
X54211723Y-85987565D01*
X54210253Y-85988445D01*
X54210245Y-85988449D01*
X53897169Y-86175822D01*
X53895672Y-86176718D01*
X53601898Y-86398897D01*
X53600635Y-86400087D01*
X53600634Y-86400088D01*
X53592479Y-86407773D01*
X53333837Y-86651505D01*
X53332714Y-86652820D01*
X53332712Y-86652822D01*
X53096050Y-86929918D01*
X53094626Y-86931585D01*
X53093653Y-86933012D01*
X53093651Y-86933014D01*
X53060794Y-86981181D01*
X52887062Y-87235862D01*
X52713574Y-87560776D01*
X52712935Y-87562367D01*
X52712933Y-87562370D01*
X52641637Y-87739727D01*
X52576192Y-87902526D01*
X52476521Y-88257115D01*
X52476235Y-88258826D01*
X52476234Y-88258829D01*
X52454264Y-88390119D01*
X52415729Y-88620393D01*
X52394527Y-88988113D01*
X52413162Y-89355971D01*
X52413437Y-89357686D01*
X52413437Y-89357689D01*
X52419112Y-89393117D01*
X52471416Y-89719665D01*
X52568608Y-90074941D01*
X52569244Y-90076555D01*
X52702966Y-90416029D01*
X52702970Y-90416039D01*
X52703602Y-90417642D01*
X52874817Y-90743759D01*
X52875781Y-90745193D01*
X52875783Y-90745197D01*
X53079291Y-91048047D01*
X53080252Y-91049477D01*
X53317502Y-91331221D01*
X53583792Y-91585694D01*
X53876008Y-91809919D01*
X53877487Y-91810818D01*
X53877491Y-91810821D01*
X53908892Y-91829913D01*
X54190731Y-92001274D01*
X54524279Y-92157519D01*
X54525921Y-92158081D01*
X54525928Y-92158084D01*
X54781107Y-92245451D01*
X54817850Y-92277844D01*
X54820925Y-92326731D01*
X54788532Y-92363474D01*
X54760376Y-92370000D01*
X4537318Y-92370000D01*
X4492063Y-92351255D01*
X4473318Y-92306000D01*
X4492063Y-92260745D01*
X4517222Y-92245237D01*
X4740939Y-92171250D01*
X4740944Y-92171248D01*
X4742586Y-92170705D01*
X5077752Y-92017961D01*
X5079228Y-92017085D01*
X5079233Y-92017082D01*
X5392987Y-91830788D01*
X5394461Y-91829913D01*
X5689009Y-91608760D01*
X5690273Y-91607577D01*
X5690278Y-91607573D01*
X5956685Y-91358273D01*
X5956687Y-91358271D01*
X5957950Y-91357089D01*
X6198138Y-91077846D01*
X6217636Y-91049477D01*
X6405782Y-90775721D01*
X6405782Y-90775720D01*
X6406762Y-90774295D01*
X6581383Y-90449989D01*
X6719958Y-90108720D01*
X6820865Y-89754482D01*
X6882925Y-89391418D01*
X6905411Y-89023775D01*
X6905494Y-89000000D01*
X6885575Y-88632209D01*
X6826052Y-88268720D01*
X6823977Y-88261235D01*
X6770067Y-88066845D01*
X6727620Y-87913786D01*
X6722501Y-87900922D01*
X6592073Y-87573170D01*
X6592069Y-87573162D01*
X6591431Y-87571558D01*
X6590626Y-87570037D01*
X6590622Y-87570029D01*
X6527070Y-87450000D01*
X14119953Y-87450000D01*
X14120304Y-87453339D01*
X14132730Y-87571558D01*
X14138092Y-87622576D01*
X14164903Y-87705093D01*
X14190678Y-87784424D01*
X14190680Y-87784428D01*
X14191714Y-87787611D01*
X14278478Y-87937889D01*
X14394590Y-88066845D01*
X14534976Y-88168842D01*
X14538040Y-88170206D01*
X14690441Y-88238060D01*
X14690444Y-88238061D01*
X14693501Y-88239422D01*
X14863236Y-88275500D01*
X15036764Y-88275500D01*
X15206499Y-88239422D01*
X15209556Y-88238061D01*
X15209559Y-88238060D01*
X15361960Y-88170206D01*
X15365024Y-88168842D01*
X15505410Y-88066845D01*
X15621522Y-87937889D01*
X15708286Y-87787611D01*
X15709320Y-87784428D01*
X15709322Y-87784424D01*
X15735097Y-87705093D01*
X15761908Y-87622576D01*
X15767271Y-87571558D01*
X15779696Y-87453339D01*
X15780047Y-87450000D01*
X15761908Y-87277424D01*
X15712221Y-87124500D01*
X15709322Y-87115576D01*
X15709320Y-87115572D01*
X15708286Y-87112389D01*
X15621522Y-86962111D01*
X15541938Y-86873723D01*
X15525500Y-86830900D01*
X15525500Y-84813687D01*
X15538020Y-84775663D01*
X15541151Y-84771425D01*
X15602634Y-84688184D01*
X15604219Y-84683671D01*
X15646227Y-84564049D01*
X15646228Y-84564047D01*
X15647519Y-84560369D01*
X15650500Y-84528834D01*
X16249500Y-84528834D01*
X16252481Y-84560369D01*
X16253772Y-84564047D01*
X16253773Y-84564049D01*
X16295781Y-84683671D01*
X16297366Y-84688184D01*
X16358850Y-84771425D01*
X16361980Y-84775663D01*
X16374500Y-84813687D01*
X16374500Y-86458088D01*
X16373953Y-86466441D01*
X16369535Y-86500000D01*
X16370082Y-86504155D01*
X16374500Y-86537714D01*
X16371739Y-86538078D01*
X16371741Y-86538083D01*
X16374500Y-86537720D01*
X16386685Y-86630271D01*
X16389313Y-86650236D01*
X16390918Y-86654110D01*
X16390918Y-86654111D01*
X16434966Y-86760451D01*
X16444560Y-86783612D01*
X16447302Y-86790233D01*
X16449855Y-86793560D01*
X16516385Y-86880265D01*
X16516391Y-86880271D01*
X16539549Y-86910451D01*
X16542876Y-86913004D01*
X16566402Y-86931056D01*
X16572696Y-86936576D01*
X17202029Y-87565909D01*
X17220423Y-87604474D01*
X17238092Y-87772576D01*
X17264903Y-87855093D01*
X17290678Y-87934424D01*
X17290680Y-87934428D01*
X17291714Y-87937611D01*
X17378478Y-88087889D01*
X17494590Y-88216845D01*
X17634976Y-88318842D01*
X17638040Y-88320206D01*
X17790441Y-88388060D01*
X17790444Y-88388061D01*
X17793501Y-88389422D01*
X17963236Y-88425500D01*
X18136764Y-88425500D01*
X18306499Y-88389422D01*
X18309556Y-88388061D01*
X18309559Y-88388060D01*
X18461960Y-88320206D01*
X18465024Y-88318842D01*
X18605410Y-88216845D01*
X18721522Y-88087889D01*
X18808286Y-87937611D01*
X18809320Y-87934428D01*
X18809322Y-87934424D01*
X18835097Y-87855093D01*
X18861908Y-87772576D01*
X18880047Y-87600000D01*
X18861908Y-87427424D01*
X18812136Y-87274237D01*
X18809322Y-87265576D01*
X18809320Y-87265572D01*
X18808286Y-87262389D01*
X18721522Y-87112111D01*
X18605410Y-86983155D01*
X18465024Y-86881158D01*
X18352143Y-86830900D01*
X18309559Y-86811940D01*
X18309556Y-86811939D01*
X18306499Y-86810578D01*
X18136764Y-86774500D01*
X18064890Y-86774500D01*
X18019635Y-86755755D01*
X17544245Y-86280365D01*
X17525500Y-86235110D01*
X17525500Y-84813687D01*
X17538020Y-84775663D01*
X17541151Y-84771425D01*
X17602634Y-84688184D01*
X17604219Y-84683671D01*
X17646227Y-84564049D01*
X17646228Y-84564047D01*
X17647519Y-84560369D01*
X17650500Y-84528834D01*
X24249500Y-84528834D01*
X24252481Y-84560369D01*
X24253772Y-84564047D01*
X24253773Y-84564049D01*
X24295781Y-84683671D01*
X24297366Y-84688184D01*
X24358850Y-84771425D01*
X24361980Y-84775663D01*
X24374500Y-84813687D01*
X24374500Y-86208088D01*
X24373953Y-86216441D01*
X24369535Y-86250000D01*
X24370082Y-86254155D01*
X24374500Y-86287714D01*
X24371739Y-86288078D01*
X24371741Y-86288083D01*
X24374500Y-86287720D01*
X24389313Y-86400236D01*
X24430637Y-86500000D01*
X24447302Y-86540233D01*
X24449855Y-86543560D01*
X24516385Y-86630265D01*
X24516391Y-86630271D01*
X24539549Y-86660451D01*
X24542876Y-86663004D01*
X24566402Y-86681056D01*
X24572696Y-86686576D01*
X25963424Y-88077304D01*
X25968943Y-88083597D01*
X25989549Y-88110451D01*
X26019729Y-88133609D01*
X26019732Y-88133612D01*
X26109768Y-88202699D01*
X26113639Y-88204302D01*
X26113640Y-88204303D01*
X26137892Y-88214348D01*
X26191776Y-88236667D01*
X26249764Y-88260687D01*
X26253920Y-88261234D01*
X26253923Y-88261235D01*
X26356978Y-88274802D01*
X26362280Y-88275500D01*
X26400000Y-88280466D01*
X26404162Y-88279918D01*
X26433558Y-88276048D01*
X26441912Y-88275500D01*
X29450912Y-88275500D01*
X29459265Y-88276047D01*
X29492824Y-88280465D01*
X29530538Y-88275500D01*
X29530902Y-88278261D01*
X29530907Y-88278259D01*
X29530544Y-88275500D01*
X29535846Y-88274802D01*
X29638901Y-88261235D01*
X29638904Y-88261234D01*
X29643060Y-88260687D01*
X29748904Y-88216845D01*
X29779180Y-88204304D01*
X29779182Y-88204303D01*
X29783057Y-88202698D01*
X29873092Y-88133612D01*
X29873095Y-88133609D01*
X29903275Y-88110451D01*
X29923881Y-88083597D01*
X29929400Y-88077304D01*
X36046162Y-81960542D01*
X37127115Y-81960542D01*
X37144026Y-82161925D01*
X37199729Y-82356188D01*
X37292105Y-82535931D01*
X37417634Y-82694309D01*
X37420018Y-82696338D01*
X37420020Y-82696340D01*
X37455808Y-82726798D01*
X37571534Y-82825289D01*
X37747944Y-82923881D01*
X37750922Y-82924849D01*
X37750923Y-82924849D01*
X37937174Y-82985365D01*
X37937177Y-82985366D01*
X37940145Y-82986330D01*
X37943248Y-82986700D01*
X38137707Y-83009889D01*
X38137712Y-83009889D01*
X38140814Y-83010259D01*
X38143934Y-83010019D01*
X38143937Y-83010019D01*
X38339183Y-82994996D01*
X38339187Y-82994995D01*
X38342310Y-82994755D01*
X38345326Y-82993913D01*
X38345331Y-82993912D01*
X38435427Y-82968756D01*
X38536957Y-82940408D01*
X38539744Y-82939000D01*
X38539747Y-82938999D01*
X38714552Y-82850699D01*
X38714553Y-82850698D01*
X38717341Y-82849290D01*
X38876591Y-82724870D01*
X38905093Y-82691851D01*
X39006597Y-82574257D01*
X39008642Y-82571888D01*
X39108464Y-82396170D01*
X39121765Y-82356188D01*
X39171266Y-82207380D01*
X39172254Y-82204410D01*
X39177242Y-82164931D01*
X39197357Y-82005695D01*
X39197357Y-82005691D01*
X39197582Y-82003912D01*
X39197986Y-81975000D01*
X39196568Y-81960542D01*
X40302115Y-81960542D01*
X40319026Y-82161925D01*
X40374729Y-82356188D01*
X40467105Y-82535931D01*
X40592634Y-82694309D01*
X40595018Y-82696338D01*
X40595020Y-82696340D01*
X40630808Y-82726798D01*
X40746534Y-82825289D01*
X40922944Y-82923881D01*
X40925922Y-82924849D01*
X40925923Y-82924849D01*
X41112174Y-82985365D01*
X41112177Y-82985366D01*
X41115145Y-82986330D01*
X41118248Y-82986700D01*
X41312707Y-83009889D01*
X41312712Y-83009889D01*
X41315814Y-83010259D01*
X41318934Y-83010019D01*
X41318937Y-83010019D01*
X41514183Y-82994996D01*
X41514187Y-82994995D01*
X41517310Y-82994755D01*
X41520326Y-82993913D01*
X41520331Y-82993912D01*
X41610427Y-82968756D01*
X41711957Y-82940408D01*
X41714744Y-82939000D01*
X41714747Y-82938999D01*
X41889552Y-82850699D01*
X41889553Y-82850698D01*
X41892341Y-82849290D01*
X42051591Y-82724870D01*
X42080093Y-82691851D01*
X42181597Y-82574257D01*
X42183642Y-82571888D01*
X42283464Y-82396170D01*
X42296765Y-82356188D01*
X42346266Y-82207380D01*
X42347254Y-82204410D01*
X42352242Y-82164931D01*
X42372357Y-82005695D01*
X42372357Y-82005691D01*
X42372582Y-82003912D01*
X42372986Y-81975000D01*
X42371568Y-81960542D01*
X43477115Y-81960542D01*
X43494026Y-82161925D01*
X43549729Y-82356188D01*
X43642105Y-82535931D01*
X43767634Y-82694309D01*
X43770018Y-82696338D01*
X43770020Y-82696340D01*
X43805808Y-82726798D01*
X43921534Y-82825289D01*
X44097944Y-82923881D01*
X44100922Y-82924849D01*
X44100923Y-82924849D01*
X44287174Y-82985365D01*
X44287177Y-82985366D01*
X44290145Y-82986330D01*
X44293248Y-82986700D01*
X44487707Y-83009889D01*
X44487712Y-83009889D01*
X44490814Y-83010259D01*
X44493934Y-83010019D01*
X44493937Y-83010019D01*
X44689183Y-82994996D01*
X44689187Y-82994995D01*
X44692310Y-82994755D01*
X44695326Y-82993913D01*
X44695331Y-82993912D01*
X44785427Y-82968756D01*
X44886957Y-82940408D01*
X44889744Y-82939000D01*
X44889747Y-82938999D01*
X45064552Y-82850699D01*
X45064553Y-82850698D01*
X45067341Y-82849290D01*
X45226591Y-82724870D01*
X45255093Y-82691851D01*
X45356597Y-82574257D01*
X45358642Y-82571888D01*
X45458464Y-82396170D01*
X45471765Y-82356188D01*
X45521266Y-82207380D01*
X45522254Y-82204410D01*
X45527242Y-82164931D01*
X45547357Y-82005695D01*
X45547357Y-82005691D01*
X45547582Y-82003912D01*
X45547986Y-81975000D01*
X45546568Y-81960542D01*
X46652115Y-81960542D01*
X46669026Y-82161925D01*
X46724729Y-82356188D01*
X46817105Y-82535931D01*
X46942634Y-82694309D01*
X46945018Y-82696338D01*
X46945020Y-82696340D01*
X46980808Y-82726798D01*
X47096534Y-82825289D01*
X47272944Y-82923881D01*
X47275922Y-82924849D01*
X47275923Y-82924849D01*
X47462174Y-82985365D01*
X47462177Y-82985366D01*
X47465145Y-82986330D01*
X47468248Y-82986700D01*
X47662707Y-83009889D01*
X47662712Y-83009889D01*
X47665814Y-83010259D01*
X47668934Y-83010019D01*
X47668937Y-83010019D01*
X47864183Y-82994996D01*
X47864187Y-82994995D01*
X47867310Y-82994755D01*
X47870326Y-82993913D01*
X47870331Y-82993912D01*
X47960427Y-82968756D01*
X48061957Y-82940408D01*
X48064744Y-82939000D01*
X48064747Y-82938999D01*
X48239552Y-82850699D01*
X48239553Y-82850698D01*
X48242341Y-82849290D01*
X48401591Y-82724870D01*
X48430093Y-82691851D01*
X48531597Y-82574257D01*
X48533642Y-82571888D01*
X48633464Y-82396170D01*
X48646765Y-82356188D01*
X48696266Y-82207380D01*
X48697254Y-82204410D01*
X48702242Y-82164931D01*
X48722357Y-82005695D01*
X48722357Y-82005691D01*
X48722582Y-82003912D01*
X48722986Y-81975000D01*
X48721568Y-81960542D01*
X49827115Y-81960542D01*
X49844026Y-82161925D01*
X49899729Y-82356188D01*
X49992105Y-82535931D01*
X50117634Y-82694309D01*
X50120018Y-82696338D01*
X50120020Y-82696340D01*
X50155808Y-82726798D01*
X50271534Y-82825289D01*
X50447944Y-82923881D01*
X50450922Y-82924849D01*
X50450923Y-82924849D01*
X50637174Y-82985365D01*
X50637177Y-82985366D01*
X50640145Y-82986330D01*
X50643248Y-82986700D01*
X50837707Y-83009889D01*
X50837712Y-83009889D01*
X50840814Y-83010259D01*
X50843934Y-83010019D01*
X50843937Y-83010019D01*
X51039183Y-82994996D01*
X51039187Y-82994995D01*
X51042310Y-82994755D01*
X51045326Y-82993913D01*
X51045331Y-82993912D01*
X51135427Y-82968756D01*
X51236957Y-82940408D01*
X51239744Y-82939000D01*
X51239747Y-82938999D01*
X51414552Y-82850699D01*
X51414553Y-82850698D01*
X51417341Y-82849290D01*
X51576591Y-82724870D01*
X51605093Y-82691851D01*
X51706597Y-82574257D01*
X51708642Y-82571888D01*
X51808464Y-82396170D01*
X51821765Y-82356188D01*
X51871266Y-82207380D01*
X51872254Y-82204410D01*
X51877242Y-82164931D01*
X51897357Y-82005695D01*
X51897357Y-82005691D01*
X51897582Y-82003912D01*
X51897986Y-81975000D01*
X51896568Y-81960542D01*
X53002115Y-81960542D01*
X53019026Y-82161925D01*
X53074729Y-82356188D01*
X53167105Y-82535931D01*
X53292634Y-82694309D01*
X53295018Y-82696338D01*
X53295020Y-82696340D01*
X53330808Y-82726798D01*
X53446534Y-82825289D01*
X53622944Y-82923881D01*
X53625922Y-82924849D01*
X53625923Y-82924849D01*
X53812174Y-82985365D01*
X53812177Y-82985366D01*
X53815145Y-82986330D01*
X53818248Y-82986700D01*
X54012707Y-83009889D01*
X54012712Y-83009889D01*
X54015814Y-83010259D01*
X54018934Y-83010019D01*
X54018937Y-83010019D01*
X54214183Y-82994996D01*
X54214187Y-82994995D01*
X54217310Y-82994755D01*
X54220326Y-82993913D01*
X54220331Y-82993912D01*
X54310427Y-82968756D01*
X54411957Y-82940408D01*
X54414744Y-82939000D01*
X54414747Y-82938999D01*
X54589552Y-82850699D01*
X54589553Y-82850698D01*
X54592341Y-82849290D01*
X54751591Y-82724870D01*
X54780093Y-82691851D01*
X54881597Y-82574257D01*
X54883642Y-82571888D01*
X54983464Y-82396170D01*
X54996765Y-82356188D01*
X55046266Y-82207380D01*
X55047254Y-82204410D01*
X55052242Y-82164931D01*
X55072357Y-82005695D01*
X55072357Y-82005691D01*
X55072582Y-82003912D01*
X55072986Y-81975000D01*
X55053265Y-81773873D01*
X55052362Y-81770882D01*
X55052361Y-81770877D01*
X55022140Y-81670781D01*
X54994854Y-81580407D01*
X54993389Y-81577651D01*
X54993387Y-81577647D01*
X54901448Y-81404735D01*
X54901446Y-81404732D01*
X54899978Y-81401971D01*
X54772251Y-81245361D01*
X54616536Y-81116543D01*
X54601739Y-81108542D01*
X54577498Y-81095435D01*
X54438767Y-81020424D01*
X54245713Y-80960664D01*
X54044729Y-80939539D01*
X54041619Y-80939822D01*
X54041618Y-80939822D01*
X53995653Y-80944005D01*
X53843469Y-80957855D01*
X53840472Y-80958737D01*
X53840467Y-80958738D01*
X53652606Y-81014029D01*
X53652603Y-81014030D01*
X53649600Y-81014914D01*
X53636216Y-81021911D01*
X53473277Y-81107093D01*
X53473274Y-81107095D01*
X53470506Y-81108542D01*
X53313008Y-81235174D01*
X53183107Y-81389985D01*
X53085748Y-81567079D01*
X53084803Y-81570057D01*
X53084802Y-81570060D01*
X53025597Y-81756699D01*
X53024642Y-81759710D01*
X53002115Y-81960542D01*
X51896568Y-81960542D01*
X51881149Y-81803290D01*
X51895389Y-81756423D01*
X51899589Y-81751791D01*
X53607135Y-80044245D01*
X53652390Y-80025500D01*
X53686764Y-80025500D01*
X53856499Y-79989422D01*
X53859556Y-79988061D01*
X53859559Y-79988060D01*
X54011960Y-79920206D01*
X54015024Y-79918842D01*
X54155410Y-79816845D01*
X54271522Y-79687889D01*
X54358286Y-79537611D01*
X54359320Y-79534428D01*
X54359322Y-79534424D01*
X54385097Y-79455093D01*
X54411908Y-79372576D01*
X54430047Y-79200000D01*
X54411908Y-79027424D01*
X54385097Y-78944907D01*
X54359322Y-78865576D01*
X54359320Y-78865572D01*
X54358286Y-78862389D01*
X54271522Y-78712111D01*
X54155410Y-78583155D01*
X54015024Y-78481158D01*
X53964286Y-78458568D01*
X53859559Y-78411940D01*
X53859556Y-78411939D01*
X53856499Y-78410578D01*
X53686764Y-78374500D01*
X53513236Y-78374500D01*
X53343501Y-78410578D01*
X53340444Y-78411939D01*
X53340441Y-78411940D01*
X53236530Y-78458205D01*
X53184977Y-78481158D01*
X53044590Y-78583155D01*
X52928478Y-78712111D01*
X52841714Y-78862389D01*
X52840680Y-78865572D01*
X52840678Y-78865576D01*
X52814903Y-78944906D01*
X52788092Y-79027424D01*
X52769953Y-79200000D01*
X52770304Y-79203339D01*
X52770304Y-79203341D01*
X52771866Y-79218204D01*
X52757954Y-79265170D01*
X52753472Y-79270148D01*
X51085279Y-80938341D01*
X51040024Y-80957086D01*
X51033334Y-80956735D01*
X50872840Y-80939866D01*
X50869729Y-80939539D01*
X50866619Y-80939822D01*
X50866618Y-80939822D01*
X50820653Y-80944005D01*
X50668469Y-80957855D01*
X50665472Y-80958737D01*
X50665467Y-80958738D01*
X50477606Y-81014029D01*
X50477603Y-81014030D01*
X50474600Y-81014914D01*
X50461216Y-81021911D01*
X50298277Y-81107093D01*
X50298274Y-81107095D01*
X50295506Y-81108542D01*
X50138008Y-81235174D01*
X50008107Y-81389985D01*
X49910748Y-81567079D01*
X49909803Y-81570057D01*
X49909802Y-81570060D01*
X49850597Y-81756699D01*
X49849642Y-81759710D01*
X49827115Y-81960542D01*
X48721568Y-81960542D01*
X48703265Y-81773873D01*
X48702362Y-81770882D01*
X48702361Y-81770877D01*
X48672140Y-81670781D01*
X48644854Y-81580407D01*
X48643389Y-81577651D01*
X48643387Y-81577647D01*
X48551448Y-81404735D01*
X48551446Y-81404732D01*
X48549978Y-81401971D01*
X48422251Y-81245361D01*
X48266536Y-81116543D01*
X48251739Y-81108542D01*
X48227498Y-81095435D01*
X48088767Y-81020424D01*
X47895713Y-80960664D01*
X47694729Y-80939539D01*
X47691619Y-80939822D01*
X47691618Y-80939822D01*
X47645653Y-80944005D01*
X47493469Y-80957855D01*
X47490472Y-80958737D01*
X47490467Y-80958738D01*
X47302606Y-81014029D01*
X47302603Y-81014030D01*
X47299600Y-81014914D01*
X47286216Y-81021911D01*
X47123277Y-81107093D01*
X47123274Y-81107095D01*
X47120506Y-81108542D01*
X46963008Y-81235174D01*
X46833107Y-81389985D01*
X46735748Y-81567079D01*
X46734803Y-81570057D01*
X46734802Y-81570060D01*
X46675597Y-81756699D01*
X46674642Y-81759710D01*
X46652115Y-81960542D01*
X45546568Y-81960542D01*
X45528265Y-81773873D01*
X45527362Y-81770882D01*
X45527361Y-81770877D01*
X45497140Y-81670781D01*
X45469854Y-81580407D01*
X45468389Y-81577651D01*
X45468387Y-81577647D01*
X45376448Y-81404735D01*
X45376446Y-81404732D01*
X45374978Y-81401971D01*
X45247251Y-81245361D01*
X45091536Y-81116543D01*
X45076739Y-81108542D01*
X45052498Y-81095435D01*
X44913767Y-81020424D01*
X44720713Y-80960664D01*
X44519729Y-80939539D01*
X44516619Y-80939822D01*
X44516618Y-80939822D01*
X44470653Y-80944005D01*
X44318469Y-80957855D01*
X44315472Y-80958737D01*
X44315467Y-80958738D01*
X44127606Y-81014029D01*
X44127603Y-81014030D01*
X44124600Y-81014914D01*
X44111216Y-81021911D01*
X43948277Y-81107093D01*
X43948274Y-81107095D01*
X43945506Y-81108542D01*
X43788008Y-81235174D01*
X43658107Y-81389985D01*
X43560748Y-81567079D01*
X43559803Y-81570057D01*
X43559802Y-81570060D01*
X43500597Y-81756699D01*
X43499642Y-81759710D01*
X43477115Y-81960542D01*
X42371568Y-81960542D01*
X42353265Y-81773873D01*
X42352362Y-81770882D01*
X42352361Y-81770877D01*
X42322140Y-81670781D01*
X42294854Y-81580407D01*
X42293389Y-81577651D01*
X42293387Y-81577647D01*
X42201448Y-81404735D01*
X42201446Y-81404732D01*
X42199978Y-81401971D01*
X42072251Y-81245361D01*
X41916536Y-81116543D01*
X41901739Y-81108542D01*
X41877498Y-81095435D01*
X41738767Y-81020424D01*
X41545713Y-80960664D01*
X41344729Y-80939539D01*
X41341619Y-80939822D01*
X41341618Y-80939822D01*
X41295653Y-80944005D01*
X41143469Y-80957855D01*
X41140472Y-80958737D01*
X41140467Y-80958738D01*
X40952606Y-81014029D01*
X40952603Y-81014030D01*
X40949600Y-81014914D01*
X40936216Y-81021911D01*
X40773277Y-81107093D01*
X40773274Y-81107095D01*
X40770506Y-81108542D01*
X40613008Y-81235174D01*
X40483107Y-81389985D01*
X40385748Y-81567079D01*
X40384803Y-81570057D01*
X40384802Y-81570060D01*
X40325597Y-81756699D01*
X40324642Y-81759710D01*
X40302115Y-81960542D01*
X39196568Y-81960542D01*
X39178265Y-81773873D01*
X39177362Y-81770882D01*
X39177361Y-81770877D01*
X39147140Y-81670781D01*
X39119854Y-81580407D01*
X39118389Y-81577651D01*
X39118387Y-81577647D01*
X39026448Y-81404735D01*
X39026446Y-81404732D01*
X39024978Y-81401971D01*
X38897251Y-81245361D01*
X38741536Y-81116543D01*
X38726739Y-81108542D01*
X38702498Y-81095435D01*
X38563767Y-81020424D01*
X38370713Y-80960664D01*
X38169729Y-80939539D01*
X38166619Y-80939822D01*
X38166618Y-80939822D01*
X38120653Y-80944005D01*
X37968469Y-80957855D01*
X37965472Y-80958737D01*
X37965467Y-80958738D01*
X37777606Y-81014029D01*
X37777603Y-81014030D01*
X37774600Y-81014914D01*
X37761216Y-81021911D01*
X37598277Y-81107093D01*
X37598274Y-81107095D01*
X37595506Y-81108542D01*
X37438008Y-81235174D01*
X37308107Y-81389985D01*
X37210748Y-81567079D01*
X37209803Y-81570057D01*
X37209802Y-81570060D01*
X37150597Y-81756699D01*
X37149642Y-81759710D01*
X37127115Y-81960542D01*
X36046162Y-81960542D01*
X42526824Y-75479880D01*
X42533118Y-75474360D01*
X42556644Y-75456308D01*
X42559971Y-75453755D01*
X42583129Y-75423575D01*
X42583135Y-75423569D01*
X42649665Y-75336864D01*
X42652218Y-75333537D01*
X42710207Y-75193540D01*
X42715584Y-75152698D01*
X42725020Y-75081024D01*
X42727779Y-75081387D01*
X42727781Y-75081383D01*
X42725020Y-75081019D01*
X42729438Y-75047459D01*
X42729985Y-75043304D01*
X42725567Y-75009745D01*
X42725020Y-75001392D01*
X42725020Y-70432741D01*
X52569991Y-70432741D01*
X52584275Y-70773546D01*
X52584548Y-70775307D01*
X52584548Y-70775311D01*
X52603947Y-70900617D01*
X52636459Y-71110634D01*
X52636929Y-71112364D01*
X52669834Y-71233474D01*
X52725892Y-71439805D01*
X52851461Y-71756955D01*
X53011600Y-72058132D01*
X53204312Y-72339581D01*
X53205475Y-72340928D01*
X53205477Y-72340931D01*
X53290398Y-72439313D01*
X53427196Y-72597795D01*
X53677474Y-72829555D01*
X53952026Y-73031972D01*
X54247431Y-73202524D01*
X54560005Y-73339084D01*
X54885854Y-73439951D01*
X54887605Y-73440285D01*
X54887613Y-73440287D01*
X55219148Y-73503531D01*
X55219153Y-73503532D01*
X55220916Y-73503868D01*
X55561014Y-73530037D01*
X55901910Y-73518133D01*
X56145022Y-73482233D01*
X56237582Y-73468565D01*
X56237585Y-73468564D01*
X56239355Y-73468303D01*
X56241077Y-73467848D01*
X56241082Y-73467847D01*
X56567416Y-73381626D01*
X56569142Y-73381170D01*
X56887161Y-73257818D01*
X57189448Y-73099786D01*
X57190933Y-73098785D01*
X57190937Y-73098782D01*
X57470744Y-72910050D01*
X57470751Y-72910044D01*
X57472236Y-72909043D01*
X57507279Y-72879219D01*
X57730633Y-72689130D01*
X57730637Y-72689126D01*
X57731999Y-72687967D01*
X57733221Y-72686666D01*
X57733227Y-72686660D01*
X57964277Y-72440616D01*
X57965501Y-72439313D01*
X57966563Y-72437893D01*
X57966570Y-72437885D01*
X58168763Y-72167608D01*
X58168767Y-72167602D01*
X58169830Y-72166181D01*
X58234153Y-72056546D01*
X58341534Y-71873518D01*
X58342440Y-71871974D01*
X58481179Y-71560361D01*
X58584319Y-71235224D01*
X58650573Y-70900617D01*
X58650721Y-70898858D01*
X58650722Y-70898849D01*
X58679023Y-70561818D01*
X58679023Y-70561814D01*
X58679116Y-70560709D01*
X58680307Y-70475400D01*
X58661266Y-70134828D01*
X58654102Y-70092468D01*
X58604679Y-69800263D01*
X58604381Y-69798501D01*
X58591980Y-69755251D01*
X58510852Y-69472326D01*
X58510851Y-69472322D01*
X58510360Y-69470611D01*
X58493121Y-69428785D01*
X58478313Y-69392860D01*
X58380375Y-69155245D01*
X58216047Y-68856334D01*
X58019424Y-68577603D01*
X57792956Y-68322526D01*
X57539467Y-68094283D01*
X57538011Y-68093240D01*
X57538004Y-68093235D01*
X57263576Y-67896765D01*
X57262115Y-67895719D01*
X56964358Y-67729308D01*
X56649908Y-67597125D01*
X56648196Y-67596621D01*
X56324406Y-67501325D01*
X56324399Y-67501323D01*
X56322682Y-67500818D01*
X56320918Y-67500507D01*
X56320914Y-67500506D01*
X56171709Y-67474197D01*
X55986760Y-67441586D01*
X55843860Y-67432595D01*
X55648101Y-67420278D01*
X55648093Y-67420278D01*
X55646330Y-67420167D01*
X55418150Y-67431327D01*
X55307408Y-67436743D01*
X55307405Y-67436743D01*
X55305633Y-67436830D01*
X55303882Y-67437114D01*
X55303878Y-67437114D01*
X54970683Y-67491080D01*
X54970681Y-67491081D01*
X54968918Y-67491366D01*
X54967194Y-67491847D01*
X54967191Y-67491848D01*
X54933249Y-67501325D01*
X54640379Y-67583096D01*
X54638729Y-67583763D01*
X54638728Y-67583763D01*
X54325769Y-67710207D01*
X54325764Y-67710209D01*
X54324114Y-67710876D01*
X54322550Y-67711722D01*
X54322545Y-67711724D01*
X54025624Y-67872268D01*
X54025618Y-67872272D01*
X54024062Y-67873113D01*
X54022608Y-67874123D01*
X54022604Y-67874126D01*
X53745432Y-68066765D01*
X53745427Y-68066769D01*
X53743965Y-68067785D01*
X53742619Y-68068963D01*
X53742613Y-68068968D01*
X53712320Y-68095488D01*
X53487314Y-68292467D01*
X53486104Y-68293792D01*
X53486101Y-68293795D01*
X53384398Y-68405174D01*
X53257307Y-68544356D01*
X53056811Y-68820315D01*
X53035459Y-68857902D01*
X52922527Y-69056699D01*
X52888326Y-69116903D01*
X52887621Y-69118549D01*
X52887619Y-69118552D01*
X52812630Y-69293514D01*
X52753951Y-69430423D01*
X52753435Y-69432133D01*
X52753434Y-69432135D01*
X52741300Y-69472326D01*
X52655361Y-69756969D01*
X52655039Y-69758721D01*
X52655038Y-69758727D01*
X52647738Y-69798501D01*
X52593785Y-70092468D01*
X52593661Y-70094245D01*
X52593660Y-70094251D01*
X52590823Y-70134828D01*
X52569991Y-70432741D01*
X42725020Y-70432741D01*
X42725020Y-53571432D01*
X42725567Y-53563079D01*
X42729438Y-53533675D01*
X42729985Y-53529520D01*
X42725020Y-53491805D01*
X42727781Y-53491441D01*
X42727779Y-53491437D01*
X42725020Y-53491800D01*
X42710755Y-53383443D01*
X42710754Y-53383440D01*
X42710207Y-53379284D01*
X42652218Y-53239287D01*
X42583132Y-53149252D01*
X42583129Y-53149249D01*
X42583126Y-53149245D01*
X42562527Y-53122399D01*
X42562524Y-53122396D01*
X42559971Y-53119069D01*
X42533117Y-53098463D01*
X42526824Y-53092944D01*
X29573685Y-40139805D01*
X29554940Y-40094550D01*
X29555445Y-40086529D01*
X29572857Y-39948695D01*
X29572857Y-39948691D01*
X29573082Y-39946912D01*
X29573486Y-39918000D01*
X29553765Y-39716873D01*
X29552862Y-39713882D01*
X29552861Y-39713877D01*
X29524560Y-39620140D01*
X29495354Y-39523407D01*
X29493889Y-39520651D01*
X29493887Y-39520647D01*
X29401948Y-39347735D01*
X29401946Y-39347732D01*
X29400478Y-39344971D01*
X29272751Y-39188361D01*
X29117036Y-39059543D01*
X29102239Y-39051542D01*
X29077998Y-39038435D01*
X28939267Y-38963424D01*
X28746213Y-38903664D01*
X28545229Y-38882539D01*
X28542119Y-38882822D01*
X28542118Y-38882822D01*
X28496153Y-38887005D01*
X28343969Y-38900855D01*
X28340972Y-38901737D01*
X28340967Y-38901738D01*
X28153106Y-38957029D01*
X28153103Y-38957030D01*
X28150100Y-38957914D01*
X28136716Y-38964911D01*
X27973777Y-39050093D01*
X27973774Y-39050095D01*
X27971006Y-39051542D01*
X27813508Y-39178174D01*
X27683607Y-39332985D01*
X27586248Y-39510079D01*
X27585303Y-39513057D01*
X27585302Y-39513060D01*
X27526087Y-39699730D01*
X27525142Y-39702710D01*
X27502615Y-39903542D01*
X27519526Y-40104925D01*
X27575229Y-40299188D01*
X27667605Y-40478931D01*
X27793134Y-40637309D01*
X27795518Y-40639338D01*
X27795520Y-40639340D01*
X27831308Y-40669798D01*
X27947034Y-40768289D01*
X28123444Y-40866881D01*
X28126422Y-40867849D01*
X28126423Y-40867849D01*
X28312674Y-40928365D01*
X28312677Y-40928366D01*
X28315645Y-40929330D01*
X28318748Y-40929700D01*
X28513207Y-40952889D01*
X28513212Y-40952889D01*
X28516314Y-40953259D01*
X28519434Y-40953019D01*
X28519437Y-40953019D01*
X28660488Y-40942166D01*
X28712662Y-40938151D01*
X28762827Y-40956707D01*
X41555275Y-53749155D01*
X41574020Y-53794410D01*
X41574020Y-55287630D01*
X41555275Y-55332885D01*
X41510020Y-55351630D01*
X41464765Y-55332885D01*
X29573685Y-43441805D01*
X29554940Y-43396550D01*
X29555445Y-43388529D01*
X29572857Y-43250695D01*
X29572857Y-43250691D01*
X29573082Y-43248912D01*
X29573486Y-43220000D01*
X29553765Y-43018873D01*
X29552862Y-43015882D01*
X29552861Y-43015877D01*
X29524560Y-42922140D01*
X29495354Y-42825407D01*
X29493889Y-42822651D01*
X29493887Y-42822647D01*
X29401948Y-42649735D01*
X29401946Y-42649732D01*
X29400478Y-42646971D01*
X29272751Y-42490361D01*
X29117036Y-42361543D01*
X29102239Y-42353542D01*
X29077998Y-42340435D01*
X28939267Y-42265424D01*
X28746213Y-42205664D01*
X28545229Y-42184539D01*
X28542119Y-42184822D01*
X28542118Y-42184822D01*
X28496153Y-42189005D01*
X28343969Y-42202855D01*
X28340972Y-42203737D01*
X28340967Y-42203738D01*
X28153106Y-42259029D01*
X28153103Y-42259030D01*
X28150100Y-42259914D01*
X28136716Y-42266911D01*
X27973777Y-42352093D01*
X27973774Y-42352095D01*
X27971006Y-42353542D01*
X27813508Y-42480174D01*
X27683607Y-42634985D01*
X27586248Y-42812079D01*
X27585303Y-42815057D01*
X27585302Y-42815060D01*
X27526087Y-43001730D01*
X27525142Y-43004710D01*
X27502615Y-43205542D01*
X27519526Y-43406925D01*
X27575229Y-43601188D01*
X27667605Y-43780931D01*
X27793134Y-43939309D01*
X27795518Y-43941338D01*
X27795520Y-43941340D01*
X27831308Y-43971798D01*
X27947034Y-44070289D01*
X28123444Y-44168881D01*
X28126422Y-44169849D01*
X28126423Y-44169849D01*
X28312674Y-44230365D01*
X28312677Y-44230366D01*
X28315645Y-44231330D01*
X28318748Y-44231700D01*
X28513207Y-44254889D01*
X28513212Y-44254889D01*
X28516314Y-44255259D01*
X28519434Y-44255019D01*
X28519437Y-44255019D01*
X28660488Y-44244166D01*
X28712662Y-44240151D01*
X28762827Y-44258707D01*
X40605755Y-56101635D01*
X40624500Y-56146890D01*
X40624500Y-74385110D01*
X40605755Y-74430365D01*
X29280365Y-85755755D01*
X29235110Y-85774500D01*
X27914890Y-85774500D01*
X27869635Y-85755755D01*
X27544245Y-85430365D01*
X27525500Y-85385110D01*
X27525500Y-84813687D01*
X27538020Y-84775663D01*
X27541151Y-84771425D01*
X27602634Y-84688184D01*
X27604219Y-84683671D01*
X27646227Y-84564049D01*
X27646228Y-84564047D01*
X27647519Y-84560369D01*
X27650500Y-84528834D01*
X27650500Y-82021166D01*
X27647519Y-81989631D01*
X27641759Y-81973227D01*
X27604219Y-81866329D01*
X27604219Y-81866328D01*
X27602634Y-81861816D01*
X27522150Y-81752850D01*
X27518301Y-81750007D01*
X27417031Y-81675207D01*
X27417029Y-81675206D01*
X27413184Y-81672366D01*
X27408671Y-81670781D01*
X27289049Y-81628773D01*
X27289047Y-81628772D01*
X27285369Y-81627481D01*
X27253834Y-81624500D01*
X26646166Y-81624500D01*
X26614631Y-81627481D01*
X26610953Y-81628772D01*
X26610951Y-81628773D01*
X26491329Y-81670781D01*
X26486816Y-81672366D01*
X26482971Y-81675206D01*
X26482969Y-81675207D01*
X26381699Y-81750007D01*
X26377850Y-81752850D01*
X26297366Y-81861816D01*
X26295781Y-81866328D01*
X26295781Y-81866329D01*
X26258242Y-81973227D01*
X26252481Y-81989631D01*
X26249500Y-82021166D01*
X26249500Y-84528834D01*
X26252481Y-84560369D01*
X26253772Y-84564047D01*
X26253773Y-84564049D01*
X26295781Y-84683671D01*
X26297366Y-84688184D01*
X26358850Y-84771425D01*
X26361980Y-84775663D01*
X26374500Y-84813687D01*
X26374500Y-85608088D01*
X26373953Y-85616441D01*
X26369535Y-85650000D01*
X26370082Y-85654155D01*
X26374500Y-85687714D01*
X26371739Y-85688078D01*
X26371741Y-85688083D01*
X26374500Y-85687720D01*
X26385925Y-85774500D01*
X26389313Y-85800236D01*
X26390918Y-85804110D01*
X26390918Y-85804111D01*
X26438728Y-85919534D01*
X26438729Y-85919535D01*
X26447302Y-85940233D01*
X26449853Y-85943557D01*
X26516385Y-86030265D01*
X26516391Y-86030271D01*
X26539549Y-86060451D01*
X26542876Y-86063004D01*
X26566402Y-86081056D01*
X26572696Y-86086576D01*
X27213424Y-86727304D01*
X27218943Y-86733597D01*
X27239549Y-86760451D01*
X27269729Y-86783609D01*
X27269732Y-86783612D01*
X27278361Y-86790233D01*
X27359767Y-86852698D01*
X27499764Y-86910687D01*
X27503920Y-86911234D01*
X27503923Y-86911235D01*
X27612280Y-86925500D01*
X27611917Y-86928259D01*
X27611921Y-86928261D01*
X27612285Y-86925500D01*
X27650000Y-86930465D01*
X27683559Y-86926047D01*
X27691912Y-86925500D01*
X29298934Y-86925500D01*
X29344189Y-86944245D01*
X29362934Y-86989500D01*
X29344189Y-87034755D01*
X29273189Y-87105755D01*
X29227934Y-87124500D01*
X26664890Y-87124500D01*
X26619635Y-87105755D01*
X25544245Y-86030365D01*
X25525500Y-85985110D01*
X25525500Y-84813687D01*
X25538020Y-84775663D01*
X25541151Y-84771425D01*
X25602634Y-84688184D01*
X25604219Y-84683671D01*
X25646227Y-84564049D01*
X25646228Y-84564047D01*
X25647519Y-84560369D01*
X25650500Y-84528834D01*
X25650500Y-82021166D01*
X25647519Y-81989631D01*
X25641759Y-81973227D01*
X25604219Y-81866329D01*
X25604219Y-81866328D01*
X25602634Y-81861816D01*
X25522150Y-81752850D01*
X25518301Y-81750007D01*
X25417031Y-81675207D01*
X25417029Y-81675206D01*
X25413184Y-81672366D01*
X25408671Y-81670781D01*
X25289049Y-81628773D01*
X25289047Y-81628772D01*
X25285369Y-81627481D01*
X25253834Y-81624500D01*
X24646166Y-81624500D01*
X24614631Y-81627481D01*
X24610953Y-81628772D01*
X24610951Y-81628773D01*
X24491329Y-81670781D01*
X24486816Y-81672366D01*
X24482971Y-81675206D01*
X24482969Y-81675207D01*
X24381699Y-81750007D01*
X24377850Y-81752850D01*
X24297366Y-81861816D01*
X24295781Y-81866328D01*
X24295781Y-81866329D01*
X24258242Y-81973227D01*
X24252481Y-81989631D01*
X24249500Y-82021166D01*
X24249500Y-84528834D01*
X17650500Y-84528834D01*
X17650500Y-82021166D01*
X17647519Y-81989631D01*
X17641759Y-81973227D01*
X17604219Y-81866329D01*
X17604219Y-81866328D01*
X17602634Y-81861816D01*
X17522150Y-81752850D01*
X17518301Y-81750007D01*
X17417031Y-81675207D01*
X17417029Y-81675206D01*
X17413184Y-81672366D01*
X17408671Y-81670781D01*
X17289049Y-81628773D01*
X17289047Y-81628772D01*
X17285369Y-81627481D01*
X17253834Y-81624500D01*
X16646166Y-81624500D01*
X16614631Y-81627481D01*
X16610953Y-81628772D01*
X16610951Y-81628773D01*
X16491329Y-81670781D01*
X16486816Y-81672366D01*
X16482971Y-81675206D01*
X16482969Y-81675207D01*
X16381699Y-81750007D01*
X16377850Y-81752850D01*
X16297366Y-81861816D01*
X16295781Y-81866328D01*
X16295781Y-81866329D01*
X16258242Y-81973227D01*
X16252481Y-81989631D01*
X16249500Y-82021166D01*
X16249500Y-84528834D01*
X15650500Y-84528834D01*
X15650500Y-82021166D01*
X15647519Y-81989631D01*
X15641759Y-81973227D01*
X15604219Y-81866329D01*
X15604219Y-81866328D01*
X15602634Y-81861816D01*
X15522150Y-81752850D01*
X15518301Y-81750007D01*
X15417031Y-81675207D01*
X15417029Y-81675206D01*
X15413184Y-81672366D01*
X15408671Y-81670781D01*
X15289049Y-81628773D01*
X15289047Y-81628772D01*
X15285369Y-81627481D01*
X15253834Y-81624500D01*
X14646166Y-81624500D01*
X14614631Y-81627481D01*
X14610953Y-81628772D01*
X14610951Y-81628773D01*
X14491329Y-81670781D01*
X14486816Y-81672366D01*
X14482971Y-81675206D01*
X14482969Y-81675207D01*
X14381699Y-81750007D01*
X14377850Y-81752850D01*
X14297366Y-81861816D01*
X14295781Y-81866328D01*
X14295781Y-81866329D01*
X14258242Y-81973227D01*
X14252481Y-81989631D01*
X14249500Y-82021166D01*
X14249500Y-84528834D01*
X14252481Y-84560369D01*
X14253772Y-84564047D01*
X14253773Y-84564049D01*
X14295781Y-84683671D01*
X14297366Y-84688184D01*
X14358850Y-84771425D01*
X14361980Y-84775663D01*
X14374500Y-84813687D01*
X14374500Y-86830900D01*
X14358062Y-86873723D01*
X14278478Y-86962111D01*
X14191714Y-87112389D01*
X14190680Y-87115572D01*
X14190678Y-87115576D01*
X14187779Y-87124500D01*
X14138092Y-87277424D01*
X14119953Y-87450000D01*
X6527070Y-87450000D01*
X6419884Y-87247563D01*
X6419883Y-87247561D01*
X6419078Y-87246041D01*
X6228812Y-86965018D01*
X6213541Y-86942463D01*
X6213539Y-86942460D01*
X6212578Y-86941041D01*
X6208792Y-86936576D01*
X5975457Y-86661438D01*
X5974346Y-86660128D01*
X5707168Y-86406586D01*
X5705801Y-86405544D01*
X5705792Y-86405537D01*
X5415554Y-86184435D01*
X5414172Y-86183382D01*
X5098783Y-85993127D01*
X4940240Y-85919534D01*
X4766265Y-85838777D01*
X4766255Y-85838773D01*
X4764691Y-85838047D01*
X4763046Y-85837490D01*
X4763043Y-85837489D01*
X4652983Y-85800236D01*
X4415805Y-85719956D01*
X4261886Y-85685833D01*
X4057895Y-85640608D01*
X4057887Y-85640607D01*
X4056206Y-85640234D01*
X3840689Y-85616441D01*
X3691806Y-85600004D01*
X3691800Y-85600004D01*
X3690100Y-85599816D01*
X3551352Y-85599574D01*
X3323491Y-85599176D01*
X3321770Y-85599173D01*
X3062506Y-85626880D01*
X2957237Y-85638130D01*
X2957234Y-85638130D01*
X2955526Y-85638313D01*
X2953845Y-85638679D01*
X2953842Y-85638680D01*
X2727284Y-85688078D01*
X2595650Y-85716779D01*
X2479163Y-85755755D01*
X2247991Y-85833104D01*
X2247987Y-85833106D01*
X2246354Y-85833652D01*
X2244786Y-85834373D01*
X2244784Y-85834374D01*
X1913286Y-85986846D01*
X1911723Y-85987565D01*
X1910253Y-85988445D01*
X1910245Y-85988449D01*
X1597169Y-86175822D01*
X1595672Y-86176718D01*
X1301898Y-86398897D01*
X1300635Y-86400087D01*
X1300634Y-86400088D01*
X1292479Y-86407773D01*
X1033837Y-86651505D01*
X1032714Y-86652820D01*
X1032712Y-86652822D01*
X796050Y-86929918D01*
X794626Y-86931585D01*
X793653Y-86933012D01*
X793651Y-86933014D01*
X760794Y-86981181D01*
X587062Y-87235862D01*
X413574Y-87560776D01*
X412935Y-87562367D01*
X412933Y-87562370D01*
X341637Y-87739727D01*
X276192Y-87902526D01*
X275724Y-87904192D01*
X275723Y-87904194D01*
X255612Y-87975741D01*
X225320Y-88014235D01*
X176681Y-88020034D01*
X138187Y-87989742D01*
X130000Y-87958422D01*
X130000Y-84575000D01*
X1594953Y-84575000D01*
X1595304Y-84578339D01*
X1610074Y-84718858D01*
X1613092Y-84747576D01*
X1627949Y-84793301D01*
X1665678Y-84909424D01*
X1665680Y-84909428D01*
X1666714Y-84912611D01*
X1753478Y-85062889D01*
X1869590Y-85191845D01*
X2009976Y-85293842D01*
X2013040Y-85295206D01*
X2165441Y-85363060D01*
X2165444Y-85363061D01*
X2168501Y-85364422D01*
X2338236Y-85400500D01*
X2511764Y-85400500D01*
X2681499Y-85364422D01*
X2684556Y-85363061D01*
X2684559Y-85363060D01*
X2836960Y-85295206D01*
X2840024Y-85293842D01*
X2980410Y-85191845D01*
X2998571Y-85171675D01*
X3046131Y-85150500D01*
X3608088Y-85150500D01*
X3616441Y-85151047D01*
X3650000Y-85155465D01*
X3687714Y-85150500D01*
X3688078Y-85153261D01*
X3688083Y-85153259D01*
X3687720Y-85150500D01*
X3796077Y-85136235D01*
X3796080Y-85136234D01*
X3800236Y-85135687D01*
X3940233Y-85077698D01*
X3950871Y-85069535D01*
X4030268Y-85008612D01*
X4030271Y-85008610D01*
X4030271Y-85008609D01*
X4057124Y-84988004D01*
X4060451Y-84985451D01*
X4081057Y-84958597D01*
X4086576Y-84952304D01*
X4267455Y-84771425D01*
X4312710Y-84752680D01*
X4357965Y-84771425D01*
X4364190Y-84778656D01*
X4377850Y-84797150D01*
X4381699Y-84799993D01*
X4482969Y-84874793D01*
X4482971Y-84874794D01*
X4486816Y-84877634D01*
X4491328Y-84879219D01*
X4491329Y-84879219D01*
X4610951Y-84921227D01*
X4610953Y-84921228D01*
X4614631Y-84922519D01*
X4646166Y-84925500D01*
X5253834Y-84925500D01*
X5285369Y-84922519D01*
X5289047Y-84921228D01*
X5289049Y-84921227D01*
X5408671Y-84879219D01*
X5408672Y-84879219D01*
X5413184Y-84877634D01*
X5417029Y-84874794D01*
X5417031Y-84874793D01*
X5518301Y-84799993D01*
X5522150Y-84797150D01*
X5602634Y-84688184D01*
X5604219Y-84683671D01*
X5646227Y-84564049D01*
X5646228Y-84564047D01*
X5647519Y-84560369D01*
X5650500Y-84528834D01*
X6249500Y-84528834D01*
X6252481Y-84560369D01*
X6253772Y-84564047D01*
X6253773Y-84564049D01*
X6295781Y-84683671D01*
X6297366Y-84688184D01*
X6377850Y-84797150D01*
X6381699Y-84799993D01*
X6482969Y-84874793D01*
X6482971Y-84874794D01*
X6486816Y-84877634D01*
X6491328Y-84879219D01*
X6491329Y-84879219D01*
X6610951Y-84921227D01*
X6610953Y-84921228D01*
X6614631Y-84922519D01*
X6646166Y-84925500D01*
X7253834Y-84925500D01*
X7267384Y-84924219D01*
X7281488Y-84922886D01*
X7281489Y-84922886D01*
X7285369Y-84922519D01*
X7289047Y-84921227D01*
X7289053Y-84921226D01*
X7320108Y-84910320D01*
X7369017Y-84913010D01*
X7386569Y-84925449D01*
X7413424Y-84952304D01*
X7418943Y-84958597D01*
X7439549Y-84985451D01*
X7469729Y-85008609D01*
X7469732Y-85008612D01*
X7549129Y-85069535D01*
X7559767Y-85077698D01*
X7699764Y-85135687D01*
X7703920Y-85136234D01*
X7703923Y-85136235D01*
X7812280Y-85150500D01*
X7811917Y-85153259D01*
X7811921Y-85153261D01*
X7812285Y-85150500D01*
X7850000Y-85155465D01*
X7883559Y-85151047D01*
X7891912Y-85150500D01*
X8803869Y-85150500D01*
X8851429Y-85171675D01*
X8869590Y-85191845D01*
X9009976Y-85293842D01*
X9013040Y-85295206D01*
X9165441Y-85363060D01*
X9165444Y-85363061D01*
X9168501Y-85364422D01*
X9338236Y-85400500D01*
X9511764Y-85400500D01*
X9681499Y-85364422D01*
X9684556Y-85363061D01*
X9684559Y-85363060D01*
X9836960Y-85295206D01*
X9840024Y-85293842D01*
X9980410Y-85191845D01*
X10096522Y-85062889D01*
X10183286Y-84912611D01*
X10184320Y-84909428D01*
X10184322Y-84909424D01*
X10222051Y-84793301D01*
X10236908Y-84747576D01*
X10239927Y-84718858D01*
X10254696Y-84578339D01*
X10255047Y-84575000D01*
X10236908Y-84402424D01*
X10210097Y-84319907D01*
X10184322Y-84240576D01*
X10184320Y-84240572D01*
X10183286Y-84237389D01*
X10096522Y-84087111D01*
X9980410Y-83958155D01*
X9840024Y-83856158D01*
X9789286Y-83833568D01*
X9684559Y-83786940D01*
X9684556Y-83786939D01*
X9681499Y-83785578D01*
X9511764Y-83749500D01*
X9338236Y-83749500D01*
X9168501Y-83785578D01*
X9165444Y-83786939D01*
X9165441Y-83786940D01*
X9061530Y-83833205D01*
X9009977Y-83856158D01*
X8869590Y-83958155D01*
X8851429Y-83978325D01*
X8803869Y-83999500D01*
X8114890Y-83999500D01*
X8069635Y-83980755D01*
X7669245Y-83580365D01*
X7650500Y-83535110D01*
X7650500Y-82021166D01*
X7647519Y-81989631D01*
X7641759Y-81973227D01*
X7604219Y-81866329D01*
X7604219Y-81866328D01*
X7602634Y-81861816D01*
X7522150Y-81752850D01*
X7518301Y-81750007D01*
X7417031Y-81675207D01*
X7417029Y-81675206D01*
X7413184Y-81672366D01*
X7408671Y-81670781D01*
X7289049Y-81628773D01*
X7289047Y-81628772D01*
X7285369Y-81627481D01*
X7253834Y-81624500D01*
X6646166Y-81624500D01*
X6614631Y-81627481D01*
X6610953Y-81628772D01*
X6610951Y-81628773D01*
X6491329Y-81670781D01*
X6486816Y-81672366D01*
X6482971Y-81675206D01*
X6482969Y-81675207D01*
X6381699Y-81750007D01*
X6377850Y-81752850D01*
X6297366Y-81861816D01*
X6295781Y-81866328D01*
X6295781Y-81866329D01*
X6258242Y-81973227D01*
X6252481Y-81989631D01*
X6249500Y-82021166D01*
X6249500Y-84528834D01*
X5650500Y-84528834D01*
X5650500Y-82021166D01*
X5647519Y-81989631D01*
X5641759Y-81973227D01*
X5604219Y-81866329D01*
X5604219Y-81866328D01*
X5602634Y-81861816D01*
X5522150Y-81752850D01*
X5518301Y-81750007D01*
X5417031Y-81675207D01*
X5417029Y-81675206D01*
X5413184Y-81672366D01*
X5408671Y-81670781D01*
X5289049Y-81628773D01*
X5289047Y-81628772D01*
X5285369Y-81627481D01*
X5253834Y-81624500D01*
X4646166Y-81624500D01*
X4614631Y-81627481D01*
X4610953Y-81628772D01*
X4610951Y-81628773D01*
X4491329Y-81670781D01*
X4486816Y-81672366D01*
X4482971Y-81675206D01*
X4482969Y-81675207D01*
X4381699Y-81750007D01*
X4377850Y-81752850D01*
X4297366Y-81861816D01*
X4295781Y-81866328D01*
X4295781Y-81866329D01*
X4258242Y-81973227D01*
X4252481Y-81989631D01*
X4249500Y-82021166D01*
X4249500Y-83135110D01*
X4230755Y-83180365D01*
X3430365Y-83980755D01*
X3385110Y-83999500D01*
X3046131Y-83999500D01*
X2998571Y-83978325D01*
X2980410Y-83958155D01*
X2840024Y-83856158D01*
X2789286Y-83833568D01*
X2684559Y-83786940D01*
X2684556Y-83786939D01*
X2681499Y-83785578D01*
X2511764Y-83749500D01*
X2338236Y-83749500D01*
X2168501Y-83785578D01*
X2165444Y-83786939D01*
X2165441Y-83786940D01*
X2061530Y-83833205D01*
X2009977Y-83856158D01*
X1869590Y-83958155D01*
X1753478Y-84087111D01*
X1666714Y-84237389D01*
X1665680Y-84240572D01*
X1665678Y-84240576D01*
X1639903Y-84319907D01*
X1613092Y-84402424D01*
X1594953Y-84575000D01*
X130000Y-84575000D01*
X130000Y-80228834D01*
X1499500Y-80228834D01*
X1502481Y-80260369D01*
X1547366Y-80388184D01*
X1627850Y-80497150D01*
X1631699Y-80499993D01*
X1732969Y-80574793D01*
X1732971Y-80574794D01*
X1736816Y-80577634D01*
X1741328Y-80579219D01*
X1741329Y-80579219D01*
X1860951Y-80621227D01*
X1860953Y-80621228D01*
X1864631Y-80622519D01*
X1896166Y-80625500D01*
X3303834Y-80625500D01*
X3335369Y-80622519D01*
X3339047Y-80621228D01*
X3339049Y-80621227D01*
X3458671Y-80579219D01*
X3458672Y-80579219D01*
X3463184Y-80577634D01*
X3467029Y-80574794D01*
X3467031Y-80574793D01*
X3568301Y-80499993D01*
X3572150Y-80497150D01*
X3652634Y-80388184D01*
X3697519Y-80260369D01*
X3700500Y-80228834D01*
X8199500Y-80228834D01*
X8202481Y-80260369D01*
X8247366Y-80388184D01*
X8327850Y-80497150D01*
X8331699Y-80499993D01*
X8432969Y-80574793D01*
X8432971Y-80574794D01*
X8436816Y-80577634D01*
X8441328Y-80579219D01*
X8441329Y-80579219D01*
X8560951Y-80621227D01*
X8560953Y-80621228D01*
X8564631Y-80622519D01*
X8596166Y-80625500D01*
X10003834Y-80625500D01*
X10035369Y-80622519D01*
X10039047Y-80621228D01*
X10039049Y-80621227D01*
X10158671Y-80579219D01*
X10158672Y-80579219D01*
X10163184Y-80577634D01*
X10167029Y-80574794D01*
X10167031Y-80574793D01*
X10268301Y-80499993D01*
X10272150Y-80497150D01*
X10352634Y-80388184D01*
X10397519Y-80260369D01*
X10400500Y-80228834D01*
X11499500Y-80228834D01*
X11502481Y-80260369D01*
X11547366Y-80388184D01*
X11627850Y-80497150D01*
X11631699Y-80499993D01*
X11732969Y-80574793D01*
X11732971Y-80574794D01*
X11736816Y-80577634D01*
X11741328Y-80579219D01*
X11741329Y-80579219D01*
X11860951Y-80621227D01*
X11860953Y-80621228D01*
X11864631Y-80622519D01*
X11896166Y-80625500D01*
X13303834Y-80625500D01*
X13335369Y-80622519D01*
X13339047Y-80621228D01*
X13339049Y-80621227D01*
X13458671Y-80579219D01*
X13458672Y-80579219D01*
X13463184Y-80577634D01*
X13467029Y-80574794D01*
X13467031Y-80574793D01*
X13568301Y-80499993D01*
X13572150Y-80497150D01*
X13652634Y-80388184D01*
X13697519Y-80260369D01*
X13700500Y-80228834D01*
X18199500Y-80228834D01*
X18202481Y-80260369D01*
X18247366Y-80388184D01*
X18327850Y-80497150D01*
X18331699Y-80499993D01*
X18432969Y-80574793D01*
X18432971Y-80574794D01*
X18436816Y-80577634D01*
X18441328Y-80579219D01*
X18441329Y-80579219D01*
X18560951Y-80621227D01*
X18560953Y-80621228D01*
X18564631Y-80622519D01*
X18596166Y-80625500D01*
X20003834Y-80625500D01*
X20035369Y-80622519D01*
X20039047Y-80621228D01*
X20039049Y-80621227D01*
X20158671Y-80579219D01*
X20158672Y-80579219D01*
X20163184Y-80577634D01*
X20167029Y-80574794D01*
X20167031Y-80574793D01*
X20268301Y-80499993D01*
X20272150Y-80497150D01*
X20352634Y-80388184D01*
X20397519Y-80260369D01*
X20400500Y-80228834D01*
X21499500Y-80228834D01*
X21502481Y-80260369D01*
X21547366Y-80388184D01*
X21627850Y-80497150D01*
X21631699Y-80499993D01*
X21732969Y-80574793D01*
X21732971Y-80574794D01*
X21736816Y-80577634D01*
X21741328Y-80579219D01*
X21741329Y-80579219D01*
X21860951Y-80621227D01*
X21860953Y-80621228D01*
X21864631Y-80622519D01*
X21896166Y-80625500D01*
X23303834Y-80625500D01*
X23335369Y-80622519D01*
X23339047Y-80621228D01*
X23339049Y-80621227D01*
X23458671Y-80579219D01*
X23458672Y-80579219D01*
X23463184Y-80577634D01*
X23467029Y-80574794D01*
X23467031Y-80574793D01*
X23568301Y-80499993D01*
X23572150Y-80497150D01*
X23652634Y-80388184D01*
X23697519Y-80260369D01*
X23700500Y-80228834D01*
X28199500Y-80228834D01*
X28202481Y-80260369D01*
X28247366Y-80388184D01*
X28327850Y-80497150D01*
X28331699Y-80499993D01*
X28432969Y-80574793D01*
X28432971Y-80574794D01*
X28436816Y-80577634D01*
X28441328Y-80579219D01*
X28441329Y-80579219D01*
X28560951Y-80621227D01*
X28560953Y-80621228D01*
X28564631Y-80622519D01*
X28596166Y-80625500D01*
X30003834Y-80625500D01*
X30035369Y-80622519D01*
X30039047Y-80621228D01*
X30039049Y-80621227D01*
X30158671Y-80579219D01*
X30158672Y-80579219D01*
X30163184Y-80577634D01*
X30167029Y-80574794D01*
X30167031Y-80574793D01*
X30268301Y-80499993D01*
X30272150Y-80497150D01*
X30352634Y-80388184D01*
X30397519Y-80260369D01*
X30400500Y-80228834D01*
X30400500Y-77021166D01*
X30397519Y-76989631D01*
X30352634Y-76861816D01*
X30272150Y-76752850D01*
X30268301Y-76750007D01*
X30167031Y-76675207D01*
X30167029Y-76675206D01*
X30163184Y-76672366D01*
X30158671Y-76670781D01*
X30039049Y-76628773D01*
X30039047Y-76628772D01*
X30035369Y-76627481D01*
X30003834Y-76624500D01*
X28596166Y-76624500D01*
X28564631Y-76627481D01*
X28560953Y-76628772D01*
X28560951Y-76628773D01*
X28441329Y-76670781D01*
X28436816Y-76672366D01*
X28432971Y-76675206D01*
X28432969Y-76675207D01*
X28331699Y-76750007D01*
X28327850Y-76752850D01*
X28247366Y-76861816D01*
X28202481Y-76989631D01*
X28199500Y-77021166D01*
X28199500Y-80228834D01*
X23700500Y-80228834D01*
X23700500Y-77021166D01*
X23697519Y-76989631D01*
X23652634Y-76861816D01*
X23572150Y-76752850D01*
X23568301Y-76750007D01*
X23467031Y-76675207D01*
X23467029Y-76675206D01*
X23463184Y-76672366D01*
X23458671Y-76670781D01*
X23339049Y-76628773D01*
X23339047Y-76628772D01*
X23335369Y-76627481D01*
X23303834Y-76624500D01*
X21896166Y-76624500D01*
X21864631Y-76627481D01*
X21860953Y-76628772D01*
X21860951Y-76628773D01*
X21741329Y-76670781D01*
X21736816Y-76672366D01*
X21732971Y-76675206D01*
X21732969Y-76675207D01*
X21631699Y-76750007D01*
X21627850Y-76752850D01*
X21547366Y-76861816D01*
X21502481Y-76989631D01*
X21499500Y-77021166D01*
X21499500Y-80228834D01*
X20400500Y-80228834D01*
X20400500Y-77021166D01*
X20397519Y-76989631D01*
X20352634Y-76861816D01*
X20272150Y-76752850D01*
X20268301Y-76750007D01*
X20167031Y-76675207D01*
X20167029Y-76675206D01*
X20163184Y-76672366D01*
X20158671Y-76670781D01*
X20039049Y-76628773D01*
X20039047Y-76628772D01*
X20035369Y-76627481D01*
X20003834Y-76624500D01*
X18596166Y-76624500D01*
X18564631Y-76627481D01*
X18560953Y-76628772D01*
X18560951Y-76628773D01*
X18441329Y-76670781D01*
X18436816Y-76672366D01*
X18432971Y-76675206D01*
X18432969Y-76675207D01*
X18331699Y-76750007D01*
X18327850Y-76752850D01*
X18247366Y-76861816D01*
X18202481Y-76989631D01*
X18199500Y-77021166D01*
X18199500Y-80228834D01*
X13700500Y-80228834D01*
X13700500Y-77021166D01*
X13697519Y-76989631D01*
X13652634Y-76861816D01*
X13572150Y-76752850D01*
X13568301Y-76750007D01*
X13467031Y-76675207D01*
X13467029Y-76675206D01*
X13463184Y-76672366D01*
X13458671Y-76670781D01*
X13339049Y-76628773D01*
X13339047Y-76628772D01*
X13335369Y-76627481D01*
X13303834Y-76624500D01*
X11896166Y-76624500D01*
X11864631Y-76627481D01*
X11860953Y-76628772D01*
X11860951Y-76628773D01*
X11741329Y-76670781D01*
X11736816Y-76672366D01*
X11732971Y-76675206D01*
X11732969Y-76675207D01*
X11631699Y-76750007D01*
X11627850Y-76752850D01*
X11547366Y-76861816D01*
X11502481Y-76989631D01*
X11499500Y-77021166D01*
X11499500Y-80228834D01*
X10400500Y-80228834D01*
X10400500Y-77021166D01*
X10397519Y-76989631D01*
X10352634Y-76861816D01*
X10272150Y-76752850D01*
X10268301Y-76750007D01*
X10167031Y-76675207D01*
X10167029Y-76675206D01*
X10163184Y-76672366D01*
X10158671Y-76670781D01*
X10039049Y-76628773D01*
X10039047Y-76628772D01*
X10035369Y-76627481D01*
X10003834Y-76624500D01*
X8596166Y-76624500D01*
X8564631Y-76627481D01*
X8560953Y-76628772D01*
X8560951Y-76628773D01*
X8441329Y-76670781D01*
X8436816Y-76672366D01*
X8432971Y-76675206D01*
X8432969Y-76675207D01*
X8331699Y-76750007D01*
X8327850Y-76752850D01*
X8247366Y-76861816D01*
X8202481Y-76989631D01*
X8199500Y-77021166D01*
X8199500Y-80228834D01*
X3700500Y-80228834D01*
X3700500Y-77021166D01*
X3697519Y-76989631D01*
X3652634Y-76861816D01*
X3572150Y-76752850D01*
X3568301Y-76750007D01*
X3467031Y-76675207D01*
X3467029Y-76675206D01*
X3463184Y-76672366D01*
X3458671Y-76670781D01*
X3339049Y-76628773D01*
X3339047Y-76628772D01*
X3335369Y-76627481D01*
X3303834Y-76624500D01*
X1896166Y-76624500D01*
X1864631Y-76627481D01*
X1860953Y-76628772D01*
X1860951Y-76628773D01*
X1741329Y-76670781D01*
X1736816Y-76672366D01*
X1732971Y-76675206D01*
X1732969Y-76675207D01*
X1631699Y-76750007D01*
X1627850Y-76752850D01*
X1547366Y-76861816D01*
X1502481Y-76989631D01*
X1499500Y-77021166D01*
X1499500Y-80228834D01*
X130000Y-80228834D01*
X130000Y-72528834D01*
X1499500Y-72528834D01*
X1502481Y-72560369D01*
X1503772Y-72564047D01*
X1503773Y-72564049D01*
X1515624Y-72597795D01*
X1547366Y-72688184D01*
X1627850Y-72797150D01*
X1631699Y-72799993D01*
X1732969Y-72874793D01*
X1732971Y-72874794D01*
X1736816Y-72877634D01*
X1741328Y-72879219D01*
X1741329Y-72879219D01*
X1860951Y-72921227D01*
X1860953Y-72921228D01*
X1864631Y-72922519D01*
X1896166Y-72925500D01*
X3303834Y-72925500D01*
X3335369Y-72922519D01*
X3339047Y-72921228D01*
X3339049Y-72921227D01*
X3458671Y-72879219D01*
X3458672Y-72879219D01*
X3463184Y-72877634D01*
X3467029Y-72874794D01*
X3467031Y-72874793D01*
X3568301Y-72799993D01*
X3572150Y-72797150D01*
X3652634Y-72688184D01*
X3684376Y-72597795D01*
X3696227Y-72564049D01*
X3696228Y-72564047D01*
X3697519Y-72560369D01*
X3700500Y-72528834D01*
X8199500Y-72528834D01*
X8202481Y-72560369D01*
X8203772Y-72564047D01*
X8203773Y-72564049D01*
X8215624Y-72597795D01*
X8247366Y-72688184D01*
X8327850Y-72797150D01*
X8331699Y-72799993D01*
X8432969Y-72874793D01*
X8432971Y-72874794D01*
X8436816Y-72877634D01*
X8441328Y-72879219D01*
X8441329Y-72879219D01*
X8560951Y-72921227D01*
X8560953Y-72921228D01*
X8564631Y-72922519D01*
X8596166Y-72925500D01*
X10003834Y-72925500D01*
X10035369Y-72922519D01*
X10039047Y-72921228D01*
X10039049Y-72921227D01*
X10158671Y-72879219D01*
X10158672Y-72879219D01*
X10163184Y-72877634D01*
X10167029Y-72874794D01*
X10167031Y-72874793D01*
X10268301Y-72799993D01*
X10272150Y-72797150D01*
X10352634Y-72688184D01*
X10384376Y-72597795D01*
X10396227Y-72564049D01*
X10396228Y-72564047D01*
X10397519Y-72560369D01*
X10400500Y-72528834D01*
X11499500Y-72528834D01*
X11502481Y-72560369D01*
X11503772Y-72564047D01*
X11503773Y-72564049D01*
X11515624Y-72597795D01*
X11547366Y-72688184D01*
X11627850Y-72797150D01*
X11631699Y-72799993D01*
X11732969Y-72874793D01*
X11732971Y-72874794D01*
X11736816Y-72877634D01*
X11741328Y-72879219D01*
X11741329Y-72879219D01*
X11860951Y-72921227D01*
X11860953Y-72921228D01*
X11864631Y-72922519D01*
X11896166Y-72925500D01*
X13303834Y-72925500D01*
X13335369Y-72922519D01*
X13339047Y-72921228D01*
X13339049Y-72921227D01*
X13458671Y-72879219D01*
X13458672Y-72879219D01*
X13463184Y-72877634D01*
X13467029Y-72874794D01*
X13467031Y-72874793D01*
X13568301Y-72799993D01*
X13572150Y-72797150D01*
X13652634Y-72688184D01*
X13684376Y-72597795D01*
X13696227Y-72564049D01*
X13696228Y-72564047D01*
X13697519Y-72560369D01*
X13700500Y-72528834D01*
X18199500Y-72528834D01*
X18202481Y-72560369D01*
X18203772Y-72564047D01*
X18203773Y-72564049D01*
X18215624Y-72597795D01*
X18247366Y-72688184D01*
X18327850Y-72797150D01*
X18331699Y-72799993D01*
X18432969Y-72874793D01*
X18432971Y-72874794D01*
X18436816Y-72877634D01*
X18441328Y-72879219D01*
X18441329Y-72879219D01*
X18560951Y-72921227D01*
X18560953Y-72921228D01*
X18564631Y-72922519D01*
X18596166Y-72925500D01*
X20003834Y-72925500D01*
X20035369Y-72922519D01*
X20039047Y-72921228D01*
X20039049Y-72921227D01*
X20158671Y-72879219D01*
X20158672Y-72879219D01*
X20163184Y-72877634D01*
X20167029Y-72874794D01*
X20167031Y-72874793D01*
X20268301Y-72799993D01*
X20272150Y-72797150D01*
X20352634Y-72688184D01*
X20384376Y-72597795D01*
X20396227Y-72564049D01*
X20396228Y-72564047D01*
X20397519Y-72560369D01*
X20400500Y-72528834D01*
X21499500Y-72528834D01*
X21502481Y-72560369D01*
X21503772Y-72564047D01*
X21503773Y-72564049D01*
X21515624Y-72597795D01*
X21547366Y-72688184D01*
X21627850Y-72797150D01*
X21631699Y-72799993D01*
X21732969Y-72874793D01*
X21732971Y-72874794D01*
X21736816Y-72877634D01*
X21741328Y-72879219D01*
X21741329Y-72879219D01*
X21860951Y-72921227D01*
X21860953Y-72921228D01*
X21864631Y-72922519D01*
X21896166Y-72925500D01*
X23303834Y-72925500D01*
X23335369Y-72922519D01*
X23339047Y-72921228D01*
X23339049Y-72921227D01*
X23458671Y-72879219D01*
X23458672Y-72879219D01*
X23463184Y-72877634D01*
X23467029Y-72874794D01*
X23467031Y-72874793D01*
X23568301Y-72799993D01*
X23572150Y-72797150D01*
X23652634Y-72688184D01*
X23684376Y-72597795D01*
X23696227Y-72564049D01*
X23696228Y-72564047D01*
X23697519Y-72560369D01*
X23700500Y-72528834D01*
X28199500Y-72528834D01*
X28202481Y-72560369D01*
X28203772Y-72564047D01*
X28203773Y-72564049D01*
X28215624Y-72597795D01*
X28247366Y-72688184D01*
X28327850Y-72797150D01*
X28331699Y-72799993D01*
X28432969Y-72874793D01*
X28432971Y-72874794D01*
X28436816Y-72877634D01*
X28441328Y-72879219D01*
X28441329Y-72879219D01*
X28560951Y-72921227D01*
X28560953Y-72921228D01*
X28564631Y-72922519D01*
X28596166Y-72925500D01*
X30003834Y-72925500D01*
X30035369Y-72922519D01*
X30039047Y-72921228D01*
X30039049Y-72921227D01*
X30158671Y-72879219D01*
X30158672Y-72879219D01*
X30163184Y-72877634D01*
X30167029Y-72874794D01*
X30167031Y-72874793D01*
X30268301Y-72799993D01*
X30272150Y-72797150D01*
X30352634Y-72688184D01*
X30384376Y-72597795D01*
X30396227Y-72564049D01*
X30396228Y-72564047D01*
X30397519Y-72560369D01*
X30400500Y-72528834D01*
X30400500Y-70432741D01*
X33519991Y-70432741D01*
X33534275Y-70773546D01*
X33534548Y-70775307D01*
X33534548Y-70775311D01*
X33553947Y-70900617D01*
X33586459Y-71110634D01*
X33586929Y-71112364D01*
X33619834Y-71233474D01*
X33675892Y-71439805D01*
X33801461Y-71756955D01*
X33961600Y-72058132D01*
X34154312Y-72339581D01*
X34155475Y-72340928D01*
X34155477Y-72340931D01*
X34240398Y-72439313D01*
X34377196Y-72597795D01*
X34627474Y-72829555D01*
X34902026Y-73031972D01*
X35197431Y-73202524D01*
X35510005Y-73339084D01*
X35835854Y-73439951D01*
X35837605Y-73440285D01*
X35837613Y-73440287D01*
X36169148Y-73503531D01*
X36169153Y-73503532D01*
X36170916Y-73503868D01*
X36511014Y-73530037D01*
X36851910Y-73518133D01*
X37095022Y-73482233D01*
X37187582Y-73468565D01*
X37187585Y-73468564D01*
X37189355Y-73468303D01*
X37191077Y-73467848D01*
X37191082Y-73467847D01*
X37517416Y-73381626D01*
X37519142Y-73381170D01*
X37837161Y-73257818D01*
X38139448Y-73099786D01*
X38140933Y-73098785D01*
X38140937Y-73098782D01*
X38420744Y-72910050D01*
X38420751Y-72910044D01*
X38422236Y-72909043D01*
X38457279Y-72879219D01*
X38680633Y-72689130D01*
X38680637Y-72689126D01*
X38681999Y-72687967D01*
X38683221Y-72686666D01*
X38683227Y-72686660D01*
X38914277Y-72440616D01*
X38915501Y-72439313D01*
X38916563Y-72437893D01*
X38916570Y-72437885D01*
X39118763Y-72167608D01*
X39118767Y-72167602D01*
X39119830Y-72166181D01*
X39184153Y-72056546D01*
X39291534Y-71873518D01*
X39292440Y-71871974D01*
X39431179Y-71560361D01*
X39534319Y-71235224D01*
X39600573Y-70900617D01*
X39600721Y-70898858D01*
X39600722Y-70898849D01*
X39629023Y-70561818D01*
X39629023Y-70561814D01*
X39629116Y-70560709D01*
X39630307Y-70475400D01*
X39611266Y-70134828D01*
X39604102Y-70092468D01*
X39554679Y-69800263D01*
X39554381Y-69798501D01*
X39541980Y-69755251D01*
X39460852Y-69472326D01*
X39460851Y-69472322D01*
X39460360Y-69470611D01*
X39443121Y-69428785D01*
X39428313Y-69392860D01*
X39330375Y-69155245D01*
X39166047Y-68856334D01*
X38969424Y-68577603D01*
X38742956Y-68322526D01*
X38489467Y-68094283D01*
X38488011Y-68093240D01*
X38488004Y-68093235D01*
X38213576Y-67896765D01*
X38212115Y-67895719D01*
X37914358Y-67729308D01*
X37599908Y-67597125D01*
X37598196Y-67596621D01*
X37274406Y-67501325D01*
X37274399Y-67501323D01*
X37272682Y-67500818D01*
X37270918Y-67500507D01*
X37270914Y-67500506D01*
X37121709Y-67474197D01*
X36936760Y-67441586D01*
X36793860Y-67432595D01*
X36598101Y-67420278D01*
X36598093Y-67420278D01*
X36596330Y-67420167D01*
X36368150Y-67431327D01*
X36257408Y-67436743D01*
X36257405Y-67436743D01*
X36255633Y-67436830D01*
X36253882Y-67437114D01*
X36253878Y-67437114D01*
X35920683Y-67491080D01*
X35920681Y-67491081D01*
X35918918Y-67491366D01*
X35917194Y-67491847D01*
X35917191Y-67491848D01*
X35883249Y-67501325D01*
X35590379Y-67583096D01*
X35588729Y-67583763D01*
X35588728Y-67583763D01*
X35275769Y-67710207D01*
X35275764Y-67710209D01*
X35274114Y-67710876D01*
X35272550Y-67711722D01*
X35272545Y-67711724D01*
X34975624Y-67872268D01*
X34975618Y-67872272D01*
X34974062Y-67873113D01*
X34972608Y-67874123D01*
X34972604Y-67874126D01*
X34695432Y-68066765D01*
X34695427Y-68066769D01*
X34693965Y-68067785D01*
X34692619Y-68068963D01*
X34692613Y-68068968D01*
X34662320Y-68095488D01*
X34437314Y-68292467D01*
X34436104Y-68293792D01*
X34436101Y-68293795D01*
X34334398Y-68405174D01*
X34207307Y-68544356D01*
X34006811Y-68820315D01*
X33985459Y-68857902D01*
X33872527Y-69056699D01*
X33838326Y-69116903D01*
X33837621Y-69118549D01*
X33837619Y-69118552D01*
X33762630Y-69293514D01*
X33703951Y-69430423D01*
X33703435Y-69432133D01*
X33703434Y-69432135D01*
X33691300Y-69472326D01*
X33605361Y-69756969D01*
X33605039Y-69758721D01*
X33605038Y-69758727D01*
X33597738Y-69798501D01*
X33543785Y-70092468D01*
X33543661Y-70094245D01*
X33543660Y-70094251D01*
X33540823Y-70134828D01*
X33519991Y-70432741D01*
X30400500Y-70432741D01*
X30400500Y-69321166D01*
X30397519Y-69289631D01*
X30352634Y-69161816D01*
X30318309Y-69115343D01*
X30274993Y-69056699D01*
X30272150Y-69052850D01*
X30268301Y-69050007D01*
X30167031Y-68975207D01*
X30167029Y-68975206D01*
X30163184Y-68972366D01*
X30158671Y-68970781D01*
X30039049Y-68928773D01*
X30039047Y-68928772D01*
X30035369Y-68927481D01*
X30003834Y-68924500D01*
X28596166Y-68924500D01*
X28564631Y-68927481D01*
X28560953Y-68928772D01*
X28560951Y-68928773D01*
X28441329Y-68970781D01*
X28436816Y-68972366D01*
X28432971Y-68975206D01*
X28432969Y-68975207D01*
X28331699Y-69050007D01*
X28327850Y-69052850D01*
X28325007Y-69056699D01*
X28281692Y-69115343D01*
X28247366Y-69161816D01*
X28202481Y-69289631D01*
X28199500Y-69321166D01*
X28199500Y-72528834D01*
X23700500Y-72528834D01*
X23700500Y-69321166D01*
X23697519Y-69289631D01*
X23652634Y-69161816D01*
X23618309Y-69115343D01*
X23574993Y-69056699D01*
X23572150Y-69052850D01*
X23568301Y-69050007D01*
X23467031Y-68975207D01*
X23467029Y-68975206D01*
X23463184Y-68972366D01*
X23458671Y-68970781D01*
X23339049Y-68928773D01*
X23339047Y-68928772D01*
X23335369Y-68927481D01*
X23303834Y-68924500D01*
X21896166Y-68924500D01*
X21864631Y-68927481D01*
X21860953Y-68928772D01*
X21860951Y-68928773D01*
X21741329Y-68970781D01*
X21736816Y-68972366D01*
X21732971Y-68975206D01*
X21732969Y-68975207D01*
X21631699Y-69050007D01*
X21627850Y-69052850D01*
X21625007Y-69056699D01*
X21581692Y-69115343D01*
X21547366Y-69161816D01*
X21502481Y-69289631D01*
X21499500Y-69321166D01*
X21499500Y-72528834D01*
X20400500Y-72528834D01*
X20400500Y-69321166D01*
X20397519Y-69289631D01*
X20352634Y-69161816D01*
X20318309Y-69115343D01*
X20274993Y-69056699D01*
X20272150Y-69052850D01*
X20268301Y-69050007D01*
X20167031Y-68975207D01*
X20167029Y-68975206D01*
X20163184Y-68972366D01*
X20158671Y-68970781D01*
X20039049Y-68928773D01*
X20039047Y-68928772D01*
X20035369Y-68927481D01*
X20003834Y-68924500D01*
X18596166Y-68924500D01*
X18564631Y-68927481D01*
X18560953Y-68928772D01*
X18560951Y-68928773D01*
X18441329Y-68970781D01*
X18436816Y-68972366D01*
X18432971Y-68975206D01*
X18432969Y-68975207D01*
X18331699Y-69050007D01*
X18327850Y-69052850D01*
X18325007Y-69056699D01*
X18281692Y-69115343D01*
X18247366Y-69161816D01*
X18202481Y-69289631D01*
X18199500Y-69321166D01*
X18199500Y-72528834D01*
X13700500Y-72528834D01*
X13700500Y-69321166D01*
X13697519Y-69289631D01*
X13652634Y-69161816D01*
X13618309Y-69115343D01*
X13574993Y-69056699D01*
X13572150Y-69052850D01*
X13568301Y-69050007D01*
X13467031Y-68975207D01*
X13467029Y-68975206D01*
X13463184Y-68972366D01*
X13458671Y-68970781D01*
X13339049Y-68928773D01*
X13339047Y-68928772D01*
X13335369Y-68927481D01*
X13303834Y-68924500D01*
X11896166Y-68924500D01*
X11864631Y-68927481D01*
X11860953Y-68928772D01*
X11860951Y-68928773D01*
X11741329Y-68970781D01*
X11736816Y-68972366D01*
X11732971Y-68975206D01*
X11732969Y-68975207D01*
X11631699Y-69050007D01*
X11627850Y-69052850D01*
X11625007Y-69056699D01*
X11581692Y-69115343D01*
X11547366Y-69161816D01*
X11502481Y-69289631D01*
X11499500Y-69321166D01*
X11499500Y-72528834D01*
X10400500Y-72528834D01*
X10400500Y-69321166D01*
X10397519Y-69289631D01*
X10352634Y-69161816D01*
X10318309Y-69115343D01*
X10274993Y-69056699D01*
X10272150Y-69052850D01*
X10268301Y-69050007D01*
X10167031Y-68975207D01*
X10167029Y-68975206D01*
X10163184Y-68972366D01*
X10158671Y-68970781D01*
X10039049Y-68928773D01*
X10039047Y-68928772D01*
X10035369Y-68927481D01*
X10003834Y-68924500D01*
X8596166Y-68924500D01*
X8564631Y-68927481D01*
X8560953Y-68928772D01*
X8560951Y-68928773D01*
X8441329Y-68970781D01*
X8436816Y-68972366D01*
X8432971Y-68975206D01*
X8432969Y-68975207D01*
X8331699Y-69050007D01*
X8327850Y-69052850D01*
X8325007Y-69056699D01*
X8281692Y-69115343D01*
X8247366Y-69161816D01*
X8202481Y-69289631D01*
X8199500Y-69321166D01*
X8199500Y-72528834D01*
X3700500Y-72528834D01*
X3700500Y-69321166D01*
X3697519Y-69289631D01*
X3652634Y-69161816D01*
X3618309Y-69115343D01*
X3574993Y-69056699D01*
X3572150Y-69052850D01*
X3568301Y-69050007D01*
X3467031Y-68975207D01*
X3467029Y-68975206D01*
X3463184Y-68972366D01*
X3458671Y-68970781D01*
X3339049Y-68928773D01*
X3339047Y-68928772D01*
X3335369Y-68927481D01*
X3303834Y-68924500D01*
X1896166Y-68924500D01*
X1864631Y-68927481D01*
X1860953Y-68928772D01*
X1860951Y-68928773D01*
X1741329Y-68970781D01*
X1736816Y-68972366D01*
X1732971Y-68975206D01*
X1732969Y-68975207D01*
X1631699Y-69050007D01*
X1627850Y-69052850D01*
X1625007Y-69056699D01*
X1581692Y-69115343D01*
X1547366Y-69161816D01*
X1502481Y-69289631D01*
X1499500Y-69321166D01*
X1499500Y-72528834D01*
X130000Y-72528834D01*
X130000Y-63050000D01*
X4119953Y-63050000D01*
X4120304Y-63053339D01*
X4135890Y-63201622D01*
X4138092Y-63222576D01*
X4156999Y-63280766D01*
X4190678Y-63384424D01*
X4190680Y-63384428D01*
X4191714Y-63387611D01*
X4278478Y-63537889D01*
X4358062Y-63626277D01*
X4374500Y-63669100D01*
X4374500Y-64736313D01*
X4361980Y-64774336D01*
X4297366Y-64861816D01*
X4252481Y-64989631D01*
X4249500Y-65021166D01*
X4249500Y-67528834D01*
X4252481Y-67560369D01*
X4253772Y-67564047D01*
X4253773Y-67564049D01*
X4295781Y-67683671D01*
X4297366Y-67688184D01*
X4300206Y-67692029D01*
X4300207Y-67692031D01*
X4327741Y-67729308D01*
X4377850Y-67797150D01*
X4381699Y-67799993D01*
X4482969Y-67874793D01*
X4482971Y-67874794D01*
X4486816Y-67877634D01*
X4491328Y-67879219D01*
X4491329Y-67879219D01*
X4610951Y-67921227D01*
X4610953Y-67921228D01*
X4614631Y-67922519D01*
X4646166Y-67925500D01*
X5253834Y-67925500D01*
X5285369Y-67922519D01*
X5289047Y-67921228D01*
X5289049Y-67921227D01*
X5408671Y-67879219D01*
X5408672Y-67879219D01*
X5413184Y-67877634D01*
X5417029Y-67874794D01*
X5417031Y-67874793D01*
X5518301Y-67799993D01*
X5522150Y-67797150D01*
X5572259Y-67729308D01*
X5599793Y-67692031D01*
X5599794Y-67692029D01*
X5602634Y-67688184D01*
X5604219Y-67683671D01*
X5646227Y-67564049D01*
X5646228Y-67564047D01*
X5647519Y-67560369D01*
X5650500Y-67528834D01*
X5650500Y-65021166D01*
X5647519Y-64989631D01*
X5602634Y-64861816D01*
X5538020Y-64774336D01*
X5525500Y-64736313D01*
X5525500Y-63669100D01*
X5541938Y-63626277D01*
X5621522Y-63537889D01*
X5708286Y-63387611D01*
X5709320Y-63384428D01*
X5709322Y-63384424D01*
X5743001Y-63280766D01*
X5761908Y-63222576D01*
X5764111Y-63201622D01*
X5774792Y-63100000D01*
X6119953Y-63100000D01*
X6120304Y-63103339D01*
X6133172Y-63225763D01*
X6138092Y-63272576D01*
X6147511Y-63301564D01*
X6190678Y-63434424D01*
X6190680Y-63434428D01*
X6191714Y-63437611D01*
X6278478Y-63587889D01*
X6358062Y-63676277D01*
X6374500Y-63719100D01*
X6374500Y-64736313D01*
X6361980Y-64774336D01*
X6297366Y-64861816D01*
X6252481Y-64989631D01*
X6249500Y-65021166D01*
X6249500Y-67528834D01*
X6252481Y-67560369D01*
X6253772Y-67564047D01*
X6253773Y-67564049D01*
X6295781Y-67683671D01*
X6297366Y-67688184D01*
X6300206Y-67692029D01*
X6300207Y-67692031D01*
X6327741Y-67729308D01*
X6377850Y-67797150D01*
X6381699Y-67799993D01*
X6482969Y-67874793D01*
X6482971Y-67874794D01*
X6486816Y-67877634D01*
X6491328Y-67879219D01*
X6491329Y-67879219D01*
X6610951Y-67921227D01*
X6610953Y-67921228D01*
X6614631Y-67922519D01*
X6646166Y-67925500D01*
X7253834Y-67925500D01*
X7285369Y-67922519D01*
X7289047Y-67921228D01*
X7289049Y-67921227D01*
X7408671Y-67879219D01*
X7408672Y-67879219D01*
X7413184Y-67877634D01*
X7417029Y-67874794D01*
X7417031Y-67874793D01*
X7518301Y-67799993D01*
X7522150Y-67797150D01*
X7572259Y-67729308D01*
X7599793Y-67692031D01*
X7599794Y-67692029D01*
X7602634Y-67688184D01*
X7604219Y-67683671D01*
X7646227Y-67564049D01*
X7646228Y-67564047D01*
X7647519Y-67560369D01*
X7650500Y-67528834D01*
X7650500Y-65021166D01*
X7647519Y-64989631D01*
X7602634Y-64861816D01*
X7538020Y-64774336D01*
X7525500Y-64736313D01*
X7525500Y-63719100D01*
X7541938Y-63676277D01*
X7621522Y-63587889D01*
X7708286Y-63437611D01*
X7709320Y-63434428D01*
X7709322Y-63434424D01*
X7752489Y-63301564D01*
X7761908Y-63272576D01*
X7766829Y-63225763D01*
X7779696Y-63103339D01*
X7780047Y-63100000D01*
X7772298Y-63026276D01*
X7762259Y-62930760D01*
X7762258Y-62930757D01*
X7761908Y-62927424D01*
X7728565Y-62824802D01*
X7709322Y-62765576D01*
X7709320Y-62765572D01*
X7708286Y-62762389D01*
X7621522Y-62612111D01*
X7505410Y-62483155D01*
X7365024Y-62381158D01*
X7257152Y-62333130D01*
X7209559Y-62311940D01*
X7209556Y-62311939D01*
X7206499Y-62310578D01*
X7036764Y-62274500D01*
X6863236Y-62274500D01*
X6693501Y-62310578D01*
X6690444Y-62311939D01*
X6690441Y-62311940D01*
X6632784Y-62337611D01*
X6534977Y-62381158D01*
X6394590Y-62483155D01*
X6278478Y-62612111D01*
X6191714Y-62762389D01*
X6190680Y-62765572D01*
X6190678Y-62765576D01*
X6171435Y-62824802D01*
X6138092Y-62927424D01*
X6137742Y-62930757D01*
X6137741Y-62930760D01*
X6127702Y-63026276D01*
X6119953Y-63100000D01*
X5774792Y-63100000D01*
X5779696Y-63053339D01*
X5780047Y-63050000D01*
X5769442Y-62949103D01*
X5762259Y-62880760D01*
X5762258Y-62880757D01*
X5761908Y-62877424D01*
X5724532Y-62762389D01*
X5709322Y-62715576D01*
X5709320Y-62715572D01*
X5708286Y-62712389D01*
X5621522Y-62562111D01*
X5505410Y-62433155D01*
X5365024Y-62331158D01*
X5298420Y-62301504D01*
X5209559Y-62261940D01*
X5209556Y-62261939D01*
X5206499Y-62260578D01*
X5036764Y-62224500D01*
X4863236Y-62224500D01*
X4693501Y-62260578D01*
X4690444Y-62261939D01*
X4690441Y-62261940D01*
X4643682Y-62282759D01*
X4534977Y-62331158D01*
X4394590Y-62433155D01*
X4278478Y-62562111D01*
X4191714Y-62712389D01*
X4190680Y-62715572D01*
X4190678Y-62715576D01*
X4175468Y-62762389D01*
X4138092Y-62877424D01*
X4137742Y-62880757D01*
X4137741Y-62880760D01*
X4130558Y-62949103D01*
X4119953Y-63050000D01*
X130000Y-63050000D01*
X130000Y-58417341D01*
X5039991Y-58417341D01*
X5054275Y-58758146D01*
X5054548Y-58759907D01*
X5054548Y-58759911D01*
X5102461Y-59069406D01*
X5106459Y-59095234D01*
X5106929Y-59096964D01*
X5139834Y-59218074D01*
X5195892Y-59424405D01*
X5321461Y-59741555D01*
X5481600Y-60042732D01*
X5674312Y-60324181D01*
X5675475Y-60325528D01*
X5675477Y-60325531D01*
X5760398Y-60423913D01*
X5897196Y-60582395D01*
X6147474Y-60814155D01*
X6422026Y-61016572D01*
X6717431Y-61187124D01*
X7030005Y-61323684D01*
X7031716Y-61324214D01*
X7031717Y-61324214D01*
X7215674Y-61381158D01*
X7355854Y-61424551D01*
X7357605Y-61424885D01*
X7357613Y-61424887D01*
X7689148Y-61488131D01*
X7689153Y-61488132D01*
X7690916Y-61488468D01*
X8031014Y-61514637D01*
X8371910Y-61502733D01*
X8615022Y-61466833D01*
X8707582Y-61453165D01*
X8707585Y-61453164D01*
X8709355Y-61452903D01*
X8711077Y-61452448D01*
X8711082Y-61452447D01*
X9037416Y-61366226D01*
X9039142Y-61365770D01*
X9272650Y-61275198D01*
X9355493Y-61243065D01*
X9357161Y-61242418D01*
X9419399Y-61209881D01*
X9657860Y-61085216D01*
X9659448Y-61084386D01*
X9660933Y-61083385D01*
X9660937Y-61083382D01*
X9940744Y-60894650D01*
X9940751Y-60894644D01*
X9942236Y-60893643D01*
X9943604Y-60892479D01*
X10200633Y-60673730D01*
X10200637Y-60673726D01*
X10201999Y-60672567D01*
X10203221Y-60671266D01*
X10203227Y-60671260D01*
X10434277Y-60425216D01*
X10435501Y-60423913D01*
X10436563Y-60422493D01*
X10436570Y-60422485D01*
X10638763Y-60152208D01*
X10638767Y-60152202D01*
X10639830Y-60150781D01*
X10704153Y-60041146D01*
X10811534Y-59858118D01*
X10812440Y-59856574D01*
X10951179Y-59544961D01*
X11054319Y-59219824D01*
X11120573Y-58885217D01*
X11120721Y-58883458D01*
X11120722Y-58883449D01*
X11149023Y-58546418D01*
X11149023Y-58546414D01*
X11149116Y-58545309D01*
X11150307Y-58460000D01*
X11149748Y-58450000D01*
X14069953Y-58450000D01*
X14070304Y-58453339D01*
X14079971Y-58545309D01*
X14088092Y-58622576D01*
X14114903Y-58705093D01*
X14140678Y-58784424D01*
X14140680Y-58784428D01*
X14141714Y-58787611D01*
X14228478Y-58937889D01*
X14344590Y-59066845D01*
X14348117Y-59069407D01*
X14348309Y-59069721D01*
X14349797Y-59071061D01*
X14349400Y-59071502D01*
X14373712Y-59111170D01*
X14374500Y-59121185D01*
X14374500Y-64736313D01*
X14361980Y-64774336D01*
X14297366Y-64861816D01*
X14252481Y-64989631D01*
X14249500Y-65021166D01*
X14249500Y-67528834D01*
X14252481Y-67560369D01*
X14253772Y-67564047D01*
X14253773Y-67564049D01*
X14295781Y-67683671D01*
X14297366Y-67688184D01*
X14300206Y-67692029D01*
X14300207Y-67692031D01*
X14327741Y-67729308D01*
X14377850Y-67797150D01*
X14381699Y-67799993D01*
X14482969Y-67874793D01*
X14482971Y-67874794D01*
X14486816Y-67877634D01*
X14491328Y-67879219D01*
X14491329Y-67879219D01*
X14610951Y-67921227D01*
X14610953Y-67921228D01*
X14614631Y-67922519D01*
X14646166Y-67925500D01*
X15253834Y-67925500D01*
X15285369Y-67922519D01*
X15289047Y-67921228D01*
X15289049Y-67921227D01*
X15408671Y-67879219D01*
X15408672Y-67879219D01*
X15413184Y-67877634D01*
X15417029Y-67874794D01*
X15417031Y-67874793D01*
X15518301Y-67799993D01*
X15522150Y-67797150D01*
X15572259Y-67729308D01*
X15599793Y-67692031D01*
X15599794Y-67692029D01*
X15602634Y-67688184D01*
X15604219Y-67683671D01*
X15646227Y-67564049D01*
X15646228Y-67564047D01*
X15647519Y-67560369D01*
X15650500Y-67528834D01*
X15650500Y-65021166D01*
X15647519Y-64989631D01*
X15602634Y-64861816D01*
X15538020Y-64774336D01*
X15525500Y-64736313D01*
X15525500Y-62450000D01*
X16119953Y-62450000D01*
X16120304Y-62453339D01*
X16137490Y-62616845D01*
X16138092Y-62622576D01*
X16160569Y-62691754D01*
X16190678Y-62784424D01*
X16190680Y-62784428D01*
X16191714Y-62787611D01*
X16278478Y-62937889D01*
X16358062Y-63026277D01*
X16374500Y-63069100D01*
X16374500Y-64736313D01*
X16361980Y-64774336D01*
X16297366Y-64861816D01*
X16252481Y-64989631D01*
X16249500Y-65021166D01*
X16249500Y-67528834D01*
X16252481Y-67560369D01*
X16253772Y-67564047D01*
X16253773Y-67564049D01*
X16295781Y-67683671D01*
X16297366Y-67688184D01*
X16300206Y-67692029D01*
X16300207Y-67692031D01*
X16327741Y-67729308D01*
X16377850Y-67797150D01*
X16381699Y-67799993D01*
X16482969Y-67874793D01*
X16482971Y-67874794D01*
X16486816Y-67877634D01*
X16491328Y-67879219D01*
X16491329Y-67879219D01*
X16610951Y-67921227D01*
X16610953Y-67921228D01*
X16614631Y-67922519D01*
X16646166Y-67925500D01*
X17253834Y-67925500D01*
X17285369Y-67922519D01*
X17289047Y-67921228D01*
X17289049Y-67921227D01*
X17408671Y-67879219D01*
X17408672Y-67879219D01*
X17413184Y-67877634D01*
X17417029Y-67874794D01*
X17417031Y-67874793D01*
X17518301Y-67799993D01*
X17522150Y-67797150D01*
X17572259Y-67729308D01*
X17599793Y-67692031D01*
X17599794Y-67692029D01*
X17602634Y-67688184D01*
X17604219Y-67683671D01*
X17646227Y-67564049D01*
X17646228Y-67564047D01*
X17647519Y-67560369D01*
X17650500Y-67528834D01*
X17650500Y-65021166D01*
X17647519Y-64989631D01*
X17602634Y-64861816D01*
X17538020Y-64774336D01*
X17525500Y-64736313D01*
X17525500Y-63069100D01*
X17541938Y-63026277D01*
X17621522Y-62937889D01*
X17708286Y-62787611D01*
X17709320Y-62784428D01*
X17709322Y-62784424D01*
X17739431Y-62691754D01*
X17761908Y-62622576D01*
X17762511Y-62616845D01*
X17779696Y-62453339D01*
X17780047Y-62450000D01*
X17777704Y-62427713D01*
X17762259Y-62280760D01*
X17762258Y-62280757D01*
X17761908Y-62277424D01*
X17728928Y-62175919D01*
X17709322Y-62115576D01*
X17709320Y-62115572D01*
X17708286Y-62112389D01*
X17621522Y-61962111D01*
X17505410Y-61833155D01*
X17365024Y-61731158D01*
X17286186Y-61696057D01*
X17209559Y-61661940D01*
X17209556Y-61661939D01*
X17206499Y-61660578D01*
X17201348Y-61659483D01*
X17178477Y-61654622D01*
X17036764Y-61624500D01*
X16863236Y-61624500D01*
X16721523Y-61654622D01*
X16698653Y-61659483D01*
X16693501Y-61660578D01*
X16690444Y-61661939D01*
X16690441Y-61661940D01*
X16586530Y-61708205D01*
X16534977Y-61731158D01*
X16394590Y-61833155D01*
X16278478Y-61962111D01*
X16191714Y-62112389D01*
X16190680Y-62115572D01*
X16190678Y-62115576D01*
X16171072Y-62175919D01*
X16138092Y-62277424D01*
X16137742Y-62280757D01*
X16137741Y-62280760D01*
X16122296Y-62427713D01*
X16119953Y-62450000D01*
X15525500Y-62450000D01*
X15525500Y-59013569D01*
X15541938Y-58970746D01*
X15571522Y-58937889D01*
X15658286Y-58787611D01*
X15659320Y-58784428D01*
X15659322Y-58784424D01*
X15685097Y-58705094D01*
X15711908Y-58622576D01*
X15720030Y-58545309D01*
X15729696Y-58453339D01*
X15730047Y-58450000D01*
X15726614Y-58417341D01*
X21549991Y-58417341D01*
X21564275Y-58758146D01*
X21564548Y-58759907D01*
X21564548Y-58759911D01*
X21612461Y-59069406D01*
X21616459Y-59095234D01*
X21616929Y-59096964D01*
X21649834Y-59218074D01*
X21705892Y-59424405D01*
X21831461Y-59741555D01*
X21991600Y-60042732D01*
X22184312Y-60324181D01*
X22185475Y-60325528D01*
X22185477Y-60325531D01*
X22270398Y-60423913D01*
X22407196Y-60582395D01*
X22657474Y-60814155D01*
X22932026Y-61016572D01*
X23227431Y-61187124D01*
X23540005Y-61323684D01*
X23541716Y-61324214D01*
X23541717Y-61324214D01*
X23725674Y-61381158D01*
X23865854Y-61424551D01*
X23867605Y-61424885D01*
X23867613Y-61424887D01*
X24199148Y-61488131D01*
X24199153Y-61488132D01*
X24200916Y-61488468D01*
X24541014Y-61514637D01*
X24881910Y-61502733D01*
X25125022Y-61466833D01*
X25217582Y-61453165D01*
X25217585Y-61453164D01*
X25219355Y-61452903D01*
X25221077Y-61452448D01*
X25221082Y-61452447D01*
X25547416Y-61366226D01*
X25549142Y-61365770D01*
X25782650Y-61275198D01*
X25865493Y-61243065D01*
X25867161Y-61242418D01*
X25929399Y-61209881D01*
X26167860Y-61085216D01*
X26169448Y-61084386D01*
X26170933Y-61083385D01*
X26170937Y-61083382D01*
X26450744Y-60894650D01*
X26450751Y-60894644D01*
X26452236Y-60893643D01*
X26453604Y-60892479D01*
X26710633Y-60673730D01*
X26710637Y-60673726D01*
X26711999Y-60672567D01*
X26713221Y-60671266D01*
X26713227Y-60671260D01*
X26944277Y-60425216D01*
X26945501Y-60423913D01*
X26946563Y-60422493D01*
X26946570Y-60422485D01*
X27148763Y-60152208D01*
X27148767Y-60152202D01*
X27149830Y-60150781D01*
X27214153Y-60041146D01*
X27321534Y-59858118D01*
X27322440Y-59856574D01*
X27461179Y-59544961D01*
X27564319Y-59219824D01*
X27630573Y-58885217D01*
X27630721Y-58883458D01*
X27630722Y-58883449D01*
X27659023Y-58546418D01*
X27659023Y-58546414D01*
X27659116Y-58545309D01*
X27660307Y-58460000D01*
X27641266Y-58119428D01*
X27640615Y-58115576D01*
X27584679Y-57784863D01*
X27584381Y-57783101D01*
X27569487Y-57731158D01*
X27490852Y-57456926D01*
X27490851Y-57456922D01*
X27490360Y-57455211D01*
X27473121Y-57413385D01*
X27361054Y-57141493D01*
X27360375Y-57139845D01*
X27196047Y-56840934D01*
X26999424Y-56562203D01*
X26772956Y-56307126D01*
X26519467Y-56078883D01*
X26518011Y-56077840D01*
X26518004Y-56077835D01*
X26243576Y-55881365D01*
X26242115Y-55880319D01*
X25944358Y-55713908D01*
X25629908Y-55581725D01*
X25628196Y-55581221D01*
X25304406Y-55485925D01*
X25304399Y-55485923D01*
X25302682Y-55485418D01*
X25300918Y-55485107D01*
X25300914Y-55485106D01*
X25151709Y-55458797D01*
X24966760Y-55426186D01*
X24823860Y-55417195D01*
X24628101Y-55404878D01*
X24628093Y-55404878D01*
X24626330Y-55404767D01*
X24398150Y-55415927D01*
X24287408Y-55421343D01*
X24287405Y-55421343D01*
X24285633Y-55421430D01*
X24283882Y-55421714D01*
X24283878Y-55421714D01*
X23950683Y-55475680D01*
X23950681Y-55475681D01*
X23948918Y-55475966D01*
X23947194Y-55476447D01*
X23947191Y-55476448D01*
X23913249Y-55485925D01*
X23620379Y-55567696D01*
X23618729Y-55568363D01*
X23618728Y-55568363D01*
X23305769Y-55694807D01*
X23305764Y-55694809D01*
X23304114Y-55695476D01*
X23302550Y-55696322D01*
X23302545Y-55696324D01*
X23005624Y-55856868D01*
X23005618Y-55856872D01*
X23004062Y-55857713D01*
X23002608Y-55858723D01*
X23002604Y-55858726D01*
X22725432Y-56051365D01*
X22725427Y-56051369D01*
X22723965Y-56052385D01*
X22722619Y-56053563D01*
X22722613Y-56053568D01*
X22646295Y-56120380D01*
X22467314Y-56277067D01*
X22466104Y-56278392D01*
X22466101Y-56278395D01*
X22364398Y-56389774D01*
X22237307Y-56528956D01*
X22036811Y-56804915D01*
X21868326Y-57101503D01*
X21867621Y-57103149D01*
X21867619Y-57103152D01*
X21851186Y-57141493D01*
X21733951Y-57415023D01*
X21733435Y-57416733D01*
X21733434Y-57416735D01*
X21721300Y-57456926D01*
X21635361Y-57741569D01*
X21635039Y-57743321D01*
X21635038Y-57743327D01*
X21618543Y-57833203D01*
X21573785Y-58077068D01*
X21573661Y-58078845D01*
X21573660Y-58078851D01*
X21550116Y-58415552D01*
X21549991Y-58417341D01*
X15726614Y-58417341D01*
X15711908Y-58277424D01*
X15685097Y-58194907D01*
X15659322Y-58115576D01*
X15659320Y-58115572D01*
X15658286Y-58112389D01*
X15571522Y-57962111D01*
X15455410Y-57833155D01*
X15315024Y-57731158D01*
X15264286Y-57708568D01*
X15159559Y-57661940D01*
X15159556Y-57661939D01*
X15156499Y-57660578D01*
X14986764Y-57624500D01*
X14813236Y-57624500D01*
X14643501Y-57660578D01*
X14640444Y-57661939D01*
X14640441Y-57661940D01*
X14536530Y-57708205D01*
X14484977Y-57731158D01*
X14344590Y-57833155D01*
X14228478Y-57962111D01*
X14141714Y-58112389D01*
X14140680Y-58115572D01*
X14140678Y-58115576D01*
X14114903Y-58194907D01*
X14088092Y-58277424D01*
X14069953Y-58450000D01*
X11149748Y-58450000D01*
X11131266Y-58119428D01*
X11130615Y-58115576D01*
X11074679Y-57784863D01*
X11074381Y-57783101D01*
X11059487Y-57731158D01*
X10980852Y-57456926D01*
X10980851Y-57456922D01*
X10980360Y-57455211D01*
X10963121Y-57413385D01*
X10851054Y-57141493D01*
X10850375Y-57139845D01*
X10686047Y-56840934D01*
X10489424Y-56562203D01*
X10262956Y-56307126D01*
X10009467Y-56078883D01*
X10008011Y-56077840D01*
X10008004Y-56077835D01*
X9733576Y-55881365D01*
X9732115Y-55880319D01*
X9434358Y-55713908D01*
X9119908Y-55581725D01*
X9118196Y-55581221D01*
X8794406Y-55485925D01*
X8794399Y-55485923D01*
X8792682Y-55485418D01*
X8790918Y-55485107D01*
X8790914Y-55485106D01*
X8641709Y-55458797D01*
X8456760Y-55426186D01*
X8313860Y-55417195D01*
X8118101Y-55404878D01*
X8118093Y-55404878D01*
X8116330Y-55404767D01*
X7888150Y-55415927D01*
X7777408Y-55421343D01*
X7777405Y-55421343D01*
X7775633Y-55421430D01*
X7773882Y-55421714D01*
X7773878Y-55421714D01*
X7440683Y-55475680D01*
X7440681Y-55475681D01*
X7438918Y-55475966D01*
X7437194Y-55476447D01*
X7437191Y-55476448D01*
X7403249Y-55485925D01*
X7110379Y-55567696D01*
X7108729Y-55568363D01*
X7108728Y-55568363D01*
X6795769Y-55694807D01*
X6795764Y-55694809D01*
X6794114Y-55695476D01*
X6792550Y-55696322D01*
X6792545Y-55696324D01*
X6495624Y-55856868D01*
X6495618Y-55856872D01*
X6494062Y-55857713D01*
X6492608Y-55858723D01*
X6492604Y-55858726D01*
X6215432Y-56051365D01*
X6215427Y-56051369D01*
X6213965Y-56052385D01*
X6212619Y-56053563D01*
X6212613Y-56053568D01*
X6136295Y-56120380D01*
X5957314Y-56277067D01*
X5956104Y-56278392D01*
X5956101Y-56278395D01*
X5854398Y-56389774D01*
X5727307Y-56528956D01*
X5526811Y-56804915D01*
X5358326Y-57101503D01*
X5357621Y-57103149D01*
X5357619Y-57103152D01*
X5341186Y-57141493D01*
X5223951Y-57415023D01*
X5223435Y-57416733D01*
X5223434Y-57416735D01*
X5211300Y-57456926D01*
X5125361Y-57741569D01*
X5125039Y-57743321D01*
X5125038Y-57743327D01*
X5108543Y-57833203D01*
X5063785Y-58077068D01*
X5063661Y-58078845D01*
X5063660Y-58078851D01*
X5040116Y-58415552D01*
X5039991Y-58417341D01*
X130000Y-58417341D01*
X130000Y-49809542D01*
X3126615Y-49809542D01*
X3143526Y-50010925D01*
X3199229Y-50205188D01*
X3291605Y-50384931D01*
X3417134Y-50543309D01*
X3419518Y-50545338D01*
X3419520Y-50545340D01*
X3455308Y-50575798D01*
X3571034Y-50674289D01*
X3747444Y-50772881D01*
X3750422Y-50773849D01*
X3750423Y-50773849D01*
X3936674Y-50834365D01*
X3936677Y-50834366D01*
X3939645Y-50835330D01*
X3942748Y-50835700D01*
X4137207Y-50858889D01*
X4137212Y-50858889D01*
X4140314Y-50859259D01*
X4143434Y-50859019D01*
X4143437Y-50859019D01*
X4338683Y-50843996D01*
X4338687Y-50843995D01*
X4341810Y-50843755D01*
X4344826Y-50842913D01*
X4344831Y-50842912D01*
X4434927Y-50817756D01*
X4536457Y-50789408D01*
X4539244Y-50788000D01*
X4539247Y-50787999D01*
X4714052Y-50699699D01*
X4714053Y-50699698D01*
X4716841Y-50698290D01*
X4876091Y-50573870D01*
X4904593Y-50540851D01*
X5006097Y-50423257D01*
X5008142Y-50420888D01*
X5107964Y-50245170D01*
X5121265Y-50205188D01*
X5170766Y-50056380D01*
X5171754Y-50053410D01*
X5176742Y-50013931D01*
X5196857Y-49854695D01*
X5196857Y-49854691D01*
X5197082Y-49852912D01*
X5197486Y-49824000D01*
X5177765Y-49622873D01*
X5176862Y-49619882D01*
X5176861Y-49619877D01*
X5148560Y-49526140D01*
X5119354Y-49429407D01*
X5117889Y-49426651D01*
X5117887Y-49426647D01*
X5025948Y-49253735D01*
X5025946Y-49253732D01*
X5024478Y-49250971D01*
X4896751Y-49094361D01*
X4741036Y-48965543D01*
X4726239Y-48957542D01*
X4701998Y-48944435D01*
X4563267Y-48869424D01*
X4370213Y-48809664D01*
X4169229Y-48788539D01*
X4166119Y-48788822D01*
X4166118Y-48788822D01*
X4120153Y-48793005D01*
X3967969Y-48806855D01*
X3964972Y-48807737D01*
X3964967Y-48807738D01*
X3777106Y-48863029D01*
X3777103Y-48863030D01*
X3774100Y-48863914D01*
X3760716Y-48870911D01*
X3597777Y-48956093D01*
X3597774Y-48956095D01*
X3595006Y-48957542D01*
X3437508Y-49084174D01*
X3307607Y-49238985D01*
X3210248Y-49416079D01*
X3209303Y-49419057D01*
X3209302Y-49419060D01*
X3150087Y-49605730D01*
X3149142Y-49608710D01*
X3126615Y-49809542D01*
X130000Y-49809542D01*
X130000Y-46507542D01*
X3126615Y-46507542D01*
X3143526Y-46708925D01*
X3199229Y-46903188D01*
X3291605Y-47082931D01*
X3417134Y-47241309D01*
X3419518Y-47243338D01*
X3419520Y-47243340D01*
X3455308Y-47273798D01*
X3571034Y-47372289D01*
X3747444Y-47470881D01*
X3750422Y-47471849D01*
X3750423Y-47471849D01*
X3936674Y-47532365D01*
X3936677Y-47532366D01*
X3939645Y-47533330D01*
X3942748Y-47533700D01*
X4137207Y-47556889D01*
X4137212Y-47556889D01*
X4140314Y-47557259D01*
X4143434Y-47557019D01*
X4143437Y-47557019D01*
X4338683Y-47541996D01*
X4338687Y-47541995D01*
X4341810Y-47541755D01*
X4344826Y-47540913D01*
X4344831Y-47540912D01*
X4434927Y-47515756D01*
X4536457Y-47487408D01*
X4539244Y-47486000D01*
X4539247Y-47485999D01*
X4714052Y-47397699D01*
X4714053Y-47397698D01*
X4716841Y-47396290D01*
X4876091Y-47271870D01*
X4904593Y-47238851D01*
X5006097Y-47121257D01*
X5008142Y-47118888D01*
X5107964Y-46943170D01*
X5121265Y-46903188D01*
X5170766Y-46754380D01*
X5171754Y-46751410D01*
X5176742Y-46711931D01*
X5196857Y-46552695D01*
X5196857Y-46552691D01*
X5197082Y-46550912D01*
X5197486Y-46522000D01*
X5177765Y-46320873D01*
X5176862Y-46317882D01*
X5176861Y-46317877D01*
X5148560Y-46224140D01*
X5119354Y-46127407D01*
X5117889Y-46124651D01*
X5117887Y-46124647D01*
X5025948Y-45951735D01*
X5025946Y-45951732D01*
X5024478Y-45948971D01*
X4896751Y-45792361D01*
X4741036Y-45663543D01*
X4726239Y-45655542D01*
X4701998Y-45642435D01*
X4563267Y-45567424D01*
X4370213Y-45507664D01*
X4169229Y-45486539D01*
X4166119Y-45486822D01*
X4166118Y-45486822D01*
X4120153Y-45491005D01*
X3967969Y-45504855D01*
X3964972Y-45505737D01*
X3964967Y-45505738D01*
X3777106Y-45561029D01*
X3777103Y-45561030D01*
X3774100Y-45561914D01*
X3760716Y-45568911D01*
X3597777Y-45654093D01*
X3597774Y-45654095D01*
X3595006Y-45655542D01*
X3437508Y-45782174D01*
X3307607Y-45936985D01*
X3210248Y-46114079D01*
X3209303Y-46117057D01*
X3209302Y-46117060D01*
X3150087Y-46303730D01*
X3149142Y-46306710D01*
X3126615Y-46507542D01*
X130000Y-46507542D01*
X130000Y-43205542D01*
X3126615Y-43205542D01*
X3143526Y-43406925D01*
X3199229Y-43601188D01*
X3291605Y-43780931D01*
X3417134Y-43939309D01*
X3419518Y-43941338D01*
X3419520Y-43941340D01*
X3455308Y-43971798D01*
X3571034Y-44070289D01*
X3747444Y-44168881D01*
X3750422Y-44169849D01*
X3750423Y-44169849D01*
X3936674Y-44230365D01*
X3936677Y-44230366D01*
X3939645Y-44231330D01*
X3942748Y-44231700D01*
X4137207Y-44254889D01*
X4137212Y-44254889D01*
X4140314Y-44255259D01*
X4143434Y-44255019D01*
X4143437Y-44255019D01*
X4338683Y-44239996D01*
X4338687Y-44239995D01*
X4341810Y-44239755D01*
X4344826Y-44238913D01*
X4344831Y-44238912D01*
X4434927Y-44213756D01*
X4536457Y-44185408D01*
X4539244Y-44184000D01*
X4539247Y-44183999D01*
X4714052Y-44095699D01*
X4714053Y-44095698D01*
X4716841Y-44094290D01*
X4876091Y-43969870D01*
X4904593Y-43936851D01*
X5006097Y-43819257D01*
X5008142Y-43816888D01*
X5107964Y-43641170D01*
X5121265Y-43601188D01*
X5170766Y-43452380D01*
X5171754Y-43449410D01*
X5175516Y-43419635D01*
X5196857Y-43250695D01*
X5196857Y-43250691D01*
X5197082Y-43248912D01*
X5197486Y-43220000D01*
X5177765Y-43018873D01*
X5176862Y-43015882D01*
X5176861Y-43015877D01*
X5148560Y-42922140D01*
X5119354Y-42825407D01*
X5117889Y-42822651D01*
X5117887Y-42822647D01*
X5025948Y-42649735D01*
X5025946Y-42649732D01*
X5024478Y-42646971D01*
X4896751Y-42490361D01*
X4741036Y-42361543D01*
X4726239Y-42353542D01*
X4701998Y-42340435D01*
X4563267Y-42265424D01*
X4370213Y-42205664D01*
X4169229Y-42184539D01*
X4166119Y-42184822D01*
X4166118Y-42184822D01*
X4120153Y-42189005D01*
X3967969Y-42202855D01*
X3964972Y-42203737D01*
X3964967Y-42203738D01*
X3777106Y-42259029D01*
X3777103Y-42259030D01*
X3774100Y-42259914D01*
X3760716Y-42266911D01*
X3597777Y-42352093D01*
X3597774Y-42352095D01*
X3595006Y-42353542D01*
X3437508Y-42480174D01*
X3307607Y-42634985D01*
X3210248Y-42812079D01*
X3209303Y-42815057D01*
X3209302Y-42815060D01*
X3150087Y-43001730D01*
X3149142Y-43004710D01*
X3126615Y-43205542D01*
X130000Y-43205542D01*
X130000Y-39903542D01*
X3126615Y-39903542D01*
X3143526Y-40104925D01*
X3199229Y-40299188D01*
X3291605Y-40478931D01*
X3417134Y-40637309D01*
X3419518Y-40639338D01*
X3419520Y-40639340D01*
X3455308Y-40669798D01*
X3571034Y-40768289D01*
X3747444Y-40866881D01*
X3750422Y-40867849D01*
X3750423Y-40867849D01*
X3936674Y-40928365D01*
X3936677Y-40928366D01*
X3939645Y-40929330D01*
X3942748Y-40929700D01*
X4137207Y-40952889D01*
X4137212Y-40952889D01*
X4140314Y-40953259D01*
X4143434Y-40953019D01*
X4143437Y-40953019D01*
X4338683Y-40937996D01*
X4338687Y-40937995D01*
X4341810Y-40937755D01*
X4344826Y-40936913D01*
X4344831Y-40936912D01*
X4434927Y-40911756D01*
X4536457Y-40883408D01*
X4539244Y-40882000D01*
X4539247Y-40881999D01*
X4714052Y-40793699D01*
X4714053Y-40793698D01*
X4716841Y-40792290D01*
X4876091Y-40667870D01*
X4904593Y-40634851D01*
X5006097Y-40517257D01*
X5008142Y-40514888D01*
X5107964Y-40339170D01*
X5121265Y-40299188D01*
X5170766Y-40150380D01*
X5171754Y-40147410D01*
X5175516Y-40117635D01*
X5196857Y-39948695D01*
X5196857Y-39948691D01*
X5197082Y-39946912D01*
X5197486Y-39918000D01*
X5177765Y-39716873D01*
X5176862Y-39713882D01*
X5176861Y-39713877D01*
X5148560Y-39620140D01*
X5119354Y-39523407D01*
X5117889Y-39520651D01*
X5117887Y-39520647D01*
X5025948Y-39347735D01*
X5025946Y-39347732D01*
X5024478Y-39344971D01*
X4896751Y-39188361D01*
X4741036Y-39059543D01*
X4726239Y-39051542D01*
X4701998Y-39038435D01*
X4563267Y-38963424D01*
X4370213Y-38903664D01*
X4169229Y-38882539D01*
X4166119Y-38882822D01*
X4166118Y-38882822D01*
X4120153Y-38887005D01*
X3967969Y-38900855D01*
X3964972Y-38901737D01*
X3964967Y-38901738D01*
X3777106Y-38957029D01*
X3777103Y-38957030D01*
X3774100Y-38957914D01*
X3760716Y-38964911D01*
X3597777Y-39050093D01*
X3597774Y-39050095D01*
X3595006Y-39051542D01*
X3437508Y-39178174D01*
X3307607Y-39332985D01*
X3210248Y-39510079D01*
X3209303Y-39513057D01*
X3209302Y-39513060D01*
X3150087Y-39699730D01*
X3149142Y-39702710D01*
X3126615Y-39903542D01*
X130000Y-39903542D01*
X130000Y-17700000D01*
X9519953Y-17700000D01*
X9538092Y-17872576D01*
X9564903Y-17955094D01*
X9590678Y-18034424D01*
X9590680Y-18034428D01*
X9591714Y-18037611D01*
X9678478Y-18187889D01*
X9758062Y-18276277D01*
X9774500Y-18319100D01*
X9774500Y-38108088D01*
X9773953Y-38116441D01*
X9769535Y-38150000D01*
X9770082Y-38154155D01*
X9774500Y-38187714D01*
X9771739Y-38188078D01*
X9771741Y-38188083D01*
X9774500Y-38187720D01*
X9789313Y-38300235D01*
X9847302Y-38440233D01*
X9849855Y-38443560D01*
X9916385Y-38530265D01*
X9916391Y-38530271D01*
X9939549Y-38560451D01*
X9942876Y-38563004D01*
X9966402Y-38581056D01*
X9972696Y-38586576D01*
X29401244Y-58015124D01*
X29419989Y-58060379D01*
X29419989Y-61499214D01*
X29401244Y-61544469D01*
X29355989Y-61563214D01*
X29308428Y-61542038D01*
X29283756Y-61514637D01*
X29255410Y-61483155D01*
X29115024Y-61381158D01*
X29064286Y-61358568D01*
X28959559Y-61311940D01*
X28959556Y-61311939D01*
X28956499Y-61310578D01*
X28786764Y-61274500D01*
X28613236Y-61274500D01*
X28443501Y-61310578D01*
X28440444Y-61311939D01*
X28440441Y-61311940D01*
X28412874Y-61324214D01*
X28284977Y-61381158D01*
X28144590Y-61483155D01*
X28028478Y-61612111D01*
X27941714Y-61762389D01*
X27940680Y-61765572D01*
X27940678Y-61765576D01*
X27921619Y-61824237D01*
X27888092Y-61927424D01*
X27887742Y-61930757D01*
X27887741Y-61930760D01*
X27870423Y-62095526D01*
X27852029Y-62134091D01*
X27703361Y-62282759D01*
X27658106Y-62301504D01*
X27612851Y-62282759D01*
X27594106Y-62237504D01*
X27597238Y-62217727D01*
X27600245Y-62208471D01*
X27611908Y-62172576D01*
X27619022Y-62104899D01*
X27629696Y-62003339D01*
X27630047Y-62000000D01*
X27617629Y-61881850D01*
X27612259Y-61830760D01*
X27612258Y-61830757D01*
X27611908Y-61827424D01*
X27569225Y-61696057D01*
X27559322Y-61665576D01*
X27559320Y-61665572D01*
X27558286Y-61662389D01*
X27471522Y-61512111D01*
X27355410Y-61383155D01*
X27215024Y-61281158D01*
X27128013Y-61242418D01*
X27059559Y-61211940D01*
X27059556Y-61211939D01*
X27056499Y-61210578D01*
X26886764Y-61174500D01*
X26713236Y-61174500D01*
X26543501Y-61210578D01*
X26540444Y-61211939D01*
X26540441Y-61211940D01*
X26436530Y-61258205D01*
X26384977Y-61281158D01*
X26244590Y-61383155D01*
X26128478Y-61512111D01*
X26041714Y-61662389D01*
X26040680Y-61665572D01*
X26040678Y-61665576D01*
X26030775Y-61696057D01*
X25988092Y-61827424D01*
X25987742Y-61830757D01*
X25987741Y-61830760D01*
X25970423Y-61995526D01*
X25952029Y-62034091D01*
X24572696Y-63413424D01*
X24566403Y-63418943D01*
X24539549Y-63439549D01*
X24536996Y-63442876D01*
X24536993Y-63442879D01*
X24525818Y-63457443D01*
X24516391Y-63469729D01*
X24516388Y-63469732D01*
X24489590Y-63504656D01*
X24447302Y-63559767D01*
X24445696Y-63563643D01*
X24445696Y-63563644D01*
X24402015Y-63669100D01*
X24389313Y-63699764D01*
X24374500Y-63812280D01*
X24371741Y-63811917D01*
X24371739Y-63811922D01*
X24374500Y-63812286D01*
X24369535Y-63850000D01*
X24370082Y-63854155D01*
X24373953Y-63883559D01*
X24374500Y-63891912D01*
X24374500Y-64736313D01*
X24361980Y-64774336D01*
X24297366Y-64861816D01*
X24252481Y-64989631D01*
X24249500Y-65021166D01*
X24249500Y-67528834D01*
X24252481Y-67560369D01*
X24253772Y-67564047D01*
X24253773Y-67564049D01*
X24295781Y-67683671D01*
X24297366Y-67688184D01*
X24300206Y-67692029D01*
X24300207Y-67692031D01*
X24327741Y-67729308D01*
X24377850Y-67797150D01*
X24381699Y-67799993D01*
X24482969Y-67874793D01*
X24482971Y-67874794D01*
X24486816Y-67877634D01*
X24491328Y-67879219D01*
X24491329Y-67879219D01*
X24610951Y-67921227D01*
X24610953Y-67921228D01*
X24614631Y-67922519D01*
X24646166Y-67925500D01*
X25253834Y-67925500D01*
X25285369Y-67922519D01*
X25289047Y-67921228D01*
X25289049Y-67921227D01*
X25408671Y-67879219D01*
X25408672Y-67879219D01*
X25413184Y-67877634D01*
X25417029Y-67874794D01*
X25417031Y-67874793D01*
X25518301Y-67799993D01*
X25522150Y-67797150D01*
X25572259Y-67729308D01*
X25599793Y-67692031D01*
X25599794Y-67692029D01*
X25602634Y-67688184D01*
X25604219Y-67683671D01*
X25646227Y-67564049D01*
X25646228Y-67564047D01*
X25647519Y-67560369D01*
X25650500Y-67528834D01*
X25650500Y-65021166D01*
X25647519Y-64989631D01*
X25602634Y-64861816D01*
X25538020Y-64774336D01*
X25525500Y-64736313D01*
X25525500Y-64114890D01*
X25544245Y-64069635D01*
X26769635Y-62844245D01*
X26814890Y-62825500D01*
X26886764Y-62825500D01*
X27023204Y-62796499D01*
X27071367Y-62805425D01*
X27099111Y-62845794D01*
X27090185Y-62893957D01*
X27081765Y-62904355D01*
X26572696Y-63413424D01*
X26566403Y-63418943D01*
X26539549Y-63439549D01*
X26536996Y-63442876D01*
X26536993Y-63442879D01*
X26525818Y-63457443D01*
X26516391Y-63469729D01*
X26516388Y-63469732D01*
X26489590Y-63504656D01*
X26447302Y-63559767D01*
X26445696Y-63563643D01*
X26445696Y-63563644D01*
X26402015Y-63669100D01*
X26389313Y-63699764D01*
X26374500Y-63812280D01*
X26371741Y-63811917D01*
X26371739Y-63811922D01*
X26374500Y-63812286D01*
X26369535Y-63850000D01*
X26370082Y-63854155D01*
X26373953Y-63883559D01*
X26374500Y-63891912D01*
X26374500Y-64736313D01*
X26361980Y-64774336D01*
X26297366Y-64861816D01*
X26252481Y-64989631D01*
X26249500Y-65021166D01*
X26249500Y-67528834D01*
X26252481Y-67560369D01*
X26253772Y-67564047D01*
X26253773Y-67564049D01*
X26295781Y-67683671D01*
X26297366Y-67688184D01*
X26300206Y-67692029D01*
X26300207Y-67692031D01*
X26327741Y-67729308D01*
X26377850Y-67797150D01*
X26381699Y-67799993D01*
X26482969Y-67874793D01*
X26482971Y-67874794D01*
X26486816Y-67877634D01*
X26491328Y-67879219D01*
X26491329Y-67879219D01*
X26610951Y-67921227D01*
X26610953Y-67921228D01*
X26614631Y-67922519D01*
X26646166Y-67925500D01*
X27253834Y-67925500D01*
X27285369Y-67922519D01*
X27289047Y-67921228D01*
X27289049Y-67921227D01*
X27408671Y-67879219D01*
X27408672Y-67879219D01*
X27413184Y-67877634D01*
X27417029Y-67874794D01*
X27417031Y-67874793D01*
X27518301Y-67799993D01*
X27522150Y-67797150D01*
X27572259Y-67729308D01*
X27599793Y-67692031D01*
X27599794Y-67692029D01*
X27602634Y-67688184D01*
X27604219Y-67683671D01*
X27646227Y-67564049D01*
X27646228Y-67564047D01*
X27647519Y-67560369D01*
X27650500Y-67528834D01*
X27650500Y-65021166D01*
X27647519Y-64989631D01*
X27602634Y-64861816D01*
X27538020Y-64774336D01*
X27525500Y-64736313D01*
X27525500Y-64114890D01*
X27544245Y-64069635D01*
X28669635Y-62944245D01*
X28714890Y-62925500D01*
X28786764Y-62925500D01*
X28956499Y-62889422D01*
X28959556Y-62888061D01*
X28959559Y-62888060D01*
X29100070Y-62825500D01*
X29115024Y-62818842D01*
X29255410Y-62716845D01*
X29308428Y-62657962D01*
X29352639Y-62636874D01*
X29398813Y-62653225D01*
X29419989Y-62700786D01*
X29419989Y-62869477D01*
X29419442Y-62877830D01*
X29415024Y-62911389D01*
X29415571Y-62915544D01*
X29419989Y-62949103D01*
X29417228Y-62949467D01*
X29417230Y-62949472D01*
X29419989Y-62949109D01*
X29433272Y-63050000D01*
X29434802Y-63061625D01*
X29450698Y-63100000D01*
X29492791Y-63201622D01*
X29495344Y-63204949D01*
X29561874Y-63291654D01*
X29561880Y-63291660D01*
X29585038Y-63321840D01*
X29588365Y-63324393D01*
X29611891Y-63342445D01*
X29618185Y-63347965D01*
X30363718Y-64093498D01*
X30382463Y-64138753D01*
X30382064Y-64145878D01*
X30364615Y-64301442D01*
X30381526Y-64502825D01*
X30437229Y-64697088D01*
X30438659Y-64699870D01*
X30524208Y-64866329D01*
X30529605Y-64876831D01*
X30655134Y-65035209D01*
X30657518Y-65037238D01*
X30657520Y-65037240D01*
X30693308Y-65067698D01*
X30809034Y-65166189D01*
X30985444Y-65264781D01*
X30988422Y-65265749D01*
X30988423Y-65265749D01*
X31174674Y-65326265D01*
X31174677Y-65326266D01*
X31177645Y-65327230D01*
X31180748Y-65327600D01*
X31375207Y-65350789D01*
X31375212Y-65350789D01*
X31378314Y-65351159D01*
X31381434Y-65350919D01*
X31381437Y-65350919D01*
X31576683Y-65335896D01*
X31576687Y-65335895D01*
X31579810Y-65335655D01*
X31582826Y-65334813D01*
X31582831Y-65334812D01*
X31672927Y-65309656D01*
X31774457Y-65281308D01*
X31777244Y-65279900D01*
X31777247Y-65279899D01*
X31952052Y-65191599D01*
X31952053Y-65191598D01*
X31954841Y-65190190D01*
X32114091Y-65065770D01*
X32142593Y-65032751D01*
X32244097Y-64915157D01*
X32246142Y-64912788D01*
X32345964Y-64737070D01*
X32359265Y-64697088D01*
X32408766Y-64548280D01*
X32409754Y-64545310D01*
X32414742Y-64505831D01*
X32434857Y-64346595D01*
X32434857Y-64346591D01*
X32435082Y-64344812D01*
X32435486Y-64315900D01*
X32415765Y-64114773D01*
X32414862Y-64111782D01*
X32414861Y-64111777D01*
X32386559Y-64018040D01*
X32357354Y-63921307D01*
X32355889Y-63918551D01*
X32355887Y-63918547D01*
X32263948Y-63745635D01*
X32263946Y-63745632D01*
X32262478Y-63742871D01*
X32134751Y-63586261D01*
X32098704Y-63556440D01*
X31981445Y-63459436D01*
X31981446Y-63459436D01*
X31979036Y-63457443D01*
X31801267Y-63361324D01*
X31608213Y-63301564D01*
X31407229Y-63280439D01*
X31404119Y-63280722D01*
X31404118Y-63280722D01*
X31227361Y-63296808D01*
X31180594Y-63282241D01*
X31176306Y-63278326D01*
X30589734Y-62691754D01*
X30570989Y-62646499D01*
X30570989Y-61927105D01*
X30589734Y-61881850D01*
X30634989Y-61863105D01*
X30676469Y-61878367D01*
X30778283Y-61965018D01*
X30809034Y-61991189D01*
X30985444Y-62089781D01*
X30988422Y-62090749D01*
X30988423Y-62090749D01*
X31174674Y-62151265D01*
X31174677Y-62151266D01*
X31177645Y-62152230D01*
X31180748Y-62152600D01*
X31375207Y-62175789D01*
X31375212Y-62175789D01*
X31378314Y-62176159D01*
X31381434Y-62175919D01*
X31381437Y-62175919D01*
X31576683Y-62160896D01*
X31576687Y-62160895D01*
X31579810Y-62160655D01*
X31582826Y-62159813D01*
X31582831Y-62159812D01*
X31674951Y-62134091D01*
X31774457Y-62106308D01*
X31777244Y-62104900D01*
X31777247Y-62104899D01*
X31952052Y-62016599D01*
X31952053Y-62016598D01*
X31954841Y-62015190D01*
X32114091Y-61890770D01*
X32165891Y-61830760D01*
X32244097Y-61740157D01*
X32246142Y-61737788D01*
X32317537Y-61612111D01*
X32344419Y-61564790D01*
X32344420Y-61564789D01*
X32345964Y-61562070D01*
X32366874Y-61499214D01*
X32408766Y-61373280D01*
X32409754Y-61370310D01*
X32421189Y-61279794D01*
X32434857Y-61171595D01*
X32434857Y-61171591D01*
X32435082Y-61169812D01*
X32435486Y-61140900D01*
X32415765Y-60939773D01*
X32414862Y-60936782D01*
X32414861Y-60936777D01*
X32378157Y-60815209D01*
X32357354Y-60746307D01*
X32355889Y-60743551D01*
X32355887Y-60743547D01*
X32263948Y-60570635D01*
X32263946Y-60570632D01*
X32262478Y-60567871D01*
X32134751Y-60411261D01*
X31998705Y-60298714D01*
X31975784Y-60255425D01*
X31975500Y-60249402D01*
X31975500Y-56441912D01*
X31976048Y-56433558D01*
X31979918Y-56404162D01*
X31980466Y-56400000D01*
X31966307Y-56292451D01*
X31961235Y-56253923D01*
X31961234Y-56253920D01*
X31960687Y-56249764D01*
X31959082Y-56245889D01*
X31936668Y-56191777D01*
X31904305Y-56113643D01*
X31904302Y-56113637D01*
X31902699Y-56109768D01*
X31833612Y-56019732D01*
X31833609Y-56019729D01*
X31833606Y-56019725D01*
X31813007Y-55992879D01*
X31813004Y-55992876D01*
X31810451Y-55989549D01*
X31783597Y-55968943D01*
X31777304Y-55963424D01*
X25623422Y-49809542D01*
X27502615Y-49809542D01*
X27519526Y-50010925D01*
X27575229Y-50205188D01*
X27667605Y-50384931D01*
X27793134Y-50543309D01*
X27795518Y-50545338D01*
X27795520Y-50545340D01*
X27831308Y-50575798D01*
X27947034Y-50674289D01*
X28123444Y-50772881D01*
X28126422Y-50773849D01*
X28126423Y-50773849D01*
X28312674Y-50834365D01*
X28312677Y-50834366D01*
X28315645Y-50835330D01*
X28318748Y-50835700D01*
X28513207Y-50858889D01*
X28513212Y-50858889D01*
X28516314Y-50859259D01*
X28519434Y-50859019D01*
X28519437Y-50859019D01*
X28714683Y-50843996D01*
X28714687Y-50843995D01*
X28717810Y-50843755D01*
X28720826Y-50842913D01*
X28720831Y-50842912D01*
X28810927Y-50817756D01*
X28912457Y-50789408D01*
X28915244Y-50788000D01*
X28915247Y-50787999D01*
X29090052Y-50699699D01*
X29090053Y-50699698D01*
X29092841Y-50698290D01*
X29252091Y-50573870D01*
X29280593Y-50540851D01*
X29382097Y-50423257D01*
X29384142Y-50420888D01*
X29483964Y-50245170D01*
X29497265Y-50205188D01*
X29546766Y-50056380D01*
X29547754Y-50053410D01*
X29552742Y-50013931D01*
X29572857Y-49854695D01*
X29572857Y-49854691D01*
X29573082Y-49852912D01*
X29573486Y-49824000D01*
X29553765Y-49622873D01*
X29552862Y-49619882D01*
X29552861Y-49619877D01*
X29524560Y-49526140D01*
X29495354Y-49429407D01*
X29493889Y-49426651D01*
X29493887Y-49426647D01*
X29401948Y-49253735D01*
X29401946Y-49253732D01*
X29400478Y-49250971D01*
X29272751Y-49094361D01*
X29117036Y-48965543D01*
X29102239Y-48957542D01*
X29077998Y-48944435D01*
X28939267Y-48869424D01*
X28746213Y-48809664D01*
X28545229Y-48788539D01*
X28542119Y-48788822D01*
X28542118Y-48788822D01*
X28496153Y-48793005D01*
X28343969Y-48806855D01*
X28340972Y-48807737D01*
X28340967Y-48807738D01*
X28153106Y-48863029D01*
X28153103Y-48863030D01*
X28150100Y-48863914D01*
X28136716Y-48870911D01*
X27973777Y-48956093D01*
X27973774Y-48956095D01*
X27971006Y-48957542D01*
X27813508Y-49084174D01*
X27683607Y-49238985D01*
X27586248Y-49416079D01*
X27585303Y-49419057D01*
X27585302Y-49419060D01*
X27526087Y-49605730D01*
X27525142Y-49608710D01*
X27502615Y-49809542D01*
X25623422Y-49809542D01*
X22321422Y-46507542D01*
X27502615Y-46507542D01*
X27519526Y-46708925D01*
X27575229Y-46903188D01*
X27667605Y-47082931D01*
X27793134Y-47241309D01*
X27795518Y-47243338D01*
X27795520Y-47243340D01*
X27831308Y-47273798D01*
X27947034Y-47372289D01*
X28123444Y-47470881D01*
X28126422Y-47471849D01*
X28126423Y-47471849D01*
X28312674Y-47532365D01*
X28312677Y-47532366D01*
X28315645Y-47533330D01*
X28318748Y-47533700D01*
X28513207Y-47556889D01*
X28513212Y-47556889D01*
X28516314Y-47557259D01*
X28519434Y-47557019D01*
X28519437Y-47557019D01*
X28714683Y-47541996D01*
X28714687Y-47541995D01*
X28717810Y-47541755D01*
X28720826Y-47540913D01*
X28720831Y-47540912D01*
X28810927Y-47515756D01*
X28912457Y-47487408D01*
X28915244Y-47486000D01*
X28915247Y-47485999D01*
X29090052Y-47397699D01*
X29090053Y-47397698D01*
X29092841Y-47396290D01*
X29252091Y-47271870D01*
X29280593Y-47238851D01*
X29382097Y-47121257D01*
X29384142Y-47118888D01*
X29483964Y-46943170D01*
X29497265Y-46903188D01*
X29546766Y-46754380D01*
X29547754Y-46751410D01*
X29552742Y-46711931D01*
X29572857Y-46552695D01*
X29572857Y-46552691D01*
X29573082Y-46550912D01*
X29573486Y-46522000D01*
X29553765Y-46320873D01*
X29552862Y-46317882D01*
X29552861Y-46317877D01*
X29524560Y-46224140D01*
X29495354Y-46127407D01*
X29493889Y-46124651D01*
X29493887Y-46124647D01*
X29401948Y-45951735D01*
X29401946Y-45951732D01*
X29400478Y-45948971D01*
X29272751Y-45792361D01*
X29117036Y-45663543D01*
X29102239Y-45655542D01*
X29077998Y-45642435D01*
X28939267Y-45567424D01*
X28746213Y-45507664D01*
X28545229Y-45486539D01*
X28542119Y-45486822D01*
X28542118Y-45486822D01*
X28496153Y-45491005D01*
X28343969Y-45504855D01*
X28340972Y-45505737D01*
X28340967Y-45505738D01*
X28153106Y-45561029D01*
X28153103Y-45561030D01*
X28150100Y-45561914D01*
X28136716Y-45568911D01*
X27973777Y-45654093D01*
X27973774Y-45654095D01*
X27971006Y-45655542D01*
X27813508Y-45782174D01*
X27683607Y-45936985D01*
X27586248Y-46114079D01*
X27585303Y-46117057D01*
X27585302Y-46117060D01*
X27526087Y-46303730D01*
X27525142Y-46306710D01*
X27502615Y-46507542D01*
X22321422Y-46507542D01*
X12994245Y-37180365D01*
X12975500Y-37135110D01*
X12975500Y-12697341D01*
X21549991Y-12697341D01*
X21550066Y-12699131D01*
X21562116Y-12986623D01*
X21564275Y-13038146D01*
X21564548Y-13039907D01*
X21564548Y-13039911D01*
X21583947Y-13165217D01*
X21616459Y-13375234D01*
X21616929Y-13376964D01*
X21684403Y-13625311D01*
X21705892Y-13704405D01*
X21706546Y-13706056D01*
X21706547Y-13706060D01*
X21752950Y-13823259D01*
X21831461Y-14021555D01*
X21991600Y-14322732D01*
X22184312Y-14604181D01*
X22185475Y-14605528D01*
X22185477Y-14605531D01*
X22270398Y-14703913D01*
X22407196Y-14862395D01*
X22657474Y-15094155D01*
X22932026Y-15296572D01*
X23227431Y-15467124D01*
X23540005Y-15603684D01*
X23541716Y-15604214D01*
X23541717Y-15604214D01*
X23781206Y-15678348D01*
X23865854Y-15704551D01*
X23867605Y-15704885D01*
X23867613Y-15704887D01*
X24199148Y-15768131D01*
X24199153Y-15768132D01*
X24200916Y-15768468D01*
X24541014Y-15794637D01*
X24881910Y-15782733D01*
X25125022Y-15746833D01*
X25217582Y-15733165D01*
X25217585Y-15733164D01*
X25219355Y-15732903D01*
X25221077Y-15732448D01*
X25221082Y-15732447D01*
X25547416Y-15646226D01*
X25549142Y-15645770D01*
X25827074Y-15537967D01*
X25865493Y-15523065D01*
X25867161Y-15522418D01*
X26169448Y-15364386D01*
X26170933Y-15363385D01*
X26170937Y-15363382D01*
X26450744Y-15174650D01*
X26450751Y-15174644D01*
X26452236Y-15173643D01*
X26453604Y-15172479D01*
X26710633Y-14953730D01*
X26710637Y-14953726D01*
X26711999Y-14952567D01*
X26713221Y-14951266D01*
X26713227Y-14951260D01*
X26855745Y-14799493D01*
X26945501Y-14703913D01*
X26946563Y-14702493D01*
X26946570Y-14702485D01*
X27148763Y-14432208D01*
X27148767Y-14432202D01*
X27149830Y-14430781D01*
X27160854Y-14411992D01*
X27321534Y-14138118D01*
X27322440Y-14136574D01*
X27461179Y-13824961D01*
X27484209Y-13752362D01*
X27563780Y-13501524D01*
X27563781Y-13501519D01*
X27564319Y-13499824D01*
X27607303Y-13282741D01*
X33519991Y-13282741D01*
X33520066Y-13284531D01*
X33523794Y-13373466D01*
X33534275Y-13623546D01*
X33534548Y-13625307D01*
X33534548Y-13625311D01*
X33565456Y-13824961D01*
X33586459Y-13960634D01*
X33586929Y-13962364D01*
X33619834Y-14083474D01*
X33675892Y-14289805D01*
X33676546Y-14291456D01*
X33676547Y-14291460D01*
X33786356Y-14568806D01*
X33801461Y-14606955D01*
X33961600Y-14908132D01*
X34154312Y-15189581D01*
X34155475Y-15190928D01*
X34155477Y-15190931D01*
X34240398Y-15289313D01*
X34377196Y-15447795D01*
X34627474Y-15679555D01*
X34902026Y-15881972D01*
X35197431Y-16052524D01*
X35510005Y-16189084D01*
X35835854Y-16289951D01*
X35837605Y-16290285D01*
X35837613Y-16290287D01*
X36169148Y-16353531D01*
X36169153Y-16353532D01*
X36170916Y-16353868D01*
X36511014Y-16380037D01*
X36851910Y-16368133D01*
X37095022Y-16332233D01*
X37187582Y-16318565D01*
X37187585Y-16318564D01*
X37189355Y-16318303D01*
X37191077Y-16317848D01*
X37191082Y-16317847D01*
X37517416Y-16231626D01*
X37519142Y-16231170D01*
X37837161Y-16107818D01*
X38139448Y-15949786D01*
X38140933Y-15948785D01*
X38140937Y-15948782D01*
X38420744Y-15760050D01*
X38420751Y-15760044D01*
X38422236Y-15759043D01*
X38423604Y-15757879D01*
X38680633Y-15539130D01*
X38680637Y-15539126D01*
X38681999Y-15537967D01*
X38683221Y-15536666D01*
X38683227Y-15536660D01*
X38845945Y-15363382D01*
X38915501Y-15289313D01*
X38916563Y-15287893D01*
X38916570Y-15287885D01*
X39118763Y-15017608D01*
X39118767Y-15017602D01*
X39119830Y-15016181D01*
X39184153Y-14906546D01*
X39291534Y-14723518D01*
X39292440Y-14721974D01*
X39421452Y-14432208D01*
X39430453Y-14411992D01*
X39430454Y-14411989D01*
X39431179Y-14410361D01*
X39534319Y-14085224D01*
X39600573Y-13750617D01*
X39600721Y-13748858D01*
X39600722Y-13748849D01*
X39629023Y-13411818D01*
X39629023Y-13411814D01*
X39629116Y-13410709D01*
X39630307Y-13325400D01*
X39627922Y-13282741D01*
X52569991Y-13282741D01*
X52570066Y-13284531D01*
X52573794Y-13373466D01*
X52584275Y-13623546D01*
X52584548Y-13625307D01*
X52584548Y-13625311D01*
X52615456Y-13824961D01*
X52636459Y-13960634D01*
X52636929Y-13962364D01*
X52669834Y-14083474D01*
X52725892Y-14289805D01*
X52726546Y-14291456D01*
X52726547Y-14291460D01*
X52836356Y-14568806D01*
X52851461Y-14606955D01*
X53011600Y-14908132D01*
X53204312Y-15189581D01*
X53205475Y-15190928D01*
X53205477Y-15190931D01*
X53290398Y-15289313D01*
X53427196Y-15447795D01*
X53677474Y-15679555D01*
X53952026Y-15881972D01*
X54247431Y-16052524D01*
X54560005Y-16189084D01*
X54885854Y-16289951D01*
X54887605Y-16290285D01*
X54887613Y-16290287D01*
X55219148Y-16353531D01*
X55219153Y-16353532D01*
X55220916Y-16353868D01*
X55561014Y-16380037D01*
X55901910Y-16368133D01*
X56145022Y-16332233D01*
X56237582Y-16318565D01*
X56237585Y-16318564D01*
X56239355Y-16318303D01*
X56241077Y-16317848D01*
X56241082Y-16317847D01*
X56567416Y-16231626D01*
X56569142Y-16231170D01*
X56887161Y-16107818D01*
X57189448Y-15949786D01*
X57190933Y-15948785D01*
X57190937Y-15948782D01*
X57470744Y-15760050D01*
X57470751Y-15760044D01*
X57472236Y-15759043D01*
X57473604Y-15757879D01*
X57730633Y-15539130D01*
X57730637Y-15539126D01*
X57731999Y-15537967D01*
X57733221Y-15536666D01*
X57733227Y-15536660D01*
X57895945Y-15363382D01*
X57965501Y-15289313D01*
X57966563Y-15287893D01*
X57966570Y-15287885D01*
X58168763Y-15017608D01*
X58168767Y-15017602D01*
X58169830Y-15016181D01*
X58234153Y-14906546D01*
X58341534Y-14723518D01*
X58342440Y-14721974D01*
X58471452Y-14432208D01*
X58480453Y-14411992D01*
X58480454Y-14411989D01*
X58481179Y-14410361D01*
X58584319Y-14085224D01*
X58650573Y-13750617D01*
X58650721Y-13748858D01*
X58650722Y-13748849D01*
X58679023Y-13411818D01*
X58679023Y-13411814D01*
X58679116Y-13410709D01*
X58680307Y-13325400D01*
X58661266Y-12984828D01*
X58654102Y-12942468D01*
X58604679Y-12650263D01*
X58604381Y-12648501D01*
X58591980Y-12605251D01*
X58510852Y-12322326D01*
X58510851Y-12322322D01*
X58510360Y-12320611D01*
X58493121Y-12278785D01*
X58404948Y-12064863D01*
X58380375Y-12005245D01*
X58216047Y-11706334D01*
X58019424Y-11427603D01*
X57792956Y-11172526D01*
X57539467Y-10944283D01*
X57538011Y-10943240D01*
X57538004Y-10943235D01*
X57263576Y-10746765D01*
X57262115Y-10745719D01*
X57113237Y-10662514D01*
X56965924Y-10580183D01*
X56965921Y-10580182D01*
X56964358Y-10579308D01*
X56649908Y-10447125D01*
X56648196Y-10446621D01*
X56324406Y-10351325D01*
X56324399Y-10351323D01*
X56322682Y-10350818D01*
X56320918Y-10350507D01*
X56320914Y-10350506D01*
X56171709Y-10324197D01*
X55986760Y-10291586D01*
X55843860Y-10282595D01*
X55648101Y-10270278D01*
X55648093Y-10270278D01*
X55646330Y-10270167D01*
X55418150Y-10281327D01*
X55307408Y-10286743D01*
X55307405Y-10286743D01*
X55305633Y-10286830D01*
X55303882Y-10287114D01*
X55303878Y-10287114D01*
X54970683Y-10341080D01*
X54970681Y-10341081D01*
X54968918Y-10341366D01*
X54967194Y-10341847D01*
X54967191Y-10341848D01*
X54879880Y-10366226D01*
X54640379Y-10433096D01*
X54638729Y-10433763D01*
X54638728Y-10433763D01*
X54325769Y-10560207D01*
X54325764Y-10560209D01*
X54324114Y-10560876D01*
X54322550Y-10561722D01*
X54322545Y-10561724D01*
X54025624Y-10722268D01*
X54025618Y-10722272D01*
X54024062Y-10723113D01*
X54022608Y-10724123D01*
X54022604Y-10724126D01*
X53745432Y-10916765D01*
X53745427Y-10916769D01*
X53743965Y-10917785D01*
X53742619Y-10918963D01*
X53742613Y-10918968D01*
X53712320Y-10945488D01*
X53487314Y-11142467D01*
X53486104Y-11143792D01*
X53486101Y-11143795D01*
X53384398Y-11255174D01*
X53257307Y-11394356D01*
X53056811Y-11670315D01*
X52888326Y-11966903D01*
X52887621Y-11968549D01*
X52887619Y-11968552D01*
X52847831Y-12061384D01*
X52753951Y-12280423D01*
X52753435Y-12282133D01*
X52753434Y-12282135D01*
X52741300Y-12322326D01*
X52655361Y-12606969D01*
X52655039Y-12608721D01*
X52655038Y-12608727D01*
X52638446Y-12699131D01*
X52593785Y-12942468D01*
X52593661Y-12944245D01*
X52593660Y-12944251D01*
X52578209Y-13165217D01*
X52569991Y-13282741D01*
X39627922Y-13282741D01*
X39611266Y-12984828D01*
X39604102Y-12942468D01*
X39554679Y-12650263D01*
X39554381Y-12648501D01*
X39541980Y-12605251D01*
X39460852Y-12322326D01*
X39460851Y-12322322D01*
X39460360Y-12320611D01*
X39443121Y-12278785D01*
X39354948Y-12064863D01*
X39330375Y-12005245D01*
X39166047Y-11706334D01*
X38969424Y-11427603D01*
X38742956Y-11172526D01*
X38489467Y-10944283D01*
X38488011Y-10943240D01*
X38488004Y-10943235D01*
X38213576Y-10746765D01*
X38212115Y-10745719D01*
X38063237Y-10662514D01*
X37915924Y-10580183D01*
X37915921Y-10580182D01*
X37914358Y-10579308D01*
X37599908Y-10447125D01*
X37598196Y-10446621D01*
X37274406Y-10351325D01*
X37274399Y-10351323D01*
X37272682Y-10350818D01*
X37270918Y-10350507D01*
X37270914Y-10350506D01*
X37121709Y-10324197D01*
X36936760Y-10291586D01*
X36793860Y-10282595D01*
X36598101Y-10270278D01*
X36598093Y-10270278D01*
X36596330Y-10270167D01*
X36368150Y-10281327D01*
X36257408Y-10286743D01*
X36257405Y-10286743D01*
X36255633Y-10286830D01*
X36253882Y-10287114D01*
X36253878Y-10287114D01*
X35920683Y-10341080D01*
X35920681Y-10341081D01*
X35918918Y-10341366D01*
X35917194Y-10341847D01*
X35917191Y-10341848D01*
X35829880Y-10366226D01*
X35590379Y-10433096D01*
X35588729Y-10433763D01*
X35588728Y-10433763D01*
X35275769Y-10560207D01*
X35275764Y-10560209D01*
X35274114Y-10560876D01*
X35272550Y-10561722D01*
X35272545Y-10561724D01*
X34975624Y-10722268D01*
X34975618Y-10722272D01*
X34974062Y-10723113D01*
X34972608Y-10724123D01*
X34972604Y-10724126D01*
X34695432Y-10916765D01*
X34695427Y-10916769D01*
X34693965Y-10917785D01*
X34692619Y-10918963D01*
X34692613Y-10918968D01*
X34662320Y-10945488D01*
X34437314Y-11142467D01*
X34436104Y-11143792D01*
X34436101Y-11143795D01*
X34334398Y-11255174D01*
X34207307Y-11394356D01*
X34006811Y-11670315D01*
X33838326Y-11966903D01*
X33837621Y-11968549D01*
X33837619Y-11968552D01*
X33797831Y-12061384D01*
X33703951Y-12280423D01*
X33703435Y-12282133D01*
X33703434Y-12282135D01*
X33691300Y-12322326D01*
X33605361Y-12606969D01*
X33605039Y-12608721D01*
X33605038Y-12608727D01*
X33588446Y-12699131D01*
X33543785Y-12942468D01*
X33543661Y-12944245D01*
X33543660Y-12944251D01*
X33528209Y-13165217D01*
X33519991Y-13282741D01*
X27607303Y-13282741D01*
X27630573Y-13165217D01*
X27630721Y-13163458D01*
X27630722Y-13163449D01*
X27659023Y-12826418D01*
X27659023Y-12826414D01*
X27659116Y-12825309D01*
X27660307Y-12740000D01*
X27641266Y-12399428D01*
X27634102Y-12357068D01*
X27584679Y-12064863D01*
X27584381Y-12063101D01*
X27571980Y-12019851D01*
X27490852Y-11736926D01*
X27490851Y-11736922D01*
X27490360Y-11735211D01*
X27473121Y-11693385D01*
X27364174Y-11429063D01*
X27360375Y-11419845D01*
X27196047Y-11120934D01*
X26999424Y-10842203D01*
X26772956Y-10587126D01*
X26519467Y-10358883D01*
X26518011Y-10357840D01*
X26518004Y-10357835D01*
X26243576Y-10161365D01*
X26242115Y-10160319D01*
X25944358Y-9993908D01*
X25629908Y-9861725D01*
X25628196Y-9861221D01*
X25304406Y-9765925D01*
X25304399Y-9765923D01*
X25302682Y-9765418D01*
X25300918Y-9765107D01*
X25300914Y-9765106D01*
X25151709Y-9738797D01*
X24966760Y-9706186D01*
X24823860Y-9697195D01*
X24628101Y-9684878D01*
X24628093Y-9684878D01*
X24626330Y-9684767D01*
X24398150Y-9695927D01*
X24287408Y-9701343D01*
X24287405Y-9701343D01*
X24285633Y-9701430D01*
X24283882Y-9701714D01*
X24283878Y-9701714D01*
X23950683Y-9755680D01*
X23950681Y-9755681D01*
X23948918Y-9755966D01*
X23947194Y-9756447D01*
X23947191Y-9756448D01*
X23913249Y-9765925D01*
X23620379Y-9847696D01*
X23618729Y-9848363D01*
X23618728Y-9848363D01*
X23305769Y-9974807D01*
X23305764Y-9974809D01*
X23304114Y-9975476D01*
X23302550Y-9976322D01*
X23302545Y-9976324D01*
X23005624Y-10136868D01*
X23005618Y-10136872D01*
X23004062Y-10137713D01*
X23002608Y-10138723D01*
X23002604Y-10138726D01*
X22725432Y-10331365D01*
X22725427Y-10331369D01*
X22723965Y-10332385D01*
X22722619Y-10333563D01*
X22722613Y-10333568D01*
X22608924Y-10433096D01*
X22467314Y-10557067D01*
X22466104Y-10558392D01*
X22466101Y-10558395D01*
X22364398Y-10669774D01*
X22237307Y-10808956D01*
X22236250Y-10810411D01*
X22139748Y-10943235D01*
X22036811Y-11084915D01*
X21868326Y-11381503D01*
X21867621Y-11383149D01*
X21867619Y-11383152D01*
X21851186Y-11421493D01*
X21733951Y-11695023D01*
X21733435Y-11696733D01*
X21733434Y-11696735D01*
X21721300Y-11736926D01*
X21635361Y-12021569D01*
X21635039Y-12023321D01*
X21635038Y-12023327D01*
X21627738Y-12063101D01*
X21573785Y-12357068D01*
X21573661Y-12358845D01*
X21573660Y-12358851D01*
X21556310Y-12606969D01*
X21549991Y-12697341D01*
X12975500Y-12697341D01*
X12975500Y-5300831D01*
X12994245Y-5255576D01*
X13001476Y-5249351D01*
X13068301Y-5199993D01*
X13072150Y-5197150D01*
X13074993Y-5193301D01*
X13149793Y-5092031D01*
X13149794Y-5092029D01*
X13152634Y-5088184D01*
X13170733Y-5036646D01*
X13196227Y-4964049D01*
X13196228Y-4964047D01*
X13197519Y-4960369D01*
X13200500Y-4928834D01*
X13200500Y-4570155D01*
X13599500Y-4570155D01*
X13614454Y-4703472D01*
X13615631Y-4706852D01*
X13615632Y-4706856D01*
X13645551Y-4792770D01*
X13673515Y-4873073D01*
X13675409Y-4876105D01*
X13675411Y-4876108D01*
X13679832Y-4883183D01*
X13768684Y-5025375D01*
X13771205Y-5027913D01*
X13771206Y-5027915D01*
X13892710Y-5150270D01*
X13892713Y-5150273D01*
X13895230Y-5152807D01*
X14046864Y-5249037D01*
X14216049Y-5309281D01*
X14330145Y-5322886D01*
X14390828Y-5330122D01*
X14390829Y-5330122D01*
X14394376Y-5330545D01*
X14572983Y-5311773D01*
X14576368Y-5310621D01*
X14576371Y-5310620D01*
X14739607Y-5255050D01*
X14739609Y-5255049D01*
X14742993Y-5253897D01*
X14746040Y-5252022D01*
X14746043Y-5252021D01*
X14802234Y-5217452D01*
X14895955Y-5159794D01*
X15024268Y-5034141D01*
X15092134Y-4928834D01*
X19599500Y-4928834D01*
X19602481Y-4960369D01*
X19603772Y-4964047D01*
X19603773Y-4964049D01*
X19629267Y-5036646D01*
X19647366Y-5088184D01*
X19650206Y-5092029D01*
X19650207Y-5092031D01*
X19725007Y-5193301D01*
X19727850Y-5197150D01*
X19731699Y-5199993D01*
X19832969Y-5274793D01*
X19832971Y-5274794D01*
X19836816Y-5277634D01*
X19841328Y-5279219D01*
X19841329Y-5279219D01*
X19960951Y-5321227D01*
X19960953Y-5321228D01*
X19964631Y-5322519D01*
X19996166Y-5325500D01*
X20803834Y-5325500D01*
X20835369Y-5322519D01*
X20839047Y-5321228D01*
X20839049Y-5321227D01*
X20958671Y-5279219D01*
X20958672Y-5279219D01*
X20963184Y-5277634D01*
X20967029Y-5274794D01*
X20967031Y-5274793D01*
X21068301Y-5199993D01*
X21072150Y-5197150D01*
X21074993Y-5193301D01*
X21149793Y-5092031D01*
X21149794Y-5092029D01*
X21152634Y-5088184D01*
X21170733Y-5036646D01*
X21196227Y-4964049D01*
X21196228Y-4964047D01*
X21197519Y-4960369D01*
X21200500Y-4928834D01*
X21200500Y-4570155D01*
X21599500Y-4570155D01*
X21614454Y-4703472D01*
X21615631Y-4706852D01*
X21615632Y-4706856D01*
X21645551Y-4792770D01*
X21673515Y-4873073D01*
X21675409Y-4876105D01*
X21675411Y-4876108D01*
X21679832Y-4883183D01*
X21768684Y-5025375D01*
X21771205Y-5027913D01*
X21771206Y-5027915D01*
X21892710Y-5150270D01*
X21892713Y-5150273D01*
X21895230Y-5152807D01*
X22046864Y-5249037D01*
X22216049Y-5309281D01*
X22330145Y-5322886D01*
X22390828Y-5330122D01*
X22390829Y-5330122D01*
X22394376Y-5330545D01*
X22572983Y-5311773D01*
X22576368Y-5310621D01*
X22576371Y-5310620D01*
X22739607Y-5255050D01*
X22739609Y-5255049D01*
X22742993Y-5253897D01*
X22746040Y-5252022D01*
X22746043Y-5252021D01*
X22802234Y-5217452D01*
X22895955Y-5159794D01*
X23024268Y-5034141D01*
X23092134Y-4928834D01*
X27599500Y-4928834D01*
X27602481Y-4960369D01*
X27603772Y-4964047D01*
X27603773Y-4964049D01*
X27629267Y-5036646D01*
X27647366Y-5088184D01*
X27650206Y-5092029D01*
X27650207Y-5092031D01*
X27725007Y-5193301D01*
X27727850Y-5197150D01*
X27731699Y-5199993D01*
X27832969Y-5274793D01*
X27832971Y-5274794D01*
X27836816Y-5277634D01*
X27841328Y-5279219D01*
X27841329Y-5279219D01*
X27960951Y-5321227D01*
X27960953Y-5321228D01*
X27964631Y-5322519D01*
X27996166Y-5325500D01*
X28803834Y-5325500D01*
X28835369Y-5322519D01*
X28839047Y-5321228D01*
X28839049Y-5321227D01*
X28958671Y-5279219D01*
X28958672Y-5279219D01*
X28963184Y-5277634D01*
X28967029Y-5274794D01*
X28967031Y-5274793D01*
X29068301Y-5199993D01*
X29072150Y-5197150D01*
X29074993Y-5193301D01*
X29149793Y-5092031D01*
X29149794Y-5092029D01*
X29152634Y-5088184D01*
X29170733Y-5036646D01*
X29196227Y-4964049D01*
X29196228Y-4964047D01*
X29197519Y-4960369D01*
X29200500Y-4928834D01*
X29200500Y-4570155D01*
X29599500Y-4570155D01*
X29614454Y-4703472D01*
X29615631Y-4706852D01*
X29615632Y-4706856D01*
X29645551Y-4792770D01*
X29673515Y-4873073D01*
X29675409Y-4876105D01*
X29675411Y-4876108D01*
X29679832Y-4883183D01*
X29768684Y-5025375D01*
X29771205Y-5027913D01*
X29771206Y-5027915D01*
X29892710Y-5150270D01*
X29892713Y-5150273D01*
X29895230Y-5152807D01*
X30046864Y-5249037D01*
X30216049Y-5309281D01*
X30330145Y-5322886D01*
X30390828Y-5330122D01*
X30390829Y-5330122D01*
X30394376Y-5330545D01*
X30572983Y-5311773D01*
X30576368Y-5310621D01*
X30576371Y-5310620D01*
X30739607Y-5255050D01*
X30739609Y-5255049D01*
X30742993Y-5253897D01*
X30746040Y-5252022D01*
X30746043Y-5252021D01*
X30802234Y-5217452D01*
X30895955Y-5159794D01*
X31024268Y-5034141D01*
X31121554Y-4883183D01*
X31149728Y-4805774D01*
X31181752Y-4717792D01*
X31181753Y-4717787D01*
X31182978Y-4714422D01*
X31200500Y-4575717D01*
X31200500Y-3929845D01*
X31185546Y-3796528D01*
X31180560Y-3782208D01*
X31127662Y-3630308D01*
X31126485Y-3626927D01*
X31122272Y-3620184D01*
X31069637Y-3535951D01*
X31031316Y-3474625D01*
X31022611Y-3465859D01*
X30907290Y-3349730D01*
X30907287Y-3349727D01*
X30904770Y-3347193D01*
X30753136Y-3250963D01*
X30583951Y-3190719D01*
X30447933Y-3174500D01*
X30409172Y-3169878D01*
X30409171Y-3169878D01*
X30405624Y-3169455D01*
X30227017Y-3188227D01*
X30223632Y-3189379D01*
X30223629Y-3189380D01*
X30060393Y-3244950D01*
X30060391Y-3244951D01*
X30057007Y-3246103D01*
X30053960Y-3247978D01*
X30053957Y-3247979D01*
X29997766Y-3282548D01*
X29904045Y-3340206D01*
X29775732Y-3465859D01*
X29678446Y-3616817D01*
X29673536Y-3630308D01*
X29618248Y-3782208D01*
X29618247Y-3782213D01*
X29617022Y-3785578D01*
X29599500Y-3924283D01*
X29599500Y-4570155D01*
X29200500Y-4570155D01*
X29200500Y-3571166D01*
X29197519Y-3539631D01*
X29191628Y-3522854D01*
X29154219Y-3416329D01*
X29154219Y-3416328D01*
X29152634Y-3411816D01*
X29106777Y-3349730D01*
X29074993Y-3306699D01*
X29072150Y-3302850D01*
X28997861Y-3247979D01*
X28967031Y-3225207D01*
X28967029Y-3225206D01*
X28963184Y-3222366D01*
X28958671Y-3220781D01*
X28839049Y-3178773D01*
X28839047Y-3178772D01*
X28835369Y-3177481D01*
X28803834Y-3174500D01*
X27996166Y-3174500D01*
X27964631Y-3177481D01*
X27960953Y-3178772D01*
X27960951Y-3178773D01*
X27841329Y-3220781D01*
X27836816Y-3222366D01*
X27832971Y-3225206D01*
X27832969Y-3225207D01*
X27802139Y-3247979D01*
X27727850Y-3302850D01*
X27725007Y-3306699D01*
X27693224Y-3349730D01*
X27647366Y-3411816D01*
X27645781Y-3416328D01*
X27645781Y-3416329D01*
X27608373Y-3522854D01*
X27602481Y-3539631D01*
X27599500Y-3571166D01*
X27599500Y-4928834D01*
X23092134Y-4928834D01*
X23121554Y-4883183D01*
X23149728Y-4805774D01*
X23181752Y-4717792D01*
X23181753Y-4717787D01*
X23182978Y-4714422D01*
X23200500Y-4575717D01*
X23200500Y-3929845D01*
X23185546Y-3796528D01*
X23180560Y-3782208D01*
X23127662Y-3630308D01*
X23126485Y-3626927D01*
X23122272Y-3620184D01*
X23069637Y-3535951D01*
X23031316Y-3474625D01*
X23022611Y-3465859D01*
X22907290Y-3349730D01*
X22907287Y-3349727D01*
X22904770Y-3347193D01*
X22753136Y-3250963D01*
X22583951Y-3190719D01*
X22447933Y-3174500D01*
X22409172Y-3169878D01*
X22409171Y-3169878D01*
X22405624Y-3169455D01*
X22227017Y-3188227D01*
X22223632Y-3189379D01*
X22223629Y-3189380D01*
X22060393Y-3244950D01*
X22060391Y-3244951D01*
X22057007Y-3246103D01*
X22053960Y-3247978D01*
X22053957Y-3247979D01*
X21997766Y-3282548D01*
X21904045Y-3340206D01*
X21775732Y-3465859D01*
X21678446Y-3616817D01*
X21673536Y-3630308D01*
X21618248Y-3782208D01*
X21618247Y-3782213D01*
X21617022Y-3785578D01*
X21599500Y-3924283D01*
X21599500Y-4570155D01*
X21200500Y-4570155D01*
X21200500Y-3571166D01*
X21197519Y-3539631D01*
X21191628Y-3522854D01*
X21154219Y-3416329D01*
X21154219Y-3416328D01*
X21152634Y-3411816D01*
X21106777Y-3349730D01*
X21074993Y-3306699D01*
X21072150Y-3302850D01*
X20997861Y-3247979D01*
X20967031Y-3225207D01*
X20967029Y-3225206D01*
X20963184Y-3222366D01*
X20958671Y-3220781D01*
X20839049Y-3178773D01*
X20839047Y-3178772D01*
X20835369Y-3177481D01*
X20803834Y-3174500D01*
X19996166Y-3174500D01*
X19964631Y-3177481D01*
X19960953Y-3178772D01*
X19960951Y-3178773D01*
X19841329Y-3220781D01*
X19836816Y-3222366D01*
X19832971Y-3225206D01*
X19832969Y-3225207D01*
X19802139Y-3247979D01*
X19727850Y-3302850D01*
X19725007Y-3306699D01*
X19693224Y-3349730D01*
X19647366Y-3411816D01*
X19645781Y-3416328D01*
X19645781Y-3416329D01*
X19608373Y-3522854D01*
X19602481Y-3539631D01*
X19599500Y-3571166D01*
X19599500Y-4928834D01*
X15092134Y-4928834D01*
X15121554Y-4883183D01*
X15149728Y-4805774D01*
X15181752Y-4717792D01*
X15181753Y-4717787D01*
X15182978Y-4714422D01*
X15200500Y-4575717D01*
X15200500Y-3929845D01*
X15185546Y-3796528D01*
X15180560Y-3782208D01*
X15127662Y-3630308D01*
X15126485Y-3626927D01*
X15122272Y-3620184D01*
X15069637Y-3535951D01*
X15031316Y-3474625D01*
X15022611Y-3465859D01*
X14907290Y-3349730D01*
X14907287Y-3349727D01*
X14904770Y-3347193D01*
X14753136Y-3250963D01*
X14583951Y-3190719D01*
X14447933Y-3174500D01*
X14409172Y-3169878D01*
X14409171Y-3169878D01*
X14405624Y-3169455D01*
X14227017Y-3188227D01*
X14223632Y-3189379D01*
X14223629Y-3189380D01*
X14060393Y-3244950D01*
X14060391Y-3244951D01*
X14057007Y-3246103D01*
X14053960Y-3247978D01*
X14053957Y-3247979D01*
X13997766Y-3282548D01*
X13904045Y-3340206D01*
X13775732Y-3465859D01*
X13678446Y-3616817D01*
X13673536Y-3630308D01*
X13618248Y-3782208D01*
X13618247Y-3782213D01*
X13617022Y-3785578D01*
X13599500Y-3924283D01*
X13599500Y-4570155D01*
X13200500Y-4570155D01*
X13200500Y-3571166D01*
X13197519Y-3539631D01*
X13191628Y-3522854D01*
X13154219Y-3416329D01*
X13154219Y-3416328D01*
X13152634Y-3411816D01*
X13106777Y-3349730D01*
X13074993Y-3306699D01*
X13072150Y-3302850D01*
X12997861Y-3247979D01*
X12967031Y-3225207D01*
X12967029Y-3225206D01*
X12963184Y-3222366D01*
X12958671Y-3220781D01*
X12839049Y-3178773D01*
X12839047Y-3178772D01*
X12835369Y-3177481D01*
X12803834Y-3174500D01*
X11996166Y-3174500D01*
X11964631Y-3177481D01*
X11960953Y-3178772D01*
X11960951Y-3178773D01*
X11841329Y-3220781D01*
X11836816Y-3222366D01*
X11832971Y-3225206D01*
X11832969Y-3225207D01*
X11802139Y-3247979D01*
X11727850Y-3302850D01*
X11725007Y-3306699D01*
X11693224Y-3349730D01*
X11647366Y-3411816D01*
X11645781Y-3416328D01*
X11645781Y-3416329D01*
X11608373Y-3522854D01*
X11602481Y-3539631D01*
X11599500Y-3571166D01*
X11599500Y-4928834D01*
X11602481Y-4960369D01*
X11603772Y-4964047D01*
X11603773Y-4964049D01*
X11629267Y-5036646D01*
X11647366Y-5088184D01*
X11650206Y-5092029D01*
X11650207Y-5092031D01*
X11725007Y-5193301D01*
X11727850Y-5197150D01*
X11731699Y-5199993D01*
X11798524Y-5249351D01*
X11823789Y-5291316D01*
X11824500Y-5300831D01*
X11824500Y-37358088D01*
X11823953Y-37366441D01*
X11819535Y-37400000D01*
X11820082Y-37404155D01*
X11824500Y-37437714D01*
X11821739Y-37438078D01*
X11821741Y-37438083D01*
X11824500Y-37437720D01*
X11839313Y-37550236D01*
X11879519Y-37647302D01*
X11897302Y-37690233D01*
X11899855Y-37693560D01*
X11966385Y-37780265D01*
X11966391Y-37780271D01*
X11989549Y-37810451D01*
X11992876Y-37813004D01*
X12016402Y-37831056D01*
X12022696Y-37836576D01*
X30805755Y-56619635D01*
X30824500Y-56664890D01*
X30824500Y-60250617D01*
X30805755Y-60295872D01*
X30800606Y-60300492D01*
X30675508Y-60401074D01*
X30674279Y-60399545D01*
X30634289Y-60415599D01*
X30589242Y-60396360D01*
X30570989Y-60351603D01*
X30570989Y-57837401D01*
X30571536Y-57829048D01*
X30575407Y-57799644D01*
X30575954Y-57795489D01*
X30570989Y-57757775D01*
X30573750Y-57757411D01*
X30573748Y-57757406D01*
X30570989Y-57757769D01*
X30556724Y-57649412D01*
X30556723Y-57649409D01*
X30556176Y-57645253D01*
X30498187Y-57505256D01*
X30459786Y-57455211D01*
X30429101Y-57415221D01*
X30429098Y-57415218D01*
X30428948Y-57415023D01*
X30408496Y-57388368D01*
X30408493Y-57388365D01*
X30405940Y-57385038D01*
X30379086Y-57364432D01*
X30372793Y-57358913D01*
X10944245Y-37930365D01*
X10925500Y-37885110D01*
X10925500Y-18319100D01*
X10941938Y-18276277D01*
X11021522Y-18187889D01*
X11108286Y-18037611D01*
X11109320Y-18034428D01*
X11109322Y-18034424D01*
X11135097Y-17955093D01*
X11161908Y-17872576D01*
X11180047Y-17700000D01*
X11161908Y-17527424D01*
X11135097Y-17444906D01*
X11109322Y-17365576D01*
X11109320Y-17365572D01*
X11108286Y-17362389D01*
X11021522Y-17212111D01*
X10905410Y-17083155D01*
X10765024Y-16981158D01*
X10714286Y-16958568D01*
X10609559Y-16911940D01*
X10609556Y-16911939D01*
X10606499Y-16910578D01*
X10436764Y-16874500D01*
X10263236Y-16874500D01*
X10093501Y-16910578D01*
X10090444Y-16911939D01*
X10090441Y-16911940D01*
X9986530Y-16958205D01*
X9934977Y-16981158D01*
X9794590Y-17083155D01*
X9678478Y-17212111D01*
X9591714Y-17362389D01*
X9590680Y-17365572D01*
X9590678Y-17365576D01*
X9564903Y-17444907D01*
X9538092Y-17527424D01*
X9519953Y-17700000D01*
X130000Y-17700000D01*
X130000Y-12697341D01*
X5039991Y-12697341D01*
X5040066Y-12699131D01*
X5052116Y-12986623D01*
X5054275Y-13038146D01*
X5054548Y-13039907D01*
X5054548Y-13039911D01*
X5073947Y-13165217D01*
X5106459Y-13375234D01*
X5106929Y-13376964D01*
X5174403Y-13625311D01*
X5195892Y-13704405D01*
X5196546Y-13706056D01*
X5196547Y-13706060D01*
X5242950Y-13823259D01*
X5321461Y-14021555D01*
X5481600Y-14322732D01*
X5674312Y-14604181D01*
X5675475Y-14605528D01*
X5675477Y-14605531D01*
X5760398Y-14703913D01*
X5897196Y-14862395D01*
X6147474Y-15094155D01*
X6422026Y-15296572D01*
X6717431Y-15467124D01*
X7030005Y-15603684D01*
X7031716Y-15604214D01*
X7031717Y-15604214D01*
X7271206Y-15678348D01*
X7355854Y-15704551D01*
X7357605Y-15704885D01*
X7357613Y-15704887D01*
X7689148Y-15768131D01*
X7689153Y-15768132D01*
X7690916Y-15768468D01*
X8031014Y-15794637D01*
X8371910Y-15782733D01*
X8615022Y-15746833D01*
X8707582Y-15733165D01*
X8707585Y-15733164D01*
X8709355Y-15732903D01*
X8711077Y-15732448D01*
X8711082Y-15732447D01*
X9037416Y-15646226D01*
X9039142Y-15645770D01*
X9317074Y-15537967D01*
X9355493Y-15523065D01*
X9357161Y-15522418D01*
X9659448Y-15364386D01*
X9660933Y-15363385D01*
X9660937Y-15363382D01*
X9940744Y-15174650D01*
X9940751Y-15174644D01*
X9942236Y-15173643D01*
X9943604Y-15172479D01*
X10200633Y-14953730D01*
X10200637Y-14953726D01*
X10201999Y-14952567D01*
X10203221Y-14951266D01*
X10203227Y-14951260D01*
X10345745Y-14799493D01*
X10435501Y-14703913D01*
X10436563Y-14702493D01*
X10436570Y-14702485D01*
X10638763Y-14432208D01*
X10638767Y-14432202D01*
X10639830Y-14430781D01*
X10650854Y-14411992D01*
X10811534Y-14138118D01*
X10812440Y-14136574D01*
X10951179Y-13824961D01*
X10974209Y-13752362D01*
X11053780Y-13501524D01*
X11053781Y-13501519D01*
X11054319Y-13499824D01*
X11120573Y-13165217D01*
X11120721Y-13163458D01*
X11120722Y-13163449D01*
X11149023Y-12826418D01*
X11149023Y-12826414D01*
X11149116Y-12825309D01*
X11150307Y-12740000D01*
X11131266Y-12399428D01*
X11124102Y-12357068D01*
X11074679Y-12064863D01*
X11074381Y-12063101D01*
X11061980Y-12019851D01*
X10980852Y-11736926D01*
X10980851Y-11736922D01*
X10980360Y-11735211D01*
X10963121Y-11693385D01*
X10854174Y-11429063D01*
X10850375Y-11419845D01*
X10686047Y-11120934D01*
X10489424Y-10842203D01*
X10262956Y-10587126D01*
X10009467Y-10358883D01*
X10008011Y-10357840D01*
X10008004Y-10357835D01*
X9733576Y-10161365D01*
X9732115Y-10160319D01*
X9434358Y-9993908D01*
X9119908Y-9861725D01*
X9118196Y-9861221D01*
X8794406Y-9765925D01*
X8794399Y-9765923D01*
X8792682Y-9765418D01*
X8790918Y-9765107D01*
X8790914Y-9765106D01*
X8641709Y-9738797D01*
X8456760Y-9706186D01*
X8313860Y-9697195D01*
X8118101Y-9684878D01*
X8118093Y-9684878D01*
X8116330Y-9684767D01*
X7888150Y-9695927D01*
X7777408Y-9701343D01*
X7777405Y-9701343D01*
X7775633Y-9701430D01*
X7773882Y-9701714D01*
X7773878Y-9701714D01*
X7440683Y-9755680D01*
X7440681Y-9755681D01*
X7438918Y-9755966D01*
X7437194Y-9756447D01*
X7437191Y-9756448D01*
X7403249Y-9765925D01*
X7110379Y-9847696D01*
X7108729Y-9848363D01*
X7108728Y-9848363D01*
X6795769Y-9974807D01*
X6795764Y-9974809D01*
X6794114Y-9975476D01*
X6792550Y-9976322D01*
X6792545Y-9976324D01*
X6495624Y-10136868D01*
X6495618Y-10136872D01*
X6494062Y-10137713D01*
X6492608Y-10138723D01*
X6492604Y-10138726D01*
X6215432Y-10331365D01*
X6215427Y-10331369D01*
X6213965Y-10332385D01*
X6212619Y-10333563D01*
X6212613Y-10333568D01*
X6098924Y-10433096D01*
X5957314Y-10557067D01*
X5956104Y-10558392D01*
X5956101Y-10558395D01*
X5854398Y-10669774D01*
X5727307Y-10808956D01*
X5726250Y-10810411D01*
X5629748Y-10943235D01*
X5526811Y-11084915D01*
X5358326Y-11381503D01*
X5357621Y-11383149D01*
X5357619Y-11383152D01*
X5341186Y-11421493D01*
X5223951Y-11695023D01*
X5223435Y-11696733D01*
X5223434Y-11696735D01*
X5211300Y-11736926D01*
X5125361Y-12021569D01*
X5125039Y-12023321D01*
X5125038Y-12023327D01*
X5117738Y-12063101D01*
X5063785Y-12357068D01*
X5063661Y-12358845D01*
X5063660Y-12358851D01*
X5046310Y-12606969D01*
X5039991Y-12697341D01*
X130000Y-12697341D01*
X130000Y-4544762D01*
X148745Y-4499507D01*
X194000Y-4480762D01*
X239255Y-4499507D01*
X255732Y-4527874D01*
X268608Y-4574941D01*
X269244Y-4576555D01*
X402966Y-4916029D01*
X402970Y-4916039D01*
X403602Y-4917642D01*
X574817Y-5243759D01*
X575781Y-5245193D01*
X575783Y-5245197D01*
X629745Y-5325500D01*
X780252Y-5549477D01*
X1017502Y-5831221D01*
X1283792Y-6085694D01*
X1576008Y-6309919D01*
X1577487Y-6310818D01*
X1577491Y-6310821D01*
X1608892Y-6329913D01*
X1890731Y-6501274D01*
X2224279Y-6657519D01*
X2225921Y-6658081D01*
X2225928Y-6658084D01*
X2517560Y-6757932D01*
X2572751Y-6776828D01*
X2932070Y-6857804D01*
X2984214Y-6863745D01*
X3296310Y-6899304D01*
X3296316Y-6899304D01*
X3298033Y-6899500D01*
X3477666Y-6900440D01*
X3664618Y-6901419D01*
X3664620Y-6901419D01*
X3666358Y-6901428D01*
X4032737Y-6863567D01*
X4276312Y-6811349D01*
X4391187Y-6786722D01*
X4391190Y-6786721D01*
X4392884Y-6786358D01*
X4394527Y-6785815D01*
X4394533Y-6785813D01*
X4740939Y-6671250D01*
X4740944Y-6671248D01*
X4742586Y-6670705D01*
X5077752Y-6517961D01*
X5079228Y-6517085D01*
X5079233Y-6517082D01*
X5392987Y-6330788D01*
X5394461Y-6329913D01*
X5689009Y-6108760D01*
X5690273Y-6107577D01*
X5690278Y-6107573D01*
X5956685Y-5858273D01*
X5956687Y-5858271D01*
X5957950Y-5857089D01*
X6198138Y-5577846D01*
X6217636Y-5549477D01*
X6405782Y-5275721D01*
X6405782Y-5275720D01*
X6406762Y-5274295D01*
X6419717Y-5250236D01*
X6467404Y-5161671D01*
X6581383Y-4949989D01*
X6719958Y-4608720D01*
X6820865Y-4254482D01*
X6871015Y-3961095D01*
X6882635Y-3893117D01*
X6882636Y-3893109D01*
X6882925Y-3891418D01*
X6899288Y-3623892D01*
X6905355Y-3524694D01*
X6905355Y-3524687D01*
X6905411Y-3523775D01*
X6905494Y-3500000D01*
X6897218Y-3347193D01*
X6885669Y-3133936D01*
X6885668Y-3133927D01*
X6885575Y-3132209D01*
X6826052Y-2768720D01*
X6822371Y-2755444D01*
X6748684Y-2489742D01*
X6727620Y-2413786D01*
X6722501Y-2400922D01*
X6592073Y-2073170D01*
X6592069Y-2073162D01*
X6591431Y-2071558D01*
X6590626Y-2070037D01*
X6590622Y-2070029D01*
X6419884Y-1747563D01*
X6419883Y-1747561D01*
X6419078Y-1746041D01*
X6212578Y-1441041D01*
X6203445Y-1430271D01*
X5975457Y-1161438D01*
X5974346Y-1160128D01*
X5707168Y-906586D01*
X5705801Y-905544D01*
X5705792Y-905537D01*
X5415554Y-684435D01*
X5414172Y-683382D01*
X5098783Y-493127D01*
X4941797Y-420257D01*
X4766265Y-338777D01*
X4766255Y-338773D01*
X4764691Y-338047D01*
X4763046Y-337490D01*
X4763043Y-337489D01*
X4518219Y-254621D01*
X4481363Y-222357D01*
X4478117Y-173481D01*
X4510381Y-136625D01*
X4538738Y-130000D01*
X54762029Y-130000D01*
X54807284Y-148745D01*
G37*
%TD.AperFunction*%
%TA.AperFunction,NonConductor*%
G36*
X239255Y-89999507D02*
G01*
X255732Y-90027874D01*
X268608Y-90074941D01*
X269244Y-90076555D01*
X402966Y-90416029D01*
X402970Y-90416039D01*
X403602Y-90417642D01*
X574817Y-90743759D01*
X575781Y-90745193D01*
X575783Y-90745197D01*
X779291Y-91048047D01*
X780252Y-91049477D01*
X1017502Y-91331221D01*
X1283792Y-91585694D01*
X1576008Y-91809919D01*
X1577487Y-91810818D01*
X1577491Y-91810821D01*
X1608892Y-91829913D01*
X1890731Y-92001274D01*
X2224279Y-92157519D01*
X2225921Y-92158081D01*
X2225928Y-92158084D01*
X2481107Y-92245451D01*
X2517850Y-92277844D01*
X2520925Y-92326731D01*
X2488532Y-92363474D01*
X2460376Y-92370000D01*
X194000Y-92370000D01*
X148745Y-92351255D01*
X130000Y-92306000D01*
X130000Y-90044762D01*
X148745Y-89999507D01*
X194000Y-89980762D01*
X239255Y-89999507D01*
G37*
%TD.AperFunction*%
M02*
