%TF.GenerationSoftware,KiCad,Pcbnew,6.0.1*%
%TF.CreationDate,2022-02-08T14:41:30-06:00*%
%TF.ProjectId,POWER,504f5745-522e-46b6-9963-61645f706362,rev?*%
%TF.SameCoordinates,Original*%
%TF.FileFunction,Soldermask,Top*%
%TF.FilePolarity,Negative*%
%FSLAX46Y46*%
G04 Gerber Fmt 4.6, Leading zero omitted, Abs format (unit mm)*
G04 Created by KiCad (PCBNEW 6.0.1) date 2022-02-08 14:41:30*
%MOMM*%
%LPD*%
G01*
G04 APERTURE LIST*
G04 Aperture macros list*
%AMRoundRect*
0 Rectangle with rounded corners*
0 $1 Rounding radius*
0 $2 $3 $4 $5 $6 $7 $8 $9 X,Y pos of 4 corners*
0 Add a 4 corners polygon primitive as box body*
4,1,4,$2,$3,$4,$5,$6,$7,$8,$9,$2,$3,0*
0 Add four circle primitives for the rounded corners*
1,1,$1+$1,$2,$3*
1,1,$1+$1,$4,$5*
1,1,$1+$1,$6,$7*
1,1,$1+$1,$8,$9*
0 Add four rect primitives between the rounded corners*
20,1,$1+$1,$2,$3,$4,$5,0*
20,1,$1+$1,$4,$5,$6,$7,0*
20,1,$1+$1,$6,$7,$8,$9,0*
20,1,$1+$1,$8,$9,$2,$3,0*%
%AMFreePoly0*
4,1,22,0.500000,-0.750000,0.000000,-0.750000,0.000000,-0.745033,-0.079941,-0.743568,-0.215256,-0.701293,-0.333266,-0.622738,-0.424486,-0.514219,-0.481581,-0.384460,-0.499164,-0.250000,-0.500000,-0.250000,-0.500000,0.250000,-0.499164,0.250000,-0.499963,0.256109,-0.478152,0.396186,-0.417904,0.524511,-0.324060,0.630769,-0.204165,0.706417,-0.067858,0.745374,0.000000,0.744959,0.000000,0.750000,
0.500000,0.750000,0.500000,-0.750000,0.500000,-0.750000,$1*%
%AMFreePoly1*
4,1,20,0.000000,0.744959,0.073905,0.744508,0.209726,0.703889,0.328688,0.626782,0.421226,0.519385,0.479903,0.390333,0.500000,0.250000,0.500000,-0.250000,0.499851,-0.262216,0.476331,-0.402017,0.414519,-0.529596,0.319384,-0.634700,0.198574,-0.708877,0.061801,-0.746166,0.000000,-0.745033,0.000000,-0.750000,-0.500000,-0.750000,-0.500000,0.750000,0.000000,0.750000,0.000000,0.744959,
0.000000,0.744959,$1*%
G04 Aperture macros list end*
%ADD10RoundRect,0.243750X-0.456250X0.243750X-0.456250X-0.243750X0.456250X-0.243750X0.456250X0.243750X0*%
%ADD11C,2.800000*%
%ADD12C,1.750000*%
%ADD13RoundRect,0.243750X0.456250X-0.243750X0.456250X0.243750X-0.456250X0.243750X-0.456250X-0.243750X0*%
%ADD14R,3.150000X1.000000*%
%ADD15RoundRect,0.250000X0.503814X0.132583X0.132583X0.503814X-0.503814X-0.132583X-0.132583X-0.503814X0*%
%ADD16RoundRect,0.250000X0.250000X0.475000X-0.250000X0.475000X-0.250000X-0.475000X0.250000X-0.475000X0*%
%ADD17FreePoly0,0.000000*%
%ADD18FreePoly1,0.000000*%
%ADD19RoundRect,0.250000X0.450000X-0.262500X0.450000X0.262500X-0.450000X0.262500X-0.450000X-0.262500X0*%
%ADD20RoundRect,0.250000X0.262500X0.450000X-0.262500X0.450000X-0.262500X-0.450000X0.262500X-0.450000X0*%
%ADD21R,1.600000X0.550000*%
%ADD22R,0.550000X1.600000*%
%ADD23RoundRect,0.250000X-0.262500X-0.450000X0.262500X-0.450000X0.262500X0.450000X-0.262500X0.450000X0*%
%ADD24FreePoly0,90.000000*%
%ADD25FreePoly1,90.000000*%
%ADD26RoundRect,0.250000X-0.450000X0.262500X-0.450000X-0.262500X0.450000X-0.262500X0.450000X0.262500X0*%
%ADD27RoundRect,0.150000X0.150000X-0.512500X0.150000X0.512500X-0.150000X0.512500X-0.150000X-0.512500X0*%
%ADD28R,1.700000X1.700000*%
%ADD29O,1.700000X1.700000*%
%ADD30R,2.400000X2.000000*%
%ADD31FreePoly0,180.000000*%
%ADD32FreePoly1,180.000000*%
G04 APERTURE END LIST*
D10*
%TO.C,D5*%
X86490000Y-162002500D03*
X86490000Y-163877500D03*
%TD*%
D11*
%TO.C,U7*%
X83000000Y-115650000D03*
X96500000Y-99650000D03*
D12*
X92920000Y-98820000D03*
X90380000Y-98820000D03*
X87840000Y-98820000D03*
X85300000Y-98820000D03*
X82760000Y-98820000D03*
%TD*%
D11*
%TO.C,U5*%
X83160000Y-142670000D03*
X99160000Y-156170000D03*
D12*
X82330000Y-146890000D03*
X82330000Y-149430000D03*
X82330000Y-151970000D03*
X82330000Y-154510000D03*
X82330000Y-157050000D03*
X84870000Y-146890000D03*
%TD*%
D13*
%TO.C,D3*%
X80800000Y-163907500D03*
X80800000Y-162032500D03*
%TD*%
D14*
%TO.C,J1*%
X110316000Y-133950000D03*
X105266000Y-133950000D03*
X110316000Y-131410000D03*
X105266000Y-131410000D03*
X110316000Y-128870000D03*
X105266000Y-128870000D03*
X110316000Y-126330000D03*
X105266000Y-126330000D03*
X110316000Y-123790000D03*
X105266000Y-123790000D03*
X110316000Y-121250000D03*
X105266000Y-121250000D03*
X110316000Y-118710000D03*
X105266000Y-118710000D03*
X110316000Y-116170000D03*
X105266000Y-116170000D03*
X110316000Y-113630000D03*
X105266000Y-113630000D03*
X110316000Y-111090000D03*
X105266000Y-111090000D03*
X110316000Y-108550000D03*
X105266000Y-108550000D03*
X110316000Y-106010000D03*
X105266000Y-106010000D03*
%TD*%
D13*
%TO.C,D2*%
X75230000Y-163907500D03*
X75230000Y-162032500D03*
%TD*%
D15*
%TO.C,R3*%
X65836235Y-110425235D03*
X64545765Y-109134765D03*
%TD*%
D16*
%TO.C,C1*%
X79850000Y-112200000D03*
X77950000Y-112200000D03*
%TD*%
D17*
%TO.C,JP3*%
X64650000Y-93800000D03*
D18*
X65950000Y-93800000D03*
%TD*%
D19*
%TO.C,R20*%
X89840000Y-163882500D03*
X89840000Y-162057500D03*
%TD*%
D15*
%TO.C,R10*%
X65481470Y-106970470D03*
X64191000Y-105680000D03*
%TD*%
D20*
%TO.C,R6*%
X102262500Y-97010000D03*
X100437500Y-97010000D03*
%TD*%
D21*
%TO.C,U2*%
X85850000Y-104900000D03*
X85850000Y-105700000D03*
X85850000Y-106500000D03*
X85850000Y-107300000D03*
X85850000Y-108100000D03*
X85850000Y-108900000D03*
X85850000Y-109700000D03*
X85850000Y-110500000D03*
D22*
X87300000Y-111950000D03*
X88100000Y-111950000D03*
X88900000Y-111950000D03*
X89700000Y-111950000D03*
X90500000Y-111950000D03*
X91300000Y-111950000D03*
X92100000Y-111950000D03*
X92900000Y-111950000D03*
D21*
X94350000Y-110500000D03*
X94350000Y-109700000D03*
X94350000Y-108900000D03*
X94350000Y-108100000D03*
X94350000Y-107300000D03*
X94350000Y-106500000D03*
X94350000Y-105700000D03*
X94350000Y-104900000D03*
D22*
X92900000Y-103450000D03*
X92100000Y-103450000D03*
X91300000Y-103450000D03*
X90500000Y-103450000D03*
X89700000Y-103450000D03*
X88900000Y-103450000D03*
X88100000Y-103450000D03*
X87300000Y-103450000D03*
%TD*%
D19*
%TO.C,R16*%
X72930000Y-163912500D03*
X72930000Y-162087500D03*
%TD*%
D10*
%TO.C,D4*%
X92240000Y-162092500D03*
X92240000Y-163967500D03*
%TD*%
D13*
%TO.C,D1*%
X68000000Y-129137500D03*
X68000000Y-127262500D03*
%TD*%
D15*
%TO.C,R2*%
X61136235Y-108925235D03*
X59845765Y-107634765D03*
%TD*%
D23*
%TO.C,R23*%
X95607500Y-96000000D03*
X97432500Y-96000000D03*
%TD*%
D11*
%TO.C,U6*%
X57450000Y-155930000D03*
X70950000Y-139930000D03*
D12*
X66730000Y-139100000D03*
X64190000Y-139100000D03*
X61650000Y-139100000D03*
X59110000Y-139100000D03*
X56570000Y-139100000D03*
X66730000Y-141640000D03*
%TD*%
D24*
%TO.C,JP6*%
X92891000Y-96030000D03*
D25*
X92891000Y-94730000D03*
%TD*%
D26*
%TO.C,R13*%
X61800000Y-127487500D03*
X61800000Y-129312500D03*
%TD*%
D16*
%TO.C,C2*%
X79950000Y-108500000D03*
X78050000Y-108500000D03*
%TD*%
D23*
%TO.C,R8*%
X82687500Y-89700000D03*
X84512500Y-89700000D03*
%TD*%
D27*
%TO.C,U1*%
X64250000Y-129537500D03*
X65200000Y-129537500D03*
X66150000Y-129537500D03*
X66150000Y-127262500D03*
X64250000Y-127262500D03*
%TD*%
D23*
%TO.C,R22*%
X69587500Y-135800000D03*
X71412500Y-135800000D03*
%TD*%
%TO.C,R7*%
X79187500Y-89700000D03*
X81012500Y-89700000D03*
%TD*%
D15*
%TO.C,R9*%
X68581470Y-110070470D03*
X67291000Y-108780000D03*
%TD*%
D24*
%TO.C,JP1*%
X61800000Y-132650000D03*
D25*
X61800000Y-131350000D03*
%TD*%
D15*
%TO.C,R4*%
X62691000Y-107380000D03*
X61400530Y-106089530D03*
%TD*%
D11*
%TO.C,U4*%
X77556000Y-98408600D03*
X56556000Y-98408600D03*
X56556000Y-119408600D03*
D12*
X60706000Y-100018600D03*
X63246000Y-100018600D03*
X65786000Y-100018600D03*
X68326000Y-100018600D03*
X70866000Y-100018600D03*
X73406000Y-100018600D03*
X60706000Y-97478600D03*
X63246000Y-97478600D03*
X65786000Y-97478600D03*
X68326000Y-97478600D03*
X70866000Y-97478600D03*
X73406000Y-97478600D03*
%TD*%
D20*
%TO.C,R5*%
X105762500Y-97010000D03*
X103937500Y-97010000D03*
%TD*%
D26*
%TO.C,R21*%
X84310000Y-162017500D03*
X84310000Y-163842500D03*
%TD*%
D28*
%TO.C,J5*%
X94781000Y-122055000D03*
D29*
X92241000Y-122055000D03*
X94781000Y-124595000D03*
X92241000Y-124595000D03*
X94781000Y-127135000D03*
X92241000Y-127135000D03*
%TD*%
D30*
%TO.C,Y1*%
X82700000Y-112150000D03*
X82700000Y-108450000D03*
%TD*%
D31*
%TO.C,JP4*%
X78950000Y-146800000D03*
D32*
X77650000Y-146800000D03*
%TD*%
D14*
%TO.C,J3*%
X45266000Y-106010000D03*
X50316000Y-106010000D03*
X45266000Y-108550000D03*
X50316000Y-108550000D03*
X45266000Y-111090000D03*
X50316000Y-111090000D03*
X45266000Y-113630000D03*
X50316000Y-113630000D03*
X45266000Y-116170000D03*
X50316000Y-116170000D03*
X45266000Y-118710000D03*
X50316000Y-118710000D03*
X45266000Y-121250000D03*
X50316000Y-121250000D03*
X45266000Y-123790000D03*
X50316000Y-123790000D03*
X45266000Y-126330000D03*
X50316000Y-126330000D03*
X45266000Y-128870000D03*
X50316000Y-128870000D03*
X45266000Y-131410000D03*
X50316000Y-131410000D03*
X45266000Y-133950000D03*
X50316000Y-133950000D03*
%TD*%
D24*
%TO.C,S1*%
X94920000Y-132570000D03*
D25*
X94920000Y-131270000D03*
%TD*%
D23*
%TO.C,R15*%
X50187500Y-103000000D03*
X52012500Y-103000000D03*
%TD*%
D19*
%TO.C,R17*%
X78550000Y-163882500D03*
X78550000Y-162057500D03*
%TD*%
D20*
%TO.C,R19*%
X78912500Y-143200000D03*
X77087500Y-143200000D03*
%TD*%
D15*
%TO.C,R1*%
X64236235Y-112025235D03*
X62945765Y-110734765D03*
%TD*%
D11*
%TO.C,U3*%
X57460000Y-155930000D03*
X57460000Y-134930000D03*
X78460000Y-155930000D03*
D12*
X61610000Y-154320000D03*
X64150000Y-154320000D03*
X66690000Y-154320000D03*
X69230000Y-154320000D03*
X71770000Y-154320000D03*
X74310000Y-154320000D03*
X61610000Y-156860000D03*
X64150000Y-156860000D03*
X66690000Y-156860000D03*
X69230000Y-156860000D03*
X71770000Y-156860000D03*
X74310000Y-156860000D03*
%TD*%
M02*
