%TF.GenerationSoftware,KiCad,Pcbnew,8.0.5*%
%TF.CreationDate,2024-10-05T14:58:48-05:00*%
%TF.ProjectId,DAQ,4441512e-6b69-4636-9164-5f7063625858,rev?*%
%TF.SameCoordinates,Original*%
%TF.FileFunction,Copper,L2,Bot*%
%TF.FilePolarity,Positive*%
%FSLAX46Y46*%
G04 Gerber Fmt 4.6, Leading zero omitted, Abs format (unit mm)*
G04 Created by KiCad (PCBNEW 8.0.5) date 2024-10-05 14:58:48*
%MOMM*%
%LPD*%
G01*
G04 APERTURE LIST*
G04 Aperture macros list*
%AMRoundRect*
0 Rectangle with rounded corners*
0 $1 Rounding radius*
0 $2 $3 $4 $5 $6 $7 $8 $9 X,Y pos of 4 corners*
0 Add a 4 corners polygon primitive as box body*
4,1,4,$2,$3,$4,$5,$6,$7,$8,$9,$2,$3,0*
0 Add four circle primitives for the rounded corners*
1,1,$1+$1,$2,$3*
1,1,$1+$1,$4,$5*
1,1,$1+$1,$6,$7*
1,1,$1+$1,$8,$9*
0 Add four rect primitives between the rounded corners*
20,1,$1+$1,$2,$3,$4,$5,0*
20,1,$1+$1,$4,$5,$6,$7,0*
20,1,$1+$1,$6,$7,$8,$9,0*
20,1,$1+$1,$8,$9,$2,$3,0*%
G04 Aperture macros list end*
%TA.AperFunction,ComponentPad*%
%ADD10RoundRect,1.500000X1.500000X-1.500000X1.500000X1.500000X-1.500000X1.500000X-1.500000X-1.500000X0*%
%TD*%
%TA.AperFunction,ComponentPad*%
%ADD11C,6.000000*%
%TD*%
%TA.AperFunction,WasherPad*%
%ADD12C,2.800000*%
%TD*%
%TA.AperFunction,ComponentPad*%
%ADD13C,1.750000*%
%TD*%
%TA.AperFunction,ComponentPad*%
%ADD14R,1.700000X1.700000*%
%TD*%
%TA.AperFunction,ComponentPad*%
%ADD15O,1.700000X1.700000*%
%TD*%
%TA.AperFunction,ComponentPad*%
%ADD16C,0.800000*%
%TD*%
%TA.AperFunction,ComponentPad*%
%ADD17C,6.400000*%
%TD*%
%TA.AperFunction,ComponentPad*%
%ADD18R,2.200000X2.200000*%
%TD*%
%TA.AperFunction,ComponentPad*%
%ADD19C,2.200000*%
%TD*%
%TA.AperFunction,ComponentPad*%
%ADD20R,1.600000X1.600000*%
%TD*%
%TA.AperFunction,ComponentPad*%
%ADD21C,1.600000*%
%TD*%
%TA.AperFunction,ViaPad*%
%ADD22C,0.800000*%
%TD*%
%TA.AperFunction,ViaPad*%
%ADD23C,2.000000*%
%TD*%
%TA.AperFunction,ViaPad*%
%ADD24C,2.500000*%
%TD*%
%TA.AperFunction,Conductor*%
%ADD25C,0.250000*%
%TD*%
%TA.AperFunction,Conductor*%
%ADD26C,1.000000*%
%TD*%
%TA.AperFunction,Conductor*%
%ADD27C,2.000000*%
%TD*%
%TA.AperFunction,Conductor*%
%ADD28C,2.500000*%
%TD*%
G04 APERTURE END LIST*
D10*
%TO.P,J11,1,GND*%
%TO.N,GND*%
X117344262Y-60600000D03*
D11*
%TO.P,J11,2,VCC*%
%TO.N,BATT*%
X117344262Y-53400000D03*
%TD*%
D12*
%TO.P,U2,*%
%TO.N,*%
X130690000Y-69785000D03*
X109690000Y-90785000D03*
X109690000Y-69785000D03*
D13*
%TO.P,U2,1,PG*%
%TO.N,unconnected-(U2-PG-Pad1)*%
X113840000Y-71395000D03*
%TO.P,U2,2,VRP*%
%TO.N,unconnected-(U2-VRP-Pad2)*%
X116380000Y-71395000D03*
%TO.P,U2,3,VIN*%
%TO.N,VSERVO*%
X118920000Y-71395000D03*
%TO.P,U2,4,GND*%
%TO.N,GND*%
X121460000Y-71395000D03*
%TO.P,U2,5,GND*%
X124000000Y-71395000D03*
%TO.P,U2,6,VOUT*%
%TO.N,6VA*%
X126540000Y-71395000D03*
%TO.P,U2,7,EN*%
%TO.N,unconnected-(U2-EN-Pad7)*%
X113840000Y-68855000D03*
%TO.P,U2,8,VRP*%
%TO.N,unconnected-(U2-VRP-Pad8)*%
X116380000Y-68855000D03*
%TO.P,U2,9,VIN*%
%TO.N,VSERVO*%
X118920000Y-68855000D03*
%TO.P,U2,10,GND*%
%TO.N,GND*%
X121460000Y-68855000D03*
%TO.P,U2,11,GND*%
X124000000Y-68855000D03*
%TO.P,U2,12,VOUT*%
%TO.N,6VA*%
X126540000Y-68855000D03*
%TD*%
D14*
%TO.P,J14,1,Pin_1*%
%TO.N,GND*%
X173725000Y-59925000D03*
D15*
%TO.P,J14,2,Pin_2*%
%TO.N,/3V3 PINHEADER*%
X176265000Y-59925000D03*
%TO.P,J14,3,Pin_3*%
%TO.N,/12_MISO_MQSL*%
X173725000Y-62465000D03*
%TO.P,J14,4,Pin_4*%
%TO.N,/5_IN2*%
X176265000Y-62465000D03*
%TO.P,J14,5,Pin_5*%
%TO.N,/11_MOSI_CTX1*%
X173725000Y-65005000D03*
%TO.P,J14,6,Pin_6*%
%TO.N,/6_OUT1D*%
X176265000Y-65005000D03*
%TO.P,J14,7,Pin_7*%
%TO.N,/10_CS_MQSR*%
X173725000Y-67545000D03*
%TO.P,J14,8,Pin_8*%
%TO.N,/7_RX2_OUT1A*%
X176265000Y-67545000D03*
%TO.P,J14,9,Pin_9*%
%TO.N,/9_OUT1C*%
X173725000Y-70085000D03*
%TO.P,J14,10,Pin_10*%
%TO.N,/8_TX2_IN1*%
X176265000Y-70085000D03*
%TD*%
D16*
%TO.P,H1,1,1*%
%TO.N,unconnected-(H1-Pad1)_2*%
X173902944Y-54302944D03*
%TO.N,unconnected-(H1-Pad1)_6*%
X174605888Y-52605888D03*
%TO.N,unconnected-(H1-Pad1)_5*%
X174605888Y-56000000D03*
%TO.N,unconnected-(H1-Pad1)_4*%
X176302944Y-51902944D03*
D17*
%TO.N,unconnected-(H1-Pad1)_3*%
X176302944Y-54302944D03*
D16*
%TO.N,unconnected-(H1-Pad1)*%
X176302944Y-56702944D03*
%TO.N,unconnected-(H1-Pad1)_8*%
X178000000Y-52605888D03*
%TO.N,unconnected-(H1-Pad1)_1*%
X178000000Y-56000000D03*
%TO.N,unconnected-(H1-Pad1)_7*%
X178702944Y-54302944D03*
%TD*%
%TO.P,H2,1,1*%
%TO.N,unconnected-(H2-Pad1)_2*%
X173402944Y-92302944D03*
%TO.N,unconnected-(H2-Pad1)*%
X174105888Y-90605888D03*
%TO.N,unconnected-(H2-Pad1)_8*%
X174105888Y-94000000D03*
%TO.N,unconnected-(H2-Pad1)_3*%
X175802944Y-89902944D03*
D17*
%TO.N,unconnected-(H2-Pad1)_1*%
X175802944Y-92302944D03*
D16*
%TO.N,unconnected-(H2-Pad1)_7*%
X175802944Y-94702944D03*
%TO.N,unconnected-(H2-Pad1)_4*%
X177500000Y-90605888D03*
%TO.N,unconnected-(H2-Pad1)_5*%
X177500000Y-94000000D03*
%TO.N,unconnected-(H2-Pad1)_6*%
X178202944Y-92302944D03*
%TD*%
%TO.P,H3,1,1*%
%TO.N,unconnected-(H3-Pad1)_6*%
X135700000Y-88000000D03*
%TO.N,unconnected-(H3-Pad1)_4*%
X136402944Y-86302944D03*
%TO.N,unconnected-(H3-Pad1)*%
X136402944Y-89697056D03*
%TO.N,unconnected-(H3-Pad1)_2*%
X138100000Y-85600000D03*
D17*
%TO.N,unconnected-(H3-Pad1)_7*%
X138100000Y-88000000D03*
D16*
%TO.N,unconnected-(H3-Pad1)_8*%
X138100000Y-90400000D03*
%TO.N,unconnected-(H3-Pad1)_1*%
X139797056Y-86302944D03*
%TO.N,unconnected-(H3-Pad1)_5*%
X139797056Y-89697056D03*
%TO.N,unconnected-(H3-Pad1)_3*%
X140500000Y-88000000D03*
%TD*%
D18*
%TO.P,J4,1,Pin_1*%
%TO.N,9V*%
X158960000Y-140500000D03*
D19*
%TO.P,J4,2,Pin_2*%
%TO.N,/P3_SENSE*%
X161500000Y-140500000D03*
%TD*%
D18*
%TO.P,J8,1,Pin_1*%
%TO.N,GND*%
X129000000Y-140500000D03*
D19*
%TO.P,J8,2,Pin_2*%
%TO.N,/VPYRO_SENSE_1*%
X131540000Y-140500000D03*
%TD*%
D18*
%TO.P,J7,1,Pin_1*%
%TO.N,GND*%
X122000000Y-140500000D03*
D19*
%TO.P,J7,2,Pin_2*%
%TO.N,/VPYRO_SENSE_0*%
X124540000Y-140500000D03*
%TD*%
D18*
%TO.P,J9,1,Pin_1*%
%TO.N,VPYRO*%
X105960000Y-140500000D03*
D19*
%TO.P,J9,2,Pin_2*%
%TO.N,/PYRO_A*%
X108500000Y-140500000D03*
%TD*%
D18*
%TO.P,J5,1,Pin_1*%
%TO.N,GND*%
X167920000Y-140500000D03*
D19*
%TO.P,J5,2,Pin_2*%
%TO.N,/LOAD_CELL_DAT*%
X170460000Y-140500000D03*
%TO.P,J5,3,Pin_3*%
%TO.N,/LOAD_CELL_CLK*%
X173000000Y-140500000D03*
%TO.P,J5,4,Pin_4*%
%TO.N,3V3*%
X175540000Y-140500000D03*
%TO.P,J5,5,Pin_5*%
%TO.N,5V*%
X178080000Y-140500000D03*
%TD*%
D16*
%TO.P,H4,1,1*%
%TO.N,unconnected-(H4-Pad1)_3*%
X124100000Y-119600000D03*
%TO.N,unconnected-(H4-Pad1)*%
X124802944Y-117902944D03*
%TO.N,unconnected-(H4-Pad1)_8*%
X124802944Y-121297056D03*
%TO.N,unconnected-(H4-Pad1)_4*%
X126500000Y-117200000D03*
D17*
%TO.N,unconnected-(H4-Pad1)_7*%
X126500000Y-119600000D03*
D16*
%TO.N,unconnected-(H4-Pad1)_2*%
X126500000Y-122000000D03*
%TO.N,unconnected-(H4-Pad1)_5*%
X128197056Y-117902944D03*
%TO.N,unconnected-(H4-Pad1)_1*%
X128197056Y-121297056D03*
%TO.N,unconnected-(H4-Pad1)_6*%
X128900000Y-119600000D03*
%TD*%
D18*
%TO.P,J1,1,Pin_1*%
%TO.N,9V*%
X137960000Y-140500000D03*
D19*
%TO.P,J1,2,Pin_2*%
%TO.N,/P0_SENSE*%
X140500000Y-140500000D03*
%TD*%
D18*
%TO.P,J3,1,Pin_1*%
%TO.N,9V*%
X151960000Y-140500000D03*
D19*
%TO.P,J3,2,Pin_2*%
%TO.N,/P2_SENSE*%
X154500000Y-140500000D03*
%TD*%
D20*
%TO.P,U1,1,GND*%
%TO.N,GND*%
X167100000Y-96000000D03*
D21*
%TO.P,U1,2,0_RX1_CRX2_CS1*%
%TO.N,/LED0*%
X164560000Y-96000000D03*
%TO.P,U1,3,1_TX1_CTX2_MISO1*%
%TO.N,/LED1*%
X162020000Y-96000000D03*
%TO.P,U1,4,2_OUT2*%
%TO.N,/LED2*%
X159480000Y-96000000D03*
%TO.P,U1,5,3_LRCLK2*%
%TO.N,/LED3*%
X156940000Y-96000000D03*
%TO.P,U1,6,4_BCLK2*%
%TO.N,unconnected-(U1-4_BCLK2-Pad6)*%
X154400000Y-96000000D03*
%TO.P,U1,7,5_IN2*%
%TO.N,/5_IN2*%
X151860000Y-96000000D03*
%TO.P,U1,8,6_OUT1D*%
%TO.N,/6_OUT1D*%
X149320000Y-96000000D03*
%TO.P,U1,9,7_RX2_OUT1A*%
%TO.N,/7_RX2_OUT1A*%
X146780000Y-96000000D03*
%TO.P,U1,10,8_TX2_IN1*%
%TO.N,/8_TX2_IN1*%
X144240000Y-96000000D03*
%TO.P,U1,11,9_OUT1C*%
%TO.N,/9_OUT1C*%
X141700000Y-96000000D03*
%TO.P,U1,12,10_CS_MQSR*%
%TO.N,/10_CS_MQSR*%
X139160000Y-96000000D03*
%TO.P,U1,13,11_MOSI_CTX1*%
%TO.N,/11_MOSI_CTX1*%
X136620000Y-96000000D03*
%TO.P,U1,14,12_MISO_MQSL*%
%TO.N,/12_MISO_MQSL*%
X134080000Y-96000000D03*
%TO.P,U1,15,3V3*%
%TO.N,/3V3 PINHEADER*%
X131540000Y-96000000D03*
%TO.P,U1,16,24_A10_TX6_SCL2*%
%TO.N,/6VB_SENSE*%
X129000000Y-96000000D03*
%TO.P,U1,17,25_A11_RX6_SDA2*%
%TO.N,/6VA_SENSE*%
X126460000Y-96000000D03*
%TO.P,U1,18,26_A12_MOSI1*%
%TO.N,/BATT_SENSE*%
X123920000Y-96000000D03*
%TO.P,U1,19,27_A13_SCK1*%
%TO.N,/5V_SENSE*%
X121380000Y-96000000D03*
%TO.P,U1,20,28_RX7*%
%TO.N,/SERVO_1_PWM*%
X118840000Y-96000000D03*
%TO.P,U1,21,29_TX7*%
%TO.N,/SERVO_0_PWM*%
X116300000Y-96000000D03*
%TO.P,U1,22,30_CRX3*%
%TO.N,unconnected-(U1-30_CRX3-Pad22)*%
X113760000Y-96000000D03*
%TO.P,U1,23,31_CTX3*%
%TO.N,unconnected-(U1-31_CTX3-Pad23)*%
X111220000Y-96000000D03*
%TO.P,U1,24,32_OUT1B*%
%TO.N,unconnected-(U1-32_OUT1B-Pad24)*%
X108680000Y-96000000D03*
%TO.P,U1,25,33_MCLK2*%
%TO.N,unconnected-(U1-33_MCLK2-Pad25)*%
X108680000Y-111240000D03*
%TO.P,U1,26,34_RX8*%
%TO.N,unconnected-(U1-34_RX8-Pad26)*%
X111220000Y-111240000D03*
%TO.P,U1,27,35_TX8*%
%TO.N,unconnected-(U1-35_TX8-Pad27)*%
X113760000Y-111240000D03*
%TO.P,U1,28,36_CS*%
%TO.N,/FIRE_A*%
X116300000Y-111240000D03*
%TO.P,U1,29,37_CS*%
%TO.N,/ARM_A*%
X118840000Y-111240000D03*
%TO.P,U1,30,38_CS1_IN1*%
%TO.N,/SENSE_A*%
X121380000Y-111240000D03*
%TO.P,U1,31,39_MISO1_OUT1A*%
%TO.N,/FIRE_B*%
X123920000Y-111240000D03*
%TO.P,U1,32,40_A16*%
%TO.N,/ARM_B*%
X126460000Y-111240000D03*
%TO.P,U1,33,41_A17*%
%TO.N,/SENSE_B*%
X129000000Y-111240000D03*
%TO.P,U1,34,GND*%
%TO.N,GND*%
X131540000Y-111240000D03*
%TO.P,U1,35,13_SCK_LED*%
%TO.N,unconnected-(U1-13_SCK_LED-Pad35)*%
X134080000Y-111240000D03*
%TO.P,U1,36,14_A0_TX3_SPDIF_OUT*%
%TO.N,/VPYRO_SENSE*%
X136620000Y-111240000D03*
%TO.P,U1,37,15_A1_RX3_SPDIF_IN*%
%TO.N,/PYRO_SENSE_0*%
X139160000Y-111240000D03*
%TO.P,U1,38,16_A2_RX4_SCL1*%
%TO.N,/PYRO_SENSE_1*%
X141700000Y-111240000D03*
%TO.P,U1,39,17_A3_TX4_SDA1*%
%TO.N,/P0_SENSE*%
X144240000Y-111240000D03*
%TO.P,U1,40,18_A4_SDA*%
%TO.N,/P1_SENSE*%
X146780000Y-111240000D03*
%TO.P,U1,41,19_A5_SCL*%
%TO.N,/P2_SENSE*%
X149320000Y-111240000D03*
%TO.P,U1,42,20_A6_TX5_LRCLK1*%
%TO.N,/P3_SENSE*%
X151860000Y-111240000D03*
%TO.P,U1,43,21_A7_RX5_BCLK1*%
%TO.N,/9V_SENSE*%
X154400000Y-111240000D03*
%TO.P,U1,44,22_A8_CTX1*%
%TO.N,/LOAD_CELL_DAT*%
X156940000Y-111240000D03*
%TO.P,U1,45,23_A9_CRX1_MCLK1*%
%TO.N,/LOAD_CELL_CLK*%
X159480000Y-111240000D03*
%TO.P,U1,46,3V3*%
%TO.N,3V3*%
X162020000Y-111240000D03*
%TO.P,U1,47,GND*%
%TO.N,GND*%
X164560000Y-111240000D03*
%TO.P,U1,48,VIN*%
%TO.N,unconnected-(U1-VIN-Pad48)*%
X167100000Y-111240000D03*
%TD*%
D18*
%TO.P,J2,1,Pin_1*%
%TO.N,9V*%
X144960000Y-140500000D03*
D19*
%TO.P,J2,2,Pin_2*%
%TO.N,/P1_SENSE*%
X147500000Y-140500000D03*
%TD*%
D18*
%TO.P,J10,1,Pin_1*%
%TO.N,VPYRO*%
X112960000Y-140500000D03*
D19*
%TO.P,J10,2,Pin_2*%
%TO.N,/PYRO_B*%
X115500000Y-140500000D03*
%TD*%
D12*
%TO.P,U3,*%
%TO.N,*%
X166190000Y-69785000D03*
X145190000Y-90785000D03*
X145190000Y-69785000D03*
D13*
%TO.P,U3,1,PG*%
%TO.N,unconnected-(U3-PG-Pad1)*%
X149340000Y-71395000D03*
%TO.P,U3,2,VRP*%
%TO.N,unconnected-(U3-VRP-Pad2)*%
X151880000Y-71395000D03*
%TO.P,U3,3,VIN*%
%TO.N,VSERVO*%
X154420000Y-71395000D03*
%TO.P,U3,4,GND*%
%TO.N,GND*%
X156960000Y-71395000D03*
%TO.P,U3,5,GND*%
X159500000Y-71395000D03*
%TO.P,U3,6,VOUT*%
%TO.N,6VB*%
X162040000Y-71395000D03*
%TO.P,U3,7,EN*%
%TO.N,unconnected-(U3-EN-Pad7)*%
X149340000Y-68855000D03*
%TO.P,U3,8,VRP*%
%TO.N,unconnected-(U3-VRP-Pad8)*%
X151880000Y-68855000D03*
%TO.P,U3,9,VIN*%
%TO.N,VSERVO*%
X154420000Y-68855000D03*
%TO.P,U3,10,GND*%
%TO.N,GND*%
X156960000Y-68855000D03*
%TO.P,U3,11,GND*%
X159500000Y-68855000D03*
%TO.P,U3,12,VOUT*%
%TO.N,6VB*%
X162040000Y-68855000D03*
%TD*%
D22*
%TO.N,/P0_SENSE*%
X140500000Y-135000000D03*
%TO.N,GND*%
X156500000Y-125000000D03*
X124500000Y-125500000D03*
X161000000Y-126500000D03*
X123800000Y-76600000D03*
X142400000Y-79600000D03*
X110000000Y-117800000D03*
X131500000Y-125500000D03*
X176500000Y-127000000D03*
X156500000Y-119500000D03*
X157000000Y-115500000D03*
X105400000Y-115200000D03*
X171200000Y-98200000D03*
X136800000Y-79800000D03*
X116200000Y-79200000D03*
X112000000Y-55600000D03*
X148000000Y-130000000D03*
X117000000Y-104400000D03*
X109200000Y-84600000D03*
X120000000Y-125500000D03*
X122000000Y-117600000D03*
X140500000Y-130000000D03*
X166000000Y-125000000D03*
X178200000Y-98600000D03*
X153000000Y-130000000D03*
X171500000Y-125000000D03*
X106800000Y-125800000D03*
X106800000Y-129000000D03*
X157000000Y-102000000D03*
X111000000Y-132000000D03*
X134000000Y-103600000D03*
X111000000Y-130000000D03*
X116000000Y-117500000D03*
%TO.N,/P1_SENSE*%
X147500000Y-135000000D03*
%TO.N,/P2_SENSE*%
X154500000Y-135000000D03*
%TO.N,/P3_SENSE*%
X161500000Y-135000000D03*
%TO.N,/SERVO_0_PWM*%
X141000000Y-64500000D03*
%TO.N,/SERVO_1_PWM*%
X146000000Y-64500000D03*
D23*
%TO.N,BATT*%
X178500000Y-131500000D03*
X158500000Y-131000000D03*
%TO.N,VPYRO*%
X103500000Y-128500000D03*
D24*
%TO.N,VSERVO*%
X125000000Y-61500000D03*
%TD*%
D25*
%TO.N,/P0_SENSE*%
X140500000Y-140500000D02*
X140500000Y-135000000D01*
%TO.N,/P1_SENSE*%
X147500000Y-140500000D02*
X147500000Y-135000000D01*
%TO.N,/P2_SENSE*%
X154500000Y-140500000D02*
X154500000Y-135000000D01*
%TO.N,/P3_SENSE*%
X161500000Y-140500000D02*
X161500000Y-135000000D01*
%TO.N,/SERVO_0_PWM*%
X116300000Y-96000000D02*
X116300000Y-89200000D01*
X116300000Y-89200000D02*
X141000000Y-64500000D01*
%TO.N,/SERVO_1_PWM*%
X118840000Y-96000000D02*
X118840000Y-91660000D01*
X118840000Y-91660000D02*
X146000000Y-64500000D01*
D26*
%TO.N,BATT*%
X118000000Y-133500000D02*
X107180000Y-122680000D01*
X156000000Y-133500000D02*
X118000000Y-133500000D01*
X107180000Y-63564262D02*
X117344262Y-53400000D01*
X156000000Y-133500000D02*
X176500000Y-133500000D01*
X156000000Y-133500000D02*
X158500000Y-131000000D01*
X176500000Y-133500000D02*
X178500000Y-131500000D01*
X107180000Y-122680000D02*
X107180000Y-63564262D01*
D27*
%TO.N,VPYRO*%
X112960000Y-140500000D02*
X112960000Y-137960000D01*
X105960000Y-130960000D02*
X103500000Y-128500000D01*
D25*
X112960000Y-140500000D02*
X113000000Y-140500000D01*
D27*
X105960000Y-130960000D02*
X105960000Y-140500000D01*
X112960000Y-137960000D02*
X105960000Y-130960000D01*
D28*
%TO.N,VSERVO*%
X154420000Y-67617564D02*
X154420000Y-71395000D01*
X148302436Y-61500000D02*
X154420000Y-67617564D01*
X125000000Y-61500000D02*
X148302436Y-61500000D01*
%TD*%
%TA.AperFunction,Conductor*%
%TO.N,GND*%
G36*
X181443039Y-47519685D02*
G01*
X181488794Y-47572489D01*
X181500000Y-47624000D01*
X181500000Y-147376000D01*
X181480315Y-147443039D01*
X181427511Y-147488794D01*
X181376000Y-147500000D01*
X101624000Y-147500000D01*
X101556961Y-147480315D01*
X101511206Y-147427511D01*
X101500000Y-147376000D01*
X101500000Y-128499995D01*
X101994357Y-128499995D01*
X101994357Y-128500004D01*
X101999076Y-128556948D01*
X101999500Y-128567189D01*
X101999500Y-128618096D01*
X102008514Y-128675005D01*
X102009615Y-128684147D01*
X102013462Y-128730572D01*
X102014892Y-128747824D01*
X102027270Y-128796703D01*
X102029537Y-128807743D01*
X102036447Y-128851369D01*
X102056332Y-128912569D01*
X102058606Y-128920446D01*
X102075935Y-128988874D01*
X102075939Y-128988887D01*
X102093487Y-129028892D01*
X102097862Y-129040384D01*
X102109430Y-129075989D01*
X102109432Y-129075992D01*
X102141700Y-129139322D01*
X102144771Y-129145807D01*
X102175825Y-129216604D01*
X102175827Y-129216607D01*
X102196040Y-129247545D01*
X102202713Y-129259066D01*
X102216658Y-129286435D01*
X102216658Y-129286436D01*
X102262378Y-129349364D01*
X102265867Y-129354426D01*
X102311834Y-129424783D01*
X102332310Y-129447027D01*
X102341392Y-129458118D01*
X102355478Y-129477505D01*
X102355481Y-129477508D01*
X102355482Y-129477509D01*
X102355483Y-129477510D01*
X102415240Y-129537267D01*
X102418765Y-129540942D01*
X102480252Y-129607734D01*
X102480256Y-129607738D01*
X102497512Y-129621169D01*
X102498791Y-129622164D01*
X102510310Y-129632337D01*
X104423181Y-131545208D01*
X104456666Y-131606531D01*
X104459500Y-131632889D01*
X104459500Y-139058561D01*
X104439815Y-139125600D01*
X104434767Y-139132872D01*
X104416204Y-139157668D01*
X104416202Y-139157671D01*
X104365908Y-139292517D01*
X104359501Y-139352116D01*
X104359500Y-139352135D01*
X104359500Y-141647870D01*
X104359501Y-141647876D01*
X104365908Y-141707483D01*
X104416202Y-141842328D01*
X104416206Y-141842335D01*
X104502452Y-141957544D01*
X104502455Y-141957547D01*
X104617664Y-142043793D01*
X104617671Y-142043797D01*
X104752517Y-142094091D01*
X104752516Y-142094091D01*
X104759444Y-142094835D01*
X104812127Y-142100500D01*
X105516427Y-142100499D01*
X105583464Y-142120183D01*
X105629219Y-142172987D01*
X105639163Y-142242146D01*
X105610138Y-142305702D01*
X105585316Y-142327601D01*
X105449711Y-142418210D01*
X105449707Y-142418213D01*
X105338213Y-142529707D01*
X105338210Y-142529711D01*
X105250609Y-142660814D01*
X105250602Y-142660827D01*
X105190264Y-142806498D01*
X105190261Y-142806510D01*
X105159500Y-142961153D01*
X105159500Y-143118846D01*
X105190261Y-143273489D01*
X105190264Y-143273501D01*
X105250602Y-143419172D01*
X105250609Y-143419185D01*
X105338210Y-143550288D01*
X105338213Y-143550292D01*
X105449707Y-143661786D01*
X105449711Y-143661789D01*
X105580814Y-143749390D01*
X105580827Y-143749397D01*
X105726498Y-143809735D01*
X105726503Y-143809737D01*
X105881153Y-143840499D01*
X105881156Y-143840500D01*
X105881158Y-143840500D01*
X106038844Y-143840500D01*
X106038845Y-143840499D01*
X106193497Y-143809737D01*
X106339179Y-143749394D01*
X106470289Y-143661789D01*
X106581789Y-143550289D01*
X106669394Y-143419179D01*
X106729737Y-143273497D01*
X106760500Y-143118842D01*
X106760500Y-142961158D01*
X106760500Y-142961155D01*
X106760499Y-142961153D01*
X106729738Y-142806510D01*
X106729737Y-142806503D01*
X106729735Y-142806498D01*
X106669397Y-142660827D01*
X106669390Y-142660814D01*
X106581789Y-142529711D01*
X106581786Y-142529707D01*
X106470292Y-142418213D01*
X106470288Y-142418210D01*
X106334683Y-142327601D01*
X106289878Y-142273989D01*
X106281171Y-142204664D01*
X106311326Y-142141636D01*
X106370769Y-142104917D01*
X106403571Y-142100499D01*
X107107872Y-142100499D01*
X107167483Y-142094091D01*
X107302331Y-142043796D01*
X107417546Y-141957546D01*
X107474928Y-141880893D01*
X107530860Y-141839024D01*
X107600552Y-141834040D01*
X107638983Y-141849479D01*
X107771140Y-141930466D01*
X107836523Y-141957548D01*
X108003889Y-142026873D01*
X108171043Y-142067003D01*
X108231634Y-142101792D01*
X108263799Y-142163818D01*
X108257323Y-142233387D01*
X108214264Y-142288411D01*
X108189550Y-142302137D01*
X108120820Y-142330606D01*
X108120814Y-142330609D01*
X107989711Y-142418210D01*
X107989707Y-142418213D01*
X107878213Y-142529707D01*
X107878210Y-142529711D01*
X107790609Y-142660814D01*
X107790602Y-142660827D01*
X107730264Y-142806498D01*
X107730261Y-142806510D01*
X107699500Y-142961153D01*
X107699500Y-143118846D01*
X107730261Y-143273489D01*
X107730264Y-143273501D01*
X107790602Y-143419172D01*
X107790609Y-143419185D01*
X107878210Y-143550288D01*
X107878213Y-143550292D01*
X107989707Y-143661786D01*
X107989711Y-143661789D01*
X108120814Y-143749390D01*
X108120827Y-143749397D01*
X108266498Y-143809735D01*
X108266503Y-143809737D01*
X108421153Y-143840499D01*
X108421156Y-143840500D01*
X108421158Y-143840500D01*
X108578844Y-143840500D01*
X108578845Y-143840499D01*
X108733497Y-143809737D01*
X108879179Y-143749394D01*
X109010289Y-143661789D01*
X109121789Y-143550289D01*
X109209394Y-143419179D01*
X109269737Y-143273497D01*
X109300500Y-143118842D01*
X109300500Y-142961158D01*
X109300500Y-142961155D01*
X109300499Y-142961153D01*
X109269738Y-142806510D01*
X109269737Y-142806503D01*
X109269735Y-142806498D01*
X109209397Y-142660827D01*
X109209390Y-142660814D01*
X109121789Y-142529711D01*
X109121786Y-142529707D01*
X109010292Y-142418213D01*
X109010288Y-142418210D01*
X108879185Y-142330609D01*
X108879175Y-142330604D01*
X108810450Y-142302137D01*
X108756047Y-142258296D01*
X108733982Y-142192001D01*
X108751261Y-142124302D01*
X108802399Y-142076692D01*
X108828950Y-142067004D01*
X108996111Y-142026873D01*
X109228859Y-141930466D01*
X109443659Y-141798836D01*
X109635224Y-141635224D01*
X109798836Y-141443659D01*
X109930466Y-141228859D01*
X110026873Y-140996111D01*
X110085683Y-140751148D01*
X110105449Y-140500000D01*
X110085683Y-140248852D01*
X110026873Y-140003889D01*
X109930466Y-139771141D01*
X109930466Y-139771140D01*
X109798839Y-139556346D01*
X109798838Y-139556343D01*
X109708755Y-139450870D01*
X109635224Y-139364776D01*
X109471206Y-139224691D01*
X109443656Y-139201161D01*
X109443653Y-139201160D01*
X109228859Y-139069533D01*
X108996110Y-138973126D01*
X108751151Y-138914317D01*
X108500000Y-138894551D01*
X108248848Y-138914317D01*
X108003889Y-138973126D01*
X107771140Y-139069533D01*
X107649290Y-139144204D01*
X107581844Y-139162449D01*
X107515242Y-139141333D01*
X107470628Y-139087561D01*
X107460500Y-139038477D01*
X107460500Y-134881889D01*
X107480185Y-134814850D01*
X107532989Y-134769095D01*
X107602147Y-134759151D01*
X107665703Y-134788176D01*
X107672181Y-134794208D01*
X111423181Y-138545208D01*
X111456666Y-138606531D01*
X111459500Y-138632889D01*
X111459500Y-139058561D01*
X111439815Y-139125600D01*
X111434767Y-139132872D01*
X111416204Y-139157668D01*
X111416202Y-139157671D01*
X111365908Y-139292517D01*
X111359501Y-139352116D01*
X111359500Y-139352135D01*
X111359500Y-141647870D01*
X111359501Y-141647876D01*
X111365908Y-141707483D01*
X111416202Y-141842328D01*
X111416206Y-141842335D01*
X111502452Y-141957544D01*
X111502455Y-141957547D01*
X111617664Y-142043793D01*
X111617671Y-142043797D01*
X111752517Y-142094091D01*
X111752516Y-142094091D01*
X111759444Y-142094835D01*
X111812127Y-142100500D01*
X112516427Y-142100499D01*
X112583464Y-142120183D01*
X112629219Y-142172987D01*
X112639163Y-142242146D01*
X112610138Y-142305702D01*
X112585316Y-142327601D01*
X112449711Y-142418210D01*
X112449707Y-142418213D01*
X112338213Y-142529707D01*
X112338210Y-142529711D01*
X112250609Y-142660814D01*
X112250602Y-142660827D01*
X112190264Y-142806498D01*
X112190261Y-142806510D01*
X112159500Y-142961153D01*
X112159500Y-143118846D01*
X112190261Y-143273489D01*
X112190264Y-143273501D01*
X112250602Y-143419172D01*
X112250609Y-143419185D01*
X112338210Y-143550288D01*
X112338213Y-143550292D01*
X112449707Y-143661786D01*
X112449711Y-143661789D01*
X112580814Y-143749390D01*
X112580827Y-143749397D01*
X112726498Y-143809735D01*
X112726503Y-143809737D01*
X112881153Y-143840499D01*
X112881156Y-143840500D01*
X112881158Y-143840500D01*
X113038844Y-143840500D01*
X113038845Y-143840499D01*
X113193497Y-143809737D01*
X113339179Y-143749394D01*
X113470289Y-143661789D01*
X113581789Y-143550289D01*
X113669394Y-143419179D01*
X113729737Y-143273497D01*
X113760500Y-143118842D01*
X113760500Y-142961158D01*
X113760500Y-142961155D01*
X113760499Y-142961153D01*
X113729738Y-142806510D01*
X113729737Y-142806503D01*
X113729735Y-142806498D01*
X113669397Y-142660827D01*
X113669390Y-142660814D01*
X113581789Y-142529711D01*
X113581786Y-142529707D01*
X113470292Y-142418213D01*
X113470288Y-142418210D01*
X113334683Y-142327601D01*
X113289878Y-142273989D01*
X113281171Y-142204664D01*
X113311326Y-142141636D01*
X113370769Y-142104917D01*
X113403571Y-142100499D01*
X114107872Y-142100499D01*
X114167483Y-142094091D01*
X114302331Y-142043796D01*
X114417546Y-141957546D01*
X114474928Y-141880893D01*
X114530860Y-141839024D01*
X114600552Y-141834040D01*
X114638983Y-141849479D01*
X114771140Y-141930466D01*
X114836523Y-141957548D01*
X115003889Y-142026873D01*
X115171043Y-142067003D01*
X115231634Y-142101792D01*
X115263799Y-142163818D01*
X115257323Y-142233387D01*
X115214264Y-142288411D01*
X115189550Y-142302137D01*
X115120820Y-142330606D01*
X115120814Y-142330609D01*
X114989711Y-142418210D01*
X114989707Y-142418213D01*
X114878213Y-142529707D01*
X114878210Y-142529711D01*
X114790609Y-142660814D01*
X114790602Y-142660827D01*
X114730264Y-142806498D01*
X114730261Y-142806510D01*
X114699500Y-142961153D01*
X114699500Y-143118846D01*
X114730261Y-143273489D01*
X114730264Y-143273501D01*
X114790602Y-143419172D01*
X114790609Y-143419185D01*
X114878210Y-143550288D01*
X114878213Y-143550292D01*
X114989707Y-143661786D01*
X114989711Y-143661789D01*
X115120814Y-143749390D01*
X115120827Y-143749397D01*
X115266498Y-143809735D01*
X115266503Y-143809737D01*
X115421153Y-143840499D01*
X115421156Y-143840500D01*
X115421158Y-143840500D01*
X115578844Y-143840500D01*
X115578845Y-143840499D01*
X115733497Y-143809737D01*
X115879179Y-143749394D01*
X116010289Y-143661789D01*
X116121789Y-143550289D01*
X116209394Y-143419179D01*
X116269737Y-143273497D01*
X116300500Y-143118842D01*
X116300500Y-142961158D01*
X116300500Y-142961155D01*
X116300499Y-142961153D01*
X121199500Y-142961153D01*
X121199500Y-143118846D01*
X121230261Y-143273489D01*
X121230264Y-143273501D01*
X121290602Y-143419172D01*
X121290609Y-143419185D01*
X121378210Y-143550288D01*
X121378213Y-143550292D01*
X121489707Y-143661786D01*
X121489711Y-143661789D01*
X121620814Y-143749390D01*
X121620827Y-143749397D01*
X121766498Y-143809735D01*
X121766503Y-143809737D01*
X121921153Y-143840499D01*
X121921156Y-143840500D01*
X121921158Y-143840500D01*
X122078844Y-143840500D01*
X122078845Y-143840499D01*
X122233497Y-143809737D01*
X122379179Y-143749394D01*
X122510289Y-143661789D01*
X122621789Y-143550289D01*
X122709394Y-143419179D01*
X122769737Y-143273497D01*
X122800500Y-143118842D01*
X122800500Y-142961158D01*
X122800500Y-142961155D01*
X122800499Y-142961153D01*
X122769738Y-142806510D01*
X122769737Y-142806503D01*
X122769735Y-142806498D01*
X122709397Y-142660827D01*
X122709390Y-142660814D01*
X122621789Y-142529711D01*
X122621786Y-142529707D01*
X122510292Y-142418213D01*
X122510288Y-142418210D01*
X122379185Y-142330609D01*
X122379172Y-142330602D01*
X122233501Y-142270264D01*
X122233489Y-142270261D01*
X122078845Y-142239500D01*
X122078842Y-142239500D01*
X121921158Y-142239500D01*
X121921155Y-142239500D01*
X121766510Y-142270261D01*
X121766498Y-142270264D01*
X121620827Y-142330602D01*
X121620814Y-142330609D01*
X121489711Y-142418210D01*
X121489707Y-142418213D01*
X121378213Y-142529707D01*
X121378210Y-142529711D01*
X121290609Y-142660814D01*
X121290602Y-142660827D01*
X121230264Y-142806498D01*
X121230261Y-142806510D01*
X121199500Y-142961153D01*
X116300499Y-142961153D01*
X116269738Y-142806510D01*
X116269737Y-142806503D01*
X116269735Y-142806498D01*
X116209397Y-142660827D01*
X116209390Y-142660814D01*
X116121789Y-142529711D01*
X116121786Y-142529707D01*
X116010292Y-142418213D01*
X116010288Y-142418210D01*
X115879185Y-142330609D01*
X115879175Y-142330604D01*
X115810450Y-142302137D01*
X115756047Y-142258296D01*
X115733982Y-142192001D01*
X115751261Y-142124302D01*
X115802399Y-142076692D01*
X115828950Y-142067004D01*
X115996111Y-142026873D01*
X116228859Y-141930466D01*
X116443659Y-141798836D01*
X116635224Y-141635224D01*
X116798836Y-141443659D01*
X116930466Y-141228859D01*
X117026873Y-140996111D01*
X117085683Y-140751148D01*
X117105449Y-140500000D01*
X122934551Y-140500000D01*
X122954317Y-140751151D01*
X123013126Y-140996110D01*
X123109533Y-141228859D01*
X123241160Y-141443653D01*
X123241161Y-141443656D01*
X123241164Y-141443659D01*
X123404776Y-141635224D01*
X123553066Y-141761875D01*
X123596343Y-141798838D01*
X123596346Y-141798839D01*
X123811140Y-141930466D01*
X123876523Y-141957548D01*
X124043889Y-142026873D01*
X124211043Y-142067003D01*
X124271634Y-142101792D01*
X124303799Y-142163818D01*
X124297323Y-142233387D01*
X124254264Y-142288411D01*
X124229550Y-142302137D01*
X124160820Y-142330606D01*
X124160814Y-142330609D01*
X124029711Y-142418210D01*
X124029707Y-142418213D01*
X123918213Y-142529707D01*
X123918210Y-142529711D01*
X123830609Y-142660814D01*
X123830602Y-142660827D01*
X123770264Y-142806498D01*
X123770261Y-142806510D01*
X123739500Y-142961153D01*
X123739500Y-143118846D01*
X123770261Y-143273489D01*
X123770264Y-143273501D01*
X123830602Y-143419172D01*
X123830609Y-143419185D01*
X123918210Y-143550288D01*
X123918213Y-143550292D01*
X124029707Y-143661786D01*
X124029711Y-143661789D01*
X124160814Y-143749390D01*
X124160827Y-143749397D01*
X124306498Y-143809735D01*
X124306503Y-143809737D01*
X124461153Y-143840499D01*
X124461156Y-143840500D01*
X124461158Y-143840500D01*
X124618844Y-143840500D01*
X124618845Y-143840499D01*
X124773497Y-143809737D01*
X124919179Y-143749394D01*
X125050289Y-143661789D01*
X125161789Y-143550289D01*
X125249394Y-143419179D01*
X125309737Y-143273497D01*
X125340500Y-143118842D01*
X125340500Y-142961158D01*
X125340500Y-142961155D01*
X125340499Y-142961153D01*
X128199500Y-142961153D01*
X128199500Y-143118846D01*
X128230261Y-143273489D01*
X128230264Y-143273501D01*
X128290602Y-143419172D01*
X128290609Y-143419185D01*
X128378210Y-143550288D01*
X128378213Y-143550292D01*
X128489707Y-143661786D01*
X128489711Y-143661789D01*
X128620814Y-143749390D01*
X128620827Y-143749397D01*
X128766498Y-143809735D01*
X128766503Y-143809737D01*
X128921153Y-143840499D01*
X128921156Y-143840500D01*
X128921158Y-143840500D01*
X129078844Y-143840500D01*
X129078845Y-143840499D01*
X129233497Y-143809737D01*
X129379179Y-143749394D01*
X129510289Y-143661789D01*
X129621789Y-143550289D01*
X129709394Y-143419179D01*
X129769737Y-143273497D01*
X129800500Y-143118842D01*
X129800500Y-142961158D01*
X129800500Y-142961155D01*
X129800499Y-142961153D01*
X129769738Y-142806510D01*
X129769737Y-142806503D01*
X129769735Y-142806498D01*
X129709397Y-142660827D01*
X129709390Y-142660814D01*
X129621789Y-142529711D01*
X129621786Y-142529707D01*
X129510292Y-142418213D01*
X129510288Y-142418210D01*
X129379185Y-142330609D01*
X129379172Y-142330602D01*
X129233501Y-142270264D01*
X129233489Y-142270261D01*
X129078845Y-142239500D01*
X129078842Y-142239500D01*
X128921158Y-142239500D01*
X128921155Y-142239500D01*
X128766510Y-142270261D01*
X128766498Y-142270264D01*
X128620827Y-142330602D01*
X128620814Y-142330609D01*
X128489711Y-142418210D01*
X128489707Y-142418213D01*
X128378213Y-142529707D01*
X128378210Y-142529711D01*
X128290609Y-142660814D01*
X128290602Y-142660827D01*
X128230264Y-142806498D01*
X128230261Y-142806510D01*
X128199500Y-142961153D01*
X125340499Y-142961153D01*
X125309738Y-142806510D01*
X125309737Y-142806503D01*
X125309735Y-142806498D01*
X125249397Y-142660827D01*
X125249390Y-142660814D01*
X125161789Y-142529711D01*
X125161786Y-142529707D01*
X125050292Y-142418213D01*
X125050288Y-142418210D01*
X124919185Y-142330609D01*
X124919175Y-142330604D01*
X124850450Y-142302137D01*
X124796047Y-142258296D01*
X124773982Y-142192001D01*
X124791261Y-142124302D01*
X124842399Y-142076692D01*
X124868950Y-142067004D01*
X125036111Y-142026873D01*
X125268859Y-141930466D01*
X125483659Y-141798836D01*
X125675224Y-141635224D01*
X125838836Y-141443659D01*
X125970466Y-141228859D01*
X126066873Y-140996111D01*
X126125683Y-140751148D01*
X126145449Y-140500000D01*
X129934551Y-140500000D01*
X129954317Y-140751151D01*
X130013126Y-140996110D01*
X130109533Y-141228859D01*
X130241160Y-141443653D01*
X130241161Y-141443656D01*
X130241164Y-141443659D01*
X130404776Y-141635224D01*
X130553066Y-141761875D01*
X130596343Y-141798838D01*
X130596346Y-141798839D01*
X130811140Y-141930466D01*
X130876523Y-141957548D01*
X131043889Y-142026873D01*
X131211043Y-142067003D01*
X131271634Y-142101792D01*
X131303799Y-142163818D01*
X131297323Y-142233387D01*
X131254264Y-142288411D01*
X131229550Y-142302137D01*
X131160820Y-142330606D01*
X131160814Y-142330609D01*
X131029711Y-142418210D01*
X131029707Y-142418213D01*
X130918213Y-142529707D01*
X130918210Y-142529711D01*
X130830609Y-142660814D01*
X130830602Y-142660827D01*
X130770264Y-142806498D01*
X130770261Y-142806510D01*
X130739500Y-142961153D01*
X130739500Y-143118846D01*
X130770261Y-143273489D01*
X130770264Y-143273501D01*
X130830602Y-143419172D01*
X130830609Y-143419185D01*
X130918210Y-143550288D01*
X130918213Y-143550292D01*
X131029707Y-143661786D01*
X131029711Y-143661789D01*
X131160814Y-143749390D01*
X131160827Y-143749397D01*
X131306498Y-143809735D01*
X131306503Y-143809737D01*
X131461153Y-143840499D01*
X131461156Y-143840500D01*
X131461158Y-143840500D01*
X131618844Y-143840500D01*
X131618845Y-143840499D01*
X131773497Y-143809737D01*
X131919179Y-143749394D01*
X132050289Y-143661789D01*
X132161789Y-143550289D01*
X132249394Y-143419179D01*
X132309737Y-143273497D01*
X132340500Y-143118842D01*
X132340500Y-142961158D01*
X132340500Y-142961155D01*
X132340499Y-142961153D01*
X132309738Y-142806510D01*
X132309737Y-142806503D01*
X132309735Y-142806498D01*
X132249397Y-142660827D01*
X132249390Y-142660814D01*
X132161789Y-142529711D01*
X132161786Y-142529707D01*
X132050292Y-142418213D01*
X132050288Y-142418210D01*
X131919185Y-142330609D01*
X131919175Y-142330604D01*
X131850450Y-142302137D01*
X131796047Y-142258296D01*
X131773982Y-142192001D01*
X131791261Y-142124302D01*
X131842399Y-142076692D01*
X131868950Y-142067004D01*
X132036111Y-142026873D01*
X132268859Y-141930466D01*
X132483659Y-141798836D01*
X132675224Y-141635224D01*
X132838836Y-141443659D01*
X132970466Y-141228859D01*
X133066873Y-140996111D01*
X133125683Y-140751148D01*
X133145449Y-140500000D01*
X133125683Y-140248852D01*
X133066873Y-140003889D01*
X132970466Y-139771141D01*
X132970466Y-139771140D01*
X132838839Y-139556346D01*
X132838838Y-139556343D01*
X132748755Y-139450870D01*
X132675224Y-139364776D01*
X132511206Y-139224691D01*
X132483656Y-139201161D01*
X132483653Y-139201160D01*
X132268859Y-139069533D01*
X132036110Y-138973126D01*
X131791151Y-138914317D01*
X131540000Y-138894551D01*
X131288848Y-138914317D01*
X131043889Y-138973126D01*
X130811140Y-139069533D01*
X130596346Y-139201160D01*
X130596343Y-139201161D01*
X130404776Y-139364776D01*
X130241161Y-139556343D01*
X130241160Y-139556346D01*
X130109533Y-139771140D01*
X130013126Y-140003889D01*
X129954317Y-140248848D01*
X129934551Y-140500000D01*
X126145449Y-140500000D01*
X126125683Y-140248852D01*
X126066873Y-140003889D01*
X125970466Y-139771141D01*
X125970466Y-139771140D01*
X125838839Y-139556346D01*
X125838838Y-139556343D01*
X125748755Y-139450870D01*
X125675224Y-139364776D01*
X125511206Y-139224691D01*
X125483656Y-139201161D01*
X125483653Y-139201160D01*
X125268859Y-139069533D01*
X125036110Y-138973126D01*
X124791151Y-138914317D01*
X124540000Y-138894551D01*
X124288848Y-138914317D01*
X124043889Y-138973126D01*
X123811140Y-139069533D01*
X123596346Y-139201160D01*
X123596343Y-139201161D01*
X123404776Y-139364776D01*
X123241161Y-139556343D01*
X123241160Y-139556346D01*
X123109533Y-139771140D01*
X123013126Y-140003889D01*
X122954317Y-140248848D01*
X122934551Y-140500000D01*
X117105449Y-140500000D01*
X117085683Y-140248852D01*
X117026873Y-140003889D01*
X116930466Y-139771141D01*
X116930466Y-139771140D01*
X116798839Y-139556346D01*
X116798838Y-139556343D01*
X116708755Y-139450870D01*
X116635224Y-139364776D01*
X116471206Y-139224691D01*
X116443656Y-139201161D01*
X116443653Y-139201160D01*
X116228859Y-139069533D01*
X115996110Y-138973126D01*
X115751151Y-138914317D01*
X115500000Y-138894551D01*
X115248848Y-138914317D01*
X115003889Y-138973126D01*
X114771140Y-139069533D01*
X114649290Y-139144204D01*
X114581844Y-139162449D01*
X114515242Y-139141333D01*
X114470628Y-139087561D01*
X114460500Y-139038477D01*
X114460500Y-137841902D01*
X114423553Y-137608631D01*
X114350566Y-137384003D01*
X114243342Y-137173565D01*
X114104517Y-136982490D01*
X106937510Y-129815483D01*
X104584782Y-127462755D01*
X104581234Y-127459057D01*
X104519747Y-127392265D01*
X104519742Y-127392261D01*
X104501211Y-127377837D01*
X104489692Y-127367665D01*
X104477509Y-127355482D01*
X104403718Y-127301869D01*
X104400443Y-127299406D01*
X104323509Y-127239526D01*
X104318802Y-127236978D01*
X104308783Y-127231556D01*
X104294922Y-127222823D01*
X104286439Y-127216660D01*
X104286436Y-127216658D01*
X104199168Y-127172192D01*
X104196447Y-127170763D01*
X104104812Y-127121173D01*
X104104802Y-127121169D01*
X104095346Y-127117922D01*
X104079328Y-127111131D01*
X104075996Y-127109433D01*
X104001152Y-127085114D01*
X103976468Y-127077094D01*
X103974535Y-127076448D01*
X103869616Y-127040429D01*
X103866403Y-127039893D01*
X103856143Y-127037385D01*
X103856096Y-127037582D01*
X103851362Y-127036445D01*
X103741437Y-127019035D01*
X103740426Y-127018871D01*
X103624335Y-126999500D01*
X103375665Y-126999500D01*
X103375664Y-126999500D01*
X103259571Y-127018871D01*
X103258562Y-127019035D01*
X103148633Y-127036446D01*
X103143893Y-127037584D01*
X103143846Y-127037388D01*
X103133599Y-127039892D01*
X103130388Y-127040428D01*
X103025443Y-127076454D01*
X103023503Y-127077102D01*
X102924005Y-127109432D01*
X102924001Y-127109434D01*
X102920659Y-127111137D01*
X102904658Y-127117920D01*
X102895195Y-127121169D01*
X102803550Y-127170764D01*
X102800831Y-127172192D01*
X102713562Y-127216659D01*
X102713558Y-127216661D01*
X102705071Y-127222827D01*
X102691222Y-127231552D01*
X102676497Y-127239522D01*
X102676493Y-127239524D01*
X102676491Y-127239526D01*
X102626015Y-127278811D01*
X102599549Y-127299411D01*
X102596275Y-127301873D01*
X102522487Y-127355484D01*
X102510299Y-127367672D01*
X102498790Y-127377835D01*
X102480257Y-127392260D01*
X102480256Y-127392261D01*
X102418776Y-127459045D01*
X102415231Y-127462740D01*
X102355483Y-127522488D01*
X102341389Y-127541886D01*
X102332312Y-127552969D01*
X102311835Y-127575216D01*
X102311831Y-127575221D01*
X102265879Y-127645555D01*
X102262390Y-127650617D01*
X102216656Y-127713565D01*
X102202711Y-127740935D01*
X102196036Y-127752460D01*
X102175826Y-127783393D01*
X102144764Y-127854206D01*
X102141694Y-127860688D01*
X102109435Y-127923999D01*
X102109432Y-127924009D01*
X102097859Y-127959623D01*
X102093486Y-127971109D01*
X102075939Y-128011112D01*
X102075936Y-128011123D01*
X102058605Y-128079557D01*
X102056331Y-128087432D01*
X102036448Y-128148625D01*
X102029536Y-128192260D01*
X102027269Y-128203295D01*
X102014893Y-128252171D01*
X102014892Y-128252177D01*
X102014892Y-128252179D01*
X102009615Y-128315854D01*
X102008514Y-128324995D01*
X101999500Y-128381903D01*
X101999500Y-128432809D01*
X101999076Y-128443050D01*
X101994357Y-128499995D01*
X101500000Y-128499995D01*
X101500000Y-63465718D01*
X106179500Y-63465718D01*
X106179500Y-122778544D01*
X106217947Y-122971833D01*
X106217949Y-122971837D01*
X106240038Y-123025164D01*
X106293366Y-123153911D01*
X106293371Y-123153920D01*
X106402859Y-123317780D01*
X106402860Y-123317781D01*
X106402861Y-123317782D01*
X106542218Y-123457139D01*
X106542219Y-123457139D01*
X106549286Y-123464206D01*
X106549285Y-123464206D01*
X106549288Y-123464208D01*
X117222860Y-134137781D01*
X117222861Y-134137782D01*
X117362218Y-134277139D01*
X117362219Y-134277140D01*
X117526079Y-134386628D01*
X117526092Y-134386635D01*
X117654833Y-134439961D01*
X117708159Y-134462049D01*
X117708164Y-134462051D01*
X117736986Y-134467784D01*
X117778104Y-134475963D01*
X117901456Y-134500500D01*
X117901459Y-134500500D01*
X117901460Y-134500500D01*
X118098540Y-134500500D01*
X139544784Y-134500500D01*
X139611823Y-134520185D01*
X139657578Y-134572989D01*
X139667522Y-134642147D01*
X139662715Y-134662818D01*
X139621984Y-134788176D01*
X139614326Y-134811744D01*
X139594540Y-135000000D01*
X139614326Y-135188256D01*
X139614327Y-135188259D01*
X139672818Y-135368277D01*
X139672821Y-135368284D01*
X139767467Y-135532216D01*
X139810772Y-135580310D01*
X139842650Y-135615715D01*
X139872880Y-135678706D01*
X139874500Y-135698687D01*
X139874500Y-138943866D01*
X139854815Y-139010905D01*
X139802011Y-139056660D01*
X139797955Y-139058426D01*
X139771142Y-139069532D01*
X139771141Y-139069533D01*
X139638983Y-139150520D01*
X139571537Y-139168765D01*
X139504935Y-139147649D01*
X139474927Y-139119104D01*
X139417547Y-139042455D01*
X139417544Y-139042452D01*
X139302335Y-138956206D01*
X139302328Y-138956202D01*
X139167482Y-138905908D01*
X139167483Y-138905908D01*
X139107883Y-138899501D01*
X139107881Y-138899500D01*
X139107873Y-138899500D01*
X139107864Y-138899500D01*
X136812129Y-138899500D01*
X136812123Y-138899501D01*
X136752516Y-138905908D01*
X136617671Y-138956202D01*
X136617664Y-138956206D01*
X136502455Y-139042452D01*
X136502452Y-139042455D01*
X136416206Y-139157664D01*
X136416202Y-139157671D01*
X136365908Y-139292517D01*
X136359501Y-139352116D01*
X136359500Y-139352135D01*
X136359500Y-141647870D01*
X136359501Y-141647876D01*
X136365908Y-141707483D01*
X136416202Y-141842328D01*
X136416206Y-141842335D01*
X136502452Y-141957544D01*
X136502455Y-141957547D01*
X136617664Y-142043793D01*
X136617671Y-142043797D01*
X136752517Y-142094091D01*
X136752516Y-142094091D01*
X136759444Y-142094835D01*
X136812127Y-142100500D01*
X137516427Y-142100499D01*
X137583464Y-142120183D01*
X137629219Y-142172987D01*
X137639163Y-142242146D01*
X137610138Y-142305702D01*
X137585316Y-142327601D01*
X137449711Y-142418210D01*
X137449707Y-142418213D01*
X137338213Y-142529707D01*
X137338210Y-142529711D01*
X137250609Y-142660814D01*
X137250602Y-142660827D01*
X137190264Y-142806498D01*
X137190261Y-142806510D01*
X137159500Y-142961153D01*
X137159500Y-143118846D01*
X137190261Y-143273489D01*
X137190264Y-143273501D01*
X137250602Y-143419172D01*
X137250609Y-143419185D01*
X137338210Y-143550288D01*
X137338213Y-143550292D01*
X137449707Y-143661786D01*
X137449711Y-143661789D01*
X137580814Y-143749390D01*
X137580827Y-143749397D01*
X137726498Y-143809735D01*
X137726503Y-143809737D01*
X137881153Y-143840499D01*
X137881156Y-143840500D01*
X137881158Y-143840500D01*
X138038844Y-143840500D01*
X138038845Y-143840499D01*
X138193497Y-143809737D01*
X138339179Y-143749394D01*
X138470289Y-143661789D01*
X138581789Y-143550289D01*
X138669394Y-143419179D01*
X138729737Y-143273497D01*
X138760500Y-143118842D01*
X138760500Y-142961158D01*
X138760500Y-142961155D01*
X138760499Y-142961153D01*
X138729738Y-142806510D01*
X138729737Y-142806503D01*
X138729735Y-142806498D01*
X138669397Y-142660827D01*
X138669390Y-142660814D01*
X138581789Y-142529711D01*
X138581786Y-142529707D01*
X138470292Y-142418213D01*
X138470288Y-142418210D01*
X138334683Y-142327601D01*
X138289878Y-142273989D01*
X138281171Y-142204664D01*
X138311326Y-142141636D01*
X138370769Y-142104917D01*
X138403571Y-142100499D01*
X139107872Y-142100499D01*
X139167483Y-142094091D01*
X139302331Y-142043796D01*
X139417546Y-141957546D01*
X139474928Y-141880893D01*
X139530860Y-141839024D01*
X139600552Y-141834040D01*
X139638983Y-141849479D01*
X139771140Y-141930466D01*
X139836523Y-141957548D01*
X140003889Y-142026873D01*
X140171043Y-142067003D01*
X140231634Y-142101792D01*
X140263799Y-142163818D01*
X140257323Y-142233387D01*
X140214264Y-142288411D01*
X140189550Y-142302137D01*
X140120820Y-142330606D01*
X140120814Y-142330609D01*
X139989711Y-142418210D01*
X139989707Y-142418213D01*
X139878213Y-142529707D01*
X139878210Y-142529711D01*
X139790609Y-142660814D01*
X139790602Y-142660827D01*
X139730264Y-142806498D01*
X139730261Y-142806510D01*
X139699500Y-142961153D01*
X139699500Y-143118846D01*
X139730261Y-143273489D01*
X139730264Y-143273501D01*
X139790602Y-143419172D01*
X139790609Y-143419185D01*
X139878210Y-143550288D01*
X139878213Y-143550292D01*
X139989707Y-143661786D01*
X139989711Y-143661789D01*
X140120814Y-143749390D01*
X140120827Y-143749397D01*
X140266498Y-143809735D01*
X140266503Y-143809737D01*
X140421153Y-143840499D01*
X140421156Y-143840500D01*
X140421158Y-143840500D01*
X140578844Y-143840500D01*
X140578845Y-143840499D01*
X140733497Y-143809737D01*
X140879179Y-143749394D01*
X141010289Y-143661789D01*
X141121789Y-143550289D01*
X141209394Y-143419179D01*
X141269737Y-143273497D01*
X141300500Y-143118842D01*
X141300500Y-142961158D01*
X141300500Y-142961155D01*
X141300499Y-142961153D01*
X141269738Y-142806510D01*
X141269737Y-142806503D01*
X141269735Y-142806498D01*
X141209397Y-142660827D01*
X141209390Y-142660814D01*
X141121789Y-142529711D01*
X141121786Y-142529707D01*
X141010292Y-142418213D01*
X141010288Y-142418210D01*
X140879185Y-142330609D01*
X140879175Y-142330604D01*
X140810450Y-142302137D01*
X140756047Y-142258296D01*
X140733982Y-142192001D01*
X140751261Y-142124302D01*
X140802399Y-142076692D01*
X140828950Y-142067004D01*
X140996111Y-142026873D01*
X141228859Y-141930466D01*
X141443659Y-141798836D01*
X141635224Y-141635224D01*
X141798836Y-141443659D01*
X141930466Y-141228859D01*
X142026873Y-140996111D01*
X142085683Y-140751148D01*
X142105449Y-140500000D01*
X142085683Y-140248852D01*
X142026873Y-140003889D01*
X141930466Y-139771141D01*
X141930466Y-139771140D01*
X141798839Y-139556346D01*
X141798838Y-139556343D01*
X141708755Y-139450870D01*
X141635224Y-139364776D01*
X141471206Y-139224691D01*
X141443656Y-139201161D01*
X141443653Y-139201160D01*
X141228858Y-139069533D01*
X141228857Y-139069532D01*
X141202045Y-139058426D01*
X141147642Y-139014584D01*
X141125579Y-138948289D01*
X141125500Y-138943866D01*
X141125500Y-135698687D01*
X141145185Y-135631648D01*
X141157350Y-135615715D01*
X141175891Y-135595122D01*
X141232533Y-135532216D01*
X141327179Y-135368284D01*
X141385674Y-135188256D01*
X141405460Y-135000000D01*
X141385674Y-134811744D01*
X141337285Y-134662818D01*
X141335290Y-134592977D01*
X141371370Y-134533144D01*
X141434071Y-134502316D01*
X141455216Y-134500500D01*
X146544784Y-134500500D01*
X146611823Y-134520185D01*
X146657578Y-134572989D01*
X146667522Y-134642147D01*
X146662715Y-134662818D01*
X146621984Y-134788176D01*
X146614326Y-134811744D01*
X146594540Y-135000000D01*
X146614326Y-135188256D01*
X146614327Y-135188259D01*
X146672818Y-135368277D01*
X146672821Y-135368284D01*
X146767467Y-135532216D01*
X146810772Y-135580310D01*
X146842650Y-135615715D01*
X146872880Y-135678706D01*
X146874500Y-135698687D01*
X146874500Y-138943866D01*
X146854815Y-139010905D01*
X146802011Y-139056660D01*
X146797955Y-139058426D01*
X146771142Y-139069532D01*
X146771141Y-139069533D01*
X146638983Y-139150520D01*
X146571537Y-139168765D01*
X146504935Y-139147649D01*
X146474927Y-139119104D01*
X146417547Y-139042455D01*
X146417544Y-139042452D01*
X146302335Y-138956206D01*
X146302328Y-138956202D01*
X146167482Y-138905908D01*
X146167483Y-138905908D01*
X146107883Y-138899501D01*
X146107881Y-138899500D01*
X146107873Y-138899500D01*
X146107864Y-138899500D01*
X143812129Y-138899500D01*
X143812123Y-138899501D01*
X143752516Y-138905908D01*
X143617671Y-138956202D01*
X143617664Y-138956206D01*
X143502455Y-139042452D01*
X143502452Y-139042455D01*
X143416206Y-139157664D01*
X143416202Y-139157671D01*
X143365908Y-139292517D01*
X143359501Y-139352116D01*
X143359500Y-139352135D01*
X143359500Y-141647870D01*
X143359501Y-141647876D01*
X143365908Y-141707483D01*
X143416202Y-141842328D01*
X143416206Y-141842335D01*
X143502452Y-141957544D01*
X143502455Y-141957547D01*
X143617664Y-142043793D01*
X143617671Y-142043797D01*
X143752517Y-142094091D01*
X143752516Y-142094091D01*
X143759444Y-142094835D01*
X143812127Y-142100500D01*
X144516427Y-142100499D01*
X144583464Y-142120183D01*
X144629219Y-142172987D01*
X144639163Y-142242146D01*
X144610138Y-142305702D01*
X144585316Y-142327601D01*
X144449711Y-142418210D01*
X144449707Y-142418213D01*
X144338213Y-142529707D01*
X144338210Y-142529711D01*
X144250609Y-142660814D01*
X144250602Y-142660827D01*
X144190264Y-142806498D01*
X144190261Y-142806510D01*
X144159500Y-142961153D01*
X144159500Y-143118846D01*
X144190261Y-143273489D01*
X144190264Y-143273501D01*
X144250602Y-143419172D01*
X144250609Y-143419185D01*
X144338210Y-143550288D01*
X144338213Y-143550292D01*
X144449707Y-143661786D01*
X144449711Y-143661789D01*
X144580814Y-143749390D01*
X144580827Y-143749397D01*
X144726498Y-143809735D01*
X144726503Y-143809737D01*
X144881153Y-143840499D01*
X144881156Y-143840500D01*
X144881158Y-143840500D01*
X145038844Y-143840500D01*
X145038845Y-143840499D01*
X145193497Y-143809737D01*
X145339179Y-143749394D01*
X145470289Y-143661789D01*
X145581789Y-143550289D01*
X145669394Y-143419179D01*
X145729737Y-143273497D01*
X145760500Y-143118842D01*
X145760500Y-142961158D01*
X145760500Y-142961155D01*
X145760499Y-142961153D01*
X145729738Y-142806510D01*
X145729737Y-142806503D01*
X145729735Y-142806498D01*
X145669397Y-142660827D01*
X145669390Y-142660814D01*
X145581789Y-142529711D01*
X145581786Y-142529707D01*
X145470292Y-142418213D01*
X145470288Y-142418210D01*
X145334683Y-142327601D01*
X145289878Y-142273989D01*
X145281171Y-142204664D01*
X145311326Y-142141636D01*
X145370769Y-142104917D01*
X145403571Y-142100499D01*
X146107872Y-142100499D01*
X146167483Y-142094091D01*
X146302331Y-142043796D01*
X146417546Y-141957546D01*
X146474928Y-141880893D01*
X146530860Y-141839024D01*
X146600552Y-141834040D01*
X146638983Y-141849479D01*
X146771140Y-141930466D01*
X146836523Y-141957548D01*
X147003889Y-142026873D01*
X147171043Y-142067003D01*
X147231634Y-142101792D01*
X147263799Y-142163818D01*
X147257323Y-142233387D01*
X147214264Y-142288411D01*
X147189550Y-142302137D01*
X147120820Y-142330606D01*
X147120814Y-142330609D01*
X146989711Y-142418210D01*
X146989707Y-142418213D01*
X146878213Y-142529707D01*
X146878210Y-142529711D01*
X146790609Y-142660814D01*
X146790602Y-142660827D01*
X146730264Y-142806498D01*
X146730261Y-142806510D01*
X146699500Y-142961153D01*
X146699500Y-143118846D01*
X146730261Y-143273489D01*
X146730264Y-143273501D01*
X146790602Y-143419172D01*
X146790609Y-143419185D01*
X146878210Y-143550288D01*
X146878213Y-143550292D01*
X146989707Y-143661786D01*
X146989711Y-143661789D01*
X147120814Y-143749390D01*
X147120827Y-143749397D01*
X147266498Y-143809735D01*
X147266503Y-143809737D01*
X147421153Y-143840499D01*
X147421156Y-143840500D01*
X147421158Y-143840500D01*
X147578844Y-143840500D01*
X147578845Y-143840499D01*
X147733497Y-143809737D01*
X147879179Y-143749394D01*
X148010289Y-143661789D01*
X148121789Y-143550289D01*
X148209394Y-143419179D01*
X148269737Y-143273497D01*
X148300500Y-143118842D01*
X148300500Y-142961158D01*
X148300500Y-142961155D01*
X148300499Y-142961153D01*
X148269738Y-142806510D01*
X148269737Y-142806503D01*
X148269735Y-142806498D01*
X148209397Y-142660827D01*
X148209390Y-142660814D01*
X148121789Y-142529711D01*
X148121786Y-142529707D01*
X148010292Y-142418213D01*
X148010288Y-142418210D01*
X147879185Y-142330609D01*
X147879175Y-142330604D01*
X147810450Y-142302137D01*
X147756047Y-142258296D01*
X147733982Y-142192001D01*
X147751261Y-142124302D01*
X147802399Y-142076692D01*
X147828950Y-142067004D01*
X147996111Y-142026873D01*
X148228859Y-141930466D01*
X148443659Y-141798836D01*
X148635224Y-141635224D01*
X148798836Y-141443659D01*
X148930466Y-141228859D01*
X149026873Y-140996111D01*
X149085683Y-140751148D01*
X149105449Y-140500000D01*
X149085683Y-140248852D01*
X149026873Y-140003889D01*
X148930466Y-139771141D01*
X148930466Y-139771140D01*
X148798839Y-139556346D01*
X148798838Y-139556343D01*
X148708755Y-139450870D01*
X148635224Y-139364776D01*
X148471206Y-139224691D01*
X148443656Y-139201161D01*
X148443653Y-139201160D01*
X148228858Y-139069533D01*
X148228857Y-139069532D01*
X148202045Y-139058426D01*
X148147642Y-139014584D01*
X148125579Y-138948289D01*
X148125500Y-138943866D01*
X148125500Y-135698687D01*
X148145185Y-135631648D01*
X148157350Y-135615715D01*
X148175891Y-135595122D01*
X148232533Y-135532216D01*
X148327179Y-135368284D01*
X148385674Y-135188256D01*
X148405460Y-135000000D01*
X148385674Y-134811744D01*
X148337285Y-134662818D01*
X148335290Y-134592977D01*
X148371370Y-134533144D01*
X148434071Y-134502316D01*
X148455216Y-134500500D01*
X153544784Y-134500500D01*
X153611823Y-134520185D01*
X153657578Y-134572989D01*
X153667522Y-134642147D01*
X153662715Y-134662818D01*
X153621984Y-134788176D01*
X153614326Y-134811744D01*
X153594540Y-135000000D01*
X153614326Y-135188256D01*
X153614327Y-135188259D01*
X153672818Y-135368277D01*
X153672821Y-135368284D01*
X153767467Y-135532216D01*
X153810772Y-135580310D01*
X153842650Y-135615715D01*
X153872880Y-135678706D01*
X153874500Y-135698687D01*
X153874500Y-138943866D01*
X153854815Y-139010905D01*
X153802011Y-139056660D01*
X153797955Y-139058426D01*
X153771142Y-139069532D01*
X153771141Y-139069533D01*
X153638983Y-139150520D01*
X153571537Y-139168765D01*
X153504935Y-139147649D01*
X153474927Y-139119104D01*
X153417547Y-139042455D01*
X153417544Y-139042452D01*
X153302335Y-138956206D01*
X153302328Y-138956202D01*
X153167482Y-138905908D01*
X153167483Y-138905908D01*
X153107883Y-138899501D01*
X153107881Y-138899500D01*
X153107873Y-138899500D01*
X153107864Y-138899500D01*
X150812129Y-138899500D01*
X150812123Y-138899501D01*
X150752516Y-138905908D01*
X150617671Y-138956202D01*
X150617664Y-138956206D01*
X150502455Y-139042452D01*
X150502452Y-139042455D01*
X150416206Y-139157664D01*
X150416202Y-139157671D01*
X150365908Y-139292517D01*
X150359501Y-139352116D01*
X150359500Y-139352135D01*
X150359500Y-141647870D01*
X150359501Y-141647876D01*
X150365908Y-141707483D01*
X150416202Y-141842328D01*
X150416206Y-141842335D01*
X150502452Y-141957544D01*
X150502455Y-141957547D01*
X150617664Y-142043793D01*
X150617671Y-142043797D01*
X150752517Y-142094091D01*
X150752516Y-142094091D01*
X150759444Y-142094835D01*
X150812127Y-142100500D01*
X151516427Y-142100499D01*
X151583464Y-142120183D01*
X151629219Y-142172987D01*
X151639163Y-142242146D01*
X151610138Y-142305702D01*
X151585316Y-142327601D01*
X151449711Y-142418210D01*
X151449707Y-142418213D01*
X151338213Y-142529707D01*
X151338210Y-142529711D01*
X151250609Y-142660814D01*
X151250602Y-142660827D01*
X151190264Y-142806498D01*
X151190261Y-142806510D01*
X151159500Y-142961153D01*
X151159500Y-143118846D01*
X151190261Y-143273489D01*
X151190264Y-143273501D01*
X151250602Y-143419172D01*
X151250609Y-143419185D01*
X151338210Y-143550288D01*
X151338213Y-143550292D01*
X151449707Y-143661786D01*
X151449711Y-143661789D01*
X151580814Y-143749390D01*
X151580827Y-143749397D01*
X151726498Y-143809735D01*
X151726503Y-143809737D01*
X151881153Y-143840499D01*
X151881156Y-143840500D01*
X151881158Y-143840500D01*
X152038844Y-143840500D01*
X152038845Y-143840499D01*
X152193497Y-143809737D01*
X152339179Y-143749394D01*
X152470289Y-143661789D01*
X152581789Y-143550289D01*
X152669394Y-143419179D01*
X152729737Y-143273497D01*
X152760500Y-143118842D01*
X152760500Y-142961158D01*
X152760500Y-142961155D01*
X152760499Y-142961153D01*
X152729738Y-142806510D01*
X152729737Y-142806503D01*
X152729735Y-142806498D01*
X152669397Y-142660827D01*
X152669390Y-142660814D01*
X152581789Y-142529711D01*
X152581786Y-142529707D01*
X152470292Y-142418213D01*
X152470288Y-142418210D01*
X152334683Y-142327601D01*
X152289878Y-142273989D01*
X152281171Y-142204664D01*
X152311326Y-142141636D01*
X152370769Y-142104917D01*
X152403571Y-142100499D01*
X153107872Y-142100499D01*
X153167483Y-142094091D01*
X153302331Y-142043796D01*
X153417546Y-141957546D01*
X153474928Y-141880893D01*
X153530860Y-141839024D01*
X153600552Y-141834040D01*
X153638983Y-141849479D01*
X153771140Y-141930466D01*
X153836523Y-141957548D01*
X154003889Y-142026873D01*
X154171043Y-142067003D01*
X154231634Y-142101792D01*
X154263799Y-142163818D01*
X154257323Y-142233387D01*
X154214264Y-142288411D01*
X154189550Y-142302137D01*
X154120820Y-142330606D01*
X154120814Y-142330609D01*
X153989711Y-142418210D01*
X153989707Y-142418213D01*
X153878213Y-142529707D01*
X153878210Y-142529711D01*
X153790609Y-142660814D01*
X153790602Y-142660827D01*
X153730264Y-142806498D01*
X153730261Y-142806510D01*
X153699500Y-142961153D01*
X153699500Y-143118846D01*
X153730261Y-143273489D01*
X153730264Y-143273501D01*
X153790602Y-143419172D01*
X153790609Y-143419185D01*
X153878210Y-143550288D01*
X153878213Y-143550292D01*
X153989707Y-143661786D01*
X153989711Y-143661789D01*
X154120814Y-143749390D01*
X154120827Y-143749397D01*
X154266498Y-143809735D01*
X154266503Y-143809737D01*
X154421153Y-143840499D01*
X154421156Y-143840500D01*
X154421158Y-143840500D01*
X154578844Y-143840500D01*
X154578845Y-143840499D01*
X154733497Y-143809737D01*
X154879179Y-143749394D01*
X155010289Y-143661789D01*
X155121789Y-143550289D01*
X155209394Y-143419179D01*
X155269737Y-143273497D01*
X155300500Y-143118842D01*
X155300500Y-142961158D01*
X155300500Y-142961155D01*
X155300499Y-142961153D01*
X155269738Y-142806510D01*
X155269737Y-142806503D01*
X155269735Y-142806498D01*
X155209397Y-142660827D01*
X155209390Y-142660814D01*
X155121789Y-142529711D01*
X155121786Y-142529707D01*
X155010292Y-142418213D01*
X155010288Y-142418210D01*
X154879185Y-142330609D01*
X154879175Y-142330604D01*
X154810450Y-142302137D01*
X154756047Y-142258296D01*
X154733982Y-142192001D01*
X154751261Y-142124302D01*
X154802399Y-142076692D01*
X154828950Y-142067004D01*
X154996111Y-142026873D01*
X155228859Y-141930466D01*
X155443659Y-141798836D01*
X155635224Y-141635224D01*
X155798836Y-141443659D01*
X155930466Y-141228859D01*
X156026873Y-140996111D01*
X156085683Y-140751148D01*
X156105449Y-140500000D01*
X156085683Y-140248852D01*
X156026873Y-140003889D01*
X155930466Y-139771141D01*
X155930466Y-139771140D01*
X155798839Y-139556346D01*
X155798838Y-139556343D01*
X155708755Y-139450870D01*
X155635224Y-139364776D01*
X155471206Y-139224691D01*
X155443656Y-139201161D01*
X155443653Y-139201160D01*
X155228858Y-139069533D01*
X155228857Y-139069532D01*
X155202045Y-139058426D01*
X155147642Y-139014584D01*
X155125579Y-138948289D01*
X155125500Y-138943866D01*
X155125500Y-135698687D01*
X155145185Y-135631648D01*
X155157350Y-135615715D01*
X155175891Y-135595122D01*
X155232533Y-135532216D01*
X155327179Y-135368284D01*
X155385674Y-135188256D01*
X155405460Y-135000000D01*
X155385674Y-134811744D01*
X155337285Y-134662818D01*
X155335290Y-134592977D01*
X155371370Y-134533144D01*
X155434071Y-134502316D01*
X155455216Y-134500500D01*
X155901459Y-134500500D01*
X155901460Y-134500500D01*
X156098540Y-134500500D01*
X160544784Y-134500500D01*
X160611823Y-134520185D01*
X160657578Y-134572989D01*
X160667522Y-134642147D01*
X160662715Y-134662818D01*
X160621984Y-134788176D01*
X160614326Y-134811744D01*
X160594540Y-135000000D01*
X160614326Y-135188256D01*
X160614327Y-135188259D01*
X160672818Y-135368277D01*
X160672821Y-135368284D01*
X160767467Y-135532216D01*
X160810772Y-135580310D01*
X160842650Y-135615715D01*
X160872880Y-135678706D01*
X160874500Y-135698687D01*
X160874500Y-138943866D01*
X160854815Y-139010905D01*
X160802011Y-139056660D01*
X160797955Y-139058426D01*
X160771142Y-139069532D01*
X160771141Y-139069533D01*
X160638983Y-139150520D01*
X160571537Y-139168765D01*
X160504935Y-139147649D01*
X160474927Y-139119104D01*
X160417547Y-139042455D01*
X160417544Y-139042452D01*
X160302335Y-138956206D01*
X160302328Y-138956202D01*
X160167482Y-138905908D01*
X160167483Y-138905908D01*
X160107883Y-138899501D01*
X160107881Y-138899500D01*
X160107873Y-138899500D01*
X160107864Y-138899500D01*
X157812129Y-138899500D01*
X157812123Y-138899501D01*
X157752516Y-138905908D01*
X157617671Y-138956202D01*
X157617664Y-138956206D01*
X157502455Y-139042452D01*
X157502452Y-139042455D01*
X157416206Y-139157664D01*
X157416202Y-139157671D01*
X157365908Y-139292517D01*
X157359501Y-139352116D01*
X157359500Y-139352135D01*
X157359500Y-141647870D01*
X157359501Y-141647876D01*
X157365908Y-141707483D01*
X157416202Y-141842328D01*
X157416206Y-141842335D01*
X157502452Y-141957544D01*
X157502455Y-141957547D01*
X157617664Y-142043793D01*
X157617671Y-142043797D01*
X157752517Y-142094091D01*
X157752516Y-142094091D01*
X157759444Y-142094835D01*
X157812127Y-142100500D01*
X158516427Y-142100499D01*
X158583464Y-142120183D01*
X158629219Y-142172987D01*
X158639163Y-142242146D01*
X158610138Y-142305702D01*
X158585316Y-142327601D01*
X158449711Y-142418210D01*
X158449707Y-142418213D01*
X158338213Y-142529707D01*
X158338210Y-142529711D01*
X158250609Y-142660814D01*
X158250602Y-142660827D01*
X158190264Y-142806498D01*
X158190261Y-142806510D01*
X158159500Y-142961153D01*
X158159500Y-143118846D01*
X158190261Y-143273489D01*
X158190264Y-143273501D01*
X158250602Y-143419172D01*
X158250609Y-143419185D01*
X158338210Y-143550288D01*
X158338213Y-143550292D01*
X158449707Y-143661786D01*
X158449711Y-143661789D01*
X158580814Y-143749390D01*
X158580827Y-143749397D01*
X158726498Y-143809735D01*
X158726503Y-143809737D01*
X158881153Y-143840499D01*
X158881156Y-143840500D01*
X158881158Y-143840500D01*
X159038844Y-143840500D01*
X159038845Y-143840499D01*
X159193497Y-143809737D01*
X159339179Y-143749394D01*
X159470289Y-143661789D01*
X159581789Y-143550289D01*
X159669394Y-143419179D01*
X159729737Y-143273497D01*
X159760500Y-143118842D01*
X159760500Y-142961158D01*
X159760500Y-142961155D01*
X159760499Y-142961153D01*
X159729738Y-142806510D01*
X159729737Y-142806503D01*
X159729735Y-142806498D01*
X159669397Y-142660827D01*
X159669390Y-142660814D01*
X159581789Y-142529711D01*
X159581786Y-142529707D01*
X159470292Y-142418213D01*
X159470288Y-142418210D01*
X159334683Y-142327601D01*
X159289878Y-142273989D01*
X159281171Y-142204664D01*
X159311326Y-142141636D01*
X159370769Y-142104917D01*
X159403571Y-142100499D01*
X160107872Y-142100499D01*
X160167483Y-142094091D01*
X160302331Y-142043796D01*
X160417546Y-141957546D01*
X160474928Y-141880893D01*
X160530860Y-141839024D01*
X160600552Y-141834040D01*
X160638983Y-141849479D01*
X160771140Y-141930466D01*
X160836523Y-141957548D01*
X161003889Y-142026873D01*
X161171043Y-142067003D01*
X161231634Y-142101792D01*
X161263799Y-142163818D01*
X161257323Y-142233387D01*
X161214264Y-142288411D01*
X161189550Y-142302137D01*
X161120820Y-142330606D01*
X161120814Y-142330609D01*
X160989711Y-142418210D01*
X160989707Y-142418213D01*
X160878213Y-142529707D01*
X160878210Y-142529711D01*
X160790609Y-142660814D01*
X160790602Y-142660827D01*
X160730264Y-142806498D01*
X160730261Y-142806510D01*
X160699500Y-142961153D01*
X160699500Y-143118846D01*
X160730261Y-143273489D01*
X160730264Y-143273501D01*
X160790602Y-143419172D01*
X160790609Y-143419185D01*
X160878210Y-143550288D01*
X160878213Y-143550292D01*
X160989707Y-143661786D01*
X160989711Y-143661789D01*
X161120814Y-143749390D01*
X161120827Y-143749397D01*
X161266498Y-143809735D01*
X161266503Y-143809737D01*
X161421153Y-143840499D01*
X161421156Y-143840500D01*
X161421158Y-143840500D01*
X161578844Y-143840500D01*
X161578845Y-143840499D01*
X161733497Y-143809737D01*
X161879179Y-143749394D01*
X162010289Y-143661789D01*
X162121789Y-143550289D01*
X162209394Y-143419179D01*
X162269737Y-143273497D01*
X162300500Y-143118842D01*
X162300500Y-142961158D01*
X162300500Y-142961155D01*
X162300499Y-142961153D01*
X162269738Y-142806510D01*
X162269737Y-142806503D01*
X162269735Y-142806498D01*
X162209397Y-142660827D01*
X162209390Y-142660814D01*
X162121789Y-142529711D01*
X162121786Y-142529707D01*
X162010292Y-142418213D01*
X162010288Y-142418210D01*
X161879185Y-142330609D01*
X161879175Y-142330604D01*
X161810450Y-142302137D01*
X161756047Y-142258296D01*
X161733982Y-142192001D01*
X161751261Y-142124302D01*
X161802399Y-142076692D01*
X161828950Y-142067004D01*
X161996111Y-142026873D01*
X162228859Y-141930466D01*
X162443659Y-141798836D01*
X162635224Y-141635224D01*
X162798836Y-141443659D01*
X162930466Y-141228859D01*
X163026873Y-140996111D01*
X163085683Y-140751148D01*
X163105449Y-140500000D01*
X168854551Y-140500000D01*
X168874317Y-140751151D01*
X168933126Y-140996110D01*
X169029533Y-141228859D01*
X169161160Y-141443653D01*
X169161161Y-141443656D01*
X169161164Y-141443659D01*
X169324776Y-141635224D01*
X169473066Y-141761875D01*
X169516343Y-141798838D01*
X169516346Y-141798839D01*
X169731140Y-141930466D01*
X169963889Y-142026873D01*
X170208852Y-142085683D01*
X170460000Y-142105449D01*
X170711148Y-142085683D01*
X170956111Y-142026873D01*
X171188859Y-141930466D01*
X171403659Y-141798836D01*
X171595224Y-141635224D01*
X171635710Y-141587819D01*
X171694216Y-141549627D01*
X171764084Y-141549128D01*
X171823130Y-141586482D01*
X171824235Y-141587756D01*
X171864775Y-141635223D01*
X171864776Y-141635224D01*
X172056343Y-141798838D01*
X172056346Y-141798839D01*
X172271140Y-141930466D01*
X172503889Y-142026873D01*
X172748852Y-142085683D01*
X173000000Y-142105449D01*
X173251148Y-142085683D01*
X173496111Y-142026873D01*
X173728859Y-141930466D01*
X173943659Y-141798836D01*
X174135224Y-141635224D01*
X174175710Y-141587819D01*
X174234216Y-141549627D01*
X174304084Y-141549128D01*
X174363130Y-141586482D01*
X174364235Y-141587756D01*
X174404775Y-141635223D01*
X174404776Y-141635224D01*
X174596343Y-141798838D01*
X174596346Y-141798839D01*
X174811140Y-141930466D01*
X175043889Y-142026873D01*
X175288852Y-142085683D01*
X175540000Y-142105449D01*
X175791148Y-142085683D01*
X176036111Y-142026873D01*
X176268859Y-141930466D01*
X176483659Y-141798836D01*
X176675224Y-141635224D01*
X176715710Y-141587819D01*
X176774216Y-141549627D01*
X176844084Y-141549128D01*
X176903130Y-141586482D01*
X176904235Y-141587756D01*
X176944775Y-141635223D01*
X176944776Y-141635224D01*
X177136343Y-141798838D01*
X177136346Y-141798839D01*
X177351140Y-141930466D01*
X177583889Y-142026873D01*
X177828852Y-142085683D01*
X178080000Y-142105449D01*
X178331148Y-142085683D01*
X178576111Y-142026873D01*
X178808859Y-141930466D01*
X179023659Y-141798836D01*
X179215224Y-141635224D01*
X179378836Y-141443659D01*
X179510466Y-141228859D01*
X179606873Y-140996111D01*
X179665683Y-140751148D01*
X179685449Y-140500000D01*
X179665683Y-140248852D01*
X179606873Y-140003889D01*
X179510466Y-139771141D01*
X179510466Y-139771140D01*
X179378839Y-139556346D01*
X179378838Y-139556343D01*
X179288755Y-139450870D01*
X179215224Y-139364776D01*
X179051206Y-139224691D01*
X179023656Y-139201161D01*
X179023653Y-139201160D01*
X178808859Y-139069533D01*
X178576110Y-138973126D01*
X178331151Y-138914317D01*
X178080000Y-138894551D01*
X177828848Y-138914317D01*
X177583889Y-138973126D01*
X177351140Y-139069533D01*
X177136346Y-139201160D01*
X177136343Y-139201161D01*
X176944776Y-139364776D01*
X176904290Y-139412179D01*
X176845783Y-139450372D01*
X176775915Y-139450870D01*
X176716869Y-139413516D01*
X176715710Y-139412179D01*
X176675224Y-139364776D01*
X176511206Y-139224691D01*
X176483656Y-139201161D01*
X176483653Y-139201160D01*
X176268859Y-139069533D01*
X176036110Y-138973126D01*
X175791151Y-138914317D01*
X175540000Y-138894551D01*
X175288848Y-138914317D01*
X175043889Y-138973126D01*
X174811140Y-139069533D01*
X174596346Y-139201160D01*
X174596343Y-139201161D01*
X174404776Y-139364776D01*
X174364290Y-139412179D01*
X174305783Y-139450372D01*
X174235915Y-139450870D01*
X174176869Y-139413516D01*
X174175710Y-139412179D01*
X174135224Y-139364776D01*
X173971206Y-139224691D01*
X173943656Y-139201161D01*
X173943653Y-139201160D01*
X173728859Y-139069533D01*
X173496110Y-138973126D01*
X173251151Y-138914317D01*
X173000000Y-138894551D01*
X172748848Y-138914317D01*
X172503889Y-138973126D01*
X172271140Y-139069533D01*
X172056346Y-139201160D01*
X172056343Y-139201161D01*
X171864776Y-139364776D01*
X171824290Y-139412179D01*
X171765783Y-139450372D01*
X171695915Y-139450870D01*
X171636869Y-139413516D01*
X171635710Y-139412179D01*
X171595224Y-139364776D01*
X171431206Y-139224691D01*
X171403656Y-139201161D01*
X171403653Y-139201160D01*
X171188859Y-139069533D01*
X170956110Y-138973126D01*
X170711151Y-138914317D01*
X170460000Y-138894551D01*
X170208848Y-138914317D01*
X169963889Y-138973126D01*
X169731140Y-139069533D01*
X169516346Y-139201160D01*
X169516343Y-139201161D01*
X169324776Y-139364776D01*
X169161161Y-139556343D01*
X169161160Y-139556346D01*
X169029533Y-139771140D01*
X168933126Y-140003889D01*
X168874317Y-140248848D01*
X168854551Y-140500000D01*
X163105449Y-140500000D01*
X163085683Y-140248852D01*
X163026873Y-140003889D01*
X162930466Y-139771141D01*
X162930466Y-139771140D01*
X162798839Y-139556346D01*
X162798838Y-139556343D01*
X162708755Y-139450870D01*
X162635224Y-139364776D01*
X162471206Y-139224691D01*
X162443656Y-139201161D01*
X162443653Y-139201160D01*
X162228858Y-139069533D01*
X162228857Y-139069532D01*
X162202045Y-139058426D01*
X162147642Y-139014584D01*
X162125579Y-138948289D01*
X162125500Y-138943866D01*
X162125500Y-135698687D01*
X162145185Y-135631648D01*
X162157350Y-135615715D01*
X162175891Y-135595122D01*
X162232533Y-135532216D01*
X162327179Y-135368284D01*
X162385674Y-135188256D01*
X162405460Y-135000000D01*
X162385674Y-134811744D01*
X162337285Y-134662818D01*
X162335290Y-134592977D01*
X162371370Y-134533144D01*
X162434071Y-134502316D01*
X162455216Y-134500500D01*
X176598543Y-134500500D01*
X176708189Y-134478689D01*
X176763014Y-134467784D01*
X176791836Y-134462051D01*
X176845165Y-134439961D01*
X176973914Y-134386632D01*
X177137782Y-134277139D01*
X177277139Y-134137782D01*
X177277140Y-134137779D01*
X177284206Y-134130714D01*
X177284208Y-134130710D01*
X178378101Y-133036819D01*
X178439424Y-133003334D01*
X178465782Y-133000500D01*
X178624335Y-133000500D01*
X178869614Y-132959571D01*
X179104810Y-132878828D01*
X179323509Y-132760474D01*
X179519744Y-132607738D01*
X179688164Y-132424785D01*
X179824173Y-132216607D01*
X179924063Y-131988881D01*
X179985108Y-131747821D01*
X179985109Y-131747812D01*
X180005643Y-131500005D01*
X180005643Y-131499994D01*
X179985109Y-131252187D01*
X179985107Y-131252175D01*
X179924063Y-131011118D01*
X179824173Y-130783393D01*
X179688166Y-130575217D01*
X179666557Y-130551744D01*
X179519744Y-130392262D01*
X179323509Y-130239526D01*
X179323507Y-130239525D01*
X179323506Y-130239524D01*
X179104811Y-130121172D01*
X179104802Y-130121169D01*
X178869616Y-130040429D01*
X178624335Y-129999500D01*
X178375665Y-129999500D01*
X178130383Y-130040429D01*
X177895197Y-130121169D01*
X177895188Y-130121172D01*
X177676493Y-130239524D01*
X177480257Y-130392261D01*
X177311833Y-130575217D01*
X177175826Y-130783393D01*
X177075936Y-131011118D01*
X177014892Y-131252175D01*
X177014890Y-131252187D01*
X176995278Y-131488881D01*
X176994357Y-131500000D01*
X176996553Y-131526502D01*
X176982470Y-131594938D01*
X176960657Y-131624421D01*
X176121899Y-132463181D01*
X176060576Y-132496666D01*
X176034218Y-132499500D01*
X159371493Y-132499500D01*
X159304454Y-132479815D01*
X159258699Y-132427011D01*
X159248755Y-132357853D01*
X159277780Y-132294297D01*
X159312473Y-132266445D01*
X159323509Y-132260474D01*
X159519744Y-132107738D01*
X159688164Y-131924785D01*
X159824173Y-131716607D01*
X159924063Y-131488881D01*
X159985108Y-131247821D01*
X159985109Y-131247812D01*
X160005643Y-131000005D01*
X160005643Y-130999994D01*
X159985109Y-130752187D01*
X159985107Y-130752175D01*
X159924063Y-130511118D01*
X159824173Y-130283393D01*
X159688166Y-130075217D01*
X159618463Y-129999500D01*
X159519744Y-129892262D01*
X159323509Y-129739526D01*
X159323507Y-129739525D01*
X159323506Y-129739524D01*
X159104811Y-129621172D01*
X159104802Y-129621169D01*
X158869616Y-129540429D01*
X158624335Y-129499500D01*
X158375665Y-129499500D01*
X158130383Y-129540429D01*
X157895197Y-129621169D01*
X157895188Y-129621172D01*
X157676493Y-129739524D01*
X157480257Y-129892261D01*
X157311833Y-130075217D01*
X157175826Y-130283393D01*
X157075936Y-130511118D01*
X157014892Y-130752175D01*
X157014890Y-130752187D01*
X156994357Y-130999994D01*
X156994357Y-131000000D01*
X156996553Y-131026502D01*
X156982470Y-131094938D01*
X156960657Y-131124421D01*
X155621899Y-132463181D01*
X155560576Y-132496666D01*
X155534218Y-132499500D01*
X118465783Y-132499500D01*
X118398744Y-132479815D01*
X118378102Y-132463181D01*
X108216819Y-122301898D01*
X108183334Y-122240575D01*
X108180500Y-122214217D01*
X108180500Y-119599999D01*
X122794422Y-119599999D01*
X122794422Y-119600000D01*
X122814722Y-119987339D01*
X122875397Y-120370427D01*
X122875397Y-120370429D01*
X122975788Y-120745094D01*
X123114787Y-121107197D01*
X123290877Y-121452793D01*
X123502122Y-121778082D01*
X123502124Y-121778084D01*
X123746219Y-122079516D01*
X124020484Y-122353781D01*
X124020488Y-122353784D01*
X124321917Y-122597877D01*
X124600114Y-122778540D01*
X124647211Y-122809125D01*
X124992806Y-122985214D01*
X125354913Y-123124214D01*
X125729567Y-123224602D01*
X126112662Y-123285278D01*
X126478576Y-123304455D01*
X126499999Y-123305578D01*
X126500000Y-123305578D01*
X126500001Y-123305578D01*
X126520301Y-123304514D01*
X126887338Y-123285278D01*
X127270433Y-123224602D01*
X127645087Y-123124214D01*
X128007194Y-122985214D01*
X128352789Y-122809125D01*
X128678084Y-122597876D01*
X128979516Y-122353781D01*
X129253781Y-122079516D01*
X129497876Y-121778084D01*
X129709125Y-121452789D01*
X129885214Y-121107194D01*
X130024214Y-120745087D01*
X130124602Y-120370433D01*
X130185278Y-119987338D01*
X130205578Y-119600000D01*
X130185278Y-119212662D01*
X130124602Y-118829567D01*
X130024214Y-118454913D01*
X129885214Y-118092806D01*
X129709125Y-117747211D01*
X129497876Y-117421916D01*
X129253781Y-117120484D01*
X128979516Y-116846219D01*
X128678084Y-116602124D01*
X128678082Y-116602122D01*
X128352793Y-116390877D01*
X128007197Y-116214787D01*
X127645094Y-116075788D01*
X127645087Y-116075786D01*
X127270433Y-115975398D01*
X127270429Y-115975397D01*
X127270428Y-115975397D01*
X126887339Y-115914722D01*
X126500001Y-115894422D01*
X126499999Y-115894422D01*
X126112660Y-115914722D01*
X125729572Y-115975397D01*
X125729570Y-115975397D01*
X125354905Y-116075788D01*
X124992802Y-116214787D01*
X124647206Y-116390877D01*
X124321917Y-116602122D01*
X124020488Y-116846215D01*
X124020480Y-116846222D01*
X123746222Y-117120480D01*
X123746215Y-117120488D01*
X123502122Y-117421917D01*
X123290877Y-117747206D01*
X123114787Y-118092802D01*
X122975788Y-118454905D01*
X122875397Y-118829570D01*
X122875397Y-118829572D01*
X122814722Y-119212660D01*
X122794422Y-119599999D01*
X108180500Y-119599999D01*
X108180500Y-112614136D01*
X108200185Y-112547097D01*
X108252989Y-112501342D01*
X108322147Y-112491398D01*
X108336582Y-112494358D01*
X108453308Y-112525635D01*
X108615230Y-112539801D01*
X108679998Y-112545468D01*
X108680000Y-112545468D01*
X108680002Y-112545468D01*
X108736673Y-112540509D01*
X108906692Y-112525635D01*
X109126496Y-112466739D01*
X109332734Y-112370568D01*
X109519139Y-112240047D01*
X109680047Y-112079139D01*
X109810568Y-111892734D01*
X109837618Y-111834724D01*
X109883790Y-111782285D01*
X109950983Y-111763133D01*
X110017865Y-111783348D01*
X110062382Y-111834725D01*
X110089429Y-111892728D01*
X110089432Y-111892734D01*
X110219954Y-112079141D01*
X110380858Y-112240045D01*
X110380861Y-112240047D01*
X110567266Y-112370568D01*
X110773504Y-112466739D01*
X110993308Y-112525635D01*
X111155230Y-112539801D01*
X111219998Y-112545468D01*
X111220000Y-112545468D01*
X111220002Y-112545468D01*
X111276673Y-112540509D01*
X111446692Y-112525635D01*
X111666496Y-112466739D01*
X111872734Y-112370568D01*
X112059139Y-112240047D01*
X112220047Y-112079139D01*
X112350568Y-111892734D01*
X112377618Y-111834724D01*
X112423790Y-111782285D01*
X112490983Y-111763133D01*
X112557865Y-111783348D01*
X112602382Y-111834725D01*
X112629429Y-111892728D01*
X112629432Y-111892734D01*
X112759954Y-112079141D01*
X112920858Y-112240045D01*
X112920861Y-112240047D01*
X113107266Y-112370568D01*
X113313504Y-112466739D01*
X113533308Y-112525635D01*
X113695230Y-112539801D01*
X113759998Y-112545468D01*
X113760000Y-112545468D01*
X113760002Y-112545468D01*
X113816673Y-112540509D01*
X113986692Y-112525635D01*
X114206496Y-112466739D01*
X114412734Y-112370568D01*
X114599139Y-112240047D01*
X114760047Y-112079139D01*
X114890568Y-111892734D01*
X114917618Y-111834724D01*
X114963790Y-111782285D01*
X115030983Y-111763133D01*
X115097865Y-111783348D01*
X115142382Y-111834725D01*
X115169429Y-111892728D01*
X115169432Y-111892734D01*
X115299954Y-112079141D01*
X115460858Y-112240045D01*
X115460861Y-112240047D01*
X115647266Y-112370568D01*
X115853504Y-112466739D01*
X116073308Y-112525635D01*
X116235230Y-112539801D01*
X116299998Y-112545468D01*
X116300000Y-112545468D01*
X116300002Y-112545468D01*
X116356673Y-112540509D01*
X116526692Y-112525635D01*
X116746496Y-112466739D01*
X116952734Y-112370568D01*
X117139139Y-112240047D01*
X117300047Y-112079139D01*
X117430568Y-111892734D01*
X117457618Y-111834724D01*
X117503790Y-111782285D01*
X117570983Y-111763133D01*
X117637865Y-111783348D01*
X117682382Y-111834725D01*
X117709429Y-111892728D01*
X117709432Y-111892734D01*
X117839954Y-112079141D01*
X118000858Y-112240045D01*
X118000861Y-112240047D01*
X118187266Y-112370568D01*
X118393504Y-112466739D01*
X118613308Y-112525635D01*
X118775230Y-112539801D01*
X118839998Y-112545468D01*
X118840000Y-112545468D01*
X118840002Y-112545468D01*
X118896673Y-112540509D01*
X119066692Y-112525635D01*
X119286496Y-112466739D01*
X119492734Y-112370568D01*
X119679139Y-112240047D01*
X119840047Y-112079139D01*
X119970568Y-111892734D01*
X119997618Y-111834724D01*
X120043790Y-111782285D01*
X120110983Y-111763133D01*
X120177865Y-111783348D01*
X120222382Y-111834725D01*
X120249429Y-111892728D01*
X120249432Y-111892734D01*
X120379954Y-112079141D01*
X120540858Y-112240045D01*
X120540861Y-112240047D01*
X120727266Y-112370568D01*
X120933504Y-112466739D01*
X121153308Y-112525635D01*
X121315230Y-112539801D01*
X121379998Y-112545468D01*
X121380000Y-112545468D01*
X121380002Y-112545468D01*
X121436673Y-112540509D01*
X121606692Y-112525635D01*
X121826496Y-112466739D01*
X122032734Y-112370568D01*
X122219139Y-112240047D01*
X122380047Y-112079139D01*
X122510568Y-111892734D01*
X122537618Y-111834724D01*
X122583790Y-111782285D01*
X122650983Y-111763133D01*
X122717865Y-111783348D01*
X122762382Y-111834725D01*
X122789429Y-111892728D01*
X122789432Y-111892734D01*
X122919954Y-112079141D01*
X123080858Y-112240045D01*
X123080861Y-112240047D01*
X123267266Y-112370568D01*
X123473504Y-112466739D01*
X123693308Y-112525635D01*
X123855230Y-112539801D01*
X123919998Y-112545468D01*
X123920000Y-112545468D01*
X123920002Y-112545468D01*
X123976673Y-112540509D01*
X124146692Y-112525635D01*
X124366496Y-112466739D01*
X124572734Y-112370568D01*
X124759139Y-112240047D01*
X124920047Y-112079139D01*
X125050568Y-111892734D01*
X125077618Y-111834724D01*
X125123790Y-111782285D01*
X125190983Y-111763133D01*
X125257865Y-111783348D01*
X125302382Y-111834725D01*
X125329429Y-111892728D01*
X125329432Y-111892734D01*
X125459954Y-112079141D01*
X125620858Y-112240045D01*
X125620861Y-112240047D01*
X125807266Y-112370568D01*
X126013504Y-112466739D01*
X126233308Y-112525635D01*
X126395230Y-112539801D01*
X126459998Y-112545468D01*
X126460000Y-112545468D01*
X126460002Y-112545468D01*
X126516673Y-112540509D01*
X126686692Y-112525635D01*
X126906496Y-112466739D01*
X127112734Y-112370568D01*
X127299139Y-112240047D01*
X127460047Y-112079139D01*
X127590568Y-111892734D01*
X127617618Y-111834724D01*
X127663790Y-111782285D01*
X127730983Y-111763133D01*
X127797865Y-111783348D01*
X127842382Y-111834725D01*
X127869429Y-111892728D01*
X127869432Y-111892734D01*
X127999954Y-112079141D01*
X128160858Y-112240045D01*
X128160861Y-112240047D01*
X128347266Y-112370568D01*
X128553504Y-112466739D01*
X128773308Y-112525635D01*
X128935230Y-112539801D01*
X128999998Y-112545468D01*
X129000000Y-112545468D01*
X129000002Y-112545468D01*
X129056673Y-112540509D01*
X129226692Y-112525635D01*
X129446496Y-112466739D01*
X129652734Y-112370568D01*
X129839139Y-112240047D01*
X130000047Y-112079139D01*
X130130568Y-111892734D01*
X130226739Y-111686496D01*
X130285635Y-111466692D01*
X130305468Y-111240000D01*
X130305468Y-111239998D01*
X132774532Y-111239998D01*
X132774532Y-111240001D01*
X132794364Y-111466686D01*
X132794366Y-111466697D01*
X132853258Y-111686488D01*
X132853261Y-111686497D01*
X132949431Y-111892732D01*
X132949432Y-111892734D01*
X133079954Y-112079141D01*
X133240858Y-112240045D01*
X133240861Y-112240047D01*
X133427266Y-112370568D01*
X133633504Y-112466739D01*
X133853308Y-112525635D01*
X134015230Y-112539801D01*
X134079998Y-112545468D01*
X134080000Y-112545468D01*
X134080002Y-112545468D01*
X134136673Y-112540509D01*
X134306692Y-112525635D01*
X134526496Y-112466739D01*
X134732734Y-112370568D01*
X134919139Y-112240047D01*
X135080047Y-112079139D01*
X135210568Y-111892734D01*
X135237618Y-111834724D01*
X135283790Y-111782285D01*
X135350983Y-111763133D01*
X135417865Y-111783348D01*
X135462382Y-111834725D01*
X135489429Y-111892728D01*
X135489432Y-111892734D01*
X135619954Y-112079141D01*
X135780858Y-112240045D01*
X135780861Y-112240047D01*
X135967266Y-112370568D01*
X136173504Y-112466739D01*
X136393308Y-112525635D01*
X136555230Y-112539801D01*
X136619998Y-112545468D01*
X136620000Y-112545468D01*
X136620002Y-112545468D01*
X136676673Y-112540509D01*
X136846692Y-112525635D01*
X137066496Y-112466739D01*
X137272734Y-112370568D01*
X137459139Y-112240047D01*
X137620047Y-112079139D01*
X137750568Y-111892734D01*
X137777618Y-111834724D01*
X137823790Y-111782285D01*
X137890983Y-111763133D01*
X137957865Y-111783348D01*
X138002382Y-111834725D01*
X138029429Y-111892728D01*
X138029432Y-111892734D01*
X138159954Y-112079141D01*
X138320858Y-112240045D01*
X138320861Y-112240047D01*
X138507266Y-112370568D01*
X138713504Y-112466739D01*
X138933308Y-112525635D01*
X139095230Y-112539801D01*
X139159998Y-112545468D01*
X139160000Y-112545468D01*
X139160002Y-112545468D01*
X139216673Y-112540509D01*
X139386692Y-112525635D01*
X139606496Y-112466739D01*
X139812734Y-112370568D01*
X139999139Y-112240047D01*
X140160047Y-112079139D01*
X140290568Y-111892734D01*
X140317618Y-111834724D01*
X140363790Y-111782285D01*
X140430983Y-111763133D01*
X140497865Y-111783348D01*
X140542382Y-111834725D01*
X140569429Y-111892728D01*
X140569432Y-111892734D01*
X140699954Y-112079141D01*
X140860858Y-112240045D01*
X140860861Y-112240047D01*
X141047266Y-112370568D01*
X141253504Y-112466739D01*
X141473308Y-112525635D01*
X141635230Y-112539801D01*
X141699998Y-112545468D01*
X141700000Y-112545468D01*
X141700002Y-112545468D01*
X141756673Y-112540509D01*
X141926692Y-112525635D01*
X142146496Y-112466739D01*
X142352734Y-112370568D01*
X142539139Y-112240047D01*
X142700047Y-112079139D01*
X142830568Y-111892734D01*
X142857618Y-111834724D01*
X142903790Y-111782285D01*
X142970983Y-111763133D01*
X143037865Y-111783348D01*
X143082382Y-111834725D01*
X143109429Y-111892728D01*
X143109432Y-111892734D01*
X143239954Y-112079141D01*
X143400858Y-112240045D01*
X143400861Y-112240047D01*
X143587266Y-112370568D01*
X143793504Y-112466739D01*
X144013308Y-112525635D01*
X144175230Y-112539801D01*
X144239998Y-112545468D01*
X144240000Y-112545468D01*
X144240002Y-112545468D01*
X144296673Y-112540509D01*
X144466692Y-112525635D01*
X144686496Y-112466739D01*
X144892734Y-112370568D01*
X145079139Y-112240047D01*
X145240047Y-112079139D01*
X145370568Y-111892734D01*
X145397618Y-111834724D01*
X145443790Y-111782285D01*
X145510983Y-111763133D01*
X145577865Y-111783348D01*
X145622382Y-111834725D01*
X145649429Y-111892728D01*
X145649432Y-111892734D01*
X145779954Y-112079141D01*
X145940858Y-112240045D01*
X145940861Y-112240047D01*
X146127266Y-112370568D01*
X146333504Y-112466739D01*
X146553308Y-112525635D01*
X146715230Y-112539801D01*
X146779998Y-112545468D01*
X146780000Y-112545468D01*
X146780002Y-112545468D01*
X146836673Y-112540509D01*
X147006692Y-112525635D01*
X147226496Y-112466739D01*
X147432734Y-112370568D01*
X147619139Y-112240047D01*
X147780047Y-112079139D01*
X147910568Y-111892734D01*
X147937618Y-111834724D01*
X147983790Y-111782285D01*
X148050983Y-111763133D01*
X148117865Y-111783348D01*
X148162382Y-111834725D01*
X148189429Y-111892728D01*
X148189432Y-111892734D01*
X148319954Y-112079141D01*
X148480858Y-112240045D01*
X148480861Y-112240047D01*
X148667266Y-112370568D01*
X148873504Y-112466739D01*
X149093308Y-112525635D01*
X149255230Y-112539801D01*
X149319998Y-112545468D01*
X149320000Y-112545468D01*
X149320002Y-112545468D01*
X149376673Y-112540509D01*
X149546692Y-112525635D01*
X149766496Y-112466739D01*
X149972734Y-112370568D01*
X150159139Y-112240047D01*
X150320047Y-112079139D01*
X150450568Y-111892734D01*
X150477618Y-111834724D01*
X150523790Y-111782285D01*
X150590983Y-111763133D01*
X150657865Y-111783348D01*
X150702382Y-111834725D01*
X150729429Y-111892728D01*
X150729432Y-111892734D01*
X150859954Y-112079141D01*
X151020858Y-112240045D01*
X151020861Y-112240047D01*
X151207266Y-112370568D01*
X151413504Y-112466739D01*
X151633308Y-112525635D01*
X151795230Y-112539801D01*
X151859998Y-112545468D01*
X151860000Y-112545468D01*
X151860002Y-112545468D01*
X151916673Y-112540509D01*
X152086692Y-112525635D01*
X152306496Y-112466739D01*
X152512734Y-112370568D01*
X152699139Y-112240047D01*
X152860047Y-112079139D01*
X152990568Y-111892734D01*
X153017618Y-111834724D01*
X153063790Y-111782285D01*
X153130983Y-111763133D01*
X153197865Y-111783348D01*
X153242382Y-111834725D01*
X153269429Y-111892728D01*
X153269432Y-111892734D01*
X153399954Y-112079141D01*
X153560858Y-112240045D01*
X153560861Y-112240047D01*
X153747266Y-112370568D01*
X153953504Y-112466739D01*
X154173308Y-112525635D01*
X154335230Y-112539801D01*
X154399998Y-112545468D01*
X154400000Y-112545468D01*
X154400002Y-112545468D01*
X154456673Y-112540509D01*
X154626692Y-112525635D01*
X154846496Y-112466739D01*
X155052734Y-112370568D01*
X155239139Y-112240047D01*
X155400047Y-112079139D01*
X155530568Y-111892734D01*
X155557618Y-111834724D01*
X155603790Y-111782285D01*
X155670983Y-111763133D01*
X155737865Y-111783348D01*
X155782382Y-111834725D01*
X155809429Y-111892728D01*
X155809432Y-111892734D01*
X155939954Y-112079141D01*
X156100858Y-112240045D01*
X156100861Y-112240047D01*
X156287266Y-112370568D01*
X156493504Y-112466739D01*
X156713308Y-112525635D01*
X156875230Y-112539801D01*
X156939998Y-112545468D01*
X156940000Y-112545468D01*
X156940002Y-112545468D01*
X156996673Y-112540509D01*
X157166692Y-112525635D01*
X157386496Y-112466739D01*
X157592734Y-112370568D01*
X157779139Y-112240047D01*
X157940047Y-112079139D01*
X158070568Y-111892734D01*
X158097618Y-111834724D01*
X158143790Y-111782285D01*
X158210983Y-111763133D01*
X158277865Y-111783348D01*
X158322382Y-111834725D01*
X158349429Y-111892728D01*
X158349432Y-111892734D01*
X158479954Y-112079141D01*
X158640858Y-112240045D01*
X158640861Y-112240047D01*
X158827266Y-112370568D01*
X159033504Y-112466739D01*
X159253308Y-112525635D01*
X159415230Y-112539801D01*
X159479998Y-112545468D01*
X159480000Y-112545468D01*
X159480002Y-112545468D01*
X159536673Y-112540509D01*
X159706692Y-112525635D01*
X159926496Y-112466739D01*
X160132734Y-112370568D01*
X160319139Y-112240047D01*
X160480047Y-112079139D01*
X160610568Y-111892734D01*
X160637618Y-111834724D01*
X160683790Y-111782285D01*
X160750983Y-111763133D01*
X160817865Y-111783348D01*
X160862382Y-111834725D01*
X160889429Y-111892728D01*
X160889432Y-111892734D01*
X161019954Y-112079141D01*
X161180858Y-112240045D01*
X161180861Y-112240047D01*
X161367266Y-112370568D01*
X161573504Y-112466739D01*
X161793308Y-112525635D01*
X161955230Y-112539801D01*
X162019998Y-112545468D01*
X162020000Y-112545468D01*
X162020002Y-112545468D01*
X162076673Y-112540509D01*
X162246692Y-112525635D01*
X162466496Y-112466739D01*
X162672734Y-112370568D01*
X162859139Y-112240047D01*
X163020047Y-112079139D01*
X163150568Y-111892734D01*
X163246739Y-111686496D01*
X163305635Y-111466692D01*
X163325468Y-111240000D01*
X163325468Y-111239998D01*
X165794532Y-111239998D01*
X165794532Y-111240001D01*
X165814364Y-111466686D01*
X165814366Y-111466697D01*
X165873258Y-111686488D01*
X165873261Y-111686497D01*
X165969431Y-111892732D01*
X165969432Y-111892734D01*
X166099954Y-112079141D01*
X166260858Y-112240045D01*
X166260861Y-112240047D01*
X166447266Y-112370568D01*
X166653504Y-112466739D01*
X166873308Y-112525635D01*
X167035230Y-112539801D01*
X167099998Y-112545468D01*
X167100000Y-112545468D01*
X167100002Y-112545468D01*
X167156673Y-112540509D01*
X167326692Y-112525635D01*
X167546496Y-112466739D01*
X167752734Y-112370568D01*
X167939139Y-112240047D01*
X168100047Y-112079139D01*
X168230568Y-111892734D01*
X168326739Y-111686496D01*
X168385635Y-111466692D01*
X168405468Y-111240000D01*
X168385635Y-111013308D01*
X168326739Y-110793504D01*
X168230568Y-110587266D01*
X168100047Y-110400861D01*
X168100045Y-110400858D01*
X167939141Y-110239954D01*
X167752734Y-110109432D01*
X167752732Y-110109431D01*
X167546497Y-110013261D01*
X167546488Y-110013258D01*
X167326697Y-109954366D01*
X167326693Y-109954365D01*
X167326692Y-109954365D01*
X167326691Y-109954364D01*
X167326686Y-109954364D01*
X167100002Y-109934532D01*
X167099998Y-109934532D01*
X166873313Y-109954364D01*
X166873302Y-109954366D01*
X166653511Y-110013258D01*
X166653502Y-110013261D01*
X166447267Y-110109431D01*
X166447265Y-110109432D01*
X166260858Y-110239954D01*
X166099954Y-110400858D01*
X165969432Y-110587265D01*
X165969431Y-110587267D01*
X165873261Y-110793502D01*
X165873258Y-110793511D01*
X165814366Y-111013302D01*
X165814364Y-111013313D01*
X165794532Y-111239998D01*
X163325468Y-111239998D01*
X163305635Y-111013308D01*
X163246739Y-110793504D01*
X163150568Y-110587266D01*
X163020047Y-110400861D01*
X163020045Y-110400858D01*
X162859141Y-110239954D01*
X162672734Y-110109432D01*
X162672732Y-110109431D01*
X162466497Y-110013261D01*
X162466488Y-110013258D01*
X162246697Y-109954366D01*
X162246693Y-109954365D01*
X162246692Y-109954365D01*
X162246691Y-109954364D01*
X162246686Y-109954364D01*
X162020002Y-109934532D01*
X162019998Y-109934532D01*
X161793313Y-109954364D01*
X161793302Y-109954366D01*
X161573511Y-110013258D01*
X161573502Y-110013261D01*
X161367267Y-110109431D01*
X161367265Y-110109432D01*
X161180858Y-110239954D01*
X161019954Y-110400858D01*
X160889432Y-110587265D01*
X160889431Y-110587267D01*
X160862382Y-110645275D01*
X160816209Y-110697714D01*
X160749016Y-110716866D01*
X160682135Y-110696650D01*
X160637618Y-110645275D01*
X160610568Y-110587267D01*
X160610567Y-110587265D01*
X160480045Y-110400858D01*
X160319141Y-110239954D01*
X160132734Y-110109432D01*
X160132732Y-110109431D01*
X159926497Y-110013261D01*
X159926488Y-110013258D01*
X159706697Y-109954366D01*
X159706693Y-109954365D01*
X159706692Y-109954365D01*
X159706691Y-109954364D01*
X159706686Y-109954364D01*
X159480002Y-109934532D01*
X159479998Y-109934532D01*
X159253313Y-109954364D01*
X159253302Y-109954366D01*
X159033511Y-110013258D01*
X159033502Y-110013261D01*
X158827267Y-110109431D01*
X158827265Y-110109432D01*
X158640858Y-110239954D01*
X158479954Y-110400858D01*
X158349432Y-110587265D01*
X158349431Y-110587267D01*
X158322382Y-110645275D01*
X158276209Y-110697714D01*
X158209016Y-110716866D01*
X158142135Y-110696650D01*
X158097618Y-110645275D01*
X158070568Y-110587267D01*
X158070567Y-110587265D01*
X157940045Y-110400858D01*
X157779141Y-110239954D01*
X157592734Y-110109432D01*
X157592732Y-110109431D01*
X157386497Y-110013261D01*
X157386488Y-110013258D01*
X157166697Y-109954366D01*
X157166693Y-109954365D01*
X157166692Y-109954365D01*
X157166691Y-109954364D01*
X157166686Y-109954364D01*
X156940002Y-109934532D01*
X156939998Y-109934532D01*
X156713313Y-109954364D01*
X156713302Y-109954366D01*
X156493511Y-110013258D01*
X156493502Y-110013261D01*
X156287267Y-110109431D01*
X156287265Y-110109432D01*
X156100858Y-110239954D01*
X155939954Y-110400858D01*
X155809432Y-110587265D01*
X155809431Y-110587267D01*
X155782382Y-110645275D01*
X155736209Y-110697714D01*
X155669016Y-110716866D01*
X155602135Y-110696650D01*
X155557618Y-110645275D01*
X155530568Y-110587267D01*
X155530567Y-110587265D01*
X155400045Y-110400858D01*
X155239141Y-110239954D01*
X155052734Y-110109432D01*
X155052732Y-110109431D01*
X154846497Y-110013261D01*
X154846488Y-110013258D01*
X154626697Y-109954366D01*
X154626693Y-109954365D01*
X154626692Y-109954365D01*
X154626691Y-109954364D01*
X154626686Y-109954364D01*
X154400002Y-109934532D01*
X154399998Y-109934532D01*
X154173313Y-109954364D01*
X154173302Y-109954366D01*
X153953511Y-110013258D01*
X153953502Y-110013261D01*
X153747267Y-110109431D01*
X153747265Y-110109432D01*
X153560858Y-110239954D01*
X153399954Y-110400858D01*
X153269432Y-110587265D01*
X153269431Y-110587267D01*
X153242382Y-110645275D01*
X153196209Y-110697714D01*
X153129016Y-110716866D01*
X153062135Y-110696650D01*
X153017618Y-110645275D01*
X152990568Y-110587267D01*
X152990567Y-110587265D01*
X152860045Y-110400858D01*
X152699141Y-110239954D01*
X152512734Y-110109432D01*
X152512732Y-110109431D01*
X152306497Y-110013261D01*
X152306488Y-110013258D01*
X152086697Y-109954366D01*
X152086693Y-109954365D01*
X152086692Y-109954365D01*
X152086691Y-109954364D01*
X152086686Y-109954364D01*
X151860002Y-109934532D01*
X151859998Y-109934532D01*
X151633313Y-109954364D01*
X151633302Y-109954366D01*
X151413511Y-110013258D01*
X151413502Y-110013261D01*
X151207267Y-110109431D01*
X151207265Y-110109432D01*
X151020858Y-110239954D01*
X150859954Y-110400858D01*
X150729432Y-110587265D01*
X150729431Y-110587267D01*
X150702382Y-110645275D01*
X150656209Y-110697714D01*
X150589016Y-110716866D01*
X150522135Y-110696650D01*
X150477618Y-110645275D01*
X150450568Y-110587267D01*
X150450567Y-110587265D01*
X150320045Y-110400858D01*
X150159141Y-110239954D01*
X149972734Y-110109432D01*
X149972732Y-110109431D01*
X149766497Y-110013261D01*
X149766488Y-110013258D01*
X149546697Y-109954366D01*
X149546693Y-109954365D01*
X149546692Y-109954365D01*
X149546691Y-109954364D01*
X149546686Y-109954364D01*
X149320002Y-109934532D01*
X149319998Y-109934532D01*
X149093313Y-109954364D01*
X149093302Y-109954366D01*
X148873511Y-110013258D01*
X148873502Y-110013261D01*
X148667267Y-110109431D01*
X148667265Y-110109432D01*
X148480858Y-110239954D01*
X148319954Y-110400858D01*
X148189432Y-110587265D01*
X148189431Y-110587267D01*
X148162382Y-110645275D01*
X148116209Y-110697714D01*
X148049016Y-110716866D01*
X147982135Y-110696650D01*
X147937618Y-110645275D01*
X147910568Y-110587267D01*
X147910567Y-110587265D01*
X147780045Y-110400858D01*
X147619141Y-110239954D01*
X147432734Y-110109432D01*
X147432732Y-110109431D01*
X147226497Y-110013261D01*
X147226488Y-110013258D01*
X147006697Y-109954366D01*
X147006693Y-109954365D01*
X147006692Y-109954365D01*
X147006691Y-109954364D01*
X147006686Y-109954364D01*
X146780002Y-109934532D01*
X146779998Y-109934532D01*
X146553313Y-109954364D01*
X146553302Y-109954366D01*
X146333511Y-110013258D01*
X146333502Y-110013261D01*
X146127267Y-110109431D01*
X146127265Y-110109432D01*
X145940858Y-110239954D01*
X145779954Y-110400858D01*
X145649432Y-110587265D01*
X145649431Y-110587267D01*
X145622382Y-110645275D01*
X145576209Y-110697714D01*
X145509016Y-110716866D01*
X145442135Y-110696650D01*
X145397618Y-110645275D01*
X145370568Y-110587267D01*
X145370567Y-110587265D01*
X145240045Y-110400858D01*
X145079141Y-110239954D01*
X144892734Y-110109432D01*
X144892732Y-110109431D01*
X144686497Y-110013261D01*
X144686488Y-110013258D01*
X144466697Y-109954366D01*
X144466693Y-109954365D01*
X144466692Y-109954365D01*
X144466691Y-109954364D01*
X144466686Y-109954364D01*
X144240002Y-109934532D01*
X144239998Y-109934532D01*
X144013313Y-109954364D01*
X144013302Y-109954366D01*
X143793511Y-110013258D01*
X143793502Y-110013261D01*
X143587267Y-110109431D01*
X143587265Y-110109432D01*
X143400858Y-110239954D01*
X143239954Y-110400858D01*
X143109432Y-110587265D01*
X143109431Y-110587267D01*
X143082382Y-110645275D01*
X143036209Y-110697714D01*
X142969016Y-110716866D01*
X142902135Y-110696650D01*
X142857618Y-110645275D01*
X142830568Y-110587267D01*
X142830567Y-110587265D01*
X142700045Y-110400858D01*
X142539141Y-110239954D01*
X142352734Y-110109432D01*
X142352732Y-110109431D01*
X142146497Y-110013261D01*
X142146488Y-110013258D01*
X141926697Y-109954366D01*
X141926693Y-109954365D01*
X141926692Y-109954365D01*
X141926691Y-109954364D01*
X141926686Y-109954364D01*
X141700002Y-109934532D01*
X141699998Y-109934532D01*
X141473313Y-109954364D01*
X141473302Y-109954366D01*
X141253511Y-110013258D01*
X141253502Y-110013261D01*
X141047267Y-110109431D01*
X141047265Y-110109432D01*
X140860858Y-110239954D01*
X140699954Y-110400858D01*
X140569432Y-110587265D01*
X140569431Y-110587267D01*
X140542382Y-110645275D01*
X140496209Y-110697714D01*
X140429016Y-110716866D01*
X140362135Y-110696650D01*
X140317618Y-110645275D01*
X140290568Y-110587267D01*
X140290567Y-110587265D01*
X140160045Y-110400858D01*
X139999141Y-110239954D01*
X139812734Y-110109432D01*
X139812732Y-110109431D01*
X139606497Y-110013261D01*
X139606488Y-110013258D01*
X139386697Y-109954366D01*
X139386693Y-109954365D01*
X139386692Y-109954365D01*
X139386691Y-109954364D01*
X139386686Y-109954364D01*
X139160002Y-109934532D01*
X139159998Y-109934532D01*
X138933313Y-109954364D01*
X138933302Y-109954366D01*
X138713511Y-110013258D01*
X138713502Y-110013261D01*
X138507267Y-110109431D01*
X138507265Y-110109432D01*
X138320858Y-110239954D01*
X138159954Y-110400858D01*
X138029432Y-110587265D01*
X138029431Y-110587267D01*
X138002382Y-110645275D01*
X137956209Y-110697714D01*
X137889016Y-110716866D01*
X137822135Y-110696650D01*
X137777618Y-110645275D01*
X137750568Y-110587267D01*
X137750567Y-110587265D01*
X137620045Y-110400858D01*
X137459141Y-110239954D01*
X137272734Y-110109432D01*
X137272732Y-110109431D01*
X137066497Y-110013261D01*
X137066488Y-110013258D01*
X136846697Y-109954366D01*
X136846693Y-109954365D01*
X136846692Y-109954365D01*
X136846691Y-109954364D01*
X136846686Y-109954364D01*
X136620002Y-109934532D01*
X136619998Y-109934532D01*
X136393313Y-109954364D01*
X136393302Y-109954366D01*
X136173511Y-110013258D01*
X136173502Y-110013261D01*
X135967267Y-110109431D01*
X135967265Y-110109432D01*
X135780858Y-110239954D01*
X135619954Y-110400858D01*
X135489432Y-110587265D01*
X135489431Y-110587267D01*
X135462382Y-110645275D01*
X135416209Y-110697714D01*
X135349016Y-110716866D01*
X135282135Y-110696650D01*
X135237618Y-110645275D01*
X135210568Y-110587267D01*
X135210567Y-110587265D01*
X135080045Y-110400858D01*
X134919141Y-110239954D01*
X134732734Y-110109432D01*
X134732732Y-110109431D01*
X134526497Y-110013261D01*
X134526488Y-110013258D01*
X134306697Y-109954366D01*
X134306693Y-109954365D01*
X134306692Y-109954365D01*
X134306691Y-109954364D01*
X134306686Y-109954364D01*
X134080002Y-109934532D01*
X134079998Y-109934532D01*
X133853313Y-109954364D01*
X133853302Y-109954366D01*
X133633511Y-110013258D01*
X133633502Y-110013261D01*
X133427267Y-110109431D01*
X133427265Y-110109432D01*
X133240858Y-110239954D01*
X133079954Y-110400858D01*
X132949432Y-110587265D01*
X132949431Y-110587267D01*
X132853261Y-110793502D01*
X132853258Y-110793511D01*
X132794366Y-111013302D01*
X132794364Y-111013313D01*
X132774532Y-111239998D01*
X130305468Y-111239998D01*
X130285635Y-111013308D01*
X130226739Y-110793504D01*
X130130568Y-110587266D01*
X130000047Y-110400861D01*
X130000045Y-110400858D01*
X129839141Y-110239954D01*
X129652734Y-110109432D01*
X129652732Y-110109431D01*
X129446497Y-110013261D01*
X129446488Y-110013258D01*
X129226697Y-109954366D01*
X129226693Y-109954365D01*
X129226692Y-109954365D01*
X129226691Y-109954364D01*
X129226686Y-109954364D01*
X129000002Y-109934532D01*
X128999998Y-109934532D01*
X128773313Y-109954364D01*
X128773302Y-109954366D01*
X128553511Y-110013258D01*
X128553502Y-110013261D01*
X128347267Y-110109431D01*
X128347265Y-110109432D01*
X128160858Y-110239954D01*
X127999954Y-110400858D01*
X127869432Y-110587265D01*
X127869431Y-110587267D01*
X127842382Y-110645275D01*
X127796209Y-110697714D01*
X127729016Y-110716866D01*
X127662135Y-110696650D01*
X127617618Y-110645275D01*
X127590568Y-110587267D01*
X127590567Y-110587265D01*
X127460045Y-110400858D01*
X127299141Y-110239954D01*
X127112734Y-110109432D01*
X127112732Y-110109431D01*
X126906497Y-110013261D01*
X126906488Y-110013258D01*
X126686697Y-109954366D01*
X126686693Y-109954365D01*
X126686692Y-109954365D01*
X126686691Y-109954364D01*
X126686686Y-109954364D01*
X126460002Y-109934532D01*
X126459998Y-109934532D01*
X126233313Y-109954364D01*
X126233302Y-109954366D01*
X126013511Y-110013258D01*
X126013502Y-110013261D01*
X125807267Y-110109431D01*
X125807265Y-110109432D01*
X125620858Y-110239954D01*
X125459954Y-110400858D01*
X125329432Y-110587265D01*
X125329431Y-110587267D01*
X125302382Y-110645275D01*
X125256209Y-110697714D01*
X125189016Y-110716866D01*
X125122135Y-110696650D01*
X125077618Y-110645275D01*
X125050568Y-110587267D01*
X125050567Y-110587265D01*
X124920045Y-110400858D01*
X124759141Y-110239954D01*
X124572734Y-110109432D01*
X124572732Y-110109431D01*
X124366497Y-110013261D01*
X124366488Y-110013258D01*
X124146697Y-109954366D01*
X124146693Y-109954365D01*
X124146692Y-109954365D01*
X124146691Y-109954364D01*
X124146686Y-109954364D01*
X123920002Y-109934532D01*
X123919998Y-109934532D01*
X123693313Y-109954364D01*
X123693302Y-109954366D01*
X123473511Y-110013258D01*
X123473502Y-110013261D01*
X123267267Y-110109431D01*
X123267265Y-110109432D01*
X123080858Y-110239954D01*
X122919954Y-110400858D01*
X122789432Y-110587265D01*
X122789431Y-110587267D01*
X122762382Y-110645275D01*
X122716209Y-110697714D01*
X122649016Y-110716866D01*
X122582135Y-110696650D01*
X122537618Y-110645275D01*
X122510568Y-110587267D01*
X122510567Y-110587265D01*
X122380045Y-110400858D01*
X122219141Y-110239954D01*
X122032734Y-110109432D01*
X122032732Y-110109431D01*
X121826497Y-110013261D01*
X121826488Y-110013258D01*
X121606697Y-109954366D01*
X121606693Y-109954365D01*
X121606692Y-109954365D01*
X121606691Y-109954364D01*
X121606686Y-109954364D01*
X121380002Y-109934532D01*
X121379998Y-109934532D01*
X121153313Y-109954364D01*
X121153302Y-109954366D01*
X120933511Y-110013258D01*
X120933502Y-110013261D01*
X120727267Y-110109431D01*
X120727265Y-110109432D01*
X120540858Y-110239954D01*
X120379954Y-110400858D01*
X120249432Y-110587265D01*
X120249431Y-110587267D01*
X120222382Y-110645275D01*
X120176209Y-110697714D01*
X120109016Y-110716866D01*
X120042135Y-110696650D01*
X119997618Y-110645275D01*
X119970568Y-110587267D01*
X119970567Y-110587265D01*
X119840045Y-110400858D01*
X119679141Y-110239954D01*
X119492734Y-110109432D01*
X119492732Y-110109431D01*
X119286497Y-110013261D01*
X119286488Y-110013258D01*
X119066697Y-109954366D01*
X119066693Y-109954365D01*
X119066692Y-109954365D01*
X119066691Y-109954364D01*
X119066686Y-109954364D01*
X118840002Y-109934532D01*
X118839998Y-109934532D01*
X118613313Y-109954364D01*
X118613302Y-109954366D01*
X118393511Y-110013258D01*
X118393502Y-110013261D01*
X118187267Y-110109431D01*
X118187265Y-110109432D01*
X118000858Y-110239954D01*
X117839954Y-110400858D01*
X117709432Y-110587265D01*
X117709431Y-110587267D01*
X117682382Y-110645275D01*
X117636209Y-110697714D01*
X117569016Y-110716866D01*
X117502135Y-110696650D01*
X117457618Y-110645275D01*
X117430568Y-110587267D01*
X117430567Y-110587265D01*
X117300045Y-110400858D01*
X117139141Y-110239954D01*
X116952734Y-110109432D01*
X116952732Y-110109431D01*
X116746497Y-110013261D01*
X116746488Y-110013258D01*
X116526697Y-109954366D01*
X116526693Y-109954365D01*
X116526692Y-109954365D01*
X116526691Y-109954364D01*
X116526686Y-109954364D01*
X116300002Y-109934532D01*
X116299998Y-109934532D01*
X116073313Y-109954364D01*
X116073302Y-109954366D01*
X115853511Y-110013258D01*
X115853502Y-110013261D01*
X115647267Y-110109431D01*
X115647265Y-110109432D01*
X115460858Y-110239954D01*
X115299954Y-110400858D01*
X115169432Y-110587265D01*
X115169431Y-110587267D01*
X115142382Y-110645275D01*
X115096209Y-110697714D01*
X115029016Y-110716866D01*
X114962135Y-110696650D01*
X114917618Y-110645275D01*
X114890568Y-110587267D01*
X114890567Y-110587265D01*
X114760045Y-110400858D01*
X114599141Y-110239954D01*
X114412734Y-110109432D01*
X114412732Y-110109431D01*
X114206497Y-110013261D01*
X114206488Y-110013258D01*
X113986697Y-109954366D01*
X113986693Y-109954365D01*
X113986692Y-109954365D01*
X113986691Y-109954364D01*
X113986686Y-109954364D01*
X113760002Y-109934532D01*
X113759998Y-109934532D01*
X113533313Y-109954364D01*
X113533302Y-109954366D01*
X113313511Y-110013258D01*
X113313502Y-110013261D01*
X113107267Y-110109431D01*
X113107265Y-110109432D01*
X112920858Y-110239954D01*
X112759954Y-110400858D01*
X112629432Y-110587265D01*
X112629431Y-110587267D01*
X112602382Y-110645275D01*
X112556209Y-110697714D01*
X112489016Y-110716866D01*
X112422135Y-110696650D01*
X112377618Y-110645275D01*
X112350568Y-110587267D01*
X112350567Y-110587265D01*
X112220045Y-110400858D01*
X112059141Y-110239954D01*
X111872734Y-110109432D01*
X111872732Y-110109431D01*
X111666497Y-110013261D01*
X111666488Y-110013258D01*
X111446697Y-109954366D01*
X111446693Y-109954365D01*
X111446692Y-109954365D01*
X111446691Y-109954364D01*
X111446686Y-109954364D01*
X111220002Y-109934532D01*
X111219998Y-109934532D01*
X110993313Y-109954364D01*
X110993302Y-109954366D01*
X110773511Y-110013258D01*
X110773502Y-110013261D01*
X110567267Y-110109431D01*
X110567265Y-110109432D01*
X110380858Y-110239954D01*
X110219954Y-110400858D01*
X110089432Y-110587265D01*
X110089431Y-110587267D01*
X110062382Y-110645275D01*
X110016209Y-110697714D01*
X109949016Y-110716866D01*
X109882135Y-110696650D01*
X109837618Y-110645275D01*
X109810568Y-110587267D01*
X109810567Y-110587265D01*
X109680045Y-110400858D01*
X109519141Y-110239954D01*
X109332734Y-110109432D01*
X109332732Y-110109431D01*
X109126497Y-110013261D01*
X109126488Y-110013258D01*
X108906697Y-109954366D01*
X108906693Y-109954365D01*
X108906692Y-109954365D01*
X108906691Y-109954364D01*
X108906686Y-109954364D01*
X108680002Y-109934532D01*
X108679998Y-109934532D01*
X108453313Y-109954364D01*
X108453302Y-109954366D01*
X108336593Y-109985638D01*
X108266743Y-109983975D01*
X108208881Y-109944812D01*
X108181377Y-109880583D01*
X108180500Y-109865863D01*
X108180500Y-97374136D01*
X108200185Y-97307097D01*
X108252989Y-97261342D01*
X108322147Y-97251398D01*
X108336582Y-97254358D01*
X108453308Y-97285635D01*
X108615230Y-97299801D01*
X108679998Y-97305468D01*
X108680000Y-97305468D01*
X108680002Y-97305468D01*
X108736673Y-97300509D01*
X108906692Y-97285635D01*
X109126496Y-97226739D01*
X109332734Y-97130568D01*
X109519139Y-97000047D01*
X109680047Y-96839139D01*
X109810568Y-96652734D01*
X109837618Y-96594724D01*
X109883790Y-96542285D01*
X109950983Y-96523133D01*
X110017865Y-96543348D01*
X110062382Y-96594725D01*
X110089429Y-96652728D01*
X110089432Y-96652734D01*
X110219954Y-96839141D01*
X110380858Y-97000045D01*
X110380861Y-97000047D01*
X110567266Y-97130568D01*
X110773504Y-97226739D01*
X110993308Y-97285635D01*
X111155230Y-97299801D01*
X111219998Y-97305468D01*
X111220000Y-97305468D01*
X111220002Y-97305468D01*
X111276673Y-97300509D01*
X111446692Y-97285635D01*
X111666496Y-97226739D01*
X111872734Y-97130568D01*
X112059139Y-97000047D01*
X112220047Y-96839139D01*
X112350568Y-96652734D01*
X112377618Y-96594724D01*
X112423790Y-96542285D01*
X112490983Y-96523133D01*
X112557865Y-96543348D01*
X112602382Y-96594725D01*
X112629429Y-96652728D01*
X112629432Y-96652734D01*
X112759954Y-96839141D01*
X112920858Y-97000045D01*
X112920861Y-97000047D01*
X113107266Y-97130568D01*
X113313504Y-97226739D01*
X113533308Y-97285635D01*
X113695230Y-97299801D01*
X113759998Y-97305468D01*
X113760000Y-97305468D01*
X113760002Y-97305468D01*
X113816673Y-97300509D01*
X113986692Y-97285635D01*
X114206496Y-97226739D01*
X114412734Y-97130568D01*
X114599139Y-97000047D01*
X114760047Y-96839139D01*
X114890568Y-96652734D01*
X114917618Y-96594724D01*
X114963790Y-96542285D01*
X115030983Y-96523133D01*
X115097865Y-96543348D01*
X115142382Y-96594725D01*
X115169429Y-96652728D01*
X115169432Y-96652734D01*
X115299954Y-96839141D01*
X115460858Y-97000045D01*
X115460861Y-97000047D01*
X115647266Y-97130568D01*
X115853504Y-97226739D01*
X116073308Y-97285635D01*
X116235230Y-97299801D01*
X116299998Y-97305468D01*
X116300000Y-97305468D01*
X116300002Y-97305468D01*
X116356673Y-97300509D01*
X116526692Y-97285635D01*
X116746496Y-97226739D01*
X116952734Y-97130568D01*
X117139139Y-97000047D01*
X117300047Y-96839139D01*
X117430568Y-96652734D01*
X117457618Y-96594724D01*
X117503790Y-96542285D01*
X117570983Y-96523133D01*
X117637865Y-96543348D01*
X117682382Y-96594725D01*
X117709429Y-96652728D01*
X117709432Y-96652734D01*
X117839954Y-96839141D01*
X118000858Y-97000045D01*
X118000861Y-97000047D01*
X118187266Y-97130568D01*
X118393504Y-97226739D01*
X118613308Y-97285635D01*
X118775230Y-97299801D01*
X118839998Y-97305468D01*
X118840000Y-97305468D01*
X118840002Y-97305468D01*
X118896673Y-97300509D01*
X119066692Y-97285635D01*
X119286496Y-97226739D01*
X119492734Y-97130568D01*
X119679139Y-97000047D01*
X119840047Y-96839139D01*
X119970568Y-96652734D01*
X119997618Y-96594724D01*
X120043790Y-96542285D01*
X120110983Y-96523133D01*
X120177865Y-96543348D01*
X120222382Y-96594725D01*
X120249429Y-96652728D01*
X120249432Y-96652734D01*
X120379954Y-96839141D01*
X120540858Y-97000045D01*
X120540861Y-97000047D01*
X120727266Y-97130568D01*
X120933504Y-97226739D01*
X121153308Y-97285635D01*
X121315230Y-97299801D01*
X121379998Y-97305468D01*
X121380000Y-97305468D01*
X121380002Y-97305468D01*
X121436673Y-97300509D01*
X121606692Y-97285635D01*
X121826496Y-97226739D01*
X122032734Y-97130568D01*
X122219139Y-97000047D01*
X122380047Y-96839139D01*
X122510568Y-96652734D01*
X122537618Y-96594724D01*
X122583790Y-96542285D01*
X122650983Y-96523133D01*
X122717865Y-96543348D01*
X122762382Y-96594725D01*
X122789429Y-96652728D01*
X122789432Y-96652734D01*
X122919954Y-96839141D01*
X123080858Y-97000045D01*
X123080861Y-97000047D01*
X123267266Y-97130568D01*
X123473504Y-97226739D01*
X123693308Y-97285635D01*
X123855230Y-97299801D01*
X123919998Y-97305468D01*
X123920000Y-97305468D01*
X123920002Y-97305468D01*
X123976673Y-97300509D01*
X124146692Y-97285635D01*
X124366496Y-97226739D01*
X124572734Y-97130568D01*
X124759139Y-97000047D01*
X124920047Y-96839139D01*
X125050568Y-96652734D01*
X125077618Y-96594724D01*
X125123790Y-96542285D01*
X125190983Y-96523133D01*
X125257865Y-96543348D01*
X125302382Y-96594725D01*
X125329429Y-96652728D01*
X125329432Y-96652734D01*
X125459954Y-96839141D01*
X125620858Y-97000045D01*
X125620861Y-97000047D01*
X125807266Y-97130568D01*
X126013504Y-97226739D01*
X126233308Y-97285635D01*
X126395230Y-97299801D01*
X126459998Y-97305468D01*
X126460000Y-97305468D01*
X126460002Y-97305468D01*
X126516673Y-97300509D01*
X126686692Y-97285635D01*
X126906496Y-97226739D01*
X127112734Y-97130568D01*
X127299139Y-97000047D01*
X127460047Y-96839139D01*
X127590568Y-96652734D01*
X127617618Y-96594724D01*
X127663790Y-96542285D01*
X127730983Y-96523133D01*
X127797865Y-96543348D01*
X127842382Y-96594725D01*
X127869429Y-96652728D01*
X127869432Y-96652734D01*
X127999954Y-96839141D01*
X128160858Y-97000045D01*
X128160861Y-97000047D01*
X128347266Y-97130568D01*
X128553504Y-97226739D01*
X128773308Y-97285635D01*
X128935230Y-97299801D01*
X128999998Y-97305468D01*
X129000000Y-97305468D01*
X129000002Y-97305468D01*
X129056673Y-97300509D01*
X129226692Y-97285635D01*
X129446496Y-97226739D01*
X129652734Y-97130568D01*
X129839139Y-97000047D01*
X130000047Y-96839139D01*
X130130568Y-96652734D01*
X130157618Y-96594724D01*
X130203790Y-96542285D01*
X130270983Y-96523133D01*
X130337865Y-96543348D01*
X130382382Y-96594725D01*
X130409429Y-96652728D01*
X130409432Y-96652734D01*
X130539954Y-96839141D01*
X130700858Y-97000045D01*
X130700861Y-97000047D01*
X130887266Y-97130568D01*
X131093504Y-97226739D01*
X131313308Y-97285635D01*
X131475230Y-97299801D01*
X131539998Y-97305468D01*
X131540000Y-97305468D01*
X131540002Y-97305468D01*
X131596673Y-97300509D01*
X131766692Y-97285635D01*
X131986496Y-97226739D01*
X132192734Y-97130568D01*
X132379139Y-97000047D01*
X132540047Y-96839139D01*
X132670568Y-96652734D01*
X132697618Y-96594724D01*
X132743790Y-96542285D01*
X132810983Y-96523133D01*
X132877865Y-96543348D01*
X132922382Y-96594725D01*
X132949429Y-96652728D01*
X132949432Y-96652734D01*
X133079954Y-96839141D01*
X133240858Y-97000045D01*
X133240861Y-97000047D01*
X133427266Y-97130568D01*
X133633504Y-97226739D01*
X133853308Y-97285635D01*
X134015230Y-97299801D01*
X134079998Y-97305468D01*
X134080000Y-97305468D01*
X134080002Y-97305468D01*
X134136673Y-97300509D01*
X134306692Y-97285635D01*
X134526496Y-97226739D01*
X134732734Y-97130568D01*
X134919139Y-97000047D01*
X135080047Y-96839139D01*
X135210568Y-96652734D01*
X135237618Y-96594724D01*
X135283790Y-96542285D01*
X135350983Y-96523133D01*
X135417865Y-96543348D01*
X135462382Y-96594725D01*
X135489429Y-96652728D01*
X135489432Y-96652734D01*
X135619954Y-96839141D01*
X135780858Y-97000045D01*
X135780861Y-97000047D01*
X135967266Y-97130568D01*
X136173504Y-97226739D01*
X136393308Y-97285635D01*
X136555230Y-97299801D01*
X136619998Y-97305468D01*
X136620000Y-97305468D01*
X136620002Y-97305468D01*
X136676673Y-97300509D01*
X136846692Y-97285635D01*
X137066496Y-97226739D01*
X137272734Y-97130568D01*
X137459139Y-97000047D01*
X137620047Y-96839139D01*
X137750568Y-96652734D01*
X137777618Y-96594724D01*
X137823790Y-96542285D01*
X137890983Y-96523133D01*
X137957865Y-96543348D01*
X138002382Y-96594725D01*
X138029429Y-96652728D01*
X138029432Y-96652734D01*
X138159954Y-96839141D01*
X138320858Y-97000045D01*
X138320861Y-97000047D01*
X138507266Y-97130568D01*
X138713504Y-97226739D01*
X138933308Y-97285635D01*
X139095230Y-97299801D01*
X139159998Y-97305468D01*
X139160000Y-97305468D01*
X139160002Y-97305468D01*
X139216673Y-97300509D01*
X139386692Y-97285635D01*
X139606496Y-97226739D01*
X139812734Y-97130568D01*
X139999139Y-97000047D01*
X140160047Y-96839139D01*
X140290568Y-96652734D01*
X140317618Y-96594724D01*
X140363790Y-96542285D01*
X140430983Y-96523133D01*
X140497865Y-96543348D01*
X140542382Y-96594725D01*
X140569429Y-96652728D01*
X140569432Y-96652734D01*
X140699954Y-96839141D01*
X140860858Y-97000045D01*
X140860861Y-97000047D01*
X141047266Y-97130568D01*
X141253504Y-97226739D01*
X141473308Y-97285635D01*
X141635230Y-97299801D01*
X141699998Y-97305468D01*
X141700000Y-97305468D01*
X141700002Y-97305468D01*
X141756673Y-97300509D01*
X141926692Y-97285635D01*
X142146496Y-97226739D01*
X142352734Y-97130568D01*
X142539139Y-97000047D01*
X142700047Y-96839139D01*
X142830568Y-96652734D01*
X142857618Y-96594724D01*
X142903790Y-96542285D01*
X142970983Y-96523133D01*
X143037865Y-96543348D01*
X143082382Y-96594725D01*
X143109429Y-96652728D01*
X143109432Y-96652734D01*
X143239954Y-96839141D01*
X143400858Y-97000045D01*
X143400861Y-97000047D01*
X143587266Y-97130568D01*
X143793504Y-97226739D01*
X144013308Y-97285635D01*
X144175230Y-97299801D01*
X144239998Y-97305468D01*
X144240000Y-97305468D01*
X144240002Y-97305468D01*
X144296673Y-97300509D01*
X144466692Y-97285635D01*
X144686496Y-97226739D01*
X144892734Y-97130568D01*
X145079139Y-97000047D01*
X145240047Y-96839139D01*
X145370568Y-96652734D01*
X145397618Y-96594724D01*
X145443790Y-96542285D01*
X145510983Y-96523133D01*
X145577865Y-96543348D01*
X145622382Y-96594725D01*
X145649429Y-96652728D01*
X145649432Y-96652734D01*
X145779954Y-96839141D01*
X145940858Y-97000045D01*
X145940861Y-97000047D01*
X146127266Y-97130568D01*
X146333504Y-97226739D01*
X146553308Y-97285635D01*
X146715230Y-97299801D01*
X146779998Y-97305468D01*
X146780000Y-97305468D01*
X146780002Y-97305468D01*
X146836673Y-97300509D01*
X147006692Y-97285635D01*
X147226496Y-97226739D01*
X147432734Y-97130568D01*
X147619139Y-97000047D01*
X147780047Y-96839139D01*
X147910568Y-96652734D01*
X147937618Y-96594724D01*
X147983790Y-96542285D01*
X148050983Y-96523133D01*
X148117865Y-96543348D01*
X148162382Y-96594725D01*
X148189429Y-96652728D01*
X148189432Y-96652734D01*
X148319954Y-96839141D01*
X148480858Y-97000045D01*
X148480861Y-97000047D01*
X148667266Y-97130568D01*
X148873504Y-97226739D01*
X149093308Y-97285635D01*
X149255230Y-97299801D01*
X149319998Y-97305468D01*
X149320000Y-97305468D01*
X149320002Y-97305468D01*
X149376673Y-97300509D01*
X149546692Y-97285635D01*
X149766496Y-97226739D01*
X149972734Y-97130568D01*
X150159139Y-97000047D01*
X150320047Y-96839139D01*
X150450568Y-96652734D01*
X150477618Y-96594724D01*
X150523790Y-96542285D01*
X150590983Y-96523133D01*
X150657865Y-96543348D01*
X150702382Y-96594725D01*
X150729429Y-96652728D01*
X150729432Y-96652734D01*
X150859954Y-96839141D01*
X151020858Y-97000045D01*
X151020861Y-97000047D01*
X151207266Y-97130568D01*
X151413504Y-97226739D01*
X151633308Y-97285635D01*
X151795230Y-97299801D01*
X151859998Y-97305468D01*
X151860000Y-97305468D01*
X151860002Y-97305468D01*
X151916673Y-97300509D01*
X152086692Y-97285635D01*
X152306496Y-97226739D01*
X152512734Y-97130568D01*
X152699139Y-97000047D01*
X152860047Y-96839139D01*
X152990568Y-96652734D01*
X153017618Y-96594724D01*
X153063790Y-96542285D01*
X153130983Y-96523133D01*
X153197865Y-96543348D01*
X153242382Y-96594725D01*
X153269429Y-96652728D01*
X153269432Y-96652734D01*
X153399954Y-96839141D01*
X153560858Y-97000045D01*
X153560861Y-97000047D01*
X153747266Y-97130568D01*
X153953504Y-97226739D01*
X154173308Y-97285635D01*
X154335230Y-97299801D01*
X154399998Y-97305468D01*
X154400000Y-97305468D01*
X154400002Y-97305468D01*
X154456673Y-97300509D01*
X154626692Y-97285635D01*
X154846496Y-97226739D01*
X155052734Y-97130568D01*
X155239139Y-97000047D01*
X155400047Y-96839139D01*
X155530568Y-96652734D01*
X155557618Y-96594724D01*
X155603790Y-96542285D01*
X155670983Y-96523133D01*
X155737865Y-96543348D01*
X155782382Y-96594725D01*
X155809429Y-96652728D01*
X155809432Y-96652734D01*
X155939954Y-96839141D01*
X156100858Y-97000045D01*
X156100861Y-97000047D01*
X156287266Y-97130568D01*
X156493504Y-97226739D01*
X156713308Y-97285635D01*
X156875230Y-97299801D01*
X156939998Y-97305468D01*
X156940000Y-97305468D01*
X156940002Y-97305468D01*
X156996673Y-97300509D01*
X157166692Y-97285635D01*
X157386496Y-97226739D01*
X157592734Y-97130568D01*
X157779139Y-97000047D01*
X157940047Y-96839139D01*
X158070568Y-96652734D01*
X158097618Y-96594724D01*
X158143790Y-96542285D01*
X158210983Y-96523133D01*
X158277865Y-96543348D01*
X158322382Y-96594725D01*
X158349429Y-96652728D01*
X158349432Y-96652734D01*
X158479954Y-96839141D01*
X158640858Y-97000045D01*
X158640861Y-97000047D01*
X158827266Y-97130568D01*
X159033504Y-97226739D01*
X159253308Y-97285635D01*
X159415230Y-97299801D01*
X159479998Y-97305468D01*
X159480000Y-97305468D01*
X159480002Y-97305468D01*
X159536673Y-97300509D01*
X159706692Y-97285635D01*
X159926496Y-97226739D01*
X160132734Y-97130568D01*
X160319139Y-97000047D01*
X160480047Y-96839139D01*
X160610568Y-96652734D01*
X160637618Y-96594724D01*
X160683790Y-96542285D01*
X160750983Y-96523133D01*
X160817865Y-96543348D01*
X160862382Y-96594725D01*
X160889429Y-96652728D01*
X160889432Y-96652734D01*
X161019954Y-96839141D01*
X161180858Y-97000045D01*
X161180861Y-97000047D01*
X161367266Y-97130568D01*
X161573504Y-97226739D01*
X161793308Y-97285635D01*
X161955230Y-97299801D01*
X162019998Y-97305468D01*
X162020000Y-97305468D01*
X162020002Y-97305468D01*
X162076673Y-97300509D01*
X162246692Y-97285635D01*
X162466496Y-97226739D01*
X162672734Y-97130568D01*
X162859139Y-97000047D01*
X163020047Y-96839139D01*
X163150568Y-96652734D01*
X163177618Y-96594724D01*
X163223790Y-96542285D01*
X163290983Y-96523133D01*
X163357865Y-96543348D01*
X163402382Y-96594725D01*
X163429429Y-96652728D01*
X163429432Y-96652734D01*
X163559954Y-96839141D01*
X163720858Y-97000045D01*
X163720861Y-97000047D01*
X163907266Y-97130568D01*
X164113504Y-97226739D01*
X164333308Y-97285635D01*
X164495230Y-97299801D01*
X164559998Y-97305468D01*
X164560000Y-97305468D01*
X164560002Y-97305468D01*
X164616673Y-97300509D01*
X164786692Y-97285635D01*
X165006496Y-97226739D01*
X165212734Y-97130568D01*
X165399139Y-97000047D01*
X165560047Y-96839139D01*
X165690568Y-96652734D01*
X165786739Y-96446496D01*
X165845635Y-96226692D01*
X165865468Y-96000000D01*
X165864437Y-95988221D01*
X165845635Y-95773313D01*
X165845635Y-95773308D01*
X165786739Y-95553504D01*
X165690568Y-95347266D01*
X165560047Y-95160861D01*
X165560045Y-95160858D01*
X165399141Y-94999954D01*
X165212734Y-94869432D01*
X165212732Y-94869431D01*
X165006497Y-94773261D01*
X165006488Y-94773258D01*
X164786697Y-94714366D01*
X164786693Y-94714365D01*
X164786692Y-94714365D01*
X164786691Y-94714364D01*
X164786686Y-94714364D01*
X164560002Y-94694532D01*
X164559998Y-94694532D01*
X164333313Y-94714364D01*
X164333302Y-94714366D01*
X164113511Y-94773258D01*
X164113502Y-94773261D01*
X163907267Y-94869431D01*
X163907265Y-94869432D01*
X163720858Y-94999954D01*
X163559954Y-95160858D01*
X163429432Y-95347265D01*
X163429431Y-95347267D01*
X163402382Y-95405275D01*
X163356209Y-95457714D01*
X163289016Y-95476866D01*
X163222135Y-95456650D01*
X163177618Y-95405275D01*
X163150568Y-95347267D01*
X163150567Y-95347265D01*
X163020045Y-95160858D01*
X162859141Y-94999954D01*
X162672734Y-94869432D01*
X162672732Y-94869431D01*
X162466497Y-94773261D01*
X162466488Y-94773258D01*
X162246697Y-94714366D01*
X162246693Y-94714365D01*
X162246692Y-94714365D01*
X162246691Y-94714364D01*
X162246686Y-94714364D01*
X162020002Y-94694532D01*
X162019998Y-94694532D01*
X161793313Y-94714364D01*
X161793302Y-94714366D01*
X161573511Y-94773258D01*
X161573502Y-94773261D01*
X161367267Y-94869431D01*
X161367265Y-94869432D01*
X161180858Y-94999954D01*
X161019954Y-95160858D01*
X160889432Y-95347265D01*
X160889431Y-95347267D01*
X160862382Y-95405275D01*
X160816209Y-95457714D01*
X160749016Y-95476866D01*
X160682135Y-95456650D01*
X160637618Y-95405275D01*
X160610568Y-95347267D01*
X160610567Y-95347265D01*
X160480045Y-95160858D01*
X160319141Y-94999954D01*
X160132734Y-94869432D01*
X160132732Y-94869431D01*
X159926497Y-94773261D01*
X159926488Y-94773258D01*
X159706697Y-94714366D01*
X159706693Y-94714365D01*
X159706692Y-94714365D01*
X159706691Y-94714364D01*
X159706686Y-94714364D01*
X159480002Y-94694532D01*
X159479998Y-94694532D01*
X159253313Y-94714364D01*
X159253302Y-94714366D01*
X159033511Y-94773258D01*
X159033502Y-94773261D01*
X158827267Y-94869431D01*
X158827265Y-94869432D01*
X158640858Y-94999954D01*
X158479954Y-95160858D01*
X158349432Y-95347265D01*
X158349431Y-95347267D01*
X158322382Y-95405275D01*
X158276209Y-95457714D01*
X158209016Y-95476866D01*
X158142135Y-95456650D01*
X158097618Y-95405275D01*
X158070568Y-95347267D01*
X158070567Y-95347265D01*
X157940045Y-95160858D01*
X157779141Y-94999954D01*
X157592734Y-94869432D01*
X157592732Y-94869431D01*
X157386497Y-94773261D01*
X157386488Y-94773258D01*
X157166697Y-94714366D01*
X157166693Y-94714365D01*
X157166692Y-94714365D01*
X157166691Y-94714364D01*
X157166686Y-94714364D01*
X156940002Y-94694532D01*
X156939998Y-94694532D01*
X156713313Y-94714364D01*
X156713302Y-94714366D01*
X156493511Y-94773258D01*
X156493502Y-94773261D01*
X156287267Y-94869431D01*
X156287265Y-94869432D01*
X156100858Y-94999954D01*
X155939954Y-95160858D01*
X155809432Y-95347265D01*
X155809431Y-95347267D01*
X155782382Y-95405275D01*
X155736209Y-95457714D01*
X155669016Y-95476866D01*
X155602135Y-95456650D01*
X155557618Y-95405275D01*
X155530568Y-95347267D01*
X155530567Y-95347265D01*
X155400045Y-95160858D01*
X155239141Y-94999954D01*
X155052734Y-94869432D01*
X155052732Y-94869431D01*
X154846497Y-94773261D01*
X154846488Y-94773258D01*
X154626697Y-94714366D01*
X154626693Y-94714365D01*
X154626692Y-94714365D01*
X154626691Y-94714364D01*
X154626686Y-94714364D01*
X154400002Y-94694532D01*
X154399998Y-94694532D01*
X154173313Y-94714364D01*
X154173302Y-94714366D01*
X153953511Y-94773258D01*
X153953502Y-94773261D01*
X153747267Y-94869431D01*
X153747265Y-94869432D01*
X153560858Y-94999954D01*
X153399954Y-95160858D01*
X153269432Y-95347265D01*
X153269431Y-95347267D01*
X153242382Y-95405275D01*
X153196209Y-95457714D01*
X153129016Y-95476866D01*
X153062135Y-95456650D01*
X153017618Y-95405275D01*
X152990568Y-95347267D01*
X152990567Y-95347265D01*
X152860045Y-95160858D01*
X152699141Y-94999954D01*
X152512734Y-94869432D01*
X152512732Y-94869431D01*
X152306497Y-94773261D01*
X152306488Y-94773258D01*
X152086697Y-94714366D01*
X152086693Y-94714365D01*
X152086692Y-94714365D01*
X152086691Y-94714364D01*
X152086686Y-94714364D01*
X151860002Y-94694532D01*
X151859998Y-94694532D01*
X151633313Y-94714364D01*
X151633302Y-94714366D01*
X151413511Y-94773258D01*
X151413502Y-94773261D01*
X151207267Y-94869431D01*
X151207265Y-94869432D01*
X151020858Y-94999954D01*
X150859954Y-95160858D01*
X150729432Y-95347265D01*
X150729431Y-95347267D01*
X150702382Y-95405275D01*
X150656209Y-95457714D01*
X150589016Y-95476866D01*
X150522135Y-95456650D01*
X150477618Y-95405275D01*
X150450568Y-95347267D01*
X150450567Y-95347265D01*
X150320045Y-95160858D01*
X150159141Y-94999954D01*
X149972734Y-94869432D01*
X149972732Y-94869431D01*
X149766497Y-94773261D01*
X149766488Y-94773258D01*
X149546697Y-94714366D01*
X149546693Y-94714365D01*
X149546692Y-94714365D01*
X149546691Y-94714364D01*
X149546686Y-94714364D01*
X149320002Y-94694532D01*
X149319998Y-94694532D01*
X149093313Y-94714364D01*
X149093302Y-94714366D01*
X148873511Y-94773258D01*
X148873502Y-94773261D01*
X148667267Y-94869431D01*
X148667265Y-94869432D01*
X148480858Y-94999954D01*
X148319954Y-95160858D01*
X148189432Y-95347265D01*
X148189431Y-95347267D01*
X148162382Y-95405275D01*
X148116209Y-95457714D01*
X148049016Y-95476866D01*
X147982135Y-95456650D01*
X147937618Y-95405275D01*
X147910568Y-95347267D01*
X147910567Y-95347265D01*
X147780045Y-95160858D01*
X147619141Y-94999954D01*
X147432734Y-94869432D01*
X147432732Y-94869431D01*
X147226497Y-94773261D01*
X147226488Y-94773258D01*
X147006697Y-94714366D01*
X147006693Y-94714365D01*
X147006692Y-94714365D01*
X147006691Y-94714364D01*
X147006686Y-94714364D01*
X146780002Y-94694532D01*
X146779998Y-94694532D01*
X146553313Y-94714364D01*
X146553302Y-94714366D01*
X146333511Y-94773258D01*
X146333502Y-94773261D01*
X146127267Y-94869431D01*
X146127265Y-94869432D01*
X145940858Y-94999954D01*
X145779954Y-95160858D01*
X145649432Y-95347265D01*
X145649431Y-95347267D01*
X145622382Y-95405275D01*
X145576209Y-95457714D01*
X145509016Y-95476866D01*
X145442135Y-95456650D01*
X145397618Y-95405275D01*
X145370568Y-95347267D01*
X145370567Y-95347265D01*
X145240045Y-95160858D01*
X145079141Y-94999954D01*
X144892734Y-94869432D01*
X144892732Y-94869431D01*
X144686497Y-94773261D01*
X144686488Y-94773258D01*
X144466697Y-94714366D01*
X144466693Y-94714365D01*
X144466692Y-94714365D01*
X144466691Y-94714364D01*
X144466686Y-94714364D01*
X144240002Y-94694532D01*
X144239998Y-94694532D01*
X144013313Y-94714364D01*
X144013302Y-94714366D01*
X143793511Y-94773258D01*
X143793502Y-94773261D01*
X143587267Y-94869431D01*
X143587265Y-94869432D01*
X143400858Y-94999954D01*
X143239954Y-95160858D01*
X143109432Y-95347265D01*
X143109431Y-95347267D01*
X143082382Y-95405275D01*
X143036209Y-95457714D01*
X142969016Y-95476866D01*
X142902135Y-95456650D01*
X142857618Y-95405275D01*
X142830568Y-95347267D01*
X142830567Y-95347265D01*
X142700045Y-95160858D01*
X142539141Y-94999954D01*
X142352734Y-94869432D01*
X142352732Y-94869431D01*
X142146497Y-94773261D01*
X142146488Y-94773258D01*
X141926697Y-94714366D01*
X141926693Y-94714365D01*
X141926692Y-94714365D01*
X141926691Y-94714364D01*
X141926686Y-94714364D01*
X141700002Y-94694532D01*
X141699998Y-94694532D01*
X141473313Y-94714364D01*
X141473302Y-94714366D01*
X141253511Y-94773258D01*
X141253502Y-94773261D01*
X141047267Y-94869431D01*
X141047265Y-94869432D01*
X140860858Y-94999954D01*
X140699954Y-95160858D01*
X140569432Y-95347265D01*
X140569431Y-95347267D01*
X140542382Y-95405275D01*
X140496209Y-95457714D01*
X140429016Y-95476866D01*
X140362135Y-95456650D01*
X140317618Y-95405275D01*
X140290568Y-95347267D01*
X140290567Y-95347265D01*
X140160045Y-95160858D01*
X139999141Y-94999954D01*
X139812734Y-94869432D01*
X139812732Y-94869431D01*
X139606497Y-94773261D01*
X139606488Y-94773258D01*
X139386697Y-94714366D01*
X139386693Y-94714365D01*
X139386692Y-94714365D01*
X139386691Y-94714364D01*
X139386686Y-94714364D01*
X139160002Y-94694532D01*
X139159998Y-94694532D01*
X138933313Y-94714364D01*
X138933302Y-94714366D01*
X138713511Y-94773258D01*
X138713502Y-94773261D01*
X138507267Y-94869431D01*
X138507265Y-94869432D01*
X138320858Y-94999954D01*
X138159954Y-95160858D01*
X138029432Y-95347265D01*
X138029431Y-95347267D01*
X138002382Y-95405275D01*
X137956209Y-95457714D01*
X137889016Y-95476866D01*
X137822135Y-95456650D01*
X137777618Y-95405275D01*
X137750568Y-95347267D01*
X137750567Y-95347265D01*
X137620045Y-95160858D01*
X137459141Y-94999954D01*
X137272734Y-94869432D01*
X137272732Y-94869431D01*
X137066497Y-94773261D01*
X137066488Y-94773258D01*
X136846697Y-94714366D01*
X136846693Y-94714365D01*
X136846692Y-94714365D01*
X136846691Y-94714364D01*
X136846686Y-94714364D01*
X136620002Y-94694532D01*
X136619998Y-94694532D01*
X136393313Y-94714364D01*
X136393302Y-94714366D01*
X136173511Y-94773258D01*
X136173502Y-94773261D01*
X135967267Y-94869431D01*
X135967265Y-94869432D01*
X135780858Y-94999954D01*
X135619954Y-95160858D01*
X135489432Y-95347265D01*
X135489431Y-95347267D01*
X135462382Y-95405275D01*
X135416209Y-95457714D01*
X135349016Y-95476866D01*
X135282135Y-95456650D01*
X135237618Y-95405275D01*
X135210568Y-95347267D01*
X135210567Y-95347265D01*
X135080045Y-95160858D01*
X134919141Y-94999954D01*
X134732734Y-94869432D01*
X134732732Y-94869431D01*
X134526497Y-94773261D01*
X134526488Y-94773258D01*
X134306697Y-94714366D01*
X134306693Y-94714365D01*
X134306692Y-94714365D01*
X134306691Y-94714364D01*
X134306686Y-94714364D01*
X134080002Y-94694532D01*
X134079998Y-94694532D01*
X133853313Y-94714364D01*
X133853302Y-94714366D01*
X133633511Y-94773258D01*
X133633502Y-94773261D01*
X133427267Y-94869431D01*
X133427265Y-94869432D01*
X133240858Y-94999954D01*
X133079954Y-95160858D01*
X132949432Y-95347265D01*
X132949431Y-95347267D01*
X132922382Y-95405275D01*
X132876209Y-95457714D01*
X132809016Y-95476866D01*
X132742135Y-95456650D01*
X132697618Y-95405275D01*
X132670568Y-95347267D01*
X132670567Y-95347265D01*
X132540045Y-95160858D01*
X132379141Y-94999954D01*
X132192734Y-94869432D01*
X132192732Y-94869431D01*
X131986497Y-94773261D01*
X131986488Y-94773258D01*
X131766697Y-94714366D01*
X131766693Y-94714365D01*
X131766692Y-94714365D01*
X131766691Y-94714364D01*
X131766686Y-94714364D01*
X131540002Y-94694532D01*
X131539998Y-94694532D01*
X131313313Y-94714364D01*
X131313302Y-94714366D01*
X131093511Y-94773258D01*
X131093502Y-94773261D01*
X130887267Y-94869431D01*
X130887265Y-94869432D01*
X130700858Y-94999954D01*
X130539954Y-95160858D01*
X130409432Y-95347265D01*
X130409431Y-95347267D01*
X130382382Y-95405275D01*
X130336209Y-95457714D01*
X130269016Y-95476866D01*
X130202135Y-95456650D01*
X130157618Y-95405275D01*
X130130568Y-95347267D01*
X130130567Y-95347265D01*
X130000045Y-95160858D01*
X129839141Y-94999954D01*
X129652734Y-94869432D01*
X129652732Y-94869431D01*
X129446497Y-94773261D01*
X129446488Y-94773258D01*
X129226697Y-94714366D01*
X129226693Y-94714365D01*
X129226692Y-94714365D01*
X129226691Y-94714364D01*
X129226686Y-94714364D01*
X129000002Y-94694532D01*
X128999998Y-94694532D01*
X128773313Y-94714364D01*
X128773302Y-94714366D01*
X128553511Y-94773258D01*
X128553502Y-94773261D01*
X128347267Y-94869431D01*
X128347265Y-94869432D01*
X128160858Y-94999954D01*
X127999954Y-95160858D01*
X127869432Y-95347265D01*
X127869431Y-95347267D01*
X127842382Y-95405275D01*
X127796209Y-95457714D01*
X127729016Y-95476866D01*
X127662135Y-95456650D01*
X127617618Y-95405275D01*
X127590568Y-95347267D01*
X127590567Y-95347265D01*
X127460045Y-95160858D01*
X127299141Y-94999954D01*
X127112734Y-94869432D01*
X127112732Y-94869431D01*
X126906497Y-94773261D01*
X126906488Y-94773258D01*
X126686697Y-94714366D01*
X126686693Y-94714365D01*
X126686692Y-94714365D01*
X126686691Y-94714364D01*
X126686686Y-94714364D01*
X126460002Y-94694532D01*
X126459998Y-94694532D01*
X126233313Y-94714364D01*
X126233302Y-94714366D01*
X126013511Y-94773258D01*
X126013502Y-94773261D01*
X125807267Y-94869431D01*
X125807265Y-94869432D01*
X125620858Y-94999954D01*
X125459954Y-95160858D01*
X125329432Y-95347265D01*
X125329431Y-95347267D01*
X125302382Y-95405275D01*
X125256209Y-95457714D01*
X125189016Y-95476866D01*
X125122135Y-95456650D01*
X125077618Y-95405275D01*
X125050568Y-95347267D01*
X125050567Y-95347265D01*
X124920045Y-95160858D01*
X124759141Y-94999954D01*
X124572734Y-94869432D01*
X124572732Y-94869431D01*
X124366497Y-94773261D01*
X124366488Y-94773258D01*
X124146697Y-94714366D01*
X124146693Y-94714365D01*
X124146692Y-94714365D01*
X124146691Y-94714364D01*
X124146686Y-94714364D01*
X123920002Y-94694532D01*
X123919998Y-94694532D01*
X123693313Y-94714364D01*
X123693302Y-94714366D01*
X123473511Y-94773258D01*
X123473502Y-94773261D01*
X123267267Y-94869431D01*
X123267265Y-94869432D01*
X123080858Y-94999954D01*
X122919954Y-95160858D01*
X122789432Y-95347265D01*
X122789431Y-95347267D01*
X122762382Y-95405275D01*
X122716209Y-95457714D01*
X122649016Y-95476866D01*
X122582135Y-95456650D01*
X122537618Y-95405275D01*
X122510568Y-95347267D01*
X122510567Y-95347265D01*
X122380045Y-95160858D01*
X122219141Y-94999954D01*
X122032734Y-94869432D01*
X122032732Y-94869431D01*
X121826497Y-94773261D01*
X121826488Y-94773258D01*
X121606697Y-94714366D01*
X121606693Y-94714365D01*
X121606692Y-94714365D01*
X121606691Y-94714364D01*
X121606686Y-94714364D01*
X121380002Y-94694532D01*
X121379998Y-94694532D01*
X121153313Y-94714364D01*
X121153302Y-94714366D01*
X120933511Y-94773258D01*
X120933502Y-94773261D01*
X120727267Y-94869431D01*
X120727265Y-94869432D01*
X120540858Y-94999954D01*
X120379954Y-95160858D01*
X120249432Y-95347265D01*
X120249431Y-95347267D01*
X120222382Y-95405275D01*
X120176209Y-95457714D01*
X120109016Y-95476866D01*
X120042135Y-95456650D01*
X119997618Y-95405275D01*
X119970568Y-95347267D01*
X119970567Y-95347265D01*
X119840045Y-95160858D01*
X119679140Y-94999953D01*
X119518377Y-94887386D01*
X119474752Y-94832809D01*
X119465500Y-94785811D01*
X119465500Y-91970452D01*
X119485185Y-91903413D01*
X119501819Y-91882771D01*
X123384590Y-88000000D01*
X134394422Y-88000000D01*
X134414722Y-88387338D01*
X134475398Y-88770433D01*
X134525341Y-88956825D01*
X134575788Y-89145094D01*
X134714787Y-89507197D01*
X134890877Y-89852793D01*
X135102122Y-90178082D01*
X135318401Y-90445164D01*
X135346219Y-90479516D01*
X135620484Y-90753781D01*
X135788375Y-90889737D01*
X135921917Y-90997877D01*
X136247206Y-91209122D01*
X136247211Y-91209125D01*
X136592806Y-91385214D01*
X136954913Y-91524214D01*
X137329567Y-91624602D01*
X137712662Y-91685278D01*
X138078576Y-91704455D01*
X138099999Y-91705578D01*
X138100000Y-91705578D01*
X138100001Y-91705578D01*
X138120301Y-91704514D01*
X138487338Y-91685278D01*
X138870433Y-91624602D01*
X139245087Y-91524214D01*
X139607194Y-91385214D01*
X139952789Y-91209125D01*
X140278084Y-90997876D01*
X140540966Y-90784998D01*
X143284645Y-90784998D01*
X143284645Y-90785001D01*
X143304039Y-91056160D01*
X143304040Y-91056167D01*
X143361823Y-91321793D01*
X143361825Y-91321801D01*
X143419916Y-91477548D01*
X143456830Y-91576519D01*
X143587109Y-91815107D01*
X143587110Y-91815108D01*
X143587113Y-91815113D01*
X143750029Y-92032742D01*
X143750033Y-92032746D01*
X143750038Y-92032752D01*
X143942247Y-92224961D01*
X143942253Y-92224966D01*
X143942258Y-92224971D01*
X144159887Y-92387887D01*
X144159891Y-92387889D01*
X144159892Y-92387890D01*
X144398481Y-92518169D01*
X144398480Y-92518169D01*
X144398484Y-92518170D01*
X144398487Y-92518172D01*
X144653199Y-92613175D01*
X144918840Y-92670961D01*
X145170605Y-92688967D01*
X145189999Y-92690355D01*
X145190000Y-92690355D01*
X145190001Y-92690355D01*
X145208100Y-92689060D01*
X145461160Y-92670961D01*
X145726801Y-92613175D01*
X145981513Y-92518172D01*
X145981517Y-92518169D01*
X145981519Y-92518169D01*
X146100813Y-92453029D01*
X146220113Y-92387887D01*
X146333584Y-92302943D01*
X172097366Y-92302943D01*
X172097366Y-92302944D01*
X172117666Y-92690283D01*
X172178341Y-93073371D01*
X172178341Y-93073373D01*
X172278732Y-93448038D01*
X172417731Y-93810141D01*
X172593821Y-94155737D01*
X172805066Y-94481026D01*
X173017998Y-94743975D01*
X173049163Y-94782460D01*
X173323428Y-95056725D01*
X173452025Y-95160861D01*
X173624861Y-95300821D01*
X173895947Y-95476866D01*
X173950155Y-95512069D01*
X174295750Y-95688158D01*
X174657857Y-95827158D01*
X175032511Y-95927546D01*
X175415606Y-95988222D01*
X175781520Y-96007399D01*
X175802943Y-96008522D01*
X175802944Y-96008522D01*
X175802945Y-96008522D01*
X175823245Y-96007458D01*
X176190282Y-95988222D01*
X176573377Y-95927546D01*
X176948031Y-95827158D01*
X177310138Y-95688158D01*
X177655733Y-95512069D01*
X177981028Y-95300820D01*
X178282460Y-95056725D01*
X178556725Y-94782460D01*
X178800820Y-94481028D01*
X179012069Y-94155733D01*
X179188158Y-93810138D01*
X179327158Y-93448031D01*
X179427546Y-93073377D01*
X179488222Y-92690282D01*
X179508522Y-92302944D01*
X179488222Y-91915606D01*
X179427546Y-91532511D01*
X179327158Y-91157857D01*
X179188158Y-90795750D01*
X179012069Y-90450155D01*
X178880922Y-90248206D01*
X178800821Y-90124861D01*
X178556728Y-89823432D01*
X178556725Y-89823428D01*
X178282460Y-89549163D01*
X178126379Y-89422771D01*
X177981026Y-89305066D01*
X177655737Y-89093821D01*
X177310141Y-88917731D01*
X176948038Y-88778732D01*
X176917051Y-88770429D01*
X176573377Y-88678342D01*
X176573373Y-88678341D01*
X176573372Y-88678341D01*
X176190283Y-88617666D01*
X175802945Y-88597366D01*
X175802943Y-88597366D01*
X175415604Y-88617666D01*
X175032516Y-88678341D01*
X175032514Y-88678341D01*
X174657849Y-88778732D01*
X174295746Y-88917731D01*
X173950150Y-89093821D01*
X173624861Y-89305066D01*
X173323432Y-89549159D01*
X173323424Y-89549166D01*
X173049166Y-89823424D01*
X173049159Y-89823432D01*
X172805066Y-90124861D01*
X172593821Y-90450150D01*
X172417731Y-90795746D01*
X172278732Y-91157849D01*
X172178341Y-91532514D01*
X172178341Y-91532516D01*
X172117666Y-91915604D01*
X172097366Y-92302943D01*
X146333584Y-92302943D01*
X146437742Y-92224971D01*
X146629971Y-92032742D01*
X146792887Y-91815113D01*
X146923172Y-91576513D01*
X147018175Y-91321801D01*
X147075961Y-91056160D01*
X147095355Y-90785000D01*
X147075961Y-90513840D01*
X147018175Y-90248199D01*
X146923172Y-89993487D01*
X146923170Y-89993484D01*
X146923169Y-89993480D01*
X146792890Y-89754892D01*
X146792889Y-89754891D01*
X146792887Y-89754887D01*
X146629971Y-89537258D01*
X146629966Y-89537253D01*
X146629961Y-89537247D01*
X146437752Y-89345038D01*
X146437746Y-89345033D01*
X146437742Y-89345029D01*
X146220113Y-89182113D01*
X146220108Y-89182110D01*
X146220107Y-89182109D01*
X145981518Y-89051830D01*
X145981519Y-89051830D01*
X145931920Y-89033330D01*
X145726801Y-88956825D01*
X145726794Y-88956823D01*
X145726793Y-88956823D01*
X145461167Y-88899040D01*
X145461160Y-88899039D01*
X145190001Y-88879645D01*
X145189999Y-88879645D01*
X144918839Y-88899039D01*
X144918832Y-88899040D01*
X144653206Y-88956823D01*
X144653202Y-88956824D01*
X144653199Y-88956825D01*
X144525843Y-89004326D01*
X144398480Y-89051830D01*
X144159892Y-89182109D01*
X144159891Y-89182110D01*
X143942259Y-89345028D01*
X143942247Y-89345038D01*
X143750038Y-89537247D01*
X143750028Y-89537259D01*
X143587110Y-89754891D01*
X143587109Y-89754892D01*
X143456830Y-89993480D01*
X143409326Y-90120843D01*
X143361825Y-90248199D01*
X143361824Y-90248202D01*
X143361823Y-90248206D01*
X143304040Y-90513832D01*
X143304039Y-90513839D01*
X143284645Y-90784998D01*
X140540966Y-90784998D01*
X140579516Y-90753781D01*
X140853781Y-90479516D01*
X141097876Y-90178084D01*
X141309125Y-89852789D01*
X141485214Y-89507194D01*
X141624214Y-89145087D01*
X141724602Y-88770433D01*
X141785278Y-88387338D01*
X141805578Y-88000000D01*
X141785278Y-87612662D01*
X141724602Y-87229567D01*
X141624214Y-86854913D01*
X141485214Y-86492806D01*
X141309125Y-86147211D01*
X141097876Y-85821916D01*
X140853781Y-85520484D01*
X140579516Y-85246219D01*
X140278084Y-85002124D01*
X140278082Y-85002122D01*
X139952793Y-84790877D01*
X139607197Y-84614787D01*
X139245094Y-84475788D01*
X139245087Y-84475786D01*
X138870433Y-84375398D01*
X138870429Y-84375397D01*
X138870428Y-84375397D01*
X138487339Y-84314722D01*
X138100001Y-84294422D01*
X138099999Y-84294422D01*
X137712660Y-84314722D01*
X137329572Y-84375397D01*
X137329570Y-84375397D01*
X136954905Y-84475788D01*
X136592802Y-84614787D01*
X136247206Y-84790877D01*
X135921917Y-85002122D01*
X135620488Y-85246215D01*
X135620480Y-85246222D01*
X135346222Y-85520480D01*
X135346215Y-85520488D01*
X135102122Y-85821917D01*
X134890877Y-86147206D01*
X134714787Y-86492802D01*
X134575788Y-86854905D01*
X134475397Y-87229570D01*
X134475397Y-87229572D01*
X134414722Y-87612662D01*
X134394422Y-88000000D01*
X123384590Y-88000000D01*
X141599593Y-69784998D01*
X143284645Y-69784998D01*
X143284645Y-69785001D01*
X143304039Y-70056160D01*
X143304040Y-70056167D01*
X143361521Y-70320403D01*
X143361825Y-70321801D01*
X143438330Y-70526920D01*
X143456830Y-70576519D01*
X143587109Y-70815107D01*
X143587110Y-70815108D01*
X143587113Y-70815113D01*
X143750029Y-71032742D01*
X143750033Y-71032746D01*
X143750038Y-71032752D01*
X143942247Y-71224961D01*
X143942253Y-71224966D01*
X143942258Y-71224971D01*
X144159887Y-71387887D01*
X144159891Y-71387889D01*
X144159892Y-71387890D01*
X144398481Y-71518169D01*
X144398480Y-71518169D01*
X144398484Y-71518170D01*
X144398487Y-71518172D01*
X144653199Y-71613175D01*
X144918840Y-71670961D01*
X145170605Y-71688967D01*
X145189999Y-71690355D01*
X145190000Y-71690355D01*
X145190001Y-71690355D01*
X145208100Y-71689060D01*
X145461160Y-71670961D01*
X145726801Y-71613175D01*
X145981513Y-71518172D01*
X145981517Y-71518169D01*
X145981519Y-71518169D01*
X146161187Y-71420063D01*
X146220113Y-71387887D01*
X146437742Y-71224971D01*
X146629971Y-71032742D01*
X146792887Y-70815113D01*
X146923172Y-70576513D01*
X147018175Y-70321801D01*
X147075961Y-70056160D01*
X147095355Y-69785000D01*
X147075961Y-69513840D01*
X147018175Y-69248199D01*
X146923172Y-68993487D01*
X146923170Y-68993484D01*
X146923169Y-68993480D01*
X146792890Y-68754892D01*
X146792889Y-68754891D01*
X146792887Y-68754887D01*
X146629971Y-68537258D01*
X146629966Y-68537253D01*
X146629961Y-68537247D01*
X146437752Y-68345038D01*
X146437746Y-68345033D01*
X146437742Y-68345029D01*
X146220113Y-68182113D01*
X146220108Y-68182110D01*
X146220107Y-68182109D01*
X145981518Y-68051830D01*
X145981519Y-68051830D01*
X145931920Y-68033330D01*
X145726801Y-67956825D01*
X145726794Y-67956823D01*
X145726793Y-67956823D01*
X145461167Y-67899040D01*
X145461160Y-67899039D01*
X145190001Y-67879645D01*
X145189999Y-67879645D01*
X144918839Y-67899039D01*
X144918832Y-67899040D01*
X144653206Y-67956823D01*
X144653202Y-67956824D01*
X144653199Y-67956825D01*
X144525843Y-68004326D01*
X144398480Y-68051830D01*
X144159892Y-68182109D01*
X144159891Y-68182110D01*
X143942259Y-68345028D01*
X143942247Y-68345038D01*
X143750038Y-68537247D01*
X143750028Y-68537259D01*
X143587110Y-68754891D01*
X143587109Y-68754892D01*
X143456830Y-68993480D01*
X143423747Y-69082179D01*
X143361825Y-69248199D01*
X143361824Y-69248202D01*
X143361823Y-69248206D01*
X143304040Y-69513832D01*
X143304039Y-69513839D01*
X143284645Y-69784998D01*
X141599593Y-69784998D01*
X145947772Y-65436819D01*
X146009095Y-65403334D01*
X146035453Y-65400500D01*
X146094644Y-65400500D01*
X146094646Y-65400500D01*
X146279803Y-65361144D01*
X146452730Y-65284151D01*
X146605871Y-65172888D01*
X146732533Y-65032216D01*
X146827179Y-64868284D01*
X146885674Y-64688256D01*
X146905460Y-64500000D01*
X146885674Y-64311744D01*
X146827179Y-64131716D01*
X146732533Y-63967784D01*
X146605871Y-63827112D01*
X146543777Y-63781998D01*
X146452734Y-63715851D01*
X146452729Y-63715848D01*
X146279807Y-63638857D01*
X146279802Y-63638855D01*
X146134001Y-63607865D01*
X146094646Y-63599500D01*
X145905354Y-63599500D01*
X145872897Y-63606398D01*
X145720197Y-63638855D01*
X145720192Y-63638857D01*
X145547270Y-63715848D01*
X145547265Y-63715851D01*
X145394129Y-63827111D01*
X145267466Y-63967785D01*
X145172821Y-64131715D01*
X145172818Y-64131722D01*
X145114327Y-64311740D01*
X145114326Y-64311744D01*
X145113547Y-64319158D01*
X145096679Y-64479649D01*
X145070094Y-64544263D01*
X145061039Y-64554368D01*
X118441270Y-91174139D01*
X118354144Y-91261264D01*
X118354138Y-91261272D01*
X118285690Y-91363708D01*
X118285689Y-91363710D01*
X118269645Y-91402442D01*
X118269646Y-91402443D01*
X118238537Y-91477549D01*
X118238535Y-91477556D01*
X118214500Y-91598389D01*
X118214500Y-94785811D01*
X118194815Y-94852850D01*
X118161623Y-94887386D01*
X118000859Y-94999953D01*
X117839954Y-95160858D01*
X117709432Y-95347265D01*
X117709431Y-95347267D01*
X117682382Y-95405275D01*
X117636209Y-95457714D01*
X117569016Y-95476866D01*
X117502135Y-95456650D01*
X117457618Y-95405275D01*
X117430568Y-95347267D01*
X117430567Y-95347265D01*
X117300045Y-95160858D01*
X117139140Y-94999953D01*
X116978377Y-94887386D01*
X116934752Y-94832809D01*
X116925500Y-94785811D01*
X116925500Y-89510452D01*
X116945185Y-89443413D01*
X116961819Y-89422771D01*
X140947771Y-65436819D01*
X141009094Y-65403334D01*
X141035452Y-65400500D01*
X141094644Y-65400500D01*
X141094646Y-65400500D01*
X141279803Y-65361144D01*
X141452730Y-65284151D01*
X141605871Y-65172888D01*
X141732533Y-65032216D01*
X141827179Y-64868284D01*
X141885674Y-64688256D01*
X141905460Y-64500000D01*
X141885674Y-64311744D01*
X141827179Y-64131716D01*
X141732533Y-63967784D01*
X141605871Y-63827112D01*
X141543777Y-63781998D01*
X141452734Y-63715851D01*
X141452729Y-63715848D01*
X141279807Y-63638857D01*
X141279802Y-63638855D01*
X141134001Y-63607865D01*
X141094646Y-63599500D01*
X140905354Y-63599500D01*
X140872897Y-63606398D01*
X140720197Y-63638855D01*
X140720192Y-63638857D01*
X140547270Y-63715848D01*
X140547265Y-63715851D01*
X140394129Y-63827111D01*
X140267466Y-63967785D01*
X140172821Y-64131715D01*
X140172818Y-64131722D01*
X140114327Y-64311740D01*
X140114326Y-64311744D01*
X140113547Y-64319158D01*
X140096678Y-64479651D01*
X140070093Y-64544266D01*
X140061038Y-64554370D01*
X120320987Y-84294422D01*
X115901270Y-88714139D01*
X115901267Y-88714142D01*
X115857703Y-88757705D01*
X115814140Y-88801268D01*
X115790995Y-88835909D01*
X115790993Y-88835912D01*
X115745687Y-88903714D01*
X115745685Y-88903718D01*
X115715996Y-88975395D01*
X115715997Y-88975396D01*
X115698537Y-89017549D01*
X115698535Y-89017556D01*
X115674500Y-89138389D01*
X115674500Y-94785811D01*
X115654815Y-94852850D01*
X115621623Y-94887386D01*
X115460859Y-94999953D01*
X115299954Y-95160858D01*
X115169432Y-95347265D01*
X115169431Y-95347267D01*
X115142382Y-95405275D01*
X115096209Y-95457714D01*
X115029016Y-95476866D01*
X114962135Y-95456650D01*
X114917618Y-95405275D01*
X114890568Y-95347267D01*
X114890567Y-95347265D01*
X114760045Y-95160858D01*
X114599141Y-94999954D01*
X114412734Y-94869432D01*
X114412732Y-94869431D01*
X114206497Y-94773261D01*
X114206488Y-94773258D01*
X113986697Y-94714366D01*
X113986693Y-94714365D01*
X113986692Y-94714365D01*
X113986691Y-94714364D01*
X113986686Y-94714364D01*
X113760002Y-94694532D01*
X113759998Y-94694532D01*
X113533313Y-94714364D01*
X113533302Y-94714366D01*
X113313511Y-94773258D01*
X113313502Y-94773261D01*
X113107267Y-94869431D01*
X113107265Y-94869432D01*
X112920858Y-94999954D01*
X112759954Y-95160858D01*
X112629432Y-95347265D01*
X112629431Y-95347267D01*
X112602382Y-95405275D01*
X112556209Y-95457714D01*
X112489016Y-95476866D01*
X112422135Y-95456650D01*
X112377618Y-95405275D01*
X112350568Y-95347267D01*
X112350567Y-95347265D01*
X112220045Y-95160858D01*
X112059141Y-94999954D01*
X111872734Y-94869432D01*
X111872732Y-94869431D01*
X111666497Y-94773261D01*
X111666488Y-94773258D01*
X111446697Y-94714366D01*
X111446693Y-94714365D01*
X111446692Y-94714365D01*
X111446691Y-94714364D01*
X111446686Y-94714364D01*
X111220002Y-94694532D01*
X111219998Y-94694532D01*
X110993313Y-94714364D01*
X110993302Y-94714366D01*
X110773511Y-94773258D01*
X110773502Y-94773261D01*
X110567267Y-94869431D01*
X110567265Y-94869432D01*
X110380858Y-94999954D01*
X110219954Y-95160858D01*
X110089432Y-95347265D01*
X110089431Y-95347267D01*
X110062382Y-95405275D01*
X110016209Y-95457714D01*
X109949016Y-95476866D01*
X109882135Y-95456650D01*
X109837618Y-95405275D01*
X109810568Y-95347267D01*
X109810567Y-95347265D01*
X109680045Y-95160858D01*
X109519141Y-94999954D01*
X109332734Y-94869432D01*
X109332732Y-94869431D01*
X109126497Y-94773261D01*
X109126488Y-94773258D01*
X108906697Y-94714366D01*
X108906693Y-94714365D01*
X108906692Y-94714365D01*
X108906691Y-94714364D01*
X108906686Y-94714364D01*
X108680002Y-94694532D01*
X108679998Y-94694532D01*
X108453313Y-94714364D01*
X108453302Y-94714366D01*
X108336593Y-94745638D01*
X108266743Y-94743975D01*
X108208881Y-94704812D01*
X108181377Y-94640583D01*
X108180500Y-94625863D01*
X108180500Y-92262576D01*
X108200185Y-92195537D01*
X108252989Y-92149782D01*
X108322147Y-92139838D01*
X108385703Y-92168863D01*
X108392181Y-92174895D01*
X108442247Y-92224961D01*
X108442253Y-92224966D01*
X108442258Y-92224971D01*
X108659887Y-92387887D01*
X108659891Y-92387889D01*
X108659892Y-92387890D01*
X108898481Y-92518169D01*
X108898480Y-92518169D01*
X108898484Y-92518170D01*
X108898487Y-92518172D01*
X109153199Y-92613175D01*
X109418840Y-92670961D01*
X109670605Y-92688967D01*
X109689999Y-92690355D01*
X109690000Y-92690355D01*
X109690001Y-92690355D01*
X109708100Y-92689060D01*
X109961160Y-92670961D01*
X110226801Y-92613175D01*
X110481513Y-92518172D01*
X110481517Y-92518169D01*
X110481519Y-92518169D01*
X110600813Y-92453029D01*
X110720113Y-92387887D01*
X110937742Y-92224971D01*
X111129971Y-92032742D01*
X111292887Y-91815113D01*
X111423172Y-91576513D01*
X111518175Y-91321801D01*
X111575961Y-91056160D01*
X111595355Y-90785000D01*
X111575961Y-90513840D01*
X111518175Y-90248199D01*
X111423172Y-89993487D01*
X111423170Y-89993484D01*
X111423169Y-89993480D01*
X111292890Y-89754892D01*
X111292889Y-89754891D01*
X111292887Y-89754887D01*
X111129971Y-89537258D01*
X111129966Y-89537253D01*
X111129961Y-89537247D01*
X110937752Y-89345038D01*
X110937746Y-89345033D01*
X110937742Y-89345029D01*
X110720113Y-89182113D01*
X110720108Y-89182110D01*
X110720107Y-89182109D01*
X110481518Y-89051830D01*
X110481519Y-89051830D01*
X110431920Y-89033330D01*
X110226801Y-88956825D01*
X110226794Y-88956823D01*
X110226793Y-88956823D01*
X109961167Y-88899040D01*
X109961160Y-88899039D01*
X109690001Y-88879645D01*
X109689999Y-88879645D01*
X109418839Y-88899039D01*
X109418832Y-88899040D01*
X109153206Y-88956823D01*
X109153202Y-88956824D01*
X109153199Y-88956825D01*
X109025843Y-89004326D01*
X108898480Y-89051830D01*
X108659892Y-89182109D01*
X108659891Y-89182110D01*
X108442259Y-89345028D01*
X108442247Y-89345038D01*
X108392181Y-89395105D01*
X108330858Y-89428590D01*
X108261166Y-89423606D01*
X108205233Y-89381734D01*
X108180816Y-89316270D01*
X108180500Y-89307424D01*
X108180500Y-71262576D01*
X108200185Y-71195537D01*
X108252989Y-71149782D01*
X108322147Y-71139838D01*
X108385703Y-71168863D01*
X108392181Y-71174895D01*
X108442247Y-71224961D01*
X108442253Y-71224966D01*
X108442258Y-71224971D01*
X108659887Y-71387887D01*
X108659891Y-71387889D01*
X108659892Y-71387890D01*
X108898481Y-71518169D01*
X108898480Y-71518169D01*
X108898484Y-71518170D01*
X108898487Y-71518172D01*
X109153199Y-71613175D01*
X109418840Y-71670961D01*
X109670605Y-71688967D01*
X109689999Y-71690355D01*
X109690000Y-71690355D01*
X109690001Y-71690355D01*
X109708100Y-71689060D01*
X109961160Y-71670961D01*
X110226801Y-71613175D01*
X110481513Y-71518172D01*
X110481517Y-71518169D01*
X110481519Y-71518169D01*
X110661187Y-71420063D01*
X110720113Y-71387887D01*
X110937742Y-71224971D01*
X111129971Y-71032742D01*
X111292887Y-70815113D01*
X111423172Y-70576513D01*
X111518175Y-70321801D01*
X111575961Y-70056160D01*
X111595355Y-69785000D01*
X111575961Y-69513840D01*
X111518175Y-69248199D01*
X111423172Y-68993487D01*
X111423170Y-68993484D01*
X111423169Y-68993480D01*
X111347549Y-68854993D01*
X112459786Y-68854993D01*
X112459786Y-68855006D01*
X112478608Y-69082168D01*
X112478610Y-69082179D01*
X112534569Y-69303155D01*
X112626137Y-69511908D01*
X112750814Y-69702742D01*
X112905208Y-69870458D01*
X112905212Y-69870461D01*
X113085090Y-70010466D01*
X113085094Y-70010469D01*
X113085096Y-70010470D01*
X113085099Y-70010472D01*
X113095214Y-70015946D01*
X113144804Y-70065166D01*
X113159911Y-70133382D01*
X113135740Y-70198938D01*
X113095214Y-70234054D01*
X113085099Y-70239527D01*
X113085090Y-70239533D01*
X112905212Y-70379538D01*
X112905208Y-70379541D01*
X112750814Y-70547257D01*
X112626137Y-70738091D01*
X112534569Y-70946844D01*
X112478610Y-71167820D01*
X112478608Y-71167831D01*
X112459786Y-71394993D01*
X112459786Y-71395006D01*
X112478608Y-71622168D01*
X112478610Y-71622179D01*
X112534569Y-71843155D01*
X112626137Y-72051908D01*
X112750814Y-72242742D01*
X112905208Y-72410458D01*
X112905212Y-72410461D01*
X113085094Y-72550469D01*
X113085096Y-72550470D01*
X113085099Y-72550472D01*
X113087313Y-72551670D01*
X113285574Y-72658963D01*
X113397529Y-72697397D01*
X113501173Y-72732979D01*
X113501175Y-72732979D01*
X113501177Y-72732980D01*
X113726023Y-72770500D01*
X113726024Y-72770500D01*
X113953976Y-72770500D01*
X113953977Y-72770500D01*
X114178823Y-72732980D01*
X114394426Y-72658963D01*
X114594906Y-72550469D01*
X114774794Y-72410456D01*
X114929183Y-72242745D01*
X115006191Y-72124874D01*
X115059337Y-72079518D01*
X115128568Y-72070094D01*
X115191904Y-72099596D01*
X115213809Y-72124875D01*
X115290814Y-72242742D01*
X115445208Y-72410458D01*
X115445212Y-72410461D01*
X115625094Y-72550469D01*
X115625096Y-72550470D01*
X115625099Y-72550472D01*
X115627313Y-72551670D01*
X115825574Y-72658963D01*
X115937529Y-72697397D01*
X116041173Y-72732979D01*
X116041175Y-72732979D01*
X116041177Y-72732980D01*
X116266023Y-72770500D01*
X116266024Y-72770500D01*
X116493976Y-72770500D01*
X116493977Y-72770500D01*
X116718823Y-72732980D01*
X116934426Y-72658963D01*
X117134906Y-72550469D01*
X117314794Y-72410456D01*
X117469183Y-72242745D01*
X117546191Y-72124874D01*
X117599337Y-72079518D01*
X117668568Y-72070094D01*
X117731904Y-72099596D01*
X117753809Y-72124875D01*
X117830814Y-72242742D01*
X117985208Y-72410458D01*
X117985212Y-72410461D01*
X118165094Y-72550469D01*
X118165096Y-72550470D01*
X118165099Y-72550472D01*
X118167313Y-72551670D01*
X118365574Y-72658963D01*
X118477529Y-72697397D01*
X118581173Y-72732979D01*
X118581175Y-72732979D01*
X118581177Y-72732980D01*
X118806023Y-72770500D01*
X118806024Y-72770500D01*
X119033976Y-72770500D01*
X119033977Y-72770500D01*
X119258823Y-72732980D01*
X119474426Y-72658963D01*
X119674906Y-72550469D01*
X119854794Y-72410456D01*
X120009183Y-72242745D01*
X120133862Y-72051909D01*
X120225430Y-71843155D01*
X120281390Y-71622176D01*
X120290008Y-71518172D01*
X120300214Y-71395006D01*
X120300214Y-71394993D01*
X120281391Y-71167831D01*
X120281389Y-71167820D01*
X120225430Y-70946844D01*
X120133862Y-70738091D01*
X120009185Y-70547257D01*
X119854791Y-70379541D01*
X119854787Y-70379538D01*
X119674909Y-70239533D01*
X119674900Y-70239527D01*
X119664789Y-70234056D01*
X119615197Y-70184838D01*
X119600087Y-70116621D01*
X119624257Y-70051065D01*
X119664789Y-70015944D01*
X119674900Y-70010472D01*
X119674906Y-70010469D01*
X119854794Y-69870456D01*
X120009183Y-69702745D01*
X120133862Y-69511909D01*
X120225430Y-69303155D01*
X120281390Y-69082176D01*
X120288739Y-68993487D01*
X120300214Y-68855006D01*
X120300214Y-68854993D01*
X125159786Y-68854993D01*
X125159786Y-68855006D01*
X125178608Y-69082168D01*
X125178610Y-69082179D01*
X125234569Y-69303155D01*
X125326137Y-69511908D01*
X125450814Y-69702742D01*
X125605208Y-69870458D01*
X125605212Y-69870461D01*
X125785090Y-70010466D01*
X125785094Y-70010469D01*
X125785096Y-70010470D01*
X125785099Y-70010472D01*
X125795214Y-70015946D01*
X125844804Y-70065166D01*
X125859911Y-70133382D01*
X125835740Y-70198938D01*
X125795214Y-70234054D01*
X125785099Y-70239527D01*
X125785090Y-70239533D01*
X125605212Y-70379538D01*
X125605208Y-70379541D01*
X125450814Y-70547257D01*
X125326137Y-70738091D01*
X125234569Y-70946844D01*
X125178610Y-71167820D01*
X125178608Y-71167831D01*
X125159786Y-71394993D01*
X125159786Y-71395006D01*
X125178608Y-71622168D01*
X125178610Y-71622179D01*
X125234569Y-71843155D01*
X125326137Y-72051908D01*
X125450814Y-72242742D01*
X125605208Y-72410458D01*
X125605212Y-72410461D01*
X125785094Y-72550469D01*
X125785096Y-72550470D01*
X125785099Y-72550472D01*
X125787313Y-72551670D01*
X125985574Y-72658963D01*
X126097529Y-72697397D01*
X126201173Y-72732979D01*
X126201175Y-72732979D01*
X126201177Y-72732980D01*
X126426023Y-72770500D01*
X126426024Y-72770500D01*
X126653976Y-72770500D01*
X126653977Y-72770500D01*
X126878823Y-72732980D01*
X127094426Y-72658963D01*
X127294906Y-72550469D01*
X127474794Y-72410456D01*
X127629183Y-72242745D01*
X127753862Y-72051909D01*
X127845430Y-71843155D01*
X127901390Y-71622176D01*
X127910008Y-71518172D01*
X127920214Y-71395006D01*
X127920214Y-71394993D01*
X127901391Y-71167831D01*
X127901389Y-71167820D01*
X127845430Y-70946844D01*
X127753862Y-70738091D01*
X127629185Y-70547257D01*
X127474791Y-70379541D01*
X127474787Y-70379538D01*
X127294909Y-70239533D01*
X127294900Y-70239527D01*
X127284789Y-70234056D01*
X127235197Y-70184838D01*
X127220087Y-70116621D01*
X127244257Y-70051065D01*
X127284789Y-70015944D01*
X127294900Y-70010472D01*
X127294906Y-70010469D01*
X127474794Y-69870456D01*
X127553464Y-69784998D01*
X128784645Y-69784998D01*
X128784645Y-69785001D01*
X128804039Y-70056160D01*
X128804040Y-70056167D01*
X128861521Y-70320403D01*
X128861825Y-70321801D01*
X128938330Y-70526920D01*
X128956830Y-70576519D01*
X129087109Y-70815107D01*
X129087110Y-70815108D01*
X129087113Y-70815113D01*
X129250029Y-71032742D01*
X129250033Y-71032746D01*
X129250038Y-71032752D01*
X129442247Y-71224961D01*
X129442253Y-71224966D01*
X129442258Y-71224971D01*
X129659887Y-71387887D01*
X129659891Y-71387889D01*
X129659892Y-71387890D01*
X129898481Y-71518169D01*
X129898480Y-71518169D01*
X129898484Y-71518170D01*
X129898487Y-71518172D01*
X130153199Y-71613175D01*
X130418840Y-71670961D01*
X130670605Y-71688967D01*
X130689999Y-71690355D01*
X130690000Y-71690355D01*
X130690001Y-71690355D01*
X130708100Y-71689060D01*
X130961160Y-71670961D01*
X131226801Y-71613175D01*
X131481513Y-71518172D01*
X131481517Y-71518169D01*
X131481519Y-71518169D01*
X131661187Y-71420063D01*
X131720113Y-71387887D01*
X131937742Y-71224971D01*
X132129971Y-71032742D01*
X132292887Y-70815113D01*
X132423172Y-70576513D01*
X132518175Y-70321801D01*
X132575961Y-70056160D01*
X132595355Y-69785000D01*
X132575961Y-69513840D01*
X132518175Y-69248199D01*
X132423172Y-68993487D01*
X132423170Y-68993484D01*
X132423169Y-68993480D01*
X132292890Y-68754892D01*
X132292889Y-68754891D01*
X132292887Y-68754887D01*
X132129971Y-68537258D01*
X132129966Y-68537253D01*
X132129961Y-68537247D01*
X131937752Y-68345038D01*
X131937746Y-68345033D01*
X131937742Y-68345029D01*
X131720113Y-68182113D01*
X131720108Y-68182110D01*
X131720107Y-68182109D01*
X131481518Y-68051830D01*
X131481519Y-68051830D01*
X131431920Y-68033330D01*
X131226801Y-67956825D01*
X131226794Y-67956823D01*
X131226793Y-67956823D01*
X130961167Y-67899040D01*
X130961160Y-67899039D01*
X130690001Y-67879645D01*
X130689999Y-67879645D01*
X130418839Y-67899039D01*
X130418832Y-67899040D01*
X130153206Y-67956823D01*
X130153202Y-67956824D01*
X130153199Y-67956825D01*
X130025843Y-68004326D01*
X129898480Y-68051830D01*
X129659892Y-68182109D01*
X129659891Y-68182110D01*
X129442259Y-68345028D01*
X129442247Y-68345038D01*
X129250038Y-68537247D01*
X129250028Y-68537259D01*
X129087110Y-68754891D01*
X129087109Y-68754892D01*
X128956830Y-68993480D01*
X128923747Y-69082179D01*
X128861825Y-69248199D01*
X128861824Y-69248202D01*
X128861823Y-69248206D01*
X128804040Y-69513832D01*
X128804039Y-69513839D01*
X128784645Y-69784998D01*
X127553464Y-69784998D01*
X127629183Y-69702745D01*
X127753862Y-69511909D01*
X127845430Y-69303155D01*
X127901390Y-69082176D01*
X127908739Y-68993487D01*
X127920214Y-68855006D01*
X127920214Y-68854993D01*
X127901391Y-68627831D01*
X127901389Y-68627820D01*
X127845430Y-68406844D01*
X127753862Y-68198091D01*
X127629185Y-68007257D01*
X127529563Y-67899039D01*
X127474794Y-67839544D01*
X127474793Y-67839543D01*
X127474791Y-67839541D01*
X127474787Y-67839538D01*
X127294909Y-67699533D01*
X127294900Y-67699527D01*
X127094432Y-67591040D01*
X127094429Y-67591039D01*
X127094426Y-67591037D01*
X127094420Y-67591035D01*
X127094418Y-67591034D01*
X126878826Y-67517020D01*
X126710188Y-67488880D01*
X126653977Y-67479500D01*
X126426023Y-67479500D01*
X126381053Y-67487004D01*
X126201173Y-67517020D01*
X125985581Y-67591034D01*
X125985567Y-67591040D01*
X125785099Y-67699527D01*
X125785090Y-67699533D01*
X125605212Y-67839538D01*
X125605208Y-67839541D01*
X125450814Y-68007257D01*
X125326137Y-68198091D01*
X125234569Y-68406844D01*
X125178610Y-68627820D01*
X125178608Y-68627831D01*
X125159786Y-68854993D01*
X120300214Y-68854993D01*
X120281391Y-68627831D01*
X120281389Y-68627820D01*
X120225430Y-68406844D01*
X120133862Y-68198091D01*
X120009185Y-68007257D01*
X119909563Y-67899039D01*
X119854794Y-67839544D01*
X119854793Y-67839543D01*
X119854791Y-67839541D01*
X119854787Y-67839538D01*
X119674909Y-67699533D01*
X119674900Y-67699527D01*
X119474432Y-67591040D01*
X119474429Y-67591039D01*
X119474426Y-67591037D01*
X119474420Y-67591035D01*
X119474418Y-67591034D01*
X119258826Y-67517020D01*
X119090188Y-67488880D01*
X119033977Y-67479500D01*
X118806023Y-67479500D01*
X118761053Y-67487004D01*
X118581173Y-67517020D01*
X118365581Y-67591034D01*
X118365567Y-67591040D01*
X118165099Y-67699527D01*
X118165090Y-67699533D01*
X117985212Y-67839538D01*
X117985208Y-67839541D01*
X117830817Y-68007255D01*
X117753809Y-68125125D01*
X117700662Y-68170481D01*
X117631431Y-68179905D01*
X117568095Y-68150403D01*
X117546191Y-68125125D01*
X117498305Y-68051830D01*
X117469183Y-68007255D01*
X117314794Y-67839544D01*
X117314793Y-67839543D01*
X117314791Y-67839541D01*
X117314787Y-67839538D01*
X117134909Y-67699533D01*
X117134900Y-67699527D01*
X116934432Y-67591040D01*
X116934429Y-67591039D01*
X116934426Y-67591037D01*
X116934420Y-67591035D01*
X116934418Y-67591034D01*
X116718826Y-67517020D01*
X116550188Y-67488880D01*
X116493977Y-67479500D01*
X116266023Y-67479500D01*
X116221053Y-67487004D01*
X116041173Y-67517020D01*
X115825581Y-67591034D01*
X115825567Y-67591040D01*
X115625099Y-67699527D01*
X115625090Y-67699533D01*
X115445212Y-67839538D01*
X115445208Y-67839541D01*
X115290817Y-68007255D01*
X115213809Y-68125125D01*
X115160662Y-68170481D01*
X115091431Y-68179905D01*
X115028095Y-68150403D01*
X115006191Y-68125125D01*
X114958305Y-68051830D01*
X114929183Y-68007255D01*
X114774794Y-67839544D01*
X114774793Y-67839543D01*
X114774791Y-67839541D01*
X114774787Y-67839538D01*
X114594909Y-67699533D01*
X114594900Y-67699527D01*
X114394432Y-67591040D01*
X114394429Y-67591039D01*
X114394426Y-67591037D01*
X114394420Y-67591035D01*
X114394418Y-67591034D01*
X114178826Y-67517020D01*
X114010188Y-67488880D01*
X113953977Y-67479500D01*
X113726023Y-67479500D01*
X113681053Y-67487004D01*
X113501173Y-67517020D01*
X113285581Y-67591034D01*
X113285567Y-67591040D01*
X113085099Y-67699527D01*
X113085090Y-67699533D01*
X112905212Y-67839538D01*
X112905208Y-67839541D01*
X112750814Y-68007257D01*
X112626137Y-68198091D01*
X112534569Y-68406844D01*
X112478610Y-68627820D01*
X112478608Y-68627831D01*
X112459786Y-68854993D01*
X111347549Y-68854993D01*
X111292890Y-68754892D01*
X111292889Y-68754891D01*
X111292887Y-68754887D01*
X111129971Y-68537258D01*
X111129966Y-68537253D01*
X111129961Y-68537247D01*
X110937752Y-68345038D01*
X110937746Y-68345033D01*
X110937742Y-68345029D01*
X110720113Y-68182113D01*
X110720108Y-68182110D01*
X110720107Y-68182109D01*
X110481518Y-68051830D01*
X110481519Y-68051830D01*
X110431920Y-68033330D01*
X110226801Y-67956825D01*
X110226794Y-67956823D01*
X110226793Y-67956823D01*
X109961167Y-67899040D01*
X109961160Y-67899039D01*
X109690001Y-67879645D01*
X109689999Y-67879645D01*
X109418839Y-67899039D01*
X109418832Y-67899040D01*
X109153206Y-67956823D01*
X109153202Y-67956824D01*
X109153199Y-67956825D01*
X109025843Y-68004326D01*
X108898480Y-68051830D01*
X108659892Y-68182109D01*
X108659891Y-68182110D01*
X108442259Y-68345028D01*
X108442247Y-68345038D01*
X108392181Y-68395105D01*
X108330858Y-68428590D01*
X108261166Y-68423606D01*
X108205233Y-68381734D01*
X108180816Y-68316270D01*
X108180500Y-68307424D01*
X108180500Y-64030043D01*
X108200185Y-63963004D01*
X108216814Y-63942367D01*
X110659185Y-61499996D01*
X123244592Y-61499996D01*
X123244592Y-61500003D01*
X123249153Y-61560862D01*
X123249500Y-61570129D01*
X123249500Y-61614727D01*
X123249501Y-61614746D01*
X123257610Y-61676344D01*
X123258324Y-61683261D01*
X123264196Y-61761621D01*
X123264197Y-61761628D01*
X123273875Y-61804030D01*
X123275923Y-61815434D01*
X123279452Y-61842239D01*
X123300073Y-61919201D01*
X123301189Y-61923700D01*
X123322578Y-62017409D01*
X123322580Y-62017416D01*
X123332045Y-62041532D01*
X123336392Y-62054742D01*
X123338842Y-62063886D01*
X123338847Y-62063902D01*
X123376043Y-62153701D01*
X123376910Y-62155850D01*
X123418431Y-62261641D01*
X123418433Y-62261645D01*
X123423522Y-62270460D01*
X123423524Y-62270464D01*
X123541389Y-62474612D01*
X123541391Y-62474615D01*
X123549614Y-62488857D01*
X123549615Y-62488858D01*
X123620481Y-62577721D01*
X123621910Y-62579548D01*
X123681077Y-62656657D01*
X123681080Y-62656660D01*
X123681081Y-62656661D01*
X123687773Y-62663353D01*
X123697036Y-62673718D01*
X123713197Y-62693983D01*
X123783670Y-62759373D01*
X123786984Y-62762564D01*
X123843339Y-62818919D01*
X123864795Y-62835382D01*
X123873638Y-62842850D01*
X123905521Y-62872433D01*
X123970448Y-62916699D01*
X123976063Y-62920762D01*
X124025388Y-62958611D01*
X124064019Y-62980914D01*
X124071870Y-62985847D01*
X124122296Y-63020228D01*
X124177297Y-63046715D01*
X124185485Y-63051043D01*
X124224099Y-63073337D01*
X124224102Y-63073338D01*
X124224112Y-63073344D01*
X124281553Y-63097137D01*
X124287864Y-63099961D01*
X124358677Y-63134063D01*
X124400224Y-63146878D01*
X124411118Y-63150804D01*
X124436113Y-63161158D01*
X124513099Y-63181785D01*
X124517517Y-63183058D01*
X124609385Y-63211396D01*
X124635011Y-63215258D01*
X124648605Y-63218094D01*
X124657762Y-63220548D01*
X124754174Y-63233240D01*
X124756354Y-63233547D01*
X124868818Y-63250500D01*
X124885266Y-63250500D01*
X147525993Y-63250500D01*
X147593032Y-63270185D01*
X147613674Y-63286819D01*
X151630247Y-67303392D01*
X151663732Y-67364715D01*
X151658748Y-67434407D01*
X151616876Y-67490340D01*
X151562977Y-67513382D01*
X151541173Y-67517020D01*
X151325581Y-67591034D01*
X151325567Y-67591040D01*
X151125099Y-67699527D01*
X151125090Y-67699533D01*
X150945212Y-67839538D01*
X150945208Y-67839541D01*
X150790817Y-68007255D01*
X150713809Y-68125125D01*
X150660662Y-68170481D01*
X150591431Y-68179905D01*
X150528095Y-68150403D01*
X150506191Y-68125125D01*
X150458305Y-68051830D01*
X150429183Y-68007255D01*
X150274794Y-67839544D01*
X150274793Y-67839543D01*
X150274791Y-67839541D01*
X150274787Y-67839538D01*
X150094909Y-67699533D01*
X150094900Y-67699527D01*
X149894432Y-67591040D01*
X149894429Y-67591039D01*
X149894426Y-67591037D01*
X149894420Y-67591035D01*
X149894418Y-67591034D01*
X149678826Y-67517020D01*
X149510188Y-67488880D01*
X149453977Y-67479500D01*
X149226023Y-67479500D01*
X149181053Y-67487004D01*
X149001173Y-67517020D01*
X148785581Y-67591034D01*
X148785567Y-67591040D01*
X148585099Y-67699527D01*
X148585090Y-67699533D01*
X148405212Y-67839538D01*
X148405208Y-67839541D01*
X148250814Y-68007257D01*
X148126137Y-68198091D01*
X148034569Y-68406844D01*
X147978610Y-68627820D01*
X147978608Y-68627831D01*
X147959786Y-68854993D01*
X147959786Y-68855006D01*
X147978608Y-69082168D01*
X147978610Y-69082179D01*
X148034569Y-69303155D01*
X148126137Y-69511908D01*
X148250814Y-69702742D01*
X148405208Y-69870458D01*
X148405212Y-69870461D01*
X148585090Y-70010466D01*
X148585094Y-70010469D01*
X148585096Y-70010470D01*
X148585099Y-70010472D01*
X148595214Y-70015946D01*
X148644804Y-70065166D01*
X148659911Y-70133382D01*
X148635740Y-70198938D01*
X148595214Y-70234054D01*
X148585099Y-70239527D01*
X148585090Y-70239533D01*
X148405212Y-70379538D01*
X148405208Y-70379541D01*
X148250814Y-70547257D01*
X148126137Y-70738091D01*
X148034569Y-70946844D01*
X147978610Y-71167820D01*
X147978608Y-71167831D01*
X147959786Y-71394993D01*
X147959786Y-71395006D01*
X147978608Y-71622168D01*
X147978610Y-71622179D01*
X148034569Y-71843155D01*
X148126137Y-72051908D01*
X148250814Y-72242742D01*
X148405208Y-72410458D01*
X148405212Y-72410461D01*
X148585094Y-72550469D01*
X148585096Y-72550470D01*
X148585099Y-72550472D01*
X148587313Y-72551670D01*
X148785574Y-72658963D01*
X148897529Y-72697397D01*
X149001173Y-72732979D01*
X149001175Y-72732979D01*
X149001177Y-72732980D01*
X149226023Y-72770500D01*
X149226024Y-72770500D01*
X149453976Y-72770500D01*
X149453977Y-72770500D01*
X149678823Y-72732980D01*
X149894426Y-72658963D01*
X150094906Y-72550469D01*
X150274794Y-72410456D01*
X150429183Y-72242745D01*
X150506191Y-72124874D01*
X150559337Y-72079518D01*
X150628568Y-72070094D01*
X150691904Y-72099596D01*
X150713809Y-72124875D01*
X150790814Y-72242742D01*
X150945208Y-72410458D01*
X150945212Y-72410461D01*
X151125094Y-72550469D01*
X151125096Y-72550470D01*
X151125099Y-72550472D01*
X151127313Y-72551670D01*
X151325574Y-72658963D01*
X151437529Y-72697397D01*
X151541173Y-72732979D01*
X151541175Y-72732979D01*
X151541177Y-72732980D01*
X151766023Y-72770500D01*
X151766024Y-72770500D01*
X151993976Y-72770500D01*
X151993977Y-72770500D01*
X152218823Y-72732980D01*
X152434426Y-72658963D01*
X152634906Y-72550469D01*
X152814794Y-72410456D01*
X152814802Y-72410446D01*
X152818564Y-72406985D01*
X152820105Y-72408659D01*
X152871730Y-72377552D01*
X152941571Y-72379571D01*
X152999233Y-72419027D01*
X153001589Y-72422002D01*
X153101081Y-72551661D01*
X153101089Y-72551670D01*
X153263330Y-72713911D01*
X153263338Y-72713918D01*
X153445382Y-72853607D01*
X153445385Y-72853608D01*
X153445388Y-72853611D01*
X153644112Y-72968344D01*
X153644117Y-72968346D01*
X153644123Y-72968349D01*
X153735480Y-73006190D01*
X153856113Y-73056158D01*
X154077762Y-73115548D01*
X154305266Y-73145500D01*
X154305273Y-73145500D01*
X154534727Y-73145500D01*
X154534734Y-73145500D01*
X154762238Y-73115548D01*
X154983887Y-73056158D01*
X155195888Y-72968344D01*
X155394612Y-72853611D01*
X155576661Y-72713919D01*
X155576665Y-72713914D01*
X155576670Y-72713911D01*
X155738911Y-72551670D01*
X155738914Y-72551665D01*
X155738919Y-72551661D01*
X155878611Y-72369612D01*
X155993344Y-72170888D01*
X156081158Y-71958887D01*
X156140548Y-71737238D01*
X156170500Y-71509734D01*
X156170500Y-68854993D01*
X160659786Y-68854993D01*
X160659786Y-68855006D01*
X160678608Y-69082168D01*
X160678610Y-69082179D01*
X160734569Y-69303155D01*
X160826137Y-69511908D01*
X160950814Y-69702742D01*
X161105208Y-69870458D01*
X161105212Y-69870461D01*
X161285090Y-70010466D01*
X161285094Y-70010469D01*
X161285096Y-70010470D01*
X161285099Y-70010472D01*
X161295214Y-70015946D01*
X161344804Y-70065166D01*
X161359911Y-70133382D01*
X161335740Y-70198938D01*
X161295214Y-70234054D01*
X161285099Y-70239527D01*
X161285090Y-70239533D01*
X161105212Y-70379538D01*
X161105208Y-70379541D01*
X160950814Y-70547257D01*
X160826137Y-70738091D01*
X160734569Y-70946844D01*
X160678610Y-71167820D01*
X160678608Y-71167831D01*
X160659786Y-71394993D01*
X160659786Y-71395006D01*
X160678608Y-71622168D01*
X160678610Y-71622179D01*
X160734569Y-71843155D01*
X160826137Y-72051908D01*
X160950814Y-72242742D01*
X161105208Y-72410458D01*
X161105212Y-72410461D01*
X161285094Y-72550469D01*
X161285096Y-72550470D01*
X161285099Y-72550472D01*
X161287313Y-72551670D01*
X161485574Y-72658963D01*
X161597529Y-72697397D01*
X161701173Y-72732979D01*
X161701175Y-72732979D01*
X161701177Y-72732980D01*
X161926023Y-72770500D01*
X161926024Y-72770500D01*
X162153976Y-72770500D01*
X162153977Y-72770500D01*
X162378823Y-72732980D01*
X162594426Y-72658963D01*
X162794906Y-72550469D01*
X162974794Y-72410456D01*
X163129183Y-72242745D01*
X163253862Y-72051909D01*
X163345430Y-71843155D01*
X163401390Y-71622176D01*
X163410008Y-71518172D01*
X163420214Y-71395006D01*
X163420214Y-71394993D01*
X163401391Y-71167831D01*
X163401389Y-71167820D01*
X163345430Y-70946844D01*
X163253862Y-70738091D01*
X163129185Y-70547257D01*
X162974791Y-70379541D01*
X162974787Y-70379538D01*
X162794909Y-70239533D01*
X162794900Y-70239527D01*
X162784789Y-70234056D01*
X162735197Y-70184838D01*
X162720087Y-70116621D01*
X162744257Y-70051065D01*
X162784789Y-70015944D01*
X162794900Y-70010472D01*
X162794906Y-70010469D01*
X162974794Y-69870456D01*
X163053464Y-69784998D01*
X164284645Y-69784998D01*
X164284645Y-69785001D01*
X164304039Y-70056160D01*
X164304040Y-70056167D01*
X164361521Y-70320403D01*
X164361825Y-70321801D01*
X164438330Y-70526920D01*
X164456830Y-70576519D01*
X164587109Y-70815107D01*
X164587110Y-70815108D01*
X164587113Y-70815113D01*
X164750029Y-71032742D01*
X164750033Y-71032746D01*
X164750038Y-71032752D01*
X164942247Y-71224961D01*
X164942253Y-71224966D01*
X164942258Y-71224971D01*
X165159887Y-71387887D01*
X165159891Y-71387889D01*
X165159892Y-71387890D01*
X165398481Y-71518169D01*
X165398480Y-71518169D01*
X165398484Y-71518170D01*
X165398487Y-71518172D01*
X165653199Y-71613175D01*
X165918840Y-71670961D01*
X166170605Y-71688967D01*
X166189999Y-71690355D01*
X166190000Y-71690355D01*
X166190001Y-71690355D01*
X166208100Y-71689060D01*
X166461160Y-71670961D01*
X166726801Y-71613175D01*
X166981513Y-71518172D01*
X166981517Y-71518169D01*
X166981519Y-71518169D01*
X167161187Y-71420063D01*
X167220113Y-71387887D01*
X167437742Y-71224971D01*
X167629971Y-71032742D01*
X167792887Y-70815113D01*
X167923172Y-70576513D01*
X168018175Y-70321801D01*
X168075961Y-70056160D01*
X168095355Y-69785000D01*
X168075961Y-69513840D01*
X168018175Y-69248199D01*
X167923172Y-68993487D01*
X167923170Y-68993484D01*
X167923169Y-68993480D01*
X167792890Y-68754892D01*
X167792889Y-68754891D01*
X167792887Y-68754887D01*
X167629971Y-68537258D01*
X167629966Y-68537253D01*
X167629961Y-68537247D01*
X167437752Y-68345038D01*
X167437746Y-68345033D01*
X167437742Y-68345029D01*
X167220113Y-68182113D01*
X167220108Y-68182110D01*
X167220107Y-68182109D01*
X166981518Y-68051830D01*
X166981519Y-68051830D01*
X166931920Y-68033330D01*
X166726801Y-67956825D01*
X166726794Y-67956823D01*
X166726793Y-67956823D01*
X166461167Y-67899040D01*
X166461160Y-67899039D01*
X166190001Y-67879645D01*
X166189999Y-67879645D01*
X165918839Y-67899039D01*
X165918832Y-67899040D01*
X165653206Y-67956823D01*
X165653202Y-67956824D01*
X165653199Y-67956825D01*
X165525843Y-68004326D01*
X165398480Y-68051830D01*
X165159892Y-68182109D01*
X165159891Y-68182110D01*
X164942259Y-68345028D01*
X164942247Y-68345038D01*
X164750038Y-68537247D01*
X164750028Y-68537259D01*
X164587110Y-68754891D01*
X164587109Y-68754892D01*
X164456830Y-68993480D01*
X164423747Y-69082179D01*
X164361825Y-69248199D01*
X164361824Y-69248202D01*
X164361823Y-69248206D01*
X164304040Y-69513832D01*
X164304039Y-69513839D01*
X164284645Y-69784998D01*
X163053464Y-69784998D01*
X163129183Y-69702745D01*
X163253862Y-69511909D01*
X163345430Y-69303155D01*
X163401390Y-69082176D01*
X163408739Y-68993487D01*
X163420214Y-68855006D01*
X163420214Y-68854993D01*
X163401391Y-68627831D01*
X163401389Y-68627820D01*
X163345430Y-68406844D01*
X163253862Y-68198091D01*
X163129185Y-68007257D01*
X163029563Y-67899039D01*
X162974794Y-67839544D01*
X162974793Y-67839543D01*
X162974791Y-67839541D01*
X162974787Y-67839538D01*
X162794909Y-67699533D01*
X162794900Y-67699527D01*
X162594432Y-67591040D01*
X162594429Y-67591039D01*
X162594426Y-67591037D01*
X162594420Y-67591035D01*
X162594418Y-67591034D01*
X162378826Y-67517020D01*
X162210188Y-67488880D01*
X162153977Y-67479500D01*
X161926023Y-67479500D01*
X161881053Y-67487004D01*
X161701173Y-67517020D01*
X161485581Y-67591034D01*
X161485567Y-67591040D01*
X161285099Y-67699527D01*
X161285090Y-67699533D01*
X161105212Y-67839538D01*
X161105208Y-67839541D01*
X160950814Y-68007257D01*
X160826137Y-68198091D01*
X160734569Y-68406844D01*
X160678610Y-68627820D01*
X160678608Y-68627831D01*
X160659786Y-68854993D01*
X156170500Y-68854993D01*
X156170500Y-67502830D01*
X156140548Y-67275326D01*
X156081158Y-67053677D01*
X156021635Y-66909977D01*
X155993349Y-66841687D01*
X155993342Y-66841672D01*
X155878611Y-66642952D01*
X155773913Y-66506507D01*
X155773910Y-66506504D01*
X155773908Y-66506501D01*
X155738920Y-66460903D01*
X155738917Y-66460900D01*
X155738913Y-66460895D01*
X151743017Y-62464999D01*
X172369341Y-62464999D01*
X172369341Y-62465000D01*
X172389936Y-62700403D01*
X172389938Y-62700413D01*
X172451094Y-62928655D01*
X172451096Y-62928659D01*
X172451097Y-62928663D01*
X172529654Y-63097129D01*
X172550965Y-63142830D01*
X172550967Y-63142834D01*
X172626356Y-63250500D01*
X172686501Y-63336396D01*
X172686506Y-63336402D01*
X172853597Y-63503493D01*
X172853603Y-63503498D01*
X173039158Y-63633425D01*
X173082783Y-63688002D01*
X173089977Y-63757500D01*
X173058454Y-63819855D01*
X173039158Y-63836575D01*
X172853597Y-63966505D01*
X172686505Y-64133597D01*
X172550965Y-64327169D01*
X172550964Y-64327171D01*
X172451098Y-64541335D01*
X172451094Y-64541344D01*
X172389938Y-64769586D01*
X172389936Y-64769596D01*
X172369341Y-65004999D01*
X172369341Y-65005000D01*
X172389936Y-65240403D01*
X172389938Y-65240413D01*
X172451094Y-65468655D01*
X172451096Y-65468659D01*
X172451097Y-65468663D01*
X172455000Y-65477032D01*
X172550965Y-65682830D01*
X172550967Y-65682834D01*
X172659281Y-65837521D01*
X172686501Y-65876396D01*
X172686506Y-65876402D01*
X172853597Y-66043493D01*
X172853603Y-66043498D01*
X173039158Y-66173425D01*
X173082783Y-66228002D01*
X173089977Y-66297500D01*
X173058454Y-66359855D01*
X173039158Y-66376575D01*
X172853597Y-66506505D01*
X172686505Y-66673597D01*
X172550965Y-66867169D01*
X172550964Y-66867171D01*
X172451098Y-67081335D01*
X172451094Y-67081344D01*
X172389938Y-67309586D01*
X172389936Y-67309596D01*
X172369341Y-67544999D01*
X172369341Y-67545000D01*
X172389936Y-67780403D01*
X172389938Y-67780413D01*
X172451094Y-68008655D01*
X172451096Y-68008659D01*
X172451097Y-68008663D01*
X172531977Y-68182110D01*
X172550965Y-68222830D01*
X172550967Y-68222834D01*
X172610198Y-68307424D01*
X172686501Y-68416396D01*
X172686506Y-68416402D01*
X172853597Y-68583493D01*
X172853603Y-68583498D01*
X173039158Y-68713425D01*
X173082783Y-68768002D01*
X173089977Y-68837500D01*
X173058454Y-68899855D01*
X173039158Y-68916575D01*
X172853597Y-69046505D01*
X172686505Y-69213597D01*
X172550965Y-69407169D01*
X172550964Y-69407171D01*
X172451098Y-69621335D01*
X172451094Y-69621344D01*
X172389938Y-69849586D01*
X172389936Y-69849596D01*
X172369341Y-70084999D01*
X172369341Y-70085000D01*
X172389936Y-70320403D01*
X172389938Y-70320413D01*
X172451094Y-70548655D01*
X172451096Y-70548659D01*
X172451097Y-70548663D01*
X172517192Y-70690403D01*
X172550965Y-70762830D01*
X172550967Y-70762834D01*
X172623256Y-70866072D01*
X172686505Y-70956401D01*
X172853599Y-71123495D01*
X172918391Y-71168863D01*
X173047165Y-71259032D01*
X173047167Y-71259033D01*
X173047170Y-71259035D01*
X173261337Y-71358903D01*
X173489592Y-71420063D01*
X173677918Y-71436539D01*
X173724999Y-71440659D01*
X173725000Y-71440659D01*
X173725001Y-71440659D01*
X173764234Y-71437226D01*
X173960408Y-71420063D01*
X174188663Y-71358903D01*
X174402830Y-71259035D01*
X174596401Y-71123495D01*
X174763495Y-70956401D01*
X174893425Y-70770842D01*
X174948002Y-70727217D01*
X175017500Y-70720023D01*
X175079855Y-70751546D01*
X175096575Y-70770842D01*
X175226500Y-70956395D01*
X175226505Y-70956401D01*
X175393599Y-71123495D01*
X175458391Y-71168863D01*
X175587165Y-71259032D01*
X175587167Y-71259033D01*
X175587170Y-71259035D01*
X175801337Y-71358903D01*
X176029592Y-71420063D01*
X176217918Y-71436539D01*
X176264999Y-71440659D01*
X176265000Y-71440659D01*
X176265001Y-71440659D01*
X176304234Y-71437226D01*
X176500408Y-71420063D01*
X176728663Y-71358903D01*
X176942830Y-71259035D01*
X177136401Y-71123495D01*
X177303495Y-70956401D01*
X177439035Y-70762830D01*
X177538903Y-70548663D01*
X177600063Y-70320408D01*
X177620659Y-70085000D01*
X177600063Y-69849592D01*
X177538903Y-69621337D01*
X177439035Y-69407171D01*
X177433425Y-69399158D01*
X177303494Y-69213597D01*
X177136402Y-69046506D01*
X177136396Y-69046501D01*
X176950842Y-68916575D01*
X176907217Y-68861998D01*
X176900023Y-68792500D01*
X176931546Y-68730145D01*
X176950842Y-68713425D01*
X177069789Y-68630137D01*
X177136401Y-68583495D01*
X177303495Y-68416401D01*
X177439035Y-68222830D01*
X177538903Y-68008663D01*
X177600063Y-67780408D01*
X177620659Y-67545000D01*
X177600063Y-67309592D01*
X177538903Y-67081337D01*
X177439035Y-66867171D01*
X177433425Y-66859158D01*
X177303494Y-66673597D01*
X177136402Y-66506506D01*
X177136396Y-66506501D01*
X176950842Y-66376575D01*
X176907217Y-66321998D01*
X176900023Y-66252500D01*
X176931546Y-66190145D01*
X176950842Y-66173425D01*
X176973026Y-66157891D01*
X177136401Y-66043495D01*
X177303495Y-65876401D01*
X177439035Y-65682830D01*
X177538903Y-65468663D01*
X177600063Y-65240408D01*
X177620659Y-65005000D01*
X177600063Y-64769592D01*
X177538903Y-64541337D01*
X177439035Y-64327171D01*
X177433425Y-64319158D01*
X177303494Y-64133597D01*
X177136402Y-63966506D01*
X177136396Y-63966501D01*
X176950842Y-63836575D01*
X176907217Y-63781998D01*
X176900023Y-63712500D01*
X176931546Y-63650145D01*
X176950842Y-63633425D01*
X176999292Y-63599500D01*
X177136401Y-63503495D01*
X177303495Y-63336401D01*
X177439035Y-63142830D01*
X177538903Y-62928663D01*
X177600063Y-62700408D01*
X177620659Y-62465000D01*
X177600063Y-62229592D01*
X177543211Y-62017416D01*
X177538905Y-62001344D01*
X177538904Y-62001343D01*
X177538903Y-62001337D01*
X177439035Y-61787171D01*
X177433425Y-61779158D01*
X177303494Y-61593597D01*
X177136402Y-61426506D01*
X177136396Y-61426501D01*
X176950842Y-61296575D01*
X176907217Y-61241998D01*
X176900023Y-61172500D01*
X176931546Y-61110145D01*
X176950842Y-61093425D01*
X177109139Y-60982584D01*
X177136401Y-60963495D01*
X177303495Y-60796401D01*
X177439035Y-60602830D01*
X177538903Y-60388663D01*
X177600063Y-60160408D01*
X177620659Y-59925000D01*
X177600063Y-59689592D01*
X177538903Y-59461337D01*
X177439035Y-59247171D01*
X177303495Y-59053599D01*
X177303494Y-59053597D01*
X177136402Y-58886506D01*
X177136395Y-58886501D01*
X176942834Y-58750967D01*
X176942830Y-58750965D01*
X176942828Y-58750964D01*
X176728663Y-58651097D01*
X176728659Y-58651096D01*
X176728655Y-58651094D01*
X176500413Y-58589938D01*
X176500403Y-58589936D01*
X176265001Y-58569341D01*
X176264999Y-58569341D01*
X176029596Y-58589936D01*
X176029586Y-58589938D01*
X175801344Y-58651094D01*
X175801335Y-58651098D01*
X175587171Y-58750964D01*
X175587169Y-58750965D01*
X175393597Y-58886505D01*
X175226505Y-59053597D01*
X175090965Y-59247169D01*
X175090964Y-59247171D01*
X174991098Y-59461335D01*
X174991094Y-59461344D01*
X174929938Y-59689586D01*
X174929936Y-59689596D01*
X174909341Y-59924999D01*
X174909341Y-59925000D01*
X174929936Y-60160403D01*
X174929938Y-60160413D01*
X174991094Y-60388655D01*
X174991096Y-60388659D01*
X174991097Y-60388663D01*
X175054851Y-60525384D01*
X175090965Y-60602830D01*
X175090967Y-60602834D01*
X175226501Y-60796395D01*
X175226506Y-60796402D01*
X175393597Y-60963493D01*
X175393603Y-60963498D01*
X175579158Y-61093425D01*
X175622783Y-61148002D01*
X175629977Y-61217500D01*
X175598454Y-61279855D01*
X175579158Y-61296575D01*
X175393597Y-61426505D01*
X175226505Y-61593597D01*
X175096575Y-61779158D01*
X175041998Y-61822783D01*
X174972500Y-61829977D01*
X174910145Y-61798454D01*
X174893425Y-61779158D01*
X174763494Y-61593597D01*
X174596402Y-61426506D01*
X174596395Y-61426501D01*
X174402834Y-61290967D01*
X174402830Y-61290965D01*
X174402828Y-61290964D01*
X174188663Y-61191097D01*
X174188659Y-61191096D01*
X174188655Y-61191094D01*
X173960413Y-61129938D01*
X173960403Y-61129936D01*
X173725001Y-61109341D01*
X173724999Y-61109341D01*
X173489596Y-61129936D01*
X173489586Y-61129938D01*
X173261344Y-61191094D01*
X173261335Y-61191098D01*
X173047171Y-61290964D01*
X173047169Y-61290965D01*
X172853597Y-61426505D01*
X172686505Y-61593597D01*
X172550965Y-61787169D01*
X172550964Y-61787171D01*
X172451098Y-62001335D01*
X172451094Y-62001344D01*
X172389938Y-62229586D01*
X172389936Y-62229596D01*
X172369341Y-62464999D01*
X151743017Y-62464999D01*
X149459104Y-60181086D01*
X149459099Y-60181082D01*
X149459098Y-60181081D01*
X149459097Y-60181080D01*
X149368072Y-60111235D01*
X149368071Y-60111234D01*
X149277058Y-60041396D01*
X149277052Y-60041392D01*
X149277048Y-60041389D01*
X149229872Y-60014152D01*
X149078327Y-59926657D01*
X149078312Y-59926650D01*
X148866323Y-59838842D01*
X148866319Y-59838841D01*
X148644675Y-59779452D01*
X148644669Y-59779451D01*
X148644668Y-59779451D01*
X148634798Y-59778151D01*
X148618207Y-59775967D01*
X148618206Y-59775966D01*
X148417180Y-59749501D01*
X148417175Y-59749500D01*
X148417170Y-59749500D01*
X125131182Y-59749500D01*
X124868818Y-59749500D01*
X124868810Y-59749500D01*
X124756432Y-59766439D01*
X124754138Y-59766763D01*
X124657757Y-59779452D01*
X124657755Y-59779453D01*
X124648620Y-59781901D01*
X124635014Y-59784740D01*
X124609385Y-59788603D01*
X124609377Y-59788605D01*
X124517556Y-59816928D01*
X124513103Y-59818211D01*
X124436113Y-59838841D01*
X124416884Y-59846806D01*
X124411124Y-59849192D01*
X124400231Y-59853118D01*
X124358677Y-59865936D01*
X124303227Y-59892639D01*
X124287863Y-59900037D01*
X124281526Y-59902873D01*
X124224118Y-59926653D01*
X124224102Y-59926661D01*
X124185494Y-59948951D01*
X124177299Y-59953282D01*
X124122301Y-59979768D01*
X124122299Y-59979769D01*
X124071867Y-60014152D01*
X124064022Y-60019082D01*
X124025393Y-60041386D01*
X124025380Y-60041394D01*
X123976076Y-60079226D01*
X123970444Y-60083301D01*
X123905522Y-60127565D01*
X123873643Y-60157144D01*
X123864793Y-60164617D01*
X123843341Y-60181078D01*
X123787009Y-60237410D01*
X123783671Y-60240625D01*
X123713194Y-60306019D01*
X123697032Y-60326285D01*
X123687778Y-60336640D01*
X123681082Y-60343336D01*
X123621895Y-60420470D01*
X123620467Y-60422295D01*
X123549619Y-60511136D01*
X123549611Y-60511147D01*
X123541388Y-60525390D01*
X123461310Y-60664090D01*
X123418433Y-60738354D01*
X123376928Y-60844103D01*
X123376062Y-60846249D01*
X123338843Y-60936106D01*
X123336391Y-60945260D01*
X123332046Y-60958463D01*
X123322580Y-60982582D01*
X123301189Y-61076299D01*
X123300074Y-61080796D01*
X123292426Y-61109341D01*
X123279452Y-61157762D01*
X123279451Y-61157766D01*
X123279451Y-61157768D01*
X123275923Y-61184565D01*
X123273875Y-61195971D01*
X123264197Y-61238371D01*
X123258324Y-61316737D01*
X123257610Y-61323653D01*
X123249500Y-61385262D01*
X123249500Y-61429869D01*
X123249153Y-61439136D01*
X123244592Y-61499996D01*
X110659185Y-61499996D01*
X115615278Y-56543902D01*
X115676599Y-56510419D01*
X115746291Y-56515403D01*
X115759246Y-56521097D01*
X115918526Y-56602255D01*
X116261063Y-56733742D01*
X116615468Y-56828705D01*
X116977858Y-56886102D01*
X117323996Y-56904241D01*
X117344261Y-56905304D01*
X117344262Y-56905304D01*
X117344263Y-56905304D01*
X117363465Y-56904297D01*
X117710666Y-56886102D01*
X118073056Y-56828705D01*
X118427461Y-56733742D01*
X118769998Y-56602255D01*
X119096914Y-56435682D01*
X119404628Y-56235851D01*
X119689768Y-56004949D01*
X119949211Y-55745506D01*
X120180113Y-55460366D01*
X120379944Y-55152652D01*
X120546517Y-54825736D01*
X120678004Y-54483199D01*
X120726304Y-54302943D01*
X172597366Y-54302943D01*
X172597366Y-54302944D01*
X172617666Y-54690283D01*
X172678341Y-55073371D01*
X172678341Y-55073373D01*
X172778732Y-55448038D01*
X172917731Y-55810141D01*
X173093821Y-56155737D01*
X173305066Y-56481026D01*
X173355984Y-56543904D01*
X173549163Y-56782460D01*
X173823428Y-57056725D01*
X173823432Y-57056728D01*
X174124861Y-57300821D01*
X174450150Y-57512066D01*
X174450155Y-57512069D01*
X174795750Y-57688158D01*
X175157857Y-57827158D01*
X175532511Y-57927546D01*
X175915606Y-57988222D01*
X176281520Y-58007399D01*
X176302943Y-58008522D01*
X176302944Y-58008522D01*
X176302945Y-58008522D01*
X176323245Y-58007458D01*
X176690282Y-57988222D01*
X177073377Y-57927546D01*
X177448031Y-57827158D01*
X177810138Y-57688158D01*
X178155733Y-57512069D01*
X178481028Y-57300820D01*
X178782460Y-57056725D01*
X179056725Y-56782460D01*
X179300820Y-56481028D01*
X179512069Y-56155733D01*
X179688158Y-55810138D01*
X179827158Y-55448031D01*
X179927546Y-55073377D01*
X179988222Y-54690282D01*
X180008522Y-54302944D01*
X179988222Y-53915606D01*
X179927546Y-53532511D01*
X179827158Y-53157857D01*
X179688158Y-52795750D01*
X179512069Y-52450155D01*
X179300820Y-52124860D01*
X179056725Y-51823428D01*
X178782460Y-51549163D01*
X178523715Y-51339635D01*
X178481026Y-51305066D01*
X178155737Y-51093821D01*
X177810141Y-50917731D01*
X177448038Y-50778732D01*
X177448031Y-50778730D01*
X177073377Y-50678342D01*
X177073373Y-50678341D01*
X177073372Y-50678341D01*
X176690283Y-50617666D01*
X176302945Y-50597366D01*
X176302943Y-50597366D01*
X175915604Y-50617666D01*
X175532516Y-50678341D01*
X175532514Y-50678341D01*
X175157849Y-50778732D01*
X174795746Y-50917731D01*
X174450150Y-51093821D01*
X174124861Y-51305066D01*
X173823432Y-51549159D01*
X173823424Y-51549166D01*
X173549166Y-51823424D01*
X173549159Y-51823432D01*
X173305066Y-52124861D01*
X173093821Y-52450150D01*
X172917731Y-52795746D01*
X172778732Y-53157849D01*
X172678341Y-53532514D01*
X172678341Y-53532516D01*
X172617666Y-53915604D01*
X172597366Y-54302943D01*
X120726304Y-54302943D01*
X120772967Y-54128794D01*
X120830364Y-53766404D01*
X120849566Y-53400000D01*
X120830364Y-53033596D01*
X120772967Y-52671206D01*
X120678004Y-52316801D01*
X120546517Y-51974264D01*
X120379944Y-51647348D01*
X120180113Y-51339634D01*
X120152120Y-51305066D01*
X119949214Y-51054498D01*
X119949211Y-51054494D01*
X119689768Y-50795051D01*
X119404628Y-50564149D01*
X119404626Y-50564147D01*
X119096918Y-50364320D01*
X118770001Y-50197746D01*
X118427468Y-50066260D01*
X118427461Y-50066258D01*
X118073056Y-49971295D01*
X118073052Y-49971294D01*
X118073051Y-49971294D01*
X117710667Y-49913898D01*
X117344263Y-49894696D01*
X117344261Y-49894696D01*
X116977856Y-49913898D01*
X116615473Y-49971294D01*
X116615471Y-49971294D01*
X116261055Y-50066260D01*
X115918522Y-50197746D01*
X115591605Y-50364320D01*
X115283897Y-50564147D01*
X114998760Y-50795047D01*
X114998752Y-50795054D01*
X114739316Y-51054490D01*
X114739309Y-51054498D01*
X114508409Y-51339635D01*
X114308582Y-51647343D01*
X114142008Y-51974260D01*
X114010522Y-52316793D01*
X113915556Y-52671209D01*
X113915556Y-52671211D01*
X113858160Y-53033594D01*
X113838958Y-53399999D01*
X113838958Y-53400000D01*
X113858160Y-53766405D01*
X113915556Y-54128788D01*
X113915556Y-54128790D01*
X114010522Y-54483206D01*
X114142008Y-54825739D01*
X114223160Y-54985008D01*
X114236056Y-55053677D01*
X114209780Y-55118418D01*
X114200356Y-55128984D01*
X110275744Y-59053597D01*
X106542221Y-62787120D01*
X106542218Y-62787123D01*
X106493966Y-62835375D01*
X106402859Y-62926481D01*
X106293371Y-63090342D01*
X106293364Y-63090355D01*
X106268326Y-63150806D01*
X106264038Y-63161158D01*
X106254964Y-63183066D01*
X106230495Y-63242138D01*
X106217950Y-63272423D01*
X106217947Y-63272431D01*
X106179500Y-63465718D01*
X101500000Y-63465718D01*
X101500000Y-47624000D01*
X101519685Y-47556961D01*
X101572489Y-47511206D01*
X101624000Y-47500000D01*
X181376000Y-47500000D01*
X181443039Y-47519685D01*
G37*
%TD.AperFunction*%
%TD*%
M02*
