M48
; DRILL file {KiCad 8.0.5} date 2024-10-11T00:23:19-0500
; FORMAT={-:-/ absolute / metric / decimal}
; #@! TF.CreationDate,2024-10-11T00:23:19-05:00
; #@! TF.GenerationSoftware,Kicad,Pcbnew,8.0.5
; #@! TF.FileFunction,Plated,1,2,PTH
FMAT,2
METRIC
; #@! TA.AperFunction,Plated,PTH,ViaDrill
T1C0.400
; #@! TA.AperFunction,Plated,PTH,ComponentDrill
T2C0.500
; #@! TA.AperFunction,Plated,PTH,ViaDrill
T3C0.600
; #@! TA.AperFunction,Plated,PTH,ViaDrill
T4C1.000
; #@! TA.AperFunction,Plated,PTH,ComponentDrill
T5C1.000
; #@! TA.AperFunction,Plated,PTH,ComponentDrill
T6C1.020
; #@! TA.AperFunction,Plated,PTH,ComponentDrill
T7C1.100
; #@! TA.AperFunction,Plated,PTH,ComponentDrill
T8C1.753
; #@! TA.AperFunction,Plated,PTH,ComponentDrill
T9C3.200
; #@! TA.AperFunction,Plated,PTH,ComponentDrill
T10C4.500
%
G90
G05
T1
X102.75Y-144.5
X105.05Y-97.15
X105.2Y-88.7
X105.4Y-115.2
X106.8Y-125.8
X106.8Y-129.0
X107.18Y-93.7
X109.2Y-84.6
X109.45Y-93.25
X110.0Y-117.8
X111.0Y-130.0
X111.0Y-132.0
X112.35Y-92.65
X112.65Y-81.65
X113.4Y-84.8
X116.0Y-117.5
X117.0Y-104.4
X117.5Y-92.6
X117.65Y-90.7
X119.35Y-86.45
X120.0Y-125.5
X120.55Y-89.3
X120.85Y-85.95
X121.35Y-92.5
X122.0Y-117.6
X124.5Y-125.5
X129.35Y-87.3
X131.5Y-125.5
X134.0Y-103.6
X137.05Y-69.75
X140.4Y-68.1
X140.45Y-81.0
X140.5Y-130.0
X140.5Y-135.0
X143.9Y-65.55
X143.9Y-66.9
X144.85Y-77.95
X144.95Y-84.8
X145.45Y-73.35
X147.5Y-135.0
X148.0Y-130.0
X153.0Y-130.0
X154.5Y-135.0
X156.5Y-119.5
X156.5Y-125.0
X157.0Y-102.0
X157.0Y-115.5
X161.0Y-126.5
X161.5Y-135.0
X166.0Y-125.0
X171.2Y-98.2
X171.5Y-119.0
X171.5Y-125.0
X175.5Y-133.5
X176.5Y-115.5
X176.5Y-127.0
X178.2Y-98.6
T2
X125.903Y-117.697
X126.606Y-116.0
X126.606Y-119.394
X128.303Y-115.297
X128.303Y-120.097
X130.0Y-116.0
X130.0Y-119.394
X130.703Y-117.697
X173.403Y-92.303
X173.903Y-54.303
X174.106Y-90.606
X174.106Y-94.0
X174.606Y-52.606
X174.606Y-56.0
X175.803Y-89.903
X175.803Y-94.703
X176.303Y-51.903
X176.303Y-56.703
X177.5Y-90.606
X177.5Y-94.0
X178.0Y-52.606
X178.0Y-56.0
X178.203Y-92.303
X178.703Y-54.303
T3
X158.0Y-131.5
X174.0Y-131.5
T4
X103.3Y-128.3
T5
X173.725Y-59.925
X173.725Y-62.465
X173.725Y-65.005
X173.725Y-67.545
X173.725Y-70.085
X176.265Y-59.925
X176.265Y-62.465
X176.265Y-65.005
X176.265Y-67.545
X176.265Y-70.085
T6
X116.1Y-66.82
X116.1Y-69.36
X118.64Y-66.82
X118.64Y-69.36
X121.18Y-66.82
X121.18Y-69.36
X123.72Y-66.82
X123.72Y-69.36
X126.26Y-66.82
X126.26Y-69.36
X128.8Y-66.82
X128.8Y-69.36
X149.34Y-68.855
X149.34Y-71.395
X151.88Y-68.855
X151.88Y-71.395
X154.42Y-68.855
X154.42Y-71.395
X156.96Y-68.855
X156.96Y-71.395
X159.5Y-68.855
X159.5Y-71.395
X162.04Y-68.855
X162.04Y-71.395
T7
X105.96Y-140.5
X108.5Y-140.5
X108.68Y-96.0
X108.68Y-111.24
X111.22Y-96.0
X111.22Y-111.24
X112.96Y-140.5
X113.76Y-96.0
X113.76Y-111.24
X115.5Y-140.5
X116.3Y-96.0
X116.3Y-111.24
X118.84Y-96.0
X118.84Y-111.24
X121.38Y-96.0
X121.38Y-111.24
X122.0Y-140.5
X123.92Y-96.0
X123.92Y-111.24
X124.54Y-140.5
X126.46Y-96.0
X126.46Y-111.24
X129.0Y-96.0
X129.0Y-111.24
X129.0Y-140.5
X131.54Y-96.0
X131.54Y-111.24
X131.54Y-140.5
X134.08Y-96.0
X134.08Y-111.24
X136.62Y-96.0
X136.62Y-111.24
X137.96Y-140.5
X139.16Y-96.0
X139.16Y-111.24
X140.5Y-140.5
X141.7Y-96.0
X141.7Y-111.24
X144.24Y-96.0
X144.24Y-111.24
X144.96Y-140.5
X146.78Y-96.0
X146.78Y-111.24
X147.5Y-140.5
X149.32Y-96.0
X149.32Y-111.24
X151.86Y-96.0
X151.86Y-111.24
X151.96Y-140.5
X154.4Y-96.0
X154.4Y-111.24
X154.5Y-140.5
X156.94Y-96.0
X156.94Y-111.24
X158.96Y-140.5
X159.48Y-96.0
X159.48Y-111.24
X161.5Y-140.5
X162.02Y-96.0
X162.02Y-111.24
X164.56Y-96.0
X164.56Y-111.24
X167.1Y-96.0
X167.1Y-111.24
X167.92Y-140.5
X170.46Y-140.5
X173.0Y-140.5
X175.54Y-140.5
X178.08Y-140.5
T8
X106.0Y-51.04
X106.0Y-55.0
X128.0Y-51.04
X128.0Y-55.0
X151.3Y-57.5
X154.3Y-57.5
T9
X128.303Y-117.697
X175.803Y-92.303
X176.303Y-54.303
T10
X117.344Y-53.4
X117.344Y-60.6
M30
