M48
; DRILL file {KiCad 8.0.5} date 2024-10-11T00:23:19-0500
; FORMAT={-:-/ absolute / metric / decimal}
; #@! TF.CreationDate,2024-10-11T00:23:19-05:00
; #@! TF.GenerationSoftware,Kicad,Pcbnew,8.0.5
; #@! TF.FileFunction,NonPlated,1,2,NPTH
FMAT,2
METRIC
; #@! TA.AperFunction,NonPlated,NPTH,ComponentDrill
T1C1.100
; #@! TA.AperFunction,NonPlated,NPTH,ComponentDrill
T2C2.180
%
G90
G05
T1
X105.96Y-143.04
X108.5Y-143.04
X112.96Y-143.04
X115.5Y-143.04
X122.0Y-143.04
X124.54Y-143.04
X129.0Y-143.04
X131.54Y-143.04
X137.96Y-143.04
X140.5Y-143.04
X144.96Y-143.04
X147.5Y-143.04
X151.96Y-143.04
X154.5Y-143.04
X158.96Y-143.04
X161.5Y-143.04
T2
X111.95Y-67.75
X111.95Y-88.75
X132.95Y-67.75
X145.19Y-69.785
X145.19Y-90.785
X166.19Y-69.785
M30
