%TF.GenerationSoftware,KiCad,Pcbnew,8.0.5*%
%TF.CreationDate,2024-10-05T14:58:48-05:00*%
%TF.ProjectId,DAQ,4441512e-6b69-4636-9164-5f7063625858,rev?*%
%TF.SameCoordinates,Original*%
%TF.FileFunction,Soldermask,Bot*%
%TF.FilePolarity,Negative*%
%FSLAX46Y46*%
G04 Gerber Fmt 4.6, Leading zero omitted, Abs format (unit mm)*
G04 Created by KiCad (PCBNEW 8.0.5) date 2024-10-05 14:58:48*
%MOMM*%
%LPD*%
G01*
G04 APERTURE LIST*
G04 Aperture macros list*
%AMRoundRect*
0 Rectangle with rounded corners*
0 $1 Rounding radius*
0 $2 $3 $4 $5 $6 $7 $8 $9 X,Y pos of 4 corners*
0 Add a 4 corners polygon primitive as box body*
4,1,4,$2,$3,$4,$5,$6,$7,$8,$9,$2,$3,0*
0 Add four circle primitives for the rounded corners*
1,1,$1+$1,$2,$3*
1,1,$1+$1,$4,$5*
1,1,$1+$1,$6,$7*
1,1,$1+$1,$8,$9*
0 Add four rect primitives between the rounded corners*
20,1,$1+$1,$2,$3,$4,$5,0*
20,1,$1+$1,$4,$5,$6,$7,0*
20,1,$1+$1,$6,$7,$8,$9,0*
20,1,$1+$1,$8,$9,$2,$3,0*%
G04 Aperture macros list end*
%ADD10RoundRect,1.500000X1.500000X-1.500000X1.500000X1.500000X-1.500000X1.500000X-1.500000X-1.500000X0*%
%ADD11C,6.000000*%
%ADD12C,2.800000*%
%ADD13C,1.750000*%
%ADD14R,1.700000X1.700000*%
%ADD15O,1.700000X1.700000*%
%ADD16C,0.800000*%
%ADD17C,6.400000*%
%ADD18C,1.100000*%
%ADD19R,2.200000X2.200000*%
%ADD20C,2.200000*%
%ADD21R,1.600000X1.600000*%
%ADD22C,1.600000*%
G04 APERTURE END LIST*
D10*
%TO.C,J11*%
X117344262Y-60600000D03*
D11*
X117344262Y-53400000D03*
%TD*%
D12*
%TO.C,U2*%
X130690000Y-69785000D03*
X109690000Y-90785000D03*
X109690000Y-69785000D03*
D13*
X113840000Y-71395000D03*
X116380000Y-71395000D03*
X118920000Y-71395000D03*
X121460000Y-71395000D03*
X124000000Y-71395000D03*
X126540000Y-71395000D03*
X113840000Y-68855000D03*
X116380000Y-68855000D03*
X118920000Y-68855000D03*
X121460000Y-68855000D03*
X124000000Y-68855000D03*
X126540000Y-68855000D03*
%TD*%
D14*
%TO.C,J14*%
X173725000Y-59925000D03*
D15*
X176265000Y-59925000D03*
X173725000Y-62465000D03*
X176265000Y-62465000D03*
X173725000Y-65005000D03*
X176265000Y-65005000D03*
X173725000Y-67545000D03*
X176265000Y-67545000D03*
X173725000Y-70085000D03*
X176265000Y-70085000D03*
%TD*%
D16*
%TO.C,H1*%
X173902944Y-54302944D03*
X174605888Y-52605888D03*
X174605888Y-56000000D03*
X176302944Y-51902944D03*
D17*
X176302944Y-54302944D03*
D16*
X176302944Y-56702944D03*
X178000000Y-52605888D03*
X178000000Y-56000000D03*
X178702944Y-54302944D03*
%TD*%
%TO.C,H2*%
X173402944Y-92302944D03*
X174105888Y-90605888D03*
X174105888Y-94000000D03*
X175802944Y-89902944D03*
D17*
X175802944Y-92302944D03*
D16*
X175802944Y-94702944D03*
X177500000Y-90605888D03*
X177500000Y-94000000D03*
X178202944Y-92302944D03*
%TD*%
%TO.C,H3*%
X135700000Y-88000000D03*
X136402944Y-86302944D03*
X136402944Y-89697056D03*
X138100000Y-85600000D03*
D17*
X138100000Y-88000000D03*
D16*
X138100000Y-90400000D03*
X139797056Y-86302944D03*
X139797056Y-89697056D03*
X140500000Y-88000000D03*
%TD*%
D18*
%TO.C,J4*%
X158960000Y-143040000D03*
X161500000Y-143040000D03*
D19*
X158960000Y-140500000D03*
D20*
X161500000Y-140500000D03*
%TD*%
D18*
%TO.C,J8*%
X129000000Y-143040000D03*
X131540000Y-143040000D03*
D19*
X129000000Y-140500000D03*
D20*
X131540000Y-140500000D03*
%TD*%
D18*
%TO.C,J7*%
X122000000Y-143040000D03*
X124540000Y-143040000D03*
D19*
X122000000Y-140500000D03*
D20*
X124540000Y-140500000D03*
%TD*%
D18*
%TO.C,J9*%
X105960000Y-143040000D03*
X108500000Y-143040000D03*
D19*
X105960000Y-140500000D03*
D20*
X108500000Y-140500000D03*
%TD*%
D19*
%TO.C,J5*%
X167920000Y-140500000D03*
D20*
X170460000Y-140500000D03*
X173000000Y-140500000D03*
X175540000Y-140500000D03*
X178080000Y-140500000D03*
%TD*%
D16*
%TO.C,H4*%
X124100000Y-119600000D03*
X124802944Y-117902944D03*
X124802944Y-121297056D03*
X126500000Y-117200000D03*
D17*
X126500000Y-119600000D03*
D16*
X126500000Y-122000000D03*
X128197056Y-117902944D03*
X128197056Y-121297056D03*
X128900000Y-119600000D03*
%TD*%
D18*
%TO.C,J1*%
X137960000Y-143040000D03*
X140500000Y-143040000D03*
D19*
X137960000Y-140500000D03*
D20*
X140500000Y-140500000D03*
%TD*%
D18*
%TO.C,J3*%
X151960000Y-143040000D03*
X154500000Y-143040000D03*
D19*
X151960000Y-140500000D03*
D20*
X154500000Y-140500000D03*
%TD*%
D21*
%TO.C,U1*%
X167100000Y-96000000D03*
D22*
X164560000Y-96000000D03*
X162020000Y-96000000D03*
X159480000Y-96000000D03*
X156940000Y-96000000D03*
X154400000Y-96000000D03*
X151860000Y-96000000D03*
X149320000Y-96000000D03*
X146780000Y-96000000D03*
X144240000Y-96000000D03*
X141700000Y-96000000D03*
X139160000Y-96000000D03*
X136620000Y-96000000D03*
X134080000Y-96000000D03*
X131540000Y-96000000D03*
X129000000Y-96000000D03*
X126460000Y-96000000D03*
X123920000Y-96000000D03*
X121380000Y-96000000D03*
X118840000Y-96000000D03*
X116300000Y-96000000D03*
X113760000Y-96000000D03*
X111220000Y-96000000D03*
X108680000Y-96000000D03*
X108680000Y-111240000D03*
X111220000Y-111240000D03*
X113760000Y-111240000D03*
X116300000Y-111240000D03*
X118840000Y-111240000D03*
X121380000Y-111240000D03*
X123920000Y-111240000D03*
X126460000Y-111240000D03*
X129000000Y-111240000D03*
X131540000Y-111240000D03*
X134080000Y-111240000D03*
X136620000Y-111240000D03*
X139160000Y-111240000D03*
X141700000Y-111240000D03*
X144240000Y-111240000D03*
X146780000Y-111240000D03*
X149320000Y-111240000D03*
X151860000Y-111240000D03*
X154400000Y-111240000D03*
X156940000Y-111240000D03*
X159480000Y-111240000D03*
X162020000Y-111240000D03*
X164560000Y-111240000D03*
X167100000Y-111240000D03*
%TD*%
D18*
%TO.C,J2*%
X144960000Y-143040000D03*
X147500000Y-143040000D03*
D19*
X144960000Y-140500000D03*
D20*
X147500000Y-140500000D03*
%TD*%
D18*
%TO.C,J10*%
X112960000Y-143040000D03*
X115500000Y-143040000D03*
D19*
X112960000Y-140500000D03*
D20*
X115500000Y-140500000D03*
%TD*%
D12*
%TO.C,U3*%
X166190000Y-69785000D03*
X145190000Y-90785000D03*
X145190000Y-69785000D03*
D13*
X149340000Y-71395000D03*
X151880000Y-71395000D03*
X154420000Y-71395000D03*
X156960000Y-71395000D03*
X159500000Y-71395000D03*
X162040000Y-71395000D03*
X149340000Y-68855000D03*
X151880000Y-68855000D03*
X154420000Y-68855000D03*
X156960000Y-68855000D03*
X159500000Y-68855000D03*
X162040000Y-68855000D03*
%TD*%
M02*
