G04 #@! TF.GenerationSoftware,KiCad,Pcbnew,8.0.5*
G04 #@! TF.CreationDate,2024-10-11T01:11:14-05:00*
G04 #@! TF.ProjectId,DAQ,4441512e-6b69-4636-9164-5f7063625858,rev?*
G04 #@! TF.SameCoordinates,Original*
G04 #@! TF.FileFunction,Soldermask,Top*
G04 #@! TF.FilePolarity,Negative*
%FSLAX46Y46*%
G04 Gerber Fmt 4.6, Leading zero omitted, Abs format (unit mm)*
G04 Created by KiCad (PCBNEW 8.0.5) date 2024-10-11 01:11:14*
%MOMM*%
%LPD*%
G01*
G04 APERTURE LIST*
G04 Aperture macros list*
%AMRoundRect*
0 Rectangle with rounded corners*
0 $1 Rounding radius*
0 $2 $3 $4 $5 $6 $7 $8 $9 X,Y pos of 4 corners*
0 Add a 4 corners polygon primitive as box body*
4,1,4,$2,$3,$4,$5,$6,$7,$8,$9,$2,$3,0*
0 Add four circle primitives for the rounded corners*
1,1,$1+$1,$2,$3*
1,1,$1+$1,$4,$5*
1,1,$1+$1,$6,$7*
1,1,$1+$1,$8,$9*
0 Add four rect primitives between the rounded corners*
20,1,$1+$1,$2,$3,$4,$5,0*
20,1,$1+$1,$4,$5,$6,$7,0*
20,1,$1+$1,$6,$7,$8,$9,0*
20,1,$1+$1,$8,$9,$2,$3,0*%
G04 Aperture macros list end*
%ADD10RoundRect,0.218750X-0.218750X-0.256250X0.218750X-0.256250X0.218750X0.256250X-0.218750X0.256250X0*%
%ADD11RoundRect,0.200000X0.275000X-0.200000X0.275000X0.200000X-0.275000X0.200000X-0.275000X-0.200000X0*%
%ADD12RoundRect,0.200000X0.200000X0.275000X-0.200000X0.275000X-0.200000X-0.275000X0.200000X-0.275000X0*%
%ADD13RoundRect,1.500000X1.500000X-1.500000X1.500000X1.500000X-1.500000X1.500000X-1.500000X-1.500000X0*%
%ADD14C,6.000000*%
%ADD15RoundRect,0.200000X-0.275000X0.200000X-0.275000X-0.200000X0.275000X-0.200000X0.275000X0.200000X0*%
%ADD16RoundRect,0.150000X-0.150000X0.725000X-0.150000X-0.725000X0.150000X-0.725000X0.150000X0.725000X0*%
%ADD17RoundRect,0.218750X-0.256250X0.218750X-0.256250X-0.218750X0.256250X-0.218750X0.256250X0.218750X0*%
%ADD18R,0.939800X2.489200*%
%ADD19R,6.781800X6.934200*%
%ADD20RoundRect,0.200000X-0.200000X-0.275000X0.200000X-0.275000X0.200000X0.275000X-0.200000X0.275000X0*%
%ADD21RoundRect,0.218750X0.218750X0.256250X-0.218750X0.256250X-0.218750X-0.256250X0.218750X-0.256250X0*%
%ADD22C,1.000000*%
%ADD23C,2.800000*%
%ADD24C,1.750000*%
%ADD25R,1.700000X1.700000*%
%ADD26O,1.700000X1.700000*%
%ADD27C,0.800000*%
%ADD28C,6.400000*%
%ADD29C,1.100000*%
%ADD30R,2.200000X2.200000*%
%ADD31C,2.200000*%
%ADD32RoundRect,0.218750X0.256250X-0.218750X0.256250X0.218750X-0.256250X0.218750X-0.256250X-0.218750X0*%
%ADD33RoundRect,0.250000X0.337500X0.475000X-0.337500X0.475000X-0.337500X-0.475000X0.337500X-0.475000X0*%
%ADD34RoundRect,0.250000X0.475000X-0.337500X0.475000X0.337500X-0.475000X0.337500X-0.475000X-0.337500X0*%
%ADD35C,2.260600*%
%ADD36R,1.600000X1.600000*%
%ADD37C,1.600000*%
%ADD38R,2.540000X1.270000*%
%ADD39R,1.650000X3.430000*%
G04 APERTURE END LIST*
D10*
X174212500Y-117500000D03*
X175787500Y-117500000D03*
D11*
X124500000Y-128500000D03*
X124500000Y-126850000D03*
X114500000Y-119325000D03*
X114500000Y-117675000D03*
D10*
X158212500Y-117500000D03*
X159787500Y-117500000D03*
D12*
X135825000Y-52500000D03*
X134175000Y-52500000D03*
D13*
X117344262Y-60600000D03*
D14*
X117344262Y-53400000D03*
D15*
X114500000Y-122675000D03*
X114500000Y-124325000D03*
D16*
X109405000Y-127425000D03*
X108135000Y-127425000D03*
X106865000Y-127425000D03*
X105595000Y-127425000D03*
X105595000Y-132575000D03*
X106865000Y-132575000D03*
X108135000Y-132575000D03*
X109405000Y-132575000D03*
D15*
X120500000Y-117675000D03*
X120500000Y-119325000D03*
D12*
X167825000Y-66000000D03*
X166175000Y-66000000D03*
D15*
X111500000Y-117675000D03*
X111500000Y-119325000D03*
D12*
X173825000Y-81460000D03*
X172175000Y-81460000D03*
D15*
X161500000Y-131675000D03*
X161500000Y-133325000D03*
X106300000Y-94800000D03*
X106300000Y-96450000D03*
D17*
X140800000Y-63812500D03*
X140800000Y-65387500D03*
D18*
X158709999Y-128913500D03*
D19*
X161000000Y-122500000D03*
D18*
X163290001Y-128913500D03*
D15*
X140500000Y-131675000D03*
X140500000Y-133325000D03*
D20*
X177675000Y-117500000D03*
X179325000Y-117500000D03*
D16*
X116405000Y-127425000D03*
X115135000Y-127425000D03*
X113865000Y-127425000D03*
X112595000Y-127425000D03*
X112595000Y-132575000D03*
X113865000Y-132575000D03*
X115135000Y-132575000D03*
X116405000Y-132575000D03*
D21*
X177787500Y-85000000D03*
X176212500Y-85000000D03*
D11*
X124500000Y-133325000D03*
X124500000Y-131675000D03*
D18*
X174209999Y-128818000D03*
D19*
X176500000Y-122404500D03*
D18*
X178790001Y-128818000D03*
D22*
X167000000Y-60000000D03*
D23*
X132950000Y-67750000D03*
X111950000Y-88750000D03*
X111950000Y-67750000D03*
D24*
X116100000Y-69360000D03*
X118640000Y-69360000D03*
X121180000Y-69360000D03*
X123720000Y-69360000D03*
X126260000Y-69360000D03*
X128800000Y-69360000D03*
X116100000Y-66820000D03*
X118640000Y-66820000D03*
X121180000Y-66820000D03*
X123720000Y-66820000D03*
X126260000Y-66820000D03*
X128800000Y-66820000D03*
D15*
X140500000Y-78175000D03*
X140500000Y-79825000D03*
D22*
X137500000Y-59000000D03*
D25*
X173725000Y-59925000D03*
D26*
X176265000Y-59925000D03*
X173725000Y-62465000D03*
X176265000Y-62465000D03*
X173725000Y-65005000D03*
X176265000Y-65005000D03*
X173725000Y-67545000D03*
X176265000Y-67545000D03*
X173725000Y-70085000D03*
X176265000Y-70085000D03*
D11*
X102750000Y-139075000D03*
X102750000Y-137425000D03*
D22*
X166500000Y-117500000D03*
D11*
X131500000Y-128325000D03*
X131500000Y-126675000D03*
D10*
X134212500Y-50000000D03*
X135787500Y-50000000D03*
D27*
X173902944Y-54302944D03*
X174605888Y-52605888D03*
X174605888Y-56000000D03*
X176302944Y-51902944D03*
D28*
X176302944Y-54302944D03*
D27*
X176302944Y-56702944D03*
X178000000Y-52605888D03*
X178000000Y-56000000D03*
X178702944Y-54302944D03*
X173402944Y-92302944D03*
X174105888Y-90605888D03*
X174105888Y-94000000D03*
X175802944Y-89902944D03*
D28*
X175802944Y-92302944D03*
D27*
X175802944Y-94702944D03*
X177500000Y-90605888D03*
X177500000Y-94000000D03*
X178202944Y-92302944D03*
D15*
X108500000Y-122675000D03*
X108500000Y-124325000D03*
D29*
X158960000Y-143040000D03*
X161500000Y-143040000D03*
D30*
X158960000Y-140500000D03*
D31*
X161500000Y-140500000D03*
D12*
X173825000Y-77960000D03*
X172175000Y-77960000D03*
D22*
X141000000Y-54500000D03*
D32*
X102750000Y-143037500D03*
X102750000Y-141462500D03*
D11*
X117500000Y-119325000D03*
X117500000Y-117675000D03*
D15*
X147500000Y-131675000D03*
X147500000Y-133325000D03*
D11*
X140400000Y-71325000D03*
X140400000Y-69675000D03*
D29*
X129000000Y-143040000D03*
X131540000Y-143040000D03*
D30*
X129000000Y-140500000D03*
D31*
X131540000Y-140500000D03*
D22*
X179000000Y-113000000D03*
D12*
X155000000Y-118000000D03*
X153350000Y-118000000D03*
D29*
X122000000Y-143040000D03*
X124540000Y-143040000D03*
D30*
X122000000Y-140500000D03*
D31*
X124540000Y-140500000D03*
D29*
X105960000Y-143040000D03*
X108500000Y-143040000D03*
D30*
X105960000Y-140500000D03*
D31*
X108500000Y-140500000D03*
D21*
X177787500Y-74500000D03*
X176212500Y-74500000D03*
D20*
X162185000Y-117500000D03*
X163835000Y-117500000D03*
D33*
X179037500Y-132000000D03*
X176962500Y-132000000D03*
D11*
X108500000Y-119325000D03*
X108500000Y-117675000D03*
D15*
X140500000Y-74675000D03*
X140500000Y-76325000D03*
D11*
X120000000Y-133325000D03*
X120000000Y-131675000D03*
D34*
X165780000Y-129137500D03*
X165780000Y-127062500D03*
D11*
X105500000Y-119325000D03*
X105500000Y-117675000D03*
D12*
X173825000Y-84960000D03*
X172175000Y-84960000D03*
D15*
X106300000Y-98100000D03*
X106300000Y-99750000D03*
D22*
X135000000Y-56000000D03*
D30*
X167920000Y-140500000D03*
D31*
X170460000Y-140500000D03*
X173000000Y-140500000D03*
X175540000Y-140500000D03*
X178080000Y-140500000D03*
D35*
X128000000Y-55000000D03*
X128000000Y-51039999D03*
X154300000Y-57500000D03*
D11*
X138950000Y-65375000D03*
X138950000Y-63725000D03*
D21*
X177787500Y-81500000D03*
X176212500Y-81500000D03*
D27*
X125902944Y-117697056D03*
X126605888Y-116000000D03*
X126605888Y-119394112D03*
X128302944Y-115297056D03*
D28*
X128302944Y-117697056D03*
D27*
X128302944Y-120097056D03*
X130000000Y-116000000D03*
X130000000Y-119394112D03*
X130702944Y-117697056D03*
D15*
X105500000Y-122675000D03*
X105500000Y-124325000D03*
X111500000Y-122675000D03*
X111500000Y-124325000D03*
D35*
X106000000Y-55000000D03*
X106000000Y-51039999D03*
D29*
X137960000Y-143040000D03*
X140500000Y-143040000D03*
D30*
X137960000Y-140500000D03*
D31*
X140500000Y-140500000D03*
D10*
X166212500Y-63500000D03*
X167787500Y-63500000D03*
D15*
X138800000Y-69675000D03*
X138800000Y-71325000D03*
D29*
X151960000Y-143040000D03*
X154500000Y-143040000D03*
D30*
X151960000Y-140500000D03*
D31*
X154500000Y-140500000D03*
D34*
X156280000Y-129137500D03*
X156280000Y-127062500D03*
D36*
X167100000Y-96000000D03*
D37*
X164560000Y-96000000D03*
X162020000Y-96000000D03*
X159480000Y-96000000D03*
X156940000Y-96000000D03*
X154400000Y-96000000D03*
X151860000Y-96000000D03*
X149320000Y-96000000D03*
X146780000Y-96000000D03*
X144240000Y-96000000D03*
X141700000Y-96000000D03*
X139160000Y-96000000D03*
X136620000Y-96000000D03*
X134080000Y-96000000D03*
X131540000Y-96000000D03*
X129000000Y-96000000D03*
X126460000Y-96000000D03*
X123920000Y-96000000D03*
X121380000Y-96000000D03*
X118840000Y-96000000D03*
X116300000Y-96000000D03*
X113760000Y-96000000D03*
X111220000Y-96000000D03*
X108680000Y-96000000D03*
X108680000Y-111240000D03*
X111220000Y-111240000D03*
X113760000Y-111240000D03*
X116300000Y-111240000D03*
X118840000Y-111240000D03*
X121380000Y-111240000D03*
X123920000Y-111240000D03*
X126460000Y-111240000D03*
X129000000Y-111240000D03*
X131540000Y-111240000D03*
X134080000Y-111240000D03*
X136620000Y-111240000D03*
X139160000Y-111240000D03*
X141700000Y-111240000D03*
X144240000Y-111240000D03*
X146780000Y-111240000D03*
X149320000Y-111240000D03*
X151860000Y-111240000D03*
X154400000Y-111240000D03*
X156940000Y-111240000D03*
X159480000Y-111240000D03*
X162020000Y-111240000D03*
X164560000Y-111240000D03*
X167100000Y-111240000D03*
D29*
X144960000Y-143040000D03*
X147500000Y-143040000D03*
D30*
X144960000Y-140500000D03*
D31*
X147500000Y-140500000D03*
D12*
X173825000Y-74460000D03*
X172175000Y-74460000D03*
D20*
X153350000Y-115000000D03*
X155000000Y-115000000D03*
D12*
X172825000Y-113000000D03*
X171175000Y-113000000D03*
D20*
X171175000Y-111000000D03*
X172825000Y-111000000D03*
D11*
X131500000Y-133325000D03*
X131500000Y-131675000D03*
D21*
X177787500Y-78000000D03*
X176212500Y-78000000D03*
D29*
X112960000Y-143040000D03*
X115500000Y-143040000D03*
D30*
X112960000Y-140500000D03*
D31*
X115500000Y-140500000D03*
D15*
X120500000Y-122675000D03*
X120500000Y-124325000D03*
D34*
X171500000Y-129037500D03*
X171500000Y-126962500D03*
D23*
X166190000Y-69785000D03*
X145190000Y-90785000D03*
X145190000Y-69785000D03*
D24*
X149340000Y-71395000D03*
X151880000Y-71395000D03*
X154420000Y-71395000D03*
X156960000Y-71395000D03*
X159500000Y-71395000D03*
X162040000Y-71395000D03*
X149340000Y-68855000D03*
X151880000Y-68855000D03*
X154420000Y-68855000D03*
X156960000Y-68855000D03*
X159500000Y-68855000D03*
X162040000Y-68855000D03*
D15*
X117500000Y-122675000D03*
X117500000Y-124325000D03*
D38*
X148300000Y-60500000D03*
X148300000Y-57500000D03*
X148300000Y-54500000D03*
X157700000Y-60500000D03*
X157700000Y-57500000D03*
X157700000Y-54500000D03*
D39*
X153000000Y-64385000D03*
X153000000Y-50615000D03*
D11*
X120000000Y-128325000D03*
X120000000Y-126675000D03*
D35*
X151300000Y-57500000D03*
D15*
X154500000Y-131675000D03*
X154500000Y-133325000D03*
M02*
