M48
; DRILL file {KiCad 8.0.5} date 2024-10-05T14:58:51-0500
; FORMAT={-:-/ absolute / inch / decimal}
; #@! TF.CreationDate,2024-10-05T14:58:51-05:00
; #@! TF.GenerationSoftware,Kicad,Pcbnew,8.0.5
; #@! TF.FileFunction,MixedPlating,1,2
FMAT,2
INCH
; #@! TA.AperFunction,Plated,PTH,ViaDrill
T1C0.0157
; #@! TA.AperFunction,Plated,PTH,ComponentDrill
T2C0.0197
; #@! TA.AperFunction,Plated,PTH,ViaDrill
T3C0.0236
; #@! TA.AperFunction,Plated,PTH,ViaDrill
T4C0.0394
; #@! TA.AperFunction,Plated,PTH,ComponentDrill
T5C0.0394
; #@! TA.AperFunction,Plated,PTH,ComponentDrill
T6C0.0402
; #@! TA.AperFunction,Plated,PTH,ComponentDrill
T7C0.0433
; #@! TA.AperFunction,Plated,PTH,ComponentDrill
T8C0.1260
; #@! TA.AperFunction,Plated,PTH,ComponentDrill
T9C0.1772
; #@! TA.AperFunction,NonPlated,NPTH,ComponentDrill
T10C0.0433
; #@! TA.AperFunction,NonPlated,NPTH,ComponentDrill
T11C0.0858
%
G90
G05
T1
X4.1496Y-4.5354
X4.2047Y-4.9528
X4.2047Y-5.0787
X4.2992Y-3.3307
X4.3307Y-4.6378
X4.3701Y-5.1181
X4.3701Y-5.1969
X4.4094Y-2.189
X4.5669Y-4.626
X4.5748Y-3.1181
X4.6063Y-4.1102
X4.7244Y-4.9409
X4.8031Y-4.6299
X4.874Y-3.0157
X4.9016Y-4.9409
X5.1772Y-4.9409
X5.2756Y-4.0787
X5.3858Y-3.1417
X5.5315Y-5.1181
X5.5315Y-5.315
X5.5512Y-2.5394
X5.6063Y-3.1339
X5.748Y-2.5394
X5.8071Y-5.315
X5.8268Y-5.1181
X6.0236Y-5.1181
X6.0827Y-5.315
X6.1614Y-4.7047
X6.1614Y-4.9213
X6.1811Y-4.0157
X6.1811Y-4.5472
X6.3386Y-4.9803
X6.3583Y-5.315
X6.5354Y-4.9213
X6.7402Y-3.8661
X6.752Y-4.9213
X6.9488Y-5.0
X7.0157Y-3.8819
T2
X4.8858Y-4.7087
X4.9135Y-4.6418
X4.9135Y-4.7755
X4.9803Y-4.6142
X4.9803Y-4.8031
X5.0471Y-4.6418
X5.0471Y-4.7755
X5.0748Y-4.7087
X5.3425Y-3.4646
X5.3702Y-3.3978
X5.3702Y-3.5314
X5.437Y-3.3701
X5.437Y-3.5591
X5.5038Y-3.3978
X5.5038Y-3.5314
X5.5315Y-3.4646
X6.8269Y-3.634
X6.8466Y-2.1379
X6.8546Y-3.5672
X6.8546Y-3.7008
X6.8742Y-2.0711
X6.8742Y-2.2047
X6.9214Y-3.5395
X6.9214Y-3.7285
X6.9411Y-2.0434
X6.9411Y-2.2324
X6.9882Y-3.5672
X6.9882Y-3.7008
X7.0079Y-2.0711
X7.0079Y-2.2047
X7.0159Y-3.634
X7.0355Y-2.1379
T3
X6.2402Y-5.1575
X7.0276Y-5.1772
T4
X4.0748Y-5.0591
X4.9213Y-2.4213
T5
X6.8396Y-2.3593
X6.8396Y-2.4593
X6.8396Y-2.5593
X6.8396Y-2.6593
X6.8396Y-2.7593
X6.9396Y-2.3593
X6.9396Y-2.4593
X6.9396Y-2.5593
X6.9396Y-2.6593
X6.9396Y-2.7593
T6
X4.4819Y-2.7108
X4.4819Y-2.8108
X4.5819Y-2.7108
X4.5819Y-2.8108
X4.6819Y-2.7108
X4.6819Y-2.8108
X4.7819Y-2.7108
X4.7819Y-2.8108
X4.8819Y-2.7108
X4.8819Y-2.8108
X4.9819Y-2.7108
X4.9819Y-2.8108
X5.8795Y-2.7108
X5.8795Y-2.8108
X5.9795Y-2.7108
X5.9795Y-2.8108
X6.0795Y-2.7108
X6.0795Y-2.8108
X6.1795Y-2.7108
X6.1795Y-2.8108
X6.2795Y-2.7108
X6.2795Y-2.8108
X6.3795Y-2.7108
X6.3795Y-2.8108
T7
X4.1717Y-5.5315
X4.2717Y-5.5315
X4.2787Y-3.7795
X4.2787Y-4.3795
X4.3787Y-3.7795
X4.3787Y-4.3795
X4.4472Y-5.5315
X4.4787Y-3.7795
X4.4787Y-4.3795
X4.5472Y-5.5315
X4.5787Y-3.7795
X4.5787Y-4.3795
X4.6787Y-3.7795
X4.6787Y-4.3795
X4.7787Y-3.7795
X4.7787Y-4.3795
X4.8031Y-5.5315
X4.8787Y-3.7795
X4.8787Y-4.3795
X4.9031Y-5.5315
X4.9787Y-3.7795
X4.9787Y-4.3795
X5.0787Y-3.7795
X5.0787Y-4.3795
X5.0787Y-5.5315
X5.1787Y-3.7795
X5.1787Y-4.3795
X5.1787Y-5.5315
X5.2787Y-3.7795
X5.2787Y-4.3795
X5.3787Y-3.7795
X5.3787Y-4.3795
X5.4315Y-5.5315
X5.4787Y-3.7795
X5.4787Y-4.3795
X5.5315Y-5.5315
X5.5787Y-3.7795
X5.5787Y-4.3795
X5.6787Y-3.7795
X5.6787Y-4.3795
X5.7071Y-5.5315
X5.7787Y-3.7795
X5.7787Y-4.3795
X5.8071Y-5.5315
X5.8787Y-3.7795
X5.8787Y-4.3795
X5.9787Y-3.7795
X5.9787Y-4.3795
X5.9827Y-5.5315
X6.0787Y-3.7795
X6.0787Y-4.3795
X6.0827Y-5.5315
X6.1787Y-3.7795
X6.1787Y-4.3795
X6.2583Y-5.5315
X6.2787Y-3.7795
X6.2787Y-4.3795
X6.3583Y-5.5315
X6.3787Y-3.7795
X6.3787Y-4.3795
X6.4787Y-3.7795
X6.4787Y-4.3795
X6.5787Y-3.7795
X6.5787Y-4.3795
X6.611Y-5.5315
X6.711Y-5.5315
X6.811Y-5.5315
X6.911Y-5.5315
X7.011Y-5.5315
T8
X4.9803Y-4.7087
X5.437Y-3.4646
X6.9214Y-3.634
X6.9411Y-2.1379
T9
X4.6199Y-2.1024
X4.6199Y-2.3858
T10
X4.1717Y-5.6315
X4.2717Y-5.6315
X4.4472Y-5.6315
X4.5472Y-5.6315
X4.8031Y-5.6315
X4.9031Y-5.6315
X5.0787Y-5.6315
X5.1787Y-5.6315
X5.4315Y-5.6315
X5.5315Y-5.6315
X5.7071Y-5.6315
X5.8071Y-5.6315
X5.9827Y-5.6315
X6.0827Y-5.6315
X6.2583Y-5.6315
X6.3583Y-5.6315
T11
X4.3185Y-2.7474
X4.3185Y-3.5742
X5.1453Y-2.7474
X5.7161Y-2.7474
X5.7161Y-3.5742
X6.5429Y-2.7474
M30
