%TF.GenerationSoftware,KiCad,Pcbnew,5.1.9-73d0e3b20d~88~ubuntu20.04.1*%
%TF.CreationDate,2021-04-18T23:14:10-05:00*%
%TF.ProjectId,POWER,504f5745-522e-46b6-9963-61645f706362,rev?*%
%TF.SameCoordinates,Original*%
%TF.FileFunction,Paste,Top*%
%TF.FilePolarity,Positive*%
%FSLAX46Y46*%
G04 Gerber Fmt 4.6, Leading zero omitted, Abs format (unit mm)*
G04 Created by KiCad (PCBNEW 5.1.9-73d0e3b20d~88~ubuntu20.04.1) date 2021-04-18 23:14:10*
%MOMM*%
%LPD*%
G01*
G04 APERTURE LIST*
%ADD10R,2.150000X1.300000*%
%ADD11R,1.200000X0.800000*%
%ADD12R,1.800000X4.000000*%
%ADD13R,1.000000X3.000000*%
%ADD14R,2.750000X3.050000*%
%ADD15R,1.200000X2.200000*%
%ADD16R,1.270000X2.540000*%
%ADD17R,3.430000X1.650000*%
%ADD18R,3.000000X1.000000*%
%ADD19R,4.000000X1.800000*%
G04 APERTURE END LIST*
%TO.C,R102*%
G36*
G01*
X240725000Y-99445000D02*
X240175000Y-99445000D01*
G75*
G02*
X239975000Y-99245000I0J200000D01*
G01*
X239975000Y-98845000D01*
G75*
G02*
X240175000Y-98645000I200000J0D01*
G01*
X240725000Y-98645000D01*
G75*
G02*
X240925000Y-98845000I0J-200000D01*
G01*
X240925000Y-99245000D01*
G75*
G02*
X240725000Y-99445000I-200000J0D01*
G01*
G37*
G36*
G01*
X240725000Y-101095000D02*
X240175000Y-101095000D01*
G75*
G02*
X239975000Y-100895000I0J200000D01*
G01*
X239975000Y-100495000D01*
G75*
G02*
X240175000Y-100295000I200000J0D01*
G01*
X240725000Y-100295000D01*
G75*
G02*
X240925000Y-100495000I0J-200000D01*
G01*
X240925000Y-100895000D01*
G75*
G02*
X240725000Y-101095000I-200000J0D01*
G01*
G37*
%TD*%
%TO.C,R101*%
G36*
G01*
X193505000Y-99405000D02*
X192955000Y-99405000D01*
G75*
G02*
X192755000Y-99205000I0J200000D01*
G01*
X192755000Y-98805000D01*
G75*
G02*
X192955000Y-98605000I200000J0D01*
G01*
X193505000Y-98605000D01*
G75*
G02*
X193705000Y-98805000I0J-200000D01*
G01*
X193705000Y-99205000D01*
G75*
G02*
X193505000Y-99405000I-200000J0D01*
G01*
G37*
G36*
G01*
X193505000Y-101055000D02*
X192955000Y-101055000D01*
G75*
G02*
X192755000Y-100855000I0J200000D01*
G01*
X192755000Y-100455000D01*
G75*
G02*
X192955000Y-100255000I200000J0D01*
G01*
X193505000Y-100255000D01*
G75*
G02*
X193705000Y-100455000I0J-200000D01*
G01*
X193705000Y-100855000D01*
G75*
G02*
X193505000Y-101055000I-200000J0D01*
G01*
G37*
%TD*%
D10*
%TO.C,J6*%
X248645000Y-213075000D03*
X248645000Y-200525000D03*
D11*
X246350000Y-202425000D03*
X246350000Y-203675000D03*
X246350000Y-204925000D03*
X246350000Y-206175000D03*
X246350000Y-207425000D03*
X246350000Y-208675000D03*
X246350000Y-209925000D03*
X246350000Y-211175000D03*
%TD*%
D10*
%TO.C,J5*%
X248645000Y-197075000D03*
X248645000Y-184525000D03*
D11*
X246350000Y-186425000D03*
X246350000Y-187675000D03*
X246350000Y-188925000D03*
X246350000Y-190175000D03*
X246350000Y-191425000D03*
X246350000Y-192675000D03*
X246350000Y-193925000D03*
X246350000Y-195175000D03*
%TD*%
D10*
%TO.C,J3*%
X184955000Y-184525000D03*
X184955000Y-197075000D03*
D11*
X187250000Y-195175000D03*
X187250000Y-193925000D03*
X187250000Y-192675000D03*
X187250000Y-191425000D03*
X187250000Y-190175000D03*
X187250000Y-188925000D03*
X187250000Y-187675000D03*
X187250000Y-186425000D03*
%TD*%
D10*
%TO.C,J2*%
X184955000Y-200525000D03*
X184955000Y-213075000D03*
D11*
X187250000Y-211175000D03*
X187250000Y-209925000D03*
X187250000Y-208675000D03*
X187250000Y-207425000D03*
X187250000Y-206175000D03*
X187250000Y-204925000D03*
X187250000Y-203675000D03*
X187250000Y-202425000D03*
%TD*%
%TO.C,D102*%
G36*
G01*
X240193750Y-97210000D02*
X240706250Y-97210000D01*
G75*
G02*
X240925000Y-97428750I0J-218750D01*
G01*
X240925000Y-97866250D01*
G75*
G02*
X240706250Y-98085000I-218750J0D01*
G01*
X240193750Y-98085000D01*
G75*
G02*
X239975000Y-97866250I0J218750D01*
G01*
X239975000Y-97428750D01*
G75*
G02*
X240193750Y-97210000I218750J0D01*
G01*
G37*
G36*
G01*
X240193750Y-95635000D02*
X240706250Y-95635000D01*
G75*
G02*
X240925000Y-95853750I0J-218750D01*
G01*
X240925000Y-96291250D01*
G75*
G02*
X240706250Y-96510000I-218750J0D01*
G01*
X240193750Y-96510000D01*
G75*
G02*
X239975000Y-96291250I0J218750D01*
G01*
X239975000Y-95853750D01*
G75*
G02*
X240193750Y-95635000I218750J0D01*
G01*
G37*
%TD*%
%TO.C,D101*%
G36*
G01*
X192973750Y-97170000D02*
X193486250Y-97170000D01*
G75*
G02*
X193705000Y-97388750I0J-218750D01*
G01*
X193705000Y-97826250D01*
G75*
G02*
X193486250Y-98045000I-218750J0D01*
G01*
X192973750Y-98045000D01*
G75*
G02*
X192755000Y-97826250I0J218750D01*
G01*
X192755000Y-97388750D01*
G75*
G02*
X192973750Y-97170000I218750J0D01*
G01*
G37*
G36*
G01*
X192973750Y-95595000D02*
X193486250Y-95595000D01*
G75*
G02*
X193705000Y-95813750I0J-218750D01*
G01*
X193705000Y-96251250D01*
G75*
G02*
X193486250Y-96470000I-218750J0D01*
G01*
X192973750Y-96470000D01*
G75*
G02*
X192755000Y-96251250I0J218750D01*
G01*
X192755000Y-95813750D01*
G75*
G02*
X192973750Y-95595000I218750J0D01*
G01*
G37*
%TD*%
D12*
%TO.C,J103*%
X232670000Y-85540000D03*
X225870000Y-85540000D03*
D13*
X230270000Y-89840000D03*
X228270000Y-89840000D03*
%TD*%
D12*
%TO.C,J102*%
X207580000Y-85470000D03*
X200780000Y-85470000D03*
D13*
X205180000Y-89770000D03*
X203180000Y-89770000D03*
%TD*%
D12*
%TO.C,J101*%
X220130000Y-85530000D03*
X213330000Y-85530000D03*
D13*
X217730000Y-89830000D03*
X215730000Y-89830000D03*
%TD*%
D14*
%TO.C,U703*%
X193675000Y-175125000D03*
X196725000Y-178475000D03*
X196725000Y-175125000D03*
X193675000Y-178475000D03*
D15*
X192920000Y-170500000D03*
X195200000Y-170500000D03*
X197480000Y-170500000D03*
%TD*%
D16*
%TO.C,J8*%
X223745000Y-207850000D03*
X226745000Y-207850000D03*
X229745000Y-207850000D03*
X223745000Y-217250000D03*
X226745000Y-217250000D03*
X229745000Y-217250000D03*
D17*
X219860000Y-212550000D03*
X233630000Y-212550000D03*
%TD*%
D16*
%TO.C,J7*%
X203745000Y-207850000D03*
X206745000Y-207850000D03*
X209745000Y-207850000D03*
X203745000Y-217250000D03*
X206745000Y-217250000D03*
X209745000Y-217250000D03*
D17*
X199860000Y-212550000D03*
X213630000Y-212550000D03*
%TD*%
D18*
%TO.C,J4*%
X243950000Y-84800000D03*
X243950000Y-82800000D03*
X243950000Y-80800000D03*
X243950000Y-78800000D03*
D19*
X248250000Y-87200000D03*
X248250000Y-72400000D03*
D18*
X243950000Y-76800000D03*
X243950000Y-74800000D03*
%TD*%
%TO.C,J1*%
X189700000Y-74800000D03*
X189700000Y-76800000D03*
X189700000Y-78800000D03*
X189700000Y-80800000D03*
D19*
X185400000Y-72400000D03*
X185400000Y-87200000D03*
D18*
X189700000Y-82800000D03*
X189700000Y-84800000D03*
%TD*%
%TO.C,C702*%
G36*
G01*
X201245000Y-171140000D02*
X202195000Y-171140000D01*
G75*
G02*
X202445000Y-171390000I0J-250000D01*
G01*
X202445000Y-172065000D01*
G75*
G02*
X202195000Y-172315000I-250000J0D01*
G01*
X201245000Y-172315000D01*
G75*
G02*
X200995000Y-172065000I0J250000D01*
G01*
X200995000Y-171390000D01*
G75*
G02*
X201245000Y-171140000I250000J0D01*
G01*
G37*
G36*
G01*
X201245000Y-169065000D02*
X202195000Y-169065000D01*
G75*
G02*
X202445000Y-169315000I0J-250000D01*
G01*
X202445000Y-169990000D01*
G75*
G02*
X202195000Y-170240000I-250000J0D01*
G01*
X201245000Y-170240000D01*
G75*
G02*
X200995000Y-169990000I0J250000D01*
G01*
X200995000Y-169315000D01*
G75*
G02*
X201245000Y-169065000I250000J0D01*
G01*
G37*
%TD*%
%TO.C,C701*%
G36*
G01*
X188205000Y-171140000D02*
X189155000Y-171140000D01*
G75*
G02*
X189405000Y-171390000I0J-250000D01*
G01*
X189405000Y-172065000D01*
G75*
G02*
X189155000Y-172315000I-250000J0D01*
G01*
X188205000Y-172315000D01*
G75*
G02*
X187955000Y-172065000I0J250000D01*
G01*
X187955000Y-171390000D01*
G75*
G02*
X188205000Y-171140000I250000J0D01*
G01*
G37*
G36*
G01*
X188205000Y-169065000D02*
X189155000Y-169065000D01*
G75*
G02*
X189405000Y-169315000I0J-250000D01*
G01*
X189405000Y-169990000D01*
G75*
G02*
X189155000Y-170240000I-250000J0D01*
G01*
X188205000Y-170240000D01*
G75*
G02*
X187955000Y-169990000I0J250000D01*
G01*
X187955000Y-169315000D01*
G75*
G02*
X188205000Y-169065000I250000J0D01*
G01*
G37*
%TD*%
M02*
