M48
; DRILL file {KiCad 6.0.2} date Mon Feb 14 22:33:07 2022
; FORMAT={-:-/ absolute / inch / decimal}
; #@! TF.CreationDate,2022-02-14T22:33:07-06:00
; #@! TF.GenerationSoftware,Kicad,Pcbnew,6.0.2
; #@! TF.FileFunction,Plated,1,2,PTH
FMAT,2
INCH
; #@! TA.AperFunction,Plated,PTH,ViaDrill
T1C0.0197
; #@! TA.AperFunction,Plated,PTH,ComponentDrill
T2C0.0197
; #@! TA.AperFunction,Plated,PTH,ComponentDrill
T3C0.0295
; #@! TA.AperFunction,Plated,PTH,ComponentDrill
T4C0.0300
; #@! TA.AperFunction,Plated,PTH,ComponentDrill
T5C0.1260
%
G90
G05
T1
X0.0955Y-3.3297
X0.1949Y-2.4823
X0.2736Y-2.4843
X0.3711Y-3.3297
X0.4075Y-0.6969
X0.5866Y-2.3012
X0.5886Y-3.4429
X0.6673Y-2.4587
X0.7106Y-3.4488
X1.0551Y-2.4409
X1.1299Y-2.4449
X2.1102Y-3.1181
T2
X0.0429Y-3.5043
X0.0433Y-0.1378
X0.0706Y-3.4375
X0.0706Y-3.5711
X0.071Y-0.071
X0.071Y-0.2046
X0.1374Y-3.4098
X0.1374Y-3.5988
X0.1378Y-0.0433
X0.1378Y-0.2323
X0.2042Y-3.4375
X0.2042Y-3.5711
X0.2046Y-0.071
X0.2046Y-0.2046
X0.2319Y-3.5043
X0.2323Y-0.1378
X2.102Y-0.1378
X2.102Y-3.5039
X2.1296Y-0.071
X2.1296Y-0.2046
X2.1296Y-3.4371
X2.1296Y-3.5708
X2.1965Y-0.0433
X2.1965Y-0.2323
X2.1965Y-3.4094
X2.1965Y-3.5984
X2.2633Y-0.071
X2.2633Y-0.2046
X2.2633Y-3.4371
X2.2633Y-3.5708
X2.2909Y-0.1378
X2.2909Y-3.5039
T3
X0.4882Y-0.1673
X0.5669Y-0.1673
X0.8031Y-0.1673
X0.8819Y-0.1673
X1.1181Y-0.1673
X1.1969Y-0.1673
T4
X0.1639Y-1.5716
X0.1639Y-1.7016
X0.1639Y-1.8316
X0.1639Y-1.9616
X1.1235Y-1.5716
X1.1235Y-1.7016
X1.1235Y-1.8316
X1.1235Y-1.9616
X1.2362Y-2.4071
X1.2362Y-2.5321
X1.5025Y-3.2274
X1.6275Y-3.2274
X1.7525Y-3.2274
X1.8775Y-3.2274
X2.0025Y-3.2274
X2.1275Y-3.2274
T5
X0.1374Y-3.5043
X0.1378Y-0.1378
X0.3187Y-0.5016
X0.3187Y-2.3016
X0.9687Y-0.5016
X0.9687Y-2.3016
X1.44Y-0.5246
X1.44Y-2.7746
X2.19Y-0.5246
X2.19Y-2.7746
X2.1965Y-0.1378
X2.1965Y-3.5039
T0
M30
