%TF.GenerationSoftware,KiCad,Pcbnew,6.0.2*%
%TF.CreationDate,2022-02-16T12:43:48-06:00*%
%TF.ProjectId,FCB,4643422e-6b69-4636-9164-5f7063625858,A*%
%TF.SameCoordinates,Original*%
%TF.FileFunction,Soldermask,Top*%
%TF.FilePolarity,Negative*%
%FSLAX46Y46*%
G04 Gerber Fmt 4.6, Leading zero omitted, Abs format (unit mm)*
G04 Created by KiCad (PCBNEW 6.0.2) date 2022-02-16 12:43:48*
%MOMM*%
%LPD*%
G01*
G04 APERTURE LIST*
G04 Aperture macros list*
%AMRoundRect*
0 Rectangle with rounded corners*
0 $1 Rounding radius*
0 $2 $3 $4 $5 $6 $7 $8 $9 X,Y pos of 4 corners*
0 Add a 4 corners polygon primitive as box body*
4,1,4,$2,$3,$4,$5,$6,$7,$8,$9,$2,$3,0*
0 Add four circle primitives for the rounded corners*
1,1,$1+$1,$2,$3*
1,1,$1+$1,$4,$5*
1,1,$1+$1,$6,$7*
1,1,$1+$1,$8,$9*
0 Add four rect primitives between the rounded corners*
20,1,$1+$1,$2,$3,$4,$5,0*
20,1,$1+$1,$4,$5,$6,$7,0*
20,1,$1+$1,$6,$7,$8,$9,0*
20,1,$1+$1,$8,$9,$2,$3,0*%
%AMRotRect*
0 Rectangle, with rotation*
0 The origin of the aperture is its center*
0 $1 length*
0 $2 width*
0 $3 Rotation angle, in degrees counterclockwise*
0 Add horizontal line*
21,1,$1,$2,0,0,$3*%
%AMFreePoly0*
4,1,22,0.500000,-0.750000,0.000000,-0.750000,0.000000,-0.745033,-0.079941,-0.743568,-0.215256,-0.701293,-0.333266,-0.622738,-0.424486,-0.514219,-0.481581,-0.384460,-0.499164,-0.250000,-0.500000,-0.250000,-0.500000,0.250000,-0.499164,0.250000,-0.499963,0.256109,-0.478152,0.396186,-0.417904,0.524511,-0.324060,0.630769,-0.204165,0.706417,-0.067858,0.745374,0.000000,0.744959,0.000000,0.750000,
0.500000,0.750000,0.500000,-0.750000,0.500000,-0.750000,$1*%
%AMFreePoly1*
4,1,20,0.000000,0.744959,0.073905,0.744508,0.209726,0.703889,0.328688,0.626782,0.421226,0.519385,0.479903,0.390333,0.500000,0.250000,0.500000,-0.250000,0.499851,-0.262216,0.476331,-0.402017,0.414519,-0.529596,0.319384,-0.634700,0.198574,-0.708877,0.061801,-0.746166,0.000000,-0.745033,0.000000,-0.750000,-0.500000,-0.750000,-0.500000,0.750000,0.000000,0.750000,0.000000,0.744959,
0.000000,0.744959,$1*%
G04 Aperture macros list end*
%ADD10C,0.150000*%
%ADD11C,0.100000*%
%ADD12R,2.150000X1.300000*%
%ADD13R,1.200000X0.800000*%
%ADD14C,1.000000*%
%ADD15C,1.500000*%
%ADD16R,0.900000X1.000000*%
%ADD17O,1.700000X1.700000*%
%ADD18R,1.700000X1.700000*%
%ADD19RoundRect,0.326200X0.000000X0.000000X0.000000X0.000000X0.000000X0.000000X0.000000X0.000000X0*%
%ADD20RoundRect,0.326200X0.000000X0.000000X0.000000X0.000000X0.000000X0.000000X0.000000X0.000000X0*%
%ADD21RoundRect,0.147500X-0.017678X0.226274X-0.226274X0.017678X0.017678X-0.226274X0.226274X-0.017678X0*%
%ADD22RoundRect,0.135000X-0.226274X-0.035355X-0.035355X-0.226274X0.226274X0.035355X0.035355X0.226274X0*%
%ADD23RoundRect,0.135000X-0.035355X0.226274X-0.226274X0.035355X0.035355X-0.226274X0.226274X-0.035355X0*%
%ADD24RoundRect,0.147500X-0.226274X-0.017678X-0.017678X-0.226274X0.226274X0.017678X0.017678X0.226274X0*%
%ADD25R,1.100000X0.850000*%
%ADD26R,1.100000X0.750000*%
%ADD27R,1.800000X1.170000*%
%ADD28R,1.350000X1.900000*%
%ADD29R,1.000000X1.200000*%
%ADD30R,1.350000X1.550000*%
%ADD31RotRect,0.500000X0.500000X225.000000*%
%ADD32RoundRect,0.200000X-0.200000X-0.275000X0.200000X-0.275000X0.200000X0.275000X-0.200000X0.275000X0*%
%ADD33RoundRect,0.218750X-0.218750X-0.256250X0.218750X-0.256250X0.218750X0.256250X-0.218750X0.256250X0*%
%ADD34R,2.200000X2.200000*%
%ADD35C,1.100000*%
%ADD36C,2.200000*%
%ADD37RoundRect,0.200000X0.335876X0.053033X0.053033X0.335876X-0.335876X-0.053033X-0.053033X-0.335876X0*%
%ADD38RoundRect,0.200000X-0.053033X0.335876X-0.335876X0.053033X0.053033X-0.335876X0.335876X-0.053033X0*%
%ADD39RoundRect,0.218750X0.026517X-0.335876X0.335876X-0.026517X-0.026517X0.335876X-0.335876X0.026517X0*%
%ADD40RoundRect,0.225000X-0.250000X0.225000X-0.250000X-0.225000X0.250000X-0.225000X0.250000X0.225000X0*%
%ADD41RoundRect,0.225000X-0.335876X-0.017678X-0.017678X-0.335876X0.335876X0.017678X0.017678X0.335876X0*%
%ADD42RoundRect,0.225000X0.250000X-0.225000X0.250000X0.225000X-0.250000X0.225000X-0.250000X-0.225000X0*%
%ADD43RoundRect,0.225000X-0.225000X-0.250000X0.225000X-0.250000X0.225000X0.250000X-0.225000X0.250000X0*%
%ADD44RoundRect,0.225000X0.225000X0.250000X-0.225000X0.250000X-0.225000X-0.250000X0.225000X-0.250000X0*%
%ADD45RoundRect,0.062500X0.150260X0.238649X-0.238649X-0.150260X-0.150260X-0.238649X0.238649X0.150260X0*%
%ADD46RoundRect,0.062500X-0.150260X0.238649X-0.238649X0.150260X0.150260X-0.238649X0.238649X-0.150260X0*%
%ADD47RotRect,1.900000X1.900000X225.000000*%
%ADD48RoundRect,0.200000X0.053033X-0.335876X0.335876X-0.053033X-0.053033X0.335876X-0.335876X0.053033X0*%
%ADD49RoundRect,0.218750X0.256250X-0.218750X0.256250X0.218750X-0.256250X0.218750X-0.256250X-0.218750X0*%
%ADD50RotRect,1.000000X1.800000X45.000000*%
%ADD51RoundRect,0.225000X0.335876X0.017678X0.017678X0.335876X-0.335876X-0.017678X-0.017678X-0.335876X0*%
%ADD52RotRect,1.400000X1.200000X315.000000*%
%ADD53RotRect,0.500000X0.500000X135.000000*%
%ADD54C,2.540000*%
%ADD55R,3.000000X1.000000*%
%ADD56R,4.000000X1.800000*%
%ADD57RotRect,1.000000X1.800000X135.000000*%
%ADD58RotRect,1.400000X1.200000X45.000000*%
%ADD59R,1.100000X1.900000*%
%ADD60RoundRect,0.093750X0.141421X0.008839X0.008839X0.141421X-0.141421X-0.008839X-0.008839X-0.141421X0*%
%ADD61RotRect,1.000000X1.600000X135.000000*%
%ADD62RotRect,2.400000X3.100000X315.000000*%
%ADD63RotRect,0.350000X0.850000X45.000000*%
%ADD64C,0.400000*%
%ADD65RoundRect,0.093750X-0.008839X0.141421X-0.141421X0.008839X0.008839X-0.141421X0.141421X-0.008839X0*%
%ADD66RotRect,1.000000X1.600000X225.000000*%
%ADD67RotRect,2.400000X3.100000X45.000000*%
%ADD68RotRect,0.350000X0.850000X135.000000*%
%ADD69RoundRect,0.062500X-0.238649X0.150260X0.150260X-0.238649X0.238649X-0.150260X-0.150260X0.238649X0*%
%ADD70RoundRect,0.062500X-0.238649X-0.150260X-0.150260X-0.238649X0.238649X0.150260X0.150260X0.238649X0*%
%ADD71RotRect,1.900000X1.900000X315.000000*%
%ADD72RoundRect,0.050000X-0.225000X-0.050000X0.225000X-0.050000X0.225000X0.050000X-0.225000X0.050000X0*%
%ADD73RoundRect,0.050000X0.050000X-0.225000X0.050000X0.225000X-0.050000X0.225000X-0.050000X-0.225000X0*%
%ADD74RoundRect,0.200000X0.275000X-0.200000X0.275000X0.200000X-0.275000X0.200000X-0.275000X-0.200000X0*%
%ADD75RoundRect,0.200000X0.200000X0.275000X-0.200000X0.275000X-0.200000X-0.275000X0.200000X-0.275000X0*%
%ADD76RoundRect,0.200000X-0.275000X0.200000X-0.275000X-0.200000X0.275000X-0.200000X0.275000X0.200000X0*%
%ADD77R,0.800000X0.900000*%
%ADD78RoundRect,0.218750X0.218750X0.256250X-0.218750X0.256250X-0.218750X-0.256250X0.218750X-0.256250X0*%
%ADD79FreePoly0,270.000000*%
%ADD80FreePoly1,270.000000*%
%ADD81FreePoly0,0.000000*%
%ADD82FreePoly1,0.000000*%
%ADD83FreePoly0,90.000000*%
%ADD84FreePoly1,90.000000*%
%ADD85R,1.900000X1.900000*%
%ADD86R,1.900000X1.800000*%
%ADD87R,1.600000X2.100000*%
%ADD88R,1.350000X0.400000*%
%ADD89R,0.200000X0.350000*%
%ADD90R,0.200000X0.300000*%
%ADD91RoundRect,0.218750X-0.256250X0.218750X-0.256250X-0.218750X0.256250X-0.218750X0.256250X0.218750X0*%
%ADD92RoundRect,0.218750X0.335876X0.026517X0.026517X0.335876X-0.335876X-0.026517X-0.026517X-0.335876X0*%
%ADD93RoundRect,0.225000X0.017678X-0.335876X0.335876X-0.017678X-0.017678X0.335876X-0.335876X0.017678X0*%
%ADD94RoundRect,0.225000X-0.017678X0.335876X-0.335876X0.017678X0.017678X-0.335876X0.335876X-0.017678X0*%
%ADD95R,0.950000X0.550000*%
%ADD96R,0.375000X0.350000*%
%ADD97R,0.350000X0.375000*%
%ADD98R,0.230000X0.350000*%
%ADD99R,0.350000X0.230000*%
%ADD100C,0.800000*%
%ADD101C,6.400000*%
G04 APERTURE END LIST*
D10*
X238300000Y-227400000D02*
X173100000Y-227400000D01*
X173100000Y-227400000D02*
X173100000Y-225900000D01*
X173100000Y-225900000D02*
X238300000Y-225900000D01*
X238300000Y-225900000D02*
X238300000Y-227400000D01*
G36*
X238300000Y-227400000D02*
G01*
X173100000Y-227400000D01*
X173100000Y-225900000D01*
X238300000Y-225900000D01*
X238300000Y-227400000D01*
G37*
X238300000Y-227400000D02*
X173100000Y-227400000D01*
X173100000Y-225900000D01*
X238300000Y-225900000D01*
X238300000Y-227400000D01*
X171500000Y-224300000D02*
G75*
G03*
X173100000Y-225900000I1600000J0D01*
G01*
X171500000Y-224400000D02*
X171600000Y-224900000D01*
X171600000Y-224900000D02*
X171800000Y-225300000D01*
X171800000Y-225300000D02*
X172100000Y-225600000D01*
X172100000Y-225600000D02*
X172500000Y-225800000D01*
X172500000Y-225800000D02*
X173100000Y-225900000D01*
X173100000Y-225900000D02*
X173100000Y-227400000D01*
X173100000Y-227400000D02*
X171600000Y-227400000D01*
X171600000Y-227400000D02*
X171200000Y-227300000D01*
X171200000Y-227300000D02*
X170800000Y-227100000D01*
X170800000Y-227100000D02*
X170400000Y-226800000D01*
X170400000Y-226800000D02*
X170100000Y-226200000D01*
X170100000Y-226200000D02*
X170000000Y-225800000D01*
X170000000Y-225800000D02*
X170000000Y-224400000D01*
X170000000Y-224400000D02*
X171500000Y-224400000D01*
G36*
X171600000Y-224900000D02*
G01*
X171800000Y-225300000D01*
X172100000Y-225600000D01*
X172500000Y-225800000D01*
X173100000Y-225900000D01*
X173100000Y-227400000D01*
X171600000Y-227400000D01*
X171200000Y-227300000D01*
X170800000Y-227100000D01*
X170400000Y-226800000D01*
X170100000Y-226200000D01*
X170000000Y-225800000D01*
X170000000Y-224400000D01*
X171500000Y-224400000D01*
X171600000Y-224900000D01*
G37*
X171600000Y-224900000D02*
X171800000Y-225300000D01*
X172100000Y-225600000D01*
X172500000Y-225800000D01*
X173100000Y-225900000D01*
X173100000Y-227400000D01*
X171600000Y-227400000D01*
X171200000Y-227300000D01*
X170800000Y-227100000D01*
X170400000Y-226800000D01*
X170100000Y-226200000D01*
X170000000Y-225800000D01*
X170000000Y-224400000D01*
X171500000Y-224400000D01*
X171600000Y-224900000D01*
X238300000Y-66500000D02*
X171600000Y-66500000D01*
X171600000Y-66500000D02*
X171600000Y-65000000D01*
X171600000Y-65000000D02*
X238300000Y-65000000D01*
X238300000Y-65000000D02*
X238300000Y-66500000D01*
G36*
X238300000Y-66500000D02*
G01*
X171600000Y-66500000D01*
X171600000Y-65000000D01*
X238300000Y-65000000D01*
X238300000Y-66500000D01*
G37*
X238300000Y-66500000D02*
X171600000Y-66500000D01*
X171600000Y-65000000D01*
X238300000Y-65000000D01*
X238300000Y-66500000D01*
X239850000Y-66600000D02*
G75*
G03*
X238250000Y-65000000I-1600000J0D01*
G01*
D11*
X236850000Y-66500000D02*
X237350000Y-66600000D01*
X237350000Y-66600000D02*
X237750000Y-66800000D01*
X237750000Y-66800000D02*
X238050000Y-67100000D01*
X238050000Y-67100000D02*
X238250000Y-67500000D01*
X238250000Y-67500000D02*
X238350000Y-68100000D01*
X238350000Y-68100000D02*
X239850000Y-68100000D01*
X239850000Y-68100000D02*
X239850000Y-66600000D01*
X239850000Y-66600000D02*
X239750000Y-66200000D01*
X239750000Y-66200000D02*
X239550000Y-65800000D01*
X239550000Y-65800000D02*
X239250000Y-65400000D01*
X239250000Y-65400000D02*
X238650000Y-65100000D01*
X238650000Y-65100000D02*
X238250000Y-65000000D01*
X238250000Y-65000000D02*
X236850000Y-65000000D01*
X236850000Y-65000000D02*
X236850000Y-66500000D01*
G36*
X238650000Y-65100000D02*
G01*
X239250000Y-65400000D01*
X239550000Y-65800000D01*
X239750000Y-66200000D01*
X239850000Y-66600000D01*
X239850000Y-68100000D01*
X238350000Y-68100000D01*
X238250000Y-67500000D01*
X238050000Y-67100000D01*
X237750000Y-66800000D01*
X237350000Y-66600000D01*
X236850000Y-66500000D01*
X236850000Y-65000000D01*
X238250000Y-65000000D01*
X238650000Y-65100000D01*
G37*
X238650000Y-65100000D02*
X239250000Y-65400000D01*
X239550000Y-65800000D01*
X239750000Y-66200000D01*
X239850000Y-66600000D01*
X239850000Y-68100000D01*
X238350000Y-68100000D01*
X238250000Y-67500000D01*
X238050000Y-67100000D01*
X237750000Y-66800000D01*
X237350000Y-66600000D01*
X236850000Y-66500000D01*
X236850000Y-65000000D01*
X238250000Y-65000000D01*
X238650000Y-65100000D01*
D10*
X173000000Y-66500000D02*
X172500000Y-66600000D01*
X172500000Y-66600000D02*
X172100000Y-66800000D01*
X172100000Y-66800000D02*
X171800000Y-67100000D01*
X171800000Y-67100000D02*
X171600000Y-67500000D01*
X171600000Y-67500000D02*
X171500000Y-68100000D01*
X171500000Y-68100000D02*
X170000000Y-68100000D01*
X170000000Y-68100000D02*
X170000000Y-66600000D01*
X170000000Y-66600000D02*
X170100000Y-66200000D01*
X170100000Y-66200000D02*
X170300000Y-65800000D01*
X170300000Y-65800000D02*
X170600000Y-65400000D01*
X170600000Y-65400000D02*
X171200000Y-65100000D01*
X171200000Y-65100000D02*
X171600000Y-65000000D01*
X171600000Y-65000000D02*
X173000000Y-65000000D01*
X173000000Y-65000000D02*
X173000000Y-66500000D01*
G36*
X173000000Y-66500000D02*
G01*
X172500000Y-66600000D01*
X172100000Y-66800000D01*
X171800000Y-67100000D01*
X171600000Y-67500000D01*
X171500000Y-68100000D01*
X170000000Y-68100000D01*
X170000000Y-66600000D01*
X170100000Y-66200000D01*
X170300000Y-65800000D01*
X170600000Y-65400000D01*
X171200000Y-65100000D01*
X171600000Y-65000000D01*
X173000000Y-65000000D01*
X173000000Y-66500000D01*
G37*
X173000000Y-66500000D02*
X172500000Y-66600000D01*
X172100000Y-66800000D01*
X171800000Y-67100000D01*
X171600000Y-67500000D01*
X171500000Y-68100000D01*
X170000000Y-68100000D01*
X170000000Y-66600000D01*
X170100000Y-66200000D01*
X170300000Y-65800000D01*
X170600000Y-65400000D01*
X171200000Y-65100000D01*
X171600000Y-65000000D01*
X173000000Y-65000000D01*
X173000000Y-66500000D01*
X171500000Y-225800000D02*
X170000000Y-225800000D01*
X170000000Y-225800000D02*
X170000000Y-66600000D01*
X170000000Y-66600000D02*
X171500000Y-66600000D01*
X171500000Y-66600000D02*
X171500000Y-225800000D01*
G36*
X171500000Y-225800000D02*
G01*
X170000000Y-225800000D01*
X170000000Y-66600000D01*
X171500000Y-66600000D01*
X171500000Y-225800000D01*
G37*
X171500000Y-225800000D02*
X170000000Y-225800000D01*
X170000000Y-66600000D01*
X171500000Y-66600000D01*
X171500000Y-225800000D01*
X238350000Y-68100000D02*
G75*
G03*
X236750000Y-66500000I-1600000J0D01*
G01*
X238250000Y-227400000D02*
G75*
G03*
X239850000Y-225800000I0J1600000D01*
G01*
X236850000Y-225900000D02*
X237350000Y-225800000D01*
X237350000Y-225800000D02*
X237750000Y-225600000D01*
X237750000Y-225600000D02*
X238050000Y-225300000D01*
X238050000Y-225300000D02*
X238250000Y-224900000D01*
X238250000Y-224900000D02*
X238350000Y-224300000D01*
X238350000Y-224300000D02*
X239850000Y-224300000D01*
X239850000Y-224300000D02*
X239850000Y-225800000D01*
X239850000Y-225800000D02*
X239750000Y-226200000D01*
X239750000Y-226200000D02*
X239550000Y-226600000D01*
X239550000Y-226600000D02*
X239250000Y-227000000D01*
X239250000Y-227000000D02*
X238650000Y-227300000D01*
X238650000Y-227300000D02*
X238250000Y-227400000D01*
X238250000Y-227400000D02*
X236850000Y-227400000D01*
X236850000Y-227400000D02*
X236850000Y-225900000D01*
G36*
X239850000Y-225800000D02*
G01*
X239750000Y-226200000D01*
X239550000Y-226600000D01*
X239250000Y-227000000D01*
X238650000Y-227300000D01*
X238250000Y-227400000D01*
X236850000Y-227400000D01*
X236850000Y-225900000D01*
X237350000Y-225800000D01*
X237750000Y-225600000D01*
X238050000Y-225300000D01*
X238250000Y-224900000D01*
X238350000Y-224300000D01*
X239850000Y-224300000D01*
X239850000Y-225800000D01*
G37*
X239850000Y-225800000D02*
X239750000Y-226200000D01*
X239550000Y-226600000D01*
X239250000Y-227000000D01*
X238650000Y-227300000D01*
X238250000Y-227400000D01*
X236850000Y-227400000D01*
X236850000Y-225900000D01*
X237350000Y-225800000D01*
X237750000Y-225600000D01*
X238050000Y-225300000D01*
X238250000Y-224900000D01*
X238350000Y-224300000D01*
X239850000Y-224300000D01*
X239850000Y-225800000D01*
X170000000Y-225800000D02*
G75*
G03*
X171600000Y-227400000I1600000J0D01*
G01*
X239822400Y-225800000D02*
X238322400Y-225800000D01*
X238322400Y-225800000D02*
X238350000Y-66600000D01*
X238350000Y-66600000D02*
X239850000Y-66600000D01*
X239850000Y-66600000D02*
X239822400Y-225800000D01*
G36*
X239822400Y-225800000D02*
G01*
X238322400Y-225800000D01*
X238350000Y-66600000D01*
X239850000Y-66600000D01*
X239822400Y-225800000D01*
G37*
X239822400Y-225800000D02*
X238322400Y-225800000D01*
X238350000Y-66600000D01*
X239850000Y-66600000D01*
X239822400Y-225800000D01*
X236750000Y-225900000D02*
G75*
G03*
X238350000Y-224300000I0J1600000D01*
G01*
X173100000Y-66500000D02*
G75*
G03*
X171500000Y-68100000I0J-1600000D01*
G01*
X171600000Y-65000000D02*
G75*
G03*
X170000000Y-66600000I0J-1600000D01*
G01*
D11*
%TO.C,U601*%
X226685000Y-143850000D02*
G75*
G03*
X226685000Y-143850000I-185000J0D01*
G01*
X226185000Y-143850000D02*
G75*
G03*
X226185000Y-143850000I-185000J0D01*
G01*
X225685000Y-143850000D02*
G75*
G03*
X225685000Y-143850000I-185000J0D01*
G01*
X225185000Y-143850000D02*
G75*
G03*
X225185000Y-143850000I-185000J0D01*
G01*
X224685000Y-143850000D02*
G75*
G03*
X224685000Y-143850000I-185000J0D01*
G01*
X224185000Y-143850000D02*
G75*
G03*
X224185000Y-143850000I-185000J0D01*
G01*
X223685000Y-143850000D02*
G75*
G03*
X223685000Y-143850000I-185000J0D01*
G01*
X223185000Y-143850000D02*
G75*
G03*
X223185000Y-143850000I-185000J0D01*
G01*
X226685000Y-143350000D02*
G75*
G03*
X226685000Y-143350000I-185000J0D01*
G01*
X226685000Y-142850000D02*
G75*
G03*
X226685000Y-142850000I-185000J0D01*
G01*
X226685000Y-142350000D02*
G75*
G03*
X226685000Y-142350000I-185000J0D01*
G01*
X226685000Y-141850000D02*
G75*
G03*
X226685000Y-141850000I-185000J0D01*
G01*
X226685000Y-141350000D02*
G75*
G03*
X226685000Y-141350000I-185000J0D01*
G01*
X226685000Y-140850000D02*
G75*
G03*
X226685000Y-140850000I-185000J0D01*
G01*
X226685000Y-140350000D02*
G75*
G03*
X226685000Y-140350000I-185000J0D01*
G01*
X226685000Y-139850000D02*
G75*
G03*
X226685000Y-139850000I-185000J0D01*
G01*
X226185000Y-139850000D02*
G75*
G03*
X226185000Y-139850000I-185000J0D01*
G01*
X225685000Y-139850000D02*
G75*
G03*
X225685000Y-139850000I-185000J0D01*
G01*
X225185000Y-139850000D02*
G75*
G03*
X225185000Y-139850000I-185000J0D01*
G01*
X224685000Y-139850000D02*
G75*
G03*
X224685000Y-139850000I-185000J0D01*
G01*
X224185000Y-139850000D02*
G75*
G03*
X224185000Y-139850000I-185000J0D01*
G01*
X223685000Y-139850000D02*
G75*
G03*
X223685000Y-139850000I-185000J0D01*
G01*
X223185000Y-139850000D02*
G75*
G03*
X223185000Y-139850000I-185000J0D01*
G01*
X222685000Y-139850000D02*
G75*
G03*
X222685000Y-139850000I-185000J0D01*
G01*
X222685000Y-140350000D02*
G75*
G03*
X222685000Y-140350000I-185000J0D01*
G01*
X222685000Y-140850000D02*
G75*
G03*
X222685000Y-140850000I-185000J0D01*
G01*
X222685000Y-141350000D02*
G75*
G03*
X222685000Y-141350000I-185000J0D01*
G01*
X222685000Y-141850000D02*
G75*
G03*
X222685000Y-141850000I-185000J0D01*
G01*
X222685000Y-142350000D02*
G75*
G03*
X222685000Y-142350000I-185000J0D01*
G01*
X222685000Y-142850000D02*
G75*
G03*
X222685000Y-142850000I-185000J0D01*
G01*
X222685000Y-143350000D02*
G75*
G03*
X222685000Y-143350000I-185000J0D01*
G01*
X222685000Y-143850000D02*
G75*
G03*
X222685000Y-143850000I-185000J0D01*
G01*
X225685000Y-140850000D02*
G75*
G03*
X225685000Y-140850000I-185000J0D01*
G01*
X225185000Y-140850000D02*
G75*
G03*
X225185000Y-140850000I-185000J0D01*
G01*
X224685000Y-140850000D02*
G75*
G03*
X224685000Y-140850000I-185000J0D01*
G01*
X224185000Y-140850000D02*
G75*
G03*
X224185000Y-140850000I-185000J0D01*
G01*
X223685000Y-140850000D02*
G75*
G03*
X223685000Y-140850000I-185000J0D01*
G01*
X225685000Y-141350000D02*
G75*
G03*
X225685000Y-141350000I-185000J0D01*
G01*
X225185000Y-141350000D02*
G75*
G03*
X225185000Y-141350000I-185000J0D01*
G01*
X224185000Y-141350000D02*
G75*
G03*
X224185000Y-141350000I-185000J0D01*
G01*
X223685000Y-141350000D02*
G75*
G03*
X223685000Y-141350000I-185000J0D01*
G01*
X225685000Y-141850000D02*
G75*
G03*
X225685000Y-141850000I-185000J0D01*
G01*
X223685000Y-141850000D02*
G75*
G03*
X223685000Y-141850000I-185000J0D01*
G01*
X225685000Y-142350000D02*
G75*
G03*
X225685000Y-142350000I-185000J0D01*
G01*
X225185000Y-142350000D02*
G75*
G03*
X225185000Y-142350000I-185000J0D01*
G01*
X224185000Y-142350000D02*
G75*
G03*
X224185000Y-142350000I-185000J0D01*
G01*
X223685000Y-142350000D02*
G75*
G03*
X223685000Y-142350000I-185000J0D01*
G01*
X225685000Y-142850000D02*
G75*
G03*
X225685000Y-142850000I-185000J0D01*
G01*
X224685000Y-142850000D02*
G75*
G03*
X224685000Y-142850000I-185000J0D01*
G01*
X224185000Y-142850000D02*
G75*
G03*
X224185000Y-142850000I-185000J0D01*
G01*
X223685000Y-142850000D02*
G75*
G03*
X223685000Y-142850000I-185000J0D01*
G01*
%TD*%
D12*
%TO.C,J104*%
X236745000Y-202275000D03*
X236745000Y-189725000D03*
D13*
X234450000Y-191625000D03*
X234450000Y-192875000D03*
X234450000Y-194125000D03*
X234450000Y-195375000D03*
X234450000Y-196625000D03*
X234450000Y-197875000D03*
X234450000Y-199125000D03*
X234450000Y-200375000D03*
%TD*%
D12*
%TO.C,J103*%
X236745000Y-218275000D03*
X236745000Y-205725000D03*
D13*
X234450000Y-207625000D03*
X234450000Y-208875000D03*
X234450000Y-210125000D03*
X234450000Y-211375000D03*
X234450000Y-212625000D03*
X234450000Y-213875000D03*
X234450000Y-215125000D03*
X234450000Y-216375000D03*
%TD*%
D12*
%TO.C,J102*%
X173055000Y-205725000D03*
X173055000Y-218275000D03*
D13*
X175350000Y-216375000D03*
X175350000Y-215125000D03*
X175350000Y-213875000D03*
X175350000Y-212625000D03*
X175350000Y-211375000D03*
X175350000Y-210125000D03*
X175350000Y-208875000D03*
X175350000Y-207625000D03*
%TD*%
D12*
%TO.C,J101*%
X173055000Y-189725000D03*
X173055000Y-202275000D03*
D13*
X175350000Y-200375000D03*
X175350000Y-199125000D03*
X175350000Y-197875000D03*
X175350000Y-196625000D03*
X175350000Y-195375000D03*
X175350000Y-194125000D03*
X175350000Y-192875000D03*
X175350000Y-191625000D03*
%TD*%
D14*
%TO.C,TP508*%
X179700000Y-186460000D03*
%TD*%
%TO.C,TP507*%
X177800000Y-180840000D03*
%TD*%
%TO.C,TP506*%
X182192000Y-177014000D03*
%TD*%
%TO.C,TP505*%
X182192000Y-182348000D03*
%TD*%
%TO.C,TP503*%
X190320000Y-185396000D03*
%TD*%
%TO.C,TP502*%
X191336000Y-186412000D03*
%TD*%
D15*
%TO.C,TP18*%
X214410000Y-104200000D03*
%TD*%
D16*
%TO.C,SW502*%
X226430000Y-99720000D03*
X226430000Y-101320000D03*
X230530000Y-99720000D03*
X230530000Y-101320000D03*
%TD*%
%TO.C,SW501*%
X230530000Y-97650000D03*
X230530000Y-96050000D03*
X226430000Y-97650000D03*
X226430000Y-96050000D03*
%TD*%
D17*
%TO.C,J6*%
X188720000Y-116720000D03*
D18*
X188720000Y-114180000D03*
%TD*%
D17*
%TO.C,J4*%
X189030000Y-136380000D03*
D18*
X189030000Y-133840000D03*
%TD*%
D19*
%TO.C,U401*%
X204290000Y-119365000D03*
X204290000Y-120635000D03*
X205560000Y-120635000D03*
X205560000Y-119365000D03*
X205560000Y-118095000D03*
X205560000Y-121905000D03*
X205560000Y-116825000D03*
X205560000Y-123175000D03*
X205560000Y-115555000D03*
X205560000Y-124445000D03*
X205560000Y-114285000D03*
X205560000Y-125715000D03*
X205560000Y-113015000D03*
X205560000Y-126985000D03*
D20*
X205560000Y-111745000D03*
D19*
X205560000Y-128255000D03*
D20*
X205560000Y-110475000D03*
D19*
X205560000Y-129525000D03*
D20*
X205560000Y-109205000D03*
D19*
X205560000Y-130795000D03*
D20*
X205560000Y-107935000D03*
D19*
X205560000Y-132065000D03*
X204290000Y-132065000D03*
X204290000Y-130795000D03*
X204290000Y-129525000D03*
X204290000Y-128255000D03*
X204290000Y-126985000D03*
X204290000Y-125715000D03*
X204290000Y-124445000D03*
X204290000Y-123175000D03*
X204290000Y-121905000D03*
X204290000Y-118095000D03*
X204290000Y-116825000D03*
X204290000Y-115555000D03*
X204290000Y-114285000D03*
X204290000Y-113015000D03*
D20*
X204290000Y-111745000D03*
X204290000Y-110475000D03*
X204290000Y-109205000D03*
X204290000Y-107935000D03*
D19*
X206830000Y-119365000D03*
X203020000Y-119365000D03*
X208100000Y-119365000D03*
X201750000Y-119365000D03*
X209370000Y-119365000D03*
X200480000Y-119365000D03*
X210640000Y-119365000D03*
X199210000Y-119365000D03*
X211910000Y-119365000D03*
X197940000Y-119365000D03*
X213180000Y-119365000D03*
X196670000Y-119365000D03*
X195400000Y-119365000D03*
X214450000Y-119365000D03*
X194130000Y-119365000D03*
X215720000Y-119365000D03*
X216990000Y-119365000D03*
X192860000Y-119365000D03*
X216990000Y-120635000D03*
X215720000Y-120635000D03*
X214450000Y-120635000D03*
X213180000Y-120635000D03*
X211910000Y-120635000D03*
X210640000Y-120635000D03*
X209370000Y-120635000D03*
X208100000Y-120635000D03*
X206830000Y-120635000D03*
X203020000Y-120635000D03*
X201750000Y-120635000D03*
X200480000Y-120635000D03*
X199210000Y-120635000D03*
X197940000Y-120635000D03*
X196670000Y-120635000D03*
X195400000Y-120635000D03*
X194130000Y-120635000D03*
X192860000Y-120635000D03*
X192860000Y-121905000D03*
X194130000Y-121905000D03*
X195400000Y-121905000D03*
X196670000Y-121905000D03*
X197940000Y-121905000D03*
X199210000Y-121905000D03*
X200480000Y-121905000D03*
X201750000Y-121905000D03*
X203020000Y-121905000D03*
X206830000Y-121905000D03*
X208100000Y-121905000D03*
X209370000Y-121905000D03*
X210640000Y-121905000D03*
X211910000Y-121905000D03*
X213180000Y-121905000D03*
X214450000Y-121905000D03*
X215720000Y-121905000D03*
X216990000Y-121905000D03*
X216990000Y-118095000D03*
X215720000Y-118095000D03*
X214450000Y-118095000D03*
X213180000Y-118095000D03*
X211910000Y-118095000D03*
X210640000Y-118095000D03*
X209370000Y-118095000D03*
X208100000Y-118095000D03*
X206830000Y-118095000D03*
X203020000Y-118095000D03*
X201750000Y-118095000D03*
X200480000Y-118095000D03*
X199210000Y-118095000D03*
X197940000Y-118095000D03*
X196670000Y-118095000D03*
X195400000Y-118095000D03*
X194130000Y-118095000D03*
X192860000Y-118095000D03*
X192860000Y-116825000D03*
X194130000Y-116825000D03*
X195400000Y-116825000D03*
X196670000Y-116825000D03*
X197940000Y-116825000D03*
X199210000Y-116825000D03*
X200480000Y-116825000D03*
X201750000Y-116825000D03*
X203020000Y-116825000D03*
X206830000Y-116825000D03*
X208100000Y-116825000D03*
X209370000Y-116825000D03*
X210640000Y-116825000D03*
X211910000Y-116825000D03*
X213180000Y-116825000D03*
X214450000Y-116825000D03*
X215720000Y-116825000D03*
X216990000Y-116825000D03*
X216990000Y-123175000D03*
X215720000Y-123175000D03*
X214450000Y-123175000D03*
X213180000Y-123175000D03*
X211910000Y-123175000D03*
X210640000Y-123175000D03*
X209370000Y-123175000D03*
X208100000Y-123175000D03*
X206830000Y-123175000D03*
X203020000Y-123175000D03*
X201750000Y-123175000D03*
X200480000Y-123175000D03*
X199210000Y-123175000D03*
X197940000Y-123175000D03*
X196670000Y-123175000D03*
X195400000Y-123175000D03*
X194130000Y-123175000D03*
X192860000Y-123175000D03*
X192860000Y-124445000D03*
X194130000Y-124445000D03*
X195400000Y-124445000D03*
X196670000Y-124445000D03*
X197940000Y-124445000D03*
X199210000Y-124445000D03*
X200480000Y-124445000D03*
X201750000Y-124445000D03*
X203020000Y-124445000D03*
X206830000Y-124445000D03*
X208100000Y-124445000D03*
X209370000Y-124445000D03*
X210640000Y-124445000D03*
X211910000Y-124445000D03*
X213180000Y-124445000D03*
X214450000Y-124445000D03*
X215720000Y-124445000D03*
X216990000Y-124445000D03*
X216990000Y-125715000D03*
X215720000Y-125715000D03*
X214450000Y-125715000D03*
X213180000Y-125715000D03*
X211910000Y-125715000D03*
X210640000Y-125715000D03*
X209370000Y-125715000D03*
X208100000Y-125715000D03*
X206830000Y-125715000D03*
X203020000Y-125715000D03*
X201750000Y-125715000D03*
X200480000Y-125715000D03*
X199210000Y-125715000D03*
X197940000Y-125715000D03*
X196670000Y-125715000D03*
X195400000Y-125715000D03*
X194130000Y-125715000D03*
X192860000Y-125715000D03*
X192860000Y-126985000D03*
X194130000Y-126985000D03*
X195400000Y-126985000D03*
X196670000Y-126985000D03*
X197940000Y-126985000D03*
X199210000Y-126985000D03*
X200480000Y-126985000D03*
X201750000Y-126985000D03*
X203020000Y-126985000D03*
X206830000Y-126985000D03*
X208100000Y-126985000D03*
X209370000Y-126985000D03*
X210640000Y-126985000D03*
X211910000Y-126985000D03*
X213180000Y-126985000D03*
X214450000Y-126985000D03*
X215720000Y-126985000D03*
X216990000Y-126985000D03*
X216990000Y-128255000D03*
X215720000Y-128255000D03*
X214450000Y-128255000D03*
X213180000Y-128255000D03*
X211910000Y-128255000D03*
X210640000Y-128255000D03*
X209370000Y-128255000D03*
X208100000Y-128255000D03*
X206830000Y-128255000D03*
X203020000Y-128255000D03*
X201750000Y-128255000D03*
X200480000Y-128255000D03*
X199210000Y-128255000D03*
X197940000Y-128255000D03*
X196670000Y-128255000D03*
X195400000Y-128255000D03*
X194130000Y-128255000D03*
X192860000Y-128255000D03*
X192860000Y-129525000D03*
X194130000Y-129525000D03*
X195400000Y-129525000D03*
X196670000Y-129525000D03*
X197940000Y-129525000D03*
X199210000Y-129525000D03*
X200480000Y-129525000D03*
X201750000Y-129525000D03*
X203020000Y-129525000D03*
X206830000Y-129525000D03*
X208100000Y-129525000D03*
X209370000Y-129525000D03*
X210640000Y-129525000D03*
X211910000Y-129525000D03*
X213180000Y-129525000D03*
X214450000Y-129525000D03*
X215720000Y-129525000D03*
X216990000Y-129525000D03*
X216990000Y-130795000D03*
X215720000Y-130795000D03*
X214450000Y-130795000D03*
X213180000Y-130795000D03*
X211910000Y-130795000D03*
X210640000Y-130795000D03*
X209370000Y-130795000D03*
X208100000Y-130795000D03*
X206830000Y-130795000D03*
X206830000Y-132065000D03*
X208100000Y-132065000D03*
X209370000Y-132065000D03*
X210640000Y-132065000D03*
X211910000Y-132065000D03*
X213180000Y-132065000D03*
X214450000Y-132065000D03*
X215720000Y-132065000D03*
X216990000Y-132065000D03*
X203020000Y-130795000D03*
X201750000Y-130795000D03*
X200480000Y-130795000D03*
X199210000Y-130795000D03*
X197940000Y-130795000D03*
X196670000Y-130795000D03*
X195400000Y-130795000D03*
X194130000Y-130795000D03*
X192860000Y-130795000D03*
X192860000Y-132065000D03*
X194130000Y-132065000D03*
X195400000Y-132065000D03*
X196670000Y-132065000D03*
X197940000Y-132065000D03*
X199210000Y-132065000D03*
X200480000Y-132065000D03*
X201750000Y-132065000D03*
X203020000Y-132065000D03*
X206830000Y-115555000D03*
X206830000Y-114285000D03*
X206830000Y-113015000D03*
D20*
X206830000Y-111745000D03*
X206830000Y-110475000D03*
X206830000Y-109205000D03*
X206830000Y-107935000D03*
X203020000Y-107935000D03*
X203020000Y-109205000D03*
X203020000Y-110475000D03*
X203020000Y-111745000D03*
D19*
X203020000Y-113015000D03*
X203020000Y-114285000D03*
X203020000Y-115555000D03*
D20*
X201750000Y-107935000D03*
X201750000Y-109205000D03*
X201750000Y-110475000D03*
X201750000Y-111745000D03*
D19*
X201750000Y-113015000D03*
X201750000Y-114285000D03*
X201750000Y-115555000D03*
D20*
X200480000Y-107935000D03*
X200480000Y-109205000D03*
X200480000Y-110475000D03*
X200480000Y-111745000D03*
D19*
X200480000Y-113015000D03*
X200480000Y-114285000D03*
X200480000Y-115555000D03*
D20*
X199210000Y-107935000D03*
X199210000Y-109205000D03*
X199210000Y-110475000D03*
X199210000Y-111745000D03*
D19*
X199210000Y-113015000D03*
X199210000Y-114285000D03*
X199210000Y-115555000D03*
D20*
X197940000Y-107935000D03*
X197940000Y-109205000D03*
X197940000Y-110475000D03*
X197940000Y-111745000D03*
D19*
X197940000Y-113015000D03*
X197940000Y-114285000D03*
X197940000Y-115555000D03*
X196670000Y-115555000D03*
X196670000Y-114285000D03*
X196670000Y-113015000D03*
D20*
X196670000Y-111745000D03*
X196670000Y-110475000D03*
X196670000Y-109205000D03*
X196670000Y-107935000D03*
X195400000Y-107935000D03*
X195400000Y-109205000D03*
X195400000Y-110475000D03*
X195400000Y-111745000D03*
D19*
X195400000Y-113015000D03*
X195400000Y-114285000D03*
X195400000Y-115555000D03*
X194130000Y-115555000D03*
X192860000Y-115555000D03*
X192860000Y-114285000D03*
X194130000Y-114285000D03*
X194130000Y-113015000D03*
X192860000Y-113015000D03*
D20*
X192860000Y-111745000D03*
X194130000Y-111745000D03*
X194130000Y-110475000D03*
X192860000Y-110475000D03*
X192860000Y-109205000D03*
X194130000Y-109205000D03*
X194130000Y-107935000D03*
D19*
X192860000Y-107935000D03*
D20*
X208100000Y-107935000D03*
X208100000Y-109205000D03*
X208100000Y-110475000D03*
X208100000Y-111745000D03*
D19*
X208100000Y-113015000D03*
X208100000Y-114285000D03*
X208100000Y-115555000D03*
X209370000Y-115555000D03*
X209370000Y-114285000D03*
X209370000Y-113015000D03*
D20*
X209370000Y-111745000D03*
X209370000Y-110475000D03*
X209370000Y-109205000D03*
X209370000Y-107935000D03*
X210640000Y-107935000D03*
X210640000Y-109205000D03*
X210640000Y-110475000D03*
X210640000Y-111745000D03*
D19*
X210640000Y-113015000D03*
X210640000Y-114285000D03*
X210640000Y-115555000D03*
X211910000Y-115555000D03*
X211910000Y-114285000D03*
X211910000Y-113015000D03*
D20*
X211910000Y-111745000D03*
X211910000Y-110475000D03*
X211910000Y-109205000D03*
X211910000Y-107935000D03*
X213180000Y-107935000D03*
X213180000Y-109205000D03*
X213180000Y-110475000D03*
X213180000Y-111745000D03*
D19*
X213180000Y-113015000D03*
X213180000Y-114285000D03*
X213180000Y-115555000D03*
X214450000Y-115555000D03*
X214450000Y-114285000D03*
X214450000Y-113015000D03*
D20*
X214450000Y-111745000D03*
X214450000Y-110475000D03*
X214450000Y-109205000D03*
X214450000Y-107935000D03*
X215720000Y-107935000D03*
X215720000Y-109205000D03*
X215720000Y-110475000D03*
X215720000Y-111745000D03*
D19*
X215720000Y-113015000D03*
X215720000Y-114285000D03*
X215720000Y-115555000D03*
X216990000Y-115555000D03*
X216990000Y-114285000D03*
X216990000Y-113015000D03*
D20*
X216990000Y-111745000D03*
X216990000Y-110475000D03*
X216990000Y-109205000D03*
X216990000Y-107935000D03*
%TD*%
D21*
%TO.C,D104*%
X195040052Y-167353227D03*
X195725946Y-166667333D03*
%TD*%
D22*
%TO.C,R115*%
X213940956Y-170505098D03*
X213219708Y-169783850D03*
%TD*%
D23*
%TO.C,R114*%
X193041837Y-168020803D03*
X193763085Y-167299555D03*
%TD*%
D22*
%TO.C,R113*%
X215271595Y-169174459D03*
X214550347Y-168453211D03*
%TD*%
%TO.C,R112*%
X214606275Y-169839779D03*
X213885027Y-169118531D03*
%TD*%
%TO.C,R111*%
X213278588Y-171167466D03*
X212557340Y-170446218D03*
%TD*%
D23*
%TO.C,R110*%
X194372476Y-169351442D03*
X195093724Y-168630194D03*
%TD*%
%TO.C,R109*%
X193707156Y-168686123D03*
X194428404Y-167964875D03*
%TD*%
%TO.C,R108*%
X192376517Y-167355484D03*
X193097765Y-166634236D03*
%TD*%
D24*
%TO.C,D110*%
X212611854Y-169175997D03*
X211925960Y-168490103D03*
%TD*%
D21*
%TO.C,D109*%
X194374732Y-166687908D03*
X195060626Y-166002014D03*
%TD*%
D24*
%TO.C,D108*%
X213938699Y-167841563D03*
X213252805Y-167155669D03*
%TD*%
%TO.C,D107*%
X213273380Y-168506883D03*
X212587486Y-167820989D03*
%TD*%
%TO.C,D106*%
X211949486Y-169838365D03*
X211263592Y-169152471D03*
%TD*%
D21*
%TO.C,D105*%
X195705371Y-168018547D03*
X196391265Y-167332653D03*
%TD*%
%TO.C,D103*%
X193709413Y-166022588D03*
X194395307Y-165336694D03*
%TD*%
D25*
%TO.C,J302*%
X236780000Y-153895000D03*
X236780000Y-154995000D03*
X236780000Y-156095000D03*
X236780000Y-157195000D03*
X236780000Y-158295000D03*
X236780000Y-159395000D03*
X236780000Y-160495000D03*
D26*
X236780000Y-161545000D03*
D27*
X236430000Y-162755000D03*
D28*
X225955000Y-160730000D03*
X225955000Y-154760000D03*
D29*
X226930000Y-151260000D03*
X230630000Y-151260000D03*
D30*
X236655000Y-151435000D03*
%TD*%
D17*
%TO.C,J506*%
X173560000Y-187040000D03*
D18*
X176100000Y-187040000D03*
%TD*%
D31*
%TO.C,D501*%
X192442183Y-185687817D03*
X193997817Y-184132183D03*
%TD*%
D25*
%TO.C,J5000*%
X172870000Y-130105000D03*
X172870000Y-129005000D03*
X172870000Y-127905000D03*
X172870000Y-126805000D03*
X172870000Y-125705000D03*
X172870000Y-124605000D03*
X172870000Y-123505000D03*
D26*
X172870000Y-122455000D03*
D27*
X173220000Y-121245000D03*
D28*
X183695000Y-123270000D03*
X183695000Y-129240000D03*
D29*
X182720000Y-132740000D03*
X179020000Y-132740000D03*
D30*
X172995000Y-132565000D03*
%TD*%
D32*
%TO.C,R102*%
X221425000Y-217350000D03*
X219775000Y-217350000D03*
%TD*%
D33*
%TO.C,D101*%
X218287500Y-217350000D03*
X216712500Y-217350000D03*
%TD*%
D25*
%TO.C,J502*%
X172870000Y-160105000D03*
X172870000Y-159005000D03*
X172870000Y-157905000D03*
X172870000Y-156805000D03*
X172870000Y-155705000D03*
X172870000Y-154605000D03*
X172870000Y-153505000D03*
D26*
X172870000Y-152455000D03*
D27*
X173220000Y-151245000D03*
D28*
X183695000Y-153270000D03*
X183695000Y-159240000D03*
D29*
X182720000Y-162740000D03*
X179020000Y-162740000D03*
D30*
X172995000Y-162565000D03*
%TD*%
D14*
%TO.C,DISP1*%
X214525000Y-101840000D03*
X214525000Y-91440000D03*
%TD*%
D34*
%TO.C,J111*%
X220670000Y-222570000D03*
D35*
X220670000Y-225110000D03*
D36*
X223210000Y-222570000D03*
D35*
X223210000Y-225110000D03*
%TD*%
D34*
%TO.C,J110*%
X214500000Y-222570000D03*
D35*
X214500000Y-225110000D03*
D36*
X217040000Y-222570000D03*
D35*
X217040000Y-225110000D03*
%TD*%
D34*
%TO.C,J109*%
X203500000Y-222570000D03*
D35*
X203500000Y-225110000D03*
D36*
X206040000Y-222570000D03*
D35*
X206040000Y-225110000D03*
D36*
X208580000Y-222570000D03*
D35*
X208580000Y-225110000D03*
%TD*%
D34*
%TO.C,J108*%
X195200000Y-222570000D03*
D35*
X195200000Y-225110000D03*
D36*
X197740000Y-222570000D03*
D35*
X197740000Y-225110000D03*
D36*
X200280000Y-222570000D03*
D35*
X200280000Y-225110000D03*
%TD*%
D34*
%TO.C,J107*%
X186870000Y-222570000D03*
D35*
X186870000Y-225110000D03*
D36*
X189410000Y-222570000D03*
D35*
X189410000Y-225110000D03*
D36*
X191950000Y-222570000D03*
D35*
X191950000Y-225110000D03*
%TD*%
D37*
%TO.C,R506*%
X199141637Y-176141637D03*
X200308363Y-177308363D03*
%TD*%
D38*
%TO.C,R502*%
X198058363Y-182916637D03*
X196891637Y-184083363D03*
%TD*%
D39*
%TO.C,D504*%
X200156847Y-180818153D03*
X199043153Y-181931847D03*
%TD*%
D40*
%TO.C,C521*%
X185200000Y-156795000D03*
X185200000Y-155245000D03*
%TD*%
D41*
%TO.C,C518*%
X194668008Y-182868008D03*
X193571992Y-181771992D03*
%TD*%
D42*
%TO.C,C110*%
X197760000Y-159545000D03*
X197760000Y-161095000D03*
%TD*%
%TO.C,C109*%
X200850000Y-159545000D03*
X200850000Y-161095000D03*
%TD*%
D43*
%TO.C,C108*%
X196375000Y-142950000D03*
X194825000Y-142950000D03*
%TD*%
D44*
%TO.C,C107*%
X214535000Y-146800000D03*
X216085000Y-146800000D03*
%TD*%
D43*
%TO.C,C106*%
X210325000Y-147790000D03*
X208775000Y-147790000D03*
%TD*%
D42*
%TO.C,C105*%
X214150000Y-154115000D03*
X214150000Y-155665000D03*
%TD*%
%TO.C,C104*%
X212370000Y-154115000D03*
X212370000Y-155665000D03*
%TD*%
D44*
%TO.C,C103*%
X207075000Y-156600000D03*
X208625000Y-156600000D03*
%TD*%
D14*
%TO.C,TP303*%
X233627000Y-172061000D03*
%TD*%
%TO.C,TP301*%
X233250000Y-184550000D03*
%TD*%
D45*
%TO.C,U502*%
X198309829Y-179530831D03*
X197956276Y-179177278D03*
X197602722Y-178823724D03*
X197249169Y-178470171D03*
D46*
X196170831Y-178470171D03*
X195817278Y-178823724D03*
X195463724Y-179177278D03*
X195110171Y-179530831D03*
D45*
X195110171Y-180609169D03*
X195463724Y-180962722D03*
X195817278Y-181316276D03*
X196170831Y-181669829D03*
D46*
X197249169Y-181669829D03*
X197602722Y-181316276D03*
X197956276Y-180962722D03*
X198309829Y-180609169D03*
D47*
X196710000Y-180070000D03*
%TD*%
D48*
%TO.C,R507*%
X178643363Y-182126637D03*
X177476637Y-183293363D03*
%TD*%
D43*
%TO.C,C527*%
X177445000Y-177960000D03*
X175895000Y-177960000D03*
%TD*%
D49*
%TO.C,F501*%
X175900000Y-179382500D03*
X175900000Y-180957500D03*
%TD*%
D50*
%TO.C,Y502*%
X179826117Y-179933883D03*
X181593883Y-178166117D03*
%TD*%
D51*
%TO.C,C519*%
X179891992Y-169831992D03*
X180988008Y-170928008D03*
%TD*%
D48*
%TO.C,R505*%
X187763363Y-185236637D03*
X186596637Y-186403363D03*
%TD*%
D41*
%TO.C,C502*%
X188718008Y-183848008D03*
X187621992Y-182751992D03*
%TD*%
D51*
%TO.C,C501*%
X185531992Y-180661992D03*
X186628008Y-181758008D03*
%TD*%
D52*
%TO.C,Y501*%
X184693223Y-182191142D03*
X186248858Y-183746777D03*
X185046777Y-184948858D03*
X183491142Y-183393223D03*
%TD*%
D31*
%TO.C,D502*%
X192577817Y-182702183D03*
X191022183Y-184257817D03*
%TD*%
D53*
%TO.C,D302*%
X229322183Y-171372183D03*
X230877817Y-172927817D03*
%TD*%
%TO.C,D301*%
X227962183Y-172732183D03*
X229517817Y-174287817D03*
%TD*%
D54*
%TO.C,X101*%
X176200000Y-103700000D03*
X173660000Y-106240000D03*
X178740000Y-106240000D03*
X178740000Y-101160000D03*
X173660000Y-101160000D03*
%TD*%
D55*
%TO.C,J106*%
X232050000Y-90000000D03*
X232050000Y-88000000D03*
X232050000Y-86000000D03*
X232050000Y-84000000D03*
D56*
X236350000Y-92400000D03*
X236350000Y-77600000D03*
D55*
X232050000Y-82000000D03*
X232050000Y-80000000D03*
%TD*%
%TO.C,J105*%
X177800000Y-80000000D03*
X177800000Y-82000000D03*
X177800000Y-84000000D03*
X177800000Y-86000000D03*
D56*
X173500000Y-77600000D03*
X173500000Y-92400000D03*
D55*
X177800000Y-88000000D03*
X177800000Y-90000000D03*
%TD*%
D57*
%TO.C,Y302*%
X224473883Y-185263883D03*
X222706117Y-183496117D03*
%TD*%
D58*
%TO.C,Y301*%
X227241142Y-180256777D03*
X228796777Y-178701142D03*
X229998858Y-179903223D03*
X228443223Y-181458858D03*
%TD*%
D59*
%TO.C,Y201*%
X209930000Y-138030000D03*
X207430000Y-138030000D03*
%TD*%
D60*
%TO.C,U505*%
X179797938Y-185127177D03*
X180257557Y-184667557D03*
X180717177Y-184207938D03*
X179462062Y-182952823D03*
X179002443Y-183412443D03*
X178542823Y-183872062D03*
D61*
X179630000Y-184040000D03*
%TD*%
D62*
%TO.C,U503*%
X178850000Y-173190000D03*
D63*
X181077386Y-173720330D03*
X180511701Y-174286016D03*
X179946016Y-174851701D03*
X179380330Y-175417386D03*
X176622614Y-172659670D03*
X177188299Y-172093984D03*
X177753984Y-171528299D03*
X178319670Y-170962614D03*
%TD*%
D64*
%TO.C,U501*%
X189925000Y-182353911D03*
X190490685Y-181788225D03*
X191056371Y-181222540D03*
X191622056Y-180656854D03*
X192187742Y-180091169D03*
X192753427Y-179525483D03*
X193319113Y-178959798D03*
X193884798Y-178394113D03*
X194450483Y-177828427D03*
X195016169Y-177262742D03*
X195581854Y-176697056D03*
X196147540Y-176131371D03*
X196713225Y-175565685D03*
X197278911Y-175000000D03*
X189359315Y-181788225D03*
X189925000Y-181222540D03*
X190490685Y-180656854D03*
X191056371Y-180091169D03*
X191622056Y-179525483D03*
X192187742Y-178959798D03*
X192753427Y-178394113D03*
X193319113Y-177828427D03*
X193884798Y-177262742D03*
X194450483Y-176697056D03*
X195016169Y-176131371D03*
X195581854Y-175565685D03*
X196147540Y-175000000D03*
X196713225Y-174434315D03*
X188793629Y-181222540D03*
X189359315Y-180656854D03*
X189925000Y-180091169D03*
X190490685Y-179525483D03*
X191056371Y-178959798D03*
X191622056Y-178394113D03*
X192187742Y-177828427D03*
X192753427Y-177262742D03*
X193319113Y-176697056D03*
X193884798Y-176131371D03*
X194450483Y-175565685D03*
X195016169Y-175000000D03*
X195581854Y-174434315D03*
X196147540Y-173868629D03*
X188227944Y-180656854D03*
X188793629Y-180091169D03*
X189359315Y-179525483D03*
X189925000Y-178959798D03*
X190490685Y-178394113D03*
X191056371Y-177828427D03*
X191622056Y-177262742D03*
X192187742Y-176697056D03*
X192753427Y-176131371D03*
X193319113Y-175565685D03*
X193884798Y-175000000D03*
X194450483Y-174434315D03*
X195016169Y-173868629D03*
X195581854Y-173302944D03*
X187662258Y-180091169D03*
X188227944Y-179525483D03*
X188793629Y-178959798D03*
X189359315Y-178394113D03*
X189925000Y-177828427D03*
X190490685Y-177262742D03*
X191056371Y-176697056D03*
X191622056Y-176131371D03*
X192187742Y-175565685D03*
X192753427Y-175000000D03*
X193319113Y-174434315D03*
X193884798Y-173868629D03*
X194450483Y-173302944D03*
X195016169Y-172737258D03*
X187096573Y-179525483D03*
X187662258Y-178959798D03*
X188227944Y-178394113D03*
X188793629Y-177828427D03*
X189359315Y-177262742D03*
X189925000Y-176697056D03*
X190490685Y-176131371D03*
X191056371Y-175565685D03*
X191622056Y-175000000D03*
X192187742Y-174434315D03*
X192753427Y-173868629D03*
X193319113Y-173302944D03*
X193884798Y-172737258D03*
X194450483Y-172171573D03*
X186530887Y-178959798D03*
X187096573Y-178394113D03*
X187662258Y-177828427D03*
X188227944Y-177262742D03*
X188793629Y-176697056D03*
X189359315Y-176131371D03*
X189925000Y-175565685D03*
X190490685Y-175000000D03*
X191056371Y-174434315D03*
X191622056Y-173868629D03*
X192187742Y-173302944D03*
X192753427Y-172737258D03*
X193319113Y-172171573D03*
X193884798Y-171605887D03*
X185965202Y-178394113D03*
X186530887Y-177828427D03*
X187096573Y-177262742D03*
X187662258Y-176697056D03*
X188227944Y-176131371D03*
X188793629Y-175565685D03*
X189359315Y-175000000D03*
X189925000Y-174434315D03*
X190490685Y-173868629D03*
X191056371Y-173302944D03*
X191622056Y-172737258D03*
X192187742Y-172171573D03*
X192753427Y-171605887D03*
X193319113Y-171040202D03*
X185399517Y-177828427D03*
X185965202Y-177262742D03*
X186530887Y-176697056D03*
X187096573Y-176131371D03*
X187662258Y-175565685D03*
X188227944Y-175000000D03*
X188793629Y-174434315D03*
X189359315Y-173868629D03*
X189925000Y-173302944D03*
X190490685Y-172737258D03*
X191056371Y-172171573D03*
X191622056Y-171605887D03*
X192187742Y-171040202D03*
X192753427Y-170474517D03*
X184833831Y-177262742D03*
X185399517Y-176697056D03*
X185965202Y-176131371D03*
X186530887Y-175565685D03*
X187096573Y-175000000D03*
X187662258Y-174434315D03*
X188227944Y-173868629D03*
X188793629Y-173302944D03*
X189359315Y-172737258D03*
X189925000Y-172171573D03*
X190490685Y-171605887D03*
X191056371Y-171040202D03*
X191622056Y-170474517D03*
X192187742Y-169908831D03*
X184268146Y-176697056D03*
X184833831Y-176131371D03*
X185399517Y-175565685D03*
X185965202Y-175000000D03*
X186530887Y-174434315D03*
X187096573Y-173868629D03*
X187662258Y-173302944D03*
X188227944Y-172737258D03*
X188793629Y-172171573D03*
X189359315Y-171605887D03*
X189925000Y-171040202D03*
X190490685Y-170474517D03*
X191056371Y-169908831D03*
X191622056Y-169343146D03*
X183702460Y-176131371D03*
X184268146Y-175565685D03*
X184833831Y-175000000D03*
X185399517Y-174434315D03*
X185965202Y-173868629D03*
X186530887Y-173302944D03*
X187096573Y-172737258D03*
X187662258Y-172171573D03*
X188227944Y-171605887D03*
X188793629Y-171040202D03*
X189359315Y-170474517D03*
X189925000Y-169908831D03*
X190490685Y-169343146D03*
X191056371Y-168777460D03*
X183136775Y-175565685D03*
X183702460Y-175000000D03*
X184268146Y-174434315D03*
X184833831Y-173868629D03*
X185399517Y-173302944D03*
X185965202Y-172737258D03*
X186530887Y-172171573D03*
X187096573Y-171605887D03*
X187662258Y-171040202D03*
X188227944Y-170474517D03*
X188793629Y-169908831D03*
X189359315Y-169343146D03*
X189925000Y-168777460D03*
X190490685Y-168211775D03*
X182571089Y-175000000D03*
X183136775Y-174434315D03*
X183702460Y-173868629D03*
X184268146Y-173302944D03*
X184833831Y-172737258D03*
X185399517Y-172171573D03*
X185965202Y-171605887D03*
X186530887Y-171040202D03*
X187096573Y-170474517D03*
X187662258Y-169908831D03*
X188227944Y-169343146D03*
X188793629Y-168777460D03*
X189359315Y-168211775D03*
X189925000Y-167646089D03*
%TD*%
D65*
%TO.C,U305*%
X233344334Y-181289219D03*
X232884714Y-180829600D03*
X232425095Y-180369980D03*
X231169980Y-181625095D03*
X231629600Y-182084714D03*
X232089219Y-182544334D03*
D66*
X232257157Y-181457157D03*
%TD*%
D67*
%TO.C,U303*%
X220150000Y-186900000D03*
D68*
X220680330Y-184672614D03*
X221246016Y-185238299D03*
X221811701Y-185803984D03*
X222377386Y-186369670D03*
X219619670Y-189127386D03*
X219053984Y-188561701D03*
X218488299Y-187996016D03*
X217922614Y-187430330D03*
%TD*%
D69*
%TO.C,U302*%
X227194597Y-166606821D03*
X226841044Y-166960374D03*
X226487490Y-167313928D03*
X226133937Y-167667481D03*
D70*
X226133937Y-168745819D03*
X226487490Y-169099372D03*
X226841044Y-169452926D03*
X227194597Y-169806479D03*
D69*
X228272935Y-169806479D03*
X228626488Y-169452926D03*
X228980042Y-169099372D03*
X229333595Y-168745819D03*
D70*
X229333595Y-167667481D03*
X228980042Y-167313928D03*
X228626488Y-166960374D03*
X228272935Y-166606821D03*
D71*
X227733766Y-168206650D03*
%TD*%
D72*
%TO.C,U104*%
X197350000Y-155650000D03*
X197350000Y-156050000D03*
X197350000Y-156450000D03*
X197350000Y-156850000D03*
X197350000Y-157250000D03*
X197350000Y-157650000D03*
D73*
X197850000Y-158150000D03*
X198250000Y-158150000D03*
X198650000Y-158150000D03*
X199050000Y-158150000D03*
X199450000Y-158150000D03*
X199850000Y-158150000D03*
D72*
X200350000Y-157650000D03*
X200350000Y-157250000D03*
X200350000Y-156850000D03*
X200350000Y-156450000D03*
X200350000Y-156050000D03*
X200350000Y-155650000D03*
D73*
X199850000Y-155150000D03*
X199450000Y-155150000D03*
X199050000Y-155150000D03*
X198650000Y-155150000D03*
X198250000Y-155150000D03*
X197850000Y-155150000D03*
%TD*%
D15*
%TO.C,TP201*%
X189800000Y-122000000D03*
%TD*%
%TO.C,TP14*%
X206900000Y-104250000D03*
%TD*%
%TO.C,TP12*%
X220500000Y-114100000D03*
%TD*%
%TO.C,TP11*%
X189800000Y-124500000D03*
%TD*%
%TO.C,TP10*%
X203600000Y-136000000D03*
%TD*%
%TO.C,TP9*%
X201100000Y-136000000D03*
%TD*%
%TO.C,TP8*%
X198600000Y-135950000D03*
%TD*%
%TO.C,TP7*%
X196100000Y-135950000D03*
%TD*%
%TO.C,TP6*%
X204400000Y-104250000D03*
%TD*%
%TO.C,TP5*%
X220500000Y-119100000D03*
%TD*%
%TO.C,TP4*%
X220500000Y-116600000D03*
%TD*%
%TO.C,TP3*%
X209400000Y-104220000D03*
%TD*%
%TO.C,TP2*%
X201900000Y-104250000D03*
%TD*%
%TO.C,TP1*%
X211900000Y-104200000D03*
%TD*%
D74*
%TO.C,R604*%
X227600000Y-144475000D03*
X227600000Y-146125000D03*
%TD*%
D75*
%TO.C,R603*%
X225950000Y-136425000D03*
X227600000Y-136425000D03*
%TD*%
D32*
%TO.C,R601*%
X221185000Y-150800000D03*
X219535000Y-150800000D03*
%TD*%
D37*
%TO.C,R307*%
X230286637Y-182536637D03*
X231453363Y-183703363D03*
%TD*%
D38*
%TO.C,R306*%
X224216637Y-167333363D03*
X225383363Y-166166637D03*
%TD*%
D37*
%TO.C,R305*%
X230226637Y-177116637D03*
X231393363Y-178283363D03*
%TD*%
%TO.C,R302*%
X230713882Y-170050998D03*
X231880608Y-171217724D03*
%TD*%
D32*
%TO.C,R204*%
X209545000Y-136070000D03*
X207895000Y-136070000D03*
%TD*%
D76*
%TO.C,R8*%
X176350000Y-110625000D03*
X176350000Y-108975000D03*
%TD*%
D74*
%TO.C,R1*%
X220750000Y-106935000D03*
X220750000Y-108585000D03*
%TD*%
D77*
%TO.C,Q501*%
X173560000Y-182500000D03*
X174510000Y-184500000D03*
X172610000Y-184500000D03*
%TD*%
%TO.C,Q301*%
X236100000Y-184600000D03*
X235150000Y-182600000D03*
X237050000Y-182600000D03*
%TD*%
D78*
%TO.C,L502*%
X172902500Y-180960000D03*
X174477500Y-180960000D03*
%TD*%
D33*
%TO.C,L302*%
X236987500Y-181000000D03*
X235412500Y-181000000D03*
%TD*%
D79*
%TO.C,JP104*%
X195450000Y-158250000D03*
D80*
X195450000Y-159550000D03*
%TD*%
D81*
%TO.C,JP103*%
X194950000Y-140900000D03*
D82*
X196250000Y-140900000D03*
%TD*%
D83*
%TO.C,JP102*%
X212460000Y-149980000D03*
D84*
X212460000Y-148680000D03*
%TD*%
D79*
%TO.C,JP101*%
X208550000Y-152900000D03*
D80*
X208550000Y-154200000D03*
%TD*%
D85*
%TO.C,J501*%
X171425000Y-176200000D03*
X171425000Y-173800000D03*
D86*
X171425000Y-178800000D03*
X171425000Y-171200000D03*
D87*
X173975000Y-178100000D03*
X173975000Y-171900000D03*
D88*
X174100000Y-176300000D03*
X174100000Y-173700000D03*
X174100000Y-175650000D03*
X174100000Y-174350000D03*
X174100000Y-175000000D03*
%TD*%
D17*
%TO.C,J306*%
X236130000Y-165750000D03*
D18*
X233590000Y-165750000D03*
%TD*%
D85*
%TO.C,J301*%
X238425000Y-173800000D03*
X238425000Y-176200000D03*
D86*
X238425000Y-171200000D03*
X238425000Y-178800000D03*
D87*
X235875000Y-171900000D03*
X235875000Y-178100000D03*
D88*
X235750000Y-173700000D03*
X235750000Y-176300000D03*
X235750000Y-174350000D03*
X235750000Y-175650000D03*
X235750000Y-175000000D03*
%TD*%
D85*
%TO.C,J7*%
X171425000Y-114200000D03*
X171425000Y-111800000D03*
D86*
X171425000Y-116800000D03*
X171425000Y-109200000D03*
D87*
X173975000Y-116100000D03*
X173975000Y-109900000D03*
D88*
X174100000Y-114300000D03*
X174100000Y-111700000D03*
X174100000Y-113650000D03*
X174100000Y-112350000D03*
X174100000Y-113000000D03*
%TD*%
D89*
%TO.C,IC1*%
X178440000Y-111025000D03*
D90*
X178940000Y-111050000D03*
X179440000Y-111050000D03*
X179440000Y-110450000D03*
X178940000Y-110450000D03*
X178440000Y-110450000D03*
%TD*%
D91*
%TO.C,FB601*%
X227900000Y-142887500D03*
X227900000Y-141312500D03*
%TD*%
D49*
%TO.C,F301*%
X233900000Y-178112500D03*
X233900000Y-179687500D03*
%TD*%
D78*
%TO.C,D602*%
X225987500Y-137900000D03*
X227562500Y-137900000D03*
%TD*%
D33*
%TO.C,D601*%
X221147500Y-149300000D03*
X219572500Y-149300000D03*
%TD*%
D92*
%TO.C,D304*%
X231815200Y-169002711D03*
X232928894Y-170116405D03*
%TD*%
D91*
%TO.C,D1*%
X220750000Y-111557500D03*
X220750000Y-109982500D03*
%TD*%
D40*
%TO.C,C602*%
X229000000Y-146075000D03*
X229000000Y-144525000D03*
%TD*%
D93*
%TO.C,C532*%
X183088008Y-170851992D03*
X181991992Y-171948008D03*
%TD*%
D51*
%TO.C,C524*%
X180921992Y-168801992D03*
X182018008Y-169898008D03*
%TD*%
%TO.C,C508*%
X199223008Y-178323008D03*
X198126992Y-177226992D03*
%TD*%
D94*
%TO.C,C504*%
X180481992Y-181968008D03*
X181578008Y-180871992D03*
%TD*%
D93*
%TO.C,C503*%
X183668008Y-178771992D03*
X182571992Y-179868008D03*
%TD*%
D94*
%TO.C,C332*%
X215011992Y-182658008D03*
X216108008Y-181561992D03*
%TD*%
D44*
%TO.C,C327*%
X232325000Y-176600000D03*
X233875000Y-176600000D03*
%TD*%
D41*
%TO.C,C324*%
X217150738Y-184727778D03*
X216054722Y-183631762D03*
%TD*%
%TO.C,C319*%
X218183114Y-183695402D03*
X217087098Y-182599386D03*
%TD*%
D93*
%TO.C,C318*%
X232048008Y-173841992D03*
X230951992Y-174938008D03*
%TD*%
%TO.C,C308*%
X227498008Y-164051992D03*
X226401992Y-165148008D03*
%TD*%
D41*
%TO.C,C304*%
X226718008Y-184628008D03*
X225621992Y-183531992D03*
%TD*%
D51*
%TO.C,C303*%
X223491992Y-181421992D03*
X224588008Y-182518008D03*
%TD*%
D93*
%TO.C,C302*%
X228606016Y-176543984D03*
X227510000Y-177640000D03*
%TD*%
D94*
%TO.C,C301*%
X225411992Y-179738008D03*
X226508008Y-178641992D03*
%TD*%
D44*
%TO.C,C204*%
X209440000Y-134550000D03*
X210990000Y-134550000D03*
%TD*%
%TO.C,C203*%
X206420000Y-134550000D03*
X207970000Y-134550000D03*
%TD*%
D42*
%TO.C,C102*%
X210600000Y-154115000D03*
X210600000Y-155665000D03*
%TD*%
D40*
%TO.C,C101*%
X215920000Y-155660000D03*
X215920000Y-154110000D03*
%TD*%
%TO.C,C3*%
X181560000Y-111595000D03*
X181560000Y-110045000D03*
%TD*%
D64*
%TO.C,U301*%
X227278911Y-175000000D03*
X226713225Y-174434315D03*
X226147540Y-173868629D03*
X225581854Y-173302944D03*
X225016169Y-172737258D03*
X224450483Y-172171573D03*
X223884798Y-171605887D03*
X223319113Y-171040202D03*
X222753427Y-170474517D03*
X222187742Y-169908831D03*
X221622056Y-169343146D03*
X221056371Y-168777460D03*
X220490685Y-168211775D03*
X219925000Y-167646089D03*
X226713225Y-175565685D03*
X226147540Y-175000000D03*
X225581854Y-174434315D03*
X225016169Y-173868629D03*
X224450483Y-173302944D03*
X223884798Y-172737258D03*
X223319113Y-172171573D03*
X222753427Y-171605887D03*
X222187742Y-171040202D03*
X221622056Y-170474517D03*
X221056371Y-169908831D03*
X220490685Y-169343146D03*
X219925000Y-168777460D03*
X219359315Y-168211775D03*
X226147540Y-176131371D03*
X225581854Y-175565685D03*
X225016169Y-175000000D03*
X224450483Y-174434315D03*
X223884798Y-173868629D03*
X223319113Y-173302944D03*
X222753427Y-172737258D03*
X222187742Y-172171573D03*
X221622056Y-171605887D03*
X221056371Y-171040202D03*
X220490685Y-170474517D03*
X219925000Y-169908831D03*
X219359315Y-169343146D03*
X218793629Y-168777460D03*
X225581854Y-176697056D03*
X225016169Y-176131371D03*
X224450483Y-175565685D03*
X223884798Y-175000000D03*
X223319113Y-174434315D03*
X222753427Y-173868629D03*
X222187742Y-173302944D03*
X221622056Y-172737258D03*
X221056371Y-172171573D03*
X220490685Y-171605887D03*
X219925000Y-171040202D03*
X219359315Y-170474517D03*
X218793629Y-169908831D03*
X218227944Y-169343146D03*
X225016169Y-177262742D03*
X224450483Y-176697056D03*
X223884798Y-176131371D03*
X223319113Y-175565685D03*
X222753427Y-175000000D03*
X222187742Y-174434315D03*
X221622056Y-173868629D03*
X221056371Y-173302944D03*
X220490685Y-172737258D03*
X219925000Y-172171573D03*
X219359315Y-171605887D03*
X218793629Y-171040202D03*
X218227944Y-170474517D03*
X217662258Y-169908831D03*
X224450483Y-177828427D03*
X223884798Y-177262742D03*
X223319113Y-176697056D03*
X222753427Y-176131371D03*
X222187742Y-175565685D03*
X221622056Y-175000000D03*
X221056371Y-174434315D03*
X220490685Y-173868629D03*
X219925000Y-173302944D03*
X219359315Y-172737258D03*
X218793629Y-172171573D03*
X218227944Y-171605887D03*
X217662258Y-171040202D03*
X217096573Y-170474517D03*
X223884798Y-178394113D03*
X223319113Y-177828427D03*
X222753427Y-177262742D03*
X222187742Y-176697056D03*
X221622056Y-176131371D03*
X221056371Y-175565685D03*
X220490685Y-175000000D03*
X219925000Y-174434315D03*
X219359315Y-173868629D03*
X218793629Y-173302944D03*
X218227944Y-172737258D03*
X217662258Y-172171573D03*
X217096573Y-171605887D03*
X216530887Y-171040202D03*
X223319113Y-178959798D03*
X222753427Y-178394113D03*
X222187742Y-177828427D03*
X221622056Y-177262742D03*
X221056371Y-176697056D03*
X220490685Y-176131371D03*
X219925000Y-175565685D03*
X219359315Y-175000000D03*
X218793629Y-174434315D03*
X218227944Y-173868629D03*
X217662258Y-173302944D03*
X217096573Y-172737258D03*
X216530887Y-172171573D03*
X215965202Y-171605887D03*
X222753427Y-179525483D03*
X222187742Y-178959798D03*
X221622056Y-178394113D03*
X221056371Y-177828427D03*
X220490685Y-177262742D03*
X219925000Y-176697056D03*
X219359315Y-176131371D03*
X218793629Y-175565685D03*
X218227944Y-175000000D03*
X217662258Y-174434315D03*
X217096573Y-173868629D03*
X216530887Y-173302944D03*
X215965202Y-172737258D03*
X215399517Y-172171573D03*
X222187742Y-180091169D03*
X221622056Y-179525483D03*
X221056371Y-178959798D03*
X220490685Y-178394113D03*
X219925000Y-177828427D03*
X219359315Y-177262742D03*
X218793629Y-176697056D03*
X218227944Y-176131371D03*
X217662258Y-175565685D03*
X217096573Y-175000000D03*
X216530887Y-174434315D03*
X215965202Y-173868629D03*
X215399517Y-173302944D03*
X214833831Y-172737258D03*
X221622056Y-180656854D03*
X221056371Y-180091169D03*
X220490685Y-179525483D03*
X219925000Y-178959798D03*
X219359315Y-178394113D03*
X218793629Y-177828427D03*
X218227944Y-177262742D03*
X217662258Y-176697056D03*
X217096573Y-176131371D03*
X216530887Y-175565685D03*
X215965202Y-175000000D03*
X215399517Y-174434315D03*
X214833831Y-173868629D03*
X214268146Y-173302944D03*
X221056371Y-181222540D03*
X220490685Y-180656854D03*
X219925000Y-180091169D03*
X219359315Y-179525483D03*
X218793629Y-178959798D03*
X218227944Y-178394113D03*
X217662258Y-177828427D03*
X217096573Y-177262742D03*
X216530887Y-176697056D03*
X215965202Y-176131371D03*
X215399517Y-175565685D03*
X214833831Y-175000000D03*
X214268146Y-174434315D03*
X213702460Y-173868629D03*
X220490685Y-181788225D03*
X219925000Y-181222540D03*
X219359315Y-180656854D03*
X218793629Y-180091169D03*
X218227944Y-179525483D03*
X217662258Y-178959798D03*
X217096573Y-178394113D03*
X216530887Y-177828427D03*
X215965202Y-177262742D03*
X215399517Y-176697056D03*
X214833831Y-176131371D03*
X214268146Y-175565685D03*
X213702460Y-175000000D03*
X213136775Y-174434315D03*
X219925000Y-182353911D03*
X219359315Y-181788225D03*
X218793629Y-181222540D03*
X218227944Y-180656854D03*
X217662258Y-180091169D03*
X217096573Y-179525483D03*
X216530887Y-178959798D03*
X215965202Y-178394113D03*
X215399517Y-177828427D03*
X214833831Y-177262742D03*
X214268146Y-176697056D03*
X213702460Y-176131371D03*
X213136775Y-175565685D03*
X212571089Y-175000000D03*
%TD*%
D54*
%TO.C,X601*%
X233800000Y-141360000D03*
X231260000Y-138820000D03*
X231260000Y-143900000D03*
X236340000Y-143900000D03*
X236340000Y-138820000D03*
%TD*%
D95*
%TO.C,U103*%
X200175000Y-146775000D03*
X200175000Y-145525000D03*
X200175000Y-144275000D03*
X200175000Y-143025000D03*
X198025000Y-145525000D03*
X198025000Y-144275000D03*
X198025000Y-143025000D03*
X198025000Y-146775000D03*
%TD*%
D96*
%TO.C,U102*%
X211687500Y-146025000D03*
X211687500Y-146525000D03*
X213212500Y-146025000D03*
X213212500Y-146525000D03*
X211687500Y-147025000D03*
X213212500Y-147025000D03*
X211687500Y-145525000D03*
X213212500Y-145525000D03*
D97*
X212200000Y-147037500D03*
X212700000Y-147037500D03*
X212700000Y-145512500D03*
X212200000Y-145512500D03*
%TD*%
D98*
%TO.C,U101*%
X213175000Y-159645000D03*
X212745000Y-159645000D03*
X212315000Y-159645000D03*
X211885000Y-159645000D03*
X211455000Y-159645000D03*
X211025000Y-159645000D03*
X210595000Y-159645000D03*
X210165000Y-159645000D03*
X213175000Y-157195000D03*
X212745000Y-157195000D03*
X212315000Y-157195000D03*
X211885000Y-157195000D03*
X211455000Y-157195000D03*
X211025000Y-157195000D03*
X210595000Y-157195000D03*
D99*
X213145000Y-159065000D03*
X210195000Y-159065000D03*
X213145000Y-158635000D03*
X210195000Y-158635000D03*
X213145000Y-158205000D03*
X210195000Y-158205000D03*
X213145000Y-157775000D03*
X210195000Y-157775000D03*
D98*
X210165000Y-157195000D03*
%TD*%
D100*
%TO.C,REF\u002A\u002A*%
X231547056Y-68302944D03*
X229850000Y-67600000D03*
X228152944Y-68302944D03*
X227450000Y-70000000D03*
X228152944Y-71697056D03*
X229850000Y-72400000D03*
X231547056Y-71697056D03*
X232250000Y-70000000D03*
D101*
X229850000Y-70000000D03*
%TD*%
D100*
%TO.C,REF\u002A\u002A*%
X181697056Y-68302944D03*
X180000000Y-67600000D03*
X178302944Y-68302944D03*
X177600000Y-70000000D03*
X178302944Y-71697056D03*
X180000000Y-72400000D03*
X181697056Y-71697056D03*
X182400000Y-70000000D03*
D101*
X180000000Y-70000000D03*
%TD*%
D100*
%TO.C,REF\u002A\u002A*%
X181697056Y-220702944D03*
X180000000Y-220000000D03*
X178302944Y-220702944D03*
X177600000Y-222400000D03*
X178302944Y-224097056D03*
X180000000Y-224800000D03*
X181697056Y-224097056D03*
X182400000Y-222400000D03*
D101*
X180000000Y-222400000D03*
%TD*%
D100*
%TO.C,REF\u002A\u002A*%
X231547056Y-220652144D03*
X229850000Y-219949200D03*
X228152944Y-220652144D03*
X227450000Y-222349200D03*
X228152944Y-224046256D03*
X229850000Y-224749200D03*
X231547056Y-224046256D03*
X232250000Y-222349200D03*
D101*
X229850000Y-222349200D03*
%TD*%
M02*
