M48
; DRILL file {KiCad 6.0.2} date Wed Feb 16 12:43:45 2022
; FORMAT={-:-/ absolute / inch / decimal}
; #@! TF.CreationDate,2022-02-16T12:43:45-06:00
; #@! TF.GenerationSoftware,Kicad,Pcbnew,6.0.2
; #@! TF.FileFunction,Plated,1,4,PTH
FMAT,2
INCH
; #@! TA.AperFunction,Plated,PTH,ViaDrill
T1C0.0079
; #@! TA.AperFunction,Plated,PTH,ViaDrill
T2C0.0118
; #@! TA.AperFunction,Plated,PTH,ViaDrill
T3C0.0157
; #@! TA.AperFunction,Plated,PTH,ComponentDrill
T4C0.0197
; #@! TA.AperFunction,Plated,PTH,ComponentDrill
T5C0.0394
; #@! TA.AperFunction,Plated,PTH,ComponentDrill
T6C0.0433
; #@! TA.AperFunction,Plated,PTH,ComponentDrill
T7C0.0591
; #@! TA.AperFunction,Plated,PTH,ComponentDrill
T8C0.0630
; #@! TA.AperFunction,Plated,PTH,ComponentDrill
T9C0.1260
%
G90
G05
T1
X6.9Y-6.8898
X6.9008Y-6.8642
X6.9378Y-6.813
X6.952Y-6.7516
X6.9744Y-6.7295
X6.9969Y-6.7071
X7.0857Y-6.93
X7.1035Y-7.3134
X7.1323Y-6.9122
X7.2029Y-7.002
X7.2098Y-6.8898
X7.2102Y-6.9343
X7.2323Y-6.8228
X7.2323Y-6.9567
X7.2357Y-6.7594
X7.2529Y-7.0091
X7.2549Y-6.7146
X7.2582Y-6.7595
X7.2728Y-6.6209
X7.2768Y-6.8228
X7.2768Y-6.8673
X7.2772Y-6.9567
X7.2909Y-6.5748
X7.2992Y-6.8453
X7.2992Y-6.8898
X7.2992Y-6.9343
X7.3Y-6.0563
X7.3209Y-7.0008
X7.3217Y-6.8677
X7.322Y-6.9122
X7.3319Y-6.6543
X7.3411Y-6.98
X7.3437Y-6.9343
X7.3484Y-6.4803
X7.3661Y-6.8673
X7.3669Y-7.0965
X7.3686Y-6.8236
X7.3688Y-7.0484
X7.3853Y-6.6156
X7.3878Y-6.2854
X7.3878Y-6.8453
X7.3882Y-7.024
X7.4016Y-6.3839
X7.4106Y-6.6898
X7.4106Y-7.0461
X7.411Y-6.8228
X7.4213Y-6.1063
X7.4232Y-6.0571
X7.4252Y-6.3346
X7.4327Y-6.7118
X7.4327Y-6.8008
X7.4327Y-6.9343
X7.4327Y-7.0654
X7.4331Y-6.9787
X7.4331Y-7.0236
X7.4331Y-7.1571
X7.4469Y-6.3346
X7.4476Y-6.5858
X7.4508Y-7.189
X7.4551Y-6.7343
X7.4551Y-6.9567
X7.4551Y-7.135
X7.4772Y-6.6224
X7.4772Y-7.1571
X7.4776Y-6.2075
X7.4776Y-6.5764
X7.4776Y-6.7559
X7.4776Y-7.0677
X7.4783Y-6.1063
X7.4825Y-7.4041
X7.4957Y-7.2283
X7.4996Y-6.8673
X7.4996Y-6.9122
X7.4996Y-6.9571
X7.4996Y-7.0457
X7.5Y-6.2854
X7.5126Y-7.4047
X7.5138Y-6.0571
X7.5217Y-6.7559
X7.522Y-7.0232
X7.522Y-7.0677
X7.5236Y-6.4051
X7.5315Y-7.1894
X7.5437Y-7.4043
X7.5441Y-6.9592
X7.5441Y-6.6898
X7.5441Y-6.7783
X7.5441Y-6.9118
X7.5441Y-7.0012
X7.5441Y-7.0906
X7.5441Y-7.174
X7.5443Y-6.8228
X7.5452Y-7.1343
X7.5665Y-6.8004
X7.5665Y-6.9787
X7.5669Y-6.8455
X7.5669Y-7.1362
X7.5681Y-7.2783
X7.5744Y-6.4039
X7.5819Y-7.1087
X7.5886Y-6.9114
X7.5886Y-6.9567
X7.589Y-7.0008
X7.5959Y-7.1219
X7.6102Y-6.9369
X7.6138Y-6.8925
X7.626Y-7.3417
X7.6331Y-7.0011
X7.6335Y-6.9563
X7.6437Y-7.3252
X7.6555Y-6.8004
X7.6555Y-6.8898
X7.6568Y-6.9806
X7.6614Y-7.3081
X7.6614Y-8.1563
X7.6669Y-7.0831
X7.6709Y-7.028
X7.6772Y-7.2923
X7.6772Y-8.2055
X7.6776Y-6.9567
X7.6819Y-6.4358
X7.688Y-7.2244
X7.6921Y-7.2776
X7.7Y-6.9763
X7.7085Y-7.2616
X7.7339Y-7.1783
X7.7374Y-6.9496
X7.7457Y-7.1984
X7.7579Y-7.003
X7.7606Y-6.9287
X7.774Y-6.7594
X7.7795Y-6.9547
X7.7811Y-6.9047
X7.7945Y-6.8181
X7.8209Y-6.4354
X7.8356Y-7.0896
X7.8386Y-6.8701
X7.8508Y-6.8437
X7.8555Y-6.885
X7.9006Y-7.0128
X7.9163Y-6.9518
X7.9181Y-8.3047
X7.9445Y-8.2547
X7.9445Y-6.939
X7.985Y-6.9803
X7.985Y-8.4031
X8.0122Y-8.3535
X8.0122Y-6.9803
X8.0303Y-6.8449
X8.1102Y-6.8217
X8.1185Y-6.9193
X8.137Y-7.0205
X8.1575Y-7.0276
X8.1634Y-8.0004
X8.1732Y-7.0443
X8.1811Y-5.8189
X8.1939Y-7.25
X8.1939Y-7.5748
X8.2146Y-7.2618
X8.2146Y-7.6205
X8.2333Y-7.2736
X8.2514Y-7.284
X8.2598Y-6.4161
X8.2726Y-7.2953
X8.2884Y-7.7189
X8.2909Y-6.3189
X8.3079Y-6.3386
X8.3118Y-6.8423
X8.3268Y-6.8587
X8.3343Y-5.8114
X8.3346Y-6.378
X8.3492Y-6.8476
X8.3661Y-6.9793
X8.3691Y-7.4193
X8.3693Y-6.9146
X8.3717Y-7.4699
X8.373Y-6.0139
X8.3748Y-6.8228
X8.376Y-7.5197
X8.3863Y-7.0015
X8.4026Y-7.3091
X8.4071Y-7.0205
X8.4163Y-7.3563
X8.4173Y-6.8008
X8.4272Y-7.0404
X8.4281Y-7.2844
X8.4346Y-6.7567
X8.4425Y-7.0685
X8.4555Y-7.0835
X8.4577Y-7.3701
X8.4583Y-6.8232
X8.4583Y-6.9563
X8.4606Y-7.4203
X8.4698Y-7.0964
X8.4803Y-6.9341
X8.4803Y-6.9787
X8.4814Y-6.7393
X8.4839Y-7.1122
X8.4882Y-5.7461
X8.5024Y-6.9567
X8.5059Y-5.4291
X8.511Y-6.5543
X8.5315Y-5.5177
X8.535Y-7.126
X8.5398Y-6.5957
X8.5406Y-6.5165
X8.5469Y-6.8681
X8.5472Y-6.8228
X8.5484Y-6.5713
X8.5531Y-6.5339
X8.5689Y-7.3504
X8.5693Y-6.2146
X8.5697Y-6.9343
X8.5783Y-7.4252
X8.5917Y-6.6894
X8.5917Y-6.7783
X8.5917Y-6.8228
X8.5917Y-6.9118
X8.5917Y-7.0902
X8.5922Y-6.9567
X8.5933Y-7.1457
X8.6004Y-7.4476
X8.6126Y-6.7977
X8.613Y-6.598
X8.6138Y-6.9343
X8.6138Y-7.0232
X8.6138Y-7.1122
X8.6311Y-6.0
X8.6358Y-7.0012
X8.6362Y-6.6894
X8.6362Y-6.7339
X8.6362Y-7.0898
X8.6476Y-5.8268
X8.6583Y-6.7559
X8.6583Y-6.8449
X8.6583Y-6.9791
X8.6587Y-6.5791
X8.6587Y-7.1571
X8.6693Y-5.5059
X8.6799Y-6.7783
X8.6807Y-6.8228
X8.6811Y-6.7343
X8.6811Y-6.9567
X8.6811Y-7.0457
X8.6815Y-6.6008
X8.7024Y-7.0236
X8.7028Y-6.8902
X8.7028Y-7.1132
X8.703Y-6.7564
X8.7031Y-7.1575
X8.7223Y-6.7783
X8.7252Y-6.6894
X8.7252Y-6.8228
X8.7252Y-6.9122
X8.7252Y-7.0902
X8.7254Y-7.001
X8.7256Y-7.1354
X8.7256Y-6.8677
X8.7382Y-5.564
X8.7382Y-5.5846
X8.7382Y-5.624
X8.7382Y-5.6457
X8.7472Y-6.8008
X8.7476Y-6.7122
X8.7476Y-6.9346
X8.7476Y-6.9787
X8.7476Y-7.2886
X8.748Y-6.8445
X8.7547Y-6.5264
X8.7667Y-6.6043
X8.7697Y-6.9567
X8.7709Y-6.6309
X8.7764Y-7.3157
X8.7766Y-7.372
X8.7795Y-5.4862
X8.7815Y-5.2717
X8.7815Y-5.5315
X8.7835Y-5.6398
X8.7921Y-6.9343
X8.7921Y-6.9787
X8.7925Y-6.8453
X8.8031Y-6.565
X8.8079Y-6.6543
X8.814Y-6.8671
X8.8142Y-6.9567
X8.8142Y-7.0469
X8.8142Y-6.9118
X8.8146Y-7.0012
X8.8272Y-6.6626
X8.831Y-6.6406
X8.8319Y-6.7031
X8.8366Y-6.8008
X8.8374Y-6.7551
X8.8425Y-5.4094
X8.8425Y-5.5787
X8.8591Y-6.778
X8.8693Y-7.0154
X8.8744Y-6.6327
X8.876Y-7.4222
X8.876Y-7.4724
X8.8815Y-6.9343
X8.8823Y-6.7421
X8.8829Y-6.7776
X8.8846Y-6.5783
X8.8937Y-5.5276
X8.8976Y-5.4626
X8.8976Y-5.4862
X8.8976Y-5.6437
X8.8984Y-5.5531
X8.8984Y-5.576
X8.9027Y-6.7449
X8.9039Y-6.9122
X8.9075Y-6.6949
X8.9094Y-6.5531
X8.9213Y-6.439
X8.922Y-6.8299
X8.9256Y-6.8906
X8.9291Y-6.9378
X8.9329Y-6.7991
X8.9394Y-5.5256
X8.9512Y-6.9161
X8.9606Y-5.7835
X8.9764Y-6.8898
X9.0069Y-7.2067
X9.0098Y-6.7067
X9.0173Y-6.5421
X9.0394Y-6.6929
X9.0441Y-6.6291
X9.0581Y-7.372
X9.0591Y-6.5882
X9.0829Y-7.1191
X9.1142Y-7.5482
X9.1467Y-6.9207
T2
X6.7953Y-7.2244
X6.8522Y-6.0868
X6.8543Y-5.1634
X6.8563Y-4.8209
X6.8563Y-4.8622
X6.8563Y-4.9055
X6.8563Y-4.9488
X6.8563Y-4.9902
X6.8563Y-5.0354
X6.8563Y-5.0787
X6.8563Y-5.122
X6.8705Y-7.2228
X6.9008Y-6.9512
X6.9114Y-4.5138
X6.9173Y-4.4232
X6.9281Y-6.1441
X6.939Y-6.001
X6.9409Y-4.6004
X6.948Y-7.5441
X6.9486Y-7.5935
X6.949Y-7.6919
X6.9494Y-7.6427
X6.9496Y-7.7409
X6.9496Y-7.7902
X6.9496Y-7.8394
X6.9496Y-7.8886
X6.9557Y-8.4685
X6.9559Y-8.1744
X6.9563Y-8.2236
X6.9563Y-8.2724
X6.9567Y-8.3217
X6.9567Y-8.3709
X6.9567Y-8.4205
X6.9567Y-8.5189
X6.9705Y-6.0384
X6.9724Y-4.4764
X6.9823Y-6.2382
X7.002Y-7.2661
X7.0024Y-4.4024
X7.0039Y-6.2785
X7.0217Y-7.0059
X7.0335Y-5.0827
X7.0443Y-6.3169
X7.0571Y-6.6614
X7.061Y-4.9921
X7.063Y-4.9567
X7.0642Y-7.139
X7.0949Y-4.3646
X7.0984Y-5.0197
X7.1063Y-4.9075
X7.1335Y-7.1921
X7.1366Y-3.6744
X7.153Y-7.2722
X7.1642Y-4.0122
X7.1791Y-4.9567
X7.1791Y-4.9921
X7.2083Y-6.7866
X7.2197Y-7.1453
X7.2741Y-7.085
X7.281Y-7.0236
X7.3201Y-7.3122
X7.3287Y-6.522
X7.3996Y-6.2398
X7.4449Y-3.539
X7.4453Y-3.6177
X7.4453Y-3.6965
X7.4457Y-3.8543
X7.4461Y-3.9335
X7.4567Y-7.265
X7.4579Y-8.622
X7.5059Y-4.8504
X7.5197Y-4.9488
X7.5276Y-6.2398
X7.5689Y-4.2244
X7.5689Y-5.2224
X7.6161Y-5.5472
X7.6173Y-5.228
X7.626Y-7.6697
X7.6437Y-7.7681
X7.6492Y-5.3689
X7.6669Y-3.7634
X7.6693Y-5.6654
X7.6949Y-6.189
X7.7039Y-6.511
X7.7173Y-5.1717
X7.7177Y-5.124
X7.752Y-5.6791
X7.752Y-5.7303
X7.7665Y-5.0787
X7.7677Y-4.4242
X7.7677Y-5.0236
X7.7677Y-5.311
X7.7685Y-5.1232
X7.772Y-5.1791
X7.7772Y-4.174
X7.785Y-8.6209
X7.7894Y-3.7752
X7.8106Y-4.174
X7.8189Y-4.5236
X7.8189Y-4.624
X7.8189Y-4.7244
X7.8189Y-4.8228
X7.8189Y-4.9242
X7.8189Y-5.0709
X7.8209Y-6.2618
X7.8295Y-6.6224
X7.8366Y-6.0685
X7.8366Y-6.0106
X7.8366Y-6.0378
X7.8417Y-4.1728
X7.8506Y-6.3423
X7.8524Y-6.2618
X7.8669Y-5.072
X7.8681Y-4.8238
X7.8681Y-5.311
X7.8705Y-4.172
X7.8803Y-7.1835
X7.9016Y-6.1024
X7.9102Y-4.172
X7.9183Y-4.4754
X7.9183Y-4.9242
X7.9185Y-5.072
X7.9193Y-4.624
X7.9213Y-3.5394
X7.9213Y-4.0453
X7.9258Y-5.6801
X7.926Y-5.6307
X7.9266Y-5.7293
X7.9398Y-6.6004
X7.9665Y-5.311
X7.9675Y-4.6742
X7.9685Y-5.0709
X7.9811Y-5.2362
X7.985Y-6.7331
X7.9852Y-6.0866
X8.0177Y-4.9242
X8.0177Y-4.9744
X8.0177Y-5.0709
X8.0303Y-6.0173
X8.0303Y-6.228
X8.0303Y-6.6445
X8.0305Y-5.6516
X8.0423Y-5.3061
X8.0587Y-7.161
X8.0679Y-4.4744
X8.0679Y-4.5226
X8.0689Y-4.7244
X8.0689Y-4.872
X8.0748Y-5.75
X8.0748Y-6.0917
X8.0748Y-6.3465
X8.0748Y-6.6894
X8.111Y-8.6213
X8.1171Y-4.374
X8.1173Y-5.1744
X8.1181Y-4.9242
X8.1181Y-4.9744
X8.1201Y-5.6801
X8.1201Y-5.7906
X8.1201Y-6.2933
X8.1201Y-6.7776
X8.1535Y-6.128
X8.1673Y-4.5236
X8.1673Y-4.6742
X8.1693Y-5.0728
X8.2104Y-3.7491
X8.2106Y-5.9764
X8.2175Y-4.4744
X8.2185Y-4.7244
X8.2185Y-4.9252
X8.224Y-6.3106
X8.2346Y-6.2075
X8.2352Y-7.4656
X8.2449Y-3.8327
X8.2457Y-3.9154
X8.2461Y-3.9705
X8.2677Y-4.5236
X8.2677Y-4.624
X8.2807Y-5.7295
X8.2913Y-6.0315
X8.2937Y-4.202
X8.2941Y-5.7618
X8.3169Y-4.3677
X8.3177Y-4.2283
X8.3179Y-4.4242
X8.3179Y-4.4744
X8.3179Y-4.9252
X8.3179Y-5.0246
X8.3185Y-4.2701
X8.3185Y-4.3232
X8.3189Y-4.5236
X8.3189Y-4.624
X8.3189Y-4.7244
X8.3189Y-4.8238
X8.3327Y-5.6722
X8.3642Y-5.9488
X8.3681Y-4.4242
X8.3681Y-4.4744
X8.3681Y-5.0246
X8.3697Y-4.3224
X8.3929Y-4.2191
X8.3972Y-4.1472
X8.4169Y-4.1803
X8.4232Y-6.189
X8.4232Y-6.2618
X8.4252Y-5.7382
X8.4417Y-7.2181
X8.4598Y-4.1965
X8.4945Y-6.578
X8.502Y-6.0315
X8.5201Y-4.2224
X8.5551Y-8.5177
X8.5679Y-7.5197
X8.5689Y-4.2224
X8.5709Y-5.2264
X8.5748Y-7.2972
X8.5839Y-6.1945
X8.5866Y-4.7638
X8.5866Y-4.7992
X8.5866Y-4.8494
X8.5866Y-4.8976
X8.5866Y-4.9488
X8.5866Y-5.0
X8.5906Y-4.5492
X8.5909Y-4.4984
X8.6181Y-4.7992
X8.6181Y-4.8976
X8.6181Y-4.9488
X8.6181Y-5.0
X8.6181Y-4.8504
X8.6429Y-4.0398
X8.6496Y-4.7992
X8.6496Y-4.8976
X8.6496Y-4.9488
X8.6496Y-5.0
X8.6496Y-4.8504
X8.6654Y-7.4646
X8.6673Y-7.2539
X8.6894Y-6.2551
X8.6894Y-6.2858
X8.6894Y-6.3165
X8.6898Y-6.3457
X8.6898Y-6.378
X8.6909Y-6.224
X8.7551Y-5.8433
X8.7618Y-4.2795
X8.7618Y-4.3366
X8.7618Y-4.3917
X8.7618Y-4.4469
X8.7618Y-4.502
X8.7618Y-4.5551
X8.7618Y-4.6122
X8.7618Y-4.6673
X8.7618Y-4.7224
X8.7618Y-4.7795
X8.7618Y-4.8327
X8.7618Y-4.8878
X8.7618Y-4.939
X8.7618Y-4.9961
X8.7618Y-5.0474
X8.7618Y-5.1043
X8.7677Y-7.126
X8.7756Y-7.0965
X8.7795Y-6.0539
X8.8457Y-5.9618
X8.8472Y-7.1028
X8.8488Y-6.2043
X8.8819Y-8.0945
X8.9031Y-3.6799
X8.9138Y-7.1299
X8.9516Y-3.989
X8.9528Y-7.2953
X8.9543Y-6.7803
X8.9567Y-6.5315
X8.9665Y-5.1358
X8.9685Y-4.2795
X8.9685Y-4.4449
X8.9685Y-4.7756
X8.9685Y-4.9409
X8.9685Y-6.2894
X8.9705Y-4.6102
X8.9799Y-7.2787
X8.9803Y-5.1063
X8.9862Y-4.8445
X9.002Y-4.5886
X9.0035Y-3.8445
X9.0063Y-7.2598
X9.0102Y-6.8874
X9.0287Y-3.7811
X9.035Y-6.1461
X9.0358Y-3.989
X9.0433Y-6.9331
X9.0874Y-7.0508
X9.0925Y-6.2323
X9.1023Y-6.6318
X9.127Y-6.1461
X9.1382Y-6.2803
X9.1476Y-4.9035
X9.1496Y-4.9528
X9.1496Y-5.0059
X9.1575Y-5.0531
X9.1575Y-7.2067
X9.161Y-6.8189
X9.1614Y-7.0709
X9.1732Y-5.122
X9.176Y-8.2724
X9.176Y-8.322
X9.176Y-8.3713
X9.176Y-8.4201
X9.176Y-8.5185
X9.1762Y-8.1742
X9.1762Y-8.4685
X9.1764Y-8.2232
X9.1843Y-7.6917
X9.1844Y-7.5935
X9.1846Y-7.6425
X9.1846Y-7.7409
X9.1846Y-7.8394
X9.1848Y-7.7904
X9.185Y-7.5443
X9.185Y-7.8888
X9.189Y-4.8051
X9.189Y-5.4291
X9.189Y-5.4764
X9.189Y-5.6575
X9.189Y-5.7008
X9.1898Y-6.2319
X9.2008Y-6.9055
X9.2047Y-6.874
X9.2083Y-7.1583
X9.2205Y-5.6575
X9.2205Y-5.7008
X9.2244Y-5.4291
X9.2244Y-5.4764
X9.235Y-6.3185
X9.2402Y-7.2362
X9.2705Y-6.2752
X9.2874Y-5.5472
X9.2874Y-5.5866
X9.3008Y-4.4917
X9.3307Y-5.5472
X9.3307Y-5.5866
X9.3327Y-7.226
X9.3524Y-4.6555
X9.3524Y-4.7559
X9.3524Y-4.8543
X9.3524Y-4.9055
X9.3524Y-4.9547
X9.3524Y-5.0551
X9.3524Y-5.1713
T3
X6.8406Y-3.2283
X6.8406Y-3.4646
X6.8524Y-8.7077
X6.9016Y-3.3071
X6.9016Y-3.3858
X6.9144Y-6.8396
X7.0906Y-3.1496
X7.0906Y-3.5433
X7.5295Y-4.1083
X8.2598Y-8.2461
X8.2598Y-8.3461
X8.3598Y-8.2461
X8.3598Y-8.3461
X8.5866Y-4.2992
X8.5866Y-4.3504
X8.624Y-4.2992
X8.624Y-4.3504
X8.8504Y-8.2953
X9.0551Y-3.1496
X9.0551Y-3.5433
X9.1614Y-7.0039
X9.2283Y-6.8386
X9.2343Y-3.3071
X9.2343Y-3.3858
X9.2835Y-2.8031
X9.2953Y-3.2283
X9.2953Y-3.4646
T4
X6.9921Y-2.7559
X6.9921Y-8.7559
X7.0198Y-2.6891
X7.0198Y-2.8227
X7.0198Y-8.6891
X7.0198Y-8.8227
X7.0866Y-2.6614
X7.0866Y-2.8504
X7.0866Y-8.6614
X7.0866Y-8.8504
X7.1534Y-2.6891
X7.1534Y-2.8227
X7.1534Y-8.6891
X7.1534Y-8.8227
X7.1811Y-2.7559
X7.1811Y-8.7559
X8.9547Y-2.7559
X8.9547Y-8.7539
X8.9824Y-2.6891
X8.9824Y-2.8227
X8.9824Y-8.6871
X8.9824Y-8.8207
X9.0492Y-2.6614
X9.0492Y-2.8504
X9.0492Y-8.6594
X9.0492Y-8.8484
X9.116Y-2.6891
X9.116Y-2.8227
X9.116Y-8.6871
X9.116Y-8.8207
X9.1437Y-2.7559
X9.1437Y-8.7539
T5
X6.8331Y-7.3638
X6.9331Y-7.3638
X7.4299Y-4.4953
X7.4299Y-4.5953
X7.4421Y-5.2693
X7.4421Y-5.3693
X9.1965Y-6.5256
X9.2965Y-6.5256
T6
X7.3571Y-8.7626
X7.4571Y-8.7626
X7.5571Y-8.7626
X7.685Y-8.7626
X7.785Y-8.7626
X7.885Y-8.7626
X8.0118Y-8.7626
X8.1118Y-8.7626
X8.2118Y-8.7626
X8.4449Y-8.7626
X8.5449Y-8.7626
X8.6878Y-8.7626
X8.7878Y-8.7626
T7
X6.937Y-4.0827
X9.2047Y-5.5654
T8
X6.837Y-3.9827
X6.837Y-4.1827
X7.037Y-3.9827
X7.037Y-4.1827
X9.1047Y-5.4654
X9.1047Y-5.6654
X9.3047Y-5.4654
X9.3047Y-5.6654
T9
X7.0866Y-2.7559
X7.0866Y-8.7559
X9.0492Y-2.7559
X9.0492Y-8.7539
T0
M30
