%TF.GenerationSoftware,KiCad,Pcbnew,5.1.10*%
%TF.CreationDate,2021-10-08T11:52:48-05:00*%
%TF.ProjectId,FCB-Lite,4643422d-4c69-4746-952e-6b696361645f,A*%
%TF.SameCoordinates,Original*%
%TF.FileFunction,Soldermask,Top*%
%TF.FilePolarity,Negative*%
%FSLAX46Y46*%
G04 Gerber Fmt 4.6, Leading zero omitted, Abs format (unit mm)*
G04 Created by KiCad (PCBNEW 5.1.10) date 2021-10-08 11:52:48*
%MOMM*%
%LPD*%
G01*
G04 APERTURE LIST*
%ADD10C,0.150000*%
%ADD11C,0.100000*%
%ADD12O,1.801600X1.801600*%
%ADD13C,1.701600*%
%ADD14C,1.981200*%
%ADD15C,1.201600*%
%ADD16C,2.301600*%
%ADD17C,0.901600*%
%ADD18C,6.501600*%
G04 APERTURE END LIST*
D10*
G36*
X99250000Y-187500000D02*
G01*
X34050000Y-187500000D01*
X34050000Y-186000000D01*
X99250000Y-186000000D01*
X99250000Y-187500000D01*
G37*
X99250000Y-187500000D02*
X34050000Y-187500000D01*
X34050000Y-186000000D01*
X99250000Y-186000000D01*
X99250000Y-187500000D01*
X34050000Y-186000000D02*
G75*
G02*
X32450000Y-184400000I0J1600000D01*
G01*
X100800000Y-185900000D02*
G75*
G02*
X99200000Y-187500000I-1600000J0D01*
G01*
X30950000Y-26700000D02*
G75*
G02*
X32550000Y-25100000I1600000J0D01*
G01*
X100800000Y-26700000D02*
G75*
G03*
X99200000Y-25100000I-1600000J0D01*
G01*
G36*
X100800000Y-185900000D02*
G01*
X100700000Y-186300000D01*
X100500000Y-186700000D01*
X100200000Y-187100000D01*
X99600000Y-187400000D01*
X99200000Y-187500000D01*
X97800000Y-187500000D01*
X97800000Y-186000000D01*
X98300000Y-185900000D01*
X98700000Y-185700000D01*
X99000000Y-185400000D01*
X99200000Y-185000000D01*
X99300000Y-184400000D01*
X100800000Y-184400000D01*
X100800000Y-185900000D01*
G37*
X100800000Y-185900000D02*
X100700000Y-186300000D01*
X100500000Y-186700000D01*
X100200000Y-187100000D01*
X99600000Y-187400000D01*
X99200000Y-187500000D01*
X97800000Y-187500000D01*
X97800000Y-186000000D01*
X98300000Y-185900000D01*
X98700000Y-185700000D01*
X99000000Y-185400000D01*
X99200000Y-185000000D01*
X99300000Y-184400000D01*
X100800000Y-184400000D01*
X100800000Y-185900000D01*
G36*
X99250000Y-26600000D02*
G01*
X32550000Y-26600000D01*
X32550000Y-25100000D01*
X99250000Y-25100000D01*
X99250000Y-26600000D01*
G37*
X99250000Y-26600000D02*
X32550000Y-26600000D01*
X32550000Y-25100000D01*
X99250000Y-25100000D01*
X99250000Y-26600000D01*
G36*
X33950000Y-26600000D02*
G01*
X33450000Y-26700000D01*
X33050000Y-26900000D01*
X32750000Y-27200000D01*
X32550000Y-27600000D01*
X32450000Y-28200000D01*
X30950000Y-28200000D01*
X30950000Y-26700000D01*
X31050000Y-26300000D01*
X31250000Y-25900000D01*
X31550000Y-25500000D01*
X32150000Y-25200000D01*
X32550000Y-25100000D01*
X33950000Y-25100000D01*
X33950000Y-26600000D01*
G37*
X33950000Y-26600000D02*
X33450000Y-26700000D01*
X33050000Y-26900000D01*
X32750000Y-27200000D01*
X32550000Y-27600000D01*
X32450000Y-28200000D01*
X30950000Y-28200000D01*
X30950000Y-26700000D01*
X31050000Y-26300000D01*
X31250000Y-25900000D01*
X31550000Y-25500000D01*
X32150000Y-25200000D01*
X32550000Y-25100000D01*
X33950000Y-25100000D01*
X33950000Y-26600000D01*
G36*
X100772400Y-185900000D02*
G01*
X99272400Y-185900000D01*
X99300000Y-26700000D01*
X100800000Y-26700000D01*
X100772400Y-185900000D01*
G37*
X100772400Y-185900000D02*
X99272400Y-185900000D01*
X99300000Y-26700000D01*
X100800000Y-26700000D01*
X100772400Y-185900000D01*
X99300000Y-184400000D02*
G75*
G02*
X97700000Y-186000000I-1600000J0D01*
G01*
G36*
X32550000Y-185000000D02*
G01*
X32750000Y-185400000D01*
X33050000Y-185700000D01*
X33450000Y-185900000D01*
X34050000Y-186000000D01*
X34050000Y-187500000D01*
X32550000Y-187500000D01*
X32150000Y-187400000D01*
X31750000Y-187200000D01*
X31350000Y-186900000D01*
X31050000Y-186300000D01*
X30950000Y-185900000D01*
X30950000Y-184500000D01*
X32450000Y-184500000D01*
X32550000Y-185000000D01*
G37*
X32550000Y-185000000D02*
X32750000Y-185400000D01*
X33050000Y-185700000D01*
X33450000Y-185900000D01*
X34050000Y-186000000D01*
X34050000Y-187500000D01*
X32550000Y-187500000D01*
X32150000Y-187400000D01*
X31750000Y-187200000D01*
X31350000Y-186900000D01*
X31050000Y-186300000D01*
X30950000Y-185900000D01*
X30950000Y-184500000D01*
X32450000Y-184500000D01*
X32550000Y-185000000D01*
G36*
X32450000Y-185900000D02*
G01*
X30950000Y-185900000D01*
X30950000Y-26700000D01*
X32450000Y-26700000D01*
X32450000Y-185900000D01*
G37*
X32450000Y-185900000D02*
X30950000Y-185900000D01*
X30950000Y-26700000D01*
X32450000Y-26700000D01*
X32450000Y-185900000D01*
X99300000Y-28200000D02*
G75*
G03*
X97700000Y-26600000I-1600000J0D01*
G01*
X32550000Y-187500000D02*
G75*
G02*
X30950000Y-185900000I0J1600000D01*
G01*
X32450000Y-28200000D02*
G75*
G02*
X34050000Y-26600000I1600000J0D01*
G01*
D11*
G36*
X99600000Y-25200000D02*
G01*
X100200000Y-25500000D01*
X100500000Y-25900000D01*
X100700000Y-26300000D01*
X100800000Y-26700000D01*
X100800000Y-28200000D01*
X99300000Y-28200000D01*
X99200000Y-27600000D01*
X99000000Y-27200000D01*
X98700000Y-26900000D01*
X98300000Y-26700000D01*
X97800000Y-26600000D01*
X97800000Y-25100000D01*
X99200000Y-25100000D01*
X99600000Y-25200000D01*
G37*
X99600000Y-25200000D02*
X100200000Y-25500000D01*
X100500000Y-25900000D01*
X100700000Y-26300000D01*
X100800000Y-26700000D01*
X100800000Y-28200000D01*
X99300000Y-28200000D01*
X99200000Y-27600000D01*
X99000000Y-27200000D01*
X98700000Y-26900000D01*
X98300000Y-26700000D01*
X97800000Y-26600000D01*
X97800000Y-25100000D01*
X99200000Y-25100000D01*
X99600000Y-25200000D01*
D12*
%TO.C,J203*%
X35660000Y-94690000D03*
X35660000Y-97230000D03*
X35660000Y-99770000D03*
X35660000Y-102310000D03*
X35660000Y-104850000D03*
X35660000Y-107390000D03*
X35660000Y-109930000D03*
G36*
G01*
X36560800Y-111620000D02*
X36560800Y-113320000D01*
G75*
G02*
X36510000Y-113370800I-50800J0D01*
G01*
X34810000Y-113370800D01*
G75*
G02*
X34759200Y-113320000I0J50800D01*
G01*
X34759200Y-111620000D01*
G75*
G02*
X34810000Y-111569200I50800J0D01*
G01*
X36510000Y-111569200D01*
G75*
G02*
X36560800Y-111620000I0J-50800D01*
G01*
G37*
%TD*%
%TO.C,C107*%
G36*
G01*
X52199600Y-68899200D02*
X53200400Y-68899200D01*
G75*
G02*
X53475800Y-69174600I0J-275400D01*
G01*
X53475800Y-69725400D01*
G75*
G02*
X53200400Y-70000800I-275400J0D01*
G01*
X52199600Y-70000800D01*
G75*
G02*
X51924200Y-69725400I0J275400D01*
G01*
X51924200Y-69174600D01*
G75*
G02*
X52199600Y-68899200I275400J0D01*
G01*
G37*
G36*
G01*
X52199600Y-66999200D02*
X53200400Y-66999200D01*
G75*
G02*
X53475800Y-67274600I0J-275400D01*
G01*
X53475800Y-67825400D01*
G75*
G02*
X53200400Y-68100800I-275400J0D01*
G01*
X52199600Y-68100800D01*
G75*
G02*
X51924200Y-67825400I0J275400D01*
G01*
X51924200Y-67274600D01*
G75*
G02*
X52199600Y-66999200I275400J0D01*
G01*
G37*
%TD*%
%TO.C,C106*%
G36*
G01*
X61450400Y-71600800D02*
X60449600Y-71600800D01*
G75*
G02*
X60174200Y-71325400I0J275400D01*
G01*
X60174200Y-70774600D01*
G75*
G02*
X60449600Y-70499200I275400J0D01*
G01*
X61450400Y-70499200D01*
G75*
G02*
X61725800Y-70774600I0J-275400D01*
G01*
X61725800Y-71325400D01*
G75*
G02*
X61450400Y-71600800I-275400J0D01*
G01*
G37*
G36*
G01*
X61450400Y-73500800D02*
X60449600Y-73500800D01*
G75*
G02*
X60174200Y-73225400I0J275400D01*
G01*
X60174200Y-72674600D01*
G75*
G02*
X60449600Y-72399200I275400J0D01*
G01*
X61450400Y-72399200D01*
G75*
G02*
X61725800Y-72674600I0J-275400D01*
G01*
X61725800Y-73225400D01*
G75*
G02*
X61450400Y-73500800I-275400J0D01*
G01*
G37*
%TD*%
%TO.C,J202*%
X91730000Y-92000000D03*
X89190000Y-92000000D03*
X86650000Y-92000000D03*
X84110000Y-92000000D03*
X81570000Y-92000000D03*
X79030000Y-92000000D03*
X76490000Y-92000000D03*
G36*
G01*
X74800000Y-92900800D02*
X73100000Y-92900800D01*
G75*
G02*
X73049200Y-92850000I0J50800D01*
G01*
X73049200Y-91150000D01*
G75*
G02*
X73100000Y-91099200I50800J0D01*
G01*
X74800000Y-91099200D01*
G75*
G02*
X74850800Y-91150000I0J-50800D01*
G01*
X74850800Y-92850000D01*
G75*
G02*
X74800000Y-92900800I-50800J0D01*
G01*
G37*
%TD*%
%TO.C,J201*%
X42736000Y-99800000D03*
X42736000Y-102340000D03*
X42736000Y-104880000D03*
X42736000Y-107420000D03*
X42736000Y-109960000D03*
G36*
G01*
X43636800Y-111650000D02*
X43636800Y-113350000D01*
G75*
G02*
X43586000Y-113400800I-50800J0D01*
G01*
X41886000Y-113400800D01*
G75*
G02*
X41835200Y-113350000I0J50800D01*
G01*
X41835200Y-111650000D01*
G75*
G02*
X41886000Y-111599200I50800J0D01*
G01*
X43586000Y-111599200D01*
G75*
G02*
X43636800Y-111650000I0J-50800D01*
G01*
G37*
%TD*%
%TO.C,J104*%
G36*
G01*
X91370000Y-49469200D02*
X94370000Y-49469200D01*
G75*
G02*
X94420800Y-49520000I0J-50800D01*
G01*
X94420800Y-50520000D01*
G75*
G02*
X94370000Y-50570800I-50800J0D01*
G01*
X91370000Y-50570800D01*
G75*
G02*
X91319200Y-50520000I0J50800D01*
G01*
X91319200Y-49520000D01*
G75*
G02*
X91370000Y-49469200I50800J0D01*
G01*
G37*
G36*
G01*
X91370000Y-47469200D02*
X94370000Y-47469200D01*
G75*
G02*
X94420800Y-47520000I0J-50800D01*
G01*
X94420800Y-48520000D01*
G75*
G02*
X94370000Y-48570800I-50800J0D01*
G01*
X91370000Y-48570800D01*
G75*
G02*
X91319200Y-48520000I0J50800D01*
G01*
X91319200Y-47520000D01*
G75*
G02*
X91370000Y-47469200I50800J0D01*
G01*
G37*
G36*
G01*
X91370000Y-45469200D02*
X94370000Y-45469200D01*
G75*
G02*
X94420800Y-45520000I0J-50800D01*
G01*
X94420800Y-46520000D01*
G75*
G02*
X94370000Y-46570800I-50800J0D01*
G01*
X91370000Y-46570800D01*
G75*
G02*
X91319200Y-46520000I0J50800D01*
G01*
X91319200Y-45520000D01*
G75*
G02*
X91370000Y-45469200I50800J0D01*
G01*
G37*
G36*
G01*
X91370000Y-43469200D02*
X94370000Y-43469200D01*
G75*
G02*
X94420800Y-43520000I0J-50800D01*
G01*
X94420800Y-44520000D01*
G75*
G02*
X94370000Y-44570800I-50800J0D01*
G01*
X91370000Y-44570800D01*
G75*
G02*
X91319200Y-44520000I0J50800D01*
G01*
X91319200Y-43520000D01*
G75*
G02*
X91370000Y-43469200I50800J0D01*
G01*
G37*
G36*
G01*
X95170000Y-51469200D02*
X99170000Y-51469200D01*
G75*
G02*
X99220800Y-51520000I0J-50800D01*
G01*
X99220800Y-53320000D01*
G75*
G02*
X99170000Y-53370800I-50800J0D01*
G01*
X95170000Y-53370800D01*
G75*
G02*
X95119200Y-53320000I0J50800D01*
G01*
X95119200Y-51520000D01*
G75*
G02*
X95170000Y-51469200I50800J0D01*
G01*
G37*
G36*
G01*
X95170000Y-36669200D02*
X99170000Y-36669200D01*
G75*
G02*
X99220800Y-36720000I0J-50800D01*
G01*
X99220800Y-38520000D01*
G75*
G02*
X99170000Y-38570800I-50800J0D01*
G01*
X95170000Y-38570800D01*
G75*
G02*
X95119200Y-38520000I0J50800D01*
G01*
X95119200Y-36720000D01*
G75*
G02*
X95170000Y-36669200I50800J0D01*
G01*
G37*
G36*
G01*
X91370000Y-41469200D02*
X94370000Y-41469200D01*
G75*
G02*
X94420800Y-41520000I0J-50800D01*
G01*
X94420800Y-42520000D01*
G75*
G02*
X94370000Y-42570800I-50800J0D01*
G01*
X91370000Y-42570800D01*
G75*
G02*
X91319200Y-42520000I0J50800D01*
G01*
X91319200Y-41520000D01*
G75*
G02*
X91370000Y-41469200I50800J0D01*
G01*
G37*
G36*
G01*
X91370000Y-39469200D02*
X94370000Y-39469200D01*
G75*
G02*
X94420800Y-39520000I0J-50800D01*
G01*
X94420800Y-40520000D01*
G75*
G02*
X94370000Y-40570800I-50800J0D01*
G01*
X91370000Y-40570800D01*
G75*
G02*
X91319200Y-40520000I0J50800D01*
G01*
X91319200Y-39520000D01*
G75*
G02*
X91370000Y-39469200I50800J0D01*
G01*
G37*
%TD*%
%TO.C,J103*%
G36*
G01*
X40170000Y-40570800D02*
X37170000Y-40570800D01*
G75*
G02*
X37119200Y-40520000I0J50800D01*
G01*
X37119200Y-39520000D01*
G75*
G02*
X37170000Y-39469200I50800J0D01*
G01*
X40170000Y-39469200D01*
G75*
G02*
X40220800Y-39520000I0J-50800D01*
G01*
X40220800Y-40520000D01*
G75*
G02*
X40170000Y-40570800I-50800J0D01*
G01*
G37*
G36*
G01*
X40170000Y-42570800D02*
X37170000Y-42570800D01*
G75*
G02*
X37119200Y-42520000I0J50800D01*
G01*
X37119200Y-41520000D01*
G75*
G02*
X37170000Y-41469200I50800J0D01*
G01*
X40170000Y-41469200D01*
G75*
G02*
X40220800Y-41520000I0J-50800D01*
G01*
X40220800Y-42520000D01*
G75*
G02*
X40170000Y-42570800I-50800J0D01*
G01*
G37*
G36*
G01*
X40170000Y-44570800D02*
X37170000Y-44570800D01*
G75*
G02*
X37119200Y-44520000I0J50800D01*
G01*
X37119200Y-43520000D01*
G75*
G02*
X37170000Y-43469200I50800J0D01*
G01*
X40170000Y-43469200D01*
G75*
G02*
X40220800Y-43520000I0J-50800D01*
G01*
X40220800Y-44520000D01*
G75*
G02*
X40170000Y-44570800I-50800J0D01*
G01*
G37*
G36*
G01*
X40170000Y-46570800D02*
X37170000Y-46570800D01*
G75*
G02*
X37119200Y-46520000I0J50800D01*
G01*
X37119200Y-45520000D01*
G75*
G02*
X37170000Y-45469200I50800J0D01*
G01*
X40170000Y-45469200D01*
G75*
G02*
X40220800Y-45520000I0J-50800D01*
G01*
X40220800Y-46520000D01*
G75*
G02*
X40170000Y-46570800I-50800J0D01*
G01*
G37*
G36*
G01*
X36370000Y-38570800D02*
X32370000Y-38570800D01*
G75*
G02*
X32319200Y-38520000I0J50800D01*
G01*
X32319200Y-36720000D01*
G75*
G02*
X32370000Y-36669200I50800J0D01*
G01*
X36370000Y-36669200D01*
G75*
G02*
X36420800Y-36720000I0J-50800D01*
G01*
X36420800Y-38520000D01*
G75*
G02*
X36370000Y-38570800I-50800J0D01*
G01*
G37*
G36*
G01*
X36370000Y-53370800D02*
X32370000Y-53370800D01*
G75*
G02*
X32319200Y-53320000I0J50800D01*
G01*
X32319200Y-51520000D01*
G75*
G02*
X32370000Y-51469200I50800J0D01*
G01*
X36370000Y-51469200D01*
G75*
G02*
X36420800Y-51520000I0J-50800D01*
G01*
X36420800Y-53320000D01*
G75*
G02*
X36370000Y-53370800I-50800J0D01*
G01*
G37*
G36*
G01*
X40170000Y-48570800D02*
X37170000Y-48570800D01*
G75*
G02*
X37119200Y-48520000I0J50800D01*
G01*
X37119200Y-47520000D01*
G75*
G02*
X37170000Y-47469200I50800J0D01*
G01*
X40170000Y-47469200D01*
G75*
G02*
X40220800Y-47520000I0J-50800D01*
G01*
X40220800Y-48520000D01*
G75*
G02*
X40170000Y-48570800I-50800J0D01*
G01*
G37*
G36*
G01*
X40170000Y-50570800D02*
X37170000Y-50570800D01*
G75*
G02*
X37119200Y-50520000I0J50800D01*
G01*
X37119200Y-49520000D01*
G75*
G02*
X37170000Y-49469200I50800J0D01*
G01*
X40170000Y-49469200D01*
G75*
G02*
X40220800Y-49520000I0J-50800D01*
G01*
X40220800Y-50520000D01*
G75*
G02*
X40170000Y-50570800I-50800J0D01*
G01*
G37*
%TD*%
%TO.C,R107*%
G36*
G01*
X75473979Y-182349200D02*
X76426021Y-182349200D01*
G75*
G02*
X76700800Y-182623979I0J-274779D01*
G01*
X76700800Y-183201021D01*
G75*
G02*
X76426021Y-183475800I-274779J0D01*
G01*
X75473979Y-183475800D01*
G75*
G02*
X75199200Y-183201021I0J274779D01*
G01*
X75199200Y-182623979D01*
G75*
G02*
X75473979Y-182349200I274779J0D01*
G01*
G37*
G36*
G01*
X75473979Y-180524200D02*
X76426021Y-180524200D01*
G75*
G02*
X76700800Y-180798979I0J-274779D01*
G01*
X76700800Y-181376021D01*
G75*
G02*
X76426021Y-181650800I-274779J0D01*
G01*
X75473979Y-181650800D01*
G75*
G02*
X75199200Y-181376021I0J274779D01*
G01*
X75199200Y-180798979D01*
G75*
G02*
X75473979Y-180524200I274779J0D01*
G01*
G37*
%TD*%
%TO.C,R106*%
G36*
G01*
X72473979Y-182349200D02*
X73426021Y-182349200D01*
G75*
G02*
X73700800Y-182623979I0J-274779D01*
G01*
X73700800Y-183201021D01*
G75*
G02*
X73426021Y-183475800I-274779J0D01*
G01*
X72473979Y-183475800D01*
G75*
G02*
X72199200Y-183201021I0J274779D01*
G01*
X72199200Y-182623979D01*
G75*
G02*
X72473979Y-182349200I274779J0D01*
G01*
G37*
G36*
G01*
X72473979Y-180524200D02*
X73426021Y-180524200D01*
G75*
G02*
X73700800Y-180798979I0J-274779D01*
G01*
X73700800Y-181376021D01*
G75*
G02*
X73426021Y-181650800I-274779J0D01*
G01*
X72473979Y-181650800D01*
G75*
G02*
X72199200Y-181376021I0J274779D01*
G01*
X72199200Y-180798979D01*
G75*
G02*
X72473979Y-180524200I274779J0D01*
G01*
G37*
%TD*%
%TO.C,R105*%
G36*
G01*
X55723979Y-182599200D02*
X56676021Y-182599200D01*
G75*
G02*
X56950800Y-182873979I0J-274779D01*
G01*
X56950800Y-183451021D01*
G75*
G02*
X56676021Y-183725800I-274779J0D01*
G01*
X55723979Y-183725800D01*
G75*
G02*
X55449200Y-183451021I0J274779D01*
G01*
X55449200Y-182873979D01*
G75*
G02*
X55723979Y-182599200I274779J0D01*
G01*
G37*
G36*
G01*
X55723979Y-180774200D02*
X56676021Y-180774200D01*
G75*
G02*
X56950800Y-181048979I0J-274779D01*
G01*
X56950800Y-181626021D01*
G75*
G02*
X56676021Y-181900800I-274779J0D01*
G01*
X55723979Y-181900800D01*
G75*
G02*
X55449200Y-181626021I0J274779D01*
G01*
X55449200Y-181048979D01*
G75*
G02*
X55723979Y-180774200I274779J0D01*
G01*
G37*
%TD*%
%TO.C,R204*%
G36*
G01*
X75069200Y-148876021D02*
X75069200Y-147923979D01*
G75*
G02*
X75343979Y-147649200I274779J0D01*
G01*
X75921021Y-147649200D01*
G75*
G02*
X76195800Y-147923979I0J-274779D01*
G01*
X76195800Y-148876021D01*
G75*
G02*
X75921021Y-149150800I-274779J0D01*
G01*
X75343979Y-149150800D01*
G75*
G02*
X75069200Y-148876021I0J274779D01*
G01*
G37*
G36*
G01*
X73244200Y-148876021D02*
X73244200Y-147923979D01*
G75*
G02*
X73518979Y-147649200I274779J0D01*
G01*
X74096021Y-147649200D01*
G75*
G02*
X74370800Y-147923979I0J-274779D01*
G01*
X74370800Y-148876021D01*
G75*
G02*
X74096021Y-149150800I-274779J0D01*
G01*
X73518979Y-149150800D01*
G75*
G02*
X73244200Y-148876021I0J274779D01*
G01*
G37*
%TD*%
%TO.C,R203*%
G36*
G01*
X75049200Y-151226021D02*
X75049200Y-150273979D01*
G75*
G02*
X75323979Y-149999200I274779J0D01*
G01*
X75901021Y-149999200D01*
G75*
G02*
X76175800Y-150273979I0J-274779D01*
G01*
X76175800Y-151226021D01*
G75*
G02*
X75901021Y-151500800I-274779J0D01*
G01*
X75323979Y-151500800D01*
G75*
G02*
X75049200Y-151226021I0J274779D01*
G01*
G37*
G36*
G01*
X73224200Y-151226021D02*
X73224200Y-150273979D01*
G75*
G02*
X73498979Y-149999200I274779J0D01*
G01*
X74076021Y-149999200D01*
G75*
G02*
X74350800Y-150273979I0J-274779D01*
G01*
X74350800Y-151226021D01*
G75*
G02*
X74076021Y-151500800I-274779J0D01*
G01*
X73498979Y-151500800D01*
G75*
G02*
X73224200Y-151226021I0J274779D01*
G01*
G37*
%TD*%
%TO.C,R202*%
G36*
G01*
X64973979Y-55099200D02*
X65926021Y-55099200D01*
G75*
G02*
X66200800Y-55373979I0J-274779D01*
G01*
X66200800Y-55951021D01*
G75*
G02*
X65926021Y-56225800I-274779J0D01*
G01*
X64973979Y-56225800D01*
G75*
G02*
X64699200Y-55951021I0J274779D01*
G01*
X64699200Y-55373979D01*
G75*
G02*
X64973979Y-55099200I274779J0D01*
G01*
G37*
G36*
G01*
X64973979Y-53274200D02*
X65926021Y-53274200D01*
G75*
G02*
X66200800Y-53548979I0J-274779D01*
G01*
X66200800Y-54126021D01*
G75*
G02*
X65926021Y-54400800I-274779J0D01*
G01*
X64973979Y-54400800D01*
G75*
G02*
X64699200Y-54126021I0J274779D01*
G01*
X64699200Y-53548979D01*
G75*
G02*
X64973979Y-53274200I274779J0D01*
G01*
G37*
%TD*%
%TO.C,R201*%
G36*
G01*
X67973979Y-55099200D02*
X68926021Y-55099200D01*
G75*
G02*
X69200800Y-55373979I0J-274779D01*
G01*
X69200800Y-55951021D01*
G75*
G02*
X68926021Y-56225800I-274779J0D01*
G01*
X67973979Y-56225800D01*
G75*
G02*
X67699200Y-55951021I0J274779D01*
G01*
X67699200Y-55373979D01*
G75*
G02*
X67973979Y-55099200I274779J0D01*
G01*
G37*
G36*
G01*
X67973979Y-53274200D02*
X68926021Y-53274200D01*
G75*
G02*
X69200800Y-53548979I0J-274779D01*
G01*
X69200800Y-54126021D01*
G75*
G02*
X68926021Y-54400800I-274779J0D01*
G01*
X67973979Y-54400800D01*
G75*
G02*
X67699200Y-54126021I0J274779D01*
G01*
X67699200Y-53548979D01*
G75*
G02*
X67973979Y-53274200I274779J0D01*
G01*
G37*
%TD*%
D11*
%TO.C,JP103*%
G36*
X55849824Y-82109911D02*
G01*
X55846933Y-82119440D01*
X55842239Y-82128223D01*
X55835921Y-82135921D01*
X55828223Y-82142239D01*
X55819440Y-82146933D01*
X55809911Y-82149824D01*
X55800000Y-82150800D01*
X54300000Y-82150800D01*
X54290089Y-82149824D01*
X54280560Y-82146933D01*
X54271777Y-82142239D01*
X54264079Y-82135921D01*
X54257761Y-82128223D01*
X54253067Y-82119440D01*
X54250176Y-82109911D01*
X54249200Y-82100000D01*
X54249200Y-81600000D01*
X54249802Y-81593887D01*
X54249802Y-81575466D01*
X54250047Y-81570486D01*
X54254857Y-81521655D01*
X54255588Y-81516725D01*
X54265160Y-81468600D01*
X54266372Y-81463763D01*
X54280616Y-81416808D01*
X54282295Y-81412115D01*
X54301072Y-81366782D01*
X54303204Y-81362274D01*
X54326335Y-81319001D01*
X54328897Y-81314727D01*
X54356157Y-81273928D01*
X54359127Y-81269923D01*
X54390255Y-81231994D01*
X54393603Y-81228300D01*
X54428300Y-81193603D01*
X54431994Y-81190255D01*
X54469923Y-81159127D01*
X54473928Y-81156157D01*
X54514727Y-81128897D01*
X54519001Y-81126335D01*
X54562274Y-81103204D01*
X54566782Y-81101072D01*
X54612115Y-81082295D01*
X54616808Y-81080616D01*
X54663763Y-81066372D01*
X54668600Y-81065160D01*
X54716725Y-81055588D01*
X54721655Y-81054857D01*
X54770486Y-81050047D01*
X54775466Y-81049802D01*
X54793887Y-81049802D01*
X54800000Y-81049200D01*
X55300000Y-81049200D01*
X55306113Y-81049802D01*
X55324534Y-81049802D01*
X55329514Y-81050047D01*
X55378345Y-81054857D01*
X55383275Y-81055588D01*
X55431400Y-81065160D01*
X55436237Y-81066372D01*
X55483192Y-81080616D01*
X55487885Y-81082295D01*
X55533218Y-81101072D01*
X55537726Y-81103204D01*
X55580999Y-81126335D01*
X55585273Y-81128897D01*
X55626072Y-81156157D01*
X55630077Y-81159127D01*
X55668006Y-81190255D01*
X55671700Y-81193603D01*
X55706397Y-81228300D01*
X55709745Y-81231994D01*
X55740873Y-81269923D01*
X55743843Y-81273928D01*
X55771103Y-81314727D01*
X55773665Y-81319001D01*
X55796796Y-81362274D01*
X55798928Y-81366782D01*
X55817705Y-81412115D01*
X55819384Y-81416808D01*
X55833628Y-81463763D01*
X55834840Y-81468600D01*
X55844412Y-81516725D01*
X55845143Y-81521655D01*
X55849953Y-81570486D01*
X55850198Y-81575466D01*
X55850198Y-81593887D01*
X55850800Y-81600000D01*
X55850800Y-82100000D01*
X55849824Y-82109911D01*
G37*
G36*
X55850198Y-82906113D02*
G01*
X55850198Y-82924534D01*
X55849953Y-82929514D01*
X55845143Y-82978345D01*
X55844412Y-82983275D01*
X55834840Y-83031400D01*
X55833628Y-83036237D01*
X55819384Y-83083192D01*
X55817705Y-83087885D01*
X55798928Y-83133218D01*
X55796796Y-83137726D01*
X55773665Y-83180999D01*
X55771103Y-83185273D01*
X55743843Y-83226072D01*
X55740873Y-83230077D01*
X55709745Y-83268006D01*
X55706397Y-83271700D01*
X55671700Y-83306397D01*
X55668006Y-83309745D01*
X55630077Y-83340873D01*
X55626072Y-83343843D01*
X55585273Y-83371103D01*
X55580999Y-83373665D01*
X55537726Y-83396796D01*
X55533218Y-83398928D01*
X55487885Y-83417705D01*
X55483192Y-83419384D01*
X55436237Y-83433628D01*
X55431400Y-83434840D01*
X55383275Y-83444412D01*
X55378345Y-83445143D01*
X55329514Y-83449953D01*
X55324534Y-83450198D01*
X55306113Y-83450198D01*
X55300000Y-83450800D01*
X54800000Y-83450800D01*
X54793887Y-83450198D01*
X54775466Y-83450198D01*
X54770486Y-83449953D01*
X54721655Y-83445143D01*
X54716725Y-83444412D01*
X54668600Y-83434840D01*
X54663763Y-83433628D01*
X54616808Y-83419384D01*
X54612115Y-83417705D01*
X54566782Y-83398928D01*
X54562274Y-83396796D01*
X54519001Y-83373665D01*
X54514727Y-83371103D01*
X54473928Y-83343843D01*
X54469923Y-83340873D01*
X54431994Y-83309745D01*
X54428300Y-83306397D01*
X54393603Y-83271700D01*
X54390255Y-83268006D01*
X54359127Y-83230077D01*
X54356157Y-83226072D01*
X54328897Y-83185273D01*
X54326335Y-83180999D01*
X54303204Y-83137726D01*
X54301072Y-83133218D01*
X54282295Y-83087885D01*
X54280616Y-83083192D01*
X54266372Y-83036237D01*
X54265160Y-83031400D01*
X54255588Y-82983275D01*
X54254857Y-82978345D01*
X54250047Y-82929514D01*
X54249802Y-82924534D01*
X54249802Y-82906113D01*
X54249200Y-82900000D01*
X54249200Y-82400000D01*
X54250176Y-82390089D01*
X54253067Y-82380560D01*
X54257761Y-82371777D01*
X54264079Y-82364079D01*
X54271777Y-82357761D01*
X54280560Y-82353067D01*
X54290089Y-82350176D01*
X54300000Y-82349200D01*
X55800000Y-82349200D01*
X55809911Y-82350176D01*
X55819440Y-82353067D01*
X55828223Y-82357761D01*
X55835921Y-82364079D01*
X55842239Y-82371777D01*
X55846933Y-82380560D01*
X55849824Y-82390089D01*
X55850800Y-82400000D01*
X55850800Y-82900000D01*
X55850198Y-82906113D01*
G37*
%TD*%
%TO.C,C108*%
G36*
G01*
X52430200Y-88818400D02*
X52430200Y-87817600D01*
G75*
G02*
X52705600Y-87542200I275400J0D01*
G01*
X53256400Y-87542200D01*
G75*
G02*
X53531800Y-87817600I0J-275400D01*
G01*
X53531800Y-88818400D01*
G75*
G02*
X53256400Y-89093800I-275400J0D01*
G01*
X52705600Y-89093800D01*
G75*
G02*
X52430200Y-88818400I0J275400D01*
G01*
G37*
G36*
G01*
X50530200Y-88818400D02*
X50530200Y-87817600D01*
G75*
G02*
X50805600Y-87542200I275400J0D01*
G01*
X51356400Y-87542200D01*
G75*
G02*
X51631800Y-87817600I0J-275400D01*
G01*
X51631800Y-88818400D01*
G75*
G02*
X51356400Y-89093800I-275400J0D01*
G01*
X50805600Y-89093800D01*
G75*
G02*
X50530200Y-88818400I0J275400D01*
G01*
G37*
%TD*%
D13*
%TO.C,U1*%
X77940000Y-144480000D03*
X80480000Y-144480000D03*
X83020000Y-144480000D03*
X85560000Y-144480000D03*
X75400000Y-144480000D03*
X72860000Y-144480000D03*
X70320000Y-144480000D03*
X88100000Y-144480000D03*
X90640000Y-144480000D03*
X93180000Y-144480000D03*
X95720000Y-144480000D03*
X95720000Y-129240000D03*
X93180000Y-129240000D03*
X90640000Y-129240000D03*
X88100000Y-129240000D03*
X85560000Y-129240000D03*
X83020000Y-129240000D03*
X80480000Y-129240000D03*
X77940000Y-129240000D03*
X75400000Y-129240000D03*
X72860000Y-129240000D03*
X67780000Y-144480000D03*
X65240000Y-144480000D03*
X62700000Y-144480000D03*
X60160000Y-144480000D03*
X57620000Y-144480000D03*
X55080000Y-144480000D03*
X52540000Y-144480000D03*
X50000000Y-144480000D03*
X47460000Y-144480000D03*
X44920000Y-144480000D03*
X42380000Y-144480000D03*
X39840000Y-144480000D03*
G36*
G01*
X36449200Y-145280000D02*
X36449200Y-143680000D01*
G75*
G02*
X36500000Y-143629200I50800J0D01*
G01*
X38100000Y-143629200D01*
G75*
G02*
X38150800Y-143680000I0J-50800D01*
G01*
X38150800Y-145280000D01*
G75*
G02*
X38100000Y-145330800I-50800J0D01*
G01*
X36500000Y-145330800D01*
G75*
G02*
X36449200Y-145280000I0J50800D01*
G01*
G37*
X70320000Y-129240000D03*
X67780000Y-129240000D03*
X65240000Y-129240000D03*
X62700000Y-129240000D03*
X60160000Y-129240000D03*
X57620000Y-129240000D03*
X55080000Y-129240000D03*
X52540000Y-129240000D03*
X50000000Y-129240000D03*
X47460000Y-129240000D03*
X44920000Y-129240000D03*
X42380000Y-129240000D03*
X39840000Y-129240000D03*
X37300000Y-129240000D03*
%TD*%
D14*
%TO.C,U105*%
X72351000Y-58155500D03*
X72351000Y-60695600D03*
X72351000Y-63235700D03*
X72351000Y-65775800D03*
X72351000Y-68315900D03*
X72351000Y-70856000D03*
X72351000Y-73396100D03*
X72351000Y-75936200D03*
X95211000Y-63235500D03*
X95211000Y-65775500D03*
X95211000Y-68315500D03*
X95211000Y-70855500D03*
%TD*%
%TO.C,U104*%
G36*
G01*
X77545400Y-104105800D02*
X77394600Y-104105800D01*
G75*
G02*
X77319200Y-104030400I0J75400D01*
G01*
X77319200Y-103529600D01*
G75*
G02*
X77394600Y-103454200I75400J0D01*
G01*
X77545400Y-103454200D01*
G75*
G02*
X77620800Y-103529600I0J-75400D01*
G01*
X77620800Y-104030400D01*
G75*
G02*
X77545400Y-104105800I-75400J0D01*
G01*
G37*
G36*
G01*
X77945400Y-104105800D02*
X77794600Y-104105800D01*
G75*
G02*
X77719200Y-104030400I0J75400D01*
G01*
X77719200Y-103529600D01*
G75*
G02*
X77794600Y-103454200I75400J0D01*
G01*
X77945400Y-103454200D01*
G75*
G02*
X78020800Y-103529600I0J-75400D01*
G01*
X78020800Y-104030400D01*
G75*
G02*
X77945400Y-104105800I-75400J0D01*
G01*
G37*
G36*
G01*
X78345400Y-104105800D02*
X78194600Y-104105800D01*
G75*
G02*
X78119200Y-104030400I0J75400D01*
G01*
X78119200Y-103529600D01*
G75*
G02*
X78194600Y-103454200I75400J0D01*
G01*
X78345400Y-103454200D01*
G75*
G02*
X78420800Y-103529600I0J-75400D01*
G01*
X78420800Y-104030400D01*
G75*
G02*
X78345400Y-104105800I-75400J0D01*
G01*
G37*
G36*
G01*
X78745400Y-104105800D02*
X78594600Y-104105800D01*
G75*
G02*
X78519200Y-104030400I0J75400D01*
G01*
X78519200Y-103529600D01*
G75*
G02*
X78594600Y-103454200I75400J0D01*
G01*
X78745400Y-103454200D01*
G75*
G02*
X78820800Y-103529600I0J-75400D01*
G01*
X78820800Y-104030400D01*
G75*
G02*
X78745400Y-104105800I-75400J0D01*
G01*
G37*
G36*
G01*
X79145400Y-104105800D02*
X78994600Y-104105800D01*
G75*
G02*
X78919200Y-104030400I0J75400D01*
G01*
X78919200Y-103529600D01*
G75*
G02*
X78994600Y-103454200I75400J0D01*
G01*
X79145400Y-103454200D01*
G75*
G02*
X79220800Y-103529600I0J-75400D01*
G01*
X79220800Y-104030400D01*
G75*
G02*
X79145400Y-104105800I-75400J0D01*
G01*
G37*
G36*
G01*
X79545400Y-104105800D02*
X79394600Y-104105800D01*
G75*
G02*
X79319200Y-104030400I0J75400D01*
G01*
X79319200Y-103529600D01*
G75*
G02*
X79394600Y-103454200I75400J0D01*
G01*
X79545400Y-103454200D01*
G75*
G02*
X79620800Y-103529600I0J-75400D01*
G01*
X79620800Y-104030400D01*
G75*
G02*
X79545400Y-104105800I-75400J0D01*
G01*
G37*
G36*
G01*
X79644200Y-104355400D02*
X79644200Y-104204600D01*
G75*
G02*
X79719600Y-104129200I75400J0D01*
G01*
X80220400Y-104129200D01*
G75*
G02*
X80295800Y-104204600I0J-75400D01*
G01*
X80295800Y-104355400D01*
G75*
G02*
X80220400Y-104430800I-75400J0D01*
G01*
X79719600Y-104430800D01*
G75*
G02*
X79644200Y-104355400I0J75400D01*
G01*
G37*
G36*
G01*
X79644200Y-104755400D02*
X79644200Y-104604600D01*
G75*
G02*
X79719600Y-104529200I75400J0D01*
G01*
X80220400Y-104529200D01*
G75*
G02*
X80295800Y-104604600I0J-75400D01*
G01*
X80295800Y-104755400D01*
G75*
G02*
X80220400Y-104830800I-75400J0D01*
G01*
X79719600Y-104830800D01*
G75*
G02*
X79644200Y-104755400I0J75400D01*
G01*
G37*
G36*
G01*
X79644200Y-105155400D02*
X79644200Y-105004600D01*
G75*
G02*
X79719600Y-104929200I75400J0D01*
G01*
X80220400Y-104929200D01*
G75*
G02*
X80295800Y-105004600I0J-75400D01*
G01*
X80295800Y-105155400D01*
G75*
G02*
X80220400Y-105230800I-75400J0D01*
G01*
X79719600Y-105230800D01*
G75*
G02*
X79644200Y-105155400I0J75400D01*
G01*
G37*
G36*
G01*
X79644200Y-105555400D02*
X79644200Y-105404600D01*
G75*
G02*
X79719600Y-105329200I75400J0D01*
G01*
X80220400Y-105329200D01*
G75*
G02*
X80295800Y-105404600I0J-75400D01*
G01*
X80295800Y-105555400D01*
G75*
G02*
X80220400Y-105630800I-75400J0D01*
G01*
X79719600Y-105630800D01*
G75*
G02*
X79644200Y-105555400I0J75400D01*
G01*
G37*
G36*
G01*
X79644200Y-105955400D02*
X79644200Y-105804600D01*
G75*
G02*
X79719600Y-105729200I75400J0D01*
G01*
X80220400Y-105729200D01*
G75*
G02*
X80295800Y-105804600I0J-75400D01*
G01*
X80295800Y-105955400D01*
G75*
G02*
X80220400Y-106030800I-75400J0D01*
G01*
X79719600Y-106030800D01*
G75*
G02*
X79644200Y-105955400I0J75400D01*
G01*
G37*
G36*
G01*
X79644200Y-106355400D02*
X79644200Y-106204600D01*
G75*
G02*
X79719600Y-106129200I75400J0D01*
G01*
X80220400Y-106129200D01*
G75*
G02*
X80295800Y-106204600I0J-75400D01*
G01*
X80295800Y-106355400D01*
G75*
G02*
X80220400Y-106430800I-75400J0D01*
G01*
X79719600Y-106430800D01*
G75*
G02*
X79644200Y-106355400I0J75400D01*
G01*
G37*
G36*
G01*
X79545400Y-107105800D02*
X79394600Y-107105800D01*
G75*
G02*
X79319200Y-107030400I0J75400D01*
G01*
X79319200Y-106529600D01*
G75*
G02*
X79394600Y-106454200I75400J0D01*
G01*
X79545400Y-106454200D01*
G75*
G02*
X79620800Y-106529600I0J-75400D01*
G01*
X79620800Y-107030400D01*
G75*
G02*
X79545400Y-107105800I-75400J0D01*
G01*
G37*
G36*
G01*
X79145400Y-107105800D02*
X78994600Y-107105800D01*
G75*
G02*
X78919200Y-107030400I0J75400D01*
G01*
X78919200Y-106529600D01*
G75*
G02*
X78994600Y-106454200I75400J0D01*
G01*
X79145400Y-106454200D01*
G75*
G02*
X79220800Y-106529600I0J-75400D01*
G01*
X79220800Y-107030400D01*
G75*
G02*
X79145400Y-107105800I-75400J0D01*
G01*
G37*
G36*
G01*
X78745400Y-107105800D02*
X78594600Y-107105800D01*
G75*
G02*
X78519200Y-107030400I0J75400D01*
G01*
X78519200Y-106529600D01*
G75*
G02*
X78594600Y-106454200I75400J0D01*
G01*
X78745400Y-106454200D01*
G75*
G02*
X78820800Y-106529600I0J-75400D01*
G01*
X78820800Y-107030400D01*
G75*
G02*
X78745400Y-107105800I-75400J0D01*
G01*
G37*
G36*
G01*
X78345400Y-107105800D02*
X78194600Y-107105800D01*
G75*
G02*
X78119200Y-107030400I0J75400D01*
G01*
X78119200Y-106529600D01*
G75*
G02*
X78194600Y-106454200I75400J0D01*
G01*
X78345400Y-106454200D01*
G75*
G02*
X78420800Y-106529600I0J-75400D01*
G01*
X78420800Y-107030400D01*
G75*
G02*
X78345400Y-107105800I-75400J0D01*
G01*
G37*
G36*
G01*
X77945400Y-107105800D02*
X77794600Y-107105800D01*
G75*
G02*
X77719200Y-107030400I0J75400D01*
G01*
X77719200Y-106529600D01*
G75*
G02*
X77794600Y-106454200I75400J0D01*
G01*
X77945400Y-106454200D01*
G75*
G02*
X78020800Y-106529600I0J-75400D01*
G01*
X78020800Y-107030400D01*
G75*
G02*
X77945400Y-107105800I-75400J0D01*
G01*
G37*
G36*
G01*
X77545400Y-107105800D02*
X77394600Y-107105800D01*
G75*
G02*
X77319200Y-107030400I0J75400D01*
G01*
X77319200Y-106529600D01*
G75*
G02*
X77394600Y-106454200I75400J0D01*
G01*
X77545400Y-106454200D01*
G75*
G02*
X77620800Y-106529600I0J-75400D01*
G01*
X77620800Y-107030400D01*
G75*
G02*
X77545400Y-107105800I-75400J0D01*
G01*
G37*
G36*
G01*
X76644200Y-106355400D02*
X76644200Y-106204600D01*
G75*
G02*
X76719600Y-106129200I75400J0D01*
G01*
X77220400Y-106129200D01*
G75*
G02*
X77295800Y-106204600I0J-75400D01*
G01*
X77295800Y-106355400D01*
G75*
G02*
X77220400Y-106430800I-75400J0D01*
G01*
X76719600Y-106430800D01*
G75*
G02*
X76644200Y-106355400I0J75400D01*
G01*
G37*
G36*
G01*
X76644200Y-105955400D02*
X76644200Y-105804600D01*
G75*
G02*
X76719600Y-105729200I75400J0D01*
G01*
X77220400Y-105729200D01*
G75*
G02*
X77295800Y-105804600I0J-75400D01*
G01*
X77295800Y-105955400D01*
G75*
G02*
X77220400Y-106030800I-75400J0D01*
G01*
X76719600Y-106030800D01*
G75*
G02*
X76644200Y-105955400I0J75400D01*
G01*
G37*
G36*
G01*
X76644200Y-105555400D02*
X76644200Y-105404600D01*
G75*
G02*
X76719600Y-105329200I75400J0D01*
G01*
X77220400Y-105329200D01*
G75*
G02*
X77295800Y-105404600I0J-75400D01*
G01*
X77295800Y-105555400D01*
G75*
G02*
X77220400Y-105630800I-75400J0D01*
G01*
X76719600Y-105630800D01*
G75*
G02*
X76644200Y-105555400I0J75400D01*
G01*
G37*
G36*
G01*
X76644200Y-105155400D02*
X76644200Y-105004600D01*
G75*
G02*
X76719600Y-104929200I75400J0D01*
G01*
X77220400Y-104929200D01*
G75*
G02*
X77295800Y-105004600I0J-75400D01*
G01*
X77295800Y-105155400D01*
G75*
G02*
X77220400Y-105230800I-75400J0D01*
G01*
X76719600Y-105230800D01*
G75*
G02*
X76644200Y-105155400I0J75400D01*
G01*
G37*
G36*
G01*
X76644200Y-104755400D02*
X76644200Y-104604600D01*
G75*
G02*
X76719600Y-104529200I75400J0D01*
G01*
X77220400Y-104529200D01*
G75*
G02*
X77295800Y-104604600I0J-75400D01*
G01*
X77295800Y-104755400D01*
G75*
G02*
X77220400Y-104830800I-75400J0D01*
G01*
X76719600Y-104830800D01*
G75*
G02*
X76644200Y-104755400I0J75400D01*
G01*
G37*
G36*
G01*
X76644200Y-104355400D02*
X76644200Y-104204600D01*
G75*
G02*
X76719600Y-104129200I75400J0D01*
G01*
X77220400Y-104129200D01*
G75*
G02*
X77295800Y-104204600I0J-75400D01*
G01*
X77295800Y-104355400D01*
G75*
G02*
X77220400Y-104430800I-75400J0D01*
G01*
X76719600Y-104430800D01*
G75*
G02*
X76644200Y-104355400I0J75400D01*
G01*
G37*
%TD*%
%TO.C,U103*%
G36*
G01*
X59184200Y-92373000D02*
X59184200Y-91823000D01*
G75*
G02*
X59235000Y-91772200I50800J0D01*
G01*
X60185000Y-91772200D01*
G75*
G02*
X60235800Y-91823000I0J-50800D01*
G01*
X60235800Y-92373000D01*
G75*
G02*
X60185000Y-92423800I-50800J0D01*
G01*
X59235000Y-92423800D01*
G75*
G02*
X59184200Y-92373000I0J50800D01*
G01*
G37*
G36*
G01*
X59184200Y-91123000D02*
X59184200Y-90573000D01*
G75*
G02*
X59235000Y-90522200I50800J0D01*
G01*
X60185000Y-90522200D01*
G75*
G02*
X60235800Y-90573000I0J-50800D01*
G01*
X60235800Y-91123000D01*
G75*
G02*
X60185000Y-91173800I-50800J0D01*
G01*
X59235000Y-91173800D01*
G75*
G02*
X59184200Y-91123000I0J50800D01*
G01*
G37*
G36*
G01*
X59184200Y-89873000D02*
X59184200Y-89323000D01*
G75*
G02*
X59235000Y-89272200I50800J0D01*
G01*
X60185000Y-89272200D01*
G75*
G02*
X60235800Y-89323000I0J-50800D01*
G01*
X60235800Y-89873000D01*
G75*
G02*
X60185000Y-89923800I-50800J0D01*
G01*
X59235000Y-89923800D01*
G75*
G02*
X59184200Y-89873000I0J50800D01*
G01*
G37*
G36*
G01*
X59184200Y-88623000D02*
X59184200Y-88073000D01*
G75*
G02*
X59235000Y-88022200I50800J0D01*
G01*
X60185000Y-88022200D01*
G75*
G02*
X60235800Y-88073000I0J-50800D01*
G01*
X60235800Y-88623000D01*
G75*
G02*
X60185000Y-88673800I-50800J0D01*
G01*
X59235000Y-88673800D01*
G75*
G02*
X59184200Y-88623000I0J50800D01*
G01*
G37*
G36*
G01*
X57034200Y-91123000D02*
X57034200Y-90573000D01*
G75*
G02*
X57085000Y-90522200I50800J0D01*
G01*
X58035000Y-90522200D01*
G75*
G02*
X58085800Y-90573000I0J-50800D01*
G01*
X58085800Y-91123000D01*
G75*
G02*
X58035000Y-91173800I-50800J0D01*
G01*
X57085000Y-91173800D01*
G75*
G02*
X57034200Y-91123000I0J50800D01*
G01*
G37*
G36*
G01*
X57034200Y-89873000D02*
X57034200Y-89323000D01*
G75*
G02*
X57085000Y-89272200I50800J0D01*
G01*
X58035000Y-89272200D01*
G75*
G02*
X58085800Y-89323000I0J-50800D01*
G01*
X58085800Y-89873000D01*
G75*
G02*
X58035000Y-89923800I-50800J0D01*
G01*
X57085000Y-89923800D01*
G75*
G02*
X57034200Y-89873000I0J50800D01*
G01*
G37*
G36*
G01*
X57034200Y-88623000D02*
X57034200Y-88073000D01*
G75*
G02*
X57085000Y-88022200I50800J0D01*
G01*
X58035000Y-88022200D01*
G75*
G02*
X58085800Y-88073000I0J-50800D01*
G01*
X58085800Y-88623000D01*
G75*
G02*
X58035000Y-88673800I-50800J0D01*
G01*
X57085000Y-88673800D01*
G75*
G02*
X57034200Y-88623000I0J50800D01*
G01*
G37*
G36*
G01*
X57034200Y-92373000D02*
X57034200Y-91823000D01*
G75*
G02*
X57085000Y-91772200I50800J0D01*
G01*
X58035000Y-91772200D01*
G75*
G02*
X58085800Y-91823000I0J-50800D01*
G01*
X58085800Y-92373000D01*
G75*
G02*
X58035000Y-92423800I-50800J0D01*
G01*
X57085000Y-92423800D01*
G75*
G02*
X57034200Y-92373000I0J50800D01*
G01*
G37*
%TD*%
%TO.C,U102*%
G36*
G01*
X59375000Y-66445800D02*
X59025000Y-66445800D01*
G75*
G02*
X58974200Y-66395000I0J50800D01*
G01*
X58974200Y-66020000D01*
G75*
G02*
X59025000Y-65969200I50800J0D01*
G01*
X59375000Y-65969200D01*
G75*
G02*
X59425800Y-66020000I0J-50800D01*
G01*
X59425800Y-66395000D01*
G75*
G02*
X59375000Y-66445800I-50800J0D01*
G01*
G37*
G36*
G01*
X59875000Y-66445800D02*
X59525000Y-66445800D01*
G75*
G02*
X59474200Y-66395000I0J50800D01*
G01*
X59474200Y-66020000D01*
G75*
G02*
X59525000Y-65969200I50800J0D01*
G01*
X59875000Y-65969200D01*
G75*
G02*
X59925800Y-66020000I0J-50800D01*
G01*
X59925800Y-66395000D01*
G75*
G02*
X59875000Y-66445800I-50800J0D01*
G01*
G37*
G36*
G01*
X59875000Y-67970800D02*
X59525000Y-67970800D01*
G75*
G02*
X59474200Y-67920000I0J50800D01*
G01*
X59474200Y-67545000D01*
G75*
G02*
X59525000Y-67494200I50800J0D01*
G01*
X59875000Y-67494200D01*
G75*
G02*
X59925800Y-67545000I0J-50800D01*
G01*
X59925800Y-67920000D01*
G75*
G02*
X59875000Y-67970800I-50800J0D01*
G01*
G37*
G36*
G01*
X59375000Y-67970800D02*
X59025000Y-67970800D01*
G75*
G02*
X58974200Y-67920000I0J50800D01*
G01*
X58974200Y-67545000D01*
G75*
G02*
X59025000Y-67494200I50800J0D01*
G01*
X59375000Y-67494200D01*
G75*
G02*
X59425800Y-67545000I0J-50800D01*
G01*
X59425800Y-67920000D01*
G75*
G02*
X59375000Y-67970800I-50800J0D01*
G01*
G37*
G36*
G01*
X59974200Y-66395000D02*
X59974200Y-66045000D01*
G75*
G02*
X60025000Y-65994200I50800J0D01*
G01*
X60400000Y-65994200D01*
G75*
G02*
X60450800Y-66045000I0J-50800D01*
G01*
X60450800Y-66395000D01*
G75*
G02*
X60400000Y-66445800I-50800J0D01*
G01*
X60025000Y-66445800D01*
G75*
G02*
X59974200Y-66395000I0J50800D01*
G01*
G37*
G36*
G01*
X58449200Y-66395000D02*
X58449200Y-66045000D01*
G75*
G02*
X58500000Y-65994200I50800J0D01*
G01*
X58875000Y-65994200D01*
G75*
G02*
X58925800Y-66045000I0J-50800D01*
G01*
X58925800Y-66395000D01*
G75*
G02*
X58875000Y-66445800I-50800J0D01*
G01*
X58500000Y-66445800D01*
G75*
G02*
X58449200Y-66395000I0J50800D01*
G01*
G37*
G36*
G01*
X59974200Y-67895000D02*
X59974200Y-67545000D01*
G75*
G02*
X60025000Y-67494200I50800J0D01*
G01*
X60400000Y-67494200D01*
G75*
G02*
X60450800Y-67545000I0J-50800D01*
G01*
X60450800Y-67895000D01*
G75*
G02*
X60400000Y-67945800I-50800J0D01*
G01*
X60025000Y-67945800D01*
G75*
G02*
X59974200Y-67895000I0J50800D01*
G01*
G37*
G36*
G01*
X58449200Y-67895000D02*
X58449200Y-67545000D01*
G75*
G02*
X58500000Y-67494200I50800J0D01*
G01*
X58875000Y-67494200D01*
G75*
G02*
X58925800Y-67545000I0J-50800D01*
G01*
X58925800Y-67895000D01*
G75*
G02*
X58875000Y-67945800I-50800J0D01*
G01*
X58500000Y-67945800D01*
G75*
G02*
X58449200Y-67895000I0J50800D01*
G01*
G37*
G36*
G01*
X59974200Y-67395000D02*
X59974200Y-67045000D01*
G75*
G02*
X60025000Y-66994200I50800J0D01*
G01*
X60400000Y-66994200D01*
G75*
G02*
X60450800Y-67045000I0J-50800D01*
G01*
X60450800Y-67395000D01*
G75*
G02*
X60400000Y-67445800I-50800J0D01*
G01*
X60025000Y-67445800D01*
G75*
G02*
X59974200Y-67395000I0J50800D01*
G01*
G37*
G36*
G01*
X59974200Y-66895000D02*
X59974200Y-66545000D01*
G75*
G02*
X60025000Y-66494200I50800J0D01*
G01*
X60400000Y-66494200D01*
G75*
G02*
X60450800Y-66545000I0J-50800D01*
G01*
X60450800Y-66895000D01*
G75*
G02*
X60400000Y-66945800I-50800J0D01*
G01*
X60025000Y-66945800D01*
G75*
G02*
X59974200Y-66895000I0J50800D01*
G01*
G37*
G36*
G01*
X58449200Y-67395000D02*
X58449200Y-67045000D01*
G75*
G02*
X58500000Y-66994200I50800J0D01*
G01*
X58875000Y-66994200D01*
G75*
G02*
X58925800Y-67045000I0J-50800D01*
G01*
X58925800Y-67395000D01*
G75*
G02*
X58875000Y-67445800I-50800J0D01*
G01*
X58500000Y-67445800D01*
G75*
G02*
X58449200Y-67395000I0J50800D01*
G01*
G37*
G36*
G01*
X58449200Y-66895000D02*
X58449200Y-66545000D01*
G75*
G02*
X58500000Y-66494200I50800J0D01*
G01*
X58875000Y-66494200D01*
G75*
G02*
X58925800Y-66545000I0J-50800D01*
G01*
X58925800Y-66895000D01*
G75*
G02*
X58875000Y-66945800I-50800J0D01*
G01*
X58500000Y-66945800D01*
G75*
G02*
X58449200Y-66895000I0J50800D01*
G01*
G37*
%TD*%
%TO.C,U101*%
G36*
G01*
X61319200Y-112210001D02*
X61319200Y-111859999D01*
G75*
G02*
X61369999Y-111809200I50799J0D01*
G01*
X61600001Y-111809200D01*
G75*
G02*
X61650800Y-111859999I0J-50799D01*
G01*
X61650800Y-112210001D01*
G75*
G02*
X61600001Y-112260800I-50799J0D01*
G01*
X61369999Y-112260800D01*
G75*
G02*
X61319200Y-112210001I0J50799D01*
G01*
G37*
G36*
G01*
X60889200Y-112210001D02*
X60889200Y-111859999D01*
G75*
G02*
X60939999Y-111809200I50799J0D01*
G01*
X61170001Y-111809200D01*
G75*
G02*
X61220800Y-111859999I0J-50799D01*
G01*
X61220800Y-112210001D01*
G75*
G02*
X61170001Y-112260800I-50799J0D01*
G01*
X60939999Y-112260800D01*
G75*
G02*
X60889200Y-112210001I0J50799D01*
G01*
G37*
G36*
G01*
X60459200Y-112210001D02*
X60459200Y-111859999D01*
G75*
G02*
X60509999Y-111809200I50799J0D01*
G01*
X60740001Y-111809200D01*
G75*
G02*
X60790800Y-111859999I0J-50799D01*
G01*
X60790800Y-112210001D01*
G75*
G02*
X60740001Y-112260800I-50799J0D01*
G01*
X60509999Y-112260800D01*
G75*
G02*
X60459200Y-112210001I0J50799D01*
G01*
G37*
G36*
G01*
X60029200Y-112210001D02*
X60029200Y-111859999D01*
G75*
G02*
X60079999Y-111809200I50799J0D01*
G01*
X60310001Y-111809200D01*
G75*
G02*
X60360800Y-111859999I0J-50799D01*
G01*
X60360800Y-112210001D01*
G75*
G02*
X60310001Y-112260800I-50799J0D01*
G01*
X60079999Y-112260800D01*
G75*
G02*
X60029200Y-112210001I0J50799D01*
G01*
G37*
G36*
G01*
X59599200Y-112210001D02*
X59599200Y-111859999D01*
G75*
G02*
X59649999Y-111809200I50799J0D01*
G01*
X59880001Y-111809200D01*
G75*
G02*
X59930800Y-111859999I0J-50799D01*
G01*
X59930800Y-112210001D01*
G75*
G02*
X59880001Y-112260800I-50799J0D01*
G01*
X59649999Y-112260800D01*
G75*
G02*
X59599200Y-112210001I0J50799D01*
G01*
G37*
G36*
G01*
X59169200Y-112210001D02*
X59169200Y-111859999D01*
G75*
G02*
X59219999Y-111809200I50799J0D01*
G01*
X59450001Y-111809200D01*
G75*
G02*
X59500800Y-111859999I0J-50799D01*
G01*
X59500800Y-112210001D01*
G75*
G02*
X59450001Y-112260800I-50799J0D01*
G01*
X59219999Y-112260800D01*
G75*
G02*
X59169200Y-112210001I0J50799D01*
G01*
G37*
G36*
G01*
X58739200Y-112210001D02*
X58739200Y-111859999D01*
G75*
G02*
X58789999Y-111809200I50799J0D01*
G01*
X59020001Y-111809200D01*
G75*
G02*
X59070800Y-111859999I0J-50799D01*
G01*
X59070800Y-112210001D01*
G75*
G02*
X59020001Y-112260800I-50799J0D01*
G01*
X58789999Y-112260800D01*
G75*
G02*
X58739200Y-112210001I0J50799D01*
G01*
G37*
G36*
G01*
X58309200Y-112210001D02*
X58309200Y-111859999D01*
G75*
G02*
X58359999Y-111809200I50799J0D01*
G01*
X58590001Y-111809200D01*
G75*
G02*
X58640800Y-111859999I0J-50799D01*
G01*
X58640800Y-112210001D01*
G75*
G02*
X58590001Y-112260800I-50799J0D01*
G01*
X58359999Y-112260800D01*
G75*
G02*
X58309200Y-112210001I0J50799D01*
G01*
G37*
G36*
G01*
X61319200Y-109760001D02*
X61319200Y-109409999D01*
G75*
G02*
X61369999Y-109359200I50799J0D01*
G01*
X61600001Y-109359200D01*
G75*
G02*
X61650800Y-109409999I0J-50799D01*
G01*
X61650800Y-109760001D01*
G75*
G02*
X61600001Y-109810800I-50799J0D01*
G01*
X61369999Y-109810800D01*
G75*
G02*
X61319200Y-109760001I0J50799D01*
G01*
G37*
G36*
G01*
X60889200Y-109760001D02*
X60889200Y-109409999D01*
G75*
G02*
X60939999Y-109359200I50799J0D01*
G01*
X61170001Y-109359200D01*
G75*
G02*
X61220800Y-109409999I0J-50799D01*
G01*
X61220800Y-109760001D01*
G75*
G02*
X61170001Y-109810800I-50799J0D01*
G01*
X60939999Y-109810800D01*
G75*
G02*
X60889200Y-109760001I0J50799D01*
G01*
G37*
G36*
G01*
X60459200Y-109760001D02*
X60459200Y-109409999D01*
G75*
G02*
X60509999Y-109359200I50799J0D01*
G01*
X60740001Y-109359200D01*
G75*
G02*
X60790800Y-109409999I0J-50799D01*
G01*
X60790800Y-109760001D01*
G75*
G02*
X60740001Y-109810800I-50799J0D01*
G01*
X60509999Y-109810800D01*
G75*
G02*
X60459200Y-109760001I0J50799D01*
G01*
G37*
G36*
G01*
X60029200Y-109760001D02*
X60029200Y-109409999D01*
G75*
G02*
X60079999Y-109359200I50799J0D01*
G01*
X60310001Y-109359200D01*
G75*
G02*
X60360800Y-109409999I0J-50799D01*
G01*
X60360800Y-109760001D01*
G75*
G02*
X60310001Y-109810800I-50799J0D01*
G01*
X60079999Y-109810800D01*
G75*
G02*
X60029200Y-109760001I0J50799D01*
G01*
G37*
G36*
G01*
X59599200Y-109760001D02*
X59599200Y-109409999D01*
G75*
G02*
X59649999Y-109359200I50799J0D01*
G01*
X59880001Y-109359200D01*
G75*
G02*
X59930800Y-109409999I0J-50799D01*
G01*
X59930800Y-109760001D01*
G75*
G02*
X59880001Y-109810800I-50799J0D01*
G01*
X59649999Y-109810800D01*
G75*
G02*
X59599200Y-109760001I0J50799D01*
G01*
G37*
G36*
G01*
X59169200Y-109760001D02*
X59169200Y-109409999D01*
G75*
G02*
X59219999Y-109359200I50799J0D01*
G01*
X59450001Y-109359200D01*
G75*
G02*
X59500800Y-109409999I0J-50799D01*
G01*
X59500800Y-109760001D01*
G75*
G02*
X59450001Y-109810800I-50799J0D01*
G01*
X59219999Y-109810800D01*
G75*
G02*
X59169200Y-109760001I0J50799D01*
G01*
G37*
G36*
G01*
X58739200Y-109760001D02*
X58739200Y-109409999D01*
G75*
G02*
X58789999Y-109359200I50799J0D01*
G01*
X59020001Y-109359200D01*
G75*
G02*
X59070800Y-109409999I0J-50799D01*
G01*
X59070800Y-109760001D01*
G75*
G02*
X59020001Y-109810800I-50799J0D01*
G01*
X58789999Y-109810800D01*
G75*
G02*
X58739200Y-109760001I0J50799D01*
G01*
G37*
G36*
G01*
X61229200Y-111570001D02*
X61229200Y-111339999D01*
G75*
G02*
X61279999Y-111289200I50799J0D01*
G01*
X61630001Y-111289200D01*
G75*
G02*
X61680800Y-111339999I0J-50799D01*
G01*
X61680800Y-111570001D01*
G75*
G02*
X61630001Y-111620800I-50799J0D01*
G01*
X61279999Y-111620800D01*
G75*
G02*
X61229200Y-111570001I0J50799D01*
G01*
G37*
G36*
G01*
X58279200Y-111570001D02*
X58279200Y-111339999D01*
G75*
G02*
X58329999Y-111289200I50799J0D01*
G01*
X58680001Y-111289200D01*
G75*
G02*
X58730800Y-111339999I0J-50799D01*
G01*
X58730800Y-111570001D01*
G75*
G02*
X58680001Y-111620800I-50799J0D01*
G01*
X58329999Y-111620800D01*
G75*
G02*
X58279200Y-111570001I0J50799D01*
G01*
G37*
G36*
G01*
X61229200Y-111140001D02*
X61229200Y-110909999D01*
G75*
G02*
X61279999Y-110859200I50799J0D01*
G01*
X61630001Y-110859200D01*
G75*
G02*
X61680800Y-110909999I0J-50799D01*
G01*
X61680800Y-111140001D01*
G75*
G02*
X61630001Y-111190800I-50799J0D01*
G01*
X61279999Y-111190800D01*
G75*
G02*
X61229200Y-111140001I0J50799D01*
G01*
G37*
G36*
G01*
X58279200Y-111140001D02*
X58279200Y-110909999D01*
G75*
G02*
X58329999Y-110859200I50799J0D01*
G01*
X58680001Y-110859200D01*
G75*
G02*
X58730800Y-110909999I0J-50799D01*
G01*
X58730800Y-111140001D01*
G75*
G02*
X58680001Y-111190800I-50799J0D01*
G01*
X58329999Y-111190800D01*
G75*
G02*
X58279200Y-111140001I0J50799D01*
G01*
G37*
G36*
G01*
X61229200Y-110710001D02*
X61229200Y-110479999D01*
G75*
G02*
X61279999Y-110429200I50799J0D01*
G01*
X61630001Y-110429200D01*
G75*
G02*
X61680800Y-110479999I0J-50799D01*
G01*
X61680800Y-110710001D01*
G75*
G02*
X61630001Y-110760800I-50799J0D01*
G01*
X61279999Y-110760800D01*
G75*
G02*
X61229200Y-110710001I0J50799D01*
G01*
G37*
G36*
G01*
X58279200Y-110710001D02*
X58279200Y-110479999D01*
G75*
G02*
X58329999Y-110429200I50799J0D01*
G01*
X58680001Y-110429200D01*
G75*
G02*
X58730800Y-110479999I0J-50799D01*
G01*
X58730800Y-110710001D01*
G75*
G02*
X58680001Y-110760800I-50799J0D01*
G01*
X58329999Y-110760800D01*
G75*
G02*
X58279200Y-110710001I0J50799D01*
G01*
G37*
G36*
G01*
X61229200Y-110280001D02*
X61229200Y-110049999D01*
G75*
G02*
X61279999Y-109999200I50799J0D01*
G01*
X61630001Y-109999200D01*
G75*
G02*
X61680800Y-110049999I0J-50799D01*
G01*
X61680800Y-110280001D01*
G75*
G02*
X61630001Y-110330800I-50799J0D01*
G01*
X61279999Y-110330800D01*
G75*
G02*
X61229200Y-110280001I0J50799D01*
G01*
G37*
G36*
G01*
X58279200Y-110280001D02*
X58279200Y-110049999D01*
G75*
G02*
X58329999Y-109999200I50799J0D01*
G01*
X58680001Y-109999200D01*
G75*
G02*
X58730800Y-110049999I0J-50799D01*
G01*
X58730800Y-110280001D01*
G75*
G02*
X58680001Y-110330800I-50799J0D01*
G01*
X58329999Y-110330800D01*
G75*
G02*
X58279200Y-110280001I0J50799D01*
G01*
G37*
G36*
G01*
X58309200Y-109760001D02*
X58309200Y-109409999D01*
G75*
G02*
X58359999Y-109359200I50799J0D01*
G01*
X58590001Y-109359200D01*
G75*
G02*
X58640800Y-109409999I0J-50799D01*
G01*
X58640800Y-109760001D01*
G75*
G02*
X58590001Y-109810800I-50799J0D01*
G01*
X58359999Y-109810800D01*
G75*
G02*
X58309200Y-109760001I0J50799D01*
G01*
G37*
%TD*%
%TO.C,R9004*%
G36*
G01*
X62219365Y-151087700D02*
X63178635Y-151087700D01*
G75*
G02*
X63449800Y-151358865I0J-271165D01*
G01*
X63449800Y-152118135D01*
G75*
G02*
X63178635Y-152389300I-271165J0D01*
G01*
X62219365Y-152389300D01*
G75*
G02*
X61948200Y-152118135I0J271165D01*
G01*
X61948200Y-151358865D01*
G75*
G02*
X62219365Y-151087700I271165J0D01*
G01*
G37*
G36*
G01*
X62219365Y-149087700D02*
X63178635Y-149087700D01*
G75*
G02*
X63449800Y-149358865I0J-271165D01*
G01*
X63449800Y-150118135D01*
G75*
G02*
X63178635Y-150389300I-271165J0D01*
G01*
X62219365Y-150389300D01*
G75*
G02*
X61948200Y-150118135I0J271165D01*
G01*
X61948200Y-149358865D01*
G75*
G02*
X62219365Y-149087700I271165J0D01*
G01*
G37*
%TD*%
%TO.C,R9003*%
G36*
G01*
X59679365Y-151087700D02*
X60638635Y-151087700D01*
G75*
G02*
X60909800Y-151358865I0J-271165D01*
G01*
X60909800Y-152118135D01*
G75*
G02*
X60638635Y-152389300I-271165J0D01*
G01*
X59679365Y-152389300D01*
G75*
G02*
X59408200Y-152118135I0J271165D01*
G01*
X59408200Y-151358865D01*
G75*
G02*
X59679365Y-151087700I271165J0D01*
G01*
G37*
G36*
G01*
X59679365Y-149087700D02*
X60638635Y-149087700D01*
G75*
G02*
X60909800Y-149358865I0J-271165D01*
G01*
X60909800Y-150118135D01*
G75*
G02*
X60638635Y-150389300I-271165J0D01*
G01*
X59679365Y-150389300D01*
G75*
G02*
X59408200Y-150118135I0J271165D01*
G01*
X59408200Y-149358865D01*
G75*
G02*
X59679365Y-149087700I271165J0D01*
G01*
G37*
%TD*%
%TO.C,R9002*%
G36*
G01*
X57139365Y-151087700D02*
X58098635Y-151087700D01*
G75*
G02*
X58369800Y-151358865I0J-271165D01*
G01*
X58369800Y-152118135D01*
G75*
G02*
X58098635Y-152389300I-271165J0D01*
G01*
X57139365Y-152389300D01*
G75*
G02*
X56868200Y-152118135I0J271165D01*
G01*
X56868200Y-151358865D01*
G75*
G02*
X57139365Y-151087700I271165J0D01*
G01*
G37*
G36*
G01*
X57139365Y-149087700D02*
X58098635Y-149087700D01*
G75*
G02*
X58369800Y-149358865I0J-271165D01*
G01*
X58369800Y-150118135D01*
G75*
G02*
X58098635Y-150389300I-271165J0D01*
G01*
X57139365Y-150389300D01*
G75*
G02*
X56868200Y-150118135I0J271165D01*
G01*
X56868200Y-149358865D01*
G75*
G02*
X57139365Y-149087700I271165J0D01*
G01*
G37*
%TD*%
%TO.C,R9001*%
G36*
G01*
X54599365Y-151087700D02*
X55558635Y-151087700D01*
G75*
G02*
X55829800Y-151358865I0J-271165D01*
G01*
X55829800Y-152118135D01*
G75*
G02*
X55558635Y-152389300I-271165J0D01*
G01*
X54599365Y-152389300D01*
G75*
G02*
X54328200Y-152118135I0J271165D01*
G01*
X54328200Y-151358865D01*
G75*
G02*
X54599365Y-151087700I271165J0D01*
G01*
G37*
G36*
G01*
X54599365Y-149087700D02*
X55558635Y-149087700D01*
G75*
G02*
X55829800Y-149358865I0J-271165D01*
G01*
X55829800Y-150118135D01*
G75*
G02*
X55558635Y-150389300I-271165J0D01*
G01*
X54599365Y-150389300D01*
G75*
G02*
X54328200Y-150118135I0J271165D01*
G01*
X54328200Y-149358865D01*
G75*
G02*
X54599365Y-149087700I271165J0D01*
G01*
G37*
%TD*%
D11*
%TO.C,JP104*%
G36*
X73099911Y-109997176D02*
G01*
X73109440Y-110000067D01*
X73118223Y-110004761D01*
X73125921Y-110011079D01*
X73132239Y-110018777D01*
X73136933Y-110027560D01*
X73139824Y-110037089D01*
X73140800Y-110047000D01*
X73140800Y-111547000D01*
X73139824Y-111556911D01*
X73136933Y-111566440D01*
X73132239Y-111575223D01*
X73125921Y-111582921D01*
X73118223Y-111589239D01*
X73109440Y-111593933D01*
X73099911Y-111596824D01*
X73090000Y-111597800D01*
X72590000Y-111597800D01*
X72583887Y-111597198D01*
X72565466Y-111597198D01*
X72560486Y-111596953D01*
X72511655Y-111592143D01*
X72506725Y-111591412D01*
X72458600Y-111581840D01*
X72453763Y-111580628D01*
X72406808Y-111566384D01*
X72402115Y-111564705D01*
X72356782Y-111545928D01*
X72352274Y-111543796D01*
X72309001Y-111520665D01*
X72304727Y-111518103D01*
X72263928Y-111490843D01*
X72259923Y-111487873D01*
X72221994Y-111456745D01*
X72218300Y-111453397D01*
X72183603Y-111418700D01*
X72180255Y-111415006D01*
X72149127Y-111377077D01*
X72146157Y-111373072D01*
X72118897Y-111332273D01*
X72116335Y-111327999D01*
X72093204Y-111284726D01*
X72091072Y-111280218D01*
X72072295Y-111234885D01*
X72070616Y-111230192D01*
X72056372Y-111183237D01*
X72055160Y-111178400D01*
X72045588Y-111130275D01*
X72044857Y-111125345D01*
X72040047Y-111076514D01*
X72039802Y-111071534D01*
X72039802Y-111053113D01*
X72039200Y-111047000D01*
X72039200Y-110547000D01*
X72039802Y-110540887D01*
X72039802Y-110522466D01*
X72040047Y-110517486D01*
X72044857Y-110468655D01*
X72045588Y-110463725D01*
X72055160Y-110415600D01*
X72056372Y-110410763D01*
X72070616Y-110363808D01*
X72072295Y-110359115D01*
X72091072Y-110313782D01*
X72093204Y-110309274D01*
X72116335Y-110266001D01*
X72118897Y-110261727D01*
X72146157Y-110220928D01*
X72149127Y-110216923D01*
X72180255Y-110178994D01*
X72183603Y-110175300D01*
X72218300Y-110140603D01*
X72221994Y-110137255D01*
X72259923Y-110106127D01*
X72263928Y-110103157D01*
X72304727Y-110075897D01*
X72309001Y-110073335D01*
X72352274Y-110050204D01*
X72356782Y-110048072D01*
X72402115Y-110029295D01*
X72406808Y-110027616D01*
X72453763Y-110013372D01*
X72458600Y-110012160D01*
X72506725Y-110002588D01*
X72511655Y-110001857D01*
X72560486Y-109997047D01*
X72565466Y-109996802D01*
X72583887Y-109996802D01*
X72590000Y-109996200D01*
X73090000Y-109996200D01*
X73099911Y-109997176D01*
G37*
G36*
X73896113Y-109996802D02*
G01*
X73914534Y-109996802D01*
X73919514Y-109997047D01*
X73968345Y-110001857D01*
X73973275Y-110002588D01*
X74021400Y-110012160D01*
X74026237Y-110013372D01*
X74073192Y-110027616D01*
X74077885Y-110029295D01*
X74123218Y-110048072D01*
X74127726Y-110050204D01*
X74170999Y-110073335D01*
X74175273Y-110075897D01*
X74216072Y-110103157D01*
X74220077Y-110106127D01*
X74258006Y-110137255D01*
X74261700Y-110140603D01*
X74296397Y-110175300D01*
X74299745Y-110178994D01*
X74330873Y-110216923D01*
X74333843Y-110220928D01*
X74361103Y-110261727D01*
X74363665Y-110266001D01*
X74386796Y-110309274D01*
X74388928Y-110313782D01*
X74407705Y-110359115D01*
X74409384Y-110363808D01*
X74423628Y-110410763D01*
X74424840Y-110415600D01*
X74434412Y-110463725D01*
X74435143Y-110468655D01*
X74439953Y-110517486D01*
X74440198Y-110522466D01*
X74440198Y-110540887D01*
X74440800Y-110547000D01*
X74440800Y-111047000D01*
X74440198Y-111053113D01*
X74440198Y-111071534D01*
X74439953Y-111076514D01*
X74435143Y-111125345D01*
X74434412Y-111130275D01*
X74424840Y-111178400D01*
X74423628Y-111183237D01*
X74409384Y-111230192D01*
X74407705Y-111234885D01*
X74388928Y-111280218D01*
X74386796Y-111284726D01*
X74363665Y-111327999D01*
X74361103Y-111332273D01*
X74333843Y-111373072D01*
X74330873Y-111377077D01*
X74299745Y-111415006D01*
X74296397Y-111418700D01*
X74261700Y-111453397D01*
X74258006Y-111456745D01*
X74220077Y-111487873D01*
X74216072Y-111490843D01*
X74175273Y-111518103D01*
X74170999Y-111520665D01*
X74127726Y-111543796D01*
X74123218Y-111545928D01*
X74077885Y-111564705D01*
X74073192Y-111566384D01*
X74026237Y-111580628D01*
X74021400Y-111581840D01*
X73973275Y-111591412D01*
X73968345Y-111592143D01*
X73919514Y-111596953D01*
X73914534Y-111597198D01*
X73896113Y-111597198D01*
X73890000Y-111597800D01*
X73390000Y-111597800D01*
X73380089Y-111596824D01*
X73370560Y-111593933D01*
X73361777Y-111589239D01*
X73354079Y-111582921D01*
X73347761Y-111575223D01*
X73343067Y-111566440D01*
X73340176Y-111556911D01*
X73339200Y-111547000D01*
X73339200Y-110047000D01*
X73340176Y-110037089D01*
X73343067Y-110027560D01*
X73347761Y-110018777D01*
X73354079Y-110011079D01*
X73361777Y-110004761D01*
X73370560Y-110000067D01*
X73380089Y-109997176D01*
X73390000Y-109996200D01*
X73890000Y-109996200D01*
X73896113Y-109996802D01*
G37*
%TD*%
%TO.C,JP102*%
G36*
X54350176Y-73540089D02*
G01*
X54353067Y-73530560D01*
X54357761Y-73521777D01*
X54364079Y-73514079D01*
X54371777Y-73507761D01*
X54380560Y-73503067D01*
X54390089Y-73500176D01*
X54400000Y-73499200D01*
X55900000Y-73499200D01*
X55909911Y-73500176D01*
X55919440Y-73503067D01*
X55928223Y-73507761D01*
X55935921Y-73514079D01*
X55942239Y-73521777D01*
X55946933Y-73530560D01*
X55949824Y-73540089D01*
X55950800Y-73550000D01*
X55950800Y-74050000D01*
X55950198Y-74056113D01*
X55950198Y-74074534D01*
X55949953Y-74079514D01*
X55945143Y-74128345D01*
X55944412Y-74133275D01*
X55934840Y-74181400D01*
X55933628Y-74186237D01*
X55919384Y-74233192D01*
X55917705Y-74237885D01*
X55898928Y-74283218D01*
X55896796Y-74287726D01*
X55873665Y-74330999D01*
X55871103Y-74335273D01*
X55843843Y-74376072D01*
X55840873Y-74380077D01*
X55809745Y-74418006D01*
X55806397Y-74421700D01*
X55771700Y-74456397D01*
X55768006Y-74459745D01*
X55730077Y-74490873D01*
X55726072Y-74493843D01*
X55685273Y-74521103D01*
X55680999Y-74523665D01*
X55637726Y-74546796D01*
X55633218Y-74548928D01*
X55587885Y-74567705D01*
X55583192Y-74569384D01*
X55536237Y-74583628D01*
X55531400Y-74584840D01*
X55483275Y-74594412D01*
X55478345Y-74595143D01*
X55429514Y-74599953D01*
X55424534Y-74600198D01*
X55406113Y-74600198D01*
X55400000Y-74600800D01*
X54900000Y-74600800D01*
X54893887Y-74600198D01*
X54875466Y-74600198D01*
X54870486Y-74599953D01*
X54821655Y-74595143D01*
X54816725Y-74594412D01*
X54768600Y-74584840D01*
X54763763Y-74583628D01*
X54716808Y-74569384D01*
X54712115Y-74567705D01*
X54666782Y-74548928D01*
X54662274Y-74546796D01*
X54619001Y-74523665D01*
X54614727Y-74521103D01*
X54573928Y-74493843D01*
X54569923Y-74490873D01*
X54531994Y-74459745D01*
X54528300Y-74456397D01*
X54493603Y-74421700D01*
X54490255Y-74418006D01*
X54459127Y-74380077D01*
X54456157Y-74376072D01*
X54428897Y-74335273D01*
X54426335Y-74330999D01*
X54403204Y-74287726D01*
X54401072Y-74283218D01*
X54382295Y-74237885D01*
X54380616Y-74233192D01*
X54366372Y-74186237D01*
X54365160Y-74181400D01*
X54355588Y-74133275D01*
X54354857Y-74128345D01*
X54350047Y-74079514D01*
X54349802Y-74074534D01*
X54349802Y-74056113D01*
X54349200Y-74050000D01*
X54349200Y-73550000D01*
X54350176Y-73540089D01*
G37*
G36*
X54349802Y-72743887D02*
G01*
X54349802Y-72725466D01*
X54350047Y-72720486D01*
X54354857Y-72671655D01*
X54355588Y-72666725D01*
X54365160Y-72618600D01*
X54366372Y-72613763D01*
X54380616Y-72566808D01*
X54382295Y-72562115D01*
X54401072Y-72516782D01*
X54403204Y-72512274D01*
X54426335Y-72469001D01*
X54428897Y-72464727D01*
X54456157Y-72423928D01*
X54459127Y-72419923D01*
X54490255Y-72381994D01*
X54493603Y-72378300D01*
X54528300Y-72343603D01*
X54531994Y-72340255D01*
X54569923Y-72309127D01*
X54573928Y-72306157D01*
X54614727Y-72278897D01*
X54619001Y-72276335D01*
X54662274Y-72253204D01*
X54666782Y-72251072D01*
X54712115Y-72232295D01*
X54716808Y-72230616D01*
X54763763Y-72216372D01*
X54768600Y-72215160D01*
X54816725Y-72205588D01*
X54821655Y-72204857D01*
X54870486Y-72200047D01*
X54875466Y-72199802D01*
X54893887Y-72199802D01*
X54900000Y-72199200D01*
X55400000Y-72199200D01*
X55406113Y-72199802D01*
X55424534Y-72199802D01*
X55429514Y-72200047D01*
X55478345Y-72204857D01*
X55483275Y-72205588D01*
X55531400Y-72215160D01*
X55536237Y-72216372D01*
X55583192Y-72230616D01*
X55587885Y-72232295D01*
X55633218Y-72251072D01*
X55637726Y-72253204D01*
X55680999Y-72276335D01*
X55685273Y-72278897D01*
X55726072Y-72306157D01*
X55730077Y-72309127D01*
X55768006Y-72340255D01*
X55771700Y-72343603D01*
X55806397Y-72378300D01*
X55809745Y-72381994D01*
X55840873Y-72419923D01*
X55843843Y-72423928D01*
X55871103Y-72464727D01*
X55873665Y-72469001D01*
X55896796Y-72512274D01*
X55898928Y-72516782D01*
X55917705Y-72562115D01*
X55919384Y-72566808D01*
X55933628Y-72613763D01*
X55934840Y-72618600D01*
X55944412Y-72666725D01*
X55945143Y-72671655D01*
X55949953Y-72720486D01*
X55950198Y-72725466D01*
X55950198Y-72743887D01*
X55950800Y-72750000D01*
X55950800Y-73250000D01*
X55949824Y-73259911D01*
X55946933Y-73269440D01*
X55942239Y-73278223D01*
X55935921Y-73285921D01*
X55928223Y-73292239D01*
X55919440Y-73296933D01*
X55909911Y-73299824D01*
X55900000Y-73300800D01*
X54400000Y-73300800D01*
X54390089Y-73299824D01*
X54380560Y-73296933D01*
X54371777Y-73292239D01*
X54364079Y-73285921D01*
X54357761Y-73278223D01*
X54353067Y-73269440D01*
X54350176Y-73259911D01*
X54349200Y-73250000D01*
X54349200Y-72750000D01*
X54349802Y-72743887D01*
G37*
%TD*%
%TO.C,JP101*%
G36*
X51809911Y-109800176D02*
G01*
X51819440Y-109803067D01*
X51828223Y-109807761D01*
X51835921Y-109814079D01*
X51842239Y-109821777D01*
X51846933Y-109830560D01*
X51849824Y-109840089D01*
X51850800Y-109850000D01*
X51850800Y-111350000D01*
X51849824Y-111359911D01*
X51846933Y-111369440D01*
X51842239Y-111378223D01*
X51835921Y-111385921D01*
X51828223Y-111392239D01*
X51819440Y-111396933D01*
X51809911Y-111399824D01*
X51800000Y-111400800D01*
X51300000Y-111400800D01*
X51293887Y-111400198D01*
X51275466Y-111400198D01*
X51270486Y-111399953D01*
X51221655Y-111395143D01*
X51216725Y-111394412D01*
X51168600Y-111384840D01*
X51163763Y-111383628D01*
X51116808Y-111369384D01*
X51112115Y-111367705D01*
X51066782Y-111348928D01*
X51062274Y-111346796D01*
X51019001Y-111323665D01*
X51014727Y-111321103D01*
X50973928Y-111293843D01*
X50969923Y-111290873D01*
X50931994Y-111259745D01*
X50928300Y-111256397D01*
X50893603Y-111221700D01*
X50890255Y-111218006D01*
X50859127Y-111180077D01*
X50856157Y-111176072D01*
X50828897Y-111135273D01*
X50826335Y-111130999D01*
X50803204Y-111087726D01*
X50801072Y-111083218D01*
X50782295Y-111037885D01*
X50780616Y-111033192D01*
X50766372Y-110986237D01*
X50765160Y-110981400D01*
X50755588Y-110933275D01*
X50754857Y-110928345D01*
X50750047Y-110879514D01*
X50749802Y-110874534D01*
X50749802Y-110856113D01*
X50749200Y-110850000D01*
X50749200Y-110350000D01*
X50749802Y-110343887D01*
X50749802Y-110325466D01*
X50750047Y-110320486D01*
X50754857Y-110271655D01*
X50755588Y-110266725D01*
X50765160Y-110218600D01*
X50766372Y-110213763D01*
X50780616Y-110166808D01*
X50782295Y-110162115D01*
X50801072Y-110116782D01*
X50803204Y-110112274D01*
X50826335Y-110069001D01*
X50828897Y-110064727D01*
X50856157Y-110023928D01*
X50859127Y-110019923D01*
X50890255Y-109981994D01*
X50893603Y-109978300D01*
X50928300Y-109943603D01*
X50931994Y-109940255D01*
X50969923Y-109909127D01*
X50973928Y-109906157D01*
X51014727Y-109878897D01*
X51019001Y-109876335D01*
X51062274Y-109853204D01*
X51066782Y-109851072D01*
X51112115Y-109832295D01*
X51116808Y-109830616D01*
X51163763Y-109816372D01*
X51168600Y-109815160D01*
X51216725Y-109805588D01*
X51221655Y-109804857D01*
X51270486Y-109800047D01*
X51275466Y-109799802D01*
X51293887Y-109799802D01*
X51300000Y-109799200D01*
X51800000Y-109799200D01*
X51809911Y-109800176D01*
G37*
G36*
X52606113Y-109799802D02*
G01*
X52624534Y-109799802D01*
X52629514Y-109800047D01*
X52678345Y-109804857D01*
X52683275Y-109805588D01*
X52731400Y-109815160D01*
X52736237Y-109816372D01*
X52783192Y-109830616D01*
X52787885Y-109832295D01*
X52833218Y-109851072D01*
X52837726Y-109853204D01*
X52880999Y-109876335D01*
X52885273Y-109878897D01*
X52926072Y-109906157D01*
X52930077Y-109909127D01*
X52968006Y-109940255D01*
X52971700Y-109943603D01*
X53006397Y-109978300D01*
X53009745Y-109981994D01*
X53040873Y-110019923D01*
X53043843Y-110023928D01*
X53071103Y-110064727D01*
X53073665Y-110069001D01*
X53096796Y-110112274D01*
X53098928Y-110116782D01*
X53117705Y-110162115D01*
X53119384Y-110166808D01*
X53133628Y-110213763D01*
X53134840Y-110218600D01*
X53144412Y-110266725D01*
X53145143Y-110271655D01*
X53149953Y-110320486D01*
X53150198Y-110325466D01*
X53150198Y-110343887D01*
X53150800Y-110350000D01*
X53150800Y-110850000D01*
X53150198Y-110856113D01*
X53150198Y-110874534D01*
X53149953Y-110879514D01*
X53145143Y-110928345D01*
X53144412Y-110933275D01*
X53134840Y-110981400D01*
X53133628Y-110986237D01*
X53119384Y-111033192D01*
X53117705Y-111037885D01*
X53098928Y-111083218D01*
X53096796Y-111087726D01*
X53073665Y-111130999D01*
X53071103Y-111135273D01*
X53043843Y-111176072D01*
X53040873Y-111180077D01*
X53009745Y-111218006D01*
X53006397Y-111221700D01*
X52971700Y-111256397D01*
X52968006Y-111259745D01*
X52930077Y-111290873D01*
X52926072Y-111293843D01*
X52885273Y-111321103D01*
X52880999Y-111323665D01*
X52837726Y-111346796D01*
X52833218Y-111348928D01*
X52787885Y-111367705D01*
X52783192Y-111369384D01*
X52736237Y-111383628D01*
X52731400Y-111384840D01*
X52683275Y-111394412D01*
X52678345Y-111395143D01*
X52629514Y-111399953D01*
X52624534Y-111400198D01*
X52606113Y-111400198D01*
X52600000Y-111400800D01*
X52100000Y-111400800D01*
X52090089Y-111399824D01*
X52080560Y-111396933D01*
X52071777Y-111392239D01*
X52064079Y-111385921D01*
X52057761Y-111378223D01*
X52053067Y-111369440D01*
X52050176Y-111359911D01*
X52049200Y-111350000D01*
X52049200Y-109850000D01*
X52050176Y-109840089D01*
X52053067Y-109830560D01*
X52057761Y-109821777D01*
X52064079Y-109814079D01*
X52071777Y-109807761D01*
X52080560Y-109803067D01*
X52090089Y-109800176D01*
X52100000Y-109799200D01*
X52600000Y-109799200D01*
X52606113Y-109799802D01*
G37*
%TD*%
D15*
%TO.C,J109*%
X84290000Y-183850000D03*
D16*
X84290000Y-181310000D03*
D15*
X81750000Y-183850000D03*
D16*
X81750000Y-181310000D03*
D15*
X79210000Y-183850000D03*
G36*
G01*
X78059200Y-182410000D02*
X78059200Y-180210000D01*
G75*
G02*
X78110000Y-180159200I50800J0D01*
G01*
X80310000Y-180159200D01*
G75*
G02*
X80360800Y-180210000I0J-50800D01*
G01*
X80360800Y-182410000D01*
G75*
G02*
X80310000Y-182460800I-50800J0D01*
G01*
X78110000Y-182460800D01*
G75*
G02*
X78059200Y-182410000I0J50800D01*
G01*
G37*
%TD*%
%TO.C,J108*%
X69050000Y-183850000D03*
D16*
X69050000Y-181310000D03*
D15*
X66510000Y-183850000D03*
D16*
X66510000Y-181310000D03*
D15*
X63970000Y-183850000D03*
G36*
G01*
X62819200Y-182410000D02*
X62819200Y-180210000D01*
G75*
G02*
X62870000Y-180159200I50800J0D01*
G01*
X65070000Y-180159200D01*
G75*
G02*
X65120800Y-180210000I0J-50800D01*
G01*
X65120800Y-182410000D01*
G75*
G02*
X65070000Y-182460800I-50800J0D01*
G01*
X62870000Y-182460800D01*
G75*
G02*
X62819200Y-182410000I0J50800D01*
G01*
G37*
%TD*%
%TO.C,J107*%
X52540000Y-183850000D03*
D16*
X52540000Y-181310000D03*
D15*
X50000000Y-183850000D03*
D16*
X50000000Y-181310000D03*
D15*
X47460000Y-183850000D03*
G36*
G01*
X46309200Y-182410000D02*
X46309200Y-180210000D01*
G75*
G02*
X46360000Y-180159200I50800J0D01*
G01*
X48560000Y-180159200D01*
G75*
G02*
X48610800Y-180210000I0J-50800D01*
G01*
X48610800Y-182410000D01*
G75*
G02*
X48560000Y-182460800I-50800J0D01*
G01*
X46360000Y-182460800D01*
G75*
G02*
X46309200Y-182410000I0J50800D01*
G01*
G37*
%TD*%
%TO.C,J106*%
G36*
G01*
X98700000Y-178985800D02*
X96550000Y-178985800D01*
G75*
G02*
X96499200Y-178935000I0J50800D01*
G01*
X96499200Y-177635000D01*
G75*
G02*
X96550000Y-177584200I50800J0D01*
G01*
X98700000Y-177584200D01*
G75*
G02*
X98750800Y-177635000I0J-50800D01*
G01*
X98750800Y-178935000D01*
G75*
G02*
X98700000Y-178985800I-50800J0D01*
G01*
G37*
G36*
G01*
X98700000Y-166435800D02*
X96550000Y-166435800D01*
G75*
G02*
X96499200Y-166385000I0J50800D01*
G01*
X96499200Y-165085000D01*
G75*
G02*
X96550000Y-165034200I50800J0D01*
G01*
X98700000Y-165034200D01*
G75*
G02*
X98750800Y-165085000I0J-50800D01*
G01*
X98750800Y-166385000D01*
G75*
G02*
X98700000Y-166435800I-50800J0D01*
G01*
G37*
G36*
G01*
X95930000Y-168085800D02*
X94730000Y-168085800D01*
G75*
G02*
X94679200Y-168035000I0J50800D01*
G01*
X94679200Y-167235000D01*
G75*
G02*
X94730000Y-167184200I50800J0D01*
G01*
X95930000Y-167184200D01*
G75*
G02*
X95980800Y-167235000I0J-50800D01*
G01*
X95980800Y-168035000D01*
G75*
G02*
X95930000Y-168085800I-50800J0D01*
G01*
G37*
G36*
G01*
X95930000Y-169335800D02*
X94730000Y-169335800D01*
G75*
G02*
X94679200Y-169285000I0J50800D01*
G01*
X94679200Y-168485000D01*
G75*
G02*
X94730000Y-168434200I50800J0D01*
G01*
X95930000Y-168434200D01*
G75*
G02*
X95980800Y-168485000I0J-50800D01*
G01*
X95980800Y-169285000D01*
G75*
G02*
X95930000Y-169335800I-50800J0D01*
G01*
G37*
G36*
G01*
X95930000Y-170585800D02*
X94730000Y-170585800D01*
G75*
G02*
X94679200Y-170535000I0J50800D01*
G01*
X94679200Y-169735000D01*
G75*
G02*
X94730000Y-169684200I50800J0D01*
G01*
X95930000Y-169684200D01*
G75*
G02*
X95980800Y-169735000I0J-50800D01*
G01*
X95980800Y-170535000D01*
G75*
G02*
X95930000Y-170585800I-50800J0D01*
G01*
G37*
G36*
G01*
X95930000Y-171835800D02*
X94730000Y-171835800D01*
G75*
G02*
X94679200Y-171785000I0J50800D01*
G01*
X94679200Y-170985000D01*
G75*
G02*
X94730000Y-170934200I50800J0D01*
G01*
X95930000Y-170934200D01*
G75*
G02*
X95980800Y-170985000I0J-50800D01*
G01*
X95980800Y-171785000D01*
G75*
G02*
X95930000Y-171835800I-50800J0D01*
G01*
G37*
G36*
G01*
X95930000Y-173085800D02*
X94730000Y-173085800D01*
G75*
G02*
X94679200Y-173035000I0J50800D01*
G01*
X94679200Y-172235000D01*
G75*
G02*
X94730000Y-172184200I50800J0D01*
G01*
X95930000Y-172184200D01*
G75*
G02*
X95980800Y-172235000I0J-50800D01*
G01*
X95980800Y-173035000D01*
G75*
G02*
X95930000Y-173085800I-50800J0D01*
G01*
G37*
G36*
G01*
X95930000Y-174335800D02*
X94730000Y-174335800D01*
G75*
G02*
X94679200Y-174285000I0J50800D01*
G01*
X94679200Y-173485000D01*
G75*
G02*
X94730000Y-173434200I50800J0D01*
G01*
X95930000Y-173434200D01*
G75*
G02*
X95980800Y-173485000I0J-50800D01*
G01*
X95980800Y-174285000D01*
G75*
G02*
X95930000Y-174335800I-50800J0D01*
G01*
G37*
G36*
G01*
X95930000Y-175585800D02*
X94730000Y-175585800D01*
G75*
G02*
X94679200Y-175535000I0J50800D01*
G01*
X94679200Y-174735000D01*
G75*
G02*
X94730000Y-174684200I50800J0D01*
G01*
X95930000Y-174684200D01*
G75*
G02*
X95980800Y-174735000I0J-50800D01*
G01*
X95980800Y-175535000D01*
G75*
G02*
X95930000Y-175585800I-50800J0D01*
G01*
G37*
G36*
G01*
X95930000Y-176835800D02*
X94730000Y-176835800D01*
G75*
G02*
X94679200Y-176785000I0J50800D01*
G01*
X94679200Y-175985000D01*
G75*
G02*
X94730000Y-175934200I50800J0D01*
G01*
X95930000Y-175934200D01*
G75*
G02*
X95980800Y-175985000I0J-50800D01*
G01*
X95980800Y-176785000D01*
G75*
G02*
X95930000Y-176835800I-50800J0D01*
G01*
G37*
%TD*%
%TO.C,J105*%
G36*
G01*
X98700000Y-162945800D02*
X96550000Y-162945800D01*
G75*
G02*
X96499200Y-162895000I0J50800D01*
G01*
X96499200Y-161595000D01*
G75*
G02*
X96550000Y-161544200I50800J0D01*
G01*
X98700000Y-161544200D01*
G75*
G02*
X98750800Y-161595000I0J-50800D01*
G01*
X98750800Y-162895000D01*
G75*
G02*
X98700000Y-162945800I-50800J0D01*
G01*
G37*
G36*
G01*
X98700000Y-150395800D02*
X96550000Y-150395800D01*
G75*
G02*
X96499200Y-150345000I0J50800D01*
G01*
X96499200Y-149045000D01*
G75*
G02*
X96550000Y-148994200I50800J0D01*
G01*
X98700000Y-148994200D01*
G75*
G02*
X98750800Y-149045000I0J-50800D01*
G01*
X98750800Y-150345000D01*
G75*
G02*
X98700000Y-150395800I-50800J0D01*
G01*
G37*
G36*
G01*
X95930000Y-152045800D02*
X94730000Y-152045800D01*
G75*
G02*
X94679200Y-151995000I0J50800D01*
G01*
X94679200Y-151195000D01*
G75*
G02*
X94730000Y-151144200I50800J0D01*
G01*
X95930000Y-151144200D01*
G75*
G02*
X95980800Y-151195000I0J-50800D01*
G01*
X95980800Y-151995000D01*
G75*
G02*
X95930000Y-152045800I-50800J0D01*
G01*
G37*
G36*
G01*
X95930000Y-153295800D02*
X94730000Y-153295800D01*
G75*
G02*
X94679200Y-153245000I0J50800D01*
G01*
X94679200Y-152445000D01*
G75*
G02*
X94730000Y-152394200I50800J0D01*
G01*
X95930000Y-152394200D01*
G75*
G02*
X95980800Y-152445000I0J-50800D01*
G01*
X95980800Y-153245000D01*
G75*
G02*
X95930000Y-153295800I-50800J0D01*
G01*
G37*
G36*
G01*
X95930000Y-154545800D02*
X94730000Y-154545800D01*
G75*
G02*
X94679200Y-154495000I0J50800D01*
G01*
X94679200Y-153695000D01*
G75*
G02*
X94730000Y-153644200I50800J0D01*
G01*
X95930000Y-153644200D01*
G75*
G02*
X95980800Y-153695000I0J-50800D01*
G01*
X95980800Y-154495000D01*
G75*
G02*
X95930000Y-154545800I-50800J0D01*
G01*
G37*
G36*
G01*
X95930000Y-155795800D02*
X94730000Y-155795800D01*
G75*
G02*
X94679200Y-155745000I0J50800D01*
G01*
X94679200Y-154945000D01*
G75*
G02*
X94730000Y-154894200I50800J0D01*
G01*
X95930000Y-154894200D01*
G75*
G02*
X95980800Y-154945000I0J-50800D01*
G01*
X95980800Y-155745000D01*
G75*
G02*
X95930000Y-155795800I-50800J0D01*
G01*
G37*
G36*
G01*
X95930000Y-157045800D02*
X94730000Y-157045800D01*
G75*
G02*
X94679200Y-156995000I0J50800D01*
G01*
X94679200Y-156195000D01*
G75*
G02*
X94730000Y-156144200I50800J0D01*
G01*
X95930000Y-156144200D01*
G75*
G02*
X95980800Y-156195000I0J-50800D01*
G01*
X95980800Y-156995000D01*
G75*
G02*
X95930000Y-157045800I-50800J0D01*
G01*
G37*
G36*
G01*
X95930000Y-158295800D02*
X94730000Y-158295800D01*
G75*
G02*
X94679200Y-158245000I0J50800D01*
G01*
X94679200Y-157445000D01*
G75*
G02*
X94730000Y-157394200I50800J0D01*
G01*
X95930000Y-157394200D01*
G75*
G02*
X95980800Y-157445000I0J-50800D01*
G01*
X95980800Y-158245000D01*
G75*
G02*
X95930000Y-158295800I-50800J0D01*
G01*
G37*
G36*
G01*
X95930000Y-159545800D02*
X94730000Y-159545800D01*
G75*
G02*
X94679200Y-159495000I0J50800D01*
G01*
X94679200Y-158695000D01*
G75*
G02*
X94730000Y-158644200I50800J0D01*
G01*
X95930000Y-158644200D01*
G75*
G02*
X95980800Y-158695000I0J-50800D01*
G01*
X95980800Y-159495000D01*
G75*
G02*
X95930000Y-159545800I-50800J0D01*
G01*
G37*
G36*
G01*
X95930000Y-160795800D02*
X94730000Y-160795800D01*
G75*
G02*
X94679200Y-160745000I0J50800D01*
G01*
X94679200Y-159945000D01*
G75*
G02*
X94730000Y-159894200I50800J0D01*
G01*
X95930000Y-159894200D01*
G75*
G02*
X95980800Y-159945000I0J-50800D01*
G01*
X95980800Y-160745000D01*
G75*
G02*
X95930000Y-160795800I-50800J0D01*
G01*
G37*
%TD*%
%TO.C,J102*%
G36*
G01*
X32860000Y-165034200D02*
X35010000Y-165034200D01*
G75*
G02*
X35060800Y-165085000I0J-50800D01*
G01*
X35060800Y-166385000D01*
G75*
G02*
X35010000Y-166435800I-50800J0D01*
G01*
X32860000Y-166435800D01*
G75*
G02*
X32809200Y-166385000I0J50800D01*
G01*
X32809200Y-165085000D01*
G75*
G02*
X32860000Y-165034200I50800J0D01*
G01*
G37*
G36*
G01*
X32860000Y-177584200D02*
X35010000Y-177584200D01*
G75*
G02*
X35060800Y-177635000I0J-50800D01*
G01*
X35060800Y-178935000D01*
G75*
G02*
X35010000Y-178985800I-50800J0D01*
G01*
X32860000Y-178985800D01*
G75*
G02*
X32809200Y-178935000I0J50800D01*
G01*
X32809200Y-177635000D01*
G75*
G02*
X32860000Y-177584200I50800J0D01*
G01*
G37*
G36*
G01*
X35630000Y-175934200D02*
X36830000Y-175934200D01*
G75*
G02*
X36880800Y-175985000I0J-50800D01*
G01*
X36880800Y-176785000D01*
G75*
G02*
X36830000Y-176835800I-50800J0D01*
G01*
X35630000Y-176835800D01*
G75*
G02*
X35579200Y-176785000I0J50800D01*
G01*
X35579200Y-175985000D01*
G75*
G02*
X35630000Y-175934200I50800J0D01*
G01*
G37*
G36*
G01*
X35630000Y-174684200D02*
X36830000Y-174684200D01*
G75*
G02*
X36880800Y-174735000I0J-50800D01*
G01*
X36880800Y-175535000D01*
G75*
G02*
X36830000Y-175585800I-50800J0D01*
G01*
X35630000Y-175585800D01*
G75*
G02*
X35579200Y-175535000I0J50800D01*
G01*
X35579200Y-174735000D01*
G75*
G02*
X35630000Y-174684200I50800J0D01*
G01*
G37*
G36*
G01*
X35630000Y-173434200D02*
X36830000Y-173434200D01*
G75*
G02*
X36880800Y-173485000I0J-50800D01*
G01*
X36880800Y-174285000D01*
G75*
G02*
X36830000Y-174335800I-50800J0D01*
G01*
X35630000Y-174335800D01*
G75*
G02*
X35579200Y-174285000I0J50800D01*
G01*
X35579200Y-173485000D01*
G75*
G02*
X35630000Y-173434200I50800J0D01*
G01*
G37*
G36*
G01*
X35630000Y-172184200D02*
X36830000Y-172184200D01*
G75*
G02*
X36880800Y-172235000I0J-50800D01*
G01*
X36880800Y-173035000D01*
G75*
G02*
X36830000Y-173085800I-50800J0D01*
G01*
X35630000Y-173085800D01*
G75*
G02*
X35579200Y-173035000I0J50800D01*
G01*
X35579200Y-172235000D01*
G75*
G02*
X35630000Y-172184200I50800J0D01*
G01*
G37*
G36*
G01*
X35630000Y-170934200D02*
X36830000Y-170934200D01*
G75*
G02*
X36880800Y-170985000I0J-50800D01*
G01*
X36880800Y-171785000D01*
G75*
G02*
X36830000Y-171835800I-50800J0D01*
G01*
X35630000Y-171835800D01*
G75*
G02*
X35579200Y-171785000I0J50800D01*
G01*
X35579200Y-170985000D01*
G75*
G02*
X35630000Y-170934200I50800J0D01*
G01*
G37*
G36*
G01*
X35630000Y-169684200D02*
X36830000Y-169684200D01*
G75*
G02*
X36880800Y-169735000I0J-50800D01*
G01*
X36880800Y-170535000D01*
G75*
G02*
X36830000Y-170585800I-50800J0D01*
G01*
X35630000Y-170585800D01*
G75*
G02*
X35579200Y-170535000I0J50800D01*
G01*
X35579200Y-169735000D01*
G75*
G02*
X35630000Y-169684200I50800J0D01*
G01*
G37*
G36*
G01*
X35630000Y-168434200D02*
X36830000Y-168434200D01*
G75*
G02*
X36880800Y-168485000I0J-50800D01*
G01*
X36880800Y-169285000D01*
G75*
G02*
X36830000Y-169335800I-50800J0D01*
G01*
X35630000Y-169335800D01*
G75*
G02*
X35579200Y-169285000I0J50800D01*
G01*
X35579200Y-168485000D01*
G75*
G02*
X35630000Y-168434200I50800J0D01*
G01*
G37*
G36*
G01*
X35630000Y-167184200D02*
X36830000Y-167184200D01*
G75*
G02*
X36880800Y-167235000I0J-50800D01*
G01*
X36880800Y-168035000D01*
G75*
G02*
X36830000Y-168085800I-50800J0D01*
G01*
X35630000Y-168085800D01*
G75*
G02*
X35579200Y-168035000I0J50800D01*
G01*
X35579200Y-167235000D01*
G75*
G02*
X35630000Y-167184200I50800J0D01*
G01*
G37*
%TD*%
%TO.C,J101*%
G36*
G01*
X32860000Y-148994200D02*
X35010000Y-148994200D01*
G75*
G02*
X35060800Y-149045000I0J-50800D01*
G01*
X35060800Y-150345000D01*
G75*
G02*
X35010000Y-150395800I-50800J0D01*
G01*
X32860000Y-150395800D01*
G75*
G02*
X32809200Y-150345000I0J50800D01*
G01*
X32809200Y-149045000D01*
G75*
G02*
X32860000Y-148994200I50800J0D01*
G01*
G37*
G36*
G01*
X32860000Y-161544200D02*
X35010000Y-161544200D01*
G75*
G02*
X35060800Y-161595000I0J-50800D01*
G01*
X35060800Y-162895000D01*
G75*
G02*
X35010000Y-162945800I-50800J0D01*
G01*
X32860000Y-162945800D01*
G75*
G02*
X32809200Y-162895000I0J50800D01*
G01*
X32809200Y-161595000D01*
G75*
G02*
X32860000Y-161544200I50800J0D01*
G01*
G37*
G36*
G01*
X35630000Y-159894200D02*
X36830000Y-159894200D01*
G75*
G02*
X36880800Y-159945000I0J-50800D01*
G01*
X36880800Y-160745000D01*
G75*
G02*
X36830000Y-160795800I-50800J0D01*
G01*
X35630000Y-160795800D01*
G75*
G02*
X35579200Y-160745000I0J50800D01*
G01*
X35579200Y-159945000D01*
G75*
G02*
X35630000Y-159894200I50800J0D01*
G01*
G37*
G36*
G01*
X35630000Y-158644200D02*
X36830000Y-158644200D01*
G75*
G02*
X36880800Y-158695000I0J-50800D01*
G01*
X36880800Y-159495000D01*
G75*
G02*
X36830000Y-159545800I-50800J0D01*
G01*
X35630000Y-159545800D01*
G75*
G02*
X35579200Y-159495000I0J50800D01*
G01*
X35579200Y-158695000D01*
G75*
G02*
X35630000Y-158644200I50800J0D01*
G01*
G37*
G36*
G01*
X35630000Y-157394200D02*
X36830000Y-157394200D01*
G75*
G02*
X36880800Y-157445000I0J-50800D01*
G01*
X36880800Y-158245000D01*
G75*
G02*
X36830000Y-158295800I-50800J0D01*
G01*
X35630000Y-158295800D01*
G75*
G02*
X35579200Y-158245000I0J50800D01*
G01*
X35579200Y-157445000D01*
G75*
G02*
X35630000Y-157394200I50800J0D01*
G01*
G37*
G36*
G01*
X35630000Y-156144200D02*
X36830000Y-156144200D01*
G75*
G02*
X36880800Y-156195000I0J-50800D01*
G01*
X36880800Y-156995000D01*
G75*
G02*
X36830000Y-157045800I-50800J0D01*
G01*
X35630000Y-157045800D01*
G75*
G02*
X35579200Y-156995000I0J50800D01*
G01*
X35579200Y-156195000D01*
G75*
G02*
X35630000Y-156144200I50800J0D01*
G01*
G37*
G36*
G01*
X35630000Y-154894200D02*
X36830000Y-154894200D01*
G75*
G02*
X36880800Y-154945000I0J-50800D01*
G01*
X36880800Y-155745000D01*
G75*
G02*
X36830000Y-155795800I-50800J0D01*
G01*
X35630000Y-155795800D01*
G75*
G02*
X35579200Y-155745000I0J50800D01*
G01*
X35579200Y-154945000D01*
G75*
G02*
X35630000Y-154894200I50800J0D01*
G01*
G37*
G36*
G01*
X35630000Y-153644200D02*
X36830000Y-153644200D01*
G75*
G02*
X36880800Y-153695000I0J-50800D01*
G01*
X36880800Y-154495000D01*
G75*
G02*
X36830000Y-154545800I-50800J0D01*
G01*
X35630000Y-154545800D01*
G75*
G02*
X35579200Y-154495000I0J50800D01*
G01*
X35579200Y-153695000D01*
G75*
G02*
X35630000Y-153644200I50800J0D01*
G01*
G37*
G36*
G01*
X35630000Y-152394200D02*
X36830000Y-152394200D01*
G75*
G02*
X36880800Y-152445000I0J-50800D01*
G01*
X36880800Y-153245000D01*
G75*
G02*
X36830000Y-153295800I-50800J0D01*
G01*
X35630000Y-153295800D01*
G75*
G02*
X35579200Y-153245000I0J50800D01*
G01*
X35579200Y-152445000D01*
G75*
G02*
X35630000Y-152394200I50800J0D01*
G01*
G37*
G36*
G01*
X35630000Y-151144200D02*
X36830000Y-151144200D01*
G75*
G02*
X36880800Y-151195000I0J-50800D01*
G01*
X36880800Y-151995000D01*
G75*
G02*
X36830000Y-152045800I-50800J0D01*
G01*
X35630000Y-152045800D01*
G75*
G02*
X35579200Y-151995000I0J50800D01*
G01*
X35579200Y-151195000D01*
G75*
G02*
X35630000Y-151144200I50800J0D01*
G01*
G37*
%TD*%
%TO.C,D9004*%
G36*
G01*
X63177715Y-154847800D02*
X62220285Y-154847800D01*
G75*
G02*
X61948200Y-154575715I0J272085D01*
G01*
X61948200Y-153868285D01*
G75*
G02*
X62220285Y-153596200I272085J0D01*
G01*
X63177715Y-153596200D01*
G75*
G02*
X63449800Y-153868285I0J-272085D01*
G01*
X63449800Y-154575715D01*
G75*
G02*
X63177715Y-154847800I-272085J0D01*
G01*
G37*
G36*
G01*
X63177715Y-156897800D02*
X62220285Y-156897800D01*
G75*
G02*
X61948200Y-156625715I0J272085D01*
G01*
X61948200Y-155918285D01*
G75*
G02*
X62220285Y-155646200I272085J0D01*
G01*
X63177715Y-155646200D01*
G75*
G02*
X63449800Y-155918285I0J-272085D01*
G01*
X63449800Y-156625715D01*
G75*
G02*
X63177715Y-156897800I-272085J0D01*
G01*
G37*
%TD*%
%TO.C,D9003*%
G36*
G01*
X60637715Y-154847800D02*
X59680285Y-154847800D01*
G75*
G02*
X59408200Y-154575715I0J272085D01*
G01*
X59408200Y-153868285D01*
G75*
G02*
X59680285Y-153596200I272085J0D01*
G01*
X60637715Y-153596200D01*
G75*
G02*
X60909800Y-153868285I0J-272085D01*
G01*
X60909800Y-154575715D01*
G75*
G02*
X60637715Y-154847800I-272085J0D01*
G01*
G37*
G36*
G01*
X60637715Y-156897800D02*
X59680285Y-156897800D01*
G75*
G02*
X59408200Y-156625715I0J272085D01*
G01*
X59408200Y-155918285D01*
G75*
G02*
X59680285Y-155646200I272085J0D01*
G01*
X60637715Y-155646200D01*
G75*
G02*
X60909800Y-155918285I0J-272085D01*
G01*
X60909800Y-156625715D01*
G75*
G02*
X60637715Y-156897800I-272085J0D01*
G01*
G37*
%TD*%
%TO.C,D9002*%
G36*
G01*
X58097715Y-154847800D02*
X57140285Y-154847800D01*
G75*
G02*
X56868200Y-154575715I0J272085D01*
G01*
X56868200Y-153868285D01*
G75*
G02*
X57140285Y-153596200I272085J0D01*
G01*
X58097715Y-153596200D01*
G75*
G02*
X58369800Y-153868285I0J-272085D01*
G01*
X58369800Y-154575715D01*
G75*
G02*
X58097715Y-154847800I-272085J0D01*
G01*
G37*
G36*
G01*
X58097715Y-156897800D02*
X57140285Y-156897800D01*
G75*
G02*
X56868200Y-156625715I0J272085D01*
G01*
X56868200Y-155918285D01*
G75*
G02*
X57140285Y-155646200I272085J0D01*
G01*
X58097715Y-155646200D01*
G75*
G02*
X58369800Y-155918285I0J-272085D01*
G01*
X58369800Y-156625715D01*
G75*
G02*
X58097715Y-156897800I-272085J0D01*
G01*
G37*
%TD*%
%TO.C,D9001*%
G36*
G01*
X55557715Y-154847800D02*
X54600285Y-154847800D01*
G75*
G02*
X54328200Y-154575715I0J272085D01*
G01*
X54328200Y-153868285D01*
G75*
G02*
X54600285Y-153596200I272085J0D01*
G01*
X55557715Y-153596200D01*
G75*
G02*
X55829800Y-153868285I0J-272085D01*
G01*
X55829800Y-154575715D01*
G75*
G02*
X55557715Y-154847800I-272085J0D01*
G01*
G37*
G36*
G01*
X55557715Y-156897800D02*
X54600285Y-156897800D01*
G75*
G02*
X54328200Y-156625715I0J272085D01*
G01*
X54328200Y-155918285D01*
G75*
G02*
X54600285Y-155646200I272085J0D01*
G01*
X55557715Y-155646200D01*
G75*
G02*
X55829800Y-155918285I0J-272085D01*
G01*
X55829800Y-156625715D01*
G75*
G02*
X55557715Y-156897800I-272085J0D01*
G01*
G37*
%TD*%
%TO.C,C110*%
G36*
G01*
X83700400Y-111400800D02*
X82699600Y-111400800D01*
G75*
G02*
X82424200Y-111125400I0J275400D01*
G01*
X82424200Y-110574600D01*
G75*
G02*
X82699600Y-110299200I275400J0D01*
G01*
X83700400Y-110299200D01*
G75*
G02*
X83975800Y-110574600I0J-275400D01*
G01*
X83975800Y-111125400D01*
G75*
G02*
X83700400Y-111400800I-275400J0D01*
G01*
G37*
G36*
G01*
X83700400Y-113300800D02*
X82699600Y-113300800D01*
G75*
G02*
X82424200Y-113025400I0J275400D01*
G01*
X82424200Y-112474600D01*
G75*
G02*
X82699600Y-112199200I275400J0D01*
G01*
X83700400Y-112199200D01*
G75*
G02*
X83975800Y-112474600I0J-275400D01*
G01*
X83975800Y-113025400D01*
G75*
G02*
X83700400Y-113300800I-275400J0D01*
G01*
G37*
%TD*%
%TO.C,C109*%
G36*
G01*
X77999600Y-112199200D02*
X79000400Y-112199200D01*
G75*
G02*
X79275800Y-112474600I0J-275400D01*
G01*
X79275800Y-113025400D01*
G75*
G02*
X79000400Y-113300800I-275400J0D01*
G01*
X77999600Y-113300800D01*
G75*
G02*
X77724200Y-113025400I0J275400D01*
G01*
X77724200Y-112474600D01*
G75*
G02*
X77999600Y-112199200I275400J0D01*
G01*
G37*
G36*
G01*
X77999600Y-110299200D02*
X79000400Y-110299200D01*
G75*
G02*
X79275800Y-110574600I0J-275400D01*
G01*
X79275800Y-111125400D01*
G75*
G02*
X79000400Y-111400800I-275400J0D01*
G01*
X77999600Y-111400800D01*
G75*
G02*
X77724200Y-111125400I0J275400D01*
G01*
X77724200Y-110574600D01*
G75*
G02*
X77999600Y-110299200I275400J0D01*
G01*
G37*
%TD*%
%TO.C,C105*%
G36*
G01*
X56949600Y-116799200D02*
X57950400Y-116799200D01*
G75*
G02*
X58225800Y-117074600I0J-275400D01*
G01*
X58225800Y-117625400D01*
G75*
G02*
X57950400Y-117900800I-275400J0D01*
G01*
X56949600Y-117900800D01*
G75*
G02*
X56674200Y-117625400I0J275400D01*
G01*
X56674200Y-117074600D01*
G75*
G02*
X56949600Y-116799200I275400J0D01*
G01*
G37*
G36*
G01*
X56949600Y-114899200D02*
X57950400Y-114899200D01*
G75*
G02*
X58225800Y-115174600I0J-275400D01*
G01*
X58225800Y-115725400D01*
G75*
G02*
X57950400Y-116000800I-275400J0D01*
G01*
X56949600Y-116000800D01*
G75*
G02*
X56674200Y-115725400I0J275400D01*
G01*
X56674200Y-115174600D01*
G75*
G02*
X56949600Y-114899200I275400J0D01*
G01*
G37*
%TD*%
%TO.C,C104*%
G36*
G01*
X54469600Y-116829200D02*
X55470400Y-116829200D01*
G75*
G02*
X55745800Y-117104600I0J-275400D01*
G01*
X55745800Y-117655400D01*
G75*
G02*
X55470400Y-117930800I-275400J0D01*
G01*
X54469600Y-117930800D01*
G75*
G02*
X54194200Y-117655400I0J275400D01*
G01*
X54194200Y-117104600D01*
G75*
G02*
X54469600Y-116829200I275400J0D01*
G01*
G37*
G36*
G01*
X54469600Y-114929200D02*
X55470400Y-114929200D01*
G75*
G02*
X55745800Y-115204600I0J-275400D01*
G01*
X55745800Y-115755400D01*
G75*
G02*
X55470400Y-116030800I-275400J0D01*
G01*
X54469600Y-116030800D01*
G75*
G02*
X54194200Y-115755400I0J275400D01*
G01*
X54194200Y-115204600D01*
G75*
G02*
X54469600Y-114929200I275400J0D01*
G01*
G37*
%TD*%
%TO.C,C103*%
G36*
G01*
X51789600Y-114509200D02*
X52790400Y-114509200D01*
G75*
G02*
X53065800Y-114784600I0J-275400D01*
G01*
X53065800Y-115335400D01*
G75*
G02*
X52790400Y-115610800I-275400J0D01*
G01*
X51789600Y-115610800D01*
G75*
G02*
X51514200Y-115335400I0J275400D01*
G01*
X51514200Y-114784600D01*
G75*
G02*
X51789600Y-114509200I275400J0D01*
G01*
G37*
G36*
G01*
X51789600Y-112609200D02*
X52790400Y-112609200D01*
G75*
G02*
X53065800Y-112884600I0J-275400D01*
G01*
X53065800Y-113435400D01*
G75*
G02*
X52790400Y-113710800I-275400J0D01*
G01*
X51789600Y-113710800D01*
G75*
G02*
X51514200Y-113435400I0J275400D01*
G01*
X51514200Y-112884600D01*
G75*
G02*
X51789600Y-112609200I275400J0D01*
G01*
G37*
%TD*%
%TO.C,C102*%
G36*
G01*
X57000400Y-103510800D02*
X55999600Y-103510800D01*
G75*
G02*
X55724200Y-103235400I0J275400D01*
G01*
X55724200Y-102684600D01*
G75*
G02*
X55999600Y-102409200I275400J0D01*
G01*
X57000400Y-102409200D01*
G75*
G02*
X57275800Y-102684600I0J-275400D01*
G01*
X57275800Y-103235400D01*
G75*
G02*
X57000400Y-103510800I-275400J0D01*
G01*
G37*
G36*
G01*
X57000400Y-105410800D02*
X55999600Y-105410800D01*
G75*
G02*
X55724200Y-105135400I0J275400D01*
G01*
X55724200Y-104584600D01*
G75*
G02*
X55999600Y-104309200I275400J0D01*
G01*
X57000400Y-104309200D01*
G75*
G02*
X57275800Y-104584600I0J-275400D01*
G01*
X57275800Y-105135400D01*
G75*
G02*
X57000400Y-105410800I-275400J0D01*
G01*
G37*
%TD*%
%TO.C,C101*%
G36*
G01*
X61820400Y-103460800D02*
X60819600Y-103460800D01*
G75*
G02*
X60544200Y-103185400I0J275400D01*
G01*
X60544200Y-102634600D01*
G75*
G02*
X60819600Y-102359200I275400J0D01*
G01*
X61820400Y-102359200D01*
G75*
G02*
X62095800Y-102634600I0J-275400D01*
G01*
X62095800Y-103185400D01*
G75*
G02*
X61820400Y-103460800I-275400J0D01*
G01*
G37*
G36*
G01*
X61820400Y-105360800D02*
X60819600Y-105360800D01*
G75*
G02*
X60544200Y-105085400I0J275400D01*
G01*
X60544200Y-104534600D01*
G75*
G02*
X60819600Y-104259200I275400J0D01*
G01*
X61820400Y-104259200D01*
G75*
G02*
X62095800Y-104534600I0J-275400D01*
G01*
X62095800Y-105085400D01*
G75*
G02*
X61820400Y-105360800I-275400J0D01*
G01*
G37*
%TD*%
D17*
%TO.C,REF\u002A\u002A*%
X42647056Y-28402944D03*
X40950000Y-27700000D03*
X39252944Y-28402944D03*
X38550000Y-30100000D03*
X39252944Y-31797056D03*
X40950000Y-32500000D03*
X42647056Y-31797056D03*
X43350000Y-30100000D03*
D18*
X40950000Y-30150800D03*
%TD*%
D17*
%TO.C,REF\u002A\u002A*%
X92497056Y-28402944D03*
X90800000Y-27700000D03*
X89102944Y-28402944D03*
X88400000Y-30100000D03*
X89102944Y-31797056D03*
X90800000Y-32500000D03*
X92497056Y-31797056D03*
X93200000Y-30100000D03*
D18*
X90800000Y-30150800D03*
%TD*%
D17*
%TO.C,REF\u002A\u002A*%
X42647056Y-180802944D03*
X40950000Y-180100000D03*
X39252944Y-180802944D03*
X38550000Y-182500000D03*
X39252944Y-184197056D03*
X40950000Y-184900000D03*
X42647056Y-184197056D03*
X43350000Y-182500000D03*
D18*
X40950000Y-182550800D03*
%TD*%
D17*
%TO.C,REF\u002A\u002A*%
X92497056Y-180752144D03*
X90800000Y-180049200D03*
X89102944Y-180752144D03*
X88400000Y-182449200D03*
X89102944Y-184146256D03*
X90800000Y-184849200D03*
X92497056Y-184146256D03*
X93200000Y-182449200D03*
D18*
X90800000Y-182500000D03*
%TD*%
M02*
