%TF.GenerationSoftware,KiCad,Pcbnew,5.1.10*%
%TF.CreationDate,2021-10-08T11:52:48-05:00*%
%TF.ProjectId,FCB-Lite,4643422d-4c69-4746-952e-6b696361645f,A*%
%TF.SameCoordinates,Original*%
%TF.FileFunction,Paste,Top*%
%TF.FilePolarity,Positive*%
%FSLAX46Y46*%
G04 Gerber Fmt 4.6, Leading zero omitted, Abs format (unit mm)*
G04 Created by KiCad (PCBNEW 5.1.10) date 2021-10-08 11:52:48*
%MOMM*%
%LPD*%
G01*
G04 APERTURE LIST*
%ADD10R,3.000000X1.000000*%
%ADD11R,4.000000X1.800000*%
%ADD12R,0.950000X0.550000*%
%ADD13R,0.350000X0.375000*%
%ADD14R,0.375000X0.350000*%
%ADD15R,0.230000X0.350000*%
%ADD16R,0.350000X0.230000*%
%ADD17R,2.150000X1.300000*%
%ADD18R,1.200000X0.800000*%
G04 APERTURE END LIST*
%TO.C,C107*%
G36*
G01*
X52225000Y-68950000D02*
X53175000Y-68950000D01*
G75*
G02*
X53425000Y-69200000I0J-250000D01*
G01*
X53425000Y-69700000D01*
G75*
G02*
X53175000Y-69950000I-250000J0D01*
G01*
X52225000Y-69950000D01*
G75*
G02*
X51975000Y-69700000I0J250000D01*
G01*
X51975000Y-69200000D01*
G75*
G02*
X52225000Y-68950000I250000J0D01*
G01*
G37*
G36*
G01*
X52225000Y-67050000D02*
X53175000Y-67050000D01*
G75*
G02*
X53425000Y-67300000I0J-250000D01*
G01*
X53425000Y-67800000D01*
G75*
G02*
X53175000Y-68050000I-250000J0D01*
G01*
X52225000Y-68050000D01*
G75*
G02*
X51975000Y-67800000I0J250000D01*
G01*
X51975000Y-67300000D01*
G75*
G02*
X52225000Y-67050000I250000J0D01*
G01*
G37*
%TD*%
%TO.C,C106*%
G36*
G01*
X61425000Y-71550000D02*
X60475000Y-71550000D01*
G75*
G02*
X60225000Y-71300000I0J250000D01*
G01*
X60225000Y-70800000D01*
G75*
G02*
X60475000Y-70550000I250000J0D01*
G01*
X61425000Y-70550000D01*
G75*
G02*
X61675000Y-70800000I0J-250000D01*
G01*
X61675000Y-71300000D01*
G75*
G02*
X61425000Y-71550000I-250000J0D01*
G01*
G37*
G36*
G01*
X61425000Y-73450000D02*
X60475000Y-73450000D01*
G75*
G02*
X60225000Y-73200000I0J250000D01*
G01*
X60225000Y-72700000D01*
G75*
G02*
X60475000Y-72450000I250000J0D01*
G01*
X61425000Y-72450000D01*
G75*
G02*
X61675000Y-72700000I0J-250000D01*
G01*
X61675000Y-73200000D01*
G75*
G02*
X61425000Y-73450000I-250000J0D01*
G01*
G37*
%TD*%
D10*
%TO.C,J104*%
X92870000Y-50020000D03*
X92870000Y-48020000D03*
X92870000Y-46020000D03*
X92870000Y-44020000D03*
D11*
X97170000Y-52420000D03*
X97170000Y-37620000D03*
D10*
X92870000Y-42020000D03*
X92870000Y-40020000D03*
%TD*%
%TO.C,J103*%
X38670000Y-40020000D03*
X38670000Y-42020000D03*
X38670000Y-44020000D03*
X38670000Y-46020000D03*
D11*
X34370000Y-37620000D03*
X34370000Y-52420000D03*
D10*
X38670000Y-48020000D03*
X38670000Y-50020000D03*
%TD*%
%TO.C,R107*%
G36*
G01*
X75499999Y-182400000D02*
X76400001Y-182400000D01*
G75*
G02*
X76650000Y-182649999I0J-249999D01*
G01*
X76650000Y-183175001D01*
G75*
G02*
X76400001Y-183425000I-249999J0D01*
G01*
X75499999Y-183425000D01*
G75*
G02*
X75250000Y-183175001I0J249999D01*
G01*
X75250000Y-182649999D01*
G75*
G02*
X75499999Y-182400000I249999J0D01*
G01*
G37*
G36*
G01*
X75499999Y-180575000D02*
X76400001Y-180575000D01*
G75*
G02*
X76650000Y-180824999I0J-249999D01*
G01*
X76650000Y-181350001D01*
G75*
G02*
X76400001Y-181600000I-249999J0D01*
G01*
X75499999Y-181600000D01*
G75*
G02*
X75250000Y-181350001I0J249999D01*
G01*
X75250000Y-180824999D01*
G75*
G02*
X75499999Y-180575000I249999J0D01*
G01*
G37*
%TD*%
%TO.C,R106*%
G36*
G01*
X72499999Y-182400000D02*
X73400001Y-182400000D01*
G75*
G02*
X73650000Y-182649999I0J-249999D01*
G01*
X73650000Y-183175001D01*
G75*
G02*
X73400001Y-183425000I-249999J0D01*
G01*
X72499999Y-183425000D01*
G75*
G02*
X72250000Y-183175001I0J249999D01*
G01*
X72250000Y-182649999D01*
G75*
G02*
X72499999Y-182400000I249999J0D01*
G01*
G37*
G36*
G01*
X72499999Y-180575000D02*
X73400001Y-180575000D01*
G75*
G02*
X73650000Y-180824999I0J-249999D01*
G01*
X73650000Y-181350001D01*
G75*
G02*
X73400001Y-181600000I-249999J0D01*
G01*
X72499999Y-181600000D01*
G75*
G02*
X72250000Y-181350001I0J249999D01*
G01*
X72250000Y-180824999D01*
G75*
G02*
X72499999Y-180575000I249999J0D01*
G01*
G37*
%TD*%
%TO.C,R105*%
G36*
G01*
X55749999Y-182650000D02*
X56650001Y-182650000D01*
G75*
G02*
X56900000Y-182899999I0J-249999D01*
G01*
X56900000Y-183425001D01*
G75*
G02*
X56650001Y-183675000I-249999J0D01*
G01*
X55749999Y-183675000D01*
G75*
G02*
X55500000Y-183425001I0J249999D01*
G01*
X55500000Y-182899999D01*
G75*
G02*
X55749999Y-182650000I249999J0D01*
G01*
G37*
G36*
G01*
X55749999Y-180825000D02*
X56650001Y-180825000D01*
G75*
G02*
X56900000Y-181074999I0J-249999D01*
G01*
X56900000Y-181600001D01*
G75*
G02*
X56650001Y-181850000I-249999J0D01*
G01*
X55749999Y-181850000D01*
G75*
G02*
X55500000Y-181600001I0J249999D01*
G01*
X55500000Y-181074999D01*
G75*
G02*
X55749999Y-180825000I249999J0D01*
G01*
G37*
%TD*%
%TO.C,R204*%
G36*
G01*
X75120000Y-148850001D02*
X75120000Y-147949999D01*
G75*
G02*
X75369999Y-147700000I249999J0D01*
G01*
X75895001Y-147700000D01*
G75*
G02*
X76145000Y-147949999I0J-249999D01*
G01*
X76145000Y-148850001D01*
G75*
G02*
X75895001Y-149100000I-249999J0D01*
G01*
X75369999Y-149100000D01*
G75*
G02*
X75120000Y-148850001I0J249999D01*
G01*
G37*
G36*
G01*
X73295000Y-148850001D02*
X73295000Y-147949999D01*
G75*
G02*
X73544999Y-147700000I249999J0D01*
G01*
X74070001Y-147700000D01*
G75*
G02*
X74320000Y-147949999I0J-249999D01*
G01*
X74320000Y-148850001D01*
G75*
G02*
X74070001Y-149100000I-249999J0D01*
G01*
X73544999Y-149100000D01*
G75*
G02*
X73295000Y-148850001I0J249999D01*
G01*
G37*
%TD*%
%TO.C,R203*%
G36*
G01*
X75100000Y-151200001D02*
X75100000Y-150299999D01*
G75*
G02*
X75349999Y-150050000I249999J0D01*
G01*
X75875001Y-150050000D01*
G75*
G02*
X76125000Y-150299999I0J-249999D01*
G01*
X76125000Y-151200001D01*
G75*
G02*
X75875001Y-151450000I-249999J0D01*
G01*
X75349999Y-151450000D01*
G75*
G02*
X75100000Y-151200001I0J249999D01*
G01*
G37*
G36*
G01*
X73275000Y-151200001D02*
X73275000Y-150299999D01*
G75*
G02*
X73524999Y-150050000I249999J0D01*
G01*
X74050001Y-150050000D01*
G75*
G02*
X74300000Y-150299999I0J-249999D01*
G01*
X74300000Y-151200001D01*
G75*
G02*
X74050001Y-151450000I-249999J0D01*
G01*
X73524999Y-151450000D01*
G75*
G02*
X73275000Y-151200001I0J249999D01*
G01*
G37*
%TD*%
%TO.C,R202*%
G36*
G01*
X64999999Y-55150000D02*
X65900001Y-55150000D01*
G75*
G02*
X66150000Y-55399999I0J-249999D01*
G01*
X66150000Y-55925001D01*
G75*
G02*
X65900001Y-56175000I-249999J0D01*
G01*
X64999999Y-56175000D01*
G75*
G02*
X64750000Y-55925001I0J249999D01*
G01*
X64750000Y-55399999D01*
G75*
G02*
X64999999Y-55150000I249999J0D01*
G01*
G37*
G36*
G01*
X64999999Y-53325000D02*
X65900001Y-53325000D01*
G75*
G02*
X66150000Y-53574999I0J-249999D01*
G01*
X66150000Y-54100001D01*
G75*
G02*
X65900001Y-54350000I-249999J0D01*
G01*
X64999999Y-54350000D01*
G75*
G02*
X64750000Y-54100001I0J249999D01*
G01*
X64750000Y-53574999D01*
G75*
G02*
X64999999Y-53325000I249999J0D01*
G01*
G37*
%TD*%
%TO.C,R201*%
G36*
G01*
X67999999Y-55150000D02*
X68900001Y-55150000D01*
G75*
G02*
X69150000Y-55399999I0J-249999D01*
G01*
X69150000Y-55925001D01*
G75*
G02*
X68900001Y-56175000I-249999J0D01*
G01*
X67999999Y-56175000D01*
G75*
G02*
X67750000Y-55925001I0J249999D01*
G01*
X67750000Y-55399999D01*
G75*
G02*
X67999999Y-55150000I249999J0D01*
G01*
G37*
G36*
G01*
X67999999Y-53325000D02*
X68900001Y-53325000D01*
G75*
G02*
X69150000Y-53574999I0J-249999D01*
G01*
X69150000Y-54100001D01*
G75*
G02*
X68900001Y-54350000I-249999J0D01*
G01*
X67999999Y-54350000D01*
G75*
G02*
X67750000Y-54100001I0J249999D01*
G01*
X67750000Y-53574999D01*
G75*
G02*
X67999999Y-53325000I249999J0D01*
G01*
G37*
%TD*%
%TO.C,C108*%
G36*
G01*
X52481000Y-88793000D02*
X52481000Y-87843000D01*
G75*
G02*
X52731000Y-87593000I250000J0D01*
G01*
X53231000Y-87593000D01*
G75*
G02*
X53481000Y-87843000I0J-250000D01*
G01*
X53481000Y-88793000D01*
G75*
G02*
X53231000Y-89043000I-250000J0D01*
G01*
X52731000Y-89043000D01*
G75*
G02*
X52481000Y-88793000I0J250000D01*
G01*
G37*
G36*
G01*
X50581000Y-88793000D02*
X50581000Y-87843000D01*
G75*
G02*
X50831000Y-87593000I250000J0D01*
G01*
X51331000Y-87593000D01*
G75*
G02*
X51581000Y-87843000I0J-250000D01*
G01*
X51581000Y-88793000D01*
G75*
G02*
X51331000Y-89043000I-250000J0D01*
G01*
X50831000Y-89043000D01*
G75*
G02*
X50581000Y-88793000I0J250000D01*
G01*
G37*
%TD*%
%TO.C,U104*%
G36*
G01*
X77520000Y-104055000D02*
X77420000Y-104055000D01*
G75*
G02*
X77370000Y-104005000I0J50000D01*
G01*
X77370000Y-103555000D01*
G75*
G02*
X77420000Y-103505000I50000J0D01*
G01*
X77520000Y-103505000D01*
G75*
G02*
X77570000Y-103555000I0J-50000D01*
G01*
X77570000Y-104005000D01*
G75*
G02*
X77520000Y-104055000I-50000J0D01*
G01*
G37*
G36*
G01*
X77920000Y-104055000D02*
X77820000Y-104055000D01*
G75*
G02*
X77770000Y-104005000I0J50000D01*
G01*
X77770000Y-103555000D01*
G75*
G02*
X77820000Y-103505000I50000J0D01*
G01*
X77920000Y-103505000D01*
G75*
G02*
X77970000Y-103555000I0J-50000D01*
G01*
X77970000Y-104005000D01*
G75*
G02*
X77920000Y-104055000I-50000J0D01*
G01*
G37*
G36*
G01*
X78320000Y-104055000D02*
X78220000Y-104055000D01*
G75*
G02*
X78170000Y-104005000I0J50000D01*
G01*
X78170000Y-103555000D01*
G75*
G02*
X78220000Y-103505000I50000J0D01*
G01*
X78320000Y-103505000D01*
G75*
G02*
X78370000Y-103555000I0J-50000D01*
G01*
X78370000Y-104005000D01*
G75*
G02*
X78320000Y-104055000I-50000J0D01*
G01*
G37*
G36*
G01*
X78720000Y-104055000D02*
X78620000Y-104055000D01*
G75*
G02*
X78570000Y-104005000I0J50000D01*
G01*
X78570000Y-103555000D01*
G75*
G02*
X78620000Y-103505000I50000J0D01*
G01*
X78720000Y-103505000D01*
G75*
G02*
X78770000Y-103555000I0J-50000D01*
G01*
X78770000Y-104005000D01*
G75*
G02*
X78720000Y-104055000I-50000J0D01*
G01*
G37*
G36*
G01*
X79120000Y-104055000D02*
X79020000Y-104055000D01*
G75*
G02*
X78970000Y-104005000I0J50000D01*
G01*
X78970000Y-103555000D01*
G75*
G02*
X79020000Y-103505000I50000J0D01*
G01*
X79120000Y-103505000D01*
G75*
G02*
X79170000Y-103555000I0J-50000D01*
G01*
X79170000Y-104005000D01*
G75*
G02*
X79120000Y-104055000I-50000J0D01*
G01*
G37*
G36*
G01*
X79520000Y-104055000D02*
X79420000Y-104055000D01*
G75*
G02*
X79370000Y-104005000I0J50000D01*
G01*
X79370000Y-103555000D01*
G75*
G02*
X79420000Y-103505000I50000J0D01*
G01*
X79520000Y-103505000D01*
G75*
G02*
X79570000Y-103555000I0J-50000D01*
G01*
X79570000Y-104005000D01*
G75*
G02*
X79520000Y-104055000I-50000J0D01*
G01*
G37*
G36*
G01*
X79695000Y-104330000D02*
X79695000Y-104230000D01*
G75*
G02*
X79745000Y-104180000I50000J0D01*
G01*
X80195000Y-104180000D01*
G75*
G02*
X80245000Y-104230000I0J-50000D01*
G01*
X80245000Y-104330000D01*
G75*
G02*
X80195000Y-104380000I-50000J0D01*
G01*
X79745000Y-104380000D01*
G75*
G02*
X79695000Y-104330000I0J50000D01*
G01*
G37*
G36*
G01*
X79695000Y-104730000D02*
X79695000Y-104630000D01*
G75*
G02*
X79745000Y-104580000I50000J0D01*
G01*
X80195000Y-104580000D01*
G75*
G02*
X80245000Y-104630000I0J-50000D01*
G01*
X80245000Y-104730000D01*
G75*
G02*
X80195000Y-104780000I-50000J0D01*
G01*
X79745000Y-104780000D01*
G75*
G02*
X79695000Y-104730000I0J50000D01*
G01*
G37*
G36*
G01*
X79695000Y-105130000D02*
X79695000Y-105030000D01*
G75*
G02*
X79745000Y-104980000I50000J0D01*
G01*
X80195000Y-104980000D01*
G75*
G02*
X80245000Y-105030000I0J-50000D01*
G01*
X80245000Y-105130000D01*
G75*
G02*
X80195000Y-105180000I-50000J0D01*
G01*
X79745000Y-105180000D01*
G75*
G02*
X79695000Y-105130000I0J50000D01*
G01*
G37*
G36*
G01*
X79695000Y-105530000D02*
X79695000Y-105430000D01*
G75*
G02*
X79745000Y-105380000I50000J0D01*
G01*
X80195000Y-105380000D01*
G75*
G02*
X80245000Y-105430000I0J-50000D01*
G01*
X80245000Y-105530000D01*
G75*
G02*
X80195000Y-105580000I-50000J0D01*
G01*
X79745000Y-105580000D01*
G75*
G02*
X79695000Y-105530000I0J50000D01*
G01*
G37*
G36*
G01*
X79695000Y-105930000D02*
X79695000Y-105830000D01*
G75*
G02*
X79745000Y-105780000I50000J0D01*
G01*
X80195000Y-105780000D01*
G75*
G02*
X80245000Y-105830000I0J-50000D01*
G01*
X80245000Y-105930000D01*
G75*
G02*
X80195000Y-105980000I-50000J0D01*
G01*
X79745000Y-105980000D01*
G75*
G02*
X79695000Y-105930000I0J50000D01*
G01*
G37*
G36*
G01*
X79695000Y-106330000D02*
X79695000Y-106230000D01*
G75*
G02*
X79745000Y-106180000I50000J0D01*
G01*
X80195000Y-106180000D01*
G75*
G02*
X80245000Y-106230000I0J-50000D01*
G01*
X80245000Y-106330000D01*
G75*
G02*
X80195000Y-106380000I-50000J0D01*
G01*
X79745000Y-106380000D01*
G75*
G02*
X79695000Y-106330000I0J50000D01*
G01*
G37*
G36*
G01*
X79520000Y-107055000D02*
X79420000Y-107055000D01*
G75*
G02*
X79370000Y-107005000I0J50000D01*
G01*
X79370000Y-106555000D01*
G75*
G02*
X79420000Y-106505000I50000J0D01*
G01*
X79520000Y-106505000D01*
G75*
G02*
X79570000Y-106555000I0J-50000D01*
G01*
X79570000Y-107005000D01*
G75*
G02*
X79520000Y-107055000I-50000J0D01*
G01*
G37*
G36*
G01*
X79120000Y-107055000D02*
X79020000Y-107055000D01*
G75*
G02*
X78970000Y-107005000I0J50000D01*
G01*
X78970000Y-106555000D01*
G75*
G02*
X79020000Y-106505000I50000J0D01*
G01*
X79120000Y-106505000D01*
G75*
G02*
X79170000Y-106555000I0J-50000D01*
G01*
X79170000Y-107005000D01*
G75*
G02*
X79120000Y-107055000I-50000J0D01*
G01*
G37*
G36*
G01*
X78720000Y-107055000D02*
X78620000Y-107055000D01*
G75*
G02*
X78570000Y-107005000I0J50000D01*
G01*
X78570000Y-106555000D01*
G75*
G02*
X78620000Y-106505000I50000J0D01*
G01*
X78720000Y-106505000D01*
G75*
G02*
X78770000Y-106555000I0J-50000D01*
G01*
X78770000Y-107005000D01*
G75*
G02*
X78720000Y-107055000I-50000J0D01*
G01*
G37*
G36*
G01*
X78320000Y-107055000D02*
X78220000Y-107055000D01*
G75*
G02*
X78170000Y-107005000I0J50000D01*
G01*
X78170000Y-106555000D01*
G75*
G02*
X78220000Y-106505000I50000J0D01*
G01*
X78320000Y-106505000D01*
G75*
G02*
X78370000Y-106555000I0J-50000D01*
G01*
X78370000Y-107005000D01*
G75*
G02*
X78320000Y-107055000I-50000J0D01*
G01*
G37*
G36*
G01*
X77920000Y-107055000D02*
X77820000Y-107055000D01*
G75*
G02*
X77770000Y-107005000I0J50000D01*
G01*
X77770000Y-106555000D01*
G75*
G02*
X77820000Y-106505000I50000J0D01*
G01*
X77920000Y-106505000D01*
G75*
G02*
X77970000Y-106555000I0J-50000D01*
G01*
X77970000Y-107005000D01*
G75*
G02*
X77920000Y-107055000I-50000J0D01*
G01*
G37*
G36*
G01*
X77520000Y-107055000D02*
X77420000Y-107055000D01*
G75*
G02*
X77370000Y-107005000I0J50000D01*
G01*
X77370000Y-106555000D01*
G75*
G02*
X77420000Y-106505000I50000J0D01*
G01*
X77520000Y-106505000D01*
G75*
G02*
X77570000Y-106555000I0J-50000D01*
G01*
X77570000Y-107005000D01*
G75*
G02*
X77520000Y-107055000I-50000J0D01*
G01*
G37*
G36*
G01*
X76695000Y-106330000D02*
X76695000Y-106230000D01*
G75*
G02*
X76745000Y-106180000I50000J0D01*
G01*
X77195000Y-106180000D01*
G75*
G02*
X77245000Y-106230000I0J-50000D01*
G01*
X77245000Y-106330000D01*
G75*
G02*
X77195000Y-106380000I-50000J0D01*
G01*
X76745000Y-106380000D01*
G75*
G02*
X76695000Y-106330000I0J50000D01*
G01*
G37*
G36*
G01*
X76695000Y-105930000D02*
X76695000Y-105830000D01*
G75*
G02*
X76745000Y-105780000I50000J0D01*
G01*
X77195000Y-105780000D01*
G75*
G02*
X77245000Y-105830000I0J-50000D01*
G01*
X77245000Y-105930000D01*
G75*
G02*
X77195000Y-105980000I-50000J0D01*
G01*
X76745000Y-105980000D01*
G75*
G02*
X76695000Y-105930000I0J50000D01*
G01*
G37*
G36*
G01*
X76695000Y-105530000D02*
X76695000Y-105430000D01*
G75*
G02*
X76745000Y-105380000I50000J0D01*
G01*
X77195000Y-105380000D01*
G75*
G02*
X77245000Y-105430000I0J-50000D01*
G01*
X77245000Y-105530000D01*
G75*
G02*
X77195000Y-105580000I-50000J0D01*
G01*
X76745000Y-105580000D01*
G75*
G02*
X76695000Y-105530000I0J50000D01*
G01*
G37*
G36*
G01*
X76695000Y-105130000D02*
X76695000Y-105030000D01*
G75*
G02*
X76745000Y-104980000I50000J0D01*
G01*
X77195000Y-104980000D01*
G75*
G02*
X77245000Y-105030000I0J-50000D01*
G01*
X77245000Y-105130000D01*
G75*
G02*
X77195000Y-105180000I-50000J0D01*
G01*
X76745000Y-105180000D01*
G75*
G02*
X76695000Y-105130000I0J50000D01*
G01*
G37*
G36*
G01*
X76695000Y-104730000D02*
X76695000Y-104630000D01*
G75*
G02*
X76745000Y-104580000I50000J0D01*
G01*
X77195000Y-104580000D01*
G75*
G02*
X77245000Y-104630000I0J-50000D01*
G01*
X77245000Y-104730000D01*
G75*
G02*
X77195000Y-104780000I-50000J0D01*
G01*
X76745000Y-104780000D01*
G75*
G02*
X76695000Y-104730000I0J50000D01*
G01*
G37*
G36*
G01*
X76695000Y-104330000D02*
X76695000Y-104230000D01*
G75*
G02*
X76745000Y-104180000I50000J0D01*
G01*
X77195000Y-104180000D01*
G75*
G02*
X77245000Y-104230000I0J-50000D01*
G01*
X77245000Y-104330000D01*
G75*
G02*
X77195000Y-104380000I-50000J0D01*
G01*
X76745000Y-104380000D01*
G75*
G02*
X76695000Y-104330000I0J50000D01*
G01*
G37*
%TD*%
D12*
%TO.C,U103*%
X59710000Y-92098000D03*
X59710000Y-90848000D03*
X59710000Y-89598000D03*
X59710000Y-88348000D03*
X57560000Y-90848000D03*
X57560000Y-89598000D03*
X57560000Y-88348000D03*
X57560000Y-92098000D03*
%TD*%
D13*
%TO.C,U102*%
X59200000Y-66207500D03*
X59700000Y-66207500D03*
X59700000Y-67732500D03*
X59200000Y-67732500D03*
D14*
X60212500Y-66220000D03*
X58687500Y-66220000D03*
X60212500Y-67720000D03*
X58687500Y-67720000D03*
X60212500Y-67220000D03*
X60212500Y-66720000D03*
X58687500Y-67220000D03*
X58687500Y-66720000D03*
%TD*%
D15*
%TO.C,U101*%
X61485000Y-112035000D03*
X61055000Y-112035000D03*
X60625000Y-112035000D03*
X60195000Y-112035000D03*
X59765000Y-112035000D03*
X59335000Y-112035000D03*
X58905000Y-112035000D03*
X58475000Y-112035000D03*
X61485000Y-109585000D03*
X61055000Y-109585000D03*
X60625000Y-109585000D03*
X60195000Y-109585000D03*
X59765000Y-109585000D03*
X59335000Y-109585000D03*
X58905000Y-109585000D03*
D16*
X61455000Y-111455000D03*
X58505000Y-111455000D03*
X61455000Y-111025000D03*
X58505000Y-111025000D03*
X61455000Y-110595000D03*
X58505000Y-110595000D03*
X61455000Y-110165000D03*
X58505000Y-110165000D03*
D15*
X58475000Y-109585000D03*
%TD*%
%TO.C,R9004*%
G36*
G01*
X62248999Y-151138500D02*
X63149001Y-151138500D01*
G75*
G02*
X63399000Y-151388499I0J-249999D01*
G01*
X63399000Y-152088501D01*
G75*
G02*
X63149001Y-152338500I-249999J0D01*
G01*
X62248999Y-152338500D01*
G75*
G02*
X61999000Y-152088501I0J249999D01*
G01*
X61999000Y-151388499D01*
G75*
G02*
X62248999Y-151138500I249999J0D01*
G01*
G37*
G36*
G01*
X62248999Y-149138500D02*
X63149001Y-149138500D01*
G75*
G02*
X63399000Y-149388499I0J-249999D01*
G01*
X63399000Y-150088501D01*
G75*
G02*
X63149001Y-150338500I-249999J0D01*
G01*
X62248999Y-150338500D01*
G75*
G02*
X61999000Y-150088501I0J249999D01*
G01*
X61999000Y-149388499D01*
G75*
G02*
X62248999Y-149138500I249999J0D01*
G01*
G37*
%TD*%
%TO.C,R9003*%
G36*
G01*
X59708999Y-151138500D02*
X60609001Y-151138500D01*
G75*
G02*
X60859000Y-151388499I0J-249999D01*
G01*
X60859000Y-152088501D01*
G75*
G02*
X60609001Y-152338500I-249999J0D01*
G01*
X59708999Y-152338500D01*
G75*
G02*
X59459000Y-152088501I0J249999D01*
G01*
X59459000Y-151388499D01*
G75*
G02*
X59708999Y-151138500I249999J0D01*
G01*
G37*
G36*
G01*
X59708999Y-149138500D02*
X60609001Y-149138500D01*
G75*
G02*
X60859000Y-149388499I0J-249999D01*
G01*
X60859000Y-150088501D01*
G75*
G02*
X60609001Y-150338500I-249999J0D01*
G01*
X59708999Y-150338500D01*
G75*
G02*
X59459000Y-150088501I0J249999D01*
G01*
X59459000Y-149388499D01*
G75*
G02*
X59708999Y-149138500I249999J0D01*
G01*
G37*
%TD*%
%TO.C,R9002*%
G36*
G01*
X57168999Y-151138500D02*
X58069001Y-151138500D01*
G75*
G02*
X58319000Y-151388499I0J-249999D01*
G01*
X58319000Y-152088501D01*
G75*
G02*
X58069001Y-152338500I-249999J0D01*
G01*
X57168999Y-152338500D01*
G75*
G02*
X56919000Y-152088501I0J249999D01*
G01*
X56919000Y-151388499D01*
G75*
G02*
X57168999Y-151138500I249999J0D01*
G01*
G37*
G36*
G01*
X57168999Y-149138500D02*
X58069001Y-149138500D01*
G75*
G02*
X58319000Y-149388499I0J-249999D01*
G01*
X58319000Y-150088501D01*
G75*
G02*
X58069001Y-150338500I-249999J0D01*
G01*
X57168999Y-150338500D01*
G75*
G02*
X56919000Y-150088501I0J249999D01*
G01*
X56919000Y-149388499D01*
G75*
G02*
X57168999Y-149138500I249999J0D01*
G01*
G37*
%TD*%
%TO.C,R9001*%
G36*
G01*
X54628999Y-151138500D02*
X55529001Y-151138500D01*
G75*
G02*
X55779000Y-151388499I0J-249999D01*
G01*
X55779000Y-152088501D01*
G75*
G02*
X55529001Y-152338500I-249999J0D01*
G01*
X54628999Y-152338500D01*
G75*
G02*
X54379000Y-152088501I0J249999D01*
G01*
X54379000Y-151388499D01*
G75*
G02*
X54628999Y-151138500I249999J0D01*
G01*
G37*
G36*
G01*
X54628999Y-149138500D02*
X55529001Y-149138500D01*
G75*
G02*
X55779000Y-149388499I0J-249999D01*
G01*
X55779000Y-150088501D01*
G75*
G02*
X55529001Y-150338500I-249999J0D01*
G01*
X54628999Y-150338500D01*
G75*
G02*
X54379000Y-150088501I0J249999D01*
G01*
X54379000Y-149388499D01*
G75*
G02*
X54628999Y-149138500I249999J0D01*
G01*
G37*
%TD*%
D17*
%TO.C,J106*%
X97625000Y-178285000D03*
X97625000Y-165735000D03*
D18*
X95330000Y-167635000D03*
X95330000Y-168885000D03*
X95330000Y-170135000D03*
X95330000Y-171385000D03*
X95330000Y-172635000D03*
X95330000Y-173885000D03*
X95330000Y-175135000D03*
X95330000Y-176385000D03*
%TD*%
D17*
%TO.C,J105*%
X97625000Y-162245000D03*
X97625000Y-149695000D03*
D18*
X95330000Y-151595000D03*
X95330000Y-152845000D03*
X95330000Y-154095000D03*
X95330000Y-155345000D03*
X95330000Y-156595000D03*
X95330000Y-157845000D03*
X95330000Y-159095000D03*
X95330000Y-160345000D03*
%TD*%
D17*
%TO.C,J102*%
X33935000Y-165735000D03*
X33935000Y-178285000D03*
D18*
X36230000Y-176385000D03*
X36230000Y-175135000D03*
X36230000Y-173885000D03*
X36230000Y-172635000D03*
X36230000Y-171385000D03*
X36230000Y-170135000D03*
X36230000Y-168885000D03*
X36230000Y-167635000D03*
%TD*%
D17*
%TO.C,J101*%
X33935000Y-149695000D03*
X33935000Y-162245000D03*
D18*
X36230000Y-160345000D03*
X36230000Y-159095000D03*
X36230000Y-157845000D03*
X36230000Y-156595000D03*
X36230000Y-155345000D03*
X36230000Y-154095000D03*
X36230000Y-152845000D03*
X36230000Y-151595000D03*
%TD*%
%TO.C,D9004*%
G36*
G01*
X63149001Y-154797000D02*
X62248999Y-154797000D01*
G75*
G02*
X61999000Y-154547001I0J249999D01*
G01*
X61999000Y-153896999D01*
G75*
G02*
X62248999Y-153647000I249999J0D01*
G01*
X63149001Y-153647000D01*
G75*
G02*
X63399000Y-153896999I0J-249999D01*
G01*
X63399000Y-154547001D01*
G75*
G02*
X63149001Y-154797000I-249999J0D01*
G01*
G37*
G36*
G01*
X63149001Y-156847000D02*
X62248999Y-156847000D01*
G75*
G02*
X61999000Y-156597001I0J249999D01*
G01*
X61999000Y-155946999D01*
G75*
G02*
X62248999Y-155697000I249999J0D01*
G01*
X63149001Y-155697000D01*
G75*
G02*
X63399000Y-155946999I0J-249999D01*
G01*
X63399000Y-156597001D01*
G75*
G02*
X63149001Y-156847000I-249999J0D01*
G01*
G37*
%TD*%
%TO.C,D9003*%
G36*
G01*
X60609001Y-154797000D02*
X59708999Y-154797000D01*
G75*
G02*
X59459000Y-154547001I0J249999D01*
G01*
X59459000Y-153896999D01*
G75*
G02*
X59708999Y-153647000I249999J0D01*
G01*
X60609001Y-153647000D01*
G75*
G02*
X60859000Y-153896999I0J-249999D01*
G01*
X60859000Y-154547001D01*
G75*
G02*
X60609001Y-154797000I-249999J0D01*
G01*
G37*
G36*
G01*
X60609001Y-156847000D02*
X59708999Y-156847000D01*
G75*
G02*
X59459000Y-156597001I0J249999D01*
G01*
X59459000Y-155946999D01*
G75*
G02*
X59708999Y-155697000I249999J0D01*
G01*
X60609001Y-155697000D01*
G75*
G02*
X60859000Y-155946999I0J-249999D01*
G01*
X60859000Y-156597001D01*
G75*
G02*
X60609001Y-156847000I-249999J0D01*
G01*
G37*
%TD*%
%TO.C,D9002*%
G36*
G01*
X58069001Y-154797000D02*
X57168999Y-154797000D01*
G75*
G02*
X56919000Y-154547001I0J249999D01*
G01*
X56919000Y-153896999D01*
G75*
G02*
X57168999Y-153647000I249999J0D01*
G01*
X58069001Y-153647000D01*
G75*
G02*
X58319000Y-153896999I0J-249999D01*
G01*
X58319000Y-154547001D01*
G75*
G02*
X58069001Y-154797000I-249999J0D01*
G01*
G37*
G36*
G01*
X58069001Y-156847000D02*
X57168999Y-156847000D01*
G75*
G02*
X56919000Y-156597001I0J249999D01*
G01*
X56919000Y-155946999D01*
G75*
G02*
X57168999Y-155697000I249999J0D01*
G01*
X58069001Y-155697000D01*
G75*
G02*
X58319000Y-155946999I0J-249999D01*
G01*
X58319000Y-156597001D01*
G75*
G02*
X58069001Y-156847000I-249999J0D01*
G01*
G37*
%TD*%
%TO.C,D9001*%
G36*
G01*
X55529001Y-154797000D02*
X54628999Y-154797000D01*
G75*
G02*
X54379000Y-154547001I0J249999D01*
G01*
X54379000Y-153896999D01*
G75*
G02*
X54628999Y-153647000I249999J0D01*
G01*
X55529001Y-153647000D01*
G75*
G02*
X55779000Y-153896999I0J-249999D01*
G01*
X55779000Y-154547001D01*
G75*
G02*
X55529001Y-154797000I-249999J0D01*
G01*
G37*
G36*
G01*
X55529001Y-156847000D02*
X54628999Y-156847000D01*
G75*
G02*
X54379000Y-156597001I0J249999D01*
G01*
X54379000Y-155946999D01*
G75*
G02*
X54628999Y-155697000I249999J0D01*
G01*
X55529001Y-155697000D01*
G75*
G02*
X55779000Y-155946999I0J-249999D01*
G01*
X55779000Y-156597001D01*
G75*
G02*
X55529001Y-156847000I-249999J0D01*
G01*
G37*
%TD*%
%TO.C,C110*%
G36*
G01*
X83675000Y-111350000D02*
X82725000Y-111350000D01*
G75*
G02*
X82475000Y-111100000I0J250000D01*
G01*
X82475000Y-110600000D01*
G75*
G02*
X82725000Y-110350000I250000J0D01*
G01*
X83675000Y-110350000D01*
G75*
G02*
X83925000Y-110600000I0J-250000D01*
G01*
X83925000Y-111100000D01*
G75*
G02*
X83675000Y-111350000I-250000J0D01*
G01*
G37*
G36*
G01*
X83675000Y-113250000D02*
X82725000Y-113250000D01*
G75*
G02*
X82475000Y-113000000I0J250000D01*
G01*
X82475000Y-112500000D01*
G75*
G02*
X82725000Y-112250000I250000J0D01*
G01*
X83675000Y-112250000D01*
G75*
G02*
X83925000Y-112500000I0J-250000D01*
G01*
X83925000Y-113000000D01*
G75*
G02*
X83675000Y-113250000I-250000J0D01*
G01*
G37*
%TD*%
%TO.C,C109*%
G36*
G01*
X78025000Y-112250000D02*
X78975000Y-112250000D01*
G75*
G02*
X79225000Y-112500000I0J-250000D01*
G01*
X79225000Y-113000000D01*
G75*
G02*
X78975000Y-113250000I-250000J0D01*
G01*
X78025000Y-113250000D01*
G75*
G02*
X77775000Y-113000000I0J250000D01*
G01*
X77775000Y-112500000D01*
G75*
G02*
X78025000Y-112250000I250000J0D01*
G01*
G37*
G36*
G01*
X78025000Y-110350000D02*
X78975000Y-110350000D01*
G75*
G02*
X79225000Y-110600000I0J-250000D01*
G01*
X79225000Y-111100000D01*
G75*
G02*
X78975000Y-111350000I-250000J0D01*
G01*
X78025000Y-111350000D01*
G75*
G02*
X77775000Y-111100000I0J250000D01*
G01*
X77775000Y-110600000D01*
G75*
G02*
X78025000Y-110350000I250000J0D01*
G01*
G37*
%TD*%
%TO.C,C105*%
G36*
G01*
X56975000Y-116850000D02*
X57925000Y-116850000D01*
G75*
G02*
X58175000Y-117100000I0J-250000D01*
G01*
X58175000Y-117600000D01*
G75*
G02*
X57925000Y-117850000I-250000J0D01*
G01*
X56975000Y-117850000D01*
G75*
G02*
X56725000Y-117600000I0J250000D01*
G01*
X56725000Y-117100000D01*
G75*
G02*
X56975000Y-116850000I250000J0D01*
G01*
G37*
G36*
G01*
X56975000Y-114950000D02*
X57925000Y-114950000D01*
G75*
G02*
X58175000Y-115200000I0J-250000D01*
G01*
X58175000Y-115700000D01*
G75*
G02*
X57925000Y-115950000I-250000J0D01*
G01*
X56975000Y-115950000D01*
G75*
G02*
X56725000Y-115700000I0J250000D01*
G01*
X56725000Y-115200000D01*
G75*
G02*
X56975000Y-114950000I250000J0D01*
G01*
G37*
%TD*%
%TO.C,C104*%
G36*
G01*
X54495000Y-116880000D02*
X55445000Y-116880000D01*
G75*
G02*
X55695000Y-117130000I0J-250000D01*
G01*
X55695000Y-117630000D01*
G75*
G02*
X55445000Y-117880000I-250000J0D01*
G01*
X54495000Y-117880000D01*
G75*
G02*
X54245000Y-117630000I0J250000D01*
G01*
X54245000Y-117130000D01*
G75*
G02*
X54495000Y-116880000I250000J0D01*
G01*
G37*
G36*
G01*
X54495000Y-114980000D02*
X55445000Y-114980000D01*
G75*
G02*
X55695000Y-115230000I0J-250000D01*
G01*
X55695000Y-115730000D01*
G75*
G02*
X55445000Y-115980000I-250000J0D01*
G01*
X54495000Y-115980000D01*
G75*
G02*
X54245000Y-115730000I0J250000D01*
G01*
X54245000Y-115230000D01*
G75*
G02*
X54495000Y-114980000I250000J0D01*
G01*
G37*
%TD*%
%TO.C,C103*%
G36*
G01*
X51815000Y-114560000D02*
X52765000Y-114560000D01*
G75*
G02*
X53015000Y-114810000I0J-250000D01*
G01*
X53015000Y-115310000D01*
G75*
G02*
X52765000Y-115560000I-250000J0D01*
G01*
X51815000Y-115560000D01*
G75*
G02*
X51565000Y-115310000I0J250000D01*
G01*
X51565000Y-114810000D01*
G75*
G02*
X51815000Y-114560000I250000J0D01*
G01*
G37*
G36*
G01*
X51815000Y-112660000D02*
X52765000Y-112660000D01*
G75*
G02*
X53015000Y-112910000I0J-250000D01*
G01*
X53015000Y-113410000D01*
G75*
G02*
X52765000Y-113660000I-250000J0D01*
G01*
X51815000Y-113660000D01*
G75*
G02*
X51565000Y-113410000I0J250000D01*
G01*
X51565000Y-112910000D01*
G75*
G02*
X51815000Y-112660000I250000J0D01*
G01*
G37*
%TD*%
%TO.C,C102*%
G36*
G01*
X56975000Y-103460000D02*
X56025000Y-103460000D01*
G75*
G02*
X55775000Y-103210000I0J250000D01*
G01*
X55775000Y-102710000D01*
G75*
G02*
X56025000Y-102460000I250000J0D01*
G01*
X56975000Y-102460000D01*
G75*
G02*
X57225000Y-102710000I0J-250000D01*
G01*
X57225000Y-103210000D01*
G75*
G02*
X56975000Y-103460000I-250000J0D01*
G01*
G37*
G36*
G01*
X56975000Y-105360000D02*
X56025000Y-105360000D01*
G75*
G02*
X55775000Y-105110000I0J250000D01*
G01*
X55775000Y-104610000D01*
G75*
G02*
X56025000Y-104360000I250000J0D01*
G01*
X56975000Y-104360000D01*
G75*
G02*
X57225000Y-104610000I0J-250000D01*
G01*
X57225000Y-105110000D01*
G75*
G02*
X56975000Y-105360000I-250000J0D01*
G01*
G37*
%TD*%
%TO.C,C101*%
G36*
G01*
X61795000Y-103410000D02*
X60845000Y-103410000D01*
G75*
G02*
X60595000Y-103160000I0J250000D01*
G01*
X60595000Y-102660000D01*
G75*
G02*
X60845000Y-102410000I250000J0D01*
G01*
X61795000Y-102410000D01*
G75*
G02*
X62045000Y-102660000I0J-250000D01*
G01*
X62045000Y-103160000D01*
G75*
G02*
X61795000Y-103410000I-250000J0D01*
G01*
G37*
G36*
G01*
X61795000Y-105310000D02*
X60845000Y-105310000D01*
G75*
G02*
X60595000Y-105060000I0J250000D01*
G01*
X60595000Y-104560000D01*
G75*
G02*
X60845000Y-104310000I250000J0D01*
G01*
X61795000Y-104310000D01*
G75*
G02*
X62045000Y-104560000I0J-250000D01*
G01*
X62045000Y-105060000D01*
G75*
G02*
X61795000Y-105310000I-250000J0D01*
G01*
G37*
%TD*%
M02*
