M48
; DRILL file {KiCad 5.1.10} date Fri Oct  8 11:53:09 2021
; FORMAT={-:-/ absolute / inch / decimal}
; #@! TF.CreationDate,2021-10-08T11:53:09-05:00
; #@! TF.GenerationSoftware,Kicad,Pcbnew,5.1.10
; #@! TF.FileFunction,Plated,1,2,PTH
FMAT,2
INCH
T1C0.0130
T2C0.0157
T3C0.0197
T4C0.0394
T5C0.0400
T6C0.0433
T7C0.1260
%
G90
G05
T1
X1.3492Y-4.7079
X1.5685Y-6.1421
X1.5906Y-2.1614
X1.6035Y-6.4071
X1.6035Y-6.4671
X1.6535Y-6.4371
X1.6685Y-6.0421
X1.6935Y-5.3771
X1.6935Y-5.4371
X1.7435Y-5.4071
X1.7685Y-6.7721
X1.8189Y-5.935
X1.8189Y-6.4665
X1.8635Y-4.4771
X1.8635Y-4.5371
X1.8685Y-6.8221
X1.9135Y-4.5071
X1.9185Y-6.5771
X1.9616Y-5.2707
X1.9665Y-2.2371
X1.9665Y-4.1299
X1.9665Y-5.1772
X1.9685Y-6.6771
X1.976Y-4.2771
X2.0185Y-6.6271
X2.036Y-4.1496
X2.065Y-2.4705
X2.0685Y-6.7221
X2.0935Y-6.0171
X2.0935Y-6.0671
X2.0935Y-6.1171
X2.0935Y-6.1621
X2.124Y-5.7972
X2.1339Y-3.6614
X2.1693Y-3.0433
X2.1732Y-2.6476
X2.1831Y-4.2717
X2.2323Y-2.7067
X2.2335Y-4.4165
X2.2913Y-2.7165
X2.2935Y-3.3171
X2.2935Y-3.3771
X2.3035Y-2.9671
X2.3035Y-3.0271
X2.3435Y-3.3471
X2.3535Y-2.9971
X2.3535Y-4.7671
X2.3535Y-4.8271
X2.4035Y-4.7971
X2.4193Y-4.9114
X2.439Y-3.3661
X2.4488Y-4.5079
X2.4488Y-6.5354
X2.4661Y-5.587
X2.4685Y-5.5378
X2.4791Y-5.248
X2.4823Y-3.6772
X2.4882Y-4.5374
X2.498Y-4.4783
X2.5079Y-4.1634
X2.5177Y-3.4252
X2.5374Y-2.6181
X2.5472Y-3.9469
X2.5571Y-4.439
X2.5571Y-4.5894
X2.5635Y-5.9071
X2.5635Y-5.9671
X2.5669Y-4.7835
X2.5669Y-4.9902
X2.5756Y-3.5268
X2.5756Y-5.5886
X2.5764Y-5.5394
X2.5768Y-2.2835
X2.5866Y-3.6024
X2.5866Y-4.4783
X2.6135Y-5.9371
X2.6181Y-4.3031
X2.6431Y-6.0667
X2.6435Y-6.0161
X2.6435Y-6.1161
X2.6435Y-6.1641
X2.6563Y-5.2063
X2.6654Y-2.8937
X2.6654Y-3.4055
X2.6654Y-4.4587
X2.6665Y-5.3413
X2.7157Y-5.5917
X2.7165Y-5.5417
X2.7185Y-2.5374
X2.7185Y-3.528
X2.7185Y-3.9902
X2.7185Y-4.8366
X2.7638Y-4.2126
X2.7735Y-4.6171
X2.7735Y-4.6771
X2.8235Y-4.6471
X2.8406Y-5.5425
X2.8413Y-5.5917
X2.9047Y-5.7705
X2.9135Y-4.6171
X2.9135Y-4.6771
X2.9213Y-5.187
X2.9635Y-4.6471
X2.9902Y-6.9783
X3.0035Y-4.8971
X3.0035Y-4.9571
X3.0535Y-4.9271
X3.0689Y-5.935
X3.1144Y-6.0667
X3.1181Y-4.3012
X3.1378Y-4.5472
X3.1549Y-4.8746
X3.161Y-4.3021
X3.1635Y-4.4296
X3.1685Y-5.841
X3.1685Y-5.9921
X3.2165Y-6.9783
X3.2461Y-4.7835
X3.2657Y-3.3957
X3.2657Y-3.4843
X3.2685Y-6.0921
X3.2756Y-5.5118
X3.4035Y-4.5472
X3.4626Y-5.5512
X3.5835Y-6.4071
X3.5835Y-6.4671
X3.6335Y-6.4371
T2
X1.3614Y-1.6539
X1.3614Y-1.8902
X1.4232Y-1.7343
X1.4232Y-1.813
X3.7528Y-1.7323
X3.7528Y-1.811
X3.8146Y-1.6551
X3.8146Y-1.8913
T3
X1.5177Y-1.185
X1.5177Y-7.185
X1.5454Y-1.1182
X1.5454Y-1.2519
X1.5454Y-7.1182
X1.5454Y-7.2519
X1.6122Y-1.0906
X1.6122Y-1.2795
X1.6122Y-7.0906
X1.6122Y-7.2795
X1.679Y-1.1182
X1.679Y-1.2519
X1.679Y-7.1182
X1.679Y-7.2519
X1.7067Y-1.185
X1.7067Y-7.185
X3.4803Y-1.185
X3.4803Y-7.183
X3.508Y-1.1182
X3.508Y-1.2519
X3.508Y-7.1162
X3.508Y-7.2499
X3.5748Y-1.0906
X3.5748Y-1.2795
X3.5748Y-7.0886
X3.5748Y-7.2775
X3.6416Y-1.1182
X3.6416Y-1.2519
X3.6416Y-7.1162
X3.6416Y-7.2499
X3.6693Y-1.185
X3.6693Y-7.183
T4
X1.4039Y-3.728
X1.4039Y-3.828
X1.4039Y-3.928
X1.4039Y-4.028
X1.4039Y-4.128
X1.4039Y-4.228
X1.4039Y-4.328
X1.4039Y-4.428
X1.6825Y-3.9291
X1.6825Y-4.0291
X1.6825Y-4.1291
X1.6825Y-4.2291
X1.6825Y-4.3291
X1.6825Y-4.4291
X2.9114Y-3.622
X3.0114Y-3.622
X3.1114Y-3.622
X3.2114Y-3.622
X3.3114Y-3.622
X3.4114Y-3.622
X3.5114Y-3.622
X3.6114Y-3.622
T5
X2.8485Y-2.2896
X2.8485Y-2.3896
X2.8485Y-2.4896
X2.8485Y-2.5896
X2.8485Y-2.6896
X2.8485Y-2.7896
X2.8485Y-2.8896
X2.8485Y-2.9896
X3.7485Y-2.4896
X3.7485Y-2.5896
X3.7485Y-2.6896
X3.7485Y-2.7896
T6
X1.4685Y-5.0882
X1.4685Y-5.6882
X1.5685Y-5.0882
X1.5685Y-5.6882
X1.6685Y-5.0882
X1.6685Y-5.6882
X1.7685Y-5.0882
X1.7685Y-5.6882
X1.8685Y-5.0882
X1.8685Y-5.6882
X1.8685Y-7.1382
X1.9685Y-5.0882
X1.9685Y-5.6882
X1.9685Y-7.1382
X2.0685Y-5.0882
X2.0685Y-5.6882
X2.0685Y-7.1382
X2.1685Y-5.0882
X2.1685Y-5.6882
X2.2685Y-5.0882
X2.2685Y-5.6882
X2.3685Y-5.0882
X2.3685Y-5.6882
X2.4685Y-5.0882
X2.4685Y-5.6882
X2.5185Y-7.1382
X2.5685Y-5.0882
X2.5685Y-5.6882
X2.6185Y-7.1382
X2.6685Y-5.0882
X2.6685Y-5.6882
X2.7185Y-7.1382
X2.7685Y-5.0882
X2.7685Y-5.6882
X2.8685Y-5.0882
X2.8685Y-5.6882
X2.9685Y-5.0882
X2.9685Y-5.6882
X3.0685Y-5.0882
X3.0685Y-5.6882
X3.1185Y-7.1382
X3.1685Y-5.0882
X3.1685Y-5.6882
X3.2185Y-7.1382
X3.2685Y-5.0882
X3.2685Y-5.6882
X3.3185Y-7.1382
X3.3685Y-5.0882
X3.3685Y-5.6882
X3.4685Y-5.0882
X3.4685Y-5.6882
X3.5685Y-5.0882
X3.5685Y-5.6882
X3.6685Y-5.0882
X3.6685Y-5.6882
X3.7685Y-5.0882
X3.7685Y-5.6882
T7
X1.6122Y-1.187
X1.6122Y-7.187
X3.5748Y-1.187
X3.5748Y-7.185
T0
M30
