%TF.GenerationSoftware,KiCad,Pcbnew,6.0.5*%
%TF.CreationDate,2022-05-19T12:05:38-04:00*%
%TF.ProjectId,Blackbox,426c6163-6b62-46f7-982e-6b696361645f,rev?*%
%TF.SameCoordinates,Original*%
%TF.FileFunction,Soldermask,Bot*%
%TF.FilePolarity,Negative*%
%FSLAX46Y46*%
G04 Gerber Fmt 4.6, Leading zero omitted, Abs format (unit mm)*
G04 Created by KiCad (PCBNEW 6.0.5) date 2022-05-19 12:05:38*
%MOMM*%
%LPD*%
G01*
G04 APERTURE LIST*
G04 Aperture macros list*
%AMRoundRect*
0 Rectangle with rounded corners*
0 $1 Rounding radius*
0 $2 $3 $4 $5 $6 $7 $8 $9 X,Y pos of 4 corners*
0 Add a 4 corners polygon primitive as box body*
4,1,4,$2,$3,$4,$5,$6,$7,$8,$9,$2,$3,0*
0 Add four circle primitives for the rounded corners*
1,1,$1+$1,$2,$3*
1,1,$1+$1,$4,$5*
1,1,$1+$1,$6,$7*
1,1,$1+$1,$8,$9*
0 Add four rect primitives between the rounded corners*
20,1,$1+$1,$2,$3,$4,$5,0*
20,1,$1+$1,$4,$5,$6,$7,0*
20,1,$1+$1,$6,$7,$8,$9,0*
20,1,$1+$1,$8,$9,$2,$3,0*%
%AMFreePoly0*
4,1,22,0.500000,-0.750000,0.000000,-0.750000,0.000000,-0.745033,-0.079941,-0.743568,-0.215256,-0.701293,-0.333266,-0.622738,-0.424486,-0.514219,-0.481581,-0.384460,-0.499164,-0.250000,-0.500000,-0.250000,-0.500000,0.250000,-0.499164,0.250000,-0.499963,0.256109,-0.478152,0.396186,-0.417904,0.524511,-0.324060,0.630769,-0.204165,0.706417,-0.067858,0.745374,0.000000,0.744959,0.000000,0.750000,
0.500000,0.750000,0.500000,-0.750000,0.500000,-0.750000,$1*%
%AMFreePoly1*
4,1,20,0.000000,0.744959,0.073905,0.744508,0.209726,0.703889,0.328688,0.626782,0.421226,0.519385,0.479903,0.390333,0.500000,0.250000,0.500000,-0.250000,0.499851,-0.262216,0.476331,-0.402017,0.414519,-0.529596,0.319384,-0.634700,0.198574,-0.708877,0.061801,-0.746166,0.000000,-0.745033,0.000000,-0.750000,-0.500000,-0.750000,-0.500000,0.750000,0.000000,0.750000,0.000000,0.744959,
0.000000,0.744959,$1*%
G04 Aperture macros list end*
%ADD10R,1.700000X1.700000*%
%ADD11O,1.700000X1.700000*%
%ADD12RoundRect,0.250000X0.350000X0.625000X-0.350000X0.625000X-0.350000X-0.625000X0.350000X-0.625000X0*%
%ADD13O,1.200000X1.750000*%
%ADD14RoundRect,0.250000X0.475000X-0.250000X0.475000X0.250000X-0.475000X0.250000X-0.475000X-0.250000X0*%
%ADD15RoundRect,0.250000X-0.475000X0.250000X-0.475000X-0.250000X0.475000X-0.250000X0.475000X0.250000X0*%
%ADD16RoundRect,0.250000X-0.250000X-0.475000X0.250000X-0.475000X0.250000X0.475000X-0.250000X0.475000X0*%
%ADD17RoundRect,0.250000X0.250000X0.475000X-0.250000X0.475000X-0.250000X-0.475000X0.250000X-0.475000X0*%
%ADD18RoundRect,0.250000X0.450000X-0.262500X0.450000X0.262500X-0.450000X0.262500X-0.450000X-0.262500X0*%
%ADD19FreePoly0,90.000000*%
%ADD20FreePoly1,90.000000*%
%ADD21FreePoly0,180.000000*%
%ADD22FreePoly1,180.000000*%
%ADD23RoundRect,0.087500X0.087500X-0.187500X0.087500X0.187500X-0.087500X0.187500X-0.087500X-0.187500X0*%
%ADD24RoundRect,0.087500X0.187500X-0.087500X0.187500X0.087500X-0.187500X0.087500X-0.187500X-0.087500X0*%
%ADD25RoundRect,0.150000X0.512500X0.150000X-0.512500X0.150000X-0.512500X-0.150000X0.512500X-0.150000X0*%
%ADD26R,0.550000X0.950000*%
%ADD27R,0.230000X0.350000*%
%ADD28R,0.350000X0.230000*%
G04 APERTURE END LIST*
D10*
%TO.C,J2*%
X157322600Y-97002600D03*
D11*
X159862600Y-97002600D03*
X162402600Y-97002600D03*
X164942600Y-97002600D03*
X167482600Y-97002600D03*
X170022600Y-97002600D03*
X172562600Y-97002600D03*
X175102600Y-97002600D03*
X177642600Y-97002600D03*
X180182600Y-97002600D03*
X182722600Y-97002600D03*
X185262600Y-97002600D03*
%TD*%
D12*
%TO.C,BT1*%
X151120000Y-96510000D03*
D13*
X149120000Y-96510000D03*
%TD*%
D10*
%TO.C,J1*%
X185925000Y-116425000D03*
D11*
X183385000Y-116425000D03*
X180845000Y-116425000D03*
X178305000Y-116425000D03*
X175765000Y-116425000D03*
X173225000Y-116425000D03*
X170685000Y-116425000D03*
X168145000Y-116425000D03*
X165605000Y-116425000D03*
X163065000Y-116425000D03*
X160525000Y-116425000D03*
X157985000Y-116425000D03*
X155445000Y-116425000D03*
X152905000Y-116425000D03*
X150365000Y-116425000D03*
X147825000Y-116425000D03*
%TD*%
D14*
%TO.C,C122*%
X157770000Y-100830000D03*
X157770000Y-98930000D03*
%TD*%
%TO.C,C124*%
X141800000Y-106175000D03*
X141800000Y-104275000D03*
%TD*%
%TO.C,C107*%
X146400000Y-101400000D03*
X146400000Y-99500000D03*
%TD*%
%TO.C,C106*%
X149400000Y-101025000D03*
X149400000Y-99125000D03*
%TD*%
D15*
%TO.C,C103*%
X179800000Y-104350000D03*
X179800000Y-106250000D03*
%TD*%
D16*
%TO.C,C105*%
X151196000Y-100584000D03*
X153096000Y-100584000D03*
%TD*%
D17*
%TO.C,C125*%
X144825000Y-112850000D03*
X142925000Y-112850000D03*
%TD*%
D18*
%TO.C,R101*%
X148100000Y-113312500D03*
X148100000Y-111487500D03*
%TD*%
D15*
%TO.C,C104*%
X152475000Y-106000000D03*
X152475000Y-107900000D03*
%TD*%
D19*
%TO.C,JP3*%
X153725000Y-97600000D03*
D20*
X153725000Y-96300000D03*
%TD*%
D21*
%TO.C,JP1*%
X171050000Y-98925000D03*
D22*
X169750000Y-98925000D03*
%TD*%
D19*
%TO.C,JP2*%
X176800000Y-109250000D03*
D20*
X176800000Y-107950000D03*
%TD*%
D23*
%TO.C,U1*%
X180578000Y-101301000D03*
X180078000Y-101301000D03*
X179578000Y-101301000D03*
X179078000Y-101301000D03*
X178578000Y-101301000D03*
D24*
X178353000Y-100576000D03*
X178353000Y-100076000D03*
X178353000Y-99576000D03*
D23*
X178578000Y-98851000D03*
X179078000Y-98851000D03*
X179578000Y-98851000D03*
X180078000Y-98851000D03*
X180578000Y-98851000D03*
D24*
X180803000Y-99576000D03*
X180803000Y-100076000D03*
X180803000Y-100576000D03*
%TD*%
D14*
%TO.C,C123*%
X146550000Y-109200000D03*
X146550000Y-107300000D03*
%TD*%
D16*
%TO.C,C101*%
X159898000Y-99060000D03*
X161798000Y-99060000D03*
%TD*%
D15*
%TO.C,C102*%
X177370000Y-104140000D03*
X177370000Y-106040000D03*
%TD*%
D25*
%TO.C,U5*%
X144287500Y-108900000D03*
X144287500Y-109850000D03*
X144287500Y-110800000D03*
X142012500Y-110800000D03*
X142012500Y-108900000D03*
%TD*%
D26*
%TO.C,U4*%
X163571000Y-100076500D03*
X164821000Y-100076500D03*
X166071000Y-100076500D03*
X167321000Y-100076500D03*
X167321000Y-102226500D03*
X166071000Y-102226500D03*
X164821000Y-102226500D03*
X163571000Y-102226500D03*
%TD*%
D27*
%TO.C,U2*%
X149647500Y-103182500D03*
D28*
X149617500Y-103762500D03*
X149617500Y-104192500D03*
X149617500Y-104622500D03*
X149617500Y-105052500D03*
D27*
X149647500Y-105632500D03*
X149217500Y-105632500D03*
X148787500Y-105632500D03*
X148357500Y-105632500D03*
X147927500Y-105632500D03*
X147497500Y-105632500D03*
X147067500Y-105632500D03*
X146637500Y-105632500D03*
D28*
X146667500Y-105052500D03*
X146667500Y-104622500D03*
X146667500Y-104192500D03*
X146667500Y-103762500D03*
D27*
X146637500Y-103182500D03*
X147067500Y-103182500D03*
X147497500Y-103182500D03*
X147927500Y-103182500D03*
X148357500Y-103182500D03*
X148787500Y-103182500D03*
X149217500Y-103182500D03*
%TD*%
D16*
%TO.C,C108*%
X151384000Y-102870000D03*
X153284000Y-102870000D03*
%TD*%
D18*
%TO.C,R102*%
X150000000Y-113312500D03*
X150000000Y-111487500D03*
%TD*%
M02*
