%TF.GenerationSoftware,KiCad,Pcbnew,6.0.5*%
%TF.CreationDate,2022-05-19T12:05:37-04:00*%
%TF.ProjectId,Blackbox,426c6163-6b62-46f7-982e-6b696361645f,rev?*%
%TF.SameCoordinates,Original*%
%TF.FileFunction,Paste,Top*%
%TF.FilePolarity,Positive*%
%FSLAX46Y46*%
G04 Gerber Fmt 4.6, Leading zero omitted, Abs format (unit mm)*
G04 Created by KiCad (PCBNEW 6.0.5) date 2022-05-19 12:05:37*
%MOMM*%
%LPD*%
G01*
G04 APERTURE LIST*
G04 Aperture macros list*
%AMRoundRect*
0 Rectangle with rounded corners*
0 $1 Rounding radius*
0 $2 $3 $4 $5 $6 $7 $8 $9 X,Y pos of 4 corners*
0 Add a 4 corners polygon primitive as box body*
4,1,4,$2,$3,$4,$5,$6,$7,$8,$9,$2,$3,0*
0 Add four circle primitives for the rounded corners*
1,1,$1+$1,$2,$3*
1,1,$1+$1,$4,$5*
1,1,$1+$1,$6,$7*
1,1,$1+$1,$8,$9*
0 Add four rect primitives between the rounded corners*
20,1,$1+$1,$2,$3,$4,$5,0*
20,1,$1+$1,$4,$5,$6,$7,0*
20,1,$1+$1,$6,$7,$8,$9,0*
20,1,$1+$1,$8,$9,$2,$3,0*%
G04 Aperture macros list end*
%ADD10RoundRect,0.135000X-0.185000X0.135000X-0.185000X-0.135000X0.185000X-0.135000X0.185000X0.135000X0*%
%ADD11RoundRect,0.140000X0.140000X0.170000X-0.140000X0.170000X-0.140000X-0.170000X0.140000X-0.170000X0*%
%ADD12RoundRect,0.140000X0.170000X-0.140000X0.170000X0.140000X-0.170000X0.140000X-0.170000X-0.140000X0*%
%ADD13RoundRect,0.140000X-0.170000X0.140000X-0.170000X-0.140000X0.170000X-0.140000X0.170000X0.140000X0*%
%ADD14R,1.200000X0.700000*%
%ADD15R,0.800000X1.000000*%
%ADD16R,2.800000X1.000000*%
%ADD17R,1.200000X1.000000*%
%ADD18R,1.900000X1.300000*%
%ADD19RoundRect,0.140000X-0.140000X-0.170000X0.140000X-0.170000X0.140000X0.170000X-0.140000X0.170000X0*%
%ADD20R,1.400000X0.400000*%
%ADD21R,1.900000X2.300000*%
%ADD22R,1.900000X1.800000*%
%ADD23RoundRect,0.135000X-0.135000X-0.185000X0.135000X-0.185000X0.135000X0.185000X-0.135000X0.185000X0*%
%ADD24RoundRect,0.150000X0.150000X-0.650000X0.150000X0.650000X-0.150000X0.650000X-0.150000X-0.650000X0*%
%ADD25R,1.400000X1.200000*%
%ADD26RoundRect,0.135000X0.135000X0.185000X-0.135000X0.185000X-0.135000X-0.185000X0.135000X-0.185000X0*%
%ADD27RoundRect,0.250000X0.315000X-0.315000X0.315000X0.315000X-0.315000X0.315000X-0.315000X-0.315000X0*%
%ADD28RoundRect,0.050000X0.050000X-0.387500X0.050000X0.387500X-0.050000X0.387500X-0.050000X-0.387500X0*%
%ADD29RoundRect,0.050000X0.387500X-0.050000X0.387500X0.050000X-0.387500X0.050000X-0.387500X-0.050000X0*%
G04 APERTURE END LIST*
D10*
%TO.C,R2*%
X158910000Y-112950000D03*
X158910000Y-113970000D03*
%TD*%
D11*
%TO.C,C5*%
X159870000Y-100220000D03*
X158910000Y-100220000D03*
%TD*%
D12*
%TO.C,C117*%
X171575000Y-101280000D03*
X171575000Y-100320000D03*
%TD*%
D11*
%TO.C,C113*%
X167930000Y-106125000D03*
X166970000Y-106125000D03*
%TD*%
D13*
%TO.C,C115*%
X172450000Y-111120000D03*
X172450000Y-112080000D03*
%TD*%
D14*
%TO.C,J3*%
X157240000Y-109445000D03*
X157240000Y-108345000D03*
X157240000Y-107245000D03*
X157240000Y-106145000D03*
X157240000Y-105045000D03*
X157240000Y-103945000D03*
X157240000Y-102845000D03*
X157240000Y-101745000D03*
X157240000Y-100795000D03*
D15*
X146740000Y-99845000D03*
D16*
X142590000Y-99845000D03*
D17*
X152940000Y-99845000D03*
D18*
X142140000Y-113345000D03*
D17*
X157240000Y-110995000D03*
%TD*%
D19*
%TO.C,C109*%
X180195000Y-104650000D03*
X181155000Y-104650000D03*
%TD*%
%TO.C,R5*%
X180170000Y-106500000D03*
X181130000Y-106500000D03*
%TD*%
D20*
%TO.C,J4*%
X186825000Y-109925000D03*
X186825000Y-109275000D03*
X186825000Y-108625000D03*
X186825000Y-107975000D03*
X186825000Y-107325000D03*
D21*
X189675000Y-104875000D03*
D22*
X189675000Y-109775000D03*
X189675000Y-107475000D03*
D21*
X189675000Y-112375000D03*
%TD*%
D11*
%TO.C,C119*%
X165980000Y-106210000D03*
X165020000Y-106210000D03*
%TD*%
D13*
%TO.C,C120*%
X190600000Y-100320000D03*
X190600000Y-101280000D03*
%TD*%
D11*
%TO.C,C110*%
X167680000Y-108204000D03*
X166720000Y-108204000D03*
%TD*%
D23*
%TO.C,C114*%
X182090000Y-105850000D03*
X183110000Y-105850000D03*
%TD*%
D10*
%TO.C,C116*%
X175050000Y-111190000D03*
X175050000Y-112210000D03*
%TD*%
D24*
%TO.C,U_301*%
X159745000Y-109050000D03*
X161015000Y-109050000D03*
X162285000Y-109050000D03*
X163555000Y-109050000D03*
X163555000Y-101850000D03*
X162285000Y-101850000D03*
X161015000Y-101850000D03*
X159745000Y-101850000D03*
%TD*%
D12*
%TO.C,C121*%
X185050000Y-101355000D03*
X185050000Y-100395000D03*
%TD*%
D25*
%TO.C,Y1*%
X186600000Y-101950000D03*
X188800000Y-101950000D03*
X188800000Y-100250000D03*
X186600000Y-100250000D03*
%TD*%
D23*
%TO.C,R_302*%
X166368000Y-104750000D03*
X167388000Y-104750000D03*
%TD*%
%TO.C,R1*%
X166315000Y-103625000D03*
X167335000Y-103625000D03*
%TD*%
D26*
%TO.C,R3*%
X161100000Y-114100000D03*
X160080000Y-114100000D03*
%TD*%
D12*
%TO.C,C111*%
X169325000Y-103705000D03*
X169325000Y-102745000D03*
%TD*%
D27*
%TO.C,U3*%
X177175000Y-105300000D03*
X174375000Y-105300000D03*
X174375000Y-106700000D03*
X174375000Y-108100000D03*
X175775000Y-106700000D03*
X175775000Y-105300000D03*
X174375000Y-103900000D03*
X177175000Y-106700000D03*
X172975000Y-103900000D03*
X172975000Y-108100000D03*
X172975000Y-106700000D03*
X175775000Y-103900000D03*
X175775000Y-108100000D03*
X177175000Y-103900000D03*
X177175000Y-108100000D03*
X172975000Y-105300000D03*
D28*
X172475000Y-109437500D03*
X172875000Y-109437500D03*
X173275000Y-109437500D03*
X173675000Y-109437500D03*
X174075000Y-109437500D03*
X174475000Y-109437500D03*
X174875000Y-109437500D03*
X175275000Y-109437500D03*
X175675000Y-109437500D03*
X176075000Y-109437500D03*
X176475000Y-109437500D03*
X176875000Y-109437500D03*
X177275000Y-109437500D03*
X177675000Y-109437500D03*
D29*
X178512500Y-108600000D03*
X178512500Y-108200000D03*
X178512500Y-107800000D03*
X178512500Y-107400000D03*
X178512500Y-107000000D03*
X178512500Y-106600000D03*
X178512500Y-106200000D03*
X178512500Y-105800000D03*
X178512500Y-105400000D03*
X178512500Y-105000000D03*
X178512500Y-104600000D03*
X178512500Y-104200000D03*
X178512500Y-103800000D03*
X178512500Y-103400000D03*
D28*
X177675000Y-102562500D03*
X177275000Y-102562500D03*
X176875000Y-102562500D03*
X176475000Y-102562500D03*
X176075000Y-102562500D03*
X175675000Y-102562500D03*
X175275000Y-102562500D03*
X174875000Y-102562500D03*
X174475000Y-102562500D03*
X174075000Y-102562500D03*
X173675000Y-102562500D03*
X173275000Y-102562500D03*
X172875000Y-102562500D03*
X172475000Y-102562500D03*
D29*
X171637500Y-103400000D03*
X171637500Y-103800000D03*
X171637500Y-104200000D03*
X171637500Y-104600000D03*
X171637500Y-105000000D03*
X171637500Y-105400000D03*
X171637500Y-105800000D03*
X171637500Y-106200000D03*
X171637500Y-106600000D03*
X171637500Y-107000000D03*
X171637500Y-107400000D03*
X171637500Y-107800000D03*
X171637500Y-108200000D03*
X171637500Y-108600000D03*
%TD*%
D11*
%TO.C,C112*%
X170480000Y-101750000D03*
X169520000Y-101750000D03*
%TD*%
%TO.C,C118*%
X173655000Y-101075000D03*
X172695000Y-101075000D03*
%TD*%
M02*
