%TF.GenerationSoftware,KiCad,Pcbnew,5.1.9-73d0e3b20d~88~ubuntu20.04.1*%
%TF.CreationDate,2021-04-18T22:57:39-05:00*%
%TF.ProjectId,FCB,4643422e-6b69-4636-9164-5f7063625858,rev?*%
%TF.SameCoordinates,Original*%
%TF.FileFunction,Copper,L3,Inr*%
%TF.FilePolarity,Positive*%
%FSLAX46Y46*%
G04 Gerber Fmt 4.6, Leading zero omitted, Abs format (unit mm)*
G04 Created by KiCad (PCBNEW 5.1.9-73d0e3b20d~88~ubuntu20.04.1) date 2021-04-18 22:57:39*
%MOMM*%
%LPD*%
G01*
G04 APERTURE LIST*
%TA.AperFunction,ComponentPad*%
%ADD10O,1.700000X1.700000*%
%TD*%
%TA.AperFunction,ComponentPad*%
%ADD11R,1.700000X1.700000*%
%TD*%
%TA.AperFunction,ComponentPad*%
%ADD12R,2.200000X2.200000*%
%TD*%
%TA.AperFunction,ComponentPad*%
%ADD13C,2.200000*%
%TD*%
%TA.AperFunction,ComponentPad*%
%ADD14C,2.540000*%
%TD*%
%TA.AperFunction,ComponentPad*%
%ADD15C,0.800000*%
%TD*%
%TA.AperFunction,ComponentPad*%
%ADD16C,6.400000*%
%TD*%
%TA.AperFunction,ViaPad*%
%ADD17C,0.600000*%
%TD*%
%TA.AperFunction,ViaPad*%
%ADD18C,0.800000*%
%TD*%
%TA.AperFunction,ViaPad*%
%ADD19C,0.400000*%
%TD*%
%TA.AperFunction,Conductor*%
%ADD20C,0.250000*%
%TD*%
%TA.AperFunction,Conductor*%
%ADD21C,0.150000*%
%TD*%
%TA.AperFunction,Conductor*%
%ADD22C,0.200000*%
%TD*%
%TA.AperFunction,Conductor*%
%ADD23C,0.600000*%
%TD*%
%TA.AperFunction,Conductor*%
%ADD24C,0.120000*%
%TD*%
%TA.AperFunction,Conductor*%
%ADD25C,0.500000*%
%TD*%
%TA.AperFunction,Conductor*%
%ADD26C,0.850000*%
%TD*%
%TA.AperFunction,Conductor*%
%ADD27C,0.300000*%
%TD*%
G04 APERTURE END LIST*
D10*
%TO.N,Net-(J6-Pad2)*%
%TO.C,J6*%
X188720000Y-116720000D03*
D11*
%TO.N,GND*%
X188720000Y-114180000D03*
%TD*%
D10*
%TO.N,Net-(J4-Pad2)*%
%TO.C,J4*%
X189030000Y-136380000D03*
D11*
%TO.N,Net-(J4-Pad1)*%
X189030000Y-133840000D03*
%TD*%
D10*
%TO.N,GND*%
%TO.C,J506*%
X173560000Y-187040000D03*
D11*
%TO.N,Net-(J506-Pad1)*%
X176100000Y-187040000D03*
%TD*%
D12*
%TO.N,Net-(D102-Pad1)*%
%TO.C,J111*%
X220670000Y-222570000D03*
D13*
%TO.N,GND*%
X223210000Y-222570000D03*
%TD*%
D12*
%TO.N,Net-(D102-Pad1)*%
%TO.C,J110*%
X214500000Y-222570000D03*
D13*
%TO.N,Net-(D101-Pad1)*%
X217040000Y-222570000D03*
%TD*%
D12*
%TO.N,/9V_PT_SUPPLY*%
%TO.C,J109*%
X203500000Y-222570000D03*
D13*
%TO.N,/PT3*%
X206040000Y-222570000D03*
%TO.N,GND*%
X208580000Y-222570000D03*
%TD*%
D12*
%TO.N,/9V_PT_SUPPLY*%
%TO.C,J108*%
X195200000Y-222570000D03*
D13*
%TO.N,/PT2*%
X197740000Y-222570000D03*
%TO.N,GND*%
X200280000Y-222570000D03*
%TD*%
D12*
%TO.N,/9V_PT_SUPPLY*%
%TO.C,J107*%
X186870000Y-222570000D03*
D13*
%TO.N,/PT1*%
X189410000Y-222570000D03*
%TO.N,GND*%
X191950000Y-222570000D03*
%TD*%
D14*
%TO.N,Net-(U106-Pad9)*%
%TO.C,X101*%
X176200000Y-103700000D03*
%TO.N,GND*%
X173660000Y-106240000D03*
X178740000Y-106240000D03*
X178740000Y-101160000D03*
X173660000Y-101160000D03*
%TD*%
D10*
%TO.N,GND*%
%TO.C,J306*%
X236130000Y-165750000D03*
D11*
%TO.N,Net-(J306-Pad1)*%
X233590000Y-165750000D03*
%TD*%
D14*
%TO.N,Net-(FB601-Pad1)*%
%TO.C,X601*%
X233800000Y-141360000D03*
%TO.N,GND*%
X231260000Y-138820000D03*
X231260000Y-143900000D03*
X236340000Y-143900000D03*
X236340000Y-138820000D03*
%TD*%
D15*
%TO.N,N/C*%
%TO.C,REF\u002A\u002A*%
X231547056Y-68302944D03*
X229850000Y-67600000D03*
X228152944Y-68302944D03*
X227450000Y-70000000D03*
X228152944Y-71697056D03*
X229850000Y-72400000D03*
X231547056Y-71697056D03*
X232250000Y-70000000D03*
D16*
X229850000Y-70000000D03*
%TD*%
D15*
%TO.N,N/C*%
%TO.C,REF\u002A\u002A*%
X181697056Y-68302944D03*
X180000000Y-67600000D03*
X178302944Y-68302944D03*
X177600000Y-70000000D03*
X178302944Y-71697056D03*
X180000000Y-72400000D03*
X181697056Y-71697056D03*
X182400000Y-70000000D03*
D16*
X180000000Y-70000000D03*
%TD*%
D15*
%TO.N,N/C*%
%TO.C,REF\u002A\u002A*%
X181697056Y-220702944D03*
X180000000Y-220000000D03*
X178302944Y-220702944D03*
X177600000Y-222400000D03*
X178302944Y-224097056D03*
X180000000Y-224800000D03*
X181697056Y-224097056D03*
X182400000Y-222400000D03*
D16*
X180000000Y-222400000D03*
%TD*%
D15*
%TO.N,N/C*%
%TO.C,REF\u002A\u002A*%
X231547056Y-220652144D03*
X229850000Y-219949200D03*
X228152944Y-220652144D03*
X227450000Y-222349200D03*
X228152944Y-224046256D03*
X229850000Y-224749200D03*
X231547056Y-224046256D03*
X232250000Y-222349200D03*
D16*
X229850000Y-222349200D03*
%TD*%
D17*
%TO.N,/MPU/SYS_VDD2_3P3V*%
X207450000Y-114900000D03*
X206175000Y-111100000D03*
X218210000Y-114260000D03*
D18*
%TO.N,GND*%
X174050000Y-221175000D03*
X209800000Y-209450000D03*
D17*
X211300000Y-114900000D03*
X211300000Y-117450000D03*
X198600000Y-114900000D03*
X198600000Y-117450000D03*
X207450000Y-118725000D03*
X202375000Y-118725000D03*
X197300000Y-112375000D03*
X211275000Y-112375000D03*
X212550000Y-112375000D03*
X211275000Y-127625000D03*
X212550000Y-127625000D03*
X197300000Y-127600000D03*
X235900000Y-140900000D03*
X237000000Y-140900000D03*
X235900000Y-141900000D03*
X237000000Y-141900000D03*
D19*
X226000000Y-143350000D03*
D18*
X234400000Y-173700000D03*
D19*
X219930000Y-181790000D03*
X214840000Y-173310000D03*
X214840000Y-176690000D03*
X221620000Y-175570000D03*
X220500000Y-176700000D03*
X218230000Y-180090000D03*
X221620000Y-180090000D03*
X223890000Y-177830000D03*
X223320000Y-176130000D03*
X221620000Y-169910000D03*
X219930000Y-167110000D03*
X218230000Y-169910000D03*
D17*
X226410000Y-181100000D03*
X230820000Y-179090000D03*
D19*
X219920000Y-173860000D03*
X189360000Y-176700000D03*
X184840000Y-176700000D03*
X188230000Y-169920000D03*
X191620000Y-169920000D03*
X195010000Y-176700000D03*
X223050000Y-140500000D03*
X223100000Y-143250006D03*
X226020000Y-141050000D03*
X226020000Y-141630000D03*
D17*
X233400000Y-139100000D03*
X234300000Y-139100000D03*
X233400000Y-137900000D03*
X234300000Y-137900000D03*
X233400000Y-143700000D03*
X234200000Y-143700000D03*
X233400000Y-144800000D03*
X234200000Y-144800000D03*
X227400000Y-185300000D03*
D19*
X228000004Y-175000000D03*
D18*
X180100000Y-80000000D03*
X180100000Y-90000000D03*
X230000000Y-80000000D03*
X230000000Y-90000000D03*
D17*
X203650000Y-125075000D03*
X206200000Y-125075000D03*
X199850000Y-122525000D03*
X198600000Y-125075000D03*
X211300000Y-122525000D03*
X211275000Y-125100000D03*
X198600000Y-120000000D03*
X211300000Y-120000000D03*
X201125000Y-125075000D03*
X208750000Y-125100000D03*
X204925000Y-113650000D03*
X204925000Y-114875000D03*
X212550000Y-113650000D03*
X211275000Y-113650000D03*
X201125000Y-113675000D03*
X208725000Y-113650000D03*
X203650000Y-126350000D03*
X206200000Y-126350000D03*
X237550000Y-128400000D03*
X237550000Y-125850000D03*
X237550000Y-124600000D03*
X237550000Y-123300000D03*
X237550000Y-120800000D03*
X237550000Y-118250000D03*
X237550000Y-131350000D03*
X227750000Y-130450000D03*
X227800000Y-108700000D03*
X227850000Y-117100000D03*
X228650000Y-116550000D03*
X227800000Y-121300000D03*
X227800000Y-112900000D03*
X227800000Y-125500000D03*
X220100000Y-189600000D03*
X217800000Y-185350000D03*
X224720000Y-180410000D03*
X232690000Y-173200000D03*
X228760000Y-184400000D03*
X237050000Y-183540000D03*
D19*
X226620000Y-173480000D03*
D17*
X214420000Y-183340000D03*
D19*
X226800000Y-176220000D03*
X217090000Y-174450000D03*
X232325000Y-175785036D03*
D17*
X185930000Y-185730000D03*
X184761706Y-179960021D03*
D19*
X183130000Y-175000000D03*
X176220000Y-173050000D03*
D17*
X181190000Y-182680000D03*
D19*
X224450000Y-172740002D03*
X194450000Y-172729998D03*
D18*
X224800000Y-210700000D03*
D17*
X225600000Y-205600000D03*
D18*
X212340000Y-209450000D03*
X209800000Y-211990000D03*
X212340000Y-211990000D03*
D17*
X174150000Y-124600000D03*
X192250000Y-132650000D03*
X175550000Y-114650000D03*
X192250000Y-107300000D03*
X217650000Y-107250000D03*
X217700000Y-132750000D03*
X174100000Y-131150000D03*
D19*
X185399998Y-173870000D03*
X190490000Y-175570000D03*
D17*
X222700000Y-181000000D03*
X235470000Y-159390000D03*
D19*
X187167270Y-179030498D03*
X191620000Y-180100000D03*
D17*
X183090000Y-172380000D03*
D18*
X235800000Y-71200000D03*
D19*
X195275000Y-183500000D03*
X189920000Y-168210000D03*
X212580000Y-175630000D03*
X197600000Y-176650000D03*
X231500000Y-191725000D03*
D17*
X233300000Y-191625000D03*
X233300000Y-200375000D03*
X233075000Y-215100000D03*
X176675000Y-215100000D03*
X209175000Y-189625000D03*
X217625000Y-191000000D03*
D19*
X224600000Y-137400000D03*
X219650000Y-148000000D03*
X187650000Y-159650000D03*
X188550000Y-153850000D03*
D17*
X174045000Y-154605000D03*
D19*
X226600000Y-163550000D03*
X223600000Y-166750000D03*
X226300000Y-166450000D03*
D17*
X172600000Y-183500000D03*
X232700000Y-179600000D03*
X196900000Y-144250000D03*
X196900000Y-145550000D03*
X194800000Y-143900000D03*
D19*
X207800000Y-147800000D03*
D17*
X213999998Y-145750000D03*
X210600000Y-153200000D03*
X215950000Y-153200000D03*
X207100000Y-155650000D03*
X200700000Y-155000000D03*
X199450000Y-159050000D03*
X199405000Y-161095000D03*
X213950000Y-157200000D03*
X213950000Y-159050000D03*
D19*
X215600000Y-145950000D03*
X189250000Y-182600000D03*
X191050000Y-171600000D03*
X192750000Y-175550000D03*
D17*
X179250000Y-169200000D03*
X178350000Y-177950000D03*
X183380000Y-181490000D03*
X229700000Y-176100000D03*
X226140000Y-93470000D03*
X180210000Y-110860000D03*
X209420000Y-97350000D03*
X209440000Y-99450000D03*
X209450000Y-100850000D03*
X201200000Y-89899999D03*
X181970000Y-101910000D03*
X181270000Y-93330000D03*
D19*
X197640000Y-175380000D03*
D17*
X219530000Y-102610000D03*
X227370000Y-101320000D03*
X229510000Y-101320000D03*
X229330000Y-96040000D03*
X201200000Y-102750000D03*
X202720000Y-133000000D03*
X175280000Y-176560000D03*
X176480000Y-191620000D03*
X176520000Y-200370000D03*
D19*
X184223990Y-178029980D03*
X198650000Y-163460000D03*
X185420000Y-153830000D03*
D17*
X181685000Y-184715000D03*
D19*
X185980000Y-175570000D03*
D17*
X224679996Y-151430000D03*
X218030000Y-157340000D03*
D19*
X211690000Y-147610000D03*
D17*
X195680000Y-165380000D03*
D19*
X212070000Y-173930000D03*
D17*
X189400000Y-184530000D03*
%TO.N,/MPU/SYS_VOUT*%
X210000000Y-114900000D03*
X218200000Y-115550000D03*
%TO.N,/MPU/SYS_VDD1_3P3V*%
X232400000Y-127150000D03*
X222550000Y-110150000D03*
X222550000Y-108700000D03*
X222550000Y-111550000D03*
X222550000Y-112950000D03*
X222550000Y-114350000D03*
X222550000Y-115700000D03*
X222550000Y-117150000D03*
X222550000Y-118550000D03*
X222550000Y-119950000D03*
X222550000Y-121400000D03*
X222550000Y-122750000D03*
X222550000Y-124150000D03*
X222550000Y-125450000D03*
X222550000Y-126900000D03*
X222550000Y-128205011D03*
X222550000Y-129650000D03*
X210000000Y-117450000D03*
X201150000Y-117450000D03*
X193480000Y-132790000D03*
X194290000Y-136370000D03*
X236240000Y-114090000D03*
%TO.N,/MPU/SYS_VDD3_3P3V*%
X204950000Y-120000000D03*
X174150000Y-126750000D03*
X191000000Y-125700000D03*
X180300000Y-127500000D03*
%TO.N,/MPU/SYS_VDD_1P8V*%
X204950000Y-123750000D03*
X206180000Y-131430000D03*
%TO.N,/MPU/SYS_RTC_1P8V*%
X208750000Y-120000000D03*
D18*
%TO.N,/MPU/USB5V*%
X218100000Y-109200000D03*
X219050000Y-109200000D03*
X191250000Y-104350000D03*
D19*
%TO.N,/ZOE-M8Q/3V3*%
X227600000Y-146900002D03*
X223000000Y-139350000D03*
D17*
X222380000Y-148420000D03*
%TO.N,Net-(J4-Pad2)*%
X201130000Y-128830000D03*
%TO.N,Net-(J4-Pad1)*%
X199820000Y-128830000D03*
%TO.N,/MPU/JTAG_EMU1*%
X233400000Y-122050000D03*
%TO.N,/MPU/JTAG_EMU0*%
X228249998Y-123050000D03*
%TO.N,/MPU/JTAG_TCK*%
X232350000Y-124550000D03*
%TO.N,/MPU/JTAG_TDO*%
X232399980Y-125800000D03*
%TO.N,/MPU/JTAG_TDI*%
X232600000Y-128350000D03*
%TO.N,/MPU/JTAG_TRSTN*%
X233000000Y-130100000D03*
%TO.N,/MPU/JTAG_TMS*%
X228100000Y-129700000D03*
D19*
%TO.N,/MCU_AC/AD_B0_11*%
X221620000Y-173300000D03*
X225670000Y-167090000D03*
X221040000Y-178400000D03*
X223330000Y-173870000D03*
D17*
%TO.N,/ZOE-M8Q/VBATT*%
X223000000Y-153770000D03*
%TO.N,Net-(TP7-Pad1)*%
X198600000Y-128800000D03*
X197300000Y-134900000D03*
%TO.N,Net-(TP8-Pad1)*%
X202400000Y-128800000D03*
X199850000Y-134900000D03*
%TO.N,Net-(TP9-Pad1)*%
X203650000Y-128800000D03*
X202350000Y-134900000D03*
%TO.N,Net-(TP10-Pad1)*%
X207500000Y-128850000D03*
X204274998Y-134775000D03*
%TO.N,Net-(TP11-Pad1)*%
X198600000Y-122500000D03*
X190650000Y-123200000D03*
%TO.N,/MPU/USB0_DP*%
X177100000Y-113700000D03*
X175700002Y-112350000D03*
%TO.N,/MPU/USB0_ID*%
X177860000Y-111820000D03*
X176300000Y-116850000D03*
D19*
%TO.N,/MCU_AC/AD_B0_09*%
X226250000Y-170050000D03*
X224330000Y-170258841D03*
%TO.N,/MCU_AC/AD_B0_08*%
X230100000Y-167340000D03*
X222190000Y-170490002D03*
%TO.N,/MCU_AC/AD_B0_04*%
X221056371Y-171613629D03*
X225410000Y-168470000D03*
%TO.N,/MCU_AC/B0_13*%
X219920000Y-171599998D03*
X229720000Y-168380000D03*
%TO.N,/MCU_AC/POR_B*%
X222190000Y-177260000D03*
X228850000Y-170350000D03*
%TO.N,/MCU_AC/EMC_24*%
X214825000Y-187200000D03*
%TO.N,/MCU_AC/EMC_26*%
X214900000Y-188475000D03*
%TO.N,/MCU_AC/EMC_25*%
X215400000Y-176125000D03*
X225450000Y-189800000D03*
X212640000Y-189735000D03*
%TO.N,/MCU_AC/EMC_27*%
X212750001Y-191000001D03*
%TO.N,/MCU_AC/EMC_22*%
X230075000Y-187250000D03*
%TO.N,/MCU_AC/EMC_29*%
X212575000Y-188450000D03*
X213425000Y-185650000D03*
X225450000Y-188525000D03*
%TO.N,/MCU_AC/EMC_28*%
X213775000Y-186850000D03*
%TO.N,Net-(C305-Pad1)*%
X218790000Y-176130000D03*
X221050000Y-175010000D03*
D17*
%TO.N,Net-(C309-Pad1)*%
X234700000Y-183800000D03*
X232600000Y-183050000D03*
X222900000Y-180250000D03*
D19*
%TO.N,Net-(C313-Pad1)*%
X223880772Y-175560772D03*
X226896000Y-172696000D03*
%TO.N,Net-(C314-Pad1)*%
X225280000Y-178190002D03*
%TO.N,Net-(C316-Pad1)*%
X223880000Y-178990000D03*
%TO.N,Net-(C317-Pad1)*%
X222190000Y-176140000D03*
D17*
X227440000Y-172220000D03*
%TO.N,Net-(C318-Pad1)*%
X228860000Y-174940000D03*
D19*
X223880000Y-176700000D03*
%TO.N,Net-(C319-Pad1)*%
X218790000Y-180650000D03*
%TO.N,Net-(J301-Pad2)*%
X223320000Y-177260000D03*
D17*
X233700000Y-175400000D03*
D19*
%TO.N,Net-(J301-Pad3)*%
X222750000Y-176700000D03*
D17*
X233800000Y-174600000D03*
D19*
%TO.N,Net-(J302-Pad1)*%
X214440002Y-179540000D03*
D17*
X220720000Y-162000002D03*
D19*
%TO.N,Net-(J302-Pad2)*%
X215490000Y-180650000D03*
D17*
X220710000Y-159660000D03*
%TO.N,Net-(J302-Pad3)*%
X220710000Y-158880000D03*
X229490000Y-156110000D03*
X231825000Y-156110000D03*
D19*
X219350000Y-177830002D03*
%TO.N,Net-(J302-Pad5)*%
X214768491Y-179920282D03*
D17*
X220720000Y-161180000D03*
X233420000Y-158290000D03*
X230950000Y-158300000D03*
D19*
%TO.N,Net-(J302-Pad7)*%
X215131955Y-180248924D03*
D17*
X220710000Y-160440000D03*
X227800000Y-159750000D03*
X234570000Y-160490000D03*
D19*
%TO.N,Net-(J302-Pad8)*%
X216790000Y-181000000D03*
D17*
X220750000Y-158090000D03*
X224760000Y-157590000D03*
X232110000Y-159520000D03*
D19*
%TO.N,Net-(J306-Pad1)*%
X229600000Y-170000000D03*
%TO.N,Net-(L301-Pad2)*%
X218270000Y-181500000D03*
%TO.N,Net-(R307-Pad2)*%
X230706000Y-180824000D03*
X221625000Y-177825000D03*
X228775000Y-183050000D03*
%TO.N,Net-(U301-PadP4)*%
X218450000Y-189170000D03*
X221630000Y-181240000D03*
%TO.N,Net-(U301-PadN4)*%
X222920000Y-185820000D03*
X221050000Y-180675000D03*
%TO.N,Net-(U301-PadL4)*%
X220500000Y-178960000D03*
X222190000Y-185130000D03*
%TO.N,Net-(U301-PadP3)*%
X217890000Y-188600000D03*
X221060000Y-181800000D03*
%TO.N,Net-(U301-PadL3)*%
X219360000Y-180080000D03*
X217650000Y-186700000D03*
%TO.N,Net-(C505-Pad1)*%
X190490000Y-174430000D03*
D17*
%TO.N,Net-(C509-Pad1)*%
X174510000Y-183460000D03*
X184937917Y-178399581D03*
X177850000Y-184560000D03*
D19*
%TO.N,Net-(C513-Pad1)*%
X188790000Y-179460000D03*
%TO.N,Net-(C514-Pad1)*%
X187120000Y-180249990D03*
%TO.N,Net-(C516-Pad1)*%
X185950000Y-177820000D03*
X182954000Y-177850000D03*
%TO.N,Net-(C517-Pad1)*%
X188800000Y-177260000D03*
X192229990Y-184870000D03*
%TO.N,Net-(C518-Pad1)*%
X188230000Y-178970000D03*
X191300000Y-182610000D03*
%TO.N,Net-(C519-Pad1)*%
X184830000Y-173300000D03*
%TO.N,Net-(D602-Pad2)*%
X225900000Y-140400000D03*
X226000000Y-138750000D03*
%TO.N,Net-(J501-Pad2)*%
X186530000Y-176130000D03*
X175280000Y-174350000D03*
%TO.N,Net-(J501-Pad3)*%
X187660000Y-178410000D03*
X175260000Y-175000000D03*
D17*
%TO.N,Net-(J502-Pad8)*%
X176250000Y-152425000D03*
D19*
X183785787Y-171689213D03*
%TO.N,Net-(J502-Pad7)*%
X184275000Y-170550000D03*
D17*
X177050000Y-153375000D03*
D19*
%TO.N,Net-(J502-Pad5)*%
X184358748Y-171691252D03*
D17*
X175975000Y-156060000D03*
%TO.N,Net-(J502-Pad3)*%
X177350000Y-158450000D03*
D19*
X187162550Y-173320367D03*
D17*
%TO.N,Net-(J502-Pad2)*%
X177900000Y-159475000D03*
D19*
X184730002Y-168170000D03*
%TO.N,Net-(J502-Pad1)*%
X185190000Y-167000000D03*
D17*
X178925000Y-160450000D03*
D19*
%TO.N,Net-(JP602-Pad2)*%
X224600000Y-141700000D03*
%TO.N,Net-(JP605-Pad2)*%
X221950000Y-141850000D03*
%TO.N,Net-(JP606-Pad2)*%
X221950000Y-141325000D03*
%TO.N,Net-(L501-Pad2)*%
X183700000Y-173300000D03*
D17*
%TO.N,Net-(R205-Pad2)*%
X219700000Y-127000000D03*
%TO.N,Net-(R206-Pad2)*%
X218900000Y-127000000D03*
%TO.N,Net-(R207-Pad2)*%
X218100000Y-127000000D03*
%TO.N,Net-(R208-Pad2)*%
X219700000Y-125700000D03*
%TO.N,Net-(R209-Pad2)*%
X218900000Y-125700000D03*
%TO.N,Net-(R210-Pad2)*%
X218100000Y-125700000D03*
%TO.N,Net-(R211-Pad2)*%
X219700000Y-124400000D03*
%TO.N,Net-(R212-Pad2)*%
X218900000Y-124400000D03*
%TO.N,Net-(R213-Pad2)*%
X218100000Y-124400000D03*
%TO.N,Net-(R214-Pad2)*%
X219700001Y-123200001D03*
%TO.N,Net-(R215-Pad2)*%
X218900004Y-123200000D03*
%TO.N,Net-(R216-Pad2)*%
X218100000Y-123175000D03*
%TO.N,Net-(R217-Pad2)*%
X219700000Y-121900000D03*
%TO.N,Net-(R218-Pad2)*%
X218900000Y-121900000D03*
%TO.N,Net-(R219-Pad2)*%
X218100000Y-121900000D03*
%TO.N,Net-(R220-Pad2)*%
X218100000Y-120999998D03*
D19*
%TO.N,/MCU_HYBRID/AD_B0_11*%
X185970000Y-174440000D03*
X191619371Y-176762747D03*
X197050000Y-177875000D03*
X200675000Y-178125000D03*
%TO.N,Net-(R507-Pad2)*%
X188790000Y-176130000D03*
D17*
X179430000Y-181330000D03*
D19*
%TO.N,/MCU_HYBRID/AD_B0_10*%
X194840000Y-178510000D03*
X193881571Y-177828427D03*
%TO.N,/MCU_HYBRID/AD_B0_08*%
X194483140Y-177308165D03*
X196740000Y-182840000D03*
%TO.N,/MCU_HYBRID/AD_B0_07*%
X194740000Y-179910000D03*
X193890000Y-176690000D03*
%TO.N,/MCU_HYBRID/AD_B0_04*%
X193299565Y-176197426D03*
X195579974Y-177197064D03*
%TO.N,/MCU_HYBRID/B0_13*%
X196440000Y-182330000D03*
X193389810Y-175070698D03*
%TO.N,/MCU_HYBRID/POR_B*%
X186464308Y-177292655D03*
X191620000Y-182220000D03*
%TO.N,Net-(U501-PadP4)*%
X183700000Y-176700000D03*
X176580000Y-171490000D03*
%TO.N,Net-(U501-PadN4)*%
X185400000Y-176130000D03*
X179977505Y-176022495D03*
%TO.N,Net-(U501-PadL4)*%
X185400000Y-175000000D03*
X181160000Y-175570000D03*
%TO.N,Net-(U501-PadP3)*%
X177150000Y-170930000D03*
X183140000Y-176130000D03*
%TO.N,Net-(U501-PadL3)*%
X177720000Y-170360000D03*
X184830000Y-174430000D03*
%TO.N,/MCU_HYBRID/EMC_24*%
X189360000Y-171049998D03*
X189930000Y-167040000D03*
X189930000Y-157670000D03*
%TO.N,/MCU_HYBRID/EMC_26*%
X191100000Y-162690000D03*
%TO.N,/MCU_HYBRID/EMC_25*%
X188790000Y-170480000D03*
X189170000Y-167280000D03*
X189950000Y-155100000D03*
X189150000Y-160900000D03*
%TO.N,/MCU_HYBRID/EMC_27*%
X190850000Y-153850000D03*
X190500000Y-159650000D03*
%TO.N,/MCU_HYBRID/EMC_22*%
X186650002Y-164600000D03*
%TO.N,/MCU_HYBRID/EMC_29*%
X188000000Y-162150000D03*
%TO.N,/MCU_HYBRID/EMC_28*%
X188600006Y-160900000D03*
X188500010Y-155100000D03*
%TO.N,Net-(U601-PadP$J7)*%
X221950000Y-142850000D03*
%TO.N,Net-(U601-PadP$J8)*%
X221950000Y-143400000D03*
D18*
%TO.N,/3V3*%
X173750000Y-88000000D03*
X173750000Y-82000000D03*
X236100000Y-82000000D03*
X236100000Y-88000000D03*
D17*
X193450000Y-140900000D03*
X195450000Y-157200000D03*
X208550000Y-151800000D03*
X212450000Y-151100000D03*
D19*
X223050000Y-133900000D03*
D18*
%TO.N,/5V*%
X218100000Y-110500000D03*
X219050000Y-110500000D03*
X175300000Y-84000000D03*
X175300000Y-86000000D03*
X232700000Y-177900000D03*
X234550000Y-86000000D03*
X234550000Y-84000000D03*
X175625000Y-173725000D03*
D17*
%TO.N,/MPU_SPI0_SCK*%
X197410000Y-131550000D03*
X194740000Y-95590000D03*
X197850000Y-95890000D03*
%TO.N,/MPU_SPI0_MISO*%
X197320000Y-130130000D03*
%TO.N,/TLM_CS*%
X196020000Y-131360000D03*
%TO.N,/MPU_SPI0_MOSI*%
X196030000Y-130150000D03*
%TO.N,/TLM_DIO2*%
X189100000Y-89890000D03*
X211270000Y-107400000D03*
X200920000Y-105970000D03*
%TO.N,/TLM_DIO1*%
X189110000Y-91890000D03*
X211290000Y-108460000D03*
X199910001Y-105969999D03*
%TO.N,/TLM_DIO0*%
X212590000Y-109790000D03*
X189110000Y-93889999D03*
X199180000Y-105990000D03*
%TO.N,/TLM_DIO4*%
X211290000Y-109810000D03*
X189120000Y-97900000D03*
X198389998Y-106020000D03*
%TO.N,/TLM_DIO3*%
X211250000Y-110940000D03*
X197540000Y-106020000D03*
X189130000Y-99910000D03*
%TO.N,/TLM_DIO5*%
X210660000Y-106730000D03*
%TO.N,/TLM_RST*%
X213180000Y-107164000D03*
D19*
%TO.N,/LSM9_CS_AG*%
X217100000Y-173300000D03*
X191620000Y-172170000D03*
X210590000Y-160500002D03*
X215428101Y-171178103D03*
D17*
X215760000Y-167080000D03*
%TO.N,/SNS_SPI_MISO*%
X205100000Y-146050000D03*
D19*
X191625000Y-173300000D03*
X218230000Y-173300000D03*
D17*
X210330000Y-145530000D03*
X201334990Y-145525000D03*
X205100000Y-154730000D03*
X199050008Y-153360000D03*
X205100000Y-169910000D03*
X208890000Y-160290000D03*
X205100000Y-161200000D03*
D19*
X216700000Y-140150000D03*
%TO.N,/SNS_SPI_MOSI*%
X192200000Y-173875000D03*
D17*
X210670000Y-146350000D03*
X206250000Y-147080000D03*
X201315015Y-144275015D03*
X206250000Y-159850000D03*
X206250000Y-172150002D03*
D19*
X213800000Y-172740000D03*
D17*
X198650000Y-159050006D03*
X206250000Y-144275002D03*
D19*
X216050000Y-137900000D03*
X218759271Y-172660379D03*
D17*
%TO.N,/SNS_SPI_SCK*%
X203975006Y-143550006D03*
D19*
X192190000Y-172730000D03*
X218230000Y-172170000D03*
D17*
X201320000Y-143019998D03*
X203970000Y-152839998D03*
X199050000Y-152670000D03*
X203970000Y-168770000D03*
X203970000Y-158190000D03*
X209160001Y-157670000D03*
X211649990Y-144075000D03*
D19*
X226000000Y-139350000D03*
X220200000Y-139850000D03*
D17*
%TO.N,/MS5611_CS*%
X201670000Y-167650000D03*
X198870000Y-168210000D03*
D19*
X219360000Y-169910000D03*
%TO.N,/KX122_CS*%
X191060000Y-179520000D03*
X224307024Y-168672249D03*
X226129058Y-171320566D03*
X207599998Y-178925000D03*
%TO.N,/LSM9_CS_M*%
X211020000Y-161000000D03*
X190490000Y-178960000D03*
X207200000Y-178500000D03*
X218770000Y-167590000D03*
D17*
%TO.N,/MPU/MMC0_DAT1*%
X174150000Y-122450000D03*
%TO.N,/MPU/MMC0_DAT0*%
X174150000Y-123500000D03*
%TO.N,/MPU/MMC0_CLK*%
X174150000Y-125700000D03*
X179400000Y-125900000D03*
X182349996Y-125900000D03*
%TO.N,/MPU/MMC0_CMD*%
X174150000Y-127900000D03*
X179350000Y-126800000D03*
X182349998Y-126800002D03*
%TO.N,/MPU/MMC0_DAT3*%
X174150000Y-129000000D03*
%TO.N,/MPU/MMC0_DAT2*%
X174150000Y-130100000D03*
X180500000Y-124650000D03*
X178650000Y-129100000D03*
%TO.N,/MPU9250_CS*%
X202825000Y-154599992D03*
D19*
X194450000Y-175000000D03*
D17*
X199049998Y-154140000D03*
D19*
X219360000Y-171040000D03*
D17*
X202820000Y-171020000D03*
D19*
X214240000Y-171619998D03*
X197459998Y-171690000D03*
X197980000Y-173180000D03*
%TO.N,/MCU_AC__UART1_TX*%
X225590000Y-176130000D03*
X227360000Y-175670000D03*
D17*
X228090000Y-184880000D03*
D19*
X206000000Y-173270000D03*
%TO.N,/B2B_I2C_SDA*%
X191060000Y-178390000D03*
X194600000Y-185625000D03*
X223875000Y-174425000D03*
X225625000Y-172150000D03*
D17*
X233075000Y-207625000D03*
X176680000Y-207630000D03*
D19*
X194600000Y-207170000D03*
X224210006Y-169230000D03*
X225610000Y-171250002D03*
X209585197Y-185014805D03*
%TO.N,/B2B_I2C_SCL*%
X195000000Y-208420000D03*
X191620000Y-177830000D03*
X195000000Y-185225000D03*
X222200000Y-173850000D03*
D17*
X233080000Y-208870000D03*
X176690000Y-208880000D03*
D19*
X223720000Y-169020000D03*
X209125000Y-184750010D03*
%TO.N,/MCU_AC_UART1_RX*%
X220470000Y-172170000D03*
X212720000Y-173300000D03*
X203969998Y-173860000D03*
%TO.N,/MCU_AC_SPI2_MOSI*%
X215960000Y-176700000D03*
X229040000Y-166170000D03*
%TO.N,/MCU_HYB_UART1_TX*%
X188800000Y-178400000D03*
X192390000Y-162660000D03*
%TO.N,/MCU_HYB_UART1_RX*%
X192750000Y-176700000D03*
X199410000Y-173830000D03*
%TO.N,/MCU_HYB_SPI2_MOSI*%
X199025000Y-180075000D03*
X187587500Y-168037500D03*
D17*
%TO.N,/B2B_GPIO1*%
X176520000Y-199120000D03*
X233290000Y-199120000D03*
%TO.N,/B2B_SPI_CS2*%
X194150000Y-197310000D03*
X176520000Y-197870000D03*
X233295000Y-197875000D03*
D19*
X194150000Y-186060000D03*
X192936580Y-180896100D03*
%TO.N,/B2B_SPI_CS1*%
X210525000Y-196060000D03*
D17*
X176520000Y-196620000D03*
X233290000Y-196620000D03*
D19*
X224470000Y-171580000D03*
X217250000Y-165960000D03*
D17*
%TO.N,/B2B_SPI_SCK*%
X193700000Y-194810000D03*
X176505000Y-195375000D03*
X233280000Y-195370000D03*
D19*
X193700000Y-186480000D03*
X225020000Y-172160000D03*
X216930000Y-165520000D03*
X210125000Y-185300000D03*
X192580000Y-180560000D03*
%TO.N,/B2B_SPI_MISO*%
X208650000Y-193560000D03*
D17*
X176515000Y-194125000D03*
X233290000Y-194120000D03*
D19*
X192190000Y-177260000D03*
X195380000Y-184850000D03*
X208650000Y-184450000D03*
X222781137Y-168423873D03*
X222180000Y-172740000D03*
D17*
%TO.N,/B2B_SPI_MOSI*%
X176495000Y-192875000D03*
X233285000Y-192875000D03*
D19*
X192760000Y-177820000D03*
X195795846Y-184445363D03*
X220500000Y-171050000D03*
X222675000Y-167750000D03*
X208125000Y-192400000D03*
X208124996Y-184149996D03*
X221546380Y-172169836D03*
D17*
%TO.N,/9V_PT_SUPPLY*%
X176700000Y-216380000D03*
X233070000Y-216370000D03*
D19*
%TO.N,/B2B_SERVO4*%
X202820000Y-213440000D03*
D17*
X233070000Y-213870000D03*
X176700000Y-213880000D03*
D19*
X188240000Y-173300000D03*
X218790000Y-178390000D03*
X202820000Y-177300000D03*
X214050000Y-178825000D03*
%TO.N,/B2B_SERVO3*%
X203510000Y-212180000D03*
D17*
X233070000Y-212630000D03*
X176700000Y-212620000D03*
D19*
X187650000Y-173870000D03*
X218240772Y-176700772D03*
X203510011Y-177299854D03*
X213541515Y-178320493D03*
%TO.N,/B2B_SERVO2*%
X201120000Y-210940000D03*
D17*
X233070000Y-211380000D03*
X176700000Y-211370000D03*
D19*
X188790000Y-172740000D03*
X217670000Y-176130000D03*
X201075000Y-176574996D03*
X213012004Y-177837013D03*
%TO.N,/B2B_SERVO1*%
X201790000Y-209670000D03*
D17*
X233070000Y-210120000D03*
X176690000Y-210120000D03*
D19*
X215400000Y-177260000D03*
X186230000Y-169020000D03*
X201790002Y-176250000D03*
X212500000Y-177275000D03*
D17*
%TO.N,Net-(D101-Pad1)*%
X217300000Y-216350000D03*
D19*
%TO.N,/SLND_TRIG*%
X197120000Y-175990000D03*
X206210000Y-175750000D03*
X207350000Y-203210000D03*
X220510000Y-167660000D03*
X222370000Y-165770000D03*
X217660000Y-157850000D03*
D17*
%TO.N,/MCU_AC/3V3_MCU*%
X220150000Y-184250000D03*
X233890000Y-181820000D03*
D19*
X220490000Y-173300000D03*
X218230000Y-175560000D03*
X219920000Y-177270000D03*
X226710000Y-175020000D03*
X226160000Y-175570000D03*
X221630002Y-174440000D03*
D17*
X227500000Y-165900000D03*
X231198206Y-168448206D03*
D19*
X214075000Y-185025000D03*
X222925000Y-187250000D03*
D17*
%TO.N,/LCD_CS*%
X197270000Y-129000000D03*
%TO.N,/LCD_DC*%
X208544500Y-95226000D03*
D19*
%TO.N,/ZOE_CS*%
X196530000Y-176520000D03*
X206680000Y-178320000D03*
X209800000Y-162970000D03*
X227060000Y-140350000D03*
X219230000Y-152400000D03*
X212673201Y-152753201D03*
X216180000Y-166480000D03*
X211700000Y-162000000D03*
%TO.N,/PT1*%
X189360000Y-181230000D03*
X190054999Y-188065001D03*
D17*
X189430000Y-219000000D03*
D19*
%TO.N,/PT2*%
X189930000Y-179520000D03*
X190820000Y-188080000D03*
D17*
X197740000Y-218970000D03*
D19*
%TO.N,/PT3*%
X192200000Y-181260000D03*
X191610000Y-188070000D03*
D17*
X206020000Y-218980000D03*
D19*
%TO.N,/INTER_MCU_UART_TX*%
X217130000Y-166910000D03*
X211119990Y-173793555D03*
X199100000Y-174500000D03*
%TO.N,/INTER_MCU_UART_RX*%
X216910000Y-167530000D03*
X211500000Y-174210000D03*
X199530000Y-174880000D03*
%TO.N,/MCU_HYBRID/3V3_MCU*%
X189920000Y-181790000D03*
X188800000Y-181790000D03*
X189930000Y-171600000D03*
X187100000Y-174430000D03*
X191620000Y-175560000D03*
X190490000Y-176710000D03*
X190390000Y-183600000D03*
X191648094Y-181211906D03*
D17*
X200160000Y-182460000D03*
X191200000Y-158490000D03*
X187950000Y-158490000D03*
X186150000Y-165660000D03*
X204690000Y-181890000D03*
D19*
X195120000Y-163470000D03*
X180430001Y-185760001D03*
D17*
%TO.N,Net-(R501-Pad2)*%
X213290000Y-105340000D03*
%TO.N,Net-(SW501-Pad2)*%
X213790000Y-106180000D03*
X228690000Y-97650000D03*
%TO.N,Net-(TP18-Pad1)*%
X216410000Y-107250000D03*
X214880000Y-106590000D03*
%TD*%
D20*
%TO.N,/MPU/SYS_VDD1_3P3V*%
X222550000Y-108700000D02*
X222550000Y-129650000D01*
D21*
X194290000Y-136370000D02*
X193480000Y-135560000D01*
X193480000Y-135560000D02*
X193480000Y-132790000D01*
X199950000Y-118650000D02*
X201150000Y-117450000D01*
X189220000Y-122760000D02*
X193330000Y-118650000D01*
X189220000Y-126471798D02*
X189220000Y-122760000D01*
X193480000Y-130731798D02*
X189220000Y-126471798D01*
X193330000Y-118650000D02*
X199950000Y-118650000D01*
X193480000Y-132790000D02*
X193480000Y-130731798D01*
D22*
X236240000Y-114090000D02*
X236240000Y-124330000D01*
X233420000Y-127150000D02*
X232400000Y-127150000D01*
X236240000Y-124330000D02*
X233420000Y-127150000D01*
%TO.N,/MPU/SYS_VDD3_3P3V*%
X204950000Y-120000000D02*
X200500000Y-124450000D01*
X200500000Y-124450000D02*
X199250000Y-125700000D01*
X199250000Y-125700000D02*
X191000000Y-125700000D01*
X174150000Y-126750000D02*
X177900000Y-126750000D01*
X178650000Y-127500000D02*
X180300000Y-127500000D01*
X177900000Y-126750000D02*
X178650000Y-127500000D01*
%TO.N,/MPU/SYS_VDD_1P8V*%
X206180000Y-131430000D02*
X206180000Y-128490000D01*
X204950000Y-127260000D02*
X204950000Y-123750000D01*
X206180000Y-128490000D02*
X204950000Y-127260000D01*
D23*
%TO.N,/MPU/USB5V*%
X219050000Y-109200000D02*
X219700000Y-108550000D01*
X191250000Y-104350000D02*
X217950000Y-104350000D01*
X219700000Y-106100000D02*
X219700000Y-108550000D01*
X217950000Y-104350000D02*
X219700000Y-106100000D01*
D24*
%TO.N,/ZOE-M8Q/3V3*%
X226670002Y-146900002D02*
X227600000Y-146900002D01*
D21*
X223750000Y-143980000D02*
X226670002Y-146900002D01*
X223750000Y-140100000D02*
X223750000Y-143980000D01*
X223000000Y-139350000D02*
X223750000Y-140100000D01*
D24*
%TO.N,/MCU_AC/AD_B0_11*%
X223250000Y-168987158D02*
X225147158Y-167090000D01*
X223250000Y-172188002D02*
X223250000Y-168987158D01*
X222138002Y-173300000D02*
X223250000Y-172188002D01*
X221620000Y-173300000D02*
X222138002Y-173300000D01*
X225147158Y-167090000D02*
X225670000Y-167090000D01*
X221040000Y-175631998D02*
X221801998Y-174870000D01*
X221040000Y-178400000D02*
X221040000Y-175631998D01*
X222330000Y-174870000D02*
X223330000Y-173870000D01*
X221801998Y-174870000D02*
X222330000Y-174870000D01*
D21*
%TO.N,Net-(TP11-Pad1)*%
X197900000Y-123200000D02*
X190650000Y-123200000D01*
X198600000Y-122500000D02*
X197900000Y-123200000D01*
%TO.N,Net-(C309-Pad1)*%
X232600000Y-183750000D02*
X232650000Y-183800000D01*
X232590000Y-183560000D02*
X232350000Y-183800000D01*
X232600000Y-183560000D02*
X232590000Y-183560000D01*
D20*
X232350000Y-183800000D02*
X232650000Y-183800000D01*
D22*
X232600000Y-183050000D02*
X232600000Y-183560000D01*
D21*
X232600000Y-183560000D02*
X232600000Y-183750000D01*
X232600000Y-183560000D02*
X232610000Y-183560000D01*
D20*
X232850000Y-183800000D02*
X234700000Y-183800000D01*
D21*
X232610000Y-183560000D02*
X232850000Y-183800000D01*
D20*
X232650000Y-183800000D02*
X232850000Y-183800000D01*
X232350000Y-183800000D02*
X226450000Y-183800000D01*
X226450000Y-183800000D02*
X223199999Y-180549999D01*
X223199999Y-180549999D02*
X222900000Y-180250000D01*
D22*
%TO.N,Net-(C317-Pad1)*%
X222190000Y-176140000D02*
X222750000Y-176140000D01*
X222750000Y-176140000D02*
X226250000Y-172640000D01*
X226250000Y-172640000D02*
X226430000Y-172460000D01*
X226670000Y-172220000D02*
X227440000Y-172220000D01*
X226430000Y-172460000D02*
X226670000Y-172220000D01*
%TO.N,Net-(C318-Pad1)*%
X227100000Y-176700000D02*
X223880000Y-176700000D01*
X228860000Y-174940000D02*
X227100000Y-176700000D01*
X223880000Y-176700000D02*
X223880000Y-176700000D01*
D21*
%TO.N,Net-(J302-Pad1)*%
X219819998Y-162000002D02*
X220720000Y-162000002D01*
X209600000Y-172220000D02*
X219819998Y-162000002D01*
X209600000Y-175750000D02*
X209600000Y-172220000D01*
X213390000Y-179540000D02*
X209600000Y-175750000D01*
X214440002Y-179540000D02*
X213390000Y-179540000D01*
%TO.N,Net-(J302-Pad2)*%
X219140000Y-159660000D02*
X220710000Y-159660000D01*
X208125000Y-170675000D02*
X219140000Y-159660000D01*
X208125000Y-176300000D02*
X208125000Y-170675000D01*
X212475000Y-180650000D02*
X208125000Y-176300000D01*
X215490000Y-180650000D02*
X212475000Y-180650000D01*
D24*
%TO.N,Net-(J302-Pad3)*%
X217090000Y-180090000D02*
X216230000Y-180950000D01*
X217711998Y-180090000D02*
X217090000Y-180090000D01*
X219350000Y-178451998D02*
X217711998Y-180090000D01*
X219350000Y-177830002D02*
X219350000Y-178451998D01*
D21*
X218830000Y-158880000D02*
X220710000Y-158880000D01*
X207600000Y-170110000D02*
X218830000Y-158880000D01*
X207600000Y-176425000D02*
X207600000Y-170110000D01*
X212190001Y-181015001D02*
X207600000Y-176425000D01*
X216164999Y-181015001D02*
X212190001Y-181015001D01*
X216230000Y-180950000D02*
X216164999Y-181015001D01*
%TO.N,Net-(J302-Pad5)*%
X219670000Y-161180000D02*
X220720000Y-161180000D01*
X209125000Y-175925000D02*
X209125000Y-171725000D01*
X213120282Y-179920282D02*
X209125000Y-175925000D01*
X209125000Y-171725000D02*
X219670000Y-161180000D01*
X214768491Y-179920282D02*
X213120282Y-179920282D01*
%TO.N,Net-(J302-Pad7)*%
X208650000Y-176150000D02*
X208650000Y-171220000D01*
X212785283Y-180285283D02*
X208650000Y-176150000D01*
X214943692Y-180285283D02*
X212785283Y-180285283D01*
X208650000Y-171220000D02*
X219430000Y-160440000D01*
X214980051Y-180248924D02*
X214943692Y-180285283D01*
X219430000Y-160440000D02*
X220710000Y-160440000D01*
X215131955Y-180248924D02*
X214980051Y-180248924D01*
%TO.N,Net-(J302-Pad8)*%
X218470000Y-158090000D02*
X220750000Y-158090000D01*
X207200000Y-169360000D02*
X218470000Y-158090000D01*
X207200000Y-176600000D02*
X207200000Y-169360000D01*
X212000000Y-181400000D02*
X207200000Y-176600000D01*
X216390000Y-181400000D02*
X212000000Y-181400000D01*
X216790000Y-181000000D02*
X216390000Y-181400000D01*
D24*
%TO.N,Net-(R307-Pad2)*%
X221625000Y-177825000D02*
X221625000Y-178150000D01*
X226525000Y-183050000D02*
X226475000Y-183000000D01*
X228775000Y-183050000D02*
X226525000Y-183050000D01*
X221625000Y-178150000D02*
X226475000Y-183000000D01*
%TO.N,Net-(U301-PadN4)*%
X222920000Y-185820000D02*
X221770000Y-185820000D01*
X221770000Y-185820000D02*
X221595000Y-185820000D01*
X221595000Y-185820000D02*
X221175000Y-185400000D01*
X221175000Y-185400000D02*
X221175000Y-183275000D01*
X221175000Y-183275000D02*
X222125000Y-182325000D01*
X222125000Y-182325000D02*
X222125000Y-180925000D01*
X221875000Y-180675000D02*
X221050000Y-180675000D01*
X222125000Y-180925000D02*
X221875000Y-180675000D01*
D22*
%TO.N,Net-(C509-Pad1)*%
X177850000Y-184560000D02*
X177850000Y-184560000D01*
X175365000Y-182865000D02*
X175405000Y-182905000D01*
X175365000Y-182605000D02*
X175365000Y-182865000D01*
X175405000Y-182905000D02*
X175235000Y-182735000D01*
X177060000Y-184560000D02*
X175405000Y-182905000D01*
D20*
X175235000Y-182735000D02*
X175365000Y-182605000D01*
D22*
X175400000Y-182900000D02*
X175405000Y-182905000D01*
X175070000Y-182900000D02*
X175400000Y-182900000D01*
D20*
X174510000Y-183460000D02*
X175070000Y-182900000D01*
X175070000Y-182900000D02*
X175235000Y-182735000D01*
X179270420Y-178699580D02*
X184637918Y-178699580D01*
X175365000Y-182605000D02*
X179270420Y-178699580D01*
X184637918Y-178699580D02*
X184937917Y-178399581D01*
D22*
X177850000Y-184560000D02*
X177060000Y-184560000D01*
D21*
%TO.N,Net-(C517-Pad1)*%
X188800000Y-177260000D02*
X188800000Y-177870000D01*
X188800000Y-177870000D02*
X191030000Y-180100000D01*
X191030000Y-180100000D02*
X191030000Y-181110000D01*
X191030000Y-181110000D02*
X192229990Y-182309990D01*
X192229990Y-182309990D02*
X192229990Y-184870000D01*
%TO.N,Net-(C518-Pad1)*%
X188230000Y-178970000D02*
X188230000Y-179540000D01*
X188230000Y-179540000D02*
X190710000Y-182020000D01*
X190710000Y-182020000D02*
X191300000Y-182610000D01*
%TO.N,Net-(J502-Pad8)*%
X175350000Y-163253426D02*
X183785787Y-171689213D01*
X175350000Y-153325000D02*
X175350000Y-163253426D01*
X176250000Y-152425000D02*
X175350000Y-153325000D01*
%TO.N,Net-(J502-Pad7)*%
X184275000Y-170550000D02*
X184275000Y-170000000D01*
X184275000Y-170000000D02*
X176700000Y-162425000D01*
X176700000Y-162425000D02*
X176700000Y-153725000D01*
X176700000Y-153725000D02*
X177050000Y-153375000D01*
%TO.N,Net-(J502-Pad5)*%
X184358748Y-171691252D02*
X175975000Y-163307504D01*
X175975000Y-163307504D02*
X175975000Y-156060000D01*
%TO.N,Net-(J502-Pad3)*%
X177350000Y-161625000D02*
X177350000Y-158450000D01*
X184725000Y-169000000D02*
X177350000Y-161625000D01*
X184725000Y-170950000D02*
X184725000Y-169000000D01*
D24*
X184725000Y-170945000D02*
X187100367Y-173320367D01*
X187100367Y-173320367D02*
X187162550Y-173320367D01*
D21*
%TO.N,Net-(J502-Pad2)*%
X177900000Y-159475000D02*
X177900000Y-161339998D01*
X177900000Y-161339998D02*
X184730002Y-168170000D01*
%TO.N,Net-(J502-Pad1)*%
X185190000Y-166715000D02*
X185190000Y-167000000D01*
X178925000Y-160450000D02*
X185190000Y-166715000D01*
%TO.N,/MCU_HYBRID/AD_B0_11*%
X188240000Y-175000000D02*
X189480000Y-176240000D01*
X186530000Y-175000000D02*
X188240000Y-175000000D01*
X185970000Y-174440000D02*
X186530000Y-175000000D01*
X191096624Y-176240000D02*
X191619371Y-176762747D01*
X189480000Y-176240000D02*
X191096624Y-176240000D01*
%TO.N,Net-(R507-Pad2)*%
X185402919Y-177797283D02*
X185402919Y-178622783D01*
X187070202Y-176130000D02*
X185402919Y-177797283D01*
X188790000Y-176130000D02*
X187070202Y-176130000D01*
X182695702Y-181330000D02*
X179430000Y-181330000D01*
X185402919Y-178622783D02*
X182695702Y-181330000D01*
D24*
%TO.N,/MCU_HYBRID/AD_B0_08*%
X196431998Y-182840000D02*
X196740000Y-182840000D01*
X194483140Y-177308165D02*
X196010000Y-178835025D01*
X196010999Y-182200999D02*
X196010999Y-182419001D01*
X196010000Y-182200000D02*
X196010999Y-182200999D01*
X196010000Y-178835025D02*
X196010000Y-182200000D01*
X196010999Y-182419001D02*
X196431998Y-182840000D01*
%TO.N,/MCU_HYBRID/AD_B0_07*%
X193330000Y-177250000D02*
X193890000Y-176690000D01*
X193330000Y-178500000D02*
X193330000Y-177250000D01*
X194740000Y-179910000D02*
X193330000Y-178500000D01*
%TO.N,/MCU_HYBRID/B0_13*%
X193649566Y-175330454D02*
X193389810Y-175070698D01*
X193649566Y-175889566D02*
X193649566Y-175330454D01*
X196440000Y-178680000D02*
X193649566Y-175889566D01*
X196440000Y-182330000D02*
X196440000Y-178680000D01*
%TO.N,/MCU_HYBRID/POR_B*%
X190480000Y-181080000D02*
X191620000Y-182220000D01*
X190480000Y-180600000D02*
X190480000Y-181080000D01*
X187172655Y-177292655D02*
X190480000Y-180600000D01*
X186464308Y-177292655D02*
X187172655Y-177292655D01*
%TO.N,/MCU_HYBRID/EMC_24*%
X189360000Y-171049998D02*
X189360000Y-167610000D01*
X189360000Y-167610000D02*
X189930000Y-167040000D01*
%TO.N,/MCU_HYBRID/EMC_25*%
X188790000Y-167660000D02*
X189170000Y-167280000D01*
X188790000Y-170480000D02*
X188790000Y-167660000D01*
D25*
%TO.N,/3V3*%
X211750000Y-151800000D02*
X212450000Y-151100000D01*
X207650000Y-151800000D02*
X211750000Y-151800000D01*
X195400000Y-151800000D02*
X207650000Y-151800000D01*
X207650000Y-151800000D02*
X208550000Y-151800000D01*
X195400000Y-157150000D02*
X195450000Y-157200000D01*
X195400000Y-151800000D02*
X195400000Y-157150000D01*
X192550000Y-140900000D02*
X211950000Y-140900000D01*
X192550000Y-140900000D02*
X193450000Y-140900000D01*
X218950000Y-133900000D02*
X223050000Y-133900000D01*
X211950000Y-140900000D02*
X218950000Y-133900000D01*
X189890000Y-146290000D02*
X195400000Y-151800000D01*
X189890000Y-140880000D02*
X189890000Y-146290000D01*
X189880000Y-140870000D02*
X189890000Y-140880000D01*
X191750000Y-140900000D02*
X192550000Y-140900000D01*
X189890000Y-140900000D02*
X191750000Y-140900000D01*
X187020000Y-138030000D02*
X189890000Y-140900000D01*
X187020000Y-84720000D02*
X187020000Y-138030000D01*
X184300000Y-82000000D02*
X187020000Y-84720000D01*
X173750000Y-82000000D02*
X184300000Y-82000000D01*
D26*
%TO.N,/5V*%
X218100000Y-110500000D02*
X219050000Y-110500000D01*
D25*
X232700000Y-177900000D02*
X235000000Y-177900000D01*
X235000000Y-177900000D02*
X235650000Y-177250000D01*
D26*
X227500000Y-84000000D02*
X234550000Y-84000000D01*
X225500000Y-86000000D02*
X225100000Y-86400000D01*
X225100000Y-86950000D02*
X226050000Y-86000000D01*
X225100000Y-87150000D02*
X225100000Y-86950000D01*
X226050000Y-86000000D02*
X225500000Y-86000000D01*
X225100000Y-104200000D02*
X225100000Y-87150000D01*
X225100000Y-87150000D02*
X225100000Y-86400000D01*
X226850000Y-86000000D02*
X226850000Y-84650000D01*
X226850000Y-84650000D02*
X227500000Y-84000000D01*
X225100000Y-86400000D02*
X226850000Y-84650000D01*
X234550000Y-86000000D02*
X226850000Y-86000000D01*
X226850000Y-86000000D02*
X226050000Y-86000000D01*
D23*
X224500000Y-104750000D02*
X224500000Y-104800000D01*
X225230000Y-104080000D02*
X225200000Y-104050000D01*
X225230000Y-105210000D02*
X224660000Y-104640000D01*
X225230000Y-105320000D02*
X225230000Y-105210000D01*
D26*
X224660000Y-104640000D02*
X225100000Y-104200000D01*
X224500000Y-104800000D02*
X224660000Y-104640000D01*
D23*
X225230000Y-105320000D02*
X225230000Y-104080000D01*
D26*
X220800000Y-109700000D02*
X220800000Y-108500000D01*
X220000000Y-110500000D02*
X220800000Y-109700000D01*
X220800000Y-108500000D02*
X224500000Y-104800000D01*
X219050000Y-110500000D02*
X220000000Y-110500000D01*
D23*
X235650000Y-177250000D02*
X235650000Y-171300000D01*
X225230000Y-133870000D02*
X225230000Y-105320000D01*
X224050000Y-135050000D02*
X225230000Y-133870000D01*
X218500000Y-136950000D02*
X220400000Y-135050000D01*
X220400000Y-135050000D02*
X224050000Y-135050000D01*
X218500000Y-154152798D02*
X218500000Y-136950000D01*
X235650000Y-171302798D02*
X218500000Y-154152798D01*
X172850000Y-171850000D02*
X174725000Y-173725000D01*
X184990000Y-87515000D02*
X184990000Y-134810000D01*
X183475000Y-86000000D02*
X184990000Y-87515000D01*
X174725000Y-173725000D02*
X175625000Y-173725000D01*
X172850000Y-146950000D02*
X172850000Y-171850000D01*
X184990000Y-134810000D02*
X172850000Y-146950000D01*
X175300000Y-86000000D02*
X183475000Y-86000000D01*
D21*
%TO.N,/SNS_SPI_MOSI*%
X218790000Y-172740000D02*
X218759271Y-172709271D01*
X218759271Y-172709271D02*
X218759271Y-172660379D01*
X213800000Y-172740000D02*
X218790000Y-172740000D01*
%TO.N,/KX122_CS*%
X226129058Y-170494283D02*
X226129058Y-171320566D01*
X224307024Y-168672249D02*
X226129058Y-170494283D01*
%TO.N,/MPU9250_CS*%
X219094999Y-170774999D02*
X215084999Y-170774999D01*
X219360000Y-171040000D02*
X219094999Y-170774999D01*
X215084999Y-170774999D02*
X214240000Y-171619998D01*
%TO.N,/MCU_AC__UART1_TX*%
X226630000Y-175670000D02*
X227360000Y-175670000D01*
X226170000Y-176130000D02*
X226630000Y-175670000D01*
X225590000Y-176130000D02*
X226170000Y-176130000D01*
X212090000Y-182140000D02*
X206740000Y-176790000D01*
X212090000Y-186240000D02*
X212090000Y-182140000D01*
X213690000Y-187840000D02*
X212090000Y-186240000D01*
X226110000Y-187840000D02*
X213690000Y-187840000D01*
X228090000Y-185860000D02*
X226110000Y-187840000D01*
X228090000Y-184880000D02*
X228090000Y-185860000D01*
X206740000Y-176790000D02*
X206740000Y-176780000D01*
X206740000Y-174010000D02*
X206740000Y-176790000D01*
X206000000Y-173270000D02*
X206740000Y-174010000D01*
%TO.N,/B2B_I2C_SDA*%
X191060000Y-178390000D02*
X192670000Y-180000000D01*
X192670000Y-180000000D02*
X193550000Y-180880000D01*
D24*
X193550000Y-180880000D02*
X193550000Y-184575000D01*
X193550000Y-184575000D02*
X194600000Y-185625000D01*
X223875000Y-174425000D02*
X225625000Y-172675000D01*
X225625000Y-172675000D02*
X225625000Y-172150000D01*
D22*
X233070000Y-207630000D02*
X233075000Y-207625000D01*
D21*
X194600000Y-207610000D02*
X194620000Y-207630000D01*
X194390000Y-207630000D02*
X194600000Y-207420000D01*
X194320000Y-207630000D02*
X194390000Y-207630000D01*
X194600000Y-207420000D02*
X194600000Y-207610000D01*
X194600000Y-207170000D02*
X194600000Y-207420000D01*
D22*
X176680000Y-207630000D02*
X194320000Y-207630000D01*
X194320000Y-207630000D02*
X194620000Y-207630000D01*
D21*
X194810000Y-207630000D02*
X194600000Y-207420000D01*
X194830000Y-207630000D02*
X194810000Y-207630000D01*
D22*
X194620000Y-207630000D02*
X194830000Y-207630000D01*
X194830000Y-207630000D02*
X233070000Y-207630000D01*
D24*
X224250000Y-169325000D02*
X224250000Y-169269994D01*
X224250000Y-169269994D02*
X224210006Y-169230000D01*
X225610000Y-170370000D02*
X225610000Y-171250002D01*
X224470000Y-169230000D02*
X225610000Y-170370000D01*
X224210006Y-169230000D02*
X224470000Y-169230000D01*
D21*
%TO.N,/B2B_I2C_SCL*%
X195000000Y-208420000D02*
X195000000Y-208670000D01*
X194790000Y-208880000D02*
X195000000Y-208670000D01*
X195210000Y-208880000D02*
X195000000Y-208670000D01*
D24*
X194450000Y-181200000D02*
X194450000Y-184675000D01*
X191620000Y-178370000D02*
X194450000Y-181200000D01*
X191620000Y-177830000D02*
X191620000Y-178370000D01*
X194450000Y-184675000D02*
X195000000Y-185225000D01*
D22*
X176710001Y-208859999D02*
X176690000Y-208880000D01*
X233080000Y-208870000D02*
X233069999Y-208859999D01*
D21*
X195000000Y-208420000D02*
X195000000Y-208849998D01*
X195000000Y-208849998D02*
X194989999Y-208859999D01*
D22*
X194989999Y-208859999D02*
X176710001Y-208859999D01*
X233069999Y-208859999D02*
X194989999Y-208859999D01*
D24*
X223720000Y-169230000D02*
X223720000Y-169020000D01*
X223720000Y-172330000D02*
X223720000Y-169020000D01*
X222200000Y-173850000D02*
X223720000Y-172330000D01*
%TO.N,/MCU_AC_UART1_RX*%
X216520000Y-172170000D02*
X213850000Y-172170000D01*
X217060000Y-171630000D02*
X216520000Y-172170000D01*
X218208002Y-171630000D02*
X217060000Y-171630000D01*
X218748002Y-172170000D02*
X218208002Y-171630000D01*
X220470000Y-172170000D02*
X218748002Y-172170000D01*
D21*
X213850000Y-172170000D02*
X212720000Y-173300000D01*
%TO.N,/MCU_AC_SPI2_MOSI*%
X212150000Y-172920000D02*
X212150000Y-173425000D01*
X215425000Y-176700000D02*
X215960000Y-176700000D01*
X219870000Y-165200000D02*
X212150000Y-172920000D01*
X228070000Y-165200000D02*
X219870000Y-165200000D01*
X212150000Y-173425000D02*
X215425000Y-176700000D01*
X229040000Y-166170000D02*
X228070000Y-165200000D01*
D24*
%TO.N,/MCU_HYB_SPI2_MOSI*%
X189015001Y-166609999D02*
X187787499Y-167837501D01*
X200190000Y-178910000D02*
X200190000Y-173800000D01*
X187787499Y-167837501D02*
X187587500Y-168037500D01*
X192999999Y-166609999D02*
X189015001Y-166609999D01*
X199025000Y-180075000D02*
X200190000Y-178910000D01*
X200190000Y-173800000D02*
X192999999Y-166609999D01*
%TO.N,/B2B_SPI_CS2*%
X194150000Y-186060000D02*
X193019999Y-184929999D01*
X193019999Y-180979519D02*
X192936580Y-180896100D01*
X193019999Y-184929999D02*
X193019999Y-180979519D01*
%TO.N,/B2B_SPI_SCK*%
X192580000Y-181042842D02*
X192580000Y-180560000D01*
X192580000Y-185360000D02*
X192580000Y-181042842D01*
X193700000Y-186480000D02*
X192580000Y-185360000D01*
%TO.N,/B2B_SPI_MISO*%
X194770000Y-184240000D02*
X195380000Y-184850000D01*
X194770000Y-181030000D02*
X194770000Y-184240000D01*
X192190000Y-178450000D02*
X194770000Y-181030000D01*
X192190000Y-177260000D02*
X192190000Y-178450000D01*
X222781137Y-172138863D02*
X222180000Y-172740000D01*
X222781137Y-168423873D02*
X222781137Y-172138863D01*
%TO.N,/B2B_SPI_MOSI*%
X195795846Y-181485846D02*
X195795846Y-184445363D01*
X192760000Y-177820000D02*
X192760000Y-178450000D01*
X192760000Y-178450000D02*
X195795846Y-181485846D01*
X221029836Y-172169836D02*
X221546380Y-172169836D01*
X220500000Y-171640000D02*
X221029836Y-172169836D01*
X220500000Y-171050000D02*
X220500000Y-171640000D01*
D27*
%TO.N,/9V_PT_SUPPLY*%
X233070000Y-216370000D02*
X232430000Y-215730000D01*
X177350000Y-215730000D02*
X176700000Y-216380000D01*
D22*
X184700000Y-215730000D02*
X185070000Y-215730000D01*
D27*
X184700000Y-215730000D02*
X177350000Y-215730000D01*
X186870000Y-217920000D02*
X189060000Y-215730000D01*
X186870000Y-222570000D02*
X186870000Y-217920000D01*
X189060000Y-215730000D02*
X184700000Y-215730000D01*
X195200000Y-217370000D02*
X196840000Y-215730000D01*
X195200000Y-222570000D02*
X195200000Y-217370000D01*
X196840000Y-215730000D02*
X189060000Y-215730000D01*
X203500000Y-217150000D02*
X204920000Y-215730000D01*
X204920000Y-215730000D02*
X196840000Y-215730000D01*
X203500000Y-222570000D02*
X203500000Y-217150000D01*
X232430000Y-215730000D02*
X204920000Y-215730000D01*
D21*
%TO.N,/B2B_SERVO4*%
X202820000Y-213440000D02*
X202820000Y-213690000D01*
X202610000Y-213900000D02*
X202820000Y-213690000D01*
X203030000Y-213900000D02*
X202820000Y-213690000D01*
D22*
X233060000Y-213880000D02*
X233070000Y-213870000D01*
D21*
X202890000Y-213760000D02*
X202820000Y-213690000D01*
X202890000Y-213880000D02*
X202890000Y-213760000D01*
D22*
X176700000Y-213880000D02*
X202890000Y-213880000D01*
X202890000Y-213880000D02*
X233060000Y-213880000D01*
D24*
X218355000Y-178825000D02*
X214050000Y-178825000D01*
X218790000Y-178390000D02*
X218355000Y-178825000D01*
X188650000Y-165400000D02*
X194140000Y-165400000D01*
X194140000Y-165400000D02*
X202820000Y-174080000D01*
X185690000Y-168360000D02*
X188650000Y-165400000D01*
X188240000Y-173300000D02*
X185690000Y-170750000D01*
X185690000Y-170750000D02*
X185690000Y-168360000D01*
X202820000Y-174080000D02*
X202820000Y-177300000D01*
D21*
%TO.N,/B2B_SERVO3*%
X203510000Y-212180000D02*
X203510000Y-212430000D01*
X203300000Y-212640000D02*
X203510000Y-212430000D01*
X203720000Y-212640000D02*
X203510000Y-212430000D01*
D22*
X233060000Y-212620000D02*
X233070000Y-212630000D01*
D21*
X203510000Y-212180000D02*
X203510000Y-212610000D01*
D22*
X203520000Y-212620000D02*
X233060000Y-212620000D01*
D21*
X203510000Y-212610000D02*
X203520000Y-212620000D01*
D22*
X176700000Y-212620000D02*
X203520000Y-212620000D01*
D24*
X218240772Y-176700772D02*
X216621051Y-178320493D01*
X216621051Y-178320493D02*
X213541515Y-178320493D01*
X187650000Y-173289815D02*
X185280000Y-170919815D01*
X185280000Y-170919815D02*
X185280000Y-168210000D01*
X194410000Y-164890000D02*
X203510011Y-173990011D01*
X203510011Y-177017012D02*
X203510011Y-177299854D01*
X188600000Y-164890000D02*
X194410000Y-164890000D01*
X185280000Y-168210000D02*
X188600000Y-164890000D01*
X187650000Y-173870000D02*
X187650000Y-173289815D01*
X203510011Y-173990011D02*
X203510011Y-177017012D01*
D21*
%TO.N,/B2B_SERVO2*%
X201120000Y-210940000D02*
X201120000Y-211190000D01*
X200910000Y-211400000D02*
X201120000Y-211190000D01*
X201330000Y-211400000D02*
X201120000Y-211190000D01*
D22*
X176710000Y-211380000D02*
X176700000Y-211370000D01*
D24*
X214250000Y-177830000D02*
X214250000Y-177830000D01*
D21*
X201310000Y-211360000D02*
X201290000Y-211380000D01*
D22*
X201290000Y-211380000D02*
X176710000Y-211380000D01*
X233070000Y-211380000D02*
X201290000Y-211380000D01*
D24*
X217670000Y-176130000D02*
X215962987Y-177837013D01*
X215962987Y-177837013D02*
X213012004Y-177837013D01*
X187020000Y-168086998D02*
X188886998Y-166220000D01*
X188886998Y-166220000D02*
X193400000Y-166220000D01*
X187020000Y-170970000D02*
X187020000Y-168086998D01*
X201075000Y-173895000D02*
X201075000Y-176574996D01*
X193400000Y-166220000D02*
X201075000Y-173895000D01*
X188790000Y-172740000D02*
X187020000Y-170970000D01*
D21*
%TO.N,/B2B_SERVO1*%
X201790000Y-209670000D02*
X201790000Y-209920000D01*
X201580000Y-210130000D02*
X201790000Y-209920000D01*
X202000000Y-210130000D02*
X201790000Y-209920000D01*
D22*
X233059999Y-210109999D02*
X233070000Y-210120000D01*
X176690000Y-210120000D02*
X176700001Y-210109999D01*
D21*
X201790000Y-210049998D02*
X201850001Y-210109999D01*
X201790000Y-209670000D02*
X201790000Y-210049998D01*
D22*
X201850001Y-210109999D02*
X233059999Y-210109999D01*
X176700001Y-210109999D02*
X201850001Y-210109999D01*
D24*
X215400000Y-177260000D02*
X212515000Y-177260000D01*
X212515000Y-177260000D02*
X212500000Y-177275000D01*
X193780000Y-165810000D02*
X188750000Y-165810000D01*
X188750000Y-165810000D02*
X186230000Y-168330000D01*
X201790002Y-173820002D02*
X193780000Y-165810000D01*
X186230000Y-168330000D02*
X186230000Y-169020000D01*
X201790002Y-176250000D02*
X201790002Y-173820002D01*
D21*
%TO.N,/SLND_TRIG*%
X217660000Y-157850000D02*
X206320000Y-169190000D01*
X206320000Y-169190000D02*
X206320000Y-170420000D01*
X206320000Y-170420000D02*
X205430000Y-171310000D01*
X205430000Y-174970000D02*
X206210000Y-175750000D01*
X205430000Y-171310000D02*
X205430000Y-174970000D01*
D22*
%TO.N,/MCU_AC/3V3_MCU*%
X220500000Y-173310000D02*
X220490000Y-173300000D01*
X220500000Y-173890000D02*
X220500000Y-173310000D01*
X218782798Y-174440000D02*
X218230000Y-174992798D01*
X218230000Y-174992798D02*
X218230000Y-175560000D01*
D21*
X220740000Y-174130000D02*
X220715000Y-174105000D01*
X220740000Y-174440000D02*
X220740000Y-174130000D01*
D22*
X220715000Y-174105000D02*
X220500000Y-173890000D01*
X221050000Y-174440000D02*
X220715000Y-174105000D01*
X221050000Y-174440000D02*
X220740000Y-174440000D01*
X220740000Y-174440000D02*
X218782798Y-174440000D01*
X226710000Y-175020000D02*
X226160000Y-175570000D01*
X227580000Y-174150000D02*
X226710000Y-175020000D01*
X229200000Y-174150000D02*
X227580000Y-174150000D01*
X221050000Y-174440000D02*
X221630002Y-174440000D01*
X229200000Y-174150000D02*
X229200000Y-172910000D01*
X219920000Y-179120000D02*
X219920000Y-177270000D01*
X220500000Y-179700000D02*
X219920000Y-179120000D01*
X220500000Y-183400000D02*
X220500000Y-179700000D01*
X220150000Y-183750000D02*
X220500000Y-183400000D01*
X220150000Y-184250000D02*
X220150000Y-183750000D01*
D27*
X231650000Y-176600000D02*
X229200000Y-174150000D01*
X231650000Y-179580000D02*
X231650000Y-176600000D01*
X233890000Y-181820000D02*
X231650000Y-179580000D01*
D22*
X222185000Y-174440000D02*
X221630002Y-174440000D01*
X224895001Y-171729999D02*
X222185000Y-174440000D01*
X228019999Y-171729999D02*
X224895001Y-171729999D01*
X229200000Y-172910000D02*
X228019999Y-171729999D01*
X219920000Y-176550000D02*
X219920000Y-177270000D01*
X218930000Y-175560000D02*
X219920000Y-176550000D01*
X218230000Y-175560000D02*
X218930000Y-175560000D01*
X231198206Y-170911794D02*
X231198206Y-168872470D01*
X229200000Y-172910000D02*
X231198206Y-170911794D01*
X231198206Y-168872470D02*
X231198206Y-168448206D01*
X230004264Y-167980000D02*
X230730000Y-167980000D01*
X230730000Y-167980000D02*
X231198206Y-168448206D01*
X227924264Y-165900000D02*
X230004264Y-167980000D01*
X227500000Y-165900000D02*
X227924264Y-165900000D01*
X214075000Y-185025000D02*
X216200000Y-185025000D01*
X216975000Y-184250000D02*
X220150000Y-184250000D01*
X216200000Y-185025000D02*
X216975000Y-184250000D01*
X222925000Y-187250000D02*
X222250000Y-187250000D01*
X220150000Y-185150000D02*
X220150000Y-184250000D01*
X222250000Y-187250000D02*
X220150000Y-185150000D01*
D21*
%TO.N,/ZOE_CS*%
X222640204Y-152400000D02*
X219230000Y-152400000D01*
X228320000Y-141610000D02*
X228320000Y-146720204D01*
X228320000Y-146720204D02*
X222640204Y-152400000D01*
X227060000Y-140350000D02*
X228320000Y-141610000D01*
X212673201Y-160096799D02*
X212673201Y-152753201D01*
X211965000Y-160805000D02*
X212673201Y-160096799D01*
X211405000Y-161705000D02*
X211420000Y-161720000D01*
X211420000Y-161720000D02*
X211235000Y-161535000D01*
X211405000Y-161365000D02*
X211405000Y-161705000D01*
X211700000Y-162000000D02*
X211420000Y-161720000D01*
X211235000Y-161535000D02*
X211405000Y-161365000D01*
X211405000Y-161365000D02*
X211965000Y-160805000D01*
X211400000Y-161710000D02*
X211405000Y-161705000D01*
X211060000Y-161710000D02*
X211400000Y-161710000D01*
X209800000Y-162970000D02*
X211060000Y-161710000D01*
X211060000Y-161710000D02*
X211965000Y-160805000D01*
D24*
%TO.N,/INTER_MCU_UART_TX*%
X211119990Y-172386012D02*
X211119990Y-173793555D01*
X216596002Y-166910000D02*
X211119990Y-172386012D01*
X217130000Y-166910000D02*
X216596002Y-166910000D01*
%TO.N,/INTER_MCU_UART_RX*%
X211500000Y-172940000D02*
X211500000Y-174210000D01*
X216910000Y-167530000D02*
X211500000Y-172940000D01*
D22*
%TO.N,/MCU_HYBRID/3V3_MCU*%
X189920000Y-181790000D02*
X188800000Y-181790000D01*
D21*
X189920000Y-183150000D02*
X189920000Y-181790000D01*
X189920000Y-183150000D02*
X189920000Y-183170000D01*
X189920000Y-183150000D02*
X189920000Y-183160000D01*
X189940000Y-183150000D02*
X190390000Y-183600000D01*
X189920000Y-183150000D02*
X189940000Y-183150000D01*
D24*
X189930000Y-172118002D02*
X189930000Y-171600000D01*
X187618002Y-174430000D02*
X189930000Y-172118002D01*
X187100000Y-174430000D02*
X187618002Y-174430000D01*
D20*
X194390000Y-161680000D02*
X191200000Y-158490000D01*
X197220000Y-164510000D02*
X199760000Y-167050000D01*
D21*
X195600000Y-187020000D02*
X200160000Y-182460000D01*
X193110000Y-187020000D02*
X195600000Y-187020000D01*
X190390000Y-184300000D02*
X193110000Y-187020000D01*
X190390000Y-183600000D02*
X190390000Y-184300000D01*
D20*
X194390000Y-161680000D02*
X197220000Y-164510000D01*
D24*
X190490000Y-178380000D02*
X190490000Y-176710000D01*
X191648094Y-181211906D02*
X192079999Y-180780001D01*
X192079999Y-179969999D02*
X190490000Y-178380000D01*
X192079999Y-180780001D02*
X192079999Y-179969999D01*
D20*
X199760000Y-167050000D02*
X204690000Y-171980000D01*
X204690000Y-171980000D02*
X204690000Y-181465736D01*
X204690000Y-181465736D02*
X204690000Y-181890000D01*
D22*
X189430000Y-163470000D02*
X195120000Y-163470000D01*
X196180000Y-163470000D02*
X197220000Y-164510000D01*
X187240000Y-165660000D02*
X189430000Y-163470000D01*
X186150000Y-165660000D02*
X187240000Y-165660000D01*
X195120000Y-163470000D02*
X196180000Y-163470000D01*
D21*
X189920000Y-183150000D02*
X186440000Y-186630000D01*
X186440000Y-186630000D02*
X181300000Y-186630000D01*
X181300000Y-186630000D02*
X180430001Y-185760001D01*
%TD*%
M02*
