%TF.GenerationSoftware,KiCad,Pcbnew,6.0.5*%
%TF.CreationDate,2022-05-19T12:05:37-04:00*%
%TF.ProjectId,Blackbox,426c6163-6b62-46f7-982e-6b696361645f,rev?*%
%TF.SameCoordinates,Original*%
%TF.FileFunction,Paste,Bot*%
%TF.FilePolarity,Positive*%
%FSLAX46Y46*%
G04 Gerber Fmt 4.6, Leading zero omitted, Abs format (unit mm)*
G04 Created by KiCad (PCBNEW 6.0.5) date 2022-05-19 12:05:37*
%MOMM*%
%LPD*%
G01*
G04 APERTURE LIST*
G04 Aperture macros list*
%AMRoundRect*
0 Rectangle with rounded corners*
0 $1 Rounding radius*
0 $2 $3 $4 $5 $6 $7 $8 $9 X,Y pos of 4 corners*
0 Add a 4 corners polygon primitive as box body*
4,1,4,$2,$3,$4,$5,$6,$7,$8,$9,$2,$3,0*
0 Add four circle primitives for the rounded corners*
1,1,$1+$1,$2,$3*
1,1,$1+$1,$4,$5*
1,1,$1+$1,$6,$7*
1,1,$1+$1,$8,$9*
0 Add four rect primitives between the rounded corners*
20,1,$1+$1,$2,$3,$4,$5,0*
20,1,$1+$1,$4,$5,$6,$7,0*
20,1,$1+$1,$6,$7,$8,$9,0*
20,1,$1+$1,$8,$9,$2,$3,0*%
G04 Aperture macros list end*
%ADD10RoundRect,0.250000X0.475000X-0.250000X0.475000X0.250000X-0.475000X0.250000X-0.475000X-0.250000X0*%
%ADD11RoundRect,0.250000X-0.475000X0.250000X-0.475000X-0.250000X0.475000X-0.250000X0.475000X0.250000X0*%
%ADD12RoundRect,0.250000X-0.250000X-0.475000X0.250000X-0.475000X0.250000X0.475000X-0.250000X0.475000X0*%
%ADD13RoundRect,0.250000X0.250000X0.475000X-0.250000X0.475000X-0.250000X-0.475000X0.250000X-0.475000X0*%
%ADD14RoundRect,0.250000X0.450000X-0.262500X0.450000X0.262500X-0.450000X0.262500X-0.450000X-0.262500X0*%
%ADD15RoundRect,0.087500X0.087500X-0.187500X0.087500X0.187500X-0.087500X0.187500X-0.087500X-0.187500X0*%
%ADD16RoundRect,0.087500X0.187500X-0.087500X0.187500X0.087500X-0.187500X0.087500X-0.187500X-0.087500X0*%
%ADD17RoundRect,0.150000X0.512500X0.150000X-0.512500X0.150000X-0.512500X-0.150000X0.512500X-0.150000X0*%
%ADD18R,0.550000X0.950000*%
%ADD19R,0.230000X0.350000*%
%ADD20R,0.350000X0.230000*%
G04 APERTURE END LIST*
D10*
%TO.C,C122*%
X157770000Y-100830000D03*
X157770000Y-98930000D03*
%TD*%
%TO.C,C124*%
X141800000Y-106175000D03*
X141800000Y-104275000D03*
%TD*%
%TO.C,C107*%
X146400000Y-101400000D03*
X146400000Y-99500000D03*
%TD*%
%TO.C,C106*%
X149400000Y-101025000D03*
X149400000Y-99125000D03*
%TD*%
D11*
%TO.C,C103*%
X179800000Y-104350000D03*
X179800000Y-106250000D03*
%TD*%
D12*
%TO.C,C105*%
X151196000Y-100584000D03*
X153096000Y-100584000D03*
%TD*%
D13*
%TO.C,C125*%
X144825000Y-112850000D03*
X142925000Y-112850000D03*
%TD*%
D14*
%TO.C,R101*%
X148100000Y-113312500D03*
X148100000Y-111487500D03*
%TD*%
D11*
%TO.C,C104*%
X152475000Y-106000000D03*
X152475000Y-107900000D03*
%TD*%
D15*
%TO.C,U1*%
X180578000Y-101301000D03*
X180078000Y-101301000D03*
X179578000Y-101301000D03*
X179078000Y-101301000D03*
X178578000Y-101301000D03*
D16*
X178353000Y-100576000D03*
X178353000Y-100076000D03*
X178353000Y-99576000D03*
D15*
X178578000Y-98851000D03*
X179078000Y-98851000D03*
X179578000Y-98851000D03*
X180078000Y-98851000D03*
X180578000Y-98851000D03*
D16*
X180803000Y-99576000D03*
X180803000Y-100076000D03*
X180803000Y-100576000D03*
%TD*%
D10*
%TO.C,C123*%
X146550000Y-109200000D03*
X146550000Y-107300000D03*
%TD*%
D12*
%TO.C,C101*%
X159898000Y-99060000D03*
X161798000Y-99060000D03*
%TD*%
D11*
%TO.C,C102*%
X177370000Y-104140000D03*
X177370000Y-106040000D03*
%TD*%
D17*
%TO.C,U5*%
X144287500Y-108900000D03*
X144287500Y-109850000D03*
X144287500Y-110800000D03*
X142012500Y-110800000D03*
X142012500Y-108900000D03*
%TD*%
D18*
%TO.C,U4*%
X163571000Y-100076500D03*
X164821000Y-100076500D03*
X166071000Y-100076500D03*
X167321000Y-100076500D03*
X167321000Y-102226500D03*
X166071000Y-102226500D03*
X164821000Y-102226500D03*
X163571000Y-102226500D03*
%TD*%
D19*
%TO.C,U2*%
X149647500Y-103182500D03*
D20*
X149617500Y-103762500D03*
X149617500Y-104192500D03*
X149617500Y-104622500D03*
X149617500Y-105052500D03*
D19*
X149647500Y-105632500D03*
X149217500Y-105632500D03*
X148787500Y-105632500D03*
X148357500Y-105632500D03*
X147927500Y-105632500D03*
X147497500Y-105632500D03*
X147067500Y-105632500D03*
X146637500Y-105632500D03*
D20*
X146667500Y-105052500D03*
X146667500Y-104622500D03*
X146667500Y-104192500D03*
X146667500Y-103762500D03*
D19*
X146637500Y-103182500D03*
X147067500Y-103182500D03*
X147497500Y-103182500D03*
X147927500Y-103182500D03*
X148357500Y-103182500D03*
X148787500Y-103182500D03*
X149217500Y-103182500D03*
%TD*%
D12*
%TO.C,C108*%
X151384000Y-102870000D03*
X153284000Y-102870000D03*
%TD*%
D14*
%TO.C,R102*%
X150000000Y-113312500D03*
X150000000Y-111487500D03*
%TD*%
M02*
