M48
; DRILL file {KiCad 6.0.5} date Thu May 19 12:05:34 2022
; FORMAT={-:-/ absolute / inch / decimal}
; #@! TF.CreationDate,2022-05-19T12:05:34-04:00
; #@! TF.GenerationSoftware,Kicad,Pcbnew,6.0.5
; #@! TF.FileFunction,Plated,1,2,PTH
FMAT,2
INCH
; #@! TA.AperFunction,Plated,PTH,ViaDrill
T1C0.0157
; #@! TA.AperFunction,Plated,PTH,ComponentDrill
T2C0.0295
; #@! TA.AperFunction,Plated,PTH,ComponentDrill
T3C0.0394
%
G90
G05
T1
X5.624Y-4.3248
X5.8267Y-4.108
X5.8307Y-4.3307
X5.8604Y-4.1283
X5.8937Y-4.3386
X5.9209Y-4.1296
X5.9646Y-3.878
X6.0433Y-4.4488
X6.0561Y-4.4
X6.0787Y-3.9055
X6.0965Y-4.5316
X6.0974Y-4.2333
X6.1024Y-4.1555
X6.12Y-4.5
X6.1398Y-4.1909
X6.1663Y-4.4163
X6.1683Y-4.5109
X6.2333Y-4.2769
X6.2372Y-4.064
X6.2382Y-4.0246
X6.2867Y-4.3607
X6.298Y-4.4555
X6.3035Y-4.4165
X6.3396Y-4.0689
X6.3637Y-3.95
X6.3739Y-4.4637
X6.3777Y-4.0787
X6.3907Y-4.2382
X6.3996Y-4.1979
X6.4054Y-3.94
X6.4163Y-4.121
X6.4478Y-4.0748
X6.4532Y-4.1766
X6.4586Y-4.2415
X6.4871Y-4.1171
X6.4882Y-4.3142
X6.5086Y-4.0576
X6.5235Y-4.1319
X6.5236Y-4.4882
X6.53Y-4.22
X6.5534Y-4.4493
X6.565Y-3.9824
X6.5728Y-3.8976
X6.5885Y-4.4794
X6.6232Y-4.4609
X6.63Y-3.8976
X6.6372Y-4.2307
X6.6535Y-4.1195
X6.689Y-3.9606
X6.7185Y-4.0748
X6.7352Y-4.4165
X6.7536Y-4.3707
X6.8002Y-3.94
X6.8396Y-4.4114
X6.8425Y-4.3524
X6.878Y-3.8918
X6.88Y-3.99
X6.92Y-3.9
X6.9331Y-4.376
X6.9377Y-3.9815
X6.9707Y-3.96
X6.9873Y-3.9244
X7.0276Y-4.0266
X7.0581Y-3.937
X7.0679Y-4.2608
X7.0719Y-4.0344
X7.0756Y-4.5056
X7.09Y-4.34
X7.11Y-4.5266
X7.14Y-4.36
X7.1693Y-4.126
X7.1713Y-4.2002
X7.1949Y-4.4252
X7.2608Y-4.2844
X7.2913Y-4.1378
X7.3Y-4.4425
X7.3041Y-4.2943
X7.4065Y-4.3
X7.4065Y-4.46
X7.5Y-3.9016
T2
X5.8709Y-3.7996
X5.9496Y-3.7996
T3
X5.8199Y-4.5837
X5.9199Y-4.5837
X6.0199Y-4.5837
X6.1199Y-4.5837
X6.1938Y-3.819
X6.2199Y-4.5837
X6.2938Y-3.819
X6.3199Y-4.5837
X6.3938Y-3.819
X6.4199Y-4.5837
X6.4938Y-3.819
X6.5199Y-4.5837
X6.5938Y-3.819
X6.6199Y-4.5837
X6.6938Y-3.819
X6.7199Y-4.5837
X6.7938Y-3.819
X6.8199Y-4.5837
X6.8938Y-3.819
X6.9199Y-4.5837
X6.9938Y-3.819
X7.0199Y-4.5837
X7.0938Y-3.819
X7.1199Y-4.5837
X7.1938Y-3.819
X7.2199Y-4.5837
X7.2938Y-3.819
X7.3199Y-4.5837
T0
M30
