M48
; DRILL file {KiCad 5.1.9-73d0e3b20d~88~ubuntu20.04.1} date Sun Apr 18 23:14:08 2021
; FORMAT={-:-/ absolute / inch / decimal}
; #@! TF.CreationDate,2021-04-18T23:14:08-05:00
; #@! TF.GenerationSoftware,Kicad,Pcbnew,5.1.9-73d0e3b20d~88~ubuntu20.04.1
; #@! TF.FileFunction,Plated,1,2,PTH
FMAT,2
INCH
T1C0.0157
T2C0.0197
T3C0.0402
T4C0.1260
T5C0.1772
%
G90
G05
T1
X7.4307Y-8.3142
X7.4567Y-7.3512
X7.6717Y-3.2598
X7.6906Y-3.1811
X7.7043Y-3.1024
X7.7142Y-3.0236
X7.7756Y-5.2004
X7.7756Y-5.2386
X7.8937Y-6.1969
X7.8937Y-6.2559
X7.8937Y-6.315
X7.9528Y-5.1535
X7.9528Y-5.2126
X7.9528Y-5.2717
X7.9528Y-6.1969
X7.9528Y-6.2559
X7.9528Y-6.315
X8.0Y-3.6484
X8.0Y-3.689
X8.0Y-3.7283
X8.0Y-3.7677
X8.0118Y-5.1535
X8.0118Y-5.2126
X8.0118Y-5.2717
X8.0118Y-6.1969
X8.0118Y-6.2559
X8.0118Y-6.315
X8.0709Y-5.1535
X8.0709Y-5.2126
X8.0709Y-5.2717
X8.0709Y-6.1969
X8.0709Y-6.2559
X8.0709Y-6.315
X8.1299Y-5.1535
X8.1299Y-5.2126
X8.1299Y-5.2717
X8.1394Y-8.4598
X8.1402Y-8.2705
X8.1728Y-4.7413
X8.1732Y-3.7126
X8.1732Y-3.7717
X8.1732Y-3.8307
X8.1732Y-3.8898
X8.2236Y-4.7413
X8.2323Y-3.7126
X8.2323Y-3.7717
X8.2323Y-3.8307
X8.2323Y-3.8898
X8.2575Y-8.4606
X8.2579Y-8.2728
X8.2913Y-3.7126
X8.2913Y-3.7717
X8.2913Y-3.8307
X8.2913Y-3.8898
X8.5232Y-7.9547
X8.5961Y-7.913
X8.9268Y-8.4689
X8.9276Y-8.2811
X9.0988Y-8.185
X9.1181Y-3.7126
X9.1181Y-3.7717
X9.1181Y-3.8307
X9.1181Y-3.8898
X9.1551Y-4.2398
X9.1772Y-3.7126
X9.1772Y-3.7717
X9.1772Y-3.8307
X9.1772Y-3.8898
X9.1878Y-4.2071
X9.2362Y-3.7126
X9.2362Y-3.7717
X9.2362Y-3.8307
X9.2362Y-3.8898
X9.3228Y-4.9213
X9.3228Y-4.9803
X9.3228Y-5.0394
X9.3228Y-5.0984
X9.3228Y-5.9134
X9.3228Y-5.9724
X9.3228Y-6.0315
X9.3228Y-6.0906
X9.3339Y-8.3626
X9.3368Y-8.2156
X9.3819Y-4.9213
X9.3819Y-4.9803
X9.3819Y-5.0394
X9.3819Y-5.0984
X9.3819Y-5.9134
X9.3819Y-5.9724
X9.3819Y-6.0315
X9.3819Y-6.0906
X9.3843Y-3.0236
X9.3929Y-3.1024
X9.4087Y-3.1811
X9.426Y-3.2598
X9.4409Y-4.9213
X9.4409Y-4.9803
X9.4409Y-5.0394
X9.4409Y-5.0984
X9.4409Y-5.9134
X9.4409Y-5.9724
X9.4409Y-6.0315
X9.4409Y-6.0906
X9.4848Y-8.1663
T2
X7.4606Y-2.5512
X7.4606Y-8.5512
X7.4883Y-2.4844
X7.4883Y-2.618
X7.4883Y-8.4844
X7.4883Y-8.618
X7.5551Y-2.4567
X7.5551Y-2.6457
X7.5551Y-8.4567
X7.5551Y-8.6457
X7.6219Y-2.4844
X7.6219Y-2.618
X7.6219Y-8.4844
X7.6219Y-8.618
X7.6496Y-2.5512
X7.6496Y-8.5512
X9.4232Y-2.5512
X9.4232Y-8.5492
X9.4509Y-2.4844
X9.4509Y-2.618
X9.4509Y-8.4824
X9.4509Y-8.616
X9.5177Y-2.4567
X9.5177Y-2.6457
X9.5177Y-8.4547
X9.5177Y-8.6437
X9.5845Y-2.4844
X9.5845Y-2.618
X9.5845Y-8.4824
X9.5845Y-8.616
X9.6122Y-2.5512
X9.6122Y-8.5492
T3
X7.515Y-4.739
X7.515Y-4.839
X7.515Y-4.939
X7.515Y-5.039
X7.515Y-5.139
X7.515Y-5.239
X7.5165Y-5.7827
X7.5165Y-5.8827
X7.5165Y-5.9827
X7.5165Y-6.0827
X7.5165Y-6.1827
X7.5165Y-6.2827
X7.615Y-4.739
X7.615Y-4.839
X7.615Y-4.939
X7.615Y-5.039
X7.615Y-5.139
X7.615Y-5.239
X7.6165Y-5.7827
X7.6165Y-5.8827
X7.6165Y-5.9827
X7.6165Y-6.0827
X7.6165Y-6.1827
X7.6165Y-6.2827
X7.7205Y-4.0051
X7.7205Y-4.1051
X7.7205Y-4.2051
X7.7205Y-4.3051
X7.7205Y-4.4051
X7.8205Y-4.0051
X8.6547Y-4.739
X8.6547Y-4.839
X8.6547Y-4.939
X8.6547Y-5.039
X8.6547Y-5.139
X8.6547Y-5.239
X8.6551Y-5.7827
X8.6551Y-5.8827
X8.6551Y-5.9827
X8.6551Y-6.0827
X8.6551Y-6.1827
X8.6551Y-6.2827
X8.6563Y-3.9799
X8.6563Y-4.0799
X8.6563Y-4.1799
X8.6563Y-4.2799
X8.6563Y-4.3799
X8.7547Y-4.739
X8.7547Y-4.839
X8.7547Y-4.939
X8.7547Y-5.039
X8.7547Y-5.139
X8.7547Y-5.239
X8.7551Y-5.7827
X8.7551Y-5.8827
X8.7551Y-5.9827
X8.7551Y-6.0827
X8.7551Y-6.1827
X8.7551Y-6.2827
T4
X7.5551Y-2.5532
X7.5551Y-8.5532
X9.5177Y-2.5532
X9.5177Y-8.5512
T5
X8.0411Y-2.6323
X8.0411Y-2.9157
X8.5333Y-2.6323
X8.5333Y-2.9157
X9.0254Y-2.6323
X9.0254Y-2.9157
T0
M30
