%TF.GenerationSoftware,KiCad,Pcbnew,5.1.9-73d0e3b20d~88~ubuntu20.04.1*%
%TF.CreationDate,2021-04-18T23:14:10-05:00*%
%TF.ProjectId,POWER,504f5745-522e-46b6-9963-61645f706362,rev?*%
%TF.SameCoordinates,Original*%
%TF.FileFunction,Copper,L2,Bot*%
%TF.FilePolarity,Positive*%
%FSLAX46Y46*%
G04 Gerber Fmt 4.6, Leading zero omitted, Abs format (unit mm)*
G04 Created by KiCad (PCBNEW 5.1.9-73d0e3b20d~88~ubuntu20.04.1) date 2021-04-18 23:14:10*
%MOMM*%
%LPD*%
G01*
G04 APERTURE LIST*
%TA.AperFunction,NonConductor*%
%ADD10C,0.300000*%
%TD*%
%TA.AperFunction,NonConductor*%
%ADD11C,0.150000*%
%TD*%
%TA.AperFunction,NonConductor*%
%ADD12C,0.200000*%
%TD*%
%TA.AperFunction,NonConductor*%
%ADD13C,0.100000*%
%TD*%
%TA.AperFunction,WasherPad*%
%ADD14C,2.800000*%
%TD*%
%TA.AperFunction,ComponentPad*%
%ADD15C,1.750000*%
%TD*%
%TA.AperFunction,ComponentPad*%
%ADD16C,6.000000*%
%TD*%
%TA.AperFunction,ComponentPad*%
%ADD17C,6.400000*%
%TD*%
%TA.AperFunction,ComponentPad*%
%ADD18C,0.800000*%
%TD*%
%TA.AperFunction,ViaPad*%
%ADD19C,0.800000*%
%TD*%
%TA.AperFunction,Conductor*%
%ADD20C,2.000000*%
%TD*%
%TA.AperFunction,Conductor*%
%ADD21C,0.300000*%
%TD*%
%TA.AperFunction,Conductor*%
%ADD22C,1.000000*%
%TD*%
%TA.AperFunction,Conductor*%
%ADD23C,0.250000*%
%TD*%
%TA.AperFunction,Conductor*%
%ADD24C,0.254000*%
%TD*%
%TA.AperFunction,Conductor*%
%ADD25C,0.100000*%
%TD*%
G04 APERTURE END LIST*
D10*
X194900000Y-219400000D02*
G75*
G03*
X196400000Y-220900000I1500000J0D01*
G01*
D11*
X251750000Y-61400000D02*
G75*
G03*
X250150000Y-59800000I-1600000J0D01*
G01*
X250250000Y-219100000D02*
G75*
G02*
X248650000Y-220700000I-1600000J0D01*
G01*
G36*
X183400000Y-220600000D02*
G01*
X181900000Y-220600000D01*
X181900000Y-61400000D01*
X183400000Y-61400000D01*
X183400000Y-220600000D01*
G37*
X183400000Y-220600000D02*
X181900000Y-220600000D01*
X181900000Y-61400000D01*
X183400000Y-61400000D01*
X183400000Y-220600000D01*
X183500000Y-59800000D02*
G75*
G03*
X181900000Y-61400000I0J-1600000D01*
G01*
G36*
X250550000Y-59900000D02*
G01*
X251150000Y-60200000D01*
X251450000Y-60600000D01*
X251650000Y-61000000D01*
X251750000Y-61400000D01*
X251750000Y-62900000D01*
X250250000Y-62900000D01*
X250150000Y-62300000D01*
X249950000Y-61900000D01*
X249650000Y-61600000D01*
X249250000Y-61400000D01*
X248750000Y-61300000D01*
X248750000Y-59800000D01*
X250150000Y-59800000D01*
X250550000Y-59900000D01*
G37*
X250550000Y-59900000D02*
X251150000Y-60200000D01*
X251450000Y-60600000D01*
X251650000Y-61000000D01*
X251750000Y-61400000D01*
X251750000Y-62900000D01*
X250250000Y-62900000D01*
X250150000Y-62300000D01*
X249950000Y-61900000D01*
X249650000Y-61600000D01*
X249250000Y-61400000D01*
X248750000Y-61300000D01*
X248750000Y-59800000D01*
X250150000Y-59800000D01*
X250550000Y-59900000D01*
X251750000Y-220600000D02*
G75*
G02*
X250150000Y-222200000I-1600000J0D01*
G01*
G36*
X250200000Y-222200000D02*
G01*
X183500000Y-222200000D01*
X183500000Y-220700000D01*
X250200000Y-220700000D01*
X250200000Y-222200000D01*
G37*
X250200000Y-222200000D02*
X183500000Y-222200000D01*
X183500000Y-220700000D01*
X250200000Y-220700000D01*
X250200000Y-222200000D01*
G36*
X185000000Y-61300000D02*
G01*
X184400000Y-61400000D01*
X184000000Y-61600000D01*
X183700000Y-61900000D01*
X183500000Y-62300000D01*
X183400000Y-62800000D01*
X181900000Y-62800000D01*
X181900000Y-61400000D01*
X182000000Y-61000000D01*
X182300000Y-60400000D01*
X182700000Y-60100000D01*
X183100000Y-59900000D01*
X183500000Y-59800000D01*
X185000000Y-59800000D01*
X185000000Y-61300000D01*
G37*
X185000000Y-61300000D02*
X184400000Y-61400000D01*
X184000000Y-61600000D01*
X183700000Y-61900000D01*
X183500000Y-62300000D01*
X183400000Y-62800000D01*
X181900000Y-62800000D01*
X181900000Y-61400000D01*
X182000000Y-61000000D01*
X182300000Y-60400000D01*
X182700000Y-60100000D01*
X183100000Y-59900000D01*
X183500000Y-59800000D01*
X185000000Y-59800000D01*
X185000000Y-61300000D01*
G36*
X250200000Y-61300000D02*
G01*
X185000000Y-61300000D01*
X185000000Y-59800000D01*
X250200000Y-59800000D01*
X250200000Y-61300000D01*
G37*
X250200000Y-61300000D02*
X185000000Y-61300000D01*
X185000000Y-59800000D01*
X250200000Y-59800000D01*
X250200000Y-61300000D01*
X185000000Y-61300000D02*
G75*
G03*
X183400000Y-62900000I0J-1600000D01*
G01*
X181900000Y-220600000D02*
G75*
G03*
X183500000Y-222200000I1600000J0D01*
G01*
X183400000Y-219100000D02*
G75*
G03*
X185000000Y-220700000I1600000J0D01*
G01*
X250250000Y-62900000D02*
G75*
G03*
X248650000Y-61300000I-1600000J0D01*
G01*
G36*
X251750000Y-220600000D02*
G01*
X250250000Y-220600000D01*
X250222400Y-61400000D01*
X251722400Y-61400000D01*
X251750000Y-220600000D01*
G37*
X251750000Y-220600000D02*
X250250000Y-220600000D01*
X250222400Y-61400000D01*
X251722400Y-61400000D01*
X251750000Y-220600000D01*
D12*
G36*
X195900000Y-61000000D02*
G01*
X195000000Y-62000000D01*
X195000000Y-64900000D01*
X188800000Y-64900000D01*
X188800000Y-62000000D01*
X187800000Y-60900000D01*
X195900000Y-61000000D01*
G37*
X195900000Y-61000000D02*
X195000000Y-62000000D01*
X195000000Y-64900000D01*
X188800000Y-64900000D01*
X188800000Y-62000000D01*
X187800000Y-60900000D01*
X195900000Y-61000000D01*
D10*
X187400000Y-220900000D02*
G75*
G03*
X188900000Y-219400000I0J1500000D01*
G01*
D11*
G36*
X183500000Y-219700000D02*
G01*
X183700000Y-220100000D01*
X184000000Y-220400000D01*
X184400000Y-220600000D01*
X184900000Y-220700000D01*
X184900000Y-222200000D01*
X183500000Y-222200000D01*
X183100000Y-222100000D01*
X182500000Y-221800000D01*
X182200000Y-221400000D01*
X182000000Y-221000000D01*
X181900000Y-220600000D01*
X181900000Y-219100000D01*
X183400000Y-219100000D01*
X183500000Y-219700000D01*
G37*
X183500000Y-219700000D02*
X183700000Y-220100000D01*
X184000000Y-220400000D01*
X184400000Y-220600000D01*
X184900000Y-220700000D01*
X184900000Y-222200000D01*
X183500000Y-222200000D01*
X183100000Y-222100000D01*
X182500000Y-221800000D01*
X182200000Y-221400000D01*
X182000000Y-221000000D01*
X181900000Y-220600000D01*
X181900000Y-219100000D01*
X183400000Y-219100000D01*
X183500000Y-219700000D01*
D13*
G36*
X251750000Y-220600000D02*
G01*
X251650000Y-221000000D01*
X251450000Y-221400000D01*
X251150000Y-221800000D01*
X250550000Y-222100000D01*
X250150000Y-222200000D01*
X248750000Y-222200000D01*
X248750000Y-220700000D01*
X249250000Y-220600000D01*
X249650000Y-220400000D01*
X249950000Y-220100000D01*
X250150000Y-219700000D01*
X250250000Y-219100000D01*
X251750000Y-219100000D01*
X251750000Y-220600000D01*
G37*
X251750000Y-220600000D02*
X251650000Y-221000000D01*
X251450000Y-221400000D01*
X251150000Y-221800000D01*
X250550000Y-222100000D01*
X250150000Y-222200000D01*
X248750000Y-222200000D01*
X248750000Y-220700000D01*
X249250000Y-220600000D01*
X249650000Y-220400000D01*
X249950000Y-220100000D01*
X250150000Y-219700000D01*
X250250000Y-219100000D01*
X251750000Y-219100000D01*
X251750000Y-220600000D01*
D10*
X246200000Y-61200000D02*
G75*
G03*
X244700000Y-62700000I0J-1500000D01*
G01*
D12*
G36*
X195000000Y-220100000D02*
G01*
X196000000Y-221200000D01*
X187900000Y-221100000D01*
X188800000Y-220100000D01*
X188800000Y-217200000D01*
X195000000Y-217200000D01*
X195000000Y-220100000D01*
G37*
X195000000Y-220100000D02*
X196000000Y-221200000D01*
X187900000Y-221100000D01*
X188800000Y-220100000D01*
X188800000Y-217200000D01*
X195000000Y-217200000D01*
X195000000Y-220100000D01*
D10*
X196400000Y-61200000D02*
G75*
G03*
X194900000Y-62700000I0J-1500000D01*
G01*
X188900000Y-62700000D02*
G75*
G03*
X187400000Y-61200000I-1500000J0D01*
G01*
D12*
G36*
X244850000Y-220049200D02*
G01*
X245850000Y-221149200D01*
X237750000Y-221049200D01*
X238650000Y-220049200D01*
X238650000Y-217149200D01*
X244850000Y-217149200D01*
X244850000Y-220049200D01*
G37*
X244850000Y-220049200D02*
X245850000Y-221149200D01*
X237750000Y-221049200D01*
X238650000Y-220049200D01*
X238650000Y-217149200D01*
X244850000Y-217149200D01*
X244850000Y-220049200D01*
D10*
X238700000Y-62700000D02*
G75*
G03*
X237200000Y-61200000I-1500000J0D01*
G01*
X244750000Y-219349200D02*
G75*
G03*
X246250000Y-220849200I1500000J0D01*
G01*
X237250000Y-220849200D02*
G75*
G03*
X238750000Y-219349200I0J1500000D01*
G01*
D12*
G36*
X245700000Y-61000000D02*
G01*
X244800000Y-62000000D01*
X244800000Y-64900000D01*
X238600000Y-64900000D01*
X238600000Y-62000000D01*
X237600000Y-60900000D01*
X245700000Y-61000000D01*
G37*
X245700000Y-61000000D02*
X244800000Y-62000000D01*
X244800000Y-64900000D01*
X238600000Y-64900000D01*
X238600000Y-62000000D01*
X237600000Y-60900000D01*
X245700000Y-61000000D01*
D14*
%TO.P,U704,*%
%TO.N,*%
X220760000Y-137220000D03*
X241760000Y-137220000D03*
X220760000Y-116220000D03*
D15*
%TO.P,U704,6*%
%TO.N,6V_HYBRID_SERVO3*%
X222370000Y-120370000D03*
%TO.P,U704,5*%
%TO.N,GND*%
X222370000Y-122910000D03*
%TO.P,U704,4*%
X222370000Y-125450000D03*
%TO.P,U704,3*%
%TO.N,Net-(C702-Pad1)*%
X222370000Y-127990000D03*
%TO.P,U704,2*%
%TO.N,Net-(U704-Pad2)*%
X222370000Y-130530000D03*
%TO.P,U704,1*%
%TO.N,Net-(U704-Pad1)*%
X222370000Y-133070000D03*
%TO.P,U704,12*%
%TO.N,6V_HYBRID_SERVO3*%
X219830000Y-120370000D03*
%TO.P,U704,11*%
%TO.N,GND*%
X219830000Y-122910000D03*
%TO.P,U704,10*%
X219830000Y-125450000D03*
%TO.P,U704,9*%
%TO.N,Net-(C702-Pad1)*%
X219830000Y-127990000D03*
%TO.P,U704,8*%
%TO.N,Net-(U704-Pad8)*%
X219830000Y-130530000D03*
%TO.P,U704,7*%
%TO.N,Net-(U704-Pad7)*%
X219830000Y-133070000D03*
%TD*%
D14*
%TO.P,U707,*%
%TO.N,*%
X220770000Y-163730000D03*
X241770000Y-163730000D03*
X220770000Y-142730000D03*
D15*
%TO.P,U707,6*%
%TO.N,6V_AC_SERVO2*%
X222380000Y-146880000D03*
%TO.P,U707,5*%
%TO.N,GND*%
X222380000Y-149420000D03*
%TO.P,U707,4*%
X222380000Y-151960000D03*
%TO.P,U707,3*%
%TO.N,Net-(J103-Pad1)*%
X222380000Y-154500000D03*
%TO.P,U707,2*%
%TO.N,Net-(U707-Pad2)*%
X222380000Y-157040000D03*
%TO.P,U707,1*%
%TO.N,Net-(U707-Pad1)*%
X222380000Y-159580000D03*
%TO.P,U707,12*%
%TO.N,6V_AC_SERVO2*%
X219840000Y-146880000D03*
%TO.P,U707,11*%
%TO.N,GND*%
X219840000Y-149420000D03*
%TO.P,U707,10*%
X219840000Y-151960000D03*
%TO.P,U707,9*%
%TO.N,Net-(J103-Pad1)*%
X219840000Y-154500000D03*
%TO.P,U707,8*%
%TO.N,Net-(U707-Pad8)*%
X219840000Y-157040000D03*
%TO.P,U707,7*%
%TO.N,Net-(U707-Pad7)*%
X219840000Y-159580000D03*
%TD*%
D14*
%TO.P,U706,*%
%TO.N,*%
X191850000Y-163730000D03*
X212850000Y-163730000D03*
X191850000Y-142730000D03*
D15*
%TO.P,U706,6*%
%TO.N,6V_AC_SERVO1*%
X193460000Y-146880000D03*
%TO.P,U706,5*%
%TO.N,GND*%
X193460000Y-149420000D03*
%TO.P,U706,4*%
X193460000Y-151960000D03*
%TO.P,U706,3*%
%TO.N,Net-(J103-Pad1)*%
X193460000Y-154500000D03*
%TO.P,U706,2*%
%TO.N,Net-(U706-Pad2)*%
X193460000Y-157040000D03*
%TO.P,U706,1*%
%TO.N,Net-(U706-Pad1)*%
X193460000Y-159580000D03*
%TO.P,U706,12*%
%TO.N,6V_AC_SERVO1*%
X190920000Y-146880000D03*
%TO.P,U706,11*%
%TO.N,GND*%
X190920000Y-149420000D03*
%TO.P,U706,10*%
X190920000Y-151960000D03*
%TO.P,U706,9*%
%TO.N,Net-(J103-Pad1)*%
X190920000Y-154500000D03*
%TO.P,U706,8*%
%TO.N,Net-(U706-Pad8)*%
X190920000Y-157040000D03*
%TO.P,U706,7*%
%TO.N,Net-(U706-Pad7)*%
X190920000Y-159580000D03*
%TD*%
D14*
%TO.P,U705,*%
%TO.N,*%
X191810000Y-137220000D03*
X212810000Y-137220000D03*
X191810000Y-116220000D03*
D15*
%TO.P,U705,6*%
%TO.N,6V_HYBRID_SERVO4*%
X193420000Y-120370000D03*
%TO.P,U705,5*%
%TO.N,GND*%
X193420000Y-122910000D03*
%TO.P,U705,4*%
X193420000Y-125450000D03*
%TO.P,U705,3*%
%TO.N,Net-(C702-Pad1)*%
X193420000Y-127990000D03*
%TO.P,U705,2*%
%TO.N,Net-(U705-Pad2)*%
X193420000Y-130530000D03*
%TO.P,U705,1*%
%TO.N,Net-(U705-Pad1)*%
X193420000Y-133070000D03*
%TO.P,U705,12*%
%TO.N,6V_HYBRID_SERVO4*%
X190880000Y-120370000D03*
%TO.P,U705,11*%
%TO.N,GND*%
X190880000Y-122910000D03*
%TO.P,U705,10*%
X190880000Y-125450000D03*
%TO.P,U705,9*%
%TO.N,Net-(C702-Pad1)*%
X190880000Y-127990000D03*
%TO.P,U705,8*%
%TO.N,Net-(U705-Pad8)*%
X190880000Y-130530000D03*
%TO.P,U705,7*%
%TO.N,Net-(U705-Pad7)*%
X190880000Y-133070000D03*
%TD*%
%TO.P,U702,1*%
%TO.N,Net-(U702-Pad1)*%
X219870000Y-101090000D03*
%TO.P,U702,2*%
%TO.N,Net-(J101-Pad1)*%
X219870000Y-103630000D03*
%TO.P,U702,3*%
%TO.N,GND*%
X219870000Y-106170000D03*
%TO.P,U702,4*%
X219870000Y-108710000D03*
%TO.P,U702,5*%
%TO.N,5V*%
X219870000Y-111250000D03*
D14*
%TO.P,U702,*%
%TO.N,*%
X220700000Y-97510000D03*
X236700000Y-111010000D03*
%TD*%
D15*
%TO.P,U701,6*%
%TO.N,Net-(U701-Pad6)*%
X198640000Y-101730000D03*
%TO.P,U701,2*%
%TO.N,Net-(J101-Pad1)*%
X196100000Y-104270000D03*
%TO.P,U701,1*%
%TO.N,Net-(U701-Pad1)*%
X196100000Y-101730000D03*
%TO.P,U701,3*%
%TO.N,GND*%
X196100000Y-106810000D03*
%TO.P,U701,4*%
X196100000Y-109350000D03*
D14*
%TO.P,U701,*%
%TO.N,*%
X196930000Y-97510000D03*
X212930000Y-111010000D03*
D15*
%TO.P,U701,5*%
%TO.N,3V3*%
X196100000Y-111890000D03*
%TD*%
%TO.P,J706,1*%
%TO.N,GND*%
%TA.AperFunction,ComponentPad*%
G36*
G01*
X227745000Y-63860000D02*
X230745000Y-63860000D01*
G75*
G02*
X232245000Y-65360000I0J-1500000D01*
G01*
X232245000Y-68360000D01*
G75*
G02*
X230745000Y-69860000I-1500000J0D01*
G01*
X227745000Y-69860000D01*
G75*
G02*
X226245000Y-68360000I0J1500000D01*
G01*
X226245000Y-65360000D01*
G75*
G02*
X227745000Y-63860000I1500000J0D01*
G01*
G37*
%TD.AperFunction*%
D16*
%TO.P,J706,2*%
%TO.N,Net-(J103-Pad2)*%
X229245000Y-74060000D03*
%TD*%
%TO.P,J702,1*%
%TO.N,GND*%
%TA.AperFunction,ComponentPad*%
G36*
G01*
X202745000Y-63860000D02*
X205745000Y-63860000D01*
G75*
G02*
X207245000Y-65360000I0J-1500000D01*
G01*
X207245000Y-68360000D01*
G75*
G02*
X205745000Y-69860000I-1500000J0D01*
G01*
X202745000Y-69860000D01*
G75*
G02*
X201245000Y-68360000I0J1500000D01*
G01*
X201245000Y-65360000D01*
G75*
G02*
X202745000Y-63860000I1500000J0D01*
G01*
G37*
%TD.AperFunction*%
%TO.P,J702,2*%
%TO.N,Net-(J102-Pad2)*%
X204245000Y-74060000D03*
%TD*%
%TO.P,J701,1*%
%TO.N,GND*%
%TA.AperFunction,ComponentPad*%
G36*
G01*
X215245000Y-63860000D02*
X218245000Y-63860000D01*
G75*
G02*
X219745000Y-65360000I0J-1500000D01*
G01*
X219745000Y-68360000D01*
G75*
G02*
X218245000Y-69860000I-1500000J0D01*
G01*
X215245000Y-69860000D01*
G75*
G02*
X213745000Y-68360000I0J1500000D01*
G01*
X213745000Y-65360000D01*
G75*
G02*
X215245000Y-63860000I1500000J0D01*
G01*
G37*
%TD.AperFunction*%
%TO.P,J701,2*%
%TO.N,Net-(J101-Pad2)*%
X216745000Y-74060000D03*
%TD*%
D17*
%TO.P,REF\u002A\u002A,*%
%TO.N,*%
X241750000Y-64850800D03*
D18*
%TO.P,REF\u002A\u002A,1*%
%TO.N,N/C*%
X244150000Y-64800000D03*
X243447056Y-66497056D03*
X241750000Y-67200000D03*
X240052944Y-66497056D03*
X239350000Y-64800000D03*
X240052944Y-63102944D03*
X241750000Y-62400000D03*
X243447056Y-63102944D03*
%TD*%
D17*
%TO.P,REF\u002A\u002A,*%
%TO.N,*%
X191900000Y-64850800D03*
D18*
%TO.P,REF\u002A\u002A,1*%
%TO.N,N/C*%
X194300000Y-64800000D03*
X193597056Y-66497056D03*
X191900000Y-67200000D03*
X190202944Y-66497056D03*
X189500000Y-64800000D03*
X190202944Y-63102944D03*
X191900000Y-62400000D03*
X193597056Y-63102944D03*
%TD*%
%TO.P,REF\u002A\u002A,1*%
%TO.N,N/C*%
X193597056Y-215502944D03*
X191900000Y-214800000D03*
X190202944Y-215502944D03*
X189500000Y-217200000D03*
X190202944Y-218897056D03*
X191900000Y-219600000D03*
X193597056Y-218897056D03*
X194300000Y-217200000D03*
D17*
%TO.P,REF\u002A\u002A,*%
%TO.N,*%
X191900000Y-217250800D03*
%TD*%
%TO.P,REF\u002A\u002A,*%
%TO.N,*%
X241750000Y-217200000D03*
D18*
%TO.P,REF\u002A\u002A,1*%
%TO.N,N/C*%
X244150000Y-217149200D03*
X243447056Y-218846256D03*
X241750000Y-219549200D03*
X240052944Y-218846256D03*
X239350000Y-217149200D03*
X240052944Y-215452144D03*
X241750000Y-214749200D03*
X243447056Y-215452144D03*
%TD*%
D19*
%TO.N,GND*%
X206500000Y-132400000D03*
X202000000Y-132400000D03*
X206500000Y-130900000D03*
X203500000Y-130900000D03*
X202000000Y-133900000D03*
X205000000Y-132400000D03*
X205000000Y-133900000D03*
X202000000Y-130900000D03*
X205000000Y-130900000D03*
X203500000Y-133900000D03*
X203500000Y-132400000D03*
X206500000Y-133900000D03*
X205000000Y-158900000D03*
X200500000Y-158900000D03*
X205000000Y-157400000D03*
X202000000Y-157400000D03*
X200500000Y-160400000D03*
X203500000Y-158900000D03*
X203500000Y-160400000D03*
X200500000Y-157400000D03*
X203500000Y-157400000D03*
X202000000Y-160400000D03*
X202000000Y-158900000D03*
X205000000Y-160400000D03*
X238300000Y-154700000D03*
X238300000Y-150200000D03*
X239800000Y-154700000D03*
X239800000Y-151700000D03*
X236800000Y-150200000D03*
X238300000Y-153200000D03*
X236800000Y-153200000D03*
X239800000Y-150200000D03*
X239800000Y-153200000D03*
X236800000Y-151700000D03*
X238300000Y-151700000D03*
X236800000Y-154700000D03*
X238300000Y-129500000D03*
X238300000Y-125000000D03*
X239800000Y-129500000D03*
X239800000Y-126500000D03*
X236800000Y-125000000D03*
X238300000Y-128000000D03*
X236800000Y-128000000D03*
X239800000Y-125000000D03*
X239800000Y-128000000D03*
X236800000Y-126500000D03*
X238300000Y-126500000D03*
X236800000Y-129500000D03*
X233100000Y-98800000D03*
X233100000Y-94300000D03*
X234600000Y-98800000D03*
X234600000Y-95800000D03*
X231600000Y-94300000D03*
X233100000Y-97300000D03*
X231600000Y-97300000D03*
X234600000Y-94300000D03*
X234600000Y-97300000D03*
X231600000Y-95800000D03*
X233100000Y-95800000D03*
X231600000Y-98800000D03*
X209100000Y-98800000D03*
X209100000Y-94300000D03*
X210600000Y-98800000D03*
X210600000Y-95800000D03*
X207600000Y-94300000D03*
X209100000Y-97300000D03*
X207600000Y-97300000D03*
X210600000Y-94300000D03*
X210600000Y-97300000D03*
X207600000Y-95800000D03*
X209100000Y-95800000D03*
X207600000Y-98800000D03*
%TO.N,9V_PT_SUPPLY*%
X189400000Y-186720000D03*
X188740000Y-211180000D03*
%TO.N,Net-(C702-Pad1)*%
X197500000Y-132090000D03*
X197500000Y-133060000D03*
X203200000Y-92670000D03*
X203200000Y-93700000D03*
X203200000Y-94700000D03*
X203200000Y-95700000D03*
%TO.N,6V_AC_SERVO1*%
X206740000Y-214880000D03*
%TO.N,3V3*%
X194860000Y-82800000D03*
X195940000Y-76800000D03*
X239420000Y-82800000D03*
X238359990Y-76800010D03*
%TO.N,5V*%
X233370000Y-106860000D03*
X195340000Y-80800000D03*
X195690000Y-78800000D03*
X238980000Y-80800000D03*
X238580000Y-78800000D03*
X232540000Y-107690000D03*
%TO.N,B2B_SERVO4*%
X237155000Y-208675000D03*
X231110000Y-207900000D03*
%TO.N,B2B_SERVO3*%
X237080000Y-212410000D03*
X240915000Y-207425000D03*
%TO.N,B2B_SERVO2*%
X209750000Y-210130000D03*
X216490000Y-202050000D03*
%TO.N,B2B_SERVO1*%
X209740000Y-214900000D03*
X218340000Y-200990000D03*
%TO.N,6V_AC_SERVO2*%
X206760000Y-210070000D03*
%TO.N,6V_HYBRID_SERVO3*%
X226740000Y-215110000D03*
%TO.N,6V_HYBRID_SERVO4*%
X208880000Y-120430000D03*
X226760000Y-210340000D03*
X207590000Y-120430000D03*
%TD*%
D20*
%TO.N,GND*%
X204245000Y-66860000D02*
X229245000Y-66860000D01*
X204245000Y-66860000D02*
X197990000Y-66860000D01*
X229245000Y-66860000D02*
X234300000Y-66860000D01*
D21*
%TO.N,9V_PT_SUPPLY*%
X189400000Y-210520000D02*
X188740000Y-211180000D01*
X189400000Y-186720000D02*
X189400000Y-210520000D01*
D20*
%TO.N,Net-(C702-Pad1)*%
X222370000Y-127990000D02*
X219830000Y-127990000D01*
D22*
X197500000Y-130320000D02*
X199830000Y-127990000D01*
X197500000Y-133060000D02*
X197500000Y-130320000D01*
D20*
X203200000Y-92670000D02*
X203200000Y-92670000D01*
X203200000Y-92670000D02*
X203200000Y-93700000D01*
X203200000Y-93700000D02*
X203200000Y-94700000D01*
X203200000Y-94700000D02*
X203200000Y-95700000D01*
X203220000Y-124600000D02*
X199830000Y-127990000D01*
X203220000Y-124050000D02*
X203220000Y-124600000D01*
X203200000Y-124030000D02*
X203220000Y-124050000D01*
X203200000Y-95700000D02*
X203200000Y-124030000D01*
X203220000Y-124710000D02*
X206500000Y-127990000D01*
X203220000Y-124600000D02*
X203220000Y-124710000D01*
X206500000Y-127990000D02*
X219830000Y-127990000D01*
X199830000Y-127990000D02*
X206500000Y-127990000D01*
X203220000Y-124600000D02*
X203220000Y-126920000D01*
X190880000Y-127990000D02*
X199830000Y-127990000D01*
%TO.N,6V_AC_SERVO1*%
X190940000Y-146890000D02*
X193480000Y-146890000D01*
D21*
X193460000Y-146890000D02*
X193460000Y-146880000D01*
D22*
X188950000Y-146880000D02*
X190920000Y-146880000D01*
X186910000Y-148920000D02*
X188950000Y-146880000D01*
X186910000Y-167360000D02*
X186910000Y-148920000D01*
X193280000Y-173730000D02*
X186910000Y-167360000D01*
X193280000Y-200380000D02*
X193280000Y-173730000D01*
X206740000Y-213840000D02*
X193280000Y-200380000D01*
X206740000Y-214880000D02*
X206740000Y-213840000D01*
%TO.N,3V3*%
X236269990Y-76800010D02*
X238359990Y-76800010D01*
X234060000Y-79010000D02*
X236269990Y-76800010D01*
X199530000Y-79010000D02*
X234060000Y-79010000D01*
X197320000Y-76800000D02*
X199530000Y-79010000D01*
X195940000Y-76800000D02*
X197320000Y-76800000D01*
X194860000Y-82800000D02*
X195980000Y-83920000D01*
X238300000Y-83920000D02*
X239420000Y-82800000D01*
X195980000Y-83920000D02*
X238300000Y-83920000D01*
%TO.N,5V*%
X237169990Y-80210010D02*
X238580000Y-78800000D01*
X197100010Y-80210010D02*
X237169990Y-80210010D01*
X195690000Y-78800000D02*
X197100010Y-80210010D01*
X195340000Y-80800000D02*
X196390000Y-81850000D01*
X237930000Y-81850000D02*
X238980000Y-80800000D01*
X196390000Y-81850000D02*
X237930000Y-81850000D01*
X228980000Y-111250000D02*
X219870000Y-111250000D01*
X233370000Y-106860000D02*
X228980000Y-111250000D01*
D21*
%TO.N,B2B_SERVO4*%
X237155000Y-208675000D02*
X231885000Y-208675000D01*
X231885000Y-208675000D02*
X231110000Y-207900000D01*
%TO.N,B2B_SERVO3*%
X237080000Y-211260000D02*
X240915000Y-207425000D01*
X237080000Y-212410000D02*
X237080000Y-211260000D01*
D23*
%TO.N,B2B_SERVO2*%
X209750000Y-210130000D02*
X212390000Y-210130000D01*
X216490000Y-206030000D02*
X216490000Y-202050000D01*
X212390000Y-210130000D02*
X216490000Y-206030000D01*
D21*
%TO.N,B2B_SERVO1*%
X218340000Y-206300000D02*
X218340000Y-200990000D01*
X209740000Y-214900000D02*
X218340000Y-206300000D01*
D22*
%TO.N,6V_AC_SERVO2*%
X225610000Y-146880000D02*
X219840000Y-146880000D01*
X227730000Y-186170000D02*
X227730000Y-149000000D01*
X206760000Y-207140000D02*
X227730000Y-186170000D01*
X227730000Y-149000000D02*
X225610000Y-146880000D01*
X206760000Y-210070000D02*
X206760000Y-207140000D01*
%TO.N,6V_HYBRID_SERVO3*%
X226740000Y-215110000D02*
X224270000Y-212640000D01*
X224270000Y-212640000D02*
X224270000Y-193650000D01*
X224270000Y-193650000D02*
X230410000Y-187510000D01*
X230410000Y-187510000D02*
X230410000Y-124230000D01*
X226550000Y-120370000D02*
X219830000Y-120370000D01*
X230410000Y-124230000D02*
X226550000Y-120370000D01*
%TO.N,6V_HYBRID_SERVO4*%
X209660000Y-120430000D02*
X207590000Y-120430000D01*
X216720000Y-113370000D02*
X209660000Y-120430000D01*
X225670000Y-113370000D02*
X216720000Y-113370000D01*
X233370000Y-121070000D02*
X225670000Y-113370000D01*
X233370000Y-188710000D02*
X233370000Y-121070000D01*
X226760000Y-195320000D02*
X233370000Y-188710000D01*
X226760000Y-210340000D02*
X226760000Y-195320000D01*
D20*
%TO.N,Net-(J102-Pad2)*%
X204210000Y-74095000D02*
X204245000Y-74060000D01*
%TO.N,Net-(J103-Pad1)*%
X222380000Y-154500000D02*
X219840000Y-154500000D01*
X190920000Y-154500000D02*
X222380000Y-154500000D01*
%TD*%
D24*
%TO.N,GND*%
X187671030Y-62042430D02*
X187793595Y-62107599D01*
X187901160Y-62195327D01*
X187989643Y-62302285D01*
X188055660Y-62424381D01*
X188065000Y-62454553D01*
X188065000Y-65228515D01*
X188212377Y-65969428D01*
X188501467Y-66667354D01*
X188921161Y-67295470D01*
X189455330Y-67829639D01*
X190083446Y-68249333D01*
X190781372Y-68538423D01*
X191522285Y-68685800D01*
X192277715Y-68685800D01*
X193018628Y-68538423D01*
X193716554Y-68249333D01*
X194344670Y-67829639D01*
X194878839Y-67295470D01*
X195298533Y-66667354D01*
X195587623Y-65969428D01*
X195735000Y-65228515D01*
X195735000Y-63860000D01*
X200606928Y-63860000D01*
X200610000Y-66574250D01*
X200768750Y-66733000D01*
X204118000Y-66733000D01*
X204118000Y-63383750D01*
X204372000Y-63383750D01*
X204372000Y-66733000D01*
X207721250Y-66733000D01*
X207880000Y-66574250D01*
X207883072Y-63860000D01*
X213106928Y-63860000D01*
X213110000Y-66574250D01*
X213268750Y-66733000D01*
X216618000Y-66733000D01*
X216618000Y-63383750D01*
X216872000Y-63383750D01*
X216872000Y-66733000D01*
X220221250Y-66733000D01*
X220380000Y-66574250D01*
X220383072Y-63860000D01*
X225606928Y-63860000D01*
X225610000Y-66574250D01*
X225768750Y-66733000D01*
X229118000Y-66733000D01*
X229118000Y-63383750D01*
X229372000Y-63383750D01*
X229372000Y-66733000D01*
X232721250Y-66733000D01*
X232880000Y-66574250D01*
X232883072Y-63860000D01*
X232870812Y-63735518D01*
X232834502Y-63615820D01*
X232775537Y-63505506D01*
X232696185Y-63408815D01*
X232599494Y-63329463D01*
X232489180Y-63270498D01*
X232369482Y-63234188D01*
X232245000Y-63221928D01*
X229530750Y-63225000D01*
X229372000Y-63383750D01*
X229118000Y-63383750D01*
X228959250Y-63225000D01*
X226245000Y-63221928D01*
X226120518Y-63234188D01*
X226000820Y-63270498D01*
X225890506Y-63329463D01*
X225793815Y-63408815D01*
X225714463Y-63505506D01*
X225655498Y-63615820D01*
X225619188Y-63735518D01*
X225606928Y-63860000D01*
X220383072Y-63860000D01*
X220370812Y-63735518D01*
X220334502Y-63615820D01*
X220275537Y-63505506D01*
X220196185Y-63408815D01*
X220099494Y-63329463D01*
X219989180Y-63270498D01*
X219869482Y-63234188D01*
X219745000Y-63221928D01*
X217030750Y-63225000D01*
X216872000Y-63383750D01*
X216618000Y-63383750D01*
X216459250Y-63225000D01*
X213745000Y-63221928D01*
X213620518Y-63234188D01*
X213500820Y-63270498D01*
X213390506Y-63329463D01*
X213293815Y-63408815D01*
X213214463Y-63505506D01*
X213155498Y-63615820D01*
X213119188Y-63735518D01*
X213106928Y-63860000D01*
X207883072Y-63860000D01*
X207870812Y-63735518D01*
X207834502Y-63615820D01*
X207775537Y-63505506D01*
X207696185Y-63408815D01*
X207599494Y-63329463D01*
X207489180Y-63270498D01*
X207369482Y-63234188D01*
X207245000Y-63221928D01*
X204530750Y-63225000D01*
X204372000Y-63383750D01*
X204118000Y-63383750D01*
X203959250Y-63225000D01*
X201245000Y-63221928D01*
X201120518Y-63234188D01*
X201000820Y-63270498D01*
X200890506Y-63329463D01*
X200793815Y-63408815D01*
X200714463Y-63505506D01*
X200655498Y-63615820D01*
X200619188Y-63735518D01*
X200606928Y-63860000D01*
X195735000Y-63860000D01*
X195735000Y-62453580D01*
X195742430Y-62428970D01*
X195807599Y-62306405D01*
X195895327Y-62198840D01*
X196002285Y-62110357D01*
X196124381Y-62044340D01*
X196235315Y-62010000D01*
X237363617Y-62010000D01*
X237471030Y-62042430D01*
X237593595Y-62107599D01*
X237701160Y-62195327D01*
X237789643Y-62302285D01*
X237855660Y-62424381D01*
X237865000Y-62454553D01*
X237865000Y-64900000D01*
X237871751Y-64968852D01*
X237878019Y-65037725D01*
X237878746Y-65040197D01*
X237878998Y-65042762D01*
X237898989Y-65108975D01*
X237915000Y-65163376D01*
X237915000Y-65228515D01*
X238062377Y-65969428D01*
X238351467Y-66667354D01*
X238771161Y-67295470D01*
X239305330Y-67829639D01*
X239933446Y-68249333D01*
X240631372Y-68538423D01*
X241372285Y-68685800D01*
X242127715Y-68685800D01*
X242868628Y-68538423D01*
X243566554Y-68249333D01*
X244194670Y-67829639D01*
X244728839Y-67295470D01*
X245148533Y-66667354D01*
X245437623Y-65969428D01*
X245585000Y-65228515D01*
X245585000Y-64473085D01*
X245535000Y-64221718D01*
X245535000Y-62453580D01*
X245542430Y-62428970D01*
X245607599Y-62306405D01*
X245695327Y-62198840D01*
X245802285Y-62110357D01*
X245924381Y-62044340D01*
X246035315Y-62010000D01*
X248615279Y-62010000D01*
X248741655Y-62022391D01*
X248902785Y-62054617D01*
X248987856Y-62080302D01*
X249140634Y-62161536D01*
X249274727Y-62270899D01*
X249385019Y-62404220D01*
X249467318Y-62556428D01*
X249479506Y-62595801D01*
X249512642Y-62794614D01*
X249539734Y-219067988D01*
X249519710Y-219272207D01*
X249469699Y-219437853D01*
X249388464Y-219590634D01*
X249279103Y-219724724D01*
X249145780Y-219835019D01*
X248993569Y-219917319D01*
X248828272Y-219968487D01*
X248623593Y-219990000D01*
X245947430Y-219990000D01*
X245856405Y-219941601D01*
X245748839Y-219853872D01*
X245660358Y-219746917D01*
X245594338Y-219624815D01*
X245585000Y-219594649D01*
X245585000Y-216822285D01*
X245437623Y-216081372D01*
X245148533Y-215383446D01*
X244728839Y-214755330D01*
X244194670Y-214221161D01*
X243566554Y-213801467D01*
X242868628Y-213512377D01*
X242127715Y-213365000D01*
X241372285Y-213365000D01*
X240631372Y-213512377D01*
X239933446Y-213801467D01*
X239305330Y-214221161D01*
X238771161Y-214755330D01*
X238351467Y-215383446D01*
X238062377Y-216081372D01*
X237915000Y-216822285D01*
X237915000Y-219595622D01*
X237907570Y-219620229D01*
X237842401Y-219742795D01*
X237754672Y-219850361D01*
X237647717Y-219938842D01*
X237553102Y-219990000D01*
X196003461Y-219990000D01*
X195898839Y-219904672D01*
X195810358Y-219797717D01*
X195744338Y-219675615D01*
X195735000Y-219645449D01*
X195735000Y-216873085D01*
X195587623Y-216132172D01*
X195298533Y-215434246D01*
X194878839Y-214806130D01*
X194344670Y-214271961D01*
X193716554Y-213852267D01*
X193018628Y-213563177D01*
X192277715Y-213415800D01*
X191522285Y-213415800D01*
X190781372Y-213563177D01*
X190083446Y-213852267D01*
X189455330Y-214271961D01*
X188921161Y-214806130D01*
X188501467Y-215434246D01*
X188212377Y-216132172D01*
X188065000Y-216873085D01*
X188065000Y-219646422D01*
X188057570Y-219671029D01*
X187992401Y-219793595D01*
X187904672Y-219901161D01*
X187797717Y-219989642D01*
X187797054Y-219990000D01*
X185034721Y-219990000D01*
X184908347Y-219977609D01*
X184747213Y-219945382D01*
X184662147Y-219919699D01*
X184509366Y-219838464D01*
X184375276Y-219729103D01*
X184264981Y-219595780D01*
X184182681Y-219443569D01*
X184170494Y-219404200D01*
X184110000Y-219041237D01*
X184110000Y-211078061D01*
X187705000Y-211078061D01*
X187705000Y-211281939D01*
X187744774Y-211481898D01*
X187822795Y-211670256D01*
X187936063Y-211839774D01*
X188080226Y-211983937D01*
X188249744Y-212097205D01*
X188438102Y-212175226D01*
X188638061Y-212215000D01*
X188841939Y-212215000D01*
X189041898Y-212175226D01*
X189230256Y-212097205D01*
X189399774Y-211983937D01*
X189543937Y-211839774D01*
X189657205Y-211670256D01*
X189735226Y-211481898D01*
X189775000Y-211281939D01*
X189775000Y-211255158D01*
X189927815Y-211102343D01*
X189957764Y-211077764D01*
X189982844Y-211047205D01*
X190006579Y-211018284D01*
X190055862Y-210958233D01*
X190128754Y-210821860D01*
X190142530Y-210776446D01*
X190173642Y-210673887D01*
X190184833Y-210560256D01*
X190185000Y-210558561D01*
X190185000Y-210558556D01*
X190188797Y-210520000D01*
X190185000Y-210481445D01*
X190185000Y-187398711D01*
X190203937Y-187379774D01*
X190317205Y-187210256D01*
X190395226Y-187021898D01*
X190435000Y-186821939D01*
X190435000Y-186618061D01*
X190395226Y-186418102D01*
X190317205Y-186229744D01*
X190203937Y-186060226D01*
X190059774Y-185916063D01*
X189890256Y-185802795D01*
X189701898Y-185724774D01*
X189501939Y-185685000D01*
X189298061Y-185685000D01*
X189098102Y-185724774D01*
X188909744Y-185802795D01*
X188740226Y-185916063D01*
X188596063Y-186060226D01*
X188482795Y-186229744D01*
X188404774Y-186418102D01*
X188365000Y-186618061D01*
X188365000Y-186821939D01*
X188404774Y-187021898D01*
X188482795Y-187210256D01*
X188596063Y-187379774D01*
X188615000Y-187398711D01*
X188615001Y-210149587D01*
X188438102Y-210184774D01*
X188249744Y-210262795D01*
X188080226Y-210376063D01*
X187936063Y-210520226D01*
X187822795Y-210689744D01*
X187744774Y-210878102D01*
X187705000Y-211078061D01*
X184110000Y-211078061D01*
X184110000Y-148920000D01*
X185769509Y-148920000D01*
X185775001Y-148975762D01*
X185775000Y-167304249D01*
X185769509Y-167360000D01*
X185775000Y-167415751D01*
X185791423Y-167582498D01*
X185856324Y-167796446D01*
X185961716Y-167993623D01*
X186103551Y-168166449D01*
X186146865Y-168201996D01*
X192145001Y-174200133D01*
X192145000Y-200324249D01*
X192139509Y-200380000D01*
X192145000Y-200435751D01*
X192161423Y-200602498D01*
X192226324Y-200816446D01*
X192331716Y-201013623D01*
X192473551Y-201186449D01*
X192516865Y-201221996D01*
X205605000Y-214310133D01*
X205605000Y-214935751D01*
X205621423Y-215102498D01*
X205686324Y-215316446D01*
X205791716Y-215513623D01*
X205933551Y-215686449D01*
X206106377Y-215828284D01*
X206303553Y-215933676D01*
X206517501Y-215998577D01*
X206740000Y-216020491D01*
X206962498Y-215998577D01*
X207176446Y-215933676D01*
X207373623Y-215828284D01*
X207546449Y-215686449D01*
X207688284Y-215513623D01*
X207793676Y-215316447D01*
X207858577Y-215102499D01*
X207875000Y-214935752D01*
X207875000Y-214798061D01*
X208705000Y-214798061D01*
X208705000Y-215001939D01*
X208744774Y-215201898D01*
X208822795Y-215390256D01*
X208936063Y-215559774D01*
X209080226Y-215703937D01*
X209249744Y-215817205D01*
X209438102Y-215895226D01*
X209638061Y-215935000D01*
X209841939Y-215935000D01*
X210041898Y-215895226D01*
X210230256Y-215817205D01*
X210399774Y-215703937D01*
X210543937Y-215559774D01*
X210657205Y-215390256D01*
X210735226Y-215201898D01*
X210775000Y-215001939D01*
X210775000Y-214975157D01*
X218867811Y-206882346D01*
X218897764Y-206857764D01*
X218995862Y-206738233D01*
X219068754Y-206601860D01*
X219068754Y-206601859D01*
X219113642Y-206453887D01*
X219121228Y-206376857D01*
X219125000Y-206338561D01*
X219125000Y-206338556D01*
X219128797Y-206300000D01*
X219125000Y-206261444D01*
X219125000Y-201668711D01*
X219143937Y-201649774D01*
X219257205Y-201480256D01*
X219335226Y-201291898D01*
X219375000Y-201091939D01*
X219375000Y-200888061D01*
X219335226Y-200688102D01*
X219257205Y-200499744D01*
X219143937Y-200330226D01*
X218999774Y-200186063D01*
X218830256Y-200072795D01*
X218641898Y-199994774D01*
X218441939Y-199955000D01*
X218238061Y-199955000D01*
X218038102Y-199994774D01*
X217849744Y-200072795D01*
X217680226Y-200186063D01*
X217536063Y-200330226D01*
X217422795Y-200499744D01*
X217344774Y-200688102D01*
X217305000Y-200888061D01*
X217305000Y-201091939D01*
X217344774Y-201291898D01*
X217422795Y-201480256D01*
X217536063Y-201649774D01*
X217555001Y-201668712D01*
X217555000Y-205974843D01*
X217181709Y-206348134D01*
X217195546Y-206322247D01*
X217239003Y-206178986D01*
X217250000Y-206067333D01*
X217250000Y-206067332D01*
X217253677Y-206030000D01*
X217250000Y-205992667D01*
X217250000Y-202753711D01*
X217293937Y-202709774D01*
X217407205Y-202540256D01*
X217485226Y-202351898D01*
X217525000Y-202151939D01*
X217525000Y-201948061D01*
X217485226Y-201748102D01*
X217407205Y-201559744D01*
X217293937Y-201390226D01*
X217149774Y-201246063D01*
X216980256Y-201132795D01*
X216791898Y-201054774D01*
X216591939Y-201015000D01*
X216388061Y-201015000D01*
X216188102Y-201054774D01*
X215999744Y-201132795D01*
X215830226Y-201246063D01*
X215686063Y-201390226D01*
X215572795Y-201559744D01*
X215494774Y-201748102D01*
X215455000Y-201948061D01*
X215455000Y-202151939D01*
X215494774Y-202351898D01*
X215572795Y-202540256D01*
X215686063Y-202709774D01*
X215730001Y-202753712D01*
X215730000Y-205715198D01*
X212075199Y-209370000D01*
X210453711Y-209370000D01*
X210409774Y-209326063D01*
X210240256Y-209212795D01*
X210051898Y-209134774D01*
X209851939Y-209095000D01*
X209648061Y-209095000D01*
X209448102Y-209134774D01*
X209259744Y-209212795D01*
X209090226Y-209326063D01*
X208946063Y-209470226D01*
X208832795Y-209639744D01*
X208754774Y-209828102D01*
X208715000Y-210028061D01*
X208715000Y-210231939D01*
X208754774Y-210431898D01*
X208832795Y-210620256D01*
X208946063Y-210789774D01*
X209090226Y-210933937D01*
X209259744Y-211047205D01*
X209448102Y-211125226D01*
X209648061Y-211165000D01*
X209851939Y-211165000D01*
X210051898Y-211125226D01*
X210240256Y-211047205D01*
X210409774Y-210933937D01*
X210453711Y-210890000D01*
X212352678Y-210890000D01*
X212390000Y-210893676D01*
X212427322Y-210890000D01*
X212427333Y-210890000D01*
X212538986Y-210879003D01*
X212682247Y-210835546D01*
X212708134Y-210821709D01*
X209664843Y-213865000D01*
X209638061Y-213865000D01*
X209438102Y-213904774D01*
X209249744Y-213982795D01*
X209080226Y-214096063D01*
X208936063Y-214240226D01*
X208822795Y-214409744D01*
X208744774Y-214598102D01*
X208705000Y-214798061D01*
X207875000Y-214798061D01*
X207875000Y-213895752D01*
X207880491Y-213840000D01*
X207858577Y-213617501D01*
X207793676Y-213403553D01*
X207688284Y-213206377D01*
X207581989Y-213076856D01*
X207581987Y-213076854D01*
X207546449Y-213033551D01*
X207503146Y-212998013D01*
X201645133Y-207140000D01*
X205619509Y-207140000D01*
X205625001Y-207195761D01*
X205625000Y-210125751D01*
X205641423Y-210292498D01*
X205706324Y-210506446D01*
X205811716Y-210703623D01*
X205953551Y-210876449D01*
X206126377Y-211018284D01*
X206323553Y-211123676D01*
X206537501Y-211188577D01*
X206760000Y-211210491D01*
X206982498Y-211188577D01*
X207196446Y-211123676D01*
X207393623Y-211018284D01*
X207566449Y-210876449D01*
X207708284Y-210703623D01*
X207813676Y-210506447D01*
X207878577Y-210292499D01*
X207895000Y-210125752D01*
X207895000Y-207610131D01*
X228493141Y-187011991D01*
X228536449Y-186976449D01*
X228678284Y-186803623D01*
X228783676Y-186606447D01*
X228848577Y-186392499D01*
X228865000Y-186225752D01*
X228865000Y-186225743D01*
X228870490Y-186170001D01*
X228865000Y-186114259D01*
X228865000Y-149055752D01*
X228870491Y-149000000D01*
X228848577Y-148777501D01*
X228783676Y-148563553D01*
X228678284Y-148366377D01*
X228536449Y-148193551D01*
X228493141Y-148158009D01*
X226451996Y-146116865D01*
X226416449Y-146073551D01*
X226243623Y-145931716D01*
X226046447Y-145826324D01*
X225832499Y-145761423D01*
X225665752Y-145745000D01*
X225665751Y-145745000D01*
X225610000Y-145739509D01*
X225554249Y-145745000D01*
X223380462Y-145745000D01*
X223342569Y-145707107D01*
X223095253Y-145541856D01*
X222820451Y-145428029D01*
X222528722Y-145370000D01*
X222231278Y-145370000D01*
X221939549Y-145428029D01*
X221664747Y-145541856D01*
X221417431Y-145707107D01*
X221379538Y-145745000D01*
X220840462Y-145745000D01*
X220802569Y-145707107D01*
X220555253Y-145541856D01*
X220280451Y-145428029D01*
X219988722Y-145370000D01*
X219691278Y-145370000D01*
X219399549Y-145428029D01*
X219124747Y-145541856D01*
X218877431Y-145707107D01*
X218667107Y-145917431D01*
X218501856Y-146164747D01*
X218388029Y-146439549D01*
X218330000Y-146731278D01*
X218330000Y-147028722D01*
X218388029Y-147320451D01*
X218501856Y-147595253D01*
X218667107Y-147842569D01*
X218877431Y-148052893D01*
X219041153Y-148162288D01*
X218973365Y-148373760D01*
X219840000Y-149240395D01*
X220706635Y-148373760D01*
X220638847Y-148162288D01*
X220802569Y-148052893D01*
X220840462Y-148015000D01*
X221379538Y-148015000D01*
X221417431Y-148052893D01*
X221581153Y-148162288D01*
X221513365Y-148373760D01*
X222380000Y-149240395D01*
X223246635Y-148373760D01*
X223178847Y-148162288D01*
X223342569Y-148052893D01*
X223380462Y-148015000D01*
X225139869Y-148015000D01*
X226595001Y-149470133D01*
X226595000Y-185699868D01*
X205996860Y-206298009D01*
X205953552Y-206333551D01*
X205811717Y-206506377D01*
X205777710Y-206570001D01*
X205706324Y-206703554D01*
X205641423Y-206917502D01*
X205619509Y-207140000D01*
X201645133Y-207140000D01*
X194415000Y-199909869D01*
X194415000Y-173785741D01*
X194420490Y-173729999D01*
X194415000Y-173674257D01*
X194415000Y-173674248D01*
X194398577Y-173507501D01*
X194333676Y-173293553D01*
X194228284Y-173096377D01*
X194086449Y-172923551D01*
X194043141Y-172888009D01*
X188045000Y-166889869D01*
X188045000Y-163529570D01*
X189815000Y-163529570D01*
X189815000Y-163930430D01*
X189893204Y-164323587D01*
X190046607Y-164693934D01*
X190269313Y-165027237D01*
X190552763Y-165310687D01*
X190886066Y-165533393D01*
X191256413Y-165686796D01*
X191649570Y-165765000D01*
X192050430Y-165765000D01*
X192443587Y-165686796D01*
X192813934Y-165533393D01*
X193147237Y-165310687D01*
X193430687Y-165027237D01*
X193653393Y-164693934D01*
X193806796Y-164323587D01*
X193885000Y-163930430D01*
X193885000Y-163529570D01*
X210815000Y-163529570D01*
X210815000Y-163930430D01*
X210893204Y-164323587D01*
X211046607Y-164693934D01*
X211269313Y-165027237D01*
X211552763Y-165310687D01*
X211886066Y-165533393D01*
X212256413Y-165686796D01*
X212649570Y-165765000D01*
X213050430Y-165765000D01*
X213443587Y-165686796D01*
X213813934Y-165533393D01*
X214147237Y-165310687D01*
X214430687Y-165027237D01*
X214653393Y-164693934D01*
X214806796Y-164323587D01*
X214885000Y-163930430D01*
X214885000Y-163529570D01*
X218735000Y-163529570D01*
X218735000Y-163930430D01*
X218813204Y-164323587D01*
X218966607Y-164693934D01*
X219189313Y-165027237D01*
X219472763Y-165310687D01*
X219806066Y-165533393D01*
X220176413Y-165686796D01*
X220569570Y-165765000D01*
X220970430Y-165765000D01*
X221363587Y-165686796D01*
X221733934Y-165533393D01*
X222067237Y-165310687D01*
X222350687Y-165027237D01*
X222573393Y-164693934D01*
X222726796Y-164323587D01*
X222805000Y-163930430D01*
X222805000Y-163529570D01*
X222726796Y-163136413D01*
X222573393Y-162766066D01*
X222350687Y-162432763D01*
X222067237Y-162149313D01*
X221733934Y-161926607D01*
X221363587Y-161773204D01*
X220970430Y-161695000D01*
X220569570Y-161695000D01*
X220176413Y-161773204D01*
X219806066Y-161926607D01*
X219472763Y-162149313D01*
X219189313Y-162432763D01*
X218966607Y-162766066D01*
X218813204Y-163136413D01*
X218735000Y-163529570D01*
X214885000Y-163529570D01*
X214806796Y-163136413D01*
X214653393Y-162766066D01*
X214430687Y-162432763D01*
X214147237Y-162149313D01*
X213813934Y-161926607D01*
X213443587Y-161773204D01*
X213050430Y-161695000D01*
X212649570Y-161695000D01*
X212256413Y-161773204D01*
X211886066Y-161926607D01*
X211552763Y-162149313D01*
X211269313Y-162432763D01*
X211046607Y-162766066D01*
X210893204Y-163136413D01*
X210815000Y-163529570D01*
X193885000Y-163529570D01*
X193806796Y-163136413D01*
X193653393Y-162766066D01*
X193430687Y-162432763D01*
X193147237Y-162149313D01*
X192813934Y-161926607D01*
X192443587Y-161773204D01*
X192050430Y-161695000D01*
X191649570Y-161695000D01*
X191256413Y-161773204D01*
X190886066Y-161926607D01*
X190552763Y-162149313D01*
X190269313Y-162432763D01*
X190046607Y-162766066D01*
X189893204Y-163136413D01*
X189815000Y-163529570D01*
X188045000Y-163529570D01*
X188045000Y-154500000D01*
X189277089Y-154500000D01*
X189308657Y-154820516D01*
X189402148Y-155128715D01*
X189553969Y-155412752D01*
X189758286Y-155661714D01*
X189985613Y-155848276D01*
X189957431Y-155867107D01*
X189747107Y-156077431D01*
X189581856Y-156324747D01*
X189468029Y-156599549D01*
X189410000Y-156891278D01*
X189410000Y-157188722D01*
X189468029Y-157480451D01*
X189581856Y-157755253D01*
X189747107Y-158002569D01*
X189957431Y-158212893D01*
X190102762Y-158310000D01*
X189957431Y-158407107D01*
X189747107Y-158617431D01*
X189581856Y-158864747D01*
X189468029Y-159139549D01*
X189410000Y-159431278D01*
X189410000Y-159728722D01*
X189468029Y-160020451D01*
X189581856Y-160295253D01*
X189747107Y-160542569D01*
X189957431Y-160752893D01*
X190204747Y-160918144D01*
X190479549Y-161031971D01*
X190771278Y-161090000D01*
X191068722Y-161090000D01*
X191360451Y-161031971D01*
X191635253Y-160918144D01*
X191882569Y-160752893D01*
X192092893Y-160542569D01*
X192190000Y-160397238D01*
X192287107Y-160542569D01*
X192497431Y-160752893D01*
X192744747Y-160918144D01*
X193019549Y-161031971D01*
X193311278Y-161090000D01*
X193608722Y-161090000D01*
X193900451Y-161031971D01*
X194175253Y-160918144D01*
X194422569Y-160752893D01*
X194632893Y-160542569D01*
X194798144Y-160295253D01*
X194911971Y-160020451D01*
X194970000Y-159728722D01*
X194970000Y-159431278D01*
X194911971Y-159139549D01*
X194798144Y-158864747D01*
X194632893Y-158617431D01*
X194422569Y-158407107D01*
X194277238Y-158310000D01*
X194422569Y-158212893D01*
X194632893Y-158002569D01*
X194798144Y-157755253D01*
X194911971Y-157480451D01*
X194970000Y-157188722D01*
X194970000Y-156891278D01*
X194911971Y-156599549D01*
X194798144Y-156324747D01*
X194671359Y-156135000D01*
X218628641Y-156135000D01*
X218501856Y-156324747D01*
X218388029Y-156599549D01*
X218330000Y-156891278D01*
X218330000Y-157188722D01*
X218388029Y-157480451D01*
X218501856Y-157755253D01*
X218667107Y-158002569D01*
X218877431Y-158212893D01*
X219022762Y-158310000D01*
X218877431Y-158407107D01*
X218667107Y-158617431D01*
X218501856Y-158864747D01*
X218388029Y-159139549D01*
X218330000Y-159431278D01*
X218330000Y-159728722D01*
X218388029Y-160020451D01*
X218501856Y-160295253D01*
X218667107Y-160542569D01*
X218877431Y-160752893D01*
X219124747Y-160918144D01*
X219399549Y-161031971D01*
X219691278Y-161090000D01*
X219988722Y-161090000D01*
X220280451Y-161031971D01*
X220555253Y-160918144D01*
X220802569Y-160752893D01*
X221012893Y-160542569D01*
X221110000Y-160397238D01*
X221207107Y-160542569D01*
X221417431Y-160752893D01*
X221664747Y-160918144D01*
X221939549Y-161031971D01*
X222231278Y-161090000D01*
X222528722Y-161090000D01*
X222820451Y-161031971D01*
X223095253Y-160918144D01*
X223342569Y-160752893D01*
X223552893Y-160542569D01*
X223718144Y-160295253D01*
X223831971Y-160020451D01*
X223890000Y-159728722D01*
X223890000Y-159431278D01*
X223831971Y-159139549D01*
X223718144Y-158864747D01*
X223552893Y-158617431D01*
X223342569Y-158407107D01*
X223197238Y-158310000D01*
X223342569Y-158212893D01*
X223552893Y-158002569D01*
X223718144Y-157755253D01*
X223831971Y-157480451D01*
X223890000Y-157188722D01*
X223890000Y-156891278D01*
X223831971Y-156599549D01*
X223718144Y-156324747D01*
X223552893Y-156077431D01*
X223342569Y-155867107D01*
X223314387Y-155848276D01*
X223541714Y-155661714D01*
X223746031Y-155412752D01*
X223897852Y-155128715D01*
X223991343Y-154820516D01*
X224022911Y-154500000D01*
X223991343Y-154179484D01*
X223897852Y-153871285D01*
X223746031Y-153587248D01*
X223541714Y-153338286D01*
X223292752Y-153133969D01*
X223218426Y-153094241D01*
X223246635Y-153006240D01*
X222380000Y-152139605D01*
X222365858Y-152153748D01*
X222186253Y-151974143D01*
X222200395Y-151960000D01*
X222559605Y-151960000D01*
X223426240Y-152826635D01*
X223677868Y-152745975D01*
X223806267Y-152477671D01*
X223879855Y-152189474D01*
X223895804Y-151892457D01*
X223853501Y-151598037D01*
X223754572Y-151317526D01*
X223677868Y-151174025D01*
X223426240Y-151093365D01*
X222559605Y-151960000D01*
X222200395Y-151960000D01*
X221333760Y-151093365D01*
X221110000Y-151165092D01*
X220886240Y-151093365D01*
X220019605Y-151960000D01*
X220033748Y-151974143D01*
X219854143Y-152153748D01*
X219840000Y-152139605D01*
X219825858Y-152153748D01*
X219646253Y-151974143D01*
X219660395Y-151960000D01*
X218793760Y-151093365D01*
X218542132Y-151174025D01*
X218413733Y-151442329D01*
X218340145Y-151730526D01*
X218324196Y-152027543D01*
X218366499Y-152321963D01*
X218465428Y-152602474D01*
X218542132Y-152745975D01*
X218793758Y-152826634D01*
X218755392Y-152865000D01*
X194544608Y-152865000D01*
X194506242Y-152826634D01*
X194757868Y-152745975D01*
X194886267Y-152477671D01*
X194959855Y-152189474D01*
X194975804Y-151892457D01*
X194933501Y-151598037D01*
X194834572Y-151317526D01*
X194757868Y-151174025D01*
X194506240Y-151093365D01*
X193639605Y-151960000D01*
X193653748Y-151974143D01*
X193474143Y-152153748D01*
X193460000Y-152139605D01*
X193445858Y-152153748D01*
X193266253Y-151974143D01*
X193280395Y-151960000D01*
X192413760Y-151093365D01*
X192190000Y-151165092D01*
X191966240Y-151093365D01*
X191099605Y-151960000D01*
X191113748Y-151974143D01*
X190934143Y-152153748D01*
X190920000Y-152139605D01*
X190053365Y-153006240D01*
X190081574Y-153094241D01*
X190007248Y-153133969D01*
X189758286Y-153338286D01*
X189553969Y-153587248D01*
X189402148Y-153871285D01*
X189308657Y-154179484D01*
X189277089Y-154500000D01*
X188045000Y-154500000D01*
X188045000Y-152027543D01*
X189404196Y-152027543D01*
X189446499Y-152321963D01*
X189545428Y-152602474D01*
X189622132Y-152745975D01*
X189873760Y-152826635D01*
X190740395Y-151960000D01*
X189873760Y-151093365D01*
X189622132Y-151174025D01*
X189493733Y-151442329D01*
X189420145Y-151730526D01*
X189404196Y-152027543D01*
X188045000Y-152027543D01*
X188045000Y-150466240D01*
X190053365Y-150466240D01*
X190125092Y-150690000D01*
X190053365Y-150913760D01*
X190920000Y-151780395D01*
X191786635Y-150913760D01*
X191714908Y-150690000D01*
X191786635Y-150466240D01*
X192593365Y-150466240D01*
X192665092Y-150690000D01*
X192593365Y-150913760D01*
X193460000Y-151780395D01*
X194326635Y-150913760D01*
X194254908Y-150690000D01*
X194326635Y-150466240D01*
X218973365Y-150466240D01*
X219045092Y-150690000D01*
X218973365Y-150913760D01*
X219840000Y-151780395D01*
X220706635Y-150913760D01*
X220634908Y-150690000D01*
X220706635Y-150466240D01*
X221513365Y-150466240D01*
X221585092Y-150690000D01*
X221513365Y-150913760D01*
X222380000Y-151780395D01*
X223246635Y-150913760D01*
X223174908Y-150690000D01*
X223246635Y-150466240D01*
X222380000Y-149599605D01*
X221513365Y-150466240D01*
X220706635Y-150466240D01*
X219840000Y-149599605D01*
X218973365Y-150466240D01*
X194326635Y-150466240D01*
X193460000Y-149599605D01*
X192593365Y-150466240D01*
X191786635Y-150466240D01*
X190920000Y-149599605D01*
X190053365Y-150466240D01*
X188045000Y-150466240D01*
X188045000Y-149487543D01*
X189404196Y-149487543D01*
X189446499Y-149781963D01*
X189545428Y-150062474D01*
X189622132Y-150205975D01*
X189873760Y-150286635D01*
X190740395Y-149420000D01*
X189873760Y-148553365D01*
X189622132Y-148634025D01*
X189493733Y-148902329D01*
X189420145Y-149190526D01*
X189404196Y-149487543D01*
X188045000Y-149487543D01*
X188045000Y-149390131D01*
X189420133Y-148015000D01*
X189748156Y-148015000D01*
X189778286Y-148051714D01*
X190027248Y-148256031D01*
X190081763Y-148285170D01*
X190053365Y-148373760D01*
X190920000Y-149240395D01*
X190934143Y-149226253D01*
X191113748Y-149405858D01*
X191099605Y-149420000D01*
X191966240Y-150286635D01*
X192190000Y-150214908D01*
X192413760Y-150286635D01*
X193280395Y-149420000D01*
X193639605Y-149420000D01*
X194506240Y-150286635D01*
X194757868Y-150205975D01*
X194886267Y-149937671D01*
X194959855Y-149649474D01*
X194968550Y-149487543D01*
X218324196Y-149487543D01*
X218366499Y-149781963D01*
X218465428Y-150062474D01*
X218542132Y-150205975D01*
X218793760Y-150286635D01*
X219660395Y-149420000D01*
X220019605Y-149420000D01*
X220886240Y-150286635D01*
X221110000Y-150214908D01*
X221333760Y-150286635D01*
X222200395Y-149420000D01*
X222559605Y-149420000D01*
X223426240Y-150286635D01*
X223677868Y-150205975D01*
X223806267Y-149937671D01*
X223879855Y-149649474D01*
X223895804Y-149352457D01*
X223853501Y-149058037D01*
X223754572Y-148777526D01*
X223677868Y-148634025D01*
X223426240Y-148553365D01*
X222559605Y-149420000D01*
X222200395Y-149420000D01*
X221333760Y-148553365D01*
X221110000Y-148625092D01*
X220886240Y-148553365D01*
X220019605Y-149420000D01*
X219660395Y-149420000D01*
X218793760Y-148553365D01*
X218542132Y-148634025D01*
X218413733Y-148902329D01*
X218340145Y-149190526D01*
X218324196Y-149487543D01*
X194968550Y-149487543D01*
X194975804Y-149352457D01*
X194933501Y-149058037D01*
X194834572Y-148777526D01*
X194757868Y-148634025D01*
X194506240Y-148553365D01*
X193639605Y-149420000D01*
X193280395Y-149420000D01*
X193266253Y-149405858D01*
X193445858Y-149226253D01*
X193460000Y-149240395D01*
X194326635Y-148373760D01*
X194304088Y-148303423D01*
X194392752Y-148256031D01*
X194641714Y-148051714D01*
X194846031Y-147802752D01*
X194997852Y-147518715D01*
X195091343Y-147210516D01*
X195122911Y-146890000D01*
X195091343Y-146569484D01*
X194997852Y-146261285D01*
X194846031Y-145977248D01*
X194641714Y-145728286D01*
X194392752Y-145523969D01*
X194108715Y-145372148D01*
X193800516Y-145278657D01*
X193560322Y-145255000D01*
X190859678Y-145255000D01*
X190619484Y-145278657D01*
X190311285Y-145372148D01*
X190027248Y-145523969D01*
X189778286Y-145728286D01*
X189764569Y-145745000D01*
X189005752Y-145745000D01*
X188950000Y-145739509D01*
X188727501Y-145761423D01*
X188513553Y-145826324D01*
X188316377Y-145931716D01*
X188186856Y-146038011D01*
X188186855Y-146038012D01*
X188143551Y-146073551D01*
X188108013Y-146116854D01*
X186146860Y-148078009D01*
X186103552Y-148113551D01*
X185961717Y-148286377D01*
X185915010Y-148373760D01*
X185856324Y-148483554D01*
X185791423Y-148697502D01*
X185769509Y-148920000D01*
X184110000Y-148920000D01*
X184110000Y-142529570D01*
X189815000Y-142529570D01*
X189815000Y-142930430D01*
X189893204Y-143323587D01*
X190046607Y-143693934D01*
X190269313Y-144027237D01*
X190552763Y-144310687D01*
X190886066Y-144533393D01*
X191256413Y-144686796D01*
X191649570Y-144765000D01*
X192050430Y-144765000D01*
X192443587Y-144686796D01*
X192813934Y-144533393D01*
X193147237Y-144310687D01*
X193430687Y-144027237D01*
X193653393Y-143693934D01*
X193806796Y-143323587D01*
X193885000Y-142930430D01*
X193885000Y-142529570D01*
X218735000Y-142529570D01*
X218735000Y-142930430D01*
X218813204Y-143323587D01*
X218966607Y-143693934D01*
X219189313Y-144027237D01*
X219472763Y-144310687D01*
X219806066Y-144533393D01*
X220176413Y-144686796D01*
X220569570Y-144765000D01*
X220970430Y-144765000D01*
X221363587Y-144686796D01*
X221733934Y-144533393D01*
X222067237Y-144310687D01*
X222350687Y-144027237D01*
X222573393Y-143693934D01*
X222726796Y-143323587D01*
X222805000Y-142930430D01*
X222805000Y-142529570D01*
X222726796Y-142136413D01*
X222573393Y-141766066D01*
X222350687Y-141432763D01*
X222067237Y-141149313D01*
X221733934Y-140926607D01*
X221363587Y-140773204D01*
X220970430Y-140695000D01*
X220569570Y-140695000D01*
X220176413Y-140773204D01*
X219806066Y-140926607D01*
X219472763Y-141149313D01*
X219189313Y-141432763D01*
X218966607Y-141766066D01*
X218813204Y-142136413D01*
X218735000Y-142529570D01*
X193885000Y-142529570D01*
X193806796Y-142136413D01*
X193653393Y-141766066D01*
X193430687Y-141432763D01*
X193147237Y-141149313D01*
X192813934Y-140926607D01*
X192443587Y-140773204D01*
X192050430Y-140695000D01*
X191649570Y-140695000D01*
X191256413Y-140773204D01*
X190886066Y-140926607D01*
X190552763Y-141149313D01*
X190269313Y-141432763D01*
X190046607Y-141766066D01*
X189893204Y-142136413D01*
X189815000Y-142529570D01*
X184110000Y-142529570D01*
X184110000Y-137019570D01*
X189775000Y-137019570D01*
X189775000Y-137420430D01*
X189853204Y-137813587D01*
X190006607Y-138183934D01*
X190229313Y-138517237D01*
X190512763Y-138800687D01*
X190846066Y-139023393D01*
X191216413Y-139176796D01*
X191609570Y-139255000D01*
X192010430Y-139255000D01*
X192403587Y-139176796D01*
X192773934Y-139023393D01*
X193107237Y-138800687D01*
X193390687Y-138517237D01*
X193613393Y-138183934D01*
X193766796Y-137813587D01*
X193845000Y-137420430D01*
X193845000Y-137019570D01*
X210775000Y-137019570D01*
X210775000Y-137420430D01*
X210853204Y-137813587D01*
X211006607Y-138183934D01*
X211229313Y-138517237D01*
X211512763Y-138800687D01*
X211846066Y-139023393D01*
X212216413Y-139176796D01*
X212609570Y-139255000D01*
X213010430Y-139255000D01*
X213403587Y-139176796D01*
X213773934Y-139023393D01*
X214107237Y-138800687D01*
X214390687Y-138517237D01*
X214613393Y-138183934D01*
X214766796Y-137813587D01*
X214845000Y-137420430D01*
X214845000Y-137019570D01*
X218725000Y-137019570D01*
X218725000Y-137420430D01*
X218803204Y-137813587D01*
X218956607Y-138183934D01*
X219179313Y-138517237D01*
X219462763Y-138800687D01*
X219796066Y-139023393D01*
X220166413Y-139176796D01*
X220559570Y-139255000D01*
X220960430Y-139255000D01*
X221353587Y-139176796D01*
X221723934Y-139023393D01*
X222057237Y-138800687D01*
X222340687Y-138517237D01*
X222563393Y-138183934D01*
X222716796Y-137813587D01*
X222795000Y-137420430D01*
X222795000Y-137019570D01*
X222716796Y-136626413D01*
X222563393Y-136256066D01*
X222340687Y-135922763D01*
X222057237Y-135639313D01*
X221723934Y-135416607D01*
X221353587Y-135263204D01*
X220960430Y-135185000D01*
X220559570Y-135185000D01*
X220166413Y-135263204D01*
X219796066Y-135416607D01*
X219462763Y-135639313D01*
X219179313Y-135922763D01*
X218956607Y-136256066D01*
X218803204Y-136626413D01*
X218725000Y-137019570D01*
X214845000Y-137019570D01*
X214766796Y-136626413D01*
X214613393Y-136256066D01*
X214390687Y-135922763D01*
X214107237Y-135639313D01*
X213773934Y-135416607D01*
X213403587Y-135263204D01*
X213010430Y-135185000D01*
X212609570Y-135185000D01*
X212216413Y-135263204D01*
X211846066Y-135416607D01*
X211512763Y-135639313D01*
X211229313Y-135922763D01*
X211006607Y-136256066D01*
X210853204Y-136626413D01*
X210775000Y-137019570D01*
X193845000Y-137019570D01*
X193766796Y-136626413D01*
X193613393Y-136256066D01*
X193390687Y-135922763D01*
X193107237Y-135639313D01*
X192773934Y-135416607D01*
X192403587Y-135263204D01*
X192010430Y-135185000D01*
X191609570Y-135185000D01*
X191216413Y-135263204D01*
X190846066Y-135416607D01*
X190512763Y-135639313D01*
X190229313Y-135922763D01*
X190006607Y-136256066D01*
X189853204Y-136626413D01*
X189775000Y-137019570D01*
X184110000Y-137019570D01*
X184110000Y-127990000D01*
X189237089Y-127990000D01*
X189268657Y-128310516D01*
X189362148Y-128618715D01*
X189513969Y-128902752D01*
X189718286Y-129151714D01*
X189945613Y-129338276D01*
X189917431Y-129357107D01*
X189707107Y-129567431D01*
X189541856Y-129814747D01*
X189428029Y-130089549D01*
X189370000Y-130381278D01*
X189370000Y-130678722D01*
X189428029Y-130970451D01*
X189541856Y-131245253D01*
X189707107Y-131492569D01*
X189917431Y-131702893D01*
X190062762Y-131800000D01*
X189917431Y-131897107D01*
X189707107Y-132107431D01*
X189541856Y-132354747D01*
X189428029Y-132629549D01*
X189370000Y-132921278D01*
X189370000Y-133218722D01*
X189428029Y-133510451D01*
X189541856Y-133785253D01*
X189707107Y-134032569D01*
X189917431Y-134242893D01*
X190164747Y-134408144D01*
X190439549Y-134521971D01*
X190731278Y-134580000D01*
X191028722Y-134580000D01*
X191320451Y-134521971D01*
X191595253Y-134408144D01*
X191842569Y-134242893D01*
X192052893Y-134032569D01*
X192150000Y-133887238D01*
X192247107Y-134032569D01*
X192457431Y-134242893D01*
X192704747Y-134408144D01*
X192979549Y-134521971D01*
X193271278Y-134580000D01*
X193568722Y-134580000D01*
X193860451Y-134521971D01*
X194135253Y-134408144D01*
X194382569Y-134242893D01*
X194592893Y-134032569D01*
X194758144Y-133785253D01*
X194871971Y-133510451D01*
X194930000Y-133218722D01*
X194930000Y-132921278D01*
X194871971Y-132629549D01*
X194758144Y-132354747D01*
X194592893Y-132107431D01*
X194382569Y-131897107D01*
X194237238Y-131800000D01*
X194382569Y-131702893D01*
X194592893Y-131492569D01*
X194758144Y-131245253D01*
X194871971Y-130970451D01*
X194930000Y-130678722D01*
X194930000Y-130381278D01*
X194871971Y-130089549D01*
X194758144Y-129814747D01*
X194631359Y-129625000D01*
X196602088Y-129625000D01*
X196551717Y-129686377D01*
X196495384Y-129791770D01*
X196446324Y-129883554D01*
X196381423Y-130097502D01*
X196359509Y-130320000D01*
X196365001Y-130375761D01*
X196365000Y-133115751D01*
X196381423Y-133282498D01*
X196446324Y-133496446D01*
X196551716Y-133693623D01*
X196693551Y-133866449D01*
X196866377Y-134008284D01*
X197063553Y-134113676D01*
X197277501Y-134178577D01*
X197500000Y-134200491D01*
X197722498Y-134178577D01*
X197936446Y-134113676D01*
X198133623Y-134008284D01*
X198306449Y-133866449D01*
X198448284Y-133693623D01*
X198553676Y-133496447D01*
X198618577Y-133282499D01*
X198635000Y-133115752D01*
X198635000Y-130790131D01*
X199795609Y-129629524D01*
X199830000Y-129632911D01*
X199910319Y-129625000D01*
X206419680Y-129625000D01*
X206499999Y-129632911D01*
X206580319Y-129625000D01*
X218618641Y-129625000D01*
X218491856Y-129814747D01*
X218378029Y-130089549D01*
X218320000Y-130381278D01*
X218320000Y-130678722D01*
X218378029Y-130970451D01*
X218491856Y-131245253D01*
X218657107Y-131492569D01*
X218867431Y-131702893D01*
X219012762Y-131800000D01*
X218867431Y-131897107D01*
X218657107Y-132107431D01*
X218491856Y-132354747D01*
X218378029Y-132629549D01*
X218320000Y-132921278D01*
X218320000Y-133218722D01*
X218378029Y-133510451D01*
X218491856Y-133785253D01*
X218657107Y-134032569D01*
X218867431Y-134242893D01*
X219114747Y-134408144D01*
X219389549Y-134521971D01*
X219681278Y-134580000D01*
X219978722Y-134580000D01*
X220270451Y-134521971D01*
X220545253Y-134408144D01*
X220792569Y-134242893D01*
X221002893Y-134032569D01*
X221100000Y-133887238D01*
X221197107Y-134032569D01*
X221407431Y-134242893D01*
X221654747Y-134408144D01*
X221929549Y-134521971D01*
X222221278Y-134580000D01*
X222518722Y-134580000D01*
X222810451Y-134521971D01*
X223085253Y-134408144D01*
X223332569Y-134242893D01*
X223542893Y-134032569D01*
X223708144Y-133785253D01*
X223821971Y-133510451D01*
X223880000Y-133218722D01*
X223880000Y-132921278D01*
X223821971Y-132629549D01*
X223708144Y-132354747D01*
X223542893Y-132107431D01*
X223332569Y-131897107D01*
X223187238Y-131800000D01*
X223332569Y-131702893D01*
X223542893Y-131492569D01*
X223708144Y-131245253D01*
X223821971Y-130970451D01*
X223880000Y-130678722D01*
X223880000Y-130381278D01*
X223821971Y-130089549D01*
X223708144Y-129814747D01*
X223542893Y-129567431D01*
X223332569Y-129357107D01*
X223304387Y-129338276D01*
X223531714Y-129151714D01*
X223736031Y-128902752D01*
X223887852Y-128618715D01*
X223981343Y-128310516D01*
X224012911Y-127990000D01*
X223981343Y-127669484D01*
X223887852Y-127361285D01*
X223736031Y-127077248D01*
X223531714Y-126828286D01*
X223282752Y-126623969D01*
X223208426Y-126584241D01*
X223236635Y-126496240D01*
X222370000Y-125629605D01*
X222355858Y-125643748D01*
X222176253Y-125464143D01*
X222190395Y-125450000D01*
X222549605Y-125450000D01*
X223416240Y-126316635D01*
X223667868Y-126235975D01*
X223796267Y-125967671D01*
X223869855Y-125679474D01*
X223885804Y-125382457D01*
X223843501Y-125088037D01*
X223744572Y-124807526D01*
X223667868Y-124664025D01*
X223416240Y-124583365D01*
X222549605Y-125450000D01*
X222190395Y-125450000D01*
X221323760Y-124583365D01*
X221100000Y-124655092D01*
X220876240Y-124583365D01*
X220009605Y-125450000D01*
X220023748Y-125464143D01*
X219844143Y-125643748D01*
X219830000Y-125629605D01*
X219815858Y-125643748D01*
X219636253Y-125464143D01*
X219650395Y-125450000D01*
X218783760Y-124583365D01*
X218532132Y-124664025D01*
X218403733Y-124932329D01*
X218330145Y-125220526D01*
X218314196Y-125517543D01*
X218356499Y-125811963D01*
X218455428Y-126092474D01*
X218532132Y-126235975D01*
X218783758Y-126316634D01*
X218745392Y-126355000D01*
X207177239Y-126355000D01*
X204861892Y-124039654D01*
X204853677Y-123956240D01*
X218963365Y-123956240D01*
X219035092Y-124180000D01*
X218963365Y-124403760D01*
X219830000Y-125270395D01*
X220696635Y-124403760D01*
X220624908Y-124180000D01*
X220696635Y-123956240D01*
X221503365Y-123956240D01*
X221575092Y-124180000D01*
X221503365Y-124403760D01*
X222370000Y-125270395D01*
X223236635Y-124403760D01*
X223164908Y-124180000D01*
X223236635Y-123956240D01*
X222370000Y-123089605D01*
X221503365Y-123956240D01*
X220696635Y-123956240D01*
X219830000Y-123089605D01*
X218963365Y-123956240D01*
X204853677Y-123956240D01*
X204851505Y-123934196D01*
X204835000Y-123766614D01*
X204835000Y-122977543D01*
X218314196Y-122977543D01*
X218356499Y-123271963D01*
X218455428Y-123552474D01*
X218532132Y-123695975D01*
X218783760Y-123776635D01*
X219650395Y-122910000D01*
X220009605Y-122910000D01*
X220876240Y-123776635D01*
X221100000Y-123704908D01*
X221323760Y-123776635D01*
X222190395Y-122910000D01*
X222549605Y-122910000D01*
X223416240Y-123776635D01*
X223667868Y-123695975D01*
X223796267Y-123427671D01*
X223869855Y-123139474D01*
X223885804Y-122842457D01*
X223843501Y-122548037D01*
X223744572Y-122267526D01*
X223667868Y-122124025D01*
X223416240Y-122043365D01*
X222549605Y-122910000D01*
X222190395Y-122910000D01*
X221323760Y-122043365D01*
X221100000Y-122115092D01*
X220876240Y-122043365D01*
X220009605Y-122910000D01*
X219650395Y-122910000D01*
X218783760Y-122043365D01*
X218532132Y-122124025D01*
X218403733Y-122392329D01*
X218330145Y-122680526D01*
X218314196Y-122977543D01*
X204835000Y-122977543D01*
X204835000Y-120430000D01*
X206449509Y-120430000D01*
X206471423Y-120652499D01*
X206536324Y-120866447D01*
X206641716Y-121063623D01*
X206783551Y-121236449D01*
X206956377Y-121378284D01*
X207153553Y-121483676D01*
X207367501Y-121548577D01*
X207534248Y-121565000D01*
X209604249Y-121565000D01*
X209660000Y-121570491D01*
X209715751Y-121565000D01*
X209715752Y-121565000D01*
X209882499Y-121548577D01*
X210096447Y-121483676D01*
X210293623Y-121378284D01*
X210466449Y-121236449D01*
X210501996Y-121193135D01*
X211473853Y-120221278D01*
X218320000Y-120221278D01*
X218320000Y-120518722D01*
X218378029Y-120810451D01*
X218491856Y-121085253D01*
X218657107Y-121332569D01*
X218867431Y-121542893D01*
X219031153Y-121652288D01*
X218963365Y-121863760D01*
X219830000Y-122730395D01*
X220696635Y-121863760D01*
X220628847Y-121652288D01*
X220792569Y-121542893D01*
X220830462Y-121505000D01*
X221369538Y-121505000D01*
X221407431Y-121542893D01*
X221571153Y-121652288D01*
X221503365Y-121863760D01*
X222370000Y-122730395D01*
X223236635Y-121863760D01*
X223168847Y-121652288D01*
X223332569Y-121542893D01*
X223370462Y-121505000D01*
X226079869Y-121505000D01*
X229275001Y-124700133D01*
X229275000Y-187039868D01*
X223506860Y-192808009D01*
X223463552Y-192843551D01*
X223321717Y-193016377D01*
X223265384Y-193121770D01*
X223216324Y-193213554D01*
X223151423Y-193427502D01*
X223129509Y-193650000D01*
X223135001Y-193705762D01*
X223135000Y-212584249D01*
X223129509Y-212640000D01*
X223135000Y-212695751D01*
X223151423Y-212862498D01*
X223216324Y-213076446D01*
X223321716Y-213273623D01*
X223463551Y-213446449D01*
X223506865Y-213481996D01*
X225976856Y-215951988D01*
X226106376Y-216058283D01*
X226303552Y-216163675D01*
X226517500Y-216228576D01*
X226739999Y-216250490D01*
X226962498Y-216228576D01*
X227176446Y-216163675D01*
X227373622Y-216058283D01*
X227546448Y-215916448D01*
X227688283Y-215743622D01*
X227793675Y-215546446D01*
X227858576Y-215332498D01*
X227880490Y-215109999D01*
X227858576Y-214887500D01*
X227793675Y-214673552D01*
X227688283Y-214476376D01*
X227581988Y-214346856D01*
X225405000Y-212169869D01*
X225405000Y-194120131D01*
X231173141Y-188351991D01*
X231216449Y-188316449D01*
X231358284Y-188143623D01*
X231463676Y-187946447D01*
X231528577Y-187732499D01*
X231545000Y-187565752D01*
X231545000Y-187565743D01*
X231550490Y-187510001D01*
X231545000Y-187454259D01*
X231545000Y-124285741D01*
X231550490Y-124229999D01*
X231545000Y-124174257D01*
X231545000Y-124174248D01*
X231528577Y-124007501D01*
X231463676Y-123793553D01*
X231358284Y-123596377D01*
X231216449Y-123423551D01*
X231173141Y-123388009D01*
X227391996Y-119606865D01*
X227356449Y-119563551D01*
X227183623Y-119421716D01*
X226986447Y-119316324D01*
X226772499Y-119251423D01*
X226605752Y-119235000D01*
X226605751Y-119235000D01*
X226550000Y-119229509D01*
X226494249Y-119235000D01*
X223370462Y-119235000D01*
X223332569Y-119197107D01*
X223085253Y-119031856D01*
X222810451Y-118918029D01*
X222518722Y-118860000D01*
X222221278Y-118860000D01*
X221929549Y-118918029D01*
X221654747Y-119031856D01*
X221407431Y-119197107D01*
X221369538Y-119235000D01*
X220830462Y-119235000D01*
X220792569Y-119197107D01*
X220545253Y-119031856D01*
X220270451Y-118918029D01*
X219978722Y-118860000D01*
X219681278Y-118860000D01*
X219389549Y-118918029D01*
X219114747Y-119031856D01*
X218867431Y-119197107D01*
X218657107Y-119407431D01*
X218491856Y-119654747D01*
X218378029Y-119929549D01*
X218320000Y-120221278D01*
X211473853Y-120221278D01*
X217190132Y-114505000D01*
X219663777Y-114505000D01*
X219462763Y-114639313D01*
X219179313Y-114922763D01*
X218956607Y-115256066D01*
X218803204Y-115626413D01*
X218725000Y-116019570D01*
X218725000Y-116420430D01*
X218803204Y-116813587D01*
X218956607Y-117183934D01*
X219179313Y-117517237D01*
X219462763Y-117800687D01*
X219796066Y-118023393D01*
X220166413Y-118176796D01*
X220559570Y-118255000D01*
X220960430Y-118255000D01*
X221353587Y-118176796D01*
X221723934Y-118023393D01*
X222057237Y-117800687D01*
X222340687Y-117517237D01*
X222563393Y-117183934D01*
X222716796Y-116813587D01*
X222795000Y-116420430D01*
X222795000Y-116019570D01*
X222716796Y-115626413D01*
X222563393Y-115256066D01*
X222340687Y-114922763D01*
X222057237Y-114639313D01*
X221856223Y-114505000D01*
X225199869Y-114505000D01*
X232235001Y-121540133D01*
X232235000Y-188239867D01*
X225996860Y-194478009D01*
X225953552Y-194513551D01*
X225811717Y-194686377D01*
X225802471Y-194703676D01*
X225706324Y-194883554D01*
X225641423Y-195097502D01*
X225619509Y-195320000D01*
X225625001Y-195375761D01*
X225625000Y-210395751D01*
X225641423Y-210562498D01*
X225706324Y-210776446D01*
X225811716Y-210973623D01*
X225953551Y-211146449D01*
X226126377Y-211288284D01*
X226323553Y-211393676D01*
X226537501Y-211458577D01*
X226760000Y-211480491D01*
X226982498Y-211458577D01*
X227196446Y-211393676D01*
X227393623Y-211288284D01*
X227566449Y-211146449D01*
X227708284Y-210973623D01*
X227813676Y-210776447D01*
X227878577Y-210562499D01*
X227895000Y-210395752D01*
X227895000Y-207798061D01*
X230075000Y-207798061D01*
X230075000Y-208001939D01*
X230114774Y-208201898D01*
X230192795Y-208390256D01*
X230306063Y-208559774D01*
X230450226Y-208703937D01*
X230619744Y-208817205D01*
X230808102Y-208895226D01*
X231008061Y-208935000D01*
X231034843Y-208935000D01*
X231302653Y-209202810D01*
X231327236Y-209232764D01*
X231446767Y-209330862D01*
X231583140Y-209403754D01*
X231731113Y-209448642D01*
X231806026Y-209456020D01*
X231846439Y-209460000D01*
X231846444Y-209460000D01*
X231885000Y-209463797D01*
X231923556Y-209460000D01*
X236476289Y-209460000D01*
X236495226Y-209478937D01*
X236664744Y-209592205D01*
X236853102Y-209670226D01*
X237053061Y-209710000D01*
X237256939Y-209710000D01*
X237456898Y-209670226D01*
X237632251Y-209597592D01*
X236552185Y-210677658D01*
X236522237Y-210702236D01*
X236497659Y-210732184D01*
X236497655Y-210732188D01*
X236489793Y-210741768D01*
X236424139Y-210821767D01*
X236419602Y-210830256D01*
X236351246Y-210958141D01*
X236306359Y-211106114D01*
X236291203Y-211260000D01*
X236295001Y-211298562D01*
X236295001Y-211731288D01*
X236276063Y-211750226D01*
X236162795Y-211919744D01*
X236084774Y-212108102D01*
X236045000Y-212308061D01*
X236045000Y-212511939D01*
X236084774Y-212711898D01*
X236162795Y-212900256D01*
X236276063Y-213069774D01*
X236420226Y-213213937D01*
X236589744Y-213327205D01*
X236778102Y-213405226D01*
X236978061Y-213445000D01*
X237181939Y-213445000D01*
X237381898Y-213405226D01*
X237570256Y-213327205D01*
X237739774Y-213213937D01*
X237883937Y-213069774D01*
X237997205Y-212900256D01*
X238075226Y-212711898D01*
X238115000Y-212511939D01*
X238115000Y-212308061D01*
X238075226Y-212108102D01*
X237997205Y-211919744D01*
X237883937Y-211750226D01*
X237865000Y-211731289D01*
X237865000Y-211585157D01*
X240990158Y-208460000D01*
X241016939Y-208460000D01*
X241216898Y-208420226D01*
X241405256Y-208342205D01*
X241574774Y-208228937D01*
X241718937Y-208084774D01*
X241832205Y-207915256D01*
X241910226Y-207726898D01*
X241950000Y-207526939D01*
X241950000Y-207323061D01*
X241910226Y-207123102D01*
X241832205Y-206934744D01*
X241718937Y-206765226D01*
X241574774Y-206621063D01*
X241405256Y-206507795D01*
X241216898Y-206429774D01*
X241016939Y-206390000D01*
X240813061Y-206390000D01*
X240613102Y-206429774D01*
X240424744Y-206507795D01*
X240255226Y-206621063D01*
X240111063Y-206765226D01*
X239997795Y-206934744D01*
X239919774Y-207123102D01*
X239880000Y-207323061D01*
X239880000Y-207349842D01*
X238077592Y-209152251D01*
X238150226Y-208976898D01*
X238190000Y-208776939D01*
X238190000Y-208573061D01*
X238150226Y-208373102D01*
X238072205Y-208184744D01*
X237958937Y-208015226D01*
X237814774Y-207871063D01*
X237645256Y-207757795D01*
X237456898Y-207679774D01*
X237256939Y-207640000D01*
X237053061Y-207640000D01*
X236853102Y-207679774D01*
X236664744Y-207757795D01*
X236495226Y-207871063D01*
X236476289Y-207890000D01*
X232210157Y-207890000D01*
X232145000Y-207824843D01*
X232145000Y-207798061D01*
X232105226Y-207598102D01*
X232027205Y-207409744D01*
X231913937Y-207240226D01*
X231769774Y-207096063D01*
X231600256Y-206982795D01*
X231411898Y-206904774D01*
X231211939Y-206865000D01*
X231008061Y-206865000D01*
X230808102Y-206904774D01*
X230619744Y-206982795D01*
X230450226Y-207096063D01*
X230306063Y-207240226D01*
X230192795Y-207409744D01*
X230114774Y-207598102D01*
X230075000Y-207798061D01*
X227895000Y-207798061D01*
X227895000Y-195790131D01*
X234133146Y-189551987D01*
X234176449Y-189516449D01*
X234318284Y-189343623D01*
X234423676Y-189146447D01*
X234488577Y-188932499D01*
X234505000Y-188765752D01*
X234505000Y-188765751D01*
X234510491Y-188710000D01*
X234505000Y-188654248D01*
X234505000Y-163529570D01*
X239735000Y-163529570D01*
X239735000Y-163930430D01*
X239813204Y-164323587D01*
X239966607Y-164693934D01*
X240189313Y-165027237D01*
X240472763Y-165310687D01*
X240806066Y-165533393D01*
X241176413Y-165686796D01*
X241569570Y-165765000D01*
X241970430Y-165765000D01*
X242363587Y-165686796D01*
X242733934Y-165533393D01*
X243067237Y-165310687D01*
X243350687Y-165027237D01*
X243573393Y-164693934D01*
X243726796Y-164323587D01*
X243805000Y-163930430D01*
X243805000Y-163529570D01*
X243726796Y-163136413D01*
X243573393Y-162766066D01*
X243350687Y-162432763D01*
X243067237Y-162149313D01*
X242733934Y-161926607D01*
X242363587Y-161773204D01*
X241970430Y-161695000D01*
X241569570Y-161695000D01*
X241176413Y-161773204D01*
X240806066Y-161926607D01*
X240472763Y-162149313D01*
X240189313Y-162432763D01*
X239966607Y-162766066D01*
X239813204Y-163136413D01*
X239735000Y-163529570D01*
X234505000Y-163529570D01*
X234505000Y-137019570D01*
X239725000Y-137019570D01*
X239725000Y-137420430D01*
X239803204Y-137813587D01*
X239956607Y-138183934D01*
X240179313Y-138517237D01*
X240462763Y-138800687D01*
X240796066Y-139023393D01*
X241166413Y-139176796D01*
X241559570Y-139255000D01*
X241960430Y-139255000D01*
X242353587Y-139176796D01*
X242723934Y-139023393D01*
X243057237Y-138800687D01*
X243340687Y-138517237D01*
X243563393Y-138183934D01*
X243716796Y-137813587D01*
X243795000Y-137420430D01*
X243795000Y-137019570D01*
X243716796Y-136626413D01*
X243563393Y-136256066D01*
X243340687Y-135922763D01*
X243057237Y-135639313D01*
X242723934Y-135416607D01*
X242353587Y-135263204D01*
X241960430Y-135185000D01*
X241559570Y-135185000D01*
X241166413Y-135263204D01*
X240796066Y-135416607D01*
X240462763Y-135639313D01*
X240179313Y-135922763D01*
X239956607Y-136256066D01*
X239803204Y-136626413D01*
X239725000Y-137019570D01*
X234505000Y-137019570D01*
X234505000Y-121125741D01*
X234510490Y-121069999D01*
X234505000Y-121014257D01*
X234505000Y-121014248D01*
X234488577Y-120847501D01*
X234423676Y-120633553D01*
X234318284Y-120436377D01*
X234176449Y-120263551D01*
X234133141Y-120228009D01*
X226511996Y-112606865D01*
X226476449Y-112563551D01*
X226303623Y-112421716D01*
X226234932Y-112385000D01*
X228924249Y-112385000D01*
X228980000Y-112390491D01*
X229035751Y-112385000D01*
X229035752Y-112385000D01*
X229202499Y-112368577D01*
X229416447Y-112303676D01*
X229613623Y-112198284D01*
X229786449Y-112056449D01*
X229821996Y-112013135D01*
X231025561Y-110809570D01*
X234665000Y-110809570D01*
X234665000Y-111210430D01*
X234743204Y-111603587D01*
X234896607Y-111973934D01*
X235119313Y-112307237D01*
X235402763Y-112590687D01*
X235736066Y-112813393D01*
X236106413Y-112966796D01*
X236499570Y-113045000D01*
X236900430Y-113045000D01*
X237293587Y-112966796D01*
X237663934Y-112813393D01*
X237997237Y-112590687D01*
X238280687Y-112307237D01*
X238503393Y-111973934D01*
X238656796Y-111603587D01*
X238735000Y-111210430D01*
X238735000Y-110809570D01*
X238656796Y-110416413D01*
X238503393Y-110046066D01*
X238280687Y-109712763D01*
X237997237Y-109429313D01*
X237663934Y-109206607D01*
X237293587Y-109053204D01*
X236900430Y-108975000D01*
X236499570Y-108975000D01*
X236106413Y-109053204D01*
X235736066Y-109206607D01*
X235402763Y-109429313D01*
X235119313Y-109712763D01*
X234896607Y-110046066D01*
X234743204Y-110416413D01*
X234665000Y-110809570D01*
X231025561Y-110809570D01*
X234211989Y-107623144D01*
X234318284Y-107493623D01*
X234423676Y-107296447D01*
X234488577Y-107082499D01*
X234510491Y-106860000D01*
X234488577Y-106637501D01*
X234423676Y-106423553D01*
X234318284Y-106226377D01*
X234176449Y-106053551D01*
X234003623Y-105911716D01*
X233806447Y-105806324D01*
X233592499Y-105741423D01*
X233370000Y-105719509D01*
X233147501Y-105741423D01*
X232933553Y-105806324D01*
X232736377Y-105911716D01*
X232606856Y-106018011D01*
X228509869Y-110115000D01*
X220870462Y-110115000D01*
X220832569Y-110077107D01*
X220668847Y-109967712D01*
X220736635Y-109756240D01*
X219870000Y-108889605D01*
X219003365Y-109756240D01*
X219071153Y-109967712D01*
X218907431Y-110077107D01*
X218697107Y-110287431D01*
X218531856Y-110534747D01*
X218418029Y-110809549D01*
X218360000Y-111101278D01*
X218360000Y-111398722D01*
X218418029Y-111690451D01*
X218531856Y-111965253D01*
X218697107Y-112212569D01*
X218719538Y-112235000D01*
X216775752Y-112235000D01*
X216720000Y-112229509D01*
X216664248Y-112235000D01*
X216497501Y-112251423D01*
X216283553Y-112316324D01*
X216086377Y-112421716D01*
X215913551Y-112563551D01*
X215878009Y-112606859D01*
X209189869Y-119295000D01*
X207534248Y-119295000D01*
X207367501Y-119311423D01*
X207153553Y-119376324D01*
X206956377Y-119481716D01*
X206783551Y-119623551D01*
X206641716Y-119796377D01*
X206536324Y-119993553D01*
X206471423Y-120207501D01*
X206449509Y-120430000D01*
X204835000Y-120430000D01*
X204835000Y-110809570D01*
X210895000Y-110809570D01*
X210895000Y-111210430D01*
X210973204Y-111603587D01*
X211126607Y-111973934D01*
X211349313Y-112307237D01*
X211632763Y-112590687D01*
X211966066Y-112813393D01*
X212336413Y-112966796D01*
X212729570Y-113045000D01*
X213130430Y-113045000D01*
X213523587Y-112966796D01*
X213893934Y-112813393D01*
X214227237Y-112590687D01*
X214510687Y-112307237D01*
X214733393Y-111973934D01*
X214886796Y-111603587D01*
X214965000Y-111210430D01*
X214965000Y-110809570D01*
X214886796Y-110416413D01*
X214733393Y-110046066D01*
X214510687Y-109712763D01*
X214227237Y-109429313D01*
X213893934Y-109206607D01*
X213523587Y-109053204D01*
X213130430Y-108975000D01*
X212729570Y-108975000D01*
X212336413Y-109053204D01*
X211966066Y-109206607D01*
X211632763Y-109429313D01*
X211349313Y-109712763D01*
X211126607Y-110046066D01*
X210973204Y-110416413D01*
X210895000Y-110809570D01*
X204835000Y-110809570D01*
X204835000Y-108777543D01*
X218354196Y-108777543D01*
X218396499Y-109071963D01*
X218495428Y-109352474D01*
X218572132Y-109495975D01*
X218823760Y-109576635D01*
X219690395Y-108710000D01*
X220049605Y-108710000D01*
X220916240Y-109576635D01*
X221167868Y-109495975D01*
X221296267Y-109227671D01*
X221369855Y-108939474D01*
X221385804Y-108642457D01*
X221343501Y-108348037D01*
X221244572Y-108067526D01*
X221167868Y-107924025D01*
X220916240Y-107843365D01*
X220049605Y-108710000D01*
X219690395Y-108710000D01*
X218823760Y-107843365D01*
X218572132Y-107924025D01*
X218443733Y-108192329D01*
X218370145Y-108480526D01*
X218354196Y-108777543D01*
X204835000Y-108777543D01*
X204835000Y-107216240D01*
X219003365Y-107216240D01*
X219075092Y-107440000D01*
X219003365Y-107663760D01*
X219870000Y-108530395D01*
X220736635Y-107663760D01*
X220664908Y-107440000D01*
X220736635Y-107216240D01*
X219870000Y-106349605D01*
X219003365Y-107216240D01*
X204835000Y-107216240D01*
X204835000Y-106237543D01*
X218354196Y-106237543D01*
X218396499Y-106531963D01*
X218495428Y-106812474D01*
X218572132Y-106955975D01*
X218823760Y-107036635D01*
X219690395Y-106170000D01*
X220049605Y-106170000D01*
X220916240Y-107036635D01*
X221167868Y-106955975D01*
X221296267Y-106687671D01*
X221369855Y-106399474D01*
X221385804Y-106102457D01*
X221343501Y-105808037D01*
X221244572Y-105527526D01*
X221167868Y-105384025D01*
X220916240Y-105303365D01*
X220049605Y-106170000D01*
X219690395Y-106170000D01*
X218823760Y-105303365D01*
X218572132Y-105384025D01*
X218443733Y-105652329D01*
X218370145Y-105940526D01*
X218354196Y-106237543D01*
X204835000Y-106237543D01*
X204835000Y-100941278D01*
X218360000Y-100941278D01*
X218360000Y-101238722D01*
X218418029Y-101530451D01*
X218531856Y-101805253D01*
X218697107Y-102052569D01*
X218907431Y-102262893D01*
X219052762Y-102360000D01*
X218907431Y-102457107D01*
X218697107Y-102667431D01*
X218531856Y-102914747D01*
X218418029Y-103189549D01*
X218360000Y-103481278D01*
X218360000Y-103778722D01*
X218418029Y-104070451D01*
X218531856Y-104345253D01*
X218697107Y-104592569D01*
X218907431Y-104802893D01*
X219071153Y-104912288D01*
X219003365Y-105123760D01*
X219870000Y-105990395D01*
X220736635Y-105123760D01*
X220668847Y-104912288D01*
X220832569Y-104802893D01*
X221042893Y-104592569D01*
X221208144Y-104345253D01*
X221321971Y-104070451D01*
X221380000Y-103778722D01*
X221380000Y-103481278D01*
X221321971Y-103189549D01*
X221208144Y-102914747D01*
X221042893Y-102667431D01*
X220832569Y-102457107D01*
X220687238Y-102360000D01*
X220832569Y-102262893D01*
X221042893Y-102052569D01*
X221208144Y-101805253D01*
X221321971Y-101530451D01*
X221380000Y-101238722D01*
X221380000Y-100941278D01*
X221321971Y-100649549D01*
X221208144Y-100374747D01*
X221042893Y-100127431D01*
X220832569Y-99917107D01*
X220585253Y-99751856D01*
X220310451Y-99638029D01*
X220018722Y-99580000D01*
X219721278Y-99580000D01*
X219429549Y-99638029D01*
X219154747Y-99751856D01*
X218907431Y-99917107D01*
X218697107Y-100127431D01*
X218531856Y-100374747D01*
X218418029Y-100649549D01*
X218360000Y-100941278D01*
X204835000Y-100941278D01*
X204835000Y-97309570D01*
X218665000Y-97309570D01*
X218665000Y-97710430D01*
X218743204Y-98103587D01*
X218896607Y-98473934D01*
X219119313Y-98807237D01*
X219402763Y-99090687D01*
X219736066Y-99313393D01*
X220106413Y-99466796D01*
X220499570Y-99545000D01*
X220900430Y-99545000D01*
X221293587Y-99466796D01*
X221663934Y-99313393D01*
X221997237Y-99090687D01*
X222280687Y-98807237D01*
X222503393Y-98473934D01*
X222656796Y-98103587D01*
X222735000Y-97710430D01*
X222735000Y-97309570D01*
X222656796Y-96916413D01*
X222503393Y-96546066D01*
X222280687Y-96212763D01*
X221997237Y-95929313D01*
X221663934Y-95706607D01*
X221293587Y-95553204D01*
X220900430Y-95475000D01*
X220499570Y-95475000D01*
X220106413Y-95553204D01*
X219736066Y-95706607D01*
X219402763Y-95929313D01*
X219119313Y-96212763D01*
X218896607Y-96546066D01*
X218743204Y-96916413D01*
X218665000Y-97309570D01*
X204835000Y-97309570D01*
X204835000Y-92750322D01*
X204842911Y-92670000D01*
X204811343Y-92349484D01*
X204717852Y-92041285D01*
X204566031Y-91757248D01*
X204361714Y-91508286D01*
X204112752Y-91303969D01*
X203828715Y-91152148D01*
X203520516Y-91058657D01*
X203280322Y-91035000D01*
X203200000Y-91027089D01*
X203119678Y-91035000D01*
X202879484Y-91058657D01*
X202571285Y-91152148D01*
X202287248Y-91303969D01*
X202038286Y-91508286D01*
X201833969Y-91757248D01*
X201682148Y-92041285D01*
X201588657Y-92349484D01*
X201557089Y-92670000D01*
X201565000Y-92750322D01*
X201565000Y-95619679D01*
X201565001Y-123942760D01*
X199152762Y-126355000D01*
X194504608Y-126355000D01*
X194466242Y-126316634D01*
X194717868Y-126235975D01*
X194846267Y-125967671D01*
X194919855Y-125679474D01*
X194935804Y-125382457D01*
X194893501Y-125088037D01*
X194794572Y-124807526D01*
X194717868Y-124664025D01*
X194466240Y-124583365D01*
X193599605Y-125450000D01*
X193613748Y-125464143D01*
X193434143Y-125643748D01*
X193420000Y-125629605D01*
X193405858Y-125643748D01*
X193226253Y-125464143D01*
X193240395Y-125450000D01*
X192373760Y-124583365D01*
X192150000Y-124655092D01*
X191926240Y-124583365D01*
X191059605Y-125450000D01*
X191073748Y-125464143D01*
X190894143Y-125643748D01*
X190880000Y-125629605D01*
X190013365Y-126496240D01*
X190041574Y-126584241D01*
X189967248Y-126623969D01*
X189718286Y-126828286D01*
X189513969Y-127077248D01*
X189362148Y-127361285D01*
X189268657Y-127669484D01*
X189237089Y-127990000D01*
X184110000Y-127990000D01*
X184110000Y-125517543D01*
X189364196Y-125517543D01*
X189406499Y-125811963D01*
X189505428Y-126092474D01*
X189582132Y-126235975D01*
X189833760Y-126316635D01*
X190700395Y-125450000D01*
X189833760Y-124583365D01*
X189582132Y-124664025D01*
X189453733Y-124932329D01*
X189380145Y-125220526D01*
X189364196Y-125517543D01*
X184110000Y-125517543D01*
X184110000Y-123956240D01*
X190013365Y-123956240D01*
X190085092Y-124180000D01*
X190013365Y-124403760D01*
X190880000Y-125270395D01*
X191746635Y-124403760D01*
X191674908Y-124180000D01*
X191746635Y-123956240D01*
X192553365Y-123956240D01*
X192625092Y-124180000D01*
X192553365Y-124403760D01*
X193420000Y-125270395D01*
X194286635Y-124403760D01*
X194214908Y-124180000D01*
X194286635Y-123956240D01*
X193420000Y-123089605D01*
X192553365Y-123956240D01*
X191746635Y-123956240D01*
X190880000Y-123089605D01*
X190013365Y-123956240D01*
X184110000Y-123956240D01*
X184110000Y-122977543D01*
X189364196Y-122977543D01*
X189406499Y-123271963D01*
X189505428Y-123552474D01*
X189582132Y-123695975D01*
X189833760Y-123776635D01*
X190700395Y-122910000D01*
X191059605Y-122910000D01*
X191926240Y-123776635D01*
X192150000Y-123704908D01*
X192373760Y-123776635D01*
X193240395Y-122910000D01*
X193599605Y-122910000D01*
X194466240Y-123776635D01*
X194717868Y-123695975D01*
X194846267Y-123427671D01*
X194919855Y-123139474D01*
X194935804Y-122842457D01*
X194893501Y-122548037D01*
X194794572Y-122267526D01*
X194717868Y-122124025D01*
X194466240Y-122043365D01*
X193599605Y-122910000D01*
X193240395Y-122910000D01*
X192373760Y-122043365D01*
X192150000Y-122115092D01*
X191926240Y-122043365D01*
X191059605Y-122910000D01*
X190700395Y-122910000D01*
X189833760Y-122043365D01*
X189582132Y-122124025D01*
X189453733Y-122392329D01*
X189380145Y-122680526D01*
X189364196Y-122977543D01*
X184110000Y-122977543D01*
X184110000Y-120221278D01*
X189370000Y-120221278D01*
X189370000Y-120518722D01*
X189428029Y-120810451D01*
X189541856Y-121085253D01*
X189707107Y-121332569D01*
X189917431Y-121542893D01*
X190081153Y-121652288D01*
X190013365Y-121863760D01*
X190880000Y-122730395D01*
X191746635Y-121863760D01*
X191678847Y-121652288D01*
X191842569Y-121542893D01*
X192052893Y-121332569D01*
X192150000Y-121187238D01*
X192247107Y-121332569D01*
X192457431Y-121542893D01*
X192621153Y-121652288D01*
X192553365Y-121863760D01*
X193420000Y-122730395D01*
X194286635Y-121863760D01*
X194218847Y-121652288D01*
X194382569Y-121542893D01*
X194592893Y-121332569D01*
X194758144Y-121085253D01*
X194871971Y-120810451D01*
X194930000Y-120518722D01*
X194930000Y-120221278D01*
X194871971Y-119929549D01*
X194758144Y-119654747D01*
X194592893Y-119407431D01*
X194382569Y-119197107D01*
X194135253Y-119031856D01*
X193860451Y-118918029D01*
X193568722Y-118860000D01*
X193271278Y-118860000D01*
X192979549Y-118918029D01*
X192704747Y-119031856D01*
X192457431Y-119197107D01*
X192247107Y-119407431D01*
X192150000Y-119552762D01*
X192052893Y-119407431D01*
X191842569Y-119197107D01*
X191595253Y-119031856D01*
X191320451Y-118918029D01*
X191028722Y-118860000D01*
X190731278Y-118860000D01*
X190439549Y-118918029D01*
X190164747Y-119031856D01*
X189917431Y-119197107D01*
X189707107Y-119407431D01*
X189541856Y-119654747D01*
X189428029Y-119929549D01*
X189370000Y-120221278D01*
X184110000Y-120221278D01*
X184110000Y-116019570D01*
X189775000Y-116019570D01*
X189775000Y-116420430D01*
X189853204Y-116813587D01*
X190006607Y-117183934D01*
X190229313Y-117517237D01*
X190512763Y-117800687D01*
X190846066Y-118023393D01*
X191216413Y-118176796D01*
X191609570Y-118255000D01*
X192010430Y-118255000D01*
X192403587Y-118176796D01*
X192773934Y-118023393D01*
X193107237Y-117800687D01*
X193390687Y-117517237D01*
X193613393Y-117183934D01*
X193766796Y-116813587D01*
X193845000Y-116420430D01*
X193845000Y-116019570D01*
X193766796Y-115626413D01*
X193613393Y-115256066D01*
X193390687Y-114922763D01*
X193107237Y-114639313D01*
X192773934Y-114416607D01*
X192403587Y-114263204D01*
X192010430Y-114185000D01*
X191609570Y-114185000D01*
X191216413Y-114263204D01*
X190846066Y-114416607D01*
X190512763Y-114639313D01*
X190229313Y-114922763D01*
X190006607Y-115256066D01*
X189853204Y-115626413D01*
X189775000Y-116019570D01*
X184110000Y-116019570D01*
X184110000Y-111741278D01*
X194590000Y-111741278D01*
X194590000Y-112038722D01*
X194648029Y-112330451D01*
X194761856Y-112605253D01*
X194927107Y-112852569D01*
X195137431Y-113062893D01*
X195384747Y-113228144D01*
X195659549Y-113341971D01*
X195951278Y-113400000D01*
X196248722Y-113400000D01*
X196540451Y-113341971D01*
X196815253Y-113228144D01*
X197062569Y-113062893D01*
X197272893Y-112852569D01*
X197438144Y-112605253D01*
X197551971Y-112330451D01*
X197610000Y-112038722D01*
X197610000Y-111741278D01*
X197551971Y-111449549D01*
X197438144Y-111174747D01*
X197272893Y-110927431D01*
X197062569Y-110717107D01*
X196898847Y-110607712D01*
X196966635Y-110396240D01*
X196100000Y-109529605D01*
X195233365Y-110396240D01*
X195301153Y-110607712D01*
X195137431Y-110717107D01*
X194927107Y-110927431D01*
X194761856Y-111174747D01*
X194648029Y-111449549D01*
X194590000Y-111741278D01*
X184110000Y-111741278D01*
X184110000Y-109417543D01*
X194584196Y-109417543D01*
X194626499Y-109711963D01*
X194725428Y-109992474D01*
X194802132Y-110135975D01*
X195053760Y-110216635D01*
X195920395Y-109350000D01*
X196279605Y-109350000D01*
X197146240Y-110216635D01*
X197397868Y-110135975D01*
X197526267Y-109867671D01*
X197599855Y-109579474D01*
X197615804Y-109282457D01*
X197573501Y-108988037D01*
X197474572Y-108707526D01*
X197397868Y-108564025D01*
X197146240Y-108483365D01*
X196279605Y-109350000D01*
X195920395Y-109350000D01*
X195053760Y-108483365D01*
X194802132Y-108564025D01*
X194673733Y-108832329D01*
X194600145Y-109120526D01*
X194584196Y-109417543D01*
X184110000Y-109417543D01*
X184110000Y-107856240D01*
X195233365Y-107856240D01*
X195305092Y-108080000D01*
X195233365Y-108303760D01*
X196100000Y-109170395D01*
X196966635Y-108303760D01*
X196894908Y-108080000D01*
X196966635Y-107856240D01*
X196100000Y-106989605D01*
X195233365Y-107856240D01*
X184110000Y-107856240D01*
X184110000Y-106877543D01*
X194584196Y-106877543D01*
X194626499Y-107171963D01*
X194725428Y-107452474D01*
X194802132Y-107595975D01*
X195053760Y-107676635D01*
X195920395Y-106810000D01*
X196279605Y-106810000D01*
X197146240Y-107676635D01*
X197397868Y-107595975D01*
X197526267Y-107327671D01*
X197599855Y-107039474D01*
X197615804Y-106742457D01*
X197573501Y-106448037D01*
X197474572Y-106167526D01*
X197397868Y-106024025D01*
X197146240Y-105943365D01*
X196279605Y-106810000D01*
X195920395Y-106810000D01*
X195053760Y-105943365D01*
X194802132Y-106024025D01*
X194673733Y-106292329D01*
X194600145Y-106580526D01*
X194584196Y-106877543D01*
X184110000Y-106877543D01*
X184110000Y-101581278D01*
X194590000Y-101581278D01*
X194590000Y-101878722D01*
X194648029Y-102170451D01*
X194761856Y-102445253D01*
X194927107Y-102692569D01*
X195137431Y-102902893D01*
X195282762Y-103000000D01*
X195137431Y-103097107D01*
X194927107Y-103307431D01*
X194761856Y-103554747D01*
X194648029Y-103829549D01*
X194590000Y-104121278D01*
X194590000Y-104418722D01*
X194648029Y-104710451D01*
X194761856Y-104985253D01*
X194927107Y-105232569D01*
X195137431Y-105442893D01*
X195301153Y-105552288D01*
X195233365Y-105763760D01*
X196100000Y-106630395D01*
X196966635Y-105763760D01*
X196898847Y-105552288D01*
X197062569Y-105442893D01*
X197272893Y-105232569D01*
X197438144Y-104985253D01*
X197551971Y-104710451D01*
X197610000Y-104418722D01*
X197610000Y-104121278D01*
X197551971Y-103829549D01*
X197438144Y-103554747D01*
X197272893Y-103307431D01*
X197062569Y-103097107D01*
X196917238Y-103000000D01*
X197062569Y-102902893D01*
X197272893Y-102692569D01*
X197370000Y-102547238D01*
X197467107Y-102692569D01*
X197677431Y-102902893D01*
X197924747Y-103068144D01*
X198199549Y-103181971D01*
X198491278Y-103240000D01*
X198788722Y-103240000D01*
X199080451Y-103181971D01*
X199355253Y-103068144D01*
X199602569Y-102902893D01*
X199812893Y-102692569D01*
X199978144Y-102445253D01*
X200091971Y-102170451D01*
X200150000Y-101878722D01*
X200150000Y-101581278D01*
X200091971Y-101289549D01*
X199978144Y-101014747D01*
X199812893Y-100767431D01*
X199602569Y-100557107D01*
X199355253Y-100391856D01*
X199080451Y-100278029D01*
X198788722Y-100220000D01*
X198491278Y-100220000D01*
X198199549Y-100278029D01*
X197924747Y-100391856D01*
X197677431Y-100557107D01*
X197467107Y-100767431D01*
X197370000Y-100912762D01*
X197272893Y-100767431D01*
X197062569Y-100557107D01*
X196815253Y-100391856D01*
X196540451Y-100278029D01*
X196248722Y-100220000D01*
X195951278Y-100220000D01*
X195659549Y-100278029D01*
X195384747Y-100391856D01*
X195137431Y-100557107D01*
X194927107Y-100767431D01*
X194761856Y-101014747D01*
X194648029Y-101289549D01*
X194590000Y-101581278D01*
X184110000Y-101581278D01*
X184110000Y-97309570D01*
X194895000Y-97309570D01*
X194895000Y-97710430D01*
X194973204Y-98103587D01*
X195126607Y-98473934D01*
X195349313Y-98807237D01*
X195632763Y-99090687D01*
X195966066Y-99313393D01*
X196336413Y-99466796D01*
X196729570Y-99545000D01*
X197130430Y-99545000D01*
X197523587Y-99466796D01*
X197893934Y-99313393D01*
X198227237Y-99090687D01*
X198510687Y-98807237D01*
X198733393Y-98473934D01*
X198886796Y-98103587D01*
X198965000Y-97710430D01*
X198965000Y-97309570D01*
X198886796Y-96916413D01*
X198733393Y-96546066D01*
X198510687Y-96212763D01*
X198227237Y-95929313D01*
X197893934Y-95706607D01*
X197523587Y-95553204D01*
X197130430Y-95475000D01*
X196729570Y-95475000D01*
X196336413Y-95553204D01*
X195966066Y-95706607D01*
X195632763Y-95929313D01*
X195349313Y-96212763D01*
X195126607Y-96546066D01*
X194973204Y-96916413D01*
X194895000Y-97309570D01*
X184110000Y-97309570D01*
X184110000Y-82800000D01*
X193719509Y-82800000D01*
X193741423Y-83022498D01*
X193806324Y-83236446D01*
X193911717Y-83433622D01*
X194018012Y-83563143D01*
X195138008Y-84683140D01*
X195173551Y-84726449D01*
X195346377Y-84868284D01*
X195543553Y-84973676D01*
X195707705Y-85023471D01*
X195757500Y-85038577D01*
X195778493Y-85040644D01*
X195924248Y-85055000D01*
X195924255Y-85055000D01*
X195979999Y-85060490D01*
X196035743Y-85055000D01*
X238244249Y-85055000D01*
X238300000Y-85060491D01*
X238355751Y-85055000D01*
X238355752Y-85055000D01*
X238522499Y-85038577D01*
X238736447Y-84973676D01*
X238933623Y-84868284D01*
X239106449Y-84726449D01*
X239141996Y-84683136D01*
X240261988Y-83563144D01*
X240368283Y-83433623D01*
X240473675Y-83236447D01*
X240538577Y-83022500D01*
X240560490Y-82800001D01*
X240538577Y-82577502D01*
X240473675Y-82363554D01*
X240368283Y-82166378D01*
X240226448Y-81993552D01*
X240053622Y-81851717D01*
X239856446Y-81746325D01*
X239689462Y-81695670D01*
X239821988Y-81563144D01*
X239928283Y-81433624D01*
X240033675Y-81236447D01*
X240098576Y-81022500D01*
X240120490Y-80800001D01*
X240098576Y-80577502D01*
X240033675Y-80363554D01*
X239928283Y-80166378D01*
X239786448Y-79993552D01*
X239613622Y-79851717D01*
X239416446Y-79746325D01*
X239280152Y-79704980D01*
X239421988Y-79563144D01*
X239528283Y-79433624D01*
X239633675Y-79236447D01*
X239698576Y-79022500D01*
X239720490Y-78800001D01*
X239698576Y-78577502D01*
X239633675Y-78363554D01*
X239528283Y-78166378D01*
X239386448Y-77993552D01*
X239213622Y-77851717D01*
X239016446Y-77746325D01*
X239001527Y-77741799D01*
X239166439Y-77606459D01*
X239308274Y-77433633D01*
X239413666Y-77236457D01*
X239478567Y-77022509D01*
X239500481Y-76800010D01*
X239478567Y-76577511D01*
X239413666Y-76363563D01*
X239308274Y-76166387D01*
X239166439Y-75993561D01*
X238993613Y-75851726D01*
X238796437Y-75746334D01*
X238582489Y-75681433D01*
X238415742Y-75665010D01*
X236325742Y-75665010D01*
X236269990Y-75659519D01*
X236214238Y-75665010D01*
X236047491Y-75681433D01*
X235833543Y-75746334D01*
X235636367Y-75851726D01*
X235463541Y-75993561D01*
X235427999Y-76036869D01*
X233589869Y-77875000D01*
X200000132Y-77875000D01*
X198161996Y-76036865D01*
X198126449Y-75993551D01*
X197953623Y-75851716D01*
X197756447Y-75746324D01*
X197542499Y-75681423D01*
X197375752Y-75665000D01*
X197375751Y-75665000D01*
X197320000Y-75659509D01*
X197264249Y-75665000D01*
X195884248Y-75665000D01*
X195717501Y-75681423D01*
X195503553Y-75746324D01*
X195306377Y-75851716D01*
X195133551Y-75993551D01*
X194991716Y-76166377D01*
X194886324Y-76363553D01*
X194821423Y-76577501D01*
X194799509Y-76800000D01*
X194821423Y-77022499D01*
X194886324Y-77236447D01*
X194991716Y-77433623D01*
X195133551Y-77606449D01*
X195290378Y-77735154D01*
X195253554Y-77746324D01*
X195056378Y-77851717D01*
X194883552Y-77993552D01*
X194741717Y-78166378D01*
X194636324Y-78363554D01*
X194571423Y-78577502D01*
X194549509Y-78800000D01*
X194571423Y-79022498D01*
X194636324Y-79236446D01*
X194741717Y-79433622D01*
X194848012Y-79563143D01*
X195001485Y-79716617D01*
X194903554Y-79746324D01*
X194706378Y-79851717D01*
X194533552Y-79993552D01*
X194391717Y-80166378D01*
X194286324Y-80363554D01*
X194221423Y-80577502D01*
X194199509Y-80800000D01*
X194221423Y-81022498D01*
X194286324Y-81236446D01*
X194391717Y-81433622D01*
X194498012Y-81563143D01*
X194621228Y-81686360D01*
X194423554Y-81746324D01*
X194226378Y-81851717D01*
X194053552Y-81993552D01*
X193911717Y-82166378D01*
X193806324Y-82363554D01*
X193741423Y-82577502D01*
X193719509Y-82800000D01*
X184110000Y-82800000D01*
X184110000Y-69860000D01*
X200606928Y-69860000D01*
X200619188Y-69984482D01*
X200655498Y-70104180D01*
X200714463Y-70214494D01*
X200793815Y-70311185D01*
X200890506Y-70390537D01*
X201000820Y-70449502D01*
X201120518Y-70485812D01*
X201245000Y-70498072D01*
X203532643Y-70495483D01*
X203184710Y-70564691D01*
X202523182Y-70838705D01*
X201927823Y-71236511D01*
X201421511Y-71742823D01*
X201023705Y-72338182D01*
X200749691Y-72999710D01*
X200610000Y-73701984D01*
X200610000Y-74418016D01*
X200749691Y-75120290D01*
X201023705Y-75781818D01*
X201421511Y-76377177D01*
X201927823Y-76883489D01*
X202523182Y-77281295D01*
X203184710Y-77555309D01*
X203886984Y-77695000D01*
X204603016Y-77695000D01*
X205305290Y-77555309D01*
X205966818Y-77281295D01*
X206562177Y-76883489D01*
X207068489Y-76377177D01*
X207466295Y-75781818D01*
X207740309Y-75120290D01*
X207880000Y-74418016D01*
X207880000Y-73701984D01*
X207740309Y-72999710D01*
X207466295Y-72338182D01*
X207068489Y-71742823D01*
X206562177Y-71236511D01*
X205966818Y-70838705D01*
X205305290Y-70564691D01*
X204957357Y-70495483D01*
X207245000Y-70498072D01*
X207369482Y-70485812D01*
X207489180Y-70449502D01*
X207599494Y-70390537D01*
X207696185Y-70311185D01*
X207775537Y-70214494D01*
X207834502Y-70104180D01*
X207870812Y-69984482D01*
X207883072Y-69860000D01*
X213106928Y-69860000D01*
X213119188Y-69984482D01*
X213155498Y-70104180D01*
X213214463Y-70214494D01*
X213293815Y-70311185D01*
X213390506Y-70390537D01*
X213500820Y-70449502D01*
X213620518Y-70485812D01*
X213745000Y-70498072D01*
X216032643Y-70495483D01*
X215684710Y-70564691D01*
X215023182Y-70838705D01*
X214427823Y-71236511D01*
X213921511Y-71742823D01*
X213523705Y-72338182D01*
X213249691Y-72999710D01*
X213110000Y-73701984D01*
X213110000Y-74418016D01*
X213249691Y-75120290D01*
X213523705Y-75781818D01*
X213921511Y-76377177D01*
X214427823Y-76883489D01*
X215023182Y-77281295D01*
X215684710Y-77555309D01*
X216386984Y-77695000D01*
X217103016Y-77695000D01*
X217805290Y-77555309D01*
X218466818Y-77281295D01*
X219062177Y-76883489D01*
X219568489Y-76377177D01*
X219966295Y-75781818D01*
X220240309Y-75120290D01*
X220380000Y-74418016D01*
X220380000Y-73701984D01*
X220240309Y-72999710D01*
X219966295Y-72338182D01*
X219568489Y-71742823D01*
X219062177Y-71236511D01*
X218466818Y-70838705D01*
X217805290Y-70564691D01*
X217457357Y-70495483D01*
X219745000Y-70498072D01*
X219869482Y-70485812D01*
X219989180Y-70449502D01*
X220099494Y-70390537D01*
X220196185Y-70311185D01*
X220275537Y-70214494D01*
X220334502Y-70104180D01*
X220370812Y-69984482D01*
X220383072Y-69860000D01*
X225606928Y-69860000D01*
X225619188Y-69984482D01*
X225655498Y-70104180D01*
X225714463Y-70214494D01*
X225793815Y-70311185D01*
X225890506Y-70390537D01*
X226000820Y-70449502D01*
X226120518Y-70485812D01*
X226245000Y-70498072D01*
X228532643Y-70495483D01*
X228184710Y-70564691D01*
X227523182Y-70838705D01*
X226927823Y-71236511D01*
X226421511Y-71742823D01*
X226023705Y-72338182D01*
X225749691Y-72999710D01*
X225610000Y-73701984D01*
X225610000Y-74418016D01*
X225749691Y-75120290D01*
X226023705Y-75781818D01*
X226421511Y-76377177D01*
X226927823Y-76883489D01*
X227523182Y-77281295D01*
X228184710Y-77555309D01*
X228886984Y-77695000D01*
X229603016Y-77695000D01*
X230305290Y-77555309D01*
X230966818Y-77281295D01*
X231562177Y-76883489D01*
X232068489Y-76377177D01*
X232466295Y-75781818D01*
X232740309Y-75120290D01*
X232880000Y-74418016D01*
X232880000Y-73701984D01*
X232740309Y-72999710D01*
X232466295Y-72338182D01*
X232068489Y-71742823D01*
X231562177Y-71236511D01*
X230966818Y-70838705D01*
X230305290Y-70564691D01*
X229957357Y-70495483D01*
X232245000Y-70498072D01*
X232369482Y-70485812D01*
X232489180Y-70449502D01*
X232599494Y-70390537D01*
X232696185Y-70311185D01*
X232775537Y-70214494D01*
X232834502Y-70104180D01*
X232870812Y-69984482D01*
X232883072Y-69860000D01*
X232880000Y-67145750D01*
X232721250Y-66987000D01*
X229372000Y-66987000D01*
X229372000Y-67007000D01*
X229118000Y-67007000D01*
X229118000Y-66987000D01*
X225768750Y-66987000D01*
X225610000Y-67145750D01*
X225606928Y-69860000D01*
X220383072Y-69860000D01*
X220380000Y-67145750D01*
X220221250Y-66987000D01*
X216872000Y-66987000D01*
X216872000Y-67007000D01*
X216618000Y-67007000D01*
X216618000Y-66987000D01*
X213268750Y-66987000D01*
X213110000Y-67145750D01*
X213106928Y-69860000D01*
X207883072Y-69860000D01*
X207880000Y-67145750D01*
X207721250Y-66987000D01*
X204372000Y-66987000D01*
X204372000Y-67007000D01*
X204118000Y-67007000D01*
X204118000Y-66987000D01*
X200768750Y-66987000D01*
X200610000Y-67145750D01*
X200606928Y-69860000D01*
X184110000Y-69860000D01*
X184110000Y-62934721D01*
X184122391Y-62808345D01*
X184154617Y-62647215D01*
X184180302Y-62562144D01*
X184261536Y-62409366D01*
X184370899Y-62275273D01*
X184504220Y-62164981D01*
X184656428Y-62082682D01*
X184695801Y-62070494D01*
X185058763Y-62010000D01*
X187563617Y-62010000D01*
X187671030Y-62042430D01*
%TA.AperFunction,Conductor*%
D25*
G36*
X187671030Y-62042430D02*
G01*
X187793595Y-62107599D01*
X187901160Y-62195327D01*
X187989643Y-62302285D01*
X188055660Y-62424381D01*
X188065000Y-62454553D01*
X188065000Y-65228515D01*
X188212377Y-65969428D01*
X188501467Y-66667354D01*
X188921161Y-67295470D01*
X189455330Y-67829639D01*
X190083446Y-68249333D01*
X190781372Y-68538423D01*
X191522285Y-68685800D01*
X192277715Y-68685800D01*
X193018628Y-68538423D01*
X193716554Y-68249333D01*
X194344670Y-67829639D01*
X194878839Y-67295470D01*
X195298533Y-66667354D01*
X195587623Y-65969428D01*
X195735000Y-65228515D01*
X195735000Y-63860000D01*
X200606928Y-63860000D01*
X200610000Y-66574250D01*
X200768750Y-66733000D01*
X204118000Y-66733000D01*
X204118000Y-63383750D01*
X204372000Y-63383750D01*
X204372000Y-66733000D01*
X207721250Y-66733000D01*
X207880000Y-66574250D01*
X207883072Y-63860000D01*
X213106928Y-63860000D01*
X213110000Y-66574250D01*
X213268750Y-66733000D01*
X216618000Y-66733000D01*
X216618000Y-63383750D01*
X216872000Y-63383750D01*
X216872000Y-66733000D01*
X220221250Y-66733000D01*
X220380000Y-66574250D01*
X220383072Y-63860000D01*
X225606928Y-63860000D01*
X225610000Y-66574250D01*
X225768750Y-66733000D01*
X229118000Y-66733000D01*
X229118000Y-63383750D01*
X229372000Y-63383750D01*
X229372000Y-66733000D01*
X232721250Y-66733000D01*
X232880000Y-66574250D01*
X232883072Y-63860000D01*
X232870812Y-63735518D01*
X232834502Y-63615820D01*
X232775537Y-63505506D01*
X232696185Y-63408815D01*
X232599494Y-63329463D01*
X232489180Y-63270498D01*
X232369482Y-63234188D01*
X232245000Y-63221928D01*
X229530750Y-63225000D01*
X229372000Y-63383750D01*
X229118000Y-63383750D01*
X228959250Y-63225000D01*
X226245000Y-63221928D01*
X226120518Y-63234188D01*
X226000820Y-63270498D01*
X225890506Y-63329463D01*
X225793815Y-63408815D01*
X225714463Y-63505506D01*
X225655498Y-63615820D01*
X225619188Y-63735518D01*
X225606928Y-63860000D01*
X220383072Y-63860000D01*
X220370812Y-63735518D01*
X220334502Y-63615820D01*
X220275537Y-63505506D01*
X220196185Y-63408815D01*
X220099494Y-63329463D01*
X219989180Y-63270498D01*
X219869482Y-63234188D01*
X219745000Y-63221928D01*
X217030750Y-63225000D01*
X216872000Y-63383750D01*
X216618000Y-63383750D01*
X216459250Y-63225000D01*
X213745000Y-63221928D01*
X213620518Y-63234188D01*
X213500820Y-63270498D01*
X213390506Y-63329463D01*
X213293815Y-63408815D01*
X213214463Y-63505506D01*
X213155498Y-63615820D01*
X213119188Y-63735518D01*
X213106928Y-63860000D01*
X207883072Y-63860000D01*
X207870812Y-63735518D01*
X207834502Y-63615820D01*
X207775537Y-63505506D01*
X207696185Y-63408815D01*
X207599494Y-63329463D01*
X207489180Y-63270498D01*
X207369482Y-63234188D01*
X207245000Y-63221928D01*
X204530750Y-63225000D01*
X204372000Y-63383750D01*
X204118000Y-63383750D01*
X203959250Y-63225000D01*
X201245000Y-63221928D01*
X201120518Y-63234188D01*
X201000820Y-63270498D01*
X200890506Y-63329463D01*
X200793815Y-63408815D01*
X200714463Y-63505506D01*
X200655498Y-63615820D01*
X200619188Y-63735518D01*
X200606928Y-63860000D01*
X195735000Y-63860000D01*
X195735000Y-62453580D01*
X195742430Y-62428970D01*
X195807599Y-62306405D01*
X195895327Y-62198840D01*
X196002285Y-62110357D01*
X196124381Y-62044340D01*
X196235315Y-62010000D01*
X237363617Y-62010000D01*
X237471030Y-62042430D01*
X237593595Y-62107599D01*
X237701160Y-62195327D01*
X237789643Y-62302285D01*
X237855660Y-62424381D01*
X237865000Y-62454553D01*
X237865000Y-64900000D01*
X237871751Y-64968852D01*
X237878019Y-65037725D01*
X237878746Y-65040197D01*
X237878998Y-65042762D01*
X237898989Y-65108975D01*
X237915000Y-65163376D01*
X237915000Y-65228515D01*
X238062377Y-65969428D01*
X238351467Y-66667354D01*
X238771161Y-67295470D01*
X239305330Y-67829639D01*
X239933446Y-68249333D01*
X240631372Y-68538423D01*
X241372285Y-68685800D01*
X242127715Y-68685800D01*
X242868628Y-68538423D01*
X243566554Y-68249333D01*
X244194670Y-67829639D01*
X244728839Y-67295470D01*
X245148533Y-66667354D01*
X245437623Y-65969428D01*
X245585000Y-65228515D01*
X245585000Y-64473085D01*
X245535000Y-64221718D01*
X245535000Y-62453580D01*
X245542430Y-62428970D01*
X245607599Y-62306405D01*
X245695327Y-62198840D01*
X245802285Y-62110357D01*
X245924381Y-62044340D01*
X246035315Y-62010000D01*
X248615279Y-62010000D01*
X248741655Y-62022391D01*
X248902785Y-62054617D01*
X248987856Y-62080302D01*
X249140634Y-62161536D01*
X249274727Y-62270899D01*
X249385019Y-62404220D01*
X249467318Y-62556428D01*
X249479506Y-62595801D01*
X249512642Y-62794614D01*
X249539734Y-219067988D01*
X249519710Y-219272207D01*
X249469699Y-219437853D01*
X249388464Y-219590634D01*
X249279103Y-219724724D01*
X249145780Y-219835019D01*
X248993569Y-219917319D01*
X248828272Y-219968487D01*
X248623593Y-219990000D01*
X245947430Y-219990000D01*
X245856405Y-219941601D01*
X245748839Y-219853872D01*
X245660358Y-219746917D01*
X245594338Y-219624815D01*
X245585000Y-219594649D01*
X245585000Y-216822285D01*
X245437623Y-216081372D01*
X245148533Y-215383446D01*
X244728839Y-214755330D01*
X244194670Y-214221161D01*
X243566554Y-213801467D01*
X242868628Y-213512377D01*
X242127715Y-213365000D01*
X241372285Y-213365000D01*
X240631372Y-213512377D01*
X239933446Y-213801467D01*
X239305330Y-214221161D01*
X238771161Y-214755330D01*
X238351467Y-215383446D01*
X238062377Y-216081372D01*
X237915000Y-216822285D01*
X237915000Y-219595622D01*
X237907570Y-219620229D01*
X237842401Y-219742795D01*
X237754672Y-219850361D01*
X237647717Y-219938842D01*
X237553102Y-219990000D01*
X196003461Y-219990000D01*
X195898839Y-219904672D01*
X195810358Y-219797717D01*
X195744338Y-219675615D01*
X195735000Y-219645449D01*
X195735000Y-216873085D01*
X195587623Y-216132172D01*
X195298533Y-215434246D01*
X194878839Y-214806130D01*
X194344670Y-214271961D01*
X193716554Y-213852267D01*
X193018628Y-213563177D01*
X192277715Y-213415800D01*
X191522285Y-213415800D01*
X190781372Y-213563177D01*
X190083446Y-213852267D01*
X189455330Y-214271961D01*
X188921161Y-214806130D01*
X188501467Y-215434246D01*
X188212377Y-216132172D01*
X188065000Y-216873085D01*
X188065000Y-219646422D01*
X188057570Y-219671029D01*
X187992401Y-219793595D01*
X187904672Y-219901161D01*
X187797717Y-219989642D01*
X187797054Y-219990000D01*
X185034721Y-219990000D01*
X184908347Y-219977609D01*
X184747213Y-219945382D01*
X184662147Y-219919699D01*
X184509366Y-219838464D01*
X184375276Y-219729103D01*
X184264981Y-219595780D01*
X184182681Y-219443569D01*
X184170494Y-219404200D01*
X184110000Y-219041237D01*
X184110000Y-211078061D01*
X187705000Y-211078061D01*
X187705000Y-211281939D01*
X187744774Y-211481898D01*
X187822795Y-211670256D01*
X187936063Y-211839774D01*
X188080226Y-211983937D01*
X188249744Y-212097205D01*
X188438102Y-212175226D01*
X188638061Y-212215000D01*
X188841939Y-212215000D01*
X189041898Y-212175226D01*
X189230256Y-212097205D01*
X189399774Y-211983937D01*
X189543937Y-211839774D01*
X189657205Y-211670256D01*
X189735226Y-211481898D01*
X189775000Y-211281939D01*
X189775000Y-211255158D01*
X189927815Y-211102343D01*
X189957764Y-211077764D01*
X189982844Y-211047205D01*
X190006579Y-211018284D01*
X190055862Y-210958233D01*
X190128754Y-210821860D01*
X190142530Y-210776446D01*
X190173642Y-210673887D01*
X190184833Y-210560256D01*
X190185000Y-210558561D01*
X190185000Y-210558556D01*
X190188797Y-210520000D01*
X190185000Y-210481445D01*
X190185000Y-187398711D01*
X190203937Y-187379774D01*
X190317205Y-187210256D01*
X190395226Y-187021898D01*
X190435000Y-186821939D01*
X190435000Y-186618061D01*
X190395226Y-186418102D01*
X190317205Y-186229744D01*
X190203937Y-186060226D01*
X190059774Y-185916063D01*
X189890256Y-185802795D01*
X189701898Y-185724774D01*
X189501939Y-185685000D01*
X189298061Y-185685000D01*
X189098102Y-185724774D01*
X188909744Y-185802795D01*
X188740226Y-185916063D01*
X188596063Y-186060226D01*
X188482795Y-186229744D01*
X188404774Y-186418102D01*
X188365000Y-186618061D01*
X188365000Y-186821939D01*
X188404774Y-187021898D01*
X188482795Y-187210256D01*
X188596063Y-187379774D01*
X188615000Y-187398711D01*
X188615001Y-210149587D01*
X188438102Y-210184774D01*
X188249744Y-210262795D01*
X188080226Y-210376063D01*
X187936063Y-210520226D01*
X187822795Y-210689744D01*
X187744774Y-210878102D01*
X187705000Y-211078061D01*
X184110000Y-211078061D01*
X184110000Y-148920000D01*
X185769509Y-148920000D01*
X185775001Y-148975762D01*
X185775000Y-167304249D01*
X185769509Y-167360000D01*
X185775000Y-167415751D01*
X185791423Y-167582498D01*
X185856324Y-167796446D01*
X185961716Y-167993623D01*
X186103551Y-168166449D01*
X186146865Y-168201996D01*
X192145001Y-174200133D01*
X192145000Y-200324249D01*
X192139509Y-200380000D01*
X192145000Y-200435751D01*
X192161423Y-200602498D01*
X192226324Y-200816446D01*
X192331716Y-201013623D01*
X192473551Y-201186449D01*
X192516865Y-201221996D01*
X205605000Y-214310133D01*
X205605000Y-214935751D01*
X205621423Y-215102498D01*
X205686324Y-215316446D01*
X205791716Y-215513623D01*
X205933551Y-215686449D01*
X206106377Y-215828284D01*
X206303553Y-215933676D01*
X206517501Y-215998577D01*
X206740000Y-216020491D01*
X206962498Y-215998577D01*
X207176446Y-215933676D01*
X207373623Y-215828284D01*
X207546449Y-215686449D01*
X207688284Y-215513623D01*
X207793676Y-215316447D01*
X207858577Y-215102499D01*
X207875000Y-214935752D01*
X207875000Y-214798061D01*
X208705000Y-214798061D01*
X208705000Y-215001939D01*
X208744774Y-215201898D01*
X208822795Y-215390256D01*
X208936063Y-215559774D01*
X209080226Y-215703937D01*
X209249744Y-215817205D01*
X209438102Y-215895226D01*
X209638061Y-215935000D01*
X209841939Y-215935000D01*
X210041898Y-215895226D01*
X210230256Y-215817205D01*
X210399774Y-215703937D01*
X210543937Y-215559774D01*
X210657205Y-215390256D01*
X210735226Y-215201898D01*
X210775000Y-215001939D01*
X210775000Y-214975157D01*
X218867811Y-206882346D01*
X218897764Y-206857764D01*
X218995862Y-206738233D01*
X219068754Y-206601860D01*
X219068754Y-206601859D01*
X219113642Y-206453887D01*
X219121228Y-206376857D01*
X219125000Y-206338561D01*
X219125000Y-206338556D01*
X219128797Y-206300000D01*
X219125000Y-206261444D01*
X219125000Y-201668711D01*
X219143937Y-201649774D01*
X219257205Y-201480256D01*
X219335226Y-201291898D01*
X219375000Y-201091939D01*
X219375000Y-200888061D01*
X219335226Y-200688102D01*
X219257205Y-200499744D01*
X219143937Y-200330226D01*
X218999774Y-200186063D01*
X218830256Y-200072795D01*
X218641898Y-199994774D01*
X218441939Y-199955000D01*
X218238061Y-199955000D01*
X218038102Y-199994774D01*
X217849744Y-200072795D01*
X217680226Y-200186063D01*
X217536063Y-200330226D01*
X217422795Y-200499744D01*
X217344774Y-200688102D01*
X217305000Y-200888061D01*
X217305000Y-201091939D01*
X217344774Y-201291898D01*
X217422795Y-201480256D01*
X217536063Y-201649774D01*
X217555001Y-201668712D01*
X217555000Y-205974843D01*
X217181709Y-206348134D01*
X217195546Y-206322247D01*
X217239003Y-206178986D01*
X217250000Y-206067333D01*
X217250000Y-206067332D01*
X217253677Y-206030000D01*
X217250000Y-205992667D01*
X217250000Y-202753711D01*
X217293937Y-202709774D01*
X217407205Y-202540256D01*
X217485226Y-202351898D01*
X217525000Y-202151939D01*
X217525000Y-201948061D01*
X217485226Y-201748102D01*
X217407205Y-201559744D01*
X217293937Y-201390226D01*
X217149774Y-201246063D01*
X216980256Y-201132795D01*
X216791898Y-201054774D01*
X216591939Y-201015000D01*
X216388061Y-201015000D01*
X216188102Y-201054774D01*
X215999744Y-201132795D01*
X215830226Y-201246063D01*
X215686063Y-201390226D01*
X215572795Y-201559744D01*
X215494774Y-201748102D01*
X215455000Y-201948061D01*
X215455000Y-202151939D01*
X215494774Y-202351898D01*
X215572795Y-202540256D01*
X215686063Y-202709774D01*
X215730001Y-202753712D01*
X215730000Y-205715198D01*
X212075199Y-209370000D01*
X210453711Y-209370000D01*
X210409774Y-209326063D01*
X210240256Y-209212795D01*
X210051898Y-209134774D01*
X209851939Y-209095000D01*
X209648061Y-209095000D01*
X209448102Y-209134774D01*
X209259744Y-209212795D01*
X209090226Y-209326063D01*
X208946063Y-209470226D01*
X208832795Y-209639744D01*
X208754774Y-209828102D01*
X208715000Y-210028061D01*
X208715000Y-210231939D01*
X208754774Y-210431898D01*
X208832795Y-210620256D01*
X208946063Y-210789774D01*
X209090226Y-210933937D01*
X209259744Y-211047205D01*
X209448102Y-211125226D01*
X209648061Y-211165000D01*
X209851939Y-211165000D01*
X210051898Y-211125226D01*
X210240256Y-211047205D01*
X210409774Y-210933937D01*
X210453711Y-210890000D01*
X212352678Y-210890000D01*
X212390000Y-210893676D01*
X212427322Y-210890000D01*
X212427333Y-210890000D01*
X212538986Y-210879003D01*
X212682247Y-210835546D01*
X212708134Y-210821709D01*
X209664843Y-213865000D01*
X209638061Y-213865000D01*
X209438102Y-213904774D01*
X209249744Y-213982795D01*
X209080226Y-214096063D01*
X208936063Y-214240226D01*
X208822795Y-214409744D01*
X208744774Y-214598102D01*
X208705000Y-214798061D01*
X207875000Y-214798061D01*
X207875000Y-213895752D01*
X207880491Y-213840000D01*
X207858577Y-213617501D01*
X207793676Y-213403553D01*
X207688284Y-213206377D01*
X207581989Y-213076856D01*
X207581987Y-213076854D01*
X207546449Y-213033551D01*
X207503146Y-212998013D01*
X201645133Y-207140000D01*
X205619509Y-207140000D01*
X205625001Y-207195761D01*
X205625000Y-210125751D01*
X205641423Y-210292498D01*
X205706324Y-210506446D01*
X205811716Y-210703623D01*
X205953551Y-210876449D01*
X206126377Y-211018284D01*
X206323553Y-211123676D01*
X206537501Y-211188577D01*
X206760000Y-211210491D01*
X206982498Y-211188577D01*
X207196446Y-211123676D01*
X207393623Y-211018284D01*
X207566449Y-210876449D01*
X207708284Y-210703623D01*
X207813676Y-210506447D01*
X207878577Y-210292499D01*
X207895000Y-210125752D01*
X207895000Y-207610131D01*
X228493141Y-187011991D01*
X228536449Y-186976449D01*
X228678284Y-186803623D01*
X228783676Y-186606447D01*
X228848577Y-186392499D01*
X228865000Y-186225752D01*
X228865000Y-186225743D01*
X228870490Y-186170001D01*
X228865000Y-186114259D01*
X228865000Y-149055752D01*
X228870491Y-149000000D01*
X228848577Y-148777501D01*
X228783676Y-148563553D01*
X228678284Y-148366377D01*
X228536449Y-148193551D01*
X228493141Y-148158009D01*
X226451996Y-146116865D01*
X226416449Y-146073551D01*
X226243623Y-145931716D01*
X226046447Y-145826324D01*
X225832499Y-145761423D01*
X225665752Y-145745000D01*
X225665751Y-145745000D01*
X225610000Y-145739509D01*
X225554249Y-145745000D01*
X223380462Y-145745000D01*
X223342569Y-145707107D01*
X223095253Y-145541856D01*
X222820451Y-145428029D01*
X222528722Y-145370000D01*
X222231278Y-145370000D01*
X221939549Y-145428029D01*
X221664747Y-145541856D01*
X221417431Y-145707107D01*
X221379538Y-145745000D01*
X220840462Y-145745000D01*
X220802569Y-145707107D01*
X220555253Y-145541856D01*
X220280451Y-145428029D01*
X219988722Y-145370000D01*
X219691278Y-145370000D01*
X219399549Y-145428029D01*
X219124747Y-145541856D01*
X218877431Y-145707107D01*
X218667107Y-145917431D01*
X218501856Y-146164747D01*
X218388029Y-146439549D01*
X218330000Y-146731278D01*
X218330000Y-147028722D01*
X218388029Y-147320451D01*
X218501856Y-147595253D01*
X218667107Y-147842569D01*
X218877431Y-148052893D01*
X219041153Y-148162288D01*
X218973365Y-148373760D01*
X219840000Y-149240395D01*
X220706635Y-148373760D01*
X220638847Y-148162288D01*
X220802569Y-148052893D01*
X220840462Y-148015000D01*
X221379538Y-148015000D01*
X221417431Y-148052893D01*
X221581153Y-148162288D01*
X221513365Y-148373760D01*
X222380000Y-149240395D01*
X223246635Y-148373760D01*
X223178847Y-148162288D01*
X223342569Y-148052893D01*
X223380462Y-148015000D01*
X225139869Y-148015000D01*
X226595001Y-149470133D01*
X226595000Y-185699868D01*
X205996860Y-206298009D01*
X205953552Y-206333551D01*
X205811717Y-206506377D01*
X205777710Y-206570001D01*
X205706324Y-206703554D01*
X205641423Y-206917502D01*
X205619509Y-207140000D01*
X201645133Y-207140000D01*
X194415000Y-199909869D01*
X194415000Y-173785741D01*
X194420490Y-173729999D01*
X194415000Y-173674257D01*
X194415000Y-173674248D01*
X194398577Y-173507501D01*
X194333676Y-173293553D01*
X194228284Y-173096377D01*
X194086449Y-172923551D01*
X194043141Y-172888009D01*
X188045000Y-166889869D01*
X188045000Y-163529570D01*
X189815000Y-163529570D01*
X189815000Y-163930430D01*
X189893204Y-164323587D01*
X190046607Y-164693934D01*
X190269313Y-165027237D01*
X190552763Y-165310687D01*
X190886066Y-165533393D01*
X191256413Y-165686796D01*
X191649570Y-165765000D01*
X192050430Y-165765000D01*
X192443587Y-165686796D01*
X192813934Y-165533393D01*
X193147237Y-165310687D01*
X193430687Y-165027237D01*
X193653393Y-164693934D01*
X193806796Y-164323587D01*
X193885000Y-163930430D01*
X193885000Y-163529570D01*
X210815000Y-163529570D01*
X210815000Y-163930430D01*
X210893204Y-164323587D01*
X211046607Y-164693934D01*
X211269313Y-165027237D01*
X211552763Y-165310687D01*
X211886066Y-165533393D01*
X212256413Y-165686796D01*
X212649570Y-165765000D01*
X213050430Y-165765000D01*
X213443587Y-165686796D01*
X213813934Y-165533393D01*
X214147237Y-165310687D01*
X214430687Y-165027237D01*
X214653393Y-164693934D01*
X214806796Y-164323587D01*
X214885000Y-163930430D01*
X214885000Y-163529570D01*
X218735000Y-163529570D01*
X218735000Y-163930430D01*
X218813204Y-164323587D01*
X218966607Y-164693934D01*
X219189313Y-165027237D01*
X219472763Y-165310687D01*
X219806066Y-165533393D01*
X220176413Y-165686796D01*
X220569570Y-165765000D01*
X220970430Y-165765000D01*
X221363587Y-165686796D01*
X221733934Y-165533393D01*
X222067237Y-165310687D01*
X222350687Y-165027237D01*
X222573393Y-164693934D01*
X222726796Y-164323587D01*
X222805000Y-163930430D01*
X222805000Y-163529570D01*
X222726796Y-163136413D01*
X222573393Y-162766066D01*
X222350687Y-162432763D01*
X222067237Y-162149313D01*
X221733934Y-161926607D01*
X221363587Y-161773204D01*
X220970430Y-161695000D01*
X220569570Y-161695000D01*
X220176413Y-161773204D01*
X219806066Y-161926607D01*
X219472763Y-162149313D01*
X219189313Y-162432763D01*
X218966607Y-162766066D01*
X218813204Y-163136413D01*
X218735000Y-163529570D01*
X214885000Y-163529570D01*
X214806796Y-163136413D01*
X214653393Y-162766066D01*
X214430687Y-162432763D01*
X214147237Y-162149313D01*
X213813934Y-161926607D01*
X213443587Y-161773204D01*
X213050430Y-161695000D01*
X212649570Y-161695000D01*
X212256413Y-161773204D01*
X211886066Y-161926607D01*
X211552763Y-162149313D01*
X211269313Y-162432763D01*
X211046607Y-162766066D01*
X210893204Y-163136413D01*
X210815000Y-163529570D01*
X193885000Y-163529570D01*
X193806796Y-163136413D01*
X193653393Y-162766066D01*
X193430687Y-162432763D01*
X193147237Y-162149313D01*
X192813934Y-161926607D01*
X192443587Y-161773204D01*
X192050430Y-161695000D01*
X191649570Y-161695000D01*
X191256413Y-161773204D01*
X190886066Y-161926607D01*
X190552763Y-162149313D01*
X190269313Y-162432763D01*
X190046607Y-162766066D01*
X189893204Y-163136413D01*
X189815000Y-163529570D01*
X188045000Y-163529570D01*
X188045000Y-154500000D01*
X189277089Y-154500000D01*
X189308657Y-154820516D01*
X189402148Y-155128715D01*
X189553969Y-155412752D01*
X189758286Y-155661714D01*
X189985613Y-155848276D01*
X189957431Y-155867107D01*
X189747107Y-156077431D01*
X189581856Y-156324747D01*
X189468029Y-156599549D01*
X189410000Y-156891278D01*
X189410000Y-157188722D01*
X189468029Y-157480451D01*
X189581856Y-157755253D01*
X189747107Y-158002569D01*
X189957431Y-158212893D01*
X190102762Y-158310000D01*
X189957431Y-158407107D01*
X189747107Y-158617431D01*
X189581856Y-158864747D01*
X189468029Y-159139549D01*
X189410000Y-159431278D01*
X189410000Y-159728722D01*
X189468029Y-160020451D01*
X189581856Y-160295253D01*
X189747107Y-160542569D01*
X189957431Y-160752893D01*
X190204747Y-160918144D01*
X190479549Y-161031971D01*
X190771278Y-161090000D01*
X191068722Y-161090000D01*
X191360451Y-161031971D01*
X191635253Y-160918144D01*
X191882569Y-160752893D01*
X192092893Y-160542569D01*
X192190000Y-160397238D01*
X192287107Y-160542569D01*
X192497431Y-160752893D01*
X192744747Y-160918144D01*
X193019549Y-161031971D01*
X193311278Y-161090000D01*
X193608722Y-161090000D01*
X193900451Y-161031971D01*
X194175253Y-160918144D01*
X194422569Y-160752893D01*
X194632893Y-160542569D01*
X194798144Y-160295253D01*
X194911971Y-160020451D01*
X194970000Y-159728722D01*
X194970000Y-159431278D01*
X194911971Y-159139549D01*
X194798144Y-158864747D01*
X194632893Y-158617431D01*
X194422569Y-158407107D01*
X194277238Y-158310000D01*
X194422569Y-158212893D01*
X194632893Y-158002569D01*
X194798144Y-157755253D01*
X194911971Y-157480451D01*
X194970000Y-157188722D01*
X194970000Y-156891278D01*
X194911971Y-156599549D01*
X194798144Y-156324747D01*
X194671359Y-156135000D01*
X218628641Y-156135000D01*
X218501856Y-156324747D01*
X218388029Y-156599549D01*
X218330000Y-156891278D01*
X218330000Y-157188722D01*
X218388029Y-157480451D01*
X218501856Y-157755253D01*
X218667107Y-158002569D01*
X218877431Y-158212893D01*
X219022762Y-158310000D01*
X218877431Y-158407107D01*
X218667107Y-158617431D01*
X218501856Y-158864747D01*
X218388029Y-159139549D01*
X218330000Y-159431278D01*
X218330000Y-159728722D01*
X218388029Y-160020451D01*
X218501856Y-160295253D01*
X218667107Y-160542569D01*
X218877431Y-160752893D01*
X219124747Y-160918144D01*
X219399549Y-161031971D01*
X219691278Y-161090000D01*
X219988722Y-161090000D01*
X220280451Y-161031971D01*
X220555253Y-160918144D01*
X220802569Y-160752893D01*
X221012893Y-160542569D01*
X221110000Y-160397238D01*
X221207107Y-160542569D01*
X221417431Y-160752893D01*
X221664747Y-160918144D01*
X221939549Y-161031971D01*
X222231278Y-161090000D01*
X222528722Y-161090000D01*
X222820451Y-161031971D01*
X223095253Y-160918144D01*
X223342569Y-160752893D01*
X223552893Y-160542569D01*
X223718144Y-160295253D01*
X223831971Y-160020451D01*
X223890000Y-159728722D01*
X223890000Y-159431278D01*
X223831971Y-159139549D01*
X223718144Y-158864747D01*
X223552893Y-158617431D01*
X223342569Y-158407107D01*
X223197238Y-158310000D01*
X223342569Y-158212893D01*
X223552893Y-158002569D01*
X223718144Y-157755253D01*
X223831971Y-157480451D01*
X223890000Y-157188722D01*
X223890000Y-156891278D01*
X223831971Y-156599549D01*
X223718144Y-156324747D01*
X223552893Y-156077431D01*
X223342569Y-155867107D01*
X223314387Y-155848276D01*
X223541714Y-155661714D01*
X223746031Y-155412752D01*
X223897852Y-155128715D01*
X223991343Y-154820516D01*
X224022911Y-154500000D01*
X223991343Y-154179484D01*
X223897852Y-153871285D01*
X223746031Y-153587248D01*
X223541714Y-153338286D01*
X223292752Y-153133969D01*
X223218426Y-153094241D01*
X223246635Y-153006240D01*
X222380000Y-152139605D01*
X222365858Y-152153748D01*
X222186253Y-151974143D01*
X222200395Y-151960000D01*
X222559605Y-151960000D01*
X223426240Y-152826635D01*
X223677868Y-152745975D01*
X223806267Y-152477671D01*
X223879855Y-152189474D01*
X223895804Y-151892457D01*
X223853501Y-151598037D01*
X223754572Y-151317526D01*
X223677868Y-151174025D01*
X223426240Y-151093365D01*
X222559605Y-151960000D01*
X222200395Y-151960000D01*
X221333760Y-151093365D01*
X221110000Y-151165092D01*
X220886240Y-151093365D01*
X220019605Y-151960000D01*
X220033748Y-151974143D01*
X219854143Y-152153748D01*
X219840000Y-152139605D01*
X219825858Y-152153748D01*
X219646253Y-151974143D01*
X219660395Y-151960000D01*
X218793760Y-151093365D01*
X218542132Y-151174025D01*
X218413733Y-151442329D01*
X218340145Y-151730526D01*
X218324196Y-152027543D01*
X218366499Y-152321963D01*
X218465428Y-152602474D01*
X218542132Y-152745975D01*
X218793758Y-152826634D01*
X218755392Y-152865000D01*
X194544608Y-152865000D01*
X194506242Y-152826634D01*
X194757868Y-152745975D01*
X194886267Y-152477671D01*
X194959855Y-152189474D01*
X194975804Y-151892457D01*
X194933501Y-151598037D01*
X194834572Y-151317526D01*
X194757868Y-151174025D01*
X194506240Y-151093365D01*
X193639605Y-151960000D01*
X193653748Y-151974143D01*
X193474143Y-152153748D01*
X193460000Y-152139605D01*
X193445858Y-152153748D01*
X193266253Y-151974143D01*
X193280395Y-151960000D01*
X192413760Y-151093365D01*
X192190000Y-151165092D01*
X191966240Y-151093365D01*
X191099605Y-151960000D01*
X191113748Y-151974143D01*
X190934143Y-152153748D01*
X190920000Y-152139605D01*
X190053365Y-153006240D01*
X190081574Y-153094241D01*
X190007248Y-153133969D01*
X189758286Y-153338286D01*
X189553969Y-153587248D01*
X189402148Y-153871285D01*
X189308657Y-154179484D01*
X189277089Y-154500000D01*
X188045000Y-154500000D01*
X188045000Y-152027543D01*
X189404196Y-152027543D01*
X189446499Y-152321963D01*
X189545428Y-152602474D01*
X189622132Y-152745975D01*
X189873760Y-152826635D01*
X190740395Y-151960000D01*
X189873760Y-151093365D01*
X189622132Y-151174025D01*
X189493733Y-151442329D01*
X189420145Y-151730526D01*
X189404196Y-152027543D01*
X188045000Y-152027543D01*
X188045000Y-150466240D01*
X190053365Y-150466240D01*
X190125092Y-150690000D01*
X190053365Y-150913760D01*
X190920000Y-151780395D01*
X191786635Y-150913760D01*
X191714908Y-150690000D01*
X191786635Y-150466240D01*
X192593365Y-150466240D01*
X192665092Y-150690000D01*
X192593365Y-150913760D01*
X193460000Y-151780395D01*
X194326635Y-150913760D01*
X194254908Y-150690000D01*
X194326635Y-150466240D01*
X218973365Y-150466240D01*
X219045092Y-150690000D01*
X218973365Y-150913760D01*
X219840000Y-151780395D01*
X220706635Y-150913760D01*
X220634908Y-150690000D01*
X220706635Y-150466240D01*
X221513365Y-150466240D01*
X221585092Y-150690000D01*
X221513365Y-150913760D01*
X222380000Y-151780395D01*
X223246635Y-150913760D01*
X223174908Y-150690000D01*
X223246635Y-150466240D01*
X222380000Y-149599605D01*
X221513365Y-150466240D01*
X220706635Y-150466240D01*
X219840000Y-149599605D01*
X218973365Y-150466240D01*
X194326635Y-150466240D01*
X193460000Y-149599605D01*
X192593365Y-150466240D01*
X191786635Y-150466240D01*
X190920000Y-149599605D01*
X190053365Y-150466240D01*
X188045000Y-150466240D01*
X188045000Y-149487543D01*
X189404196Y-149487543D01*
X189446499Y-149781963D01*
X189545428Y-150062474D01*
X189622132Y-150205975D01*
X189873760Y-150286635D01*
X190740395Y-149420000D01*
X189873760Y-148553365D01*
X189622132Y-148634025D01*
X189493733Y-148902329D01*
X189420145Y-149190526D01*
X189404196Y-149487543D01*
X188045000Y-149487543D01*
X188045000Y-149390131D01*
X189420133Y-148015000D01*
X189748156Y-148015000D01*
X189778286Y-148051714D01*
X190027248Y-148256031D01*
X190081763Y-148285170D01*
X190053365Y-148373760D01*
X190920000Y-149240395D01*
X190934143Y-149226253D01*
X191113748Y-149405858D01*
X191099605Y-149420000D01*
X191966240Y-150286635D01*
X192190000Y-150214908D01*
X192413760Y-150286635D01*
X193280395Y-149420000D01*
X193639605Y-149420000D01*
X194506240Y-150286635D01*
X194757868Y-150205975D01*
X194886267Y-149937671D01*
X194959855Y-149649474D01*
X194968550Y-149487543D01*
X218324196Y-149487543D01*
X218366499Y-149781963D01*
X218465428Y-150062474D01*
X218542132Y-150205975D01*
X218793760Y-150286635D01*
X219660395Y-149420000D01*
X220019605Y-149420000D01*
X220886240Y-150286635D01*
X221110000Y-150214908D01*
X221333760Y-150286635D01*
X222200395Y-149420000D01*
X222559605Y-149420000D01*
X223426240Y-150286635D01*
X223677868Y-150205975D01*
X223806267Y-149937671D01*
X223879855Y-149649474D01*
X223895804Y-149352457D01*
X223853501Y-149058037D01*
X223754572Y-148777526D01*
X223677868Y-148634025D01*
X223426240Y-148553365D01*
X222559605Y-149420000D01*
X222200395Y-149420000D01*
X221333760Y-148553365D01*
X221110000Y-148625092D01*
X220886240Y-148553365D01*
X220019605Y-149420000D01*
X219660395Y-149420000D01*
X218793760Y-148553365D01*
X218542132Y-148634025D01*
X218413733Y-148902329D01*
X218340145Y-149190526D01*
X218324196Y-149487543D01*
X194968550Y-149487543D01*
X194975804Y-149352457D01*
X194933501Y-149058037D01*
X194834572Y-148777526D01*
X194757868Y-148634025D01*
X194506240Y-148553365D01*
X193639605Y-149420000D01*
X193280395Y-149420000D01*
X193266253Y-149405858D01*
X193445858Y-149226253D01*
X193460000Y-149240395D01*
X194326635Y-148373760D01*
X194304088Y-148303423D01*
X194392752Y-148256031D01*
X194641714Y-148051714D01*
X194846031Y-147802752D01*
X194997852Y-147518715D01*
X195091343Y-147210516D01*
X195122911Y-146890000D01*
X195091343Y-146569484D01*
X194997852Y-146261285D01*
X194846031Y-145977248D01*
X194641714Y-145728286D01*
X194392752Y-145523969D01*
X194108715Y-145372148D01*
X193800516Y-145278657D01*
X193560322Y-145255000D01*
X190859678Y-145255000D01*
X190619484Y-145278657D01*
X190311285Y-145372148D01*
X190027248Y-145523969D01*
X189778286Y-145728286D01*
X189764569Y-145745000D01*
X189005752Y-145745000D01*
X188950000Y-145739509D01*
X188727501Y-145761423D01*
X188513553Y-145826324D01*
X188316377Y-145931716D01*
X188186856Y-146038011D01*
X188186855Y-146038012D01*
X188143551Y-146073551D01*
X188108013Y-146116854D01*
X186146860Y-148078009D01*
X186103552Y-148113551D01*
X185961717Y-148286377D01*
X185915010Y-148373760D01*
X185856324Y-148483554D01*
X185791423Y-148697502D01*
X185769509Y-148920000D01*
X184110000Y-148920000D01*
X184110000Y-142529570D01*
X189815000Y-142529570D01*
X189815000Y-142930430D01*
X189893204Y-143323587D01*
X190046607Y-143693934D01*
X190269313Y-144027237D01*
X190552763Y-144310687D01*
X190886066Y-144533393D01*
X191256413Y-144686796D01*
X191649570Y-144765000D01*
X192050430Y-144765000D01*
X192443587Y-144686796D01*
X192813934Y-144533393D01*
X193147237Y-144310687D01*
X193430687Y-144027237D01*
X193653393Y-143693934D01*
X193806796Y-143323587D01*
X193885000Y-142930430D01*
X193885000Y-142529570D01*
X218735000Y-142529570D01*
X218735000Y-142930430D01*
X218813204Y-143323587D01*
X218966607Y-143693934D01*
X219189313Y-144027237D01*
X219472763Y-144310687D01*
X219806066Y-144533393D01*
X220176413Y-144686796D01*
X220569570Y-144765000D01*
X220970430Y-144765000D01*
X221363587Y-144686796D01*
X221733934Y-144533393D01*
X222067237Y-144310687D01*
X222350687Y-144027237D01*
X222573393Y-143693934D01*
X222726796Y-143323587D01*
X222805000Y-142930430D01*
X222805000Y-142529570D01*
X222726796Y-142136413D01*
X222573393Y-141766066D01*
X222350687Y-141432763D01*
X222067237Y-141149313D01*
X221733934Y-140926607D01*
X221363587Y-140773204D01*
X220970430Y-140695000D01*
X220569570Y-140695000D01*
X220176413Y-140773204D01*
X219806066Y-140926607D01*
X219472763Y-141149313D01*
X219189313Y-141432763D01*
X218966607Y-141766066D01*
X218813204Y-142136413D01*
X218735000Y-142529570D01*
X193885000Y-142529570D01*
X193806796Y-142136413D01*
X193653393Y-141766066D01*
X193430687Y-141432763D01*
X193147237Y-141149313D01*
X192813934Y-140926607D01*
X192443587Y-140773204D01*
X192050430Y-140695000D01*
X191649570Y-140695000D01*
X191256413Y-140773204D01*
X190886066Y-140926607D01*
X190552763Y-141149313D01*
X190269313Y-141432763D01*
X190046607Y-141766066D01*
X189893204Y-142136413D01*
X189815000Y-142529570D01*
X184110000Y-142529570D01*
X184110000Y-137019570D01*
X189775000Y-137019570D01*
X189775000Y-137420430D01*
X189853204Y-137813587D01*
X190006607Y-138183934D01*
X190229313Y-138517237D01*
X190512763Y-138800687D01*
X190846066Y-139023393D01*
X191216413Y-139176796D01*
X191609570Y-139255000D01*
X192010430Y-139255000D01*
X192403587Y-139176796D01*
X192773934Y-139023393D01*
X193107237Y-138800687D01*
X193390687Y-138517237D01*
X193613393Y-138183934D01*
X193766796Y-137813587D01*
X193845000Y-137420430D01*
X193845000Y-137019570D01*
X210775000Y-137019570D01*
X210775000Y-137420430D01*
X210853204Y-137813587D01*
X211006607Y-138183934D01*
X211229313Y-138517237D01*
X211512763Y-138800687D01*
X211846066Y-139023393D01*
X212216413Y-139176796D01*
X212609570Y-139255000D01*
X213010430Y-139255000D01*
X213403587Y-139176796D01*
X213773934Y-139023393D01*
X214107237Y-138800687D01*
X214390687Y-138517237D01*
X214613393Y-138183934D01*
X214766796Y-137813587D01*
X214845000Y-137420430D01*
X214845000Y-137019570D01*
X218725000Y-137019570D01*
X218725000Y-137420430D01*
X218803204Y-137813587D01*
X218956607Y-138183934D01*
X219179313Y-138517237D01*
X219462763Y-138800687D01*
X219796066Y-139023393D01*
X220166413Y-139176796D01*
X220559570Y-139255000D01*
X220960430Y-139255000D01*
X221353587Y-139176796D01*
X221723934Y-139023393D01*
X222057237Y-138800687D01*
X222340687Y-138517237D01*
X222563393Y-138183934D01*
X222716796Y-137813587D01*
X222795000Y-137420430D01*
X222795000Y-137019570D01*
X222716796Y-136626413D01*
X222563393Y-136256066D01*
X222340687Y-135922763D01*
X222057237Y-135639313D01*
X221723934Y-135416607D01*
X221353587Y-135263204D01*
X220960430Y-135185000D01*
X220559570Y-135185000D01*
X220166413Y-135263204D01*
X219796066Y-135416607D01*
X219462763Y-135639313D01*
X219179313Y-135922763D01*
X218956607Y-136256066D01*
X218803204Y-136626413D01*
X218725000Y-137019570D01*
X214845000Y-137019570D01*
X214766796Y-136626413D01*
X214613393Y-136256066D01*
X214390687Y-135922763D01*
X214107237Y-135639313D01*
X213773934Y-135416607D01*
X213403587Y-135263204D01*
X213010430Y-135185000D01*
X212609570Y-135185000D01*
X212216413Y-135263204D01*
X211846066Y-135416607D01*
X211512763Y-135639313D01*
X211229313Y-135922763D01*
X211006607Y-136256066D01*
X210853204Y-136626413D01*
X210775000Y-137019570D01*
X193845000Y-137019570D01*
X193766796Y-136626413D01*
X193613393Y-136256066D01*
X193390687Y-135922763D01*
X193107237Y-135639313D01*
X192773934Y-135416607D01*
X192403587Y-135263204D01*
X192010430Y-135185000D01*
X191609570Y-135185000D01*
X191216413Y-135263204D01*
X190846066Y-135416607D01*
X190512763Y-135639313D01*
X190229313Y-135922763D01*
X190006607Y-136256066D01*
X189853204Y-136626413D01*
X189775000Y-137019570D01*
X184110000Y-137019570D01*
X184110000Y-127990000D01*
X189237089Y-127990000D01*
X189268657Y-128310516D01*
X189362148Y-128618715D01*
X189513969Y-128902752D01*
X189718286Y-129151714D01*
X189945613Y-129338276D01*
X189917431Y-129357107D01*
X189707107Y-129567431D01*
X189541856Y-129814747D01*
X189428029Y-130089549D01*
X189370000Y-130381278D01*
X189370000Y-130678722D01*
X189428029Y-130970451D01*
X189541856Y-131245253D01*
X189707107Y-131492569D01*
X189917431Y-131702893D01*
X190062762Y-131800000D01*
X189917431Y-131897107D01*
X189707107Y-132107431D01*
X189541856Y-132354747D01*
X189428029Y-132629549D01*
X189370000Y-132921278D01*
X189370000Y-133218722D01*
X189428029Y-133510451D01*
X189541856Y-133785253D01*
X189707107Y-134032569D01*
X189917431Y-134242893D01*
X190164747Y-134408144D01*
X190439549Y-134521971D01*
X190731278Y-134580000D01*
X191028722Y-134580000D01*
X191320451Y-134521971D01*
X191595253Y-134408144D01*
X191842569Y-134242893D01*
X192052893Y-134032569D01*
X192150000Y-133887238D01*
X192247107Y-134032569D01*
X192457431Y-134242893D01*
X192704747Y-134408144D01*
X192979549Y-134521971D01*
X193271278Y-134580000D01*
X193568722Y-134580000D01*
X193860451Y-134521971D01*
X194135253Y-134408144D01*
X194382569Y-134242893D01*
X194592893Y-134032569D01*
X194758144Y-133785253D01*
X194871971Y-133510451D01*
X194930000Y-133218722D01*
X194930000Y-132921278D01*
X194871971Y-132629549D01*
X194758144Y-132354747D01*
X194592893Y-132107431D01*
X194382569Y-131897107D01*
X194237238Y-131800000D01*
X194382569Y-131702893D01*
X194592893Y-131492569D01*
X194758144Y-131245253D01*
X194871971Y-130970451D01*
X194930000Y-130678722D01*
X194930000Y-130381278D01*
X194871971Y-130089549D01*
X194758144Y-129814747D01*
X194631359Y-129625000D01*
X196602088Y-129625000D01*
X196551717Y-129686377D01*
X196495384Y-129791770D01*
X196446324Y-129883554D01*
X196381423Y-130097502D01*
X196359509Y-130320000D01*
X196365001Y-130375761D01*
X196365000Y-133115751D01*
X196381423Y-133282498D01*
X196446324Y-133496446D01*
X196551716Y-133693623D01*
X196693551Y-133866449D01*
X196866377Y-134008284D01*
X197063553Y-134113676D01*
X197277501Y-134178577D01*
X197500000Y-134200491D01*
X197722498Y-134178577D01*
X197936446Y-134113676D01*
X198133623Y-134008284D01*
X198306449Y-133866449D01*
X198448284Y-133693623D01*
X198553676Y-133496447D01*
X198618577Y-133282499D01*
X198635000Y-133115752D01*
X198635000Y-130790131D01*
X199795609Y-129629524D01*
X199830000Y-129632911D01*
X199910319Y-129625000D01*
X206419680Y-129625000D01*
X206499999Y-129632911D01*
X206580319Y-129625000D01*
X218618641Y-129625000D01*
X218491856Y-129814747D01*
X218378029Y-130089549D01*
X218320000Y-130381278D01*
X218320000Y-130678722D01*
X218378029Y-130970451D01*
X218491856Y-131245253D01*
X218657107Y-131492569D01*
X218867431Y-131702893D01*
X219012762Y-131800000D01*
X218867431Y-131897107D01*
X218657107Y-132107431D01*
X218491856Y-132354747D01*
X218378029Y-132629549D01*
X218320000Y-132921278D01*
X218320000Y-133218722D01*
X218378029Y-133510451D01*
X218491856Y-133785253D01*
X218657107Y-134032569D01*
X218867431Y-134242893D01*
X219114747Y-134408144D01*
X219389549Y-134521971D01*
X219681278Y-134580000D01*
X219978722Y-134580000D01*
X220270451Y-134521971D01*
X220545253Y-134408144D01*
X220792569Y-134242893D01*
X221002893Y-134032569D01*
X221100000Y-133887238D01*
X221197107Y-134032569D01*
X221407431Y-134242893D01*
X221654747Y-134408144D01*
X221929549Y-134521971D01*
X222221278Y-134580000D01*
X222518722Y-134580000D01*
X222810451Y-134521971D01*
X223085253Y-134408144D01*
X223332569Y-134242893D01*
X223542893Y-134032569D01*
X223708144Y-133785253D01*
X223821971Y-133510451D01*
X223880000Y-133218722D01*
X223880000Y-132921278D01*
X223821971Y-132629549D01*
X223708144Y-132354747D01*
X223542893Y-132107431D01*
X223332569Y-131897107D01*
X223187238Y-131800000D01*
X223332569Y-131702893D01*
X223542893Y-131492569D01*
X223708144Y-131245253D01*
X223821971Y-130970451D01*
X223880000Y-130678722D01*
X223880000Y-130381278D01*
X223821971Y-130089549D01*
X223708144Y-129814747D01*
X223542893Y-129567431D01*
X223332569Y-129357107D01*
X223304387Y-129338276D01*
X223531714Y-129151714D01*
X223736031Y-128902752D01*
X223887852Y-128618715D01*
X223981343Y-128310516D01*
X224012911Y-127990000D01*
X223981343Y-127669484D01*
X223887852Y-127361285D01*
X223736031Y-127077248D01*
X223531714Y-126828286D01*
X223282752Y-126623969D01*
X223208426Y-126584241D01*
X223236635Y-126496240D01*
X222370000Y-125629605D01*
X222355858Y-125643748D01*
X222176253Y-125464143D01*
X222190395Y-125450000D01*
X222549605Y-125450000D01*
X223416240Y-126316635D01*
X223667868Y-126235975D01*
X223796267Y-125967671D01*
X223869855Y-125679474D01*
X223885804Y-125382457D01*
X223843501Y-125088037D01*
X223744572Y-124807526D01*
X223667868Y-124664025D01*
X223416240Y-124583365D01*
X222549605Y-125450000D01*
X222190395Y-125450000D01*
X221323760Y-124583365D01*
X221100000Y-124655092D01*
X220876240Y-124583365D01*
X220009605Y-125450000D01*
X220023748Y-125464143D01*
X219844143Y-125643748D01*
X219830000Y-125629605D01*
X219815858Y-125643748D01*
X219636253Y-125464143D01*
X219650395Y-125450000D01*
X218783760Y-124583365D01*
X218532132Y-124664025D01*
X218403733Y-124932329D01*
X218330145Y-125220526D01*
X218314196Y-125517543D01*
X218356499Y-125811963D01*
X218455428Y-126092474D01*
X218532132Y-126235975D01*
X218783758Y-126316634D01*
X218745392Y-126355000D01*
X207177239Y-126355000D01*
X204861892Y-124039654D01*
X204853677Y-123956240D01*
X218963365Y-123956240D01*
X219035092Y-124180000D01*
X218963365Y-124403760D01*
X219830000Y-125270395D01*
X220696635Y-124403760D01*
X220624908Y-124180000D01*
X220696635Y-123956240D01*
X221503365Y-123956240D01*
X221575092Y-124180000D01*
X221503365Y-124403760D01*
X222370000Y-125270395D01*
X223236635Y-124403760D01*
X223164908Y-124180000D01*
X223236635Y-123956240D01*
X222370000Y-123089605D01*
X221503365Y-123956240D01*
X220696635Y-123956240D01*
X219830000Y-123089605D01*
X218963365Y-123956240D01*
X204853677Y-123956240D01*
X204851505Y-123934196D01*
X204835000Y-123766614D01*
X204835000Y-122977543D01*
X218314196Y-122977543D01*
X218356499Y-123271963D01*
X218455428Y-123552474D01*
X218532132Y-123695975D01*
X218783760Y-123776635D01*
X219650395Y-122910000D01*
X220009605Y-122910000D01*
X220876240Y-123776635D01*
X221100000Y-123704908D01*
X221323760Y-123776635D01*
X222190395Y-122910000D01*
X222549605Y-122910000D01*
X223416240Y-123776635D01*
X223667868Y-123695975D01*
X223796267Y-123427671D01*
X223869855Y-123139474D01*
X223885804Y-122842457D01*
X223843501Y-122548037D01*
X223744572Y-122267526D01*
X223667868Y-122124025D01*
X223416240Y-122043365D01*
X222549605Y-122910000D01*
X222190395Y-122910000D01*
X221323760Y-122043365D01*
X221100000Y-122115092D01*
X220876240Y-122043365D01*
X220009605Y-122910000D01*
X219650395Y-122910000D01*
X218783760Y-122043365D01*
X218532132Y-122124025D01*
X218403733Y-122392329D01*
X218330145Y-122680526D01*
X218314196Y-122977543D01*
X204835000Y-122977543D01*
X204835000Y-120430000D01*
X206449509Y-120430000D01*
X206471423Y-120652499D01*
X206536324Y-120866447D01*
X206641716Y-121063623D01*
X206783551Y-121236449D01*
X206956377Y-121378284D01*
X207153553Y-121483676D01*
X207367501Y-121548577D01*
X207534248Y-121565000D01*
X209604249Y-121565000D01*
X209660000Y-121570491D01*
X209715751Y-121565000D01*
X209715752Y-121565000D01*
X209882499Y-121548577D01*
X210096447Y-121483676D01*
X210293623Y-121378284D01*
X210466449Y-121236449D01*
X210501996Y-121193135D01*
X211473853Y-120221278D01*
X218320000Y-120221278D01*
X218320000Y-120518722D01*
X218378029Y-120810451D01*
X218491856Y-121085253D01*
X218657107Y-121332569D01*
X218867431Y-121542893D01*
X219031153Y-121652288D01*
X218963365Y-121863760D01*
X219830000Y-122730395D01*
X220696635Y-121863760D01*
X220628847Y-121652288D01*
X220792569Y-121542893D01*
X220830462Y-121505000D01*
X221369538Y-121505000D01*
X221407431Y-121542893D01*
X221571153Y-121652288D01*
X221503365Y-121863760D01*
X222370000Y-122730395D01*
X223236635Y-121863760D01*
X223168847Y-121652288D01*
X223332569Y-121542893D01*
X223370462Y-121505000D01*
X226079869Y-121505000D01*
X229275001Y-124700133D01*
X229275000Y-187039868D01*
X223506860Y-192808009D01*
X223463552Y-192843551D01*
X223321717Y-193016377D01*
X223265384Y-193121770D01*
X223216324Y-193213554D01*
X223151423Y-193427502D01*
X223129509Y-193650000D01*
X223135001Y-193705762D01*
X223135000Y-212584249D01*
X223129509Y-212640000D01*
X223135000Y-212695751D01*
X223151423Y-212862498D01*
X223216324Y-213076446D01*
X223321716Y-213273623D01*
X223463551Y-213446449D01*
X223506865Y-213481996D01*
X225976856Y-215951988D01*
X226106376Y-216058283D01*
X226303552Y-216163675D01*
X226517500Y-216228576D01*
X226739999Y-216250490D01*
X226962498Y-216228576D01*
X227176446Y-216163675D01*
X227373622Y-216058283D01*
X227546448Y-215916448D01*
X227688283Y-215743622D01*
X227793675Y-215546446D01*
X227858576Y-215332498D01*
X227880490Y-215109999D01*
X227858576Y-214887500D01*
X227793675Y-214673552D01*
X227688283Y-214476376D01*
X227581988Y-214346856D01*
X225405000Y-212169869D01*
X225405000Y-194120131D01*
X231173141Y-188351991D01*
X231216449Y-188316449D01*
X231358284Y-188143623D01*
X231463676Y-187946447D01*
X231528577Y-187732499D01*
X231545000Y-187565752D01*
X231545000Y-187565743D01*
X231550490Y-187510001D01*
X231545000Y-187454259D01*
X231545000Y-124285741D01*
X231550490Y-124229999D01*
X231545000Y-124174257D01*
X231545000Y-124174248D01*
X231528577Y-124007501D01*
X231463676Y-123793553D01*
X231358284Y-123596377D01*
X231216449Y-123423551D01*
X231173141Y-123388009D01*
X227391996Y-119606865D01*
X227356449Y-119563551D01*
X227183623Y-119421716D01*
X226986447Y-119316324D01*
X226772499Y-119251423D01*
X226605752Y-119235000D01*
X226605751Y-119235000D01*
X226550000Y-119229509D01*
X226494249Y-119235000D01*
X223370462Y-119235000D01*
X223332569Y-119197107D01*
X223085253Y-119031856D01*
X222810451Y-118918029D01*
X222518722Y-118860000D01*
X222221278Y-118860000D01*
X221929549Y-118918029D01*
X221654747Y-119031856D01*
X221407431Y-119197107D01*
X221369538Y-119235000D01*
X220830462Y-119235000D01*
X220792569Y-119197107D01*
X220545253Y-119031856D01*
X220270451Y-118918029D01*
X219978722Y-118860000D01*
X219681278Y-118860000D01*
X219389549Y-118918029D01*
X219114747Y-119031856D01*
X218867431Y-119197107D01*
X218657107Y-119407431D01*
X218491856Y-119654747D01*
X218378029Y-119929549D01*
X218320000Y-120221278D01*
X211473853Y-120221278D01*
X217190132Y-114505000D01*
X219663777Y-114505000D01*
X219462763Y-114639313D01*
X219179313Y-114922763D01*
X218956607Y-115256066D01*
X218803204Y-115626413D01*
X218725000Y-116019570D01*
X218725000Y-116420430D01*
X218803204Y-116813587D01*
X218956607Y-117183934D01*
X219179313Y-117517237D01*
X219462763Y-117800687D01*
X219796066Y-118023393D01*
X220166413Y-118176796D01*
X220559570Y-118255000D01*
X220960430Y-118255000D01*
X221353587Y-118176796D01*
X221723934Y-118023393D01*
X222057237Y-117800687D01*
X222340687Y-117517237D01*
X222563393Y-117183934D01*
X222716796Y-116813587D01*
X222795000Y-116420430D01*
X222795000Y-116019570D01*
X222716796Y-115626413D01*
X222563393Y-115256066D01*
X222340687Y-114922763D01*
X222057237Y-114639313D01*
X221856223Y-114505000D01*
X225199869Y-114505000D01*
X232235001Y-121540133D01*
X232235000Y-188239867D01*
X225996860Y-194478009D01*
X225953552Y-194513551D01*
X225811717Y-194686377D01*
X225802471Y-194703676D01*
X225706324Y-194883554D01*
X225641423Y-195097502D01*
X225619509Y-195320000D01*
X225625001Y-195375761D01*
X225625000Y-210395751D01*
X225641423Y-210562498D01*
X225706324Y-210776446D01*
X225811716Y-210973623D01*
X225953551Y-211146449D01*
X226126377Y-211288284D01*
X226323553Y-211393676D01*
X226537501Y-211458577D01*
X226760000Y-211480491D01*
X226982498Y-211458577D01*
X227196446Y-211393676D01*
X227393623Y-211288284D01*
X227566449Y-211146449D01*
X227708284Y-210973623D01*
X227813676Y-210776447D01*
X227878577Y-210562499D01*
X227895000Y-210395752D01*
X227895000Y-207798061D01*
X230075000Y-207798061D01*
X230075000Y-208001939D01*
X230114774Y-208201898D01*
X230192795Y-208390256D01*
X230306063Y-208559774D01*
X230450226Y-208703937D01*
X230619744Y-208817205D01*
X230808102Y-208895226D01*
X231008061Y-208935000D01*
X231034843Y-208935000D01*
X231302653Y-209202810D01*
X231327236Y-209232764D01*
X231446767Y-209330862D01*
X231583140Y-209403754D01*
X231731113Y-209448642D01*
X231806026Y-209456020D01*
X231846439Y-209460000D01*
X231846444Y-209460000D01*
X231885000Y-209463797D01*
X231923556Y-209460000D01*
X236476289Y-209460000D01*
X236495226Y-209478937D01*
X236664744Y-209592205D01*
X236853102Y-209670226D01*
X237053061Y-209710000D01*
X237256939Y-209710000D01*
X237456898Y-209670226D01*
X237632251Y-209597592D01*
X236552185Y-210677658D01*
X236522237Y-210702236D01*
X236497659Y-210732184D01*
X236497655Y-210732188D01*
X236489793Y-210741768D01*
X236424139Y-210821767D01*
X236419602Y-210830256D01*
X236351246Y-210958141D01*
X236306359Y-211106114D01*
X236291203Y-211260000D01*
X236295001Y-211298562D01*
X236295001Y-211731288D01*
X236276063Y-211750226D01*
X236162795Y-211919744D01*
X236084774Y-212108102D01*
X236045000Y-212308061D01*
X236045000Y-212511939D01*
X236084774Y-212711898D01*
X236162795Y-212900256D01*
X236276063Y-213069774D01*
X236420226Y-213213937D01*
X236589744Y-213327205D01*
X236778102Y-213405226D01*
X236978061Y-213445000D01*
X237181939Y-213445000D01*
X237381898Y-213405226D01*
X237570256Y-213327205D01*
X237739774Y-213213937D01*
X237883937Y-213069774D01*
X237997205Y-212900256D01*
X238075226Y-212711898D01*
X238115000Y-212511939D01*
X238115000Y-212308061D01*
X238075226Y-212108102D01*
X237997205Y-211919744D01*
X237883937Y-211750226D01*
X237865000Y-211731289D01*
X237865000Y-211585157D01*
X240990158Y-208460000D01*
X241016939Y-208460000D01*
X241216898Y-208420226D01*
X241405256Y-208342205D01*
X241574774Y-208228937D01*
X241718937Y-208084774D01*
X241832205Y-207915256D01*
X241910226Y-207726898D01*
X241950000Y-207526939D01*
X241950000Y-207323061D01*
X241910226Y-207123102D01*
X241832205Y-206934744D01*
X241718937Y-206765226D01*
X241574774Y-206621063D01*
X241405256Y-206507795D01*
X241216898Y-206429774D01*
X241016939Y-206390000D01*
X240813061Y-206390000D01*
X240613102Y-206429774D01*
X240424744Y-206507795D01*
X240255226Y-206621063D01*
X240111063Y-206765226D01*
X239997795Y-206934744D01*
X239919774Y-207123102D01*
X239880000Y-207323061D01*
X239880000Y-207349842D01*
X238077592Y-209152251D01*
X238150226Y-208976898D01*
X238190000Y-208776939D01*
X238190000Y-208573061D01*
X238150226Y-208373102D01*
X238072205Y-208184744D01*
X237958937Y-208015226D01*
X237814774Y-207871063D01*
X237645256Y-207757795D01*
X237456898Y-207679774D01*
X237256939Y-207640000D01*
X237053061Y-207640000D01*
X236853102Y-207679774D01*
X236664744Y-207757795D01*
X236495226Y-207871063D01*
X236476289Y-207890000D01*
X232210157Y-207890000D01*
X232145000Y-207824843D01*
X232145000Y-207798061D01*
X232105226Y-207598102D01*
X232027205Y-207409744D01*
X231913937Y-207240226D01*
X231769774Y-207096063D01*
X231600256Y-206982795D01*
X231411898Y-206904774D01*
X231211939Y-206865000D01*
X231008061Y-206865000D01*
X230808102Y-206904774D01*
X230619744Y-206982795D01*
X230450226Y-207096063D01*
X230306063Y-207240226D01*
X230192795Y-207409744D01*
X230114774Y-207598102D01*
X230075000Y-207798061D01*
X227895000Y-207798061D01*
X227895000Y-195790131D01*
X234133146Y-189551987D01*
X234176449Y-189516449D01*
X234318284Y-189343623D01*
X234423676Y-189146447D01*
X234488577Y-188932499D01*
X234505000Y-188765752D01*
X234505000Y-188765751D01*
X234510491Y-188710000D01*
X234505000Y-188654248D01*
X234505000Y-163529570D01*
X239735000Y-163529570D01*
X239735000Y-163930430D01*
X239813204Y-164323587D01*
X239966607Y-164693934D01*
X240189313Y-165027237D01*
X240472763Y-165310687D01*
X240806066Y-165533393D01*
X241176413Y-165686796D01*
X241569570Y-165765000D01*
X241970430Y-165765000D01*
X242363587Y-165686796D01*
X242733934Y-165533393D01*
X243067237Y-165310687D01*
X243350687Y-165027237D01*
X243573393Y-164693934D01*
X243726796Y-164323587D01*
X243805000Y-163930430D01*
X243805000Y-163529570D01*
X243726796Y-163136413D01*
X243573393Y-162766066D01*
X243350687Y-162432763D01*
X243067237Y-162149313D01*
X242733934Y-161926607D01*
X242363587Y-161773204D01*
X241970430Y-161695000D01*
X241569570Y-161695000D01*
X241176413Y-161773204D01*
X240806066Y-161926607D01*
X240472763Y-162149313D01*
X240189313Y-162432763D01*
X239966607Y-162766066D01*
X239813204Y-163136413D01*
X239735000Y-163529570D01*
X234505000Y-163529570D01*
X234505000Y-137019570D01*
X239725000Y-137019570D01*
X239725000Y-137420430D01*
X239803204Y-137813587D01*
X239956607Y-138183934D01*
X240179313Y-138517237D01*
X240462763Y-138800687D01*
X240796066Y-139023393D01*
X241166413Y-139176796D01*
X241559570Y-139255000D01*
X241960430Y-139255000D01*
X242353587Y-139176796D01*
X242723934Y-139023393D01*
X243057237Y-138800687D01*
X243340687Y-138517237D01*
X243563393Y-138183934D01*
X243716796Y-137813587D01*
X243795000Y-137420430D01*
X243795000Y-137019570D01*
X243716796Y-136626413D01*
X243563393Y-136256066D01*
X243340687Y-135922763D01*
X243057237Y-135639313D01*
X242723934Y-135416607D01*
X242353587Y-135263204D01*
X241960430Y-135185000D01*
X241559570Y-135185000D01*
X241166413Y-135263204D01*
X240796066Y-135416607D01*
X240462763Y-135639313D01*
X240179313Y-135922763D01*
X239956607Y-136256066D01*
X239803204Y-136626413D01*
X239725000Y-137019570D01*
X234505000Y-137019570D01*
X234505000Y-121125741D01*
X234510490Y-121069999D01*
X234505000Y-121014257D01*
X234505000Y-121014248D01*
X234488577Y-120847501D01*
X234423676Y-120633553D01*
X234318284Y-120436377D01*
X234176449Y-120263551D01*
X234133141Y-120228009D01*
X226511996Y-112606865D01*
X226476449Y-112563551D01*
X226303623Y-112421716D01*
X226234932Y-112385000D01*
X228924249Y-112385000D01*
X228980000Y-112390491D01*
X229035751Y-112385000D01*
X229035752Y-112385000D01*
X229202499Y-112368577D01*
X229416447Y-112303676D01*
X229613623Y-112198284D01*
X229786449Y-112056449D01*
X229821996Y-112013135D01*
X231025561Y-110809570D01*
X234665000Y-110809570D01*
X234665000Y-111210430D01*
X234743204Y-111603587D01*
X234896607Y-111973934D01*
X235119313Y-112307237D01*
X235402763Y-112590687D01*
X235736066Y-112813393D01*
X236106413Y-112966796D01*
X236499570Y-113045000D01*
X236900430Y-113045000D01*
X237293587Y-112966796D01*
X237663934Y-112813393D01*
X237997237Y-112590687D01*
X238280687Y-112307237D01*
X238503393Y-111973934D01*
X238656796Y-111603587D01*
X238735000Y-111210430D01*
X238735000Y-110809570D01*
X238656796Y-110416413D01*
X238503393Y-110046066D01*
X238280687Y-109712763D01*
X237997237Y-109429313D01*
X237663934Y-109206607D01*
X237293587Y-109053204D01*
X236900430Y-108975000D01*
X236499570Y-108975000D01*
X236106413Y-109053204D01*
X235736066Y-109206607D01*
X235402763Y-109429313D01*
X235119313Y-109712763D01*
X234896607Y-110046066D01*
X234743204Y-110416413D01*
X234665000Y-110809570D01*
X231025561Y-110809570D01*
X234211989Y-107623144D01*
X234318284Y-107493623D01*
X234423676Y-107296447D01*
X234488577Y-107082499D01*
X234510491Y-106860000D01*
X234488577Y-106637501D01*
X234423676Y-106423553D01*
X234318284Y-106226377D01*
X234176449Y-106053551D01*
X234003623Y-105911716D01*
X233806447Y-105806324D01*
X233592499Y-105741423D01*
X233370000Y-105719509D01*
X233147501Y-105741423D01*
X232933553Y-105806324D01*
X232736377Y-105911716D01*
X232606856Y-106018011D01*
X228509869Y-110115000D01*
X220870462Y-110115000D01*
X220832569Y-110077107D01*
X220668847Y-109967712D01*
X220736635Y-109756240D01*
X219870000Y-108889605D01*
X219003365Y-109756240D01*
X219071153Y-109967712D01*
X218907431Y-110077107D01*
X218697107Y-110287431D01*
X218531856Y-110534747D01*
X218418029Y-110809549D01*
X218360000Y-111101278D01*
X218360000Y-111398722D01*
X218418029Y-111690451D01*
X218531856Y-111965253D01*
X218697107Y-112212569D01*
X218719538Y-112235000D01*
X216775752Y-112235000D01*
X216720000Y-112229509D01*
X216664248Y-112235000D01*
X216497501Y-112251423D01*
X216283553Y-112316324D01*
X216086377Y-112421716D01*
X215913551Y-112563551D01*
X215878009Y-112606859D01*
X209189869Y-119295000D01*
X207534248Y-119295000D01*
X207367501Y-119311423D01*
X207153553Y-119376324D01*
X206956377Y-119481716D01*
X206783551Y-119623551D01*
X206641716Y-119796377D01*
X206536324Y-119993553D01*
X206471423Y-120207501D01*
X206449509Y-120430000D01*
X204835000Y-120430000D01*
X204835000Y-110809570D01*
X210895000Y-110809570D01*
X210895000Y-111210430D01*
X210973204Y-111603587D01*
X211126607Y-111973934D01*
X211349313Y-112307237D01*
X211632763Y-112590687D01*
X211966066Y-112813393D01*
X212336413Y-112966796D01*
X212729570Y-113045000D01*
X213130430Y-113045000D01*
X213523587Y-112966796D01*
X213893934Y-112813393D01*
X214227237Y-112590687D01*
X214510687Y-112307237D01*
X214733393Y-111973934D01*
X214886796Y-111603587D01*
X214965000Y-111210430D01*
X214965000Y-110809570D01*
X214886796Y-110416413D01*
X214733393Y-110046066D01*
X214510687Y-109712763D01*
X214227237Y-109429313D01*
X213893934Y-109206607D01*
X213523587Y-109053204D01*
X213130430Y-108975000D01*
X212729570Y-108975000D01*
X212336413Y-109053204D01*
X211966066Y-109206607D01*
X211632763Y-109429313D01*
X211349313Y-109712763D01*
X211126607Y-110046066D01*
X210973204Y-110416413D01*
X210895000Y-110809570D01*
X204835000Y-110809570D01*
X204835000Y-108777543D01*
X218354196Y-108777543D01*
X218396499Y-109071963D01*
X218495428Y-109352474D01*
X218572132Y-109495975D01*
X218823760Y-109576635D01*
X219690395Y-108710000D01*
X220049605Y-108710000D01*
X220916240Y-109576635D01*
X221167868Y-109495975D01*
X221296267Y-109227671D01*
X221369855Y-108939474D01*
X221385804Y-108642457D01*
X221343501Y-108348037D01*
X221244572Y-108067526D01*
X221167868Y-107924025D01*
X220916240Y-107843365D01*
X220049605Y-108710000D01*
X219690395Y-108710000D01*
X218823760Y-107843365D01*
X218572132Y-107924025D01*
X218443733Y-108192329D01*
X218370145Y-108480526D01*
X218354196Y-108777543D01*
X204835000Y-108777543D01*
X204835000Y-107216240D01*
X219003365Y-107216240D01*
X219075092Y-107440000D01*
X219003365Y-107663760D01*
X219870000Y-108530395D01*
X220736635Y-107663760D01*
X220664908Y-107440000D01*
X220736635Y-107216240D01*
X219870000Y-106349605D01*
X219003365Y-107216240D01*
X204835000Y-107216240D01*
X204835000Y-106237543D01*
X218354196Y-106237543D01*
X218396499Y-106531963D01*
X218495428Y-106812474D01*
X218572132Y-106955975D01*
X218823760Y-107036635D01*
X219690395Y-106170000D01*
X220049605Y-106170000D01*
X220916240Y-107036635D01*
X221167868Y-106955975D01*
X221296267Y-106687671D01*
X221369855Y-106399474D01*
X221385804Y-106102457D01*
X221343501Y-105808037D01*
X221244572Y-105527526D01*
X221167868Y-105384025D01*
X220916240Y-105303365D01*
X220049605Y-106170000D01*
X219690395Y-106170000D01*
X218823760Y-105303365D01*
X218572132Y-105384025D01*
X218443733Y-105652329D01*
X218370145Y-105940526D01*
X218354196Y-106237543D01*
X204835000Y-106237543D01*
X204835000Y-100941278D01*
X218360000Y-100941278D01*
X218360000Y-101238722D01*
X218418029Y-101530451D01*
X218531856Y-101805253D01*
X218697107Y-102052569D01*
X218907431Y-102262893D01*
X219052762Y-102360000D01*
X218907431Y-102457107D01*
X218697107Y-102667431D01*
X218531856Y-102914747D01*
X218418029Y-103189549D01*
X218360000Y-103481278D01*
X218360000Y-103778722D01*
X218418029Y-104070451D01*
X218531856Y-104345253D01*
X218697107Y-104592569D01*
X218907431Y-104802893D01*
X219071153Y-104912288D01*
X219003365Y-105123760D01*
X219870000Y-105990395D01*
X220736635Y-105123760D01*
X220668847Y-104912288D01*
X220832569Y-104802893D01*
X221042893Y-104592569D01*
X221208144Y-104345253D01*
X221321971Y-104070451D01*
X221380000Y-103778722D01*
X221380000Y-103481278D01*
X221321971Y-103189549D01*
X221208144Y-102914747D01*
X221042893Y-102667431D01*
X220832569Y-102457107D01*
X220687238Y-102360000D01*
X220832569Y-102262893D01*
X221042893Y-102052569D01*
X221208144Y-101805253D01*
X221321971Y-101530451D01*
X221380000Y-101238722D01*
X221380000Y-100941278D01*
X221321971Y-100649549D01*
X221208144Y-100374747D01*
X221042893Y-100127431D01*
X220832569Y-99917107D01*
X220585253Y-99751856D01*
X220310451Y-99638029D01*
X220018722Y-99580000D01*
X219721278Y-99580000D01*
X219429549Y-99638029D01*
X219154747Y-99751856D01*
X218907431Y-99917107D01*
X218697107Y-100127431D01*
X218531856Y-100374747D01*
X218418029Y-100649549D01*
X218360000Y-100941278D01*
X204835000Y-100941278D01*
X204835000Y-97309570D01*
X218665000Y-97309570D01*
X218665000Y-97710430D01*
X218743204Y-98103587D01*
X218896607Y-98473934D01*
X219119313Y-98807237D01*
X219402763Y-99090687D01*
X219736066Y-99313393D01*
X220106413Y-99466796D01*
X220499570Y-99545000D01*
X220900430Y-99545000D01*
X221293587Y-99466796D01*
X221663934Y-99313393D01*
X221997237Y-99090687D01*
X222280687Y-98807237D01*
X222503393Y-98473934D01*
X222656796Y-98103587D01*
X222735000Y-97710430D01*
X222735000Y-97309570D01*
X222656796Y-96916413D01*
X222503393Y-96546066D01*
X222280687Y-96212763D01*
X221997237Y-95929313D01*
X221663934Y-95706607D01*
X221293587Y-95553204D01*
X220900430Y-95475000D01*
X220499570Y-95475000D01*
X220106413Y-95553204D01*
X219736066Y-95706607D01*
X219402763Y-95929313D01*
X219119313Y-96212763D01*
X218896607Y-96546066D01*
X218743204Y-96916413D01*
X218665000Y-97309570D01*
X204835000Y-97309570D01*
X204835000Y-92750322D01*
X204842911Y-92670000D01*
X204811343Y-92349484D01*
X204717852Y-92041285D01*
X204566031Y-91757248D01*
X204361714Y-91508286D01*
X204112752Y-91303969D01*
X203828715Y-91152148D01*
X203520516Y-91058657D01*
X203280322Y-91035000D01*
X203200000Y-91027089D01*
X203119678Y-91035000D01*
X202879484Y-91058657D01*
X202571285Y-91152148D01*
X202287248Y-91303969D01*
X202038286Y-91508286D01*
X201833969Y-91757248D01*
X201682148Y-92041285D01*
X201588657Y-92349484D01*
X201557089Y-92670000D01*
X201565000Y-92750322D01*
X201565000Y-95619679D01*
X201565001Y-123942760D01*
X199152762Y-126355000D01*
X194504608Y-126355000D01*
X194466242Y-126316634D01*
X194717868Y-126235975D01*
X194846267Y-125967671D01*
X194919855Y-125679474D01*
X194935804Y-125382457D01*
X194893501Y-125088037D01*
X194794572Y-124807526D01*
X194717868Y-124664025D01*
X194466240Y-124583365D01*
X193599605Y-125450000D01*
X193613748Y-125464143D01*
X193434143Y-125643748D01*
X193420000Y-125629605D01*
X193405858Y-125643748D01*
X193226253Y-125464143D01*
X193240395Y-125450000D01*
X192373760Y-124583365D01*
X192150000Y-124655092D01*
X191926240Y-124583365D01*
X191059605Y-125450000D01*
X191073748Y-125464143D01*
X190894143Y-125643748D01*
X190880000Y-125629605D01*
X190013365Y-126496240D01*
X190041574Y-126584241D01*
X189967248Y-126623969D01*
X189718286Y-126828286D01*
X189513969Y-127077248D01*
X189362148Y-127361285D01*
X189268657Y-127669484D01*
X189237089Y-127990000D01*
X184110000Y-127990000D01*
X184110000Y-125517543D01*
X189364196Y-125517543D01*
X189406499Y-125811963D01*
X189505428Y-126092474D01*
X189582132Y-126235975D01*
X189833760Y-126316635D01*
X190700395Y-125450000D01*
X189833760Y-124583365D01*
X189582132Y-124664025D01*
X189453733Y-124932329D01*
X189380145Y-125220526D01*
X189364196Y-125517543D01*
X184110000Y-125517543D01*
X184110000Y-123956240D01*
X190013365Y-123956240D01*
X190085092Y-124180000D01*
X190013365Y-124403760D01*
X190880000Y-125270395D01*
X191746635Y-124403760D01*
X191674908Y-124180000D01*
X191746635Y-123956240D01*
X192553365Y-123956240D01*
X192625092Y-124180000D01*
X192553365Y-124403760D01*
X193420000Y-125270395D01*
X194286635Y-124403760D01*
X194214908Y-124180000D01*
X194286635Y-123956240D01*
X193420000Y-123089605D01*
X192553365Y-123956240D01*
X191746635Y-123956240D01*
X190880000Y-123089605D01*
X190013365Y-123956240D01*
X184110000Y-123956240D01*
X184110000Y-122977543D01*
X189364196Y-122977543D01*
X189406499Y-123271963D01*
X189505428Y-123552474D01*
X189582132Y-123695975D01*
X189833760Y-123776635D01*
X190700395Y-122910000D01*
X191059605Y-122910000D01*
X191926240Y-123776635D01*
X192150000Y-123704908D01*
X192373760Y-123776635D01*
X193240395Y-122910000D01*
X193599605Y-122910000D01*
X194466240Y-123776635D01*
X194717868Y-123695975D01*
X194846267Y-123427671D01*
X194919855Y-123139474D01*
X194935804Y-122842457D01*
X194893501Y-122548037D01*
X194794572Y-122267526D01*
X194717868Y-122124025D01*
X194466240Y-122043365D01*
X193599605Y-122910000D01*
X193240395Y-122910000D01*
X192373760Y-122043365D01*
X192150000Y-122115092D01*
X191926240Y-122043365D01*
X191059605Y-122910000D01*
X190700395Y-122910000D01*
X189833760Y-122043365D01*
X189582132Y-122124025D01*
X189453733Y-122392329D01*
X189380145Y-122680526D01*
X189364196Y-122977543D01*
X184110000Y-122977543D01*
X184110000Y-120221278D01*
X189370000Y-120221278D01*
X189370000Y-120518722D01*
X189428029Y-120810451D01*
X189541856Y-121085253D01*
X189707107Y-121332569D01*
X189917431Y-121542893D01*
X190081153Y-121652288D01*
X190013365Y-121863760D01*
X190880000Y-122730395D01*
X191746635Y-121863760D01*
X191678847Y-121652288D01*
X191842569Y-121542893D01*
X192052893Y-121332569D01*
X192150000Y-121187238D01*
X192247107Y-121332569D01*
X192457431Y-121542893D01*
X192621153Y-121652288D01*
X192553365Y-121863760D01*
X193420000Y-122730395D01*
X194286635Y-121863760D01*
X194218847Y-121652288D01*
X194382569Y-121542893D01*
X194592893Y-121332569D01*
X194758144Y-121085253D01*
X194871971Y-120810451D01*
X194930000Y-120518722D01*
X194930000Y-120221278D01*
X194871971Y-119929549D01*
X194758144Y-119654747D01*
X194592893Y-119407431D01*
X194382569Y-119197107D01*
X194135253Y-119031856D01*
X193860451Y-118918029D01*
X193568722Y-118860000D01*
X193271278Y-118860000D01*
X192979549Y-118918029D01*
X192704747Y-119031856D01*
X192457431Y-119197107D01*
X192247107Y-119407431D01*
X192150000Y-119552762D01*
X192052893Y-119407431D01*
X191842569Y-119197107D01*
X191595253Y-119031856D01*
X191320451Y-118918029D01*
X191028722Y-118860000D01*
X190731278Y-118860000D01*
X190439549Y-118918029D01*
X190164747Y-119031856D01*
X189917431Y-119197107D01*
X189707107Y-119407431D01*
X189541856Y-119654747D01*
X189428029Y-119929549D01*
X189370000Y-120221278D01*
X184110000Y-120221278D01*
X184110000Y-116019570D01*
X189775000Y-116019570D01*
X189775000Y-116420430D01*
X189853204Y-116813587D01*
X190006607Y-117183934D01*
X190229313Y-117517237D01*
X190512763Y-117800687D01*
X190846066Y-118023393D01*
X191216413Y-118176796D01*
X191609570Y-118255000D01*
X192010430Y-118255000D01*
X192403587Y-118176796D01*
X192773934Y-118023393D01*
X193107237Y-117800687D01*
X193390687Y-117517237D01*
X193613393Y-117183934D01*
X193766796Y-116813587D01*
X193845000Y-116420430D01*
X193845000Y-116019570D01*
X193766796Y-115626413D01*
X193613393Y-115256066D01*
X193390687Y-114922763D01*
X193107237Y-114639313D01*
X192773934Y-114416607D01*
X192403587Y-114263204D01*
X192010430Y-114185000D01*
X191609570Y-114185000D01*
X191216413Y-114263204D01*
X190846066Y-114416607D01*
X190512763Y-114639313D01*
X190229313Y-114922763D01*
X190006607Y-115256066D01*
X189853204Y-115626413D01*
X189775000Y-116019570D01*
X184110000Y-116019570D01*
X184110000Y-111741278D01*
X194590000Y-111741278D01*
X194590000Y-112038722D01*
X194648029Y-112330451D01*
X194761856Y-112605253D01*
X194927107Y-112852569D01*
X195137431Y-113062893D01*
X195384747Y-113228144D01*
X195659549Y-113341971D01*
X195951278Y-113400000D01*
X196248722Y-113400000D01*
X196540451Y-113341971D01*
X196815253Y-113228144D01*
X197062569Y-113062893D01*
X197272893Y-112852569D01*
X197438144Y-112605253D01*
X197551971Y-112330451D01*
X197610000Y-112038722D01*
X197610000Y-111741278D01*
X197551971Y-111449549D01*
X197438144Y-111174747D01*
X197272893Y-110927431D01*
X197062569Y-110717107D01*
X196898847Y-110607712D01*
X196966635Y-110396240D01*
X196100000Y-109529605D01*
X195233365Y-110396240D01*
X195301153Y-110607712D01*
X195137431Y-110717107D01*
X194927107Y-110927431D01*
X194761856Y-111174747D01*
X194648029Y-111449549D01*
X194590000Y-111741278D01*
X184110000Y-111741278D01*
X184110000Y-109417543D01*
X194584196Y-109417543D01*
X194626499Y-109711963D01*
X194725428Y-109992474D01*
X194802132Y-110135975D01*
X195053760Y-110216635D01*
X195920395Y-109350000D01*
X196279605Y-109350000D01*
X197146240Y-110216635D01*
X197397868Y-110135975D01*
X197526267Y-109867671D01*
X197599855Y-109579474D01*
X197615804Y-109282457D01*
X197573501Y-108988037D01*
X197474572Y-108707526D01*
X197397868Y-108564025D01*
X197146240Y-108483365D01*
X196279605Y-109350000D01*
X195920395Y-109350000D01*
X195053760Y-108483365D01*
X194802132Y-108564025D01*
X194673733Y-108832329D01*
X194600145Y-109120526D01*
X194584196Y-109417543D01*
X184110000Y-109417543D01*
X184110000Y-107856240D01*
X195233365Y-107856240D01*
X195305092Y-108080000D01*
X195233365Y-108303760D01*
X196100000Y-109170395D01*
X196966635Y-108303760D01*
X196894908Y-108080000D01*
X196966635Y-107856240D01*
X196100000Y-106989605D01*
X195233365Y-107856240D01*
X184110000Y-107856240D01*
X184110000Y-106877543D01*
X194584196Y-106877543D01*
X194626499Y-107171963D01*
X194725428Y-107452474D01*
X194802132Y-107595975D01*
X195053760Y-107676635D01*
X195920395Y-106810000D01*
X196279605Y-106810000D01*
X197146240Y-107676635D01*
X197397868Y-107595975D01*
X197526267Y-107327671D01*
X197599855Y-107039474D01*
X197615804Y-106742457D01*
X197573501Y-106448037D01*
X197474572Y-106167526D01*
X197397868Y-106024025D01*
X197146240Y-105943365D01*
X196279605Y-106810000D01*
X195920395Y-106810000D01*
X195053760Y-105943365D01*
X194802132Y-106024025D01*
X194673733Y-106292329D01*
X194600145Y-106580526D01*
X194584196Y-106877543D01*
X184110000Y-106877543D01*
X184110000Y-101581278D01*
X194590000Y-101581278D01*
X194590000Y-101878722D01*
X194648029Y-102170451D01*
X194761856Y-102445253D01*
X194927107Y-102692569D01*
X195137431Y-102902893D01*
X195282762Y-103000000D01*
X195137431Y-103097107D01*
X194927107Y-103307431D01*
X194761856Y-103554747D01*
X194648029Y-103829549D01*
X194590000Y-104121278D01*
X194590000Y-104418722D01*
X194648029Y-104710451D01*
X194761856Y-104985253D01*
X194927107Y-105232569D01*
X195137431Y-105442893D01*
X195301153Y-105552288D01*
X195233365Y-105763760D01*
X196100000Y-106630395D01*
X196966635Y-105763760D01*
X196898847Y-105552288D01*
X197062569Y-105442893D01*
X197272893Y-105232569D01*
X197438144Y-104985253D01*
X197551971Y-104710451D01*
X197610000Y-104418722D01*
X197610000Y-104121278D01*
X197551971Y-103829549D01*
X197438144Y-103554747D01*
X197272893Y-103307431D01*
X197062569Y-103097107D01*
X196917238Y-103000000D01*
X197062569Y-102902893D01*
X197272893Y-102692569D01*
X197370000Y-102547238D01*
X197467107Y-102692569D01*
X197677431Y-102902893D01*
X197924747Y-103068144D01*
X198199549Y-103181971D01*
X198491278Y-103240000D01*
X198788722Y-103240000D01*
X199080451Y-103181971D01*
X199355253Y-103068144D01*
X199602569Y-102902893D01*
X199812893Y-102692569D01*
X199978144Y-102445253D01*
X200091971Y-102170451D01*
X200150000Y-101878722D01*
X200150000Y-101581278D01*
X200091971Y-101289549D01*
X199978144Y-101014747D01*
X199812893Y-100767431D01*
X199602569Y-100557107D01*
X199355253Y-100391856D01*
X199080451Y-100278029D01*
X198788722Y-100220000D01*
X198491278Y-100220000D01*
X198199549Y-100278029D01*
X197924747Y-100391856D01*
X197677431Y-100557107D01*
X197467107Y-100767431D01*
X197370000Y-100912762D01*
X197272893Y-100767431D01*
X197062569Y-100557107D01*
X196815253Y-100391856D01*
X196540451Y-100278029D01*
X196248722Y-100220000D01*
X195951278Y-100220000D01*
X195659549Y-100278029D01*
X195384747Y-100391856D01*
X195137431Y-100557107D01*
X194927107Y-100767431D01*
X194761856Y-101014747D01*
X194648029Y-101289549D01*
X194590000Y-101581278D01*
X184110000Y-101581278D01*
X184110000Y-97309570D01*
X194895000Y-97309570D01*
X194895000Y-97710430D01*
X194973204Y-98103587D01*
X195126607Y-98473934D01*
X195349313Y-98807237D01*
X195632763Y-99090687D01*
X195966066Y-99313393D01*
X196336413Y-99466796D01*
X196729570Y-99545000D01*
X197130430Y-99545000D01*
X197523587Y-99466796D01*
X197893934Y-99313393D01*
X198227237Y-99090687D01*
X198510687Y-98807237D01*
X198733393Y-98473934D01*
X198886796Y-98103587D01*
X198965000Y-97710430D01*
X198965000Y-97309570D01*
X198886796Y-96916413D01*
X198733393Y-96546066D01*
X198510687Y-96212763D01*
X198227237Y-95929313D01*
X197893934Y-95706607D01*
X197523587Y-95553204D01*
X197130430Y-95475000D01*
X196729570Y-95475000D01*
X196336413Y-95553204D01*
X195966066Y-95706607D01*
X195632763Y-95929313D01*
X195349313Y-96212763D01*
X195126607Y-96546066D01*
X194973204Y-96916413D01*
X194895000Y-97309570D01*
X184110000Y-97309570D01*
X184110000Y-82800000D01*
X193719509Y-82800000D01*
X193741423Y-83022498D01*
X193806324Y-83236446D01*
X193911717Y-83433622D01*
X194018012Y-83563143D01*
X195138008Y-84683140D01*
X195173551Y-84726449D01*
X195346377Y-84868284D01*
X195543553Y-84973676D01*
X195707705Y-85023471D01*
X195757500Y-85038577D01*
X195778493Y-85040644D01*
X195924248Y-85055000D01*
X195924255Y-85055000D01*
X195979999Y-85060490D01*
X196035743Y-85055000D01*
X238244249Y-85055000D01*
X238300000Y-85060491D01*
X238355751Y-85055000D01*
X238355752Y-85055000D01*
X238522499Y-85038577D01*
X238736447Y-84973676D01*
X238933623Y-84868284D01*
X239106449Y-84726449D01*
X239141996Y-84683136D01*
X240261988Y-83563144D01*
X240368283Y-83433623D01*
X240473675Y-83236447D01*
X240538577Y-83022500D01*
X240560490Y-82800001D01*
X240538577Y-82577502D01*
X240473675Y-82363554D01*
X240368283Y-82166378D01*
X240226448Y-81993552D01*
X240053622Y-81851717D01*
X239856446Y-81746325D01*
X239689462Y-81695670D01*
X239821988Y-81563144D01*
X239928283Y-81433624D01*
X240033675Y-81236447D01*
X240098576Y-81022500D01*
X240120490Y-80800001D01*
X240098576Y-80577502D01*
X240033675Y-80363554D01*
X239928283Y-80166378D01*
X239786448Y-79993552D01*
X239613622Y-79851717D01*
X239416446Y-79746325D01*
X239280152Y-79704980D01*
X239421988Y-79563144D01*
X239528283Y-79433624D01*
X239633675Y-79236447D01*
X239698576Y-79022500D01*
X239720490Y-78800001D01*
X239698576Y-78577502D01*
X239633675Y-78363554D01*
X239528283Y-78166378D01*
X239386448Y-77993552D01*
X239213622Y-77851717D01*
X239016446Y-77746325D01*
X239001527Y-77741799D01*
X239166439Y-77606459D01*
X239308274Y-77433633D01*
X239413666Y-77236457D01*
X239478567Y-77022509D01*
X239500481Y-76800010D01*
X239478567Y-76577511D01*
X239413666Y-76363563D01*
X239308274Y-76166387D01*
X239166439Y-75993561D01*
X238993613Y-75851726D01*
X238796437Y-75746334D01*
X238582489Y-75681433D01*
X238415742Y-75665010D01*
X236325742Y-75665010D01*
X236269990Y-75659519D01*
X236214238Y-75665010D01*
X236047491Y-75681433D01*
X235833543Y-75746334D01*
X235636367Y-75851726D01*
X235463541Y-75993561D01*
X235427999Y-76036869D01*
X233589869Y-77875000D01*
X200000132Y-77875000D01*
X198161996Y-76036865D01*
X198126449Y-75993551D01*
X197953623Y-75851716D01*
X197756447Y-75746324D01*
X197542499Y-75681423D01*
X197375752Y-75665000D01*
X197375751Y-75665000D01*
X197320000Y-75659509D01*
X197264249Y-75665000D01*
X195884248Y-75665000D01*
X195717501Y-75681423D01*
X195503553Y-75746324D01*
X195306377Y-75851716D01*
X195133551Y-75993551D01*
X194991716Y-76166377D01*
X194886324Y-76363553D01*
X194821423Y-76577501D01*
X194799509Y-76800000D01*
X194821423Y-77022499D01*
X194886324Y-77236447D01*
X194991716Y-77433623D01*
X195133551Y-77606449D01*
X195290378Y-77735154D01*
X195253554Y-77746324D01*
X195056378Y-77851717D01*
X194883552Y-77993552D01*
X194741717Y-78166378D01*
X194636324Y-78363554D01*
X194571423Y-78577502D01*
X194549509Y-78800000D01*
X194571423Y-79022498D01*
X194636324Y-79236446D01*
X194741717Y-79433622D01*
X194848012Y-79563143D01*
X195001485Y-79716617D01*
X194903554Y-79746324D01*
X194706378Y-79851717D01*
X194533552Y-79993552D01*
X194391717Y-80166378D01*
X194286324Y-80363554D01*
X194221423Y-80577502D01*
X194199509Y-80800000D01*
X194221423Y-81022498D01*
X194286324Y-81236446D01*
X194391717Y-81433622D01*
X194498012Y-81563143D01*
X194621228Y-81686360D01*
X194423554Y-81746324D01*
X194226378Y-81851717D01*
X194053552Y-81993552D01*
X193911717Y-82166378D01*
X193806324Y-82363554D01*
X193741423Y-82577502D01*
X193719509Y-82800000D01*
X184110000Y-82800000D01*
X184110000Y-69860000D01*
X200606928Y-69860000D01*
X200619188Y-69984482D01*
X200655498Y-70104180D01*
X200714463Y-70214494D01*
X200793815Y-70311185D01*
X200890506Y-70390537D01*
X201000820Y-70449502D01*
X201120518Y-70485812D01*
X201245000Y-70498072D01*
X203532643Y-70495483D01*
X203184710Y-70564691D01*
X202523182Y-70838705D01*
X201927823Y-71236511D01*
X201421511Y-71742823D01*
X201023705Y-72338182D01*
X200749691Y-72999710D01*
X200610000Y-73701984D01*
X200610000Y-74418016D01*
X200749691Y-75120290D01*
X201023705Y-75781818D01*
X201421511Y-76377177D01*
X201927823Y-76883489D01*
X202523182Y-77281295D01*
X203184710Y-77555309D01*
X203886984Y-77695000D01*
X204603016Y-77695000D01*
X205305290Y-77555309D01*
X205966818Y-77281295D01*
X206562177Y-76883489D01*
X207068489Y-76377177D01*
X207466295Y-75781818D01*
X207740309Y-75120290D01*
X207880000Y-74418016D01*
X207880000Y-73701984D01*
X207740309Y-72999710D01*
X207466295Y-72338182D01*
X207068489Y-71742823D01*
X206562177Y-71236511D01*
X205966818Y-70838705D01*
X205305290Y-70564691D01*
X204957357Y-70495483D01*
X207245000Y-70498072D01*
X207369482Y-70485812D01*
X207489180Y-70449502D01*
X207599494Y-70390537D01*
X207696185Y-70311185D01*
X207775537Y-70214494D01*
X207834502Y-70104180D01*
X207870812Y-69984482D01*
X207883072Y-69860000D01*
X213106928Y-69860000D01*
X213119188Y-69984482D01*
X213155498Y-70104180D01*
X213214463Y-70214494D01*
X213293815Y-70311185D01*
X213390506Y-70390537D01*
X213500820Y-70449502D01*
X213620518Y-70485812D01*
X213745000Y-70498072D01*
X216032643Y-70495483D01*
X215684710Y-70564691D01*
X215023182Y-70838705D01*
X214427823Y-71236511D01*
X213921511Y-71742823D01*
X213523705Y-72338182D01*
X213249691Y-72999710D01*
X213110000Y-73701984D01*
X213110000Y-74418016D01*
X213249691Y-75120290D01*
X213523705Y-75781818D01*
X213921511Y-76377177D01*
X214427823Y-76883489D01*
X215023182Y-77281295D01*
X215684710Y-77555309D01*
X216386984Y-77695000D01*
X217103016Y-77695000D01*
X217805290Y-77555309D01*
X218466818Y-77281295D01*
X219062177Y-76883489D01*
X219568489Y-76377177D01*
X219966295Y-75781818D01*
X220240309Y-75120290D01*
X220380000Y-74418016D01*
X220380000Y-73701984D01*
X220240309Y-72999710D01*
X219966295Y-72338182D01*
X219568489Y-71742823D01*
X219062177Y-71236511D01*
X218466818Y-70838705D01*
X217805290Y-70564691D01*
X217457357Y-70495483D01*
X219745000Y-70498072D01*
X219869482Y-70485812D01*
X219989180Y-70449502D01*
X220099494Y-70390537D01*
X220196185Y-70311185D01*
X220275537Y-70214494D01*
X220334502Y-70104180D01*
X220370812Y-69984482D01*
X220383072Y-69860000D01*
X225606928Y-69860000D01*
X225619188Y-69984482D01*
X225655498Y-70104180D01*
X225714463Y-70214494D01*
X225793815Y-70311185D01*
X225890506Y-70390537D01*
X226000820Y-70449502D01*
X226120518Y-70485812D01*
X226245000Y-70498072D01*
X228532643Y-70495483D01*
X228184710Y-70564691D01*
X227523182Y-70838705D01*
X226927823Y-71236511D01*
X226421511Y-71742823D01*
X226023705Y-72338182D01*
X225749691Y-72999710D01*
X225610000Y-73701984D01*
X225610000Y-74418016D01*
X225749691Y-75120290D01*
X226023705Y-75781818D01*
X226421511Y-76377177D01*
X226927823Y-76883489D01*
X227523182Y-77281295D01*
X228184710Y-77555309D01*
X228886984Y-77695000D01*
X229603016Y-77695000D01*
X230305290Y-77555309D01*
X230966818Y-77281295D01*
X231562177Y-76883489D01*
X232068489Y-76377177D01*
X232466295Y-75781818D01*
X232740309Y-75120290D01*
X232880000Y-74418016D01*
X232880000Y-73701984D01*
X232740309Y-72999710D01*
X232466295Y-72338182D01*
X232068489Y-71742823D01*
X231562177Y-71236511D01*
X230966818Y-70838705D01*
X230305290Y-70564691D01*
X229957357Y-70495483D01*
X232245000Y-70498072D01*
X232369482Y-70485812D01*
X232489180Y-70449502D01*
X232599494Y-70390537D01*
X232696185Y-70311185D01*
X232775537Y-70214494D01*
X232834502Y-70104180D01*
X232870812Y-69984482D01*
X232883072Y-69860000D01*
X232880000Y-67145750D01*
X232721250Y-66987000D01*
X229372000Y-66987000D01*
X229372000Y-67007000D01*
X229118000Y-67007000D01*
X229118000Y-66987000D01*
X225768750Y-66987000D01*
X225610000Y-67145750D01*
X225606928Y-69860000D01*
X220383072Y-69860000D01*
X220380000Y-67145750D01*
X220221250Y-66987000D01*
X216872000Y-66987000D01*
X216872000Y-67007000D01*
X216618000Y-67007000D01*
X216618000Y-66987000D01*
X213268750Y-66987000D01*
X213110000Y-67145750D01*
X213106928Y-69860000D01*
X207883072Y-69860000D01*
X207880000Y-67145750D01*
X207721250Y-66987000D01*
X204372000Y-66987000D01*
X204372000Y-67007000D01*
X204118000Y-67007000D01*
X204118000Y-66987000D01*
X200768750Y-66987000D01*
X200610000Y-67145750D01*
X200606928Y-69860000D01*
X184110000Y-69860000D01*
X184110000Y-62934721D01*
X184122391Y-62808345D01*
X184154617Y-62647215D01*
X184180302Y-62562144D01*
X184261536Y-62409366D01*
X184370899Y-62275273D01*
X184504220Y-62164981D01*
X184656428Y-62082682D01*
X184695801Y-62070494D01*
X185058763Y-62010000D01*
X187563617Y-62010000D01*
X187671030Y-62042430D01*
G37*
%TD.AperFunction*%
%TD*%
M02*
