%TF.GenerationSoftware,KiCad,Pcbnew,5.1.9-73d0e3b20d~88~ubuntu20.04.1*%
%TF.CreationDate,2021-04-18T23:14:10-05:00*%
%TF.ProjectId,POWER,504f5745-522e-46b6-9963-61645f706362,rev?*%
%TF.SameCoordinates,Original*%
%TF.FileFunction,Legend,Bot*%
%TF.FilePolarity,Positive*%
%FSLAX46Y46*%
G04 Gerber Fmt 4.6, Leading zero omitted, Abs format (unit mm)*
G04 Created by KiCad (PCBNEW 5.1.9-73d0e3b20d~88~ubuntu20.04.1) date 2021-04-18 23:14:10*
%MOMM*%
%LPD*%
G01*
G04 APERTURE LIST*
%ADD10C,0.010000*%
G04 APERTURE END LIST*
D10*
%TO.C,G\u002A\u002A\u002A*%
G36*
X209929753Y-112370721D02*
G01*
X209884272Y-112483554D01*
X209831723Y-112622787D01*
X209782121Y-112761516D01*
X209745483Y-112872833D01*
X209734888Y-112910916D01*
X209718215Y-113003736D01*
X209726264Y-113024406D01*
X209752467Y-112979450D01*
X209790258Y-112875389D01*
X209798820Y-112847416D01*
X209854508Y-112686167D01*
X209921737Y-112523772D01*
X209932229Y-112501402D01*
X209976441Y-112396112D01*
X209993868Y-112326299D01*
X209991209Y-112314430D01*
X209958148Y-112311194D01*
X209929753Y-112370721D01*
G37*
X209929753Y-112370721D02*
X209884272Y-112483554D01*
X209831723Y-112622787D01*
X209782121Y-112761516D01*
X209745483Y-112872833D01*
X209734888Y-112910916D01*
X209718215Y-113003736D01*
X209726264Y-113024406D01*
X209752467Y-112979450D01*
X209790258Y-112875389D01*
X209798820Y-112847416D01*
X209854508Y-112686167D01*
X209921737Y-112523772D01*
X209932229Y-112501402D01*
X209976441Y-112396112D01*
X209993868Y-112326299D01*
X209991209Y-112314430D01*
X209958148Y-112311194D01*
X209929753Y-112370721D01*
G36*
X209678397Y-113139066D02*
G01*
X209652240Y-113206749D01*
X209604239Y-113377169D01*
X209562104Y-113597142D01*
X209530362Y-113833402D01*
X209513543Y-114052684D01*
X209515303Y-114212666D01*
X209532209Y-114403166D01*
X209540247Y-114233833D01*
X209551239Y-114121356D01*
X209574555Y-113951649D01*
X209606420Y-113750605D01*
X209632310Y-113602244D01*
X209674765Y-113362557D01*
X209700365Y-113201095D01*
X209709345Y-113113158D01*
X209701944Y-113094048D01*
X209678397Y-113139066D01*
G37*
X209678397Y-113139066D02*
X209652240Y-113206749D01*
X209604239Y-113377169D01*
X209562104Y-113597142D01*
X209530362Y-113833402D01*
X209513543Y-114052684D01*
X209515303Y-114212666D01*
X209532209Y-114403166D01*
X209540247Y-114233833D01*
X209551239Y-114121356D01*
X209574555Y-113951649D01*
X209606420Y-113750605D01*
X209632310Y-113602244D01*
X209674765Y-113362557D01*
X209700365Y-113201095D01*
X209709345Y-113113158D01*
X209701944Y-113094048D01*
X209678397Y-113139066D01*
G36*
X208203733Y-113862139D02*
G01*
X208197124Y-114021961D01*
X208200632Y-114198845D01*
X208203498Y-114243139D01*
X208210179Y-114292647D01*
X208215527Y-114264984D01*
X208218864Y-114167642D01*
X208219641Y-114064500D01*
X208218230Y-113920807D01*
X208214240Y-113838750D01*
X208208351Y-113826978D01*
X208203733Y-113862139D01*
G37*
X208203733Y-113862139D02*
X208197124Y-114021961D01*
X208200632Y-114198845D01*
X208203498Y-114243139D01*
X208210179Y-114292647D01*
X208215527Y-114264984D01*
X208218864Y-114167642D01*
X208219641Y-114064500D01*
X208218230Y-113920807D01*
X208214240Y-113838750D01*
X208208351Y-113826978D01*
X208203733Y-113862139D01*
G36*
X209462334Y-114445500D02*
G01*
X209483500Y-114466666D01*
X209504667Y-114445500D01*
X209483500Y-114424333D01*
X209462334Y-114445500D01*
G37*
X209462334Y-114445500D02*
X209483500Y-114466666D01*
X209504667Y-114445500D01*
X209483500Y-114424333D01*
X209462334Y-114445500D01*
G36*
X210015867Y-112416322D02*
G01*
X209978278Y-112486494D01*
X209928782Y-112622540D01*
X209872020Y-112807298D01*
X209812632Y-113023607D01*
X209755258Y-113254307D01*
X209704538Y-113482237D01*
X209665112Y-113690235D01*
X209656057Y-113747000D01*
X209633794Y-113935914D01*
X209616019Y-114167495D01*
X209602963Y-114425273D01*
X209594857Y-114692776D01*
X209591930Y-114953535D01*
X209594414Y-115191079D01*
X209602537Y-115388939D01*
X209616531Y-115530644D01*
X209630308Y-115588500D01*
X209656014Y-115633445D01*
X209682850Y-115619422D01*
X209723889Y-115537081D01*
X209733654Y-115514608D01*
X209792642Y-115367631D01*
X209839392Y-115222830D01*
X209875590Y-115067206D01*
X209902923Y-114887757D01*
X209923075Y-114671483D01*
X209937734Y-114405382D01*
X209948585Y-114076455D01*
X209954643Y-113810500D01*
X209962787Y-113459978D01*
X209971934Y-113183881D01*
X209982832Y-112971966D01*
X209996225Y-112813991D01*
X210012859Y-112699713D01*
X210033480Y-112618891D01*
X210043287Y-112592985D01*
X210078806Y-112481704D01*
X210081116Y-112408678D01*
X210052640Y-112389516D01*
X210015867Y-112416322D01*
G37*
X210015867Y-112416322D02*
X209978278Y-112486494D01*
X209928782Y-112622540D01*
X209872020Y-112807298D01*
X209812632Y-113023607D01*
X209755258Y-113254307D01*
X209704538Y-113482237D01*
X209665112Y-113690235D01*
X209656057Y-113747000D01*
X209633794Y-113935914D01*
X209616019Y-114167495D01*
X209602963Y-114425273D01*
X209594857Y-114692776D01*
X209591930Y-114953535D01*
X209594414Y-115191079D01*
X209602537Y-115388939D01*
X209616531Y-115530644D01*
X209630308Y-115588500D01*
X209656014Y-115633445D01*
X209682850Y-115619422D01*
X209723889Y-115537081D01*
X209733654Y-115514608D01*
X209792642Y-115367631D01*
X209839392Y-115222830D01*
X209875590Y-115067206D01*
X209902923Y-114887757D01*
X209923075Y-114671483D01*
X209937734Y-114405382D01*
X209948585Y-114076455D01*
X209954643Y-113810500D01*
X209962787Y-113459978D01*
X209971934Y-113183881D01*
X209982832Y-112971966D01*
X209996225Y-112813991D01*
X210012859Y-112699713D01*
X210033480Y-112618891D01*
X210043287Y-112592985D01*
X210078806Y-112481704D01*
X210081116Y-112408678D01*
X210052640Y-112389516D01*
X210015867Y-112416322D01*
G36*
X208195108Y-114496579D02*
G01*
X208192334Y-114544589D01*
X208202729Y-114644367D01*
X208230258Y-114801421D01*
X208269437Y-114991438D01*
X208314784Y-115190105D01*
X208360814Y-115373109D01*
X208402045Y-115516136D01*
X208426341Y-115582160D01*
X208460844Y-115647262D01*
X208471269Y-115645565D01*
X208468622Y-115630833D01*
X208425942Y-115430721D01*
X208380882Y-115200680D01*
X208339244Y-114972070D01*
X208306830Y-114776255D01*
X208294396Y-114688916D01*
X208270908Y-114567280D01*
X208241126Y-114487036D01*
X208213158Y-114459648D01*
X208195108Y-114496579D01*
G37*
X208195108Y-114496579D02*
X208192334Y-114544589D01*
X208202729Y-114644367D01*
X208230258Y-114801421D01*
X208269437Y-114991438D01*
X208314784Y-115190105D01*
X208360814Y-115373109D01*
X208402045Y-115516136D01*
X208426341Y-115582160D01*
X208460844Y-115647262D01*
X208471269Y-115645565D01*
X208468622Y-115630833D01*
X208425942Y-115430721D01*
X208380882Y-115200680D01*
X208339244Y-114972070D01*
X208306830Y-114776255D01*
X208294396Y-114688916D01*
X208270908Y-114567280D01*
X208241126Y-114487036D01*
X208213158Y-114459648D01*
X208195108Y-114496579D01*
G36*
X208417255Y-112540343D02*
G01*
X208372035Y-112678568D01*
X208334929Y-112891042D01*
X208306775Y-113174355D01*
X208290368Y-113471833D01*
X208282465Y-113837056D01*
X208291084Y-114168548D01*
X208318671Y-114494012D01*
X208367674Y-114841148D01*
X208440540Y-115237658D01*
X208450938Y-115289549D01*
X208493626Y-115497462D01*
X208525605Y-115636230D01*
X208552388Y-115719809D01*
X208579487Y-115762151D01*
X208612412Y-115777213D01*
X208644264Y-115779000D01*
X208678757Y-115766423D01*
X208694847Y-115717193D01*
X208695088Y-115614056D01*
X208686597Y-115493250D01*
X208679179Y-115379069D01*
X208669547Y-115193451D01*
X208658275Y-114949577D01*
X208645939Y-114660629D01*
X208633115Y-114339791D01*
X208620379Y-114000245D01*
X208615857Y-113874000D01*
X208603059Y-113545459D01*
X208589039Y-113243784D01*
X208574464Y-112979476D01*
X208560000Y-112763038D01*
X208546313Y-112604971D01*
X208534070Y-112515777D01*
X208528692Y-112500283D01*
X208469753Y-112479778D01*
X208417255Y-112540343D01*
G37*
X208417255Y-112540343D02*
X208372035Y-112678568D01*
X208334929Y-112891042D01*
X208306775Y-113174355D01*
X208290368Y-113471833D01*
X208282465Y-113837056D01*
X208291084Y-114168548D01*
X208318671Y-114494012D01*
X208367674Y-114841148D01*
X208440540Y-115237658D01*
X208450938Y-115289549D01*
X208493626Y-115497462D01*
X208525605Y-115636230D01*
X208552388Y-115719809D01*
X208579487Y-115762151D01*
X208612412Y-115777213D01*
X208644264Y-115779000D01*
X208678757Y-115766423D01*
X208694847Y-115717193D01*
X208695088Y-115614056D01*
X208686597Y-115493250D01*
X208679179Y-115379069D01*
X208669547Y-115193451D01*
X208658275Y-114949577D01*
X208645939Y-114660629D01*
X208633115Y-114339791D01*
X208620379Y-114000245D01*
X208615857Y-113874000D01*
X208603059Y-113545459D01*
X208589039Y-113243784D01*
X208574464Y-112979476D01*
X208560000Y-112763038D01*
X208546313Y-112604971D01*
X208534070Y-112515777D01*
X208528692Y-112500283D01*
X208469753Y-112479778D01*
X208417255Y-112540343D01*
G36*
X208474662Y-111739854D02*
G01*
X208458815Y-111807218D01*
X208433298Y-111929754D01*
X208402650Y-112083938D01*
X208371407Y-112246247D01*
X208344105Y-112393160D01*
X208325282Y-112501154D01*
X208319334Y-112545176D01*
X208344908Y-112531131D01*
X208406622Y-112474375D01*
X208408536Y-112472464D01*
X208460304Y-112426217D01*
X208502673Y-112405964D01*
X208536999Y-112418680D01*
X208564637Y-112471340D01*
X208586943Y-112570919D01*
X208605271Y-112724390D01*
X208620979Y-112938729D01*
X208635420Y-113220911D01*
X208649950Y-113577910D01*
X208656229Y-113747000D01*
X208669105Y-114088467D01*
X208682510Y-114424271D01*
X208695770Y-114738858D01*
X208708208Y-115016674D01*
X208719147Y-115242167D01*
X208727912Y-115399783D01*
X208728472Y-115408583D01*
X208739652Y-115597966D01*
X208742241Y-115718430D01*
X208734143Y-115785475D01*
X208713264Y-115814598D01*
X208677510Y-115821299D01*
X208672687Y-115821333D01*
X208577254Y-115796581D01*
X208539467Y-115770533D01*
X208499763Y-115747288D01*
X208489300Y-115799197D01*
X208489315Y-115802283D01*
X208508154Y-115908289D01*
X208567477Y-115942523D01*
X208674870Y-115909040D01*
X208682191Y-115905380D01*
X208764655Y-115848105D01*
X208796181Y-115794195D01*
X208795080Y-115788072D01*
X208812383Y-115743003D01*
X208840049Y-115736666D01*
X208859066Y-115732572D01*
X208875020Y-115714600D01*
X208888791Y-115674218D01*
X208901256Y-115602894D01*
X208913293Y-115492093D01*
X208925779Y-115333283D01*
X208939593Y-115117931D01*
X208955613Y-114837505D01*
X208974716Y-114483471D01*
X208980820Y-114368419D01*
X208988975Y-114003925D01*
X208969959Y-113666283D01*
X208920240Y-113324193D01*
X208836286Y-112946352D01*
X208808002Y-112836833D01*
X208750812Y-112613092D01*
X208691337Y-112368531D01*
X208640956Y-112150130D01*
X208633719Y-112117166D01*
X208584844Y-111903587D01*
X208546848Y-111767043D01*
X208516980Y-111701008D01*
X208492489Y-111698956D01*
X208474662Y-111739854D01*
G37*
X208474662Y-111739854D02*
X208458815Y-111807218D01*
X208433298Y-111929754D01*
X208402650Y-112083938D01*
X208371407Y-112246247D01*
X208344105Y-112393160D01*
X208325282Y-112501154D01*
X208319334Y-112545176D01*
X208344908Y-112531131D01*
X208406622Y-112474375D01*
X208408536Y-112472464D01*
X208460304Y-112426217D01*
X208502673Y-112405964D01*
X208536999Y-112418680D01*
X208564637Y-112471340D01*
X208586943Y-112570919D01*
X208605271Y-112724390D01*
X208620979Y-112938729D01*
X208635420Y-113220911D01*
X208649950Y-113577910D01*
X208656229Y-113747000D01*
X208669105Y-114088467D01*
X208682510Y-114424271D01*
X208695770Y-114738858D01*
X208708208Y-115016674D01*
X208719147Y-115242167D01*
X208727912Y-115399783D01*
X208728472Y-115408583D01*
X208739652Y-115597966D01*
X208742241Y-115718430D01*
X208734143Y-115785475D01*
X208713264Y-115814598D01*
X208677510Y-115821299D01*
X208672687Y-115821333D01*
X208577254Y-115796581D01*
X208539467Y-115770533D01*
X208499763Y-115747288D01*
X208489300Y-115799197D01*
X208489315Y-115802283D01*
X208508154Y-115908289D01*
X208567477Y-115942523D01*
X208674870Y-115909040D01*
X208682191Y-115905380D01*
X208764655Y-115848105D01*
X208796181Y-115794195D01*
X208795080Y-115788072D01*
X208812383Y-115743003D01*
X208840049Y-115736666D01*
X208859066Y-115732572D01*
X208875020Y-115714600D01*
X208888791Y-115674218D01*
X208901256Y-115602894D01*
X208913293Y-115492093D01*
X208925779Y-115333283D01*
X208939593Y-115117931D01*
X208955613Y-114837505D01*
X208974716Y-114483471D01*
X208980820Y-114368419D01*
X208988975Y-114003925D01*
X208969959Y-113666283D01*
X208920240Y-113324193D01*
X208836286Y-112946352D01*
X208808002Y-112836833D01*
X208750812Y-112613092D01*
X208691337Y-112368531D01*
X208640956Y-112150130D01*
X208633719Y-112117166D01*
X208584844Y-111903587D01*
X208546848Y-111767043D01*
X208516980Y-111701008D01*
X208492489Y-111698956D01*
X208474662Y-111739854D01*
G36*
X208975252Y-116964544D02*
G01*
X208972701Y-116966656D01*
X208927640Y-117015821D01*
X208951908Y-117057143D01*
X208979769Y-117078522D01*
X209069630Y-117128665D01*
X209109183Y-117111907D01*
X209100094Y-117038416D01*
X209066784Y-116947721D01*
X209032325Y-116927127D01*
X208975252Y-116964544D01*
G37*
X208975252Y-116964544D02*
X208972701Y-116966656D01*
X208927640Y-117015821D01*
X208951908Y-117057143D01*
X208979769Y-117078522D01*
X209069630Y-117128665D01*
X209109183Y-117111907D01*
X209100094Y-117038416D01*
X209066784Y-116947721D01*
X209032325Y-116927127D01*
X208975252Y-116964544D01*
G36*
X210162354Y-111845977D02*
G01*
X210103340Y-111990724D01*
X210038534Y-112129232D01*
X210036975Y-112132258D01*
X209994380Y-112222813D01*
X209998052Y-112268536D01*
X210054457Y-112299326D01*
X210074806Y-112307149D01*
X210152857Y-112344688D01*
X210175567Y-112392027D01*
X210146587Y-112473222D01*
X210110235Y-112540500D01*
X210085717Y-112596555D01*
X210066830Y-112673916D01*
X210052636Y-112784222D01*
X210042198Y-112939114D01*
X210034576Y-113150230D01*
X210028833Y-113429210D01*
X210026643Y-113577666D01*
X210018275Y-113990099D01*
X210004322Y-114332902D01*
X209983103Y-114621021D01*
X209952937Y-114869401D01*
X209912145Y-115092988D01*
X209859046Y-115306730D01*
X209816049Y-115450916D01*
X209746414Y-115645774D01*
X209686910Y-115756804D01*
X209637699Y-115784257D01*
X209598945Y-115728384D01*
X209570808Y-115589434D01*
X209553451Y-115367659D01*
X209547036Y-115063308D01*
X209547000Y-115035373D01*
X209543416Y-114832860D01*
X209533558Y-114670371D01*
X209518772Y-114563947D01*
X209504667Y-114530166D01*
X209488522Y-114561018D01*
X209476148Y-114674542D01*
X209467644Y-114868826D01*
X209463109Y-115141956D01*
X209462334Y-115347984D01*
X209463330Y-115645350D01*
X209466826Y-115868862D01*
X209473581Y-116029315D01*
X209484353Y-116137503D01*
X209499901Y-116204222D01*
X209520986Y-116240266D01*
X209525368Y-116244279D01*
X209566770Y-116304706D01*
X209564074Y-116335956D01*
X209529749Y-116324488D01*
X209462632Y-116257017D01*
X209376948Y-116147953D01*
X209372959Y-116142403D01*
X209268257Y-116011199D01*
X209187284Y-115940403D01*
X209148035Y-115931796D01*
X209080709Y-115927490D01*
X209063177Y-115910869D01*
X209023146Y-115913848D01*
X208949496Y-115961390D01*
X208864150Y-116034156D01*
X208789030Y-116112804D01*
X208746059Y-116177996D01*
X208742667Y-116193620D01*
X208713308Y-116250623D01*
X208671826Y-116292399D01*
X208634421Y-116322464D01*
X208617256Y-116325742D01*
X208621268Y-116288032D01*
X208647389Y-116195129D01*
X208686776Y-116065117D01*
X208702059Y-116001444D01*
X208678974Y-115997086D01*
X208612693Y-116038169D01*
X208524383Y-116139342D01*
X208495505Y-116228301D01*
X208470440Y-116336299D01*
X208437404Y-116403416D01*
X208373760Y-116448525D01*
X208313219Y-116452398D01*
X208286787Y-116416824D01*
X208291482Y-116394989D01*
X208295841Y-116348574D01*
X208261610Y-116354932D01*
X208205868Y-116403042D01*
X208145693Y-116481881D01*
X208138487Y-116493724D01*
X208093275Y-116596656D01*
X208100623Y-116694303D01*
X208118259Y-116746396D01*
X208158150Y-116836358D01*
X208188766Y-116879065D01*
X208191032Y-116879618D01*
X208198880Y-116918590D01*
X208200520Y-117022649D01*
X208195884Y-117172438D01*
X208192334Y-117239500D01*
X208185038Y-117430341D01*
X208190811Y-117546229D01*
X208210346Y-117595970D01*
X208220621Y-117599381D01*
X208307335Y-117609576D01*
X208326455Y-117613938D01*
X208408848Y-117618951D01*
X208499250Y-117611127D01*
X208587377Y-117579580D01*
X208615281Y-117507116D01*
X208615667Y-117491544D01*
X208651861Y-117298499D01*
X208748719Y-117105776D01*
X208888656Y-116946030D01*
X208924675Y-116917685D01*
X209062368Y-116828337D01*
X209147046Y-116800211D01*
X209183625Y-116832787D01*
X209183411Y-116890250D01*
X209172464Y-116986329D01*
X209158906Y-117127733D01*
X209151086Y-117218459D01*
X209131943Y-117451418D01*
X209460436Y-117436500D01*
X209661696Y-117433868D01*
X209804867Y-117449700D01*
X209915118Y-117487076D01*
X209928449Y-117493732D01*
X210067970Y-117565880D01*
X210043635Y-117157989D01*
X210027899Y-116951613D01*
X210005322Y-116802067D01*
X209969163Y-116681515D01*
X209912685Y-116562118D01*
X209888983Y-116519190D01*
X209808938Y-116373604D01*
X209807645Y-116370800D01*
X209439888Y-116370800D01*
X209438855Y-116517269D01*
X209408149Y-116619024D01*
X209372129Y-116665685D01*
X209343777Y-116648719D01*
X209335334Y-116585325D01*
X209312743Y-116458453D01*
X209256084Y-116351273D01*
X209182027Y-116291557D01*
X209156261Y-116287000D01*
X209095538Y-116264248D01*
X209088973Y-116191750D01*
X209126414Y-116115592D01*
X209205961Y-116096500D01*
X209311172Y-116134676D01*
X209393409Y-116233808D01*
X209439888Y-116370800D01*
X209807645Y-116370800D01*
X209769726Y-116288573D01*
X209768294Y-116252249D01*
X209801587Y-116252781D01*
X209822167Y-116259975D01*
X209876099Y-116252692D01*
X209886502Y-116211588D01*
X209900429Y-116140522D01*
X209936920Y-116012787D01*
X209989255Y-115851154D01*
X210014103Y-115779318D01*
X210076923Y-115582664D01*
X210145330Y-115338781D01*
X210209579Y-115083707D01*
X210246101Y-114921394D01*
X210286217Y-114719264D01*
X210314873Y-114538255D01*
X210333887Y-114356400D01*
X210345080Y-114151731D01*
X210350272Y-113902280D01*
X210351327Y-113651076D01*
X210345511Y-113228016D01*
X210328187Y-112881984D01*
X210299526Y-112615951D01*
X210287827Y-112547359D01*
X210255371Y-112343993D01*
X210231474Y-112130645D01*
X210221351Y-111954692D01*
X210218368Y-111693833D01*
X210162354Y-111845977D01*
G37*
X210162354Y-111845977D02*
X210103340Y-111990724D01*
X210038534Y-112129232D01*
X210036975Y-112132258D01*
X209994380Y-112222813D01*
X209998052Y-112268536D01*
X210054457Y-112299326D01*
X210074806Y-112307149D01*
X210152857Y-112344688D01*
X210175567Y-112392027D01*
X210146587Y-112473222D01*
X210110235Y-112540500D01*
X210085717Y-112596555D01*
X210066830Y-112673916D01*
X210052636Y-112784222D01*
X210042198Y-112939114D01*
X210034576Y-113150230D01*
X210028833Y-113429210D01*
X210026643Y-113577666D01*
X210018275Y-113990099D01*
X210004322Y-114332902D01*
X209983103Y-114621021D01*
X209952937Y-114869401D01*
X209912145Y-115092988D01*
X209859046Y-115306730D01*
X209816049Y-115450916D01*
X209746414Y-115645774D01*
X209686910Y-115756804D01*
X209637699Y-115784257D01*
X209598945Y-115728384D01*
X209570808Y-115589434D01*
X209553451Y-115367659D01*
X209547036Y-115063308D01*
X209547000Y-115035373D01*
X209543416Y-114832860D01*
X209533558Y-114670371D01*
X209518772Y-114563947D01*
X209504667Y-114530166D01*
X209488522Y-114561018D01*
X209476148Y-114674542D01*
X209467644Y-114868826D01*
X209463109Y-115141956D01*
X209462334Y-115347984D01*
X209463330Y-115645350D01*
X209466826Y-115868862D01*
X209473581Y-116029315D01*
X209484353Y-116137503D01*
X209499901Y-116204222D01*
X209520986Y-116240266D01*
X209525368Y-116244279D01*
X209566770Y-116304706D01*
X209564074Y-116335956D01*
X209529749Y-116324488D01*
X209462632Y-116257017D01*
X209376948Y-116147953D01*
X209372959Y-116142403D01*
X209268257Y-116011199D01*
X209187284Y-115940403D01*
X209148035Y-115931796D01*
X209080709Y-115927490D01*
X209063177Y-115910869D01*
X209023146Y-115913848D01*
X208949496Y-115961390D01*
X208864150Y-116034156D01*
X208789030Y-116112804D01*
X208746059Y-116177996D01*
X208742667Y-116193620D01*
X208713308Y-116250623D01*
X208671826Y-116292399D01*
X208634421Y-116322464D01*
X208617256Y-116325742D01*
X208621268Y-116288032D01*
X208647389Y-116195129D01*
X208686776Y-116065117D01*
X208702059Y-116001444D01*
X208678974Y-115997086D01*
X208612693Y-116038169D01*
X208524383Y-116139342D01*
X208495505Y-116228301D01*
X208470440Y-116336299D01*
X208437404Y-116403416D01*
X208373760Y-116448525D01*
X208313219Y-116452398D01*
X208286787Y-116416824D01*
X208291482Y-116394989D01*
X208295841Y-116348574D01*
X208261610Y-116354932D01*
X208205868Y-116403042D01*
X208145693Y-116481881D01*
X208138487Y-116493724D01*
X208093275Y-116596656D01*
X208100623Y-116694303D01*
X208118259Y-116746396D01*
X208158150Y-116836358D01*
X208188766Y-116879065D01*
X208191032Y-116879618D01*
X208198880Y-116918590D01*
X208200520Y-117022649D01*
X208195884Y-117172438D01*
X208192334Y-117239500D01*
X208185038Y-117430341D01*
X208190811Y-117546229D01*
X208210346Y-117595970D01*
X208220621Y-117599381D01*
X208307335Y-117609576D01*
X208326455Y-117613938D01*
X208408848Y-117618951D01*
X208499250Y-117611127D01*
X208587377Y-117579580D01*
X208615281Y-117507116D01*
X208615667Y-117491544D01*
X208651861Y-117298499D01*
X208748719Y-117105776D01*
X208888656Y-116946030D01*
X208924675Y-116917685D01*
X209062368Y-116828337D01*
X209147046Y-116800211D01*
X209183625Y-116832787D01*
X209183411Y-116890250D01*
X209172464Y-116986329D01*
X209158906Y-117127733D01*
X209151086Y-117218459D01*
X209131943Y-117451418D01*
X209460436Y-117436500D01*
X209661696Y-117433868D01*
X209804867Y-117449700D01*
X209915118Y-117487076D01*
X209928449Y-117493732D01*
X210067970Y-117565880D01*
X210043635Y-117157989D01*
X210027899Y-116951613D01*
X210005322Y-116802067D01*
X209969163Y-116681515D01*
X209912685Y-116562118D01*
X209888983Y-116519190D01*
X209808938Y-116373604D01*
X209807645Y-116370800D01*
X209439888Y-116370800D01*
X209438855Y-116517269D01*
X209408149Y-116619024D01*
X209372129Y-116665685D01*
X209343777Y-116648719D01*
X209335334Y-116585325D01*
X209312743Y-116458453D01*
X209256084Y-116351273D01*
X209182027Y-116291557D01*
X209156261Y-116287000D01*
X209095538Y-116264248D01*
X209088973Y-116191750D01*
X209126414Y-116115592D01*
X209205961Y-116096500D01*
X209311172Y-116134676D01*
X209393409Y-116233808D01*
X209439888Y-116370800D01*
X209807645Y-116370800D01*
X209769726Y-116288573D01*
X209768294Y-116252249D01*
X209801587Y-116252781D01*
X209822167Y-116259975D01*
X209876099Y-116252692D01*
X209886502Y-116211588D01*
X209900429Y-116140522D01*
X209936920Y-116012787D01*
X209989255Y-115851154D01*
X210014103Y-115779318D01*
X210076923Y-115582664D01*
X210145330Y-115338781D01*
X210209579Y-115083707D01*
X210246101Y-114921394D01*
X210286217Y-114719264D01*
X210314873Y-114538255D01*
X210333887Y-114356400D01*
X210345080Y-114151731D01*
X210350272Y-113902280D01*
X210351327Y-113651076D01*
X210345511Y-113228016D01*
X210328187Y-112881984D01*
X210299526Y-112615951D01*
X210287827Y-112547359D01*
X210255371Y-112343993D01*
X210231474Y-112130645D01*
X210221351Y-111954692D01*
X210218368Y-111693833D01*
X210162354Y-111845977D01*
G36*
X210470530Y-120108313D02*
G01*
X210481098Y-120121497D01*
X210533753Y-120174987D01*
X210566321Y-120165697D01*
X210581193Y-120144146D01*
X210565953Y-120105781D01*
X210517772Y-120083976D01*
X210459412Y-120075892D01*
X210470530Y-120108313D01*
G37*
X210470530Y-120108313D02*
X210481098Y-120121497D01*
X210533753Y-120174987D01*
X210566321Y-120165697D01*
X210581193Y-120144146D01*
X210565953Y-120105781D01*
X210517772Y-120083976D01*
X210459412Y-120075892D01*
X210470530Y-120108313D01*
G36*
X207240047Y-119271500D02*
G01*
X207040703Y-119499085D01*
X206830836Y-119752755D01*
X206621667Y-120017649D01*
X206424419Y-120278909D01*
X206250312Y-120521675D01*
X206110568Y-120731088D01*
X206017199Y-120890750D01*
X205974478Y-120981439D01*
X205973268Y-121020132D01*
X206013047Y-121028332D01*
X206013863Y-121028333D01*
X206104687Y-121008954D01*
X206168226Y-120981776D01*
X206224754Y-120960817D01*
X206229630Y-120976622D01*
X206247726Y-121011636D01*
X206325898Y-121042198D01*
X206338160Y-121044848D01*
X206454916Y-121082600D01*
X206539043Y-121132093D01*
X206568982Y-121149743D01*
X206597604Y-121136482D01*
X206630621Y-121081230D01*
X206673744Y-120972911D01*
X206732685Y-120800447D01*
X206771869Y-120680547D01*
X206858047Y-120438268D01*
X206961686Y-120182072D01*
X207068261Y-119946372D01*
X207143522Y-119799901D01*
X207235581Y-119622241D01*
X207311551Y-119452284D01*
X207360433Y-119315754D01*
X207371472Y-119266695D01*
X207393828Y-119102166D01*
X207240047Y-119271500D01*
G37*
X207240047Y-119271500D02*
X207040703Y-119499085D01*
X206830836Y-119752755D01*
X206621667Y-120017649D01*
X206424419Y-120278909D01*
X206250312Y-120521675D01*
X206110568Y-120731088D01*
X206017199Y-120890750D01*
X205974478Y-120981439D01*
X205973268Y-121020132D01*
X206013047Y-121028332D01*
X206013863Y-121028333D01*
X206104687Y-121008954D01*
X206168226Y-120981776D01*
X206224754Y-120960817D01*
X206229630Y-120976622D01*
X206247726Y-121011636D01*
X206325898Y-121042198D01*
X206338160Y-121044848D01*
X206454916Y-121082600D01*
X206539043Y-121132093D01*
X206568982Y-121149743D01*
X206597604Y-121136482D01*
X206630621Y-121081230D01*
X206673744Y-120972911D01*
X206732685Y-120800447D01*
X206771869Y-120680547D01*
X206858047Y-120438268D01*
X206961686Y-120182072D01*
X207068261Y-119946372D01*
X207143522Y-119799901D01*
X207235581Y-119622241D01*
X207311551Y-119452284D01*
X207360433Y-119315754D01*
X207371472Y-119266695D01*
X207393828Y-119102166D01*
X207240047Y-119271500D01*
G36*
X210634151Y-120202473D02*
G01*
X210601417Y-120234468D01*
X210599330Y-120273869D01*
X210635411Y-120335729D01*
X210717181Y-120435101D01*
X210793511Y-120521470D01*
X210931359Y-120692823D01*
X211075853Y-120899212D01*
X211197960Y-121098891D01*
X211208591Y-121118307D01*
X211291072Y-121265977D01*
X211360087Y-121380117D01*
X211405192Y-121443865D01*
X211415067Y-121451624D01*
X211460905Y-121423165D01*
X211493970Y-121388604D01*
X211544560Y-121274781D01*
X211561555Y-121120195D01*
X211544673Y-120961920D01*
X211498123Y-120843610D01*
X211429906Y-120761181D01*
X211422100Y-120753166D01*
X211240334Y-120753166D01*
X211219167Y-120774333D01*
X211198000Y-120753166D01*
X211219167Y-120732000D01*
X211240334Y-120753166D01*
X211422100Y-120753166D01*
X211315998Y-120644230D01*
X211176250Y-120511014D01*
X211030514Y-120379792D01*
X210898639Y-120268823D01*
X210800476Y-120196366D01*
X210783778Y-120186542D01*
X210685384Y-120175571D01*
X210634151Y-120202473D01*
G37*
X210634151Y-120202473D02*
X210601417Y-120234468D01*
X210599330Y-120273869D01*
X210635411Y-120335729D01*
X210717181Y-120435101D01*
X210793511Y-120521470D01*
X210931359Y-120692823D01*
X211075853Y-120899212D01*
X211197960Y-121098891D01*
X211208591Y-121118307D01*
X211291072Y-121265977D01*
X211360087Y-121380117D01*
X211405192Y-121443865D01*
X211415067Y-121451624D01*
X211460905Y-121423165D01*
X211493970Y-121388604D01*
X211544560Y-121274781D01*
X211561555Y-121120195D01*
X211544673Y-120961920D01*
X211498123Y-120843610D01*
X211429906Y-120761181D01*
X211422100Y-120753166D01*
X211240334Y-120753166D01*
X211219167Y-120774333D01*
X211198000Y-120753166D01*
X211219167Y-120732000D01*
X211240334Y-120753166D01*
X211422100Y-120753166D01*
X211315998Y-120644230D01*
X211176250Y-120511014D01*
X211030514Y-120379792D01*
X210898639Y-120268823D01*
X210800476Y-120196366D01*
X210783778Y-120186542D01*
X210685384Y-120175571D01*
X210634151Y-120202473D01*
G36*
X212222570Y-122730996D02*
G01*
X212180536Y-122760043D01*
X212049314Y-122825207D01*
X211872398Y-122878649D01*
X211688765Y-122908644D01*
X211685796Y-122908884D01*
X211658078Y-122948910D01*
X211625612Y-123050513D01*
X211596267Y-123187333D01*
X211483793Y-123611731D01*
X211300255Y-123993358D01*
X211040632Y-124342419D01*
X211013289Y-124372666D01*
X210837605Y-124549340D01*
X210668483Y-124692542D01*
X210519955Y-124791833D01*
X210406053Y-124836775D01*
X210387297Y-124838333D01*
X210317445Y-124852555D01*
X210323907Y-124892775D01*
X210403699Y-124955326D01*
X210545104Y-125032287D01*
X210751350Y-125106599D01*
X210992905Y-125153386D01*
X211236998Y-125169202D01*
X211450856Y-125150597D01*
X211515500Y-125134381D01*
X211628723Y-125070268D01*
X211723853Y-124971807D01*
X211724534Y-124970786D01*
X211821899Y-124859150D01*
X211936200Y-124768681D01*
X212065834Y-124690166D01*
X211727167Y-124668210D01*
X211536754Y-124660416D01*
X211404144Y-124668496D01*
X211303481Y-124695308D01*
X211248497Y-124721127D01*
X211113085Y-124780303D01*
X211021765Y-124792668D01*
X210986419Y-124756748D01*
X210986334Y-124753666D01*
X211020204Y-124715188D01*
X211044304Y-124711333D01*
X211135483Y-124678205D01*
X211261837Y-124587268D01*
X211411625Y-124451195D01*
X211573107Y-124282656D01*
X211734543Y-124094324D01*
X211884193Y-123898870D01*
X212010317Y-123708966D01*
X212068063Y-123606356D01*
X212121015Y-123487150D01*
X212181543Y-123325887D01*
X212241718Y-123147205D01*
X212293612Y-122975746D01*
X212329296Y-122836148D01*
X212341000Y-122758113D01*
X212333436Y-122696450D01*
X212299554Y-122687344D01*
X212222570Y-122730996D01*
G37*
X212222570Y-122730996D02*
X212180536Y-122760043D01*
X212049314Y-122825207D01*
X211872398Y-122878649D01*
X211688765Y-122908644D01*
X211685796Y-122908884D01*
X211658078Y-122948910D01*
X211625612Y-123050513D01*
X211596267Y-123187333D01*
X211483793Y-123611731D01*
X211300255Y-123993358D01*
X211040632Y-124342419D01*
X211013289Y-124372666D01*
X210837605Y-124549340D01*
X210668483Y-124692542D01*
X210519955Y-124791833D01*
X210406053Y-124836775D01*
X210387297Y-124838333D01*
X210317445Y-124852555D01*
X210323907Y-124892775D01*
X210403699Y-124955326D01*
X210545104Y-125032287D01*
X210751350Y-125106599D01*
X210992905Y-125153386D01*
X211236998Y-125169202D01*
X211450856Y-125150597D01*
X211515500Y-125134381D01*
X211628723Y-125070268D01*
X211723853Y-124971807D01*
X211724534Y-124970786D01*
X211821899Y-124859150D01*
X211936200Y-124768681D01*
X212065834Y-124690166D01*
X211727167Y-124668210D01*
X211536754Y-124660416D01*
X211404144Y-124668496D01*
X211303481Y-124695308D01*
X211248497Y-124721127D01*
X211113085Y-124780303D01*
X211021765Y-124792668D01*
X210986419Y-124756748D01*
X210986334Y-124753666D01*
X211020204Y-124715188D01*
X211044304Y-124711333D01*
X211135483Y-124678205D01*
X211261837Y-124587268D01*
X211411625Y-124451195D01*
X211573107Y-124282656D01*
X211734543Y-124094324D01*
X211884193Y-123898870D01*
X212010317Y-123708966D01*
X212068063Y-123606356D01*
X212121015Y-123487150D01*
X212181543Y-123325887D01*
X212241718Y-123147205D01*
X212293612Y-122975746D01*
X212329296Y-122836148D01*
X212341000Y-122758113D01*
X212333436Y-122696450D01*
X212299554Y-122687344D01*
X212222570Y-122730996D01*
G36*
X207951671Y-116725218D02*
G01*
X207932188Y-116782176D01*
X207916628Y-116893137D01*
X207911646Y-116964979D01*
X207900613Y-117096310D01*
X207883425Y-117193876D01*
X207873701Y-117220166D01*
X207877595Y-117282004D01*
X207923603Y-117357854D01*
X207969415Y-117414997D01*
X207958723Y-117415434D01*
X207929782Y-117394022D01*
X207822466Y-117359587D01*
X207692829Y-117405725D01*
X207590387Y-117484126D01*
X207514317Y-117601031D01*
X207475906Y-117759127D01*
X207480523Y-117921337D01*
X207512970Y-118018872D01*
X207534300Y-118090107D01*
X207504079Y-118118030D01*
X207481648Y-118151476D01*
X207465771Y-118240170D01*
X207455719Y-118392598D01*
X207450758Y-118617244D01*
X207449989Y-118745861D01*
X207448477Y-119356166D01*
X207265951Y-119694833D01*
X207180753Y-119850426D01*
X207107602Y-119979501D01*
X207057800Y-120062301D01*
X207046130Y-120079065D01*
X207009697Y-120149594D01*
X206958115Y-120282545D01*
X206897421Y-120458363D01*
X206833651Y-120657498D01*
X206772839Y-120860396D01*
X206721023Y-121047505D01*
X206684237Y-121199272D01*
X206668518Y-121296145D01*
X206668334Y-121302916D01*
X206658729Y-121401095D01*
X206635099Y-121450329D01*
X206629964Y-121451666D01*
X206607294Y-121418282D01*
X206612037Y-121373489D01*
X206602058Y-121321910D01*
X206446288Y-121321910D01*
X206440497Y-121324666D01*
X206401865Y-121294864D01*
X206393167Y-121282333D01*
X206382380Y-121242756D01*
X206388170Y-121240000D01*
X206426803Y-121269801D01*
X206435500Y-121282333D01*
X206446288Y-121321910D01*
X206602058Y-121321910D01*
X206595337Y-121287178D01*
X206531217Y-121211777D01*
X206315556Y-121211777D01*
X206309745Y-121236944D01*
X206287334Y-121240000D01*
X206252489Y-121224510D01*
X206255441Y-121218833D01*
X206202667Y-121218833D01*
X206181500Y-121240000D01*
X206160334Y-121218833D01*
X206164140Y-121215026D01*
X206085253Y-121215026D01*
X206030814Y-121250721D01*
X206012167Y-121259637D01*
X205902647Y-121306989D01*
X205864599Y-121314962D01*
X205894550Y-121283565D01*
X205925008Y-121259820D01*
X206015785Y-121211386D01*
X206073175Y-121199576D01*
X206085253Y-121215026D01*
X206164140Y-121215026D01*
X206181500Y-121197666D01*
X206202667Y-121218833D01*
X206255441Y-121218833D01*
X206259112Y-121211777D01*
X206309351Y-121206711D01*
X206315556Y-121211777D01*
X206531217Y-121211777D01*
X206518951Y-121197354D01*
X206405272Y-121121283D01*
X206276692Y-121076225D01*
X206219226Y-121070666D01*
X206074773Y-121085997D01*
X205940300Y-121125781D01*
X205831672Y-121180708D01*
X205764753Y-121241465D01*
X205755409Y-121298741D01*
X205782810Y-121326815D01*
X205814502Y-121365381D01*
X205783783Y-121422697D01*
X205767067Y-121441832D01*
X205711839Y-121559861D01*
X205703392Y-121722266D01*
X205734405Y-121910229D01*
X205797556Y-122104933D01*
X205885525Y-122287562D01*
X205990989Y-122439297D01*
X206106628Y-122541323D01*
X206207938Y-122574929D01*
X206328298Y-122599571D01*
X206400684Y-122629324D01*
X206493502Y-122659915D01*
X206549266Y-122657387D01*
X206593527Y-122675851D01*
X206635277Y-122770623D01*
X206656811Y-122851051D01*
X206734999Y-123089661D01*
X206857147Y-123357870D01*
X207007014Y-123625744D01*
X207168360Y-123863348D01*
X207275593Y-123991554D01*
X207382178Y-124105572D01*
X207431926Y-124160595D01*
X207426054Y-124159258D01*
X207365779Y-124104194D01*
X207351070Y-124090444D01*
X206865889Y-124090444D01*
X206860078Y-124115611D01*
X206837667Y-124118666D01*
X206802822Y-124103177D01*
X206809445Y-124090444D01*
X206859685Y-124085377D01*
X206865889Y-124090444D01*
X207351070Y-124090444D01*
X207305781Y-124048111D01*
X207077556Y-124048111D01*
X207071745Y-124073278D01*
X207049334Y-124076333D01*
X207014489Y-124060844D01*
X207021112Y-124048111D01*
X207071351Y-124043044D01*
X207077556Y-124048111D01*
X207305781Y-124048111D01*
X207298644Y-124041440D01*
X207103453Y-123858605D01*
X206948799Y-123923224D01*
X206841922Y-123983325D01*
X206773162Y-124050264D01*
X206766366Y-124063838D01*
X206720131Y-124153609D01*
X206661128Y-124240792D01*
X206603816Y-124347425D01*
X206583667Y-124438803D01*
X206617852Y-124531363D01*
X206700279Y-124626519D01*
X206800758Y-124694977D01*
X206864543Y-124711333D01*
X206917122Y-124735510D01*
X206922334Y-124752579D01*
X206956364Y-124797303D01*
X207040172Y-124854354D01*
X207059412Y-124864711D01*
X207116701Y-124889429D01*
X207186481Y-124906678D01*
X207281818Y-124917043D01*
X207415777Y-124921112D01*
X207601426Y-124919470D01*
X207851829Y-124912705D01*
X208010573Y-124907406D01*
X208397393Y-124890861D01*
X208743918Y-124869787D01*
X209041737Y-124845038D01*
X209282435Y-124817469D01*
X209457600Y-124787934D01*
X209558821Y-124757287D01*
X209572553Y-124748795D01*
X209640390Y-124731274D01*
X209755490Y-124731748D01*
X209805386Y-124737188D01*
X209929190Y-124763482D01*
X210003399Y-124814429D01*
X210063083Y-124915132D01*
X210067769Y-124925003D01*
X210120981Y-125018905D01*
X210188906Y-125082504D01*
X210296797Y-125134235D01*
X210406435Y-125172221D01*
X210575991Y-125222908D01*
X210741717Y-125265290D01*
X210838167Y-125284943D01*
X211258081Y-125387597D01*
X211642747Y-125550359D01*
X211853051Y-125644079D01*
X212068288Y-125717368D01*
X212258349Y-125760830D01*
X212342164Y-125768631D01*
X212424800Y-125746324D01*
X212498147Y-125705704D01*
X212574140Y-125615574D01*
X212607057Y-125525787D01*
X212624648Y-125409833D01*
X212630991Y-125526250D01*
X212664773Y-125616872D01*
X212749276Y-125643426D01*
X212879259Y-125605376D01*
X212962715Y-125560107D01*
X213108871Y-125436635D01*
X213143835Y-125367500D01*
X212595000Y-125367500D01*
X212573834Y-125388666D01*
X212552667Y-125367500D01*
X212573834Y-125346333D01*
X212595000Y-125367500D01*
X213143835Y-125367500D01*
X213175950Y-125304000D01*
X212544623Y-125304000D01*
X212503794Y-125276179D01*
X212446834Y-125219333D01*
X212397945Y-125158008D01*
X212391378Y-125134666D01*
X212432207Y-125162486D01*
X212489167Y-125219333D01*
X212538056Y-125280658D01*
X212544623Y-125304000D01*
X213175950Y-125304000D01*
X213178712Y-125298539D01*
X213171099Y-125157839D01*
X213148010Y-125122674D01*
X212336708Y-125122674D01*
X212294289Y-125113791D01*
X212286258Y-125110778D01*
X212234419Y-125077242D01*
X212234047Y-125058175D01*
X212278830Y-125062924D01*
X212309956Y-125087080D01*
X212336708Y-125122674D01*
X213148010Y-125122674D01*
X213084896Y-125026553D01*
X213018334Y-124972493D01*
X212936112Y-124913030D01*
X212922356Y-124891705D01*
X212973327Y-124902440D01*
X212975669Y-124903149D01*
X213047511Y-124920889D01*
X213049860Y-124899917D01*
X213021672Y-124863755D01*
X212766926Y-124863755D01*
X212708390Y-124870435D01*
X212679667Y-124870845D01*
X212602649Y-124866431D01*
X212593573Y-124855442D01*
X212602673Y-124852444D01*
X212453889Y-124852444D01*
X212448078Y-124877611D01*
X212425667Y-124880666D01*
X212390822Y-124865177D01*
X212397445Y-124852444D01*
X212447685Y-124847377D01*
X212453889Y-124852444D01*
X212602673Y-124852444D01*
X212605584Y-124851485D01*
X212712951Y-124844901D01*
X212753750Y-124851485D01*
X212766926Y-124863755D01*
X213021672Y-124863755D01*
X213018002Y-124859048D01*
X212881096Y-124756400D01*
X212665188Y-124683070D01*
X212444286Y-124646573D01*
X212191377Y-124617960D01*
X211887475Y-124899327D01*
X211736814Y-125034555D01*
X211623459Y-125122013D01*
X211525748Y-125174688D01*
X211422021Y-125205567D01*
X211356606Y-125217634D01*
X211044459Y-125227145D01*
X210720980Y-125160377D01*
X210400787Y-125021644D01*
X210160834Y-124864811D01*
X210102675Y-124818084D01*
X210113438Y-124810474D01*
X210165919Y-124822771D01*
X210280230Y-124814023D01*
X210432218Y-124749569D01*
X210527665Y-124690166D01*
X209462334Y-124690166D01*
X209441167Y-124711333D01*
X209422378Y-124692544D01*
X209326553Y-124692544D01*
X209275670Y-124699559D01*
X209229500Y-124700657D01*
X209142375Y-124697250D01*
X209119888Y-124687656D01*
X209133757Y-124682246D01*
X209235418Y-124674361D01*
X209303090Y-124681392D01*
X209326553Y-124692544D01*
X209422378Y-124692544D01*
X209420000Y-124690166D01*
X209441167Y-124669000D01*
X209462334Y-124690166D01*
X210527665Y-124690166D01*
X210581896Y-124656414D01*
X208970235Y-124656414D01*
X208912000Y-124662315D01*
X208851903Y-124655663D01*
X208859084Y-124640963D01*
X208945755Y-124635372D01*
X208964917Y-124640963D01*
X208970235Y-124656414D01*
X210581896Y-124656414D01*
X210607504Y-124640477D01*
X210638405Y-124616545D01*
X208681973Y-124616545D01*
X208640362Y-124623324D01*
X208585455Y-124615541D01*
X208584799Y-124601090D01*
X208641458Y-124590984D01*
X208665938Y-124597748D01*
X208681973Y-124616545D01*
X210638405Y-124616545D01*
X210693067Y-124574212D01*
X208512640Y-124574212D01*
X208471028Y-124580991D01*
X208416121Y-124573207D01*
X208415466Y-124558756D01*
X208472124Y-124548651D01*
X208496605Y-124555414D01*
X208512640Y-124574212D01*
X210693067Y-124574212D01*
X210761992Y-124520833D01*
X208319334Y-124520833D01*
X208298167Y-124542000D01*
X208277000Y-124520833D01*
X206922334Y-124520833D01*
X206901167Y-124542000D01*
X206880000Y-124520833D01*
X206901167Y-124499666D01*
X206922334Y-124520833D01*
X208277000Y-124520833D01*
X208298167Y-124499666D01*
X208319334Y-124520833D01*
X210761992Y-124520833D01*
X210791712Y-124497817D01*
X210820254Y-124471444D01*
X208178223Y-124471444D01*
X208172412Y-124496611D01*
X208150000Y-124499666D01*
X208115155Y-124484177D01*
X208121778Y-124471444D01*
X208172018Y-124466377D01*
X208178223Y-124471444D01*
X210820254Y-124471444D01*
X210866069Y-124429111D01*
X208008889Y-124429111D01*
X208003078Y-124454278D01*
X207980667Y-124457333D01*
X207945822Y-124441844D01*
X207952445Y-124429111D01*
X208002685Y-124424044D01*
X208008889Y-124429111D01*
X210866069Y-124429111D01*
X210911886Y-124386777D01*
X207839556Y-124386777D01*
X207833745Y-124411944D01*
X207811334Y-124415000D01*
X207776489Y-124399510D01*
X207783112Y-124386777D01*
X207802707Y-124384801D01*
X207000177Y-124384801D01*
X206989876Y-124408459D01*
X206947251Y-124453905D01*
X206922746Y-124444583D01*
X206922334Y-124438665D01*
X206952402Y-124402858D01*
X206971208Y-124389790D01*
X207000177Y-124384801D01*
X207802707Y-124384801D01*
X207833351Y-124381711D01*
X207839556Y-124386777D01*
X210911886Y-124386777D01*
X210950065Y-124351500D01*
X207726667Y-124351500D01*
X207705500Y-124372666D01*
X207684334Y-124351500D01*
X207705500Y-124330333D01*
X207726667Y-124351500D01*
X210950065Y-124351500D01*
X210970461Y-124332655D01*
X210975030Y-124327577D01*
X207631621Y-124327577D01*
X207625831Y-124330333D01*
X207598392Y-124309166D01*
X207134000Y-124309166D01*
X207112834Y-124330333D01*
X207091667Y-124309166D01*
X207112834Y-124288000D01*
X207134000Y-124309166D01*
X207598392Y-124309166D01*
X207587198Y-124300531D01*
X207578500Y-124288000D01*
X207572731Y-124266833D01*
X207218667Y-124266833D01*
X207197500Y-124288000D01*
X207176334Y-124266833D01*
X207197500Y-124245666D01*
X207218667Y-124266833D01*
X207572731Y-124266833D01*
X207567713Y-124248422D01*
X207573504Y-124245666D01*
X207612136Y-124275468D01*
X207620834Y-124288000D01*
X207631621Y-124327577D01*
X210975030Y-124327577D01*
X211129376Y-124156061D01*
X211247394Y-123990233D01*
X211338833Y-123812270D01*
X211423518Y-123598470D01*
X211494698Y-123372334D01*
X211545624Y-123157361D01*
X211569543Y-122977053D01*
X211566078Y-122880854D01*
X211561495Y-122845910D01*
X211314621Y-122845910D01*
X211308831Y-122848666D01*
X211270198Y-122818864D01*
X211261500Y-122806333D01*
X211250713Y-122766756D01*
X211256504Y-122764000D01*
X211295136Y-122793801D01*
X211303834Y-122806333D01*
X211314621Y-122845910D01*
X211561495Y-122845910D01*
X211555940Y-122803562D01*
X211561209Y-122789354D01*
X211564226Y-122795750D01*
X211622835Y-122839858D01*
X211726006Y-122844454D01*
X211844916Y-122812248D01*
X211932911Y-122761095D01*
X212004987Y-122709370D01*
X212026024Y-122712267D01*
X212017115Y-122744207D01*
X212019414Y-122785056D01*
X212070011Y-122776142D01*
X212155597Y-122725776D01*
X212242447Y-122658166D01*
X211663667Y-122658166D01*
X211642500Y-122679333D01*
X211621334Y-122658166D01*
X211642500Y-122637000D01*
X211663667Y-122658166D01*
X212242447Y-122658166D01*
X212262863Y-122642273D01*
X212291086Y-122615833D01*
X211282667Y-122615833D01*
X211261500Y-122637000D01*
X211240334Y-122615833D01*
X211261500Y-122594666D01*
X211282667Y-122615833D01*
X212291086Y-122615833D01*
X212336275Y-122573500D01*
X206753000Y-122573500D01*
X206731834Y-122594666D01*
X206710667Y-122573500D01*
X206731834Y-122552333D01*
X206753000Y-122573500D01*
X212336275Y-122573500D01*
X212378499Y-122533946D01*
X212381139Y-122531166D01*
X206837667Y-122531166D01*
X206816500Y-122552333D01*
X206815586Y-122551418D01*
X206663845Y-122551418D01*
X206661926Y-122552333D01*
X206621662Y-122524631D01*
X206603575Y-122507243D01*
X206234621Y-122507243D01*
X206228831Y-122510000D01*
X206190198Y-122480198D01*
X206181500Y-122467666D01*
X206170713Y-122428089D01*
X206176504Y-122425333D01*
X206215136Y-122455135D01*
X206223834Y-122467666D01*
X206234621Y-122507243D01*
X206603575Y-122507243D01*
X206551204Y-122456897D01*
X206541334Y-122446500D01*
X206480934Y-122376548D01*
X206472611Y-122361833D01*
X206160334Y-122361833D01*
X206139167Y-122383000D01*
X206118000Y-122361833D01*
X206139167Y-122340666D01*
X206160334Y-122361833D01*
X206472611Y-122361833D01*
X206461156Y-122341581D01*
X206463075Y-122340666D01*
X206503339Y-122368368D01*
X206573797Y-122436102D01*
X206583667Y-122446500D01*
X206644067Y-122516451D01*
X206663845Y-122551418D01*
X206815586Y-122551418D01*
X206795334Y-122531166D01*
X206816500Y-122510000D01*
X206837667Y-122531166D01*
X212381139Y-122531166D01*
X212414615Y-122495920D01*
X212419861Y-122488833D01*
X211748334Y-122488833D01*
X211727167Y-122510000D01*
X211706000Y-122488833D01*
X211367334Y-122488833D01*
X211346167Y-122510000D01*
X211325000Y-122488833D01*
X211346167Y-122467666D01*
X211367334Y-122488833D01*
X211706000Y-122488833D01*
X211727167Y-122467666D01*
X211748334Y-122488833D01*
X212419861Y-122488833D01*
X212451202Y-122446500D01*
X211875334Y-122446500D01*
X211854167Y-122467666D01*
X211833000Y-122446500D01*
X211854167Y-122425333D01*
X211875334Y-122446500D01*
X212451202Y-122446500D01*
X212571086Y-122284570D01*
X211448864Y-122284570D01*
X211425604Y-122360196D01*
X211394228Y-122408950D01*
X211379390Y-122409167D01*
X211381735Y-122361822D01*
X211404499Y-122312091D01*
X211416928Y-122295577D01*
X206446288Y-122295577D01*
X206440497Y-122298333D01*
X206401865Y-122268531D01*
X206393167Y-122256000D01*
X206382380Y-122216422D01*
X206388170Y-122213666D01*
X206426803Y-122243468D01*
X206435500Y-122256000D01*
X206446288Y-122295577D01*
X211416928Y-122295577D01*
X211441931Y-122262358D01*
X211448864Y-122284570D01*
X212571086Y-122284570D01*
X212571484Y-122284033D01*
X212589124Y-122234833D01*
X206795334Y-122234833D01*
X206774167Y-122256000D01*
X206753000Y-122234833D01*
X206774167Y-122213666D01*
X206795334Y-122234833D01*
X212589124Y-122234833D01*
X212648517Y-122069180D01*
X212649115Y-121965591D01*
X211504033Y-121965591D01*
X211500960Y-122023166D01*
X211488570Y-122136749D01*
X211474659Y-122204904D01*
X211468904Y-122213666D01*
X211458819Y-122175793D01*
X211458538Y-122171333D01*
X206033334Y-122171333D01*
X206017845Y-122206178D01*
X206005112Y-122199555D01*
X206000045Y-122149315D01*
X206005112Y-122143111D01*
X206030279Y-122148922D01*
X206033334Y-122171333D01*
X211458538Y-122171333D01*
X211452773Y-122079979D01*
X211452000Y-122023166D01*
X211456746Y-121938500D01*
X206710667Y-121938500D01*
X206689500Y-121959666D01*
X206668334Y-121938500D01*
X206689500Y-121917333D01*
X206710667Y-121938500D01*
X211456746Y-121938500D01*
X211458370Y-121909532D01*
X211473211Y-121846777D01*
X211353223Y-121846777D01*
X211347412Y-121871944D01*
X211325000Y-121875000D01*
X211290155Y-121859510D01*
X211296778Y-121846777D01*
X206865889Y-121846777D01*
X206860078Y-121871944D01*
X206837667Y-121875000D01*
X206802822Y-121859510D01*
X206809445Y-121846777D01*
X206859685Y-121841711D01*
X206865889Y-121846777D01*
X211296778Y-121846777D01*
X211347018Y-121841711D01*
X211353223Y-121846777D01*
X211473211Y-121846777D01*
X211474486Y-121841388D01*
X211484056Y-121832666D01*
X211500134Y-121870305D01*
X211504033Y-121965591D01*
X212649115Y-121965591D01*
X212649856Y-121837611D01*
X212645042Y-121811500D01*
X211240334Y-121811500D01*
X211219167Y-121832666D01*
X211198000Y-121811500D01*
X211219167Y-121790333D01*
X211240334Y-121811500D01*
X212645042Y-121811500D01*
X212635827Y-121761527D01*
X212635400Y-121760134D01*
X207042510Y-121760134D01*
X207032210Y-121783792D01*
X206989584Y-121829239D01*
X206965079Y-121819916D01*
X206964667Y-121813998D01*
X206972690Y-121804444D01*
X206696556Y-121804444D01*
X206690745Y-121829611D01*
X206668334Y-121832666D01*
X206633489Y-121817177D01*
X206640112Y-121804444D01*
X206690351Y-121799377D01*
X206696556Y-121804444D01*
X206972690Y-121804444D01*
X206994736Y-121778192D01*
X207007724Y-121769166D01*
X205906334Y-121769166D01*
X205885167Y-121790333D01*
X205864000Y-121769166D01*
X205885167Y-121748000D01*
X205906334Y-121769166D01*
X207007724Y-121769166D01*
X207013541Y-121765124D01*
X207042510Y-121760134D01*
X212635400Y-121760134D01*
X212605657Y-121663333D01*
X212418983Y-121663333D01*
X212412330Y-121723431D01*
X212397631Y-121716250D01*
X212395355Y-121680972D01*
X211152325Y-121680972D01*
X211144542Y-121735879D01*
X211130091Y-121736534D01*
X211120810Y-121684500D01*
X207091667Y-121684500D01*
X207070500Y-121705666D01*
X207049334Y-121684500D01*
X207070500Y-121663333D01*
X207091667Y-121684500D01*
X211120810Y-121684500D01*
X211119985Y-121679876D01*
X211126749Y-121655395D01*
X211145546Y-121639360D01*
X211152325Y-121680972D01*
X212395355Y-121680972D01*
X212392039Y-121629578D01*
X212397631Y-121610416D01*
X212413082Y-121605098D01*
X212418983Y-121663333D01*
X212605657Y-121663333D01*
X212573140Y-121557500D01*
X211198000Y-121557500D01*
X211176834Y-121578666D01*
X211155667Y-121557500D01*
X206202667Y-121557500D01*
X206181500Y-121578666D01*
X206160334Y-121557500D01*
X206181500Y-121536333D01*
X206202667Y-121557500D01*
X211155667Y-121557500D01*
X211176834Y-121536333D01*
X211198000Y-121557500D01*
X212573140Y-121557500D01*
X212571555Y-121552343D01*
X212495911Y-121430500D01*
X212383334Y-121430500D01*
X212362167Y-121451666D01*
X212341000Y-121430500D01*
X212362167Y-121409333D01*
X212383334Y-121430500D01*
X212495911Y-121430500D01*
X212478754Y-121402866D01*
X212342122Y-121289177D01*
X212328117Y-121280470D01*
X212300416Y-121261166D01*
X212002334Y-121261166D01*
X211981167Y-121282333D01*
X211960000Y-121261166D01*
X211748334Y-121261166D01*
X211727167Y-121282333D01*
X211706000Y-121261166D01*
X211727167Y-121240000D01*
X211748334Y-121261166D01*
X211960000Y-121261166D01*
X211981167Y-121240000D01*
X212002334Y-121261166D01*
X212300416Y-121261166D01*
X212253558Y-121228513D01*
X212246643Y-121218833D01*
X211833000Y-121218833D01*
X211811834Y-121240000D01*
X211790667Y-121218833D01*
X211811834Y-121197666D01*
X211833000Y-121218833D01*
X212246643Y-121218833D01*
X212233048Y-121199805D01*
X212240041Y-121197824D01*
X212303866Y-121221967D01*
X212392484Y-121280453D01*
X212394885Y-121282333D01*
X212489199Y-121349508D01*
X212536812Y-121358800D01*
X212552173Y-121310883D01*
X212552667Y-121289712D01*
X212516057Y-121185852D01*
X212134453Y-121185852D01*
X212123535Y-121204871D01*
X212046413Y-121204981D01*
X212012879Y-121201014D01*
X211916925Y-121186236D01*
X211899833Y-121176408D01*
X211956405Y-121166333D01*
X211975741Y-121163877D01*
X212076032Y-121164587D01*
X212134453Y-121185852D01*
X212516057Y-121185852D01*
X212513832Y-121179540D01*
X212410760Y-121084337D01*
X212263597Y-121012177D01*
X212092492Y-120971136D01*
X211917592Y-120969289D01*
X211811834Y-120992789D01*
X211703338Y-121037357D01*
X211654008Y-121090153D01*
X211640507Y-121178418D01*
X211640179Y-121193142D01*
X211606463Y-121335287D01*
X211521402Y-121436162D01*
X211433855Y-121497329D01*
X211353934Y-121531971D01*
X211302555Y-121534559D01*
X211301490Y-121515166D01*
X206033334Y-121515166D01*
X206012167Y-121536333D01*
X205991000Y-121515166D01*
X206012167Y-121494000D01*
X206033334Y-121515166D01*
X211301490Y-121515166D01*
X211300633Y-121499565D01*
X211304080Y-121493600D01*
X211302552Y-121472833D01*
X207091667Y-121472833D01*
X207070500Y-121494000D01*
X207049334Y-121472833D01*
X207070500Y-121451666D01*
X207091667Y-121472833D01*
X211302552Y-121472833D01*
X211299452Y-121430720D01*
X211252199Y-121316160D01*
X211171496Y-121165211D01*
X211066517Y-120993168D01*
X210946438Y-120815321D01*
X210820431Y-120646964D01*
X210734048Y-120543441D01*
X210576604Y-120341885D01*
X210414708Y-120094562D01*
X210259412Y-119822527D01*
X210121769Y-119546832D01*
X210012829Y-119288532D01*
X209995819Y-119234472D01*
X208452208Y-119234472D01*
X208395980Y-119241801D01*
X208382834Y-119242080D01*
X208310536Y-119237504D01*
X208304171Y-119224252D01*
X208307945Y-119222565D01*
X208391984Y-119214190D01*
X208434945Y-119220996D01*
X208452208Y-119234472D01*
X209995819Y-119234472D01*
X209980828Y-119186833D01*
X208615667Y-119186833D01*
X208594500Y-119208000D01*
X208591744Y-119205243D01*
X208224288Y-119205243D01*
X208218497Y-119208000D01*
X208179865Y-119178198D01*
X208171167Y-119165666D01*
X208160380Y-119126089D01*
X208166170Y-119123333D01*
X208204803Y-119153135D01*
X208213500Y-119165666D01*
X208224288Y-119205243D01*
X208591744Y-119205243D01*
X208573334Y-119186833D01*
X208594500Y-119165666D01*
X208615667Y-119186833D01*
X209980828Y-119186833D01*
X209967506Y-119144500D01*
X208700334Y-119144500D01*
X208679167Y-119165666D01*
X208658000Y-119144500D01*
X208679167Y-119123333D01*
X208700334Y-119144500D01*
X209967506Y-119144500D01*
X209954184Y-119102166D01*
X208785000Y-119102166D01*
X208763834Y-119123333D01*
X208742667Y-119102166D01*
X208107667Y-119102166D01*
X208086500Y-119123333D01*
X208065334Y-119102166D01*
X208086500Y-119081000D01*
X208107667Y-119102166D01*
X208742667Y-119102166D01*
X208763834Y-119081000D01*
X208785000Y-119102166D01*
X209954184Y-119102166D01*
X209943646Y-119068681D01*
X209936839Y-119035910D01*
X208054955Y-119035910D01*
X208049164Y-119038666D01*
X208010531Y-119008864D01*
X208001834Y-118996333D01*
X207991046Y-118956756D01*
X207996837Y-118954000D01*
X208035470Y-118983801D01*
X208044167Y-118996333D01*
X208054955Y-119035910D01*
X209936839Y-119035910D01*
X209933014Y-119017500D01*
X209915129Y-118883644D01*
X209913067Y-118856748D01*
X208589235Y-118856748D01*
X208531000Y-118862649D01*
X208470903Y-118855996D01*
X208478084Y-118841296D01*
X208564755Y-118835705D01*
X208583917Y-118841296D01*
X208589235Y-118856748D01*
X209913067Y-118856748D01*
X209909162Y-118805833D01*
X208742667Y-118805833D01*
X208721500Y-118827000D01*
X208700334Y-118805833D01*
X208404000Y-118805833D01*
X208382834Y-118827000D01*
X208361667Y-118805833D01*
X208382834Y-118784666D01*
X208404000Y-118805833D01*
X208700334Y-118805833D01*
X208721500Y-118784666D01*
X208742667Y-118805833D01*
X209909162Y-118805833D01*
X209905915Y-118763500D01*
X208827334Y-118763500D01*
X208806167Y-118784666D01*
X208785000Y-118763500D01*
X208806167Y-118742333D01*
X208827334Y-118763500D01*
X209905915Y-118763500D01*
X209903431Y-118731126D01*
X209899989Y-118636500D01*
X208234667Y-118636500D01*
X208213500Y-118657666D01*
X208192334Y-118636500D01*
X208213500Y-118615333D01*
X208234667Y-118636500D01*
X209899989Y-118636500D01*
X209897810Y-118576596D01*
X209898153Y-118436707D01*
X209898830Y-118424833D01*
X209843334Y-118424833D01*
X209822167Y-118446000D01*
X209801000Y-118424833D01*
X209822167Y-118403666D01*
X209843334Y-118424833D01*
X209898830Y-118424833D01*
X209902091Y-118367676D01*
X208896761Y-118367676D01*
X208893761Y-118386432D01*
X208871483Y-118433603D01*
X208805585Y-118525774D01*
X208752731Y-118569899D01*
X208675539Y-118608471D01*
X208660411Y-118602378D01*
X208692821Y-118573197D01*
X208596971Y-118573197D01*
X208540758Y-118556433D01*
X208486820Y-118529677D01*
X208400212Y-118469366D01*
X208303371Y-118383846D01*
X208301027Y-118381511D01*
X208235818Y-118311878D01*
X208228961Y-118282678D01*
X208276820Y-118276668D01*
X208278925Y-118276666D01*
X208346602Y-118303897D01*
X208361667Y-118340788D01*
X208395022Y-118402867D01*
X208477423Y-118474677D01*
X208499250Y-118488797D01*
X208583905Y-118548118D01*
X208596971Y-118573197D01*
X208692821Y-118573197D01*
X208713799Y-118554310D01*
X208714335Y-118553904D01*
X208807038Y-118470064D01*
X208854253Y-118417667D01*
X208896761Y-118367676D01*
X209902091Y-118367676D01*
X209904349Y-118328111D01*
X209916289Y-118267461D01*
X209933861Y-118271408D01*
X209937922Y-118281091D01*
X209980376Y-118337391D01*
X210015806Y-118338226D01*
X210029671Y-118350757D01*
X210005617Y-118417834D01*
X209994997Y-118439238D01*
X209947809Y-118566747D01*
X209929508Y-118687314D01*
X209948699Y-118857920D01*
X209995967Y-119066286D01*
X210061162Y-119274625D01*
X210131873Y-119440833D01*
X210203924Y-119587197D01*
X210280896Y-119755004D01*
X210306838Y-119814775D01*
X210365946Y-119929926D01*
X210420356Y-119995057D01*
X210445113Y-120002240D01*
X210513290Y-120005968D01*
X210625172Y-120035392D01*
X210678051Y-120053993D01*
X210808796Y-120121924D01*
X210968516Y-120231735D01*
X211140218Y-120368394D01*
X211306906Y-120516869D01*
X211451585Y-120662127D01*
X211557259Y-120789136D01*
X211604302Y-120873272D01*
X211629247Y-120916700D01*
X211681707Y-120935063D01*
X211783607Y-120932547D01*
X211868774Y-120923769D01*
X212106468Y-120919461D01*
X212288084Y-120960535D01*
X212381799Y-120991037D01*
X212444111Y-121000114D01*
X212472982Y-120980236D01*
X212466368Y-120923873D01*
X212422230Y-120823498D01*
X212338526Y-120671579D01*
X212213216Y-120460588D01*
X212103724Y-120280393D01*
X211962100Y-120092907D01*
X211751840Y-119877820D01*
X211481456Y-119642411D01*
X211159460Y-119393961D01*
X210794364Y-119139748D01*
X210690000Y-119071389D01*
X210435958Y-118890190D01*
X210262850Y-118727130D01*
X210169241Y-118580763D01*
X210154831Y-118532403D01*
X210128743Y-118442781D01*
X210101202Y-118403725D01*
X210100319Y-118403666D01*
X210081307Y-118365915D01*
X210067529Y-118270989D01*
X210064723Y-118223750D01*
X210062536Y-118117539D01*
X210070180Y-118087141D01*
X210092216Y-118123867D01*
X210103609Y-118149666D01*
X210143146Y-118213212D01*
X210169796Y-118200766D01*
X210172827Y-118082851D01*
X210140462Y-118001500D01*
X209208334Y-118001500D01*
X209187167Y-118022666D01*
X209081334Y-118022666D01*
X209049377Y-118055126D01*
X209028417Y-118054416D01*
X208986564Y-118083785D01*
X208962576Y-118176841D01*
X208942448Y-118269041D01*
X208898802Y-118294286D01*
X208874952Y-118290314D01*
X208790781Y-118304074D01*
X208739710Y-118343815D01*
X208692349Y-118393572D01*
X208672114Y-118375917D01*
X208664723Y-118342831D01*
X208621775Y-118287555D01*
X208576450Y-118288117D01*
X208523371Y-118285428D01*
X208521499Y-118260683D01*
X208150000Y-118260683D01*
X208129408Y-118273354D01*
X208073131Y-118218973D01*
X208059934Y-118202583D01*
X208036753Y-118170833D01*
X207599667Y-118170833D01*
X207578500Y-118192000D01*
X207557334Y-118170833D01*
X207578500Y-118149666D01*
X207599667Y-118170833D01*
X208036753Y-118170833D01*
X208023322Y-118152439D01*
X208045244Y-118162951D01*
X208075917Y-118186600D01*
X208134547Y-118238822D01*
X208150000Y-118260683D01*
X208521499Y-118260683D01*
X208518727Y-118224054D01*
X208520998Y-118211289D01*
X208512762Y-118126710D01*
X208461105Y-118094987D01*
X208422436Y-118079487D01*
X208463991Y-118070815D01*
X208488667Y-118069262D01*
X208589004Y-118050916D01*
X208649022Y-118022666D01*
X208340500Y-118022666D01*
X208337144Y-118061676D01*
X208321832Y-118065000D01*
X208282242Y-118036777D01*
X208220556Y-118036777D01*
X208214745Y-118061944D01*
X208192334Y-118065000D01*
X208157489Y-118049510D01*
X208164112Y-118036777D01*
X208204087Y-118032746D01*
X208065334Y-118032746D01*
X208057954Y-118064684D01*
X208054299Y-118061472D01*
X208021819Y-118019636D01*
X207963072Y-117948583D01*
X207916722Y-117885545D01*
X207835306Y-117885545D01*
X207793695Y-117892324D01*
X207738788Y-117884541D01*
X207738132Y-117870090D01*
X207794791Y-117859984D01*
X207819271Y-117866748D01*
X207835306Y-117885545D01*
X207916722Y-117885545D01*
X207914012Y-117881860D01*
X207907166Y-117853347D01*
X207907582Y-117853333D01*
X207961956Y-117884196D01*
X208024725Y-117952069D01*
X208063292Y-118019882D01*
X208065334Y-118032746D01*
X208204087Y-118032746D01*
X208214351Y-118031711D01*
X208220556Y-118036777D01*
X208282242Y-118036777D01*
X208278723Y-118034269D01*
X208277000Y-118022666D01*
X208291444Y-117981433D01*
X208295669Y-117980333D01*
X208331812Y-118009997D01*
X208340500Y-118022666D01*
X208649022Y-118022666D01*
X208663573Y-118015817D01*
X208692163Y-117977091D01*
X208668584Y-117952416D01*
X208618546Y-117905971D01*
X208628869Y-117887032D01*
X208266567Y-117887032D01*
X208252982Y-117883781D01*
X208210168Y-117843757D01*
X208166235Y-117789833D01*
X207938334Y-117789833D01*
X207917167Y-117811000D01*
X207896000Y-117789833D01*
X207917167Y-117768666D01*
X207938334Y-117789833D01*
X208166235Y-117789833D01*
X208159709Y-117781824D01*
X208154123Y-117750433D01*
X208187617Y-117766230D01*
X208230417Y-117823508D01*
X208266567Y-117887032D01*
X208628869Y-117887032D01*
X208646463Y-117854757D01*
X208678659Y-117838219D01*
X208730680Y-117832310D01*
X208737146Y-117844273D01*
X208741267Y-117928702D01*
X208797011Y-117969943D01*
X208912000Y-117980333D01*
X209018037Y-117989722D01*
X209077016Y-118013177D01*
X209081334Y-118022666D01*
X209187167Y-118022666D01*
X209166000Y-118001500D01*
X209187167Y-117980333D01*
X209208334Y-118001500D01*
X210140462Y-118001500D01*
X210114648Y-117936618D01*
X210071254Y-117874500D01*
X208827334Y-117874500D01*
X208806167Y-117895666D01*
X208785000Y-117874500D01*
X208806167Y-117853333D01*
X208827334Y-117874500D01*
X210071254Y-117874500D01*
X210036752Y-117825111D01*
X209151889Y-117825111D01*
X209146078Y-117850278D01*
X209123667Y-117853333D01*
X209088822Y-117837844D01*
X209095445Y-117825111D01*
X209145685Y-117820044D01*
X209151889Y-117825111D01*
X210036752Y-117825111D01*
X210024720Y-117807889D01*
X210009919Y-117789833D01*
X208827334Y-117789833D01*
X208806167Y-117811000D01*
X208785000Y-117789833D01*
X208806167Y-117768666D01*
X208827334Y-117789833D01*
X210009919Y-117789833D01*
X209956398Y-117724546D01*
X209942016Y-117696134D01*
X208947510Y-117696134D01*
X208937210Y-117719792D01*
X208894584Y-117765239D01*
X208870079Y-117755916D01*
X208869667Y-117749998D01*
X208899736Y-117714192D01*
X208918541Y-117701124D01*
X208947510Y-117696134D01*
X209942016Y-117696134D01*
X209941291Y-117694702D01*
X209977334Y-117707726D01*
X210008439Y-117724070D01*
X210079855Y-117751368D01*
X210096285Y-117733549D01*
X210064469Y-117683450D01*
X209991142Y-117613909D01*
X209987855Y-117611467D01*
X209074510Y-117611467D01*
X209064210Y-117635125D01*
X209021584Y-117680572D01*
X208997079Y-117671249D01*
X208996667Y-117665331D01*
X209026736Y-117629525D01*
X209045541Y-117616457D01*
X209074510Y-117611467D01*
X208778177Y-117611467D01*
X208767876Y-117635125D01*
X208725251Y-117680572D01*
X208700746Y-117671249D01*
X208700334Y-117665331D01*
X208730402Y-117629525D01*
X208749208Y-117616457D01*
X208778177Y-117611467D01*
X209074510Y-117611467D01*
X209987855Y-117611467D01*
X209943024Y-117578166D01*
X208869667Y-117578166D01*
X208848500Y-117599333D01*
X208827334Y-117578166D01*
X208848500Y-117557000D01*
X208869667Y-117578166D01*
X209943024Y-117578166D01*
X209924737Y-117564583D01*
X209829580Y-117509682D01*
X209732667Y-117483267D01*
X209601804Y-117479175D01*
X209504667Y-117484142D01*
X209344085Y-117498676D01*
X209204841Y-117518446D01*
X209129431Y-117535673D01*
X209058894Y-117552027D01*
X209051621Y-117528777D01*
X208982556Y-117528777D01*
X208976745Y-117553944D01*
X208954334Y-117557000D01*
X208919489Y-117541510D01*
X208926112Y-117528777D01*
X208976351Y-117523711D01*
X208982556Y-117528777D01*
X209051621Y-117528777D01*
X209048209Y-117517870D01*
X209062678Y-117467947D01*
X209096219Y-117317356D01*
X209083820Y-117218696D01*
X209049584Y-117187340D01*
X209007865Y-117206876D01*
X208996667Y-117273122D01*
X208969357Y-117377938D01*
X208926317Y-117435399D01*
X208883761Y-117463487D01*
X208868315Y-117442192D01*
X208874385Y-117356817D01*
X208879954Y-117313591D01*
X208886953Y-117198336D01*
X208875998Y-117122873D01*
X208867498Y-117111159D01*
X208818647Y-117123364D01*
X208762360Y-117196735D01*
X208710353Y-117309967D01*
X208674340Y-117441753D01*
X208669781Y-117470720D01*
X208647264Y-117581920D01*
X208608918Y-117631272D01*
X208546593Y-117641666D01*
X208468381Y-117662754D01*
X208446334Y-117699983D01*
X208415481Y-117770613D01*
X208372250Y-117814358D01*
X208323288Y-117848982D01*
X208334765Y-117829666D01*
X208351084Y-117811075D01*
X208399688Y-117734923D01*
X208379953Y-117705166D01*
X207980667Y-117705166D01*
X207959500Y-117726333D01*
X207938334Y-117705166D01*
X207642000Y-117705166D01*
X207620834Y-117726333D01*
X207599667Y-117705166D01*
X207620834Y-117684000D01*
X207642000Y-117705166D01*
X207938334Y-117705166D01*
X207959500Y-117684000D01*
X207980667Y-117705166D01*
X208379953Y-117705166D01*
X208372827Y-117694423D01*
X208284983Y-117684000D01*
X208273567Y-117681243D01*
X207885621Y-117681243D01*
X207879831Y-117684000D01*
X207841198Y-117654198D01*
X207832500Y-117641666D01*
X207821713Y-117602089D01*
X207827504Y-117599333D01*
X207866136Y-117629135D01*
X207874834Y-117641666D01*
X207885621Y-117681243D01*
X208273567Y-117681243D01*
X208165248Y-117655084D01*
X208073316Y-117597684D01*
X208054872Y-117578166D01*
X207769000Y-117578166D01*
X207747834Y-117599333D01*
X207726667Y-117578166D01*
X207747834Y-117557000D01*
X207769000Y-117578166D01*
X208054872Y-117578166D01*
X208014868Y-117535833D01*
X207684334Y-117535833D01*
X207663167Y-117557000D01*
X207642000Y-117535833D01*
X207663167Y-117514666D01*
X207684334Y-117535833D01*
X208014868Y-117535833D01*
X207995177Y-117514997D01*
X207987741Y-117478281D01*
X208012417Y-117477346D01*
X208085007Y-117473775D01*
X208085080Y-117431693D01*
X208076355Y-117419416D01*
X208035890Y-117340332D01*
X208005981Y-117246562D01*
X207996239Y-117156293D01*
X208033991Y-117113795D01*
X208063167Y-117104165D01*
X208121233Y-117067732D01*
X208118846Y-117033603D01*
X208118472Y-117032601D01*
X208008449Y-117032601D01*
X208001834Y-117049000D01*
X207963793Y-117089385D01*
X207957002Y-117091333D01*
X207938819Y-117058580D01*
X207938334Y-117049000D01*
X207970878Y-117008293D01*
X207983166Y-117006666D01*
X208008449Y-117032601D01*
X208118472Y-117032601D01*
X208089862Y-116956054D01*
X208074376Y-116879666D01*
X208044647Y-116774606D01*
X207998295Y-116717698D01*
X207951671Y-116725218D01*
G37*
X207951671Y-116725218D02*
X207932188Y-116782176D01*
X207916628Y-116893137D01*
X207911646Y-116964979D01*
X207900613Y-117096310D01*
X207883425Y-117193876D01*
X207873701Y-117220166D01*
X207877595Y-117282004D01*
X207923603Y-117357854D01*
X207969415Y-117414997D01*
X207958723Y-117415434D01*
X207929782Y-117394022D01*
X207822466Y-117359587D01*
X207692829Y-117405725D01*
X207590387Y-117484126D01*
X207514317Y-117601031D01*
X207475906Y-117759127D01*
X207480523Y-117921337D01*
X207512970Y-118018872D01*
X207534300Y-118090107D01*
X207504079Y-118118030D01*
X207481648Y-118151476D01*
X207465771Y-118240170D01*
X207455719Y-118392598D01*
X207450758Y-118617244D01*
X207449989Y-118745861D01*
X207448477Y-119356166D01*
X207265951Y-119694833D01*
X207180753Y-119850426D01*
X207107602Y-119979501D01*
X207057800Y-120062301D01*
X207046130Y-120079065D01*
X207009697Y-120149594D01*
X206958115Y-120282545D01*
X206897421Y-120458363D01*
X206833651Y-120657498D01*
X206772839Y-120860396D01*
X206721023Y-121047505D01*
X206684237Y-121199272D01*
X206668518Y-121296145D01*
X206668334Y-121302916D01*
X206658729Y-121401095D01*
X206635099Y-121450329D01*
X206629964Y-121451666D01*
X206607294Y-121418282D01*
X206612037Y-121373489D01*
X206602058Y-121321910D01*
X206446288Y-121321910D01*
X206440497Y-121324666D01*
X206401865Y-121294864D01*
X206393167Y-121282333D01*
X206382380Y-121242756D01*
X206388170Y-121240000D01*
X206426803Y-121269801D01*
X206435500Y-121282333D01*
X206446288Y-121321910D01*
X206602058Y-121321910D01*
X206595337Y-121287178D01*
X206531217Y-121211777D01*
X206315556Y-121211777D01*
X206309745Y-121236944D01*
X206287334Y-121240000D01*
X206252489Y-121224510D01*
X206255441Y-121218833D01*
X206202667Y-121218833D01*
X206181500Y-121240000D01*
X206160334Y-121218833D01*
X206164140Y-121215026D01*
X206085253Y-121215026D01*
X206030814Y-121250721D01*
X206012167Y-121259637D01*
X205902647Y-121306989D01*
X205864599Y-121314962D01*
X205894550Y-121283565D01*
X205925008Y-121259820D01*
X206015785Y-121211386D01*
X206073175Y-121199576D01*
X206085253Y-121215026D01*
X206164140Y-121215026D01*
X206181500Y-121197666D01*
X206202667Y-121218833D01*
X206255441Y-121218833D01*
X206259112Y-121211777D01*
X206309351Y-121206711D01*
X206315556Y-121211777D01*
X206531217Y-121211777D01*
X206518951Y-121197354D01*
X206405272Y-121121283D01*
X206276692Y-121076225D01*
X206219226Y-121070666D01*
X206074773Y-121085997D01*
X205940300Y-121125781D01*
X205831672Y-121180708D01*
X205764753Y-121241465D01*
X205755409Y-121298741D01*
X205782810Y-121326815D01*
X205814502Y-121365381D01*
X205783783Y-121422697D01*
X205767067Y-121441832D01*
X205711839Y-121559861D01*
X205703392Y-121722266D01*
X205734405Y-121910229D01*
X205797556Y-122104933D01*
X205885525Y-122287562D01*
X205990989Y-122439297D01*
X206106628Y-122541323D01*
X206207938Y-122574929D01*
X206328298Y-122599571D01*
X206400684Y-122629324D01*
X206493502Y-122659915D01*
X206549266Y-122657387D01*
X206593527Y-122675851D01*
X206635277Y-122770623D01*
X206656811Y-122851051D01*
X206734999Y-123089661D01*
X206857147Y-123357870D01*
X207007014Y-123625744D01*
X207168360Y-123863348D01*
X207275593Y-123991554D01*
X207382178Y-124105572D01*
X207431926Y-124160595D01*
X207426054Y-124159258D01*
X207365779Y-124104194D01*
X207351070Y-124090444D01*
X206865889Y-124090444D01*
X206860078Y-124115611D01*
X206837667Y-124118666D01*
X206802822Y-124103177D01*
X206809445Y-124090444D01*
X206859685Y-124085377D01*
X206865889Y-124090444D01*
X207351070Y-124090444D01*
X207305781Y-124048111D01*
X207077556Y-124048111D01*
X207071745Y-124073278D01*
X207049334Y-124076333D01*
X207014489Y-124060844D01*
X207021112Y-124048111D01*
X207071351Y-124043044D01*
X207077556Y-124048111D01*
X207305781Y-124048111D01*
X207298644Y-124041440D01*
X207103453Y-123858605D01*
X206948799Y-123923224D01*
X206841922Y-123983325D01*
X206773162Y-124050264D01*
X206766366Y-124063838D01*
X206720131Y-124153609D01*
X206661128Y-124240792D01*
X206603816Y-124347425D01*
X206583667Y-124438803D01*
X206617852Y-124531363D01*
X206700279Y-124626519D01*
X206800758Y-124694977D01*
X206864543Y-124711333D01*
X206917122Y-124735510D01*
X206922334Y-124752579D01*
X206956364Y-124797303D01*
X207040172Y-124854354D01*
X207059412Y-124864711D01*
X207116701Y-124889429D01*
X207186481Y-124906678D01*
X207281818Y-124917043D01*
X207415777Y-124921112D01*
X207601426Y-124919470D01*
X207851829Y-124912705D01*
X208010573Y-124907406D01*
X208397393Y-124890861D01*
X208743918Y-124869787D01*
X209041737Y-124845038D01*
X209282435Y-124817469D01*
X209457600Y-124787934D01*
X209558821Y-124757287D01*
X209572553Y-124748795D01*
X209640390Y-124731274D01*
X209755490Y-124731748D01*
X209805386Y-124737188D01*
X209929190Y-124763482D01*
X210003399Y-124814429D01*
X210063083Y-124915132D01*
X210067769Y-124925003D01*
X210120981Y-125018905D01*
X210188906Y-125082504D01*
X210296797Y-125134235D01*
X210406435Y-125172221D01*
X210575991Y-125222908D01*
X210741717Y-125265290D01*
X210838167Y-125284943D01*
X211258081Y-125387597D01*
X211642747Y-125550359D01*
X211853051Y-125644079D01*
X212068288Y-125717368D01*
X212258349Y-125760830D01*
X212342164Y-125768631D01*
X212424800Y-125746324D01*
X212498147Y-125705704D01*
X212574140Y-125615574D01*
X212607057Y-125525787D01*
X212624648Y-125409833D01*
X212630991Y-125526250D01*
X212664773Y-125616872D01*
X212749276Y-125643426D01*
X212879259Y-125605376D01*
X212962715Y-125560107D01*
X213108871Y-125436635D01*
X213143835Y-125367500D01*
X212595000Y-125367500D01*
X212573834Y-125388666D01*
X212552667Y-125367500D01*
X212573834Y-125346333D01*
X212595000Y-125367500D01*
X213143835Y-125367500D01*
X213175950Y-125304000D01*
X212544623Y-125304000D01*
X212503794Y-125276179D01*
X212446834Y-125219333D01*
X212397945Y-125158008D01*
X212391378Y-125134666D01*
X212432207Y-125162486D01*
X212489167Y-125219333D01*
X212538056Y-125280658D01*
X212544623Y-125304000D01*
X213175950Y-125304000D01*
X213178712Y-125298539D01*
X213171099Y-125157839D01*
X213148010Y-125122674D01*
X212336708Y-125122674D01*
X212294289Y-125113791D01*
X212286258Y-125110778D01*
X212234419Y-125077242D01*
X212234047Y-125058175D01*
X212278830Y-125062924D01*
X212309956Y-125087080D01*
X212336708Y-125122674D01*
X213148010Y-125122674D01*
X213084896Y-125026553D01*
X213018334Y-124972493D01*
X212936112Y-124913030D01*
X212922356Y-124891705D01*
X212973327Y-124902440D01*
X212975669Y-124903149D01*
X213047511Y-124920889D01*
X213049860Y-124899917D01*
X213021672Y-124863755D01*
X212766926Y-124863755D01*
X212708390Y-124870435D01*
X212679667Y-124870845D01*
X212602649Y-124866431D01*
X212593573Y-124855442D01*
X212602673Y-124852444D01*
X212453889Y-124852444D01*
X212448078Y-124877611D01*
X212425667Y-124880666D01*
X212390822Y-124865177D01*
X212397445Y-124852444D01*
X212447685Y-124847377D01*
X212453889Y-124852444D01*
X212602673Y-124852444D01*
X212605584Y-124851485D01*
X212712951Y-124844901D01*
X212753750Y-124851485D01*
X212766926Y-124863755D01*
X213021672Y-124863755D01*
X213018002Y-124859048D01*
X212881096Y-124756400D01*
X212665188Y-124683070D01*
X212444286Y-124646573D01*
X212191377Y-124617960D01*
X211887475Y-124899327D01*
X211736814Y-125034555D01*
X211623459Y-125122013D01*
X211525748Y-125174688D01*
X211422021Y-125205567D01*
X211356606Y-125217634D01*
X211044459Y-125227145D01*
X210720980Y-125160377D01*
X210400787Y-125021644D01*
X210160834Y-124864811D01*
X210102675Y-124818084D01*
X210113438Y-124810474D01*
X210165919Y-124822771D01*
X210280230Y-124814023D01*
X210432218Y-124749569D01*
X210527665Y-124690166D01*
X209462334Y-124690166D01*
X209441167Y-124711333D01*
X209422378Y-124692544D01*
X209326553Y-124692544D01*
X209275670Y-124699559D01*
X209229500Y-124700657D01*
X209142375Y-124697250D01*
X209119888Y-124687656D01*
X209133757Y-124682246D01*
X209235418Y-124674361D01*
X209303090Y-124681392D01*
X209326553Y-124692544D01*
X209422378Y-124692544D01*
X209420000Y-124690166D01*
X209441167Y-124669000D01*
X209462334Y-124690166D01*
X210527665Y-124690166D01*
X210581896Y-124656414D01*
X208970235Y-124656414D01*
X208912000Y-124662315D01*
X208851903Y-124655663D01*
X208859084Y-124640963D01*
X208945755Y-124635372D01*
X208964917Y-124640963D01*
X208970235Y-124656414D01*
X210581896Y-124656414D01*
X210607504Y-124640477D01*
X210638405Y-124616545D01*
X208681973Y-124616545D01*
X208640362Y-124623324D01*
X208585455Y-124615541D01*
X208584799Y-124601090D01*
X208641458Y-124590984D01*
X208665938Y-124597748D01*
X208681973Y-124616545D01*
X210638405Y-124616545D01*
X210693067Y-124574212D01*
X208512640Y-124574212D01*
X208471028Y-124580991D01*
X208416121Y-124573207D01*
X208415466Y-124558756D01*
X208472124Y-124548651D01*
X208496605Y-124555414D01*
X208512640Y-124574212D01*
X210693067Y-124574212D01*
X210761992Y-124520833D01*
X208319334Y-124520833D01*
X208298167Y-124542000D01*
X208277000Y-124520833D01*
X206922334Y-124520833D01*
X206901167Y-124542000D01*
X206880000Y-124520833D01*
X206901167Y-124499666D01*
X206922334Y-124520833D01*
X208277000Y-124520833D01*
X208298167Y-124499666D01*
X208319334Y-124520833D01*
X210761992Y-124520833D01*
X210791712Y-124497817D01*
X210820254Y-124471444D01*
X208178223Y-124471444D01*
X208172412Y-124496611D01*
X208150000Y-124499666D01*
X208115155Y-124484177D01*
X208121778Y-124471444D01*
X208172018Y-124466377D01*
X208178223Y-124471444D01*
X210820254Y-124471444D01*
X210866069Y-124429111D01*
X208008889Y-124429111D01*
X208003078Y-124454278D01*
X207980667Y-124457333D01*
X207945822Y-124441844D01*
X207952445Y-124429111D01*
X208002685Y-124424044D01*
X208008889Y-124429111D01*
X210866069Y-124429111D01*
X210911886Y-124386777D01*
X207839556Y-124386777D01*
X207833745Y-124411944D01*
X207811334Y-124415000D01*
X207776489Y-124399510D01*
X207783112Y-124386777D01*
X207802707Y-124384801D01*
X207000177Y-124384801D01*
X206989876Y-124408459D01*
X206947251Y-124453905D01*
X206922746Y-124444583D01*
X206922334Y-124438665D01*
X206952402Y-124402858D01*
X206971208Y-124389790D01*
X207000177Y-124384801D01*
X207802707Y-124384801D01*
X207833351Y-124381711D01*
X207839556Y-124386777D01*
X210911886Y-124386777D01*
X210950065Y-124351500D01*
X207726667Y-124351500D01*
X207705500Y-124372666D01*
X207684334Y-124351500D01*
X207705500Y-124330333D01*
X207726667Y-124351500D01*
X210950065Y-124351500D01*
X210970461Y-124332655D01*
X210975030Y-124327577D01*
X207631621Y-124327577D01*
X207625831Y-124330333D01*
X207598392Y-124309166D01*
X207134000Y-124309166D01*
X207112834Y-124330333D01*
X207091667Y-124309166D01*
X207112834Y-124288000D01*
X207134000Y-124309166D01*
X207598392Y-124309166D01*
X207587198Y-124300531D01*
X207578500Y-124288000D01*
X207572731Y-124266833D01*
X207218667Y-124266833D01*
X207197500Y-124288000D01*
X207176334Y-124266833D01*
X207197500Y-124245666D01*
X207218667Y-124266833D01*
X207572731Y-124266833D01*
X207567713Y-124248422D01*
X207573504Y-124245666D01*
X207612136Y-124275468D01*
X207620834Y-124288000D01*
X207631621Y-124327577D01*
X210975030Y-124327577D01*
X211129376Y-124156061D01*
X211247394Y-123990233D01*
X211338833Y-123812270D01*
X211423518Y-123598470D01*
X211494698Y-123372334D01*
X211545624Y-123157361D01*
X211569543Y-122977053D01*
X211566078Y-122880854D01*
X211561495Y-122845910D01*
X211314621Y-122845910D01*
X211308831Y-122848666D01*
X211270198Y-122818864D01*
X211261500Y-122806333D01*
X211250713Y-122766756D01*
X211256504Y-122764000D01*
X211295136Y-122793801D01*
X211303834Y-122806333D01*
X211314621Y-122845910D01*
X211561495Y-122845910D01*
X211555940Y-122803562D01*
X211561209Y-122789354D01*
X211564226Y-122795750D01*
X211622835Y-122839858D01*
X211726006Y-122844454D01*
X211844916Y-122812248D01*
X211932911Y-122761095D01*
X212004987Y-122709370D01*
X212026024Y-122712267D01*
X212017115Y-122744207D01*
X212019414Y-122785056D01*
X212070011Y-122776142D01*
X212155597Y-122725776D01*
X212242447Y-122658166D01*
X211663667Y-122658166D01*
X211642500Y-122679333D01*
X211621334Y-122658166D01*
X211642500Y-122637000D01*
X211663667Y-122658166D01*
X212242447Y-122658166D01*
X212262863Y-122642273D01*
X212291086Y-122615833D01*
X211282667Y-122615833D01*
X211261500Y-122637000D01*
X211240334Y-122615833D01*
X211261500Y-122594666D01*
X211282667Y-122615833D01*
X212291086Y-122615833D01*
X212336275Y-122573500D01*
X206753000Y-122573500D01*
X206731834Y-122594666D01*
X206710667Y-122573500D01*
X206731834Y-122552333D01*
X206753000Y-122573500D01*
X212336275Y-122573500D01*
X212378499Y-122533946D01*
X212381139Y-122531166D01*
X206837667Y-122531166D01*
X206816500Y-122552333D01*
X206815586Y-122551418D01*
X206663845Y-122551418D01*
X206661926Y-122552333D01*
X206621662Y-122524631D01*
X206603575Y-122507243D01*
X206234621Y-122507243D01*
X206228831Y-122510000D01*
X206190198Y-122480198D01*
X206181500Y-122467666D01*
X206170713Y-122428089D01*
X206176504Y-122425333D01*
X206215136Y-122455135D01*
X206223834Y-122467666D01*
X206234621Y-122507243D01*
X206603575Y-122507243D01*
X206551204Y-122456897D01*
X206541334Y-122446500D01*
X206480934Y-122376548D01*
X206472611Y-122361833D01*
X206160334Y-122361833D01*
X206139167Y-122383000D01*
X206118000Y-122361833D01*
X206139167Y-122340666D01*
X206160334Y-122361833D01*
X206472611Y-122361833D01*
X206461156Y-122341581D01*
X206463075Y-122340666D01*
X206503339Y-122368368D01*
X206573797Y-122436102D01*
X206583667Y-122446500D01*
X206644067Y-122516451D01*
X206663845Y-122551418D01*
X206815586Y-122551418D01*
X206795334Y-122531166D01*
X206816500Y-122510000D01*
X206837667Y-122531166D01*
X212381139Y-122531166D01*
X212414615Y-122495920D01*
X212419861Y-122488833D01*
X211748334Y-122488833D01*
X211727167Y-122510000D01*
X211706000Y-122488833D01*
X211367334Y-122488833D01*
X211346167Y-122510000D01*
X211325000Y-122488833D01*
X211346167Y-122467666D01*
X211367334Y-122488833D01*
X211706000Y-122488833D01*
X211727167Y-122467666D01*
X211748334Y-122488833D01*
X212419861Y-122488833D01*
X212451202Y-122446500D01*
X211875334Y-122446500D01*
X211854167Y-122467666D01*
X211833000Y-122446500D01*
X211854167Y-122425333D01*
X211875334Y-122446500D01*
X212451202Y-122446500D01*
X212571086Y-122284570D01*
X211448864Y-122284570D01*
X211425604Y-122360196D01*
X211394228Y-122408950D01*
X211379390Y-122409167D01*
X211381735Y-122361822D01*
X211404499Y-122312091D01*
X211416928Y-122295577D01*
X206446288Y-122295577D01*
X206440497Y-122298333D01*
X206401865Y-122268531D01*
X206393167Y-122256000D01*
X206382380Y-122216422D01*
X206388170Y-122213666D01*
X206426803Y-122243468D01*
X206435500Y-122256000D01*
X206446288Y-122295577D01*
X211416928Y-122295577D01*
X211441931Y-122262358D01*
X211448864Y-122284570D01*
X212571086Y-122284570D01*
X212571484Y-122284033D01*
X212589124Y-122234833D01*
X206795334Y-122234833D01*
X206774167Y-122256000D01*
X206753000Y-122234833D01*
X206774167Y-122213666D01*
X206795334Y-122234833D01*
X212589124Y-122234833D01*
X212648517Y-122069180D01*
X212649115Y-121965591D01*
X211504033Y-121965591D01*
X211500960Y-122023166D01*
X211488570Y-122136749D01*
X211474659Y-122204904D01*
X211468904Y-122213666D01*
X211458819Y-122175793D01*
X211458538Y-122171333D01*
X206033334Y-122171333D01*
X206017845Y-122206178D01*
X206005112Y-122199555D01*
X206000045Y-122149315D01*
X206005112Y-122143111D01*
X206030279Y-122148922D01*
X206033334Y-122171333D01*
X211458538Y-122171333D01*
X211452773Y-122079979D01*
X211452000Y-122023166D01*
X211456746Y-121938500D01*
X206710667Y-121938500D01*
X206689500Y-121959666D01*
X206668334Y-121938500D01*
X206689500Y-121917333D01*
X206710667Y-121938500D01*
X211456746Y-121938500D01*
X211458370Y-121909532D01*
X211473211Y-121846777D01*
X211353223Y-121846777D01*
X211347412Y-121871944D01*
X211325000Y-121875000D01*
X211290155Y-121859510D01*
X211296778Y-121846777D01*
X206865889Y-121846777D01*
X206860078Y-121871944D01*
X206837667Y-121875000D01*
X206802822Y-121859510D01*
X206809445Y-121846777D01*
X206859685Y-121841711D01*
X206865889Y-121846777D01*
X211296778Y-121846777D01*
X211347018Y-121841711D01*
X211353223Y-121846777D01*
X211473211Y-121846777D01*
X211474486Y-121841388D01*
X211484056Y-121832666D01*
X211500134Y-121870305D01*
X211504033Y-121965591D01*
X212649115Y-121965591D01*
X212649856Y-121837611D01*
X212645042Y-121811500D01*
X211240334Y-121811500D01*
X211219167Y-121832666D01*
X211198000Y-121811500D01*
X211219167Y-121790333D01*
X211240334Y-121811500D01*
X212645042Y-121811500D01*
X212635827Y-121761527D01*
X212635400Y-121760134D01*
X207042510Y-121760134D01*
X207032210Y-121783792D01*
X206989584Y-121829239D01*
X206965079Y-121819916D01*
X206964667Y-121813998D01*
X206972690Y-121804444D01*
X206696556Y-121804444D01*
X206690745Y-121829611D01*
X206668334Y-121832666D01*
X206633489Y-121817177D01*
X206640112Y-121804444D01*
X206690351Y-121799377D01*
X206696556Y-121804444D01*
X206972690Y-121804444D01*
X206994736Y-121778192D01*
X207007724Y-121769166D01*
X205906334Y-121769166D01*
X205885167Y-121790333D01*
X205864000Y-121769166D01*
X205885167Y-121748000D01*
X205906334Y-121769166D01*
X207007724Y-121769166D01*
X207013541Y-121765124D01*
X207042510Y-121760134D01*
X212635400Y-121760134D01*
X212605657Y-121663333D01*
X212418983Y-121663333D01*
X212412330Y-121723431D01*
X212397631Y-121716250D01*
X212395355Y-121680972D01*
X211152325Y-121680972D01*
X211144542Y-121735879D01*
X211130091Y-121736534D01*
X211120810Y-121684500D01*
X207091667Y-121684500D01*
X207070500Y-121705666D01*
X207049334Y-121684500D01*
X207070500Y-121663333D01*
X207091667Y-121684500D01*
X211120810Y-121684500D01*
X211119985Y-121679876D01*
X211126749Y-121655395D01*
X211145546Y-121639360D01*
X211152325Y-121680972D01*
X212395355Y-121680972D01*
X212392039Y-121629578D01*
X212397631Y-121610416D01*
X212413082Y-121605098D01*
X212418983Y-121663333D01*
X212605657Y-121663333D01*
X212573140Y-121557500D01*
X211198000Y-121557500D01*
X211176834Y-121578666D01*
X211155667Y-121557500D01*
X206202667Y-121557500D01*
X206181500Y-121578666D01*
X206160334Y-121557500D01*
X206181500Y-121536333D01*
X206202667Y-121557500D01*
X211155667Y-121557500D01*
X211176834Y-121536333D01*
X211198000Y-121557500D01*
X212573140Y-121557500D01*
X212571555Y-121552343D01*
X212495911Y-121430500D01*
X212383334Y-121430500D01*
X212362167Y-121451666D01*
X212341000Y-121430500D01*
X212362167Y-121409333D01*
X212383334Y-121430500D01*
X212495911Y-121430500D01*
X212478754Y-121402866D01*
X212342122Y-121289177D01*
X212328117Y-121280470D01*
X212300416Y-121261166D01*
X212002334Y-121261166D01*
X211981167Y-121282333D01*
X211960000Y-121261166D01*
X211748334Y-121261166D01*
X211727167Y-121282333D01*
X211706000Y-121261166D01*
X211727167Y-121240000D01*
X211748334Y-121261166D01*
X211960000Y-121261166D01*
X211981167Y-121240000D01*
X212002334Y-121261166D01*
X212300416Y-121261166D01*
X212253558Y-121228513D01*
X212246643Y-121218833D01*
X211833000Y-121218833D01*
X211811834Y-121240000D01*
X211790667Y-121218833D01*
X211811834Y-121197666D01*
X211833000Y-121218833D01*
X212246643Y-121218833D01*
X212233048Y-121199805D01*
X212240041Y-121197824D01*
X212303866Y-121221967D01*
X212392484Y-121280453D01*
X212394885Y-121282333D01*
X212489199Y-121349508D01*
X212536812Y-121358800D01*
X212552173Y-121310883D01*
X212552667Y-121289712D01*
X212516057Y-121185852D01*
X212134453Y-121185852D01*
X212123535Y-121204871D01*
X212046413Y-121204981D01*
X212012879Y-121201014D01*
X211916925Y-121186236D01*
X211899833Y-121176408D01*
X211956405Y-121166333D01*
X211975741Y-121163877D01*
X212076032Y-121164587D01*
X212134453Y-121185852D01*
X212516057Y-121185852D01*
X212513832Y-121179540D01*
X212410760Y-121084337D01*
X212263597Y-121012177D01*
X212092492Y-120971136D01*
X211917592Y-120969289D01*
X211811834Y-120992789D01*
X211703338Y-121037357D01*
X211654008Y-121090153D01*
X211640507Y-121178418D01*
X211640179Y-121193142D01*
X211606463Y-121335287D01*
X211521402Y-121436162D01*
X211433855Y-121497329D01*
X211353934Y-121531971D01*
X211302555Y-121534559D01*
X211301490Y-121515166D01*
X206033334Y-121515166D01*
X206012167Y-121536333D01*
X205991000Y-121515166D01*
X206012167Y-121494000D01*
X206033334Y-121515166D01*
X211301490Y-121515166D01*
X211300633Y-121499565D01*
X211304080Y-121493600D01*
X211302552Y-121472833D01*
X207091667Y-121472833D01*
X207070500Y-121494000D01*
X207049334Y-121472833D01*
X207070500Y-121451666D01*
X207091667Y-121472833D01*
X211302552Y-121472833D01*
X211299452Y-121430720D01*
X211252199Y-121316160D01*
X211171496Y-121165211D01*
X211066517Y-120993168D01*
X210946438Y-120815321D01*
X210820431Y-120646964D01*
X210734048Y-120543441D01*
X210576604Y-120341885D01*
X210414708Y-120094562D01*
X210259412Y-119822527D01*
X210121769Y-119546832D01*
X210012829Y-119288532D01*
X209995819Y-119234472D01*
X208452208Y-119234472D01*
X208395980Y-119241801D01*
X208382834Y-119242080D01*
X208310536Y-119237504D01*
X208304171Y-119224252D01*
X208307945Y-119222565D01*
X208391984Y-119214190D01*
X208434945Y-119220996D01*
X208452208Y-119234472D01*
X209995819Y-119234472D01*
X209980828Y-119186833D01*
X208615667Y-119186833D01*
X208594500Y-119208000D01*
X208591744Y-119205243D01*
X208224288Y-119205243D01*
X208218497Y-119208000D01*
X208179865Y-119178198D01*
X208171167Y-119165666D01*
X208160380Y-119126089D01*
X208166170Y-119123333D01*
X208204803Y-119153135D01*
X208213500Y-119165666D01*
X208224288Y-119205243D01*
X208591744Y-119205243D01*
X208573334Y-119186833D01*
X208594500Y-119165666D01*
X208615667Y-119186833D01*
X209980828Y-119186833D01*
X209967506Y-119144500D01*
X208700334Y-119144500D01*
X208679167Y-119165666D01*
X208658000Y-119144500D01*
X208679167Y-119123333D01*
X208700334Y-119144500D01*
X209967506Y-119144500D01*
X209954184Y-119102166D01*
X208785000Y-119102166D01*
X208763834Y-119123333D01*
X208742667Y-119102166D01*
X208107667Y-119102166D01*
X208086500Y-119123333D01*
X208065334Y-119102166D01*
X208086500Y-119081000D01*
X208107667Y-119102166D01*
X208742667Y-119102166D01*
X208763834Y-119081000D01*
X208785000Y-119102166D01*
X209954184Y-119102166D01*
X209943646Y-119068681D01*
X209936839Y-119035910D01*
X208054955Y-119035910D01*
X208049164Y-119038666D01*
X208010531Y-119008864D01*
X208001834Y-118996333D01*
X207991046Y-118956756D01*
X207996837Y-118954000D01*
X208035470Y-118983801D01*
X208044167Y-118996333D01*
X208054955Y-119035910D01*
X209936839Y-119035910D01*
X209933014Y-119017500D01*
X209915129Y-118883644D01*
X209913067Y-118856748D01*
X208589235Y-118856748D01*
X208531000Y-118862649D01*
X208470903Y-118855996D01*
X208478084Y-118841296D01*
X208564755Y-118835705D01*
X208583917Y-118841296D01*
X208589235Y-118856748D01*
X209913067Y-118856748D01*
X209909162Y-118805833D01*
X208742667Y-118805833D01*
X208721500Y-118827000D01*
X208700334Y-118805833D01*
X208404000Y-118805833D01*
X208382834Y-118827000D01*
X208361667Y-118805833D01*
X208382834Y-118784666D01*
X208404000Y-118805833D01*
X208700334Y-118805833D01*
X208721500Y-118784666D01*
X208742667Y-118805833D01*
X209909162Y-118805833D01*
X209905915Y-118763500D01*
X208827334Y-118763500D01*
X208806167Y-118784666D01*
X208785000Y-118763500D01*
X208806167Y-118742333D01*
X208827334Y-118763500D01*
X209905915Y-118763500D01*
X209903431Y-118731126D01*
X209899989Y-118636500D01*
X208234667Y-118636500D01*
X208213500Y-118657666D01*
X208192334Y-118636500D01*
X208213500Y-118615333D01*
X208234667Y-118636500D01*
X209899989Y-118636500D01*
X209897810Y-118576596D01*
X209898153Y-118436707D01*
X209898830Y-118424833D01*
X209843334Y-118424833D01*
X209822167Y-118446000D01*
X209801000Y-118424833D01*
X209822167Y-118403666D01*
X209843334Y-118424833D01*
X209898830Y-118424833D01*
X209902091Y-118367676D01*
X208896761Y-118367676D01*
X208893761Y-118386432D01*
X208871483Y-118433603D01*
X208805585Y-118525774D01*
X208752731Y-118569899D01*
X208675539Y-118608471D01*
X208660411Y-118602378D01*
X208692821Y-118573197D01*
X208596971Y-118573197D01*
X208540758Y-118556433D01*
X208486820Y-118529677D01*
X208400212Y-118469366D01*
X208303371Y-118383846D01*
X208301027Y-118381511D01*
X208235818Y-118311878D01*
X208228961Y-118282678D01*
X208276820Y-118276668D01*
X208278925Y-118276666D01*
X208346602Y-118303897D01*
X208361667Y-118340788D01*
X208395022Y-118402867D01*
X208477423Y-118474677D01*
X208499250Y-118488797D01*
X208583905Y-118548118D01*
X208596971Y-118573197D01*
X208692821Y-118573197D01*
X208713799Y-118554310D01*
X208714335Y-118553904D01*
X208807038Y-118470064D01*
X208854253Y-118417667D01*
X208896761Y-118367676D01*
X209902091Y-118367676D01*
X209904349Y-118328111D01*
X209916289Y-118267461D01*
X209933861Y-118271408D01*
X209937922Y-118281091D01*
X209980376Y-118337391D01*
X210015806Y-118338226D01*
X210029671Y-118350757D01*
X210005617Y-118417834D01*
X209994997Y-118439238D01*
X209947809Y-118566747D01*
X209929508Y-118687314D01*
X209948699Y-118857920D01*
X209995967Y-119066286D01*
X210061162Y-119274625D01*
X210131873Y-119440833D01*
X210203924Y-119587197D01*
X210280896Y-119755004D01*
X210306838Y-119814775D01*
X210365946Y-119929926D01*
X210420356Y-119995057D01*
X210445113Y-120002240D01*
X210513290Y-120005968D01*
X210625172Y-120035392D01*
X210678051Y-120053993D01*
X210808796Y-120121924D01*
X210968516Y-120231735D01*
X211140218Y-120368394D01*
X211306906Y-120516869D01*
X211451585Y-120662127D01*
X211557259Y-120789136D01*
X211604302Y-120873272D01*
X211629247Y-120916700D01*
X211681707Y-120935063D01*
X211783607Y-120932547D01*
X211868774Y-120923769D01*
X212106468Y-120919461D01*
X212288084Y-120960535D01*
X212381799Y-120991037D01*
X212444111Y-121000114D01*
X212472982Y-120980236D01*
X212466368Y-120923873D01*
X212422230Y-120823498D01*
X212338526Y-120671579D01*
X212213216Y-120460588D01*
X212103724Y-120280393D01*
X211962100Y-120092907D01*
X211751840Y-119877820D01*
X211481456Y-119642411D01*
X211159460Y-119393961D01*
X210794364Y-119139748D01*
X210690000Y-119071389D01*
X210435958Y-118890190D01*
X210262850Y-118727130D01*
X210169241Y-118580763D01*
X210154831Y-118532403D01*
X210128743Y-118442781D01*
X210101202Y-118403725D01*
X210100319Y-118403666D01*
X210081307Y-118365915D01*
X210067529Y-118270989D01*
X210064723Y-118223750D01*
X210062536Y-118117539D01*
X210070180Y-118087141D01*
X210092216Y-118123867D01*
X210103609Y-118149666D01*
X210143146Y-118213212D01*
X210169796Y-118200766D01*
X210172827Y-118082851D01*
X210140462Y-118001500D01*
X209208334Y-118001500D01*
X209187167Y-118022666D01*
X209081334Y-118022666D01*
X209049377Y-118055126D01*
X209028417Y-118054416D01*
X208986564Y-118083785D01*
X208962576Y-118176841D01*
X208942448Y-118269041D01*
X208898802Y-118294286D01*
X208874952Y-118290314D01*
X208790781Y-118304074D01*
X208739710Y-118343815D01*
X208692349Y-118393572D01*
X208672114Y-118375917D01*
X208664723Y-118342831D01*
X208621775Y-118287555D01*
X208576450Y-118288117D01*
X208523371Y-118285428D01*
X208521499Y-118260683D01*
X208150000Y-118260683D01*
X208129408Y-118273354D01*
X208073131Y-118218973D01*
X208059934Y-118202583D01*
X208036753Y-118170833D01*
X207599667Y-118170833D01*
X207578500Y-118192000D01*
X207557334Y-118170833D01*
X207578500Y-118149666D01*
X207599667Y-118170833D01*
X208036753Y-118170833D01*
X208023322Y-118152439D01*
X208045244Y-118162951D01*
X208075917Y-118186600D01*
X208134547Y-118238822D01*
X208150000Y-118260683D01*
X208521499Y-118260683D01*
X208518727Y-118224054D01*
X208520998Y-118211289D01*
X208512762Y-118126710D01*
X208461105Y-118094987D01*
X208422436Y-118079487D01*
X208463991Y-118070815D01*
X208488667Y-118069262D01*
X208589004Y-118050916D01*
X208649022Y-118022666D01*
X208340500Y-118022666D01*
X208337144Y-118061676D01*
X208321832Y-118065000D01*
X208282242Y-118036777D01*
X208220556Y-118036777D01*
X208214745Y-118061944D01*
X208192334Y-118065000D01*
X208157489Y-118049510D01*
X208164112Y-118036777D01*
X208204087Y-118032746D01*
X208065334Y-118032746D01*
X208057954Y-118064684D01*
X208054299Y-118061472D01*
X208021819Y-118019636D01*
X207963072Y-117948583D01*
X207916722Y-117885545D01*
X207835306Y-117885545D01*
X207793695Y-117892324D01*
X207738788Y-117884541D01*
X207738132Y-117870090D01*
X207794791Y-117859984D01*
X207819271Y-117866748D01*
X207835306Y-117885545D01*
X207916722Y-117885545D01*
X207914012Y-117881860D01*
X207907166Y-117853347D01*
X207907582Y-117853333D01*
X207961956Y-117884196D01*
X208024725Y-117952069D01*
X208063292Y-118019882D01*
X208065334Y-118032746D01*
X208204087Y-118032746D01*
X208214351Y-118031711D01*
X208220556Y-118036777D01*
X208282242Y-118036777D01*
X208278723Y-118034269D01*
X208277000Y-118022666D01*
X208291444Y-117981433D01*
X208295669Y-117980333D01*
X208331812Y-118009997D01*
X208340500Y-118022666D01*
X208649022Y-118022666D01*
X208663573Y-118015817D01*
X208692163Y-117977091D01*
X208668584Y-117952416D01*
X208618546Y-117905971D01*
X208628869Y-117887032D01*
X208266567Y-117887032D01*
X208252982Y-117883781D01*
X208210168Y-117843757D01*
X208166235Y-117789833D01*
X207938334Y-117789833D01*
X207917167Y-117811000D01*
X207896000Y-117789833D01*
X207917167Y-117768666D01*
X207938334Y-117789833D01*
X208166235Y-117789833D01*
X208159709Y-117781824D01*
X208154123Y-117750433D01*
X208187617Y-117766230D01*
X208230417Y-117823508D01*
X208266567Y-117887032D01*
X208628869Y-117887032D01*
X208646463Y-117854757D01*
X208678659Y-117838219D01*
X208730680Y-117832310D01*
X208737146Y-117844273D01*
X208741267Y-117928702D01*
X208797011Y-117969943D01*
X208912000Y-117980333D01*
X209018037Y-117989722D01*
X209077016Y-118013177D01*
X209081334Y-118022666D01*
X209187167Y-118022666D01*
X209166000Y-118001500D01*
X209187167Y-117980333D01*
X209208334Y-118001500D01*
X210140462Y-118001500D01*
X210114648Y-117936618D01*
X210071254Y-117874500D01*
X208827334Y-117874500D01*
X208806167Y-117895666D01*
X208785000Y-117874500D01*
X208806167Y-117853333D01*
X208827334Y-117874500D01*
X210071254Y-117874500D01*
X210036752Y-117825111D01*
X209151889Y-117825111D01*
X209146078Y-117850278D01*
X209123667Y-117853333D01*
X209088822Y-117837844D01*
X209095445Y-117825111D01*
X209145685Y-117820044D01*
X209151889Y-117825111D01*
X210036752Y-117825111D01*
X210024720Y-117807889D01*
X210009919Y-117789833D01*
X208827334Y-117789833D01*
X208806167Y-117811000D01*
X208785000Y-117789833D01*
X208806167Y-117768666D01*
X208827334Y-117789833D01*
X210009919Y-117789833D01*
X209956398Y-117724546D01*
X209942016Y-117696134D01*
X208947510Y-117696134D01*
X208937210Y-117719792D01*
X208894584Y-117765239D01*
X208870079Y-117755916D01*
X208869667Y-117749998D01*
X208899736Y-117714192D01*
X208918541Y-117701124D01*
X208947510Y-117696134D01*
X209942016Y-117696134D01*
X209941291Y-117694702D01*
X209977334Y-117707726D01*
X210008439Y-117724070D01*
X210079855Y-117751368D01*
X210096285Y-117733549D01*
X210064469Y-117683450D01*
X209991142Y-117613909D01*
X209987855Y-117611467D01*
X209074510Y-117611467D01*
X209064210Y-117635125D01*
X209021584Y-117680572D01*
X208997079Y-117671249D01*
X208996667Y-117665331D01*
X209026736Y-117629525D01*
X209045541Y-117616457D01*
X209074510Y-117611467D01*
X208778177Y-117611467D01*
X208767876Y-117635125D01*
X208725251Y-117680572D01*
X208700746Y-117671249D01*
X208700334Y-117665331D01*
X208730402Y-117629525D01*
X208749208Y-117616457D01*
X208778177Y-117611467D01*
X209074510Y-117611467D01*
X209987855Y-117611467D01*
X209943024Y-117578166D01*
X208869667Y-117578166D01*
X208848500Y-117599333D01*
X208827334Y-117578166D01*
X208848500Y-117557000D01*
X208869667Y-117578166D01*
X209943024Y-117578166D01*
X209924737Y-117564583D01*
X209829580Y-117509682D01*
X209732667Y-117483267D01*
X209601804Y-117479175D01*
X209504667Y-117484142D01*
X209344085Y-117498676D01*
X209204841Y-117518446D01*
X209129431Y-117535673D01*
X209058894Y-117552027D01*
X209051621Y-117528777D01*
X208982556Y-117528777D01*
X208976745Y-117553944D01*
X208954334Y-117557000D01*
X208919489Y-117541510D01*
X208926112Y-117528777D01*
X208976351Y-117523711D01*
X208982556Y-117528777D01*
X209051621Y-117528777D01*
X209048209Y-117517870D01*
X209062678Y-117467947D01*
X209096219Y-117317356D01*
X209083820Y-117218696D01*
X209049584Y-117187340D01*
X209007865Y-117206876D01*
X208996667Y-117273122D01*
X208969357Y-117377938D01*
X208926317Y-117435399D01*
X208883761Y-117463487D01*
X208868315Y-117442192D01*
X208874385Y-117356817D01*
X208879954Y-117313591D01*
X208886953Y-117198336D01*
X208875998Y-117122873D01*
X208867498Y-117111159D01*
X208818647Y-117123364D01*
X208762360Y-117196735D01*
X208710353Y-117309967D01*
X208674340Y-117441753D01*
X208669781Y-117470720D01*
X208647264Y-117581920D01*
X208608918Y-117631272D01*
X208546593Y-117641666D01*
X208468381Y-117662754D01*
X208446334Y-117699983D01*
X208415481Y-117770613D01*
X208372250Y-117814358D01*
X208323288Y-117848982D01*
X208334765Y-117829666D01*
X208351084Y-117811075D01*
X208399688Y-117734923D01*
X208379953Y-117705166D01*
X207980667Y-117705166D01*
X207959500Y-117726333D01*
X207938334Y-117705166D01*
X207642000Y-117705166D01*
X207620834Y-117726333D01*
X207599667Y-117705166D01*
X207620834Y-117684000D01*
X207642000Y-117705166D01*
X207938334Y-117705166D01*
X207959500Y-117684000D01*
X207980667Y-117705166D01*
X208379953Y-117705166D01*
X208372827Y-117694423D01*
X208284983Y-117684000D01*
X208273567Y-117681243D01*
X207885621Y-117681243D01*
X207879831Y-117684000D01*
X207841198Y-117654198D01*
X207832500Y-117641666D01*
X207821713Y-117602089D01*
X207827504Y-117599333D01*
X207866136Y-117629135D01*
X207874834Y-117641666D01*
X207885621Y-117681243D01*
X208273567Y-117681243D01*
X208165248Y-117655084D01*
X208073316Y-117597684D01*
X208054872Y-117578166D01*
X207769000Y-117578166D01*
X207747834Y-117599333D01*
X207726667Y-117578166D01*
X207747834Y-117557000D01*
X207769000Y-117578166D01*
X208054872Y-117578166D01*
X208014868Y-117535833D01*
X207684334Y-117535833D01*
X207663167Y-117557000D01*
X207642000Y-117535833D01*
X207663167Y-117514666D01*
X207684334Y-117535833D01*
X208014868Y-117535833D01*
X207995177Y-117514997D01*
X207987741Y-117478281D01*
X208012417Y-117477346D01*
X208085007Y-117473775D01*
X208085080Y-117431693D01*
X208076355Y-117419416D01*
X208035890Y-117340332D01*
X208005981Y-117246562D01*
X207996239Y-117156293D01*
X208033991Y-117113795D01*
X208063167Y-117104165D01*
X208121233Y-117067732D01*
X208118846Y-117033603D01*
X208118472Y-117032601D01*
X208008449Y-117032601D01*
X208001834Y-117049000D01*
X207963793Y-117089385D01*
X207957002Y-117091333D01*
X207938819Y-117058580D01*
X207938334Y-117049000D01*
X207970878Y-117008293D01*
X207983166Y-117006666D01*
X208008449Y-117032601D01*
X208118472Y-117032601D01*
X208089862Y-116956054D01*
X208074376Y-116879666D01*
X208044647Y-116774606D01*
X207998295Y-116717698D01*
X207951671Y-116725218D01*
%TD*%
M02*
