%TF.GenerationSoftware,KiCad,Pcbnew,6.0.1*%
%TF.CreationDate,2022-02-08T14:36:28-06:00*%
%TF.ProjectId,COTS_TELEM,434f5453-5f54-4454-9c45-4d2e6b696361,rev?*%
%TF.SameCoordinates,Original*%
%TF.FileFunction,Soldermask,Top*%
%TF.FilePolarity,Negative*%
%FSLAX46Y46*%
G04 Gerber Fmt 4.6, Leading zero omitted, Abs format (unit mm)*
G04 Created by KiCad (PCBNEW 6.0.1) date 2022-02-08 14:36:28*
%MOMM*%
%LPD*%
G01*
G04 APERTURE LIST*
G04 Aperture macros list*
%AMRoundRect*
0 Rectangle with rounded corners*
0 $1 Rounding radius*
0 $2 $3 $4 $5 $6 $7 $8 $9 X,Y pos of 4 corners*
0 Add a 4 corners polygon primitive as box body*
4,1,4,$2,$3,$4,$5,$6,$7,$8,$9,$2,$3,0*
0 Add four circle primitives for the rounded corners*
1,1,$1+$1,$2,$3*
1,1,$1+$1,$4,$5*
1,1,$1+$1,$6,$7*
1,1,$1+$1,$8,$9*
0 Add four rect primitives between the rounded corners*
20,1,$1+$1,$2,$3,$4,$5,0*
20,1,$1+$1,$4,$5,$6,$7,0*
20,1,$1+$1,$6,$7,$8,$9,0*
20,1,$1+$1,$8,$9,$2,$3,0*%
%AMHorizOval*
0 Thick line with rounded ends*
0 $1 width*
0 $2 $3 position (X,Y) of the first rounded end (center of the circle)*
0 $4 $5 position (X,Y) of the second rounded end (center of the circle)*
0 Add line between two ends*
20,1,$1,$2,$3,$4,$5,0*
0 Add two circle primitives to create the rounded ends*
1,1,$1,$2,$3*
1,1,$1,$4,$5*%
G04 Aperture macros list end*
%ADD10RoundRect,0.250000X-0.475000X0.250000X-0.475000X-0.250000X0.475000X-0.250000X0.475000X0.250000X0*%
%ADD11C,3.000000*%
%ADD12RoundRect,0.250001X-0.183848X0.890953X-0.890953X0.183848X0.183848X-0.890953X0.890953X-0.183848X0*%
%ADD13HorizOval,1.500000X-0.183848X0.183848X0.183848X-0.183848X0*%
%ADD14R,3.150000X1.000000*%
%ADD15RoundRect,0.250000X-0.250000X-1.200000X0.250000X-1.200000X0.250000X1.200000X-0.250000X1.200000X0*%
%ADD16RoundRect,0.250000X-0.650000X-1.550000X0.650000X-1.550000X0.650000X1.550000X-0.650000X1.550000X0*%
%ADD17R,2.000000X1.000000*%
%ADD18RoundRect,0.250001X0.890953X0.183848X0.183848X0.890953X-0.890953X-0.183848X-0.183848X-0.890953X0*%
%ADD19HorizOval,1.500000X0.183848X0.183848X-0.183848X-0.183848X0*%
%ADD20C,1.000000*%
%ADD21RoundRect,0.250001X-0.499999X-0.759999X0.499999X-0.759999X0.499999X0.759999X-0.499999X0.759999X0*%
%ADD22O,1.500000X2.020000*%
%ADD23RoundRect,0.250000X0.250000X1.200000X-0.250000X1.200000X-0.250000X-1.200000X0.250000X-1.200000X0*%
%ADD24RoundRect,0.250000X0.650000X1.550000X-0.650000X1.550000X-0.650000X-1.550000X0.650000X-1.550000X0*%
%ADD25RoundRect,0.050800X0.508000X1.016000X-0.508000X1.016000X-0.508000X-1.016000X0.508000X-1.016000X0*%
%ADD26RoundRect,0.050800X0.762000X2.032000X-0.762000X2.032000X-0.762000X-2.032000X0.762000X-2.032000X0*%
G04 APERTURE END LIST*
%TO.C,X1*%
G36*
X10341800Y-36669000D02*
G01*
X9427400Y-36669000D01*
X9427400Y-34332200D01*
X10341800Y-34332200D01*
X10341800Y-36669000D01*
G37*
G36*
X13132600Y-36669000D02*
G01*
X12218200Y-36669000D01*
X12218200Y-34332200D01*
X13132600Y-34332200D01*
X13132600Y-36669000D01*
G37*
%TD*%
D10*
%TO.C,C1*%
X20550000Y-17600000D03*
X20550000Y-19500000D03*
%TD*%
D11*
%TO.C,J9*%
X33983381Y-17726022D03*
D12*
X33050000Y-12550000D03*
D13*
X30928680Y-14671320D03*
X28807359Y-16792641D03*
%TD*%
D14*
%TO.C,J1*%
X32525000Y-6970000D03*
X27475000Y-6970000D03*
X32525000Y-4430000D03*
X27475000Y-4430000D03*
X32525000Y-1890000D03*
X27475000Y-1890000D03*
X32525000Y650000D03*
X27475000Y650000D03*
X32525000Y3190000D03*
X27475000Y3190000D03*
X32525000Y5730000D03*
X27475000Y5730000D03*
X32525000Y8270000D03*
X27475000Y8270000D03*
X32525000Y10810000D03*
X27475000Y10810000D03*
X32525000Y13350000D03*
X27475000Y13350000D03*
X32525000Y15890000D03*
X27475000Y15890000D03*
X32525000Y18430000D03*
X27475000Y18430000D03*
X32525000Y20970000D03*
X27475000Y20970000D03*
%TD*%
D15*
%TO.C,J5*%
X-11400000Y-35875000D03*
X-9400000Y-35875000D03*
D16*
X-13750000Y-31225000D03*
X-7050000Y-31225000D03*
%TD*%
D17*
%TO.C,U1*%
X-12810000Y-11530000D03*
X-12810000Y-13530000D03*
X-12810000Y-15530000D03*
X-12810000Y-17530000D03*
X-12810000Y-19530000D03*
X-12810000Y-21530000D03*
X-12810000Y-23530000D03*
X-12810000Y-25530000D03*
X3190000Y-25530000D03*
X3190000Y-23530000D03*
X3190000Y-21530000D03*
X3190000Y-19530000D03*
X3190000Y-17530000D03*
X3190000Y-15530000D03*
X3190000Y-13530000D03*
X3190000Y-11530000D03*
%TD*%
D11*
%TO.C,J7*%
X-34247488Y-18047488D03*
D18*
X-29071466Y-17114107D03*
D19*
X-31192786Y-14992787D03*
X-33314107Y-12871466D03*
%TD*%
D20*
%TO.C,JP1*%
X11270000Y-31410000D03*
%TD*%
D11*
%TO.C,J10*%
X10440000Y33900000D03*
D21*
X8940000Y29580000D03*
D22*
X11940000Y29580000D03*
%TD*%
D23*
%TO.C,J11*%
X5500000Y22000000D03*
X3500000Y22000000D03*
D24*
X1150000Y17350000D03*
X7850000Y17350000D03*
%TD*%
D11*
%TO.C,J8*%
X-1250000Y33900000D03*
D21*
X-2750000Y29580000D03*
D22*
X250000Y29580000D03*
%TD*%
D15*
%TO.C,J6*%
X-650000Y-35850000D03*
X1350000Y-35850000D03*
D16*
X3700000Y-31200000D03*
X-3000000Y-31200000D03*
%TD*%
D25*
%TO.C,X1*%
X11280000Y-34510000D03*
D26*
X13820000Y-35526000D03*
X8740000Y-35526000D03*
%TD*%
D14*
%TO.C,J3*%
X-32525000Y20970000D03*
X-27475000Y20970000D03*
X-32525000Y18430000D03*
X-27475000Y18430000D03*
X-32525000Y15890000D03*
X-27475000Y15890000D03*
X-32525000Y13350000D03*
X-27475000Y13350000D03*
X-32525000Y10810000D03*
X-27475000Y10810000D03*
X-32525000Y8270000D03*
X-27475000Y8270000D03*
X-32525000Y5730000D03*
X-27475000Y5730000D03*
X-32525000Y3190000D03*
X-27475000Y3190000D03*
X-32525000Y650000D03*
X-27475000Y650000D03*
X-32525000Y-1890000D03*
X-27475000Y-1890000D03*
X-32525000Y-4430000D03*
X-27475000Y-4430000D03*
X-32525000Y-6970000D03*
X-27475000Y-6970000D03*
%TD*%
M02*
