%TF.GenerationSoftware,KiCad,Pcbnew,6.0.1*%
%TF.CreationDate,2022-02-10T22:23:25-06:00*%
%TF.ProjectId,COTS_TELEM,434f5453-5f54-4454-9c45-4d2e6b696361,rev?*%
%TF.SameCoordinates,Original*%
%TF.FileFunction,Soldermask,Top*%
%TF.FilePolarity,Negative*%
%FSLAX46Y46*%
G04 Gerber Fmt 4.6, Leading zero omitted, Abs format (unit mm)*
G04 Created by KiCad (PCBNEW 6.0.1) date 2022-02-10 22:23:25*
%MOMM*%
%LPD*%
G01*
G04 APERTURE LIST*
G04 Aperture macros list*
%AMRoundRect*
0 Rectangle with rounded corners*
0 $1 Rounding radius*
0 $2 $3 $4 $5 $6 $7 $8 $9 X,Y pos of 4 corners*
0 Add a 4 corners polygon primitive as box body*
4,1,4,$2,$3,$4,$5,$6,$7,$8,$9,$2,$3,0*
0 Add four circle primitives for the rounded corners*
1,1,$1+$1,$2,$3*
1,1,$1+$1,$4,$5*
1,1,$1+$1,$6,$7*
1,1,$1+$1,$8,$9*
0 Add four rect primitives between the rounded corners*
20,1,$1+$1,$2,$3,$4,$5,0*
20,1,$1+$1,$4,$5,$6,$7,0*
20,1,$1+$1,$6,$7,$8,$9,0*
20,1,$1+$1,$8,$9,$2,$3,0*%
G04 Aperture macros list end*
%ADD10RoundRect,0.250000X-0.475000X0.250000X-0.475000X-0.250000X0.475000X-0.250000X0.475000X0.250000X0*%
%ADD11C,3.000000*%
%ADD12RoundRect,0.250001X0.499999X0.759999X-0.499999X0.759999X-0.499999X-0.759999X0.499999X-0.759999X0*%
%ADD13O,1.500000X2.020000*%
%ADD14R,3.150000X1.000000*%
%ADD15RoundRect,0.250000X-0.250000X-1.100000X0.250000X-1.100000X0.250000X1.100000X-0.250000X1.100000X0*%
%ADD16RoundRect,0.250000X-0.650000X-1.650000X0.650000X-1.650000X0.650000X1.650000X-0.650000X1.650000X0*%
%ADD17R,2.000000X1.000000*%
%ADD18C,1.000000*%
%ADD19C,0.800000*%
%ADD20C,6.400000*%
%ADD21RoundRect,0.250001X-0.499999X-0.759999X0.499999X-0.759999X0.499999X0.759999X-0.499999X0.759999X0*%
%ADD22RoundRect,0.050800X0.508000X1.016000X-0.508000X1.016000X-0.508000X-1.016000X0.508000X-1.016000X0*%
%ADD23RoundRect,0.050800X0.762000X2.032000X-0.762000X2.032000X-0.762000X-2.032000X0.762000X-2.032000X0*%
G04 APERTURE END LIST*
%TO.C,X1*%
G36*
X10341800Y-36669000D02*
G01*
X9427400Y-36669000D01*
X9427400Y-34332200D01*
X10341800Y-34332200D01*
X10341800Y-36669000D01*
G37*
G36*
X13132600Y-36669000D02*
G01*
X12218200Y-36669000D01*
X12218200Y-34332200D01*
X13132600Y-34332200D01*
X13132600Y-36669000D01*
G37*
%TD*%
D10*
%TO.C,C1*%
X19230000Y-17560000D03*
X19230000Y-19460000D03*
%TD*%
D11*
%TO.C,J9*%
X28550000Y-17434107D03*
D12*
X31550000Y-13114107D03*
D13*
X28550000Y-13114107D03*
X25550000Y-13114107D03*
%TD*%
D14*
%TO.C,J1*%
X32525000Y-6970000D03*
X27475000Y-6970000D03*
X32525000Y-4430000D03*
X27475000Y-4430000D03*
X32525000Y-1890000D03*
X27475000Y-1890000D03*
X32525000Y650000D03*
X27475000Y650000D03*
X32525000Y3190000D03*
X27475000Y3190000D03*
X32525000Y5730000D03*
X27475000Y5730000D03*
X32525000Y8270000D03*
X27475000Y8270000D03*
X32525000Y10810000D03*
X27475000Y10810000D03*
X32525000Y13350000D03*
X27475000Y13350000D03*
X32525000Y15890000D03*
X27475000Y15890000D03*
X32525000Y18430000D03*
X27475000Y18430000D03*
X32525000Y20970000D03*
X27475000Y20970000D03*
%TD*%
D15*
%TO.C,J11*%
X-6000000Y-30000000D03*
X-4000000Y-30000000D03*
D16*
X-8350000Y-34450000D03*
X-1650000Y-34450000D03*
%TD*%
D17*
%TO.C,U1*%
X-12810000Y-11530000D03*
X-12810000Y-13530000D03*
X-12810000Y-15530000D03*
X-12810000Y-17530000D03*
X-12810000Y-19530000D03*
X-12810000Y-21530000D03*
X-12810000Y-23530000D03*
X-12810000Y-25530000D03*
X3190000Y-25530000D03*
X3190000Y-23530000D03*
X3190000Y-21530000D03*
X3190000Y-19530000D03*
X3190000Y-17530000D03*
X3190000Y-15530000D03*
X3190000Y-13530000D03*
X3190000Y-11530000D03*
%TD*%
D11*
%TO.C,J7*%
X-28660000Y-17360000D03*
D12*
X-25660000Y-13040000D03*
D13*
X-28660000Y-13040000D03*
X-31660000Y-13040000D03*
%TD*%
D18*
%TO.C,JP1*%
X8525000Y-28725000D03*
%TD*%
D19*
%TO.C,REF\u002A\u002A*%
X-16742944Y-35997056D03*
X-18440000Y-36700000D03*
X-16040000Y-34300000D03*
X-20137056Y-32602944D03*
X-16742944Y-32602944D03*
X-20840000Y-34300000D03*
X-18440000Y-31900000D03*
D20*
X-18440000Y-34300000D03*
D19*
X-20137056Y-35997056D03*
%TD*%
D11*
%TO.C,J10*%
X4590000Y28600000D03*
D21*
X3090000Y24280000D03*
D13*
X6090000Y24280000D03*
%TD*%
D11*
%TO.C,J8*%
X-7100000Y28600000D03*
D21*
X-8600000Y24280000D03*
D13*
X-5600000Y24280000D03*
%TD*%
D19*
%TO.C,REF\u002A\u002A*%
X16742944Y32552944D03*
X18440000Y31850000D03*
X20137056Y35947056D03*
X16742944Y35947056D03*
X16040000Y34250000D03*
X20137056Y32552944D03*
D20*
X18440000Y34250000D03*
D19*
X20840000Y34250000D03*
X18440000Y36650000D03*
%TD*%
D22*
%TO.C,X1*%
X11280000Y-34510000D03*
D23*
X13820000Y-35526000D03*
X8740000Y-35526000D03*
%TD*%
D20*
%TO.C,REF\u002A\u002A*%
X18450000Y-34300000D03*
D19*
X18450000Y-31900000D03*
X16752944Y-35997056D03*
X18450000Y-36700000D03*
X20850000Y-34300000D03*
X16752944Y-32602944D03*
X16050000Y-34300000D03*
X20147056Y-35997056D03*
X20147056Y-32602944D03*
%TD*%
D14*
%TO.C,J3*%
X-32525000Y20970000D03*
X-27475000Y20970000D03*
X-32525000Y18430000D03*
X-27475000Y18430000D03*
X-32525000Y15890000D03*
X-27475000Y15890000D03*
X-32525000Y13350000D03*
X-27475000Y13350000D03*
X-32525000Y10810000D03*
X-27475000Y10810000D03*
X-32525000Y8270000D03*
X-27475000Y8270000D03*
X-32525000Y5730000D03*
X-27475000Y5730000D03*
X-32525000Y3190000D03*
X-27475000Y3190000D03*
X-32525000Y650000D03*
X-27475000Y650000D03*
X-32525000Y-1890000D03*
X-27475000Y-1890000D03*
X-32525000Y-4430000D03*
X-27475000Y-4430000D03*
X-32525000Y-6970000D03*
X-27475000Y-6970000D03*
%TD*%
D19*
%TO.C,REF\u002A\u002A*%
X-18450000Y31790000D03*
D20*
X-18450000Y34190000D03*
D19*
X-16752944Y35887056D03*
X-18450000Y36590000D03*
X-20850000Y34190000D03*
X-20147056Y35887056D03*
X-16752944Y32492944D03*
X-20147056Y32492944D03*
X-16050000Y34190000D03*
%TD*%
M02*
