%TF.GenerationSoftware,KiCad,Pcbnew,6.0.1*%
%TF.CreationDate,2022-02-08T14:36:27-06:00*%
%TF.ProjectId,COTS_TELEM,434f5453-5f54-4454-9c45-4d2e6b696361,rev?*%
%TF.SameCoordinates,Original*%
%TF.FileFunction,Paste,Top*%
%TF.FilePolarity,Positive*%
%FSLAX46Y46*%
G04 Gerber Fmt 4.6, Leading zero omitted, Abs format (unit mm)*
G04 Created by KiCad (PCBNEW 6.0.1) date 2022-02-08 14:36:27*
%MOMM*%
%LPD*%
G01*
G04 APERTURE LIST*
G04 Aperture macros list*
%AMRoundRect*
0 Rectangle with rounded corners*
0 $1 Rounding radius*
0 $2 $3 $4 $5 $6 $7 $8 $9 X,Y pos of 4 corners*
0 Add a 4 corners polygon primitive as box body*
4,1,4,$2,$3,$4,$5,$6,$7,$8,$9,$2,$3,0*
0 Add four circle primitives for the rounded corners*
1,1,$1+$1,$2,$3*
1,1,$1+$1,$4,$5*
1,1,$1+$1,$6,$7*
1,1,$1+$1,$8,$9*
0 Add four rect primitives between the rounded corners*
20,1,$1+$1,$2,$3,$4,$5,0*
20,1,$1+$1,$4,$5,$6,$7,0*
20,1,$1+$1,$6,$7,$8,$9,0*
20,1,$1+$1,$8,$9,$2,$3,0*%
G04 Aperture macros list end*
%ADD10RoundRect,0.250000X-0.475000X0.250000X-0.475000X-0.250000X0.475000X-0.250000X0.475000X0.250000X0*%
%ADD11R,3.150000X1.000000*%
%ADD12RoundRect,0.250000X-0.250000X-1.200000X0.250000X-1.200000X0.250000X1.200000X-0.250000X1.200000X0*%
%ADD13RoundRect,0.250000X-0.650000X-1.550000X0.650000X-1.550000X0.650000X1.550000X-0.650000X1.550000X0*%
%ADD14R,2.000000X1.000000*%
%ADD15RoundRect,0.250000X0.250000X1.200000X-0.250000X1.200000X-0.250000X-1.200000X0.250000X-1.200000X0*%
%ADD16RoundRect,0.250000X0.650000X1.550000X-0.650000X1.550000X-0.650000X-1.550000X0.650000X-1.550000X0*%
G04 APERTURE END LIST*
%TO.C,X1*%
G36*
X13081800Y-36567400D02*
G01*
X12269000Y-36567400D01*
X12269000Y-34433800D01*
X13081800Y-34433800D01*
X13081800Y-36567400D01*
G37*
G36*
X10291000Y-36567400D02*
G01*
X9478200Y-36567400D01*
X9478200Y-34433800D01*
X10291000Y-34433800D01*
X10291000Y-36567400D01*
G37*
G36*
X11762600Y-34357600D02*
G01*
X10797400Y-34357600D01*
X10797400Y-33595600D01*
X11762600Y-33595600D01*
X11762600Y-34357600D01*
G37*
%TD*%
D10*
%TO.C,C1*%
X20550000Y-17600000D03*
X20550000Y-19500000D03*
%TD*%
D11*
%TO.C,J1*%
X32525000Y-6970000D03*
X27475000Y-6970000D03*
X32525000Y-4430000D03*
X27475000Y-4430000D03*
X32525000Y-1890000D03*
X27475000Y-1890000D03*
X32525000Y650000D03*
X27475000Y650000D03*
X32525000Y3190000D03*
X27475000Y3190000D03*
X32525000Y5730000D03*
X27475000Y5730000D03*
X32525000Y8270000D03*
X27475000Y8270000D03*
X32525000Y10810000D03*
X27475000Y10810000D03*
X32525000Y13350000D03*
X27475000Y13350000D03*
X32525000Y15890000D03*
X27475000Y15890000D03*
X32525000Y18430000D03*
X27475000Y18430000D03*
X32525000Y20970000D03*
X27475000Y20970000D03*
%TD*%
D12*
%TO.C,J5*%
X-11400000Y-35875000D03*
X-9400000Y-35875000D03*
D13*
X-13750000Y-31225000D03*
X-7050000Y-31225000D03*
%TD*%
D14*
%TO.C,U1*%
X-12810000Y-11530000D03*
X-12810000Y-13530000D03*
X-12810000Y-15530000D03*
X-12810000Y-17530000D03*
X-12810000Y-19530000D03*
X-12810000Y-21530000D03*
X-12810000Y-23530000D03*
X-12810000Y-25530000D03*
X3190000Y-25530000D03*
X3190000Y-23530000D03*
X3190000Y-21530000D03*
X3190000Y-19530000D03*
X3190000Y-17530000D03*
X3190000Y-15530000D03*
X3190000Y-13530000D03*
X3190000Y-11530000D03*
%TD*%
D15*
%TO.C,J11*%
X5500000Y22000000D03*
X3500000Y22000000D03*
D16*
X1150000Y17350000D03*
X7850000Y17350000D03*
%TD*%
D12*
%TO.C,J6*%
X-650000Y-35850000D03*
X1350000Y-35850000D03*
D13*
X3700000Y-31200000D03*
X-3000000Y-31200000D03*
%TD*%
D11*
%TO.C,J3*%
X-32525000Y20970000D03*
X-27475000Y20970000D03*
X-32525000Y18430000D03*
X-27475000Y18430000D03*
X-32525000Y15890000D03*
X-27475000Y15890000D03*
X-32525000Y13350000D03*
X-27475000Y13350000D03*
X-32525000Y10810000D03*
X-27475000Y10810000D03*
X-32525000Y8270000D03*
X-27475000Y8270000D03*
X-32525000Y5730000D03*
X-27475000Y5730000D03*
X-32525000Y3190000D03*
X-27475000Y3190000D03*
X-32525000Y650000D03*
X-27475000Y650000D03*
X-32525000Y-1890000D03*
X-27475000Y-1890000D03*
X-32525000Y-4430000D03*
X-27475000Y-4430000D03*
X-32525000Y-6970000D03*
X-27475000Y-6970000D03*
%TD*%
M02*
