%TF.GenerationSoftware,KiCad,Pcbnew,6.0.1*%
%TF.CreationDate,2022-02-08T14:36:28-06:00*%
%TF.ProjectId,COTS_TELEM,434f5453-5f54-4454-9c45-4d2e6b696361,rev?*%
%TF.SameCoordinates,Original*%
%TF.FileFunction,Legend,Top*%
%TF.FilePolarity,Positive*%
%FSLAX46Y46*%
G04 Gerber Fmt 4.6, Leading zero omitted, Abs format (unit mm)*
G04 Created by KiCad (PCBNEW 6.0.1) date 2022-02-08 14:36:28*
%MOMM*%
%LPD*%
G01*
G04 APERTURE LIST*
%ADD10C,0.300000*%
%ADD11C,0.150000*%
%ADD12C,0.100000*%
%ADD13C,0.120000*%
G04 APERTURE END LIST*
D10*
X-5321428Y-25328571D02*
X-4250000Y-25328571D01*
X-4035714Y-25400000D01*
X-3892857Y-25542857D01*
X-3821428Y-25757142D01*
X-3821428Y-25900000D01*
X-3821428Y-23900000D02*
X-3821428Y-24614285D01*
X-5321428Y-24614285D01*
X-3964285Y-22542857D02*
X-3892857Y-22614285D01*
X-3821428Y-22828571D01*
X-3821428Y-22971428D01*
X-3892857Y-23185714D01*
X-4035714Y-23328571D01*
X-4178571Y-23400000D01*
X-4464285Y-23471428D01*
X-4678571Y-23471428D01*
X-4964285Y-23400000D01*
X-5107142Y-23328571D01*
X-5250000Y-23185714D01*
X-5321428Y-22971428D01*
X-5321428Y-22828571D01*
X-5250000Y-22614285D01*
X-5178571Y-22542857D01*
X-5321428Y-21471428D02*
X-4250000Y-21471428D01*
X-4035714Y-21542857D01*
X-3892857Y-21685714D01*
X-3821428Y-21900000D01*
X-3821428Y-22042857D01*
X-3821428Y-20042857D02*
X-3821428Y-20757142D01*
X-5321428Y-20757142D01*
X-3964285Y-18685714D02*
X-3892857Y-18757142D01*
X-3821428Y-18971428D01*
X-3821428Y-19114285D01*
X-3892857Y-19328571D01*
X-4035714Y-19471428D01*
X-4178571Y-19542857D01*
X-4464285Y-19614285D01*
X-4678571Y-19614285D01*
X-4964285Y-19542857D01*
X-5107142Y-19471428D01*
X-5250000Y-19328571D01*
X-5321428Y-19114285D01*
X-5321428Y-18971428D01*
X-5250000Y-18757142D01*
X-5178571Y-18685714D01*
X-5321428Y-17614285D02*
X-4250000Y-17614285D01*
X-4035714Y-17685714D01*
X-3892857Y-17828571D01*
X-3821428Y-18042857D01*
X-3821428Y-18185714D01*
X-3821428Y-16185714D02*
X-3821428Y-16900000D01*
X-5321428Y-16900000D01*
X-3964285Y-14828571D02*
X-3892857Y-14899999D01*
X-3821428Y-15114285D01*
X-3821428Y-15257142D01*
X-3892857Y-15471428D01*
X-4035714Y-15614285D01*
X-4178571Y-15685714D01*
X-4464285Y-15757142D01*
X-4678571Y-15757142D01*
X-4964285Y-15685714D01*
X-5107142Y-15614285D01*
X-5250000Y-15471428D01*
X-5321428Y-15257142D01*
X-5321428Y-15114285D01*
X-5250000Y-14899999D01*
X-5178571Y-14828571D01*
X-5321428Y-13757142D02*
X-4250000Y-13757142D01*
X-4035714Y-13828571D01*
X-3892857Y-13971428D01*
X-3821428Y-14185714D01*
X-3821428Y-14328571D01*
X-3821428Y-12328571D02*
X-3821428Y-13042857D01*
X-5321428Y-13042857D01*
X-3964285Y-10971428D02*
X-3892857Y-11042857D01*
X-3821428Y-11257142D01*
X-3821428Y-11399999D01*
X-3892857Y-11614285D01*
X-4035714Y-11757142D01*
X-4178571Y-11828571D01*
X-4464285Y-11899999D01*
X-4678571Y-11899999D01*
X-4964285Y-11828571D01*
X-5107142Y-11757142D01*
X-5250000Y-11614285D01*
X-5321428Y-11399999D01*
X-5321428Y-11257142D01*
X-5250000Y-11042857D01*
X-5178571Y-10971428D01*
D11*
X-26599285Y-5319285D02*
X-26742142Y-5319285D01*
X-26813571Y-5355000D01*
X-26849285Y-5390714D01*
X-26920714Y-5497857D01*
X-26956428Y-5640714D01*
X-26956428Y-5926428D01*
X-26920714Y-5997857D01*
X-26885000Y-6033571D01*
X-26813571Y-6069285D01*
X-26670714Y-6069285D01*
X-26599285Y-6033571D01*
X-26563571Y-5997857D01*
X-26527857Y-5926428D01*
X-26527857Y-5747857D01*
X-26563571Y-5676428D01*
X-26599285Y-5640714D01*
X-26670714Y-5605000D01*
X-26813571Y-5605000D01*
X-26885000Y-5640714D01*
X-26920714Y-5676428D01*
X-26956428Y-5747857D01*
X-26313571Y-5319285D02*
X-26063571Y-6069285D01*
X-25813571Y-5319285D01*
X-25742142Y-6140714D02*
X-25170714Y-6140714D01*
X-25027857Y-5855000D02*
X-24670714Y-5855000D01*
X-25099285Y-6069285D02*
X-24849285Y-5319285D01*
X-24599285Y-6069285D01*
X-23920714Y-5997857D02*
X-23956428Y-6033571D01*
X-24063571Y-6069285D01*
X-24135000Y-6069285D01*
X-24242142Y-6033571D01*
X-24313571Y-5962142D01*
X-24349285Y-5890714D01*
X-24385000Y-5747857D01*
X-24385000Y-5640714D01*
X-24349285Y-5497857D01*
X-24313571Y-5426428D01*
X-24242142Y-5355000D01*
X-24135000Y-5319285D01*
X-24063571Y-5319285D01*
X-23956428Y-5355000D01*
X-23920714Y-5390714D01*
X-23777857Y-6140714D02*
X-23206428Y-6140714D01*
X-23063571Y-6033571D02*
X-22956428Y-6069285D01*
X-22777857Y-6069285D01*
X-22706428Y-6033571D01*
X-22670714Y-5997857D01*
X-22635000Y-5926428D01*
X-22635000Y-5855000D01*
X-22670714Y-5783571D01*
X-22706428Y-5747857D01*
X-22777857Y-5712142D01*
X-22920714Y-5676428D01*
X-22992142Y-5640714D01*
X-23027857Y-5605000D01*
X-23063571Y-5533571D01*
X-23063571Y-5462142D01*
X-23027857Y-5390714D01*
X-22992142Y-5355000D01*
X-22920714Y-5319285D01*
X-22742142Y-5319285D01*
X-22635000Y-5355000D01*
X-22313571Y-5676428D02*
X-22063571Y-5676428D01*
X-21956428Y-6069285D02*
X-22313571Y-6069285D01*
X-22313571Y-5319285D01*
X-21956428Y-5319285D01*
X-21206428Y-6069285D02*
X-21456428Y-5712142D01*
X-21635000Y-6069285D02*
X-21635000Y-5319285D01*
X-21349285Y-5319285D01*
X-21277857Y-5355000D01*
X-21242142Y-5390714D01*
X-21206428Y-5462142D01*
X-21206428Y-5569285D01*
X-21242142Y-5640714D01*
X-21277857Y-5676428D01*
X-21349285Y-5712142D01*
X-21635000Y-5712142D01*
X-20992142Y-5319285D02*
X-20742142Y-6069285D01*
X-20492142Y-5319285D01*
X-20099285Y-5319285D02*
X-19956428Y-5319285D01*
X-19885000Y-5355000D01*
X-19813571Y-5426428D01*
X-19777857Y-5569285D01*
X-19777857Y-5819285D01*
X-19813571Y-5962142D01*
X-19885000Y-6033571D01*
X-19956428Y-6069285D01*
X-20099285Y-6069285D01*
X-20170714Y-6033571D01*
X-20242142Y-5962142D01*
X-20277857Y-5819285D01*
X-20277857Y-5569285D01*
X-20242142Y-5426428D01*
X-20170714Y-5355000D01*
X-20099285Y-5319285D01*
X-19492142Y-5390714D02*
X-19456428Y-5355000D01*
X-19385000Y-5319285D01*
X-19206428Y-5319285D01*
X-19135000Y-5355000D01*
X-19099285Y-5390714D01*
X-19063571Y-5462142D01*
X-19063571Y-5533571D01*
X-19099285Y-5640714D01*
X-19527857Y-6069285D01*
X-19063571Y-6069285D01*
X33379285Y9242142D02*
X33343571Y9206428D01*
X33236428Y9170714D01*
X33165000Y9170714D01*
X33057857Y9206428D01*
X32986428Y9277857D01*
X32950714Y9349285D01*
X32915000Y9492142D01*
X32915000Y9599285D01*
X32950714Y9742142D01*
X32986428Y9813571D01*
X33057857Y9885000D01*
X33165000Y9920714D01*
X33236428Y9920714D01*
X33343571Y9885000D01*
X33379285Y9849285D01*
X33843571Y9920714D02*
X33986428Y9920714D01*
X34057857Y9885000D01*
X34129285Y9813571D01*
X34165000Y9670714D01*
X34165000Y9420714D01*
X34129285Y9277857D01*
X34057857Y9206428D01*
X33986428Y9170714D01*
X33843571Y9170714D01*
X33772142Y9206428D01*
X33700714Y9277857D01*
X33665000Y9420714D01*
X33665000Y9670714D01*
X33700714Y9813571D01*
X33772142Y9885000D01*
X33843571Y9920714D01*
X34486428Y9170714D02*
X34486428Y9920714D01*
X34915000Y9170714D01*
X34915000Y9920714D01*
X35165000Y9920714D02*
X35593571Y9920714D01*
X35379285Y9170714D02*
X35379285Y9920714D01*
X35665000Y9099285D02*
X36236428Y9099285D01*
X36343571Y9920714D02*
X36807857Y9920714D01*
X36557857Y9635000D01*
X36665000Y9635000D01*
X36736428Y9599285D01*
X36772142Y9563571D01*
X36807857Y9492142D01*
X36807857Y9313571D01*
X36772142Y9242142D01*
X36736428Y9206428D01*
X36665000Y9170714D01*
X36450714Y9170714D01*
X36379285Y9206428D01*
X36343571Y9242142D01*
X37022142Y9920714D02*
X37272142Y9170714D01*
X37522142Y9920714D01*
X37700714Y9920714D02*
X38165000Y9920714D01*
X37915000Y9635000D01*
X38022142Y9635000D01*
X38093571Y9599285D01*
X38129285Y9563571D01*
X38165000Y9492142D01*
X38165000Y9313571D01*
X38129285Y9242142D01*
X38093571Y9206428D01*
X38022142Y9170714D01*
X37807857Y9170714D01*
X37736428Y9206428D01*
X37700714Y9242142D01*
X-42099600Y4895714D02*
X-41671028Y4895714D01*
X-41885314Y4145714D02*
X-41885314Y4895714D01*
X-41421028Y4538571D02*
X-41171028Y4538571D01*
X-41063885Y4145714D02*
X-41421028Y4145714D01*
X-41421028Y4895714D01*
X-41063885Y4895714D01*
X-40385314Y4145714D02*
X-40742457Y4145714D01*
X-40742457Y4895714D01*
X-40135314Y4538571D02*
X-39885314Y4538571D01*
X-39778171Y4145714D02*
X-40135314Y4145714D01*
X-40135314Y4895714D01*
X-39778171Y4895714D01*
X-39456742Y4145714D02*
X-39456742Y4895714D01*
X-39206742Y4360000D01*
X-38956742Y4895714D01*
X-38956742Y4145714D01*
X-38778171Y4074285D02*
X-38206742Y4074285D01*
X-37635314Y4860000D02*
X-37706742Y4895714D01*
X-37813885Y4895714D01*
X-37921028Y4860000D01*
X-37992457Y4788571D01*
X-38028171Y4717142D01*
X-38063885Y4574285D01*
X-38063885Y4467142D01*
X-38028171Y4324285D01*
X-37992457Y4252857D01*
X-37921028Y4181428D01*
X-37813885Y4145714D01*
X-37742457Y4145714D01*
X-37635314Y4181428D01*
X-37599600Y4217142D01*
X-37599600Y4467142D01*
X-37742457Y4467142D01*
X-37278171Y4145714D02*
X-37278171Y4895714D01*
X-36992457Y4895714D01*
X-36921028Y4860000D01*
X-36885314Y4824285D01*
X-36849600Y4752857D01*
X-36849600Y4645714D01*
X-36885314Y4574285D01*
X-36921028Y4538571D01*
X-36992457Y4502857D01*
X-37278171Y4502857D01*
X-36528171Y4145714D02*
X-36528171Y4895714D01*
X-36028171Y4895714D02*
X-35885314Y4895714D01*
X-35813885Y4860000D01*
X-35742457Y4788571D01*
X-35706742Y4645714D01*
X-35706742Y4395714D01*
X-35742457Y4252857D01*
X-35813885Y4181428D01*
X-35885314Y4145714D01*
X-36028171Y4145714D01*
X-36099600Y4181428D01*
X-36171028Y4252857D01*
X-36206742Y4395714D01*
X-36206742Y4645714D01*
X-36171028Y4788571D01*
X-36099600Y4860000D01*
X-36028171Y4895714D01*
X-35563885Y4074285D02*
X-34992457Y4074285D01*
X-34456742Y4895714D02*
X-34813885Y4895714D01*
X-34849600Y4538571D01*
X-34813885Y4574285D01*
X-34742457Y4610000D01*
X-34563885Y4610000D01*
X-34492457Y4574285D01*
X-34456742Y4538571D01*
X-34421028Y4467142D01*
X-34421028Y4288571D01*
X-34456742Y4217142D01*
X-34492457Y4181428D01*
X-34563885Y4145714D01*
X-34742457Y4145714D01*
X-34813885Y4181428D01*
X-34849600Y4217142D01*
X-37937171Y-5450000D02*
X-38008599Y-5414285D01*
X-38115742Y-5414285D01*
X-38222885Y-5450000D01*
X-38294314Y-5521428D01*
X-38330028Y-5592857D01*
X-38365742Y-5735714D01*
X-38365742Y-5842857D01*
X-38330028Y-5985714D01*
X-38294314Y-6057142D01*
X-38222885Y-6128571D01*
X-38115742Y-6164285D01*
X-38044314Y-6164285D01*
X-37937171Y-6128571D01*
X-37901456Y-6092857D01*
X-37901456Y-5842857D01*
X-38044314Y-5842857D01*
X-37580028Y-6164285D02*
X-37580028Y-5414285D01*
X-37294314Y-5414285D01*
X-37222885Y-5450000D01*
X-37187171Y-5485714D01*
X-37151456Y-5557142D01*
X-37151456Y-5664285D01*
X-37187171Y-5735714D01*
X-37222885Y-5771428D01*
X-37294314Y-5807142D01*
X-37580028Y-5807142D01*
X-36830028Y-6164285D02*
X-36830028Y-5414285D01*
X-36330028Y-5414285D02*
X-36187171Y-5414285D01*
X-36115742Y-5450000D01*
X-36044314Y-5521428D01*
X-36008599Y-5664285D01*
X-36008599Y-5914285D01*
X-36044314Y-6057142D01*
X-36115742Y-6128571D01*
X-36187171Y-6164285D01*
X-36330028Y-6164285D01*
X-36401456Y-6128571D01*
X-36472885Y-6057142D01*
X-36508599Y-5914285D01*
X-36508599Y-5664285D01*
X-36472885Y-5521428D01*
X-36401456Y-5450000D01*
X-36330028Y-5414285D01*
X-35865742Y-6235714D02*
X-35294314Y-6235714D01*
X-35080028Y-6164285D02*
X-34937171Y-6164285D01*
X-34865742Y-6128571D01*
X-34830028Y-6092857D01*
X-34758599Y-5985714D01*
X-34722885Y-5842857D01*
X-34722885Y-5557142D01*
X-34758599Y-5485714D01*
X-34794314Y-5450000D01*
X-34865742Y-5414285D01*
X-35008599Y-5414285D01*
X-35080028Y-5450000D01*
X-35115742Y-5485714D01*
X-35151456Y-5557142D01*
X-35151456Y-5735714D01*
X-35115742Y-5807142D01*
X-35080028Y-5842857D01*
X-35008599Y-5878571D01*
X-34865742Y-5878571D01*
X-34794314Y-5842857D01*
X-34758599Y-5807142D01*
X-34722885Y-5735714D01*
X23217857Y-3553571D02*
X23325000Y-3589285D01*
X23503571Y-3589285D01*
X23575000Y-3553571D01*
X23610714Y-3517857D01*
X23646428Y-3446428D01*
X23646428Y-3375000D01*
X23610714Y-3303571D01*
X23575000Y-3267857D01*
X23503571Y-3232142D01*
X23360714Y-3196428D01*
X23289285Y-3160714D01*
X23253571Y-3125000D01*
X23217857Y-3053571D01*
X23217857Y-2982142D01*
X23253571Y-2910714D01*
X23289285Y-2875000D01*
X23360714Y-2839285D01*
X23539285Y-2839285D01*
X23646428Y-2875000D01*
X23967857Y-3589285D02*
X23967857Y-2839285D01*
X24146428Y-2839285D01*
X24253571Y-2875000D01*
X24325000Y-2946428D01*
X24360714Y-3017857D01*
X24396428Y-3160714D01*
X24396428Y-3267857D01*
X24360714Y-3410714D01*
X24325000Y-3482142D01*
X24253571Y-3553571D01*
X24146428Y-3589285D01*
X23967857Y-3589285D01*
X24860714Y-2839285D02*
X25003571Y-2839285D01*
X25075000Y-2875000D01*
X25146428Y-2946428D01*
X25182142Y-3089285D01*
X25182142Y-3339285D01*
X25146428Y-3482142D01*
X25075000Y-3553571D01*
X25003571Y-3589285D01*
X24860714Y-3589285D01*
X24789285Y-3553571D01*
X24717857Y-3482142D01*
X24682142Y-3339285D01*
X24682142Y-3089285D01*
X24717857Y-2946428D01*
X24789285Y-2875000D01*
X24860714Y-2839285D01*
X35027142Y-319285D02*
X34670000Y-319285D01*
X34634285Y-676428D01*
X34670000Y-640714D01*
X34741428Y-605000D01*
X34920000Y-605000D01*
X34991428Y-640714D01*
X35027142Y-676428D01*
X35062857Y-747857D01*
X35062857Y-926428D01*
X35027142Y-997857D01*
X34991428Y-1033571D01*
X34920000Y-1069285D01*
X34741428Y-1069285D01*
X34670000Y-1033571D01*
X34634285Y-997857D01*
X35277142Y-319285D02*
X35527142Y-1069285D01*
X35777142Y-319285D01*
X-24589285Y-22853571D02*
X-24017857Y-22853571D01*
X-24303571Y-23139285D02*
X-24303571Y-22567857D01*
X-23732142Y-22639285D02*
X-23339285Y-22639285D01*
X-23732142Y-23139285D01*
X-23339285Y-23139285D01*
D12*
X21059842Y-38486003D02*
X20600222Y-38026384D01*
X20775316Y-37851291D01*
X20840975Y-37829404D01*
X20884749Y-37829404D01*
X20950409Y-37851291D01*
X21016069Y-37916951D01*
X21037955Y-37982611D01*
X21037955Y-38026384D01*
X21016069Y-38092044D01*
X20840975Y-38267137D01*
X21738328Y-37719971D02*
X21738328Y-37763744D01*
X21694554Y-37851291D01*
X21650781Y-37895064D01*
X21563235Y-37938837D01*
X21475688Y-37938837D01*
X21410028Y-37916951D01*
X21300595Y-37851291D01*
X21234935Y-37785631D01*
X21169275Y-37676198D01*
X21147388Y-37610538D01*
X21147388Y-37522991D01*
X21191162Y-37435445D01*
X21234935Y-37391671D01*
X21322482Y-37347898D01*
X21366255Y-37347898D01*
X21891534Y-37172805D02*
X21979081Y-37129032D01*
X22022854Y-37129032D01*
X22088514Y-37150918D01*
X22154174Y-37216578D01*
X22176060Y-37282238D01*
X22176060Y-37326011D01*
X22154174Y-37391671D01*
X21979081Y-37566764D01*
X21519461Y-37107145D01*
X21672668Y-36953939D01*
X21738328Y-36932052D01*
X21782101Y-36932052D01*
X21847761Y-36953939D01*
X21891534Y-36997712D01*
X21913421Y-37063372D01*
X21913421Y-37107145D01*
X21891534Y-37172805D01*
X21738328Y-37326011D01*
X22985866Y-36559979D02*
X22526247Y-36100360D01*
X22963979Y-36538092D02*
X22942093Y-36603752D01*
X22854546Y-36691299D01*
X22788886Y-36713186D01*
X22745113Y-36713186D01*
X22679453Y-36691299D01*
X22548133Y-36559979D01*
X22526247Y-36494319D01*
X22526247Y-36450546D01*
X22548133Y-36384886D01*
X22635680Y-36297339D01*
X22701340Y-36275453D01*
X23357939Y-36144133D02*
X23336052Y-36209793D01*
X23248506Y-36297339D01*
X23182846Y-36319226D01*
X23117186Y-36297339D01*
X22942093Y-36122246D01*
X22920206Y-36056586D01*
X22942093Y-35990926D01*
X23029639Y-35903380D01*
X23095299Y-35881493D01*
X23160959Y-35903380D01*
X23204732Y-35947153D01*
X23029639Y-36209793D01*
X23554919Y-35947153D02*
X23620579Y-35925267D01*
X23708125Y-35837720D01*
X23730012Y-35772060D01*
X23708125Y-35706400D01*
X23686238Y-35684514D01*
X23620579Y-35662627D01*
X23554919Y-35684514D01*
X23489259Y-35750173D01*
X23423599Y-35772060D01*
X23357939Y-35750173D01*
X23336052Y-35728287D01*
X23314166Y-35662627D01*
X23336052Y-35596967D01*
X23401712Y-35531307D01*
X23467372Y-35509420D01*
X23970765Y-35575080D02*
X23664352Y-35268667D01*
X23511145Y-35115461D02*
X23511145Y-35159234D01*
X23554919Y-35159234D01*
X23554919Y-35115461D01*
X23511145Y-35115461D01*
X23554919Y-35159234D01*
X24080198Y-34852821D02*
X24452271Y-35224894D01*
X24474157Y-35290554D01*
X24474157Y-35334327D01*
X24452271Y-35399987D01*
X24386611Y-35465647D01*
X24320951Y-35487534D01*
X24364724Y-35137348D02*
X24342838Y-35203008D01*
X24255291Y-35290554D01*
X24189631Y-35312441D01*
X24145858Y-35312441D01*
X24080198Y-35290554D01*
X23948878Y-35159234D01*
X23926991Y-35093574D01*
X23926991Y-35049801D01*
X23948878Y-34984141D01*
X24036425Y-34896595D01*
X24102085Y-34874708D01*
X24299064Y-34633955D02*
X24605477Y-34940368D01*
X24342838Y-34677728D02*
X24342838Y-34633955D01*
X24364724Y-34568295D01*
X24430384Y-34502635D01*
X24496044Y-34480748D01*
X24561704Y-34502635D01*
X24802457Y-34743388D01*
X25174530Y-34327542D02*
X25152643Y-34393202D01*
X25065097Y-34480748D01*
X24999437Y-34502635D01*
X24933777Y-34480748D01*
X24758684Y-34305655D01*
X24736797Y-34239995D01*
X24758684Y-34174336D01*
X24846230Y-34086789D01*
X24911890Y-34064902D01*
X24977550Y-34086789D01*
X25021323Y-34130562D01*
X24846230Y-34393202D01*
X25612263Y-33933582D02*
X25152643Y-33473963D01*
X25590376Y-33911696D02*
X25568489Y-33977356D01*
X25480943Y-34064902D01*
X25415283Y-34086789D01*
X25371510Y-34086789D01*
X25305850Y-34064902D01*
X25174530Y-33933582D01*
X25152643Y-33867923D01*
X25152643Y-33824149D01*
X25174530Y-33758489D01*
X25262076Y-33670943D01*
X25327736Y-33649056D01*
X26181315Y-33364530D02*
X25874902Y-33058117D01*
X25721696Y-32904910D02*
X25721696Y-32948684D01*
X25765469Y-32948684D01*
X25765469Y-32904910D01*
X25721696Y-32904910D01*
X25765469Y-32948684D01*
X26093769Y-32839251D02*
X26400182Y-33145663D01*
X26137542Y-32883024D02*
X26137542Y-32839251D01*
X26159429Y-32773591D01*
X26225089Y-32707931D01*
X26290748Y-32686044D01*
X26356408Y-32707931D01*
X26597161Y-32948684D01*
X26794141Y-32138878D02*
X26969234Y-31963785D01*
X26706595Y-31920012D02*
X27100554Y-32313971D01*
X27166214Y-32335858D01*
X27231874Y-32313971D01*
X27275647Y-32270198D01*
X27428854Y-32116991D02*
X26969234Y-31657372D01*
X27625833Y-31920012D02*
X27385080Y-31679259D01*
X27319420Y-31657372D01*
X27253761Y-31679259D01*
X27188101Y-31744919D01*
X27166214Y-31810579D01*
X27166214Y-31854352D01*
X27997906Y-31504166D02*
X27976020Y-31569826D01*
X27888473Y-31657372D01*
X27822813Y-31679259D01*
X27757153Y-31657372D01*
X27582060Y-31482279D01*
X27560173Y-31416619D01*
X27582060Y-31350959D01*
X27669607Y-31263413D01*
X27735267Y-31241526D01*
X27800926Y-31263413D01*
X27844700Y-31307186D01*
X27669607Y-31569826D01*
X28545072Y-30957000D02*
X28632619Y-30913226D01*
X28742052Y-30803793D01*
X28763939Y-30738133D01*
X28763939Y-30694360D01*
X28742052Y-30628700D01*
X28698279Y-30584927D01*
X28632619Y-30563040D01*
X28588845Y-30563040D01*
X28523186Y-30584927D01*
X28413752Y-30650587D01*
X28348092Y-30672473D01*
X28304319Y-30672473D01*
X28238659Y-30650587D01*
X28194886Y-30606813D01*
X28172999Y-30541154D01*
X28172999Y-30497380D01*
X28194886Y-30431720D01*
X28304319Y-30322287D01*
X28391866Y-30278514D01*
X29026578Y-30519267D02*
X28566959Y-30059647D01*
X29289218Y-30256627D01*
X28829599Y-29797008D01*
X29136011Y-29490595D02*
X29223558Y-29403048D01*
X29289218Y-29381162D01*
X29376764Y-29381162D01*
X29486198Y-29446822D01*
X29639404Y-29600028D01*
X29705064Y-29709461D01*
X29705064Y-29797008D01*
X29683177Y-29862668D01*
X29595631Y-29950214D01*
X29529971Y-29972101D01*
X29442424Y-29972101D01*
X29332991Y-29906441D01*
X29179785Y-29753235D01*
X29114125Y-29643801D01*
X29114125Y-29556255D01*
X29136011Y-29490595D01*
X29486198Y-29140409D02*
X30055250Y-29490595D01*
X29814497Y-29074749D01*
X30230343Y-29315502D01*
X29880157Y-28746449D01*
D11*
X-19244285Y-23139285D02*
X-18815714Y-23139285D01*
X-19030000Y-23889285D02*
X-19030000Y-23139285D01*
X-18744285Y-23960714D02*
X-18172857Y-23960714D01*
X-17601428Y-23175000D02*
X-17672857Y-23139285D01*
X-17780000Y-23139285D01*
X-17887142Y-23175000D01*
X-17958571Y-23246428D01*
X-17994285Y-23317857D01*
X-18030000Y-23460714D01*
X-18030000Y-23567857D01*
X-17994285Y-23710714D01*
X-17958571Y-23782142D01*
X-17887142Y-23853571D01*
X-17780000Y-23889285D01*
X-17708571Y-23889285D01*
X-17601428Y-23853571D01*
X-17565714Y-23817857D01*
X-17565714Y-23567857D01*
X-17708571Y-23567857D01*
X-17244285Y-23889285D02*
X-17244285Y-23139285D01*
X-16958571Y-23139285D01*
X-16887142Y-23175000D01*
X-16851428Y-23210714D01*
X-16815714Y-23282142D01*
X-16815714Y-23389285D01*
X-16851428Y-23460714D01*
X-16887142Y-23496428D01*
X-16958571Y-23532142D01*
X-17244285Y-23532142D01*
X-16494285Y-23889285D02*
X-16494285Y-23139285D01*
X-15994285Y-23139285D02*
X-15851428Y-23139285D01*
X-15780000Y-23175000D01*
X-15708571Y-23246428D01*
X-15672857Y-23389285D01*
X-15672857Y-23639285D01*
X-15708571Y-23782142D01*
X-15780000Y-23853571D01*
X-15851428Y-23889285D01*
X-15994285Y-23889285D01*
X-16065714Y-23853571D01*
X-16137142Y-23782142D01*
X-16172857Y-23639285D01*
X-16172857Y-23389285D01*
X-16137142Y-23246428D01*
X-16065714Y-23175000D01*
X-15994285Y-23139285D01*
X-15530000Y-23960714D02*
X-14958571Y-23960714D01*
X-14422857Y-23139285D02*
X-14780000Y-23139285D01*
X-14815714Y-23496428D01*
X-14780000Y-23460714D01*
X-14708571Y-23425000D01*
X-14530000Y-23425000D01*
X-14458571Y-23460714D01*
X-14422857Y-23496428D01*
X-14387142Y-23567857D01*
X-14387142Y-23746428D01*
X-14422857Y-23817857D01*
X-14458571Y-23853571D01*
X-14530000Y-23889285D01*
X-14708571Y-23889285D01*
X-14780000Y-23853571D01*
X-14815714Y-23817857D01*
X33805714Y11706428D02*
X33912857Y11670714D01*
X34091428Y11670714D01*
X34162857Y11706428D01*
X34198571Y11742142D01*
X34234285Y11813571D01*
X34234285Y11885000D01*
X34198571Y11956428D01*
X34162857Y11992142D01*
X34091428Y12027857D01*
X33948571Y12063571D01*
X33877142Y12099285D01*
X33841428Y12135000D01*
X33805714Y12206428D01*
X33805714Y12277857D01*
X33841428Y12349285D01*
X33877142Y12385000D01*
X33948571Y12420714D01*
X34127142Y12420714D01*
X34234285Y12385000D01*
X34984285Y11742142D02*
X34948571Y11706428D01*
X34841428Y11670714D01*
X34770000Y11670714D01*
X34662857Y11706428D01*
X34591428Y11777857D01*
X34555714Y11849285D01*
X34520000Y11992142D01*
X34520000Y12099285D01*
X34555714Y12242142D01*
X34591428Y12313571D01*
X34662857Y12385000D01*
X34770000Y12420714D01*
X34841428Y12420714D01*
X34948571Y12385000D01*
X34984285Y12349285D01*
X35305714Y11670714D02*
X35305714Y12420714D01*
X35734285Y11670714D02*
X35412857Y12099285D01*
X35734285Y12420714D02*
X35305714Y11992142D01*
X21211428Y4820714D02*
X21640000Y4820714D01*
X21425714Y4070714D02*
X21425714Y4820714D01*
X21890000Y4463571D02*
X22140000Y4463571D01*
X22247142Y4070714D02*
X21890000Y4070714D01*
X21890000Y4820714D01*
X22247142Y4820714D01*
X22925714Y4070714D02*
X22568571Y4070714D01*
X22568571Y4820714D01*
X23175714Y4463571D02*
X23425714Y4463571D01*
X23532857Y4070714D02*
X23175714Y4070714D01*
X23175714Y4820714D01*
X23532857Y4820714D01*
X23854285Y4070714D02*
X23854285Y4820714D01*
X24104285Y4285000D01*
X24354285Y4820714D01*
X24354285Y4070714D01*
X24532857Y3999285D02*
X25104285Y3999285D01*
X25711428Y4070714D02*
X25461428Y4427857D01*
X25282857Y4070714D02*
X25282857Y4820714D01*
X25568571Y4820714D01*
X25640000Y4785000D01*
X25675714Y4749285D01*
X25711428Y4677857D01*
X25711428Y4570714D01*
X25675714Y4499285D01*
X25640000Y4463571D01*
X25568571Y4427857D01*
X25282857Y4427857D01*
X25997142Y4106428D02*
X26104285Y4070714D01*
X26282857Y4070714D01*
X26354285Y4106428D01*
X26390000Y4142142D01*
X26425714Y4213571D01*
X26425714Y4285000D01*
X26390000Y4356428D01*
X26354285Y4392142D01*
X26282857Y4427857D01*
X26140000Y4463571D01*
X26068571Y4499285D01*
X26032857Y4535000D01*
X25997142Y4606428D01*
X25997142Y4677857D01*
X26032857Y4749285D01*
X26068571Y4785000D01*
X26140000Y4820714D01*
X26318571Y4820714D01*
X26425714Y4785000D01*
X26640000Y4820714D02*
X27068571Y4820714D01*
X26854285Y4070714D02*
X26854285Y4820714D01*
X-25115600Y22364600D02*
X-25187028Y22400314D01*
X-25294171Y22400314D01*
X-25401314Y22364600D01*
X-25472742Y22293171D01*
X-25508457Y22221742D01*
X-25544171Y22078885D01*
X-25544171Y21971742D01*
X-25508457Y21828885D01*
X-25472742Y21757457D01*
X-25401314Y21686028D01*
X-25294171Y21650314D01*
X-25222742Y21650314D01*
X-25115600Y21686028D01*
X-25079885Y21721742D01*
X-25079885Y21971742D01*
X-25222742Y21971742D01*
X-24758457Y21650314D02*
X-24758457Y22400314D01*
X-24472742Y22400314D01*
X-24401314Y22364600D01*
X-24365600Y22328885D01*
X-24329885Y22257457D01*
X-24329885Y22150314D01*
X-24365600Y22078885D01*
X-24401314Y22043171D01*
X-24472742Y22007457D01*
X-24758457Y22007457D01*
X-24008457Y21650314D02*
X-24008457Y22400314D01*
X-23508457Y22400314D02*
X-23365600Y22400314D01*
X-23294171Y22364600D01*
X-23222742Y22293171D01*
X-23187028Y22150314D01*
X-23187028Y21900314D01*
X-23222742Y21757457D01*
X-23294171Y21686028D01*
X-23365600Y21650314D01*
X-23508457Y21650314D01*
X-23579885Y21686028D01*
X-23651314Y21757457D01*
X-23687028Y21900314D01*
X-23687028Y22150314D01*
X-23651314Y22293171D01*
X-23579885Y22364600D01*
X-23508457Y22400314D01*
X-23044171Y21578885D02*
X-22472742Y21578885D01*
X-21901314Y21650314D02*
X-22329885Y21650314D01*
X-22115600Y21650314D02*
X-22115600Y22400314D01*
X-22187028Y22293171D01*
X-22258457Y22221742D01*
X-22329885Y22186028D01*
X-21437028Y22400314D02*
X-21365600Y22400314D01*
X-21294171Y22364600D01*
X-21258457Y22328885D01*
X-21222742Y22257457D01*
X-21187028Y22114600D01*
X-21187028Y21936028D01*
X-21222742Y21793171D01*
X-21258457Y21721742D01*
X-21294171Y21686028D01*
X-21365600Y21650314D01*
X-21437028Y21650314D01*
X-21508457Y21686028D01*
X-21544171Y21721742D01*
X-21579885Y21793171D01*
X-21615600Y21936028D01*
X-21615600Y22114600D01*
X-21579885Y22257457D01*
X-21544171Y22328885D01*
X-21508457Y22364600D01*
X-21437028Y22400314D01*
X4792857Y-25685000D02*
X5150000Y-25685000D01*
X4721428Y-25899285D02*
X4971428Y-25149285D01*
X5221428Y-25899285D01*
X5471428Y-25899285D02*
X5471428Y-25149285D01*
X5900000Y-25899285D01*
X5900000Y-25149285D01*
X6150000Y-25149285D02*
X6578571Y-25149285D01*
X6364285Y-25899285D02*
X6364285Y-25149285D01*
X-25125000Y7325000D02*
X-25196428Y7360714D01*
X-25303571Y7360714D01*
X-25410714Y7325000D01*
X-25482142Y7253571D01*
X-25517857Y7182142D01*
X-25553571Y7039285D01*
X-25553571Y6932142D01*
X-25517857Y6789285D01*
X-25482142Y6717857D01*
X-25410714Y6646428D01*
X-25303571Y6610714D01*
X-25232142Y6610714D01*
X-25125000Y6646428D01*
X-25089285Y6682142D01*
X-25089285Y6932142D01*
X-25232142Y6932142D01*
X-24767857Y6610714D02*
X-24767857Y7360714D01*
X-24482142Y7360714D01*
X-24410714Y7325000D01*
X-24375000Y7289285D01*
X-24339285Y7217857D01*
X-24339285Y7110714D01*
X-24375000Y7039285D01*
X-24410714Y7003571D01*
X-24482142Y6967857D01*
X-24767857Y6967857D01*
X-24017857Y6610714D02*
X-24017857Y7360714D01*
X-23517857Y7360714D02*
X-23375000Y7360714D01*
X-23303571Y7325000D01*
X-23232142Y7253571D01*
X-23196428Y7110714D01*
X-23196428Y6860714D01*
X-23232142Y6717857D01*
X-23303571Y6646428D01*
X-23375000Y6610714D01*
X-23517857Y6610714D01*
X-23589285Y6646428D01*
X-23660714Y6717857D01*
X-23696428Y6860714D01*
X-23696428Y7110714D01*
X-23660714Y7253571D01*
X-23589285Y7325000D01*
X-23517857Y7360714D01*
X-23053571Y6539285D02*
X-22482142Y6539285D01*
X-21910714Y6610714D02*
X-22339285Y6610714D01*
X-22125000Y6610714D02*
X-22125000Y7360714D01*
X-22196428Y7253571D01*
X-22267857Y7182142D01*
X-22339285Y7146428D01*
X-21267857Y7360714D02*
X-21410714Y7360714D01*
X-21482142Y7325000D01*
X-21517857Y7289285D01*
X-21589285Y7182142D01*
X-21625000Y7039285D01*
X-21625000Y6753571D01*
X-21589285Y6682142D01*
X-21553571Y6646428D01*
X-21482142Y6610714D01*
X-21339285Y6610714D01*
X-21267857Y6646428D01*
X-21232142Y6682142D01*
X-21196428Y6753571D01*
X-21196428Y6932142D01*
X-21232142Y7003571D01*
X-21267857Y7039285D01*
X-21339285Y7075000D01*
X-21482142Y7075000D01*
X-21553571Y7039285D01*
X-21589285Y7003571D01*
X-21625000Y6932142D01*
X-37937171Y2230000D02*
X-38008599Y2265714D01*
X-38115742Y2265714D01*
X-38222885Y2230000D01*
X-38294314Y2158571D01*
X-38330028Y2087142D01*
X-38365742Y1944285D01*
X-38365742Y1837142D01*
X-38330028Y1694285D01*
X-38294314Y1622857D01*
X-38222885Y1551428D01*
X-38115742Y1515714D01*
X-38044314Y1515714D01*
X-37937171Y1551428D01*
X-37901456Y1587142D01*
X-37901456Y1837142D01*
X-38044314Y1837142D01*
X-37580028Y1515714D02*
X-37580028Y2265714D01*
X-37294314Y2265714D01*
X-37222885Y2230000D01*
X-37187171Y2194285D01*
X-37151456Y2122857D01*
X-37151456Y2015714D01*
X-37187171Y1944285D01*
X-37222885Y1908571D01*
X-37294314Y1872857D01*
X-37580028Y1872857D01*
X-36830028Y1515714D02*
X-36830028Y2265714D01*
X-36330028Y2265714D02*
X-36187171Y2265714D01*
X-36115742Y2230000D01*
X-36044314Y2158571D01*
X-36008599Y2015714D01*
X-36008599Y1765714D01*
X-36044314Y1622857D01*
X-36115742Y1551428D01*
X-36187171Y1515714D01*
X-36330028Y1515714D01*
X-36401456Y1551428D01*
X-36472885Y1622857D01*
X-36508599Y1765714D01*
X-36508599Y2015714D01*
X-36472885Y2158571D01*
X-36401456Y2230000D01*
X-36330028Y2265714D01*
X-35865742Y1444285D02*
X-35294314Y1444285D01*
X-34794314Y2265714D02*
X-34937171Y2265714D01*
X-35008599Y2230000D01*
X-35044314Y2194285D01*
X-35115742Y2087142D01*
X-35151456Y1944285D01*
X-35151456Y1658571D01*
X-35115742Y1587142D01*
X-35080028Y1551428D01*
X-35008599Y1515714D01*
X-34865742Y1515714D01*
X-34794314Y1551428D01*
X-34758599Y1587142D01*
X-34722885Y1658571D01*
X-34722885Y1837142D01*
X-34758599Y1908571D01*
X-34794314Y1944285D01*
X-34865742Y1980000D01*
X-35008599Y1980000D01*
X-35080028Y1944285D01*
X-35115742Y1908571D01*
X-35151456Y1837142D01*
X34645714Y-3529285D02*
X34788571Y-3529285D01*
X34860000Y-3493571D01*
X34895714Y-3457857D01*
X34967142Y-3350714D01*
X35002857Y-3207857D01*
X35002857Y-2922142D01*
X34967142Y-2850714D01*
X34931428Y-2815000D01*
X34860000Y-2779285D01*
X34717142Y-2779285D01*
X34645714Y-2815000D01*
X34610000Y-2850714D01*
X34574285Y-2922142D01*
X34574285Y-3100714D01*
X34610000Y-3172142D01*
X34645714Y-3207857D01*
X34717142Y-3243571D01*
X34860000Y-3243571D01*
X34931428Y-3207857D01*
X34967142Y-3172142D01*
X35002857Y-3100714D01*
X35217142Y-2779285D02*
X35467142Y-3529285D01*
X35717142Y-2779285D01*
X33897142Y19366428D02*
X34004285Y19330714D01*
X34182857Y19330714D01*
X34254285Y19366428D01*
X34290000Y19402142D01*
X34325714Y19473571D01*
X34325714Y19545000D01*
X34290000Y19616428D01*
X34254285Y19652142D01*
X34182857Y19687857D01*
X34040000Y19723571D01*
X33968571Y19759285D01*
X33932857Y19795000D01*
X33897142Y19866428D01*
X33897142Y19937857D01*
X33932857Y20009285D01*
X33968571Y20045000D01*
X34040000Y20080714D01*
X34218571Y20080714D01*
X34325714Y20045000D01*
X34647142Y19330714D02*
X34647142Y20080714D01*
X34825714Y20080714D01*
X34932857Y20045000D01*
X35004285Y19973571D01*
X35040000Y19902142D01*
X35075714Y19759285D01*
X35075714Y19652142D01*
X35040000Y19509285D01*
X35004285Y19437857D01*
X34932857Y19366428D01*
X34825714Y19330714D01*
X34647142Y19330714D01*
X35754285Y19330714D02*
X35397142Y19330714D01*
X35397142Y20080714D01*
X4635714Y-19159285D02*
X5064285Y-19159285D01*
X4850000Y-19909285D02*
X4850000Y-19159285D01*
X5135714Y-19980714D02*
X5707142Y-19980714D01*
X6278571Y-19195000D02*
X6207142Y-19159285D01*
X6100000Y-19159285D01*
X5992857Y-19195000D01*
X5921428Y-19266428D01*
X5885714Y-19337857D01*
X5850000Y-19480714D01*
X5850000Y-19587857D01*
X5885714Y-19730714D01*
X5921428Y-19802142D01*
X5992857Y-19873571D01*
X6100000Y-19909285D01*
X6171428Y-19909285D01*
X6278571Y-19873571D01*
X6314285Y-19837857D01*
X6314285Y-19587857D01*
X6171428Y-19587857D01*
X6635714Y-19909285D02*
X6635714Y-19159285D01*
X6921428Y-19159285D01*
X6992857Y-19195000D01*
X7028571Y-19230714D01*
X7064285Y-19302142D01*
X7064285Y-19409285D01*
X7028571Y-19480714D01*
X6992857Y-19516428D01*
X6921428Y-19552142D01*
X6635714Y-19552142D01*
X7385714Y-19909285D02*
X7385714Y-19159285D01*
X7885714Y-19159285D02*
X8028571Y-19159285D01*
X8100000Y-19195000D01*
X8171428Y-19266428D01*
X8207142Y-19409285D01*
X8207142Y-19659285D01*
X8171428Y-19802142D01*
X8100000Y-19873571D01*
X8028571Y-19909285D01*
X7885714Y-19909285D01*
X7814285Y-19873571D01*
X7742857Y-19802142D01*
X7707142Y-19659285D01*
X7707142Y-19409285D01*
X7742857Y-19266428D01*
X7814285Y-19195000D01*
X7885714Y-19159285D01*
X8350000Y-19980714D02*
X8921428Y-19980714D01*
X9421428Y-19409285D02*
X9421428Y-19909285D01*
X9242857Y-19123571D02*
X9064285Y-19659285D01*
X9528571Y-19659285D01*
X-35722885Y19085714D02*
X-35580028Y19085714D01*
X-35508600Y19121428D01*
X-35472885Y19157142D01*
X-35401457Y19264285D01*
X-35365742Y19407142D01*
X-35365742Y19692857D01*
X-35401457Y19764285D01*
X-35437171Y19800000D01*
X-35508600Y19835714D01*
X-35651457Y19835714D01*
X-35722885Y19800000D01*
X-35758600Y19764285D01*
X-35794314Y19692857D01*
X-35794314Y19514285D01*
X-35758600Y19442857D01*
X-35722885Y19407142D01*
X-35651457Y19371428D01*
X-35508600Y19371428D01*
X-35437171Y19407142D01*
X-35401457Y19442857D01*
X-35365742Y19514285D01*
X-35151457Y19835714D02*
X-34901457Y19085714D01*
X-34651457Y19835714D01*
X4695714Y-13269285D02*
X5124285Y-13269285D01*
X4910000Y-14019285D02*
X4910000Y-13269285D01*
X5195714Y-14090714D02*
X5767142Y-14090714D01*
X6338571Y-13305000D02*
X6267142Y-13269285D01*
X6160000Y-13269285D01*
X6052857Y-13305000D01*
X5981428Y-13376428D01*
X5945714Y-13447857D01*
X5910000Y-13590714D01*
X5910000Y-13697857D01*
X5945714Y-13840714D01*
X5981428Y-13912142D01*
X6052857Y-13983571D01*
X6160000Y-14019285D01*
X6231428Y-14019285D01*
X6338571Y-13983571D01*
X6374285Y-13947857D01*
X6374285Y-13697857D01*
X6231428Y-13697857D01*
X6695714Y-14019285D02*
X6695714Y-13269285D01*
X6981428Y-13269285D01*
X7052857Y-13305000D01*
X7088571Y-13340714D01*
X7124285Y-13412142D01*
X7124285Y-13519285D01*
X7088571Y-13590714D01*
X7052857Y-13626428D01*
X6981428Y-13662142D01*
X6695714Y-13662142D01*
X7445714Y-14019285D02*
X7445714Y-13269285D01*
X7945714Y-13269285D02*
X8088571Y-13269285D01*
X8160000Y-13305000D01*
X8231428Y-13376428D01*
X8267142Y-13519285D01*
X8267142Y-13769285D01*
X8231428Y-13912142D01*
X8160000Y-13983571D01*
X8088571Y-14019285D01*
X7945714Y-14019285D01*
X7874285Y-13983571D01*
X7802857Y-13912142D01*
X7767142Y-13769285D01*
X7767142Y-13519285D01*
X7802857Y-13376428D01*
X7874285Y-13305000D01*
X7945714Y-13269285D01*
X8410000Y-14090714D02*
X8981428Y-14090714D01*
X9552857Y-14019285D02*
X9124285Y-14019285D01*
X9338571Y-14019285D02*
X9338571Y-13269285D01*
X9267142Y-13376428D01*
X9195714Y-13447857D01*
X9124285Y-13483571D01*
X-25115600Y12501200D02*
X-25187028Y12536914D01*
X-25294171Y12536914D01*
X-25401314Y12501200D01*
X-25472742Y12429771D01*
X-25508457Y12358342D01*
X-25544171Y12215485D01*
X-25544171Y12108342D01*
X-25508457Y11965485D01*
X-25472742Y11894057D01*
X-25401314Y11822628D01*
X-25294171Y11786914D01*
X-25222742Y11786914D01*
X-25115600Y11822628D01*
X-25079885Y11858342D01*
X-25079885Y12108342D01*
X-25222742Y12108342D01*
X-24758457Y11786914D02*
X-24758457Y12536914D01*
X-24472742Y12536914D01*
X-24401314Y12501200D01*
X-24365600Y12465485D01*
X-24329885Y12394057D01*
X-24329885Y12286914D01*
X-24365600Y12215485D01*
X-24401314Y12179771D01*
X-24472742Y12144057D01*
X-24758457Y12144057D01*
X-24008457Y11786914D02*
X-24008457Y12536914D01*
X-23508457Y12536914D02*
X-23365600Y12536914D01*
X-23294171Y12501200D01*
X-23222742Y12429771D01*
X-23187028Y12286914D01*
X-23187028Y12036914D01*
X-23222742Y11894057D01*
X-23294171Y11822628D01*
X-23365600Y11786914D01*
X-23508457Y11786914D01*
X-23579885Y11822628D01*
X-23651314Y11894057D01*
X-23687028Y12036914D01*
X-23687028Y12286914D01*
X-23651314Y12429771D01*
X-23579885Y12501200D01*
X-23508457Y12536914D01*
X-23044171Y11715485D02*
X-22472742Y11715485D01*
X-21901314Y11786914D02*
X-22329885Y11786914D01*
X-22115600Y11786914D02*
X-22115600Y12536914D01*
X-22187028Y12429771D01*
X-22258457Y12358342D01*
X-22329885Y12322628D01*
X-21258457Y12286914D02*
X-21258457Y11786914D01*
X-21437028Y12572628D02*
X-21615600Y12036914D01*
X-21151314Y12036914D01*
X-25115600Y20104600D02*
X-25187028Y20140314D01*
X-25294171Y20140314D01*
X-25401314Y20104600D01*
X-25472742Y20033171D01*
X-25508457Y19961742D01*
X-25544171Y19818885D01*
X-25544171Y19711742D01*
X-25508457Y19568885D01*
X-25472742Y19497457D01*
X-25401314Y19426028D01*
X-25294171Y19390314D01*
X-25222742Y19390314D01*
X-25115600Y19426028D01*
X-25079885Y19461742D01*
X-25079885Y19711742D01*
X-25222742Y19711742D01*
X-24758457Y19390314D02*
X-24758457Y20140314D01*
X-24472742Y20140314D01*
X-24401314Y20104600D01*
X-24365600Y20068885D01*
X-24329885Y19997457D01*
X-24329885Y19890314D01*
X-24365600Y19818885D01*
X-24401314Y19783171D01*
X-24472742Y19747457D01*
X-24758457Y19747457D01*
X-24008457Y19390314D02*
X-24008457Y20140314D01*
X-23508457Y20140314D02*
X-23365600Y20140314D01*
X-23294171Y20104600D01*
X-23222742Y20033171D01*
X-23187028Y19890314D01*
X-23187028Y19640314D01*
X-23222742Y19497457D01*
X-23294171Y19426028D01*
X-23365600Y19390314D01*
X-23508457Y19390314D01*
X-23579885Y19426028D01*
X-23651314Y19497457D01*
X-23687028Y19640314D01*
X-23687028Y19890314D01*
X-23651314Y20033171D01*
X-23579885Y20104600D01*
X-23508457Y20140314D01*
X-23044171Y19318885D02*
X-22472742Y19318885D01*
X-21901314Y19390314D02*
X-22329885Y19390314D01*
X-22115600Y19390314D02*
X-22115600Y20140314D01*
X-22187028Y20033171D01*
X-22258457Y19961742D01*
X-22329885Y19926028D01*
X-21187028Y19390314D02*
X-21615600Y19390314D01*
X-21401314Y19390314D02*
X-21401314Y20140314D01*
X-21472742Y20033171D01*
X-21544171Y19961742D01*
X-21615600Y19926028D01*
X-25115600Y-300400D02*
X-25187028Y-264685D01*
X-25294171Y-264685D01*
X-25401314Y-300400D01*
X-25472742Y-371828D01*
X-25508457Y-443257D01*
X-25544171Y-586114D01*
X-25544171Y-693257D01*
X-25508457Y-836114D01*
X-25472742Y-907542D01*
X-25401314Y-978971D01*
X-25294171Y-1014685D01*
X-25222742Y-1014685D01*
X-25115600Y-978971D01*
X-25079885Y-943257D01*
X-25079885Y-693257D01*
X-25222742Y-693257D01*
X-24758457Y-1014685D02*
X-24758457Y-264685D01*
X-24472742Y-264685D01*
X-24401314Y-300400D01*
X-24365600Y-336114D01*
X-24329885Y-407542D01*
X-24329885Y-514685D01*
X-24365600Y-586114D01*
X-24401314Y-621828D01*
X-24472742Y-657542D01*
X-24758457Y-657542D01*
X-24008457Y-1014685D02*
X-24008457Y-264685D01*
X-23508457Y-264685D02*
X-23365600Y-264685D01*
X-23294171Y-300400D01*
X-23222742Y-371828D01*
X-23187028Y-514685D01*
X-23187028Y-764685D01*
X-23222742Y-907542D01*
X-23294171Y-978971D01*
X-23365600Y-1014685D01*
X-23508457Y-1014685D01*
X-23579885Y-978971D01*
X-23651314Y-907542D01*
X-23687028Y-764685D01*
X-23687028Y-514685D01*
X-23651314Y-371828D01*
X-23579885Y-300400D01*
X-23508457Y-264685D01*
X-23044171Y-1086114D02*
X-22472742Y-1086114D01*
X-21901314Y-1014685D02*
X-22329885Y-1014685D01*
X-22115600Y-1014685D02*
X-22115600Y-264685D01*
X-22187028Y-371828D01*
X-22258457Y-443257D01*
X-22329885Y-478971D01*
X-21544171Y-1014685D02*
X-21401314Y-1014685D01*
X-21329885Y-978971D01*
X-21294171Y-943257D01*
X-21222742Y-836114D01*
X-21187028Y-693257D01*
X-21187028Y-407542D01*
X-21222742Y-336114D01*
X-21258457Y-300400D01*
X-21329885Y-264685D01*
X-21472742Y-264685D01*
X-21544171Y-300400D01*
X-21579885Y-336114D01*
X-21615600Y-407542D01*
X-21615600Y-586114D01*
X-21579885Y-657542D01*
X-21544171Y-693257D01*
X-21472742Y-728971D01*
X-21329885Y-728971D01*
X-21258457Y-693257D01*
X-21222742Y-657542D01*
X-21187028Y-586114D01*
X-36294313Y9810000D02*
X-36365742Y9845714D01*
X-36472885Y9845714D01*
X-36580027Y9810000D01*
X-36651456Y9738571D01*
X-36687170Y9667142D01*
X-36722885Y9524285D01*
X-36722885Y9417142D01*
X-36687170Y9274285D01*
X-36651456Y9202857D01*
X-36580027Y9131428D01*
X-36472885Y9095714D01*
X-36401456Y9095714D01*
X-36294313Y9131428D01*
X-36258599Y9167142D01*
X-36258599Y9417142D01*
X-36401456Y9417142D01*
X-35937170Y9095714D02*
X-35937170Y9845714D01*
X-35508599Y9095714D01*
X-35508599Y9845714D01*
X-35151456Y9095714D02*
X-35151456Y9845714D01*
X-34972885Y9845714D01*
X-34865742Y9810000D01*
X-34794313Y9738571D01*
X-34758599Y9667142D01*
X-34722885Y9524285D01*
X-34722885Y9417142D01*
X-34758599Y9274285D01*
X-34794313Y9202857D01*
X-34865742Y9131428D01*
X-34972885Y9095714D01*
X-35151456Y9095714D01*
X21557142Y-229285D02*
X21985714Y-229285D01*
X21771428Y-979285D02*
X21771428Y-229285D01*
X22235714Y-586428D02*
X22485714Y-586428D01*
X22592857Y-979285D02*
X22235714Y-979285D01*
X22235714Y-229285D01*
X22592857Y-229285D01*
X23271428Y-979285D02*
X22914285Y-979285D01*
X22914285Y-229285D01*
X23521428Y-586428D02*
X23771428Y-586428D01*
X23878571Y-979285D02*
X23521428Y-979285D01*
X23521428Y-229285D01*
X23878571Y-229285D01*
X24200000Y-979285D02*
X24200000Y-229285D01*
X24450000Y-765000D01*
X24700000Y-229285D01*
X24700000Y-979285D01*
X24878571Y-1050714D02*
X25450000Y-1050714D01*
X26057142Y-907857D02*
X26021428Y-943571D01*
X25914285Y-979285D01*
X25842857Y-979285D01*
X25735714Y-943571D01*
X25664285Y-872142D01*
X25628571Y-800714D01*
X25592857Y-657857D01*
X25592857Y-550714D01*
X25628571Y-407857D01*
X25664285Y-336428D01*
X25735714Y-265000D01*
X25842857Y-229285D01*
X25914285Y-229285D01*
X26021428Y-265000D01*
X26057142Y-300714D01*
X26342857Y-943571D02*
X26450000Y-979285D01*
X26628571Y-979285D01*
X26700000Y-943571D01*
X26735714Y-907857D01*
X26771428Y-836428D01*
X26771428Y-765000D01*
X26735714Y-693571D01*
X26700000Y-657857D01*
X26628571Y-622142D01*
X26485714Y-586428D01*
X26414285Y-550714D01*
X26378571Y-515000D01*
X26342857Y-443571D01*
X26342857Y-372142D01*
X26378571Y-300714D01*
X26414285Y-265000D01*
X26485714Y-229285D01*
X26664285Y-229285D01*
X26771428Y-265000D01*
X-17971428Y-31153571D02*
X-17400000Y-31153571D01*
X-17685714Y-31439285D02*
X-17685714Y-30867857D01*
X-17114285Y-30939285D02*
X-16935714Y-31439285D01*
X-16757142Y-30939285D02*
X-16935714Y-31439285D01*
X-17007142Y-31617857D01*
X-17042857Y-31653571D01*
X-17114285Y-31689285D01*
X-25115600Y-2815000D02*
X-25187028Y-2779285D01*
X-25294171Y-2779285D01*
X-25401314Y-2815000D01*
X-25472742Y-2886428D01*
X-25508457Y-2957857D01*
X-25544171Y-3100714D01*
X-25544171Y-3207857D01*
X-25508457Y-3350714D01*
X-25472742Y-3422142D01*
X-25401314Y-3493571D01*
X-25294171Y-3529285D01*
X-25222742Y-3529285D01*
X-25115600Y-3493571D01*
X-25079885Y-3457857D01*
X-25079885Y-3207857D01*
X-25222742Y-3207857D01*
X-24758457Y-3529285D02*
X-24758457Y-2779285D01*
X-24472742Y-2779285D01*
X-24401314Y-2815000D01*
X-24365600Y-2850714D01*
X-24329885Y-2922142D01*
X-24329885Y-3029285D01*
X-24365600Y-3100714D01*
X-24401314Y-3136428D01*
X-24472742Y-3172142D01*
X-24758457Y-3172142D01*
X-24008457Y-3529285D02*
X-24008457Y-2779285D01*
X-23508457Y-2779285D02*
X-23365600Y-2779285D01*
X-23294171Y-2815000D01*
X-23222742Y-2886428D01*
X-23187028Y-3029285D01*
X-23187028Y-3279285D01*
X-23222742Y-3422142D01*
X-23294171Y-3493571D01*
X-23365600Y-3529285D01*
X-23508457Y-3529285D01*
X-23579885Y-3493571D01*
X-23651314Y-3422142D01*
X-23687028Y-3279285D01*
X-23687028Y-3029285D01*
X-23651314Y-2886428D01*
X-23579885Y-2815000D01*
X-23508457Y-2779285D01*
X-23044171Y-3600714D02*
X-22472742Y-3600714D01*
X-22329885Y-2850714D02*
X-22294171Y-2815000D01*
X-22222742Y-2779285D01*
X-22044171Y-2779285D01*
X-21972742Y-2815000D01*
X-21937028Y-2850714D01*
X-21901314Y-2922142D01*
X-21901314Y-2993571D01*
X-21937028Y-3100714D01*
X-22365600Y-3529285D01*
X-21901314Y-3529285D01*
X-21437028Y-2779285D02*
X-21365600Y-2779285D01*
X-21294171Y-2815000D01*
X-21258457Y-2850714D01*
X-21222742Y-2922142D01*
X-21187028Y-3065000D01*
X-21187028Y-3243571D01*
X-21222742Y-3386428D01*
X-21258457Y-3457857D01*
X-21294171Y-3493571D01*
X-21365600Y-3529285D01*
X-21437028Y-3529285D01*
X-21508457Y-3493571D01*
X-21544171Y-3457857D01*
X-21579885Y-3386428D01*
X-21615600Y-3243571D01*
X-21615600Y-3065000D01*
X-21579885Y-2922142D01*
X-21544171Y-2850714D01*
X-21508457Y-2815000D01*
X-21437028Y-2779285D01*
X-20178571Y-21199285D02*
X-19750000Y-21199285D01*
X-19964285Y-21949285D02*
X-19964285Y-21199285D01*
X-19500000Y-21556428D02*
X-19250000Y-21556428D01*
X-19142857Y-21949285D02*
X-19500000Y-21949285D01*
X-19500000Y-21199285D01*
X-19142857Y-21199285D01*
X-18464285Y-21949285D02*
X-18821428Y-21949285D01*
X-18821428Y-21199285D01*
X-18214285Y-21556428D02*
X-17964285Y-21556428D01*
X-17857142Y-21949285D02*
X-18214285Y-21949285D01*
X-18214285Y-21199285D01*
X-17857142Y-21199285D01*
X-17535714Y-21949285D02*
X-17535714Y-21199285D01*
X-17285714Y-21735000D01*
X-17035714Y-21199285D01*
X-17035714Y-21949285D01*
X-16857142Y-22020714D02*
X-16285714Y-22020714D01*
X-15678571Y-21949285D02*
X-15928571Y-21592142D01*
X-16107142Y-21949285D02*
X-16107142Y-21199285D01*
X-15821428Y-21199285D01*
X-15750000Y-21235000D01*
X-15714285Y-21270714D01*
X-15678571Y-21342142D01*
X-15678571Y-21449285D01*
X-15714285Y-21520714D01*
X-15750000Y-21556428D01*
X-15821428Y-21592142D01*
X-16107142Y-21592142D01*
X-15392857Y-21913571D02*
X-15285714Y-21949285D01*
X-15107142Y-21949285D01*
X-15035714Y-21913571D01*
X-15000000Y-21877857D01*
X-14964285Y-21806428D01*
X-14964285Y-21735000D01*
X-15000000Y-21663571D01*
X-15035714Y-21627857D01*
X-15107142Y-21592142D01*
X-15250000Y-21556428D01*
X-15321428Y-21520714D01*
X-15357142Y-21485000D01*
X-15392857Y-21413571D01*
X-15392857Y-21342142D01*
X-15357142Y-21270714D01*
X-15321428Y-21235000D01*
X-15250000Y-21199285D01*
X-15071428Y-21199285D01*
X-14964285Y-21235000D01*
X-14750000Y-21199285D02*
X-14321428Y-21199285D01*
X-14535714Y-21949285D02*
X-14535714Y-21199285D01*
X-25115600Y4728800D02*
X-25187028Y4764514D01*
X-25294171Y4764514D01*
X-25401314Y4728800D01*
X-25472742Y4657371D01*
X-25508457Y4585942D01*
X-25544171Y4443085D01*
X-25544171Y4335942D01*
X-25508457Y4193085D01*
X-25472742Y4121657D01*
X-25401314Y4050228D01*
X-25294171Y4014514D01*
X-25222742Y4014514D01*
X-25115600Y4050228D01*
X-25079885Y4085942D01*
X-25079885Y4335942D01*
X-25222742Y4335942D01*
X-24758457Y4014514D02*
X-24758457Y4764514D01*
X-24472742Y4764514D01*
X-24401314Y4728800D01*
X-24365600Y4693085D01*
X-24329885Y4621657D01*
X-24329885Y4514514D01*
X-24365600Y4443085D01*
X-24401314Y4407371D01*
X-24472742Y4371657D01*
X-24758457Y4371657D01*
X-24008457Y4014514D02*
X-24008457Y4764514D01*
X-23508457Y4764514D02*
X-23365600Y4764514D01*
X-23294171Y4728800D01*
X-23222742Y4657371D01*
X-23187028Y4514514D01*
X-23187028Y4264514D01*
X-23222742Y4121657D01*
X-23294171Y4050228D01*
X-23365600Y4014514D01*
X-23508457Y4014514D01*
X-23579885Y4050228D01*
X-23651314Y4121657D01*
X-23687028Y4264514D01*
X-23687028Y4514514D01*
X-23651314Y4657371D01*
X-23579885Y4728800D01*
X-23508457Y4764514D01*
X-23044171Y3943085D02*
X-22472742Y3943085D01*
X-21901314Y4014514D02*
X-22329885Y4014514D01*
X-22115600Y4014514D02*
X-22115600Y4764514D01*
X-22187028Y4657371D01*
X-22258457Y4585942D01*
X-22329885Y4550228D01*
X-21651314Y4764514D02*
X-21151314Y4764514D01*
X-21472742Y4014514D01*
X7837142Y-23839285D02*
X7837142Y-23089285D01*
X7837142Y-23446428D02*
X8265714Y-23446428D01*
X8265714Y-23839285D02*
X8265714Y-23089285D01*
X8622857Y-23839285D02*
X8622857Y-23339285D01*
X8622857Y-23089285D02*
X8587142Y-23125000D01*
X8622857Y-23160714D01*
X8658571Y-23125000D01*
X8622857Y-23089285D01*
X8622857Y-23160714D01*
X9551428Y-23839285D02*
X9551428Y-23089285D01*
X9837142Y-23089285D01*
X9908571Y-23125000D01*
X9944285Y-23160714D01*
X9980000Y-23232142D01*
X9980000Y-23339285D01*
X9944285Y-23410714D01*
X9908571Y-23446428D01*
X9837142Y-23482142D01*
X9551428Y-23482142D01*
X10587142Y-23803571D02*
X10515714Y-23839285D01*
X10372857Y-23839285D01*
X10301428Y-23803571D01*
X10265714Y-23732142D01*
X10265714Y-23446428D01*
X10301428Y-23375000D01*
X10372857Y-23339285D01*
X10515714Y-23339285D01*
X10587142Y-23375000D01*
X10622857Y-23446428D01*
X10622857Y-23517857D01*
X10265714Y-23589285D01*
X10837142Y-23339285D02*
X11122857Y-23339285D01*
X10944285Y-23089285D02*
X10944285Y-23732142D01*
X10980000Y-23803571D01*
X11051428Y-23839285D01*
X11122857Y-23839285D01*
X11658571Y-23803571D02*
X11587142Y-23839285D01*
X11444285Y-23839285D01*
X11372857Y-23803571D01*
X11337142Y-23732142D01*
X11337142Y-23446428D01*
X11372857Y-23375000D01*
X11444285Y-23339285D01*
X11587142Y-23339285D01*
X11658571Y-23375000D01*
X11694285Y-23446428D01*
X11694285Y-23517857D01*
X11337142Y-23589285D01*
X12015714Y-23839285D02*
X12015714Y-23339285D01*
X12015714Y-23482142D02*
X12051428Y-23410714D01*
X12087142Y-23375000D01*
X12158571Y-23339285D01*
X12230000Y-23339285D01*
X4665714Y-11349285D02*
X5094285Y-11349285D01*
X4880000Y-12099285D02*
X4880000Y-11349285D01*
X5165714Y-12170714D02*
X5737142Y-12170714D01*
X6308571Y-11385000D02*
X6237142Y-11349285D01*
X6130000Y-11349285D01*
X6022857Y-11385000D01*
X5951428Y-11456428D01*
X5915714Y-11527857D01*
X5880000Y-11670714D01*
X5880000Y-11777857D01*
X5915714Y-11920714D01*
X5951428Y-11992142D01*
X6022857Y-12063571D01*
X6130000Y-12099285D01*
X6201428Y-12099285D01*
X6308571Y-12063571D01*
X6344285Y-12027857D01*
X6344285Y-11777857D01*
X6201428Y-11777857D01*
X6665714Y-12099285D02*
X6665714Y-11349285D01*
X6951428Y-11349285D01*
X7022857Y-11385000D01*
X7058571Y-11420714D01*
X7094285Y-11492142D01*
X7094285Y-11599285D01*
X7058571Y-11670714D01*
X7022857Y-11706428D01*
X6951428Y-11742142D01*
X6665714Y-11742142D01*
X7415714Y-12099285D02*
X7415714Y-11349285D01*
X7915714Y-11349285D02*
X8058571Y-11349285D01*
X8130000Y-11385000D01*
X8201428Y-11456428D01*
X8237142Y-11599285D01*
X8237142Y-11849285D01*
X8201428Y-11992142D01*
X8130000Y-12063571D01*
X8058571Y-12099285D01*
X7915714Y-12099285D01*
X7844285Y-12063571D01*
X7772857Y-11992142D01*
X7737142Y-11849285D01*
X7737142Y-11599285D01*
X7772857Y-11456428D01*
X7844285Y-11385000D01*
X7915714Y-11349285D01*
X8380000Y-12170714D02*
X8951428Y-12170714D01*
X9094285Y-11420714D02*
X9130000Y-11385000D01*
X9201428Y-11349285D01*
X9380000Y-11349285D01*
X9451428Y-11385000D01*
X9487142Y-11420714D01*
X9522857Y-11492142D01*
X9522857Y-11563571D01*
X9487142Y-11670714D01*
X9058571Y-12099285D01*
X9522857Y-12099285D01*
X23847142Y20055000D02*
X23775714Y20090714D01*
X23668571Y20090714D01*
X23561428Y20055000D01*
X23490000Y19983571D01*
X23454285Y19912142D01*
X23418571Y19769285D01*
X23418571Y19662142D01*
X23454285Y19519285D01*
X23490000Y19447857D01*
X23561428Y19376428D01*
X23668571Y19340714D01*
X23740000Y19340714D01*
X23847142Y19376428D01*
X23882857Y19412142D01*
X23882857Y19662142D01*
X23740000Y19662142D01*
X24204285Y19340714D02*
X24204285Y20090714D01*
X24490000Y20090714D01*
X24561428Y20055000D01*
X24597142Y20019285D01*
X24632857Y19947857D01*
X24632857Y19840714D01*
X24597142Y19769285D01*
X24561428Y19733571D01*
X24490000Y19697857D01*
X24204285Y19697857D01*
X24954285Y19340714D02*
X24954285Y20090714D01*
X25454285Y20090714D02*
X25597142Y20090714D01*
X25668571Y20055000D01*
X25740000Y19983571D01*
X25775714Y19840714D01*
X25775714Y19590714D01*
X25740000Y19447857D01*
X25668571Y19376428D01*
X25597142Y19340714D01*
X25454285Y19340714D01*
X25382857Y19376428D01*
X25311428Y19447857D01*
X25275714Y19590714D01*
X25275714Y19840714D01*
X25311428Y19983571D01*
X25382857Y20055000D01*
X25454285Y20090714D01*
X25918571Y19269285D02*
X26490000Y19269285D01*
X26597142Y20090714D02*
X27061428Y20090714D01*
X26811428Y19805000D01*
X26918571Y19805000D01*
X26990000Y19769285D01*
X27025714Y19733571D01*
X27061428Y19662142D01*
X27061428Y19483571D01*
X27025714Y19412142D01*
X26990000Y19376428D01*
X26918571Y19340714D01*
X26704285Y19340714D01*
X26632857Y19376428D01*
X26597142Y19412142D01*
X19782857Y6610714D02*
X19782857Y7360714D01*
X20068571Y7360714D01*
X20140000Y7325000D01*
X20175714Y7289285D01*
X20211428Y7217857D01*
X20211428Y7110714D01*
X20175714Y7039285D01*
X20140000Y7003571D01*
X20068571Y6967857D01*
X19782857Y6967857D01*
X20675714Y7360714D02*
X20818571Y7360714D01*
X20890000Y7325000D01*
X20961428Y7253571D01*
X20997142Y7110714D01*
X20997142Y6860714D01*
X20961428Y6717857D01*
X20890000Y6646428D01*
X20818571Y6610714D01*
X20675714Y6610714D01*
X20604285Y6646428D01*
X20532857Y6717857D01*
X20497142Y6860714D01*
X20497142Y7110714D01*
X20532857Y7253571D01*
X20604285Y7325000D01*
X20675714Y7360714D01*
X21247142Y7360714D02*
X21425714Y6610714D01*
X21568571Y7146428D01*
X21711428Y6610714D01*
X21890000Y7360714D01*
X22175714Y7003571D02*
X22425714Y7003571D01*
X22532857Y6610714D02*
X22175714Y6610714D01*
X22175714Y7360714D01*
X22532857Y7360714D01*
X23282857Y6610714D02*
X23032857Y6967857D01*
X22854285Y6610714D02*
X22854285Y7360714D01*
X23140000Y7360714D01*
X23211428Y7325000D01*
X23247142Y7289285D01*
X23282857Y7217857D01*
X23282857Y7110714D01*
X23247142Y7039285D01*
X23211428Y7003571D01*
X23140000Y6967857D01*
X22854285Y6967857D01*
X23425714Y6539285D02*
X23997142Y6539285D01*
X24140000Y6646428D02*
X24247142Y6610714D01*
X24425714Y6610714D01*
X24497142Y6646428D01*
X24532857Y6682142D01*
X24568571Y6753571D01*
X24568571Y6825000D01*
X24532857Y6896428D01*
X24497142Y6932142D01*
X24425714Y6967857D01*
X24282857Y7003571D01*
X24211428Y7039285D01*
X24175714Y7075000D01*
X24140000Y7146428D01*
X24140000Y7217857D01*
X24175714Y7289285D01*
X24211428Y7325000D01*
X24282857Y7360714D01*
X24461428Y7360714D01*
X24568571Y7325000D01*
X24782857Y7360714D02*
X25211428Y7360714D01*
X24997142Y6610714D02*
X24997142Y7360714D01*
X25425714Y6825000D02*
X25782857Y6825000D01*
X25354285Y6610714D02*
X25604285Y7360714D01*
X25854285Y6610714D01*
X25997142Y7360714D02*
X26425714Y7360714D01*
X26211428Y6610714D02*
X26211428Y7360714D01*
X26675714Y7003571D02*
X26925714Y7003571D01*
X27032857Y6610714D02*
X26675714Y6610714D01*
X26675714Y7360714D01*
X27032857Y7360714D01*
X-35401457Y17265714D02*
X-35758600Y17265714D01*
X-35794314Y16908571D01*
X-35758600Y16944285D01*
X-35687171Y16980000D01*
X-35508600Y16980000D01*
X-35437171Y16944285D01*
X-35401457Y16908571D01*
X-35365742Y16837142D01*
X-35365742Y16658571D01*
X-35401457Y16587142D01*
X-35437171Y16551428D01*
X-35508600Y16515714D01*
X-35687171Y16515714D01*
X-35758600Y16551428D01*
X-35794314Y16587142D01*
X-35151457Y17265714D02*
X-34901457Y16515714D01*
X-34651457Y17265714D01*
X-36294313Y7240000D02*
X-36365742Y7275714D01*
X-36472885Y7275714D01*
X-36580027Y7240000D01*
X-36651456Y7168571D01*
X-36687170Y7097142D01*
X-36722885Y6954285D01*
X-36722885Y6847142D01*
X-36687170Y6704285D01*
X-36651456Y6632857D01*
X-36580027Y6561428D01*
X-36472885Y6525714D01*
X-36401456Y6525714D01*
X-36294313Y6561428D01*
X-36258599Y6597142D01*
X-36258599Y6847142D01*
X-36401456Y6847142D01*
X-35937170Y6525714D02*
X-35937170Y7275714D01*
X-35508599Y6525714D01*
X-35508599Y7275714D01*
X-35151456Y6525714D02*
X-35151456Y7275714D01*
X-34972885Y7275714D01*
X-34865742Y7240000D01*
X-34794313Y7168571D01*
X-34758599Y7097142D01*
X-34722885Y6954285D01*
X-34722885Y6847142D01*
X-34758599Y6704285D01*
X-34794313Y6632857D01*
X-34865742Y6561428D01*
X-34972885Y6525714D01*
X-35151456Y6525714D01*
X-36916742Y22747714D02*
X-36666742Y21997714D01*
X-36416742Y22747714D01*
X-35916742Y22390571D02*
X-35809600Y22354857D01*
X-35773885Y22319142D01*
X-35738171Y22247714D01*
X-35738171Y22140571D01*
X-35773885Y22069142D01*
X-35809600Y22033428D01*
X-35881028Y21997714D01*
X-36166742Y21997714D01*
X-36166742Y22747714D01*
X-35916742Y22747714D01*
X-35845314Y22712000D01*
X-35809600Y22676285D01*
X-35773885Y22604857D01*
X-35773885Y22533428D01*
X-35809600Y22462000D01*
X-35845314Y22426285D01*
X-35916742Y22390571D01*
X-36166742Y22390571D01*
X-35452457Y22212000D02*
X-35095314Y22212000D01*
X-35523885Y21997714D02*
X-35273885Y22747714D01*
X-35023885Y21997714D01*
X-34881028Y22747714D02*
X-34452457Y22747714D01*
X-34666742Y21997714D02*
X-34666742Y22747714D01*
X-36544314Y14795714D02*
X-36080028Y14795714D01*
X-36330028Y14510000D01*
X-36222885Y14510000D01*
X-36151457Y14474285D01*
X-36115743Y14438571D01*
X-36080028Y14367142D01*
X-36080028Y14188571D01*
X-36115743Y14117142D01*
X-36151457Y14081428D01*
X-36222885Y14045714D01*
X-36437171Y14045714D01*
X-36508600Y14081428D01*
X-36544314Y14117142D01*
X-35865743Y14795714D02*
X-35615743Y14045714D01*
X-35365743Y14795714D01*
X-35187171Y14795714D02*
X-34722885Y14795714D01*
X-34972885Y14510000D01*
X-34865743Y14510000D01*
X-34794314Y14474285D01*
X-34758600Y14438571D01*
X-34722885Y14367142D01*
X-34722885Y14188571D01*
X-34758600Y14117142D01*
X-34794314Y14081428D01*
X-34865743Y14045714D01*
X-35080028Y14045714D01*
X-35151457Y14081428D01*
X-35187171Y14117142D01*
X33949285Y21866428D02*
X34056428Y21830714D01*
X34235000Y21830714D01*
X34306428Y21866428D01*
X34342142Y21902142D01*
X34377857Y21973571D01*
X34377857Y22045000D01*
X34342142Y22116428D01*
X34306428Y22152142D01*
X34235000Y22187857D01*
X34092142Y22223571D01*
X34020714Y22259285D01*
X33985000Y22295000D01*
X33949285Y22366428D01*
X33949285Y22437857D01*
X33985000Y22509285D01*
X34020714Y22545000D01*
X34092142Y22580714D01*
X34270714Y22580714D01*
X34377857Y22545000D01*
X34699285Y21830714D02*
X34699285Y22580714D01*
X34877857Y22580714D01*
X34985000Y22545000D01*
X35056428Y22473571D01*
X35092142Y22402142D01*
X35127857Y22259285D01*
X35127857Y22152142D01*
X35092142Y22009285D01*
X35056428Y21937857D01*
X34985000Y21866428D01*
X34877857Y21830714D01*
X34699285Y21830714D01*
X35413571Y22045000D02*
X35770714Y22045000D01*
X35342142Y21830714D02*
X35592142Y22580714D01*
X35842142Y21830714D01*
X34241428Y2250714D02*
X34705714Y2250714D01*
X34455714Y1965000D01*
X34562857Y1965000D01*
X34634285Y1929285D01*
X34670000Y1893571D01*
X34705714Y1822142D01*
X34705714Y1643571D01*
X34670000Y1572142D01*
X34634285Y1536428D01*
X34562857Y1500714D01*
X34348571Y1500714D01*
X34277142Y1536428D01*
X34241428Y1572142D01*
X34920000Y2250714D02*
X35170000Y1500714D01*
X35420000Y2250714D01*
X35598571Y2250714D02*
X36062857Y2250714D01*
X35812857Y1965000D01*
X35920000Y1965000D01*
X35991428Y1929285D01*
X36027142Y1893571D01*
X36062857Y1822142D01*
X36062857Y1643571D01*
X36027142Y1572142D01*
X35991428Y1536428D01*
X35920000Y1500714D01*
X35705714Y1500714D01*
X35634285Y1536428D01*
X35598571Y1572142D01*
X4731428Y-17209285D02*
X5195714Y-17209285D01*
X4945714Y-17495000D01*
X5052857Y-17495000D01*
X5124285Y-17530714D01*
X5160000Y-17566428D01*
X5195714Y-17637857D01*
X5195714Y-17816428D01*
X5160000Y-17887857D01*
X5124285Y-17923571D01*
X5052857Y-17959285D01*
X4838571Y-17959285D01*
X4767142Y-17923571D01*
X4731428Y-17887857D01*
X5410000Y-17209285D02*
X5660000Y-17959285D01*
X5910000Y-17209285D01*
X6088571Y-17209285D02*
X6552857Y-17209285D01*
X6302857Y-17495000D01*
X6410000Y-17495000D01*
X6481428Y-17530714D01*
X6517142Y-17566428D01*
X6552857Y-17637857D01*
X6552857Y-17816428D01*
X6517142Y-17887857D01*
X6481428Y-17923571D01*
X6410000Y-17959285D01*
X6195714Y-17959285D01*
X6124285Y-17923571D01*
X6088571Y-17887857D01*
X-25115600Y9986600D02*
X-25187028Y10022314D01*
X-25294171Y10022314D01*
X-25401314Y9986600D01*
X-25472742Y9915171D01*
X-25508457Y9843742D01*
X-25544171Y9700885D01*
X-25544171Y9593742D01*
X-25508457Y9450885D01*
X-25472742Y9379457D01*
X-25401314Y9308028D01*
X-25294171Y9272314D01*
X-25222742Y9272314D01*
X-25115600Y9308028D01*
X-25079885Y9343742D01*
X-25079885Y9593742D01*
X-25222742Y9593742D01*
X-24758457Y9272314D02*
X-24758457Y10022314D01*
X-24472742Y10022314D01*
X-24401314Y9986600D01*
X-24365600Y9950885D01*
X-24329885Y9879457D01*
X-24329885Y9772314D01*
X-24365600Y9700885D01*
X-24401314Y9665171D01*
X-24472742Y9629457D01*
X-24758457Y9629457D01*
X-24008457Y9272314D02*
X-24008457Y10022314D01*
X-23508457Y10022314D02*
X-23365600Y10022314D01*
X-23294171Y9986600D01*
X-23222742Y9915171D01*
X-23187028Y9772314D01*
X-23187028Y9522314D01*
X-23222742Y9379457D01*
X-23294171Y9308028D01*
X-23365600Y9272314D01*
X-23508457Y9272314D01*
X-23579885Y9308028D01*
X-23651314Y9379457D01*
X-23687028Y9522314D01*
X-23687028Y9772314D01*
X-23651314Y9915171D01*
X-23579885Y9986600D01*
X-23508457Y10022314D01*
X-23044171Y9200885D02*
X-22472742Y9200885D01*
X-21901314Y9272314D02*
X-22329885Y9272314D01*
X-22115600Y9272314D02*
X-22115600Y10022314D01*
X-22187028Y9915171D01*
X-22258457Y9843742D01*
X-22329885Y9808028D01*
X-21222742Y10022314D02*
X-21579885Y10022314D01*
X-21615600Y9665171D01*
X-21579885Y9700885D01*
X-21508457Y9736600D01*
X-21329885Y9736600D01*
X-21258457Y9700885D01*
X-21222742Y9665171D01*
X-21187028Y9593742D01*
X-21187028Y9415171D01*
X-21222742Y9343742D01*
X-21258457Y9308028D01*
X-21329885Y9272314D01*
X-21508457Y9272314D01*
X-21579885Y9308028D01*
X-21615600Y9343742D01*
X23867142Y17515000D02*
X23795714Y17550714D01*
X23688571Y17550714D01*
X23581428Y17515000D01*
X23510000Y17443571D01*
X23474285Y17372142D01*
X23438571Y17229285D01*
X23438571Y17122142D01*
X23474285Y16979285D01*
X23510000Y16907857D01*
X23581428Y16836428D01*
X23688571Y16800714D01*
X23760000Y16800714D01*
X23867142Y16836428D01*
X23902857Y16872142D01*
X23902857Y17122142D01*
X23760000Y17122142D01*
X24224285Y16800714D02*
X24224285Y17550714D01*
X24510000Y17550714D01*
X24581428Y17515000D01*
X24617142Y17479285D01*
X24652857Y17407857D01*
X24652857Y17300714D01*
X24617142Y17229285D01*
X24581428Y17193571D01*
X24510000Y17157857D01*
X24224285Y17157857D01*
X24974285Y16800714D02*
X24974285Y17550714D01*
X25474285Y17550714D02*
X25617142Y17550714D01*
X25688571Y17515000D01*
X25760000Y17443571D01*
X25795714Y17300714D01*
X25795714Y17050714D01*
X25760000Y16907857D01*
X25688571Y16836428D01*
X25617142Y16800714D01*
X25474285Y16800714D01*
X25402857Y16836428D01*
X25331428Y16907857D01*
X25295714Y17050714D01*
X25295714Y17300714D01*
X25331428Y17443571D01*
X25402857Y17515000D01*
X25474285Y17550714D01*
X25938571Y16729285D02*
X26510000Y16729285D01*
X26652857Y17479285D02*
X26688571Y17515000D01*
X26760000Y17550714D01*
X26938571Y17550714D01*
X27010000Y17515000D01*
X27045714Y17479285D01*
X27081428Y17407857D01*
X27081428Y17336428D01*
X27045714Y17229285D01*
X26617142Y16800714D01*
X27081428Y16800714D01*
X-37937171Y-300000D02*
X-38008599Y-264285D01*
X-38115742Y-264285D01*
X-38222885Y-300000D01*
X-38294314Y-371428D01*
X-38330028Y-442857D01*
X-38365742Y-585714D01*
X-38365742Y-692857D01*
X-38330028Y-835714D01*
X-38294314Y-907142D01*
X-38222885Y-978571D01*
X-38115742Y-1014285D01*
X-38044314Y-1014285D01*
X-37937171Y-978571D01*
X-37901456Y-942857D01*
X-37901456Y-692857D01*
X-38044314Y-692857D01*
X-37580028Y-1014285D02*
X-37580028Y-264285D01*
X-37294314Y-264285D01*
X-37222885Y-300000D01*
X-37187171Y-335714D01*
X-37151456Y-407142D01*
X-37151456Y-514285D01*
X-37187171Y-585714D01*
X-37222885Y-621428D01*
X-37294314Y-657142D01*
X-37580028Y-657142D01*
X-36830028Y-1014285D02*
X-36830028Y-264285D01*
X-36330028Y-264285D02*
X-36187171Y-264285D01*
X-36115742Y-300000D01*
X-36044314Y-371428D01*
X-36008599Y-514285D01*
X-36008599Y-764285D01*
X-36044314Y-907142D01*
X-36115742Y-978571D01*
X-36187171Y-1014285D01*
X-36330028Y-1014285D01*
X-36401456Y-978571D01*
X-36472885Y-907142D01*
X-36508599Y-764285D01*
X-36508599Y-514285D01*
X-36472885Y-371428D01*
X-36401456Y-300000D01*
X-36330028Y-264285D01*
X-35865742Y-1085714D02*
X-35294314Y-1085714D01*
X-35187171Y-264285D02*
X-34687171Y-264285D01*
X-35008599Y-1014285D01*
X-19562857Y-18979285D02*
X-19134285Y-18979285D01*
X-19348571Y-19729285D02*
X-19348571Y-18979285D01*
X-18884285Y-19336428D02*
X-18634285Y-19336428D01*
X-18527142Y-19729285D02*
X-18884285Y-19729285D01*
X-18884285Y-18979285D01*
X-18527142Y-18979285D01*
X-17848571Y-19729285D02*
X-18205714Y-19729285D01*
X-18205714Y-18979285D01*
X-17598571Y-19336428D02*
X-17348571Y-19336428D01*
X-17241428Y-19729285D02*
X-17598571Y-19729285D01*
X-17598571Y-18979285D01*
X-17241428Y-18979285D01*
X-16920000Y-19729285D02*
X-16920000Y-18979285D01*
X-16669999Y-19515000D01*
X-16419999Y-18979285D01*
X-16419999Y-19729285D01*
X-16241428Y-19800714D02*
X-15669999Y-19800714D01*
X-15062857Y-19657857D02*
X-15098571Y-19693571D01*
X-15205714Y-19729285D01*
X-15277142Y-19729285D01*
X-15384285Y-19693571D01*
X-15455714Y-19622142D01*
X-15491428Y-19550714D01*
X-15527142Y-19407857D01*
X-15527142Y-19300714D01*
X-15491428Y-19157857D01*
X-15455714Y-19086428D01*
X-15384285Y-19015000D01*
X-15277142Y-18979285D01*
X-15205714Y-18979285D01*
X-15098571Y-19015000D01*
X-15062857Y-19050714D01*
X-14777142Y-19693571D02*
X-14669999Y-19729285D01*
X-14491428Y-19729285D01*
X-14419999Y-19693571D01*
X-14384285Y-19657857D01*
X-14348571Y-19586428D01*
X-14348571Y-19515000D01*
X-14384285Y-19443571D01*
X-14419999Y-19407857D01*
X-14491428Y-19372142D01*
X-14634285Y-19336428D01*
X-14705714Y-19300714D01*
X-14741428Y-19265000D01*
X-14777142Y-19193571D01*
X-14777142Y-19122142D01*
X-14741428Y-19050714D01*
X-14705714Y-19015000D01*
X-14634285Y-18979285D01*
X-14455714Y-18979285D01*
X-14348571Y-19015000D01*
X4702142Y-15189285D02*
X5130714Y-15189285D01*
X4916428Y-15939285D02*
X4916428Y-15189285D01*
X5380714Y-15546428D02*
X5630714Y-15546428D01*
X5737857Y-15939285D02*
X5380714Y-15939285D01*
X5380714Y-15189285D01*
X5737857Y-15189285D01*
X6416428Y-15939285D02*
X6059285Y-15939285D01*
X6059285Y-15189285D01*
X6666428Y-15546428D02*
X6916428Y-15546428D01*
X7023571Y-15939285D02*
X6666428Y-15939285D01*
X6666428Y-15189285D01*
X7023571Y-15189285D01*
X7345000Y-15939285D02*
X7345000Y-15189285D01*
X7595000Y-15725000D01*
X7845000Y-15189285D01*
X7845000Y-15939285D01*
X8023571Y-16010714D02*
X8595000Y-16010714D01*
X8773571Y-15939285D02*
X8773571Y-15189285D01*
X9130714Y-15939285D02*
X9130714Y-15189285D01*
X9559285Y-15939285D01*
X9559285Y-15189285D01*
X9809285Y-15189285D02*
X10237857Y-15189285D01*
X10023571Y-15939285D02*
X10023571Y-15189285D01*
X-25115600Y14888800D02*
X-25187028Y14924514D01*
X-25294171Y14924514D01*
X-25401314Y14888800D01*
X-25472742Y14817371D01*
X-25508457Y14745942D01*
X-25544171Y14603085D01*
X-25544171Y14495942D01*
X-25508457Y14353085D01*
X-25472742Y14281657D01*
X-25401314Y14210228D01*
X-25294171Y14174514D01*
X-25222742Y14174514D01*
X-25115600Y14210228D01*
X-25079885Y14245942D01*
X-25079885Y14495942D01*
X-25222742Y14495942D01*
X-24758457Y14174514D02*
X-24758457Y14924514D01*
X-24472742Y14924514D01*
X-24401314Y14888800D01*
X-24365600Y14853085D01*
X-24329885Y14781657D01*
X-24329885Y14674514D01*
X-24365600Y14603085D01*
X-24401314Y14567371D01*
X-24472742Y14531657D01*
X-24758457Y14531657D01*
X-24008457Y14174514D02*
X-24008457Y14924514D01*
X-23508457Y14924514D02*
X-23365600Y14924514D01*
X-23294171Y14888800D01*
X-23222742Y14817371D01*
X-23187028Y14674514D01*
X-23187028Y14424514D01*
X-23222742Y14281657D01*
X-23294171Y14210228D01*
X-23365600Y14174514D01*
X-23508457Y14174514D01*
X-23579885Y14210228D01*
X-23651314Y14281657D01*
X-23687028Y14424514D01*
X-23687028Y14674514D01*
X-23651314Y14817371D01*
X-23579885Y14888800D01*
X-23508457Y14924514D01*
X-23044171Y14103085D02*
X-22472742Y14103085D01*
X-21901314Y14174514D02*
X-22329885Y14174514D01*
X-22115600Y14174514D02*
X-22115600Y14924514D01*
X-22187028Y14817371D01*
X-22258457Y14745942D01*
X-22329885Y14710228D01*
X-21651314Y14924514D02*
X-21187028Y14924514D01*
X-21437028Y14638800D01*
X-21329885Y14638800D01*
X-21258457Y14603085D01*
X-21222742Y14567371D01*
X-21187028Y14495942D01*
X-21187028Y14317371D01*
X-21222742Y14245942D01*
X-21258457Y14210228D01*
X-21329885Y14174514D01*
X-21544171Y14174514D01*
X-21615600Y14210228D01*
X-21651314Y14245942D01*
X23867142Y14975000D02*
X23795714Y15010714D01*
X23688571Y15010714D01*
X23581428Y14975000D01*
X23510000Y14903571D01*
X23474285Y14832142D01*
X23438571Y14689285D01*
X23438571Y14582142D01*
X23474285Y14439285D01*
X23510000Y14367857D01*
X23581428Y14296428D01*
X23688571Y14260714D01*
X23760000Y14260714D01*
X23867142Y14296428D01*
X23902857Y14332142D01*
X23902857Y14582142D01*
X23760000Y14582142D01*
X24224285Y14260714D02*
X24224285Y15010714D01*
X24510000Y15010714D01*
X24581428Y14975000D01*
X24617142Y14939285D01*
X24652857Y14867857D01*
X24652857Y14760714D01*
X24617142Y14689285D01*
X24581428Y14653571D01*
X24510000Y14617857D01*
X24224285Y14617857D01*
X24974285Y14260714D02*
X24974285Y15010714D01*
X25474285Y15010714D02*
X25617142Y15010714D01*
X25688571Y14975000D01*
X25760000Y14903571D01*
X25795714Y14760714D01*
X25795714Y14510714D01*
X25760000Y14367857D01*
X25688571Y14296428D01*
X25617142Y14260714D01*
X25474285Y14260714D01*
X25402857Y14296428D01*
X25331428Y14367857D01*
X25295714Y14510714D01*
X25295714Y14760714D01*
X25331428Y14903571D01*
X25402857Y14975000D01*
X25474285Y15010714D01*
X25938571Y14189285D02*
X26510000Y14189285D01*
X27081428Y14260714D02*
X26652857Y14260714D01*
X26867142Y14260714D02*
X26867142Y15010714D01*
X26795714Y14903571D01*
X26724285Y14832142D01*
X26652857Y14796428D01*
X34688571Y7305000D02*
X34617142Y7340714D01*
X34510000Y7340714D01*
X34402857Y7305000D01*
X34331428Y7233571D01*
X34295714Y7162142D01*
X34260000Y7019285D01*
X34260000Y6912142D01*
X34295714Y6769285D01*
X34331428Y6697857D01*
X34402857Y6626428D01*
X34510000Y6590714D01*
X34581428Y6590714D01*
X34688571Y6626428D01*
X34724285Y6662142D01*
X34724285Y6912142D01*
X34581428Y6912142D01*
X35045714Y6590714D02*
X35045714Y7340714D01*
X35474285Y6590714D01*
X35474285Y7340714D01*
X35831428Y6590714D02*
X35831428Y7340714D01*
X36010000Y7340714D01*
X36117142Y7305000D01*
X36188571Y7233571D01*
X36224285Y7162142D01*
X36260000Y7019285D01*
X36260000Y6912142D01*
X36224285Y6769285D01*
X36188571Y6697857D01*
X36117142Y6626428D01*
X36010000Y6590714D01*
X35831428Y6590714D01*
X-16648571Y-13849285D02*
X-16648571Y-13099285D01*
X-16398571Y-13635000D01*
X-16148571Y-13099285D01*
X-16148571Y-13849285D01*
X-15791428Y-13849285D02*
X-15791428Y-13099285D01*
X-15470000Y-13813571D02*
X-15362857Y-13849285D01*
X-15184285Y-13849285D01*
X-15112857Y-13813571D01*
X-15077142Y-13777857D01*
X-15041428Y-13706428D01*
X-15041428Y-13635000D01*
X-15077142Y-13563571D01*
X-15112857Y-13527857D01*
X-15184285Y-13492142D01*
X-15327142Y-13456428D01*
X-15398571Y-13420714D01*
X-15434285Y-13385000D01*
X-15470000Y-13313571D01*
X-15470000Y-13242142D01*
X-15434285Y-13170714D01*
X-15398571Y-13135000D01*
X-15327142Y-13099285D01*
X-15148571Y-13099285D01*
X-15041428Y-13135000D01*
X-14577142Y-13099285D02*
X-14434285Y-13099285D01*
X-14362857Y-13135000D01*
X-14291428Y-13206428D01*
X-14255714Y-13349285D01*
X-14255714Y-13599285D01*
X-14291428Y-13742142D01*
X-14362857Y-13813571D01*
X-14434285Y-13849285D01*
X-14577142Y-13849285D01*
X-14648571Y-13813571D01*
X-14720000Y-13742142D01*
X-14755714Y-13599285D01*
X-14755714Y-13349285D01*
X-14720000Y-13206428D01*
X-14648571Y-13135000D01*
X-14577142Y-13099285D01*
X33621428Y14220714D02*
X33621428Y14970714D01*
X33871428Y14435000D01*
X34121428Y14970714D01*
X34121428Y14220714D01*
X34621428Y14970714D02*
X34764285Y14970714D01*
X34835714Y14935000D01*
X34907142Y14863571D01*
X34942857Y14720714D01*
X34942857Y14470714D01*
X34907142Y14327857D01*
X34835714Y14256428D01*
X34764285Y14220714D01*
X34621428Y14220714D01*
X34550000Y14256428D01*
X34478571Y14327857D01*
X34442857Y14470714D01*
X34442857Y14720714D01*
X34478571Y14863571D01*
X34550000Y14935000D01*
X34621428Y14970714D01*
X35228571Y14256428D02*
X35335714Y14220714D01*
X35514285Y14220714D01*
X35585714Y14256428D01*
X35621428Y14292142D01*
X35657142Y14363571D01*
X35657142Y14435000D01*
X35621428Y14506428D01*
X35585714Y14542142D01*
X35514285Y14577857D01*
X35371428Y14613571D01*
X35300000Y14649285D01*
X35264285Y14685000D01*
X35228571Y14756428D01*
X35228571Y14827857D01*
X35264285Y14899285D01*
X35300000Y14935000D01*
X35371428Y14970714D01*
X35550000Y14970714D01*
X35657142Y14935000D01*
X35978571Y14220714D02*
X35978571Y14970714D01*
X-28289285Y-30053571D02*
X-27717857Y-30053571D01*
X-28003571Y-30339285D02*
X-28003571Y-29767857D01*
X-27432142Y-30339285D02*
X-27039285Y-29839285D01*
X-27432142Y-29839285D02*
X-27039285Y-30339285D01*
X-16354285Y-17783571D02*
X-16247142Y-17819285D01*
X-16068571Y-17819285D01*
X-15997142Y-17783571D01*
X-15961428Y-17747857D01*
X-15925714Y-17676428D01*
X-15925714Y-17605000D01*
X-15961428Y-17533571D01*
X-15997142Y-17497857D01*
X-16068571Y-17462142D01*
X-16211428Y-17426428D01*
X-16282857Y-17390714D01*
X-16318571Y-17355000D01*
X-16354285Y-17283571D01*
X-16354285Y-17212142D01*
X-16318571Y-17140714D01*
X-16282857Y-17105000D01*
X-16211428Y-17069285D01*
X-16032857Y-17069285D01*
X-15925714Y-17105000D01*
X-15175714Y-17747857D02*
X-15211428Y-17783571D01*
X-15318571Y-17819285D01*
X-15390000Y-17819285D01*
X-15497142Y-17783571D01*
X-15568571Y-17712142D01*
X-15604285Y-17640714D01*
X-15640000Y-17497857D01*
X-15640000Y-17390714D01*
X-15604285Y-17247857D01*
X-15568571Y-17176428D01*
X-15497142Y-17105000D01*
X-15390000Y-17069285D01*
X-15318571Y-17069285D01*
X-15211428Y-17105000D01*
X-15175714Y-17140714D01*
X-14854285Y-17819285D02*
X-14854285Y-17069285D01*
X-14425714Y-17819285D02*
X-14747142Y-17390714D01*
X-14425714Y-17069285D02*
X-14854285Y-17497857D01*
X-15861428Y-11155000D02*
X-15932857Y-11119285D01*
X-16039999Y-11119285D01*
X-16147142Y-11155000D01*
X-16218571Y-11226428D01*
X-16254285Y-11297857D01*
X-16289999Y-11440714D01*
X-16289999Y-11547857D01*
X-16254285Y-11690714D01*
X-16218571Y-11762142D01*
X-16147142Y-11833571D01*
X-16039999Y-11869285D01*
X-15968571Y-11869285D01*
X-15861428Y-11833571D01*
X-15825714Y-11797857D01*
X-15825714Y-11547857D01*
X-15968571Y-11547857D01*
X-15504285Y-11869285D02*
X-15504285Y-11119285D01*
X-15075714Y-11869285D01*
X-15075714Y-11119285D01*
X-14718571Y-11869285D02*
X-14718571Y-11119285D01*
X-14540000Y-11119285D01*
X-14432857Y-11155000D01*
X-14361428Y-11226428D01*
X-14325714Y-11297857D01*
X-14290000Y-11440714D01*
X-14290000Y-11547857D01*
X-14325714Y-11690714D01*
X-14361428Y-11762142D01*
X-14432857Y-11833571D01*
X-14540000Y-11869285D01*
X-14718571Y-11869285D01*
X23847142Y12435000D02*
X23775714Y12470714D01*
X23668571Y12470714D01*
X23561428Y12435000D01*
X23490000Y12363571D01*
X23454285Y12292142D01*
X23418571Y12149285D01*
X23418571Y12042142D01*
X23454285Y11899285D01*
X23490000Y11827857D01*
X23561428Y11756428D01*
X23668571Y11720714D01*
X23740000Y11720714D01*
X23847142Y11756428D01*
X23882857Y11792142D01*
X23882857Y12042142D01*
X23740000Y12042142D01*
X24204285Y11720714D02*
X24204285Y12470714D01*
X24490000Y12470714D01*
X24561428Y12435000D01*
X24597142Y12399285D01*
X24632857Y12327857D01*
X24632857Y12220714D01*
X24597142Y12149285D01*
X24561428Y12113571D01*
X24490000Y12077857D01*
X24204285Y12077857D01*
X24954285Y11720714D02*
X24954285Y12470714D01*
X25454285Y12470714D02*
X25597142Y12470714D01*
X25668571Y12435000D01*
X25740000Y12363571D01*
X25775714Y12220714D01*
X25775714Y11970714D01*
X25740000Y11827857D01*
X25668571Y11756428D01*
X25597142Y11720714D01*
X25454285Y11720714D01*
X25382857Y11756428D01*
X25311428Y11827857D01*
X25275714Y11970714D01*
X25275714Y12220714D01*
X25311428Y12363571D01*
X25382857Y12435000D01*
X25454285Y12470714D01*
X25918571Y11649285D02*
X26490000Y11649285D01*
X26811428Y12470714D02*
X26882857Y12470714D01*
X26954285Y12435000D01*
X26990000Y12399285D01*
X27025714Y12327857D01*
X27061428Y12185000D01*
X27061428Y12006428D01*
X27025714Y11863571D01*
X26990000Y11792142D01*
X26954285Y11756428D01*
X26882857Y11720714D01*
X26811428Y11720714D01*
X26740000Y11756428D01*
X26704285Y11792142D01*
X26668571Y11863571D01*
X26632857Y12006428D01*
X26632857Y12185000D01*
X26668571Y12327857D01*
X26704285Y12399285D01*
X26740000Y12435000D01*
X26811428Y12470714D01*
X34628571Y4835000D02*
X34557142Y4870714D01*
X34450000Y4870714D01*
X34342857Y4835000D01*
X34271428Y4763571D01*
X34235714Y4692142D01*
X34200000Y4549285D01*
X34200000Y4442142D01*
X34235714Y4299285D01*
X34271428Y4227857D01*
X34342857Y4156428D01*
X34450000Y4120714D01*
X34521428Y4120714D01*
X34628571Y4156428D01*
X34664285Y4192142D01*
X34664285Y4442142D01*
X34521428Y4442142D01*
X34985714Y4120714D02*
X34985714Y4870714D01*
X35414285Y4120714D01*
X35414285Y4870714D01*
X35771428Y4120714D02*
X35771428Y4870714D01*
X35950000Y4870714D01*
X36057142Y4835000D01*
X36128571Y4763571D01*
X36164285Y4692142D01*
X36200000Y4549285D01*
X36200000Y4442142D01*
X36164285Y4299285D01*
X36128571Y4227857D01*
X36057142Y4156428D01*
X35950000Y4120714D01*
X35771428Y4120714D01*
X-16648571Y-15819285D02*
X-16648571Y-15069285D01*
X-16398571Y-15605000D01*
X-16148571Y-15069285D01*
X-16148571Y-15819285D01*
X-15648571Y-15069285D02*
X-15505714Y-15069285D01*
X-15434285Y-15105000D01*
X-15362857Y-15176428D01*
X-15327142Y-15319285D01*
X-15327142Y-15569285D01*
X-15362857Y-15712142D01*
X-15434285Y-15783571D01*
X-15505714Y-15819285D01*
X-15648571Y-15819285D01*
X-15720000Y-15783571D01*
X-15791428Y-15712142D01*
X-15827142Y-15569285D01*
X-15827142Y-15319285D01*
X-15791428Y-15176428D01*
X-15720000Y-15105000D01*
X-15648571Y-15069285D01*
X-15041428Y-15783571D02*
X-14934285Y-15819285D01*
X-14755714Y-15819285D01*
X-14684285Y-15783571D01*
X-14648571Y-15747857D01*
X-14612857Y-15676428D01*
X-14612857Y-15605000D01*
X-14648571Y-15533571D01*
X-14684285Y-15497857D01*
X-14755714Y-15462142D01*
X-14898571Y-15426428D01*
X-14970000Y-15390714D01*
X-15005714Y-15355000D01*
X-15041428Y-15283571D01*
X-15041428Y-15212142D01*
X-15005714Y-15140714D01*
X-14970000Y-15105000D01*
X-14898571Y-15069285D01*
X-14720000Y-15069285D01*
X-14612857Y-15105000D01*
X-14291428Y-15819285D02*
X-14291428Y-15069285D01*
X-37937171Y-2930000D02*
X-38008599Y-2894285D01*
X-38115742Y-2894285D01*
X-38222885Y-2930000D01*
X-38294314Y-3001428D01*
X-38330028Y-3072857D01*
X-38365742Y-3215714D01*
X-38365742Y-3322857D01*
X-38330028Y-3465714D01*
X-38294314Y-3537142D01*
X-38222885Y-3608571D01*
X-38115742Y-3644285D01*
X-38044314Y-3644285D01*
X-37937171Y-3608571D01*
X-37901456Y-3572857D01*
X-37901456Y-3322857D01*
X-38044314Y-3322857D01*
X-37580028Y-3644285D02*
X-37580028Y-2894285D01*
X-37294314Y-2894285D01*
X-37222885Y-2930000D01*
X-37187171Y-2965714D01*
X-37151456Y-3037142D01*
X-37151456Y-3144285D01*
X-37187171Y-3215714D01*
X-37222885Y-3251428D01*
X-37294314Y-3287142D01*
X-37580028Y-3287142D01*
X-36830028Y-3644285D02*
X-36830028Y-2894285D01*
X-36330028Y-2894285D02*
X-36187171Y-2894285D01*
X-36115742Y-2930000D01*
X-36044314Y-3001428D01*
X-36008599Y-3144285D01*
X-36008599Y-3394285D01*
X-36044314Y-3537142D01*
X-36115742Y-3608571D01*
X-36187171Y-3644285D01*
X-36330028Y-3644285D01*
X-36401456Y-3608571D01*
X-36472885Y-3537142D01*
X-36508599Y-3394285D01*
X-36508599Y-3144285D01*
X-36472885Y-3001428D01*
X-36401456Y-2930000D01*
X-36330028Y-2894285D01*
X-35865742Y-3715714D02*
X-35294314Y-3715714D01*
X-35008599Y-3215714D02*
X-35080028Y-3180000D01*
X-35115742Y-3144285D01*
X-35151456Y-3072857D01*
X-35151456Y-3037142D01*
X-35115742Y-2965714D01*
X-35080028Y-2930000D01*
X-35008599Y-2894285D01*
X-34865742Y-2894285D01*
X-34794314Y-2930000D01*
X-34758599Y-2965714D01*
X-34722885Y-3037142D01*
X-34722885Y-3072857D01*
X-34758599Y-3144285D01*
X-34794314Y-3180000D01*
X-34865742Y-3215714D01*
X-35008599Y-3215714D01*
X-35080028Y-3251428D01*
X-35115742Y-3287142D01*
X-35151456Y-3358571D01*
X-35151456Y-3501428D01*
X-35115742Y-3572857D01*
X-35080028Y-3608571D01*
X-35008599Y-3644285D01*
X-34865742Y-3644285D01*
X-34794314Y-3608571D01*
X-34758599Y-3572857D01*
X-34722885Y-3501428D01*
X-34722885Y-3358571D01*
X-34758599Y-3287142D01*
X-34794314Y-3251428D01*
X-34865742Y-3215714D01*
X33847857Y-5369285D02*
X34097857Y-6119285D01*
X34347857Y-5369285D01*
X34847857Y-5726428D02*
X34955000Y-5762142D01*
X34990714Y-5797857D01*
X35026428Y-5869285D01*
X35026428Y-5976428D01*
X34990714Y-6047857D01*
X34955000Y-6083571D01*
X34883571Y-6119285D01*
X34597857Y-6119285D01*
X34597857Y-5369285D01*
X34847857Y-5369285D01*
X34919285Y-5405000D01*
X34955000Y-5440714D01*
X34990714Y-5512142D01*
X34990714Y-5583571D01*
X34955000Y-5655000D01*
X34919285Y-5690714D01*
X34847857Y-5726428D01*
X34597857Y-5726428D01*
X35312142Y-5905000D02*
X35669285Y-5905000D01*
X35240714Y-6119285D02*
X35490714Y-5369285D01*
X35740714Y-6119285D01*
X35883571Y-5369285D02*
X36312142Y-5369285D01*
X36097857Y-6119285D02*
X36097857Y-5369285D01*
X23302142Y-6033571D02*
X23409285Y-6069285D01*
X23587857Y-6069285D01*
X23659285Y-6033571D01*
X23695000Y-5997857D01*
X23730714Y-5926428D01*
X23730714Y-5855000D01*
X23695000Y-5783571D01*
X23659285Y-5747857D01*
X23587857Y-5712142D01*
X23445000Y-5676428D01*
X23373571Y-5640714D01*
X23337857Y-5605000D01*
X23302142Y-5533571D01*
X23302142Y-5462142D01*
X23337857Y-5390714D01*
X23373571Y-5355000D01*
X23445000Y-5319285D01*
X23623571Y-5319285D01*
X23730714Y-5355000D01*
X24052142Y-6069285D02*
X24052142Y-5319285D01*
X24230714Y-5319285D01*
X24337857Y-5355000D01*
X24409285Y-5426428D01*
X24445000Y-5497857D01*
X24480714Y-5640714D01*
X24480714Y-5747857D01*
X24445000Y-5890714D01*
X24409285Y-5962142D01*
X24337857Y-6033571D01*
X24230714Y-6069285D01*
X24052142Y-6069285D01*
X24802142Y-6069285D02*
X24802142Y-5319285D01*
X21432142Y2270714D02*
X21860714Y2270714D01*
X21646428Y1520714D02*
X21646428Y2270714D01*
X22110714Y1913571D02*
X22360714Y1913571D01*
X22467857Y1520714D02*
X22110714Y1520714D01*
X22110714Y2270714D01*
X22467857Y2270714D01*
X23146428Y1520714D02*
X22789285Y1520714D01*
X22789285Y2270714D01*
X23396428Y1913571D02*
X23646428Y1913571D01*
X23753571Y1520714D02*
X23396428Y1520714D01*
X23396428Y2270714D01*
X23753571Y2270714D01*
X24075000Y1520714D02*
X24075000Y2270714D01*
X24325000Y1735000D01*
X24575000Y2270714D01*
X24575000Y1520714D01*
X24753571Y1449285D02*
X25325000Y1449285D01*
X25503571Y1520714D02*
X25503571Y2270714D01*
X25860714Y1520714D02*
X25860714Y2270714D01*
X26289285Y1520714D01*
X26289285Y2270714D01*
X26539285Y2270714D02*
X26967857Y2270714D01*
X26753571Y1520714D02*
X26753571Y2270714D01*
X-15931428Y-25165000D02*
X-16002857Y-25129285D01*
X-16109999Y-25129285D01*
X-16217142Y-25165000D01*
X-16288571Y-25236428D01*
X-16324285Y-25307857D01*
X-16359999Y-25450714D01*
X-16359999Y-25557857D01*
X-16324285Y-25700714D01*
X-16288571Y-25772142D01*
X-16217142Y-25843571D01*
X-16109999Y-25879285D01*
X-16038571Y-25879285D01*
X-15931428Y-25843571D01*
X-15895714Y-25807857D01*
X-15895714Y-25557857D01*
X-16038571Y-25557857D01*
X-15574285Y-25879285D02*
X-15574285Y-25129285D01*
X-15145714Y-25879285D01*
X-15145714Y-25129285D01*
X-14788571Y-25879285D02*
X-14788571Y-25129285D01*
X-14610000Y-25129285D01*
X-14502857Y-25165000D01*
X-14431428Y-25236428D01*
X-14395714Y-25307857D01*
X-14360000Y-25450714D01*
X-14360000Y-25557857D01*
X-14395714Y-25700714D01*
X-14431428Y-25772142D01*
X-14502857Y-25843571D01*
X-14610000Y-25879285D01*
X-14788571Y-25879285D01*
X4635714Y-21149285D02*
X5064285Y-21149285D01*
X4850000Y-21899285D02*
X4850000Y-21149285D01*
X5135714Y-21970714D02*
X5707142Y-21970714D01*
X6278571Y-21185000D02*
X6207142Y-21149285D01*
X6100000Y-21149285D01*
X5992857Y-21185000D01*
X5921428Y-21256428D01*
X5885714Y-21327857D01*
X5850000Y-21470714D01*
X5850000Y-21577857D01*
X5885714Y-21720714D01*
X5921428Y-21792142D01*
X5992857Y-21863571D01*
X6100000Y-21899285D01*
X6171428Y-21899285D01*
X6278571Y-21863571D01*
X6314285Y-21827857D01*
X6314285Y-21577857D01*
X6171428Y-21577857D01*
X6635714Y-21899285D02*
X6635714Y-21149285D01*
X6921428Y-21149285D01*
X6992857Y-21185000D01*
X7028571Y-21220714D01*
X7064285Y-21292142D01*
X7064285Y-21399285D01*
X7028571Y-21470714D01*
X6992857Y-21506428D01*
X6921428Y-21542142D01*
X6635714Y-21542142D01*
X7385714Y-21899285D02*
X7385714Y-21149285D01*
X7885714Y-21149285D02*
X8028571Y-21149285D01*
X8100000Y-21185000D01*
X8171428Y-21256428D01*
X8207142Y-21399285D01*
X8207142Y-21649285D01*
X8171428Y-21792142D01*
X8100000Y-21863571D01*
X8028571Y-21899285D01*
X7885714Y-21899285D01*
X7814285Y-21863571D01*
X7742857Y-21792142D01*
X7707142Y-21649285D01*
X7707142Y-21399285D01*
X7742857Y-21256428D01*
X7814285Y-21185000D01*
X7885714Y-21149285D01*
X8350000Y-21970714D02*
X8921428Y-21970714D01*
X9028571Y-21149285D02*
X9492857Y-21149285D01*
X9242857Y-21435000D01*
X9350000Y-21435000D01*
X9421428Y-21470714D01*
X9457142Y-21506428D01*
X9492857Y-21577857D01*
X9492857Y-21756428D01*
X9457142Y-21827857D01*
X9421428Y-21863571D01*
X9350000Y-21899285D01*
X9135714Y-21899285D01*
X9064285Y-21863571D01*
X9028571Y-21827857D01*
X5108571Y-23195000D02*
X5037142Y-23159285D01*
X4930000Y-23159285D01*
X4822857Y-23195000D01*
X4751428Y-23266428D01*
X4715714Y-23337857D01*
X4680000Y-23480714D01*
X4680000Y-23587857D01*
X4715714Y-23730714D01*
X4751428Y-23802142D01*
X4822857Y-23873571D01*
X4930000Y-23909285D01*
X5001428Y-23909285D01*
X5108571Y-23873571D01*
X5144285Y-23837857D01*
X5144285Y-23587857D01*
X5001428Y-23587857D01*
X5465714Y-23909285D02*
X5465714Y-23159285D01*
X5894285Y-23909285D01*
X5894285Y-23159285D01*
X6251428Y-23909285D02*
X6251428Y-23159285D01*
X6430000Y-23159285D01*
X6537142Y-23195000D01*
X6608571Y-23266428D01*
X6644285Y-23337857D01*
X6680000Y-23480714D01*
X6680000Y-23587857D01*
X6644285Y-23730714D01*
X6608571Y-23802142D01*
X6537142Y-23873571D01*
X6430000Y-23909285D01*
X6251428Y-23909285D01*
X-25115600Y2214200D02*
X-25187028Y2249914D01*
X-25294171Y2249914D01*
X-25401314Y2214200D01*
X-25472742Y2142771D01*
X-25508457Y2071342D01*
X-25544171Y1928485D01*
X-25544171Y1821342D01*
X-25508457Y1678485D01*
X-25472742Y1607057D01*
X-25401314Y1535628D01*
X-25294171Y1499914D01*
X-25222742Y1499914D01*
X-25115600Y1535628D01*
X-25079885Y1571342D01*
X-25079885Y1821342D01*
X-25222742Y1821342D01*
X-24758457Y1499914D02*
X-24758457Y2249914D01*
X-24472742Y2249914D01*
X-24401314Y2214200D01*
X-24365600Y2178485D01*
X-24329885Y2107057D01*
X-24329885Y1999914D01*
X-24365600Y1928485D01*
X-24401314Y1892771D01*
X-24472742Y1857057D01*
X-24758457Y1857057D01*
X-24008457Y1499914D02*
X-24008457Y2249914D01*
X-23508457Y2249914D02*
X-23365600Y2249914D01*
X-23294171Y2214200D01*
X-23222742Y2142771D01*
X-23187028Y1999914D01*
X-23187028Y1749914D01*
X-23222742Y1607057D01*
X-23294171Y1535628D01*
X-23365600Y1499914D01*
X-23508457Y1499914D01*
X-23579885Y1535628D01*
X-23651314Y1607057D01*
X-23687028Y1749914D01*
X-23687028Y1999914D01*
X-23651314Y2142771D01*
X-23579885Y2214200D01*
X-23508457Y2249914D01*
X-23044171Y1428485D02*
X-22472742Y1428485D01*
X-21901314Y1499914D02*
X-22329885Y1499914D01*
X-22115600Y1499914D02*
X-22115600Y2249914D01*
X-22187028Y2142771D01*
X-22258457Y2071342D01*
X-22329885Y2035628D01*
X-21472742Y1928485D02*
X-21544171Y1964200D01*
X-21579885Y1999914D01*
X-21615600Y2071342D01*
X-21615600Y2107057D01*
X-21579885Y2178485D01*
X-21544171Y2214200D01*
X-21472742Y2249914D01*
X-21329885Y2249914D01*
X-21258457Y2214200D01*
X-21222742Y2178485D01*
X-21187028Y2107057D01*
X-21187028Y2071342D01*
X-21222742Y1999914D01*
X-21258457Y1964200D01*
X-21329885Y1928485D01*
X-21472742Y1928485D01*
X-21544171Y1892771D01*
X-21579885Y1857057D01*
X-21615600Y1785628D01*
X-21615600Y1642771D01*
X-21579885Y1571342D01*
X-21544171Y1535628D01*
X-21472742Y1499914D01*
X-21329885Y1499914D01*
X-21258457Y1535628D01*
X-21222742Y1571342D01*
X-21187028Y1642771D01*
X-21187028Y1785628D01*
X-21222742Y1857057D01*
X-21258457Y1892771D01*
X-21329885Y1928485D01*
X23847142Y22635000D02*
X23775714Y22670714D01*
X23668571Y22670714D01*
X23561428Y22635000D01*
X23490000Y22563571D01*
X23454285Y22492142D01*
X23418571Y22349285D01*
X23418571Y22242142D01*
X23454285Y22099285D01*
X23490000Y22027857D01*
X23561428Y21956428D01*
X23668571Y21920714D01*
X23740000Y21920714D01*
X23847142Y21956428D01*
X23882857Y21992142D01*
X23882857Y22242142D01*
X23740000Y22242142D01*
X24204285Y21920714D02*
X24204285Y22670714D01*
X24490000Y22670714D01*
X24561428Y22635000D01*
X24597142Y22599285D01*
X24632857Y22527857D01*
X24632857Y22420714D01*
X24597142Y22349285D01*
X24561428Y22313571D01*
X24490000Y22277857D01*
X24204285Y22277857D01*
X24954285Y21920714D02*
X24954285Y22670714D01*
X25454285Y22670714D02*
X25597142Y22670714D01*
X25668571Y22635000D01*
X25740000Y22563571D01*
X25775714Y22420714D01*
X25775714Y22170714D01*
X25740000Y22027857D01*
X25668571Y21956428D01*
X25597142Y21920714D01*
X25454285Y21920714D01*
X25382857Y21956428D01*
X25311428Y22027857D01*
X25275714Y22170714D01*
X25275714Y22420714D01*
X25311428Y22563571D01*
X25382857Y22635000D01*
X25454285Y22670714D01*
X25918571Y21849285D02*
X26490000Y21849285D01*
X26990000Y22420714D02*
X26990000Y21920714D01*
X26811428Y22706428D02*
X26632857Y22170714D01*
X27097142Y22170714D01*
X19565714Y9140714D02*
X19565714Y9890714D01*
X19851428Y9890714D01*
X19922857Y9855000D01*
X19958571Y9819285D01*
X19994285Y9747857D01*
X19994285Y9640714D01*
X19958571Y9569285D01*
X19922857Y9533571D01*
X19851428Y9497857D01*
X19565714Y9497857D01*
X20458571Y9890714D02*
X20601428Y9890714D01*
X20672857Y9855000D01*
X20744285Y9783571D01*
X20780000Y9640714D01*
X20780000Y9390714D01*
X20744285Y9247857D01*
X20672857Y9176428D01*
X20601428Y9140714D01*
X20458571Y9140714D01*
X20387142Y9176428D01*
X20315714Y9247857D01*
X20280000Y9390714D01*
X20280000Y9640714D01*
X20315714Y9783571D01*
X20387142Y9855000D01*
X20458571Y9890714D01*
X21030000Y9890714D02*
X21208571Y9140714D01*
X21351428Y9676428D01*
X21494285Y9140714D01*
X21672857Y9890714D01*
X21958571Y9533571D02*
X22208571Y9533571D01*
X22315714Y9140714D02*
X21958571Y9140714D01*
X21958571Y9890714D01*
X22315714Y9890714D01*
X23065714Y9140714D02*
X22815714Y9497857D01*
X22637142Y9140714D02*
X22637142Y9890714D01*
X22922857Y9890714D01*
X22994285Y9855000D01*
X23030000Y9819285D01*
X23065714Y9747857D01*
X23065714Y9640714D01*
X23030000Y9569285D01*
X22994285Y9533571D01*
X22922857Y9497857D01*
X22637142Y9497857D01*
X23208571Y9069285D02*
X23780000Y9069285D01*
X24387142Y9140714D02*
X24137142Y9497857D01*
X23958571Y9140714D02*
X23958571Y9890714D01*
X24244285Y9890714D01*
X24315714Y9855000D01*
X24351428Y9819285D01*
X24387142Y9747857D01*
X24387142Y9640714D01*
X24351428Y9569285D01*
X24315714Y9533571D01*
X24244285Y9497857D01*
X23958571Y9497857D01*
X24708571Y9533571D02*
X24958571Y9533571D01*
X25065714Y9140714D02*
X24708571Y9140714D01*
X24708571Y9890714D01*
X25065714Y9890714D01*
X25351428Y9176428D02*
X25458571Y9140714D01*
X25637142Y9140714D01*
X25708571Y9176428D01*
X25744285Y9212142D01*
X25780000Y9283571D01*
X25780000Y9355000D01*
X25744285Y9426428D01*
X25708571Y9462142D01*
X25637142Y9497857D01*
X25494285Y9533571D01*
X25422857Y9569285D01*
X25387142Y9605000D01*
X25351428Y9676428D01*
X25351428Y9747857D01*
X25387142Y9819285D01*
X25422857Y9855000D01*
X25494285Y9890714D01*
X25672857Y9890714D01*
X25780000Y9855000D01*
X26101428Y9533571D02*
X26351428Y9533571D01*
X26458571Y9140714D02*
X26101428Y9140714D01*
X26101428Y9890714D01*
X26458571Y9890714D01*
X26672857Y9890714D02*
X27101428Y9890714D01*
X26887142Y9140714D02*
X26887142Y9890714D01*
X-36294313Y12350000D02*
X-36365742Y12385714D01*
X-36472885Y12385714D01*
X-36580027Y12350000D01*
X-36651456Y12278571D01*
X-36687170Y12207142D01*
X-36722885Y12064285D01*
X-36722885Y11957142D01*
X-36687170Y11814285D01*
X-36651456Y11742857D01*
X-36580027Y11671428D01*
X-36472885Y11635714D01*
X-36401456Y11635714D01*
X-36294313Y11671428D01*
X-36258599Y11707142D01*
X-36258599Y11957142D01*
X-36401456Y11957142D01*
X-35937170Y11635714D02*
X-35937170Y12385714D01*
X-35508599Y11635714D01*
X-35508599Y12385714D01*
X-35151456Y11635714D02*
X-35151456Y12385714D01*
X-34972885Y12385714D01*
X-34865742Y12350000D01*
X-34794313Y12278571D01*
X-34758599Y12207142D01*
X-34722885Y12064285D01*
X-34722885Y11957142D01*
X-34758599Y11814285D01*
X-34794313Y11742857D01*
X-34865742Y11671428D01*
X-34972885Y11635714D01*
X-35151456Y11635714D01*
X33611428Y16770714D02*
X33611428Y17520714D01*
X33861428Y16985000D01*
X34111428Y17520714D01*
X34111428Y16770714D01*
X34468571Y16770714D02*
X34468571Y17520714D01*
X34790000Y16806428D02*
X34897142Y16770714D01*
X35075714Y16770714D01*
X35147142Y16806428D01*
X35182857Y16842142D01*
X35218571Y16913571D01*
X35218571Y16985000D01*
X35182857Y17056428D01*
X35147142Y17092142D01*
X35075714Y17127857D01*
X34932857Y17163571D01*
X34861428Y17199285D01*
X34825714Y17235000D01*
X34790000Y17306428D01*
X34790000Y17377857D01*
X34825714Y17449285D01*
X34861428Y17485000D01*
X34932857Y17520714D01*
X35111428Y17520714D01*
X35218571Y17485000D01*
X35682857Y17520714D02*
X35825714Y17520714D01*
X35897142Y17485000D01*
X35968571Y17413571D01*
X36004285Y17270714D01*
X36004285Y17020714D01*
X35968571Y16877857D01*
X35897142Y16806428D01*
X35825714Y16770714D01*
X35682857Y16770714D01*
X35611428Y16806428D01*
X35540000Y16877857D01*
X35504285Y17020714D01*
X35504285Y17270714D01*
X35540000Y17413571D01*
X35611428Y17485000D01*
X35682857Y17520714D01*
X-25115600Y17448350D02*
X-25187028Y17484064D01*
X-25294171Y17484064D01*
X-25401314Y17448350D01*
X-25472742Y17376921D01*
X-25508457Y17305492D01*
X-25544171Y17162635D01*
X-25544171Y17055492D01*
X-25508457Y16912635D01*
X-25472742Y16841207D01*
X-25401314Y16769778D01*
X-25294171Y16734064D01*
X-25222742Y16734064D01*
X-25115600Y16769778D01*
X-25079885Y16805492D01*
X-25079885Y17055492D01*
X-25222742Y17055492D01*
X-24758457Y16734064D02*
X-24758457Y17484064D01*
X-24472742Y17484064D01*
X-24401314Y17448350D01*
X-24365600Y17412635D01*
X-24329885Y17341207D01*
X-24329885Y17234064D01*
X-24365600Y17162635D01*
X-24401314Y17126921D01*
X-24472742Y17091207D01*
X-24758457Y17091207D01*
X-24008457Y16734064D02*
X-24008457Y17484064D01*
X-23508457Y17484064D02*
X-23365600Y17484064D01*
X-23294171Y17448350D01*
X-23222742Y17376921D01*
X-23187028Y17234064D01*
X-23187028Y16984064D01*
X-23222742Y16841207D01*
X-23294171Y16769778D01*
X-23365600Y16734064D01*
X-23508457Y16734064D01*
X-23579885Y16769778D01*
X-23651314Y16841207D01*
X-23687028Y16984064D01*
X-23687028Y17234064D01*
X-23651314Y17376921D01*
X-23579885Y17448350D01*
X-23508457Y17484064D01*
X-23044171Y16662635D02*
X-22472742Y16662635D01*
X-21901314Y16734064D02*
X-22329885Y16734064D01*
X-22115600Y16734064D02*
X-22115600Y17484064D01*
X-22187028Y17376921D01*
X-22258457Y17305492D01*
X-22329885Y17269778D01*
X-21615600Y17412635D02*
X-21579885Y17448350D01*
X-21508457Y17484064D01*
X-21329885Y17484064D01*
X-21258457Y17448350D01*
X-21222742Y17412635D01*
X-21187028Y17341207D01*
X-21187028Y17269778D01*
X-21222742Y17162635D01*
X-21651314Y16734064D01*
X-21187028Y16734064D01*
%TO.C,C1*%
X22587142Y-18716666D02*
X22634761Y-18764285D01*
X22682380Y-18907142D01*
X22682380Y-19002380D01*
X22634761Y-19145238D01*
X22539523Y-19240476D01*
X22444285Y-19288095D01*
X22253809Y-19335714D01*
X22110952Y-19335714D01*
X21920476Y-19288095D01*
X21825238Y-19240476D01*
X21730000Y-19145238D01*
X21682380Y-19002380D01*
X21682380Y-18907142D01*
X21730000Y-18764285D01*
X21777619Y-18716666D01*
X22682380Y-17764285D02*
X22682380Y-18335714D01*
X22682380Y-18050000D02*
X21682380Y-18050000D01*
X21825238Y-18145238D01*
X21920476Y-18240476D01*
X21968095Y-18335714D01*
%TO.C,J9*%
X27277072Y-23648477D02*
X27782148Y-24153553D01*
X27849492Y-24288240D01*
X27849492Y-24422927D01*
X27782148Y-24557614D01*
X27714805Y-24624957D01*
X28354568Y-23985194D02*
X28489255Y-23850507D01*
X28522927Y-23749492D01*
X28522927Y-23682148D01*
X28489255Y-23513790D01*
X28388240Y-23345431D01*
X28118866Y-23076057D01*
X28017851Y-23042385D01*
X27950507Y-23042385D01*
X27849492Y-23076057D01*
X27714805Y-23210744D01*
X27681133Y-23311759D01*
X27681133Y-23379103D01*
X27714805Y-23480118D01*
X27883164Y-23648477D01*
X27984179Y-23682148D01*
X28051522Y-23682148D01*
X28152538Y-23648477D01*
X28287225Y-23513790D01*
X28320896Y-23412774D01*
X28320896Y-23345431D01*
X28287225Y-23244416D01*
%TO.C,J1*%
X29666666Y-8752380D02*
X29666666Y-9466666D01*
X29619047Y-9609523D01*
X29523809Y-9704761D01*
X29380952Y-9752380D01*
X29285714Y-9752380D01*
X30666666Y-9752380D02*
X30095238Y-9752380D01*
X30380952Y-9752380D02*
X30380952Y-8752380D01*
X30285714Y-8895238D01*
X30190476Y-8990476D01*
X30095238Y-9038095D01*
%TO.C,J5*%
X-10733333Y-27227380D02*
X-10733333Y-27941666D01*
X-10780952Y-28084523D01*
X-10876190Y-28179761D01*
X-11019047Y-28227380D01*
X-11114285Y-28227380D01*
X-9780952Y-27227380D02*
X-10257142Y-27227380D01*
X-10304761Y-27703571D01*
X-10257142Y-27655952D01*
X-10161904Y-27608333D01*
X-9923809Y-27608333D01*
X-9828571Y-27655952D01*
X-9780952Y-27703571D01*
X-9733333Y-27798809D01*
X-9733333Y-28036904D01*
X-9780952Y-28132142D01*
X-9828571Y-28179761D01*
X-9923809Y-28227380D01*
X-10161904Y-28227380D01*
X-10257142Y-28179761D01*
X-10304761Y-28132142D01*
%TO.C,U1*%
X-5571904Y-8782380D02*
X-5571904Y-9591904D01*
X-5524285Y-9687142D01*
X-5476666Y-9734761D01*
X-5381428Y-9782380D01*
X-5190952Y-9782380D01*
X-5095714Y-9734761D01*
X-5048095Y-9687142D01*
X-5000476Y-9591904D01*
X-5000476Y-8782380D01*
X-4000476Y-9782380D02*
X-4571904Y-9782380D01*
X-4286190Y-9782380D02*
X-4286190Y-8782380D01*
X-4381428Y-8925238D01*
X-4476666Y-9020476D01*
X-4571904Y-9068095D01*
%TO.C,J7*%
X-29451522Y-25422927D02*
X-28946446Y-24917851D01*
X-28811759Y-24850507D01*
X-28677072Y-24850507D01*
X-28542385Y-24917851D01*
X-28475042Y-24985194D01*
X-29720896Y-25153553D02*
X-30192301Y-24682148D01*
X-29182148Y-24278087D01*
%TO.C,JP1*%
X12826666Y-30852380D02*
X12826666Y-31566666D01*
X12779047Y-31709523D01*
X12683809Y-31804761D01*
X12540952Y-31852380D01*
X12445714Y-31852380D01*
X13302857Y-31852380D02*
X13302857Y-30852380D01*
X13683809Y-30852380D01*
X13779047Y-30900000D01*
X13826666Y-30947619D01*
X13874285Y-31042857D01*
X13874285Y-31185714D01*
X13826666Y-31280952D01*
X13779047Y-31328571D01*
X13683809Y-31376190D01*
X13302857Y-31376190D01*
X14826666Y-31852380D02*
X14255238Y-31852380D01*
X14540952Y-31852380D02*
X14540952Y-30852380D01*
X14445714Y-30995238D01*
X14350476Y-31090476D01*
X14255238Y-31138095D01*
%TO.C,J10*%
X16840476Y31297619D02*
X16840476Y30583333D01*
X16792857Y30440476D01*
X16697619Y30345238D01*
X16554761Y30297619D01*
X16459523Y30297619D01*
X17840476Y30297619D02*
X17269047Y30297619D01*
X17554761Y30297619D02*
X17554761Y31297619D01*
X17459523Y31154761D01*
X17364285Y31059523D01*
X17269047Y31011904D01*
X18459523Y31297619D02*
X18554761Y31297619D01*
X18650000Y31250000D01*
X18697619Y31202380D01*
X18745238Y31107142D01*
X18792857Y30916666D01*
X18792857Y30678571D01*
X18745238Y30488095D01*
X18697619Y30392857D01*
X18650000Y30345238D01*
X18554761Y30297619D01*
X18459523Y30297619D01*
X18364285Y30345238D01*
X18316666Y30392857D01*
X18269047Y30488095D01*
X18221428Y30678571D01*
X18221428Y30916666D01*
X18269047Y31107142D01*
X18316666Y31202380D01*
X18364285Y31250000D01*
X18459523Y31297619D01*
%TO.C,J11*%
X3690476Y14447619D02*
X3690476Y13733333D01*
X3642857Y13590476D01*
X3547619Y13495238D01*
X3404761Y13447619D01*
X3309523Y13447619D01*
X4690476Y13447619D02*
X4119047Y13447619D01*
X4404761Y13447619D02*
X4404761Y14447619D01*
X4309523Y14304761D01*
X4214285Y14209523D01*
X4119047Y14161904D01*
X5642857Y13447619D02*
X5071428Y13447619D01*
X5357142Y13447619D02*
X5357142Y14447619D01*
X5261904Y14304761D01*
X5166666Y14209523D01*
X5071428Y14161904D01*
%TO.C,J8*%
X-9383333Y34747619D02*
X-9383333Y34033333D01*
X-9430952Y33890476D01*
X-9526190Y33795238D01*
X-9669047Y33747619D01*
X-9764285Y33747619D01*
X-8764285Y34319047D02*
X-8859523Y34366666D01*
X-8907142Y34414285D01*
X-8954761Y34509523D01*
X-8954761Y34557142D01*
X-8907142Y34652380D01*
X-8859523Y34700000D01*
X-8764285Y34747619D01*
X-8573809Y34747619D01*
X-8478571Y34700000D01*
X-8430952Y34652380D01*
X-8383333Y34557142D01*
X-8383333Y34509523D01*
X-8430952Y34414285D01*
X-8478571Y34366666D01*
X-8573809Y34319047D01*
X-8764285Y34319047D01*
X-8859523Y34271428D01*
X-8907142Y34223809D01*
X-8954761Y34128571D01*
X-8954761Y33938095D01*
X-8907142Y33842857D01*
X-8859523Y33795238D01*
X-8764285Y33747619D01*
X-8573809Y33747619D01*
X-8478571Y33795238D01*
X-8430952Y33842857D01*
X-8383333Y33938095D01*
X-8383333Y34128571D01*
X-8430952Y34223809D01*
X-8478571Y34271428D01*
X-8573809Y34319047D01*
%TO.C,J6*%
X16666Y-27202380D02*
X16666Y-27916666D01*
X-30952Y-28059523D01*
X-126190Y-28154761D01*
X-269047Y-28202380D01*
X-364285Y-28202380D01*
X921428Y-27202380D02*
X730952Y-27202380D01*
X635714Y-27250000D01*
X588095Y-27297619D01*
X492857Y-27440476D01*
X445238Y-27630952D01*
X445238Y-28011904D01*
X492857Y-28107142D01*
X540476Y-28154761D01*
X635714Y-28202380D01*
X826190Y-28202380D01*
X921428Y-28154761D01*
X969047Y-28107142D01*
X1016666Y-28011904D01*
X1016666Y-27773809D01*
X969047Y-27678571D01*
X921428Y-27630952D01*
X826190Y-27583333D01*
X635714Y-27583333D01*
X540476Y-27630952D01*
X492857Y-27678571D01*
X445238Y-27773809D01*
%TO.C,X1*%
X15762380Y-36539523D02*
X16762380Y-35872857D01*
X15762380Y-35872857D02*
X16762380Y-36539523D01*
X16762380Y-34968095D02*
X16762380Y-35539523D01*
X16762380Y-35253809D02*
X15762380Y-35253809D01*
X15905238Y-35349047D01*
X16000476Y-35444285D01*
X16048095Y-35539523D01*
%TO.C,J3*%
X-30333333Y23847619D02*
X-30333333Y23133333D01*
X-30380952Y22990476D01*
X-30476190Y22895238D01*
X-30619047Y22847619D01*
X-30714285Y22847619D01*
X-29952380Y23847619D02*
X-29333333Y23847619D01*
X-29666666Y23466666D01*
X-29523809Y23466666D01*
X-29428571Y23419047D01*
X-29380952Y23371428D01*
X-29333333Y23276190D01*
X-29333333Y23038095D01*
X-29380952Y22942857D01*
X-29428571Y22895238D01*
X-29523809Y22847619D01*
X-29809523Y22847619D01*
X-29904761Y22895238D01*
X-29952380Y22942857D01*
D13*
%TO.C,C1*%
X19815000Y-18288748D02*
X19815000Y-18811252D01*
X21285000Y-18288748D02*
X21285000Y-18811252D01*
%TO.C,J9*%
X31565076Y-12493431D02*
X30618802Y-13439705D01*
X25607701Y-18450806D02*
X27575744Y-16482763D01*
X41156979Y-17213369D02*
X33470729Y-24899620D01*
X29697064Y-14361443D02*
X28497482Y-15561025D01*
X32056515Y-24899620D02*
X25607701Y-18450806D01*
X34708165Y-9350342D02*
X32993431Y-11065076D01*
X41156979Y-15799156D02*
X41156979Y-17213369D01*
X34708165Y-9350342D02*
X41156979Y-15799156D01*
X33470729Y-24899620D02*
X32056515Y-24899620D01*
%TO.C,J1*%
X32600000Y9030000D02*
X32600000Y10050000D01*
X27400000Y-6210000D02*
X27400000Y-5190000D01*
X32600000Y21730000D02*
X32600000Y22300000D01*
X27400000Y-1130000D02*
X27400000Y-110000D01*
X27400000Y3950000D02*
X27400000Y4970000D01*
X27400000Y9030000D02*
X27400000Y10050000D01*
X27400000Y21730000D02*
X27400000Y22300000D01*
X32600000Y-8300000D02*
X32600000Y-7730000D01*
X32600000Y3950000D02*
X32600000Y4970000D01*
X32600000Y-8300000D02*
X27400000Y-8300000D01*
X27400000Y11570000D02*
X27400000Y12590000D01*
X27400000Y1410000D02*
X27400000Y2430000D01*
X32600000Y-6210000D02*
X32600000Y-5190000D01*
X32600000Y22300000D02*
X27400000Y22300000D01*
X32600000Y14110000D02*
X32600000Y15130000D01*
X27400000Y16650000D02*
X27400000Y17670000D01*
X32600000Y16650000D02*
X32600000Y17670000D01*
X32600000Y-3670000D02*
X32600000Y-2650000D01*
X27400000Y-8300000D02*
X27400000Y-7730000D01*
X32600000Y6490000D02*
X32600000Y7510000D01*
X27400000Y14110000D02*
X27400000Y15130000D01*
X32600000Y1410000D02*
X32600000Y2430000D01*
X32600000Y11570000D02*
X32600000Y12590000D01*
X32600000Y-1130000D02*
X32600000Y-110000D01*
X27400000Y-3670000D02*
X27400000Y-2650000D01*
X27400000Y19190000D02*
X27400000Y20210000D01*
X27400000Y6490000D02*
X27400000Y7510000D01*
X34040000Y-7730000D02*
X32600000Y-7730000D01*
X32600000Y19190000D02*
X32600000Y20210000D01*
%TO.C,J5*%
X-12160000Y-35935000D02*
X-12160000Y-37325000D01*
X-6290000Y-35935000D02*
X-8640000Y-35935000D01*
X-6290000Y-33285000D02*
X-6290000Y-35935000D01*
X-14400000Y-28865000D02*
X-6400000Y-28865000D01*
X-14510000Y-35935000D02*
X-12160000Y-35935000D01*
X-14510000Y-33285000D02*
X-14510000Y-35935000D01*
%TO.C,U1*%
X3290000Y-10430000D02*
X3290000Y-10830000D01*
X-12910000Y-10780000D02*
X-13810000Y-10780000D01*
X-12910000Y-26630000D02*
X3290000Y-26630000D01*
X-12910000Y-26230000D02*
X-12910000Y-26630000D01*
X3290000Y-26630000D02*
X3290000Y-26230000D01*
X-12910000Y-10430000D02*
X-12910000Y-10780000D01*
X-12910000Y-10430000D02*
X3290000Y-10430000D01*
%TO.C,J7*%
X-30882909Y-13761171D02*
X-32082491Y-12561589D01*
X-25871808Y-18772272D02*
X-32320622Y-25221086D01*
X-34972272Y-9671808D02*
X-33004229Y-11639851D01*
X-41421086Y-17534836D02*
X-41421086Y-16120622D01*
X-41421086Y-16120622D02*
X-34972272Y-9671808D01*
X-33734835Y-25221086D02*
X-41421086Y-17534836D01*
X-25871808Y-18772272D02*
X-27586542Y-17057538D01*
X-29014897Y-15629183D02*
X-29961171Y-14682909D01*
X-32320622Y-25221086D02*
X-33734835Y-25221086D01*
%TO.C,JP1*%
X11970000Y-31410000D02*
G75*
G03*
X11970000Y-31410000I-700000J0D01*
G01*
%TO.C,G\u002A\u002A\u002A*%
G36*
X-26789307Y-29969295D02*
G01*
X-26783247Y-29912039D01*
X-26773999Y-29855026D01*
X-26761101Y-29794435D01*
X-26752505Y-29759080D01*
X-26716901Y-29641062D01*
X-26670502Y-29526047D01*
X-26614038Y-29415348D01*
X-26548241Y-29310277D01*
X-26473844Y-29212145D01*
X-26404600Y-29135384D01*
X-26310045Y-29046093D01*
X-26211499Y-28967700D01*
X-26108144Y-28899694D01*
X-25999162Y-28841566D01*
X-25883734Y-28792803D01*
X-25820186Y-28770751D01*
X-25765832Y-28754735D01*
X-25707605Y-28740272D01*
X-25648359Y-28727892D01*
X-25590948Y-28718125D01*
X-25538224Y-28711498D01*
X-25493041Y-28708543D01*
X-25484339Y-28708438D01*
X-25453100Y-28708438D01*
X-25453100Y-22920963D01*
X-25695851Y-23163660D01*
X-25740028Y-23207753D01*
X-25781614Y-23249115D01*
X-25819875Y-23287027D01*
X-25854078Y-23320767D01*
X-25883487Y-23349616D01*
X-25907369Y-23372853D01*
X-25924990Y-23389759D01*
X-25935617Y-23399611D01*
X-25938601Y-23401898D01*
X-25937005Y-23395688D01*
X-25932353Y-23378820D01*
X-25924853Y-23352022D01*
X-25914713Y-23316019D01*
X-25902139Y-23271539D01*
X-25887341Y-23219306D01*
X-25870524Y-23160049D01*
X-25851896Y-23094492D01*
X-25831665Y-23023362D01*
X-25810039Y-22947385D01*
X-25787224Y-22867288D01*
X-25763427Y-22783797D01*
X-25738858Y-22697638D01*
X-25713722Y-22609538D01*
X-25688227Y-22520222D01*
X-25662581Y-22430417D01*
X-25636991Y-22340850D01*
X-25611664Y-22252246D01*
X-25586809Y-22165332D01*
X-25562632Y-22080834D01*
X-25539340Y-21999478D01*
X-25517142Y-21921991D01*
X-25496244Y-21849099D01*
X-25476854Y-21781529D01*
X-25459180Y-21720005D01*
X-25443429Y-21665256D01*
X-25429808Y-21618006D01*
X-25418524Y-21578983D01*
X-25409786Y-21548913D01*
X-25403800Y-21528521D01*
X-25400775Y-21518535D01*
X-25400482Y-21517692D01*
X-25397307Y-21513515D01*
X-25393648Y-21516983D01*
X-25388699Y-21529472D01*
X-25383147Y-21547296D01*
X-25379192Y-21560833D01*
X-25372329Y-21584586D01*
X-25362770Y-21617814D01*
X-25350725Y-21659776D01*
X-25336407Y-21709730D01*
X-25320026Y-21766935D01*
X-25301795Y-21830650D01*
X-25281924Y-21900135D01*
X-25260625Y-21974647D01*
X-25238109Y-22053446D01*
X-25214589Y-22135791D01*
X-25190275Y-22220940D01*
X-25165378Y-22308153D01*
X-25140111Y-22396687D01*
X-25114684Y-22485803D01*
X-25089309Y-22574759D01*
X-25064198Y-22662813D01*
X-25039562Y-22749224D01*
X-25015612Y-22833253D01*
X-24992560Y-22914156D01*
X-24970617Y-22991193D01*
X-24949995Y-23063624D01*
X-24930904Y-23130706D01*
X-24913558Y-23191699D01*
X-24898166Y-23245861D01*
X-24884941Y-23292452D01*
X-24874094Y-23330730D01*
X-24865836Y-23359954D01*
X-24860379Y-23379383D01*
X-24857934Y-23388276D01*
X-24857841Y-23388648D01*
X-24858610Y-23390866D01*
X-24863162Y-23388876D01*
X-24871998Y-23382208D01*
X-24885618Y-23370392D01*
X-24904521Y-23352959D01*
X-24929209Y-23329437D01*
X-24960180Y-23299357D01*
X-24997935Y-23262249D01*
X-25042974Y-23217643D01*
X-25095798Y-23165069D01*
X-25097184Y-23163687D01*
X-25340606Y-22920963D01*
X-25340606Y-28708438D01*
X-25309367Y-28708438D01*
X-25270898Y-28710222D01*
X-25224211Y-28715233D01*
X-25172323Y-28722960D01*
X-25118251Y-28732893D01*
X-25065013Y-28744522D01*
X-25015626Y-28757336D01*
X-25009044Y-28759239D01*
X-24890777Y-28799807D01*
X-24775649Y-28850944D01*
X-24665444Y-28911721D01*
X-24561948Y-28981211D01*
X-24520583Y-29013035D01*
X-24488164Y-29040565D01*
X-24451105Y-29074582D01*
X-24412185Y-29112344D01*
X-24374185Y-29151111D01*
X-24339885Y-29188143D01*
X-24321314Y-29209481D01*
X-24268675Y-29277343D01*
X-24217384Y-29353742D01*
X-24169342Y-29435391D01*
X-24126451Y-29518999D01*
X-24090612Y-29601277D01*
X-24082366Y-29622903D01*
X-24056190Y-29702697D01*
X-24034409Y-29788641D01*
X-24016692Y-29882317D01*
X-24002704Y-29985308D01*
X-23999171Y-30018403D01*
X-23995745Y-30052448D01*
X-18209121Y-30052448D01*
X-18454805Y-29806167D01*
X-18498930Y-29761794D01*
X-18540120Y-29720098D01*
X-18577688Y-29681792D01*
X-18610945Y-29647593D01*
X-18639204Y-29618216D01*
X-18661776Y-29594374D01*
X-18677974Y-29576784D01*
X-18687108Y-29566161D01*
X-18688648Y-29563163D01*
X-18650070Y-29573906D01*
X-18603227Y-29587059D01*
X-18548827Y-29602419D01*
X-18487580Y-29619781D01*
X-18420197Y-29638940D01*
X-18347388Y-29659691D01*
X-18269862Y-29681830D01*
X-18188329Y-29705152D01*
X-18103499Y-29729452D01*
X-18016082Y-29754526D01*
X-17926787Y-29780169D01*
X-17836326Y-29806176D01*
X-17745407Y-29832342D01*
X-17654740Y-29858464D01*
X-17565036Y-29884335D01*
X-17477004Y-29909752D01*
X-17391354Y-29934509D01*
X-17308796Y-29958403D01*
X-17230040Y-29981227D01*
X-17155796Y-30002779D01*
X-17086773Y-30022852D01*
X-17023682Y-30041242D01*
X-16967233Y-30057745D01*
X-16918134Y-30072156D01*
X-16877097Y-30084270D01*
X-16844831Y-30093882D01*
X-16822046Y-30100788D01*
X-16809451Y-30104783D01*
X-16807071Y-30105733D01*
X-16813008Y-30107638D01*
X-16829606Y-30112585D01*
X-16856138Y-30120365D01*
X-16891878Y-30130769D01*
X-16936098Y-30143589D01*
X-16988073Y-30158618D01*
X-17047076Y-30175647D01*
X-17112380Y-30194468D01*
X-17183260Y-30214873D01*
X-17258988Y-30236653D01*
X-17338838Y-30259601D01*
X-17422083Y-30283508D01*
X-17507998Y-30308166D01*
X-17595855Y-30333367D01*
X-17684928Y-30358903D01*
X-17774491Y-30384566D01*
X-17863817Y-30410147D01*
X-17952179Y-30435438D01*
X-18038851Y-30460232D01*
X-18123107Y-30484319D01*
X-18204220Y-30507492D01*
X-18281463Y-30529543D01*
X-18354111Y-30550264D01*
X-18421435Y-30569445D01*
X-18482711Y-30586880D01*
X-18537212Y-30602360D01*
X-18584210Y-30615677D01*
X-18622980Y-30626622D01*
X-18652796Y-30634988D01*
X-18672929Y-30640566D01*
X-18682655Y-30643149D01*
X-18682727Y-30643166D01*
X-18680844Y-30639627D01*
X-18671258Y-30628457D01*
X-18654661Y-30610378D01*
X-18631743Y-30586111D01*
X-18603197Y-30556377D01*
X-18569715Y-30521897D01*
X-18531987Y-30483391D01*
X-18490707Y-30441581D01*
X-18451845Y-30402484D01*
X-18209122Y-30159021D01*
X-23995871Y-30159021D01*
X-23998869Y-30184184D01*
X-24000825Y-30201154D01*
X-24003592Y-30225837D01*
X-24006715Y-30254171D01*
X-24008362Y-30269293D01*
X-24025399Y-30378745D01*
X-24052598Y-30489702D01*
X-24089113Y-30599303D01*
X-24134095Y-30704688D01*
X-24142097Y-30721119D01*
X-24189791Y-30810559D01*
X-24240559Y-30891779D01*
X-24296639Y-30967892D01*
X-24360271Y-31042009D01*
X-24410892Y-31094758D01*
X-24505781Y-31181520D01*
X-24607321Y-31258583D01*
X-24715042Y-31325708D01*
X-24828472Y-31382657D01*
X-24947141Y-31429190D01*
X-25070578Y-31465069D01*
X-25186667Y-31488260D01*
X-25224097Y-31492862D01*
X-25270045Y-31496453D01*
X-25321594Y-31498985D01*
X-25375824Y-31500412D01*
X-25429817Y-31500685D01*
X-25480655Y-31499758D01*
X-25525420Y-31497583D01*
X-25559674Y-31494316D01*
X-25684614Y-31473168D01*
X-25802469Y-31443315D01*
X-25914748Y-31404197D01*
X-26022962Y-31355255D01*
X-26128621Y-31295926D01*
X-26175639Y-31265755D01*
X-26275443Y-31192267D01*
X-26368334Y-31109750D01*
X-26453689Y-31019122D01*
X-26530886Y-30921297D01*
X-26599300Y-30817190D01*
X-26658309Y-30707717D01*
X-26707291Y-30593792D01*
X-26745620Y-30476332D01*
X-26763839Y-30401772D01*
X-26774646Y-30347833D01*
X-26782649Y-30299329D01*
X-26788200Y-30252691D01*
X-26791654Y-30204351D01*
X-26793362Y-30150744D01*
X-26793707Y-30099814D01*
X-26793497Y-30086182D01*
X-26509783Y-30086182D01*
X-26509772Y-30105734D01*
X-26509631Y-30152239D01*
X-26509228Y-30189111D01*
X-26508402Y-30218557D01*
X-26506993Y-30242786D01*
X-26504837Y-30264004D01*
X-26501774Y-30284421D01*
X-26497642Y-30306243D01*
X-26493730Y-30324928D01*
X-26464216Y-30436128D01*
X-26424753Y-30541920D01*
X-26375954Y-30641846D01*
X-26318429Y-30735449D01*
X-26252790Y-30822272D01*
X-26179648Y-30901858D01*
X-26099614Y-30973750D01*
X-26013298Y-31037490D01*
X-25921313Y-31092622D01*
X-25824269Y-31138688D01*
X-25722777Y-31175231D01*
X-25617449Y-31201795D01*
X-25508896Y-31217921D01*
X-25397729Y-31223154D01*
X-25299161Y-31218469D01*
X-25184969Y-31202266D01*
X-25074953Y-31175279D01*
X-24969657Y-31137994D01*
X-24869626Y-31090899D01*
X-24775403Y-31034480D01*
X-24687534Y-30969223D01*
X-24606562Y-30895617D01*
X-24533032Y-30814146D01*
X-24467489Y-30725299D01*
X-24410475Y-30629562D01*
X-24362536Y-30527421D01*
X-24324216Y-30419364D01*
X-24299976Y-30324928D01*
X-24294933Y-30300593D01*
X-24291081Y-30279324D01*
X-24288257Y-30258915D01*
X-24286302Y-30237157D01*
X-24285051Y-30211843D01*
X-24284346Y-30180765D01*
X-24284023Y-30141716D01*
X-24283934Y-30105734D01*
X-24283980Y-30058527D01*
X-24284344Y-30020981D01*
X-24285169Y-29990915D01*
X-24286594Y-29966151D01*
X-24288763Y-29944509D01*
X-24291816Y-29923810D01*
X-24295896Y-29901873D01*
X-24297780Y-29892587D01*
X-24327090Y-29778524D01*
X-24366789Y-29669726D01*
X-24416553Y-29566680D01*
X-24476058Y-29469871D01*
X-24544979Y-29379786D01*
X-24622993Y-29296910D01*
X-24709776Y-29221728D01*
X-24778135Y-29172214D01*
X-24873625Y-29115221D01*
X-24974170Y-29068503D01*
X-25078761Y-29032162D01*
X-25186387Y-29006304D01*
X-25296039Y-28991033D01*
X-25406705Y-28986453D01*
X-25517375Y-28992668D01*
X-25627040Y-29009782D01*
X-25734689Y-29037900D01*
X-25811732Y-29065560D01*
X-25850203Y-29081354D01*
X-25881135Y-29094933D01*
X-25908127Y-29108101D01*
X-25934778Y-29122662D01*
X-25964688Y-29140417D01*
X-25980215Y-29149957D01*
X-26075735Y-29215850D01*
X-26163009Y-29290061D01*
X-26241682Y-29372075D01*
X-26311396Y-29461379D01*
X-26371794Y-29557461D01*
X-26422520Y-29659805D01*
X-26463217Y-29767898D01*
X-26493529Y-29881226D01*
X-26495926Y-29892587D01*
X-26500441Y-29915588D01*
X-26503874Y-29936507D01*
X-26506369Y-29957526D01*
X-26508065Y-29980823D01*
X-26509105Y-30008578D01*
X-26509631Y-30042972D01*
X-26509783Y-30086182D01*
X-26793497Y-30086182D01*
X-26792639Y-30030613D01*
X-26789307Y-29969295D01*
G37*
G36*
X-25353723Y-29829955D02*
G01*
X-25318001Y-29836777D01*
X-25312383Y-29838414D01*
X-25261938Y-29859996D01*
X-25217589Y-29890655D01*
X-25180244Y-29928926D01*
X-25150812Y-29973343D01*
X-25130200Y-30022442D01*
X-25119316Y-30074756D01*
X-25119067Y-30128822D01*
X-25121440Y-30146596D01*
X-25135966Y-30200234D01*
X-25159813Y-30248681D01*
X-25191689Y-30291075D01*
X-25230304Y-30326553D01*
X-25274367Y-30354252D01*
X-25322590Y-30373310D01*
X-25373681Y-30382864D01*
X-25426349Y-30382052D01*
X-25463036Y-30374969D01*
X-25517256Y-30354550D01*
X-25565213Y-30324759D01*
X-25605892Y-30286703D01*
X-25638277Y-30241492D01*
X-25661354Y-30190232D01*
X-25672266Y-30146596D01*
X-25675632Y-30092618D01*
X-25668086Y-30039903D01*
X-25650554Y-29989858D01*
X-25623964Y-29943891D01*
X-25589244Y-29903409D01*
X-25547322Y-29869820D01*
X-25499125Y-29844532D01*
X-25465924Y-29833488D01*
X-25432759Y-29828148D01*
X-25393667Y-29827024D01*
X-25353723Y-29829955D01*
G37*
%TO.C,J10*%
X15375000Y28490000D02*
X12591767Y28490000D01*
X9950000Y28490000D02*
X11288233Y28490000D01*
X5505000Y37610000D02*
X6505000Y38610000D01*
X6505000Y38610000D02*
X14375000Y38610000D01*
X14375000Y38610000D02*
X15375000Y37610000D01*
X15375000Y37610000D02*
X15375000Y28490000D01*
X5505000Y28490000D02*
X5505000Y37610000D01*
X5505000Y28490000D02*
X7930000Y28490000D01*
%TO.C,J11*%
X390000Y19410000D02*
X390000Y22060000D01*
X8500000Y14990000D02*
X500000Y14990000D01*
X390000Y22060000D02*
X2740000Y22060000D01*
X8610000Y22060000D02*
X6260000Y22060000D01*
X8610000Y19410000D02*
X8610000Y22060000D01*
X6260000Y22060000D02*
X6260000Y23450000D01*
%TO.C,J8*%
X-6185000Y37610000D02*
X-5185000Y38610000D01*
X-1740000Y28490000D02*
X-401767Y28490000D01*
X3685000Y37610000D02*
X3685000Y28490000D01*
X2685000Y38610000D02*
X3685000Y37610000D01*
X-5185000Y38610000D02*
X2685000Y38610000D01*
X-6185000Y28490000D02*
X-3760000Y28490000D01*
X-6185000Y28490000D02*
X-6185000Y37610000D01*
X3685000Y28490000D02*
X901767Y28490000D01*
%TO.C,J6*%
X-3760000Y-35910000D02*
X-1410000Y-35910000D01*
X-1410000Y-35910000D02*
X-1410000Y-37300000D01*
X4460000Y-33260000D02*
X4460000Y-35910000D01*
X-3760000Y-33260000D02*
X-3760000Y-35910000D01*
X4460000Y-35910000D02*
X2110000Y-35910000D01*
X-3650000Y-28840000D02*
X4350000Y-28840000D01*
%TO.C,J3*%
X-32600000Y15130000D02*
X-32600000Y14110000D01*
X-27400000Y7510000D02*
X-27400000Y6490000D01*
X-32600000Y22300000D02*
X-27400000Y22300000D01*
X-32600000Y22300000D02*
X-32600000Y21730000D01*
X-32600000Y10050000D02*
X-32600000Y9030000D01*
X-27400000Y2430000D02*
X-27400000Y1410000D01*
X-27400000Y4970000D02*
X-27400000Y3950000D01*
X-32600000Y-5190000D02*
X-32600000Y-6210000D01*
X-32600000Y17670000D02*
X-32600000Y16650000D01*
X-27400000Y15130000D02*
X-27400000Y14110000D01*
X-32600000Y7510000D02*
X-32600000Y6490000D01*
X-32600000Y12590000D02*
X-32600000Y11570000D01*
X-27400000Y12590000D02*
X-27400000Y11570000D01*
X-32600000Y-8300000D02*
X-27400000Y-8300000D01*
X-27400000Y-110000D02*
X-27400000Y-1130000D01*
X-27400000Y-5190000D02*
X-27400000Y-6210000D01*
X-32600000Y2430000D02*
X-32600000Y1410000D01*
X-27400000Y-7730000D02*
X-27400000Y-8300000D01*
X-27400000Y22300000D02*
X-27400000Y21730000D01*
X-27400000Y17670000D02*
X-27400000Y16650000D01*
X-32600000Y-7730000D02*
X-32600000Y-8300000D01*
X-34040000Y21730000D02*
X-32600000Y21730000D01*
X-32600000Y4970000D02*
X-32600000Y3950000D01*
X-27400000Y20210000D02*
X-27400000Y19190000D01*
X-27400000Y10050000D02*
X-27400000Y9030000D01*
X-32600000Y20210000D02*
X-32600000Y19190000D01*
X-32600000Y-2650000D02*
X-32600000Y-3670000D01*
X-32600000Y-110000D02*
X-32600000Y-1130000D01*
X-27400000Y-2650000D02*
X-27400000Y-3670000D01*
%TD*%
M02*
